<?xml version="1.0" encoding="utf-8" ?>
<svg baseProfile="tiny" height="800" version="1.2" width="800" xmlns="http://www.w3.org/2000/svg" xmlns:ev="http://www.w3.org/2001/xml-events" xmlns:xlink="http://www.w3.org/1999/xlink"><defs /><rect fill="none" height="800" stroke="black" stroke-width="2" width="800" x="0" y="0" /><polyline fill="none" points="623.1239,726.6462 624.2835,716.2211 625.4425,705.7966 626.6007,695.3727 627.7583,684.9494 628.9152,674.5266 630.0714,664.1043 631.227,653.6826 632.3819,643.2613 633.5361,632.8404 634.6897,622.42 635.8426,611.9999 636.9948,601.5803 638.1464,591.1609 639.2973,580.7419 640.4476,570.3232 641.5972,559.9048 642.7462,549.4866 643.8945,539.0686 645.0422,528.6508 646.1893,518.2332 647.3357,507.8158 648.4815,497.3985 649.6267,486.9812 650.7713,476.5641 651.9152,466.1469 653.0585,455.7299 654.2012,445.3128 655.3433,434.8956 656.4847,424.4785 657.6256,414.0612 658.7658,403.6439 659.9055,393.2264 661.0445,382.8088 662.183,372.391 663.3208,361.973 664.4581,351.5548 665.5948,341.1364 666.7308,330.7176 667.8663,320.2986 669.0012,309.8792 670.1356,299.4595 671.2693,289.0395 672.4025,278.619 673.5351,268.1981 674.6672,257.7767 675.7986,247.3549 676.9296,236.9326 678.0599,226.5098 679.1897,216.0864 680.3189,205.6625 681.4476,195.2379 682.5758,184.8128 683.7033,174.387 684.8304,163.9605 685.9569,153.5333 687.0828,143.1054 688.2082,132.6768 689.3331,122.2474 690.4575,111.8172 691.5813,101.3862" stroke="silver" stroke-opacity="0.5" stroke-width="1" /><polyline fill="none" points="503.1417,716.9094 503.6775,706.4389 504.213,695.969 504.7481,685.4999 505.283,675.0314 505.8175,664.5635 506.3517,654.0962 506.8856,643.6295 507.4192,633.1634 507.9524,622.6978 508.4854,612.2326 509.018,601.768 509.5504,591.3038 510.0824,580.84 510.6142,570.3767 511.1456,559.9137 511.6767,549.4511 512.2075,538.9888 512.7381,528.5268 513.2683,518.065 513.7982,507.6036 514.3279,497.1423 514.8572,486.6813 515.3863,476.2204 515.915,465.7597 516.4435,455.2991 516.9717,444.8386 517.4996,434.3782 518.0272,423.9179 518.5545,413.4575 519.0815,402.9972 519.6083,392.5369 520.1347,382.0765 520.6609,371.616 521.1868,361.1555 521.7125,350.6948 522.2378,340.234 522.7629,329.773 523.2877,319.3118 523.8123,308.8504 524.3365,298.3887 524.8605,287.9268 525.3843,277.4646 525.9077,267.0021 526.4309,256.5392 526.9538,246.0759 527.4765,235.6123 527.9989,225.1482 528.521,214.6837 529.0429,204.2187 529.5645,193.7532 530.0859,183.2872 530.607,172.8207 531.1278,162.3536 531.6484,151.8859 532.1687,141.4176 532.6888,130.9486 533.2087,120.479 533.7282,110.0086 534.2476,99.5376 534.7667,89.0658" stroke="silver" stroke-opacity="0.5" stroke-width="1" /><polyline fill="none" points="382.8299,714.3445 382.7407,703.862 382.6516,693.3803 382.5625,682.8992 382.4735,672.4188 382.3845,661.9391 382.2956,651.4599 382.2068,640.9814 382.1179,630.5035 382.0292,620.0261 381.9405,609.5492 381.8518,599.0728 381.7632,588.5969 381.6746,578.1214 381.5861,567.6464 381.4977,557.1718 381.4093,546.6975 381.3209,536.2236 381.2326,525.75 381.1444,515.2767 381.0562,504.8037 380.968,494.3309 380.8799,483.8583 380.7919,473.386 380.7038,462.9138 380.6159,452.4418 380.528,441.9699 380.4401,431.4981 380.3523,421.0263 380.2645,410.5547 380.1768,400.083 380.0891,389.6113 380.0015,379.1397 379.9139,368.6679 379.8264,358.1961 379.7389,347.7242 379.6515,337.2522 379.5641,326.78 379.4767,316.3076 379.3894,305.8351 379.3021,295.3623 379.2149,284.8893 379.1278,274.416 379.0406,263.9423 378.9536,253.4684 378.8665,242.9941 378.7795,232.5195 378.6926,222.0444 378.6057,211.5689 378.5188,201.093 378.432,190.6166 378.3452,180.1397 378.2585,169.6623 378.1718,159.1843 378.0852,148.7057 377.9986,138.2266 377.912,127.7468 377.8255,117.2664 377.739,106.7853 377.6526,96.3035 377.5662,85.821" stroke="silver" stroke-opacity="0.5" stroke-width="1" /><polyline fill="none" points="262.573,718.957 261.859,708.496 261.1454,698.0357 260.4323,687.5761 259.7196,677.1171 259.0074,666.6587 258.2955,656.2009 257.5841,645.7436 256.873,635.2869 256.1624,624.8307 255.4522,614.3749 254.7424,603.9197 254.0331,593.4648 253.3241,583.0104 252.6155,572.5564 251.9074,562.1027 251.1996,551.6494 250.4922,541.1963 249.7853,530.7436 249.0787,520.2911 248.3725,509.8388 247.6667,499.3868 246.9613,488.9349 246.2563,478.4832 245.5517,468.0317 244.8475,457.5802 244.1437,447.1289 243.4402,436.6776 242.7371,426.2263 242.0344,415.7751 241.3321,405.3238 240.6301,394.8725 239.9286,384.4211 239.2274,373.9697 238.5265,363.5181 237.8261,353.0664 237.126,342.6145 236.4263,332.1625 235.7269,321.7102 235.0279,311.2577 234.3293,300.8049 233.631,290.3519 232.9331,279.8985 232.2355,269.4448 231.5383,258.9908 230.8414,248.5363 230.1449,238.0815 229.4488,227.6262 228.753,217.1704 228.0575,206.7142 227.3624,196.2574 226.6676,185.8002 225.9732,175.3423 225.2791,164.8839 224.5854,154.4248 223.8919,143.9652 223.1989,133.5048 222.5061,123.0438 221.8137,112.5821 221.1216,102.1196 220.4299,91.6564" stroke="silver" stroke-opacity="0.5" stroke-width="1" /><polyline fill="none" points="142.7554,730.7371 141.4182,720.3311 140.0817,709.9257 138.746,699.5208 137.4111,689.1165 136.077,678.7126 134.7437,668.3093 133.4111,657.9064 132.0793,647.504 130.7483,637.102 129.418,626.7003 128.0885,616.299 126.7598,605.8981 125.4318,595.4974 124.1046,585.0971 122.7781,574.697 121.4523,564.2971 120.1273,553.8975 118.803,543.498 117.4795,533.0987 116.1567,522.6996 114.8346,512.3006 113.5132,501.9016 112.1926,491.5027 110.8727,481.1039 109.5535,470.705 108.235,460.3062 106.9172,449.9073 105.6001,439.5084 104.2838,429.1094 102.9681,418.7103 101.6531,408.311 100.3388,397.9116 99.0252,387.512 97.7123,377.1122 96.4001,366.7121 95.0886,356.3119 93.7777,345.9113 92.4675,335.5104 91.158,325.1092 89.8492,314.7076 88.541,304.3057 87.2335,293.9033 85.9266,283.5005 84.6204,273.0973 83.3148,262.6936 82.0099,252.2894 80.7057,241.8846 79.4021,231.4793 78.0991,221.0735 76.7968,210.667 75.4951,200.2599 74.194,189.8521 72.8936,179.4437 71.5938,169.0346 70.2946,158.6247 68.9961,148.2141 67.6981,137.8027 66.4008,127.3905 65.1041,116.9775 63.808,106.5636" stroke="silver" stroke-opacity="0.5" stroke-width="1" /><polyline fill="none" points="680.1416,691.4445 676.5675,690.958 672.5051,690.4128 668.4418,689.8757 664.3775,689.3467 660.3122,688.8257 656.246,688.3129 652.179,687.8081 648.111,687.3114 644.0422,686.8228 639.9724,686.3423 635.9019,685.8699 631.8305,685.4056 627.7583,684.9494 623.6853,684.5013 619.6115,684.0612 615.5369,683.6293 611.4616,683.2055 607.3855,682.7897 603.3087,682.3821 599.2311,681.9826 595.1529,681.5912 591.074,681.2078 586.9944,680.8326 582.9141,680.4655 578.8332,680.1065 574.7517,679.7556 570.6695,679.4128 566.5868,679.0781 562.5034,678.7516 558.4195,678.4331 554.335,678.1227 550.25,677.8205 546.1645,677.5264 542.0784,677.2403 537.9918,676.9624 533.9048,676.6927 529.8172,676.431 525.7293,676.1774 521.6408,675.932 517.552,675.6946 513.4627,675.4654 509.373,675.2443 505.283,675.0314 501.1926,674.8265 497.1018,674.6298 493.0106,674.4412 488.9192,674.2607 484.8274,674.0883 480.7353,673.924 476.643,673.7679 472.5504,673.6199 468.4575,673.48 464.3644,673.3482 460.271,673.2246 456.1775,673.1091 452.0837,673.0017 447.9898,672.9024 443.8956,672.8112 439.8014,672.7282 435.707,672.6533 431.6124,672.5865 427.5178,672.5278 423.4231,672.4773 419.3282,672.4349 415.2334,672.4006 411.1384,672.3744 407.0434,672.3564 402.9484,672.3465 398.8534,672.3447 394.7584,672.351 390.6634,672.3655 386.5684,672.3881 382.4735,672.4188 378.3786,672.4576 374.2839,672.5046 370.1892,672.5597 366.0946,672.6229 362.0001,672.6942 357.9058,672.7737 353.8116,672.8613 349.7176,672.957 345.6238,673.0608 341.5301,673.1727 337.4367,673.2928 333.3435,673.421 329.2505,673.5573 325.1577,673.7018 321.0653,673.8543 316.9731,674.015 312.8812,674.1838 308.7896,674.3607 304.6983,674.5458 300.6074,674.739 296.5168,674.9402 292.4265,675.1496 288.3367,675.3672 284.2472,675.5928 280.1582,675.8266 276.0696,676.0684 271.9814,676.3184 267.8937,676.5765 263.8064,676.8427 259.7196,677.1171 255.6333,677.3995 251.5476,677.6901 247.4623,677.9887 243.3776,678.2955 239.2934,678.6104 235.2098,678.9334 231.1268,679.2645 227.0444,679.6038 222.9626,679.9511 218.8814,680.3065 214.8008,680.6701 210.721,681.0417 206.6417,681.4215 202.5632,681.8094 198.4853,682.2053 194.4082,682.6094 190.3318,683.0216 186.2561,683.4418 182.1812,683.8702 178.1071,684.3066 174.0337,684.7512 169.9612,685.2039 165.8894,685.6646 161.8185,686.1335 157.7484,686.6104 153.6792,687.0954 149.6108,687.5886 145.5434,688.0898 141.4768,688.5991 137.4111,689.1165 133.3464,689.6419 129.2826,690.1755 125.2198,690.7171 121.1579,691.2669 119.8584,691.4445" stroke="silver" stroke-opacity="0.5" stroke-width="1" /><polyline fill="none" points="691.5064,608.3103 687.787,607.8063 683.5595,607.2413 679.331,606.6848 675.1015,606.1366 670.871,605.5968 666.6397,605.0654 662.4073,604.5424 658.1741,604.0277 653.94,603.5215 649.705,603.0236 645.4691,602.5341 641.2324,602.053 636.9948,601.5803 632.7564,601.1159 628.5172,600.66 624.2772,600.2124 620.0364,599.7733 615.7948,599.3425 611.5525,598.9202 607.3095,598.5062 603.0657,598.1006 598.8213,597.7034 594.5761,597.3147 590.3303,596.9343 586.0838,596.5623 581.8366,596.1987 577.5888,595.8435 573.3404,595.4968 569.0914,595.1584 564.8418,594.8284 560.5917,594.5068 556.341,594.1937 552.0897,593.8889 547.8379,593.5926 543.5856,593.3046 539.3328,593.0251 535.0795,592.754 530.8257,592.4913 526.5715,592.2369 522.3168,591.991 518.0618,591.7536 513.8063,591.5245 509.5504,591.3038 505.2941,591.0916 501.0375,590.8877 496.7805,590.6923 492.5232,590.5053 488.2655,590.3267 484.0076,590.1565 479.7493,589.9947 475.4908,589.8413 471.232,589.6964 466.973,589.5599 462.7137,589.4318 458.4543,589.3121 454.1946,589.2008 449.9347,589.0979 445.6747,589.0035 441.4144,588.9174 437.1541,588.8398 432.8936,588.7706 428.633,588.7099 424.3723,588.6575 420.1116,588.6136 415.8507,588.578 411.5898,588.5509 407.3289,588.5322 403.0679,588.522 398.8069,588.5201 394.546,588.5267 390.285,588.5417 386.0241,588.5651 381.7632,588.5969 377.5024,588.6371 373.2417,588.6858 368.981,588.7429 364.7205,588.8083 360.4601,588.8823 356.1998,588.9646 351.9397,589.0553 347.6798,589.1545 343.42,589.2621 339.1604,589.3781 334.901,589.5025 330.6419,589.6353 326.383,589.7765 322.1244,589.9262 317.866,590.0843 313.6079,590.2507 309.3502,590.4256 305.0927,590.609 300.8356,590.8007 296.5788,591.0008 292.3223,591.2094 288.0663,591.4263 283.8106,591.6517 279.5553,591.8855 275.3005,592.1277 271.0461,592.3783 266.7921,592.6373 262.5386,592.9048 258.2856,593.1806 254.0331,593.4648 249.781,593.7575 245.5295,594.0586 241.2786,594.368 237.0282,594.6859 232.7783,595.0122 228.5291,595.3468 224.2804,595.6899 220.0323,596.0414 215.7849,596.4013 211.5381,596.7696 207.292,597.1463 203.0465,597.5313 198.8018,597.9248 194.5577,598.3267 190.3143,598.737 186.0717,599.1557 181.8298,599.5827 177.5887,600.0182 173.3483,600.462 169.1088,600.9143 164.87,601.3749 160.6321,601.8439 156.395,602.3214 152.1587,602.8072 147.9233,603.3014 143.6888,603.8039 139.4552,604.3149 135.2224,604.8342 130.9907,605.362 126.7598,605.8981 122.5299,606.4426 118.301,606.9954 114.073,607.5567 109.846,608.1263 108.4936,608.3103" stroke="silver" stroke-opacity="0.5" stroke-width="1" /><polyline fill="none" points="702.8198,525.1949 698.9557,524.6735 694.5638,524.0891 690.1709,523.5134 685.777,522.9463 681.3821,522.388 676.9862,521.8383 672.5894,521.2972 668.1916,520.7649 663.7929,520.2412 659.3933,519.7262 654.9929,519.2199 650.5915,518.7222 646.1893,518.2332 641.7862,517.7529 637.3824,517.2813 632.9777,516.8184 628.5722,516.3641 624.1659,515.9186 619.7588,515.4817 615.351,515.0535 610.9425,514.6339 606.5332,514.2231 602.1232,513.821 597.7125,513.4275 593.3012,513.0427 588.8892,512.6667 584.4765,512.2993 580.0632,511.9406 575.6493,511.5906 571.2348,511.2493 566.8197,510.9166 562.404,510.5927 557.9878,510.2775 553.571,509.971 549.1537,509.6731 544.7359,509.384 540.3176,509.1035 535.8988,508.8318 531.4796,508.5687 527.0599,508.3144 522.6397,508.0687 518.2192,507.8318 513.7982,507.6036 509.3769,507.384 504.9551,507.1732 500.5331,506.971 496.1106,506.7776 491.6879,506.5928 487.2648,506.4168 482.8414,506.2495 478.4178,506.0909 473.9938,505.9409 469.5697,505.7997 465.1452,505.6672 460.7206,505.5434 456.2957,505.4283 451.8707,505.3219 447.4455,505.2242 443.0201,505.1352 438.5946,505.0549 434.1689,504.9834 429.7431,504.9205 425.3172,504.8664 420.8913,504.8209 416.4652,504.7842 412.0391,504.7561 407.613,504.7368 403.1868,504.7262 398.7607,504.7243 394.3345,504.731 389.9084,504.7465 385.4822,504.7707 381.0562,504.8037 376.6302,504.8453 372.2042,504.8956 367.7784,504.9546 363.3527,505.0224 358.9271,505.0988 354.5017,505.184 350.0764,505.2778 345.6513,505.3804 341.2263,505.4917 336.8016,505.6117 332.3771,505.7403 327.9528,505.8777 323.5287,506.0238 319.105,506.1786 314.6815,506.3421 310.2583,506.5143 305.8353,506.6952 301.4128,506.8848 296.9905,507.0831 292.5686,507.2902 288.1471,507.5059 283.726,507.7303 279.3052,507.9634 274.8849,508.2052 270.465,508.4558 266.0456,508.715 261.6266,508.9829 257.2081,509.2595 252.79,509.5448 248.3725,509.8388 243.9555,510.1415 239.539,510.4529 235.1231,510.773 230.7078,511.1018 226.293,511.4393 221.8788,511.7855 217.4652,512.1404 213.0523,512.5039 208.64,512.8762 204.2284,513.2571 199.8174,513.6468 195.4071,514.0451 190.9975,514.4521 186.5887,514.8678 182.1805,515.2922 177.7731,515.7253 173.3665,516.167 168.9607,516.6174 164.5556,517.0766 160.1514,517.5444 155.7479,518.0208 151.3454,518.506 146.9436,518.9998 142.5428,519.5023 138.1428,520.0135 133.7437,520.5334 129.3455,521.0619 124.9483,521.5992 120.552,522.145 116.1567,522.6996 111.7623,523.2628 107.369,523.8347 102.9766,524.4153 98.5853,525.0045 97.1802,525.1949" stroke="silver" stroke-opacity="0.5" stroke-width="1" /><polyline fill="none" points="714.0835,442.0855 710.0755,441.547 705.5199,440.9435 700.9632,440.3489 696.4055,439.7632 691.8469,439.1866 687.2872,438.6188 682.7266,438.0601 678.165,437.5103 673.6025,436.9694 669.039,436.4375 664.4747,435.9146 659.9094,435.4006 655.3433,434.8956 650.7763,434.3996 646.2084,433.9125 641.6397,433.4344 637.0702,432.9653 632.4999,432.5051 627.9288,432.0539 623.357,431.6117 618.7844,431.1784 614.211,430.7541 609.6369,430.3388 605.0621,429.9325 600.4867,429.5351 595.9105,429.1467 591.3337,428.7673 586.7562,428.3969 582.1781,428.0354 577.5994,427.6829 573.0201,427.3394 568.4402,427.0049 563.8597,426.6793 559.2787,426.3627 554.6971,426.0552 550.1151,425.7566 545.5325,425.4669 540.9494,425.1863 536.3658,424.9146 531.7818,424.652 527.1974,424.3983 522.6125,424.1536 518.0272,423.9179 513.4415,423.6911 508.8554,423.4734 504.2689,423.2646 499.6821,423.0649 495.095,422.8741 490.5075,422.6923 485.9197,422.5195 481.3317,422.3557 476.7433,422.2008 472.1547,422.055 467.5659,421.9181 462.9768,421.7903 458.3875,421.6714 453.7981,421.5615 449.2084,421.4606 444.6186,421.3688 440.0286,421.2858 435.4385,421.2119 430.8483,421.147 426.2579,421.0911 421.6675,421.0441 417.077,421.0062 412.4865,420.9772 407.8959,420.9573 403.3053,420.9463 398.7146,420.9443 394.124,420.9514 389.5334,420.9674 384.9428,420.9924 380.3523,421.0263 375.7618,421.0693 371.1715,421.1213 366.5812,421.1823 361.991,421.2522 357.401,421.3312 352.8111,421.4191 348.2214,421.516 343.6318,421.622 339.0424,421.7369 334.4533,421.8608 329.8643,421.9937 325.2756,422.1355 320.6872,422.2864 316.099,422.4463 311.5111,422.6151 306.9235,422.793 302.3362,422.9798 297.7492,423.1756 293.1626,423.3804 288.5764,423.5942 283.9905,423.817 279.405,424.0487 274.8199,424.2895 270.2353,424.5392 265.6511,424.798 261.0673,425.0657 256.484,425.3423 251.9012,425.628 247.3189,425.9227 242.7371,426.2263 238.1559,426.5389 233.5751,426.8605 228.995,427.1911 224.4154,427.5307 219.8364,427.8792 215.2581,428.2367 210.6803,428.6032 206.1032,428.9787 201.5268,429.3631 196.951,429.7565 192.3759,430.1589 187.8015,430.5703 183.2278,430.9906 178.6549,431.42 174.0827,431.8582 169.5113,432.3055 164.9406,432.7617 160.3707,433.2269 155.8017,433.7011 151.2335,434.1842 146.6661,434.6763 142.0996,435.1773 137.5339,435.6874 132.9692,436.2063 128.4053,436.7343 123.8424,437.2712 119.2804,437.8171 114.7193,438.3719 110.1592,438.9357 105.6001,439.5084 101.042,440.0901 96.4849,440.6807 91.9289,441.2803 87.3738,441.8889 85.9165,442.0855" stroke="silver" stroke-opacity="0.5" stroke-width="1" /><polyline fill="none" points="725.2994,358.9696 721.1479,358.4142 716.4293,357.7918 711.7096,357.1786 706.9889,356.5747 702.2671,355.9799 697.5443,355.3945 692.8206,354.8182 688.0959,354.2512 683.3702,353.6935 678.6435,353.1449 673.9159,352.6056 669.1875,352.0756 664.4581,351.5548 659.7278,351.0433 654.9967,350.541 650.2647,350.0479 645.5319,349.5641 640.7983,349.0896 636.0638,348.6242 631.3286,348.1682 626.5926,347.7214 621.8559,347.2838 617.1184,346.8555 612.3802,346.4365 607.6413,346.0267 602.9017,345.6262 598.1614,345.2349 593.4204,344.8529 588.6788,344.4801 583.9366,344.1166 579.1938,343.7624 574.4504,343.4174 569.7064,343.0817 564.9618,342.7552 560.2167,342.438 555.471,342.1301 550.7248,341.8314 545.9782,341.542 541.231,341.2619 536.4834,340.991 531.7353,340.7294 526.9868,340.4771 522.2378,340.234 517.4885,340.0002 512.7387,339.7756 507.9886,339.5603 503.2382,339.3543 498.4873,339.1576 493.7362,338.9701 488.9847,338.7919 484.233,338.623 479.4809,338.4633 474.7286,338.3129 469.9761,338.1718 465.2233,338.04 460.4703,337.9174 455.7171,337.8041 450.9637,337.7 446.2102,337.6053 441.4565,337.5198 436.7026,337.4436 431.9486,337.3766 427.1946,337.3189 422.4404,337.2705 417.6862,337.2314 412.9319,337.2016 408.1775,337.181 403.4232,337.1697 398.6688,337.1676 393.9144,337.1748 389.16,337.1914 384.4057,337.2171 379.6515,337.2522 374.8973,337.2965 370.1431,337.3501 365.3891,337.413 360.6352,337.4851 355.8815,337.5665 351.1278,337.6572 346.3744,337.7572 341.6211,337.8664 336.868,337.9849 332.1151,338.1127 327.3625,338.2497 322.61,338.396 317.8579,338.5516 313.106,338.7165 308.3544,338.8906 303.6031,339.074 298.8522,339.2666 294.1015,339.4686 289.3513,339.6798 284.6014,339.9002 279.8518,340.13 275.1027,340.369 270.354,340.6172 265.6057,340.8748 260.8579,341.1416 256.1105,341.4176 251.3636,341.703 246.6172,341.9975 241.8714,342.3014 237.126,342.6145 232.3812,342.9369 227.6369,343.2686 222.8932,343.6095 218.1501,343.9596 213.4077,344.319 208.6658,344.6877 203.9246,345.0657 199.184,345.4529 194.4441,345.8493 189.7049,346.2551 184.9663,346.67 180.2285,347.0942 175.4915,347.5277 170.7551,347.9705 166.0196,348.4224 161.2848,348.8837 156.5508,349.3542 151.8176,349.8339 147.0853,350.3229 142.3538,350.8211 137.6231,351.3286 132.8934,351.8453 128.1645,352.3713 123.4365,352.9065 118.7094,353.451 113.9833,354.0047 109.2582,354.5676 104.534,355.1398 99.8108,355.7212 95.0886,356.3119 90.3674,356.9117 85.6472,357.5209 80.9281,358.1392 76.2101,358.7668 74.7006,358.9696" stroke="silver" stroke-opacity="0.5" stroke-width="1" /><polyline fill="none" points="736.4692,275.8345 732.1748,275.2626 727.2938,274.6215 722.4117,273.99 717.5285,273.368 712.6443,272.7555 707.7591,272.1525 702.8729,271.559 697.9856,270.9751 693.0974,270.4006 688.2083,269.8357 683.3181,269.2803 678.4271,268.7344 673.5351,268.1981 668.6423,267.6712 663.7485,267.1539 658.8539,266.6462 653.9584,266.1479 649.0621,265.6592 644.165,265.18 639.2671,264.7103 634.3684,264.2501 629.4689,263.7995 624.5687,263.3584 619.6678,262.9269 614.7661,262.5048 609.8637,262.0923 604.9606,261.6894 600.0569,261.296 595.1525,260.9121 590.2474,260.5377 585.3417,260.1729 580.4355,259.8176 575.5286,259.4719 570.6212,259.1357 565.7131,258.809 560.8046,258.4919 555.8955,258.1843 550.9859,257.8863 546.0759,257.5978 541.1653,257.3188 536.2543,257.0494 531.3428,256.7895 526.4309,256.5392 521.5186,256.2984 516.6059,256.0671 511.6928,255.8454 506.7793,255.6333 501.8655,255.4307 496.9514,255.2376 492.0369,255.0541 487.1221,254.8801 482.2071,254.7157 477.2917,254.5608 472.3762,254.4155 467.4604,254.2797 462.5443,254.1535 457.6281,254.0368 452.7117,253.9296 447.7951,253.832 442.8783,253.744 437.9614,253.6655 433.0444,253.5966 428.1273,253.5372 423.21,253.4873 418.2927,253.447 413.3754,253.4163 408.458,253.3951 403.5406,253.3834 398.6231,253.3813 393.7057,253.3888 388.7883,253.4058 383.8709,253.4323 378.9536,253.4684 374.0363,253.5141 369.1191,253.5692 364.2021,253.634 359.2851,253.7083 354.3683,253.7921 349.4516,253.8855 344.5351,253.9885 339.6188,254.1009 334.7027,254.223 329.7868,254.3546 324.8711,254.4957 319.9556,254.6464 315.0405,254.8066 310.1256,254.9764 305.211,255.1557 300.2967,255.3445 295.3827,255.543 290.4691,255.7509 285.5558,255.9684 280.643,256.1955 275.7305,256.432 270.8184,256.6782 265.9067,256.9339 260.9955,257.1991 256.0847,257.4738 251.1744,257.7581 246.2646,258.052 241.3553,258.3554 236.4465,258.6683 231.5383,258.9908 226.6306,259.3228 221.7235,259.6643 216.8169,260.0154 211.911,260.376 207.0057,260.7462 202.101,261.1259 197.197,261.5151 192.2936,261.9139 187.3909,262.3222 182.4889,262.74 177.5876,263.1674 172.6871,263.6043 167.7873,264.0507 162.8882,264.5066 157.99,264.9721 153.0925,265.4471 148.1958,265.9317 143.3,266.4257 138.405,266.9293 133.5109,267.4425 128.6176,267.9651 123.7253,268.4973 118.8338,269.039 113.9433,269.5902 109.0537,270.1509 104.1651,270.7211 99.2774,271.3009 94.3907,271.8902 89.505,272.489 84.6204,273.0973 79.7368,273.7151 74.8542,274.3425 69.9727,274.9793 65.0923,275.6257 63.5308,275.8345" stroke="silver" stroke-opacity="0.5" stroke-width="1" /><polyline fill="none" points="747.5944,192.6677 743.1576,192.0793 738.1149,191.42 733.071,190.7704 728.0261,190.1305 722.9801,189.5005 717.933,188.8803 712.8849,188.2698 707.8358,187.6692 702.7858,187.0783 697.7347,186.4972 692.6826,185.9259 687.6297,185.3645 682.5758,184.8128 677.5209,184.2709 672.4652,183.7388 667.4086,183.2165 662.3511,182.704 657.2928,182.2012 652.2336,181.7083 647.1737,181.2252 642.1129,180.7519 637.0514,180.2884 631.989,179.8347 626.926,179.3909 621.8622,178.9568 616.7976,178.5325 611.7324,178.118 606.6665,177.7134 601.5999,177.3185 596.5327,176.9334 591.4649,176.5582 586.3964,176.1928 581.3273,175.8372 576.2576,175.4914 571.1874,175.1554 566.1166,174.8292 561.0453,174.5128 555.9734,174.2063 550.9011,173.9095 545.8282,173.6226 540.7549,173.3455 535.6812,173.0782 530.607,172.8207 525.5323,172.573 520.4573,172.3352 515.3819,172.1071 510.3061,171.8889 505.23,171.6805 500.1535,171.482 495.0767,171.2932 489.9995,171.1143 484.9221,170.9451 479.8445,170.7858 474.7665,170.6364 469.6883,170.4967 464.6099,170.3669 459.5313,170.2469 454.4525,170.1367 449.3735,170.0363 444.2944,169.9457 439.2151,169.865 434.1357,169.7941 429.0562,169.733 423.9766,169.6817 418.8969,169.6403 413.8171,169.6086 408.7373,169.5868 403.6575,169.5748 398.5776,169.5727 393.4978,169.5803 388.418,169.5978 383.3382,169.6251 378.2585,169.6623 373.1788,169.7092 368.0993,169.766 363.0198,169.8326 357.9405,169.909 352.8613,169.9952 347.7822,170.0913 342.7033,170.1972 337.6246,170.3129 332.5461,170.4384 327.4679,170.5737 322.3898,170.7189 317.312,170.8738 312.2345,171.0386 307.1572,171.2133 302.0803,171.3977 297.0037,171.592 291.9274,171.796 286.8514,172.0099 281.7758,172.2336 276.7006,172.4672 271.6258,172.7105 266.5514,172.9637 261.4775,173.2266 256.404,173.4994 251.3309,173.7821 246.2583,174.0745 241.1863,174.3767 236.1147,174.6888 231.0437,175.0106 225.9732,175.3423 220.9033,175.6838 215.8339,176.0351 210.7652,176.3962 205.6971,176.7671 200.6296,177.1479 195.5627,177.5384 190.4965,177.9388 185.431,178.3489 180.3661,178.7689 175.302,179.1986 170.2386,179.6382 165.176,180.0876 160.1141,180.5468 155.053,181.0158 149.9926,181.4946 144.9331,181.9832 139.8744,182.4816 134.8166,182.9897 129.7596,183.5077 124.7035,184.0355 119.6483,184.5731 114.5939,185.1205 109.5406,185.6777 104.4881,186.2447 99.4366,186.8214 94.3861,187.408 89.3365,188.0043 84.288,188.6105 79.2405,189.2264 74.194,189.8521 69.1486,190.4876 64.1043,191.1329 59.061,191.788 54.0189,192.4529 52.4056,192.6677" stroke="silver" stroke-opacity="0.5" stroke-width="1" /><polyline fill="none" points="758.6767,109.4564 754.0982,108.8519 748.8942,108.1745 743.6892,107.507 738.4831,106.8497 733.2759,106.2024 728.0676,105.5652 722.8583,104.938 717.6479,104.3208 712.4365,103.7138 707.2242,103.1168 702.0108,102.5298 696.7965,101.953 691.5813,101.3862 686.3651,100.8294 681.148,100.2827 675.93,99.7461 670.7112,99.2196 665.4914,98.7031 660.2709,98.1967 655.0495,97.7004 649.8272,97.2141 644.6042,96.7379 639.3804,96.2718 634.1559,95.8158 628.9306,95.3698 623.7045,94.9339 618.4778,94.5081 613.2504,94.0923 608.0222,93.6867 602.7935,93.2911 597.564,92.9056 592.334,92.5301 587.1033,92.1648 581.8721,91.8095 576.6402,91.4643 571.4078,91.1292 566.1749,90.8042 560.9414,90.4892 555.7074,90.1844 550.4729,89.8896 545.238,89.6049 540.0025,89.3303 534.7667,89.0658 529.5304,88.8113 524.2937,88.567 519.0566,88.3327 513.8191,88.1085 508.5812,87.8944 503.343,87.6904 498.1045,87.4965 492.8657,87.3127 487.6266,87.1389 482.3871,86.9753 477.1475,86.8217 471.9076,86.6782 466.6674,86.5448 461.4271,86.4215 456.1865,86.3083 450.9458,86.2052 445.7049,86.1122 440.4639,86.0292 435.2227,85.9564 429.9814,85.8936 424.7401,85.8409 419.4986,85.7984 414.2571,85.7659 409.0155,85.7435 403.774,85.7312 398.5324,85.7289 393.2908,85.7368 388.0492,85.7548 382.8077,85.7828 377.5662,85.821 372.3248,85.8692 367.0834,85.9275 361.8422,85.9959 356.6011,86.0744 351.3602,86.163 346.1194,86.2617 340.8787,86.3705 335.6383,86.4893 330.3981,86.6183 325.1581,86.7573 319.9183,86.9065 314.6788,87.0657 309.4395,87.235 304.2005,87.4144 298.9619,87.6039 293.7235,87.8034 288.4855,88.0131 283.2479,88.2328 278.0106,88.4627 272.7737,88.7026 267.5372,88.9526 262.3012,89.2127 257.0656,89.4828 251.8304,89.7631 246.5957,90.0534 241.3615,90.3539 236.1278,90.6644 230.8946,90.985 225.662,91.3156 220.4299,91.6564 215.1984,92.0072 209.9674,92.3681 204.7371,92.7391 199.5074,93.1202 194.2783,93.5114 189.0499,93.9126 183.8222,94.3239 178.5951,94.7453 173.3688,95.1768 168.1432,95.6183 162.9183,96.0699 157.6941,96.5316 152.4708,97.0033 147.2482,97.4852 142.0265,97.9771 136.8055,98.4791 131.5854,98.9911 126.3662,99.5132 121.1478,100.0454 115.9303,100.5876 110.7137,101.14 105.4981,101.7023 100.2833,102.2748 95.0696,102.8573 89.8568,103.4499 84.645,104.0525 79.4342,104.6652 74.2244,105.288 69.0156,105.9208 63.808,106.5636 58.6014,107.2166 53.3958,107.8796 48.1914,108.5526 42.9881,109.2357 41.3233,109.4564" stroke="silver" stroke-opacity="0.5" stroke-width="1" /><line fill="none" stroke="green" stroke-opacity="0.5" stroke-width="1.5" x1="161.4141" x2="374.3035" y1="405.1734" y2="481.7355" /><circle cx="703.0273" cy="512.2734" fill="black" r="0.738" stroke="none" /><circle cx="736.6977" cy="245.3109" fill="black" r="0.738" stroke="none" /><circle cx="692.76" cy="550.839" fill="black" r="0.738" stroke="none" /><circle cx="743.1359" cy="159.7426" fill="black" r="0.738" stroke="none" /><circle cx="737.1025" cy="198.9045" fill="black" r="0.738" stroke="none" /><circle cx="724.854" cy="246.8163" fill="black" r="0.936" stroke="none" /><circle cx="734.2022" cy="167.988" fill="black" r="0.738" stroke="none" /><circle cx="711.9074" cy="268.7759" fill="black" r="0.738" stroke="none" /><circle cx="668.9554" cy="520.35" fill="black" r="0.738" stroke="none" /><circle cx="652.7024" cy="654.9075" fill="black" r="0.738" stroke="none" /><circle cx="680.6334" cy="411.2055" fill="black" r="0.738" stroke="none" /><circle cx="639.6647" cy="702.9496" fill="black" r="0.936" stroke="none" /><circle cx="702.3385" cy="145.7256" fill="black" r="0.738" stroke="none" /><circle cx="650.0572" cy="576.7234" fill="black" r="0.738" stroke="none" /><circle cx="633.4734" cy="716.8419" fill="black" r="0.738" stroke="none" /><circle cx="698.4961" cy="122.7446" fill="black" r="0.738" stroke="none" /><circle cx="644.7796" cy="599.2476" fill="black" r="0.738" stroke="none" /><circle cx="673.8631" cy="330.1557" fill="black" r="0.738" stroke="none" /><circle cx="672.0006" cy="339.2282" fill="black" r="0.738" stroke="none" /><circle cx="655.1769" cy="488.1043" fill="black" r="0.738" stroke="none" /><circle cx="659.2924" cy="423.9442" fill="black" r="0.738" stroke="none" /><circle cx="650.9214" cy="449.0874" fill="black" r="0.738" stroke="none" /><circle cx="669.2381" cy="199.0894" fill="black" r="0.738" stroke="none" /><circle cx="663.3465" cy="218.5499" fill="black" r="0.738" stroke="none" /><circle cx="666.2852" cy="179.3918" fill="black" r="0.738" stroke="none" /><circle cx="665.6994" cy="121.7436" fill="black" r="0.738" stroke="none" /><circle cx="640.825" cy="363.7509" fill="black" r="0.738" stroke="none" /><circle cx="614.1448" cy="628.5074" fill="black" r="0.738" stroke="none" /><circle cx="608.4193" cy="678.7629" fill="black" r="0.738" stroke="none" /><circle cx="625.4071" cy="494.896" fill="black" r="0.738" stroke="none" /><circle cx="639.1621" cy="323.9104" fill="black" r="0.738" stroke="none" /><circle cx="654.0817" cy="136.2103" fill="black" r="0.738" stroke="none" /><circle cx="628.868" cy="337.3261" fill="black" r="0.936" stroke="none" /><circle cx="598.5806" cy="657.0619" fill="black" r="0.738" stroke="none" /><circle cx="624.0259" cy="272.9895" fill="black" r="0.738" stroke="none" /><circle cx="624.5932" cy="138.8687" fill="black" r="0.738" stroke="none" /><circle cx="601.4003" cy="394.452" fill="black" r="0.738" stroke="none" /><circle cx="605.2608" cy="338.927" fill="black" r="0.738" stroke="none" /><circle cx="597.2563" cy="381.6576" fill="black" r="0.738" stroke="none" /><circle cx="588.4669" cy="434.5882" fill="black" r="0.738" stroke="none" /><circle cx="578.3057" cy="538.6239" fill="black" r="0.738" stroke="none" /><circle cx="571.6949" cy="617.9907" fill="black" r="0.738" stroke="none" /><circle cx="587.6843" cy="352.3889" fill="black" r="0.738" stroke="none" /><circle cx="595.7146" cy="238.1698" fill="black" r="0.738" stroke="none" /><circle cx="583.0981" cy="330.8581" fill="black" r="0.738" stroke="none" /><circle cx="591.6093" cy="207.0882" fill="black" r="0.738" stroke="none" /><circle cx="579.1393" cy="357.8764" fill="black" r="0.738" stroke="none" /><circle cx="592.8569" cy="172.0358" fill="black" r="0.738" stroke="none" /><circle cx="562.7945" cy="569.6205" fill="black" r="0.936" stroke="none" /><circle cx="579.8789" cy="332.384" fill="black" r="1.17" stroke="none" /><circle cx="590.2602" cy="149.061" fill="black" r="1.17" stroke="none" /><circle cx="583.9707" cy="229.3112" fill="black" r="0.738" stroke="none" /><circle cx="590.4156" cy="127.21" fill="black" r="0.738" stroke="none" /><circle cx="564.0696" cy="474.5819" fill="black" r="0.738" stroke="none" /><circle cx="575.4956" cy="241.0682" fill="black" r="0.738" stroke="none" /><circle cx="540.4873" cy="707.3122" fill="black" r="0.738" stroke="none" /><circle cx="545.8294" cy="626.2275" fill="black" r="0.738" stroke="none" /><circle cx="542.3697" cy="585.831" fill="black" r="0.738" stroke="none" /><circle cx="565.503" cy="214.8626" fill="black" r="0.738" stroke="none" /><circle cx="533.0791" cy="705.8033" fill="black" r="0.738" stroke="none" /><circle cx="558.0273" cy="301.4817" fill="black" r="0.738" stroke="none" /><circle cx="554.9308" cy="335.6299" fill="black" r="0.738" stroke="none" /><circle cx="558.5176" cy="268.5091" fill="black" r="0.738" stroke="none" /><circle cx="558.6509" cy="181.7586" fill="black" r="0.738" stroke="none" /><circle cx="562.1663" cy="110.6456" fill="black" r="0.738" stroke="none" /><circle cx="537.5148" cy="509.0981" fill="black" r="0.738" stroke="none" /><circle cx="542.5077" cy="363.4968" fill="black" r="0.738" stroke="none" /><circle cx="531.0111" cy="504.4281" fill="black" r="0.738" stroke="none" /><circle cx="539.8044" cy="344.2012" fill="black" r="0.936" stroke="none" /><circle cx="539.3671" cy="336.5381" fill="black" r="0.738" stroke="none" /><circle cx="534.419" cy="410.0304" fill="black" r="0.738" stroke="none" /><circle cx="546.3562" cy="123.7676" fill="black" r="0.738" stroke="none" /><circle cx="529.8884" cy="376.2097" fill="black" r="0.738" stroke="none" /><circle cx="522.3967" cy="502.0969" fill="black" r="0.738" stroke="none" /><circle cx="517.5108" cy="589.9606" fill="black" r="0.738" stroke="none" /><circle cx="540.1949" cy="143.0881" fill="black" r="0.738" stroke="none" /><circle cx="509.0615" cy="698.8263" fill="black" r="0.738" stroke="none" /><circle cx="532.5266" cy="237.0445" fill="black" r="0.936" stroke="none" /><circle cx="515.6274" cy="411.3824" fill="black" r="0.738" stroke="none" /><circle cx="502.4177" cy="663.973" fill="black" r="0.738" stroke="none" /><circle cx="518.8723" cy="263.1363" fill="black" r="0.738" stroke="none" /><circle cx="500.911" cy="605.147" fill="black" r="0.738" stroke="none" /><circle cx="520.6459" cy="145.8222" fill="black" r="1.854" stroke="none" /><circle cx="517.4001" cy="125.1969" fill="black" r="0.738" stroke="none" /><circle cx="494.2225" cy="583.6156" fill="black" r="0.738" stroke="none" /><circle cx="506.1256" cy="251.4957" fill="black" r="0.738" stroke="none" /><circle cx="503.4697" cy="269.0832" fill="black" r="0.738" stroke="none" /><circle cx="496.0297" cy="351.2181" fill="black" r="0.738" stroke="none" /><circle cx="498.7682" cy="275.1002" fill="black" r="0.738" stroke="none" /><circle cx="499.0133" cy="105.0696" fill="black" r="0.738" stroke="none" /><circle cx="488.7098" cy="215.6896" fill="black" r="0.738" stroke="none" /><circle cx="473.9687" cy="590.4595" fill="black" r="0.738" stroke="none" /><circle cx="484.7125" cy="126.2289" fill="black" r="0.738" stroke="none" /><circle cx="476.4984" cy="263.8427" fill="black" r="0.738" stroke="none" /><circle cx="468.373" cy="334.2707" fill="black" r="0.738" stroke="none" /><circle cx="462.0324" cy="509.3512" fill="black" r="0.738" stroke="none" /><circle cx="469.022" cy="234.3695" fill="black" r="0.738" stroke="none" /><circle cx="455.5964" cy="661.7703" fill="black" r="0.738" stroke="none" /><circle cx="462.3353" cy="354.1396" fill="black" r="0.738" stroke="none" /><circle cx="456.0391" cy="589.0803" fill="black" r="0.738" stroke="none" /><circle cx="455.4791" cy="466.0171" fill="black" r="0.738" stroke="none" /><circle cx="451.9927" cy="555.531" fill="black" r="0.738" stroke="none" /><circle cx="451.0213" cy="402.1421" fill="black" r="0.738" stroke="none" /><circle cx="445.4148" cy="632.761" fill="black" r="0.738" stroke="none" /><circle cx="449.1036" cy="367.3261" fill="black" r="0.738" stroke="none" /><circle cx="449.1714" cy="235.5028" fill="black" r="0.738" stroke="none" /><circle cx="437.1002" cy="441.3469" fill="black" r="0.738" stroke="none" /><circle cx="438.5981" cy="164.8257" fill="black" r="0.738" stroke="none" /><circle cx="421.364" cy="267.0462" fill="black" r="0.738" stroke="none" /><circle cx="415.6407" cy="511.3138" fill="black" r="0.738" stroke="none" /><circle cx="414.725" cy="532.2554" fill="black" r="0.738" stroke="none" /><circle cx="412.6668" cy="596.6867" fill="black" r="0.738" stroke="none" /><circle cx="411.1293" cy="122.0611" fill="black" r="0.738" stroke="none" /><circle cx="410.3052" cy="282.4779" fill="black" r="0.738" stroke="none" /><circle cx="409.5182" cy="401.1082" fill="black" r="0.738" stroke="none" /><circle cx="395.1577" cy="97.9767" fill="black" r="0.738" stroke="none" /><circle cx="392.5116" cy="92.1125" fill="black" r="0.738" stroke="none" /><circle cx="391.615" cy="215.4328" fill="black" r="0.738" stroke="none" /><circle cx="392.6045" cy="656.2604" fill="black" r="0.738" stroke="none" /><circle cx="392.1053" cy="706.1521" fill="black" r="0.738" stroke="none" /><circle cx="382.4357" cy="683.3195" fill="black" r="0.738" stroke="none" /><circle cx="374.3154" cy="481.7445" fill="black" r="1.854" stroke="none" /><circle cx="373.0673" cy="448.3283" fill="black" r="0.738" stroke="none" /><circle cx="363.6991" cy="177.7871" fill="black" r="0.738" stroke="none" /><circle cx="362.8869" cy="222.5595" fill="black" r="0.738" stroke="none" /><circle cx="364.1354" cy="316.651" fill="black" r="0.738" stroke="none" /><circle cx="367.6656" cy="598.7368" fill="black" r="0.738" stroke="none" /><circle cx="356.3706" cy="427.1318" fill="black" r="0.738" stroke="none" /><circle cx="352.375" cy="256.5946" fill="black" r="0.738" stroke="none" /><circle cx="354.2375" cy="384.773" fill="black" r="0.738" stroke="none" /><circle cx="357.2733" cy="575.9503" fill="black" r="0.738" stroke="none" /><circle cx="357.9487" cy="704.8954" fill="black" r="0.738" stroke="none" /><circle cx="355.6343" cy="606.0777" fill="black" r="0.738" stroke="none" /><circle cx="353.3568" cy="553.0638" fill="black" r="0.738" stroke="none" /><circle cx="343.3982" cy="141.7562" fill="black" r="0.738" stroke="none" /><circle cx="345.3455" cy="332.5842" fill="black" r="0.738" stroke="none" /><circle cx="339.8555" cy="143.1758" fill="black" r="0.738" stroke="none" /><circle cx="330.2761" cy="230.4483" fill="black" r="0.936" stroke="none" /><circle cx="334.0428" cy="447.4357" fill="black" r="0.936" stroke="none" /><circle cx="341.4189" cy="714.5347" fill="black" r="0.738" stroke="none" /><circle cx="329.1419" cy="311.4586" fill="black" r="0.738" stroke="none" /><circle cx="325.3942" cy="248.1924" fill="black" r="0.936" stroke="none" /><circle cx="321.8774" cy="354.5981" fill="black" r="0.738" stroke="none" /><circle cx="316.1738" cy="308.0086" fill="black" r="0.738" stroke="none" /><circle cx="308.938" cy="101.0139" fill="black" r="0.936" stroke="none" /><circle cx="304.5361" cy="120.4656" fill="black" r="0.738" stroke="none" /><circle cx="300.9902" cy="156.4215" fill="black" r="0.738" stroke="none" /><circle cx="311.8634" cy="474.6702" fill="black" r="0.738" stroke="none" /><circle cx="315.0152" cy="652.5284" fill="black" r="0.738" stroke="none" /><circle cx="309.2542" cy="547.5659" fill="black" r="0.936" stroke="none" /><circle cx="300.6898" cy="419.6946" fill="black" r="0.738" stroke="none" /><circle cx="301.6959" cy="599.1519" fill="black" r="0.738" stroke="none" /><circle cx="296.6582" cy="495.942" fill="black" r="0.738" stroke="none" /><circle cx="276.4555" cy="108.5992" fill="black" r="0.738" stroke="none" /><circle cx="287.0141" cy="362.9382" fill="black" r="0.738" stroke="none" /><circle cx="274.2621" cy="110.7155" fill="black" r="0.738" stroke="none" /><circle cx="280.1988" cy="339.4417" fill="black" r="0.738" stroke="none" /><circle cx="279.7006" cy="339.3824" fill="black" r="0.738" stroke="none" /><circle cx="292.6498" cy="696.2158" fill="black" r="0.738" stroke="none" /><circle cx="283.3819" cy="568.3398" fill="black" r="0.936" stroke="none" /><circle cx="275.1877" cy="491.8226" fill="black" r="0.738" stroke="none" /><circle cx="259.2669" cy="210.3688" fill="black" r="0.738" stroke="none" /><circle cx="266.7333" cy="350.2958" fill="black" r="0.738" stroke="none" /><circle cx="253.4761" cy="116.8894" fill="black" r="0.738" stroke="none" /><circle cx="274.6065" cy="517.7891" fill="black" r="0.738" stroke="none" /><circle cx="250.3119" cy="271.0748" fill="black" r="0.738" stroke="none" /><circle cx="238.0899" cy="147.6831" fill="black" r="0.738" stroke="none" /><circle cx="263.7832" cy="693.2343" fill="black" r="0.738" stroke="none" /><circle cx="257.3726" cy="597.4416" fill="black" r="0.738" stroke="none" /><circle cx="225.5501" cy="234.2745" fill="black" r="0.738" stroke="none" /><circle cx="238.9401" cy="430.4327" fill="black" r="0.738" stroke="none" /><circle cx="234.3835" cy="383.3717" fill="black" r="0.738" stroke="none" /><circle cx="252.401" cy="658.712" fill="black" r="0.738" stroke="none" /><circle cx="224.1028" cy="286.7213" fill="black" r="0.738" stroke="none" /><circle cx="224.4157" cy="302.1595" fill="black" r="0.738" stroke="none" /><circle cx="215.5421" cy="206.8203" fill="black" r="0.738" stroke="none" /><circle cx="211.8641" cy="158.0736" fill="black" r="0.738" stroke="none" /><circle cx="242.1408" cy="633.3131" fill="black" r="0.738" stroke="none" /><circle cx="230.116" cy="504.6746" fill="black" r="0.738" stroke="none" /><circle cx="213.5431" cy="297.9107" fill="black" r="0.738" stroke="none" /><circle cx="196.3966" cy="104.8778" fill="black" r="0.738" stroke="none" /><circle cx="211.1849" cy="342.7254" fill="black" r="0.738" stroke="none" /><circle cx="208.6234" cy="365.2889" fill="black" r="0.738" stroke="none" /><circle cx="199.1904" cy="272.6244" fill="black" r="0.738" stroke="none" /><circle cx="219.0613" cy="519.9997" fill="black" r="0.738" stroke="none" /><circle cx="203.9737" cy="348.5092" fill="black" r="0.738" stroke="none" /><circle cx="227.4274" cy="640.6928" fill="black" r="0.738" stroke="none" /><circle cx="207.3806" cy="470.9241" fill="black" r="0.738" stroke="none" /><circle cx="214.8556" cy="578.3055" fill="black" r="0.738" stroke="none" /><circle cx="182.2585" cy="219.003" fill="black" r="0.738" stroke="none" /><circle cx="193.564" cy="408.3458" fill="black" r="0.738" stroke="none" /><circle cx="186.2884" cy="362.8776" fill="black" r="0.738" stroke="none" /><circle cx="200.0665" cy="527.511" fill="black" r="0.738" stroke="none" /><circle cx="160.8201" cy="121.6928" fill="black" r="0.738" stroke="none" /><circle cx="157.1575" cy="141.4814" fill="black" r="0.738" stroke="none" /><circle cx="193.0525" cy="595.8599" fill="black" r="0.738" stroke="none" /><circle cx="175.8074" cy="478.0125" fill="black" r="0.936" stroke="none" /><circle cx="153.0491" cy="296.8772" fill="black" r="0.738" stroke="none" /><circle cx="161.4198" cy="405.2293" fill="black" r="1.476" stroke="none" /><circle cx="166.926" cy="484.6332" fill="black" r="0.738" stroke="none" /><circle cx="143.3311" cy="293.9848" fill="black" r="0.738" stroke="none" /><circle cx="125.1969" cy="130.8428" fill="black" r="0.738" stroke="none" /><circle cx="173.8615" cy="652.4498" fill="black" r="0.738" stroke="none" /><circle cx="129.2618" cy="268.0644" fill="black" r="1.17" stroke="none" /><circle cx="145.7991" cy="478.3775" fill="black" r="0.738" stroke="none" /><circle cx="105.8807" cy="132.0547" fill="black" r="0.738" stroke="none" /><circle cx="94.6204" cy="105.6111" fill="black" r="0.738" stroke="none" /><circle cx="95.1818" cy="114.6706" fill="black" r="0.738" stroke="none" /><circle cx="130.7993" cy="435.359" fill="black" r="0.738" stroke="none" /><circle cx="102.6156" cy="206.301" fill="black" r="0.738" stroke="none" /><circle cx="121.1247" cy="405.1712" fill="black" r="0.738" stroke="none" /><circle cx="84.666" cy="116.1356" fill="black" r="0.738" stroke="none" /><circle cx="131.0749" cy="540.8722" fill="black" r="0.738" stroke="none" /><circle cx="103.3693" cy="350.6356" fill="black" r="0.738" stroke="none" /><circle cx="109.0489" cy="412.8796" fill="black" r="0.936" stroke="none" /><circle cx="130.36" cy="592.0846" fill="black" r="0.738" stroke="none" /><circle cx="122.0322" cy="538.7786" fill="black" r="0.738" stroke="none" /><circle cx="137.13" cy="663.6916" fill="black" r="0.738" stroke="none" /><circle cx="136.7804" cy="673.5472" fill="black" r="0.738" stroke="none" /><circle cx="85.1741" cy="280.9744" fill="black" r="0.738" stroke="none" /><circle cx="66.9778" cy="138.0618" fill="black" r="0.738" stroke="none" /><circle cx="89.2949" cy="361.6999" fill="black" r="1.17" stroke="none" /><circle cx="88.3044" cy="381.4475" fill="black" r="0.738" stroke="none" /><circle cx="13.77" cy="786.23" fill="black" r="4.59" stroke="none" /><circle cx="13.77" cy="786.23" fill="black" r="4.59" stroke="none" /><text fill="black" font-family="monospace" font-size="12" x="10.77" y="775.64">1</text><circle cx="37.77" cy="786.23" fill="black" r="3.654" stroke="none" /><circle cx="37.77" cy="786.23" fill="black" r="3.654" stroke="none" /><text fill="black" font-family="monospace" font-size="12" x="34.769999999999996" y="775.64">2</text><circle cx="61.77" cy="786.23" fill="black" r="2.916" stroke="none" /><circle cx="61.77" cy="786.23" fill="black" r="2.916" stroke="none" /><text fill="black" font-family="monospace" font-size="12" x="58.769999999999996" y="775.64">3</text><circle cx="85.77" cy="786.23" fill="black" r="2.322" stroke="none" /><circle cx="85.77" cy="786.23" fill="black" r="2.322" stroke="none" /><text fill="black" font-family="monospace" font-size="12" x="82.77" y="775.64">4</text><circle cx="109.77" cy="786.23" fill="black" r="1.854" stroke="none" /><circle cx="109.77" cy="786.23" fill="black" r="1.854" stroke="none" /><text fill="black" font-family="monospace" font-size="12" x="106.77" y="775.64">5</text><circle cx="133.77" cy="786.23" fill="black" r="1.476" stroke="none" /><circle cx="133.77" cy="786.23" fill="black" r="1.476" stroke="none" /><text fill="black" font-family="monospace" font-size="12" x="130.77" y="775.64">6</text><circle cx="157.77" cy="786.23" fill="black" r="1.17" stroke="none" /><circle cx="157.77" cy="786.23" fill="black" r="1.17" stroke="none" /><text fill="black" font-family="monospace" font-size="12" x="154.77" y="775.64">7</text><circle cx="181.77" cy="786.23" fill="black" r="0.936" stroke="none" /><circle cx="181.77" cy="786.23" fill="black" r="0.936" stroke="none" /><text fill="black" font-family="monospace" font-size="12" x="178.77" y="775.64">8</text><circle cx="205.77" cy="786.23" fill="black" r="0.738" stroke="none" /><circle cx="205.77" cy="786.23" fill="black" r="0.738" stroke="none" /><text fill="black" font-family="monospace" font-size="12" x="202.77" y="775.64">9</text><text fill="gray" fill-opacity="0.5" font-family="monospace" font-size="12" x="691.5812936436133" y="101.38616283290918">17h15m</text><text fill="gray" fill-opacity="0.5" font-family="monospace" font-size="12" x="534.7666722592633" y="89.06577841372632">17h30m</text><text fill="gray" fill-opacity="0.5" font-family="monospace" font-size="12" x="377.566173644599" y="85.82096090847546">17h45m</text><text fill="gray" fill-opacity="0.5" font-family="monospace" font-size="12" x="220.42987356801075" y="91.65638966755819">18h00m</text><text fill="gray" fill-opacity="0.5" font-family="monospace" font-size="12" x="63.80796782282994" y="106.56364264411053">18h15m</text><text fill="gray" fill-opacity="0.5" font-family="monospace" font-size="12" x="119.85835483583946" y="691.4444808342676">-67°</text><text fill="gray" fill-opacity="0.5" font-family="monospace" font-size="12" x="108.4936267389773" y="608.3103249468363">-66°</text><text fill="gray" fill-opacity="0.5" font-family="monospace" font-size="12" x="97.18024725045956" y="525.1948726762711">-65°</text><text fill="gray" fill-opacity="0.5" font-family="monospace" font-size="12" x="85.91646518450364" y="442.085503329495">-64°</text><text fill="gray" fill-opacity="0.5" font-family="monospace" font-size="12" x="74.70055953397713" y="358.9695998883525">-63°</text><text fill="gray" fill-opacity="0.5" font-family="monospace" font-size="12" x="63.53083841686441" y="275.83454135986">-62°</text><text fill="gray" fill-opacity="0.5" font-family="monospace" font-size="12" x="52.40563806037045" y="192.66769512131597">-61°</text><text fill="gray" fill-opacity="0.5" font-family="monospace" font-size="12" x="41.323321821368665" y="109.45640925042579">-60°</text><text fill="black" font-family="monospace" font-size="12" x="12" y="48">&gt;&gt; No.85 17h09m 18h17m -67.5°-60.0°</text><a target="_self" xlink:href="hip005.svg"><text fill="black" font-family="monospace" font-size="12" x="12" y="36">&gt; No.5 16h00m 24h00m -90.0°-52.5°</text></a><a target="_self" xlink:href="hip001.svg"><text fill="black" font-family="monospace" font-size="12" x="12" y="24">No.1 00h 24h -90.0°+0.0°</text></a><polyline fill="none" points="758.6767,109.4564 754.0982,108.8519 748.8942,108.1745 743.6892,107.507 738.4831,106.8497 733.2759,106.2024 728.0676,105.5652 722.8583,104.938 717.6479,104.3208 712.4365,103.7138 707.2242,103.1168 702.0108,102.5298 696.7965,101.953 691.5813,101.3862 686.3651,100.8294 681.148,100.2827 675.93,99.7461 670.7112,99.2196 665.4914,98.7031 660.2709,98.1967 655.0495,97.7004 649.8272,97.2141 644.6042,96.7379 639.3804,96.2718 634.1559,95.8158 628.9306,95.3698 623.7045,94.9339 618.4778,94.5081 613.2504,94.0923 608.0222,93.6867 602.7935,93.2911 597.564,92.9056 592.334,92.5301 587.1033,92.1648 581.8721,91.8095 576.6402,91.4643 571.4078,91.1292 566.1749,90.8042 560.9414,90.4892 555.7074,90.1844 550.4729,89.8896 545.238,89.6049 540.0025,89.3303 534.7667,89.0658 529.5304,88.8113 524.2937,88.567 519.0566,88.3327 513.8191,88.1085 508.5812,87.8944 503.343,87.6904 498.1045,87.4965 492.8657,87.3127 487.6266,87.1389 482.3871,86.9753 477.1475,86.8217 471.9076,86.6782 466.6674,86.5448 461.4271,86.4215 456.1865,86.3083 450.9458,86.2052 445.7049,86.1122 440.4639,86.0292 435.2227,85.9564 429.9814,85.8936 424.7401,85.8409 419.4986,85.7984 414.2571,85.7659 409.0155,85.7435 403.774,85.7312 398.5324,85.7289 393.2908,85.7368 388.0492,85.7548 382.8077,85.7828 377.5662,85.821 372.3248,85.8692 367.0834,85.9275 361.8422,85.9959 356.6011,86.0744 351.3602,86.163 346.1194,86.2617 340.8787,86.3705 335.6383,86.4893 330.3981,86.6183 325.1581,86.7573 319.9183,86.9065 314.6788,87.0657 309.4395,87.235 304.2005,87.4144 298.9619,87.6039 293.7235,87.8034 288.4855,88.0131 283.2479,88.2328 278.0106,88.4627 272.7737,88.7026 267.5372,88.9526 262.3012,89.2127 257.0656,89.4828 251.8304,89.7631 246.5957,90.0534 241.3615,90.3539 236.1278,90.6644 230.8946,90.985 225.662,91.3156 220.4299,91.6564 215.1984,92.0072 209.9674,92.3681 204.7371,92.7391 199.5074,93.1202 194.2783,93.5114 189.0499,93.9126 183.8222,94.3239 178.5951,94.7453 173.3688,95.1768 168.1432,95.6183 162.9183,96.0699 157.6941,96.5316 152.4708,97.0033 147.2482,97.4852 142.0265,97.9771 136.8055,98.4791 131.5854,98.9911 126.3662,99.5132 121.1478,100.0454 115.9303,100.5876 110.7137,101.14 105.4981,101.7023 100.2833,102.2748 95.0696,102.8573 89.8568,103.4499 84.645,104.0525 79.4342,104.6652 74.2244,105.288 69.0156,105.9208 63.808,106.5636 58.6014,107.2166 53.3958,107.8796 48.1914,108.5526 42.9881,109.2357 41.3233,109.4564" stroke="black" stroke-opacity="0.5" stroke-width="1" /><polyline fill="none" points="674.4395,733.0225 675.8663,722.6272 677.2922,712.2324 678.7174,701.8382 680.1416,691.4445 681.5651,681.0513 682.9877,670.6585 684.4095,660.2662 685.8305,649.8743 687.2507,639.4828 688.6701,629.0916 690.0886,618.7008 691.5064,608.3103 692.9233,597.9201 694.3395,587.5302 695.7548,577.1405 697.1694,566.751 698.5831,556.3618 699.9961,545.9727 701.4083,535.5837 702.8198,525.1949 704.2304,514.8061 705.6403,504.4175 707.0494,494.0288 708.4577,483.6402 709.8653,473.2516 711.2721,462.863 712.6782,452.4743 714.0835,442.0855 715.4881,431.6966 716.8919,421.3076 718.295,410.9185 719.6974,400.5292 721.099,390.1396 722.4999,379.7499 723.9,369.3599 725.2994,358.9696 726.6981,348.579 728.0961,338.1881 729.4934,327.7969 730.89,317.4053 732.2858,307.0132 733.681,296.6208 735.0754,286.2279 736.4692,275.8345 737.8622,265.4407 739.2546,255.0463 740.6462,244.6514 742.0372,234.2559 743.4275,223.8598 744.8171,213.4631 746.2061,203.0657 747.5944,192.6677 748.982,182.269 750.3689,171.8695 751.7552,161.4694 753.1408,151.0684 754.5257,140.6667 755.91,130.2641 757.2937,119.8607 758.6767,109.4564" stroke="black" stroke-opacity="0.5" stroke-width="1" /><polyline fill="none" points="674.4395,733.0225 670.9382,732.545 666.9587,732.0097 662.9782,731.4824 658.9967,730.9631 655.0143,730.4517 651.0311,729.9482 647.0469,729.4526 643.0618,728.965 639.0759,728.4854 635.0891,728.0137 631.1015,727.5499 627.1131,727.0941 623.1239,726.6462 619.1338,726.2063 615.143,725.7743 611.1514,725.3502 607.1591,724.9342 603.1661,724.526 599.1723,724.1258 595.1778,723.7336 591.1826,723.3493 587.1867,722.973 583.1902,722.6047 579.193,722.2443 575.1952,721.8918 571.1967,721.5473 567.1977,721.2108 563.198,720.8822 559.1978,720.5616 555.197,720.249 551.1957,719.9443 547.1938,719.6476 543.1914,719.3588 539.1885,719.078 535.1851,718.8052 531.1812,718.5403 527.1768,718.2834 523.172,718.0345 519.1668,717.7935 515.1611,717.5606 511.155,717.3355 507.1486,717.1185 503.1417,716.9094 499.1345,716.7083 495.1269,716.5151 491.119,716.33 487.1108,716.1528 483.1023,715.9835 479.0934,715.8223 475.0843,715.669 471.0749,715.5237 467.0653,715.3863 463.0554,715.257 459.0453,715.1356 455.035,715.0222 451.0245,714.9167 447.0138,714.8193 443.003,714.7298 438.992,714.6483 434.9809,714.5747 430.9696,714.5091 426.9582,714.4516 422.9467,714.4019 418.9352,714.3603 414.9236,714.3267 410.9119,714.301 406.9002,714.2833 402.8885,714.2735 398.8767,714.2718 394.865,714.278 390.8532,714.2922 386.8416,714.3144 382.8299,714.3445 378.8183,714.3826 374.8068,714.4287 370.7954,714.4828 366.7841,714.5449 362.7729,714.6149 358.7618,714.6929 354.7509,714.7789 350.7402,714.8729 346.7296,714.9748 342.7192,715.0847 338.709,715.2026 334.699,715.3284 330.6893,715.4623 326.6798,715.6041 322.6705,715.7538 318.6616,715.9116 314.6529,716.0773 310.6445,716.251 306.6365,716.4327 302.6288,716.6223 298.6214,716.8199 294.6144,717.0255 290.6078,717.239 286.6015,717.4606 282.5957,717.69 278.5902,717.9275 274.5852,718.1729 270.5807,718.4263 266.5766,718.6877 262.573,718.957 258.5698,719.2343 254.5672,719.5195 250.5651,719.8128 246.5635,720.1139 242.5625,720.4231 238.562,720.7402 234.5621,721.0652 230.5628,721.3983 226.5641,721.7393 222.566,722.0882 218.5685,722.4451 214.5717,722.81 210.5755,723.1828 206.58,723.5636 202.5852,723.9523 198.5911,724.349 194.5977,724.7536 190.6051,725.1662 186.6132,725.5867 182.622,726.0152 178.6317,726.4516 174.6421,726.896 170.6533,727.3484 166.6653,727.8086 162.6782,728.2769 158.6919,728.753 154.7064,729.2371 150.7219,729.7292 146.7382,730.2292 142.7554,730.7371 138.7736,731.2529 134.7926,731.7767 130.8126,732.3085 126.8336,732.8481 125.5605,733.0225" stroke="black" stroke-opacity="0.5" stroke-width="1" /><polyline fill="none" points="125.5605,733.0225 124.1337,722.6272 122.7078,712.2324 121.2826,701.8382 119.8584,691.4445 118.4349,681.0513 117.0123,670.6585 115.5905,660.2662 114.1695,649.8743 112.7493,639.4828 111.3299,629.0916 109.9114,618.7008 108.4936,608.3103 107.0767,597.9201 105.6605,587.5302 104.2452,577.1405 102.8306,566.751 101.4169,556.3618 100.0039,545.9727 98.5917,535.5837 97.1802,525.1949 95.7696,514.8061 94.3597,504.4175 92.9506,494.0288 91.5423,483.6402 90.1347,473.2516 88.7279,462.863 87.3218,452.4743 85.9165,442.0855 84.5119,431.6966 83.1081,421.3076 81.705,410.9185 80.3026,400.5292 78.901,390.1396 77.5001,379.7499 76.1,369.3599 74.7006,358.9696 73.3019,348.579 71.9039,338.1881 70.5066,327.7969 69.11,317.4053 67.7142,307.0132 66.319,296.6208 64.9246,286.2279 63.5308,275.8345 62.1378,265.4407 60.7454,255.0463 59.3538,244.6514 57.9628,234.2559 56.5725,223.8598 55.1829,213.4631 53.7939,203.0657 52.4056,192.6677 51.018,182.269 49.6311,171.8695 48.2448,161.4694 46.8592,151.0684 45.4743,140.6667 44.09,130.2641 42.7063,119.8607 41.3233,109.4564" stroke="black" stroke-opacity="0.5" stroke-width="1" /></svg>