<?xml version="1.0" encoding="utf-8" ?>
<svg baseProfile="tiny" height="800" version="1.2" width="800" xmlns="http://www.w3.org/2000/svg" xmlns:ev="http://www.w3.org/2001/xml-events" xmlns:xlink="http://www.w3.org/1999/xlink"><defs /><rect fill="none" height="800" stroke="black" stroke-width="2" width="800" x="0" y="0" /><polyline fill="none" points="617.6934,708.1518 619.4513,698.6972 621.2085,689.2431 622.9649,679.7894 624.7206,670.3361 626.4755,660.8833 628.2298,651.4308 629.9833,641.9788 631.736,632.527 633.4881,623.0756 635.2395,613.6245 636.9901,604.1736 638.7401,594.723 640.4893,585.2726 642.2379,575.8224 643.9857,566.3725 645.7329,556.9226 647.4794,547.473 649.2253,538.0234 650.9704,528.5739 652.7149,519.1245 654.4587,509.6752 656.2019,500.2259 657.9444,490.7766 659.6863,481.3272 661.4275,471.8779 663.168,462.4284 664.908,452.9789 666.6473,443.5293 668.3859,434.0795 670.124,424.6296 671.8614,415.1796 673.5982,405.7293 675.3344,396.2788 677.07,386.8281 678.8049,377.3771 680.5393,367.9258 682.2731,358.4742 684.0062,349.0223 685.7388,339.57 687.4708,330.1173 689.2022,320.6643 690.9331,311.2108 692.6634,301.7569 694.3931,292.3025 696.1222,282.8476 697.8508,273.3922 699.5788,263.9363 701.3062,254.4799 703.0332,245.0228 704.7595,235.5652 706.4854,226.1069 708.2106,216.648 709.9354,207.1884 711.6596,197.7281 713.3833,188.2671 715.1065,178.8054 716.8292,169.3429 718.5513,159.8796 720.273,150.4156 721.9941,140.9507" stroke="silver" stroke-opacity="0.5" stroke-width="1" /><polyline fill="none" points="519.1922,694.063 520.1541,684.4998 521.1157,674.9372 522.0768,665.3752 523.0376,655.8137 523.9979,646.2528 524.9578,636.6925 525.9173,627.1326 526.8764,617.5731 527.8351,608.0141 528.7934,598.4556 529.7514,588.8974 530.7089,579.3397 531.666,569.7823 532.6228,560.2252 533.5791,550.6684 534.5351,541.1119 535.4907,531.5557 536.446,521.9997 537.4008,512.444 538.3553,502.8884 539.3094,493.3331 540.2631,483.7778 541.2165,474.2227 542.1695,464.6677 543.1221,455.1128 544.0744,445.558 545.0263,436.0032 545.9779,426.4484 546.9291,416.8936 547.88,407.3388 548.8305,397.7839 549.7807,388.2289 550.7305,378.6739 551.68,369.1187 552.6291,359.5634 553.5779,350.0079 554.5264,340.4522 555.4745,330.8964 556.4223,321.3402 557.3698,311.7839 558.317,302.2272 559.2638,292.6703 560.2103,283.113 561.1565,273.5554 562.1024,263.9974 563.0479,254.439 563.9932,244.8802 564.9381,235.3209 565.8827,225.7612 566.827,216.201 567.771,206.6403 568.7148,197.0791 569.6582,187.5173 570.6013,177.955 571.5441,168.392 572.4866,158.8285 573.4289,149.2642 574.3708,139.6993 575.3125,130.1338 576.2538,120.5675" stroke="silver" stroke-opacity="0.5" stroke-width="1" /><polyline fill="none" points="419.8963,688.2484 420.0568,678.6404 420.2173,669.0331 420.3777,659.4264 420.538,649.8204 420.6983,640.2149 420.8585,630.61 421.0186,621.0057 421.1787,611.4018 421.3387,601.7985 421.4986,592.1957 421.6585,582.5933 421.8183,572.9913 421.978,563.3898 422.1377,553.7886 422.2973,544.1878 422.4568,534.5873 422.6163,524.9872 422.7757,515.3874 422.935,505.7878 423.0943,496.1885 423.2535,486.5894 423.4127,476.9905 423.5718,467.3918 423.7308,457.7932 423.8898,448.1948 424.0487,438.5965 424.2075,428.9983 424.3663,419.4002 424.525,409.8021 424.6837,400.204 424.8423,390.6059 425.0009,381.0078 425.1594,371.4096 425.3178,361.8114 425.4762,352.2131 425.6345,342.6147 425.7928,333.0161 425.951,323.4174 426.1092,313.8185 426.2673,304.2193 426.4253,294.62 426.5833,285.0204 426.7413,275.4205 426.8991,265.8203 427.057,256.2198 427.2147,246.619 427.3725,237.0178 427.5301,227.4162 427.6878,217.8142 427.8453,208.2117 428.0028,198.6088 428.1603,189.0054 428.3177,179.4015 428.4751,169.7971 428.6324,160.1921 428.7897,150.5866 428.9469,140.9805 429.1041,131.3737 429.2612,121.7663 429.4183,112.1582" stroke="silver" stroke-opacity="0.5" stroke-width="1" /><polyline fill="none" points="320.4679,690.7413 319.8261,681.1525 319.1845,671.5644 318.5433,661.9769 317.9023,652.3899 317.2616,642.8036 316.6212,633.2177 315.981,623.6325 315.3412,614.0477 314.7015,604.4633 314.0622,594.8795 313.4231,585.2961 312.7843,575.713 312.1457,566.1304 311.5074,556.5481 310.8694,546.9662 310.2316,537.3846 309.5941,527.8033 308.9568,518.2223 308.3197,508.6415 307.683,499.0609 307.0464,489.4806 306.4102,479.9004 305.7741,470.3204 305.1383,460.7405 304.5028,451.1607 303.8675,441.5811 303.2324,432.0015 302.5976,422.4219 301.963,412.8424 301.3287,403.2628 300.6945,393.6833 300.0606,384.1036 299.427,374.524 298.7936,364.9442 298.1604,355.3643 297.5274,345.7843 296.8946,336.2041 296.2621,326.6238 295.6298,317.0432 294.9977,307.4624 294.3659,297.8813 293.7342,288.3 293.1028,278.7184 292.4716,269.1365 291.8406,259.5542 291.2098,249.9715 290.5792,240.3885 289.9488,230.8051 289.3186,221.2212 288.6887,211.6368 288.0589,202.052 287.4294,192.4667 286.8,182.8809 286.1709,173.2945 285.5419,163.7075 284.9131,154.12 284.2846,144.5318 283.6562,134.943 283.028,125.3535 282.4,115.7634" stroke="silver" stroke-opacity="0.5" stroke-width="1" /><polyline fill="none" points="221.5694,701.5275 220.129,692.0218 218.6891,682.5167 217.2498,673.012 215.8112,663.5079 214.3732,654.0042 212.9357,644.501 211.4989,634.9982 210.0626,625.4958 208.627,615.9938 207.1919,606.4921 205.7574,596.9908 204.3235,587.4898 202.8902,577.9891 201.4575,568.4886 200.0253,558.9884 198.5937,549.4884 197.1626,539.9886 195.7321,530.489 194.3022,520.9896 192.8728,511.4902 191.444,501.991 190.0157,492.4919 188.5879,482.9928 187.1607,473.4938 185.7341,463.9948 184.3079,454.4958 182.8823,444.9967 181.4573,435.4976 180.0327,425.9985 178.6087,416.4992 177.1851,406.9998 175.7621,397.5003 174.3396,388.0006 172.9176,378.5008 171.4961,369.0007 170.0751,359.5004 168.6546,349.9998 167.2346,340.499 165.8151,330.9979 164.3961,321.4965 162.9775,311.9947 161.5594,302.4925 160.1418,292.99 158.7247,283.487 157.3081,273.9836 155.8919,264.4798 154.4761,254.9755 153.0609,245.4707 151.6461,235.9653 150.2317,226.4594 148.8178,216.953 147.4043,207.4459 145.9913,197.9383 144.5787,188.43 143.1665,178.921 141.7548,169.4114 140.3435,159.901 138.9327,150.3899 137.5222,140.8781 136.1122,131.3655" stroke="silver" stroke-opacity="0.5" stroke-width="1" /><polyline fill="none" points="637.2402,711.9562 634.8003,711.4628 632.3593,710.9744 629.9173,710.4912 627.4744,710.0131 625.0306,709.5401 622.5858,709.0722 620.1401,708.6095 617.6934,708.1518 615.2459,707.6993 612.7974,707.2519 610.3481,706.8097 607.8979,706.3725 605.4468,705.9405 602.9949,705.5136 600.5421,705.0919 598.0884,704.6753 595.634,704.2638 593.1787,703.8575 590.7227,703.4563 588.2658,703.0603 585.8081,702.6693 583.3497,702.2836 580.8905,701.903 578.4306,701.5275 575.9699,701.1572 573.5084,700.792 571.0463,700.4319 568.5834,700.0771 566.1199,699.7273 563.6556,699.3828 561.1906,699.0433 558.725,698.7091 556.2588,698.38 553.7918,698.056 551.3243,697.7372 548.8561,697.4236 546.3872,697.1151 543.9178,696.8118 541.4478,696.5137 538.9771,696.2207 536.5059,695.9329 534.0342,695.6503 531.5618,695.3728 529.089,695.1005 526.6155,694.8334 524.1416,694.5714 521.6671,694.3146 519.1922,694.063 516.7167,693.8166 514.2408,693.5753 511.7643,693.3392 509.2874,693.1083 506.8101,692.8825 504.3323,692.662 501.8541,692.4466 499.3754,692.2364 496.8963,692.0314 494.4169,691.8315 491.937,691.6369 489.4568,691.4474 486.9761,691.2631 484.4952,691.084 482.0138,690.9101 479.5321,690.7413 477.0501,690.5778 474.5678,690.4194 472.0852,690.2662 469.6022,690.1182 467.119,689.9754 464.6355,689.8378 462.1517,689.7054 459.6677,689.5781 457.1834,689.4561 454.6989,689.3392 452.2141,689.2276 449.7291,689.1211 447.244,689.0198 444.7586,688.9237 442.273,688.8328 439.7873,688.7471 437.3014,688.6666 434.8153,688.5913 432.3291,688.5211 429.8428,688.4562 427.3563,688.3965 424.8697,688.3419 422.3831,688.2926 419.8963,688.2484 417.4094,688.2095 414.9225,688.1757 412.4355,688.1471 409.9485,688.1237 407.4614,688.1056 404.9743,688.0926 402.4871,688.0848 400.0,688.0822 397.5129,688.0848 395.0257,688.0926 392.5386,688.1056 390.0515,688.1237 387.5645,688.1471 385.0775,688.1757 382.5906,688.2095 380.1037,688.2484 377.6169,688.2926 375.1303,688.3419 372.6437,688.3965 370.1572,688.4562 367.6709,688.5211 365.1847,688.5913 362.6986,688.6666 360.2127,688.7471 357.727,688.8328 355.2414,688.9237 352.756,689.0198 350.2709,689.1211 347.7859,689.2276 345.3011,689.3392 342.8166,689.4561 340.3323,689.5781 337.8483,689.7054 335.3645,689.8378 332.881,689.9754 330.3978,690.1182 327.9148,690.2662 325.4322,690.4194 322.9499,690.5778 320.4679,690.7413 317.9862,690.9101 315.5048,691.084 313.0239,691.2631 310.5432,691.4474 308.063,691.6369 305.5831,691.8315 303.1037,692.0314 300.6246,692.2364 298.1459,692.4466 295.6677,692.662 293.1899,692.8825 290.7126,693.1083 288.2357,693.3392 285.7592,693.5753 283.2833,693.8166 280.8078,694.063 278.3329,694.3146 275.8584,694.5714 273.3845,694.8334 270.911,695.1005 268.4382,695.3728 265.9658,695.6503 263.4941,695.9329 261.0229,696.2207 258.5522,696.5137 256.0822,696.8118 253.6128,697.1151 251.1439,697.4236 248.6757,697.7372 246.2082,698.056 243.7412,698.38 241.275,698.7091 238.8094,699.0433 236.3444,699.3828 233.8801,699.7273 231.4166,700.0771 228.9537,700.4319 226.4916,700.792 224.0301,701.1572 221.5694,701.5275 219.1095,701.903 216.6503,702.2836 214.1919,702.6693 211.7342,703.0603 209.2773,703.4563 206.8213,703.8575 204.366,704.2638 201.9116,704.6753 199.4579,705.0919 197.0051,705.5136 194.5532,705.9405 192.1021,706.3725 189.6519,706.8097 187.2026,707.2519 184.7541,707.6993 182.3066,708.1518 179.8599,708.6095 177.4142,709.0722 174.9694,709.5401 172.5256,710.0131 170.0827,710.4912 167.6407,710.9744 165.1997,711.4628 162.7598,711.9562" stroke="silver" stroke-opacity="0.5" stroke-width="1" /><polyline fill="none" points="652.5461,636.5652 649.9484,636.0414 647.3496,635.5231 644.7499,635.0101 642.1491,634.5026 639.5473,634.0006 636.9445,633.504 634.3408,633.0128 631.736,632.527 629.1303,632.0467 626.5237,631.5718 623.9161,631.1024 621.3076,630.6384 618.6982,630.1799 616.0879,629.7268 613.4767,629.2791 610.8646,628.8369 608.2516,628.4002 605.6378,627.9689 603.0231,627.5431 600.4076,627.1227 597.7913,626.7078 595.1741,626.2983 592.5561,625.8943 589.9374,625.4958 587.3178,625.1027 584.6975,624.7151 582.0764,624.333 579.4546,623.9563 576.832,623.5851 574.2087,623.2194 571.5846,622.8591 568.9599,622.5044 566.3344,622.1551 563.7083,621.8112 561.0815,621.4729 558.454,621.14 555.8259,620.8126 553.1971,620.4907 550.5677,620.1742 547.9377,619.8633 545.3071,619.5578 542.6758,619.2578 540.044,618.9633 537.4116,618.6743 534.7786,618.3908 532.1451,618.1127 529.511,617.8402 526.8764,617.5731 524.2413,617.3116 521.6056,617.0555 518.9695,616.8049 516.3329,616.5598 513.6957,616.3202 511.0582,616.0861 508.4201,615.8575 505.7816,615.6344 503.1427,615.4168 500.5033,615.2047 497.8635,614.9981 495.2234,614.797 492.5828,614.6014 489.9418,614.4113 487.3005,614.2267 484.6588,614.0477 482.0168,613.8741 479.3744,613.706 476.7317,613.5434 474.0887,613.3863 471.4454,613.2348 468.8018,613.0887 466.1579,612.9482 463.5137,612.8131 460.8693,612.6836 458.2246,612.5596 455.5797,612.441 452.9345,612.328 450.2891,612.2205 447.6435,612.1186 444.9978,612.0221 442.3518,611.9311 439.7057,611.8457 437.0593,611.7657 434.4129,611.6913 431.7663,611.6224 429.1196,611.559 426.4727,611.5011 423.8258,611.4487 421.1787,611.4018 418.5315,611.3605 415.8843,611.3246 413.237,611.2943 410.5897,611.2695 407.9423,611.2502 405.2949,611.2364 402.6475,611.2281 400.0,611.2254 397.3525,611.2281 394.7051,611.2364 392.0577,611.2502 389.4103,611.2695 386.763,611.2943 384.1157,611.3246 381.4685,611.3605 378.8213,611.4018 376.1742,611.4487 373.5273,611.5011 370.8804,611.559 368.2337,611.6224 365.5871,611.6913 362.9407,611.7657 360.2943,611.8457 357.6482,611.9311 355.0022,612.0221 352.3565,612.1186 349.7109,612.2205 347.0655,612.328 344.4203,612.441 341.7754,612.5596 339.1307,612.6836 336.4863,612.8131 333.8421,612.9482 331.1982,613.0887 328.5546,613.2348 325.9113,613.3863 323.2683,613.5434 320.6256,613.706 317.9832,613.8741 315.3412,614.0477 312.6995,614.2267 310.0582,614.4113 307.4172,614.6014 304.7766,614.797 302.1365,614.9981 299.4967,615.2047 296.8573,615.4168 294.2184,615.6344 291.5799,615.8575 288.9418,616.0861 286.3043,616.3202 283.6671,616.5598 281.0305,616.8049 278.3944,617.0555 275.7587,617.3116 273.1236,617.5731 270.489,617.8402 267.8549,618.1127 265.2214,618.3908 262.5884,618.6743 259.956,618.9633 257.3242,619.2578 254.6929,619.5578 252.0623,619.8633 249.4323,620.1742 246.8029,620.4907 244.1741,620.8126 241.546,621.14 238.9185,621.4729 236.2917,621.8112 233.6656,622.1551 231.0401,622.5044 228.4154,622.8591 225.7913,623.2194 223.168,623.5851 220.5454,623.9563 217.9236,624.333 215.3025,624.7151 212.6822,625.1027 210.0626,625.4958 207.4439,625.8943 204.8259,626.2983 202.2087,626.7078 199.5924,627.1227 196.9769,627.5431 194.3622,627.9689 191.7484,628.4002 189.1354,628.8369 186.5233,629.2791 183.9121,629.7268 181.3018,630.1799 178.6924,630.6384 176.0839,631.1024 173.4763,631.5718 170.8697,632.0467 168.264,632.527 165.6592,633.0128 163.0555,633.504 160.4527,634.0006 157.8509,634.5026 155.2501,635.0101 152.6504,635.5231 150.0516,636.0414 147.4539,636.5652" stroke="silver" stroke-opacity="0.5" stroke-width="1" /><polyline fill="none" points="667.8024,561.1924 665.0475,560.6386 662.2914,560.0905 659.5343,559.5481 656.7761,559.0116 654.0169,558.4807 651.2566,557.9556 648.4953,557.4362 645.7329,556.9226 642.9696,556.4148 640.2052,555.9127 637.4399,555.4164 634.6736,554.9258 631.9064,554.4409 629.1382,553.9619 626.369,553.4886 623.5989,553.021 620.828,552.5593 618.0561,552.1033 615.2833,551.653 612.5096,551.2086 609.7351,550.7699 606.9597,550.3369 604.1834,549.9098 601.4063,549.4884 598.6284,549.0728 595.8497,548.663 593.0702,548.259 590.2899,547.8607 587.5088,547.4683 584.7269,547.0816 581.9443,546.7007 579.1609,546.3256 576.3768,545.9563 573.592,545.5927 570.8065,545.235 568.0203,544.8831 565.2333,544.5369 562.4457,544.1965 559.6575,543.862 556.8686,543.5332 554.079,543.2103 551.2888,542.8931 548.498,542.5817 545.7066,542.2762 542.9146,541.9764 540.122,541.6824 537.3289,541.3943 534.5351,541.1119 531.7409,540.8354 528.946,540.5646 526.1507,540.2997 523.3548,540.0406 520.5585,539.7873 517.7616,539.5398 514.9643,539.2981 512.1665,539.0622 509.3682,538.8322 506.5695,538.6079 503.7703,538.3895 500.9707,538.1769 498.1707,537.9701 495.3704,537.7691 492.5696,537.574 489.7684,537.3846 486.9669,537.2011 484.165,537.0234 481.3628,536.8515 478.5602,536.6854 475.7573,536.5252 472.9541,536.3708 470.1507,536.2222 467.3469,536.0794 464.5428,535.9425 461.7385,535.8113 458.9339,535.686 456.1291,535.5666 453.3241,535.4529 450.5188,535.3451 447.7134,535.2431 444.9077,535.1469 442.1019,535.0566 439.2959,534.9721 436.4897,534.8934 433.6834,534.8205 430.8769,534.7535 428.0703,534.6923 425.2636,534.6369 422.4568,534.5873 419.6499,534.5436 416.8429,534.5057 414.0359,534.4737 411.2288,534.4474 408.4216,534.427 405.6144,534.4125 402.8072,534.4037 400.0,534.4008 397.1928,534.4037 394.3856,534.4125 391.5784,534.427 388.7712,534.4474 385.9641,534.4737 383.1571,534.5057 380.3501,534.5436 377.5432,534.5873 374.7364,534.6369 371.9297,534.6923 369.1231,534.7535 366.3166,534.8205 363.5103,534.8934 360.7041,534.9721 357.8981,535.0566 355.0923,535.1469 352.2866,535.2431 349.4812,535.3451 346.6759,535.4529 343.8709,535.5666 341.0661,535.686 338.2615,535.8113 335.4572,535.9425 332.6531,536.0794 329.8493,536.2222 327.0459,536.3708 324.2427,536.5252 321.4398,536.6854 318.6372,536.8515 315.835,537.0234 313.0331,537.2011 310.2316,537.3846 307.4304,537.574 304.6296,537.7691 301.8293,537.9701 299.0293,538.1769 296.2297,538.3895 293.4305,538.6079 290.6318,538.8322 287.8335,539.0622 285.0357,539.2981 282.2384,539.5398 279.4415,539.7873 276.6452,540.0406 273.8493,540.2997 271.054,540.5646 268.2591,540.8354 265.4649,541.1119 262.6711,541.3943 259.878,541.6824 257.0854,541.9764 254.2934,542.2762 251.502,542.5817 248.7112,542.8931 245.921,543.2103 243.1314,543.5332 240.3425,543.862 237.5543,544.1965 234.7667,544.5369 231.9797,544.8831 229.1935,545.235 226.408,545.5927 223.6232,545.9563 220.8391,546.3256 218.0557,546.7007 215.2731,547.0816 212.4912,547.4683 209.7101,547.8607 206.9298,548.259 204.1503,548.663 201.3716,549.0728 198.5937,549.4884 195.8166,549.9098 193.0403,550.3369 190.2649,550.7699 187.4904,551.2086 184.7167,551.653 181.9439,552.1033 179.172,552.5593 176.4011,553.021 173.631,553.4886 170.8618,553.9619 168.0936,554.4409 165.3264,554.9258 162.5601,555.4164 159.7948,555.9127 157.0304,556.4148 154.2671,556.9226 151.5047,557.4362 148.7434,557.9556 145.9831,558.4807 143.2239,559.0116 140.4657,559.5481 137.7086,560.0905 134.9525,560.6386 132.1976,561.1924" stroke="silver" stroke-opacity="0.5" stroke-width="1" /><polyline fill="none" points="683.0116,485.8264 680.0998,485.2428 677.1869,484.6653 674.2729,484.0938 671.3577,483.5284 668.4415,482.969 665.5242,482.4157 662.6057,481.8684 659.6863,481.3272 656.7657,480.7921 653.8442,480.263 650.9215,479.74 647.9979,479.2231 645.0733,478.7122 642.1477,478.2074 639.221,477.7087 636.2935,477.2161 633.3649,476.7295 630.4354,476.249 627.505,475.7746 624.5736,475.3063 621.6414,474.844 618.7082,474.3878 615.7742,473.9378 612.8393,473.4938 609.9035,473.0559 606.9668,472.6241 604.0293,472.1983 601.091,471.7787 598.1519,471.3652 595.212,470.9577 592.2713,470.5564 589.3298,470.1612 586.3875,469.772 583.4445,469.389 580.5007,469.012 577.5562,468.6412 574.611,468.2765 571.6651,467.9179 568.7184,467.5653 565.7711,467.2189 562.8232,466.8786 559.8745,466.5445 556.9252,466.2164 553.9753,465.8944 551.0248,465.5786 548.0736,465.2688 545.1218,464.9652 542.1695,464.6677 539.2166,464.3764 536.2631,464.0911 533.309,463.812 530.3544,463.5389 527.3993,463.272 524.4437,463.0113 521.4876,462.7566 518.5309,462.5081 515.5738,462.2657 512.6163,462.0294 509.6582,461.7993 506.6998,461.5753 503.7409,461.3574 500.7815,461.1456 497.8218,460.94 494.8617,460.7405 491.9011,460.5471 488.9403,460.3599 485.979,460.1788 483.0174,460.0038 480.0555,459.835 477.0932,459.6723 474.1306,459.5157 471.1678,459.3653 468.2046,459.221 465.2412,459.0829 462.2775,458.9508 459.3135,458.825 456.3493,458.7052 453.3849,458.5916 450.4203,458.4841 447.4554,458.3828 444.4904,458.2876 441.5252,458.1986 438.5598,458.1157 435.5943,458.0389 432.6286,457.9683 429.6628,457.9038 426.6968,457.8454 423.7308,457.7932 420.7647,457.7472 417.7984,457.7072 414.8321,457.6735 411.8658,457.6458 408.8994,457.6243 405.9329,457.609 402.9665,457.5998 400.0,457.5967 397.0335,457.5998 394.0671,457.609 391.1006,457.6243 388.1342,457.6458 385.1679,457.6735 382.2016,457.7072 379.2353,457.7472 376.2692,457.7932 373.3032,457.8454 370.3372,457.9038 367.3714,457.9683 364.4057,458.0389 361.4402,458.1157 358.4748,458.1986 355.5096,458.2876 352.5446,458.3828 349.5797,458.4841 346.6151,458.5916 343.6507,458.7052 340.6865,458.825 337.7225,458.9508 334.7588,459.0829 331.7954,459.221 328.8322,459.3653 325.8694,459.5157 322.9068,459.6723 319.9445,459.835 316.9826,460.0038 314.021,460.1788 311.0597,460.3599 308.0989,460.5471 305.1383,460.7405 302.1782,460.94 299.2185,461.1456 296.2591,461.3574 293.3002,461.5753 290.3418,461.7993 287.3837,462.0294 284.4262,462.2657 281.4691,462.5081 278.5124,462.7566 275.5563,463.0113 272.6007,463.272 269.6456,463.5389 266.691,463.812 263.7369,464.0911 260.7834,464.3764 257.8305,464.6677 254.8782,464.9652 251.9264,465.2688 248.9752,465.5786 246.0247,465.8944 243.0748,466.2164 240.1255,466.5445 237.1768,466.8786 234.2289,467.2189 231.2816,467.5653 228.3349,467.9179 225.389,468.2765 222.4438,468.6412 219.4993,469.012 216.5555,469.389 213.6125,469.772 210.6702,470.1612 207.7287,470.5564 204.788,470.9577 201.8481,471.3652 198.909,471.7787 195.9707,472.1983 193.0332,472.6241 190.0965,473.0559 187.1607,473.4938 184.2258,473.9378 181.2918,474.3878 178.3586,474.844 175.4264,475.3063 172.495,475.7746 169.5646,476.249 166.6351,476.7295 163.7065,477.2161 160.779,477.7087 157.8523,478.2074 154.9267,478.7122 152.0021,479.2231 149.0785,479.74 146.1558,480.263 143.2343,480.7921 140.3137,481.3272 137.3943,481.8684 134.4758,482.4157 131.5585,482.969 128.6423,483.5284 125.7271,484.0938 122.8131,484.6653 119.9002,485.2428 116.9884,485.8264" stroke="silver" stroke-opacity="0.5" stroke-width="1" /><polyline fill="none" points="698.1758,410.4557 695.1077,409.8427 692.0384,409.236 688.9679,408.6356 685.8962,408.0416 682.8234,407.454 679.7495,406.8727 676.6744,406.2978 673.5982,405.7293 670.5209,405.1671 667.4425,404.6113 664.3631,404.0619 661.2825,403.5189 658.201,402.9822 655.1184,402.4519 652.0347,401.928 648.9501,401.4105 645.8644,400.8994 642.7778,400.3946 639.6902,399.8963 636.6016,399.4043 633.5121,398.9187 630.4216,398.4395 627.3302,397.9667 624.2379,397.5003 621.1447,397.0403 618.0506,396.5867 614.9556,396.1395 611.8597,395.6987 608.763,395.2643 605.6655,394.8363 602.5671,394.4147 599.468,393.9995 596.368,393.5907 593.2672,393.1884 590.1657,392.7924 587.0634,392.4029 583.9603,392.0197 580.8565,391.643 577.752,391.2727 574.6468,390.9088 571.5408,390.5514 568.4342,390.2003 565.3269,389.8557 562.2189,389.5175 559.1103,389.1857 556.001,388.8604 552.8912,388.5414 549.7807,388.2289 546.6696,387.9229 543.5579,387.6232 540.4456,387.33 537.3328,387.0432 534.2194,386.7629 531.1055,386.4889 527.991,386.2214 524.876,385.9604 521.7606,385.7058 518.6446,385.4576 515.5282,385.2158 512.4113,384.9805 509.294,384.7516 506.1762,384.5292 503.058,384.3132 499.9394,384.1036 496.8203,383.9005 493.7009,383.7039 490.5811,383.5136 487.461,383.3298 484.3405,383.1525 481.2196,382.9816 478.0985,382.8171 474.977,382.6591 471.8552,382.5076 468.7331,382.3624 465.6108,382.2238 462.4882,382.0915 459.3653,381.9657 456.2422,381.8464 453.1189,381.7335 449.9954,381.6271 446.8716,381.5271 443.7477,381.4336 440.6236,381.3465 437.4993,381.2658 434.3749,381.1917 431.2504,381.1239 428.1257,381.0626 425.0009,381.0078 421.876,380.9594 418.751,380.9175 415.626,380.882 412.5008,380.853 409.3757,380.8304 406.2505,380.8143 403.1252,380.8046 400.0,380.8013 396.8748,380.8046 393.7495,380.8143 390.6243,380.8304 387.4992,380.853 384.374,380.882 381.249,380.9175 378.124,380.9594 374.9991,381.0078 371.8743,381.0626 368.7496,381.1239 365.6251,381.1917 362.5007,381.2658 359.3764,381.3465 356.2523,381.4336 353.1284,381.5271 350.0046,381.6271 346.8811,381.7335 343.7578,381.8464 340.6347,381.9657 337.5118,382.0915 334.3892,382.2238 331.2669,382.3624 328.1448,382.5076 325.023,382.6591 321.9015,382.8171 318.7804,382.9816 315.6595,383.1525 312.539,383.3298 309.4189,383.5136 306.2991,383.7039 303.1797,383.9005 300.0606,384.1036 296.942,384.3132 293.8238,384.5292 290.706,384.7516 287.5887,384.9805 284.4718,385.2158 281.3554,385.4576 278.2394,385.7058 275.124,385.9604 272.009,386.2214 268.8945,386.4889 265.7806,386.7629 262.6672,387.0432 259.5544,387.33 256.4421,387.6232 253.3304,387.9229 250.2193,388.2289 247.1088,388.5414 243.999,388.8604 240.8897,389.1857 237.7811,389.5175 234.6731,389.8557 231.5658,390.2003 228.4592,390.5514 225.3532,390.9088 222.248,391.2727 219.1435,391.643 216.0397,392.0197 212.9366,392.4029 209.8343,392.7924 206.7328,393.1884 203.632,393.5907 200.532,393.9995 197.4329,394.4147 194.3345,394.8363 191.237,395.2643 188.1403,395.6987 185.0444,396.1395 181.9494,396.5867 178.8553,397.0403 175.7621,397.5003 172.6698,397.9667 169.5784,398.4395 166.4879,398.9187 163.3984,399.4043 160.3098,399.8963 157.2222,400.3946 154.1356,400.8994 151.0499,401.4105 147.9653,401.928 144.8816,402.4519 141.799,402.9822 138.7175,403.5189 135.6369,404.0619 132.5575,404.6113 129.4791,405.1671 126.4018,405.7293 123.3256,406.2978 120.2505,406.8727 117.1766,407.454 114.1038,408.0416 111.0321,408.6356 107.9616,409.236 104.8923,409.8427 101.8242,410.4557" stroke="silver" stroke-opacity="0.5" stroke-width="1" /><polyline fill="none" points="713.2976,335.069 710.0735,334.4267 706.8481,333.7911 703.6215,333.1621 700.3938,332.5398 697.1648,331.9242 693.9346,331.3152 690.7033,330.7129 687.4708,330.1173 684.2372,329.5284 681.0024,328.9461 677.7665,328.3705 674.5295,327.8016 671.2914,327.2394 668.0523,326.6839 664.812,326.135 661.5707,325.5928 658.3284,325.0574 655.085,324.5286 651.8406,324.0065 648.5953,323.4911 645.3489,322.9824 642.1015,322.4804 638.8532,321.9851 635.6039,321.4965 632.3537,321.0145 629.1026,320.5393 625.8505,320.0709 622.5976,319.6091 619.3438,319.154 616.0891,318.7056 612.8335,318.264 609.5771,317.829 606.3198,317.4008 603.0617,316.9793 599.8029,316.5645 596.5432,316.1564 593.2827,315.755 590.0215,315.3604 586.7595,314.9725 583.4968,314.5913 580.2334,314.2168 576.9692,313.849 573.7043,313.488 570.4387,313.1337 567.1725,312.7862 563.9056,312.4453 560.638,312.1112 557.3698,311.7839 554.101,311.4632 550.8315,311.1493 547.5615,310.8422 544.2909,310.5418 541.0197,310.2481 537.7479,309.9611 534.4756,309.6809 531.2027,309.4074 527.9294,309.1407 524.6555,308.8807 521.3811,308.6275 518.1063,308.381 514.8309,308.1412 511.5552,307.9082 508.2789,307.6819 505.0023,307.4624 501.7252,307.2496 498.4477,307.0436 495.1699,306.8443 491.8916,306.6518 488.613,306.466 485.334,306.287 482.0547,306.1147 478.7751,305.9492 475.4951,305.7904 472.2149,305.6384 468.9344,305.4931 465.6536,305.3546 462.3725,305.2228 459.0912,305.0978 455.8096,304.9796 452.5279,304.8681 449.2459,304.7633 445.9637,304.6654 442.6814,304.5741 439.3988,304.4897 436.1161,304.4119 432.8333,304.341 429.5503,304.2768 426.2673,304.2193 422.9841,304.1687 419.7008,304.1247 416.4175,304.0876 413.1341,304.0571 409.8506,304.0335 406.5671,304.0166 403.2835,304.0065 400.0,304.0031 396.7165,304.0065 393.4329,304.0166 390.1494,304.0335 386.8659,304.0571 383.5825,304.0876 380.2992,304.1247 377.0159,304.1687 373.7327,304.2193 370.4497,304.2768 367.1667,304.341 363.8839,304.4119 360.6012,304.4897 357.3186,304.5741 354.0363,304.6654 350.7541,304.7633 347.4721,304.8681 344.1904,304.9796 340.9088,305.0978 337.6275,305.2228 334.3464,305.3546 331.0656,305.4931 327.7851,305.6384 324.5049,305.7904 321.2249,305.9492 317.9453,306.1147 314.666,306.287 311.387,306.466 308.1084,306.6518 304.8301,306.8443 301.5523,307.0436 298.2748,307.2496 294.9977,307.4624 291.7211,307.6819 288.4448,307.9082 285.1691,308.1412 281.8937,308.381 278.6189,308.6275 275.3445,308.8807 272.0706,309.1407 268.7973,309.4074 265.5244,309.6809 262.2521,309.9611 258.9803,310.2481 255.7091,310.5418 252.4385,310.8422 249.1685,311.1493 245.899,311.4632 242.6302,311.7839 239.362,312.1112 236.0944,312.4453 232.8275,312.7862 229.5613,313.1337 226.2957,313.488 223.0308,313.849 219.7666,314.2168 216.5032,314.5913 213.2405,314.9725 209.9785,315.3604 206.7173,315.755 203.4568,316.1564 200.1971,316.5645 196.9383,316.9793 193.6802,317.4008 190.4229,317.829 187.1665,318.264 183.9109,318.7056 180.6562,319.154 177.4024,319.6091 174.1495,320.0709 170.8974,320.5393 167.6463,321.0145 164.3961,321.4965 161.1468,321.9851 157.8985,322.4804 154.6511,322.9824 151.4047,323.4911 148.1594,324.0065 144.915,324.5286 141.6716,325.0574 138.4293,325.5928 135.188,326.135 131.9477,326.6839 128.7086,327.2394 125.4705,327.8016 122.2335,328.3705 118.9976,328.9461 115.7628,329.5284 112.5292,330.1173 109.2967,330.7129 106.0654,331.3152 102.8352,331.9242 99.6062,332.5398 96.3785,333.1621 93.1519,333.7911 89.9265,334.4267 86.7024,335.069" stroke="silver" stroke-opacity="0.5" stroke-width="1" /><polyline fill="none" points="728.379,259.6547 724.9993,258.9835 721.6183,258.3192 718.2361,257.6619 714.8526,257.0115 711.4678,256.3682 708.0818,255.7318 704.6946,255.1023 701.3062,254.4799 697.9166,253.8644 694.5259,253.2559 691.134,252.6544 687.7409,252.0598 684.3467,251.4723 680.9513,250.8917 677.5549,250.3181 674.1573,249.7515 670.7587,249.1919 667.359,248.6393 663.9582,248.0937 660.5565,247.5551 657.1536,247.0235 653.7498,246.4989 650.345,245.9813 646.9391,245.4707 643.5323,244.9671 640.1246,244.4705 636.7159,243.9809 633.3062,243.4983 629.8957,243.0227 626.4842,242.5542 623.0718,242.0926 619.6586,241.6381 616.2445,241.1906 612.8295,240.7501 609.4137,240.3166 605.9971,239.8902 602.5797,239.4708 599.1614,239.0584 595.7424,238.653 592.3226,238.2546 588.902,237.8633 585.4807,237.479 582.0587,237.1018 578.636,236.7315 575.2125,236.3683 571.7884,236.0122 568.3636,235.663 564.9381,235.3209 561.512,234.9859 558.0852,234.6579 554.6578,234.3369 551.2298,234.0229 547.8012,233.716 544.372,233.4162 540.9423,233.1233 537.512,232.8376 534.0811,232.5588 530.6498,232.2872 527.2179,232.0225 523.7855,231.7649 520.3526,231.5144 516.9193,231.2709 513.4855,231.0345 510.0512,230.8051 506.6165,230.5827 503.1814,230.3674 499.7459,230.1592 496.31,229.958 492.8737,229.7639 489.437,229.5768 486.0,229.3968 482.5627,229.2238 479.125,229.0579 475.687,228.899 472.2487,228.7472 468.8102,228.6025 465.3713,228.4648 461.9322,228.3342 458.4929,228.2106 455.0533,228.0941 451.6136,227.9846 448.1736,227.8823 444.7334,227.7869 441.293,227.6987 437.8525,227.6174 434.4119,227.5433 430.9711,227.4762 427.5301,227.4162 424.0891,227.3632 420.648,227.3173 417.2068,227.2785 413.7655,227.2467 410.3242,227.222 406.8828,227.2043 403.4414,227.1937 400.0,227.1902 396.5586,227.1937 393.1172,227.2043 389.6758,227.222 386.2345,227.2467 382.7932,227.2785 379.352,227.3173 375.9109,227.3632 372.4699,227.4162 369.0289,227.4762 365.5881,227.5433 362.1475,227.6174 358.707,227.6987 355.2666,227.7869 351.8264,227.8823 348.3864,227.9846 344.9467,228.0941 341.5071,228.2106 338.0678,228.3342 334.6287,228.4648 331.1898,228.6025 327.7513,228.7472 324.313,228.899 320.875,229.0579 317.4373,229.2238 314.0,229.3968 310.563,229.5768 307.1263,229.7639 303.69,229.958 300.2541,230.1592 296.8186,230.3674 293.3835,230.5827 289.9488,230.8051 286.5145,231.0345 283.0807,231.2709 279.6474,231.5144 276.2145,231.7649 272.7821,232.0225 269.3502,232.2872 265.9189,232.5588 262.488,232.8376 259.0577,233.1233 255.628,233.4162 252.1988,233.716 248.7702,234.0229 245.3422,234.3369 241.9148,234.6579 238.488,234.9859 235.0619,235.3209 231.6364,235.663 228.2116,236.0122 224.7875,236.3683 221.364,236.7315 217.9413,237.1018 214.5193,237.479 211.098,237.8633 207.6774,238.2546 204.2576,238.653 200.8386,239.0584 197.4203,239.4708 194.0029,239.8902 190.5863,240.3166 187.1705,240.7501 183.7555,241.1906 180.3414,241.6381 176.9282,242.0926 173.5158,242.5542 170.1043,243.0227 166.6938,243.4983 163.2841,243.9809 159.8754,244.4705 156.4677,244.9671 153.0609,245.4707 149.655,245.9813 146.2502,246.4989 142.8464,247.0235 139.4435,247.5551 136.0418,248.0937 132.641,248.6393 129.2413,249.1919 125.8427,249.7515 122.4451,250.3181 119.0487,250.8917 115.6533,251.4723 112.2591,252.0598 108.866,252.6544 105.4741,253.2559 102.0834,253.8644 98.6938,254.4799 95.3054,255.1023 91.9182,255.7318 88.5322,256.3682 85.1474,257.0115 81.7639,257.6619 78.3817,258.3192 75.0007,258.9835 71.621,259.6547" stroke="silver" stroke-opacity="0.5" stroke-width="1" /><polyline fill="none" points="743.4224,184.2014 739.8875,183.5015 736.3512,182.8088 732.8136,182.1234 729.2748,181.4453 725.7346,180.7744 722.1932,180.1108 718.6505,179.4544 715.1065,178.8054 711.5613,178.1636 708.0149,177.5291 704.4673,176.9019 700.9185,176.2819 697.3686,175.6693 693.8174,175.0639 690.2651,174.4658 686.7117,173.8751 683.1572,173.2916 679.6015,172.7153 676.0448,172.1464 672.487,171.5848 668.9281,171.0305 665.3681,170.4835 661.8072,169.9438 658.2452,169.4114 654.6822,168.8863 651.1182,168.3685 647.5532,167.858 643.9872,167.3548 640.4203,166.8589 636.8525,166.3704 633.2837,165.8891 629.714,165.4152 626.1435,164.9486 622.572,164.4893 618.9997,164.0373 615.4265,163.5927 611.8524,163.1554 608.2776,162.7254 604.7019,162.3027 601.1255,161.8873 597.5482,161.4793 593.9702,161.0786 590.3914,160.6853 586.8119,160.2992 583.2316,159.9205 579.6507,159.5492 576.069,159.1851 572.4866,158.8285 568.9036,158.4791 565.3199,158.1371 561.7356,157.8024 558.1506,157.4751 554.565,157.1551 550.9788,156.8424 547.3921,156.5371 543.8047,156.2392 540.2168,155.9485 536.6283,155.6653 533.0393,155.3894 529.4498,155.1208 525.8598,154.8595 522.2693,154.6057 518.6783,154.3591 515.0869,154.12 511.495,153.8881 507.9026,153.6637 504.3099,153.4465 500.7167,153.2368 497.1232,153.0344 493.5292,152.8393 489.9349,152.6516 486.3403,152.4713 482.7453,152.2983 479.15,152.1327 475.5544,151.9744 471.9585,151.8235 468.3623,151.6799 464.7658,151.5437 461.1691,151.4149 457.5722,151.2934 453.975,151.1793 450.3776,151.0725 446.78,150.9731 443.1823,150.8811 439.5843,150.7964 435.9863,150.7191 432.388,150.6492 428.7897,150.5866 425.1912,150.5314 421.5927,150.4835 417.994,150.443 414.3953,150.4099 410.7965,150.3841 407.1977,150.3657 403.5989,150.3547 400.0,150.351 396.4011,150.3547 392.8023,150.3657 389.2035,150.3841 385.6047,150.4099 382.006,150.443 378.4073,150.4835 374.8088,150.5314 371.2103,150.5866 367.612,150.6492 364.0137,150.7191 360.4157,150.7964 356.8177,150.8811 353.22,150.9731 349.6224,151.0725 346.025,151.1793 342.4278,151.2934 338.8309,151.4149 335.2342,151.5437 331.6377,151.6799 328.0415,151.8235 324.4456,151.9744 320.85,152.1327 317.2547,152.2983 313.6597,152.4713 310.0651,152.6516 306.4708,152.8393 302.8768,153.0344 299.2833,153.2368 295.6901,153.4465 292.0974,153.6637 288.505,153.8881 284.9131,154.12 281.3217,154.3591 277.7307,154.6057 274.1402,154.8595 270.5502,155.1208 266.9607,155.3894 263.3717,155.6653 259.7832,155.9485 256.1953,156.2392 252.6079,156.5371 249.0212,156.8424 245.435,157.1551 241.8494,157.4751 238.2644,157.8024 234.6801,158.1371 231.0964,158.4791 227.5134,158.8285 223.931,159.1851 220.3493,159.5492 216.7684,159.9205 213.1881,160.2992 209.6086,160.6853 206.0298,161.0786 202.4518,161.4793 198.8745,161.8873 195.2981,162.3027 191.7224,162.7254 188.1476,163.1554 184.5735,163.5927 181.0003,164.0373 177.428,164.4893 173.8565,164.9486 170.286,165.4152 166.7163,165.8891 163.1475,166.3704 159.5797,166.8589 156.0128,167.3548 152.4468,167.858 148.8818,168.3685 145.3178,168.8863 141.7548,169.4114 138.1928,169.9438 134.6319,170.4835 131.0719,171.0305 127.513,171.5848 123.9552,172.1464 120.3985,172.7153 116.8428,173.2916 113.2883,173.8751 109.7349,174.4658 106.1826,175.0639 102.6314,175.6693 99.0815,176.2819 95.5327,176.9019 91.9851,177.5291 88.4387,178.1636 84.8935,178.8054 81.3495,179.4544 77.8068,180.1108 74.2654,180.7744 70.7252,181.4453 67.1864,182.1234 63.6488,182.8088 60.1125,183.5015 56.5776,184.2014" stroke="silver" stroke-opacity="0.5" stroke-width="1" /><circle cx="651.9367" cy="616.5966" fill="black" r="0.738" stroke="none" /><circle cx="741.1721" cy="151.4441" fill="black" r="0.738" stroke="none" /><circle cx="683.1546" cy="434.5244" fill="black" r="0.738" stroke="none" /><circle cx="692.8336" cy="369.7629" fill="black" r="0.738" stroke="none" /><circle cx="626.8213" cy="702.99" fill="black" r="0.738" stroke="none" /><circle cx="718.7756" cy="220.4094" fill="black" r="0.738" stroke="none" /><circle cx="664.8198" cy="492.7658" fill="black" r="0.738" stroke="none" /><circle cx="683.5947" cy="383.6604" fill="black" r="0.738" stroke="none" /><circle cx="714.4926" cy="191.5981" fill="black" r="0.738" stroke="none" /><circle cx="634.7181" cy="610.4002" fill="black" r="0.738" stroke="none" /><circle cx="711.8377" cy="166.8002" fill="black" r="0.936" stroke="none" /><circle cx="686.0664" cy="253.3299" fill="black" r="0.738" stroke="none" /><circle cx="627.002" cy="584.2536" fill="black" r="0.738" stroke="none" /><circle cx="656.2913" cy="392.7498" fill="black" r="0.738" stroke="none" /><circle cx="678.6164" cy="245.6622" fill="black" r="0.738" stroke="none" /><circle cx="644.9912" cy="437.6065" fill="black" r="0.738" stroke="none" /><circle cx="622.8166" cy="557.956" fill="black" r="0.738" stroke="none" /><circle cx="657.802" cy="343.8232" fill="black" r="0.738" stroke="none" /><circle cx="631.5931" cy="493.6523" fill="black" r="0.936" stroke="none" /><circle cx="620.412" cy="536.133" fill="black" r="0.738" stroke="none" /><circle cx="592.6218" cy="702.2071" fill="black" r="0.738" stroke="none" /><circle cx="666.5847" cy="221.1059" fill="black" r="0.738" stroke="none" /><circle cx="591.8446" cy="623.5302" fill="black" r="0.738" stroke="none" /><circle cx="639.6127" cy="287.9023" fill="black" r="0.738" stroke="none" /><circle cx="659.7705" cy="145.9993" fill="black" r="0.738" stroke="none" /><circle cx="632.2388" cy="315.6378" fill="black" r="0.738" stroke="none" /><circle cx="616.2599" cy="403.7031" fill="black" r="0.738" stroke="none" /><circle cx="628.2753" cy="300.8535" fill="black" r="0.738" stroke="none" /><circle cx="607.8422" cy="419.1876" fill="black" r="0.738" stroke="none" /><circle cx="568.0686" cy="644.9582" fill="black" r="0.738" stroke="none" /><circle cx="635.954" cy="135.7517" fill="black" r="0.738" stroke="none" /><circle cx="583.0623" cy="521.1078" fill="black" r="0.738" stroke="none" /><circle cx="595.5867" cy="407.2041" fill="black" r="0.738" stroke="none" /><circle cx="615.275" cy="243.3125" fill="black" r="0.738" stroke="none" /><circle cx="586.6836" cy="451.9894" fill="black" r="0.738" stroke="none" /><circle cx="607.9153" cy="244.0793" fill="black" r="0.738" stroke="none" /><circle cx="606.309" cy="213.4426" fill="black" r="0.738" stroke="none" /><circle cx="558.5121" cy="580.4889" fill="black" r="0.738" stroke="none" /><circle cx="568.3101" cy="466.9754" fill="black" r="0.738" stroke="none" /><circle cx="567.715" cy="459.4018" fill="black" r="0.738" stroke="none" /><circle cx="579.7162" cy="355.224" fill="black" r="0.738" stroke="none" /><circle cx="550.4279" cy="602.6657" fill="black" r="0.738" stroke="none" /><circle cx="560.0992" cy="520.0067" fill="black" r="0.738" stroke="none" /><circle cx="579.3702" cy="354.8743" fill="black" r="0.738" stroke="none" /><circle cx="596.8185" cy="201.2469" fill="black" r="0.738" stroke="none" /><circle cx="560.9559" cy="490.7916" fill="black" r="0.738" stroke="none" /><circle cx="574.146" cy="326.2131" fill="black" r="0.738" stroke="none" /><circle cx="565.8495" cy="397.1784" fill="black" r="0.738" stroke="none" /><circle cx="551.8797" cy="335.9467" fill="black" r="0.738" stroke="none" /><circle cx="555.7115" cy="252.4949" fill="black" r="0.738" stroke="none" /><circle cx="522.8609" cy="592.471" fill="black" r="0.738" stroke="none" /><circle cx="547.6778" cy="260.0113" fill="black" r="0.738" stroke="none" /><circle cx="552.6483" cy="145.5662" fill="black" r="0.738" stroke="none" /><circle cx="508.548" cy="639.9378" fill="black" r="0.738" stroke="none" /><circle cx="523.769" cy="390.5704" fill="black" r="0.738" stroke="none" /><circle cx="511.542" cy="490.146" fill="black" r="0.738" stroke="none" /><circle cx="507.848" cy="535.0103" fill="black" r="0.738" stroke="none" /><circle cx="525.3337" cy="268.4804" fill="black" r="0.738" stroke="none" /><circle cx="519.311" cy="326.1886" fill="black" r="0.738" stroke="none" /><circle cx="494.7722" cy="615.1486" fill="black" r="0.738" stroke="none" /><circle cx="510.4411" cy="395.3859" fill="black" r="0.738" stroke="none" /><circle cx="491.6686" cy="576.7877" fill="black" r="0.738" stroke="none" /><circle cx="492.2375" cy="545.0205" fill="black" r="0.738" stroke="none" /><circle cx="490.8797" cy="486.9582" fill="black" r="0.738" stroke="none" /><circle cx="499.6095" cy="313.2729" fill="black" r="0.738" stroke="none" /><circle cx="506.6548" cy="162.2891" fill="black" r="0.738" stroke="none" /><circle cx="504.6736" cy="155.0852" fill="black" r="0.738" stroke="none" /><circle cx="482.9432" cy="491.3138" fill="black" r="0.738" stroke="none" /><circle cx="485.1034" cy="432.8138" fill="black" r="0.738" stroke="none" /><circle cx="478.9597" cy="330.4904" fill="black" r="0.738" stroke="none" /><circle cx="461.7051" cy="587.5688" fill="black" r="0.936" stroke="none" /><circle cx="457.8584" cy="634.6213" fill="black" r="0.738" stroke="none" /><circle cx="465.9886" cy="426.1355" fill="black" r="0.738" stroke="none" /><circle cx="476.3588" cy="137.3142" fill="black" r="0.738" stroke="none" /><circle cx="452.212" cy="636.1413" fill="black" r="0.738" stroke="none" /><circle cx="460.7474" cy="362.8825" fill="black" r="0.936" stroke="none" /><circle cx="461.6617" cy="285.2869" fill="black" r="0.738" stroke="none" /><circle cx="446.4754" cy="615.0741" fill="black" r="0.738" stroke="none" /><circle cx="449.7505" cy="354.3413" fill="black" r="0.738" stroke="none" /><circle cx="442.6361" cy="168.4725" fill="black" r="0.936" stroke="none" /><circle cx="434.0296" cy="360.6741" fill="black" r="0.738" stroke="none" /><circle cx="434.9392" cy="273.5785" fill="black" r="0.738" stroke="none" /><circle cx="428.449" cy="540.1552" fill="black" r="0.738" stroke="none" /><circle cx="419.8496" cy="451.8202" fill="black" r="0.738" stroke="none" /><circle cx="414.4248" cy="663.0312" fill="black" r="0.738" stroke="none" /><circle cx="413.3715" cy="640.1143" fill="black" r="0.738" stroke="none" /><circle cx="406.7322" cy="566.2202" fill="black" r="0.738" stroke="none" /><circle cx="404.9592" cy="535.4853" fill="black" r="0.738" stroke="none" /><circle cx="402.8497" cy="615.4548" fill="black" r="0.738" stroke="none" /><circle cx="394.342" cy="576.2792" fill="black" r="0.738" stroke="none" /><circle cx="383.4636" cy="266.3741" fill="black" r="0.738" stroke="none" /><circle cx="385.0682" cy="441.0854" fill="black" r="0.738" stroke="none" /><circle cx="384.8538" cy="441.2412" fill="black" r="0.738" stroke="none" /><circle cx="379.3069" cy="256.5885" fill="black" r="0.738" stroke="none" /><circle cx="373.6531" cy="195.2013" fill="black" r="0.738" stroke="none" /><circle cx="372.025" cy="251.5487" fill="black" r="0.738" stroke="none" /><circle cx="377.7934" cy="655.2303" fill="black" r="0.738" stroke="none" /><circle cx="372.2006" cy="441.1982" fill="black" r="0.738" stroke="none" /><circle cx="361.8892" cy="217.4027" fill="black" r="0.738" stroke="none" /><circle cx="359.2531" cy="117.3773" fill="black" r="0.738" stroke="none" /><circle cx="365.2155" cy="419.9934" fill="black" r="0.738" stroke="none" /><circle cx="367.2804" cy="550.3182" fill="black" r="0.738" stroke="none" /><circle cx="363.0361" cy="386.7836" fill="black" r="0.738" stroke="none" /><circle cx="358.2233" cy="218.1811" fill="black" r="0.738" stroke="none" /><circle cx="357.8422" cy="215.1164" fill="black" r="0.738" stroke="none" /><circle cx="360.8382" cy="491.7072" fill="black" r="0.738" stroke="none" /><circle cx="345.6305" cy="147.7311" fill="black" r="0.738" stroke="none" /><circle cx="351.3068" cy="511.3743" fill="black" r="0.738" stroke="none" /><circle cx="342.2757" cy="313.0408" fill="black" r="0.738" stroke="none" /><circle cx="352.6615" cy="609.4928" fill="black" r="0.936" stroke="none" /><circle cx="330.7622" cy="136.6372" fill="black" r="0.738" stroke="none" /><circle cx="341.1975" cy="440.9713" fill="black" r="0.738" stroke="none" /><circle cx="332.1023" cy="407.2331" fill="black" r="0.738" stroke="none" /><circle cx="317.3715" cy="116.6629" fill="black" r="0.738" stroke="none" /><circle cx="323.4936" cy="301.1479" fill="black" r="0.738" stroke="none" /><circle cx="314.4327" cy="235.6829" fill="black" r="0.738" stroke="none" /><circle cx="327.8429" cy="519.9431" fill="black" r="0.738" stroke="none" /><circle cx="313.1254" cy="345.9865" fill="black" r="0.738" stroke="none" /><circle cx="329.676" cy="642.3444" fill="black" r="0.738" stroke="none" /><circle cx="317.6069" cy="458.0444" fill="black" r="0.738" stroke="none" /><circle cx="304.5851" cy="324.9422" fill="black" r="0.738" stroke="none" /><circle cx="304.3799" cy="368.6637" fill="black" r="0.738" stroke="none" /><circle cx="279.7775" cy="117.5552" fill="black" r="0.738" stroke="none" /><circle cx="298.3597" cy="478.3018" fill="black" r="0.738" stroke="none" /><circle cx="277.1694" cy="234.237" fill="black" r="0.738" stroke="none" /><circle cx="275.3335" cy="234.7583" fill="black" r="0.738" stroke="none" /><circle cx="280.3906" cy="331.8349" fill="black" r="0.738" stroke="none" /><circle cx="273.7176" cy="261.7725" fill="black" r="0.738" stroke="none" /><circle cx="291.8062" cy="498.9744" fill="black" r="0.738" stroke="none" /><circle cx="283.7138" cy="418.2476" fill="black" r="1.476" stroke="none" /><circle cx="281.9843" cy="407.5977" fill="black" r="0.738" stroke="none" /><circle cx="263.3104" cy="246.4934" fill="black" r="0.738" stroke="none" /><circle cx="297.8004" cy="672.568" fill="black" r="0.738" stroke="none" /><circle cx="254.3079" cy="197.2004" fill="black" r="0.738" stroke="none" /><circle cx="242.2632" cy="145.9366" fill="black" r="0.738" stroke="none" /><circle cx="273.8723" cy="525.9457" fill="black" r="0.738" stroke="none" /><circle cx="246.8346" cy="310.215" fill="black" r="0.738" stroke="none" /><circle cx="258.1757" cy="538.3843" fill="black" r="0.738" stroke="none" /><circle cx="255.7794" cy="541.8068" fill="black" r="0.936" stroke="none" /><circle cx="250.5571" cy="535.265" fill="black" r="0.738" stroke="none" /><circle cx="260.8888" cy="654.8271" fill="black" r="0.738" stroke="none" /><circle cx="240.0475" cy="481.0109" fill="black" r="0.738" stroke="none" /><circle cx="247.6532" cy="590.0455" fill="black" r="0.738" stroke="none" /><circle cx="242.1733" cy="592.4059" fill="black" r="0.936" stroke="none" /><circle cx="184.531" cy="138.1856" fill="black" r="0.738" stroke="none" /><circle cx="194.4415" cy="224.1925" fill="black" r="0.738" stroke="none" /><circle cx="252.166" cy="694.0402" fill="black" r="0.738" stroke="none" /><circle cx="203.3993" cy="303.0011" fill="black" r="0.738" stroke="none" /><circle cx="203.9043" cy="398.7468" fill="black" r="0.738" stroke="none" /><circle cx="239.6268" cy="673.6366" fill="black" r="0.738" stroke="none" /><circle cx="188.7309" cy="301.6194" fill="black" r="0.738" stroke="none" /><circle cx="194.4775" cy="355.0409" fill="black" r="0.738" stroke="none" /><circle cx="163.3229" cy="140.7368" fill="black" r="0.738" stroke="none" /><circle cx="215.6444" cy="535.0077" fill="black" r="0.738" stroke="none" /><circle cx="223.9293" cy="684.2222" fill="black" r="0.738" stroke="none" /><circle cx="172.9757" cy="356.6614" fill="black" r="0.936" stroke="none" /><circle cx="182.0247" cy="438.1321" fill="black" r="0.738" stroke="none" /><circle cx="186.5374" cy="468.3811" fill="black" r="0.936" stroke="none" /><circle cx="163.6823" cy="317.2514" fill="black" r="0.738" stroke="none" /><circle cx="164.0055" cy="365.0857" fill="black" r="0.738" stroke="none" /><circle cx="202.0859" cy="633.11" fill="black" r="0.738" stroke="none" /><circle cx="129.3483" cy="181.8077" fill="black" r="0.738" stroke="none" /><circle cx="126.2407" cy="230.6714" fill="black" r="0.936" stroke="none" /><circle cx="171.2009" cy="506.5111" fill="black" r="0.738" stroke="none" /><circle cx="118.5499" cy="216.0402" fill="black" r="0.738" stroke="none" /><circle cx="179.945" cy="613.1678" fill="black" r="0.738" stroke="none" /><circle cx="129.3262" cy="332.3594" fill="black" r="0.738" stroke="none" /><circle cx="121.2116" cy="315.2799" fill="black" r="0.738" stroke="none" /><circle cx="143.7421" cy="448.0565" fill="black" r="0.738" stroke="none" /><circle cx="184.195" cy="688.877" fill="black" r="0.738" stroke="none" /><circle cx="98.5086" cy="245.4456" fill="black" r="0.738" stroke="none" /><circle cx="157.5516" cy="580.6314" fill="black" r="0.738" stroke="none" /><circle cx="68.6968" cy="145.8008" fill="black" r="0.738" stroke="none" /><circle cx="91.0786" cy="272.4802" fill="black" r="0.738" stroke="none" /><circle cx="77.6696" cy="213.3319" fill="black" r="1.17" stroke="none" /><circle cx="75.6909" cy="203.9973" fill="black" r="0.738" stroke="none" /><circle cx="121.2295" cy="449.5708" fill="black" r="0.936" stroke="none" /><circle cx="127.032" cy="496.6852" fill="black" r="0.738" stroke="none" /><circle cx="70.2048" cy="212.8883" fill="black" r="0.738" stroke="none" /><circle cx="81.4912" cy="274.7959" fill="black" r="0.738" stroke="none" /><circle cx="94.1186" cy="339.9483" fill="black" r="0.738" stroke="none" /><circle cx="99.8937" cy="395.709" fill="black" r="0.738" stroke="none" /><circle cx="13.77" cy="786.23" fill="black" r="4.59" stroke="none" /><circle cx="13.77" cy="786.23" fill="black" r="4.59" stroke="none" /><text fill="black" font-family="monospace" font-size="12" x="10.77" y="775.64">1</text><circle cx="37.77" cy="786.23" fill="black" r="3.654" stroke="none" /><circle cx="37.77" cy="786.23" fill="black" r="3.654" stroke="none" /><text fill="black" font-family="monospace" font-size="12" x="34.769999999999996" y="775.64">2</text><circle cx="61.77" cy="786.23" fill="black" r="2.916" stroke="none" /><circle cx="61.77" cy="786.23" fill="black" r="2.916" stroke="none" /><text fill="black" font-family="monospace" font-size="12" x="58.769999999999996" y="775.64">3</text><circle cx="85.77" cy="786.23" fill="black" r="2.322" stroke="none" /><circle cx="85.77" cy="786.23" fill="black" r="2.322" stroke="none" /><text fill="black" font-family="monospace" font-size="12" x="82.77" y="775.64">4</text><circle cx="109.77" cy="786.23" fill="black" r="1.854" stroke="none" /><circle cx="109.77" cy="786.23" fill="black" r="1.854" stroke="none" /><text fill="black" font-family="monospace" font-size="12" x="106.77" y="775.64">5</text><circle cx="133.77" cy="786.23" fill="black" r="1.476" stroke="none" /><circle cx="133.77" cy="786.23" fill="black" r="1.476" stroke="none" /><text fill="black" font-family="monospace" font-size="12" x="130.77" y="775.64">6</text><circle cx="157.77" cy="786.23" fill="black" r="1.17" stroke="none" /><circle cx="157.77" cy="786.23" fill="black" r="1.17" stroke="none" /><text fill="black" font-family="monospace" font-size="12" x="154.77" y="775.64">7</text><circle cx="181.77" cy="786.23" fill="black" r="0.936" stroke="none" /><circle cx="181.77" cy="786.23" fill="black" r="0.936" stroke="none" /><text fill="black" font-family="monospace" font-size="12" x="178.77" y="775.64">8</text><circle cx="205.77" cy="786.23" fill="black" r="0.738" stroke="none" /><circle cx="205.77" cy="786.23" fill="black" r="0.738" stroke="none" /><text fill="black" font-family="monospace" font-size="12" x="202.77" y="775.64">9</text><text fill="gray" fill-opacity="0.5" font-family="monospace" font-size="12" x="721.9941071677601" y="140.95067393424716">17h40m</text><text fill="gray" fill-opacity="0.5" font-family="monospace" font-size="12" x="576.253840493205" y="120.56749028045868">18h00m</text><text fill="gray" fill-opacity="0.5" font-family="monospace" font-size="12" x="429.418254858889" y="112.15823147998736">18h20m</text><text fill="gray" fill-opacity="0.5" font-family="monospace" font-size="12" x="282.40003967374986" y="115.76335449584042">18h40m</text><text fill="gray" fill-opacity="0.5" font-family="monospace" font-size="12" x="136.11221203377505" y="131.36552764147433">19h00m</text><text fill="gray" fill-opacity="0.5" font-family="monospace" font-size="12" x="162.7597502390285" y="711.9562183311913">-75</text><text fill="gray" fill-opacity="0.5" font-family="monospace" font-size="12" x="147.45389385632475" y="636.5651839496828">-74</text><text fill="gray" fill-opacity="0.5" font-family="monospace" font-size="12" x="132.1975763483009" y="561.1923858530696">-73</text><text fill="gray" fill-opacity="0.5" font-family="monospace" font-size="12" x="116.98844229965653" y="485.8263803387044">-72</text><text fill="gray" fill-opacity="0.5" font-family="monospace" font-size="12" x="101.82416500844516" y="410.45572780240843">-71</text><text fill="gray" fill-opacity="0.5" font-family="monospace" font-size="12" x="86.70244505914587" y="335.06898580431806">-70</text><text fill="gray" fill-opacity="0.5" font-family="monospace" font-size="12" x="71.62100893099063" y="259.65470213104527">-69</text><text fill="gray" fill-opacity="0.5" font-family="monospace" font-size="12" x="56.57760763976319" y="184.2014078452424">-68</text><text fill="black" font-family="monospace" font-size="12" x="12" y="48">&gt;&gt; No.66 17h36m 19h12m -75.0-67.5</text><a target="_self" xlink:href="hip005.svg"><text fill="black" font-family="monospace" font-size="12" x="12" y="36">&gt; No.5 16h00m 24h00m -90.0-52.5</text></a><a target="_self" xlink:href="hip001.svg"><text fill="black" font-family="monospace" font-size="12" x="12" y="24">No.1 00h 24h -90.0+0.0</text></a><polyline fill="none" points="750.9305,146.4565 747.3181,145.7424 743.7043,145.0356 740.0892,144.3362 736.4728,143.6443 732.8551,142.9597 729.236,142.2826 725.6157,141.6129 721.9941,140.9507 718.3713,140.2958 714.7472,139.6484 711.1219,139.0084 707.4953,138.3759 703.8676,137.7508 700.2387,137.1331 696.6087,136.5228 692.9774,135.92 689.3451,135.3246 685.7116,134.7367 682.077,134.1562 678.4413,133.5832 674.8045,133.0176 671.1666,132.4595 667.5277,131.9088 663.8878,131.3655 660.2468,130.8297 656.6048,130.3014 652.9618,129.7805 649.3179,129.2671 645.6729,128.7612 642.027,128.2627 638.3802,127.7717 634.7324,127.2881 631.0838,126.812 627.4342,126.3434 623.7837,125.8822 620.1324,125.4285 616.4802,124.9823 612.8272,124.5436 609.1734,124.1123 605.5187,123.6885 601.8632,123.2722 598.207,122.8634 594.55,122.462 590.8922,122.0682 587.2337,121.6818 583.5744,121.3029 579.9145,120.9314 576.2538,120.5675 572.5925,120.211 568.9305,119.8621 565.2678,119.5206 561.6045,119.1866 557.9406,118.8601 554.276,118.5411 550.6109,118.2296 546.9452,117.9256 543.2789,117.6291 539.612,117.3401 535.9446,117.0585 532.2767,116.7845 528.6082,116.518 524.9393,116.2589 521.2699,116.0074 517.6,115.7634 513.9296,115.5268 510.2588,115.2978 506.5876,115.0763 502.9159,114.8622 499.2439,114.6557 495.5715,114.4567 491.8987,114.2652 488.2255,114.0812 484.552,113.9047 480.8782,113.7357 477.2041,113.5742 473.5297,113.4202 469.8549,113.2738 466.1799,113.1348 462.5047,113.0033 458.8292,112.8794 455.1535,112.763 451.4776,112.654 447.8014,112.5526 444.1251,112.4587 440.4486,112.3723 436.772,112.2935 433.0952,112.2221 429.4183,112.1582 425.7412,112.1019 422.0641,112.0531 418.3869,112.0117 414.7096,111.9779 411.0322,111.9516 407.3548,111.9329 403.6774,111.9216 400.0,111.9178 396.3226,111.9216 392.6452,111.9329 388.9678,111.9516 385.2904,111.9779 381.6131,112.0117 377.9359,112.0531 374.2588,112.1019 370.5817,112.1582 366.9048,112.2221 363.228,112.2935 359.5514,112.3723 355.8749,112.4587 352.1986,112.5526 348.5224,112.654 344.8465,112.763 341.1708,112.8794 337.4953,113.0033 333.8201,113.1348 330.1451,113.2738 326.4703,113.4202 322.7959,113.5742 319.1218,113.7357 315.448,113.9047 311.7745,114.0812 308.1013,114.2652 304.4285,114.4567 300.7561,114.6557 297.0841,114.8622 293.4124,115.0763 289.7412,115.2978 286.0704,115.5268 282.4,115.7634 278.7301,116.0074 275.0607,116.2589 271.3918,116.518 267.7233,116.7845 264.0554,117.0585 260.388,117.3401 256.7211,117.6291 253.0548,117.9256 249.3891,118.2296 245.724,118.5411 242.0594,118.8601 238.3955,119.1866 234.7322,119.5206 231.0695,119.8621 227.4075,120.211 223.7462,120.5675 220.0855,120.9314 216.4256,121.3029 212.7663,121.6818 209.1078,122.0682 205.45,122.462 201.793,122.8634 198.1368,123.2722 194.4813,123.6885 190.8266,124.1123 187.1728,124.5436 183.5198,124.9823 179.8676,125.4285 176.2163,125.8822 172.5658,126.3434 168.9162,126.812 165.2676,127.2881 161.6198,127.7717 157.973,128.2627 154.3271,128.7612 150.6821,129.2671 147.0382,129.7805 143.3952,130.3014 139.7532,130.8297 136.1122,131.3655 132.4723,131.9088 128.8334,132.4595 125.1955,133.0176 121.5587,133.5832 117.923,134.1562 114.2884,134.7367 110.6549,135.3246 107.0226,135.92 103.3913,136.5228 99.7613,137.1331 96.1324,137.7508 92.5047,138.3759 88.8781,139.0084 85.2528,139.6484 81.6287,140.2958 78.0059,140.9507 74.3843,141.6129 70.764,142.2826 67.1449,142.9597 63.5272,143.6443 59.9108,144.3362 56.2957,145.0356 52.6819,145.7424 49.0695,146.4565" stroke="black" stroke-opacity="0.5" stroke-width="1" /><polyline fill="none" points="637.2402,711.9562 639.1563,702.531 641.0715,693.1061 642.9859,683.6817 644.8995,674.2577 646.8123,664.8341 648.7244,655.4108 650.6356,645.9878 652.5461,636.5652 654.4558,627.1428 656.3647,617.7207 658.2729,608.2989 660.1803,598.8772 662.087,589.4558 663.9929,580.0345 665.898,570.6134 667.8024,561.1924 669.7061,551.7715 671.609,542.3507 673.5113,532.93 675.4127,523.5092 677.3135,514.0886 679.2136,504.6679 681.1129,495.2472 683.0116,485.8264 684.9095,476.4055 686.8067,466.9846 688.7033,457.5635 690.5992,448.1423 692.4943,438.721 694.3888,429.2995 696.2827,419.8777 698.1758,410.4557 700.0683,401.0335 701.9602,391.611 703.8513,382.1882 705.7419,372.7651 707.6318,363.3416 709.521,353.9178 711.4096,344.4936 713.2976,335.069 715.1849,325.6439 717.0716,316.2184 718.9577,306.7925 720.8432,297.366 722.728,287.939 724.6123,278.5115 726.4959,269.0834 728.379,259.6547 730.2615,250.2254 732.1433,240.7955 734.0246,231.3649 735.9053,221.9336 737.7854,212.5017 739.665,203.069 741.544,193.6356 743.4224,184.2014 745.3003,174.7664 747.1776,165.3306 749.0543,155.894 750.9305,146.4565" stroke="black" stroke-opacity="0.5" stroke-width="1" /><polyline fill="none" points="637.2402,711.9562 634.8003,711.4628 632.3593,710.9744 629.9173,710.4912 627.4744,710.0131 625.0306,709.5401 622.5858,709.0722 620.1401,708.6095 617.6934,708.1518 615.2459,707.6993 612.7974,707.2519 610.3481,706.8097 607.8979,706.3725 605.4468,705.9405 602.9949,705.5136 600.5421,705.0919 598.0884,704.6753 595.634,704.2638 593.1787,703.8575 590.7227,703.4563 588.2658,703.0603 585.8081,702.6693 583.3497,702.2836 580.8905,701.903 578.4306,701.5275 575.9699,701.1572 573.5084,700.792 571.0463,700.4319 568.5834,700.0771 566.1199,699.7273 563.6556,699.3828 561.1906,699.0433 558.725,698.7091 556.2588,698.38 553.7918,698.056 551.3243,697.7372 548.8561,697.4236 546.3872,697.1151 543.9178,696.8118 541.4478,696.5137 538.9771,696.2207 536.5059,695.9329 534.0342,695.6503 531.5618,695.3728 529.089,695.1005 526.6155,694.8334 524.1416,694.5714 521.6671,694.3146 519.1922,694.063 516.7167,693.8166 514.2408,693.5753 511.7643,693.3392 509.2874,693.1083 506.8101,692.8825 504.3323,692.662 501.8541,692.4466 499.3754,692.2364 496.8963,692.0314 494.4169,691.8315 491.937,691.6369 489.4568,691.4474 486.9761,691.2631 484.4952,691.084 482.0138,690.9101 479.5321,690.7413 477.0501,690.5778 474.5678,690.4194 472.0852,690.2662 469.6022,690.1182 467.119,689.9754 464.6355,689.8378 462.1517,689.7054 459.6677,689.5781 457.1834,689.4561 454.6989,689.3392 452.2141,689.2276 449.7291,689.1211 447.244,689.0198 444.7586,688.9237 442.273,688.8328 439.7873,688.7471 437.3014,688.6666 434.8153,688.5913 432.3291,688.5211 429.8428,688.4562 427.3563,688.3965 424.8697,688.3419 422.3831,688.2926 419.8963,688.2484 417.4094,688.2095 414.9225,688.1757 412.4355,688.1471 409.9485,688.1237 407.4614,688.1056 404.9743,688.0926 402.4871,688.0848 400.0,688.0822 397.5129,688.0848 395.0257,688.0926 392.5386,688.1056 390.0515,688.1237 387.5645,688.1471 385.0775,688.1757 382.5906,688.2095 380.1037,688.2484 377.6169,688.2926 375.1303,688.3419 372.6437,688.3965 370.1572,688.4562 367.6709,688.5211 365.1847,688.5913 362.6986,688.6666 360.2127,688.7471 357.727,688.8328 355.2414,688.9237 352.756,689.0198 350.2709,689.1211 347.7859,689.2276 345.3011,689.3392 342.8166,689.4561 340.3323,689.5781 337.8483,689.7054 335.3645,689.8378 332.881,689.9754 330.3978,690.1182 327.9148,690.2662 325.4322,690.4194 322.9499,690.5778 320.4679,690.7413 317.9862,690.9101 315.5048,691.084 313.0239,691.2631 310.5432,691.4474 308.063,691.6369 305.5831,691.8315 303.1037,692.0314 300.6246,692.2364 298.1459,692.4466 295.6677,692.662 293.1899,692.8825 290.7126,693.1083 288.2357,693.3392 285.7592,693.5753 283.2833,693.8166 280.8078,694.063 278.3329,694.3146 275.8584,694.5714 273.3845,694.8334 270.911,695.1005 268.4382,695.3728 265.9658,695.6503 263.4941,695.9329 261.0229,696.2207 258.5522,696.5137 256.0822,696.8118 253.6128,697.1151 251.1439,697.4236 248.6757,697.7372 246.2082,698.056 243.7412,698.38 241.275,698.7091 238.8094,699.0433 236.3444,699.3828 233.8801,699.7273 231.4166,700.0771 228.9537,700.4319 226.4916,700.792 224.0301,701.1572 221.5694,701.5275 219.1095,701.903 216.6503,702.2836 214.1919,702.6693 211.7342,703.0603 209.2773,703.4563 206.8213,703.8575 204.366,704.2638 201.9116,704.6753 199.4579,705.0919 197.0051,705.5136 194.5532,705.9405 192.1021,706.3725 189.6519,706.8097 187.2026,707.2519 184.7541,707.6993 182.3066,708.1518 179.8599,708.6095 177.4142,709.0722 174.9694,709.5401 172.5256,710.0131 170.0827,710.4912 167.6407,710.9744 165.1997,711.4628 162.7598,711.9562" stroke="black" stroke-opacity="0.5" stroke-width="1" /><polyline fill="none" points="162.7598,711.9562 160.8437,702.531 158.9285,693.1061 157.0141,683.6817 155.1005,674.2577 153.1877,664.8341 151.2756,655.4108 149.3644,645.9878 147.4539,636.5652 145.5442,627.1428 143.6353,617.7207 141.7271,608.2989 139.8197,598.8772 137.913,589.4558 136.0071,580.0345 134.102,570.6134 132.1976,561.1924 130.2939,551.7715 128.391,542.3507 126.4887,532.93 124.5873,523.5092 122.6865,514.0886 120.7864,504.6679 118.8871,495.2472 116.9884,485.8264 115.0905,476.4055 113.1933,466.9846 111.2967,457.5635 109.4008,448.1423 107.5057,438.721 105.6112,429.2995 103.7173,419.8777 101.8242,410.4557 99.9317,401.0335 98.0398,391.611 96.1487,382.1882 94.2581,372.7651 92.3682,363.3416 90.479,353.9178 88.5904,344.4936 86.7024,335.069 84.8151,325.6439 82.9284,316.2184 81.0423,306.7925 79.1568,297.366 77.272,287.939 75.3877,278.5115 73.5041,269.0834 71.621,259.6547 69.7385,250.2254 67.8567,240.7955 65.9754,231.3649 64.0947,221.9336 62.2146,212.5017 60.335,203.069 58.456,193.6356 56.5776,184.2014 54.6997,174.7664 52.8224,165.3306 50.9457,155.894 49.0695,146.4565" stroke="black" stroke-opacity="0.5" stroke-width="1" /></svg>