<?xml version="1.0" encoding="utf-8" ?>
<svg baseProfile="tiny" height="800" version="1.2" width="800" xmlns="http://www.w3.org/2000/svg" xmlns:ev="http://www.w3.org/2001/xml-events" xmlns:xlink="http://www.w3.org/1999/xlink"><defs /><rect fill="none" height="800" stroke="black" stroke-width="2" width="800" x="0" y="0" /><polyline fill="none" points="588.7851,723.1226 589.7661,712.6811 590.7466,702.2401 591.7264,691.7999 592.7056,681.3602 593.6843,670.9211 594.6624,660.4825 595.6399,650.0445 596.6169,639.607 597.5933,629.1699 598.5691,618.7333 599.5444,608.2971 600.5191,597.8613 601.4933,587.4259 602.4669,576.9908 603.4399,566.5561 604.4124,556.1217 605.3844,545.6875 606.3558,535.2536 607.3267,524.8199 608.297,514.3864 609.2668,503.9531 610.236,493.5199 611.2048,483.0869 612.1729,472.654 613.1406,462.2211 614.1077,451.7883 615.0744,441.3556 616.0404,430.9228 617.006,420.49 617.9711,410.0572 618.9356,399.6242 619.8996,389.1912 620.8632,378.7581 621.8262,368.3248 622.7887,357.8914 623.7507,347.4578 624.7122,337.0239 625.6732,326.5898 626.6337,316.1554 627.5937,305.7207 628.5532,295.2857 629.5122,284.8504 630.4708,274.4147 631.4288,263.9786 632.3864,253.5421 633.3435,243.1051 634.3001,232.6677 635.2562,222.2298 636.2119,211.7913 637.1671,201.3524 638.1218,190.9128 639.0761,180.4727 640.0299,170.0319 640.9832,159.5905 641.936,149.1484 642.8884,138.7057 643.8404,128.2622 644.7919,117.818 645.7429,107.373 646.6935,96.9272" stroke="silver" stroke-opacity="0.5" stroke-width="1" /><polyline fill="none" points="468.6692,715.4403 469.0259,704.9629 469.3824,694.4863 469.7386,684.0103 470.0947,673.535 470.4505,663.0603 470.8061,652.5862 471.1616,642.1128 471.5168,631.6399 471.8718,621.1675 472.2266,610.6956 472.5812,600.2243 472.9356,589.7534 473.2898,579.2829 473.6437,568.8129 473.9975,558.3432 474.3511,547.8739 474.7045,537.4049 475.0577,526.9363 475.4106,516.4679 475.7634,505.9999 476.116,495.532 476.4684,485.0644 476.8206,474.5969 477.1726,464.1296 477.5244,453.6625 477.876,443.1955 478.2275,432.7285 478.5787,422.2617 478.9297,411.7948 479.2806,401.328 479.6313,390.8612 479.9817,380.3944 480.332,369.9274 480.6821,359.4604 481.032,348.9933 481.3818,338.5261 481.7313,328.0587 482.0807,317.5911 482.4299,307.1233 482.7789,296.6553 483.1277,286.187 483.4764,275.7184 483.8248,265.2495 484.1731,254.7803 484.5212,244.3107 484.8692,233.8408 485.2169,223.3704 485.5645,212.8996 485.9119,202.4284 486.2592,191.9566 486.6062,181.4844 486.9531,171.0116 487.2999,160.5383 487.6464,150.0644 487.9928,139.5898 488.339,129.1147 488.6851,118.6389 489.031,108.1624 489.3767,97.6852 489.7222,87.2072" stroke="silver" stroke-opacity="0.5" stroke-width="1" /><polyline fill="none" points="348.3338,714.9331 348.0654,704.4533 347.7972,693.9743 347.5292,683.496 347.2613,673.0183 346.9936,662.5413 346.726,652.0649 346.4586,641.5891 346.1913,631.1138 345.9242,620.6391 345.6573,610.1649 345.3905,599.6912 345.1239,589.218 344.8574,578.7452 344.5911,568.2729 344.3249,557.8009 344.0589,547.3293 343.793,536.8581 343.5273,526.3871 343.2617,515.9165 342.9963,505.4461 342.731,494.976 342.4659,484.5061 342.2009,474.0364 341.936,463.5668 341.6714,453.0974 341.4068,442.6281 341.1424,432.1589 340.8782,421.6898 340.614,411.2208 340.3501,400.7517 340.0862,390.2826 339.8226,379.8135 339.559,369.3444 339.2956,358.8752 339.0323,348.4058 338.7692,337.9364 338.5062,327.4668 338.2434,316.997 337.9806,306.527 337.7181,296.0567 337.4556,285.5862 337.1933,275.1155 336.9311,264.6444 336.6691,254.173 336.4072,243.7013 336.1454,233.2291 335.8838,222.7566 335.6223,212.2836 335.3609,201.8102 335.0996,191.3363 334.8385,180.8619 334.5775,170.387 334.3166,159.9115 334.0559,149.4354 333.7953,138.9588 333.5348,128.4815 333.2745,118.0035 333.0142,107.5249 332.7541,97.0456 332.4941,86.5655" stroke="silver" stroke-opacity="0.5" stroke-width="1" /><polyline fill="none" points="228.1635,721.6019 227.2706,711.1533 226.3783,700.7053 225.4865,690.2579 224.5952,679.8112 223.7045,669.365 222.8143,658.9195 221.9246,648.4744 221.0354,638.0299 220.1467,627.5858 219.2586,617.1422 218.3709,606.6991 217.4838,596.2563 216.5972,585.814 215.7111,575.372 214.8255,564.9303 213.9403,554.489 213.0557,544.0479 212.1716,533.6071 211.288,523.1666 210.4048,512.7263 209.5222,502.2861 208.6401,491.8461 207.7584,481.4063 206.8772,470.9665 205.9965,460.5269 205.1163,450.0873 204.2365,439.6478 203.3573,429.2083 202.4785,418.7687 201.6001,408.3292 200.7223,397.8895 199.8449,387.4498 198.968,377.01 198.0915,366.5701 197.2155,356.1299 196.34,345.6896 195.4649,335.2491 194.5902,324.8084 193.7161,314.3674 192.8423,303.9261 191.9691,293.4845 191.0962,283.0426 190.2238,272.6004 189.3519,262.1577 188.4804,251.7146 187.6093,241.2711 186.7387,230.8272 185.8685,220.3828 184.9987,209.9378 184.1294,199.4923 183.2605,189.0463 182.392,178.5997 181.5239,168.1525 180.6563,157.7047 179.7891,147.2562 178.9223,136.807 178.0559,126.3571 177.1899,115.9065 176.3244,105.4551 175.4592,95.003" stroke="silver" stroke-opacity="0.5" stroke-width="1" /><polyline fill="none" points="679.9792,691.4222 678.1922,691.1784 674.1302,690.6299 670.0672,690.0896 666.0033,689.5573 661.9384,689.0331 657.8726,688.517 653.8059,688.009 649.7383,687.5091 645.6698,687.0173 641.6004,686.5336 637.5302,686.0579 633.4592,685.5904 629.3873,685.1309 625.3146,684.6795 621.2411,684.2363 617.1668,683.8011 613.0918,683.374 609.016,682.9551 604.9395,682.5442 600.8622,682.1414 596.7843,681.7468 592.7056,681.3602 588.6263,680.9817 584.5463,680.6114 580.4657,680.2491 576.3844,679.895 572.3025,679.549 568.2199,679.211 564.1368,678.8812 560.0531,678.5595 555.9689,678.2459 551.8841,677.9404 547.7987,677.643 543.7129,677.3538 539.6265,677.0726 535.5397,676.7996 531.4523,676.5347 527.3645,676.2779 523.2763,676.0292 519.1876,675.7886 515.0985,675.5561 511.009,675.3318 506.919,675.1156 502.8288,674.9075 498.7381,674.7075 494.6471,674.5156 490.5558,674.3319 486.4642,674.1563 482.3722,673.9888 478.28,673.8294 474.1874,673.6781 470.0947,673.535 466.0016,673.4 461.9084,673.2731 457.8149,673.1543 453.7212,673.0436 449.6274,672.9411 445.5333,672.8467 441.4391,672.7604 437.3448,672.6823 433.2503,672.6122 429.1557,672.5503 425.061,672.4965 420.9662,672.4509 416.8713,672.4133 412.7764,672.3839 408.6814,672.3626 404.5864,672.3495 400.4914,672.3444 396.3964,672.3475 392.3014,672.3587 388.2064,672.3781 384.1115,672.4055 380.0166,672.4411 375.9218,672.4848 371.827,672.5367 367.7324,672.5966 363.6379,672.6647 359.5435,672.7409 355.4493,672.8253 351.3552,672.9177 347.2613,673.0183 343.1676,673.127 339.074,673.2438 334.9807,673.3688 330.8876,673.5018 326.7948,673.643 322.7022,673.7923 318.6099,673.9498 314.5179,674.1153 310.4262,674.289 306.3348,674.4708 302.2437,674.6607 298.153,674.8587 294.0626,675.0649 289.9726,675.2792 285.883,675.5016 281.7938,675.7321 277.705,675.9707 273.6166,676.2174 269.5287,676.4723 265.4413,676.7353 261.3543,677.0064 257.2678,677.2856 253.1818,677.5729 249.0963,677.8683 245.0114,678.1718 240.927,678.4835 236.8432,678.8033 232.7599,679.1311 228.6773,679.4671 224.5952,679.8112 220.5138,680.1634 216.433,680.5237 212.3528,680.8921 208.2733,681.2686 204.1945,681.6532 200.1164,682.046 196.039,682.4468 191.9623,682.8557 187.8863,683.2727 183.8111,683.6979 179.7366,684.1311 175.663,684.5724 171.5901,685.0218 167.518,685.4793 163.4468,685.945 159.3763,686.4187 155.3068,686.9005 151.2381,687.3903 147.1702,687.8883 143.1033,688.3944 139.0373,688.9085 134.9722,689.4308 130.908,689.9611 126.8448,690.4995 122.7826,691.046 120.0208,691.4222" stroke="silver" stroke-opacity="0.5" stroke-width="1" /><polyline fill="none" points="691.3373,608.2873 689.4777,608.0346 685.2506,607.4663 681.0225,606.9064 676.7934,606.3549 672.5633,605.8117 668.3323,605.277 664.1004,604.7506 659.8675,604.2326 655.6338,603.723 651.3991,603.2217 647.1636,602.7289 642.9272,602.2444 638.6899,601.7683 634.4519,601.3007 630.213,600.8414 625.9733,600.3905 621.7328,599.9479 617.4915,599.5138 613.2495,599.0881 609.0068,598.6708 604.7633,598.2618 600.5191,597.8613 596.2742,597.4692 592.0287,597.0854 587.7824,596.7101 583.5355,596.3431 579.288,595.9846 575.0399,595.6345 570.7911,595.2927 566.5417,594.9594 562.2918,594.6345 558.0413,594.3179 553.7903,594.0098 549.5387,593.7101 545.2866,593.4188 541.034,593.1359 536.7809,592.8614 532.5273,592.5953 528.2732,592.3377 524.0188,592.0884 519.7638,591.8475 515.5085,591.6151 511.2528,591.3911 506.9967,591.1754 502.7402,590.9682 498.4833,590.7694 494.2261,590.5791 489.9686,590.3971 485.7108,590.2235 481.4527,590.0584 477.1943,589.9017 472.9356,589.7534 468.6766,589.6135 464.4175,589.482 460.1581,589.3589 455.8985,589.2443 451.6387,589.1381 447.3787,589.0402 443.1185,588.9508 438.8583,588.8699 434.5978,588.7973 430.3373,588.7332 426.0766,588.6774 421.8159,588.6301 417.5551,588.5912 413.2942,588.5608 409.0333,588.5387 404.7723,588.5251 400.5113,588.5198 396.2503,588.523 391.9894,588.5347 387.7284,588.5547 383.4675,588.5832 379.2067,588.62 374.9459,588.6653 370.6853,588.719 366.4247,588.7811 362.1642,588.8517 357.9039,588.9306 353.6437,589.018 349.3837,589.1138 345.1239,589.218 340.8642,589.3306 336.6048,589.4517 332.3455,589.5812 328.0865,589.719 323.8278,589.8653 319.5693,590.02 315.3111,590.1831 311.0532,590.3547 306.7956,590.5346 302.5384,590.723 298.2814,590.9198 294.0249,591.1249 289.7686,591.3385 285.5128,591.5606 281.2574,591.791 277.0024,592.0298 272.7478,592.2771 268.4936,592.5327 264.24,592.7968 259.9867,593.0693 255.734,593.3501 251.4818,593.6394 247.2301,593.9371 242.9789,594.2432 238.7283,594.5577 234.4782,594.8806 230.2287,595.212 225.9798,595.5517 221.7315,595.8998 217.4838,596.2563 213.2368,596.6213 208.9904,596.9946 204.7446,597.3763 200.4996,597.7664 196.2552,598.1649 192.0116,598.5719 187.7687,598.9872 183.5265,599.4109 179.285,599.843 175.0444,600.2835 170.8045,600.7324 166.5654,601.1897 162.3271,601.6553 158.0897,602.1294 153.8531,602.6118 149.6174,603.1027 145.3825,603.6019 141.1485,604.1095 136.9154,604.6255 132.6833,605.1499 128.452,605.6826 124.2217,606.2238 119.9924,606.7733 115.7641,607.3312 111.5367,607.8974 108.6627,608.2873" stroke="silver" stroke-opacity="0.5" stroke-width="1" /><polyline fill="none" points="702.6441,525.171 700.7122,524.9096 696.3207,524.3218 691.9282,523.7426 687.5346,523.1721 683.1401,522.6103 678.7446,522.0571 674.3482,521.5126 669.9508,520.9768 665.5525,520.4496 661.1533,519.9312 656.7532,519.4214 652.3522,518.9202 647.9503,518.4278 643.5476,517.944 639.144,517.4689 634.7396,517.0025 630.3345,516.5448 625.9285,516.0957 621.5217,515.6554 617.1142,515.2237 612.706,514.8007 608.297,514.3864 603.8873,513.9808 599.4769,513.5839 595.0658,513.1956 590.6541,512.8161 586.2417,512.4452 581.8286,512.083 577.415,511.7295 573.0007,511.3847 568.5858,511.0486 564.1704,510.7212 559.7544,510.4025 555.3378,510.0925 550.9207,509.7912 546.5031,509.4986 542.085,509.2147 537.6664,508.9394 533.2473,508.6729 528.8278,508.4151 524.4079,508.166 519.9875,507.9255 515.5667,507.6938 511.1455,507.4708 506.7239,507.2565 502.3019,507.0508 497.8796,506.8539 493.457,506.6657 489.0341,506.4862 484.6108,506.3154 480.1873,506.1533 475.7634,505.9999 471.3394,505.8552 466.915,505.7192 462.4905,505.5919 458.0657,505.4733 453.6407,505.3634 449.2156,505.2622 444.7903,505.1698 440.3648,505.086 435.9392,505.011 431.5135,504.9446 427.0876,504.887 422.6617,504.838 418.2357,504.7978 413.8096,504.7663 409.3835,504.7435 404.9573,504.7294 400.5311,504.724 396.105,504.7273 391.6788,504.7393 387.2527,504.76 382.8266,504.7894 378.4006,504.8276 373.9746,504.8744 369.5487,504.93 365.123,504.9942 360.6973,505.0672 356.2718,505.1489 351.8465,505.2393 347.4213,505.3383 342.9963,505.4461 338.5715,505.5626 334.1468,505.6878 329.7225,505.8217 325.2983,505.9643 320.8744,506.1156 316.4508,506.2757 312.0275,506.4444 307.6045,506.6218 303.1818,506.8079 298.7594,507.0028 294.3374,507.2063 289.9157,507.4185 285.4944,507.6395 281.0735,507.8691 276.653,508.1075 272.2329,508.3545 267.8133,508.6102 263.3941,508.8747 258.9754,509.1478 254.5572,509.4297 250.1395,509.7202 245.7222,510.0194 241.3056,510.3273 236.8894,510.644 232.4738,510.9693 228.0588,511.3033 223.6444,511.646 219.2306,511.9974 214.8174,512.3575 210.4048,512.7263 205.9929,513.1037 201.5817,513.4899 197.1711,513.8847 192.7613,514.2883 188.3521,514.7005 183.9437,515.1214 179.536,515.551 175.1291,515.9893 170.7229,516.4362 166.3175,516.8919 161.913,517.3562 157.5092,517.8292 153.1063,518.3109 148.7042,518.8013 144.303,519.3003 139.9027,519.808 135.5032,520.3244 131.1047,520.8495 126.7071,521.3832 122.3104,521.9256 117.9147,522.4767 113.5199,523.0365 109.1262,523.6049 104.7334,524.182 100.3417,524.7678 97.3559,525.171" stroke="silver" stroke-opacity="0.5" stroke-width="1" /><polyline fill="none" points="713.9014,442.0609 711.8974,441.7909 707.3422,441.1838 702.786,440.5856 698.2287,439.9964 693.6705,439.4162 689.1112,438.8449 684.551,438.2825 679.9898,437.7291 675.4276,437.1847 670.8645,436.6492 666.3005,436.1227 661.7356,435.6052 657.1698,435.0966 652.6032,434.597 648.0357,434.1063 643.4673,433.6246 638.8981,433.1519 634.3281,432.6881 629.7574,432.2333 625.1858,431.7875 620.6135,431.3507 616.0404,430.9228 611.4667,430.5039 606.8921,430.0939 602.3169,429.693 597.7411,429.301 593.1645,428.918 588.5873,428.544 584.0094,428.1789 579.431,427.8228 574.8519,427.4757 570.2722,427.1376 565.692,426.8085 561.1112,426.4883 556.5298,426.1771 551.948,425.8749 547.3656,425.5817 542.7827,425.2975 538.1993,425.0222 533.6155,424.756 529.0312,424.4987 524.4465,424.2504 519.8613,424.0111 515.2758,423.7807 510.6898,423.5594 506.1035,423.347 501.5169,423.1437 496.9299,422.9493 492.3425,422.7639 487.7549,422.5875 483.1669,422.4201 478.5787,422.2617 473.9902,422.1122 469.4015,421.9718 464.8125,421.8403 460.2233,421.7179 455.6339,421.6044 451.0443,421.4999 446.4545,421.4044 441.8646,421.3179 437.2746,421.2404 432.6844,421.1719 428.0941,421.1124 423.5037,421.0618 418.9132,421.0203 414.3227,420.9878 409.7321,420.9642 405.1415,420.9496 400.5509,420.944 395.9602,420.9475 391.3696,420.9599 386.779,420.9813 382.1885,421.0117 377.598,421.0511 373.0076,421.0994 368.4173,421.1568 363.8271,421.2232 359.237,421.2985 354.647,421.3829 350.0572,421.4762 345.4676,421.5785 340.8782,421.6898 336.2889,421.8101 331.6999,421.9394 327.1111,422.0777 322.5225,422.225 317.9342,422.3813 313.3462,422.5465 308.7585,422.7208 304.1711,422.904 299.584,423.0962 294.9972,423.2974 290.4108,423.5076 285.8248,423.7268 281.2392,423.955 276.6539,424.1921 272.0691,424.4383 267.4847,424.6934 262.9008,424.9575 258.3173,425.2306 253.7343,425.5127 249.1518,425.8037 244.5698,426.1038 239.9883,426.4128 235.4074,426.7308 230.827,427.0578 226.2472,427.3938 221.668,427.7387 217.0893,428.0926 212.5113,428.4555 207.934,428.8274 203.3573,429.2083 198.7812,429.5981 194.2058,429.9969 189.6312,430.4047 185.0572,430.8214 180.484,431.2472 175.9115,431.6818 171.3397,432.1255 166.7688,432.5782 162.1986,433.0398 157.6292,433.5103 153.0607,433.9899 148.493,434.4784 143.9261,434.9758 139.3601,435.4823 134.795,435.9977 130.2308,436.522 125.6675,437.0554 121.1051,437.5976 116.5436,438.1489 111.9832,438.7091 107.4237,439.2782 102.8652,439.8563 98.3077,440.4434 93.7512,441.0394 89.1957,441.6444 86.0986,442.0609" stroke="silver" stroke-opacity="0.5" stroke-width="1" /><polyline fill="none" points="725.1108,358.9442 723.0351,358.6658 718.3169,358.0397 713.5976,357.4228 708.8773,356.8151 704.1559,356.2167 699.4336,355.6275 694.7102,355.0476 689.9859,354.4769 685.2606,353.9154 680.5343,353.3632 675.8071,352.8203 671.079,352.2865 666.3499,351.762 661.62,351.2468 656.8892,350.7408 652.1576,350.244 647.4251,349.7565 642.6918,349.2783 637.9577,348.8093 633.2228,348.3495 628.4871,347.899 623.7507,347.4578 619.0135,347.0258 614.2756,346.603 609.5369,346.1895 604.7976,345.7853 600.0576,345.3903 595.3169,345.0046 590.5756,344.6281 585.8336,344.2609 581.091,343.903 576.3478,343.5543 571.604,343.2149 566.8597,342.8847 562.1148,342.5638 557.3693,342.2522 552.6234,341.9498 547.8769,341.6567 543.1299,341.3728 538.3825,341.0982 533.6346,340.8329 528.8862,340.5769 524.1375,340.3301 519.3883,340.0926 514.6387,339.8643 509.8887,339.6453 505.1384,339.4356 500.3877,339.2352 495.6367,339.044 490.8853,338.8621 486.1337,338.6895 481.3818,338.5261 476.6296,338.372 471.8771,338.2272 467.1244,338.0916 462.3715,337.9653 457.6184,337.8483 452.8651,337.7405 448.1116,337.6421 443.358,337.5529 438.6042,337.4729 433.8502,337.4023 429.0962,337.3409 424.3421,337.2888 419.5879,337.2459 414.8336,337.2124 410.0793,337.1881 405.3249,337.1731 400.5705,337.1673 395.8161,337.1708 391.0618,337.1836 386.3074,337.2057 381.5532,337.237 376.7989,337.2777 372.0448,337.3275 367.2907,337.3867 362.5368,337.4551 357.7829,337.5328 353.0293,337.6198 348.2757,337.7161 343.5224,337.8216 338.7692,337.9364 334.0162,338.0604 329.2635,338.1938 324.511,338.3364 319.7587,338.4883 315.0067,338.6494 310.255,338.8198 305.5036,338.9995 300.7525,339.1884 296.0017,339.3867 291.2513,339.5942 286.5013,339.8109 281.7516,340.0369 277.0023,340.2722 272.2534,340.5168 267.505,340.7706 262.757,341.0337 258.0094,341.3061 253.2623,341.5877 248.5157,341.8786 243.7696,342.1787 239.0241,342.4882 234.279,342.8068 229.5346,343.1348 224.7906,343.472 220.0473,343.8184 215.3046,344.1742 210.5625,344.5392 205.821,344.9134 201.0801,345.2969 196.34,345.6896 191.6005,346.0917 186.8617,346.5029 182.1236,346.9234 177.3862,347.3532 172.6496,347.7923 167.9137,348.2405 163.1786,348.6981 158.4443,349.1649 153.7108,349.6409 148.9781,350.1262 144.2463,350.6207 139.5153,351.1245 134.7852,351.6375 130.0559,352.1598 125.3276,352.6913 120.6002,353.2321 115.8737,353.7821 111.1481,354.3413 106.4235,354.9098 101.6999,355.4875 96.9773,356.0745 92.2557,356.6707 87.5352,357.2761 82.8157,357.8908 78.0972,358.5147 74.8892,358.9442" stroke="silver" stroke-opacity="0.5" stroke-width="1" /><polyline fill="none" points="736.274,275.8084 734.1269,275.5216 729.2463,274.8768 724.3646,274.2415 719.4819,273.6156 714.5981,272.9993 709.7133,272.3925 704.8275,271.7953 699.9406,271.2075 695.0528,270.6293 690.164,270.0605 685.2743,269.5013 680.3836,268.9516 675.492,268.4115 670.5995,267.8808 665.7061,267.3597 660.8119,266.8481 655.9167,266.3461 651.0208,265.8535 646.124,265.3705 641.2264,264.897 636.328,264.433 631.4288,263.9786 626.5289,263.5337 621.6282,263.0983 616.7268,262.6725 611.8247,262.2562 606.9219,261.8494 602.0184,261.4522 597.1143,261.0645 592.2095,260.6863 587.3041,260.3177 582.398,259.9586 577.4914,259.609 572.5842,259.269 567.6764,258.9385 562.7681,258.6176 557.8592,258.3062 552.9498,258.0043 548.0399,257.712 543.1296,257.4292 538.2187,257.156 533.3074,256.8923 528.3957,256.6382 523.4836,256.3936 518.571,256.1585 513.6581,255.933 508.7447,255.717 503.8311,255.5106 498.917,255.3137 494.0027,255.1263 489.0881,254.9486 484.1731,254.7803 479.2579,254.6216 474.3424,254.4725 469.4267,254.3329 464.5108,254.2028 459.5946,254.0823 454.6783,253.9713 449.7617,253.8699 444.845,253.7781 439.9282,253.6958 435.0112,253.623 430.0941,253.5598 425.1769,253.5061 420.2597,253.462 415.3423,253.4274 410.425,253.4024 405.5075,253.3869 400.5901,253.381 395.6727,253.3846 390.7552,253.3978 385.8378,253.4205 380.9205,253.4528 376.0032,253.4947 371.086,253.546 366.1689,253.6069 361.2519,253.6774 356.335,253.7574 351.4183,253.847 346.5017,253.9461 341.5853,254.0548 336.6691,254.173 331.7531,254.3008 326.8373,254.4381 321.9218,254.585 317.0065,254.7414 312.0915,254.9073 307.1768,255.0828 302.2624,255.2679 297.3483,255.4624 292.4345,255.6666 287.5211,255.8803 282.6081,256.1035 277.6954,256.3363 272.7832,256.5786 267.8713,256.8304 262.9599,257.0918 258.049,257.3628 253.1385,257.6433 248.2285,257.9333 243.319,258.2329 238.41,258.542 233.5015,258.8606 228.5936,259.1888 223.6863,259.5266 218.7795,259.8738 213.8733,260.2306 208.9677,260.597 204.0628,260.9729 199.1585,261.3583 194.2549,261.7532 189.3519,262.1577 184.4496,262.5717 179.548,262.9953 174.6472,263.4284 169.7471,263.871 164.8477,264.3231 159.9492,264.7848 155.0514,265.256 150.1544,265.7367 145.2582,266.227 140.3629,266.7268 135.4684,267.2361 130.5748,267.7549 125.6821,268.2833 120.7903,268.8211 115.8994,269.3685 111.0094,269.9255 106.1204,270.4919 101.2323,271.0679 96.3453,271.6533 91.4592,272.2483 86.5741,272.8528 81.6901,273.4669 76.8071,274.0904 71.9252,274.7235 67.0444,275.366 63.726,275.8084" stroke="silver" stroke-opacity="0.5" stroke-width="1" /><polyline fill="none" points="747.3927,192.6408 745.1744,192.3458 740.1321,191.6825 735.0887,191.029 730.0442,190.3853 724.9986,189.7514 719.952,189.1272 714.9043,188.5128 709.8556,187.9083 704.8059,187.3135 699.7552,186.7285 694.7036,186.1533 689.651,185.5879 684.5974,185.0323 679.543,184.4864 674.4876,183.9504 669.4313,183.4242 664.3742,182.9078 659.3162,182.4012 654.2574,181.9043 649.1978,181.4173 644.1373,180.9401 639.0761,180.4727 634.0141,180.015 628.9513,179.5672 623.8878,179.1292 618.8235,178.701 613.7586,178.2826 608.693,177.874 603.6267,177.4753 598.5597,177.0863 593.4921,176.7071 588.4238,176.3378 583.355,175.9782 578.2856,175.6285 573.2156,175.2886 568.145,174.9585 563.0739,174.6382 558.0022,174.3277 552.9301,174.027 547.8574,173.7362 542.7843,173.4551 537.7107,173.1839 532.6367,172.9225 527.5622,172.6709 522.4874,172.4291 517.4121,172.1972 512.3365,171.975 507.2605,171.7627 502.1841,171.5602 497.1074,171.3675 492.0304,171.1847 486.9531,171.0116 481.8756,170.8484 476.7977,170.695 471.7196,170.5514 466.6413,170.4176 461.5628,170.2937 456.4841,170.1796 451.4051,170.0752 446.3261,169.9808 441.2468,169.8961 436.1675,169.8213 431.088,169.7562 426.0084,169.701 420.9287,169.6557 415.849,169.6201 410.7692,169.5944 405.6894,169.5785 400.6096,169.5724 395.5297,169.5761 390.4499,169.5897 385.3701,169.613 380.2904,169.6462 375.2107,169.6893 370.1311,169.7421 365.0516,169.8048 359.9722,169.8772 354.8929,169.9595 349.8138,170.0517 344.7349,170.1536 339.6561,170.2654 334.5775,170.387 329.4991,170.5184 324.421,170.6596 319.3431,170.8107 314.2655,170.9715 309.1881,171.1422 304.111,171.3227 299.0343,171.5131 293.9578,171.7132 288.8817,171.9232 283.806,172.143 278.7307,172.3726 273.6557,172.612 268.5811,172.8612 263.507,173.1203 258.4333,173.3891 253.3601,173.6678 248.2873,173.9563 243.215,174.2546 238.1433,174.5628 233.072,174.8807 228.0013,175.2085 222.9312,175.546 217.8616,175.8934 212.7926,176.2506 207.7242,176.6176 202.6565,176.9944 197.5894,177.381 192.5229,177.7774 187.4571,178.1837 182.392,178.5997 177.3276,179.0256 172.2639,179.4612 167.2009,179.9067 162.1387,180.3619 157.0773,180.827 152.0167,181.3019 146.9568,181.7866 141.8978,182.281 136.8396,182.7853 131.7823,183.2994 126.7258,183.8232 121.6702,184.3569 116.6156,184.9004 111.5618,185.4536 106.509,186.0167 101.4571,186.5895 96.4062,187.1722 91.3562,187.7646 86.3073,188.3668 81.2594,188.9789 76.2125,189.6007 71.1667,190.2323 66.1219,190.8736 61.0782,191.5248 56.0356,192.1858 52.6073,192.6408" stroke="silver" stroke-opacity="0.5" stroke-width="1" /><polyline fill="none" points="758.4686,109.4288 756.1794,109.1257 750.9759,108.4442 745.7714,107.7728 740.5657,107.1114 735.3589,106.4601 730.151,105.8188 724.9421,105.1876 719.7322,104.5665 714.5212,103.9554 709.3093,103.3544 704.0963,102.7634 698.8824,102.1825 693.6675,101.6117 688.4517,101.0509 683.235,100.5002 678.0173,99.9596 672.7988,99.429 667.5794,98.9085 662.3592,98.3981 657.1381,97.8977 651.9162,97.4074 646.6935,96.9272 641.47,96.457 636.2458,95.997 631.0208,95.547 625.795,95.107 620.5686,94.6772 615.3414,94.2574 610.1136,93.8477 604.8851,93.4481 599.6559,93.0586 594.4261,92.6791 589.1957,92.3097 583.9646,91.9504 578.733,91.6012 573.5009,91.2621 568.2681,90.933 563.0349,90.614 557.8011,90.3051 552.5668,90.0063 547.332,89.7176 542.0968,89.4389 536.8611,89.1704 531.6249,88.9119 526.3884,88.6635 521.1514,88.4252 515.9141,88.197 510.6764,87.9789 505.4384,87.7708 500.2,87.5729 494.9613,87.385 489.7222,87.2072 484.4829,87.0395 479.2434,86.8819 474.0036,86.7344 468.7635,86.597 463.5232,86.4696 458.2828,86.3524 453.0421,86.2452 447.8013,86.1482 442.5603,86.0612 437.3192,85.9843 432.0779,85.9175 426.8366,85.8608 421.5952,85.8142 416.3537,85.7777 411.1122,85.7512 405.8706,85.7349 400.629,85.7286 395.3874,85.7324 390.1458,85.7464 384.9043,85.7704 379.6628,85.8045 374.4213,85.8487 369.18,85.903 363.9387,85.9674 358.6976,86.0418 353.4565,86.1264 348.2157,86.221 342.975,86.3258 337.7345,86.4406 332.4941,86.5655 327.254,86.7005 322.0142,86.8456 316.7745,87.0008 311.5352,87.1661 306.2961,87.3414 301.0573,87.5269 295.8188,87.7224 290.5807,87.928 285.3429,88.1437 280.1055,88.3695 274.8684,88.6054 269.6318,88.8514 264.3956,89.1074 259.1598,89.3736 253.9244,89.6498 248.6895,89.9361 243.4551,90.2325 238.2212,90.539 232.9878,90.8555 227.755,91.1822 222.5226,91.5189 217.2909,91.8657 212.0597,92.2226 206.8292,92.5895 201.5992,92.9666 196.3699,93.3537 191.1412,93.7509 185.9132,94.1582 180.6859,94.5755 175.4592,95.003 170.2333,95.4405 165.0081,95.888 159.7837,96.3457 154.56,96.8134 149.3372,97.2912 144.1151,97.7791 138.8938,98.2771 133.6733,98.7851 128.4538,99.3032 123.235,99.8313 118.0172,100.3695 112.8002,100.9178 107.5842,101.4762 102.3691,102.0446 97.155,102.6231 91.9418,103.2116 86.7296,103.8102 81.5184,104.4189 76.3082,105.0376 71.099,105.6664 65.8909,106.3053 60.6839,106.9542 55.4779,107.6132 50.2731,108.2822 45.0693,108.9613 41.5314,109.4288" stroke="silver" stroke-opacity="0.5" stroke-width="1" /><circle cx="687.9077" cy="624.1614" fill="black" r="0.738" stroke="none" /><circle cx="737.0971" cy="250.7804" fill="black" r="0.738" stroke="none" /><circle cx="746.7369" cy="175.8748" fill="black" r="0.738" stroke="none" /><circle cx="716.5136" cy="328.032" fill="black" r="0.738" stroke="none" /><circle cx="669.0758" cy="682.2572" fill="black" r="0.738" stroke="none" /><circle cx="711.2621" cy="279.092" fill="black" r="1.476" stroke="none" /><circle cx="665.3278" cy="641.3389" fill="black" r="0.738" stroke="none" /><circle cx="682.7637" cy="448.37" fill="black" r="0.738" stroke="none" /><circle cx="662.5402" cy="555.2219" fill="black" r="0.738" stroke="none" /><circle cx="688.2569" cy="301.8364" fill="black" r="0.936" stroke="none" /><circle cx="648.4488" cy="574.6818" fill="black" r="0.738" stroke="none" /><circle cx="665.5945" cy="352.0165" fill="black" r="0.738" stroke="none" /><circle cx="665.1244" cy="334.8441" fill="black" r="0.738" stroke="none" /><circle cx="680.4701" cy="171.5926" fill="black" r="0.738" stroke="none" /><circle cx="647.5896" cy="471.4102" fill="black" r="0.738" stroke="none" /><circle cx="638.9036" cy="543.753" fill="black" r="0.738" stroke="none" /><circle cx="621.2566" cy="675.8004" fill="black" r="0.738" stroke="none" /><circle cx="670.0457" cy="201.8719" fill="black" r="0.738" stroke="none" /><circle cx="667.6631" cy="191.0845" fill="black" r="0.738" stroke="none" /><circle cx="671.4764" cy="133.6235" fill="black" r="0.738" stroke="none" /><circle cx="660.7916" cy="234.8964" fill="black" r="0.738" stroke="none" /><circle cx="646.9768" cy="367.9132" fill="black" r="0.738" stroke="none" /><circle cx="607.1906" cy="717.0926" fill="black" r="0.738" stroke="none" /><circle cx="606.6504" cy="661.0504" fill="black" r="0.738" stroke="none" /><circle cx="619.1116" cy="412.6042" fill="black" r="0.738" stroke="none" /><circle cx="609.7542" cy="512.5017" fill="black" r="0.738" stroke="none" /><circle cx="622.0013" cy="373.3917" fill="black" r="0.738" stroke="none" /><circle cx="622.3185" cy="366.6867" fill="black" r="0.936" stroke="none" /><circle cx="627.1848" cy="305.0939" fill="black" r="0.738" stroke="none" /><circle cx="588.7562" cy="640.4018" fill="black" r="0.738" stroke="none" /><circle cx="610.3825" cy="393.2116" fill="black" r="0.738" stroke="none" /><circle cx="591.5743" cy="603.695" fill="black" r="0.738" stroke="none" /><circle cx="622.9074" cy="145.6294" fill="black" r="0.738" stroke="none" /><circle cx="574.9748" cy="689.4555" fill="black" r="0.738" stroke="none" /><circle cx="603.5602" cy="331.2987" fill="black" r="0.738" stroke="none" /><circle cx="611.8645" cy="218.1758" fill="black" r="0.738" stroke="none" /><circle cx="591.0831" cy="385.0234" fill="black" r="0.738" stroke="none" /><circle cx="605.4899" cy="115.285" fill="black" r="0.738" stroke="none" /><circle cx="578.023" cy="460.3278" fill="black" r="0.738" stroke="none" /><circle cx="560.4588" cy="271.3197" fill="black" r="0.738" stroke="none" /><circle cx="561.337" cy="219.89" fill="black" r="0.738" stroke="none" /><circle cx="565.6646" cy="144.2179" fill="black" r="0.738" stroke="none" /><circle cx="556.4703" cy="206.4037" fill="black" r="0.738" stroke="none" /><circle cx="543.3662" cy="393.0966" fill="black" r="0.738" stroke="none" /><circle cx="524.8366" cy="648.8218" fill="black" r="0.936" stroke="none" /><circle cx="551.1627" cy="162.2508" fill="black" r="0.738" stroke="none" /><circle cx="544.3505" cy="233.7404" fill="black" r="0.738" stroke="none" /><circle cx="514.9935" cy="699.4889" fill="black" r="0.738" stroke="none" /><circle cx="545.3687" cy="124.3857" fill="black" r="0.738" stroke="none" /><circle cx="512.4903" cy="654.5864" fill="black" r="0.738" stroke="none" /><circle cx="528.6846" cy="323.3644" fill="black" r="0.738" stroke="none" /><circle cx="523.0126" cy="420.7344" fill="black" r="0.738" stroke="none" /><circle cx="506.148" cy="711.69" fill="black" r="0.738" stroke="none" /><circle cx="512.088" cy="472.3647" fill="black" r="0.738" stroke="none" /><circle cx="513.301" cy="385.6849" fill="black" r="0.738" stroke="none" /><circle cx="514.6625" cy="293.9803" fill="black" r="0.738" stroke="none" /><circle cx="501.2864" cy="508.3469" fill="black" r="0.738" stroke="none" /><circle cx="511.4242" cy="196.101" fill="black" r="0.738" stroke="none" /><circle cx="496.1477" cy="473.0646" fill="black" r="0.738" stroke="none" /><circle cx="479.4878" cy="682.4348" fill="black" r="0.738" stroke="none" /><circle cx="497.6258" cy="180.3628" fill="black" r="0.738" stroke="none" /><circle cx="488.6576" cy="374.4125" fill="black" r="0.738" stroke="none" /><circle cx="481.1915" cy="562.2042" fill="black" r="0.738" stroke="none" /><circle cx="475.5977" cy="391.2325" fill="black" r="0.738" stroke="none" /><circle cx="479.8551" cy="226.6358" fill="black" r="0.738" stroke="none" /><circle cx="472.549" cy="455.0934" fill="black" r="0.738" stroke="none" /><circle cx="463.5246" cy="551.9782" fill="black" r="0.738" stroke="none" /><circle cx="462.7287" cy="569.9804" fill="black" r="0.738" stroke="none" /><circle cx="474.5763" cy="141.1931" fill="black" r="0.738" stroke="none" /><circle cx="468.0436" cy="261.8399" fill="black" r="0.738" stroke="none" /><circle cx="444.3935" cy="669.4673" fill="black" r="0.738" stroke="none" /><circle cx="447.834" cy="466.2639" fill="black" r="0.738" stroke="none" /><circle cx="449.2057" cy="354.9263" fill="black" r="0.738" stroke="none" /><circle cx="433.2723" cy="697.3518" fill="black" r="0.738" stroke="none" /><circle cx="434.314" cy="466.9434" fill="black" r="0.738" stroke="none" /><circle cx="436.1178" cy="97.4584" fill="black" r="0.738" stroke="none" /><circle cx="427.7785" cy="650.4798" fill="black" r="0.738" stroke="none" /><circle cx="422.718" cy="319.5946" fill="black" r="0.738" stroke="none" /><circle cx="422.7694" cy="218.8722" fill="black" r="0.738" stroke="none" /><circle cx="421.4753" cy="157.4209" fill="black" r="0.738" stroke="none" /><circle cx="419.3016" cy="285.799" fill="black" r="0.738" stroke="none" /><circle cx="418.1632" cy="349.7183" fill="black" r="0.738" stroke="none" /><circle cx="416.6884" cy="536.2915" fill="black" r="0.738" stroke="none" /><circle cx="411.2589" cy="593.1587" fill="black" r="0.738" stroke="none" /><circle cx="409.3029" cy="370.6964" fill="black" r="1.17" stroke="none" /><circle cx="406.1274" cy="257.3267" fill="black" r="0.738" stroke="none" /><circle cx="393.1988" cy="515.5427" fill="black" r="0.738" stroke="none" /><circle cx="390.1533" cy="402.2824" fill="black" r="0.738" stroke="none" /><circle cx="385.5861" cy="447.6299" fill="black" r="0.738" stroke="none" /><circle cx="382.7508" cy="122.5966" fill="black" r="0.738" stroke="none" /><circle cx="383.0475" cy="311.1696" fill="black" r="0.738" stroke="none" /><circle cx="377.939" cy="646.3035" fill="black" r="0.738" stroke="none" /><circle cx="373.0555" cy="321.9833" fill="black" r="0.738" stroke="none" /><circle cx="369.2911" cy="519.6816" fill="black" r="0.738" stroke="none" /><circle cx="364.603" cy="256.9805" fill="black" r="0.738" stroke="none" /><circle cx="369.4885" cy="680.5362" fill="black" r="0.738" stroke="none" /><circle cx="357.3582" cy="524.9059" fill="black" r="0.738" stroke="none" /><circle cx="348.9255" cy="176.6084" fill="black" r="0.738" stroke="none" /><circle cx="357.7672" cy="688.2919" fill="black" r="1.17" stroke="none" /><circle cx="352.2312" cy="460.7318" fill="black" r="0.738" stroke="none" /><circle cx="345.432" cy="383.1147" fill="black" r="0.738" stroke="none" /><circle cx="331.4107" cy="366.7974" fill="black" r="0.738" stroke="none" /><circle cx="323.1595" cy="313.3142" fill="black" r="0.738" stroke="none" /><circle cx="305.3329" cy="251.0419" fill="black" r="0.738" stroke="none" /><circle cx="303.2492" cy="337.8302" fill="black" r="0.738" stroke="none" /><circle cx="289.8207" cy="89.8894" fill="black" r="0.738" stroke="none" /><circle cx="305.6237" cy="627.7559" fill="black" r="0.738" stroke="none" /><circle cx="290.7661" cy="345.7387" fill="black" r="0.738" stroke="none" /><circle cx="283.0156" cy="186.276" fill="black" r="0.738" stroke="none" /><circle cx="304.8986" cy="699.8893" fill="black" r="0.738" stroke="none" /><circle cx="278.2068" cy="153.9323" fill="black" r="0.738" stroke="none" /><circle cx="301.6809" cy="673.1764" fill="black" r="0.738" stroke="none" /><circle cx="285.4176" cy="383.9007" fill="black" r="0.738" stroke="none" /><circle cx="286.3139" cy="429.9945" fill="black" r="0.738" stroke="none" /><circle cx="287.0401" cy="451.6024" fill="black" r="0.738" stroke="none" /><circle cx="292.9654" cy="574.4774" fill="black" r="0.738" stroke="none" /><circle cx="286.4066" cy="561.4661" fill="black" r="0.738" stroke="none" /><circle cx="286.3292" cy="561.9736" fill="black" r="0.738" stroke="none" /><circle cx="283.7048" cy="613.4842" fill="black" r="0.738" stroke="none" /><circle cx="265.7353" cy="332.1396" fill="black" r="0.738" stroke="none" /><circle cx="257.1856" cy="276.8028" fill="black" r="0.738" stroke="none" /><circle cx="253.3899" cy="306.4888" fill="black" r="0.738" stroke="none" /><circle cx="235.8891" cy="324.1352" fill="black" r="0.738" stroke="none" /><circle cx="250.8866" cy="572.0021" fill="black" r="0.738" stroke="none" /><circle cx="230.8337" cy="358.4175" fill="black" r="0.738" stroke="none" /><circle cx="235.577" cy="453.9386" fill="black" r="0.738" stroke="none" /><circle cx="236.75" cy="477.4638" fill="black" r="0.738" stroke="none" /><circle cx="202.5337" cy="127.8892" fill="black" r="0.738" stroke="none" /><circle cx="200.4374" cy="150.2495" fill="black" r="0.738" stroke="none" /><circle cx="201.1721" cy="199.1398" fill="black" r="0.738" stroke="none" /><circle cx="240.8161" cy="712.5662" fill="black" r="0.738" stroke="none" /><circle cx="224.4444" cy="549.3354" fill="black" r="0.738" stroke="none" /><circle cx="229.7412" cy="653.04" fill="black" r="0.738" stroke="none" /><circle cx="217.5712" cy="512.1318" fill="black" r="0.738" stroke="none" /><circle cx="196.352" cy="254.939" fill="black" r="0.738" stroke="none" /><circle cx="198.4524" cy="287.821" fill="black" r="0.936" stroke="none" /><circle cx="194.2334" cy="246.8675" fill="black" r="0.738" stroke="none" /><circle cx="225.4448" cy="632.5266" fill="black" r="0.738" stroke="none" /><circle cx="191.9837" cy="299.7081" fill="black" r="0.738" stroke="none" /><circle cx="200.4286" cy="423.4003" fill="black" r="0.936" stroke="none" /><circle cx="166.5158" cy="162.0323" fill="black" r="0.738" stroke="none" /><circle cx="190.7108" cy="438.3023" fill="black" r="0.738" stroke="none" /><circle cx="170.2307" cy="225.1849" fill="black" r="0.738" stroke="none" /><circle cx="214.8206" cy="720.2593" fill="black" r="0.738" stroke="none" /><circle cx="148.0973" cy="107.9408" fill="black" r="0.738" stroke="none" /><circle cx="172.6752" cy="386.1839" fill="black" r="0.738" stroke="none" /><circle cx="177.8123" cy="450.6988" fill="black" r="1.17" stroke="none" /><circle cx="190.2498" cy="593.8568" fill="black" r="0.738" stroke="none" /><circle cx="182.1206" cy="517.2353" fill="black" r="0.738" stroke="none" /><circle cx="175.1217" cy="466.9615" fill="black" r="0.738" stroke="none" /><circle cx="157.8348" cy="306.2619" fill="black" r="1.854" stroke="none" /><circle cx="164.3683" cy="394.6561" fill="black" r="0.738" stroke="none" /><circle cx="189.0944" cy="685.0879" fill="black" r="0.738" stroke="none" /><circle cx="129.9903" cy="107.9209" fill="black" r="0.738" stroke="none" /><circle cx="133.7325" cy="197.9398" fill="black" r="0.936" stroke="none" /><circle cx="129.8428" cy="174.3913" fill="black" r="0.738" stroke="none" /><circle cx="134.7124" cy="271.7002" fill="black" r="0.738" stroke="none" /><circle cx="140.2127" cy="333.9334" fill="black" r="0.738" stroke="none" /><circle cx="166.0817" cy="625.71" fill="black" r="0.738" stroke="none" /><circle cx="164.0605" cy="648.7232" fill="black" r="0.936" stroke="none" /><circle cx="106.5196" cy="227.6376" fill="black" r="0.738" stroke="none" /><circle cx="138.7029" cy="512.2658" fill="black" r="0.738" stroke="none" /><circle cx="90.6291" cy="108.3463" fill="black" r="0.738" stroke="none" /><circle cx="98.6286" cy="201.0191" fill="black" r="0.738" stroke="none" /><circle cx="146.8549" cy="691.4784" fill="black" r="0.738" stroke="none" /><circle cx="100.1069" cy="350.361" fill="black" r="0.738" stroke="none" /><circle cx="79.369" cy="261.7542" fill="black" r="0.738" stroke="none" /><circle cx="133.6268" cy="723.7181" fill="black" r="0.738" stroke="none" /><circle cx="117.1858" cy="614.9279" fill="black" r="0.738" stroke="none" /><circle cx="82.256" cy="350.6897" fill="black" r="0.936" stroke="none" /><circle cx="85.1137" cy="382.6271" fill="black" r="0.738" stroke="none" /><circle cx="100.8154" cy="535.7058" fill="black" r="0.738" stroke="none" /><circle cx="122.7667" cy="702.8212" fill="black" r="0.738" stroke="none" /><circle cx="13.77" cy="786.23" fill="black" r="4.59" stroke="none" /><circle cx="13.77" cy="786.23" fill="black" r="4.59" stroke="none" /><text fill="black" font-family="monospace" font-size="12" x="10.77" y="775.64">1</text><circle cx="37.77" cy="786.23" fill="black" r="3.654" stroke="none" /><circle cx="37.77" cy="786.23" fill="black" r="3.654" stroke="none" /><text fill="black" font-family="monospace" font-size="12" x="34.769999999999996" y="775.64">2</text><circle cx="61.77" cy="786.23" fill="black" r="2.916" stroke="none" /><circle cx="61.77" cy="786.23" fill="black" r="2.916" stroke="none" /><text fill="black" font-family="monospace" font-size="12" x="58.769999999999996" y="775.64">3</text><circle cx="85.77" cy="786.23" fill="black" r="2.322" stroke="none" /><circle cx="85.77" cy="786.23" fill="black" r="2.322" stroke="none" /><text fill="black" font-family="monospace" font-size="12" x="82.77" y="775.64">4</text><circle cx="109.77" cy="786.23" fill="black" r="1.854" stroke="none" /><circle cx="109.77" cy="786.23" fill="black" r="1.854" stroke="none" /><text fill="black" font-family="monospace" font-size="12" x="106.77" y="775.64">5</text><circle cx="133.77" cy="786.23" fill="black" r="1.476" stroke="none" /><circle cx="133.77" cy="786.23" fill="black" r="1.476" stroke="none" /><text fill="black" font-family="monospace" font-size="12" x="130.77" y="775.64">6</text><circle cx="157.77" cy="786.23" fill="black" r="1.17" stroke="none" /><circle cx="157.77" cy="786.23" fill="black" r="1.17" stroke="none" /><text fill="black" font-family="monospace" font-size="12" x="154.77" y="775.64">7</text><circle cx="181.77" cy="786.23" fill="black" r="0.936" stroke="none" /><circle cx="181.77" cy="786.23" fill="black" r="0.936" stroke="none" /><text fill="black" font-family="monospace" font-size="12" x="178.77" y="775.64">8</text><circle cx="205.77" cy="786.23" fill="black" r="0.738" stroke="none" /><circle cx="205.77" cy="786.23" fill="black" r="0.738" stroke="none" /><text fill="black" font-family="monospace" font-size="12" x="202.77" y="775.64">9</text><text fill="gray" fill-opacity="0.5" font-family="monospace" font-size="12" x="646.6935238977097" y="96.92718604087946">04h45m</text><text fill="gray" fill-opacity="0.5" font-family="monospace" font-size="12" x="489.722240295217" y="87.20721986665427">05h00m</text><text fill="gray" fill-opacity="0.5" font-family="monospace" font-size="12" x="332.49413806884627" y="86.56550198785908">05h15m</text><text fill="gray" fill-opacity="0.5" font-family="monospace" font-size="12" x="175.45924133282026" y="95.0029575052369">05h30m</text><text fill="gray" fill-opacity="0.5" font-family="monospace" font-size="12" x="120.0207976346789" y="691.4222332194132">-67°</text><text fill="gray" fill-opacity="0.5" font-family="monospace" font-size="12" x="108.66267279149741" y="608.2872722018834">-66°</text><text fill="gray" fill-opacity="0.5" font-family="monospace" font-size="12" x="97.3558677521819" y="525.1710264170268">-65°</text><text fill="gray" fill-opacity="0.5" font-family="monospace" font-size="12" x="86.09863233483821" y="442.06087499636646">-64°</text><text fill="gray" fill-opacity="0.5" font-family="monospace" font-size="12" x="74.88924651937225" y="358.94420075333744">-63°</text><text fill="gray" fill-opacity="0.5" font-family="monospace" font-size="12" x="63.72601939454967" y="275.8083825333886">-62°</text><text fill="gray" fill-opacity="0.5" font-family="monospace" font-size="12" x="52.60728814267014" y="192.64078755895358">-61°</text><text fill="gray" fill-opacity="0.5" font-family="monospace" font-size="12" x="41.53141706056658" y="109.42876375944678">-60°</text><text fill="black" font-family="monospace" font-size="12" x="12" y="48">&gt;&gt; No.74 04h34m 05h43m -67.5°-60.0°</text><a target="_self" xlink:href="hip003.svg"><text fill="black" font-family="monospace" font-size="12" x="12" y="36">&gt; No.3 00h00m 08h00m -90.0°-52.5°</text></a><a target="_self" xlink:href="hip001.svg"><text fill="black" font-family="monospace" font-size="12" x="12" y="24">No.1 00h 24h -90.0°+0.0°</text></a><polyline fill="none" points="758.4686,109.4288 756.1794,109.1257 750.9759,108.4442 745.7714,107.7728 740.5657,107.1114 735.3589,106.4601 730.151,105.8188 724.9421,105.1876 719.7322,104.5665 714.5212,103.9554 709.3093,103.3544 704.0963,102.7634 698.8824,102.1825 693.6675,101.6117 688.4517,101.0509 683.235,100.5002 678.0173,99.9596 672.7988,99.429 667.5794,98.9085 662.3592,98.3981 657.1381,97.8977 651.9162,97.4074 646.6935,96.9272 641.47,96.457 636.2458,95.997 631.0208,95.547 625.795,95.107 620.5686,94.6772 615.3414,94.2574 610.1136,93.8477 604.8851,93.4481 599.6559,93.0586 594.4261,92.6791 589.1957,92.3097 583.9646,91.9504 578.733,91.6012 573.5009,91.2621 568.2681,90.933 563.0349,90.614 557.8011,90.3051 552.5668,90.0063 547.332,89.7176 542.0968,89.4389 536.8611,89.1704 531.6249,88.9119 526.3884,88.6635 521.1514,88.4252 515.9141,88.197 510.6764,87.9789 505.4384,87.7708 500.2,87.5729 494.9613,87.385 489.7222,87.2072 484.4829,87.0395 479.2434,86.8819 474.0036,86.7344 468.7635,86.597 463.5232,86.4696 458.2828,86.3524 453.0421,86.2452 447.8013,86.1482 442.5603,86.0612 437.3192,85.9843 432.0779,85.9175 426.8366,85.8608 421.5952,85.8142 416.3537,85.7777 411.1122,85.7512 405.8706,85.7349 400.629,85.7286 395.3874,85.7324 390.1458,85.7464 384.9043,85.7704 379.6628,85.8045 374.4213,85.8487 369.18,85.903 363.9387,85.9674 358.6976,86.0418 353.4565,86.1264 348.2157,86.221 342.975,86.3258 337.7345,86.4406 332.4941,86.5655 327.254,86.7005 322.0142,86.8456 316.7745,87.0008 311.5352,87.1661 306.2961,87.3414 301.0573,87.5269 295.8188,87.7224 290.5807,87.928 285.3429,88.1437 280.1055,88.3695 274.8684,88.6054 269.6318,88.8514 264.3956,89.1074 259.1598,89.3736 253.9244,89.6498 248.6895,89.9361 243.4551,90.2325 238.2212,90.539 232.9878,90.8555 227.755,91.1822 222.5226,91.5189 217.2909,91.8657 212.0597,92.2226 206.8292,92.5895 201.5992,92.9666 196.3699,93.3537 191.1412,93.7509 185.9132,94.1582 180.6859,94.5755 175.4592,95.003 170.2333,95.4405 165.0081,95.888 159.7837,96.3457 154.56,96.8134 149.3372,97.2912 144.1151,97.7791 138.8938,98.2771 133.6733,98.7851 128.4538,99.3032 123.235,99.8313 118.0172,100.3695 112.8002,100.9178 107.5842,101.4762 102.3691,102.0446 97.155,102.6231 91.9418,103.2116 86.7296,103.8102 81.5184,104.4189 76.3082,105.0376 71.099,105.6664 65.8909,106.3053 60.6839,106.9542 55.4779,107.6132 50.2731,108.2822 45.0693,108.9613 41.5314,109.4288" stroke="black" stroke-opacity="0.5" stroke-width="1" /><polyline fill="none" points="674.2803,733.0007 675.7063,722.6052 677.1314,712.2104 678.5557,701.816 679.9792,691.4222 681.4018,681.0289 682.8236,670.636 684.2446,660.2436 685.6648,649.8516 687.0841,639.46 688.5027,629.0688 689.9204,618.6779 691.3373,608.2873 692.7534,597.897 694.1688,587.5069 695.5833,577.1172 696.997,566.7276 698.41,556.3382 699.8221,545.949 701.2335,535.56 702.6441,525.171 704.054,514.7822 705.463,504.3934 706.8713,494.0047 708.2788,483.616 709.6856,473.2273 711.0916,462.8385 712.4969,452.4497 713.9014,442.0609 715.3051,431.6719 716.7081,421.2828 718.1104,410.8936 719.5119,400.5041 720.9127,390.1145 722.3128,379.7247 723.7121,369.3346 725.1108,358.9442 726.5086,348.5535 727.9058,338.1625 729.3023,327.7712 730.698,317.3795 732.0931,306.9874 733.4874,296.5948 734.881,286.2018 736.274,275.8084 737.6662,265.4144 739.0578,255.02 740.4486,244.6249 741.8388,234.2293 743.2283,223.8332 744.6171,213.4364 746.0052,203.0389 747.3927,192.6408 748.7795,182.242 750.1656,171.8424 751.5511,161.4422 752.9359,151.0411 754.3201,140.6393 755.7035,130.2366 757.0864,119.8331 758.4686,109.4288" stroke="black" stroke-opacity="0.5" stroke-width="1" /><polyline fill="none" points="674.2803,733.0007 672.5298,732.7613 668.5506,732.2229 664.5705,731.6924 660.5894,731.1699 656.6074,730.6553 652.6245,730.1486 648.6407,729.6499 644.656,729.1591 640.6704,728.6763 636.6839,728.2014 632.6967,727.7345 628.7086,727.2754 624.7197,726.8244 620.7299,726.3813 616.7394,725.9461 612.7482,725.5189 608.7561,725.0996 604.7634,724.6883 600.7699,724.285 596.7757,723.8896 592.7807,723.5021 588.7851,723.1226 584.7889,722.7511 580.792,722.3875 576.7944,722.0318 572.7962,721.6842 568.7974,721.3445 564.798,721.0127 560.798,720.6889 556.7974,720.3731 552.7963,720.0652 548.7946,719.7653 544.7924,719.4734 540.7897,719.1894 536.7865,718.9134 532.7828,718.6453 528.7786,718.3852 524.774,718.1331 520.7689,717.889 516.7634,717.6528 512.7575,717.4246 508.7512,717.2043 504.7445,716.9921 500.7374,716.7878 496.73,716.5914 492.7222,716.4031 488.7141,716.2227 484.7057,716.0503 480.697,715.8858 476.688,715.7293 472.6787,715.5808 468.6692,715.4403 464.6594,715.3078 460.6494,715.1832 456.6392,715.0666 452.6288,714.9579 448.6181,714.8573 444.6074,714.7646 440.5964,714.6799 436.5853,714.6032 432.5741,714.5344 428.5628,714.4736 424.5513,714.4208 420.5398,714.376 416.5282,714.3392 412.5166,714.3103 408.5049,714.2894 404.4932,714.2765 400.4814,714.2715 396.4697,714.2745 392.4579,714.2856 388.4462,714.3045 384.4346,714.3315 380.423,714.3664 376.4114,714.4093 372.4,714.4602 368.3886,714.5191 364.3774,714.5859 360.3662,714.6608 356.3553,714.7435 352.3444,714.8343 348.3338,714.9331 344.3233,715.0398 340.313,715.1545 336.303,715.2771 332.2931,715.4078 328.2835,715.5464 324.2742,715.693 320.2651,715.8475 316.2563,716.0101 312.2479,716.1806 308.2397,716.359 304.2318,716.5455 300.2243,716.7399 296.2172,716.9423 292.2104,717.1527 288.204,717.371 284.1979,717.5973 280.1923,717.8316 276.1872,718.0738 272.1824,718.324 268.1782,718.5822 264.1743,718.8483 260.171,719.1224 256.1682,719.4045 252.1659,719.6945 248.1641,719.9925 244.1628,720.2985 240.1621,720.6124 236.162,720.9343 232.1624,721.2641 228.1635,721.6019 224.1651,721.9477 220.1674,722.3014 216.1703,722.6631 212.1739,723.0327 208.1781,723.4103 204.1831,723.7958 200.1887,724.1893 196.195,724.5908 192.2021,725.0002 188.2099,725.4176 184.2184,725.8429 180.2277,726.2761 176.2378,726.7173 172.2487,727.1665 168.2604,727.6236 164.2729,728.0886 160.2863,728.5616 156.3005,729.0425 152.3156,729.5314 148.3316,730.0282 144.3484,730.533 140.3662,731.0456 136.3849,731.5663 132.4045,732.0948 128.4251,732.6313 125.7197,733.0007" stroke="black" stroke-opacity="0.5" stroke-width="1" /><polyline fill="none" points="125.7197,733.0007 124.2937,722.6052 122.8686,712.2104 121.4443,701.816 120.0208,691.4222 118.5982,681.0289 117.1764,670.636 115.7554,660.2436 114.3352,649.8516 112.9159,639.46 111.4973,629.0688 110.0796,618.6779 108.6627,608.2873 107.2466,597.897 105.8312,587.5069 104.4167,577.1172 103.003,566.7276 101.59,556.3382 100.1779,545.949 98.7665,535.56 97.3559,525.171 95.946,514.7822 94.537,504.3934 93.1287,494.0047 91.7212,483.616 90.3144,473.2273 88.9084,462.8385 87.5031,452.4497 86.0986,442.0609 84.6949,431.6719 83.2919,421.2828 81.8896,410.8936 80.4881,400.5041 79.0873,390.1145 77.6872,379.7247 76.2879,369.3346 74.8892,358.9442 73.4914,348.5535 72.0942,338.1625 70.6977,327.7712 69.302,317.3795 67.9069,306.9874 66.5126,296.5948 65.119,286.2018 63.726,275.8084 62.3338,265.4144 60.9422,255.02 59.5514,244.6249 58.1612,234.2293 56.7717,223.8332 55.3829,213.4364 53.9948,203.0389 52.6073,192.6408 51.2205,182.242 49.8344,171.8424 48.4489,161.4422 47.0641,151.0411 45.6799,140.6393 44.2965,130.2366 42.9136,119.8331 41.5314,109.4288" stroke="black" stroke-opacity="0.5" stroke-width="1" /></svg>