<?xml version="1.0" encoding="utf-8" ?>
<svg baseProfile="tiny" height="800" version="1.2" width="800" xmlns="http://www.w3.org/2000/svg" xmlns:ev="http://www.w3.org/2001/xml-events" xmlns:xlink="http://www.w3.org/1999/xlink"><defs /><rect fill="none" height="800" stroke="black" stroke-width="2" width="800" x="0" y="0" /><polyline fill="none" points="674.2803,733.0007 675.7063,722.6052 677.1314,712.2104 678.5557,701.816 679.9792,691.4222 681.4018,681.0289 682.8236,670.636 684.2446,660.2436 685.6648,649.8516 687.0841,639.46 688.5027,629.0688 689.9204,618.6779 691.3373,608.2873 692.7534,597.897 694.1688,587.5069 695.5833,577.1172 696.997,566.7276 698.41,556.3382 699.8221,545.949 701.2335,535.56 702.6441,525.171 704.054,514.7822 705.463,504.3934 706.8713,494.0047 708.2788,483.616 709.6856,473.2273 711.0916,462.8385 712.4969,452.4497 713.9014,442.0609 715.3051,431.6719 716.7081,421.2828 718.1104,410.8936 719.5119,400.5041 720.9127,390.1145 722.3128,379.7247 723.7121,369.3346 725.1108,358.9442 726.5086,348.5535 727.9058,338.1625 729.3023,327.7712 730.698,317.3795 732.0931,306.9874 733.4874,296.5948 734.881,286.2018 736.274,275.8084 737.6662,265.4144 739.0578,255.02 740.4486,244.6249 741.8388,234.2293 743.2283,223.8332 744.6171,213.4364 746.0052,203.0389 747.3927,192.6408 748.7795,182.242 750.1656,171.8424 751.5511,161.4422 752.9359,151.0411 754.3201,140.6393 755.7035,130.2366 757.0864,119.8331 758.4686,109.4288" stroke="silver" stroke-opacity="0.5" stroke-width="1" /><polyline fill="none" points="554.5568,720.1997 555.3599,709.7445 556.1624,699.29 556.9644,688.8361 557.766,678.3829 558.5671,667.9302 559.3678,657.4782 560.168,647.0267 560.9677,636.5757 561.7669,626.1252 562.5657,615.6751 563.364,605.2256 564.1619,594.7764 564.9593,584.3276 565.7562,573.8793 566.5527,563.4312 567.3487,552.9835 568.1443,542.5361 568.9395,532.089 569.7342,521.6421 570.5284,511.1955 571.3222,500.749 572.1156,490.3027 572.9086,479.8566 573.7011,469.4106 574.4931,458.9647 575.2848,448.5189 576.076,438.0731 576.8668,427.6273 577.6571,417.1816 578.447,406.7358 579.2365,396.29 580.0256,385.8441 580.8143,375.3981 581.6026,364.952 582.3904,354.5058 583.1778,344.0593 583.9648,333.6127 584.7514,323.1659 585.5376,312.7188 586.3234,302.2714 587.1088,291.8237 587.8938,281.3757 588.6784,270.9274 589.4625,260.4787 590.2463,250.0296 591.0297,239.5801 591.8127,229.1301 592.5953,218.6797 593.3776,208.2288 594.1594,197.7773 594.9408,187.3253 595.7219,176.8727 596.5026,166.4196 597.2829,155.9658 598.0628,145.5114 598.8424,135.0563 599.6215,124.6005 600.4003,114.144 601.1787,103.6867 601.9568,93.2287" stroke="silver" stroke-opacity="0.5" stroke-width="1" /><polyline fill="none" points="434.3391,714.5637 434.5174,704.0822 434.6957,693.6015 434.8738,683.1214 435.0519,672.642 435.2298,662.1633 435.4076,651.6852 435.5854,641.2077 435.763,630.7308 435.9405,620.2544 436.1179,609.7785 436.2952,599.3031 436.4724,588.8282 436.6495,578.3537 436.8265,567.8797 437.0034,557.406 437.1803,546.9328 437.357,536.4599 437.5336,525.9872 437.7101,515.5149 437.8865,505.0429 438.0628,494.5711 438.239,484.0996 438.4151,473.6282 438.5911,463.157 438.767,452.6859 438.9429,442.215 439.1186,431.7442 439.2942,421.2734 439.4697,410.8027 439.6452,400.332 439.8205,389.8613 439.9958,379.3906 440.1709,368.9198 440.346,358.449 440.521,347.978 440.6958,337.507 440.8706,327.0357 441.0453,316.5643 441.2199,306.0927 441.3945,295.6209 441.5689,285.1488 441.7432,274.6765 441.9175,264.2038 442.0916,253.7308 442.2657,243.2575 442.4397,232.7837 442.6136,222.3096 442.7874,211.8351 442.9611,201.3601 443.1347,190.8846 443.3083,180.4086 443.4817,169.9321 443.6551,159.4551 443.8284,148.9775 444.0016,138.4992 444.1747,128.0204 444.3477,117.5409 444.5207,107.0607 444.6936,96.5798 444.8663,86.0982" stroke="silver" stroke-opacity="0.5" stroke-width="1" /><polyline fill="none" points="314.0116,716.1046 313.5649,705.6303 313.1185,695.1567 312.6724,684.6838 312.2265,674.2116 311.7809,663.74 311.3355,653.269 310.8905,642.7986 310.4456,632.3287 310.0011,621.8594 309.5568,611.3906 309.1127,600.9223 308.6689,590.4544 308.2254,579.987 307.7821,569.5199 307.3391,559.0533 306.8963,548.587 306.4538,538.1211 306.0115,527.6554 305.5695,517.1901 305.1277,506.725 304.6862,496.2601 304.2449,485.7955 303.8039,475.331 303.3631,464.8667 302.9225,454.4025 302.4822,443.9384 302.0421,433.4744 301.6023,423.0105 301.1627,412.5466 300.7233,402.0828 300.2842,391.6189 299.8453,381.1549 299.4066,370.6909 298.9682,360.2269 298.53,349.7627 298.092,339.2983 297.6543,328.8338 297.2168,318.3691 296.7795,307.9042 296.3425,297.4391 295.9057,286.9737 295.4691,276.508 295.0327,266.0419 294.5965,255.5756 294.1606,245.1089 293.7249,234.6418 293.2894,224.1743 292.8541,213.7063 292.4191,203.2379 291.9842,192.769 291.5496,182.2996 291.1152,171.8296 290.681,161.3591 290.247,150.888 289.8132,140.4162 289.3797,129.9439 288.9463,119.4709 288.5132,108.9972 288.0802,98.5227 287.6475,88.0476" stroke="silver" stroke-opacity="0.5" stroke-width="1" /><polyline fill="none" points="193.9589,724.8191 192.8881,714.3854 191.818,703.9524 190.7485,693.5201 189.6796,683.0883 188.6114,672.657 187.5438,662.2263 186.4768,651.7961 185.4105,641.3664 184.3447,630.9371 183.2796,620.5083 182.2151,610.0799 181.1512,599.6518 180.0879,589.2242 179.0252,578.7968 177.9631,568.3698 176.9016,557.9431 175.8407,547.5166 174.7804,537.0904 173.7206,526.6643 172.6615,516.2385 171.603,505.8128 170.545,495.3873 169.4876,484.9619 168.4308,474.5365 167.3746,464.1112 166.319,453.686 165.2639,443.2608 164.2094,432.8355 163.1554,422.4103 162.102,411.9849 161.0492,401.5595 159.997,391.134 158.9452,380.7083 157.8941,370.2825 156.8435,359.8565 155.7934,349.4303 154.7439,339.0039 153.695,328.5771 152.6465,318.1502 151.5986,307.7229 150.5513,297.2952 149.5045,286.8672 148.4582,276.4389 147.4124,266.0101 146.3672,255.5809 145.3225,245.1512 144.2783,234.7211 143.2346,224.2904 142.1915,213.8592 141.1489,203.4275 140.1067,192.9951 139.0651,182.5622 138.024,172.1286 136.9834,161.6944 135.9433,151.2595 134.9037,140.8239 133.8646,130.3876 132.826,119.9505 131.7879,109.5126 130.7503,99.074" stroke="silver" stroke-opacity="0.5" stroke-width="1" /><polyline fill="none" points="679.9792,691.4222 675.9176,690.8702 671.8551,690.3263 667.7915,689.7905 663.7271,689.2628 659.6617,688.7431 655.5954,688.2316 651.5281,687.7281 647.46,687.2327 643.3911,686.7454 639.3212,686.2662 635.2505,685.7951 631.179,685.3321 627.1067,684.8771 623.0335,684.4303 618.9596,683.9916 614.8849,683.5609 610.8095,683.1384 606.7333,682.724 602.6563,682.3176 598.5787,681.9194 594.5003,681.5293 590.4213,681.1473 586.3416,680.7733 582.2612,680.4075 578.1802,680.0498 574.0986,679.7002 570.0163,679.3587 565.9335,679.0253 561.85,678.7001 557.766,678.3829 553.6815,678.0738 549.5964,677.7729 545.5107,677.4801 541.4246,677.1953 537.3379,676.9187 533.2508,676.6502 529.1632,676.3899 525.0751,676.1376 520.9866,675.8935 516.8977,675.6574 512.8084,675.4295 508.7187,675.2097 504.6285,674.9981 500.538,674.7945 496.4472,674.5991 492.356,674.4117 488.2645,674.2325 484.1727,674.0615 480.0806,673.8985 475.9882,673.7437 471.8955,673.597 467.8026,673.4584 463.7094,673.3279 459.6161,673.2055 455.5225,673.0913 451.4287,672.9852 447.3347,672.8872 443.2406,672.7974 439.1463,672.7157 435.0519,672.642 430.9573,672.5766 426.8627,672.5192 422.7679,672.47 418.6731,672.4289 414.5782,672.3959 410.4832,672.371 406.3882,672.3543 402.2932,672.3457 398.1982,672.3452 394.1032,672.3528 390.0082,672.3686 385.9132,672.3925 381.8183,672.4245 377.7235,672.4646 373.6287,672.5129 369.534,672.5693 365.4395,672.6338 361.345,672.7064 357.2507,672.7872 353.1566,672.876 349.0626,672.973 344.9688,673.0782 340.8752,673.1914 336.7817,673.3128 332.6886,673.4423 328.5956,673.5799 324.5029,673.7256 320.4105,673.8795 316.3183,674.0415 312.2265,674.2116 308.1349,674.3898 304.0437,674.5762 299.9528,674.7706 295.8623,674.9732 291.7721,675.1839 287.6824,675.4027 283.593,675.6297 279.504,675.8647 275.4155,676.1079 271.3273,676.3592 267.2397,676.6186 263.1525,676.8861 259.0658,677.1617 254.9796,677.4455 250.8939,677.7373 246.8087,678.0373 242.7241,678.3454 238.64,678.6616 234.5565,678.9859 230.4736,679.3183 226.3913,679.6588 222.3095,680.0074 218.2285,680.3642 214.148,680.729 210.0682,681.102 205.9891,681.483 201.9107,681.8722 197.833,682.2694 193.7559,682.6748 189.6796,683.0883 185.6041,683.5098 181.5293,683.9395 177.4553,684.3772 173.3821,684.8231 169.3096,685.277 165.238,685.7391 161.1672,686.2092 157.0973,686.6875 153.0282,687.1738 148.96,687.6682 144.8927,688.1707 140.8262,688.6813 136.7607,689.2 132.6961,689.7268 128.6325,690.2616 124.5698,690.8045 120.5081,691.3556 120.0208,691.4222" stroke="silver" stroke-opacity="0.5" stroke-width="1" /><polyline fill="none" points="691.3373,608.2873 687.1107,607.7153 682.883,607.1517 678.6543,606.5965 674.4247,606.0497 670.1941,605.5112 665.9625,604.9812 661.7301,604.4595 657.4967,603.9462 653.2625,603.4412 649.0273,602.9447 644.7913,602.4565 640.5544,601.9768 636.3167,601.5054 632.0782,601.0424 627.8388,600.5878 623.5987,600.1416 619.3578,599.7038 615.1161,599.2744 610.8737,598.8534 606.6305,598.4407 602.3867,598.0365 598.1421,597.6407 593.8968,597.2532 589.6509,596.8742 585.4043,596.5036 581.157,596.1413 576.9091,595.7875 572.6606,595.4421 568.4115,595.105 564.1619,594.7764 559.9116,594.4562 555.6608,594.1444 551.4094,593.8409 547.1576,593.5459 542.9052,593.2593 538.6523,592.9812 534.3989,592.7114 530.1451,592.45 525.8908,592.197 521.6361,591.9525 517.3809,591.7163 513.1254,591.4886 508.8694,591.2693 504.6131,591.0584 500.3564,590.8559 496.0993,590.6618 491.842,590.4761 487.5843,590.2989 483.3263,590.13 479.068,589.9696 474.8094,589.8176 470.5506,589.674 466.2915,589.5388 462.0322,589.412 457.7727,589.2937 453.513,589.1838 449.2531,589.0822 444.993,588.9891 440.7328,588.9045 436.4724,588.8282 432.2119,588.7603 427.9513,588.7009 423.6906,588.6499 419.4298,588.6073 415.169,588.5731 410.9081,588.5474 406.6471,588.53 402.3861,588.5211 398.1252,588.5206 393.8642,588.5285 389.6032,588.5448 385.3423,588.5696 381.0815,588.6028 376.8207,588.6443 372.56,588.6943 368.2993,588.7528 364.0388,588.8196 359.7784,588.8949 355.5182,588.9785 351.2581,589.0706 346.9982,589.1711 342.7384,589.2801 338.4789,589.3974 334.2196,589.5232 329.9605,589.6573 325.7016,589.7999 321.443,589.9509 317.1847,590.1103 312.9267,590.2782 308.6689,590.4544 304.4115,590.6391 300.1544,590.8321 295.8977,591.0336 291.6413,591.2435 287.3853,591.4618 283.1297,591.6886 278.8745,591.9237 274.6198,592.1672 270.3654,592.4192 266.1115,592.6796 261.8581,592.9483 257.6052,593.2255 253.3527,593.5111 249.1008,593.8051 244.8493,594.1075 240.5985,594.4183 236.3482,594.7375 232.0984,595.0651 227.8492,595.4012 223.6007,595.7456 219.3527,596.0984 215.1054,596.4597 210.8587,596.8293 206.6127,597.2073 202.3673,597.5937 198.1227,597.9886 193.8787,598.3918 189.6354,598.8034 185.3929,599.2234 181.1512,599.6518 176.9102,600.0886 172.6699,600.5338 168.4305,600.9874 164.1919,601.4494 159.9541,601.9198 155.7171,602.3985 151.481,602.8857 147.2457,603.3812 143.0113,603.8851 138.7779,604.3974 134.5453,604.9181 130.3137,605.4472 126.0829,605.9846 121.8532,606.5304 117.6244,607.0847 113.3966,607.6472 109.1698,608.2182 108.6627,608.2873" stroke="silver" stroke-opacity="0.5" stroke-width="1" /><polyline fill="none" points="702.6441,525.171 698.2531,524.5794 693.861,523.9964 689.4679,523.4221 685.0738,522.8564 680.6788,522.2994 676.2828,521.7511 671.8858,521.2115 667.4879,520.6805 663.0891,520.1582 658.6893,519.6446 654.2887,519.1397 649.8872,518.6434 645.4849,518.1558 641.0817,517.6769 636.6777,517.2067 632.2728,516.7451 627.8672,516.2923 623.4608,515.8481 619.0536,515.4126 614.6457,514.9858 610.237,514.5676 605.8277,514.1582 601.4176,513.7574 597.0068,513.3654 592.5953,512.982 588.1832,512.6073 583.7704,512.2413 579.357,511.884 574.943,511.5354 570.5284,511.1955 566.1132,510.8642 561.6975,510.5417 557.2812,510.2279 552.8643,509.9227 548.4469,509.6263 544.029,509.3385 539.6106,509.0595 535.1918,508.7891 530.7725,508.5275 526.3527,508.2745 521.9325,508.0303 517.5119,507.7947 513.0908,507.5678 508.6694,507.3497 504.2476,507.1402 499.8255,506.9395 495.403,506.7474 490.9802,506.5641 486.5571,506.3895 482.1336,506.2235 477.7099,506.0663 473.286,505.9178 468.8618,505.7779 464.4373,505.6468 460.0126,505.5244 455.5877,505.4107 451.1627,505.3057 446.7374,505.2094 442.312,505.1218 437.8865,505.0429 433.4608,504.9727 429.035,504.9113 424.6091,504.8585 420.1831,504.8144 415.7571,504.7791 411.331,504.7524 406.9048,504.7345 402.4787,504.7253 398.0525,504.7248 393.6263,504.7329 389.2002,504.7498 384.7741,504.7754 380.348,504.8097 375.922,504.8527 371.4961,504.9045 367.0703,504.9649 362.6446,505.034 358.219,505.1119 353.7936,505.1984 349.3683,505.2937 344.9433,505.3976 340.5183,505.5103 336.0936,505.6317 331.6692,505.7617 327.2449,505.9005 322.8209,506.048 318.3972,506.2042 313.9737,506.3691 309.5506,506.5427 305.1277,506.725 300.7052,506.916 296.283,507.1157 291.8612,507.3241 287.4397,507.5412 283.0186,507.767 278.598,508.0015 274.1777,508.2447 269.7579,508.4966 265.3385,508.7573 260.9196,509.0266 256.5011,509.3046 252.0832,509.5913 247.6658,509.8867 243.2488,510.1908 238.8325,510.5036 234.4166,510.8251 230.0014,511.1553 225.5867,511.4941 221.1726,511.8417 216.7591,512.198 212.3463,512.5629 207.9341,512.9366 203.5226,513.3189 199.1117,513.7099 194.7015,514.1096 190.2921,514.518 185.8833,514.9351 181.4753,515.3609 177.068,515.7954 172.6615,516.2385 168.2558,516.6903 163.8509,517.1508 159.4468,517.62 155.0435,518.0979 150.641,518.5844 146.2394,519.0797 141.8387,519.5836 137.4389,520.0961 133.0399,520.6174 128.6419,521.1473 124.2448,521.6859 119.8487,522.2332 115.4535,522.7891 111.0593,523.3537 106.6661,523.927 102.2739,524.509 97.8827,525.0996 97.3559,525.171" stroke="silver" stroke-opacity="0.5" stroke-width="1" /><polyline fill="none" points="713.9014,442.0609 709.3466,441.4498 704.7909,440.8477 700.2341,440.2546 695.6762,439.6704 691.1174,439.0951 686.5576,438.5288 681.9968,437.9715 677.4351,437.4231 672.8724,436.8837 668.3088,436.3533 663.7443,435.8318 659.1789,435.3192 654.6126,434.8157 650.0455,434.3211 645.4775,433.8354 640.9087,433.3588 636.339,432.8911 631.7686,432.4323 627.1974,431.9826 622.6254,431.5418 618.0527,431.1099 613.4792,430.6871 608.905,430.2732 604.3301,429.8683 599.7545,429.4724 595.1783,429.0854 590.6013,428.7074 586.0238,428.3384 581.4456,427.9784 576.8668,427.6273 572.2874,427.2853 567.7074,426.9522 563.1268,426.6281 558.5457,426.3129 553.964,426.0068 549.3819,425.7096 544.7992,425.4214 540.2161,425.1422 535.6324,424.872 531.0483,424.6108 526.4638,424.3585 521.8788,424.1153 517.2935,423.881 512.7077,423.6557 508.1216,423.4394 503.535,423.2321 498.9482,423.0337 494.361,422.8444 489.7735,422.664 485.1857,422.4927 480.5975,422.3303 476.0092,422.1769 471.4205,422.0325 466.8317,421.8971 462.2426,421.7707 457.6532,421.6532 453.0637,421.5448 448.4741,421.4453 443.8842,421.3549 439.2942,421.2734 434.7041,421.2009 430.1138,421.1375 425.5235,421.083 420.933,421.0375 416.3425,421.001 411.752,420.9734 407.1614,420.9549 402.5708,420.9454 397.9801,420.9449 393.3895,420.9533 388.7989,420.9708 384.2083,420.9972 379.6178,421.0326 375.0274,421.077 370.437,421.1304 365.8467,421.1929 361.2566,421.2642 356.6666,421.3446 352.0767,421.434 347.487,421.5324 342.8975,421.6397 338.3082,421.7561 333.719,421.8814 329.1301,422.0158 324.5415,422.1591 319.953,422.3114 315.3649,422.4727 310.7771,422.643 306.1895,422.8223 301.6023,423.0105 297.0154,423.2078 292.4288,423.414 287.8426,423.6292 283.2568,423.8535 278.6714,424.0867 274.0864,424.3289 269.5018,424.58 264.9176,424.8402 260.334,425.1093 255.7507,425.3874 251.168,425.6746 246.5858,425.9706 242.0041,426.2757 237.4229,426.5898 232.8423,426.9128 228.2622,427.2448 223.6827,427.5858 219.1039,427.9358 214.5256,428.2947 209.9479,428.6627 205.3709,429.0396 200.7946,429.4255 196.2189,429.8203 191.6439,430.2241 187.0697,430.637 182.4961,431.0587 177.9233,431.4895 173.3512,431.9292 168.7799,432.3779 164.2094,432.8355 159.6396,433.3022 155.0707,433.7778 150.5026,434.2623 145.9354,434.7559 141.369,435.2583 136.8035,435.7698 132.2389,436.2902 127.6752,436.8196 123.1124,437.3579 118.5506,437.9052 113.9897,438.4615 109.4297,439.0267 104.8708,439.6009 100.3128,440.184 95.7559,440.7761 91.2,441.3771 86.6451,441.9871 86.0986,442.0609" stroke="silver" stroke-opacity="0.5" stroke-width="1" /><polyline fill="none" points="725.1108,358.9442 720.393,358.314 715.6742,357.6931 710.9544,357.0814 706.2335,356.4789 701.5115,355.8856 696.7886,355.3016 692.0647,354.7269 687.3398,354.1614 682.614,353.6051 677.8872,353.058 673.1595,352.5202 668.4308,351.9917 663.7013,351.4723 658.9709,350.9623 654.2396,350.4615 649.5075,349.9699 644.7746,349.4876 640.0408,349.0145 635.3063,348.5507 630.5709,348.0961 625.8348,347.6508 621.0979,347.2147 616.3603,346.7879 611.622,346.3703 606.883,345.962 602.1433,345.563 597.4029,345.1732 592.6618,344.7926 587.9201,344.4213 583.1778,344.0593 578.4349,343.7066 573.6914,343.3631 568.9473,343.0288 564.2026,342.7039 559.4574,342.3881 554.7117,342.0817 549.9654,341.7845 545.2187,341.4966 540.4714,341.2179 535.7237,340.9485 530.9756,340.6884 526.227,340.4375 521.478,340.1959 516.7286,339.9636 511.9788,339.7406 507.2286,339.5268 502.478,339.3222 497.7272,339.127 492.976,338.941 488.2245,338.7643 483.4727,338.5968 478.7206,338.4386 473.9682,338.2897 469.2157,338.1501 464.4628,338.0197 459.7098,337.8986 454.9566,337.7868 450.2032,337.6843 445.4496,337.591 440.6958,337.507 435.942,337.4322 431.188,337.3668 426.4339,337.3106 421.6797,337.2637 416.9255,337.226 412.1712,337.1976 407.4168,337.1785 402.6625,337.1687 397.9081,337.1681 393.1537,337.1769 388.3993,337.1949 383.645,337.2221 378.8908,337.2586 374.1366,337.3045 369.3825,337.3595 364.6285,337.4239 359.8746,337.4975 355.1209,337.5804 350.3673,337.6726 345.6138,337.774 340.8606,337.8847 336.1075,338.0047 331.3547,338.134 326.6021,338.2725 321.8497,338.4203 317.0976,338.5774 312.3457,338.7437 307.5942,338.9193 302.843,339.1042 298.092,339.2983 293.3415,339.5017 288.5913,339.7144 283.8414,339.9364 279.0919,340.1676 274.3429,340.4081 269.5942,340.6578 264.846,340.9168 260.0983,341.1851 255.351,341.4627 250.6042,341.7495 245.8579,342.0455 241.1121,342.3509 236.3668,342.6655 231.6221,342.9893 226.8779,343.3225 222.1343,343.6649 217.3913,344.0165 212.6489,344.3774 207.9072,344.7476 203.166,345.127 198.4256,345.5157 193.6858,345.9136 188.9466,346.3208 184.2082,346.7373 179.4705,347.163 174.7336,347.5979 169.9974,348.0422 165.2619,348.4956 160.5273,348.9583 155.7934,349.4303 151.0604,349.9115 146.3282,350.402 141.5968,350.9017 136.8663,351.4107 132.1367,351.9289 127.4079,352.4563 122.6801,352.993 117.9532,353.5389 113.2272,354.0941 108.5022,354.6585 103.7782,355.2322 99.0552,355.8151 94.3331,356.4072 89.6121,357.0086 84.8921,357.6192 80.1732,358.239 75.4553,358.8681 74.8892,358.9442" stroke="silver" stroke-opacity="0.5" stroke-width="1" /><polyline fill="none" points="736.274,275.8084 731.3939,275.1594 726.5127,274.5198 721.6304,273.8898 716.7471,273.2693 711.8628,272.6584 706.9774,272.0569 702.091,271.465 697.2036,270.8825 692.3152,270.3096 687.4259,269.7462 682.5356,269.1923 677.6444,268.648 672.7523,268.1131 667.8593,267.5878 662.9654,267.0721 658.0707,266.5658 653.1751,266.0691 648.2787,265.5818 643.3814,265.1042 638.4834,264.636 633.5845,264.1774 628.685,263.7283 623.7846,263.2887 618.8835,262.8587 613.9817,262.4382 609.0792,262.0272 604.1761,261.6258 599.2722,261.2339 594.3677,260.8515 589.4625,260.4787 584.5568,260.1154 579.6504,259.7617 574.7434,259.4174 569.8359,259.0828 564.9278,258.7576 560.0192,258.442 555.11,258.136 550.2004,257.8395 545.2902,257.5525 540.3796,257.275 535.4685,257.0072 530.5569,256.7488 525.645,256.5 520.7326,256.2607 515.8198,256.031 510.9066,255.8108 505.9931,255.6002 501.0793,255.3991 496.1651,255.2076 491.2505,255.0256 486.3357,254.8532 481.4206,254.6903 476.5053,254.5369 471.5897,254.3931 466.6738,254.2589 461.7577,254.1341 456.8415,254.019 451.925,253.9134 447.0084,253.8173 442.0916,253.7308 437.1747,253.6538 432.2577,253.5864 427.3405,253.5285 422.4233,253.4802 417.506,253.4415 412.5886,253.4122 407.6712,253.3926 402.7538,253.3824 397.8363,253.3819 392.9189,253.3908 388.0015,253.4094 383.0841,253.4374 378.1668,253.4751 373.2496,253.5222 368.3324,253.579 363.4153,253.6452 358.4984,253.7211 353.5816,253.8064 348.665,253.9013 343.7485,254.0058 338.8322,254.1198 333.9161,254.2434 329.0002,254.3765 324.0846,254.5192 319.1692,254.6714 314.2541,254.8331 309.3392,255.0044 304.4247,255.1853 299.5104,255.3756 294.5965,255.5756 289.683,255.7851 284.7698,256.0041 279.8569,256.2327 274.9445,256.4708 270.0325,256.7184 265.1209,256.9757 260.2097,257.2424 255.2991,257.5187 250.3888,257.8045 245.4791,258.0999 240.5699,258.4048 235.6612,258.7193 230.753,259.0432 225.8454,259.3768 220.9384,259.7199 216.032,260.0725 211.1261,260.4346 206.2209,260.8063 201.3163,261.1875 196.4124,261.5783 191.5091,261.9786 186.6065,262.3884 181.7046,262.8077 176.8035,263.2366 171.903,263.675 167.0034,264.123 162.1044,264.5805 157.2063,265.0475 152.309,265.524 147.4124,266.0101 142.5167,266.5057 137.6219,267.0108 132.7279,267.5254 127.8348,268.0496 122.9426,268.5833 118.0513,269.1265 113.1609,269.6792 108.2714,270.2415 103.383,270.8133 98.4955,271.3946 93.6089,271.9854 88.7234,272.5857 83.839,273.1955 78.9555,273.8149 74.0731,274.4437 69.1918,275.0821 64.3116,275.73 63.726,275.8084" stroke="silver" stroke-opacity="0.5" stroke-width="1" /><polyline fill="none" points="747.3927,192.6408 742.3509,191.9732 737.3079,191.3154 732.2639,190.6673 727.2188,190.0291 722.1726,189.4006 717.1254,188.782 712.0771,188.1731 707.0279,187.574 701.9776,186.9847 696.9264,186.4052 691.8742,185.8354 686.8211,185.2755 681.767,184.7254 676.7121,184.1851 671.6562,183.6545 666.5995,183.1338 661.5418,182.6229 656.4834,182.1217 651.4241,181.6304 646.364,181.1489 641.3031,180.6771 636.2414,180.2152 631.179,179.7631 626.1158,179.3207 621.0519,178.8882 615.9873,178.4655 610.9219,178.0526 605.8559,177.6495 600.7892,177.2562 595.7219,176.8727 590.6539,176.4991 585.5854,176.1352 580.5162,175.7812 575.4464,175.4369 570.3761,175.1025 565.3052,174.7779 560.2338,174.4631 555.1619,174.1581 550.0895,173.8629 545.0165,173.5776 539.9432,173.302 534.8693,173.0363 529.7951,172.7804 524.7204,172.5343 519.6453,172.298 514.5698,172.0716 509.4939,171.8549 504.4177,171.6481 499.3412,171.4511 494.2643,171.2639 489.1872,171.0865 484.1097,170.919 479.032,170.7613 473.954,170.6134 468.8758,170.4753 463.7974,170.347 458.7187,170.2286 453.6399,170.1199 448.5609,170.0211 443.4817,169.9321 438.4024,169.853 433.323,169.7836 428.2434,169.7241 423.1638,169.6744 418.0841,169.6345 413.0043,169.6045 407.9245,169.5843 402.8447,169.5738 397.7649,169.5733 392.685,169.5825 387.6052,169.6015 382.5255,169.6304 377.4458,169.6691 372.3661,169.7176 367.2866,169.776 362.2071,169.8441 357.1278,169.9221 352.0486,170.0099 346.9696,170.1076 341.8907,170.215 336.8121,170.3323 331.7336,170.4594 326.6553,170.5963 321.5773,170.743 316.4996,170.8996 311.4221,171.0659 306.3449,171.2421 301.268,171.4281 296.1914,171.6239 291.1152,171.8296 286.0393,172.0451 280.9638,172.2703 275.8886,172.5054 270.8139,172.7504 265.7396,173.0051 260.6657,173.2696 255.5922,173.544 250.5193,173.8282 245.4468,174.1222 240.3748,174.426 235.3033,174.7396 230.2324,175.063 225.162,175.3963 220.0921,175.7393 215.0229,176.0922 209.9543,176.4549 204.8862,176.8274 199.8188,177.2097 194.7521,177.6018 189.686,178.0037 184.6205,178.4154 179.5558,178.837 174.4918,179.2683 169.4286,179.7095 164.366,180.1604 159.3043,180.6212 154.2433,181.0917 149.1831,181.5721 144.1237,182.0622 139.0651,182.5622 134.0074,183.072 128.9506,183.5915 123.8946,184.1209 118.8395,184.66 113.7853,185.209 108.7321,185.7677 103.6798,186.3363 98.6285,186.9146 93.5781,187.5027 88.5287,188.1007 83.4803,188.7084 78.433,189.3259 73.3867,189.9532 68.3415,190.5902 63.2973,191.2371 58.2542,191.8937 53.2122,192.5602 52.6073,192.6408" stroke="silver" stroke-opacity="0.5" stroke-width="1" /><polyline fill="none" points="758.4686,109.4288 753.2656,108.7429 748.0615,108.067 742.8563,107.4012 737.65,106.7454 732.4426,106.0998 727.2342,105.4641 722.0247,104.8386 716.8142,104.223 711.6026,103.6176 706.3901,103.0222 701.1766,102.4369 695.9622,101.8616 690.7468,101.2964 685.5304,100.7413 680.3132,100.1962 675.0951,99.6612 669.8761,99.1363 664.6562,98.6214 659.4355,98.1166 654.214,97.6219 648.9916,97.1372 643.7685,96.6627 638.5446,96.1982 633.3199,95.7437 628.0945,95.2994 622.8683,94.8651 617.6415,94.4409 612.4139,94.0267 607.1857,93.6227 601.9568,93.2287 596.7273,92.8448 591.4971,92.471 586.2664,92.1073 581.035,91.7536 575.8031,91.41 570.5706,91.0765 565.3376,90.7531 560.104,90.4398 554.8699,90.1365 549.6354,89.8434 544.4003,89.5603 539.1648,89.2873 533.9289,89.0244 528.6925,88.7716 523.4558,88.5288 518.2186,88.2962 512.981,88.0736 507.7431,87.8611 502.5049,87.6587 497.2663,87.4664 492.0274,87.2842 486.7883,87.1121 481.5488,86.95 476.3091,86.7981 471.0692,86.6562 465.829,86.5244 460.5886,86.4027 455.348,86.2911 450.1073,86.1896 444.8663,86.0982 439.6253,86.0169 434.3841,85.9457 429.1428,85.8845 423.9014,85.8334 418.66,85.7925 413.4184,85.7616 408.1769,85.7408 402.9353,85.7301 397.6937,85.7295 392.4521,85.739 387.2105,85.7586 381.969,85.7882 376.7275,85.828 371.4861,85.8778 366.2448,85.9378 361.0036,86.0078 355.7626,86.0879 350.5216,86.1781 345.2809,86.2784 340.0403,86.3888 334.7999,86.5093 329.5597,86.6399 324.3197,86.7805 319.0799,86.9313 313.8405,87.0921 308.6012,87.263 303.3623,87.444 298.1237,87.6351 292.8854,87.8363 287.6475,88.0476 282.4099,88.2689 277.1727,88.5004 271.9359,88.7419 266.6994,88.9935 261.4635,89.2552 256.2279,89.527 250.9928,89.8089 245.7582,90.1008 240.5241,90.4029 235.2904,90.715 230.0573,91.0372 224.8248,91.3695 219.5928,91.7118 214.3614,92.0643 209.1305,92.4268 203.9003,92.7994 198.6707,93.1821 193.4417,93.5749 188.2134,93.9777 182.9858,94.3906 177.7589,94.8136 172.5326,95.2467 167.3071,95.6899 162.0824,96.1431 156.8584,96.6064 151.6351,97.0798 146.4127,97.5632 141.191,98.0567 135.9702,98.5603 130.7503,99.074 125.5312,99.5977 120.3129,100.1315 115.0956,100.6753 109.8791,101.2293 104.6636,101.7933 99.4491,102.3673 94.2354,102.9514 89.0228,103.5456 83.8112,104.1499 78.6005,104.7642 73.3909,105.3885 68.1823,106.023 62.9748,106.6674 57.7684,107.322 52.5631,107.9866 47.3588,108.6612 42.1557,109.3459 41.5314,109.4288" stroke="silver" stroke-opacity="0.5" stroke-width="1" /><circle cx="678.3522" cy="664.3568" fill="black" r="0.738" stroke="none" /><circle cx="702.3913" cy="479.9499" fill="black" r="0.738" stroke="none" /><circle cx="711.8537" cy="350.6862" fill="black" r="0.738" stroke="none" /><circle cx="720.1207" cy="163.1104" fill="black" r="0.738" stroke="none" /><circle cx="678.6241" cy="477.7682" fill="black" r="0.738" stroke="none" /><circle cx="663.3778" cy="590.1272" fill="black" r="0.738" stroke="none" /><circle cx="683.8352" cy="404.495" fill="black" r="0.738" stroke="none" /><circle cx="677.8094" cy="339.9679" fill="black" r="0.738" stroke="none" /><circle cx="690.0478" cy="204.7087" fill="black" r="0.738" stroke="none" /><circle cx="688.0227" cy="211.5726" fill="black" r="0.738" stroke="none" /><circle cx="654.4084" cy="455.1193" fill="black" r="0.738" stroke="none" /><circle cx="639.3123" cy="588.4213" fill="black" r="0.738" stroke="none" /><circle cx="682.6983" cy="106.4355" fill="black" r="0.738" stroke="none" /><circle cx="673.9409" cy="153.697" fill="black" r="0.738" stroke="none" /><circle cx="659.1745" cy="293.233" fill="black" r="0.738" stroke="none" /><circle cx="618.65" cy="675.1005" fill="black" r="0.738" stroke="none" /><circle cx="626.8767" cy="594.7518" fill="black" r="0.738" stroke="none" /><circle cx="615.0021" cy="642.5889" fill="black" r="0.738" stroke="none" /><circle cx="610.5683" cy="662.7928" fill="black" r="0.738" stroke="none" /><circle cx="664.2413" cy="120.8408" fill="black" r="0.738" stroke="none" /><circle cx="610.0514" cy="601.3003" fill="black" r="0.738" stroke="none" /><circle cx="628.782" cy="397.6075" fill="black" r="0.738" stroke="none" /><circle cx="637.4172" cy="289.5475" fill="black" r="0.936" stroke="none" /><circle cx="612.0668" cy="544.804" fill="black" r="0.738" stroke="none" /><circle cx="627.8021" cy="372.8412" fill="black" r="0.738" stroke="none" /><circle cx="619.6816" cy="400.4509" fill="black" r="0.738" stroke="none" /><circle cx="617.5653" cy="229.5907" fill="black" r="0.738" stroke="none" /><circle cx="617.1974" cy="204.9044" fill="black" r="0.738" stroke="none" /><circle cx="577.2192" cy="591.1863" fill="black" r="0.738" stroke="none" /><circle cx="590.8454" cy="325.4817" fill="black" r="0.936" stroke="none" /><circle cx="551.8285" cy="671.5453" fill="black" r="0.738" stroke="none" /><circle cx="571.0254" cy="356.7842" fill="black" r="0.738" stroke="none" /><circle cx="547.1437" cy="651.5344" fill="black" r="0.738" stroke="none" /><circle cx="571.9897" cy="196.8867" fill="black" r="0.738" stroke="none" /><circle cx="540.5169" cy="640.7412" fill="black" r="0.738" stroke="none" /><circle cx="545.0624" cy="564.9237" fill="black" r="0.738" stroke="none" /><circle cx="550.8635" cy="457.6312" fill="black" r="0.738" stroke="none" /><circle cx="569.5906" cy="158.1625" fill="black" r="0.738" stroke="none" /><circle cx="538.5277" cy="623.1323" fill="black" r="0.738" stroke="none" /><circle cx="542.1747" cy="514.5107" fill="black" r="0.738" stroke="none" /><circle cx="548.1544" cy="397.6723" fill="black" r="0.738" stroke="none" /><circle cx="548.1014" cy="381.717" fill="black" r="0.738" stroke="none" /><circle cx="558.6909" cy="160.1732" fill="black" r="0.738" stroke="none" /><circle cx="547.2959" cy="166.3148" fill="black" r="0.738" stroke="none" /><circle cx="526.3013" cy="497.7802" fill="black" r="1.476" stroke="none" /><circle cx="537.086" cy="231.9973" fill="black" r="0.738" stroke="none" /><circle cx="517.7171" cy="517.3718" fill="black" r="0.738" stroke="none" /><circle cx="509.7806" cy="570.5023" fill="black" r="0.738" stroke="none" /><circle cx="507.107" cy="616.7793" fill="black" r="0.738" stroke="none" /><circle cx="506.0178" cy="631.0778" fill="black" r="0.738" stroke="none" /><circle cx="513.5284" cy="454.8181" fill="black" r="0.738" stroke="none" /><circle cx="514.7566" cy="363.7768" fill="black" r="0.738" stroke="none" /><circle cx="521.8486" cy="197.3245" fill="black" r="0.738" stroke="none" /><circle cx="509.1056" cy="396.4768" fill="black" r="0.738" stroke="none" /><circle cx="518.8222" cy="175.1979" fill="black" r="0.738" stroke="none" /><circle cx="516.9761" cy="112.0838" fill="black" r="0.738" stroke="none" /><circle cx="498.6711" cy="517.0377" fill="black" r="0.738" stroke="none" /><circle cx="502.4469" cy="291.0988" fill="black" r="0.738" stroke="none" /><circle cx="499.0145" cy="270.8328" fill="black" r="0.738" stroke="none" /><circle cx="490.9406" cy="272.2885" fill="black" r="0.738" stroke="none" /><circle cx="479.9708" cy="539.6014" fill="black" r="0.738" stroke="none" /><circle cx="480.8815" cy="492.6791" fill="black" r="0.738" stroke="none" /><circle cx="490.2828" cy="214.1508" fill="black" r="0.738" stroke="none" /><circle cx="479.3579" cy="423.1262" fill="black" r="0.738" stroke="none" /><circle cx="481.6663" cy="215.9597" fill="black" r="0.738" stroke="none" /><circle cx="465.9683" cy="328.7566" fill="black" r="0.738" stroke="none" /><circle cx="468.8351" cy="110.088" fill="black" r="0.738" stroke="none" /><circle cx="451.6442" cy="581.7608" fill="black" r="0.738" stroke="none" /><circle cx="453.1786" cy="482.7238" fill="black" r="0.738" stroke="none" /><circle cx="455.7845" cy="151.2985" fill="black" r="0.738" stroke="none" /><circle cx="436.7479" cy="602.58" fill="black" r="0.738" stroke="none" /><circle cx="428.1983" cy="445.746" fill="black" r="0.738" stroke="none" /><circle cx="426.0531" cy="333.7875" fill="black" r="1.476" stroke="none" /><circle cx="425.9317" cy="334.4565" fill="black" r="1.476" stroke="none" /><circle cx="427.167" cy="198.7995" fill="black" r="0.738" stroke="none" /><circle cx="419.1854" cy="344.8669" fill="black" r="0.738" stroke="none" /><circle cx="418.6012" cy="142.225" fill="black" r="0.738" stroke="none" /><circle cx="414.7033" cy="339.8926" fill="black" r="1.17" stroke="none" /><circle cx="409.9852" cy="413.2578" fill="black" r="0.738" stroke="none" /><circle cx="406.813" cy="652.6535" fill="black" r="0.738" stroke="none" /><circle cx="407.4829" cy="181.9048" fill="black" r="0.738" stroke="none" /><circle cx="404.4457" cy="706.6448" fill="black" r="0.738" stroke="none" /><circle cx="399.1271" cy="342.3617" fill="black" r="0.738" stroke="none" /><circle cx="394.3588" cy="246.3483" fill="black" r="0.738" stroke="none" /><circle cx="392.872" cy="395.403" fill="black" r="0.738" stroke="none" /><circle cx="393.5596" cy="655.5027" fill="black" r="0.738" stroke="none" /><circle cx="391.1724" cy="260.1837" fill="black" r="0.738" stroke="none" /><circle cx="381.293" cy="486.2847" fill="black" r="0.738" stroke="none" /><circle cx="377.4397" cy="173.6928" fill="black" r="0.738" stroke="none" /><circle cx="379.3117" cy="515.2929" fill="black" r="0.936" stroke="none" /><circle cx="376.55" cy="493.7021" fill="black" r="0.738" stroke="none" /><circle cx="372.797" cy="406.0211" fill="black" r="0.738" stroke="none" /><circle cx="367.1613" cy="592.374" fill="black" r="0.738" stroke="none" /><circle cx="361.6383" cy="294.0639" fill="black" r="0.738" stroke="none" /><circle cx="353.8023" cy="322.1026" fill="black" r="0.738" stroke="none" /><circle cx="343.8253" cy="577.2627" fill="black" r="0.738" stroke="none" /><circle cx="341.9132" cy="632.4013" fill="black" r="0.738" stroke="none" /><circle cx="333.0497" cy="464.4793" fill="black" r="0.738" stroke="none" /><circle cx="321.327" cy="201.3598" fill="black" r="0.738" stroke="none" /><circle cx="328.7577" cy="545.0881" fill="black" r="1.17" stroke="none" /><circle cx="327.237" cy="556.9602" fill="black" r="0.738" stroke="none" /><circle cx="312.4601" cy="109.2043" fill="black" r="0.936" stroke="none" /><circle cx="319.8098" cy="491.0616" fill="black" r="0.738" stroke="none" /><circle cx="304.0914" cy="144.8973" fill="black" r="0.738" stroke="none" /><circle cx="300.8977" cy="297.0853" fill="black" r="0.936" stroke="none" /><circle cx="310.3968" cy="561.023" fill="black" r="0.936" stroke="none" /><circle cx="303.446" cy="419.5795" fill="black" r="0.738" stroke="none" /><circle cx="299.6129" cy="355.7554" fill="black" r="0.738" stroke="none" /><circle cx="289.6833" cy="363.5693" fill="black" r="0.738" stroke="none" /><circle cx="284.6618" cy="312.7184" fill="black" r="0.738" stroke="none" /><circle cx="280.1984" cy="262.593" fill="black" r="0.738" stroke="none" /><circle cx="278.951" cy="317.187" fill="black" r="0.738" stroke="none" /><circle cx="256.7717" cy="234.6007" fill="black" r="0.738" stroke="none" /><circle cx="248.801" cy="121.0124" fill="black" r="0.738" stroke="none" /><circle cx="265.6817" cy="509.1565" fill="black" r="0.738" stroke="none" /><circle cx="256.3269" cy="404.6161" fill="black" r="0.738" stroke="none" /><circle cx="252.4076" cy="431.3055" fill="black" r="0.738" stroke="none" /><circle cx="263.4887" cy="609.8962" fill="black" r="0.738" stroke="none" /><circle cx="222.5884" cy="128.6702" fill="black" r="0.738" stroke="none" /><circle cx="240.4843" cy="401.0134" fill="black" r="0.738" stroke="none" /><circle cx="218.0319" cy="223.201" fill="black" r="0.738" stroke="none" /><circle cx="246.8222" cy="669.7949" fill="black" r="0.738" stroke="none" /><circle cx="210.3" cy="182.9034" fill="black" r="0.738" stroke="none" /><circle cx="228.8326" cy="440.9838" fill="black" r="0.738" stroke="none" /><circle cx="219.272" cy="337.9932" fill="black" r="0.738" stroke="none" /><circle cx="215.324" cy="333.3302" fill="black" r="1.17" stroke="none" /><circle cx="232.3241" cy="583.864" fill="black" r="0.738" stroke="none" /><circle cx="222.983" cy="550.7139" fill="black" r="0.738" stroke="none" /><circle cx="222.7826" cy="550.3937" fill="black" r="0.738" stroke="none" /><circle cx="208.2826" cy="550.4318" fill="black" r="0.738" stroke="none" /><circle cx="197.2326" cy="426.1987" fill="black" r="0.738" stroke="none" /><circle cx="169.1405" cy="143.5303" fill="black" r="0.738" stroke="none" /><circle cx="194.1739" cy="436.3103" fill="black" r="0.738" stroke="none" /><circle cx="216.3636" cy="722.3084" fill="black" r="0.738" stroke="none" /><circle cx="175.4337" cy="284.0642" fill="black" r="0.738" stroke="none" /><circle cx="184.8516" cy="421.7498" fill="black" r="0.738" stroke="none" /><circle cx="182.2879" cy="412.0534" fill="black" r="0.738" stroke="none" /><circle cx="203.6273" cy="644.7222" fill="black" r="0.738" stroke="none" /><circle cx="197.3883" cy="578.7727" fill="black" r="0.738" stroke="none" /><circle cx="176.3086" cy="380.7889" fill="black" r="0.738" stroke="none" /><circle cx="186.5831" cy="494.828" fill="black" r="0.738" stroke="none" /><circle cx="153.1677" cy="155.5814" fill="black" r="0.936" stroke="none" /><circle cx="163.2363" cy="302.5389" fill="black" r="0.738" stroke="none" /><circle cx="192.3192" cy="704.0698" fill="black" r="0.738" stroke="none" /><circle cx="141.6943" cy="220.5677" fill="black" r="0.738" stroke="none" /><circle cx="128.1638" cy="121.8522" fill="black" r="0.738" stroke="none" /><circle cx="124.5295" cy="172.2446" fill="black" r="0.738" stroke="none" /><circle cx="132.6826" cy="281.1916" fill="black" r="0.738" stroke="none" /><circle cx="161.9497" cy="572.5062" fill="black" r="0.738" stroke="none" /><circle cx="129.3647" cy="337.3046" fill="black" r="0.738" stroke="none" /><circle cx="117.0741" cy="233.1178" fill="black" r="0.738" stroke="none" /><circle cx="153.0134" cy="556.7931" fill="black" r="0.936" stroke="none" /><circle cx="139.2475" cy="434.1451" fill="black" r="0.738" stroke="none" /><circle cx="97.2291" cy="110.8077" fill="black" r="0.738" stroke="none" /><circle cx="129.4622" cy="495.7948" fill="black" r="0.738" stroke="none" /><circle cx="141.9226" cy="666.7257" fill="black" r="0.738" stroke="none" /><circle cx="133.9385" cy="609.9805" fill="black" r="0.738" stroke="none" /><circle cx="85.6248" cy="218.7058" fill="black" r="0.738" stroke="none" /><circle cx="79.1436" cy="166.2432" fill="black" r="0.738" stroke="none" /><circle cx="93.3655" cy="283.5915" fill="black" r="0.738" stroke="none" /><circle cx="75.5962" cy="202.6995" fill="black" r="0.738" stroke="none" /><circle cx="93.5549" cy="386.5181" fill="black" r="0.738" stroke="none" /><circle cx="91.2527" cy="390.1131" fill="black" r="0.738" stroke="none" /><circle cx="73.4942" cy="255.4863" fill="black" r="1.17" stroke="none" /><circle cx="67.1228" cy="264.5239" fill="black" r="0.738" stroke="none" /><circle cx="92.6098" cy="467.4175" fill="black" r="0.738" stroke="none" /><circle cx="13.77" cy="786.23" fill="black" r="4.59" stroke="none" /><circle cx="13.77" cy="786.23" fill="black" r="4.59" stroke="none" /><text fill="black" font-family="monospace" font-size="12" x="10.77" y="775.64">1</text><circle cx="37.77" cy="786.23" fill="black" r="3.654" stroke="none" /><circle cx="37.77" cy="786.23" fill="black" r="3.654" stroke="none" /><text fill="black" font-family="monospace" font-size="12" x="34.769999999999996" y="775.64">2</text><circle cx="61.77" cy="786.23" fill="black" r="2.916" stroke="none" /><circle cx="61.77" cy="786.23" fill="black" r="2.916" stroke="none" /><text fill="black" font-family="monospace" font-size="12" x="58.769999999999996" y="775.64">3</text><circle cx="85.77" cy="786.23" fill="black" r="2.322" stroke="none" /><circle cx="85.77" cy="786.23" fill="black" r="2.322" stroke="none" /><text fill="black" font-family="monospace" font-size="12" x="82.77" y="775.64">4</text><circle cx="109.77" cy="786.23" fill="black" r="1.854" stroke="none" /><circle cx="109.77" cy="786.23" fill="black" r="1.854" stroke="none" /><text fill="black" font-family="monospace" font-size="12" x="106.77" y="775.64">5</text><circle cx="133.77" cy="786.23" fill="black" r="1.476" stroke="none" /><circle cx="133.77" cy="786.23" fill="black" r="1.476" stroke="none" /><text fill="black" font-family="monospace" font-size="12" x="130.77" y="775.64">6</text><circle cx="157.77" cy="786.23" fill="black" r="1.17" stroke="none" /><circle cx="157.77" cy="786.23" fill="black" r="1.17" stroke="none" /><text fill="black" font-family="monospace" font-size="12" x="154.77" y="775.64">7</text><circle cx="181.77" cy="786.23" fill="black" r="0.936" stroke="none" /><circle cx="181.77" cy="786.23" fill="black" r="0.936" stroke="none" /><text fill="black" font-family="monospace" font-size="12" x="178.77" y="775.64">8</text><circle cx="205.77" cy="786.23" fill="black" r="0.738" stroke="none" /><circle cx="205.77" cy="786.23" fill="black" r="0.738" stroke="none" /><text fill="black" font-family="monospace" font-size="12" x="202.77" y="775.64">9</text><text fill="gray" fill-opacity="0.5" font-family="monospace" font-size="12" x="758.4685829394327" y="109.42876375944678">00h00m</text><text fill="gray" fill-opacity="0.5" font-family="monospace" font-size="12" x="601.9568050481352" y="93.22871743223783">00h15m</text><text fill="gray" fill-opacity="0.5" font-family="monospace" font-size="12" x="444.86634622811596" y="86.09822082100555">00h30m</text><text fill="gray" fill-opacity="0.5" font-family="monospace" font-size="12" x="287.6474878840526" y="88.04757100641689">00h45m</text><text fill="gray" fill-opacity="0.5" font-family="monospace" font-size="12" x="130.75027143121633" y="99.07395747853013">01h00m</text><text fill="gray" fill-opacity="0.5" font-family="monospace" font-size="12" x="120.02079763467941" y="691.4222332194132">-67°</text><text fill="gray" fill-opacity="0.5" font-family="monospace" font-size="12" x="108.66267279149793" y="608.2872722018834">-66°</text><text fill="gray" fill-opacity="0.5" font-family="monospace" font-size="12" x="97.3558677521824" y="525.1710264170268">-65°</text><text fill="gray" fill-opacity="0.5" font-family="monospace" font-size="12" x="86.09863233483873" y="442.06087499636646">-64°</text><text fill="gray" fill-opacity="0.5" font-family="monospace" font-size="12" x="74.88924651937282" y="358.94420075333744">-63°</text><text fill="gray" fill-opacity="0.5" font-family="monospace" font-size="12" x="63.726019394550235" y="275.8083825333886">-62°</text><text fill="gray" fill-opacity="0.5" font-family="monospace" font-size="12" x="52.60728814267071" y="192.64078755895358">-61°</text><text fill="gray" fill-opacity="0.5" font-family="monospace" font-size="12" x="41.53141706056721" y="109.42876375944678">-60°</text><text fill="black" font-family="monospace" font-size="12" x="12" y="48">&gt;&gt; No.70 00h00m 01h09m -67.5°-60.0°</text><a target="_self" xlink:href="hip003.svg"><text fill="black" font-family="monospace" font-size="12" x="12" y="36">&gt; No.3 00h00m 08h00m -90.0°-52.5°</text></a><a target="_self" xlink:href="hip001.svg"><text fill="black" font-family="monospace" font-size="12" x="12" y="24">No.1 00h 24h -90.0°+0.0°</text></a><polyline fill="none" points="758.4686,109.4288 753.2656,108.7429 748.0615,108.067 742.8563,107.4012 737.65,106.7454 732.4426,106.0998 727.2342,105.4641 722.0247,104.8386 716.8142,104.223 711.6026,103.6176 706.3901,103.0222 701.1766,102.4369 695.9622,101.8616 690.7468,101.2964 685.5304,100.7413 680.3132,100.1962 675.0951,99.6612 669.8761,99.1363 664.6562,98.6214 659.4355,98.1166 654.214,97.6219 648.9916,97.1372 643.7685,96.6627 638.5446,96.1982 633.3199,95.7437 628.0945,95.2994 622.8683,94.8651 617.6415,94.4409 612.4139,94.0267 607.1857,93.6227 601.9568,93.2287 596.7273,92.8448 591.4971,92.471 586.2664,92.1073 581.035,91.7536 575.8031,91.41 570.5706,91.0765 565.3376,90.7531 560.104,90.4398 554.8699,90.1365 549.6354,89.8434 544.4003,89.5603 539.1648,89.2873 533.9289,89.0244 528.6925,88.7716 523.4558,88.5288 518.2186,88.2962 512.981,88.0736 507.7431,87.8611 502.5049,87.6587 497.2663,87.4664 492.0274,87.2842 486.7883,87.1121 481.5488,86.95 476.3091,86.7981 471.0692,86.6562 465.829,86.5244 460.5886,86.4027 455.348,86.2911 450.1073,86.1896 444.8663,86.0982 439.6253,86.0169 434.3841,85.9457 429.1428,85.8845 423.9014,85.8334 418.66,85.7925 413.4184,85.7616 408.1769,85.7408 402.9353,85.7301 397.6937,85.7295 392.4521,85.739 387.2105,85.7586 381.969,85.7882 376.7275,85.828 371.4861,85.8778 366.2448,85.9378 361.0036,86.0078 355.7626,86.0879 350.5216,86.1781 345.2809,86.2784 340.0403,86.3888 334.7999,86.5093 329.5597,86.6399 324.3197,86.7805 319.0799,86.9313 313.8405,87.0921 308.6012,87.263 303.3623,87.444 298.1237,87.6351 292.8854,87.8363 287.6475,88.0476 282.4099,88.2689 277.1727,88.5004 271.9359,88.7419 266.6994,88.9935 261.4635,89.2552 256.2279,89.527 250.9928,89.8089 245.7582,90.1008 240.5241,90.4029 235.2904,90.715 230.0573,91.0372 224.8248,91.3695 219.5928,91.7118 214.3614,92.0643 209.1305,92.4268 203.9003,92.7994 198.6707,93.1821 193.4417,93.5749 188.2134,93.9777 182.9858,94.3906 177.7589,94.8136 172.5326,95.2467 167.3071,95.6899 162.0824,96.1431 156.8584,96.6064 151.6351,97.0798 146.4127,97.5632 141.191,98.0567 135.9702,98.5603 130.7503,99.074 125.5312,99.5977 120.3129,100.1315 115.0956,100.6753 109.8791,101.2293 104.6636,101.7933 99.4491,102.3673 94.2354,102.9514 89.0228,103.5456 83.8112,104.1499 78.6005,104.7642 73.3909,105.3885 68.1823,106.023 62.9748,106.6674 57.7684,107.322 52.5631,107.9866 47.3588,108.6612 42.1557,109.3459 41.5314,109.4288" stroke="black" stroke-opacity="0.5" stroke-width="1" /><polyline fill="none" points="674.2803,733.0007 675.7063,722.6052 677.1314,712.2104 678.5557,701.816 679.9792,691.4222 681.4018,681.0289 682.8236,670.636 684.2446,660.2436 685.6648,649.8516 687.0841,639.46 688.5027,629.0688 689.9204,618.6779 691.3373,608.2873 692.7534,597.897 694.1688,587.5069 695.5833,577.1172 696.997,566.7276 698.41,556.3382 699.8221,545.949 701.2335,535.56 702.6441,525.171 704.054,514.7822 705.463,504.3934 706.8713,494.0047 708.2788,483.616 709.6856,473.2273 711.0916,462.8385 712.4969,452.4497 713.9014,442.0609 715.3051,431.6719 716.7081,421.2828 718.1104,410.8936 719.5119,400.5041 720.9127,390.1145 722.3128,379.7247 723.7121,369.3346 725.1108,358.9442 726.5086,348.5535 727.9058,338.1625 729.3023,327.7712 730.698,317.3795 732.0931,306.9874 733.4874,296.5948 734.881,286.2018 736.274,275.8084 737.6662,265.4144 739.0578,255.02 740.4486,244.6249 741.8388,234.2293 743.2283,223.8332 744.6171,213.4364 746.0052,203.0389 747.3927,192.6408 748.7795,182.242 750.1656,171.8424 751.5511,161.4422 752.9359,151.0411 754.3201,140.6393 755.7035,130.2366 757.0864,119.8331 758.4686,109.4288" stroke="black" stroke-opacity="0.5" stroke-width="1" /><polyline fill="none" points="674.2803,733.0007 670.3016,732.4588 666.3219,731.9248 662.3412,731.3988 658.3596,730.8807 654.3771,730.3706 650.3936,729.8684 646.4093,729.3741 642.4241,728.8878 638.4381,728.4094 634.4512,727.9389 630.4634,727.4764 626.4749,727.0219 622.4855,726.5753 618.4954,726.1366 614.5044,725.7059 610.5127,725.2831 606.5203,724.8683 602.5271,724.4615 598.5332,724.0626 594.5386,723.6716 590.5433,723.2886 586.5473,722.9136 582.5507,722.5465 578.5534,722.1873 574.5555,721.8362 570.5569,721.4929 566.5578,721.1577 562.558,720.8304 558.5577,720.5111 554.5568,720.1997 550.5554,719.8963 546.5534,719.6008 542.551,719.3133 538.548,719.0338 534.5445,718.7623 530.5405,718.4987 526.5361,718.2431 522.5312,717.9954 518.5259,717.7557 514.5202,717.524 510.514,717.3003 506.5075,717.0845 502.5006,716.8767 498.4933,716.6768 494.4857,716.485 490.4777,716.3011 486.4695,716.1251 482.4609,715.9572 478.452,715.7972 474.4428,715.6452 470.4334,715.5012 466.4237,715.3651 462.4138,715.237 458.4037,715.1169 454.3934,715.0048 450.3828,714.9006 446.3721,714.8044 442.3612,714.7162 438.3502,714.6359 434.3391,714.5637 430.3278,714.4994 426.3164,714.4431 422.3049,714.3947 418.2933,714.3544 414.2817,714.322 410.27,714.2976 406.2583,714.2812 402.2466,714.2727 398.2348,714.2722 394.2231,714.2797 390.2114,714.2952 386.1997,714.3187 382.1881,714.3501 378.1765,714.3895 374.165,714.4369 370.1536,714.4922 366.1423,714.5555 362.1311,714.6269 358.1201,714.7061 354.1092,714.7934 350.0984,714.8886 346.0879,714.9918 342.0775,715.103 338.0674,715.2222 334.0574,715.3493 330.0477,715.4844 326.0383,715.6275 322.0291,715.7785 318.0202,715.9376 314.0116,716.1046 310.0032,716.2795 305.9952,716.4625 301.9876,716.6534 297.9803,716.8523 293.9733,717.0591 289.9667,717.2739 285.9605,717.4967 281.9548,717.7275 277.9494,717.9662 273.9445,718.2129 269.94,718.4676 265.936,718.7302 261.9324,719.0008 257.9294,719.2794 253.9268,719.5659 249.9248,719.8604 245.9233,720.1629 241.9223,720.4733 237.922,720.7917 233.9222,721.118 229.9229,721.4523 225.9243,721.7946 221.9263,722.1448 217.929,722.503 213.9322,722.8691 209.9362,723.2432 205.9408,723.6252 201.9461,724.0152 197.9521,724.4132 193.9589,724.8191 189.9663,725.2329 185.9745,725.6547 181.9835,726.0845 177.9933,726.5222 174.0038,726.9679 170.0152,727.4215 166.0273,727.883 162.0403,728.3525 158.0541,728.8299 154.0688,729.3153 150.0844,729.8086 146.1009,730.3099 142.1183,730.8191 138.1365,731.3362 134.1558,731.8613 130.1759,732.3943 126.1971,732.9352 125.7197,733.0007" stroke="black" stroke-opacity="0.5" stroke-width="1" /><polyline fill="none" points="125.7197,733.0007 124.2937,722.6052 122.8686,712.2104 121.4443,701.816 120.0208,691.4222 118.5982,681.0289 117.1764,670.636 115.7554,660.2436 114.3352,649.8516 112.9159,639.46 111.4973,629.0688 110.0796,618.6779 108.6627,608.2873 107.2466,597.897 105.8312,587.5069 104.4167,577.1172 103.003,566.7276 101.59,556.3382 100.1779,545.949 98.7665,535.56 97.3559,525.171 95.946,514.7822 94.537,504.3934 93.1287,494.0047 91.7212,483.616 90.3144,473.2273 88.9084,462.8385 87.5031,452.4497 86.0986,442.0609 84.6949,431.6719 83.2919,421.2828 81.8896,410.8936 80.4881,400.5041 79.0873,390.1145 77.6872,379.7247 76.2879,369.3346 74.8892,358.9442 73.4914,348.5535 72.0942,338.1625 70.6977,327.7712 69.302,317.3795 67.9069,306.9874 66.5126,296.5948 65.119,286.2018 63.726,275.8084 62.3338,265.4144 60.9422,255.02 59.5514,244.6249 58.1612,234.2293 56.7717,223.8332 55.3829,213.4364 53.9948,203.0389 52.6073,192.6408 51.2205,182.242 49.8344,171.8424 48.4489,161.4422 47.0641,151.0411 45.6799,140.6393 44.2965,130.2366 42.9136,119.8331 41.5314,109.4288" stroke="black" stroke-opacity="0.5" stroke-width="1" /></svg>