<?xml version="1.0" encoding="utf-8" ?>
<svg baseProfile="tiny" height="800" version="1.2" width="800" xmlns="http://www.w3.org/2000/svg" xmlns:ev="http://www.w3.org/2001/xml-events" xmlns:xlink="http://www.w3.org/1999/xlink"><defs /><rect fill="none" height="800" stroke="black" stroke-width="2" width="800" x="0" y="0" /><polyline fill="none" points="578.8992,693.033 581.8529,684.8046 584.8059,676.5765 587.7581,668.3486 590.7095,660.1209 593.6602,651.8934 596.6102,643.666 599.5594,635.4388 602.5079,627.2118 605.4557,618.9848 608.4027,610.758 611.3491,602.5312 614.2948,594.3045 617.2397,586.0778 620.1841,577.8511 623.1277,569.6244 626.0706,561.3977 629.0129,553.171 631.9546,544.9442 634.8956,536.7173 637.836,528.4903 640.7757,520.2631 643.7148,512.0359 646.6533,503.8084 649.5911,495.5808 652.5284,487.353 655.4651,479.125 658.4012,470.8967 661.3367,462.6682 664.2716,454.4394 667.2059,446.2103 670.1397,437.9809 673.073,429.7511 676.0056,421.521 678.9378,413.2905 681.8694,405.0596 684.8005,396.8283 687.731,388.5966 690.6611,380.3644 693.5906,372.1317 696.5197,363.8986 699.4482,355.6649 702.3763,347.4307 705.3038,339.196 708.2309,330.9606 711.1576,322.7247 714.0838,314.4882 717.0095,306.251 719.9348,298.0132 722.8596,289.7747 725.784,281.5356 728.708,273.2957 731.6316,265.0551 734.5547,256.8137 737.4775,248.5716 740.3998,240.3287 743.3218,232.085 746.2434,223.8404 749.1646,215.5951 752.0854,207.3488 755.0059,199.1017" stroke="silver" stroke-opacity="0.5" stroke-width="1" /><polyline fill="none" points="513.1594,674.1269 515.0269,665.5904 516.8938,657.0544 518.7602,648.5188 520.6261,639.9836 522.4915,631.4489 524.3564,622.9145 526.2208,614.3805 528.0848,605.8468 529.9482,597.3134 531.8112,588.7804 533.6737,580.2476 535.5357,571.7151 537.3973,563.1828 539.2584,554.6507 541.1191,546.1188 542.9793,537.5871 544.839,529.0556 546.6983,520.5241 548.5572,511.9928 550.4157,503.4616 552.2737,494.9305 554.1313,486.3995 555.9885,477.8684 557.8452,469.3374 559.7016,460.8064 561.5575,452.2753 563.4131,443.7442 565.2682,435.2131 567.123,426.6818 568.9773,418.1504 570.8313,409.6189 572.6849,401.0873 574.5381,392.5555 576.391,384.0235 578.2435,375.4913 580.0956,366.9589 581.9474,358.4262 583.7988,349.8932 585.6498,341.36 587.5006,332.8265 589.351,324.2926 591.201,315.7583 593.0507,307.2237 594.9001,298.6887 596.7492,290.1533 598.5979,281.6175 600.4463,273.0812 602.2945,264.5444 604.1423,256.0072 605.9898,247.4694 607.837,238.9311 609.684,230.3923 611.5306,221.8528 613.377,213.3128 615.223,204.7722 617.0688,196.2309 618.9144,187.6889 620.7596,179.1463 622.6046,170.603 624.4494,162.059" stroke="silver" stroke-opacity="0.5" stroke-width="1" /><polyline fill="none" points="445.5554,663.8564 446.307,655.1526 447.0584,646.4495 447.8095,637.7469 448.5605,629.0449 449.3112,620.3433 450.0618,611.6423 450.8121,602.9417 451.5623,594.2416 452.3122,585.542 453.062,576.8427 453.8115,568.1438 454.5608,559.4454 455.31,550.7472 456.059,542.0494 456.8077,533.3519 457.5563,524.6547 458.3047,515.9578 459.053,507.2611 459.801,498.5646 460.5489,489.8684 461.2965,481.1723 462.044,472.4764 462.7914,463.7806 463.5385,455.085 464.2855,446.3895 465.0323,437.694 465.7789,428.9987 466.5254,420.3033 467.2717,411.608 468.0179,402.9127 468.7639,394.2173 469.5097,385.5219 470.2554,376.8265 471.0009,368.131 471.7463,359.4353 472.4915,350.7396 473.2366,342.0437 473.9815,333.3476 474.7262,324.6513 475.4709,315.9549 476.2153,307.2582 476.9597,298.5613 477.7039,289.864 478.4479,281.1665 479.1919,272.4687 479.9357,263.7706 480.6793,255.0721 481.4229,246.3732 482.1663,237.674 482.9095,228.9743 483.6527,220.2742 484.3957,211.5737 485.1386,202.8726 485.8814,194.1711 486.6241,185.469 487.3666,176.7664 488.109,168.0633 488.8513,159.3596 489.5936,150.6552 490.3357,141.9503" stroke="silver" stroke-opacity="0.5" stroke-width="1" /><polyline fill="none" points="377.2014,662.384 376.8253,653.6563 376.4493,644.9292 376.0734,636.2027 375.6976,627.4767 375.3219,618.7513 374.9463,610.0263 374.5708,601.3019 374.1954,592.578 373.8201,583.8545 373.4449,575.1314 373.0698,566.4087 372.6948,557.6865 372.3199,548.9646 371.9451,540.243 371.5704,531.5218 371.1957,522.8009 370.8212,514.0802 370.4468,505.3598 370.0724,496.6397 369.6982,487.9198 369.324,479.2001 368.95,470.4806 368.576,461.7612 368.2021,453.042 367.8283,444.3229 367.4546,435.6039 367.0809,426.885 366.7074,418.1661 366.3339,409.4473 365.9605,400.7285 365.5872,392.0097 365.214,383.2908 364.8408,374.5719 364.4677,365.853 364.0947,357.1339 363.7218,348.4147 363.349,339.6955 362.9762,330.976 362.6035,322.2564 362.2309,313.5366 361.8583,304.8166 361.4859,296.0964 361.1135,287.3758 360.7411,278.6551 360.3688,269.934 359.9966,261.2126 359.6245,252.4909 359.2524,243.7688 358.8804,235.0463 358.5085,226.3235 358.1366,217.6002 357.7648,208.8765 357.393,200.1523 357.0213,191.4276 356.6497,182.7024 356.2781,173.9767 355.9066,165.2505 355.5352,156.5237 355.1638,147.7963 354.7924,139.0683" stroke="silver" stroke-opacity="0.5" stroke-width="1" /><polyline fill="none" points="309.2227,669.733 307.7248,661.1249 306.2273,652.5174 304.7303,643.9104 303.2336,635.3038 301.7374,626.6977 300.2415,618.092 298.746,609.4867 297.251,600.8818 295.7563,592.2773 294.262,583.6731 292.7682,575.0693 291.2746,566.4657 289.7815,557.8625 288.2887,549.2595 286.7964,540.6567 285.3043,532.0542 283.8127,523.4519 282.3214,514.8497 280.8304,506.2478 279.3398,497.6459 277.8496,489.0442 276.3597,480.4426 274.8701,471.8411 273.3809,463.2396 271.892,454.6382 270.4035,446.0368 268.9152,437.4354 267.4273,428.834 265.9398,420.2325 264.4525,411.631 262.9655,403.0294 261.4789,394.4277 259.9926,385.8258 258.5065,377.2239 257.0208,368.6217 255.5354,360.0194 254.0502,351.4169 252.5653,342.8141 251.0808,334.2111 249.5965,325.6078 248.1125,317.0043 246.6287,308.4004 245.1453,299.7962 243.6621,291.1917 242.1791,282.5868 240.6964,273.9815 239.214,265.3758 237.7319,256.7696 236.2499,248.163 234.7683,239.556 233.2869,230.9484 231.8057,222.3404 230.3247,213.7318 228.844,205.1226 227.3635,196.5129 225.8833,187.9026 224.4032,179.2916 222.9234,170.6801 221.4438,162.0678 219.9644,153.4549" stroke="silver" stroke-opacity="0.5" stroke-width="1" /><polyline fill="none" points="242.739,685.7872 240.1431,677.4407 237.5478,669.0945 234.9532,660.7486 232.3592,652.4031 229.766,644.0578 227.1734,635.7127 224.5814,627.3679 221.9901,619.0233 219.3995,610.6788 216.8095,602.3346 214.2201,593.9905 211.6313,585.6465 209.0432,577.3027 206.4557,568.9589 203.8688,560.6152 201.2825,552.2715 198.6968,543.9279 196.1117,535.5843 193.5271,527.2407 190.9432,518.8971 188.3598,510.5534 185.777,502.2096 183.1947,493.8658 180.613,485.5218 178.0318,477.1777 175.4512,468.8335 172.8711,460.4891 170.2915,452.1445 167.7125,443.7998 165.134,435.4547 162.556,427.1095 159.9784,418.764 157.4014,410.4182 154.8249,402.072 152.2489,393.7256 149.6733,385.3788 147.0982,377.0317 144.5236,368.6841 141.9494,360.3362 139.3757,351.9878 136.8025,343.639 134.2297,335.2898 131.6573,326.94 129.0853,318.5898 126.5138,310.239 123.9427,301.8877 121.372,293.5358 118.8017,285.1833 116.2319,276.8302 113.6624,268.4765 111.0933,260.1222 108.5245,251.7672 105.9562,243.4115 103.3882,235.0551 100.8206,226.698 98.2534,218.3402 95.6865,209.9815 93.1199,201.6221 90.5537,193.2619 87.9878,184.9009" stroke="silver" stroke-opacity="0.5" stroke-width="1" /><polyline fill="none" points="590.7095,660.1209 589.564,659.7114 588.4177,659.3044 587.2704,658.8999 586.1223,658.4978 584.9734,658.0982 583.8236,657.7011 582.673,657.3065 581.5215,656.9144 580.3693,656.5247 579.2161,656.1376 578.0622,655.7529 576.9075,655.3707 575.7519,654.991 574.5955,654.6138 573.4384,654.2391 572.2804,653.8669 571.1217,653.4972 569.9622,653.13 568.8019,652.7653 567.6408,652.4031 566.4789,652.0434 565.3163,651.6862 564.153,651.3315 562.9889,650.9793 561.824,650.6296 560.6584,650.2824 559.4921,649.9378 558.325,649.5957 557.1572,649.256 555.9887,648.9189 554.8195,648.5844 553.6496,648.2523 552.479,647.9228 551.3076,647.5957 550.1356,647.2712 548.9629,646.9493 547.7895,646.6298 546.6155,646.3129 545.4407,645.9986 544.2653,645.6867 543.0893,645.3774 541.9126,645.0706 540.7352,644.7664 539.5572,644.4647 538.3786,644.1655 537.1993,643.8689 536.0194,643.5748 534.8389,643.2833 533.6578,642.9943 532.476,642.7079 531.2936,642.424 530.1107,642.1426 528.9271,641.8638 527.743,641.5875 526.5583,641.3138 525.373,641.0427 524.1871,640.7741 523.0007,640.5081 521.8137,640.2446 520.6261,639.9836 519.438,639.7253 518.2493,639.4695 517.0601,639.2162 515.8704,638.9655 514.6802,638.7174 513.4894,638.4718 512.2981,638.2288 511.1062,637.9884 509.9139,637.7506 508.7211,637.5153 507.5278,637.2825 506.334,637.0524 505.1396,636.8248 503.9449,636.5998 502.7496,636.3774 501.5539,636.1575 500.3577,635.9402 499.161,635.7255 497.9639,635.5134 496.7664,635.3038 495.5684,635.0968 494.37,634.8924 493.1711,634.6906 491.9718,634.4914 490.7721,634.2947 489.572,634.1007 488.3715,633.9092 487.1705,633.7203 485.9692,633.534 484.7675,633.3502 483.5654,633.1691 482.3629,632.9905 481.16,632.8146 479.9568,632.6412 478.7532,632.4704 477.5492,632.3022 476.3449,632.1366 475.1402,631.9736 473.9352,631.8132 472.7299,631.6554 471.5242,631.5002 470.3182,631.3476 469.1119,631.1975 467.9052,631.0501 466.6983,630.9053 465.491,630.763 464.2834,630.6234 463.0756,630.4864 461.8675,630.3519 460.659,630.2201 459.4503,630.0908 458.2414,629.9642 457.0321,629.8402 455.8226,629.7187 454.6129,629.5999 453.4029,629.4837 452.1926,629.3701 450.9822,629.2591 449.7714,629.1507 448.5605,629.0449 447.3493,628.9417 446.138,628.8411 444.9264,628.7431 443.7146,628.6477 442.5026,628.5549 441.2904,628.4648 440.078,628.3772 438.8654,628.2923 437.6527,628.21 436.4398,628.1303 435.2267,628.0531 434.0135,627.9786 432.8001,627.9068 431.5865,627.8375 430.3728,627.7708 429.159,627.7068 427.9451,627.6453 426.731,627.5865 425.5168,627.5303 424.3024,627.4767 423.088,627.4257 421.8735,627.3773 420.6588,627.3316 419.4441,627.2884 418.2293,627.2479 417.0143,627.21 415.7994,627.1747 414.5843,627.142 413.3692,627.1119 412.154,627.0844 410.9388,627.0596 409.7235,627.0374 408.5081,627.0177 407.2928,627.0007 406.0773,626.9864 404.8619,626.9746 403.6465,626.9654 402.431,626.9589 401.2155,626.955 400.0,626.9537 398.7845,626.955 397.569,626.9589 396.3535,626.9654 395.1381,626.9746 393.9227,626.9864 392.7072,627.0007 391.4919,627.0177 390.2765,627.0374 389.0612,627.0596 387.846,627.0844 386.6308,627.1119 385.4157,627.142 384.2006,627.1747 382.9857,627.21 381.7707,627.2479 380.5559,627.2884 379.3412,627.3316 378.1265,627.3773 376.912,627.4257 375.6976,627.4767 374.4832,627.5303 373.269,627.5865 372.0549,627.6453 370.841,627.7068 369.6272,627.7708 368.4135,627.8375 367.1999,627.9068 365.9865,627.9786 364.7733,628.0531 363.5602,628.1303 362.3473,628.21 361.1346,628.2923 359.922,628.3772 358.7096,628.4648 357.4974,628.5549 356.2854,628.6477 355.0736,628.7431 353.862,628.8411 352.6507,628.9417 351.4395,629.0449 350.2286,629.1507 349.0178,629.2591 347.8074,629.3701 346.5971,629.4837 345.3871,629.5999 344.1774,629.7187 342.9679,629.8402 341.7586,629.9642 340.5497,630.0908 339.341,630.2201 338.1325,630.3519 336.9244,630.4864 335.7166,630.6234 334.509,630.763 333.3017,630.9053 332.0948,631.0501 330.8881,631.1975 329.6818,631.3476 328.4758,631.5002 327.2701,631.6554 326.0648,631.8132 324.8598,631.9736 323.6551,632.1366 322.4508,632.3022 321.2468,632.4704 320.0432,632.6412 318.84,632.8146 317.6371,632.9905 316.4346,633.1691 315.2325,633.3502 314.0308,633.534 312.8295,633.7203 311.6285,633.9092 310.428,634.1007 309.2279,634.2947 308.0282,634.4914 306.8289,634.6906 305.63,634.8924 304.4316,635.0968 303.2336,635.3038 302.0361,635.5134 300.839,635.7255 299.6423,635.9402 298.4461,636.1575 297.2504,636.3774 296.0551,636.5998 294.8604,636.8248 293.666,637.0524 292.4722,637.2825 291.2789,637.5153 290.0861,637.7506 288.8938,637.9884 287.7019,638.2288 286.5106,638.4718 285.3198,638.7174 284.1296,638.9655 282.9399,639.2162 281.7507,639.4695 280.562,639.7253 279.3739,639.9836 278.1863,640.2446 276.9993,640.5081 275.8129,640.7741 274.627,641.0427 273.4417,641.3138 272.257,641.5875 271.0729,641.8638 269.8893,642.1426 268.7064,642.424 267.524,642.7079 266.3422,642.9943 265.1611,643.2833 263.9806,643.5748 262.8007,643.8689 261.6214,644.1655 260.4428,644.4647 259.2648,644.7664 258.0874,645.0706 256.9107,645.3774 255.7347,645.6867 254.5593,645.9986 253.3845,646.3129 252.2105,646.6298 251.0371,646.9493 249.8644,647.2712 248.6924,647.5957 247.521,647.9228 246.3504,648.2523 245.1805,648.5844 244.0113,648.9189 242.8428,649.256 241.675,649.5957 240.5079,649.9378 239.3416,650.2824 238.176,650.6296 237.0111,650.9793 235.847,651.3315 234.6837,651.6862 233.5211,652.0434 232.3592,652.4031 231.1981,652.7653 230.0378,653.13 228.8783,653.4972 227.7196,653.8669 226.5616,654.2391 225.4045,654.6138 224.2481,654.991 223.0925,655.3707 221.9378,655.7529 220.7839,656.1376 219.6307,656.5247 218.4785,656.9144 217.327,657.3065 216.1764,657.7011 215.0266,658.0982 213.8777,658.4978 212.7296,658.8999 211.5823,659.3044 210.436,659.7114 209.2905,660.1209" stroke="silver" stroke-opacity="0.5" stroke-width="1" /><polyline fill="none" points="614.2948,594.3045 613.0073,593.8451 611.7189,593.3885 610.4296,592.9347 609.1393,592.4837 607.848,592.0354 606.5558,591.59 605.2626,591.1473 603.9685,590.7074 602.6735,590.2702 601.3775,589.8359 600.0807,589.4044 598.7829,588.9756 597.4842,588.5497 596.1847,588.1266 594.8842,587.7062 593.5828,587.2887 592.2806,586.8739 590.9775,586.462 589.6735,586.0528 588.3687,585.6465 587.0629,585.243 585.7564,584.8423 584.449,584.4444 583.1408,584.0493 581.8317,583.6571 580.5218,583.2676 579.2111,582.881 577.8995,582.4972 576.5872,582.1162 575.274,581.7381 573.9601,581.3628 572.6453,580.9903 571.3298,580.6206 570.0135,580.2538 568.6964,579.8898 567.3786,579.5286 566.06,579.1703 564.7406,578.8148 563.4205,578.4622 562.0996,578.1123 560.7781,577.7654 559.4557,577.4213 558.1327,577.08 556.8089,576.7416 555.4844,576.406 554.1592,576.0732 552.8334,575.7434 551.5068,575.4163 550.1795,575.0922 548.8515,574.7708 547.5229,574.4524 546.1936,574.1368 544.8636,573.824 543.533,573.5142 542.2017,573.2072 540.8698,572.903 539.5372,572.6017 538.204,572.3033 536.8702,572.0077 535.5357,571.7151 534.2007,571.4252 532.865,571.1383 531.5287,570.8542 530.1918,570.573 528.8543,570.2947 527.5163,570.0193 526.1776,569.7467 524.8384,569.477 523.4986,569.2102 522.1583,568.9463 520.8174,568.6852 519.476,568.4271 518.134,568.1718 516.7914,567.9194 515.4484,567.6699 514.1048,567.4233 512.7607,567.1796 511.4161,566.9387 510.071,566.7008 508.7254,566.4657 507.3792,566.2336 506.0326,566.0043 504.6856,565.7779 503.338,565.5545 501.99,565.3339 500.6415,565.1162 499.2925,564.9014 497.9431,564.6895 496.5933,564.4806 495.243,564.2745 493.8923,564.0713 492.5411,563.871 491.1896,563.6737 489.8376,563.4792 488.4852,563.2876 487.1324,563.099 485.7792,562.9132 484.4256,562.7304 483.0717,562.5505 481.7173,562.3735 480.3626,562.1994 479.0076,562.0282 477.6521,561.8599 476.2964,561.6945 474.9402,561.5321 473.5837,561.3725 472.2269,561.2159 470.8698,561.0622 469.5124,560.9114 468.1546,560.7635 466.7965,560.6186 465.4381,560.4765 464.0794,560.3374 462.7205,560.2012 461.3612,560.0679 460.0017,559.9376 458.6419,559.8101 457.2818,559.6856 455.9214,559.564 454.5608,559.4454 453.2,559.3296 451.8389,559.2168 450.4776,559.1069 449.1161,558.9999 447.7543,558.8959 446.3923,558.7947 445.0301,558.6965 443.6677,558.6013 442.3051,558.5089 440.9423,558.4195 439.5794,558.333 438.2162,558.2495 436.8529,558.1688 435.4894,558.0911 434.1257,558.0164 432.7619,557.9445 431.3979,557.8756 430.0338,557.8096 428.6696,557.7466 427.3052,557.6865 425.9407,557.6293 424.5761,557.575 423.2114,557.5237 421.8466,557.4753 420.4816,557.4298 419.1166,557.3873 417.7515,557.3477 416.3863,557.311 415.021,557.2773 413.6557,557.2465 412.2903,557.2186 410.9249,557.1937 409.5594,557.1717 408.1938,557.1526 406.8282,557.1365 405.4626,557.1233 404.097,557.113 402.7313,557.1057 401.3657,557.1013 400.0,557.0998 398.6343,557.1013 397.2687,557.1057 395.903,557.113 394.5374,557.1233 393.1718,557.1365 391.8062,557.1526 390.4406,557.1717 389.0751,557.1937 387.7097,557.2186 386.3443,557.2465 384.979,557.2773 383.6137,557.311 382.2485,557.3477 380.8834,557.3873 379.5184,557.4298 378.1534,557.4753 376.7886,557.5237 375.4239,557.575 374.0593,557.6293 372.6948,557.6865 371.3304,557.7466 369.9662,557.8096 368.6021,557.8756 367.2381,557.9445 365.8743,558.0164 364.5106,558.0911 363.1471,558.1688 361.7838,558.2495 360.4206,558.333 359.0577,558.4195 357.6949,558.5089 356.3323,558.6013 354.9699,558.6965 353.6077,558.7947 352.2457,558.8959 350.8839,558.9999 349.5224,559.1069 348.1611,559.2168 346.8,559.3296 345.4392,559.4454 344.0786,559.564 342.7182,559.6856 341.3581,559.8101 339.9983,559.9376 338.6388,560.0679 337.2795,560.2012 335.9206,560.3374 334.5619,560.4765 333.2035,560.6186 331.8454,560.7635 330.4876,560.9114 329.1302,561.0622 327.7731,561.2159 326.4163,561.3725 325.0598,561.5321 323.7036,561.6945 322.3479,561.8599 320.9924,562.0282 319.6374,562.1994 318.2827,562.3735 316.9283,562.5505 315.5744,562.7304 314.2208,562.9132 312.8676,563.099 311.5148,563.2876 310.1624,563.4792 308.8104,563.6737 307.4589,563.871 306.1077,564.0713 304.757,564.2745 303.4067,564.4806 302.0569,564.6895 300.7075,564.9014 299.3585,565.1162 298.01,565.3339 296.662,565.5545 295.3144,565.7779 293.9674,566.0043 292.6208,566.2336 291.2746,566.4657 289.929,566.7008 288.5839,566.9387 287.2393,567.1796 285.8952,567.4233 284.5516,567.6699 283.2086,567.9194 281.866,568.1718 280.524,568.4271 279.1826,568.6852 277.8417,568.9463 276.5014,569.2102 275.1616,569.477 273.8224,569.7467 272.4837,570.0193 271.1457,570.2947 269.8082,570.573 268.4713,570.8542 267.135,571.1383 265.7993,571.4252 264.4643,571.7151 263.1298,572.0077 261.796,572.3033 260.4628,572.6017 259.1302,572.903 257.7983,573.2072 256.467,573.5142 255.1364,573.824 253.8064,574.1368 252.4771,574.4524 251.1485,574.7708 249.8205,575.0922 248.4932,575.4163 247.1666,575.7434 245.8408,576.0732 244.5156,576.406 243.1911,576.7416 241.8673,577.08 240.5443,577.4213 239.2219,577.7654 237.9004,578.1123 236.5795,578.4622 235.2594,578.8148 233.94,579.1703 232.6214,579.5286 231.3036,579.8898 229.9865,580.2538 228.6702,580.6206 227.3547,580.9903 226.0399,581.3628 224.726,581.7381 223.4128,582.1162 222.1005,582.4972 220.7889,582.881 219.4782,583.2676 218.1683,583.6571 216.8592,584.0493 215.551,584.4444 214.2436,584.8423 212.9371,585.243 211.6313,585.6465 210.3265,586.0528 209.0225,586.462 207.7194,586.8739 206.4172,587.2887 205.1158,587.7062 203.8153,588.1266 202.5158,588.5497 201.2171,588.9756 199.9193,589.4044 198.6225,589.8359 197.3265,590.2702 196.0315,590.7074 194.7374,591.1473 193.4442,591.59 192.152,592.0354 190.8607,592.4837 189.5704,592.9347 188.2811,593.3885 186.9927,593.8451 185.7052,594.3045" stroke="silver" stroke-opacity="0.5" stroke-width="1" /><polyline fill="none" points="637.836,528.4903 636.4068,527.9813 634.9766,527.4753 633.5453,526.9725 632.1129,526.4727 630.6795,525.9761 629.2451,525.4825 627.8096,524.9919 626.3731,524.5045 624.9356,524.0202 623.497,523.5389 622.0574,523.0608 620.6169,522.5857 619.1753,522.1138 617.7327,521.6449 616.2892,521.1792 614.8446,520.7165 613.3991,520.257 611.9526,519.8006 610.5052,519.3473 609.0568,518.8971 607.6075,518.45 606.1572,518.006 604.706,517.5651 603.2539,517.1274 601.8008,516.6928 600.3469,516.2613 598.892,515.8329 597.4362,515.4077 595.9795,514.9856 594.522,514.5666 593.0635,514.1507 591.6042,513.738 590.144,513.3285 588.683,512.922 587.2211,512.5187 585.7584,512.1186 584.2948,511.7216 582.8304,511.3277 581.3651,510.937 579.8991,510.5494 578.4322,510.165 576.9645,509.7837 575.496,509.4056 574.0267,509.0306 572.5567,508.6588 571.0858,508.2902 569.6142,507.9247 568.1418,507.5624 566.6686,507.2032 565.1947,506.8472 563.7201,506.4944 562.2447,506.1447 560.7686,505.7982 559.2917,505.4549 557.8141,505.1148 556.3358,504.7778 554.8568,504.444 553.3771,504.1134 551.8967,503.7859 550.4157,503.4616 548.9339,503.1406 547.4515,502.8227 545.9684,502.5079 544.4846,502.1964 543.0002,501.888 541.5151,501.5829 540.0294,501.2809 538.5431,500.9821 537.0561,500.6865 535.5686,500.3941 534.0804,500.1049 532.5916,499.8189 531.1022,499.5361 529.6122,499.2565 528.1216,498.98 526.6305,498.7068 525.1387,498.4368 523.6464,498.17 522.1536,497.9064 520.6602,497.6459 519.1662,497.3887 517.6717,497.1347 516.1767,496.884 514.6812,496.6364 513.1851,496.392 511.6885,496.1508 510.1914,495.9129 508.6938,495.6781 507.1958,495.4466 505.6972,495.2183 504.1982,494.9932 502.6987,494.7714 501.1987,494.5527 499.6983,494.3373 498.1974,494.125 496.6961,493.916 495.1943,493.7103 493.6921,493.5077 492.1895,493.3084 490.6865,493.1123 489.183,492.9194 487.6792,492.7297 486.175,492.5433 484.6703,492.3601 483.1653,492.1801 481.6599,492.0034 480.1542,491.8299 478.648,491.6596 477.1416,491.4925 475.6348,491.3287 474.1276,491.1681 472.6201,491.0108 471.1123,490.8566 469.6041,490.7057 468.0956,490.5581 466.5869,490.4137 465.0778,490.2725 463.5684,490.1345 462.0588,489.9998 460.5489,489.8684 459.0386,489.7401 457.5282,489.6152 456.0174,489.4934 454.5064,489.3749 452.9952,489.2596 451.4837,489.1476 449.972,489.0388 448.4601,488.9333 446.948,488.831 445.4356,488.7319 443.923,488.6361 442.4103,488.5435 440.8973,488.4542 439.3842,488.3681 437.8708,488.2853 436.3573,488.2057 434.8437,488.1294 433.3299,488.0563 431.8159,487.9864 430.3018,487.9198 428.7876,487.8565 427.2732,487.7963 425.7587,487.7395 424.2441,487.6859 422.7293,487.6355 421.2145,487.5884 419.6996,487.5445 418.1846,487.5039 416.6695,487.4665 415.1543,487.4324 413.6391,487.4015 412.1238,487.3739 410.6084,487.3495 409.093,487.3284 407.5776,487.3105 406.0621,487.2959 404.5466,487.2845 403.0311,487.2764 401.5155,487.2715 400.0,487.2699 398.4845,487.2715 396.9689,487.2764 395.4534,487.2845 393.9379,487.2959 392.4224,487.3105 390.907,487.3284 389.3916,487.3495 387.8762,487.3739 386.3609,487.4015 384.8457,487.4324 383.3305,487.4665 381.8154,487.5039 380.3004,487.5445 378.7855,487.5884 377.2707,487.6355 375.7559,487.6859 374.2413,487.7395 372.7268,487.7963 371.2124,487.8565 369.6982,487.9198 368.1841,487.9864 366.6701,488.0563 365.1563,488.1294 363.6427,488.2057 362.1292,488.2853 360.6158,488.3681 359.1027,488.4542 357.5897,488.5435 356.077,488.6361 354.5644,488.7319 353.052,488.831 351.5399,488.9333 350.028,489.0388 348.5163,489.1476 347.0048,489.2596 345.4936,489.3749 343.9826,489.4934 342.4718,489.6152 340.9614,489.7401 339.4511,489.8684 337.9412,489.9998 336.4316,490.1345 334.9222,490.2725 333.4131,490.4137 331.9044,490.5581 330.3959,490.7057 328.8877,490.8566 327.3799,491.0108 325.8724,491.1681 324.3652,491.3287 322.8584,491.4925 321.352,491.6596 319.8458,491.8299 318.3401,492.0034 316.8347,492.1801 315.3297,492.3601 313.825,492.5433 312.3208,492.7297 310.817,492.9194 309.3135,493.1123 307.8105,493.3084 306.3079,493.5077 304.8057,493.7103 303.3039,493.916 301.8026,494.125 300.3017,494.3373 298.8013,494.5527 297.3013,494.7714 295.8018,494.9932 294.3028,495.2183 292.8042,495.4466 291.3062,495.6781 289.8086,495.9129 288.3115,496.1508 286.8149,496.392 285.3188,496.6364 283.8233,496.884 282.3283,497.1347 280.8338,497.3887 279.3398,497.6459 277.8464,497.9064 276.3536,498.17 274.8613,498.4368 273.3695,498.7068 271.8784,498.98 270.3878,499.2565 268.8978,499.5361 267.4084,499.8189 265.9196,500.1049 264.4314,500.3941 262.9439,500.6865 261.4569,500.9821 259.9706,501.2809 258.4849,501.5829 256.9998,501.888 255.5154,502.1964 254.0316,502.5079 252.5485,502.8227 251.0661,503.1406 249.5843,503.4616 248.1033,503.7859 246.6229,504.1134 245.1432,504.444 243.6642,504.7778 242.1859,505.1148 240.7083,505.4549 239.2314,505.7982 237.7553,506.1447 236.2799,506.4944 234.8053,506.8472 233.3314,507.2032 231.8582,507.5624 230.3858,507.9247 228.9142,508.2902 227.4433,508.6588 225.9733,509.0306 224.504,509.4056 223.0355,509.7837 221.5678,510.165 220.1009,510.5494 218.6349,510.937 217.1696,511.3277 215.7052,511.7216 214.2416,512.1186 212.7789,512.5187 211.317,512.922 209.856,513.3285 208.3958,513.738 206.9365,514.1507 205.478,514.5666 204.0205,514.9856 202.5638,515.4077 201.108,515.8329 199.6531,516.2613 198.1992,516.6928 196.7461,517.1274 195.294,517.5651 193.8428,518.006 192.3925,518.45 190.9432,518.8971 189.4948,519.3473 188.0474,519.8006 186.6009,520.257 185.1554,520.7165 183.7108,521.1792 182.2673,521.6449 180.8247,522.1138 179.3831,522.5857 177.9426,523.0608 176.503,523.5389 175.0644,524.0202 173.6269,524.5045 172.1904,524.9919 170.7549,525.4825 169.3205,525.9761 167.8871,526.4727 166.4547,526.9725 165.0234,527.4753 163.5932,527.9813 162.164,528.4903" stroke="silver" stroke-opacity="0.5" stroke-width="1" /><polyline fill="none" points="661.3367,462.6682 659.766,462.1098 658.1941,461.5548 656.6211,461.0032 655.0469,460.455 653.4716,459.9101 651.8951,459.3686 650.3175,458.8305 648.7387,458.2958 647.1589,457.7645 645.5779,457.2366 643.9958,456.7121 642.4126,456.1909 640.8284,455.6732 639.243,455.1589 637.6566,454.648 636.0691,454.1405 634.4805,453.6364 632.8909,453.1357 631.3002,452.6384 629.7085,452.1445 628.1157,451.6541 626.5219,451.1671 624.9271,450.6835 623.3313,450.2033 621.7345,449.7265 620.1367,449.2532 618.5378,448.7833 616.938,448.3168 615.3373,447.8538 613.7355,447.3942 612.1328,446.9381 610.5291,446.4853 608.9245,446.0361 607.319,445.5902 605.7125,445.1478 604.1051,444.7089 602.4967,444.2734 600.8875,443.8414 599.2774,443.4128 597.6663,442.9876 596.0544,442.566 594.4416,442.1477 592.8279,441.733 591.2133,441.3217 589.5979,440.9138 587.9816,440.5095 586.3645,440.1086 584.7465,439.7111 583.1277,439.3172 581.5081,438.9267 579.8877,438.5397 578.2664,438.1561 576.6444,437.776 575.0215,437.3995 573.3979,437.0263 571.7735,436.6567 570.1483,436.2906 568.5224,435.9279 566.8957,435.5687 565.2682,435.2131 563.64,434.8609 562.0111,434.5122 560.3814,434.1669 558.751,433.8252 557.1199,433.487 555.4881,433.1523 553.8556,432.821 552.2224,432.4933 550.5885,432.1691 548.9539,431.8484 547.3187,431.5311 545.6828,431.2174 544.0463,430.9072 542.4091,430.6005 540.7712,430.2973 539.1327,429.9976 537.4936,429.7014 535.8539,429.4088 534.2136,429.1196 532.5727,428.834 530.9311,428.5519 529.289,428.2733 527.6463,427.9982 526.003,427.7266 524.3592,427.4586 522.7148,427.1941 521.0698,426.9331 519.4243,426.6756 517.7783,426.4217 516.1318,426.1713 514.4847,425.9244 512.8371,425.681 511.189,425.4412 509.5404,425.2049 507.8913,424.9721 506.2417,424.7429 504.5916,424.5172 502.9411,424.295 501.2901,424.0764 499.6386,423.8613 497.9867,423.6497 496.3344,423.4417 494.6816,423.2372 493.0284,423.0363 491.3748,422.8389 489.7208,422.645 488.0663,422.4547 486.4115,422.2679 484.7563,422.0847 483.1007,421.905 481.4447,421.7289 479.7884,421.5563 478.1317,421.3872 476.4747,421.2217 474.8173,421.0598 473.1595,420.9014 471.5015,420.7465 469.8431,420.5953 468.1844,420.4475 466.5254,420.3033 464.8661,420.1627 463.2065,420.0256 461.5467,419.892 459.8865,419.7621 458.2261,419.6356 456.5654,419.5128 454.9045,419.3934 453.2433,419.2777 451.5819,419.1655 449.9202,419.0568 448.2584,418.9517 446.5963,418.8502 444.934,418.7522 443.2715,418.6578 441.6088,418.567 439.9459,418.4797 438.2828,418.396 436.6196,418.3158 434.9562,418.2392 433.2926,418.1661 431.6289,418.0966 429.9651,418.0307 428.3011,417.9683 426.637,417.9095 424.9727,417.8543 423.3084,417.8026 421.644,417.7545 419.9794,417.71 418.3148,417.669 416.6501,417.6315 414.9853,417.5977 413.3204,417.5674 411.6555,417.5406 409.9905,417.5175 408.3255,417.4979 406.6604,417.4818 404.9954,417.4694 403.3303,417.4604 401.6651,417.4551 400.0,417.4533 398.3349,417.4551 396.6697,417.4604 395.0046,417.4694 393.3396,417.4818 391.6745,417.4979 390.0095,417.5175 388.3445,417.5406 386.6796,417.5674 385.0147,417.5977 383.3499,417.6315 381.6852,417.669 380.0206,417.71 378.356,417.7545 376.6916,417.8026 375.0273,417.8543 373.363,417.9095 371.6989,417.9683 370.0349,418.0307 368.3711,418.0966 366.7074,418.1661 365.0438,418.2392 363.3804,418.3158 361.7172,418.396 360.0541,418.4797 358.3912,418.567 356.7285,418.6578 355.066,418.7522 353.4037,418.8502 351.7416,418.9517 350.0798,419.0568 348.4181,419.1655 346.7567,419.2777 345.0955,419.3934 343.4346,419.5128 341.7739,419.6356 340.1135,419.7621 338.4533,419.892 336.7935,420.0256 335.1339,420.1627 333.4746,420.3033 331.8156,420.4475 330.1569,420.5953 328.4985,420.7465 326.8405,420.9014 325.1827,421.0598 323.5253,421.2217 321.8683,421.3872 320.2116,421.5563 318.5553,421.7289 316.8993,421.905 315.2437,422.0847 313.5885,422.2679 311.9337,422.4547 310.2792,422.645 308.6252,422.8389 306.9716,423.0363 305.3184,423.2372 303.6656,423.4417 302.0133,423.6497 300.3614,423.8613 298.7099,424.0764 297.0589,424.295 295.4084,424.5172 293.7583,424.7429 292.1087,424.9721 290.4596,425.2049 288.811,425.4412 287.1629,425.681 285.5153,425.9244 283.8682,426.1713 282.2217,426.4217 280.5757,426.6756 278.9302,426.9331 277.2852,427.1941 275.6408,427.4586 273.997,427.7266 272.3537,427.9982 270.711,428.2733 269.0689,428.5519 267.4273,428.834 265.7864,429.1196 264.1461,429.4088 262.5064,429.7014 260.8673,429.9976 259.2288,430.2973 257.5909,430.6005 255.9537,430.9072 254.3172,431.2174 252.6813,431.5311 251.0461,431.8484 249.4115,432.1691 247.7776,432.4933 246.1444,432.821 244.5119,433.1523 242.8801,433.487 241.249,433.8252 239.6186,434.1669 237.9889,434.5122 236.36,434.8609 234.7318,435.2131 233.1043,435.5687 231.4776,435.9279 229.8517,436.2906 228.2265,436.6567 226.6021,437.0263 224.9785,437.3995 223.3556,437.776 221.7336,438.1561 220.1123,438.5397 218.4919,438.9267 216.8723,439.3172 215.2535,439.7111 213.6355,440.1086 212.0184,440.5095 210.4021,440.9138 208.7867,441.3217 207.1721,441.733 205.5584,442.1477 203.9456,442.566 202.3337,442.9876 200.7226,443.4128 199.1125,443.8414 197.5033,444.2734 195.8949,444.7089 194.2875,445.1478 192.681,445.5902 191.0755,446.0361 189.4709,446.4853 187.8672,446.9381 186.2645,447.3942 184.6627,447.8538 183.062,448.3168 181.4622,448.7833 179.8633,449.2532 178.2655,449.7265 176.6687,450.2033 175.0729,450.6835 173.4781,451.1671 171.8843,451.6541 170.2915,452.1445 168.6998,452.6384 167.1091,453.1357 165.5195,453.6364 163.9309,454.1405 162.3434,454.648 160.757,455.1589 159.1716,455.6732 157.5874,456.1909 156.0042,456.7121 154.4221,457.2366 152.8411,457.7645 151.2613,458.2958 149.6825,458.8305 148.1049,459.3686 146.5284,459.9101 144.9531,460.455 143.3789,461.0032 141.8059,461.5548 140.234,462.1098 138.6633,462.6682" stroke="silver" stroke-opacity="0.5" stroke-width="1" /><polyline fill="none" points="684.8005,396.8283 683.0884,396.2208 681.3751,395.617 679.6605,395.0168 677.9446,394.4203 676.2275,393.8275 674.5092,393.2384 672.7896,392.653 671.0688,392.0712 669.3468,391.4932 667.6236,390.9188 665.8992,390.3481 664.1736,389.7812 662.4468,389.2179 660.7188,388.6583 658.9897,388.1025 657.2594,387.5503 655.5279,387.0019 653.7953,386.4571 652.0616,385.9161 650.3267,385.3788 648.5907,384.8452 646.8536,384.3154 645.1154,383.7892 643.3761,383.2668 641.6357,382.7482 639.8942,382.2332 638.1516,381.722 636.408,381.2145 634.6633,380.7108 632.9176,380.2107 631.1708,379.7145 629.423,379.222 627.6741,378.7332 625.9243,378.2481 624.1734,377.7669 622.4215,377.2893 620.6686,376.8156 618.9148,376.3455 617.1599,375.8793 615.4041,375.4168 613.6473,374.958 611.8896,374.503 610.1309,374.0518 608.3713,373.6044 606.6107,373.1607 604.8492,372.7208 603.0868,372.2846 601.3235,371.8522 599.5592,371.4237 597.7941,370.9988 596.0281,370.5778 594.2613,370.1606 592.4935,369.7471 590.7249,369.3374 588.9554,368.9315 587.1851,368.5294 585.414,368.1311 583.642,367.7366 581.8692,367.3458 580.0956,366.9589 578.3212,366.5757 576.546,366.1964 574.77,365.8208 572.9932,365.4491 571.2156,365.0812 569.4373,364.717 567.6582,364.3567 565.8783,364.0002 564.0978,363.6475 562.3164,363.2986 560.5344,362.9535 558.7516,362.6122 556.9682,362.2747 555.184,361.9411 553.3991,361.6112 551.6136,361.2852 549.8273,360.963 548.0404,360.6447 546.2529,360.3301 544.4646,360.0194 542.6758,359.7125 540.8863,359.4094 539.0961,359.1102 537.3054,358.8148 535.514,358.5232 533.722,358.2354 531.9295,357.9515 530.1363,357.6714 528.3425,357.3952 526.5482,357.1228 524.7533,356.8542 522.9579,356.5895 521.1619,356.3286 519.3653,356.0715 517.5683,355.8183 515.7707,355.569 513.9726,355.3234 512.1739,355.0818 510.3748,354.8439 508.5752,354.6099 506.7751,354.3798 504.9745,354.1535 503.1734,353.9311 501.3719,353.7125 499.5699,353.4978 497.7675,353.2869 495.9647,353.0799 494.1614,352.8767 492.3577,352.6774 490.5536,352.4819 488.7491,352.2903 486.9441,352.1026 485.1388,351.9187 483.3332,351.7386 481.5271,351.5625 479.7207,351.3902 477.9139,351.2217 476.1068,351.0571 474.2993,350.8964 472.4915,350.7396 470.6834,350.5866 468.8749,350.4374 467.0662,350.2922 465.2571,350.1508 463.4478,350.0133 461.6382,349.8796 459.8283,349.7498 458.0181,349.6239 456.2077,349.5018 454.397,349.3837 452.5861,349.2693 450.7749,349.1589 448.9635,349.0523 447.1519,348.9496 445.3401,348.8508 443.5281,348.7558 441.7159,348.6648 439.9035,348.5775 438.0909,348.4942 436.2782,348.4147 434.4653,348.3392 432.6522,348.2674 430.839,348.1996 429.0257,348.1356 427.2122,348.0755 425.3986,348.0193 423.5849,347.967 421.7711,347.9185 419.9571,347.8739 418.1431,347.8332 416.3291,347.7964 414.5149,347.7634 412.7007,347.7344 410.8864,347.7092 409.0721,347.6878 407.2577,347.6704 405.4433,347.6568 403.6289,347.6471 401.8144,347.6413 400.0,347.6394 398.1856,347.6413 396.3711,347.6471 394.5567,347.6568 392.7423,347.6704 390.9279,347.6878 389.1136,347.7092 387.2993,347.7344 385.4851,347.7634 383.6709,347.7964 381.8569,347.8332 380.0429,347.8739 378.2289,347.9185 376.4151,347.967 374.6014,348.0193 372.7878,348.0755 370.9743,348.1356 369.161,348.1996 367.3478,348.2674 365.5347,348.3392 363.7218,348.4147 361.9091,348.4942 360.0965,348.5775 358.2841,348.6648 356.4719,348.7558 354.6599,348.8508 352.8481,348.9496 351.0365,349.0523 349.2251,349.1589 347.4139,349.2693 345.603,349.3837 343.7923,349.5018 341.9819,349.6239 340.1717,349.7498 338.3618,349.8796 336.5522,350.0133 334.7429,350.1508 332.9338,350.2922 331.1251,350.4374 329.3166,350.5866 327.5085,350.7396 325.7007,350.8964 323.8932,351.0571 322.0861,351.2217 320.2793,351.3902 318.4729,351.5625 316.6668,351.7386 314.8612,351.9187 313.0559,352.1026 311.2509,352.2903 309.4464,352.4819 307.6423,352.6774 305.8386,352.8767 304.0353,353.0799 302.2325,353.2869 300.4301,353.4978 298.6281,353.7125 296.8266,353.9311 295.0255,354.1535 293.2249,354.3798 291.4248,354.6099 289.6252,354.8439 287.8261,355.0818 286.0274,355.3234 284.2293,355.569 282.4317,355.8183 280.6347,356.0715 278.8381,356.3286 277.0421,356.5895 275.2467,356.8542 273.4518,357.1228 271.6575,357.3952 269.8637,357.6714 268.0705,357.9515 266.278,358.2354 264.486,358.5232 262.6946,358.8148 260.9039,359.1102 259.1137,359.4094 257.3242,359.7125 255.5354,360.0194 253.7471,360.3301 251.9596,360.6447 250.1727,360.963 248.3864,361.2852 246.6009,361.6112 244.816,361.9411 243.0318,362.2747 241.2484,362.6122 239.4656,362.9535 237.6836,363.2986 235.9022,363.6475 234.1217,364.0002 232.3418,364.3567 230.5627,364.717 228.7844,365.0812 227.0068,365.4491 225.23,365.8208 223.454,366.1964 221.6788,366.5757 219.9044,366.9589 218.1308,367.3458 216.358,367.7366 214.586,368.1311 212.8149,368.5294 211.0446,368.9315 209.2751,369.3374 207.5065,369.7471 205.7387,370.1606 203.9719,370.5778 202.2059,370.9988 200.4408,371.4237 198.6765,371.8522 196.9132,372.2846 195.1508,372.7208 193.3893,373.1607 191.6287,373.6044 189.8691,374.0518 188.1104,374.503 186.3527,374.958 184.5959,375.4168 182.8401,375.8793 181.0852,376.3455 179.3314,376.8156 177.5785,377.2893 175.8266,377.7669 174.0757,378.2481 172.3259,378.7332 170.577,379.222 168.8292,379.7145 167.0824,380.2107 165.3367,380.7108 163.592,381.2145 161.8484,381.722 160.1058,382.2332 158.3643,382.7482 156.6239,383.2668 154.8846,383.7892 153.1464,384.3154 151.4093,384.8452 149.6733,385.3788 147.9384,385.9161 146.2047,386.4571 144.4721,387.0019 142.7406,387.5503 141.0103,388.1025 139.2812,388.6583 137.5532,389.2179 135.8264,389.7812 134.1008,390.3481 132.3764,390.9188 130.6532,391.4932 128.9312,392.0712 127.2104,392.653 125.4908,393.2384 123.7725,393.8275 122.0554,394.4203 120.3395,395.0168 118.6249,395.617 116.9116,396.2208 115.1995,396.8283" stroke="silver" stroke-opacity="0.5" stroke-width="1" /><polyline fill="none" points="708.2309,330.9606 706.3776,330.3042 704.523,329.6518 702.6669,329.0033 700.8096,328.3588 698.9509,327.7183 697.0908,327.0817 695.2294,326.4492 693.3667,325.8206 691.5027,325.1961 689.6374,324.5755 687.7708,323.9589 685.9029,323.3463 684.0338,322.7377 682.1634,322.1331 680.2917,321.5325 678.4187,320.9359 676.5446,320.3434 674.6691,319.7548 672.7925,319.1703 670.9147,318.5898 669.0356,318.0133 667.1553,317.4408 665.2739,316.8723 663.3913,316.3079 661.5074,315.7475 659.6225,315.1911 657.7363,314.6388 655.8491,314.0905 653.9606,313.5462 652.0711,313.006 650.1804,312.4698 648.2886,311.9377 646.3957,311.4096 644.5017,310.8856 642.6066,310.3656 640.7105,309.8496 638.8132,309.3378 636.9149,308.8299 635.0155,308.3262 633.1151,307.8265 631.2137,307.3309 629.3112,306.8393 627.4077,306.3518 625.5032,305.8684 623.5977,305.389 621.6911,304.9137 619.7836,304.4425 617.8752,303.9754 615.9657,303.5124 614.0553,303.0534 612.1439,302.5985 610.2316,302.1478 608.3184,301.7011 606.4042,301.2584 604.4891,300.8199 602.5731,300.3855 600.6562,299.9552 598.7384,299.5289 596.8197,299.1068 594.9001,298.6887 592.9797,298.2748 591.0584,297.865 589.1362,297.4593 587.2132,297.0576 585.2894,296.6601 583.3648,296.2667 581.4393,295.8775 579.513,295.4923 577.586,295.1112 575.6581,294.7343 573.7295,294.3615 571.8001,293.9928 569.8699,293.6282 567.9389,293.2677 566.0073,292.9114 564.0748,292.5592 562.1417,292.2111 560.2078,291.8672 558.2732,291.5274 556.3379,291.1917 554.402,290.8601 552.4653,290.5327 550.5279,290.2094 548.5899,289.8903 546.6512,289.5753 544.7119,289.2644 542.7719,288.9577 540.8313,288.6551 538.89,288.3567 536.9482,288.0624 535.0057,287.7722 533.0626,287.4863 531.119,287.2044 529.1747,286.9267 527.2299,286.6532 525.2845,286.3838 523.3386,286.1185 521.3921,285.8574 519.445,285.6005 517.4975,285.3477 515.5494,285.0991 513.6008,284.8546 511.6517,284.6143 509.7021,284.3782 507.752,284.1462 505.8014,283.9184 503.8504,283.6948 501.8989,283.4753 499.9469,283.2599 497.9945,283.0488 496.0417,282.8418 494.0884,282.639 492.1347,282.4403 490.1806,282.2458 488.2261,282.0555 486.2712,281.8694 484.316,281.6874 482.3603,281.5096 480.4043,281.336 478.4479,281.1665 476.4912,281.0013 474.5342,280.8402 472.5768,280.6832 470.6191,280.5305 468.661,280.3819 466.7027,280.2375 464.7441,280.0973 462.7852,279.9613 460.826,279.8294 458.8665,279.7018 456.9068,279.5783 454.9468,279.459 452.9866,279.3438 451.0261,279.2329 449.0654,279.1261 447.1045,279.0236 445.1434,278.9252 443.1821,278.8309 441.2206,278.7409 439.2589,278.6551 437.297,278.5734 435.335,278.4959 433.3728,278.4227 431.4105,278.3536 429.448,278.2886 427.4854,278.2279 425.5226,278.1714 423.5598,278.119 421.5969,278.0709 419.6338,278.0269 417.6707,277.9871 415.7075,277.9515 413.7442,277.9201 411.7808,277.8928 409.8174,277.8698 407.854,277.851 405.8905,277.8363 403.927,277.8258 401.9635,277.8195 400.0,277.8175 398.0365,277.8195 396.073,277.8258 394.1095,277.8363 392.146,277.851 390.1826,277.8698 388.2192,277.8928 386.2558,277.9201 384.2925,277.9515 382.3293,277.9871 380.3662,278.0269 378.4031,278.0709 376.4402,278.119 374.4774,278.1714 372.5146,278.2279 370.552,278.2886 368.5895,278.3536 366.6272,278.4227 364.665,278.4959 362.703,278.5734 360.7411,278.6551 358.7794,278.7409 356.8179,278.8309 354.8566,278.9252 352.8955,279.0236 350.9346,279.1261 348.9739,279.2329 347.0134,279.3438 345.0532,279.459 343.0932,279.5783 341.1335,279.7018 339.174,279.8294 337.2148,279.9613 335.2559,280.0973 333.2973,280.2375 331.339,280.3819 329.3809,280.5305 327.4232,280.6832 325.4658,280.8402 323.5088,281.0013 321.5521,281.1665 319.5957,281.336 317.6397,281.5096 315.684,281.6874 313.7288,281.8694 311.7739,282.0555 309.8194,282.2458 307.8653,282.4403 305.9116,282.639 303.9583,282.8418 302.0055,283.0488 300.0531,283.2599 298.1011,283.4753 296.1496,283.6948 294.1986,283.9184 292.248,284.1462 290.2979,284.3782 288.3483,284.6143 286.3992,284.8546 284.4506,285.0991 282.5025,285.3477 280.555,285.6005 278.6079,285.8574 276.6614,286.1185 274.7155,286.3838 272.7701,286.6532 270.8253,286.9267 268.881,287.2044 266.9374,287.4863 264.9943,287.7722 263.0518,288.0624 261.11,288.3567 259.1687,288.6551 257.2281,288.9577 255.2881,289.2644 253.3488,289.5753 251.4101,289.8903 249.4721,290.2094 247.5347,290.5327 245.598,290.8601 243.6621,291.1917 241.7268,291.5274 239.7922,291.8672 237.8583,292.2111 235.9252,292.5592 233.9927,292.9114 232.0611,293.2677 230.1301,293.6282 228.1999,293.9928 226.2705,294.3615 224.3419,294.7343 222.414,295.1112 220.487,295.4923 218.5607,295.8775 216.6352,296.2667 214.7106,296.6601 212.7868,297.0576 210.8638,297.4593 208.9416,297.865 207.0203,298.2748 205.0999,298.6887 203.1803,299.1068 201.2616,299.5289 199.3438,299.9552 197.4269,300.3855 195.5109,300.8199 193.5958,301.2584 191.6816,301.7011 189.7684,302.1478 187.8561,302.5985 185.9447,303.0534 184.0343,303.5124 182.1248,303.9754 180.2164,304.4425 178.3089,304.9137 176.4023,305.389 174.4968,305.8684 172.5923,306.3518 170.6888,306.8393 168.7863,307.3309 166.8849,307.8265 164.9845,308.3262 163.0851,308.8299 161.1868,309.3378 159.2895,309.8496 157.3934,310.3656 155.4983,310.8856 153.6043,311.4096 151.7114,311.9377 149.8196,312.4698 147.9289,313.006 146.0394,313.5462 144.1509,314.0905 142.2637,314.6388 140.3775,315.1911 138.4926,315.7475 136.6087,316.3079 134.7261,316.8723 132.8447,317.4408 130.9644,318.0133 129.0853,318.5898 127.2075,319.1703 125.3309,319.7548 123.4554,320.3434 121.5813,320.9359 119.7083,321.5325 117.8366,322.1331 115.9662,322.7377 114.0971,323.3463 112.2292,323.9589 110.3626,324.5755 108.4973,325.1961 106.6333,325.8206 104.7706,326.4492 102.9092,327.0817 101.0491,327.7183 99.1904,328.3588 97.3331,329.0033 95.477,329.6518 93.6224,330.3042 91.7691,330.9606" stroke="silver" stroke-opacity="0.5" stroke-width="1" /><polyline fill="none" points="731.6316,265.0551 729.6372,264.35 727.6413,263.6492 725.644,262.9526 723.6452,262.2603 721.645,261.5723 719.6433,260.8886 717.6403,260.2092 715.6358,259.534 713.6299,258.8631 711.6227,258.1965 709.614,257.5342 707.604,256.8762 705.5926,256.2225 703.5799,255.5731 701.5658,254.928 699.5504,254.2872 697.5336,253.6508 695.5155,253.0186 693.4961,252.3907 691.4755,251.7672 689.4535,251.148 687.4302,250.5331 685.4057,249.9225 683.3798,249.3162 681.3528,248.7143 679.3245,248.1167 677.2949,247.5235 675.2641,246.9345 673.2321,246.35 671.1989,245.7697 669.1645,245.1938 667.1289,244.6223 665.0921,244.0551 663.0541,243.4922 661.0149,242.9337 658.9746,242.3796 656.9332,241.8298 654.8906,241.2843 652.8469,240.7433 650.8021,240.2066 648.7561,239.6742 646.7091,239.1463 644.6609,238.6227 642.6117,238.1034 640.5614,237.5886 638.51,237.0781 636.4576,236.572 634.4041,236.0703 632.3496,235.573 630.294,235.0801 628.2375,234.5915 626.1799,234.1073 624.1213,233.6276 622.0617,233.1522 620.0012,232.6812 617.9396,232.2146 615.8772,231.7524 613.8137,231.2946 611.7493,230.8412 609.684,230.3923 607.6177,229.9477 605.5505,229.5075 603.4824,229.0718 601.4134,228.6404 599.3435,228.2135 597.2727,227.791 595.2011,227.3729 593.1286,226.9592 591.0552,226.55 588.981,226.1451 586.9059,225.7447 584.8301,225.3487 582.7534,224.9572 580.6759,224.57 578.5975,224.1873 576.5184,223.8091 574.4386,223.4352 572.3579,223.0658 570.2765,222.7009 568.1943,222.3404 566.1114,221.9843 564.0278,221.6326 561.9434,221.2854 559.8583,220.9427 557.7725,220.6044 555.686,220.2705 553.5988,219.9411 551.5109,219.6161 549.4224,219.2956 547.3332,218.9796 545.2434,218.6679 543.1529,218.3608 541.0617,218.0581 538.97,217.7598 536.8776,217.4661 534.7846,217.1767 532.6911,216.8919 530.5969,216.6115 528.5022,216.3355 526.4069,216.0641 524.311,215.7971 522.2146,215.5345 520.1177,215.2764 518.0202,215.0228 515.9222,214.7737 513.8236,214.529 511.7246,214.2888 509.6251,214.0531 507.5251,213.8219 505.4246,213.5951 503.3237,213.3728 501.2223,213.155 499.1204,212.9416 497.0181,212.7328 494.9154,212.5284 492.8123,212.3285 490.7087,212.133 488.6048,211.9421 486.5004,211.7556 484.3957,211.5737 482.2906,211.3962 480.1851,211.2231 478.0793,211.0546 475.9732,210.8906 473.8667,210.731 471.7598,210.576 469.6527,210.4254 467.5452,210.2793 465.4375,210.1377 463.3295,210.0006 461.2211,209.8679 459.1126,209.7398 457.0037,209.6162 454.8946,209.497 452.7853,209.3824 450.6757,209.2722 448.5659,209.1665 446.4559,209.0653 444.3456,208.9687 442.2352,208.8765 440.1246,208.7888 438.0138,208.7056 435.9029,208.6269 433.7918,208.5527 431.6805,208.4829 429.5691,208.4177 427.4576,208.357 425.3459,208.3008 423.2341,208.2491 421.1223,208.2018 419.0103,208.1591 416.8983,208.1209 414.7861,208.0871 412.674,208.0579 410.5617,208.0331 408.4494,208.0129 406.3371,207.9972 404.2248,207.9859 402.1124,207.9792 400.0,207.9769 397.8876,207.9792 395.7752,207.9859 393.6629,207.9972 391.5506,208.0129 389.4383,208.0331 387.326,208.0579 385.2139,208.0871 383.1017,208.1209 380.9897,208.1591 378.8777,208.2018 376.7659,208.2491 374.6541,208.3008 372.5424,208.357 370.4309,208.4177 368.3195,208.4829 366.2082,208.5527 364.0971,208.6269 361.9862,208.7056 359.8754,208.7888 357.7648,208.8765 355.6544,208.9687 353.5441,209.0653 351.4341,209.1665 349.3243,209.2722 347.2147,209.3824 345.1054,209.497 342.9963,209.6162 340.8874,209.7398 338.7789,209.8679 336.6705,210.0006 334.5625,210.1377 332.4548,210.2793 330.3473,210.4254 328.2402,210.576 326.1333,210.731 324.0268,210.8906 321.9207,211.0546 319.8149,211.2231 317.7094,211.3962 315.6043,211.5737 313.4996,211.7556 311.3952,211.9421 309.2913,212.133 307.1877,212.3285 305.0846,212.5284 302.9819,212.7328 300.8796,212.9416 298.7777,213.155 296.6763,213.3728 294.5754,213.5951 292.4749,213.8219 290.3749,214.0531 288.2754,214.2888 286.1764,214.529 284.0778,214.7737 281.9798,215.0228 279.8823,215.2764 277.7854,215.5345 275.689,215.7971 273.5931,216.0641 271.4978,216.3355 269.4031,216.6115 267.3089,216.8919 265.2154,217.1767 263.1224,217.4661 261.03,217.7598 258.9383,218.0581 256.8471,218.3608 254.7566,218.6679 252.6668,218.9796 250.5776,219.2956 248.4891,219.6161 246.4012,219.9411 244.314,220.2705 242.2275,220.6044 240.1417,220.9427 238.0566,221.2854 235.9722,221.6326 233.8886,221.9843 231.8057,222.3404 229.7235,222.7009 227.6421,223.0658 225.5614,223.4352 223.4816,223.8091 221.4025,224.1873 219.3241,224.57 217.2466,224.9572 215.1699,225.3487 213.0941,225.7447 211.019,226.1451 208.9448,226.55 206.8714,226.9592 204.7989,227.3729 202.7273,227.791 200.6565,228.2135 198.5866,228.6404 196.5176,229.0718 194.4495,229.5075 192.3823,229.9477 190.316,230.3923 188.2507,230.8412 186.1863,231.2946 184.1228,231.7524 182.0604,232.2146 179.9988,232.6812 177.9383,233.1522 175.8787,233.6276 173.8201,234.1073 171.7625,234.5915 169.706,235.0801 167.6504,235.573 165.5959,236.0703 163.5424,236.572 161.49,237.0781 159.4386,237.5886 157.3883,238.1034 155.3391,238.6227 153.2909,239.1463 151.2439,239.6742 149.1979,240.2066 147.1531,240.7433 145.1094,241.2843 143.0668,241.8298 141.0254,242.3796 138.9851,242.9337 136.9459,243.4922 134.9079,244.0551 132.8711,244.6223 130.8355,245.1938 128.8011,245.7697 126.7679,246.35 124.7359,246.9345 122.7051,247.5235 120.6755,248.1167 118.6472,248.7143 116.6202,249.3162 114.5943,249.9225 112.5698,250.5331 110.5465,251.148 108.5245,251.7672 106.5039,252.3907 104.4845,253.0186 102.4664,253.6508 100.4496,254.2872 98.4342,254.928 96.4201,255.5731 94.4074,256.2225 92.396,256.8762 90.386,257.5342 88.3773,258.1965 86.3701,258.8631 84.3642,259.534 82.3597,260.2092 80.3567,260.8886 78.355,261.5723 76.3548,262.2603 74.356,262.9526 72.3587,263.6492 70.3628,264.35 68.3684,265.0551" stroke="silver" stroke-opacity="0.5" stroke-width="1" /><polyline fill="none" points="755.0059,199.1017 752.8705,198.3481 750.7335,197.5991 748.595,196.8547 746.4549,196.1149 744.3133,195.3796 742.1702,194.6489 740.0255,193.9227 737.8794,193.2012 735.7318,192.4842 733.5827,191.7719 731.4321,191.0641 729.2801,190.3609 727.1266,189.6623 724.9716,188.9683 722.8152,188.2788 720.6574,187.594 718.4982,186.9138 716.3376,186.2383 714.1756,185.5673 712.0122,184.9009 709.8474,184.2392 707.6812,183.582 705.5137,182.9295 703.3448,182.2817 701.1746,181.6384 699.0031,180.9998 696.8303,180.3658 694.6561,179.7365 692.4806,179.1117 690.3039,178.4917 688.1259,177.8762 685.9466,177.2654 683.766,176.6593 681.5842,176.0578 679.4011,175.461 677.2168,174.8688 675.0313,174.2813 672.8446,173.6984 670.6567,173.1202 668.4675,172.5467 666.2772,171.9778 664.0858,171.4136 661.8931,170.8541 659.6993,170.2992 657.5044,169.7491 655.3083,169.2036 653.1111,168.6627 650.9128,168.1266 648.7133,167.5951 646.5128,167.0684 644.3112,166.5463 642.1085,166.0289 639.9047,165.5162 637.6999,165.0082 635.4941,164.505 633.2872,164.0064 631.0792,163.5125 628.8703,163.0233 626.6603,162.5388 624.4494,162.059 622.2374,161.5839 620.0245,161.1136 617.8106,160.6479 615.5958,160.187 613.38,159.7308 611.1632,159.2793 608.9456,158.8325 606.727,158.3905 604.5075,157.9532 602.287,157.5206 600.0658,157.0927 597.8436,156.6696 595.6205,156.2512 593.3966,155.8375 591.1719,155.4286 588.9463,155.0244 586.7198,154.6249 584.4926,154.2302 582.2645,153.8402 580.0356,153.4549 577.8059,153.0744 575.5755,152.6987 573.3443,152.3277 571.1123,151.9614 568.8795,151.5999 566.6461,151.2432 564.4118,150.8912 562.1769,150.544 559.9412,150.2015 557.7049,149.8637 555.4678,149.5308 553.2301,149.2026 550.9917,148.8791 548.7526,148.5604 546.5129,148.2465 544.2725,147.9374 542.0315,147.633 539.7898,147.3333 537.5476,147.0385 535.3047,146.7484 533.0613,146.4631 530.8172,146.1826 528.5726,145.9068 526.3274,145.6358 524.0817,145.3696 521.8354,145.1082 519.5886,144.8515 517.3413,144.5997 515.0934,144.3526 512.845,144.1102 510.5962,143.8727 508.3468,143.64 506.097,143.412 503.8467,143.1888 501.5959,142.9704 499.3447,142.7568 497.0931,142.548 494.841,142.344 492.5885,142.1447 490.3357,141.9503 488.0824,141.7606 485.8287,141.5758 483.5746,141.3957 481.3202,141.2204 479.0654,141.0499 476.8103,140.8842 474.5549,140.7233 472.2991,140.5672 470.043,140.4159 467.7865,140.2694 465.5298,140.1277 463.2728,139.9908 461.0155,139.8587 458.758,139.7314 456.5002,139.6088 454.2421,139.4911 451.9838,139.3782 449.7253,139.2701 447.4665,139.1668 445.2076,139.0683 442.9484,138.9746 440.6891,138.8857 438.4296,138.8016 436.1699,138.7223 433.91,138.6478 431.6501,138.5781 429.3899,138.5132 427.1296,138.4532 424.8693,138.3979 422.6088,138.3474 420.3482,138.3018 418.0875,138.2609 415.8267,138.2249 413.5659,138.1936 411.305,138.1672 409.0441,138.1456 406.7831,138.1287 404.5221,138.1167 402.261,138.1095 400.0,138.1071 397.739,138.1095 395.4779,138.1167 393.2169,138.1287 390.9559,138.1456 388.695,138.1672 386.4341,138.1936 384.1733,138.2249 381.9125,138.2609 379.6518,138.3018 377.3912,138.3474 375.1307,138.3979 372.8704,138.4532 370.6101,138.5132 368.3499,138.5781 366.09,138.6478 363.8301,138.7223 361.5704,138.8016 359.3109,138.8857 357.0516,138.9746 354.7924,139.0683 352.5335,139.1668 350.2747,139.2701 348.0162,139.3782 345.7579,139.4911 343.4998,139.6088 341.242,139.7314 338.9845,139.8587 336.7272,139.9908 334.4702,140.1277 332.2135,140.2694 329.957,140.4159 327.7009,140.5672 325.4451,140.7233 323.1897,140.8842 320.9346,141.0499 318.6798,141.2204 316.4254,141.3957 314.1713,141.5758 311.9176,141.7606 309.6643,141.9503 307.4115,142.1447 305.159,142.344 302.9069,142.548 300.6553,142.7568 298.4041,142.9704 296.1533,143.1888 293.903,143.412 291.6532,143.64 289.4038,143.8727 287.155,144.1102 284.9066,144.3526 282.6587,144.5997 280.4114,144.8515 278.1646,145.1082 275.9183,145.3696 273.6726,145.6358 271.4274,145.9068 269.1828,146.1826 266.9387,146.4631 264.6953,146.7484 262.4524,147.0385 260.2102,147.3333 257.9685,147.633 255.7275,147.9374 253.4871,148.2465 251.2474,148.5604 249.0083,148.8791 246.7699,149.2026 244.5322,149.5308 242.2951,149.8637 240.0588,150.2015 237.8231,150.544 235.5882,150.8912 233.3539,151.2432 231.1205,151.5999 228.8877,151.9614 226.6557,152.3277 224.4245,152.6987 222.1941,153.0744 219.9644,153.4549 217.7355,153.8402 215.5074,154.2302 213.2802,154.6249 211.0537,155.0244 208.8281,155.4286 206.6034,155.8375 204.3795,156.2512 202.1564,156.6696 199.9342,157.0927 197.713,157.5206 195.4925,157.9532 193.273,158.3905 191.0544,158.8325 188.8368,159.2793 186.62,159.7308 184.4042,160.187 182.1894,160.6479 179.9755,161.1136 177.7626,161.5839 175.5506,162.059 173.3397,162.5388 171.1297,163.0233 168.9208,163.5125 166.7128,164.0064 164.5059,164.505 162.3001,165.0082 160.0953,165.5162 157.8915,166.0289 155.6888,166.5463 153.4872,167.0684 151.2867,167.5951 149.0872,168.1266 146.8889,168.6627 144.6917,169.2036 142.4956,169.7491 140.3007,170.2992 138.1069,170.8541 135.9142,171.4136 133.7228,171.9778 131.5325,172.5467 129.3433,173.1202 127.1554,173.6984 124.9687,174.2813 122.7832,174.8688 120.5989,175.461 118.4158,176.0578 116.234,176.6593 114.0534,177.2654 111.8741,177.8762 109.6961,178.4917 107.5194,179.1117 105.3439,179.7365 103.1697,180.3658 100.9969,180.9998 98.8254,181.6384 96.6552,182.2817 94.4863,182.9295 92.3188,183.582 90.1526,184.2392 87.9878,184.9009 85.8244,185.5673 83.6624,186.2383 81.5018,186.9138 79.3426,187.594 77.1848,188.2788 75.0284,188.9683 72.8734,189.6623 70.7199,190.3609 68.5679,191.0641 66.4173,191.7719 64.2682,192.4842 62.1206,193.2012 59.9745,193.9227 57.8298,194.6489 55.6867,195.3796 53.5451,196.1149 51.405,196.8547 49.2665,197.5991 47.1295,198.3481 44.9941,199.1017" stroke="silver" stroke-opacity="0.5" stroke-width="1" /><line fill="none" stroke="green" stroke-opacity="0.5" stroke-width="1.5" x1="555.4401" x2="538.7409" y1="425.8179" y2="324.9136" /><circle cx="735.681" cy="238.2985" fill="black" r="0.738" stroke="none" /><circle cx="662.8854" cy="441.8706" fill="black" r="0.738" stroke="none" /><circle cx="688.4943" cy="359.4605" fill="black" r="0.738" stroke="none" /><circle cx="592.6281" cy="626.5738" fill="black" r="0.738" stroke="none" /><circle cx="609.8698" cy="561.6502" fill="black" r="0.738" stroke="none" /><circle cx="683.0593" cy="339.8506" fill="black" r="0.738" stroke="none" /><circle cx="635.6044" cy="472.933" fill="black" r="0.738" stroke="none" /><circle cx="697.293" cy="272.3573" fill="black" r="0.738" stroke="none" /><circle cx="671.5883" cy="339.9628" fill="black" r="0.738" stroke="none" /><circle cx="671.7009" cy="336.3332" fill="black" r="0.738" stroke="none" /><circle cx="628.9227" cy="454.4614" fill="black" r="0.738" stroke="none" /><circle cx="708.1585" cy="185.6272" fill="black" r="0.738" stroke="none" /><circle cx="701.9002" cy="186.3775" fill="black" r="0.738" stroke="none" /><circle cx="695.5394" cy="201.347" fill="black" r="0.738" stroke="none" /><circle cx="661.8894" cy="280.1181" fill="black" r="0.738" stroke="none" /><circle cx="555.7564" cy="643.1819" fill="black" r="0.738" stroke="none" /><circle cx="625.0575" cy="387.6508" fill="black" r="0.738" stroke="none" /><circle cx="573.804" cy="566.8019" fill="black" r="0.738" stroke="none" /><circle cx="592.3903" cy="480.7648" fill="black" r="0.738" stroke="none" /><circle cx="634.7872" cy="318.7495" fill="black" r="0.738" stroke="none" /><circle cx="631.0284" cy="316.1652" fill="black" r="0.738" stroke="none" /><circle cx="601.9091" cy="422.1458" fill="black" r="1.476" stroke="none" /><circle cx="602.0886" cy="420.099" fill="black" r="1.17" stroke="none" /><circle cx="577.7528" cy="497.8687" fill="black" r="0.738" stroke="none" /><circle cx="560.1834" cy="559.2882" fill="black" r="0.738" stroke="none" /><circle cx="632.9809" cy="269.989" fill="black" r="0.738" stroke="none" /><circle cx="646.1029" cy="215.842" fill="black" r="0.738" stroke="none" /><circle cx="639.3248" cy="235.4796" fill="black" r="0.738" stroke="none" /><circle cx="608.9621" cy="335.1008" fill="black" r="0.738" stroke="none" /><circle cx="543.4079" cy="585.0376" fill="black" r="0.738" stroke="none" /><circle cx="584.2836" cy="408.3581" fill="black" r="0.738" stroke="none" /><circle cx="526.5211" cy="638.5088" fill="black" r="0.738" stroke="none" /><circle cx="589.6091" cy="342.7292" fill="black" r="0.738" stroke="none" /><circle cx="551.6838" cy="510.6779" fill="black" r="0.738" stroke="none" /><circle cx="621.7407" cy="176.2108" fill="black" r="0.738" stroke="none" /><circle cx="543.5072" cy="524.9082" fill="black" r="0.738" stroke="none" /><circle cx="597.6836" cy="253.2761" fill="black" r="0.738" stroke="none" /><circle cx="592.9606" cy="263.2861" fill="black" r="0.738" stroke="none" /><circle cx="597.369" cy="224.2451" fill="black" r="0.738" stroke="none" /><circle cx="555.4365" cy="425.8015" fill="black" r="1.476" stroke="none" /><circle cx="525.6071" cy="564.5724" fill="black" r="0.738" stroke="none" /><circle cx="560.8427" cy="344.8814" fill="black" r="0.738" stroke="none" /><circle cx="564.7914" cy="317.2665" fill="black" r="0.738" stroke="none" /><circle cx="547.0725" cy="380.265" fill="black" r="0.738" stroke="none" /><circle cx="577.8878" cy="187.7774" fill="black" r="0.738" stroke="none" /><circle cx="539.198" cy="399.9324" fill="black" r="0.738" stroke="none" /><circle cx="570.0814" cy="160.2934" fill="black" r="0.738" stroke="none" /><circle cx="540.4869" cy="327.28" fill="black" r="0.738" stroke="none" /><circle cx="522.8442" cy="428.9121" fill="black" r="0.936" stroke="none" /><circle cx="538.7489" cy="324.8795" fill="black" r="1.476" stroke="none" /><circle cx="496.9711" cy="550.4069" fill="black" r="0.738" stroke="none" /><circle cx="551.6672" cy="182.6735" fill="black" r="0.738" stroke="none" /><circle cx="493.713" cy="519.0952" fill="black" r="0.738" stroke="none" /><circle cx="499.3869" cy="470.6724" fill="black" r="0.738" stroke="none" /><circle cx="524.6073" cy="190.0623" fill="black" r="0.738" stroke="none" /><circle cx="500.3225" cy="336.6422" fill="black" r="0.738" stroke="none" /><circle cx="468.6388" cy="602.6413" fill="black" r="0.738" stroke="none" /><circle cx="481.1936" cy="406.4698" fill="black" r="0.738" stroke="none" /><circle cx="492.251" cy="241.6064" fill="black" r="0.738" stroke="none" /><circle cx="465.5433" cy="495.4353" fill="black" r="0.738" stroke="none" /><circle cx="460.1541" cy="495.8617" fill="black" r="0.738" stroke="none" /><circle cx="479.3131" cy="226.5012" fill="black" r="0.738" stroke="none" /><circle cx="477.4472" cy="238.2635" fill="black" r="0.738" stroke="none" /><circle cx="476.8981" cy="210.3314" fill="black" r="0.738" stroke="none" /><circle cx="446.7263" cy="589.2901" fill="black" r="0.738" stroke="none" /><circle cx="459.262" cy="355.3093" fill="black" r="0.738" stroke="none" /><circle cx="452.3965" cy="452.1124" fill="black" r="0.738" stroke="none" /><circle cx="461.8686" cy="274.3698" fill="black" r="0.738" stroke="none" /><circle cx="454.2387" cy="382.5377" fill="black" r="0.738" stroke="none" /><circle cx="440.9767" cy="564.4409" fill="black" r="0.738" stroke="none" /><circle cx="451.5867" cy="281.5723" fill="black" r="0.738" stroke="none" /><circle cx="452.7331" cy="225.0491" fill="black" r="0.936" stroke="none" /><circle cx="448.5994" cy="213.2946" fill="black" r="0.738" stroke="none" /><circle cx="428.5152" cy="580.3232" fill="black" r="0.738" stroke="none" /><circle cx="447.5368" cy="143.6473" fill="black" r="0.738" stroke="none" /><circle cx="423.6698" cy="649.7606" fill="black" r="0.738" stroke="none" /><circle cx="442.8889" cy="165.3398" fill="black" r="0.738" stroke="none" /><circle cx="432.1694" cy="215.7672" fill="black" r="0.738" stroke="none" /><circle cx="422.507" cy="494.5444" fill="black" r="0.738" stroke="none" /><circle cx="416.401" cy="654.316" fill="black" r="0.738" stroke="none" /><circle cx="425.5477" cy="157.987" fill="black" r="0.738" stroke="none" /><circle cx="416.8279" cy="422.314" fill="black" r="0.738" stroke="none" /><circle cx="417.3054" cy="392.1578" fill="black" r="0.738" stroke="none" /><circle cx="416.4809" cy="375.661" fill="black" r="0.738" stroke="none" /><circle cx="419.4233" cy="171.972" fill="black" r="0.738" stroke="none" /><circle cx="410.0166" cy="412.3512" fill="black" r="0.738" stroke="none" /><circle cx="406.3848" cy="569.4946" fill="black" r="0.738" stroke="none" /><circle cx="400.8951" cy="352.2477" fill="black" r="0.738" stroke="none" /><circle cx="394.7557" cy="422.009" fill="black" r="0.738" stroke="none" /><circle cx="392.7872" cy="291.3229" fill="black" r="0.738" stroke="none" /><circle cx="390.2261" cy="162.4718" fill="black" r="0.738" stroke="none" /><circle cx="389.1558" cy="277.3925" fill="black" r="0.738" stroke="none" /><circle cx="387.2109" cy="232.5783" fill="black" r="0.738" stroke="none" /><circle cx="381.3041" cy="221.0779" fill="black" r="0.738" stroke="none" /><circle cx="378.7161" cy="141.256" fill="black" r="0.738" stroke="none" /><circle cx="374.494" cy="166.1639" fill="black" r="0.738" stroke="none" /><circle cx="383.3924" cy="533.7741" fill="black" r="0.738" stroke="none" /><circle cx="367.9292" cy="314.7089" fill="black" r="0.738" stroke="none" /><circle cx="372.0701" cy="476.8516" fill="black" r="0.738" stroke="none" /><circle cx="372.2073" cy="600.4293" fill="black" r="0.738" stroke="none" /><circle cx="368.2377" cy="548.0342" fill="black" r="1.17" stroke="none" /><circle cx="350.3798" cy="319.4376" fill="black" r="0.738" stroke="none" /><circle cx="359.2348" cy="526.22" fill="black" r="0.738" stroke="none" /><circle cx="360.1319" cy="563.1099" fill="black" r="0.738" stroke="none" /><circle cx="344.6224" cy="337.5528" fill="black" r="0.738" stroke="none" /><circle cx="336.0974" cy="271.2882" fill="black" r="0.738" stroke="none" /><circle cx="327.1414" cy="170.8687" fill="black" r="0.738" stroke="none" /><circle cx="360.8294" cy="658.5084" fill="black" r="0.738" stroke="none" /><circle cx="337.7598" cy="536.4376" fill="black" r="0.738" stroke="none" /><circle cx="326.9475" cy="454.4205" fill="black" r="0.738" stroke="none" /><circle cx="319.9202" cy="400.0402" fill="black" r="0.738" stroke="none" /><circle cx="296.3565" cy="191.0689" fill="black" r="0.738" stroke="none" /><circle cx="304.9423" cy="307.5974" fill="black" r="0.738" stroke="none" /><circle cx="312.3333" cy="389.5319" fill="black" r="0.738" stroke="none" /><circle cx="312.3083" cy="389.8155" fill="black" r="0.738" stroke="none" /><circle cx="306.3408" cy="372.2135" fill="black" r="0.738" stroke="none" /><circle cx="295.4928" cy="289.5339" fill="black" r="0.738" stroke="none" /><circle cx="334.5862" cy="645.9532" fill="black" r="0.738" stroke="none" /><circle cx="330.2448" cy="623.8845" fill="black" r="0.738" stroke="none" /><circle cx="285.9561" cy="301.6633" fill="black" r="0.738" stroke="none" /><circle cx="276.2182" cy="229.9558" fill="black" r="0.738" stroke="none" /><circle cx="278.568" cy="257.685" fill="black" r="0.738" stroke="none" /><circle cx="300.9448" cy="444.2767" fill="black" r="0.738" stroke="none" /><circle cx="270.2537" cy="220.5865" fill="black" r="0.738" stroke="none" /><circle cx="251.2103" cy="149.9777" fill="black" r="0.738" stroke="none" /><circle cx="290.2813" cy="428.1927" fill="black" r="0.738" stroke="none" /><circle cx="248.7618" cy="165.7249" fill="black" r="0.738" stroke="none" /><circle cx="266.3242" cy="326.9848" fill="black" r="0.738" stroke="none" /><circle cx="311.8211" cy="638.761" fill="black" r="0.738" stroke="none" /><circle cx="243.3985" cy="233.0138" fill="black" r="0.936" stroke="none" /><circle cx="301.4084" cy="596.8459" fill="black" r="0.738" stroke="none" /><circle cx="247.02" cy="289.2734" fill="black" r="0.738" stroke="none" /><circle cx="255.7964" cy="347.5043" fill="black" r="0.936" stroke="none" /><circle cx="256.2141" cy="386.8424" fill="black" r="0.738" stroke="none" /><circle cx="214.517" cy="203.3561" fill="black" r="0.738" stroke="none" /><circle cx="204.6542" cy="156.3421" fill="black" r="0.738" stroke="none" /><circle cx="252.0067" cy="410.4733" fill="black" r="0.738" stroke="none" /><circle cx="233.4885" cy="312.259" fill="black" r="0.738" stroke="none" /><circle cx="205.1356" cy="165.0725" fill="black" r="0.738" stroke="none" /><circle cx="273.5333" cy="543.3813" fill="black" r="0.738" stroke="none" /><circle cx="283.2319" cy="602.492" fill="black" r="0.936" stroke="none" /><circle cx="204.3473" cy="235.5203" fill="black" r="0.738" stroke="none" /><circle cx="255.7366" cy="490.5958" fill="black" r="0.738" stroke="none" /><circle cx="183.3412" cy="167.9082" fill="black" r="0.738" stroke="none" /><circle cx="270.7186" cy="600.1717" fill="black" r="0.738" stroke="none" /><circle cx="233.7958" cy="434.4878" fill="black" r="0.738" stroke="none" /><circle cx="175.8447" cy="175.4478" fill="black" r="0.738" stroke="none" /><circle cx="175.8695" cy="175.7286" fill="black" r="0.738" stroke="none" /><circle cx="183.4614" cy="224.1662" fill="black" r="0.936" stroke="none" /><circle cx="225.6065" cy="436.6813" fill="black" r="0.738" stroke="none" /><circle cx="215.8872" cy="405.3056" fill="black" r="0.738" stroke="none" /><circle cx="257.5227" cy="586.1824" fill="black" r="0.738" stroke="none" /><circle cx="167.8721" cy="203.264" fill="black" r="0.738" stroke="none" /><circle cx="206.5128" cy="386.345" fill="black" r="0.738" stroke="none" /><circle cx="264.5199" cy="632.0726" fill="black" r="0.738" stroke="none" /><circle cx="237.5875" cy="521.7697" fill="black" r="0.738" stroke="none" /><circle cx="178.8737" cy="280.8204" fill="black" r="0.738" stroke="none" /><circle cx="192.9191" cy="339.5336" fill="black" r="0.738" stroke="none" /><circle cx="184.8981" cy="308.6231" fill="black" r="0.738" stroke="none" /><circle cx="164.8239" cy="241.4398" fill="black" r="0.738" stroke="none" /><circle cx="170.3024" cy="276.9485" fill="black" r="0.738" stroke="none" /><circle cx="241.9896" cy="587.5868" fill="black" r="0.738" stroke="none" /><circle cx="142.3401" cy="205.218" fill="black" r="0.738" stroke="none" /><circle cx="177.8028" cy="353.5076" fill="black" r="0.738" stroke="none" /><circle cx="223.2984" cy="526.9748" fill="black" r="0.738" stroke="none" /><circle cx="116.5855" cy="179.7559" fill="black" r="1.17" stroke="none" /><circle cx="171.8535" cy="405.81" fill="black" r="0.738" stroke="none" /><circle cx="200.3061" cy="510.7531" fill="black" r="0.738" stroke="none" /><circle cx="138.8184" cy="306.3976" fill="black" r="0.738" stroke="none" /><circle cx="185.3083" cy="467.2423" fill="black" r="0.738" stroke="none" /><circle cx="103.0647" cy="198.2584" fill="black" r="0.738" stroke="none" /><circle cx="141.7935" cy="341.4598" fill="black" r="0.738" stroke="none" /><circle cx="165.419" cy="425.0623" fill="black" r="0.738" stroke="none" /><circle cx="159.556" cy="407.3452" fill="black" r="0.738" stroke="none" /><circle cx="197.652" cy="533.8665" fill="black" r="0.936" stroke="none" /><circle cx="121.7437" cy="297.3716" fill="black" r="0.738" stroke="none" /><circle cx="80.1456" cy="235.3544" fill="black" r="0.738" stroke="none" /><circle cx="162.2164" cy="501.0004" fill="black" r="0.738" stroke="none" /><circle cx="93.8248" cy="314.16" fill="black" r="0.738" stroke="none" /><circle cx="84.3073" cy="296.4441" fill="black" r="0.738" stroke="none" /><circle cx="13.77" cy="786.23" fill="black" r="4.59" stroke="none" /><circle cx="13.77" cy="786.23" fill="black" r="4.59" stroke="none" /><text fill="black" font-family="monospace" font-size="12" x="10.77" y="775.64">1</text><circle cx="37.77" cy="786.23" fill="black" r="3.654" stroke="none" /><circle cx="37.77" cy="786.23" fill="black" r="3.654" stroke="none" /><text fill="black" font-family="monospace" font-size="12" x="34.769999999999996" y="775.64">2</text><circle cx="61.77" cy="786.23" fill="black" r="2.916" stroke="none" /><circle cx="61.77" cy="786.23" fill="black" r="2.916" stroke="none" /><text fill="black" font-family="monospace" font-size="12" x="58.769999999999996" y="775.64">3</text><circle cx="85.77" cy="786.23" fill="black" r="2.322" stroke="none" /><circle cx="85.77" cy="786.23" fill="black" r="2.322" stroke="none" /><text fill="black" font-family="monospace" font-size="12" x="82.77" y="775.64">4</text><circle cx="109.77" cy="786.23" fill="black" r="1.854" stroke="none" /><circle cx="109.77" cy="786.23" fill="black" r="1.854" stroke="none" /><text fill="black" font-family="monospace" font-size="12" x="106.77" y="775.64">5</text><circle cx="133.77" cy="786.23" fill="black" r="1.476" stroke="none" /><circle cx="133.77" cy="786.23" fill="black" r="1.476" stroke="none" /><text fill="black" font-family="monospace" font-size="12" x="130.77" y="775.64">6</text><circle cx="157.77" cy="786.23" fill="black" r="1.17" stroke="none" /><circle cx="157.77" cy="786.23" fill="black" r="1.17" stroke="none" /><text fill="black" font-family="monospace" font-size="12" x="154.77" y="775.64">7</text><circle cx="181.77" cy="786.23" fill="black" r="0.936" stroke="none" /><circle cx="181.77" cy="786.23" fill="black" r="0.936" stroke="none" /><text fill="black" font-family="monospace" font-size="12" x="178.77" y="775.64">8</text><circle cx="205.77" cy="786.23" fill="black" r="0.738" stroke="none" /><circle cx="205.77" cy="786.23" fill="black" r="0.738" stroke="none" /><text fill="black" font-family="monospace" font-size="12" x="202.77" y="775.64">9</text><text fill="gray" fill-opacity="0.5" font-family="monospace" font-size="12" x="755.0058702638389" y="199.10166149049988">16h00m</text><text fill="gray" fill-opacity="0.5" font-family="monospace" font-size="12" x="624.4493788509026" y="162.05901032292573">16h30m</text><text fill="gray" fill-opacity="0.5" font-family="monospace" font-size="12" x="490.33565084566976" y="141.95028122585109">17h00m</text><text fill="gray" fill-opacity="0.5" font-family="monospace" font-size="12" x="354.7924044918918" y="139.0682959506766">17h30m</text><text fill="gray" fill-opacity="0.5" font-family="monospace" font-size="12" x="219.96438988529957" y="153.45494337440792">18h00m</text><text fill="gray" fill-opacity="0.5" font-family="monospace" font-size="12" x="87.98784529569747" y="184.90092172971623">18h30m</text><text fill="gray" fill-opacity="0.5" font-family="monospace" font-size="12" x="209.29048609965167" y="660.1208651717577">-82</text><text fill="gray" fill-opacity="0.5" font-family="monospace" font-size="12" x="185.7052346048379" y="594.3044857844508">-81</text><text fill="gray" fill-opacity="0.5" font-family="monospace" font-size="12" x="162.16404836159757" y="528.4902633192787">-80</text><text fill="gray" fill-opacity="0.5" font-family="monospace" font-size="12" x="138.66333358310771" y="462.66821066596253">-79</text><text fill="gray" fill-opacity="0.5" font-family="monospace" font-size="12" x="115.19952110048541" y="396.828335938156">-78</text><text fill="gray" fill-opacity="0.5" font-family="monospace" font-size="12" x="91.76906419743841" y="330.96063641596515">-77</text><text fill="gray" fill-opacity="0.5" font-family="monospace" font-size="12" x="68.36843647393312" y="265.05509247447856">-76</text><text fill="gray" fill-opacity="0.5" font-family="monospace" font-size="12" x="44.994129736161995" y="199.10166149049954">-75</text><text fill="black" font-family="monospace" font-size="12" x="12" y="48">&gt;&gt; No.52 16h00m 18h40m -82.5-75.0</text><a target="_self" xlink:href="hip005.svg"><text fill="black" font-family="monospace" font-size="12" x="12" y="36">&gt; No.5 16h00m 24h00m -90.0-52.5</text></a><a target="_self" xlink:href="hip001.svg"><text fill="black" font-family="monospace" font-size="12" x="12" y="24">No.1 00h 24h -90.0+0.0</text></a><polyline fill="none" points="755.0059,199.1017 752.8705,198.3481 750.7335,197.5991 748.595,196.8547 746.4549,196.1149 744.3133,195.3796 742.1702,194.6489 740.0255,193.9227 737.8794,193.2012 735.7318,192.4842 733.5827,191.7719 731.4321,191.0641 729.2801,190.3609 727.1266,189.6623 724.9716,188.9683 722.8152,188.2788 720.6574,187.594 718.4982,186.9138 716.3376,186.2383 714.1756,185.5673 712.0122,184.9009 709.8474,184.2392 707.6812,183.582 705.5137,182.9295 703.3448,182.2817 701.1746,181.6384 699.0031,180.9998 696.8303,180.3658 694.6561,179.7365 692.4806,179.1117 690.3039,178.4917 688.1259,177.8762 685.9466,177.2654 683.766,176.6593 681.5842,176.0578 679.4011,175.461 677.2168,174.8688 675.0313,174.2813 672.8446,173.6984 670.6567,173.1202 668.4675,172.5467 666.2772,171.9778 664.0858,171.4136 661.8931,170.8541 659.6993,170.2992 657.5044,169.7491 655.3083,169.2036 653.1111,168.6627 650.9128,168.1266 648.7133,167.5951 646.5128,167.0684 644.3112,166.5463 642.1085,166.0289 639.9047,165.5162 637.6999,165.0082 635.4941,164.505 633.2872,164.0064 631.0792,163.5125 628.8703,163.0233 626.6603,162.5388 624.4494,162.059 622.2374,161.5839 620.0245,161.1136 617.8106,160.6479 615.5958,160.187 613.38,159.7308 611.1632,159.2793 608.9456,158.8325 606.727,158.3905 604.5075,157.9532 602.287,157.5206 600.0658,157.0927 597.8436,156.6696 595.6205,156.2512 593.3966,155.8375 591.1719,155.4286 588.9463,155.0244 586.7198,154.6249 584.4926,154.2302 582.2645,153.8402 580.0356,153.4549 577.8059,153.0744 575.5755,152.6987 573.3443,152.3277 571.1123,151.9614 568.8795,151.5999 566.6461,151.2432 564.4118,150.8912 562.1769,150.544 559.9412,150.2015 557.7049,149.8637 555.4678,149.5308 553.2301,149.2026 550.9917,148.8791 548.7526,148.5604 546.5129,148.2465 544.2725,147.9374 542.0315,147.633 539.7898,147.3333 537.5476,147.0385 535.3047,146.7484 533.0613,146.4631 530.8172,146.1826 528.5726,145.9068 526.3274,145.6358 524.0817,145.3696 521.8354,145.1082 519.5886,144.8515 517.3413,144.5997 515.0934,144.3526 512.845,144.1102 510.5962,143.8727 508.3468,143.64 506.097,143.412 503.8467,143.1888 501.5959,142.9704 499.3447,142.7568 497.0931,142.548 494.841,142.344 492.5885,142.1447 490.3357,141.9503 488.0824,141.7606 485.8287,141.5758 483.5746,141.3957 481.3202,141.2204 479.0654,141.0499 476.8103,140.8842 474.5549,140.7233 472.2991,140.5672 470.043,140.4159 467.7865,140.2694 465.5298,140.1277 463.2728,139.9908 461.0155,139.8587 458.758,139.7314 456.5002,139.6088 454.2421,139.4911 451.9838,139.3782 449.7253,139.2701 447.4665,139.1668 445.2076,139.0683 442.9484,138.9746 440.6891,138.8857 438.4296,138.8016 436.1699,138.7223 433.91,138.6478 431.6501,138.5781 429.3899,138.5132 427.1296,138.4532 424.8693,138.3979 422.6088,138.3474 420.3482,138.3018 418.0875,138.2609 415.8267,138.2249 413.5659,138.1936 411.305,138.1672 409.0441,138.1456 406.7831,138.1287 404.5221,138.1167 402.261,138.1095 400.0,138.1071 397.739,138.1095 395.4779,138.1167 393.2169,138.1287 390.9559,138.1456 388.695,138.1672 386.4341,138.1936 384.1733,138.2249 381.9125,138.2609 379.6518,138.3018 377.3912,138.3474 375.1307,138.3979 372.8704,138.4532 370.6101,138.5132 368.3499,138.5781 366.09,138.6478 363.8301,138.7223 361.5704,138.8016 359.3109,138.8857 357.0516,138.9746 354.7924,139.0683 352.5335,139.1668 350.2747,139.2701 348.0162,139.3782 345.7579,139.4911 343.4998,139.6088 341.242,139.7314 338.9845,139.8587 336.7272,139.9908 334.4702,140.1277 332.2135,140.2694 329.957,140.4159 327.7009,140.5672 325.4451,140.7233 323.1897,140.8842 320.9346,141.0499 318.6798,141.2204 316.4254,141.3957 314.1713,141.5758 311.9176,141.7606 309.6643,141.9503 307.4115,142.1447 305.159,142.344 302.9069,142.548 300.6553,142.7568 298.4041,142.9704 296.1533,143.1888 293.903,143.412 291.6532,143.64 289.4038,143.8727 287.155,144.1102 284.9066,144.3526 282.6587,144.5997 280.4114,144.8515 278.1646,145.1082 275.9183,145.3696 273.6726,145.6358 271.4274,145.9068 269.1828,146.1826 266.9387,146.4631 264.6953,146.7484 262.4524,147.0385 260.2102,147.3333 257.9685,147.633 255.7275,147.9374 253.4871,148.2465 251.2474,148.5604 249.0083,148.8791 246.7699,149.2026 244.5322,149.5308 242.2951,149.8637 240.0588,150.2015 237.8231,150.544 235.5882,150.8912 233.3539,151.2432 231.1205,151.5999 228.8877,151.9614 226.6557,152.3277 224.4245,152.6987 222.1941,153.0744 219.9644,153.4549 217.7355,153.8402 215.5074,154.2302 213.2802,154.6249 211.0537,155.0244 208.8281,155.4286 206.6034,155.8375 204.3795,156.2512 202.1564,156.6696 199.9342,157.0927 197.713,157.5206 195.4925,157.9532 193.273,158.3905 191.0544,158.8325 188.8368,159.2793 186.62,159.7308 184.4042,160.187 182.1894,160.6479 179.9755,161.1136 177.7626,161.5839 175.5506,162.059 173.3397,162.5388 171.1297,163.0233 168.9208,163.5125 166.7128,164.0064 164.5059,164.505 162.3001,165.0082 160.0953,165.5162 157.8915,166.0289 155.6888,166.5463 153.4872,167.0684 151.2867,167.5951 149.0872,168.1266 146.8889,168.6627 144.6917,169.2036 142.4956,169.7491 140.3007,170.2992 138.1069,170.8541 135.9142,171.4136 133.7228,171.9778 131.5325,172.5467 129.3433,173.1202 127.1554,173.6984 124.9687,174.2813 122.7832,174.8688 120.5989,175.461 118.4158,176.0578 116.234,176.6593 114.0534,177.2654 111.8741,177.8762 109.6961,178.4917 107.5194,179.1117 105.3439,179.7365 103.1697,180.3658 100.9969,180.9998 98.8254,181.6384 96.6552,182.2817 94.4863,182.9295 92.3188,183.582 90.1526,184.2392 87.9878,184.9009 85.8244,185.5673 83.6624,186.2383 81.5018,186.9138 79.3426,187.594 77.1848,188.2788 75.0284,188.9683 72.8734,189.6623 70.7199,190.3609 68.5679,191.0641 66.4173,191.7719 64.2682,192.4842 62.1206,193.2012 59.9745,193.9227 57.8298,194.6489 55.6867,195.3796 53.5451,196.1149 51.405,196.8547 49.2665,197.5991 47.1295,198.3481 44.9941,199.1017" stroke="black" stroke-opacity="0.5" stroke-width="1" /><polyline fill="none" points="578.8992,693.033 581.8529,684.8046 584.8059,676.5765 587.7581,668.3486 590.7095,660.1209 593.6602,651.8934 596.6102,643.666 599.5594,635.4388 602.5079,627.2118 605.4557,618.9848 608.4027,610.758 611.3491,602.5312 614.2948,594.3045 617.2397,586.0778 620.1841,577.8511 623.1277,569.6244 626.0706,561.3977 629.0129,553.171 631.9546,544.9442 634.8956,536.7173 637.836,528.4903 640.7757,520.2631 643.7148,512.0359 646.6533,503.8084 649.5911,495.5808 652.5284,487.353 655.4651,479.125 658.4012,470.8967 661.3367,462.6682 664.2716,454.4394 667.2059,446.2103 670.1397,437.9809 673.073,429.7511 676.0056,421.521 678.9378,413.2905 681.8694,405.0596 684.8005,396.8283 687.731,388.5966 690.6611,380.3644 693.5906,372.1317 696.5197,363.8986 699.4482,355.6649 702.3763,347.4307 705.3038,339.196 708.2309,330.9606 711.1576,322.7247 714.0838,314.4882 717.0095,306.251 719.9348,298.0132 722.8596,289.7747 725.784,281.5356 728.708,273.2957 731.6316,265.0551 734.5547,256.8137 737.4775,248.5716 740.3998,240.3287 743.3218,232.085 746.2434,223.8404 749.1646,215.5951 752.0854,207.3488 755.0059,199.1017" stroke="black" stroke-opacity="0.5" stroke-width="1" /><polyline fill="none" points="578.8992,693.033 577.8248,692.6486 576.7495,692.2664 575.6735,691.8867 574.5966,691.5092 573.5189,691.1341 572.4404,690.7613 571.3612,690.3908 570.2811,690.0226 569.2003,689.6568 568.1187,689.2933 567.0363,688.9322 565.9531,688.5734 564.8692,688.2169 563.7845,687.8627 562.6991,687.511 561.613,687.1615 560.5261,686.8144 559.4384,686.4696 558.3501,686.1272 557.261,685.7872 556.1711,685.4494 555.0806,685.1141 553.9894,684.7811 552.8974,684.4504 551.8048,684.1221 550.7114,683.7962 549.6174,683.4726 548.5226,683.1514 547.4272,682.8325 546.3311,682.516 545.2344,682.2019 544.137,681.8902 543.0389,681.5808 541.9402,681.2737 540.8408,680.9691 539.7407,680.6668 538.6401,680.3669 537.5388,680.0694 536.4368,679.7742 535.3343,679.4814 534.2311,679.191 533.1273,678.903 532.0229,678.6173 530.9178,678.3341 529.8122,678.0532 528.706,677.7747 527.5992,677.4986 526.4918,677.2249 525.3839,676.9536 524.2753,676.6846 523.1662,676.4181 522.0565,676.1539 520.9463,675.8921 519.8355,675.6328 518.7242,675.3758 517.6123,675.1212 516.4999,674.869 515.3869,674.6192 514.2735,674.3719 513.1594,674.1269 512.0449,673.8843 510.9299,673.6441 509.8143,673.4063 508.6983,673.171 507.5817,672.938 506.4647,672.7075 505.3472,672.4793 504.2292,672.2536 503.1107,672.0302 501.9917,671.8093 500.8723,671.5908 499.7524,671.3747 498.6321,671.1611 497.5113,670.9498 496.39,670.7409 495.2683,670.5345 494.1462,670.3305 493.0237,670.1289 491.9007,669.9297 490.7773,669.733 489.6535,669.5387 488.5292,669.3467 487.4046,669.1573 486.2796,668.9702 485.1541,668.7856 484.0283,668.6033 482.9021,668.4236 481.7755,668.2462 480.6486,668.0713 479.5213,667.8988 478.3936,667.7287 477.2655,667.561 476.1371,667.3958 475.0084,667.2331 473.8793,667.0727 472.7498,666.9148 471.6201,666.7593 470.49,666.6063 469.3596,666.4556 468.2288,666.3075 467.0978,666.1617 465.9664,666.0184 464.8348,665.8776 463.7028,665.7391 462.5706,665.6031 461.438,665.4696 460.3052,665.3385 459.1721,665.2098 458.0388,665.0836 456.9051,664.9598 455.7713,664.8385 454.6371,664.7196 453.5027,664.6031 452.3681,664.4891 451.2332,664.3775 450.0981,664.2684 448.9628,664.1617 447.8272,664.0575 446.6914,663.9557 445.5554,663.8564 444.4192,663.7595 443.2828,663.665 442.1462,663.573 441.0094,663.4835 439.8724,663.3964 438.7352,663.3117 437.5979,663.2295 436.4604,663.1498 435.3227,663.0725 434.1848,662.9976 433.0468,662.9252 431.9087,662.8553 430.7703,662.7878 429.6319,662.7227 428.4933,662.6601 427.3546,662.6 426.2158,662.5423 425.0768,662.4871 423.9378,662.4343 422.7986,662.384 421.6593,662.3361 420.5199,662.2907 419.3804,662.2477 418.2409,662.2072 417.1012,662.1691 415.9615,662.1335 414.8217,662.1004 413.6818,662.0697 412.5419,662.0415 411.4019,662.0157 410.2619,661.9923 409.1218,661.9715 407.9816,661.953 406.8415,661.9371 405.7013,661.9236 404.5611,661.9125 403.4208,661.9039 402.2805,661.8978 401.1403,661.8941 400.0,661.8929 398.8597,661.8941 397.7195,661.8978 396.5792,661.9039 395.4389,661.9125 394.2987,661.9236 393.1585,661.9371 392.0184,661.953 390.8782,661.9715 389.7381,661.9923 388.5981,662.0157 387.4581,662.0415 386.3182,662.0697 385.1783,662.1004 384.0385,662.1335 382.8988,662.1691 381.7591,662.2072 380.6196,662.2477 379.4801,662.2907 378.3407,662.3361 377.2014,662.384 376.0622,662.4343 374.9232,662.4871 373.7842,662.5423 372.6454,662.6 371.5067,662.6601 370.3681,662.7227 369.2297,662.7878 368.0913,662.8553 366.9532,662.9252 365.8152,662.9976 364.6773,663.0725 363.5396,663.1498 362.4021,663.2295 361.2648,663.3117 360.1276,663.3964 358.9906,663.4835 357.8538,663.573 356.7172,663.665 355.5808,663.7595 354.4446,663.8564 353.3086,663.9557 352.1728,664.0575 351.0372,664.1617 349.9019,664.2684 348.7668,664.3775 347.6319,664.4891 346.4973,664.6031 345.3629,664.7196 344.2287,664.8385 343.0949,664.9598 341.9612,665.0836 340.8279,665.2098 339.6948,665.3385 338.562,665.4696 337.4294,665.6031 336.2972,665.7391 335.1652,665.8776 334.0336,666.0184 332.9022,666.1617 331.7712,666.3075 330.6404,666.4556 329.51,666.6063 328.3799,666.7593 327.2502,666.9148 326.1207,667.0727 324.9916,667.2331 323.8629,667.3958 322.7345,667.561 321.6064,667.7287 320.4787,667.8988 319.3514,668.0713 318.2245,668.2462 317.0979,668.4236 315.9717,668.6033 314.8459,668.7856 313.7204,668.9702 312.5954,669.1573 311.4708,669.3467 310.3465,669.5387 309.2227,669.733 308.0993,669.9297 306.9763,670.1289 305.8538,670.3305 304.7317,670.5345 303.61,670.7409 302.4887,670.9498 301.3679,671.1611 300.2476,671.3747 299.1277,671.5908 298.0083,671.8093 296.8893,672.0302 295.7708,672.2536 294.6528,672.4793 293.5353,672.7075 292.4183,672.938 291.3017,673.171 290.1857,673.4063 289.0701,673.6441 287.9551,673.8843 286.8406,674.1269 285.7265,674.3719 284.6131,674.6192 283.5001,674.869 282.3877,675.1212 281.2758,675.3758 280.1645,675.6328 279.0537,675.8921 277.9435,676.1539 276.8338,676.4181 275.7247,676.6846 274.6161,676.9536 273.5082,677.2249 272.4008,677.4986 271.294,677.7747 270.1878,678.0532 269.0822,678.3341 267.9771,678.6173 266.8727,678.903 265.7689,679.191 264.6657,679.4814 263.5632,679.7742 262.4612,680.0694 261.3599,680.3669 260.2593,680.6668 259.1592,680.9691 258.0598,681.2737 256.9611,681.5808 255.863,681.8902 254.7656,682.2019 253.6689,682.516 252.5728,682.8325 251.4774,683.1514 250.3826,683.4726 249.2886,683.7962 248.1952,684.1221 247.1026,684.4504 246.0106,684.7811 244.9194,685.1141 243.8289,685.4494 242.739,685.7872 241.6499,686.1272 240.5616,686.4696 239.4739,686.8144 238.387,687.1615 237.3009,687.511 236.2155,687.8627 235.1308,688.2169 234.0469,688.5734 232.9637,688.9322 231.8813,689.2933 230.7997,689.6568 229.7189,690.0226 228.6388,690.3908 227.5596,690.7613 226.4811,691.1341 225.4034,691.5092 224.3265,691.8867 223.2505,692.2664 222.1752,692.6486 221.1008,693.033" stroke="black" stroke-opacity="0.5" stroke-width="1" /><polyline fill="none" points="221.1008,693.033 218.1471,684.8046 215.1941,676.5765 212.2419,668.3486 209.2905,660.1209 206.3398,651.8934 203.3898,643.666 200.4406,635.4388 197.4921,627.2118 194.5443,618.9848 191.5973,610.758 188.6509,602.5312 185.7052,594.3045 182.7603,586.0778 179.8159,577.8511 176.8723,569.6244 173.9294,561.3977 170.9871,553.171 168.0454,544.9442 165.1044,536.7173 162.164,528.4903 159.2243,520.2631 156.2852,512.0359 153.3467,503.8084 150.4089,495.5808 147.4716,487.353 144.5349,479.125 141.5988,470.8967 138.6633,462.6682 135.7284,454.4394 132.7941,446.2103 129.8603,437.9809 126.927,429.7511 123.9944,421.521 121.0622,413.2905 118.1306,405.0596 115.1995,396.8283 112.269,388.5966 109.3389,380.3644 106.4094,372.1317 103.4803,363.8986 100.5518,355.6649 97.6237,347.4307 94.6962,339.196 91.7691,330.9606 88.8424,322.7247 85.9162,314.4882 82.9905,306.251 80.0652,298.0132 77.1404,289.7747 74.216,281.5356 71.292,273.2957 68.3684,265.0551 65.4453,256.8137 62.5225,248.5716 59.6002,240.3287 56.6782,232.085 53.7566,223.8404 50.8354,215.5951 47.9146,207.3488 44.9941,199.1017" stroke="black" stroke-opacity="0.5" stroke-width="1" /></svg>