<?xml version="1.0" encoding="utf-8" ?>
<svg baseProfile="tiny" height="800" version="1.2" width="800" xmlns="http://www.w3.org/2000/svg" xmlns:ev="http://www.w3.org/2001/xml-events" xmlns:xlink="http://www.w3.org/1999/xlink"><defs /><rect fill="none" height="800" stroke="black" stroke-width="2" width="800" x="0" y="0" /><polyline fill="none" points="679.1145,728.0805 680.1498,717.639 681.1843,707.1981 682.2181,696.7578 683.251,686.3181 684.2831,675.8789 685.3145,665.4402 686.345,655.002 687.3748,644.5642 688.4038,634.1269 689.432,623.69 690.4594,613.2535 691.4861,602.8174 692.5119,592.3816 693.537,581.9461 694.5613,571.5109 695.5849,561.076 696.6077,550.6413 697.6297,540.2068 698.651,529.7725 699.6715,519.3384 700.6912,508.9044 701.7102,498.4705 702.7285,488.0368 703.746,477.6031 704.7627,467.1694 705.7787,456.7357 706.794,446.3021 707.8085,435.8684 708.8223,425.4347 709.8354,415.0008 710.8477,404.5669 711.8593,394.1328 712.8702,383.6986 713.8804,373.2642 714.8898,362.8296 715.8985,352.3947 716.9065,341.9596 717.9138,331.5243 718.9203,321.0886 719.9262,310.6526 720.9313,300.2162 721.9358,289.7794 722.9395,279.3423 723.9426,268.9047 724.9449,258.4667 725.9465,248.0282 726.9475,237.5892 727.9478,227.1496 728.9473,216.7095 729.9462,206.2688 730.9444,195.8276 731.9419,185.3857 732.9388,174.9431 733.9349,164.4999 734.9304,154.0559 735.9252,143.6113 736.9194,133.1659 737.9128,122.7197 738.9056,112.2727 739.8978,101.8249" stroke="silver" stroke-opacity="0.5" stroke-width="1" /><polyline fill="none" points="574.5604,719.6646 575.2075,709.1979 575.8542,698.7319 576.5003,688.2665 577.1459,677.8018 577.7911,667.3377 578.4357,656.8741 579.0798,646.4111 579.7235,635.9487 580.3666,625.4867 581.0092,615.0252 581.6514,604.5642 582.2931,594.1036 582.9343,583.6434 583.575,573.1836 584.2152,562.7242 584.8549,552.2651 585.4941,541.8062 586.1329,531.3477 586.7712,520.8894 587.409,510.4314 588.0464,499.9736 588.6832,489.5159 589.3196,479.0584 589.9556,468.601 590.591,458.1438 591.226,447.6866 591.8605,437.2295 592.4946,426.7724 593.1282,416.3153 593.7613,405.8582 594.394,395.4011 595.0262,384.9439 595.658,374.4866 596.2893,364.0292 596.9201,353.5716 597.5505,343.1139 598.1805,332.656 598.81,322.1979 599.439,311.7395 600.0676,301.2809 600.6958,290.822 601.3235,280.3628 601.9508,269.9032 602.5776,259.4432 603.204,248.9829 603.83,238.5222 604.4555,228.061 605.0806,217.5993 605.7053,207.1372 606.3295,196.6745 606.9533,186.2113 607.5766,175.7476 608.1996,165.2832 608.8221,154.8183 609.4442,144.3527 610.0658,133.8864 610.6871,123.4195 611.3079,112.9518 611.9283,102.4834 612.5483,92.0142" stroke="silver" stroke-opacity="0.5" stroke-width="1" /><polyline fill="none" points="469.8124,715.1334 470.0711,704.6531 470.3296,694.1736 470.588,683.6948 470.8461,673.2166 471.104,662.739 471.3617,652.2621 471.6193,641.7858 471.8766,631.31 472.1337,620.8348 472.3906,610.3601 472.6474,599.8859 472.9039,589.4122 473.1603,578.9389 473.4164,568.466 473.6724,557.9935 473.9281,547.5214 474.1837,537.0496 474.4391,526.5781 474.6943,516.107 474.9492,505.636 475.2041,495.1654 475.4587,484.6949 475.7131,474.2247 475.9673,463.7546 476.2214,453.2847 476.4752,442.8148 476.7289,432.3451 476.9824,421.8754 477.2357,411.4058 477.4888,400.9362 477.7417,390.4666 477.9945,379.997 478.2471,369.5273 478.4994,359.0575 478.7516,348.5876 479.0037,338.1176 479.2555,327.6474 479.5072,317.1771 479.7586,306.7065 480.0099,296.2357 480.2611,285.7647 480.512,275.2934 480.7628,264.8217 481.0134,254.3498 481.2638,243.8774 481.514,233.4047 481.7641,222.9316 482.014,212.4581 482.2637,201.9841 482.5132,191.5096 482.7626,181.0347 483.0118,170.5592 483.2608,160.0831 483.5097,149.6065 483.7584,139.1292 484.0069,128.6513 484.2552,118.1728 484.5034,107.6936 484.7514,97.2137 484.9992,86.733" stroke="silver" stroke-opacity="0.5" stroke-width="1" /><polyline fill="none" points="364.9868,714.4882 364.8571,704.0061 364.7274,693.5246 364.5979,683.0438 364.4684,672.5638 364.3391,662.0843 364.2098,651.6055 364.0807,641.1273 363.9516,630.6496 363.8227,620.1725 363.6938,609.6959 363.5651,599.2198 363.4364,588.7442 363.3078,578.2691 363.1794,567.7943 363.051,557.32 362.9228,546.846 362.7946,536.3724 362.6665,525.8991 362.5385,515.4261 362.4107,504.9533 362.2829,494.4808 362.1552,484.0086 362.0276,473.5365 361.9001,463.0646 361.7727,452.5929 361.6454,442.1212 361.5181,431.6497 361.391,421.1783 361.264,410.7068 361.137,400.2355 361.0102,389.7641 360.8834,379.2927 360.7568,368.8212 360.6302,358.3497 360.5037,347.878 360.3773,337.4063 360.251,326.9343 360.1248,316.4623 359.9987,305.99 359.8727,295.5174 359.7468,285.0447 359.6209,274.5716 359.4951,264.0983 359.3695,253.6246 359.2439,243.1506 359.1184,232.6762 358.993,222.2014 358.8677,211.7262 358.7424,201.2505 358.6173,190.7743 358.4922,180.2977 358.3673,169.8205 358.2424,159.3428 358.1176,148.8645 357.9928,138.3856 357.8682,127.906 357.7437,117.4259 357.6192,106.945 357.4948,96.4635 357.3705,85.9812" stroke="silver" stroke-opacity="0.5" stroke-width="1" /><polyline fill="none" points="260.2002,717.7294 259.682,707.2569 259.1642,696.7851 258.6468,686.314 258.1298,675.8435 257.6132,665.3737 257.097,654.9044 256.5812,644.4357 256.0658,633.9676 255.5508,623.4999 255.0362,613.0328 254.522,602.5662 254.0082,592.0999 253.4947,581.6342 252.9817,571.1688 252.4691,560.7037 251.9568,550.2391 251.4449,539.7747 250.9334,529.3107 250.4223,518.8469 249.9116,508.3833 249.4012,497.92 248.8913,487.4569 248.3817,476.994 247.8725,466.5312 247.3636,456.0685 246.8552,445.6059 246.3471,435.1434 245.8394,424.6809 245.332,414.2185 244.825,403.7561 244.3184,393.2936 243.8122,382.8311 243.3063,372.3685 242.8008,361.9058 242.2956,351.443 241.7909,340.98 241.2864,330.5169 240.7824,320.0535 240.2787,309.5899 239.7753,299.1261 239.2723,288.662 238.7697,278.1976 238.2674,267.7329 237.7655,257.2678 237.2639,246.8024 236.7627,236.3365 236.2618,225.8702 235.7613,215.4035 235.2611,204.9363 234.7613,194.4686 234.2618,184.0004 233.7627,173.5316 233.2639,163.0623 232.7654,152.5923 232.2673,142.1217 231.7695,131.6505 231.2721,121.1786 230.775,110.706 230.2782,100.2327 229.7818,89.7586" stroke="silver" stroke-opacity="0.5" stroke-width="1" /><polyline fill="none" points="155.5688,724.8558 154.6623,714.4046 153.7565,703.9541 152.8514,693.5042 151.9471,683.0549 151.0434,672.6061 150.1404,662.1579 149.2381,651.7102 148.3365,641.263 147.4356,630.8162 146.5354,620.3699 145.6358,609.924 144.737,599.4785 143.8388,589.0334 142.9413,578.5885 142.0445,568.144 141.1484,557.6998 140.2529,547.2559 139.3581,536.8122 138.4639,526.3687 137.5705,515.9254 136.6777,505.4823 135.7855,495.0393 134.894,484.5964 134.0032,474.1537 133.113,463.711 132.2235,453.2683 131.3346,442.8256 130.4464,432.383 129.5588,421.9403 128.6718,411.4975 127.7855,401.0547 126.8999,390.6118 126.0149,380.1687 125.1305,369.7255 124.2467,359.2821 123.3636,348.8385 122.4811,338.3946 121.5992,327.9505 120.718,317.5061 119.8374,307.0615 118.9574,296.6164 118.078,286.1711 117.1992,275.7253 116.3211,265.2792 115.4436,254.8326 114.5666,244.3856 113.6903,233.938 112.8146,223.49 111.9395,213.0415 111.065,202.5924 110.1911,192.1427 109.3178,181.6924 108.4451,171.2415 107.573,160.7899 106.7015,150.3377 105.8306,139.8848 104.9602,129.4311 104.0905,118.9767 103.2213,108.5215 102.3527,98.0655" stroke="silver" stroke-opacity="0.5" stroke-width="1" /><polyline fill="none" points="679.1145,728.0805 673.8932,727.5675 668.6711,727.0642 663.4483,726.5706 658.2248,726.0867 653.0005,725.6125 647.7755,725.148 642.5499,724.6932 637.3236,724.2481 632.0966,723.8128 626.869,723.3871 621.6407,722.9712 616.4118,722.5649 611.1824,722.1684 605.9523,721.7816 600.7217,721.4045 595.4905,721.0371 590.2587,720.6794 585.0265,720.3314 579.7937,719.9932 574.5604,719.6646 569.3266,719.3458 564.0924,719.0367 558.8577,718.7372 553.6226,718.4475 548.387,718.1675 543.1511,717.8973 537.9147,717.6367 532.6779,717.3859 527.4408,717.1447 522.2034,716.9133 516.9655,716.6916 511.7274,716.4796 506.489,716.2773 501.2502,716.0848 496.0112,715.9019 490.7719,715.7288 485.5324,715.5654 480.2926,715.4116 475.0526,715.2677 469.8124,715.1334 464.572,715.0088 459.3314,714.894 454.0906,714.7889 448.8497,714.6934 443.6087,714.6077 438.3676,714.5318 433.1263,714.4655 427.8849,714.409 422.6435,714.3621 417.402,714.325 412.1605,714.2976 406.9189,714.2799 401.6773,714.272 396.4357,714.2737 391.1941,714.2852 385.9526,714.3064 380.711,714.3373 375.4696,714.3779 370.2282,714.4282 364.9868,714.4882 359.7456,714.558 354.5045,714.6375 349.2635,714.7267 344.0227,714.8256 338.782,714.9342 333.5415,715.0525 328.3011,715.1806 323.061,715.3184 317.8211,715.4659 312.5814,715.6231 307.3419,715.79 302.1027,715.9666 296.8638,716.153 291.6252,716.349 286.3868,716.5548 281.1488,716.7703 275.9111,716.9955 270.6738,717.2304 265.4368,717.475 260.2002,717.7294 254.9639,717.9934 249.7281,718.2672 244.4927,718.5507 239.2577,718.8439 234.0232,719.1468 228.7891,719.4594 223.5556,719.7818 218.3225,720.1138 213.0899,720.4556 207.8578,720.8071 202.6262,721.1682 197.3952,721.5391 192.1648,721.9197 186.935,722.31 181.7057,722.7101 176.477,723.1198 171.249,723.5392 166.0216,723.9684 160.7949,724.4072 155.5688,724.8558 150.3434,725.3141 145.1187,725.7821 139.8947,726.2598 134.6714,726.7471 129.4489,727.2442 124.2271,727.7511 120.8855,728.0805" stroke="silver" stroke-opacity="0.5" stroke-width="1" /><polyline fill="none" points="687.3748,644.5642 681.9987,644.039 676.6218,643.5238 671.2442,643.0184 665.8658,642.5231 660.4867,642.0376 655.1069,641.5621 649.7264,641.0965 644.3453,640.6409 638.9634,640.1952 633.5809,639.7594 628.1978,639.3336 622.814,638.9178 617.4297,638.5118 612.0447,638.1158 606.6592,637.7298 601.2731,637.3537 595.8865,636.9875 590.4993,636.6313 585.1116,636.285 579.7235,635.9487 574.3348,635.6223 568.9456,635.3058 563.556,634.9993 558.166,634.7027 552.7755,634.4161 547.3846,634.1394 541.9933,633.8727 536.6016,633.6159 531.2095,633.369 525.8171,633.1321 520.4244,632.9052 515.0313,632.6882 509.6379,632.4811 504.2442,632.284 498.8502,632.0968 493.456,631.9195 488.0615,631.7522 482.6667,631.5949 477.2718,631.4475 471.8766,631.31 466.4812,631.1825 461.0857,631.065 455.69,630.9573 450.2941,630.8597 444.8981,630.772 439.502,630.6942 434.1057,630.6263 428.7094,630.5685 423.313,630.5205 417.9165,630.4825 412.52,630.4545 407.1235,630.4364 401.7269,630.4282 396.3303,630.43 390.9338,630.4417 385.5372,630.4634 380.1407,630.495 374.7443,630.5366 369.3479,630.5881 363.9516,630.6496 358.5554,630.721 353.1593,630.8024 347.7634,630.8937 342.3676,630.9949 336.9719,631.1061 331.5764,631.2273 326.1811,631.3584 320.786,631.4994 315.3911,631.6504 309.9965,631.8113 304.6021,631.9822 299.2079,632.163 293.8141,632.3538 288.4205,632.5545 283.0272,632.7651 277.6342,632.9857 272.2416,633.2163 266.8493,633.4568 261.4574,633.7072 256.0658,633.9676 250.6747,634.2379 245.2839,634.5181 239.8936,634.8083 234.5037,635.1085 229.1142,635.4186 223.7252,635.7386 218.3367,636.0686 212.9487,636.4085 207.5612,636.7584 202.1743,637.1182 196.7878,637.4879 191.4019,637.8676 186.0166,638.2572 180.6319,638.6568 175.2477,639.0663 169.8642,639.4858 164.4813,639.9152 159.099,640.3545 153.7174,640.8038 148.3365,641.263 142.9563,641.7321 137.5767,642.2112 132.1979,642.7002 126.8198,643.1992 121.4424,643.7081 116.0658,644.227 112.6252,644.5642" stroke="silver" stroke-opacity="0.5" stroke-width="1" /><polyline fill="none" points="695.5849,561.076 690.0549,560.5389 684.5241,560.0119 678.9926,559.4951 673.4603,558.9885 667.9273,558.492 662.3936,558.0057 656.8592,557.5296 651.3241,557.0636 645.7883,556.6078 640.2519,556.1622 634.7148,555.7267 629.1771,555.3014 623.6388,554.8863 618.0999,554.4813 612.5605,554.0865 607.0204,553.7019 601.4798,553.3274 595.9387,552.9631 590.3971,552.609 584.8549,552.2651 579.3122,551.9313 573.7691,551.6076 568.2255,551.2942 562.6815,550.9909 557.137,550.6978 551.5921,550.4148 546.0469,550.142 540.5012,549.8794 534.9551,549.627 529.4087,549.3847 523.862,549.1526 518.3149,548.9307 512.7675,548.7189 507.2198,548.5173 501.6718,548.3259 496.1235,548.1447 490.575,547.9736 485.0263,547.8127 479.4773,547.6619 473.9281,547.5214 468.3787,547.391 462.8292,547.2707 457.2794,547.1607 451.7296,547.0608 446.1795,546.9711 440.6294,546.8916 435.0791,546.8222 429.5288,546.763 423.9784,546.714 418.4279,546.6751 412.8774,546.6464 407.3268,546.6279 401.7762,546.6196 396.2256,546.6214 390.675,546.6334 385.1245,546.6556 379.5739,546.6879 374.0235,546.7304 368.4731,546.7831 362.9228,546.846 357.3725,546.919 351.8224,547.0022 346.2725,547.0956 340.7226,547.1991 335.173,547.3129 329.6235,547.4367 324.0741,547.5708 318.525,547.715 312.9761,547.8694 307.4275,548.034 301.879,548.2087 296.3309,548.3937 290.783,548.5887 285.2354,548.794 279.6881,549.0094 274.1412,549.235 268.5945,549.4708 263.0482,549.7167 257.5023,549.9728 251.9568,550.2391 246.4116,550.5155 240.8669,550.8021 235.3226,551.0989 229.7787,551.4058 224.2353,551.723 218.6923,552.0503 213.1499,552.3877 207.6079,552.7353 202.0664,553.0931 196.5255,553.4611 190.9851,553.8392 185.4453,554.2275 179.906,554.626 174.3673,555.0346 168.8292,555.4534 163.2918,555.8823 157.7549,556.3215 152.2187,556.7708 146.6832,557.2302 141.1484,557.6998 135.6142,558.1796 130.0807,558.6696 124.548,559.1697 119.016,559.68 113.4847,560.2004 107.9542,560.731 104.4151,561.076" stroke="silver" stroke-opacity="0.5" stroke-width="1" /><polyline fill="none" points="703.746,477.6031 698.063,477.0543 692.3792,476.5159 686.6947,475.9879 681.0094,475.4703 675.3234,474.963 669.6367,474.4662 663.9493,473.9797 658.2612,473.5037 652.5724,473.038 646.8829,472.5827 641.1928,472.1378 635.5021,471.7033 629.8108,471.2791 624.1189,470.8654 618.4263,470.462 612.7333,470.069 607.0396,469.6865 601.3455,469.3143 595.6508,468.9525 589.9556,468.601 584.2599,468.26 578.5637,467.9294 572.867,467.6091 567.1699,467.2993 561.4724,466.9998 555.7744,466.7107 550.0761,466.432 544.3773,466.1637 538.6782,465.9058 532.9787,465.6583 527.2789,465.4212 521.5787,465.1944 515.8783,464.9781 510.1775,464.7721 504.4764,464.5766 498.7751,464.3914 493.0735,464.2166 487.3717,464.0522 481.6696,463.8982 475.9673,463.7546 470.2649,463.6214 464.5622,463.4986 458.8594,463.3861 453.1564,463.2841 447.4533,463.1924 441.75,463.1112 436.0467,463.0403 430.3433,462.9798 424.6397,462.9297 418.9362,462.89 413.2325,462.8607 407.5289,462.8418 401.8252,462.8333 396.1215,462.8352 390.4178,462.8474 384.7142,462.8701 379.0105,462.9031 373.307,462.9466 367.6035,463.0004 361.9001,463.0646 356.1968,463.1392 350.4936,463.2242 344.7905,463.3196 339.0876,463.4254 333.3848,463.5416 327.6822,463.6681 321.9798,463.8051 316.2776,463.9525 310.5757,464.1102 304.8739,464.2783 299.1724,464.4569 293.4712,464.6458 287.7702,464.8451 282.0695,465.0548 276.3692,465.2749 270.6691,465.5053 264.9694,465.7462 259.2701,465.9975 253.5711,466.2591 247.8725,466.5312 242.1742,466.8136 236.4764,467.1064 230.7791,467.4096 225.0821,467.7232 219.3857,468.0472 213.6896,468.3816 207.9941,468.7264 202.2991,469.0815 196.6046,469.4471 190.9106,469.823 185.2172,470.2093 179.5243,470.606 173.832,471.0131 168.1403,471.4306 162.4492,471.8585 156.7587,472.2967 151.0688,472.7454 145.3796,473.2044 139.691,473.6739 134.0032,474.1537 128.316,474.6439 122.6295,475.1445 116.9438,475.6554 111.2588,476.1768 105.5745,476.7085 99.8911,477.2507 96.254,477.6031" stroke="silver" stroke-opacity="0.5" stroke-width="1" /><polyline fill="none" points="711.8593,394.1328 706.0242,393.5726 700.1884,393.0231 694.3517,392.4841 688.5143,391.9557 682.6762,391.438 676.8374,390.9308 670.9978,390.4342 665.1576,389.9483 659.3166,389.4729 653.4751,389.0082 647.6328,388.554 641.79,388.1105 635.9465,387.6775 630.1024,387.2552 624.2578,386.8435 618.4125,386.4424 612.5668,386.0518 606.7204,385.6719 600.8736,385.3026 595.0262,384.9439 589.1783,384.5958 583.33,384.2583 577.4812,383.9314 571.6319,383.6151 565.7822,383.3094 559.9321,383.0144 554.0816,382.7299 548.2307,382.456 542.3794,382.1928 536.5277,381.9401 530.6757,381.6981 524.8234,381.4667 518.9707,381.2458 513.1178,381.0356 507.2645,380.836 501.411,380.647 495.5572,380.4686 489.7032,380.3008 483.8489,380.1436 477.9945,379.997 472.1398,379.861 466.285,379.7356 460.43,379.6208 454.5748,379.5167 448.7195,379.4231 442.8641,379.3402 437.0085,379.2679 431.1529,379.2061 425.2972,379.155 419.4414,379.1145 413.5856,379.0846 407.7298,379.0653 401.8739,379.0566 396.018,379.0585 390.1621,379.071 384.3063,379.0941 378.4505,379.1278 372.5947,379.1722 366.739,379.2271 360.8834,379.2927 355.0279,379.3688 349.1726,379.4556 343.3173,379.553 337.4622,379.6609 331.6072,379.7795 325.7525,379.9087 319.8979,380.0485 314.0435,380.1989 308.1893,380.3599 302.3354,380.5316 296.4817,380.7138 290.6283,380.9066 284.7751,381.1101 278.9223,381.3241 273.0698,381.5487 267.2175,381.784 261.3657,382.0299 255.5141,382.2863 249.663,382.5534 243.8122,382.8311 237.9618,383.1194 232.1118,383.4183 226.2623,383.7278 220.4132,384.0479 214.5645,384.3786 208.7164,384.7199 202.8687,385.0718 197.0215,385.4343 191.1748,385.8075 185.3287,386.1912 179.4831,386.5855 173.6381,386.9905 167.7936,387.406 161.9498,387.8322 156.1065,388.2689 150.2639,388.7163 144.4219,389.1743 138.5806,389.6428 132.7399,390.122 126.8999,390.6118 121.0606,391.1122 115.222,391.6231 109.3841,392.1447 103.547,392.6769 97.7106,393.2197 91.875,393.7731 88.1407,394.1328" stroke="silver" stroke-opacity="0.5" stroke-width="1" /><polyline fill="none" points="719.9262,310.6526 713.9398,310.0812 707.9527,309.5207 701.9648,308.971 695.9762,308.4321 689.9868,307.9041 683.9967,307.3868 678.0058,306.8804 672.0143,306.3848 666.0221,305.9 660.0293,305.426 654.0358,304.9628 648.0417,304.5104 642.0469,304.0689 636.0516,303.6382 630.0556,303.2182 624.0591,302.8091 618.062,302.4109 612.0644,302.0234 606.0663,301.6467 600.0676,301.2809 594.0685,300.9259 588.0689,300.5817 582.0688,300.2483 576.0682,299.9257 570.0672,299.614 564.0658,299.313 558.064,299.0229 552.0617,298.7436 546.0592,298.4751 540.0562,298.2175 534.0529,297.9706 528.0493,297.7346 522.0453,297.5094 516.041,297.295 510.0365,297.0914 504.0317,296.8986 498.0266,296.7167 492.0213,296.5455 486.0157,296.3852 480.0099,296.2357 474.004,296.097 467.9978,295.9692 461.9915,295.8521 455.985,295.7459 449.9784,295.6505 443.9717,295.5659 437.9648,295.4921 431.9579,295.4292 425.9509,295.377 419.9438,295.3357 413.9367,295.3052 407.9295,295.2855 401.9223,295.2766 395.9151,295.2786 389.9079,295.2914 383.9008,295.3149 377.8937,295.3493 371.8866,295.3946 365.8796,295.4506 359.8727,295.5174 353.8659,295.5951 347.8592,295.6836 341.8526,295.7829 335.8462,295.893 329.8399,296.014 323.8339,296.1457 317.828,296.2883 311.8223,296.4417 305.8168,296.6059 299.8116,296.7809 293.8066,296.9668 287.8018,297.1634 281.7974,297.3709 275.7932,297.5892 269.7894,297.8183 263.7859,298.0582 257.7827,298.309 251.7799,298.5705 245.7774,298.8429 239.7753,299.1261 233.7737,299.4201 227.7724,299.725 221.7716,300.0406 215.7712,300.3671 209.7712,300.7044 203.7718,301.0525 197.7728,301.4114 191.7743,301.7811 185.7764,302.1616 179.7789,302.553 173.7821,302.9552 167.7858,303.3682 161.79,303.792 155.7949,304.2266 149.8004,304.672 143.8065,305.1283 137.8132,305.5954 131.8206,306.0732 125.8286,306.5619 119.8374,307.0615 113.8468,307.5718 107.857,308.0929 101.8678,308.6249 95.8795,309.1677 89.8918,309.7213 83.905,310.2857 80.0738,310.6526" stroke="silver" stroke-opacity="0.5" stroke-width="1" /><polyline fill="none" points="727.9478,227.1496 721.811,226.5674 715.6734,225.9962 709.5351,225.436 703.396,224.8868 697.2562,224.3487 691.1157,223.8216 684.9745,223.3055 678.8325,222.8004 672.6899,222.3064 666.5466,221.8234 660.4027,221.3514 654.2581,220.8904 648.1129,220.4404 641.9672,220.0015 635.8208,219.5736 629.6738,219.1567 623.5263,218.7508 617.3783,218.356 611.2297,217.9721 605.0806,217.5993 598.931,217.2375 592.7809,216.8868 586.6304,216.5471 580.4794,216.2183 574.328,215.9007 568.1761,215.594 562.0238,215.2984 555.8712,215.0137 549.7181,214.7401 543.5647,214.4776 537.411,214.226 531.2569,213.9855 525.1025,213.756 518.9478,213.5375 512.7928,213.33 506.6375,213.1336 500.482,212.9482 494.3262,212.7738 488.1702,212.6104 482.014,212.4581 475.8575,212.3168 469.7009,212.1865 463.5442,212.0672 457.3872,211.959 451.2302,211.8617 445.073,211.7755 438.9157,211.7004 432.7583,211.6362 426.6008,211.5831 420.4433,211.541 414.2857,211.5099 408.1281,211.4898 401.9704,211.4808 395.8128,211.4828 389.6552,211.4958 383.4976,211.5198 377.34,211.5549 371.1825,211.6009 365.025,211.658 358.8677,211.7262 352.7104,211.8053 346.5533,211.8955 340.3962,211.9967 334.2394,212.1089 328.0827,212.2321 321.9261,212.3664 315.7698,212.5117 309.6136,212.668 303.4577,212.8353 297.302,213.0137 291.1466,213.2031 284.9914,213.4035 278.8365,213.6149 272.6819,213.8373 266.5276,214.0708 260.3736,214.3153 254.22,214.5708 248.0667,214.8374 241.9138,215.1149 235.7613,215.4035 229.6092,215.7031 223.4575,216.0138 217.3062,216.3354 211.1554,216.6681 205.005,217.0118 198.8551,217.3665 192.7057,217.7323 186.5568,218.109 180.4084,218.4968 174.2605,218.8956 168.1132,219.3055 161.9665,219.7263 155.8203,220.1582 149.6747,220.6011 143.5298,221.0551 137.3854,221.52 131.2417,221.996 125.0987,222.483 118.9563,222.981 112.8146,223.49 106.6736,224.0101 100.5333,224.5412 94.3938,225.0833 88.255,225.6364 82.117,226.2006 75.9797,226.7757 72.0522,227.1496" stroke="silver" stroke-opacity="0.5" stroke-width="1" /><polyline fill="none" points="735.9252,143.6113 729.6388,143.0184 723.3517,142.4368 717.0638,141.8663 710.7751,141.3071 704.4857,140.7591 698.1955,140.2224 691.9046,139.6969 685.6131,139.1826 679.3209,138.6795 673.028,138.1876 666.7344,137.707 660.4403,137.2376 654.1455,136.7794 647.8501,136.3324 641.5541,135.8967 635.2575,135.4722 628.9604,135.0589 622.6627,134.6569 616.3645,134.266 610.0658,133.8864 603.7666,133.518 597.4669,133.1609 591.1668,132.8149 584.8662,132.4802 578.5651,132.1567 572.2636,131.8445 565.9617,131.5434 559.6595,131.2536 553.3568,130.975 547.0538,130.7077 540.7504,130.4515 534.4467,130.2066 528.1427,129.9729 521.8384,129.7504 515.5338,129.5392 509.2289,129.3392 502.9237,129.1504 496.6183,128.9728 490.3127,128.8065 484.0069,128.6513 477.7008,128.5074 471.3946,128.3748 465.0882,128.2533 458.7817,128.1431 452.475,128.0441 446.1682,127.9563 439.8613,127.8798 433.5543,127.8144 427.2472,127.7603 420.94,127.7175 414.6328,127.6858 408.3256,127.6654 402.0183,127.6562 395.7111,127.6582 389.4038,127.6714 383.0966,127.6959 376.7894,127.7316 370.4823,127.7785 364.1752,127.8367 357.8682,127.906 351.5613,127.9866 345.2546,128.0784 338.9479,128.1815 332.6415,128.2958 326.3351,128.4212 320.029,128.558 313.723,128.7059 307.4172,128.8651 301.1117,129.0354 294.8064,129.2171 288.5013,129.4099 282.1965,129.6139 275.892,129.8292 269.5878,130.0557 263.2839,130.2935 256.9803,130.5424 250.6771,130.8026 244.3742,131.074 238.0717,131.3567 231.7695,131.6505 225.4678,131.9556 219.1665,132.2719 212.8656,132.5994 206.5651,132.9382 200.2651,133.2882 193.9656,133.6494 187.6666,134.0218 181.3681,134.4054 175.0701,134.8003 168.7726,135.2064 162.4757,135.6237 156.1793,136.0523 149.8835,136.4921 143.5883,136.9431 137.2938,137.4053 130.9998,137.8787 124.7065,138.3634 118.4139,138.8593 112.1219,139.3664 105.8306,139.8848 99.54,140.4143 93.2501,140.9551 86.9609,141.5071 80.6725,142.0704 74.3848,142.6449 68.098,143.2306 64.0748,143.6113" stroke="silver" stroke-opacity="0.5" stroke-width="1" /><circle cx="714.2639" cy="316.3462" fill="black" r="0.738" stroke="none" /><circle cx="691.0451" cy="506.2083" fill="black" r="0.738" stroke="none" /><circle cx="713.1947" cy="258.7072" fill="black" r="0.738" stroke="none" /><circle cx="693.792" cy="436.1374" fill="black" r="0.738" stroke="none" /><circle cx="681.0778" cy="568.7021" fill="black" r="0.738" stroke="none" /><circle cx="694.8925" cy="413.1647" fill="black" r="0.738" stroke="none" /><circle cx="713.406" cy="167.9951" fill="black" r="0.738" stroke="none" /><circle cx="715.0366" cy="120.1135" fill="black" r="0.738" stroke="none" /><circle cx="702.3503" cy="247.7843" fill="black" r="0.738" stroke="none" /><circle cx="683.2294" cy="402.7658" fill="black" r="0.936" stroke="none" /><circle cx="652.4005" cy="694.8062" fill="black" r="0.738" stroke="none" /><circle cx="672.1535" cy="459.1986" fill="black" r="0.738" stroke="none" /><circle cx="672.2636" cy="356.1281" fill="black" r="0.738" stroke="none" /><circle cx="650.6187" cy="564.9989" fill="black" r="0.738" stroke="none" /><circle cx="680.666" cy="174.8946" fill="black" r="0.738" stroke="none" /><circle cx="677.9642" cy="106.6711" fill="black" r="0.738" stroke="none" /><circle cx="640.7585" cy="570.4189" fill="black" r="0.738" stroke="none" /><circle cx="644.7402" cy="492.1764" fill="black" r="0.738" stroke="none" /><circle cx="662.2347" cy="248.238" fill="black" r="0.738" stroke="none" /><circle cx="672.2222" cy="110.9423" fill="black" r="0.738" stroke="none" /><circle cx="661.1048" cy="177.7499" fill="black" r="0.738" stroke="none" /><circle cx="658.8265" cy="186.1593" fill="black" r="0.738" stroke="none" /><circle cx="639.2054" cy="438.5237" fill="black" r="0.738" stroke="none" /><circle cx="624.8271" cy="602.1475" fill="black" r="0.738" stroke="none" /><circle cx="634.8888" cy="441.8146" fill="black" r="0.738" stroke="none" /><circle cx="618.8892" cy="654.7703" fill="black" r="0.738" stroke="none" /><circle cx="619.9147" cy="631.3806" fill="black" r="1.17" stroke="none" /><circle cx="646.62" cy="220.585" fill="black" r="0.738" stroke="none" /><circle cx="597.5074" cy="649.4531" fill="black" r="0.738" stroke="none" /><circle cx="625.8789" cy="209.2409" fill="black" r="0.738" stroke="none" /><circle cx="600.6569" cy="574.2784" fill="black" r="0.738" stroke="none" /><circle cx="599.9622" cy="584.6515" fill="black" r="0.738" stroke="none" /><circle cx="611.897" cy="156.3468" fill="black" r="0.738" stroke="none" /><circle cx="596.2286" cy="403.6574" fill="black" r="0.738" stroke="none" /><circle cx="580.7025" cy="481.4845" fill="black" r="0.738" stroke="none" /><circle cx="590.1387" cy="292.1359" fill="black" r="0.738" stroke="none" /><circle cx="579.324" cy="466.6298" fill="black" r="0.738" stroke="none" /><circle cx="597.045" cy="108.7742" fill="black" r="0.738" stroke="none" /><circle cx="567.7978" cy="488.6508" fill="black" r="0.738" stroke="none" /><circle cx="578.9139" cy="199.7659" fill="black" r="0.738" stroke="none" /><circle cx="572.2492" cy="257.7628" fill="black" r="0.738" stroke="none" /><circle cx="552.2965" cy="430.7153" fill="black" r="0.738" stroke="none" /><circle cx="548.8783" cy="473.3381" fill="black" r="0.936" stroke="none" /><circle cx="555.5649" cy="290.6832" fill="black" r="0.936" stroke="none" /><circle cx="555.8207" cy="99.9365" fill="black" r="0.738" stroke="none" /><circle cx="542.638" cy="319.8" fill="black" r="0.738" stroke="none" /><circle cx="537.1796" cy="382.0516" fill="black" r="0.738" stroke="none" /><circle cx="525.8054" cy="622.3067" fill="black" r="0.936" stroke="none" /><circle cx="523.3032" cy="332.0198" fill="black" r="0.738" stroke="none" /><circle cx="516.0324" cy="503.3885" fill="black" r="0.738" stroke="none" /><circle cx="525.5948" cy="112.0081" fill="black" r="0.738" stroke="none" /><circle cx="513.5914" cy="396.8141" fill="black" r="0.738" stroke="none" /><circle cx="502.5458" cy="673.9203" fill="black" r="0.738" stroke="none" /><circle cx="512.0772" cy="174.3071" fill="black" r="0.738" stroke="none" /><circle cx="508.0755" cy="260.7231" fill="black" r="0.738" stroke="none" /><circle cx="507.5493" cy="260.4548" fill="black" r="0.738" stroke="none" /><circle cx="506.4909" cy="281.5497" fill="black" r="0.738" stroke="none" /><circle cx="490.2206" cy="641.5474" fill="black" r="0.738" stroke="none" /><circle cx="499.0056" cy="292.8893" fill="black" r="0.738" stroke="none" /><circle cx="488.1796" cy="570.5402" fill="black" r="0.738" stroke="none" /><circle cx="481.513" cy="628.0403" fill="black" r="0.738" stroke="none" /><circle cx="474.6416" cy="146.6398" fill="black" r="0.738" stroke="none" /><circle cx="474.6942" cy="134.6488" fill="black" r="0.738" stroke="none" /><circle cx="468.1531" cy="274.0981" fill="black" r="0.738" stroke="none" /><circle cx="466.7206" cy="251.0207" fill="black" r="0.738" stroke="none" /><circle cx="459.6416" cy="588.9493" fill="black" r="0.738" stroke="none" /><circle cx="461.3196" cy="500.3899" fill="black" r="0.738" stroke="none" /><circle cx="455.1396" cy="695.2653" fill="black" r="0.738" stroke="none" /><circle cx="458.0298" cy="416.2781" fill="black" r="0.738" stroke="none" /><circle cx="440.1638" cy="280.4348" fill="black" r="0.738" stroke="none" /><circle cx="433.1539" cy="159.5023" fill="black" r="0.738" stroke="none" /><circle cx="428.7076" cy="353.6303" fill="black" r="0.738" stroke="none" /><circle cx="426.5701" cy="455.9078" fill="black" r="0.738" stroke="none" /><circle cx="426.9413" cy="94.6354" fill="black" r="0.738" stroke="none" /><circle cx="415.0877" cy="707.938" fill="black" r="0.738" stroke="none" /><circle cx="416.6075" cy="356.0597" fill="black" r="0.738" stroke="none" /><circle cx="413.5919" cy="343.7302" fill="black" r="0.738" stroke="none" /><circle cx="404.2147" cy="611.5712" fill="black" r="0.738" stroke="none" /><circle cx="403.2377" cy="373.7797" fill="black" r="0.738" stroke="none" /><circle cx="402.4094" cy="146.0171" fill="black" r="0.936" stroke="none" /><circle cx="393.1153" cy="241.7401" fill="black" r="0.936" stroke="none" /><circle cx="390.7875" cy="211.2411" fill="black" r="0.738" stroke="none" /><circle cx="389.1971" cy="298.3937" fill="black" r="0.738" stroke="none" /><circle cx="388.8575" cy="447.4372" fill="black" r="0.738" stroke="none" /><circle cx="376.2676" cy="184.4059" fill="black" r="0.738" stroke="none" /><circle cx="371.5538" cy="166.5027" fill="black" r="0.738" stroke="none" /><circle cx="371.1512" cy="602.9919" fill="black" r="0.738" stroke="none" /><circle cx="364.5029" cy="288.0074" fill="black" r="0.738" stroke="none" /><circle cx="364.7445" cy="328.6428" fill="black" r="0.738" stroke="none" /><circle cx="368.1059" cy="700.9486" fill="black" r="0.738" stroke="none" /><circle cx="363.0584" cy="393.2588" fill="black" r="1.476" stroke="none" /><circle cx="358.5528" cy="346.9805" fill="black" r="0.738" stroke="none" /><circle cx="357.5565" cy="302.3334" fill="black" r="0.738" stroke="none" /><circle cx="356.6148" cy="299.9993" fill="black" r="0.738" stroke="none" /><circle cx="351.5493" cy="108.5318" fill="black" r="0.936" stroke="none" /><circle cx="350.4911" cy="162.9649" fill="black" r="0.738" stroke="none" /><circle cx="340.1455" cy="183.1639" fill="black" r="0.738" stroke="none" /><circle cx="346.4854" cy="608.0295" fill="black" r="0.738" stroke="none" /><circle cx="334.7891" cy="418.5118" fill="black" r="0.738" stroke="none" /><circle cx="335.5257" cy="476.5698" fill="black" r="0.936" stroke="none" /><circle cx="335.5742" cy="539.0064" fill="black" r="0.738" stroke="none" /><circle cx="332.2433" cy="396.6097" fill="black" r="0.738" stroke="none" /><circle cx="334.9312" cy="538.0981" fill="black" r="0.738" stroke="none" /><circle cx="318.2394" cy="87.6646" fill="black" r="0.738" stroke="none" /><circle cx="320.1891" cy="436.2765" fill="black" r="0.738" stroke="none" /><circle cx="313.1809" cy="304.2851" fill="black" r="0.738" stroke="none" /><circle cx="307.6302" cy="367.3002" fill="black" r="0.738" stroke="none" /><circle cx="299.0781" cy="177.4049" fill="black" r="0.738" stroke="none" /><circle cx="295.9849" cy="98.5603" fill="black" r="1.17" stroke="none" /><circle cx="312.1624" cy="682.8295" fill="black" r="0.738" stroke="none" /><circle cx="296.2718" cy="173.4617" fill="black" r="0.738" stroke="none" /><circle cx="300.3455" cy="316.1298" fill="black" r="0.738" stroke="none" /><circle cx="294.1132" cy="425.0538" fill="black" r="0.738" stroke="none" /><circle cx="293.2194" cy="427.3472" fill="black" r="0.738" stroke="none" /><circle cx="300.6407" cy="648.8073" fill="black" r="0.738" stroke="none" /><circle cx="282.076" cy="227.5081" fill="black" r="0.738" stroke="none" /><circle cx="282.4263" cy="391.256" fill="black" r="0.738" stroke="none" /><circle cx="291.9017" cy="667.8302" fill="black" r="0.738" stroke="none" /><circle cx="268.9785" cy="165.0677" fill="black" r="0.738" stroke="none" /><circle cx="267.9084" cy="165.863" fill="black" r="0.936" stroke="none" /><circle cx="258.3913" cy="99.8498" fill="black" r="0.738" stroke="none" /><circle cx="257.7874" cy="175.1546" fill="black" r="0.738" stroke="none" /><circle cx="269.7949" cy="496.8254" fill="black" r="0.738" stroke="none" /><circle cx="247.6117" cy="113.4728" fill="black" r="0.738" stroke="none" /><circle cx="248.5669" cy="198.1169" fill="black" r="0.738" stroke="none" /><circle cx="241.2933" cy="267.0017" fill="black" r="0.738" stroke="none" /><circle cx="238.0833" cy="396.706" fill="black" r="0.738" stroke="none" /><circle cx="245.7837" cy="559.1082" fill="black" r="0.738" stroke="none" /><circle cx="231.178" cy="273.6194" fill="black" r="0.738" stroke="none" /><circle cx="228.4737" cy="295.5766" fill="black" r="0.738" stroke="none" /><circle cx="238.7116" cy="532.7861" fill="black" r="0.738" stroke="none" /><circle cx="224.7725" cy="365.6801" fill="black" r="0.738" stroke="none" /><circle cx="228.5226" cy="466.2736" fill="black" r="0.738" stroke="none" /><circle cx="228.0877" cy="570.0572" fill="black" r="0.738" stroke="none" /><circle cx="202.99" cy="227.4561" fill="black" r="0.738" stroke="none" /><circle cx="216.6456" cy="463.4214" fill="black" r="0.738" stroke="none" /><circle cx="199.2481" cy="182.3195" fill="black" r="0.738" stroke="none" /><circle cx="225.1433" cy="686.6529" fill="black" r="0.738" stroke="none" /><circle cx="193.3832" cy="208.4517" fill="black" r="0.738" stroke="none" /><circle cx="187.2438" cy="229.1553" fill="black" r="0.738" stroke="none" /><circle cx="178.2941" cy="125.6874" fill="black" r="0.738" stroke="none" /><circle cx="214.4177" cy="705.4024" fill="black" r="0.738" stroke="none" /><circle cx="189.3669" cy="328.222" fill="black" r="0.738" stroke="none" /><circle cx="185.3248" cy="405.7645" fill="black" r="0.936" stroke="none" /><circle cx="173.3922" cy="253.2379" fill="black" r="0.738" stroke="none" /><circle cx="188.1226" cy="553.03" fill="black" r="0.738" stroke="none" /><circle cx="167.5953" cy="262.1185" fill="black" r="0.738" stroke="none" /><circle cx="173.0818" cy="384.4247" fill="black" r="0.738" stroke="none" /><circle cx="194.0155" cy="683.3422" fill="black" r="0.738" stroke="none" /><circle cx="152.0958" cy="143.4847" fill="black" r="0.738" stroke="none" /><circle cx="166.6766" cy="395.9752" fill="black" r="0.738" stroke="none" /><circle cx="174.7908" cy="620.0911" fill="black" r="0.738" stroke="none" /><circle cx="153.3004" cy="363.6805" fill="black" r="0.738" stroke="none" /><circle cx="140.832" cy="258.1789" fill="black" r="0.738" stroke="none" /><circle cx="167.8064" cy="637.0404" fill="black" r="0.738" stroke="none" /><circle cx="129.9528" cy="161.7718" fill="black" r="0.738" stroke="none" /><circle cx="159.9172" cy="550.429" fill="black" r="0.738" stroke="none" /><circle cx="141.9627" cy="325.3699" fill="black" r="0.738" stroke="none" /><circle cx="124.3967" cy="99.5018" fill="black" r="0.738" stroke="none" /><circle cx="164.4436" cy="679.139" fill="black" r="0.738" stroke="none" /><circle cx="156.0071" cy="684.5591" fill="black" r="0.738" stroke="none" /><circle cx="104.0843" cy="123.188" fill="black" r="0.738" stroke="none" /><circle cx="116.0219" cy="304.7762" fill="black" r="1.476" stroke="none" /><circle cx="140.8011" cy="629.6273" fill="black" r="0.738" stroke="none" /><circle cx="145.3724" cy="708.9059" fill="black" r="0.738" stroke="none" /><circle cx="94.6437" cy="236.1781" fill="black" r="0.738" stroke="none" /><circle cx="105.3109" cy="375.8427" fill="black" r="0.738" stroke="none" /><circle cx="94.1222" cy="423.5493" fill="black" r="0.738" stroke="none" /><circle cx="13.77" cy="786.23" fill="black" r="4.59" stroke="none" /><circle cx="13.77" cy="786.23" fill="black" r="4.59" stroke="none" /><text fill="black" font-family="monospace" font-size="12" x="10.77" y="775.64">1</text><circle cx="37.77" cy="786.23" fill="black" r="3.654" stroke="none" /><circle cx="37.77" cy="786.23" fill="black" r="3.654" stroke="none" /><text fill="black" font-family="monospace" font-size="12" x="34.769999999999996" y="775.64">2</text><circle cx="61.77" cy="786.23" fill="black" r="2.916" stroke="none" /><circle cx="61.77" cy="786.23" fill="black" r="2.916" stroke="none" /><text fill="black" font-family="monospace" font-size="12" x="58.769999999999996" y="775.64">3</text><circle cx="85.77" cy="786.23" fill="black" r="2.322" stroke="none" /><circle cx="85.77" cy="786.23" fill="black" r="2.322" stroke="none" /><text fill="black" font-family="monospace" font-size="12" x="82.77" y="775.64">4</text><circle cx="109.77" cy="786.23" fill="black" r="1.854" stroke="none" /><circle cx="109.77" cy="786.23" fill="black" r="1.854" stroke="none" /><text fill="black" font-family="monospace" font-size="12" x="106.77" y="775.64">5</text><circle cx="133.77" cy="786.23" fill="black" r="1.476" stroke="none" /><circle cx="133.77" cy="786.23" fill="black" r="1.476" stroke="none" /><text fill="black" font-family="monospace" font-size="12" x="130.77" y="775.64">6</text><circle cx="157.77" cy="786.23" fill="black" r="1.17" stroke="none" /><circle cx="157.77" cy="786.23" fill="black" r="1.17" stroke="none" /><text fill="black" font-family="monospace" font-size="12" x="154.77" y="775.64">7</text><circle cx="181.77" cy="786.23" fill="black" r="0.936" stroke="none" /><circle cx="181.77" cy="786.23" fill="black" r="0.936" stroke="none" /><text fill="black" font-family="monospace" font-size="12" x="178.77" y="775.64">8</text><circle cx="205.77" cy="786.23" fill="black" r="0.738" stroke="none" /><circle cx="205.77" cy="786.23" fill="black" r="0.738" stroke="none" /><text fill="black" font-family="monospace" font-size="12" x="202.77" y="775.64">9</text><text fill="gray" fill-opacity="0.5" font-family="monospace" font-size="12" x="739.8977669747146" y="101.8248817504633">05h20m</text><text fill="gray" fill-opacity="0.5" font-family="monospace" font-size="12" x="612.5482671786194" y="92.01422306623141">05h30m</text><text fill="gray" fill-opacity="0.5" font-family="monospace" font-size="12" x="484.99924415287677" y="86.73303662152028">05h40m</text><text fill="gray" fill-opacity="0.5" font-family="monospace" font-size="12" x="357.3705410818661" y="85.9811744913149">05h50m</text><text fill="gray" fill-opacity="0.5" font-family="monospace" font-size="12" x="229.78179186411592" y="89.75861470803426">06h00m</text><text fill="gray" fill-opacity="0.5" font-family="monospace" font-size="12" x="102.35273536654233" y="98.0654653516508">06h10m</text><text fill="gray" fill-opacity="0.5" font-family="monospace" font-size="12" x="120.88554745456935" y="728.0805054192733">-60°</text><text fill="gray" fill-opacity="0.5" font-family="monospace" font-size="12" x="112.62518959798035" y="644.5642270163124">-59°</text><text fill="gray" fill-opacity="0.5" font-family="monospace" font-size="12" x="104.41511476926814" y="561.0759747079163">-58°</text><text fill="gray" fill-opacity="0.5" font-family="monospace" font-size="12" x="96.25403062470696" y="477.6030633254501">-57°</text><text fill="gray" fill-opacity="0.5" font-family="monospace" font-size="12" x="88.1406746464557" y="394.1328169964671">-56°</text><text fill="gray" fill-opacity="0.5" font-family="monospace" font-size="12" x="80.07381335554277" y="310.6525614559368">-55°</text><text fill="gray" fill-opacity="0.5" font-family="monospace" font-size="12" x="72.05224156238256" y="227.14961635953753">-54°</text><text fill="gray" fill-opacity="0.5" font-family="monospace" font-size="12" x="64.07478165385481" y="143.61128758909274">-53°</text><text fill="black" font-family="monospace" font-size="12" x="12" y="48">&gt;&gt; No.97 05h20m 06h13m -60.0°-52.5°</text><a target="_self" xlink:href="hip003.svg"><text fill="black" font-family="monospace" font-size="12" x="12" y="36">&gt; No.3 00h00m 08h00m -90.0°-52.5°</text></a><a target="_self" xlink:href="hip001.svg"><text fill="black" font-family="monospace" font-size="12" x="12" y="24">No.1 00h 24h -90.0°+0.0°</text></a><polyline fill="none" points="739.8978,101.8249 733.5369,101.2268 727.1752,100.64 720.8128,100.0645 714.4496,99.5004 708.0857,98.9476 701.721,98.4061 695.3557,97.8759 688.9896,97.3571 682.6229,96.8495 676.2555,96.3534 669.8874,95.8685 663.5187,95.3949 657.1494,94.9327 650.7795,94.4818 644.409,94.0422 638.038,93.614 631.6663,93.1971 625.2942,92.7915 618.9215,92.3972 612.5483,92.0142 606.1746,91.6426 599.8004,91.2823 593.4257,90.9333 587.0506,90.5956 580.675,90.2693 574.2991,89.9543 567.9227,89.6506 561.5459,89.3582 555.1687,89.0772 548.7912,88.8075 542.4133,88.5491 536.0351,88.302 529.6566,88.0662 523.2778,87.8418 516.8986,87.6287 510.5193,87.4269 504.1396,87.2365 497.7597,87.0573 491.3796,86.8895 484.9992,86.733 478.6187,86.5879 472.238,86.454 465.8571,86.3315 459.476,86.2203 453.0949,86.1205 446.7136,86.0319 440.3321,85.9547 433.9506,85.8888 427.569,85.8342 421.1874,85.7909 414.8057,85.759 408.4239,85.7384 402.0422,85.7291 395.6604,85.7312 389.2786,85.7445 382.8969,85.7692 376.5152,85.8052 370.1336,85.8525 363.752,85.9112 357.3705,85.9812 350.9892,86.0625 344.6079,86.1551 338.2268,86.259 331.8458,86.3743 325.4649,86.5009 319.0843,86.6388 312.7038,86.7881 306.3235,86.9486 299.9435,87.1205 293.5637,87.3037 287.1841,87.4983 280.8048,87.7041 274.4258,87.9213 268.0471,88.1498 261.6687,88.3896 255.2906,88.6408 248.9129,88.9033 242.5355,89.177 236.1584,89.4622 229.7818,89.7586 223.4055,90.0664 217.0297,90.3855 210.6543,90.7159 204.2794,91.0576 197.9049,91.4107 191.5309,91.7751 185.1573,92.1508 178.7843,92.5378 172.4118,92.9362 166.0398,93.3459 159.6684,93.7669 153.2975,94.1992 146.9272,94.6428 140.5575,95.0978 134.1885,95.5641 127.82,96.0417 121.4522,96.5307 115.085,97.031 108.7185,97.5425 102.3527,98.0655 95.9876,98.5997 89.6232,99.1453 83.2596,99.7022 76.8967,100.2704 70.5345,100.8499 64.1731,101.4408 60.1022,101.8249" stroke="black" stroke-opacity="0.5" stroke-width="1" /><polyline fill="none" points="679.1145,728.0805 680.1498,717.639 681.1843,707.1981 682.2181,696.7578 683.251,686.3181 684.2831,675.8789 685.3145,665.4402 686.345,655.002 687.3748,644.5642 688.4038,634.1269 689.432,623.69 690.4594,613.2535 691.4861,602.8174 692.5119,592.3816 693.537,581.9461 694.5613,571.5109 695.5849,561.076 696.6077,550.6413 697.6297,540.2068 698.651,529.7725 699.6715,519.3384 700.6912,508.9044 701.7102,498.4705 702.7285,488.0368 703.746,477.6031 704.7627,467.1694 705.7787,456.7357 706.794,446.3021 707.8085,435.8684 708.8223,425.4347 709.8354,415.0008 710.8477,404.5669 711.8593,394.1328 712.8702,383.6986 713.8804,373.2642 714.8898,362.8296 715.8985,352.3947 716.9065,341.9596 717.9138,331.5243 718.9203,321.0886 719.9262,310.6526 720.9313,300.2162 721.9358,289.7794 722.9395,279.3423 723.9426,268.9047 724.9449,258.4667 725.9465,248.0282 726.9475,237.5892 727.9478,227.1496 728.9473,216.7095 729.9462,206.2688 730.9444,195.8276 731.9419,185.3857 732.9388,174.9431 733.9349,164.4999 734.9304,154.0559 735.9252,143.6113 736.9194,133.1659 737.9128,122.7197 738.9056,112.2727 739.8978,101.8249" stroke="black" stroke-opacity="0.5" stroke-width="1" /><polyline fill="none" points="679.1145,728.0805 673.8932,727.5675 668.6711,727.0642 663.4483,726.5706 658.2248,726.0867 653.0005,725.6125 647.7755,725.148 642.5499,724.6932 637.3236,724.2481 632.0966,723.8128 626.869,723.3871 621.6407,722.9712 616.4118,722.5649 611.1824,722.1684 605.9523,721.7816 600.7217,721.4045 595.4905,721.0371 590.2587,720.6794 585.0265,720.3314 579.7937,719.9932 574.5604,719.6646 569.3266,719.3458 564.0924,719.0367 558.8577,718.7372 553.6226,718.4475 548.387,718.1675 543.1511,717.8973 537.9147,717.6367 532.6779,717.3859 527.4408,717.1447 522.2034,716.9133 516.9655,716.6916 511.7274,716.4796 506.489,716.2773 501.2502,716.0848 496.0112,715.9019 490.7719,715.7288 485.5324,715.5654 480.2926,715.4116 475.0526,715.2677 469.8124,715.1334 464.572,715.0088 459.3314,714.894 454.0906,714.7889 448.8497,714.6934 443.6087,714.6077 438.3676,714.5318 433.1263,714.4655 427.8849,714.409 422.6435,714.3621 417.402,714.325 412.1605,714.2976 406.9189,714.2799 401.6773,714.272 396.4357,714.2737 391.1941,714.2852 385.9526,714.3064 380.711,714.3373 375.4696,714.3779 370.2282,714.4282 364.9868,714.4882 359.7456,714.558 354.5045,714.6375 349.2635,714.7267 344.0227,714.8256 338.782,714.9342 333.5415,715.0525 328.3011,715.1806 323.061,715.3184 317.8211,715.4659 312.5814,715.6231 307.3419,715.79 302.1027,715.9666 296.8638,716.153 291.6252,716.349 286.3868,716.5548 281.1488,716.7703 275.9111,716.9955 270.6738,717.2304 265.4368,717.475 260.2002,717.7294 254.9639,717.9934 249.7281,718.2672 244.4927,718.5507 239.2577,718.8439 234.0232,719.1468 228.7891,719.4594 223.5556,719.7818 218.3225,720.1138 213.0899,720.4556 207.8578,720.8071 202.6262,721.1682 197.3952,721.5391 192.1648,721.9197 186.935,722.31 181.7057,722.7101 176.477,723.1198 171.249,723.5392 166.0216,723.9684 160.7949,724.4072 155.5688,724.8558 150.3434,725.3141 145.1187,725.7821 139.8947,726.2598 134.6714,726.7471 129.4489,727.2442 124.2271,727.7511 120.8855,728.0805" stroke="black" stroke-opacity="0.5" stroke-width="1" /><polyline fill="none" points="120.8855,728.0805 119.8502,717.639 118.8157,707.1981 117.7819,696.7578 116.749,686.3181 115.7169,675.8789 114.6855,665.4402 113.655,655.002 112.6252,644.5642 111.5962,634.1269 110.568,623.69 109.5406,613.2535 108.5139,602.8174 107.4881,592.3816 106.463,581.9461 105.4387,571.5109 104.4151,561.076 103.3923,550.6413 102.3703,540.2068 101.349,529.7725 100.3285,519.3384 99.3088,508.9044 98.2898,498.4705 97.2715,488.0368 96.254,477.6031 95.2373,467.1694 94.2213,456.7357 93.206,446.3021 92.1915,435.8684 91.1777,425.4347 90.1646,415.0008 89.1523,404.5669 88.1407,394.1328 87.1298,383.6986 86.1196,373.2642 85.1102,362.8296 84.1015,352.3947 83.0935,341.9596 82.0862,331.5243 81.0797,321.0886 80.0738,310.6526 79.0687,300.2162 78.0642,289.7794 77.0605,279.3423 76.0574,268.9047 75.0551,258.4667 74.0535,248.0282 73.0525,237.5892 72.0522,227.1496 71.0527,216.7095 70.0538,206.2688 69.0556,195.8276 68.0581,185.3857 67.0612,174.9431 66.0651,164.4999 65.0696,154.0559 64.0748,143.6113 63.0806,133.1659 62.0872,122.7197 61.0944,112.2727 60.1022,101.8249" stroke="black" stroke-opacity="0.5" stroke-width="1" /></svg>