<?xml version="1.0" encoding="utf-8" ?>
<svg baseProfile="tiny" height="800" version="1.2" width="800" xmlns="http://www.w3.org/2000/svg" xmlns:ev="http://www.w3.org/2001/xml-events" xmlns:xlink="http://www.w3.org/1999/xlink"><defs /><rect fill="none" height="800" stroke="black" stroke-width="2" width="800" x="0" y="0" /><polyline fill="none" points="657.2446,730.7371 658.5818,720.3311 659.9183,709.9257 661.254,699.5208 662.5889,689.1165 663.923,678.7126 665.2563,668.3093 666.5889,657.9064 667.9207,647.504 669.2517,637.102 670.582,626.7003 671.9115,616.299 673.2402,605.8981 674.5682,595.4974 675.8954,585.0971 677.2219,574.697 678.5477,564.2971 679.8727,553.8975 681.197,543.498 682.5205,533.0987 683.8433,522.6996 685.1654,512.3006 686.4868,501.9016 687.8074,491.5027 689.1273,481.1039 690.4465,470.705 691.765,460.3062 693.0828,449.9073 694.3999,439.5084 695.7162,429.1094 697.0319,418.7103 698.3469,408.311 699.6612,397.9116 700.9748,387.512 702.2877,377.1122 703.5999,366.7121 704.9114,356.3119 706.2223,345.9113 707.5325,335.5104 708.842,325.1092 710.1508,314.7076 711.459,304.3057 712.7665,293.9033 714.0734,283.5005 715.3796,273.0973 716.6852,262.6936 717.9901,252.2894 719.2943,241.8846 720.5979,231.4793 721.9009,221.0735 723.2032,210.667 724.5049,200.2599 725.806,189.8521 727.1064,179.4437 728.4062,169.0346 729.7054,158.6247 731.0039,148.2141 732.3019,137.8027 733.5992,127.3905 734.8959,116.9775 736.192,106.5636" stroke="silver" stroke-opacity="0.5" stroke-width="1" /><polyline fill="none" points="537.427,718.957 538.141,708.496 538.8546,698.0357 539.5677,687.5761 540.2804,677.1171 540.9926,666.6587 541.7045,656.2009 542.4159,645.7436 543.127,635.2869 543.8376,624.8307 544.5478,614.3749 545.2576,603.9197 545.9669,593.4648 546.6759,583.0104 547.3845,572.5564 548.0926,562.1027 548.8004,551.6494 549.5078,541.1963 550.2147,530.7436 550.9213,520.2911 551.6275,509.8388 552.3333,499.3868 553.0387,488.9349 553.7437,478.4832 554.4483,468.0317 555.1525,457.5802 555.8563,447.1289 556.5598,436.6776 557.2629,426.2263 557.9656,415.7751 558.6679,405.3238 559.3699,394.8725 560.0714,384.4211 560.7726,373.9697 561.4735,363.5181 562.1739,353.0664 562.874,342.6145 563.5737,332.1625 564.2731,321.7102 564.9721,311.2577 565.6707,300.8049 566.369,290.3519 567.0669,279.8985 567.7645,269.4448 568.4617,258.9908 569.1586,248.5363 569.8551,238.0815 570.5512,227.6262 571.247,217.1704 571.9425,206.7142 572.6376,196.2574 573.3324,185.8002 574.0268,175.3423 574.7209,164.8839 575.4146,154.4248 576.1081,143.9652 576.8011,133.5048 577.4939,123.0438 578.1863,112.5821 578.8784,102.1196 579.5701,91.6564" stroke="silver" stroke-opacity="0.5" stroke-width="1" /><polyline fill="none" points="417.1701,714.3445 417.2593,703.862 417.3484,693.3803 417.4375,682.8992 417.5265,672.4188 417.6155,661.9391 417.7044,651.4599 417.7932,640.9814 417.8821,630.5035 417.9708,620.0261 418.0595,609.5492 418.1482,599.0728 418.2368,588.5969 418.3254,578.1214 418.4139,567.6464 418.5023,557.1718 418.5907,546.6975 418.6791,536.2236 418.7674,525.75 418.8556,515.2767 418.9438,504.8037 419.032,494.3309 419.1201,483.8583 419.2081,473.386 419.2962,462.9138 419.3841,452.4418 419.472,441.9699 419.5599,431.4981 419.6477,421.0263 419.7355,410.5547 419.8232,400.083 419.9109,389.6113 419.9985,379.1397 420.0861,368.6679 420.1736,358.1961 420.2611,347.7242 420.3485,337.2522 420.4359,326.78 420.5233,316.3076 420.6106,305.8351 420.6979,295.3623 420.7851,284.8893 420.8722,274.416 420.9594,263.9423 421.0464,253.4684 421.1335,242.9941 421.2205,232.5195 421.3074,222.0444 421.3943,211.5689 421.4812,201.093 421.568,190.6166 421.6548,180.1397 421.7415,169.6623 421.8282,159.1843 421.9148,148.7057 422.0014,138.2266 422.088,127.7468 422.1745,117.2664 422.261,106.7853 422.3474,96.3035 422.4338,85.821" stroke="silver" stroke-opacity="0.5" stroke-width="1" /><polyline fill="none" points="296.8583,716.9094 296.3225,706.4389 295.787,695.969 295.2519,685.4999 294.717,675.0314 294.1825,664.5635 293.6483,654.0962 293.1144,643.6295 292.5808,633.1634 292.0476,622.6978 291.5146,612.2326 290.982,601.768 290.4496,591.3038 289.9176,580.84 289.3858,570.3767 288.8544,559.9137 288.3233,549.4511 287.7925,538.9888 287.2619,528.5268 286.7317,518.065 286.2018,507.6036 285.6721,497.1423 285.1428,486.6813 284.6137,476.2204 284.085,465.7597 283.5565,455.2991 283.0283,444.8386 282.5004,434.3782 281.9728,423.9179 281.4455,413.4575 280.9185,402.9972 280.3917,392.5369 279.8653,382.0765 279.3391,371.616 278.8132,361.1555 278.2875,350.6948 277.7622,340.234 277.2371,329.773 276.7123,319.3118 276.1877,308.8504 275.6635,298.3887 275.1395,287.9268 274.6157,277.4646 274.0923,267.0021 273.5691,256.5392 273.0462,246.0759 272.5235,235.6123 272.0011,225.1482 271.479,214.6837 270.9571,204.2187 270.4355,193.7532 269.9141,183.2872 269.393,172.8207 268.8722,162.3536 268.3516,151.8859 267.8313,141.4176 267.3112,130.9486 266.7913,120.479 266.2718,110.0086 265.7524,99.5376 265.2333,89.0658" stroke="silver" stroke-opacity="0.5" stroke-width="1" /><polyline fill="none" points="176.8761,726.6462 175.7165,716.2211 174.5575,705.7966 173.3993,695.3727 172.2417,684.9494 171.0848,674.5266 169.9286,664.1043 168.773,653.6826 167.6181,643.2613 166.4639,632.8404 165.3103,622.42 164.1574,611.9999 163.0052,601.5803 161.8536,591.1609 160.7027,580.7419 159.5524,570.3232 158.4028,559.9048 157.2538,549.4866 156.1055,539.0686 154.9578,528.6508 153.8107,518.2332 152.6643,507.8158 151.5185,497.3985 150.3733,486.9812 149.2287,476.5641 148.0848,466.1469 146.9415,455.7299 145.7988,445.3128 144.6567,434.8956 143.5153,424.4785 142.3744,414.0612 141.2342,403.6439 140.0945,393.2264 138.9555,382.8088 137.817,372.391 136.6792,361.973 135.5419,351.5548 134.4052,341.1364 133.2692,330.7176 132.1337,320.2986 130.9988,309.8792 129.8644,299.4595 128.7307,289.0395 127.5975,278.619 126.4649,268.1981 125.3328,257.7767 124.2014,247.3549 123.0704,236.9326 121.9401,226.5098 120.8103,216.0864 119.6811,205.6625 118.5524,195.2379 117.4242,184.8128 116.2967,174.387 115.1696,163.9605 114.0431,153.5333 112.9172,143.1054 111.7918,132.6768 110.6669,122.2474 109.5425,111.8172 108.4187,101.3862" stroke="silver" stroke-opacity="0.5" stroke-width="1" /><polyline fill="none" points="680.1416,691.4445 678.8421,691.2669 674.7802,690.7171 670.7174,690.1755 666.6536,689.6419 662.5889,689.1165 658.5232,688.5991 654.4566,688.0898 650.3892,687.5886 646.3208,687.0954 642.2516,686.6104 638.1815,686.1335 634.1106,685.6646 630.0388,685.2039 625.9663,684.7512 621.8929,684.3066 617.8188,683.8702 613.7439,683.4418 609.6682,683.0216 605.5918,682.6094 601.5147,682.2053 597.4368,681.8094 593.3583,681.4215 589.279,681.0417 585.1992,680.6701 581.1186,680.3065 577.0374,679.9511 572.9556,679.6038 568.8732,679.2645 564.7902,678.9334 560.7066,678.6104 556.6224,678.2955 552.5377,677.9887 548.4524,677.6901 544.3667,677.3995 540.2804,677.1171 536.1936,676.8427 532.1063,676.5765 528.0186,676.3184 523.9304,676.0684 519.8418,675.8266 515.7528,675.5928 511.6633,675.3672 507.5735,675.1496 503.4832,674.9402 499.3926,674.739 495.3017,674.5458 491.2104,674.3607 487.1188,674.1838 483.0269,674.015 478.9347,673.8543 474.8423,673.7018 470.7495,673.5573 466.6565,673.421 462.5633,673.2928 458.4699,673.1727 454.3762,673.0608 450.2824,672.957 446.1884,672.8613 442.0942,672.7737 437.9999,672.6942 433.9054,672.6229 429.8108,672.5597 425.7161,672.5046 421.6214,672.4576 417.5265,672.4188 413.4316,672.3881 409.3366,672.3655 405.2416,672.351 401.1466,672.3447 397.0516,672.3465 392.9566,672.3564 388.8616,672.3744 384.7666,672.4006 380.6718,672.4349 376.5769,672.4773 372.4822,672.5278 368.3876,672.5865 364.293,672.6533 360.1986,672.7282 356.1044,672.8112 352.0102,672.9024 347.9163,673.0017 343.8225,673.1091 339.729,673.2246 335.6356,673.3482 331.5425,673.48 327.4496,673.6199 323.357,673.7679 319.2647,673.924 315.1726,674.0883 311.0808,674.2607 306.9894,674.4412 302.8982,674.6298 298.8074,674.8265 294.717,675.0314 290.627,675.2443 286.5373,675.4654 282.448,675.6946 278.3592,675.932 274.2707,676.1774 270.1828,676.431 266.0952,676.6927 262.0082,676.9624 257.9216,677.2403 253.8355,677.5264 249.75,677.8205 245.665,678.1227 241.5805,678.4331 237.4966,678.7516 233.4132,679.0781 229.3305,679.4128 225.2483,679.7556 221.1668,680.1065 217.0859,680.4655 213.0056,680.8326 208.926,681.2078 204.8471,681.5912 200.7689,681.9826 196.6913,682.3821 192.6145,682.7897 188.5384,683.2055 184.4631,683.6293 180.3885,684.0612 176.3147,684.5013 172.2417,684.9494 168.1695,685.4056 164.0981,685.8699 160.0276,686.3423 155.9578,686.8228 151.889,687.3114 147.821,687.8081 143.754,688.3129 139.6878,688.8257 135.6225,689.3467 131.5582,689.8757 127.4949,690.4128 123.4325,690.958 119.8584,691.4445" stroke="silver" stroke-opacity="0.5" stroke-width="1" /><polyline fill="none" points="691.5064,608.3103 690.154,608.1263 685.927,607.5567 681.699,606.9954 677.4701,606.4426 673.2402,605.8981 669.0093,605.362 664.7776,604.8342 660.5448,604.3149 656.3112,603.8039 652.0767,603.3014 647.8413,602.8072 643.605,602.3214 639.3679,601.8439 635.13,601.3749 630.8912,600.9143 626.6517,600.462 622.4113,600.0182 618.1702,599.5827 613.9283,599.1557 609.6857,598.737 605.4423,598.3267 601.1982,597.9248 596.9535,597.5313 592.708,597.1463 588.4619,596.7696 584.2151,596.4013 579.9677,596.0414 575.7196,595.6899 571.4709,595.3468 567.2217,595.0122 562.9718,594.6859 558.7214,594.368 554.4705,594.0586 550.219,593.7575 545.9669,593.4648 541.7144,593.1806 537.4614,592.9048 533.2079,592.6373 528.9539,592.3783 524.6995,592.1277 520.4447,591.8855 516.1894,591.6517 511.9337,591.4263 507.6777,591.2094 503.4212,591.0008 499.1644,590.8007 494.9073,590.609 490.6498,590.4256 486.3921,590.2507 482.134,590.0843 477.8756,589.9262 473.617,589.7765 469.3581,589.6353 465.099,589.5025 460.8396,589.3781 456.58,589.2621 452.3202,589.1545 448.0603,589.0553 443.8002,588.9646 439.5399,588.8823 435.2795,588.8083 431.019,588.7429 426.7583,588.6858 422.4976,588.6371 418.2368,588.5969 413.9759,588.5651 409.715,588.5417 405.454,588.5267 401.1931,588.5201 396.9321,588.522 392.6711,588.5322 388.4102,588.5509 384.1493,588.578 379.8884,588.6136 375.6277,588.6575 371.367,588.7099 367.1064,588.7706 362.8459,588.8398 358.5856,588.9174 354.3253,589.0035 350.0653,589.0979 345.8054,589.2008 341.5457,589.3121 337.2863,589.4318 333.027,589.5599 328.768,589.6964 324.5092,589.8413 320.2507,589.9947 315.9924,590.1565 311.7345,590.3267 307.4768,590.5053 303.2195,590.6923 298.9625,590.8877 294.7059,591.0916 290.4496,591.3038 286.1937,591.5245 281.9382,591.7536 277.6832,591.991 273.4285,592.2369 269.1743,592.4913 264.9205,592.754 260.6672,593.0251 256.4144,593.3046 252.1621,593.5926 247.9103,593.8889 243.659,594.1937 239.4083,594.5068 235.1582,594.8284 230.9086,595.1584 226.6596,595.4968 222.4112,595.8435 218.1634,596.1987 213.9162,596.5623 209.6697,596.9343 205.4239,597.3147 201.1787,597.7034 196.9343,598.1006 192.6905,598.5062 188.4475,598.9202 184.2052,599.3425 179.9636,599.7733 175.7228,600.2124 171.4828,600.66 167.2436,601.1159 163.0052,601.5803 158.7676,602.053 154.5309,602.5341 150.295,603.0236 146.06,603.5215 141.8259,604.0277 137.5927,604.5424 133.3603,605.0654 129.129,605.5968 124.8985,606.1366 120.669,606.6848 116.4405,607.2413 112.213,607.8063 108.4936,608.3103" stroke="silver" stroke-opacity="0.5" stroke-width="1" /><polyline fill="none" points="702.8198,525.1949 701.4147,525.0045 697.0234,524.4153 692.631,523.8347 688.2377,523.2628 683.8433,522.6996 679.448,522.145 675.0517,521.5992 670.6545,521.0619 666.2563,520.5334 661.8572,520.0135 657.4572,519.5023 653.0564,518.9998 648.6546,518.506 644.2521,518.0208 639.8486,517.5444 635.4444,517.0766 631.0393,516.6174 626.6335,516.167 622.2269,515.7253 617.8195,515.2922 613.4113,514.8678 609.0025,514.4521 604.5929,514.0451 600.1826,513.6468 595.7716,513.2571 591.36,512.8762 586.9477,512.5039 582.5348,512.1404 578.1212,511.7855 573.707,511.4393 569.2922,511.1018 564.8769,510.773 560.461,510.4529 556.0445,510.1415 551.6275,509.8388 547.21,509.5448 542.7919,509.2595 538.3734,508.9829 533.9544,508.715 529.535,508.4558 525.1151,508.2052 520.6948,507.9634 516.274,507.7303 511.8529,507.5059 507.4314,507.2902 503.0095,507.0831 498.5872,506.8848 494.1647,506.6952 489.7417,506.5143 485.3185,506.3421 480.895,506.1786 476.4713,506.0238 472.0472,505.8777 467.6229,505.7403 463.1984,505.6117 458.7737,505.4917 454.3487,505.3804 449.9236,505.2778 445.4983,505.184 441.0729,505.0988 436.6473,505.0224 432.2216,504.9546 427.7958,504.8956 423.3698,504.8453 418.9438,504.8037 414.5178,504.7707 410.0916,504.7465 405.6655,504.731 401.2393,504.7243 396.8132,504.7262 392.387,504.7368 387.9609,504.7561 383.5348,504.7842 379.1087,504.8209 374.6828,504.8664 370.2569,504.9205 365.8311,504.9834 361.4054,505.0549 356.9799,505.1352 352.5545,505.2242 348.1293,505.3219 343.7043,505.4283 339.2794,505.5434 334.8548,505.6672 330.4303,505.7997 326.0062,505.9409 321.5822,506.0909 317.1586,506.2495 312.7352,506.4168 308.3121,506.5928 303.8894,506.7776 299.4669,506.971 295.0449,507.1732 290.6231,507.384 286.2018,507.6036 281.7808,507.8318 277.3603,508.0687 272.9401,508.3144 268.5204,508.5687 264.1012,508.8318 259.6824,509.1035 255.2641,509.384 250.8463,509.6731 246.429,509.971 242.0122,510.2775 237.596,510.5927 233.1803,510.9166 228.7652,511.2493 224.3507,511.5906 219.9368,511.9406 215.5235,512.2993 211.1108,512.6667 206.6988,513.0427 202.2875,513.4275 197.8768,513.821 193.4668,514.2231 189.0575,514.6339 184.649,515.0535 180.2412,515.4817 175.8341,515.9186 171.4278,516.3641 167.0223,516.8184 162.6176,517.2813 158.2138,517.7529 153.8107,518.2332 149.4085,518.7222 145.0071,519.2199 140.6067,519.7262 136.2071,520.2412 131.8084,520.7649 127.4106,521.2972 123.0138,521.8383 118.6179,522.388 114.223,522.9463 109.8291,523.5134 105.4362,524.0891 101.0443,524.6735 97.1802,525.1949" stroke="silver" stroke-opacity="0.5" stroke-width="1" /><polyline fill="none" points="714.0835,442.0855 712.6262,441.8889 708.0711,441.2803 703.5151,440.6807 698.958,440.0901 694.3999,439.5084 689.8408,438.9357 685.2807,438.3719 680.7196,437.8171 676.1576,437.2712 671.5947,436.7343 667.0308,436.2063 662.4661,435.6874 657.9004,435.1773 653.3339,434.6763 648.7665,434.1842 644.1983,433.7011 639.6293,433.2269 635.0594,432.7617 630.4887,432.3055 625.9173,431.8582 621.3451,431.42 616.7722,430.9906 612.1985,430.5703 607.6241,430.1589 603.049,429.7565 598.4732,429.3631 593.8968,428.9787 589.3197,428.6032 584.7419,428.2367 580.1636,427.8792 575.5846,427.5307 571.005,427.1911 566.4249,426.8605 561.8441,426.5389 557.2629,426.2263 552.6811,425.9227 548.0988,425.628 543.516,425.3423 538.9327,425.0657 534.3489,424.798 529.7647,424.5392 525.1801,424.2895 520.595,424.0487 516.0095,423.817 511.4236,423.5942 506.8374,423.3804 502.2508,423.1756 497.6638,422.9798 493.0765,422.793 488.4889,422.6151 483.901,422.4463 479.3128,422.2864 474.7244,422.1355 470.1357,421.9937 465.5467,421.8608 460.9576,421.7369 456.3682,421.622 451.7786,421.516 447.1889,421.4191 442.599,421.3312 438.009,421.2522 433.4188,421.1823 428.8285,421.1213 424.2382,421.0693 419.6477,421.0263 415.0572,420.9924 410.4666,420.9674 405.876,420.9514 401.2854,420.9443 396.6947,420.9463 392.1041,420.9573 387.5135,420.9772 382.923,421.0062 378.3325,421.0441 373.7421,421.0911 369.1517,421.147 364.5615,421.2119 359.9714,421.2858 355.3814,421.3688 350.7916,421.4606 346.2019,421.5615 341.6125,421.6714 337.0232,421.7903 332.4341,421.9181 327.8453,422.055 323.2567,422.2008 318.6683,422.3557 314.0803,422.5195 309.4925,422.6923 304.905,422.8741 300.3179,423.0649 295.7311,423.2646 291.1446,423.4734 286.5585,423.6911 281.9728,423.9179 277.3875,424.1536 272.8026,424.3983 268.2182,424.652 263.6342,424.9146 259.0506,425.1863 254.4675,425.4669 249.8849,425.7566 245.3029,426.0552 240.7213,426.3627 236.1403,426.6793 231.5598,427.0049 226.9799,427.3394 222.4006,427.6829 217.8219,428.0354 213.2438,428.3969 208.6663,428.7673 204.0895,429.1467 199.5133,429.5351 194.9379,429.9325 190.3631,430.3388 185.789,430.7541 181.2156,431.1784 176.643,431.6117 172.0712,432.0539 167.5001,432.5051 162.9298,432.9653 158.3603,433.4344 153.7916,433.9125 149.2237,434.3996 144.6567,434.8956 140.0906,435.4006 135.5253,435.9146 130.961,436.4375 126.3975,436.9694 121.835,437.5103 117.2734,438.0601 112.7128,438.6188 108.1531,439.1866 103.5945,439.7632 99.0368,440.3489 94.4801,440.9435 89.9245,441.547 85.9165,442.0855" stroke="silver" stroke-opacity="0.5" stroke-width="1" /><polyline fill="none" points="725.2994,358.9696 723.7899,358.7668 719.0719,358.1392 714.3528,357.5209 709.6326,356.9117 704.9114,356.3119 700.1892,355.7212 695.466,355.1398 690.7418,354.5676 686.0167,354.0047 681.2906,353.451 676.5635,352.9065 671.8355,352.3713 667.1066,351.8453 662.3769,351.3286 657.6462,350.8211 652.9147,350.3229 648.1824,349.8339 643.4492,349.3542 638.7152,348.8837 633.9804,348.4224 629.2449,347.9705 624.5085,347.5277 619.7715,347.0942 615.0337,346.67 610.2951,346.2551 605.5559,345.8493 600.816,345.4529 596.0754,345.0657 591.3342,344.6877 586.5923,344.319 581.8499,343.9596 577.1068,343.6095 572.3631,343.2686 567.6188,342.9369 562.874,342.6145 558.1286,342.3014 553.3828,341.9975 548.6364,341.703 543.8895,341.4176 539.1421,341.1416 534.3943,340.8748 529.646,340.6172 524.8973,340.369 520.1482,340.13 515.3986,339.9002 510.6487,339.6798 505.8985,339.4686 501.1478,339.2666 496.3969,339.074 491.6456,338.8906 486.894,338.7165 482.1421,338.5516 477.39,338.396 472.6375,338.2497 467.8849,338.1127 463.132,337.9849 458.3789,337.8664 453.6256,337.7572 448.8722,337.6572 444.1185,337.5665 439.3648,337.4851 434.6109,337.413 429.8569,337.3501 425.1027,337.2965 420.3485,337.2522 415.5943,337.2171 410.84,337.1914 406.0856,337.1748 401.3312,337.1676 396.5768,337.1697 391.8225,337.181 387.0681,337.2016 382.3138,337.2314 377.5596,337.2705 372.8054,337.3189 368.0514,337.3766 363.2974,337.4436 358.5435,337.5198 353.7898,337.6053 349.0363,337.7 344.2829,337.8041 339.5297,337.9174 334.7767,338.04 330.0239,338.1718 325.2714,338.3129 320.5191,338.4633 315.767,338.623 311.0153,338.7919 306.2638,338.9701 301.5127,339.1576 296.7618,339.3543 292.0114,339.5603 287.2613,339.7756 282.5115,340.0002 277.7622,340.234 273.0132,340.4771 268.2647,340.7294 263.5166,340.991 258.769,341.2619 254.0218,341.542 249.2752,341.8314 244.529,342.1301 239.7833,342.438 235.0382,342.7552 230.2936,343.0817 225.5496,343.4174 220.8062,343.7624 216.0634,344.1166 211.3212,344.4801 206.5796,344.8529 201.8386,345.2349 197.0983,345.6262 192.3587,346.0267 187.6198,346.4365 182.8816,346.8555 178.1441,347.2838 173.4074,347.7214 168.6714,348.1682 163.9362,348.6242 159.2017,349.0896 154.4681,349.5641 149.7353,350.0479 145.0033,350.541 140.2722,351.0433 135.5419,351.5548 130.8125,352.0756 126.0841,352.6056 121.3565,353.1449 116.6298,353.6935 111.9041,354.2512 107.1794,354.8182 102.4557,355.3945 97.7329,355.9799 93.0111,356.5747 88.2904,357.1786 83.5707,357.7918 78.8521,358.4142 74.7006,358.9696" stroke="silver" stroke-opacity="0.5" stroke-width="1" /><polyline fill="none" points="736.4692,275.8345 734.9077,275.6257 730.0273,274.9793 725.1458,274.3425 720.2632,273.7151 715.3796,273.0973 710.495,272.489 705.6093,271.8902 700.7226,271.3009 695.8349,270.7211 690.9463,270.1509 686.0567,269.5902 681.1662,269.039 676.2747,268.4973 671.3824,267.9651 666.4891,267.4425 661.595,266.9293 656.7,266.4257 651.8042,265.9317 646.9075,265.4471 642.01,264.9721 637.1118,264.5066 632.2127,264.0507 627.3129,263.6043 622.4124,263.1674 617.5111,262.74 612.6091,262.3222 607.7064,261.9139 602.803,261.5151 597.899,261.1259 592.9943,260.7462 588.089,260.376 583.1831,260.0154 578.2765,259.6643 573.3694,259.3228 568.4617,258.9908 563.5535,258.6683 558.6447,258.3554 553.7354,258.052 548.8256,257.7581 543.9153,257.4738 539.0045,257.1991 534.0933,256.9339 529.1816,256.6782 524.2695,256.432 519.357,256.1955 514.4442,255.9684 509.5309,255.7509 504.6173,255.543 499.7033,255.3445 494.789,255.1557 489.8744,254.9764 484.9595,254.8066 480.0444,254.6464 475.1289,254.4957 470.2132,254.3546 465.2973,254.223 460.3812,254.1009 455.4649,253.9885 450.5484,253.8855 445.6317,253.7921 440.7149,253.7083 435.7979,253.634 430.8809,253.5692 425.9637,253.5141 421.0464,253.4684 416.1291,253.4323 411.2117,253.4058 406.2943,253.3888 401.3769,253.3813 396.4594,253.3834 391.542,253.3951 386.6246,253.4163 381.7073,253.447 376.79,253.4873 371.8727,253.5372 366.9556,253.5966 362.0386,253.6655 357.1217,253.744 352.2049,253.832 347.2883,253.9296 342.3719,254.0368 337.4557,254.1535 332.5396,254.2797 327.6238,254.4155 322.7083,254.5608 317.7929,254.7157 312.8779,254.8801 307.9631,255.0541 303.0486,255.2376 298.1345,255.4307 293.2207,255.6333 288.3072,255.8454 283.3941,256.0671 278.4814,256.2984 273.5691,256.5392 268.6572,256.7895 263.7457,257.0494 258.8347,257.3188 253.9241,257.5978 249.0141,257.8863 244.1045,258.1843 239.1954,258.4919 234.2869,258.809 229.3788,259.1357 224.4714,259.4719 219.5645,259.8176 214.6583,260.1729 209.7526,260.5377 204.8475,260.9121 199.9431,261.296 195.0394,261.6894 190.1363,262.0923 185.2339,262.5048 180.3322,262.9269 175.4313,263.3584 170.5311,263.7995 165.6316,264.2501 160.7329,264.7103 155.835,265.18 150.9379,265.6592 146.0416,266.1479 141.1461,266.6462 136.2515,267.1539 131.3577,267.6712 126.4649,268.1981 121.5729,268.7344 116.6819,269.2803 111.7917,269.8357 106.9026,270.4006 102.0144,270.9751 97.1271,271.559 92.2409,272.1525 87.3557,272.7555 82.4715,273.368 77.5883,273.99 72.7062,274.6215 67.8252,275.2626 63.5308,275.8345" stroke="silver" stroke-opacity="0.5" stroke-width="1" /><polyline fill="none" points="747.5944,192.6677 745.9811,192.4529 740.939,191.788 735.8957,191.1329 730.8514,190.4876 725.806,189.8521 720.7595,189.2264 715.712,188.6105 710.6635,188.0043 705.6139,187.408 700.5634,186.8214 695.5119,186.2447 690.4594,185.6777 685.4061,185.1205 680.3517,184.5731 675.2965,184.0355 670.2404,183.5077 665.1834,182.9897 660.1256,182.4816 655.0669,181.9832 650.0074,181.4946 644.947,181.0158 639.8859,180.5468 634.824,180.0876 629.7614,179.6382 624.698,179.1986 619.6339,178.7689 614.569,178.3489 609.5035,177.9388 604.4373,177.5384 599.3704,177.1479 594.3029,176.7671 589.2348,176.3962 584.1661,176.0351 579.0967,175.6838 574.0268,175.3423 568.9563,175.0106 563.8853,174.6888 558.8137,174.3767 553.7417,174.0745 548.6691,173.7821 543.596,173.4994 538.5225,173.2266 533.4486,172.9637 528.3742,172.7105 523.2994,172.4672 518.2242,172.2336 513.1486,172.0099 508.0726,171.796 502.9963,171.592 497.9197,171.3977 492.8428,171.2133 487.7655,171.0386 482.688,170.8738 477.6102,170.7189 472.5321,170.5737 467.4539,170.4384 462.3754,170.3129 457.2967,170.1972 452.2178,170.0913 447.1387,169.9952 442.0595,169.909 436.9802,169.8326 431.9007,169.766 426.8212,169.7092 421.7415,169.6623 416.6618,169.6251 411.582,169.5978 406.5022,169.5803 401.4224,169.5727 396.3425,169.5748 391.2627,169.5868 386.1829,169.6086 381.1031,169.6403 376.0234,169.6817 370.9438,169.733 365.8643,169.7941 360.7849,169.865 355.7056,169.9457 350.6265,170.0363 345.5475,170.1367 340.4687,170.2469 335.3901,170.3669 330.3117,170.4967 325.2335,170.6364 320.1555,170.7858 315.0779,170.9451 310.0005,171.1143 304.9233,171.2932 299.8465,171.482 294.77,171.6805 289.6939,171.8889 284.6181,172.1071 279.5427,172.3352 274.4677,172.573 269.393,172.8207 264.3188,173.0782 259.2451,173.3455 254.1718,173.6226 249.0989,173.9095 244.0266,174.2063 238.9547,174.5128 233.8834,174.8292 228.8126,175.1554 223.7424,175.4914 218.6727,175.8372 213.6036,176.1928 208.5351,176.5582 203.4673,176.9334 198.4001,177.3185 193.3335,177.7134 188.2676,178.118 183.2024,178.5325 178.1378,178.9568 173.074,179.3909 168.011,179.8347 162.9486,180.2884 157.8871,180.7519 152.8263,181.2252 147.7664,181.7083 142.7072,182.2012 137.6489,182.704 132.5914,183.2165 127.5348,183.7388 122.4791,184.2709 117.4242,184.8128 112.3703,185.3645 107.3174,185.9259 102.2653,186.4972 97.2142,187.0783 92.1642,187.6692 87.1151,188.2698 82.067,188.8803 77.0199,189.5005 71.9739,190.1305 66.929,190.7704 61.8851,191.42 56.8424,192.0793 52.4056,192.6677" stroke="silver" stroke-opacity="0.5" stroke-width="1" /><polyline fill="none" points="758.6767,109.4564 757.0119,109.2357 751.8086,108.5526 746.6042,107.8796 741.3986,107.2166 736.192,106.5636 730.9844,105.9208 725.7756,105.288 720.5658,104.6652 715.355,104.0525 710.1432,103.4499 704.9304,102.8573 699.7167,102.2748 694.5019,101.7023 689.2863,101.14 684.0697,100.5876 678.8522,100.0454 673.6338,99.5132 668.4146,98.9911 663.1945,98.4791 657.9735,97.9771 652.7518,97.4852 647.5292,97.0033 642.3059,96.5316 637.0817,96.0699 631.8568,95.6183 626.6312,95.1768 621.4049,94.7453 616.1778,94.3239 610.9501,93.9126 605.7217,93.5114 600.4926,93.1202 595.2629,92.7391 590.0326,92.3681 584.8016,92.0072 579.5701,91.6564 574.338,91.3156 569.1054,90.985 563.8722,90.6644 558.6385,90.3539 553.4043,90.0534 548.1696,89.7631 542.9344,89.4828 537.6988,89.2127 532.4628,88.9526 527.2263,88.7026 521.9894,88.4627 516.7521,88.2328 511.5145,88.0131 506.2765,87.8034 501.0381,87.6039 495.7995,87.4144 490.5605,87.235 485.3212,87.0657 480.0817,86.9065 474.8419,86.7573 469.6019,86.6183 464.3617,86.4893 459.1213,86.3705 453.8806,86.2617 448.6398,86.163 443.3989,86.0744 438.1578,85.9959 432.9166,85.9275 427.6752,85.8692 422.4338,85.821 417.1923,85.7828 411.9508,85.7548 406.7092,85.7368 401.4676,85.7289 396.226,85.7312 390.9845,85.7435 385.7429,85.7659 380.5014,85.7984 375.2599,85.8409 370.0186,85.8936 364.7773,85.9564 359.5361,86.0292 354.2951,86.1122 349.0542,86.2052 343.8135,86.3083 338.5729,86.4215 333.3326,86.5448 328.0924,86.6782 322.8525,86.8217 317.6129,86.9753 312.3734,87.1389 307.1343,87.3127 301.8955,87.4965 296.657,87.6904 291.4188,87.8944 286.1809,88.1085 280.9434,88.3327 275.7063,88.567 270.4696,88.8113 265.2333,89.0658 259.9975,89.3303 254.762,89.6049 249.5271,89.8896 244.2926,90.1844 239.0586,90.4892 233.8251,90.8042 228.5922,91.1292 223.3598,91.4643 218.1279,91.8095 212.8967,92.1648 207.666,92.5301 202.436,92.9056 197.2065,93.2911 191.9778,93.6867 186.7496,94.0923 181.5222,94.5081 176.2955,94.9339 171.0694,95.3698 165.8441,95.8158 160.6196,96.2718 155.3958,96.7379 150.1728,97.2141 144.9505,97.7004 139.7291,98.1967 134.5086,98.7031 129.2888,99.2196 124.07,99.7461 118.852,100.2827 113.6349,100.8294 108.4187,101.3862 103.2035,101.953 97.9892,102.5298 92.7758,103.1168 87.5635,103.7138 82.3521,104.3208 77.1417,104.938 71.9324,105.5652 66.7241,106.2024 61.5169,106.8497 56.3108,107.507 51.1058,108.1745 45.9018,108.8519 41.3233,109.4564" stroke="silver" stroke-opacity="0.5" stroke-width="1" /><line fill="none" stroke="green" stroke-opacity="0.5" stroke-width="1.5" x1="677.9863" x2="618.1308" y1="584.1437" y2="354.5207" /><circle cx="747.1156" cy="181.428" fill="black" r="0.738" stroke="none" /><circle cx="690.1878" cy="532.1424" fill="black" r="0.738" stroke="none" /><circle cx="677.9928" cy="584.1818" fill="black" r="1.476" stroke="none" /><circle cx="723.8911" cy="166.1074" fill="black" r="0.738" stroke="none" /><circle cx="713.1914" cy="207.7439" fill="black" r="0.738" stroke="none" /><circle cx="667.9422" cy="500.6365" fill="black" r="0.738" stroke="none" /><circle cx="639.1633" cy="655.1687" fill="black" r="0.738" stroke="none" /><circle cx="650.7017" cy="532.9098" fill="black" r="0.738" stroke="none" /><circle cx="694.5967" cy="128.4769" fill="black" r="0.738" stroke="none" /><circle cx="662.1874" cy="353.079" fill="black" r="0.738" stroke="none" /><circle cx="682.1471" cy="157.4279" fill="black" r="0.738" stroke="none" /><circle cx="623.6691" cy="676.1451" fill="black" r="1.17" stroke="none" /><circle cx="662.7373" cy="273.7931" fill="black" r="0.738" stroke="none" /><circle cx="618.7659" cy="688.2738" fill="black" r="0.738" stroke="none" /><circle cx="647.0017" cy="398.6776" fill="black" r="0.738" stroke="none" /><circle cx="631.836" cy="538.616" fill="black" r="0.738" stroke="none" /><circle cx="662.5798" cy="218.5559" fill="black" r="0.738" stroke="none" /><circle cx="635.841" cy="435.6211" fill="black" r="0.936" stroke="none" /><circle cx="638.8499" cy="393.6297" fill="black" r="0.738" stroke="none" /><circle cx="607.9505" cy="688.5806" fill="black" r="0.738" stroke="none" /><circle cx="635.972" cy="250.842" fill="black" r="0.936" stroke="none" /><circle cx="612.0857" cy="486.7889" fill="black" r="0.738" stroke="none" /><circle cx="622.0597" cy="373.9864" fill="black" r="0.738" stroke="none" /><circle cx="642.9405" cy="104.0022" fill="black" r="0.738" stroke="none" /><circle cx="641.3824" cy="98.3868" fill="black" r="0.738" stroke="none" /><circle cx="618.1466" cy="354.5221" fill="black" r="1.476" stroke="none" /><circle cx="606.7387" cy="470.6414" fill="black" r="0.936" stroke="none" /><circle cx="596.2296" cy="523.8154" fill="black" r="0.738" stroke="none" /><circle cx="589.7551" cy="587.1201" fill="black" r="0.738" stroke="none" /><circle cx="589.1292" cy="593.4615" fill="black" r="0.738" stroke="none" /><circle cx="610.3065" cy="215.6084" fill="black" r="0.738" stroke="none" /><circle cx="613.1933" cy="143.1491" fill="black" r="0.738" stroke="none" /><circle cx="570.3032" cy="621.4116" fill="black" r="0.738" stroke="none" /><circle cx="581.0468" cy="323.31" fill="black" r="0.738" stroke="none" /><circle cx="580.1019" cy="240.5494" fill="black" r="0.738" stroke="none" /><circle cx="564.8983" cy="326.7078" fill="black" r="0.738" stroke="none" /><circle cx="554.3587" cy="452.0677" fill="black" r="0.738" stroke="none" /><circle cx="547.519" cy="530.5629" fill="black" r="0.738" stroke="none" /><circle cx="542.065" cy="612.0232" fill="black" r="0.738" stroke="none" /><circle cx="565.3652" cy="258.7022" fill="black" r="0.738" stroke="none" /><circle cx="572.1767" cy="132.6983" fill="black" r="0.738" stroke="none" /><circle cx="558.1567" cy="326.5153" fill="black" r="0.738" stroke="none" /><circle cx="566.5616" cy="165.8676" fill="black" r="0.738" stroke="none" /><circle cx="548.6763" cy="402.9945" fill="black" r="0.738" stroke="none" /><circle cx="564.0555" cy="131.5148" fill="black" r="0.738" stroke="none" /><circle cx="558.9056" cy="109.3591" fill="black" r="0.738" stroke="none" /><circle cx="535.5717" cy="497.1424" fill="black" r="0.738" stroke="none" /><circle cx="556.5362" cy="98.3822" fill="black" r="0.936" stroke="none" /><circle cx="539.6628" cy="386.9163" fill="black" r="0.738" stroke="none" /><circle cx="521.1558" cy="658.3479" fill="black" r="0.738" stroke="none" /><circle cx="543.1147" cy="189.6781" fill="black" r="0.738" stroke="none" /><circle cx="529.2912" cy="403.6175" fill="black" r="0.738" stroke="none" /><circle cx="529.8348" cy="139.4557" fill="black" r="0.738" stroke="none" /><circle cx="521.5052" cy="196.0496" fill="black" r="0.738" stroke="none" /><circle cx="513.4165" cy="234.7812" fill="black" r="0.738" stroke="none" /><circle cx="497.6341" cy="532.5936" fill="black" r="0.738" stroke="none" /><circle cx="493.4335" cy="593.9004" fill="black" r="1.17" stroke="none" /><circle cx="509.6805" cy="208.6953" fill="black" r="0.738" stroke="none" /><circle cx="486.496" cy="709.4944" fill="black" r="0.738" stroke="none" /><circle cx="500.0208" cy="312.6366" fill="black" r="0.738" stroke="none" /><circle cx="483.3337" cy="697.7784" fill="black" r="0.936" stroke="none" /><circle cx="498.6441" cy="268.3023" fill="black" r="1.17" stroke="none" /><circle cx="490.0834" cy="455.2088" fill="black" r="0.738" stroke="none" /><circle cx="476.8753" cy="671.9306" fill="black" r="0.738" stroke="none" /><circle cx="484.3802" cy="459.5204" fill="black" r="0.738" stroke="none" /><circle cx="482.9863" cy="357.1913" fill="black" r="0.738" stroke="none" /><circle cx="471.4989" cy="513.0699" fill="black" r="0.738" stroke="none" /><circle cx="460.761" cy="581.243" fill="black" r="0.738" stroke="none" /><circle cx="453.2837" cy="712.0387" fill="black" r="0.738" stroke="none" /><circle cx="462.5787" cy="212.2393" fill="black" r="0.738" stroke="none" /><circle cx="453.9668" cy="522.637" fill="black" r="0.738" stroke="none" /><circle cx="457.2638" cy="360.8024" fill="black" r="0.738" stroke="none" /><circle cx="451.0084" cy="554.6697" fill="black" r="1.17" stroke="none" /><circle cx="460.3929" cy="91.4317" fill="black" r="0.738" stroke="none" /><circle cx="448.8916" cy="415.5045" fill="black" r="0.738" stroke="none" /><circle cx="445.8172" cy="551.1187" fill="black" r="0.738" stroke="none" /><circle cx="442.9666" cy="549.6363" fill="black" r="0.738" stroke="none" /><circle cx="442.5453" cy="549.8795" fill="black" r="0.738" stroke="none" /><circle cx="450.5855" cy="107.6708" fill="black" r="0.738" stroke="none" /><circle cx="446.065" cy="209.7121" fill="black" r="0.936" stroke="none" /><circle cx="428.6716" cy="645.7129" fill="black" r="0.738" stroke="none" /><circle cx="428.3027" cy="655.7689" fill="black" r="0.738" stroke="none" /><circle cx="427.3899" cy="603.2781" fill="black" r="0.738" stroke="none" /><circle cx="431.2187" cy="209.4061" fill="black" r="0.738" stroke="none" /><circle cx="422.2514" cy="277.2768" fill="black" r="0.738" stroke="none" /><circle cx="418.9234" cy="284.4555" fill="black" r="0.738" stroke="none" /><circle cx="417.915" cy="140.4596" fill="black" r="0.738" stroke="none" /><circle cx="415.6606" cy="373.6617" fill="black" r="0.738" stroke="none" /><circle cx="412.4692" cy="613.0295" fill="black" r="0.738" stroke="none" /><circle cx="393.6901" cy="423.4658" fill="black" r="0.738" stroke="none" /><circle cx="385.618" cy="487.091" fill="black" r="0.738" stroke="none" /><circle cx="384.9797" cy="514.326" fill="black" r="0.738" stroke="none" /><circle cx="381.0236" cy="593.632" fill="black" r="0.738" stroke="none" /><circle cx="376.9028" cy="406.3124" fill="black" r="0.738" stroke="none" /><circle cx="374.4634" cy="197.0227" fill="black" r="0.738" stroke="none" /><circle cx="371.25" cy="197.3916" fill="black" r="0.738" stroke="none" /><circle cx="366.7196" cy="415.3991" fill="black" r="0.738" stroke="none" /><circle cx="363.2611" cy="283.3133" fill="black" r="0.738" stroke="none" /><circle cx="355.206" cy="87.9423" fill="black" r="0.738" stroke="none" /><circle cx="350.4834" cy="396.1606" fill="black" r="0.738" stroke="none" /><circle cx="344.0261" cy="104.6738" fill="black" r="0.936" stroke="none" /><circle cx="347.288" cy="307.4843" fill="black" r="0.738" stroke="none" /><circle cx="353.5346" cy="615.2606" fill="black" r="0.738" stroke="none" /><circle cx="348.4715" cy="467.0144" fill="black" r="0.738" stroke="none" /><circle cx="345.3699" cy="395.0158" fill="black" r="0.936" stroke="none" /><circle cx="350.5464" cy="673.3563" fill="black" r="0.738" stroke="none" /><circle cx="326.3049" cy="110.3004" fill="black" r="1.17" stroke="none" /><circle cx="338.2915" cy="562.2382" fill="black" r="0.738" stroke="none" /><circle cx="331.5811" cy="374.0844" fill="black" r="0.936" stroke="none" /><circle cx="333.6791" cy="570.6738" fill="black" r="0.738" stroke="none" /><circle cx="328.0666" cy="407.6311" fill="black" r="0.936" stroke="none" /><circle cx="316.3545" cy="153.458" fill="black" r="0.738" stroke="none" /><circle cx="322.2424" cy="364.7293" fill="black" r="0.738" stroke="none" /><circle cx="319.7589" cy="290.1166" fill="black" r="0.738" stroke="none" /><circle cx="318.9469" cy="468.7068" fill="black" r="0.738" stroke="none" /><circle cx="296.9327" cy="148.8574" fill="black" r="0.738" stroke="none" /><circle cx="292.6782" cy="111.0943" fill="black" r="0.738" stroke="none" /><circle cx="295.5893" cy="268.1156" fill="black" r="0.936" stroke="none" /><circle cx="310.358" cy="653.6465" fill="black" r="0.738" stroke="none" /><circle cx="288.4819" cy="302.6448" fill="black" r="0.738" stroke="none" /><circle cx="290.5032" cy="443.3829" fill="black" r="0.738" stroke="none" /><circle cx="276.3589" cy="172.9868" fill="black" r="0.738" stroke="none" /><circle cx="274.7252" cy="255.223" fill="black" r="0.738" stroke="none" /><circle cx="288.1621" cy="555.1656" fill="black" r="0.936" stroke="none" /><circle cx="277.2105" cy="356.3704" fill="black" r="0.738" stroke="none" /><circle cx="268.9685" cy="195.0858" fill="black" r="0.738" stroke="none" /><circle cx="287.3159" cy="593.396" fill="black" r="0.738" stroke="none" /><circle cx="264.4912" cy="224.191" fill="black" r="0.738" stroke="none" /><circle cx="285.7784" cy="664.6737" fill="black" r="0.738" stroke="none" /><circle cx="261.4691" cy="247.1005" fill="black" r="0.936" stroke="none" /><circle cx="268.6365" cy="535.0902" fill="black" r="0.738" stroke="none" /><circle cx="267.5146" cy="539.7747" fill="black" r="0.738" stroke="none" /><circle cx="245.4687" cy="243.6571" fill="black" r="0.738" stroke="none" /><circle cx="225.9881" cy="140.7175" fill="black" r="0.738" stroke="none" /><circle cx="255.442" cy="601.6877" fill="black" r="0.738" stroke="none" /><circle cx="242.6437" cy="419.3456" fill="black" r="0.738" stroke="none" /><circle cx="230.0136" cy="306.3056" fill="black" r="0.738" stroke="none" /><circle cx="233.8918" cy="364.8413" fill="black" r="0.738" stroke="none" /><circle cx="217.9188" cy="151.8492" fill="black" r="0.738" stroke="none" /><circle cx="241.0174" cy="511.272" fill="black" r="0.738" stroke="none" /><circle cx="218.1014" cy="190.4177" fill="black" r="0.738" stroke="none" /><circle cx="225.1581" cy="301.6869" fill="black" r="0.738" stroke="none" /><circle cx="252.3286" cy="696.6379" fill="black" r="0.738" stroke="none" /><circle cx="222.4317" cy="313.3926" fill="black" r="0.738" stroke="none" /><circle cx="233.2216" cy="500.9127" fill="black" r="0.738" stroke="none" /><circle cx="226.3401" cy="486.0496" fill="black" r="0.738" stroke="none" /><circle cx="199.4943" cy="223.2367" fill="black" r="0.738" stroke="none" /><circle cx="191.7939" cy="222.672" fill="black" r="0.936" stroke="none" /><circle cx="219.4149" cy="603.3291" fill="black" r="0.738" stroke="none" /><circle cx="199.9354" cy="391.6476" fill="black" r="0.738" stroke="none" /><circle cx="176.1023" cy="110.3564" fill="black" r="0.738" stroke="none" /><circle cx="196.6892" cy="384.773" fill="black" r="0.738" stroke="none" /><circle cx="167.7905" cy="129.4172" fill="black" r="0.738" stroke="none" /><circle cx="202.6304" cy="536.4554" fill="black" r="0.738" stroke="none" /><circle cx="173.2293" cy="219.6149" fill="black" r="0.738" stroke="none" /><circle cx="181.6515" cy="461.447" fill="black" r="0.738" stroke="none" /><circle cx="188.416" cy="554.1907" fill="black" r="0.738" stroke="none" /><circle cx="149.8343" cy="155.2206" fill="black" r="0.738" stroke="none" /><circle cx="175.2354" cy="475.8787" fill="black" r="0.738" stroke="none" /><circle cx="145.6813" cy="200.8718" fill="black" r="0.738" stroke="none" /><circle cx="156.4401" cy="330.5773" fill="black" r="0.738" stroke="none" /><circle cx="152.9787" cy="361.176" fill="black" r="0.738" stroke="none" /><circle cx="181.8928" cy="641.8132" fill="black" r="0.738" stroke="none" /><circle cx="147.784" cy="317.9696" fill="black" r="0.738" stroke="none" /><circle cx="122.096" cy="203.2086" fill="black" r="0.738" stroke="none" /><circle cx="171.9188" cy="673.6746" fill="black" r="0.738" stroke="none" /><circle cx="150.5225" cy="522.3098" fill="black" r="0.738" stroke="none" /><circle cx="160.2486" cy="630.8366" fill="black" r="0.738" stroke="none" /><circle cx="101.7537" cy="124.2368" fill="black" r="0.738" stroke="none" /><circle cx="158.2622" cy="636.5509" fill="black" r="0.738" stroke="none" /><circle cx="103.1598" cy="255.0472" fill="black" r="0.738" stroke="none" /><circle cx="134.8374" cy="527.9189" fill="black" r="0.738" stroke="none" /><circle cx="94.6552" cy="266.8731" fill="black" r="1.854" stroke="none" /><circle cx="58.7857" cy="128.2655" fill="black" r="0.936" stroke="none" /><circle cx="123.5308" cy="631.1841" fill="black" r="0.738" stroke="none" /><circle cx="13.77" cy="786.23" fill="black" r="4.59" stroke="none" /><circle cx="13.77" cy="786.23" fill="black" r="4.59" stroke="none" /><text fill="black" font-family="monospace" font-size="12" x="10.77" y="775.64">1</text><circle cx="37.77" cy="786.23" fill="black" r="3.654" stroke="none" /><circle cx="37.77" cy="786.23" fill="black" r="3.654" stroke="none" /><text fill="black" font-family="monospace" font-size="12" x="34.769999999999996" y="775.64">2</text><circle cx="61.77" cy="786.23" fill="black" r="2.916" stroke="none" /><circle cx="61.77" cy="786.23" fill="black" r="2.916" stroke="none" /><text fill="black" font-family="monospace" font-size="12" x="58.769999999999996" y="775.64">3</text><circle cx="85.77" cy="786.23" fill="black" r="2.322" stroke="none" /><circle cx="85.77" cy="786.23" fill="black" r="2.322" stroke="none" /><text fill="black" font-family="monospace" font-size="12" x="82.77" y="775.64">4</text><circle cx="109.77" cy="786.23" fill="black" r="1.854" stroke="none" /><circle cx="109.77" cy="786.23" fill="black" r="1.854" stroke="none" /><text fill="black" font-family="monospace" font-size="12" x="106.77" y="775.64">5</text><circle cx="133.77" cy="786.23" fill="black" r="1.476" stroke="none" /><circle cx="133.77" cy="786.23" fill="black" r="1.476" stroke="none" /><text fill="black" font-family="monospace" font-size="12" x="130.77" y="775.64">6</text><circle cx="157.77" cy="786.23" fill="black" r="1.17" stroke="none" /><circle cx="157.77" cy="786.23" fill="black" r="1.17" stroke="none" /><text fill="black" font-family="monospace" font-size="12" x="154.77" y="775.64">7</text><circle cx="181.77" cy="786.23" fill="black" r="0.936" stroke="none" /><circle cx="181.77" cy="786.23" fill="black" r="0.936" stroke="none" /><text fill="black" font-family="monospace" font-size="12" x="178.77" y="775.64">8</text><circle cx="205.77" cy="786.23" fill="black" r="0.738" stroke="none" /><circle cx="205.77" cy="786.23" fill="black" r="0.738" stroke="none" /><text fill="black" font-family="monospace" font-size="12" x="202.77" y="775.64">9</text><text fill="gray" fill-opacity="0.5" font-family="monospace" font-size="12" x="736.1920321771705" y="106.56364264411053">05h45m</text><text fill="gray" fill-opacity="0.5" font-family="monospace" font-size="12" x="579.5701264319908" y="91.65638966755847">06h00m</text><text fill="gray" fill-opacity="0.5" font-family="monospace" font-size="12" x="422.4338263554015" y="85.82096090847546">06h15m</text><text fill="gray" fill-opacity="0.5" font-family="monospace" font-size="12" x="265.23332774073776" y="89.06577841372632">06h30m</text><text fill="gray" fill-opacity="0.5" font-family="monospace" font-size="12" x="108.41870635638878" y="101.3861628329089">06h45m</text><text fill="gray" fill-opacity="0.5" font-family="monospace" font-size="12" x="119.85835483583946" y="691.4444808342676">-67°</text><text fill="gray" fill-opacity="0.5" font-family="monospace" font-size="12" x="108.4936267389773" y="608.3103249468363">-66°</text><text fill="gray" fill-opacity="0.5" font-family="monospace" font-size="12" x="97.18024725045956" y="525.1948726762711">-65°</text><text fill="gray" fill-opacity="0.5" font-family="monospace" font-size="12" x="85.91646518450364" y="442.085503329495">-64°</text><text fill="gray" fill-opacity="0.5" font-family="monospace" font-size="12" x="74.70055953397713" y="358.9695998883525">-63°</text><text fill="gray" fill-opacity="0.5" font-family="monospace" font-size="12" x="63.53083841686441" y="275.83454135986">-62°</text><text fill="gray" fill-opacity="0.5" font-family="monospace" font-size="12" x="52.40563806037045" y="192.66769512131597">-61°</text><text fill="gray" fill-opacity="0.5" font-family="monospace" font-size="12" x="41.323321821368665" y="109.45640925042579">-60°</text><text fill="black" font-family="monospace" font-size="12" x="12" y="48">&gt;&gt; No.75 05h43m 06h51m -67.5°-60.0°</text><a target="_self" xlink:href="hip003.svg"><text fill="black" font-family="monospace" font-size="12" x="12" y="36">&gt; No.3 00h00m 08h00m -90.0°-52.5°</text></a><a target="_self" xlink:href="hip001.svg"><text fill="black" font-family="monospace" font-size="12" x="12" y="24">No.1 00h 24h -90.0°+0.0°</text></a><polyline fill="none" points="758.6767,109.4564 757.0119,109.2357 751.8086,108.5526 746.6042,107.8796 741.3986,107.2166 736.192,106.5636 730.9844,105.9208 725.7756,105.288 720.5658,104.6652 715.355,104.0525 710.1432,103.4499 704.9304,102.8573 699.7167,102.2748 694.5019,101.7023 689.2863,101.14 684.0697,100.5876 678.8522,100.0454 673.6338,99.5132 668.4146,98.9911 663.1945,98.4791 657.9735,97.9771 652.7518,97.4852 647.5292,97.0033 642.3059,96.5316 637.0817,96.0699 631.8568,95.6183 626.6312,95.1768 621.4049,94.7453 616.1778,94.3239 610.9501,93.9126 605.7217,93.5114 600.4926,93.1202 595.2629,92.7391 590.0326,92.3681 584.8016,92.0072 579.5701,91.6564 574.338,91.3156 569.1054,90.985 563.8722,90.6644 558.6385,90.3539 553.4043,90.0534 548.1696,89.7631 542.9344,89.4828 537.6988,89.2127 532.4628,88.9526 527.2263,88.7026 521.9894,88.4627 516.7521,88.2328 511.5145,88.0131 506.2765,87.8034 501.0381,87.6039 495.7995,87.4144 490.5605,87.235 485.3212,87.0657 480.0817,86.9065 474.8419,86.7573 469.6019,86.6183 464.3617,86.4893 459.1213,86.3705 453.8806,86.2617 448.6398,86.163 443.3989,86.0744 438.1578,85.9959 432.9166,85.9275 427.6752,85.8692 422.4338,85.821 417.1923,85.7828 411.9508,85.7548 406.7092,85.7368 401.4676,85.7289 396.226,85.7312 390.9845,85.7435 385.7429,85.7659 380.5014,85.7984 375.2599,85.8409 370.0186,85.8936 364.7773,85.9564 359.5361,86.0292 354.2951,86.1122 349.0542,86.2052 343.8135,86.3083 338.5729,86.4215 333.3326,86.5448 328.0924,86.6782 322.8525,86.8217 317.6129,86.9753 312.3734,87.1389 307.1343,87.3127 301.8955,87.4965 296.657,87.6904 291.4188,87.8944 286.1809,88.1085 280.9434,88.3327 275.7063,88.567 270.4696,88.8113 265.2333,89.0658 259.9975,89.3303 254.762,89.6049 249.5271,89.8896 244.2926,90.1844 239.0586,90.4892 233.8251,90.8042 228.5922,91.1292 223.3598,91.4643 218.1279,91.8095 212.8967,92.1648 207.666,92.5301 202.436,92.9056 197.2065,93.2911 191.9778,93.6867 186.7496,94.0923 181.5222,94.5081 176.2955,94.9339 171.0694,95.3698 165.8441,95.8158 160.6196,96.2718 155.3958,96.7379 150.1728,97.2141 144.9505,97.7004 139.7291,98.1967 134.5086,98.7031 129.2888,99.2196 124.07,99.7461 118.852,100.2827 113.6349,100.8294 108.4187,101.3862 103.2035,101.953 97.9892,102.5298 92.7758,103.1168 87.5635,103.7138 82.3521,104.3208 77.1417,104.938 71.9324,105.5652 66.7241,106.2024 61.5169,106.8497 56.3108,107.507 51.1058,108.1745 45.9018,108.8519 41.3233,109.4564" stroke="black" stroke-opacity="0.5" stroke-width="1" /><polyline fill="none" points="674.4395,733.0225 675.8663,722.6272 677.2922,712.2324 678.7174,701.8382 680.1416,691.4445 681.5651,681.0513 682.9877,670.6585 684.4095,660.2662 685.8305,649.8743 687.2507,639.4828 688.6701,629.0916 690.0886,618.7008 691.5064,608.3103 692.9233,597.9201 694.3395,587.5302 695.7548,577.1405 697.1694,566.751 698.5831,556.3618 699.9961,545.9727 701.4083,535.5837 702.8198,525.1949 704.2304,514.8061 705.6403,504.4175 707.0494,494.0288 708.4577,483.6402 709.8653,473.2516 711.2721,462.863 712.6782,452.4743 714.0835,442.0855 715.4881,431.6966 716.8919,421.3076 718.295,410.9185 719.6974,400.5292 721.099,390.1396 722.4999,379.7499 723.9,369.3599 725.2994,358.9696 726.6981,348.579 728.0961,338.1881 729.4934,327.7969 730.89,317.4053 732.2858,307.0132 733.681,296.6208 735.0754,286.2279 736.4692,275.8345 737.8622,265.4407 739.2546,255.0463 740.6462,244.6514 742.0372,234.2559 743.4275,223.8598 744.8171,213.4631 746.2061,203.0657 747.5944,192.6677 748.982,182.269 750.3689,171.8695 751.7552,161.4694 753.1408,151.0684 754.5257,140.6667 755.91,130.2641 757.2937,119.8607 758.6767,109.4564" stroke="black" stroke-opacity="0.5" stroke-width="1" /><polyline fill="none" points="674.4395,733.0225 673.1664,732.8481 669.1874,732.3085 665.2074,731.7767 661.2264,731.2529 657.2446,730.7371 653.2618,730.2292 649.2781,729.7292 645.2936,729.2371 641.3081,728.753 637.3218,728.2769 633.3347,727.8086 629.3467,727.3484 625.3579,726.896 621.3683,726.4516 617.378,726.0152 613.3868,725.5867 609.3949,725.1662 605.4023,724.7536 601.4089,724.349 597.4148,723.9523 593.42,723.5636 589.4245,723.1828 585.4283,722.81 581.4315,722.4451 577.434,722.0882 573.4359,721.7393 569.4372,721.3983 565.4379,721.0652 561.438,720.7402 557.4375,720.4231 553.4365,720.1139 549.4349,719.8128 545.4328,719.5195 541.4302,719.2343 537.427,718.957 533.4234,718.6877 529.4193,718.4263 525.4148,718.1729 521.4098,717.9275 517.4043,717.69 513.3985,717.4606 509.3922,717.239 505.3856,717.0255 501.3786,716.8199 497.3712,716.6223 493.3635,716.4327 489.3555,716.251 485.3471,716.0773 481.3384,715.9116 477.3295,715.7538 473.3202,715.6041 469.3107,715.4623 465.301,715.3284 461.291,715.2026 457.2808,715.0847 453.2704,714.9748 449.2598,714.8729 445.2491,714.7789 441.2382,714.6929 437.2271,714.6149 433.2159,714.5449 429.2046,714.4828 425.1932,714.4287 421.1817,714.3826 417.1701,714.3445 413.1584,714.3144 409.1468,714.2922 405.135,714.278 401.1233,714.2718 397.1115,714.2735 393.0998,714.2833 389.0881,714.301 385.0764,714.3267 381.0648,714.3603 377.0533,714.4019 373.0418,714.4516 369.0304,714.5091 365.0191,714.5747 361.008,714.6483 356.997,714.7298 352.9862,714.8193 348.9755,714.9167 344.965,715.0222 340.9547,715.1356 336.9446,715.257 332.9347,715.3863 328.9251,715.5237 324.9157,715.669 320.9066,715.8223 316.8977,715.9835 312.8892,716.1528 308.881,716.33 304.8731,716.5151 300.8655,716.7083 296.8583,716.9094 292.8514,717.1185 288.845,717.3355 284.8389,717.5606 280.8332,717.7935 276.828,718.0345 272.8232,718.2834 268.8188,718.5403 264.8149,718.8052 260.8115,719.078 256.8086,719.3588 252.8062,719.6476 248.8043,719.9443 244.803,720.249 240.8022,720.5616 236.802,720.8822 232.8023,721.2108 228.8033,721.5473 224.8048,721.8918 220.807,722.2443 216.8098,722.6047 212.8133,722.973 208.8174,723.3493 204.8222,723.7336 200.8277,724.1258 196.8339,724.526 192.8409,724.9342 188.8486,725.3502 184.857,725.7743 180.8662,726.2063 176.8761,726.6462 172.8869,727.0941 168.8985,727.5499 164.9109,728.0137 160.9241,728.4854 156.9382,728.965 152.9531,729.4526 148.9689,729.9482 144.9857,730.4517 141.0033,730.9631 137.0218,731.4824 133.0413,732.0097 129.0618,732.545 125.5605,733.0225" stroke="black" stroke-opacity="0.5" stroke-width="1" /><polyline fill="none" points="125.5605,733.0225 124.1337,722.6272 122.7078,712.2324 121.2826,701.8382 119.8584,691.4445 118.4349,681.0513 117.0123,670.6585 115.5905,660.2662 114.1695,649.8743 112.7493,639.4828 111.3299,629.0916 109.9114,618.7008 108.4936,608.3103 107.0767,597.9201 105.6605,587.5302 104.2452,577.1405 102.8306,566.751 101.4169,556.3618 100.0039,545.9727 98.5917,535.5837 97.1802,525.1949 95.7696,514.8061 94.3597,504.4175 92.9506,494.0288 91.5423,483.6402 90.1347,473.2516 88.7279,462.863 87.3218,452.4743 85.9165,442.0855 84.5119,431.6966 83.1081,421.3076 81.705,410.9185 80.3026,400.5292 78.901,390.1396 77.5001,379.7499 76.1,369.3599 74.7006,358.9696 73.3019,348.579 71.9039,338.1881 70.5066,327.7969 69.11,317.4053 67.7142,307.0132 66.319,296.6208 64.9246,286.2279 63.5308,275.8345 62.1378,265.4407 60.7454,255.0463 59.3538,244.6514 57.9628,234.2559 56.5725,223.8598 55.1829,213.4631 53.7939,203.0657 52.4056,192.6677 51.018,182.269 49.6311,171.8695 48.2448,161.4694 46.8592,151.0684 45.4743,140.6667 44.09,130.2641 42.7063,119.8607 41.3233,109.4564" stroke="black" stroke-opacity="0.5" stroke-width="1" /></svg>