<?xml version="1.0" encoding="utf-8" ?>
<svg baseProfile="tiny" height="800" version="1.2" width="800" xmlns="http://www.w3.org/2000/svg" xmlns:ev="http://www.w3.org/2001/xml-events" xmlns:xlink="http://www.w3.org/1999/xlink"><defs /><rect fill="none" height="800" stroke="black" stroke-width="2" width="800" x="0" y="0" /><polyline fill="none" points="606.0411,724.8191 607.1119,714.3854 608.182,703.9524 609.2515,693.5201 610.3204,683.0883 611.3886,672.657 612.4562,662.2263 613.5232,651.7961 614.5895,641.3664 615.6553,630.9371 616.7204,620.5083 617.7849,610.0799 618.8488,599.6518 619.9121,589.2242 620.9748,578.7968 622.0369,568.3698 623.0984,557.9431 624.1593,547.5166 625.2196,537.0904 626.2794,526.6643 627.3385,516.2385 628.397,505.8128 629.455,495.3873 630.5124,484.9619 631.5692,474.5365 632.6254,464.1112 633.681,453.686 634.7361,443.2608 635.7906,432.8355 636.8446,422.4103 637.898,411.9849 638.9508,401.5595 640.003,391.134 641.0548,380.7083 642.1059,370.2825 643.1565,359.8565 644.2066,349.4303 645.2561,339.0039 646.305,328.5771 647.3535,318.1502 648.4014,307.7229 649.4487,297.2952 650.4955,286.8672 651.5418,276.4389 652.5876,266.0101 653.6328,255.5809 654.6775,245.1512 655.7217,234.7211 656.7654,224.2904 657.8085,213.8592 658.8511,203.4275 659.8933,192.9951 660.9349,182.5622 661.976,172.1286 663.0166,161.6944 664.0567,151.2595 665.0963,140.8239 666.1354,130.3876 667.174,119.9505 668.2121,109.5126 669.2497,99.074" stroke="silver" stroke-opacity="0.5" stroke-width="1" /><polyline fill="none" points="485.9884,716.1046 486.4351,705.6303 486.8815,695.1567 487.3276,684.6838 487.7735,674.2116 488.2191,663.74 488.6645,653.269 489.1095,642.7986 489.5544,632.3287 489.9989,621.8594 490.4432,611.3906 490.8873,600.9223 491.3311,590.4544 491.7746,579.987 492.2179,569.5199 492.6609,559.0533 493.1037,548.587 493.5462,538.1211 493.9885,527.6554 494.4305,517.1901 494.8723,506.725 495.3138,496.2601 495.7551,485.7955 496.1961,475.331 496.6369,464.8667 497.0775,454.4025 497.5178,443.9384 497.9579,433.4744 498.3977,423.0105 498.8373,412.5466 499.2767,402.0828 499.7158,391.6189 500.1547,381.1549 500.5934,370.6909 501.0318,360.2269 501.47,349.7627 501.908,339.2983 502.3457,328.8338 502.7832,318.3691 503.2205,307.9042 503.6575,297.4391 504.0943,286.9737 504.5309,276.508 504.9673,266.0419 505.4035,255.5756 505.8394,245.1089 506.2751,234.6418 506.7106,224.1743 507.1459,213.7063 507.5809,203.2379 508.0158,192.769 508.4504,182.2996 508.8848,171.8296 509.319,161.3591 509.753,150.888 510.1868,140.4162 510.6203,129.9439 511.0537,119.4709 511.4868,108.9972 511.9198,98.5227 512.3525,88.0476" stroke="silver" stroke-opacity="0.5" stroke-width="1" /><polyline fill="none" points="365.6609,714.5637 365.4826,704.0822 365.3043,693.6015 365.1262,683.1214 364.9481,672.642 364.7702,662.1633 364.5924,651.6852 364.4146,641.2077 364.237,630.7308 364.0595,620.2544 363.8821,609.7785 363.7048,599.3031 363.5276,588.8282 363.3505,578.3537 363.1735,567.8797 362.9966,557.406 362.8197,546.9328 362.643,536.4599 362.4664,525.9872 362.2899,515.5149 362.1135,505.0429 361.9372,494.5711 361.761,484.0996 361.5849,473.6282 361.4089,463.157 361.233,452.6859 361.0571,442.215 360.8814,431.7442 360.7058,421.2734 360.5303,410.8027 360.3548,400.332 360.1795,389.8613 360.0042,379.3906 359.8291,368.9198 359.654,358.449 359.479,347.978 359.3042,337.507 359.1294,327.0357 358.9547,316.5643 358.7801,306.0927 358.6055,295.6209 358.4311,285.1488 358.2568,274.6765 358.0825,264.2038 357.9084,253.7308 357.7343,243.2575 357.5603,232.7837 357.3864,222.3096 357.2126,211.8351 357.0389,201.3601 356.8653,190.8846 356.6917,180.4086 356.5183,169.9321 356.3449,159.4551 356.1716,148.9775 355.9984,138.4992 355.8253,128.0204 355.6523,117.5409 355.4793,107.0607 355.3064,96.5798 355.1337,86.0982" stroke="silver" stroke-opacity="0.5" stroke-width="1" /><polyline fill="none" points="245.4432,720.1997 244.6401,709.7445 243.8376,699.29 243.0356,688.8361 242.234,678.3829 241.4329,667.9302 240.6322,657.4782 239.832,647.0267 239.0323,636.5757 238.2331,626.1252 237.4343,615.6751 236.636,605.2256 235.8381,594.7764 235.0407,584.3276 234.2438,573.8793 233.4473,563.4312 232.6513,552.9835 231.8557,542.5361 231.0605,532.089 230.2658,521.6421 229.4716,511.1955 228.6778,500.749 227.8844,490.3027 227.0914,479.8566 226.2989,469.4106 225.5069,458.9647 224.7152,448.5189 223.924,438.0731 223.1332,427.6273 222.3429,417.1816 221.553,406.7358 220.7635,396.29 219.9744,385.8441 219.1857,375.3981 218.3974,364.952 217.6096,354.5058 216.8222,344.0593 216.0352,333.6127 215.2486,323.1659 214.4624,312.7188 213.6766,302.2714 212.8912,291.8237 212.1062,281.3757 211.3216,270.9274 210.5375,260.4787 209.7537,250.0296 208.9703,239.5801 208.1873,229.1301 207.4047,218.6797 206.6224,208.2288 205.8406,197.7773 205.0592,187.3253 204.2781,176.8727 203.4974,166.4196 202.7171,155.9658 201.9372,145.5114 201.1576,135.0563 200.3785,124.6005 199.5997,114.144 198.8213,103.6867 198.0432,93.2287" stroke="silver" stroke-opacity="0.5" stroke-width="1" /><polyline fill="none" points="125.7197,733.0007 124.2937,722.6052 122.8686,712.2104 121.4443,701.816 120.0208,691.4222 118.5982,681.0289 117.1764,670.636 115.7554,660.2436 114.3352,649.8516 112.9159,639.46 111.4973,629.0688 110.0796,618.6779 108.6627,608.2873 107.2466,597.897 105.8312,587.5069 104.4167,577.1172 103.003,566.7276 101.59,556.3382 100.1779,545.949 98.7665,535.56 97.3559,525.171 95.946,514.7822 94.537,504.3934 93.1287,494.0047 91.7212,483.616 90.3144,473.2273 88.9084,462.8385 87.5031,452.4497 86.0986,442.0609 84.6949,431.6719 83.2919,421.2828 81.8896,410.8936 80.4881,400.5041 79.0873,390.1145 77.6872,379.7247 76.2879,369.3346 74.8892,358.9442 73.4914,348.5535 72.0942,338.1625 70.6977,327.7712 69.302,317.3795 67.9069,306.9874 66.5126,296.5948 65.119,286.2018 63.726,275.8084 62.3338,265.4144 60.9422,255.02 59.5514,244.6249 58.1612,234.2293 56.7717,223.8332 55.3829,213.4364 53.9948,203.0389 52.6073,192.6408 51.2205,182.242 49.8344,171.8424 48.4489,161.4422 47.0641,151.0411 45.6799,140.6393 44.2965,130.2366 42.9136,119.8331 41.5314,109.4288" stroke="silver" stroke-opacity="0.5" stroke-width="1" /><polyline fill="none" points="679.9792,691.4222 679.4919,691.3556 675.4302,690.8045 671.3675,690.2616 667.3039,689.7268 663.2393,689.2 659.1738,688.6813 655.1073,688.1707 651.04,687.6682 646.9718,687.1738 642.9027,686.6875 638.8328,686.2092 634.762,685.7391 630.6904,685.277 626.6179,684.8231 622.5447,684.3772 618.4707,683.9395 614.3959,683.5098 610.3204,683.0883 606.2441,682.6748 602.167,682.2694 598.0893,681.8722 594.0109,681.483 589.9318,681.102 585.852,680.729 581.7715,680.3642 577.6905,680.0074 573.6087,679.6588 569.5264,679.3183 565.4435,678.9859 561.36,678.6616 557.2759,678.3454 553.1913,678.0373 549.1061,677.7373 545.0204,677.4455 540.9342,677.1617 536.8475,676.8861 532.7603,676.6186 528.6727,676.3592 524.5845,676.1079 520.496,675.8647 516.407,675.6297 512.3176,675.4027 508.2279,675.1839 504.1377,674.9732 500.0472,674.7706 495.9563,674.5762 491.8651,674.3898 487.7735,674.2116 483.6817,674.0415 479.5895,673.8795 475.4971,673.7256 471.4044,673.5799 467.3114,673.4423 463.2183,673.3128 459.1248,673.1914 455.0312,673.0782 450.9374,672.973 446.8434,672.876 442.7493,672.7872 438.655,672.7064 434.5605,672.6338 430.466,672.5693 426.3713,672.5129 422.2765,672.4646 418.1817,672.4245 414.0868,672.3925 409.9918,672.3686 405.8968,672.3528 401.8018,672.3452 397.7068,672.3457 393.6118,672.3543 389.5168,672.371 385.4218,672.3959 381.3269,672.4289 377.2321,672.47 373.1373,672.5192 369.0427,672.5766 364.9481,672.642 360.8537,672.7157 356.7594,672.7974 352.6653,672.8872 348.5713,672.9852 344.4775,673.0913 340.3839,673.2055 336.2906,673.3279 332.1974,673.4584 328.1045,673.597 324.0118,673.7437 319.9194,673.8985 315.8273,674.0615 311.7355,674.2325 307.644,674.4117 303.5528,674.5991 299.462,674.7945 295.3715,674.9981 291.2813,675.2097 287.1916,675.4295 283.1023,675.6574 279.0134,675.8935 274.9249,676.1376 270.8368,676.3899 266.7492,676.6502 262.6621,676.9187 258.5754,677.1953 254.4893,677.4801 250.4036,677.7729 246.3185,678.0738 242.234,678.3829 238.15,678.7001 234.0665,679.0253 229.9837,679.3587 225.9014,679.7002 221.8198,680.0498 217.7388,680.4075 213.6584,680.7733 209.5787,681.1473 205.4997,681.5293 201.4213,681.9194 197.3437,682.3176 193.2667,682.724 189.1905,683.1384 185.1151,683.5609 181.0404,683.9916 176.9665,684.4303 172.8933,684.8771 168.821,685.3321 164.7495,685.7951 160.6788,686.2662 156.6089,686.7454 152.54,687.2327 148.4719,687.7281 144.4046,688.2316 140.3383,688.7431 136.2729,689.2628 132.2085,689.7905 128.1449,690.3263 124.0824,690.8702 120.0208,691.4222" stroke="silver" stroke-opacity="0.5" stroke-width="1" /><polyline fill="none" points="691.3373,608.2873 690.8302,608.2182 686.6034,607.6472 682.3756,607.0847 678.1468,606.5304 673.9171,605.9846 669.6863,605.4472 665.4547,604.9181 661.2221,604.3974 656.9887,603.8851 652.7543,603.3812 648.519,602.8857 644.2829,602.3985 640.0459,601.9198 635.8081,601.4494 631.5695,600.9874 627.3301,600.5338 623.0898,600.0886 618.8488,599.6518 614.6071,599.2234 610.3646,598.8034 606.1213,598.3918 601.8773,597.9886 597.6327,597.5937 593.3873,597.2073 589.1413,596.8293 584.8946,596.4597 580.6473,596.0984 576.3993,595.7456 572.1508,595.4012 567.9016,595.0651 563.6518,594.7375 559.4015,594.4183 555.1507,594.1075 550.8992,593.8051 546.6473,593.5111 542.3948,593.2255 538.1419,592.9483 533.8885,592.6796 529.6346,592.4192 525.3802,592.1672 521.1255,591.9237 516.8703,591.6886 512.6147,591.4618 508.3587,591.2435 504.1023,591.0336 499.8456,590.8321 495.5885,590.6391 491.3311,590.4544 487.0733,590.2782 482.8153,590.1103 478.557,589.9509 474.2984,589.7999 470.0395,589.6573 465.7804,589.5232 461.5211,589.3974 457.2616,589.2801 453.0018,589.1711 448.7419,589.0706 444.4818,588.9785 440.2216,588.8949 435.9612,588.8196 431.7007,588.7528 427.44,588.6943 423.1793,588.6443 418.9185,588.6028 414.6577,588.5696 410.3968,588.5448 406.1358,588.5285 401.8748,588.5206 397.6139,588.5211 393.3529,588.53 389.0919,588.5474 384.831,588.5731 380.5702,588.6073 376.3094,588.6499 372.0487,588.7009 367.7881,588.7603 363.5276,588.8282 359.2672,588.9045 355.007,588.9891 350.7469,589.0822 346.487,589.1838 342.2273,589.2937 337.9678,589.412 333.7085,589.5388 329.4494,589.674 325.1906,589.8176 320.932,589.9696 316.6737,590.13 312.4157,590.2989 308.158,590.4761 303.9007,590.6618 299.6436,590.8559 295.3869,591.0584 291.1306,591.2693 286.8746,591.4886 282.6191,591.7163 278.3639,591.9525 274.1092,592.197 269.8549,592.45 265.6011,592.7114 261.3477,592.9812 257.0948,593.2593 252.8424,593.5459 248.5906,593.8409 244.3392,594.1444 240.0884,594.4562 235.8381,594.7764 231.5885,595.105 227.3394,595.4421 223.0909,595.7875 218.843,596.1413 214.5957,596.5036 210.3491,596.8742 206.1032,597.2532 201.8579,597.6407 197.6133,598.0365 193.3695,598.4407 189.1263,598.8534 184.8839,599.2744 180.6422,599.7038 176.4013,600.1416 172.1612,600.5878 167.9218,601.0424 163.6833,601.5054 159.4456,601.9768 155.2087,602.4565 150.9727,602.9447 146.7375,603.4412 142.5033,603.9462 138.2699,604.4595 134.0375,604.9812 129.8059,605.5112 125.5753,606.0497 121.3457,606.5965 117.117,607.1517 112.8893,607.7153 108.6627,608.2873" stroke="silver" stroke-opacity="0.5" stroke-width="1" /><polyline fill="none" points="702.6441,525.171 702.1173,525.0996 697.7261,524.509 693.3339,523.927 688.9407,523.3537 684.5465,522.7891 680.1513,522.2332 675.7552,521.6859 671.3581,521.1473 666.9601,520.6174 662.5611,520.0961 658.1613,519.5836 653.7606,519.0797 649.359,518.5844 644.9565,518.0979 640.5532,517.62 636.1491,517.1508 631.7442,516.6903 627.3385,516.2385 622.932,515.7954 618.5247,515.3609 614.1167,514.9351 609.7079,514.518 605.2985,514.1096 600.8883,513.7099 596.4774,513.3189 592.0659,512.9366 587.6537,512.5629 583.2409,512.198 578.8274,511.8417 574.4133,511.4941 569.9986,511.1553 565.5834,510.8251 561.1675,510.5036 556.7512,510.1908 552.3342,509.8867 547.9168,509.5913 543.4989,509.3046 539.0804,509.0266 534.6615,508.7573 530.2421,508.4966 525.8223,508.2447 521.402,508.0015 516.9814,507.767 512.5603,507.5412 508.1388,507.3241 503.717,507.1157 499.2948,506.916 494.8723,506.725 490.4494,506.5427 486.0263,506.3691 481.6028,506.2042 477.1791,506.048 472.7551,505.9005 468.3308,505.7617 463.9064,505.6317 459.4817,505.5103 455.0567,505.3976 450.6317,505.2937 446.2064,505.1984 441.781,505.1119 437.3554,505.034 432.9297,504.9649 428.5039,504.9045 424.078,504.8527 419.652,504.8097 415.2259,504.7754 410.7998,504.7498 406.3737,504.7329 401.9475,504.7248 397.5213,504.7253 393.0952,504.7345 388.669,504.7524 384.2429,504.7791 379.8169,504.8144 375.3909,504.8585 370.965,504.9113 366.5392,504.9727 362.1135,505.0429 357.688,505.1218 353.2626,505.2094 348.8373,505.3057 344.4123,505.4107 339.9874,505.5244 335.5627,505.6468 331.1382,505.7779 326.714,505.9178 322.2901,506.0663 317.8664,506.2235 313.4429,506.3895 309.0198,506.5641 304.597,506.7474 300.1745,506.9395 295.7524,507.1402 291.3306,507.3497 286.9092,507.5678 282.4881,507.7947 278.0675,508.0303 273.6473,508.2745 269.2275,508.5275 264.8082,508.7891 260.3894,509.0595 255.971,509.3385 251.5531,509.6263 247.1357,509.9227 242.7188,510.2279 238.3025,510.5417 233.8868,510.8642 229.4716,511.1955 225.057,511.5354 220.643,511.884 216.2296,512.2413 211.8168,512.6073 207.4047,512.982 202.9932,513.3654 198.5824,513.7574 194.1723,514.1582 189.763,514.5676 185.3543,514.9858 180.9464,515.4126 176.5392,515.8481 172.1328,516.2923 167.7272,516.7451 163.3223,517.2067 158.9183,517.6769 154.5151,518.1558 150.1128,518.6434 145.7113,519.1397 141.3107,519.6446 136.9109,520.1582 132.5121,520.6805 128.1142,521.2115 123.7172,521.7511 119.3212,522.2994 114.9262,522.8564 110.5321,523.4221 106.139,523.9964 101.7469,524.5794 97.3559,525.171" stroke="silver" stroke-opacity="0.5" stroke-width="1" /><polyline fill="none" points="713.9014,442.0609 713.3549,441.9871 708.8,441.3771 704.2441,440.7761 699.6872,440.184 695.1292,439.6009 690.5703,439.0267 686.0103,438.4615 681.4494,437.9052 676.8876,437.3579 672.3248,436.8196 667.7611,436.2902 663.1965,435.7698 658.631,435.2583 654.0646,434.7559 649.4974,434.2623 644.9293,433.7778 640.3604,433.3022 635.7906,432.8355 631.2201,432.3779 626.6488,431.9292 622.0767,431.4895 617.5039,431.0587 612.9303,430.637 608.3561,430.2241 603.7811,429.8203 599.2054,429.4255 594.6291,429.0396 590.0521,428.6627 585.4744,428.2947 580.8961,427.9358 576.3173,427.5858 571.7378,427.2448 567.1577,426.9128 562.5771,426.5898 557.9959,426.2757 553.4142,425.9706 548.832,425.6746 544.2493,425.3874 539.666,425.1093 535.0824,424.8402 530.4982,424.58 525.9136,424.3289 521.3286,424.0867 516.7432,423.8535 512.1574,423.6292 507.5712,423.414 502.9846,423.2078 498.3977,423.0105 493.8105,422.8223 489.2229,422.643 484.6351,422.4727 480.047,422.3114 475.4585,422.1591 470.8699,422.0158 466.281,421.8814 461.6918,421.7561 457.1025,421.6397 452.513,421.5324 447.9233,421.434 443.3334,421.3446 438.7434,421.2642 434.1533,421.1929 429.563,421.1304 424.9726,421.077 420.3822,421.0326 415.7917,420.9972 411.2011,420.9708 406.6105,420.9533 402.0199,420.9449 397.4292,420.9454 392.8386,420.9549 388.248,420.9734 383.6575,421.001 379.067,421.0375 374.4765,421.083 369.8862,421.1375 365.2959,421.2009 360.7058,421.2734 356.1158,421.3549 351.5259,421.4453 346.9363,421.5448 342.3468,421.6532 337.7574,421.7707 333.1683,421.8971 328.5795,422.0325 323.9908,422.1769 319.4025,422.3303 314.8143,422.4927 310.2265,422.664 305.639,422.8444 301.0518,423.0337 296.465,423.2321 291.8784,423.4394 287.2923,423.6557 282.7065,423.881 278.1212,424.1153 273.5362,424.3585 268.9517,424.6108 264.3676,424.872 259.7839,425.1422 255.2008,425.4214 250.6181,425.7096 246.036,426.0068 241.4543,426.3129 236.8732,426.6281 232.2926,426.9522 227.7126,427.2853 223.1332,427.6273 218.5544,427.9784 213.9762,428.3384 209.3987,428.7074 204.8217,429.0854 200.2455,429.4724 195.6699,429.8683 191.095,430.2732 186.5208,430.6871 181.9473,431.1099 177.3746,431.5418 172.8026,431.9826 168.2314,432.4323 163.661,432.8911 159.0913,433.3588 154.5225,433.8354 149.9545,434.3211 145.3874,434.8157 140.8211,435.3192 136.2557,435.8318 131.6912,436.3533 127.1276,436.8837 122.5649,437.4231 118.0032,437.9715 113.4424,438.5288 108.8826,439.0951 104.3238,439.6704 99.7659,440.2546 95.2091,440.8477 90.6534,441.4498 86.0986,442.0609" stroke="silver" stroke-opacity="0.5" stroke-width="1" /><polyline fill="none" points="725.1108,358.9442 724.5447,358.8681 719.8268,358.239 715.1079,357.6192 710.3879,357.0086 705.6669,356.4072 700.9448,355.8151 696.2218,355.2322 691.4978,354.6585 686.7728,354.0941 682.0468,353.5389 677.3199,352.993 672.5921,352.4563 667.8633,351.9289 663.1337,351.4107 658.4032,350.9017 653.6718,350.402 648.9396,349.9115 644.2066,349.4303 639.4727,348.9583 634.7381,348.4956 630.0026,348.0422 625.2664,347.5979 620.5295,347.163 615.7918,346.7373 611.0534,346.3208 606.3142,345.9136 601.5744,345.5157 596.834,345.127 592.0928,344.7476 587.3511,344.3774 582.6087,344.0165 577.8657,343.6649 573.1221,343.3225 568.3779,342.9893 563.6332,342.6655 558.8879,342.3509 554.1421,342.0455 549.3958,341.7495 544.649,341.4627 539.9017,341.1851 535.154,340.9168 530.4058,340.6578 525.6571,340.4081 520.9081,340.1676 516.1586,339.9364 511.4087,339.7144 506.6585,339.5017 501.908,339.2983 497.157,339.1042 492.4058,338.9193 487.6543,338.7437 482.9024,338.5774 478.1503,338.4203 473.3979,338.2725 468.6453,338.134 463.8925,338.0047 459.1394,337.8847 454.3862,337.774 449.6327,337.6726 444.8791,337.5804 440.1254,337.4975 435.3715,337.4239 430.6175,337.3595 425.8634,337.3045 421.1092,337.2586 416.355,337.2221 411.6007,337.1949 406.8463,337.1769 402.0919,337.1681 397.3375,337.1687 392.5832,337.1785 387.8288,337.1976 383.0745,337.226 378.3203,337.2637 373.5661,337.3106 368.812,337.3668 364.058,337.4322 359.3042,337.507 354.5504,337.591 349.7968,337.6843 345.0434,337.7868 340.2902,337.8986 335.5372,338.0197 330.7843,338.1501 326.0318,338.2897 321.2794,338.4386 316.5273,338.5968 311.7755,338.7643 307.024,338.941 302.2728,339.127 297.522,339.3222 292.7714,339.5268 288.0212,339.7406 283.2714,339.9636 278.522,340.1959 273.773,340.4375 269.0244,340.6884 264.2763,340.9485 259.5286,341.2179 254.7813,341.4966 250.0346,341.7845 245.2883,342.0817 240.5426,342.3881 235.7974,342.7039 231.0527,343.0288 226.3086,343.3631 221.5651,343.7066 216.8222,344.0593 212.0799,344.4213 207.3382,344.7926 202.5971,345.1732 197.8567,345.563 193.117,345.962 188.378,346.3703 183.6397,346.7879 178.9021,347.2147 174.1652,347.6508 169.4291,348.0961 164.6937,348.5507 159.9592,349.0145 155.2254,349.4876 150.4925,349.9699 145.7604,350.4615 141.0291,350.9623 136.2987,351.4723 131.5692,351.9917 126.8405,352.5202 122.1128,353.058 117.386,353.6051 112.6602,354.1614 107.9353,354.7269 103.2114,355.3016 98.4885,355.8856 93.7665,356.4789 89.0456,357.0814 84.3258,357.6931 79.607,358.314 74.8892,358.9442" stroke="silver" stroke-opacity="0.5" stroke-width="1" /><polyline fill="none" points="736.274,275.8084 735.6884,275.73 730.8082,275.0821 725.9269,274.4437 721.0445,273.8149 716.161,273.1955 711.2766,272.5857 706.3911,271.9854 701.5045,271.3946 696.617,270.8133 691.7286,270.2415 686.8391,269.6792 681.9487,269.1265 677.0574,268.5833 672.1652,268.0496 667.2721,267.5254 662.3781,267.0108 657.4833,266.5057 652.5876,266.0101 647.691,265.524 642.7937,265.0475 637.8956,264.5805 632.9966,264.123 628.097,263.675 623.1965,263.2366 618.2954,262.8077 613.3935,262.3884 608.4909,261.9786 603.5876,261.5783 598.6837,261.1875 593.7791,260.8063 588.8739,260.4346 583.968,260.0725 579.0616,259.7199 574.1546,259.3768 569.247,259.0432 564.3388,258.7193 559.4301,258.4048 554.5209,258.0999 549.6112,257.8045 544.7009,257.5187 539.7903,257.2424 534.8791,256.9757 529.9675,256.7184 525.0555,256.4708 520.1431,256.2327 515.2302,256.0041 510.317,255.7851 505.4035,255.5756 500.4896,255.3756 495.5753,255.1853 490.6608,255.0044 485.7459,254.8331 480.8308,254.6714 475.9154,254.5192 470.9998,254.3765 466.0839,254.2434 461.1678,254.1198 456.2515,254.0058 451.335,253.9013 446.4184,253.8064 441.5016,253.7211 436.5847,253.6452 431.6676,253.579 426.7504,253.5222 421.8332,253.4751 416.9159,253.4374 411.9985,253.4094 407.0811,253.3908 402.1637,253.3819 397.2462,253.3824 392.3288,253.3926 387.4114,253.4122 382.494,253.4415 377.5767,253.4802 372.6595,253.5285 367.7423,253.5864 362.8253,253.6538 357.9084,253.7308 352.9916,253.8173 348.075,253.9134 343.1585,254.019 338.2423,254.1341 333.3262,254.2589 328.4103,254.3931 323.4947,254.5369 318.5794,254.6903 313.6643,254.8532 308.7495,255.0256 303.8349,255.2076 298.9207,255.3991 294.0069,255.6002 289.0934,255.8108 284.1802,256.031 279.2674,256.2607 274.355,256.5 269.4431,256.7488 264.5315,257.0072 259.6204,257.275 254.7098,257.5525 249.7996,257.8395 244.89,258.136 239.9808,258.442 235.0722,258.7576 230.1641,259.0828 225.2566,259.4174 220.3496,259.7617 215.4432,260.1154 210.5375,260.4787 205.6323,260.8515 200.7278,261.2339 195.8239,261.6258 190.9208,262.0272 186.0183,262.4382 181.1165,262.8587 176.2154,263.2887 171.315,263.7283 166.4155,264.1774 161.5166,264.636 156.6186,265.1042 151.7213,265.5818 146.8249,266.0691 141.9293,266.5658 137.0346,267.0721 132.1407,267.5878 127.2477,268.1131 122.3556,268.648 117.4644,269.1923 112.5741,269.7462 107.6848,270.3096 102.7964,270.8825 97.909,271.465 93.0226,272.0569 88.1372,272.6584 83.2529,273.2693 78.3696,273.8898 73.4873,274.5198 68.6061,275.1594 63.726,275.8084" stroke="silver" stroke-opacity="0.5" stroke-width="1" /><polyline fill="none" points="747.3927,192.6408 746.7878,192.5602 741.7458,191.8937 736.7027,191.2371 731.6585,190.5902 726.6133,189.9532 721.567,189.3259 716.5197,188.7084 711.4713,188.1007 706.4219,187.5027 701.3715,186.9146 696.3202,186.3363 691.2679,185.7677 686.2147,185.209 681.1605,184.66 676.1054,184.1209 671.0494,183.5915 665.9926,183.072 660.9349,182.5622 655.8763,182.0622 650.8169,181.5721 645.7567,181.0917 640.6957,180.6212 635.634,180.1604 630.5714,179.7095 625.5082,179.2683 620.4442,178.837 615.3795,178.4154 610.314,178.0037 605.2479,177.6018 600.1812,177.2097 595.1138,176.8274 590.0457,176.4549 584.9771,176.0922 579.9079,175.7393 574.838,175.3963 569.7676,175.063 564.6967,174.7396 559.6252,174.426 554.5532,174.1222 549.4807,173.8282 544.4078,173.544 539.3343,173.2696 534.2604,173.0051 529.1861,172.7504 524.1114,172.5054 519.0362,172.2703 513.9607,172.0451 508.8848,171.8296 503.8086,171.6239 498.732,171.4281 493.6551,171.2421 488.5779,171.0659 483.5004,170.8996 478.4227,170.743 473.3447,170.5963 468.2664,170.4594 463.1879,170.3323 458.1093,170.215 453.0304,170.1076 447.9514,170.0099 442.8722,169.9221 437.7929,169.8441 432.7134,169.776 427.6339,169.7176 422.5542,169.6691 417.4745,169.6304 412.3948,169.6015 407.315,169.5825 402.2351,169.5733 397.1553,169.5738 392.0755,169.5843 386.9957,169.6045 381.9159,169.6345 376.8362,169.6744 371.7566,169.7241 366.677,169.7836 361.5976,169.853 356.5183,169.9321 351.4391,170.0211 346.3601,170.1199 341.2813,170.2286 336.2026,170.347 331.1242,170.4753 326.046,170.6134 320.968,170.7613 315.8903,170.919 310.8128,171.0865 305.7357,171.2639 300.6588,171.4511 295.5823,171.6481 290.5061,171.8549 285.4302,172.0716 280.3547,172.298 275.2796,172.5343 270.2049,172.7804 265.1307,173.0363 260.0568,173.302 254.9835,173.5776 249.9105,173.8629 244.8381,174.1581 239.7662,174.4631 234.6948,174.7779 229.6239,175.1025 224.5536,175.4369 219.4838,175.7812 214.4146,176.1352 209.3461,176.4991 204.2781,176.8727 199.2108,177.2562 194.1441,177.6495 189.0781,178.0526 184.0127,178.4655 178.9481,178.8882 173.8842,179.3207 168.821,179.7631 163.7586,180.2152 158.6969,180.6771 153.636,181.1489 148.5759,181.6304 143.5166,182.1217 138.4582,182.6229 133.4005,183.1338 128.3438,183.6545 123.2879,184.1851 118.233,184.7254 113.1789,185.2755 108.1258,185.8354 103.0736,186.4052 98.0224,186.9847 92.9721,187.574 87.9229,188.1731 82.8746,188.782 77.8274,189.4006 72.7812,190.0291 67.7361,190.6673 62.6921,191.3154 57.6491,191.9732 52.6073,192.6408" stroke="silver" stroke-opacity="0.5" stroke-width="1" /><polyline fill="none" points="758.4686,109.4288 757.8443,109.3459 752.6412,108.6612 747.4369,107.9866 742.2316,107.322 737.0252,106.6674 731.8177,106.023 726.6091,105.3885 721.3995,104.7642 716.1888,104.1499 710.9772,103.5456 705.7646,102.9514 700.5509,102.3673 695.3364,101.7933 690.1209,101.2293 684.9044,100.6753 679.6871,100.1315 674.4688,99.5977 669.2497,99.074 664.0298,98.5603 658.809,98.0567 653.5873,97.5632 648.3649,97.0798 643.1416,96.6064 637.9176,96.1431 632.6929,95.6899 627.4674,95.2467 622.2411,94.8136 617.0142,94.3906 611.7866,93.9777 606.5583,93.5749 601.3293,93.1821 596.0997,92.7994 590.8695,92.4268 585.6386,92.0643 580.4072,91.7118 575.1752,91.3695 569.9427,91.0372 564.7096,90.715 559.4759,90.4029 554.2418,90.1008 549.0072,89.8089 543.7721,89.527 538.5365,89.2552 533.3006,88.9935 528.0641,88.7419 522.8273,88.5004 517.5901,88.2689 512.3525,88.0476 507.1146,87.8363 501.8763,87.6351 496.6377,87.444 491.3988,87.263 486.1595,87.0921 480.9201,86.9313 475.6803,86.7805 470.4403,86.6399 465.2001,86.5093 459.9597,86.3888 454.7191,86.2784 449.4784,86.1781 444.2374,86.0879 438.9964,86.0078 433.7552,85.9378 428.5139,85.8778 423.2725,85.828 418.031,85.7882 412.7895,85.7586 407.5479,85.739 402.3063,85.7295 397.0647,85.7301 391.8231,85.7408 386.5816,85.7616 381.34,85.7925 376.0986,85.8334 370.8572,85.8845 365.6159,85.9457 360.3747,86.0169 355.1337,86.0982 349.8927,86.1896 344.652,86.2911 339.4114,86.4027 334.171,86.5244 328.9308,86.6562 323.6909,86.7981 318.4512,86.95 313.2117,87.1121 307.9726,87.2842 302.7337,87.4664 297.4951,87.6587 292.2569,87.8611 287.019,88.0736 281.7814,88.2962 276.5442,88.5288 271.3075,88.7716 266.0711,89.0244 260.8352,89.2873 255.5997,89.5603 250.3646,89.8434 245.1301,90.1365 239.896,90.4398 234.6624,90.7531 229.4294,91.0765 224.1969,91.41 218.965,91.7536 213.7336,92.1073 208.5029,92.471 203.2727,92.8448 198.0432,93.2287 192.8143,93.6227 187.5861,94.0267 182.3585,94.4409 177.1317,94.8651 171.9055,95.2994 166.6801,95.7437 161.4554,96.1982 156.2315,96.6627 151.0084,97.1372 145.786,97.6219 140.5645,98.1166 135.3438,98.6214 130.1239,99.1363 124.9049,99.6612 119.6868,100.1962 114.4696,100.7413 109.2532,101.2964 104.0378,101.8616 98.8234,102.4369 93.6099,103.0222 88.3974,103.6176 83.1858,104.223 77.9753,104.8386 72.7658,105.4641 67.5574,106.0998 62.35,106.7454 57.1437,107.4012 51.9385,108.067 46.7344,108.7429 41.5314,109.4288" stroke="silver" stroke-opacity="0.5" stroke-width="1" /><circle cx="747.2691" cy="186.7823" fill="black" r="0.738" stroke="none" /><circle cx="749.8845" cy="150.4674" fill="black" r="0.738" stroke="none" /><circle cx="749.243" cy="136.5822" fill="black" r="0.738" stroke="none" /><circle cx="674.1477" cy="696.8982" fill="black" r="0.738" stroke="none" /><circle cx="696.543" cy="508.2773" fill="black" r="0.738" stroke="none" /><circle cx="685.6599" cy="590.0882" fill="black" r="0.738" stroke="none" /><circle cx="720.7782" cy="322.1579" fill="black" r="0.738" stroke="none" /><circle cx="705.5043" cy="424.8716" fill="black" r="0.936" stroke="none" /><circle cx="729.5069" cy="238.4479" fill="black" r="0.738" stroke="none" /><circle cx="696.0916" cy="467.2002" fill="black" r="0.738" stroke="none" /><circle cx="686.295" cy="537.4722" fill="black" r="0.738" stroke="none" /><circle cx="696.8217" cy="432.1236" fill="black" r="0.738" stroke="none" /><circle cx="711.2191" cy="316.4484" fill="black" r="0.738" stroke="none" /><circle cx="711.542" cy="302.71" fill="black" r="0.738" stroke="none" /><circle cx="663.7453" cy="640.2095" fill="black" r="0.738" stroke="none" /><circle cx="663.7864" cy="603.9513" fill="black" r="0.936" stroke="none" /><circle cx="704.3205" cy="271.3959" fill="black" r="0.738" stroke="none" /><circle cx="711.239" cy="194.4949" fill="black" r="0.738" stroke="none" /><circle cx="701.8595" cy="260.7934" fill="black" r="0.738" stroke="none" /><circle cx="712.734" cy="147.5207" fill="black" r="0.738" stroke="none" /><circle cx="651.3626" cy="659.0552" fill="black" r="0.738" stroke="none" /><circle cx="714.288" cy="113.5624" fill="black" r="1.17" stroke="none" /><circle cx="702.6003" cy="179.1174" fill="black" r="0.936" stroke="none" /><circle cx="696.1869" cy="208.9501" fill="black" r="0.738" stroke="none" /><circle cx="682.0259" cy="299.8541" fill="black" r="0.936" stroke="none" /><circle cx="664.1222" cy="449.3757" fill="black" r="0.738" stroke="none" /><circle cx="677.1978" cy="334.4973" fill="black" r="1.17" stroke="none" /><circle cx="653.2897" cy="527.2961" fill="black" r="0.738" stroke="none" /><circle cx="634.3039" cy="674.9628" fill="black" r="0.738" stroke="none" /><circle cx="668.0443" cy="373.9666" fill="black" r="0.738" stroke="none" /><circle cx="660.7221" cy="375.3522" fill="black" r="0.738" stroke="none" /><circle cx="677.0118" cy="203.9567" fill="black" r="0.738" stroke="none" /><circle cx="634.2168" cy="584.1511" fill="black" r="0.738" stroke="none" /><circle cx="638.3334" cy="517.7197" fill="black" r="0.738" stroke="none" /><circle cx="626.3283" cy="626.9094" fill="black" r="0.738" stroke="none" /><circle cx="652.9207" cy="359.7643" fill="black" r="0.738" stroke="none" /><circle cx="671.2872" cy="155.7852" fill="black" r="0.738" stroke="none" /><circle cx="654.4479" cy="309.0964" fill="black" r="0.738" stroke="none" /><circle cx="606.6323" cy="713.9989" fill="black" r="0.738" stroke="none" /><circle cx="621.6513" cy="479.9539" fill="black" r="0.936" stroke="none" /><circle cx="607.4234" cy="591.2727" fill="black" r="0.738" stroke="none" /><circle cx="621.7396" cy="425.311" fill="black" r="0.738" stroke="none" /><circle cx="591.5039" cy="714.8676" fill="black" r="0.738" stroke="none" /><circle cx="631.7807" cy="253.655" fill="black" r="0.738" stroke="none" /><circle cx="631.1026" cy="232.6293" fill="black" r="0.738" stroke="none" /><circle cx="585.9505" cy="706.9344" fill="black" r="0.738" stroke="none" /><circle cx="613.0182" cy="404.3024" fill="black" r="0.738" stroke="none" /><circle cx="625.9265" cy="247.6549" fill="black" r="0.738" stroke="none" /><circle cx="625.0008" cy="241.9332" fill="black" r="0.738" stroke="none" /><circle cx="586.2345" cy="611.3037" fill="black" r="0.738" stroke="none" /><circle cx="580.5462" cy="664.5963" fill="black" r="0.738" stroke="none" /><circle cx="602.2756" cy="362.6477" fill="black" r="0.738" stroke="none" /><circle cx="601.7657" cy="336.2802" fill="black" r="0.738" stroke="none" /><circle cx="618.8571" cy="124.4197" fill="black" r="0.738" stroke="none" /><circle cx="600.6873" cy="326.5199" fill="black" r="0.738" stroke="none" /><circle cx="591.6336" cy="431.3987" fill="black" r="1.17" stroke="none" /><circle cx="595.7512" cy="372.452" fill="black" r="0.738" stroke="none" /><circle cx="587.7983" cy="464.8052" fill="black" r="0.738" stroke="none" /><circle cx="611.4979" cy="133.2531" fill="black" r="0.738" stroke="none" /><circle cx="571.9243" cy="615.9904" fill="black" r="0.738" stroke="none" /><circle cx="578.9952" cy="519.5068" fill="black" r="0.738" stroke="none" /><circle cx="570.6308" cy="543.9038" fill="black" r="0.738" stroke="none" /><circle cx="582.8445" cy="316.7198" fill="black" r="0.738" stroke="none" /><circle cx="584.2736" cy="293.7975" fill="black" r="0.738" stroke="none" /><circle cx="586.2931" cy="157.4386" fill="black" r="0.738" stroke="none" /><circle cx="572.7447" cy="328.6768" fill="black" r="0.738" stroke="none" /><circle cx="563.7563" cy="433.3926" fill="black" r="0.738" stroke="none" /><circle cx="579.8132" cy="186.5749" fill="black" r="0.936" stroke="none" /><circle cx="555.5991" cy="533.2147" fill="black" r="0.936" stroke="none" /><circle cx="543.8978" cy="633.3225" fill="black" r="0.738" stroke="none" /><circle cx="568.7525" cy="228.2632" fill="black" r="0.936" stroke="none" /><circle cx="564.3961" cy="249.3154" fill="black" r="0.738" stroke="none" /><circle cx="554.1273" cy="385.3732" fill="black" r="0.738" stroke="none" /><circle cx="551.4357" cy="395.8645" fill="black" r="0.936" stroke="none" /><circle cx="532.3071" cy="683.6485" fill="black" r="1.17" stroke="none" /><circle cx="560.4571" cy="215.3834" fill="black" r="0.738" stroke="none" /><circle cx="563.1939" cy="152.8867" fill="black" r="0.738" stroke="none" /><circle cx="550.0281" cy="209.2969" fill="black" r="0.936" stroke="none" /><circle cx="522.8831" cy="665.5051" fill="black" r="0.738" stroke="none" /><circle cx="532.9317" cy="459.5484" fill="black" r="0.738" stroke="none" /><circle cx="524.9124" cy="502.9064" fill="black" r="0.738" stroke="none" /><circle cx="522.1304" cy="505.6911" fill="black" r="0.738" stroke="none" /><circle cx="520.5259" cy="469.4376" fill="black" r="0.738" stroke="none" /><circle cx="525.5905" cy="343.1735" fill="black" r="0.738" stroke="none" /><circle cx="536.306" cy="96.869" fill="black" r="0.738" stroke="none" /><circle cx="534.1641" cy="122.1219" fill="black" r="0.738" stroke="none" /><circle cx="524.0198" cy="311.6296" fill="black" r="0.738" stroke="none" /><circle cx="525.956" cy="235.0333" fill="black" r="0.936" stroke="none" /><circle cx="508.042" cy="566.6392" fill="black" r="0.738" stroke="none" /><circle cx="515.6208" cy="335.2132" fill="black" r="0.738" stroke="none" /><circle cx="517.853" cy="200.9999" fill="black" r="0.936" stroke="none" /><circle cx="503.7138" cy="392.2093" fill="black" r="0.738" stroke="none" /><circle cx="491.3153" cy="603.6252" fill="black" r="0.738" stroke="none" /><circle cx="488.1843" cy="665.333" fill="black" r="0.738" stroke="none" /><circle cx="495.9098" cy="365.6358" fill="black" r="0.738" stroke="none" /><circle cx="503.6859" cy="107.1753" fill="black" r="0.738" stroke="none" /><circle cx="484.0775" cy="527.0073" fill="black" r="0.738" stroke="none" /><circle cx="475.9335" cy="714.4418" fill="black" r="0.738" stroke="none" /><circle cx="491.0081" cy="285.4557" fill="black" r="0.738" stroke="none" /><circle cx="492.8012" cy="163.1588" fill="black" r="1.17" stroke="none" /><circle cx="489.2282" cy="167.4811" fill="black" r="1.17" stroke="none" /><circle cx="488.2358" cy="181.2034" fill="black" r="0.738" stroke="none" /><circle cx="472.0637" cy="597.4393" fill="black" r="0.936" stroke="none" /><circle cx="475.1299" cy="389.5412" fill="black" r="1.17" stroke="none" /><circle cx="468.2404" cy="570.9008" fill="black" r="0.738" stroke="none" /><circle cx="477.6472" cy="117.4582" fill="black" r="0.738" stroke="none" /><circle cx="472.3147" cy="286.437" fill="black" r="0.738" stroke="none" /><circle cx="463.1589" cy="556.2433" fill="black" r="0.738" stroke="none" /><circle cx="471.2207" cy="128.2684" fill="black" r="1.17" stroke="none" /><circle cx="455.6196" cy="674.3521" fill="black" r="0.738" stroke="none" /><circle cx="460.5689" cy="418.2907" fill="black" r="0.738" stroke="none" /><circle cx="468.5214" cy="97.8325" fill="black" r="0.738" stroke="none" /><circle cx="465.8139" cy="117.981" fill="black" r="0.738" stroke="none" /><circle cx="460.7534" cy="320.3244" fill="black" r="0.738" stroke="none" /><circle cx="448.5862" cy="689.1877" fill="black" r="0.738" stroke="none" /><circle cx="449.8067" cy="630.6801" fill="black" r="0.936" stroke="none" /><circle cx="448.3647" cy="688.9309" fill="black" r="0.738" stroke="none" /><circle cx="459.9525" cy="133.4434" fill="black" r="0.738" stroke="none" /><circle cx="454.3807" cy="269.5546" fill="black" r="0.738" stroke="none" /><circle cx="449.041" cy="511.6279" fill="black" r="0.738" stroke="none" /><circle cx="451.7463" cy="262.6264" fill="black" r="0.738" stroke="none" /><circle cx="446.5893" cy="460.121" fill="black" r="0.738" stroke="none" /><circle cx="440.4983" cy="713.168" fill="black" r="0.936" stroke="none" /><circle cx="443.0634" cy="160.703" fill="black" r="0.738" stroke="none" /><circle cx="427.3986" cy="638.9889" fill="black" r="0.738" stroke="none" /><circle cx="429.9749" cy="431.9438" fill="black" r="0.738" stroke="none" /><circle cx="429.7604" cy="301.0684" fill="black" r="0.738" stroke="none" /><circle cx="426.1285" cy="140.9468" fill="black" r="1.17" stroke="none" /><circle cx="417.3588" cy="608.5375" fill="black" r="0.738" stroke="none" /><circle cx="414.729" cy="310.1499" fill="black" r="0.738" stroke="none" /><circle cx="414.0993" cy="339.2188" fill="black" r="0.738" stroke="none" /><circle cx="412.2096" cy="623.0027" fill="black" r="0.738" stroke="none" /><circle cx="409.7105" cy="390.3018" fill="black" r="0.738" stroke="none" /><circle cx="408.2899" cy="577.8922" fill="black" r="0.738" stroke="none" /><circle cx="409.3925" cy="201.8591" fill="black" r="0.738" stroke="none" /><circle cx="407.9134" cy="577.807" fill="black" r="0.738" stroke="none" /><circle cx="406.8805" cy="672.1043" fill="black" r="0.738" stroke="none" /><circle cx="405.875" cy="230.4269" fill="black" r="0.738" stroke="none" /><circle cx="397.2047" cy="286.5638" fill="black" r="0.738" stroke="none" /><circle cx="392.9296" cy="438.7992" fill="black" r="0.738" stroke="none" /><circle cx="389.51" cy="137.318" fill="black" r="0.738" stroke="none" /><circle cx="388.4978" cy="317.5895" fill="black" r="0.738" stroke="none" /><circle cx="387.4069" cy="448.6247" fill="black" r="0.738" stroke="none" /><circle cx="385.3434" cy="598.7108" fill="black" r="0.738" stroke="none" /><circle cx="383.4997" cy="465.4893" fill="black" r="1.17" stroke="none" /><circle cx="380.6163" cy="339.0037" fill="black" r="0.738" stroke="none" /><circle cx="369.0753" cy="509.1262" fill="black" r="0.738" stroke="none" /><circle cx="369.67" cy="579.5133" fill="black" r="0.738" stroke="none" /><circle cx="361.4488" cy="359.8441" fill="black" r="0.738" stroke="none" /><circle cx="366.7634" cy="713.2871" fill="black" r="0.738" stroke="none" /><circle cx="357.7596" cy="329.5728" fill="black" r="0.738" stroke="none" /><circle cx="353.8308" cy="127.2994" fill="black" r="0.738" stroke="none" /><circle cx="354.4863" cy="253.79" fill="black" r="0.738" stroke="none" /><circle cx="355.7602" cy="555.361" fill="black" r="0.738" stroke="none" /><circle cx="348.405" cy="227.3361" fill="black" r="0.738" stroke="none" /><circle cx="352.0546" cy="550.5773" fill="black" r="0.738" stroke="none" /><circle cx="352.4822" cy="584.265" fill="black" r="0.738" stroke="none" /><circle cx="345.7328" cy="409.1698" fill="black" r="0.738" stroke="none" /><circle cx="334.1285" cy="155.6394" fill="black" r="0.738" stroke="none" /><circle cx="327.9535" cy="222.7154" fill="black" r="0.738" stroke="none" /><circle cx="322.1425" cy="193.7043" fill="black" r="0.936" stroke="none" /><circle cx="333.7169" cy="604.1293" fill="black" r="0.738" stroke="none" /><circle cx="336.6519" cy="701.7571" fill="black" r="0.738" stroke="none" /><circle cx="319.9403" cy="261.6057" fill="black" r="0.738" stroke="none" /><circle cx="331.5259" cy="668.0275" fill="black" r="0.738" stroke="none" /><circle cx="312.923" cy="154.9108" fill="black" r="0.738" stroke="none" /><circle cx="322.0847" cy="457.1128" fill="black" r="0.738" stroke="none" /><circle cx="321.9889" cy="514.7125" fill="black" r="0.738" stroke="none" /><circle cx="298.6162" cy="149.9671" fill="black" r="0.738" stroke="none" /><circle cx="305.8979" cy="344.2668" fill="black" r="0.738" stroke="none" /><circle cx="307.6832" cy="516.2631" fill="black" r="0.738" stroke="none" /><circle cx="308.5412" cy="557.9962" fill="black" r="0.936" stroke="none" /><circle cx="310.3724" cy="636.1077" fill="black" r="0.738" stroke="none" /><circle cx="287.2052" cy="134.2311" fill="black" r="0.738" stroke="none" /><circle cx="307.4401" cy="617.1031" fill="black" r="1.476" stroke="none" /><circle cx="310.4284" cy="715.0013" fill="black" r="0.738" stroke="none" /><circle cx="296.2125" cy="469.6244" fill="black" r="0.738" stroke="none" /><circle cx="295.7691" cy="467.7992" fill="black" r="0.738" stroke="none" /><circle cx="286.1027" cy="313.0708" fill="black" r="0.738" stroke="none" /><circle cx="271.3041" cy="242.1354" fill="black" r="0.738" stroke="none" /><circle cx="268.5976" cy="344.0681" fill="black" r="0.738" stroke="none" /><circle cx="256.8394" cy="188.841" fill="black" r="0.738" stroke="none" /><circle cx="276.3535" cy="563.6903" fill="black" r="0.738" stroke="none" /><circle cx="263.492" cy="372.7172" fill="black" r="0.738" stroke="none" /><circle cx="277.9313" cy="638.0762" fill="black" r="0.738" stroke="none" /><circle cx="263.8036" cy="411.3075" fill="black" r="0.738" stroke="none" /><circle cx="256.321" cy="357.7743" fill="black" r="0.738" stroke="none" /><circle cx="246.0212" cy="185.9305" fill="black" r="0.738" stroke="none" /><circle cx="261.4129" cy="514.7057" fill="black" r="0.738" stroke="none" /><circle cx="251.3249" cy="440.7787" fill="black" r="0.936" stroke="none" /><circle cx="262.9601" cy="664.0402" fill="black" r="0.738" stroke="none" /><circle cx="256.492" cy="594.9798" fill="black" r="0.738" stroke="none" /><circle cx="230.414" cy="240.3319" fill="black" r="0.738" stroke="none" /><circle cx="220.0904" cy="194.5658" fill="black" r="0.738" stroke="none" /><circle cx="248.7614" cy="637.6193" fill="black" r="0.738" stroke="none" /><circle cx="211.0267" cy="116.4288" fill="black" r="0.936" stroke="none" /><circle cx="217.0436" cy="303.1971" fill="black" r="0.738" stroke="none" /><circle cx="202.1412" cy="112.9466" fill="black" r="0.738" stroke="none" /><circle cx="218.0197" cy="361.4506" fill="black" r="0.738" stroke="none" /><circle cx="205.2172" cy="201.86" fill="black" r="0.738" stroke="none" /><circle cx="215.501" cy="355.254" fill="black" r="0.738" stroke="none" /><circle cx="230.2961" cy="574.1839" fill="black" r="0.738" stroke="none" /><circle cx="226.4873" cy="552.2005" fill="black" r="0.738" stroke="none" /><circle cx="216.2136" cy="431.9444" fill="black" r="0.738" stroke="none" /><circle cx="203.1736" cy="297.1136" fill="black" r="0.738" stroke="none" /><circle cx="233.6632" cy="712.89" fill="black" r="0.738" stroke="none" /><circle cx="184.7977" cy="117.5594" fill="black" r="0.738" stroke="none" /><circle cx="189.7423" cy="243.9544" fill="black" r="0.738" stroke="none" /><circle cx="207.8524" cy="463.1466" fill="black" r="0.738" stroke="none" /><circle cx="196.4082" cy="328.6099" fill="black" r="0.738" stroke="none" /><circle cx="188.2378" cy="274.702" fill="black" r="0.738" stroke="none" /><circle cx="214.7942" cy="627.7113" fill="black" r="0.738" stroke="none" /><circle cx="207.247" cy="550.1857" fill="black" r="1.17" stroke="none" /><circle cx="168.0133" cy="154.7431" fill="black" r="0.738" stroke="none" /><circle cx="199.4923" cy="533.2861" fill="black" r="0.738" stroke="none" /><circle cx="211.1338" cy="680.1614" fill="black" r="0.738" stroke="none" /><circle cx="159.5765" cy="127.3634" fill="black" r="0.936" stroke="none" /><circle cx="177.607" cy="411.7332" fill="black" r="0.738" stroke="none" /><circle cx="198.4091" cy="639.2358" fill="black" r="0.738" stroke="none" /><circle cx="160.2988" cy="308.8015" fill="black" r="0.738" stroke="none" /><circle cx="163.4437" cy="395.1693" fill="black" r="0.738" stroke="none" /><circle cx="165.3817" cy="448.0515" fill="black" r="0.738" stroke="none" /><circle cx="167.2376" cy="510.3058" fill="black" r="0.738" stroke="none" /><circle cx="134.8792" cy="265.0214" fill="black" r="0.738" stroke="none" /><circle cx="142.5369" cy="360.0759" fill="black" r="0.738" stroke="none" /><circle cx="160.7747" cy="530.2947" fill="black" r="0.936" stroke="none" /><circle cx="118.9368" cy="161.7843" fill="black" r="0.738" stroke="none" /><circle cx="157.2193" cy="518.1137" fill="black" r="0.738" stroke="none" /><circle cx="133.8494" cy="318.5942" fill="black" r="0.936" stroke="none" /><circle cx="122.6602" cy="214.8743" fill="black" r="0.738" stroke="none" /><circle cx="136.2692" cy="366.2349" fill="black" r="0.738" stroke="none" /><circle cx="113.8331" cy="228.9209" fill="black" r="0.738" stroke="none" /><circle cx="151.647" cy="594.5081" fill="black" r="0.738" stroke="none" /><circle cx="101.9105" cy="164.9204" fill="black" r="0.936" stroke="none" /><circle cx="124.895" cy="389.1141" fill="black" r="2.322" stroke="none" /><circle cx="89.6933" cy="118.5084" fill="black" r="1.17" stroke="none" /><circle cx="143.8002" cy="616.7157" fill="black" r="0.738" stroke="none" /><circle cx="83.3656" cy="109.3577" fill="black" r="0.738" stroke="none" /><circle cx="86.8813" cy="144.6084" fill="black" r="1.17" stroke="none" /><circle cx="144.145" cy="639.4877" fill="black" r="0.738" stroke="none" /><circle cx="103.5962" cy="352.8044" fill="black" r="0.738" stroke="none" /><circle cx="67.7451" cy="122.9941" fill="black" r="0.738" stroke="none" /><circle cx="140.0926" cy="700.279" fill="black" r="0.738" stroke="none" /><circle cx="79.2925" cy="278.9303" fill="black" r="0.738" stroke="none" /><circle cx="115.276" cy="571.5217" fill="black" r="0.738" stroke="none" /><circle cx="62.2658" cy="166.5773" fill="black" r="0.738" stroke="none" /><circle cx="106.836" cy="527.1191" fill="black" r="1.17" stroke="none" /><circle cx="92.4433" cy="433.9372" fill="black" r="0.738" stroke="none" /><circle cx="59.6821" cy="200.5934" fill="black" r="0.738" stroke="none" /><circle cx="76.6188" cy="343.0582" fill="black" r="0.738" stroke="none" /><circle cx="73.1947" cy="328.114" fill="black" r="0.738" stroke="none" /><circle cx="97.1926" cy="512.8361" fill="black" r="0.738" stroke="none" /><circle cx="125.2152" cy="721.7166" fill="black" r="0.738" stroke="none" /><circle cx="13.77" cy="786.23" fill="black" r="4.59" stroke="none" /><circle cx="13.77" cy="786.23" fill="black" r="4.59" stroke="none" /><text fill="black" font-family="monospace" font-size="12" x="10.77" y="775.64">1</text><circle cx="37.77" cy="786.23" fill="black" r="3.654" stroke="none" /><circle cx="37.77" cy="786.23" fill="black" r="3.654" stroke="none" /><text fill="black" font-family="monospace" font-size="12" x="34.769999999999996" y="775.64">2</text><circle cx="61.77" cy="786.23" fill="black" r="2.916" stroke="none" /><circle cx="61.77" cy="786.23" fill="black" r="2.916" stroke="none" /><text fill="black" font-family="monospace" font-size="12" x="58.769999999999996" y="775.64">3</text><circle cx="85.77" cy="786.23" fill="black" r="2.322" stroke="none" /><circle cx="85.77" cy="786.23" fill="black" r="2.322" stroke="none" /><text fill="black" font-family="monospace" font-size="12" x="82.77" y="775.64">4</text><circle cx="109.77" cy="786.23" fill="black" r="1.854" stroke="none" /><circle cx="109.77" cy="786.23" fill="black" r="1.854" stroke="none" /><text fill="black" font-family="monospace" font-size="12" x="106.77" y="775.64">5</text><circle cx="133.77" cy="786.23" fill="black" r="1.476" stroke="none" /><circle cx="133.77" cy="786.23" fill="black" r="1.476" stroke="none" /><text fill="black" font-family="monospace" font-size="12" x="130.77" y="775.64">6</text><circle cx="157.77" cy="786.23" fill="black" r="1.17" stroke="none" /><circle cx="157.77" cy="786.23" fill="black" r="1.17" stroke="none" /><text fill="black" font-family="monospace" font-size="12" x="154.77" y="775.64">7</text><circle cx="181.77" cy="786.23" fill="black" r="0.936" stroke="none" /><circle cx="181.77" cy="786.23" fill="black" r="0.936" stroke="none" /><text fill="black" font-family="monospace" font-size="12" x="178.77" y="775.64">8</text><circle cx="205.77" cy="786.23" fill="black" r="0.738" stroke="none" /><circle cx="205.77" cy="786.23" fill="black" r="0.738" stroke="none" /><text fill="black" font-family="monospace" font-size="12" x="202.77" y="775.64">9</text><text fill="gray" fill-opacity="0.5" font-family="monospace" font-size="12" x="669.249728568784" y="99.07395747853013">15h00m</text><text fill="gray" fill-opacity="0.5" font-family="monospace" font-size="12" x="512.3525121159478" y="88.04757100641689">15h15m</text><text fill="gray" fill-opacity="0.5" font-family="monospace" font-size="12" x="355.1336537718847" y="86.09822082100555">15h30m</text><text fill="gray" fill-opacity="0.5" font-family="monospace" font-size="12" x="198.04319495186462" y="93.22871743223783">15h45m</text><text fill="gray" fill-opacity="0.5" font-family="monospace" font-size="12" x="41.53141706056823" y="109.4287637594465">16h00m</text><text fill="gray" fill-opacity="0.5" font-family="monospace" font-size="12" x="120.02079763468015" y="691.422233219413">-67°</text><text fill="gray" fill-opacity="0.5" font-family="monospace" font-size="12" x="108.66267279149872" y="608.2872722018832">-66°</text><text fill="gray" fill-opacity="0.5" font-family="monospace" font-size="12" x="97.35586775218326" y="525.1710264170266">-65°</text><text fill="gray" fill-opacity="0.5" font-family="monospace" font-size="12" x="86.09863233483964" y="442.06087499636646">-64°</text><text fill="gray" fill-opacity="0.5" font-family="monospace" font-size="12" x="74.88924651937373" y="358.94420075333744">-63°</text><text fill="gray" fill-opacity="0.5" font-family="monospace" font-size="12" x="63.7260193945512" y="275.8083825333884">-62°</text><text fill="gray" fill-opacity="0.5" font-family="monospace" font-size="12" x="52.607288142671734" y="192.64078755895332">-61°</text><text fill="gray" fill-opacity="0.5" font-family="monospace" font-size="12" x="41.53141706056823" y="109.4287637594465">-60°</text><text fill="black" font-family="monospace" font-size="12" x="12" y="48">&gt;&gt; No.83 14h51m 16h00m -67.5°-60.0°</text><a target="_self" xlink:href="hip004.svg"><text fill="black" font-family="monospace" font-size="12" x="12" y="36">&gt; No.4 08h00m 16h00m -90.0°-52.5°</text></a><a target="_self" xlink:href="hip001.svg"><text fill="black" font-family="monospace" font-size="12" x="12" y="24">No.1 00h 24h -90.0°+0.0°</text></a><polyline fill="none" points="758.4686,109.4288 757.8443,109.3459 752.6412,108.6612 747.4369,107.9866 742.2316,107.322 737.0252,106.6674 731.8177,106.023 726.6091,105.3885 721.3995,104.7642 716.1888,104.1499 710.9772,103.5456 705.7646,102.9514 700.5509,102.3673 695.3364,101.7933 690.1209,101.2293 684.9044,100.6753 679.6871,100.1315 674.4688,99.5977 669.2497,99.074 664.0298,98.5603 658.809,98.0567 653.5873,97.5632 648.3649,97.0798 643.1416,96.6064 637.9176,96.1431 632.6929,95.6899 627.4674,95.2467 622.2411,94.8136 617.0142,94.3906 611.7866,93.9777 606.5583,93.5749 601.3293,93.1821 596.0997,92.7994 590.8695,92.4268 585.6386,92.0643 580.4072,91.7118 575.1752,91.3695 569.9427,91.0372 564.7096,90.715 559.4759,90.4029 554.2418,90.1008 549.0072,89.8089 543.7721,89.527 538.5365,89.2552 533.3006,88.9935 528.0641,88.7419 522.8273,88.5004 517.5901,88.2689 512.3525,88.0476 507.1146,87.8363 501.8763,87.6351 496.6377,87.444 491.3988,87.263 486.1595,87.0921 480.9201,86.9313 475.6803,86.7805 470.4403,86.6399 465.2001,86.5093 459.9597,86.3888 454.7191,86.2784 449.4784,86.1781 444.2374,86.0879 438.9964,86.0078 433.7552,85.9378 428.5139,85.8778 423.2725,85.828 418.031,85.7882 412.7895,85.7586 407.5479,85.739 402.3063,85.7295 397.0647,85.7301 391.8231,85.7408 386.5816,85.7616 381.34,85.7925 376.0986,85.8334 370.8572,85.8845 365.6159,85.9457 360.3747,86.0169 355.1337,86.0982 349.8927,86.1896 344.652,86.2911 339.4114,86.4027 334.171,86.5244 328.9308,86.6562 323.6909,86.7981 318.4512,86.95 313.2117,87.1121 307.9726,87.2842 302.7337,87.4664 297.4951,87.6587 292.2569,87.8611 287.019,88.0736 281.7814,88.2962 276.5442,88.5288 271.3075,88.7716 266.0711,89.0244 260.8352,89.2873 255.5997,89.5603 250.3646,89.8434 245.1301,90.1365 239.896,90.4398 234.6624,90.7531 229.4294,91.0765 224.1969,91.41 218.965,91.7536 213.7336,92.1073 208.5029,92.471 203.2727,92.8448 198.0432,93.2287 192.8143,93.6227 187.5861,94.0267 182.3585,94.4409 177.1317,94.8651 171.9055,95.2994 166.6801,95.7437 161.4554,96.1982 156.2315,96.6627 151.0084,97.1372 145.786,97.6219 140.5645,98.1166 135.3438,98.6214 130.1239,99.1363 124.9049,99.6612 119.6868,100.1962 114.4696,100.7413 109.2532,101.2964 104.0378,101.8616 98.8234,102.4369 93.6099,103.0222 88.3974,103.6176 83.1858,104.223 77.9753,104.8386 72.7658,105.4641 67.5574,106.0998 62.35,106.7454 57.1437,107.4012 51.9385,108.067 46.7344,108.7429 41.5314,109.4288" stroke="black" stroke-opacity="0.5" stroke-width="1" /><polyline fill="none" points="674.2803,733.0007 675.7063,722.6052 677.1314,712.2104 678.5557,701.816 679.9792,691.4222 681.4018,681.0289 682.8236,670.636 684.2446,660.2436 685.6648,649.8516 687.0841,639.46 688.5027,629.0688 689.9204,618.6779 691.3373,608.2873 692.7534,597.897 694.1688,587.5069 695.5833,577.1172 696.997,566.7276 698.41,556.3382 699.8221,545.949 701.2335,535.56 702.6441,525.171 704.054,514.7822 705.463,504.3934 706.8713,494.0047 708.2788,483.616 709.6856,473.2273 711.0916,462.8385 712.4969,452.4497 713.9014,442.0609 715.3051,431.6719 716.7081,421.2828 718.1104,410.8936 719.5119,400.5041 720.9127,390.1145 722.3128,379.7247 723.7121,369.3346 725.1108,358.9442 726.5086,348.5535 727.9058,338.1625 729.3023,327.7712 730.698,317.3795 732.0931,306.9874 733.4874,296.5948 734.881,286.2018 736.274,275.8084 737.6662,265.4144 739.0578,255.02 740.4486,244.6249 741.8388,234.2293 743.2283,223.8332 744.6171,213.4364 746.0052,203.0389 747.3927,192.6408 748.7795,182.242 750.1656,171.8424 751.5511,161.4422 752.9359,151.0411 754.3201,140.6393 755.7035,130.2366 757.0864,119.8331 758.4686,109.4288" stroke="black" stroke-opacity="0.5" stroke-width="1" /><polyline fill="none" points="674.2803,733.0007 673.8029,732.9352 669.8241,732.3943 665.8442,731.8613 661.8635,731.3362 657.8817,730.8191 653.8991,730.3099 649.9156,729.8086 645.9312,729.3153 641.9459,728.8299 637.9597,728.3525 633.9727,727.883 629.9848,727.4215 625.9962,726.9679 622.0067,726.5222 618.0165,726.0845 614.0255,725.6547 610.0337,725.2329 606.0411,724.8191 602.0479,724.4132 598.0539,724.0152 594.0592,723.6252 590.0638,723.2432 586.0678,722.8691 582.071,722.503 578.0737,722.1448 574.0757,721.7946 570.0771,721.4523 566.0778,721.118 562.078,720.7917 558.0777,720.4733 554.0767,720.1629 550.0752,719.8604 546.0732,719.5659 542.0706,719.2794 538.0676,719.0008 534.064,718.7302 530.06,718.4676 526.0555,718.2129 522.0506,717.9662 518.0452,717.7275 514.0395,717.4967 510.0333,717.2739 506.0267,717.0591 502.0197,716.8523 498.0124,716.6534 494.0048,716.4625 489.9968,716.2795 485.9884,716.1046 481.9798,715.9376 477.9709,715.7785 473.9617,715.6275 469.9523,715.4844 465.9426,715.3493 461.9326,715.2222 457.9225,715.103 453.9121,714.9918 449.9016,714.8886 445.8908,714.7934 441.8799,714.7061 437.8689,714.6269 433.8577,714.5555 429.8464,714.4922 425.835,714.4369 421.8235,714.3895 417.8119,714.3501 413.8003,714.3187 409.7886,714.2952 405.7769,714.2797 401.7652,714.2722 397.7534,714.2727 393.7417,714.2812 389.73,714.2976 385.7183,714.322 381.7067,714.3544 377.6951,714.3947 373.6836,714.4431 369.6722,714.4994 365.6609,714.5637 361.6498,714.6359 357.6388,714.7162 353.6279,714.8044 349.6172,714.9006 345.6066,715.0048 341.5963,715.1169 337.5862,715.237 333.5763,715.3651 329.5666,715.5012 325.5572,715.6452 321.548,715.7972 317.5391,715.9572 313.5305,716.1251 309.5223,716.3011 305.5143,716.485 301.5067,716.6768 297.4994,716.8767 293.4925,717.0845 289.486,717.3003 285.4798,717.524 281.4741,717.7557 277.4688,717.9954 273.4639,718.2431 269.4595,718.4987 265.4555,718.7623 261.452,719.0338 257.449,719.3133 253.4466,719.6008 249.4446,719.8963 245.4432,720.1997 241.4423,720.5111 237.442,720.8304 233.4422,721.1577 229.4431,721.4929 225.4445,721.8362 221.4466,722.1873 217.4493,722.5465 213.4527,722.9136 209.4567,723.2886 205.4614,723.6716 201.4668,724.0626 197.4729,724.4615 193.4797,724.8683 189.4873,725.2831 185.4956,725.7059 181.5046,726.1366 177.5145,726.5753 173.5251,727.0219 169.5366,727.4764 165.5488,727.9389 161.5619,728.4094 157.5759,728.8878 153.5907,729.3741 149.6064,729.8684 145.6229,730.3706 141.6404,730.8807 137.6588,731.3988 133.6781,731.9248 129.6984,732.4588 125.7197,733.0007" stroke="black" stroke-opacity="0.5" stroke-width="1" /><polyline fill="none" points="125.7197,733.0007 124.2937,722.6052 122.8686,712.2104 121.4443,701.816 120.0208,691.4222 118.5982,681.0289 117.1764,670.636 115.7554,660.2436 114.3352,649.8516 112.9159,639.46 111.4973,629.0688 110.0796,618.6779 108.6627,608.2873 107.2466,597.897 105.8312,587.5069 104.4167,577.1172 103.003,566.7276 101.59,556.3382 100.1779,545.949 98.7665,535.56 97.3559,525.171 95.946,514.7822 94.537,504.3934 93.1287,494.0047 91.7212,483.616 90.3144,473.2273 88.9084,462.8385 87.5031,452.4497 86.0986,442.0609 84.6949,431.6719 83.2919,421.2828 81.8896,410.8936 80.4881,400.5041 79.0873,390.1145 77.6872,379.7247 76.2879,369.3346 74.8892,358.9442 73.4914,348.5535 72.0942,338.1625 70.6977,327.7712 69.302,317.3795 67.9069,306.9874 66.5126,296.5948 65.119,286.2018 63.726,275.8084 62.3338,265.4144 60.9422,255.02 59.5514,244.6249 58.1612,234.2293 56.7717,223.8332 55.3829,213.4364 53.9948,203.0389 52.6073,192.6408 51.2205,182.242 49.8344,171.8424 48.4489,161.4422 47.0641,151.0411 45.6799,140.6393 44.2965,130.2366 42.9136,119.8331 41.5314,109.4288" stroke="black" stroke-opacity="0.5" stroke-width="1" /></svg>