<?xml version="1.0" encoding="utf-8" ?>
<svg baseProfile="tiny" height="800" version="1.2" width="800" xmlns="http://www.w3.org/2000/svg" xmlns:ev="http://www.w3.org/2001/xml-events" xmlns:xlink="http://www.w3.org/1999/xlink"><defs /><rect fill="none" height="800" stroke="black" stroke-width="2" width="800" x="0" y="0" /><polyline fill="none" points="708.785,736.5871 709.4368,725.6759 710.0879,714.7653 710.7381,703.8554 711.3875,692.9462 712.036,682.0375 712.6838,671.1294 713.3307,660.2219 713.9768,649.3149 714.6222,638.4084 715.2666,627.5024 715.9103,616.5968 716.5532,605.6917 717.1953,594.7869 717.8365,583.8825 718.477,572.9785 719.1167,562.0748 719.7555,551.1714 720.3936,540.2682 721.0308,529.3653 721.6673,518.4626 722.303,507.5601 722.9378,496.6578 723.5719,485.7556 724.2052,474.8535 724.8377,463.9516 725.4695,453.0496 726.1004,442.1477 726.7306,431.2459 727.3599,420.344 727.9885,409.442 728.6164,398.54 729.2434,387.6379 729.8697,376.7357 730.4951,365.8333 731.1199,354.9308 731.7438,344.0281 732.367,333.1251 732.9894,322.2219 733.611,311.3184 734.2319,300.4147 734.852,289.5106 735.4713,278.6061 736.0899,267.7013 736.7077,256.796 737.3248,245.8904 737.9411,234.9843 738.5567,224.0776 739.1715,213.1705 739.7855,202.2629 740.3988,191.3547 741.0113,180.4459 741.6231,169.5365 742.2342,158.6265 742.8445,147.7158 743.454,136.8044 744.0628,125.8923 744.6709,114.9794 745.2782,104.0658 745.8848,93.1514 746.4907,82.2362" stroke="silver" stroke-opacity="0.5" stroke-width="1" /><polyline fill="none" points="631.6148,732.5521 632.1035,721.6372 632.5916,710.723 633.0791,699.8095 633.566,688.8966 634.0522,677.9844 634.5379,667.0728 635.0229,656.1618 635.5073,645.2514 635.9911,634.3414 636.4743,623.432 636.9569,612.5231 637.4389,601.6146 637.9203,590.7065 638.4011,579.7989 638.8813,568.8916 639.3608,557.9847 639.8398,547.0781 640.3182,536.1718 640.7959,525.2658 641.2731,514.36 641.7497,503.4544 642.2257,492.5491 642.7011,481.6439 643.1759,470.7388 643.6501,459.8339 644.1237,448.9291 644.5967,438.0243 645.0691,427.1196 645.541,416.2148 646.0123,405.3101 646.4829,394.4053 646.953,383.5005 647.4225,372.5956 647.8915,361.6905 648.3598,350.7854 648.8276,339.88 649.2948,328.9745 649.7614,318.0687 650.2275,307.1627 650.6929,296.2564 651.1578,285.3499 651.6221,274.443 652.0859,263.5357 652.5491,252.6281 653.0117,241.7201 653.4737,230.8116 653.9352,219.9027 654.3961,208.9933 654.8564,198.0835 655.3162,187.173 655.7754,176.2621 656.2341,165.3505 656.6921,154.4384 657.1497,143.5256 657.6066,132.6121 658.063,121.698 658.5189,110.7831 658.9742,99.8675 659.4289,88.9512 659.8831,78.034" stroke="silver" stroke-opacity="0.5" stroke-width="1" /><polyline fill="none" points="554.4222,729.6707 554.748,718.7532 555.0733,707.8364 555.3982,696.9203 555.7227,686.0049 556.0468,675.0902 556.3705,664.1761 556.6938,653.2626 557.0166,642.3497 557.3391,631.4373 557.6611,620.5255 557.9828,609.6141 558.304,598.7033 558.6249,587.7929 558.9453,576.8829 559.2653,565.9733 559.585,555.0641 559.9042,544.1552 560.223,533.2467 560.5415,522.3385 560.8595,511.4305 561.1771,500.5227 561.4944,489.6152 561.8112,478.7079 562.1277,467.8007 562.4437,456.8937 562.7594,445.9868 563.0746,435.0799 563.3895,424.1732 563.704,413.2664 564.0181,402.3597 564.3318,391.453 564.6451,380.5462 564.958,369.6394 565.2705,358.7324 565.5827,347.8253 565.8945,336.9181 566.2058,326.0107 566.5168,315.1032 566.8274,304.1953 567.1376,293.2873 567.4475,282.379 567.7569,271.4703 568.066,260.5614 568.3747,249.652 568.683,238.7423 568.991,227.8322 569.2985,216.9217 569.6057,206.0107 569.9125,195.0992 570.2189,184.1872 570.525,173.2747 570.8306,162.3616 571.1359,151.4479 571.4409,140.5337 571.7454,129.6187 572.0496,118.7031 572.3534,107.7868 572.6568,96.8698 572.9599,85.9521 573.2626,75.0336" stroke="silver" stroke-opacity="0.5" stroke-width="1" /><polyline fill="none" points="477.2148,727.9422 477.3777,717.0231 477.5403,706.1048 477.7027,695.1872 477.865,684.2702 478.027,673.354 478.1888,662.4384 478.3504,651.5234 478.5118,640.609 478.673,629.6952 478.834,618.7819 478.9948,607.8691 479.1554,596.9569 479.3158,586.045 479.476,575.1337 479.636,564.2227 479.7958,553.3121 479.9554,542.4019 480.1148,531.492 480.274,520.5824 480.433,509.6731 480.5918,498.7641 480.7504,487.8553 480.9088,476.9467 481.067,466.0382 481.225,455.1299 481.3828,444.2218 481.5404,433.3137 481.6978,422.4057 481.855,411.4978 482.012,400.5899 482.1688,389.682 482.3255,378.774 482.4819,367.866 482.6381,356.9579 482.7942,346.0497 482.95,335.1414 483.1057,324.2329 483.2612,313.3242 483.4164,302.4153 483.5715,291.5062 483.7264,280.5968 483.8811,269.6871 484.0356,258.7772 484.19,247.8668 484.3441,236.9561 484.498,226.045 484.6518,215.1335 484.8053,204.2215 484.9587,193.3091 485.1119,182.3962 485.2649,171.4827 485.4177,160.5687 485.5703,149.6541 485.7228,138.7389 485.875,127.8231 486.0271,116.9067 486.1789,105.9895 486.3306,95.0717 486.4821,84.1531 486.6335,73.2338" stroke="silver" stroke-opacity="0.5" stroke-width="1" /><polyline fill="none" points="400.0,727.3661 400.0,716.4465 400.0,705.5276 400.0,694.6095 400.0,683.6921 400.0,672.7753 400.0,661.8592 400.0,650.9437 400.0,640.0289 400.0,629.1145 400.0,618.2008 400.0,607.2875 400.0,596.3748 400.0,585.4625 400.0,574.5506 400.0,563.6392 400.0,552.7282 400.0,541.8175 400.0,530.9072 400.0,519.9971 400.0,509.0874 400.0,498.1779 400.0,487.2687 400.0,476.3596 400.0,465.4508 400.0,454.5421 400.0,443.6335 400.0,432.725 400.0,421.8167 400.0,410.9083 400.0,400.0 400.0,389.0917 400.0,378.1833 400.0,367.275 400.0,356.3665 400.0,345.4579 400.0,334.5492 400.0,323.6404 400.0,312.7313 400.0,301.8221 400.0,290.9126 400.0,280.0029 400.0,269.0928 400.0,258.1825 400.0,247.2718 400.0,236.3608 400.0,225.4494 400.0,214.5375 400.0,203.6252 400.0,192.7125 400.0,181.7992 400.0,170.8855 400.0,159.9711 400.0,149.0563 400.0,138.1408 400.0,127.2247 400.0,116.3079 400.0,105.3905 400.0,94.4724 400.0,83.5535 400.0,72.6339" stroke="silver" stroke-opacity="0.5" stroke-width="1" /><polyline fill="none" points="322.7852,727.9422 322.6223,717.0231 322.4597,706.1048 322.2973,695.1872 322.135,684.2702 321.973,673.354 321.8112,662.4384 321.6496,651.5234 321.4882,640.609 321.327,629.6952 321.166,618.7819 321.0052,607.8691 320.8446,596.9569 320.6842,586.045 320.524,575.1337 320.364,564.2227 320.2042,553.3121 320.0446,542.4019 319.8852,531.492 319.726,520.5824 319.567,509.6731 319.4082,498.7641 319.2496,487.8553 319.0912,476.9467 318.933,466.0382 318.775,455.1299 318.6172,444.2218 318.4596,433.3137 318.3022,422.4057 318.145,411.4978 317.988,400.5899 317.8312,389.682 317.6745,378.774 317.5181,367.866 317.3619,356.9579 317.2058,346.0497 317.05,335.1414 316.8943,324.2329 316.7388,313.3242 316.5836,302.4153 316.4285,291.5062 316.2736,280.5968 316.1189,269.6871 315.9644,258.7772 315.81,247.8668 315.6559,236.9561 315.502,226.045 315.3482,215.1335 315.1947,204.2215 315.0413,193.3091 314.8881,182.3962 314.7351,171.4827 314.5823,160.5687 314.4297,149.6541 314.2772,138.7389 314.125,127.8231 313.9729,116.9067 313.8211,105.9895 313.6694,95.0717 313.5179,84.1531 313.3665,73.2338" stroke="silver" stroke-opacity="0.5" stroke-width="1" /><polyline fill="none" points="245.5778,729.6707 245.252,718.7532 244.9267,707.8364 244.6018,696.9203 244.2773,686.0049 243.9532,675.0902 243.6295,664.1761 243.3062,653.2626 242.9834,642.3497 242.6609,631.4373 242.3389,620.5255 242.0172,609.6141 241.696,598.7033 241.3751,587.7929 241.0547,576.8829 240.7347,565.9733 240.415,555.0641 240.0958,544.1552 239.777,533.2467 239.4585,522.3385 239.1405,511.4305 238.8229,500.5227 238.5056,489.6152 238.1888,478.7079 237.8723,467.8007 237.5563,456.8937 237.2406,445.9868 236.9254,435.0799 236.6105,424.1732 236.296,413.2664 235.9819,402.3597 235.6682,391.453 235.3549,380.5462 235.042,369.6394 234.7295,358.7324 234.4173,347.8253 234.1055,336.9181 233.7942,326.0107 233.4832,315.1032 233.1726,304.1953 232.8624,293.2873 232.5525,282.379 232.2431,271.4703 231.934,260.5614 231.6253,249.652 231.317,238.7423 231.009,227.8322 230.7015,216.9217 230.3943,206.0107 230.0875,195.0992 229.7811,184.1872 229.475,173.2747 229.1694,162.3616 228.8641,151.4479 228.5591,140.5337 228.2546,129.6187 227.9504,118.7031 227.6466,107.7868 227.3432,96.8698 227.0401,85.9521 226.7374,75.0336" stroke="silver" stroke-opacity="0.5" stroke-width="1" /><polyline fill="none" points="168.3852,732.5521 167.8965,721.6372 167.4084,710.723 166.9209,699.8095 166.434,688.8966 165.9478,677.9844 165.4621,667.0728 164.9771,656.1618 164.4927,645.2514 164.0089,634.3414 163.5257,623.432 163.0431,612.5231 162.5611,601.6146 162.0797,590.7065 161.5989,579.7989 161.1187,568.8916 160.6392,557.9847 160.1602,547.0781 159.6818,536.1718 159.2041,525.2658 158.7269,514.36 158.2503,503.4544 157.7743,492.5491 157.2989,481.6439 156.8241,470.7388 156.3499,459.8339 155.8763,448.9291 155.4033,438.0243 154.9309,427.1196 154.459,416.2148 153.9877,405.3101 153.5171,394.4053 153.047,383.5005 152.5775,372.5956 152.1085,361.6905 151.6402,350.7854 151.1724,339.88 150.7052,328.9745 150.2386,318.0687 149.7725,307.1627 149.3071,296.2564 148.8422,285.3499 148.3779,274.443 147.9141,263.5357 147.4509,252.6281 146.9883,241.7201 146.5263,230.8116 146.0648,219.9027 145.6039,208.9933 145.1436,198.0835 144.6838,187.173 144.2246,176.2621 143.7659,165.3505 143.3079,154.4384 142.8503,143.5256 142.3934,132.6121 141.937,121.698 141.4811,110.7831 141.0258,99.8675 140.5711,88.9512 140.1169,78.034" stroke="silver" stroke-opacity="0.5" stroke-width="1" /><polyline fill="none" points="91.215,736.5871 90.5632,725.6759 89.9121,714.7653 89.2619,703.8554 88.6125,692.9462 87.964,682.0375 87.3162,671.1294 86.6693,660.2219 86.0232,649.3149 85.3778,638.4084 84.7334,627.5024 84.0897,616.5968 83.4468,605.6917 82.8047,594.7869 82.1635,583.8825 81.523,572.9785 80.8833,562.0748 80.2445,551.1714 79.6064,540.2682 78.9692,529.3653 78.3327,518.4626 77.697,507.5601 77.0622,496.6578 76.4281,485.7556 75.7948,474.8535 75.1623,463.9516 74.5305,453.0496 73.8996,442.1477 73.2694,431.2459 72.6401,420.344 72.0115,409.442 71.3836,398.54 70.7566,387.6379 70.1303,376.7357 69.5049,365.8333 68.8801,354.9308 68.2562,344.0281 67.633,333.1251 67.0106,322.2219 66.389,311.3184 65.7681,300.4147 65.148,289.5106 64.5287,278.6061 63.9101,267.7013 63.2923,256.796 62.6752,245.8904 62.0589,234.9843 61.4433,224.0776 60.8285,213.1705 60.2145,202.2629 59.6012,191.3547 58.9887,180.4459 58.3769,169.5365 57.7658,158.6265 57.1555,147.7158 56.546,136.8044 55.9372,125.8923 55.3291,114.9794 54.7218,104.0658 54.1152,93.1514 53.5093,82.2362" stroke="silver" stroke-opacity="0.5" stroke-width="1" /><polyline fill="none" points="708.785,736.5871 701.0692,736.1317 693.3531,735.6878 685.6367,735.2554 677.9201,734.8346 670.2031,734.4253 662.4859,734.0276 654.7685,733.6414 647.0508,733.2668 639.3329,732.9036 631.6148,732.5521 623.8964,732.212 616.1778,731.8835 608.459,731.5666 600.74,731.2611 593.0208,730.9672 585.3014,730.6849 577.5819,730.414 569.8621,730.1547 562.1423,729.907 554.4222,729.6707 546.702,729.446 538.9817,729.2328 531.2612,729.0311 523.5406,728.841 515.8199,728.6624 508.0991,728.4953 500.3781,728.3397 492.6571,728.1957 484.936,728.0632 477.2148,727.9422 469.4935,727.8328 461.7722,727.7348 454.0508,727.6484 446.3294,727.5735 438.6079,727.5101 430.8863,727.4583 423.1648,727.418 415.4432,727.3891 407.7216,727.3719 400.0,727.3661 392.2784,727.3719 384.5568,727.3891 376.8352,727.418 369.1137,727.4583 361.3921,727.5101 353.6706,727.5735 345.9492,727.6484 338.2278,727.7348 330.5065,727.8328 322.7852,727.9422 315.064,728.0632 307.3429,728.1957 299.6219,728.3397 291.9009,728.4953 284.1801,728.6624 276.4594,728.841 268.7388,729.0311 261.0183,729.2328 253.298,729.446 245.5778,729.6707 237.8577,729.907 230.1379,730.1547 222.4181,730.414 214.6986,730.6849 206.9792,730.9672 199.26,731.2611 191.541,731.5666 183.8222,731.8835 176.1036,732.212 168.3852,732.5521 160.6671,732.9036 152.9492,733.2668 145.2315,733.6414 137.5141,734.0276 129.7969,734.4253 122.0799,734.8346 114.3633,735.2554 106.6469,735.6878 98.9308,736.1317 91.215,736.5871" stroke="silver" stroke-opacity="0.5" stroke-width="1" /><polyline fill="none" points="713.9768,649.3149 706.1311,648.8562 698.285,648.4092 690.4386,647.9738 682.592,647.55 674.7452,647.1378 666.8981,646.7373 659.0507,646.3484 651.2032,645.9711 643.3554,645.6054 635.5073,645.2514 627.6591,644.9089 619.8107,644.5781 611.962,644.2589 604.1132,643.9513 596.2642,643.6553 588.415,643.371 580.5656,643.0982 572.7161,642.8371 564.8665,642.5876 557.0166,642.3497 549.1667,642.1234 541.3166,641.9087 533.4664,641.7056 525.616,641.5141 517.7656,641.3343 509.915,641.166 502.0643,641.0093 494.2136,640.8643 486.3627,640.7309 478.5118,640.609 470.6609,640.4988 462.8098,640.4002 454.9587,640.3131 447.1076,640.2377 439.2564,640.1739 431.4051,640.1217 423.5539,640.0811 415.7026,640.0521 407.8513,640.0347 400.0,640.0289 392.1487,640.0347 384.2974,640.0521 376.4461,640.0811 368.5949,640.1217 360.7436,640.1739 352.8924,640.2377 345.0413,640.3131 337.1902,640.4002 329.3391,640.4988 321.4882,640.609 313.6373,640.7309 305.7864,640.8643 297.9357,641.0093 290.085,641.166 282.2344,641.3343 274.384,641.5141 266.5336,641.7056 258.6834,641.9087 250.8333,642.1234 242.9834,642.3497 235.1335,642.5876 227.2839,642.8371 219.4344,643.0982 211.585,643.371 203.7358,643.6553 195.8868,643.9513 188.038,644.2589 180.1893,644.5781 172.3409,644.9089 164.4927,645.2514 156.6446,645.6054 148.7968,645.9711 140.9493,646.3484 133.1019,646.7373 125.2548,647.1378 117.408,647.55 109.5614,647.9738 101.715,648.4092 93.8689,648.8562 86.0232,649.3149" stroke="silver" stroke-opacity="0.5" stroke-width="1" /><polyline fill="none" points="719.1167,562.0748 711.1422,561.6131 703.1674,561.1632 695.1924,560.7249 687.2172,560.2983 679.2417,559.8835 671.2659,559.4803 663.29,559.0889 655.3138,558.7091 647.3374,558.3411 639.3608,557.9847 631.384,557.64 623.407,557.3071 615.4299,556.9858 607.4525,556.6762 599.475,556.3783 591.4973,556.0921 583.5194,555.8176 575.5414,555.5547 567.5633,555.3036 559.585,555.0641 551.6065,554.8363 543.628,554.6202 535.6493,554.4158 527.6705,554.2231 519.6916,554.0421 511.7127,553.8727 503.7336,553.7151 495.7544,553.5691 487.7751,553.4348 479.7958,553.3121 471.8164,553.2012 463.837,553.1019 455.8575,553.0143 447.8779,552.9384 439.8983,552.8742 431.9187,552.8216 423.939,552.7807 415.9594,552.7515 407.9797,552.734 400.0,552.7282 392.0203,552.734 384.0406,552.7515 376.061,552.7807 368.0813,552.8216 360.1017,552.8742 352.1221,552.9384 344.1425,553.0143 336.163,553.1019 328.1836,553.2012 320.2042,553.3121 312.2249,553.4348 304.2456,553.5691 296.2664,553.7151 288.2873,553.8727 280.3084,554.0421 272.3295,554.2231 264.3507,554.4158 256.372,554.6202 248.3935,554.8363 240.415,555.0641 232.4367,555.3036 224.4586,555.5547 216.4806,555.8176 208.5027,556.0921 200.525,556.3783 192.5475,556.6762 184.5701,556.9858 176.593,557.3071 168.616,557.64 160.6392,557.9847 152.6626,558.3411 144.6862,558.7091 136.71,559.0889 128.7341,559.4803 120.7583,559.8835 112.7828,560.2983 104.8076,560.7249 96.8326,561.1632 88.8578,561.6131 80.8833,562.0748" stroke="silver" stroke-opacity="0.5" stroke-width="1" /><polyline fill="none" points="724.2052,474.8535 716.1033,474.3891 708.0012,473.9364 699.8988,473.4955 691.7961,473.0664 683.6933,472.649 675.5902,472.2435 667.4869,471.8497 659.3834,471.4676 651.2797,471.0974 643.1759,470.7388 635.0718,470.3921 626.9675,470.0571 618.8631,469.7339 610.7585,469.4225 602.6537,469.1228 594.5488,468.8348 586.4437,468.5587 578.3385,468.2943 570.2331,468.0416 562.1277,467.8007 554.0221,467.5716 545.9163,467.3542 537.8105,467.1486 529.7045,466.9547 521.5985,466.7726 513.4923,466.6022 505.3861,466.4436 497.2798,466.2967 489.1734,466.1616 481.067,466.0382 472.9604,465.9266 464.8539,465.8267 456.7472,465.7386 448.6406,465.6623 440.5339,465.5976 432.4271,465.5448 424.3204,465.5036 416.2136,465.4743 408.1068,465.4567 400.0,465.4508 391.8932,465.4567 383.7864,465.4743 375.6796,465.5036 367.5729,465.5448 359.4661,465.5976 351.3594,465.6623 343.2528,465.7386 335.1461,465.8267 327.0396,465.9266 318.933,466.0382 310.8266,466.1616 302.7202,466.2967 294.6139,466.4436 286.5077,466.6022 278.4015,466.7726 270.2955,466.9547 262.1895,467.1486 254.0837,467.3542 245.9779,467.5716 237.8723,467.8007 229.7669,468.0416 221.6615,468.2943 213.5563,468.5587 205.4512,468.8348 197.3463,469.1228 189.2415,469.4225 181.1369,469.7339 173.0325,470.0571 164.9282,470.3921 156.8241,470.7388 148.7203,471.0974 140.6166,471.4676 132.5131,471.8497 124.4098,472.2435 116.3067,472.649 108.2039,473.0664 100.1012,473.4955 91.9988,473.9364 83.8967,474.3891 75.7948,474.8535" stroke="silver" stroke-opacity="0.5" stroke-width="1" /><polyline fill="none" points="729.2434,387.6379 721.0153,387.1709 712.787,386.7157 704.5585,386.2724 696.3297,385.8409 688.1008,385.4212 679.8716,385.0134 671.6422,384.6174 663.4127,384.2333 655.183,383.861 646.953,383.5005 638.7229,383.1519 630.4927,382.815 622.2622,382.49 614.0316,382.1769 605.8009,381.8755 597.57,381.586 589.339,381.3083 581.1078,381.0425 572.8765,380.7884 564.6451,380.5462 556.4136,380.3158 548.1819,380.0972 539.9502,379.8905 531.7183,379.6955 523.4864,379.5124 515.2543,379.3411 507.0222,379.1816 498.79,379.0339 490.5578,378.8981 482.3255,378.774 474.0931,378.6618 465.8607,378.5614 457.6282,378.4728 449.3957,378.396 441.1631,378.331 432.9305,378.2779 424.6979,378.2365 416.4653,378.207 408.2326,378.1893 400.0,378.1833 391.7674,378.1893 383.5347,378.207 375.3021,378.2365 367.0695,378.2779 358.8369,378.331 350.6043,378.396 342.3718,378.4728 334.1393,378.5614 325.9069,378.6618 317.6745,378.774 309.4422,378.8981 301.21,379.0339 292.9778,379.1816 284.7457,379.3411 276.5136,379.5124 268.2817,379.6955 260.0498,379.8905 251.8181,380.0972 243.5864,380.3158 235.3549,380.5462 227.1235,380.7884 218.8922,381.0425 210.661,381.3083 202.43,381.586 194.1991,381.8755 185.9684,382.1769 177.7378,382.49 169.5073,382.815 161.2771,383.1519 153.047,383.5005 144.817,383.861 136.5873,384.2333 128.3578,384.6174 120.1284,385.0134 111.8992,385.4212 103.6703,385.8409 95.4415,386.2724 87.213,386.7157 78.9847,387.1709 70.7566,387.6379" stroke="silver" stroke-opacity="0.5" stroke-width="1" /><polyline fill="none" points="734.2319,300.4147 725.8789,299.9453 717.5257,299.4878 709.1722,299.0423 700.8186,298.6086 692.4648,298.1868 684.1108,297.777 675.7566,297.379 667.4022,296.9929 659.0476,296.6187 650.6929,296.2564 642.338,295.906 633.983,295.5675 625.6278,295.2409 617.2725,294.9261 608.917,294.6233 600.5614,294.3323 592.2056,294.0532 583.8497,293.786 575.4937,293.5307 567.1376,293.2873 558.7814,293.0557 550.4251,292.8361 542.0687,292.6283 533.7122,292.4323 525.3556,292.2483 516.9989,292.0761 508.6422,291.9158 500.2854,291.7674 491.9285,291.6309 483.5715,291.5062 475.2145,291.3934 466.8575,291.2925 458.5004,291.2035 450.1433,291.1263 441.7861,291.061 433.4289,291.0076 425.0717,290.966 416.7145,290.9363 408.3572,290.9185 400.0,290.9126 391.6428,290.9185 383.2855,290.9363 374.9283,290.966 366.5711,291.0076 358.2139,291.061 349.8567,291.1263 341.4996,291.2035 333.1425,291.2925 324.7855,291.3934 316.4285,291.5062 308.0715,291.6309 299.7146,291.7674 291.3578,291.9158 283.0011,292.0761 274.6444,292.2483 266.2878,292.4323 257.9313,292.6283 249.5749,292.8361 241.2186,293.0557 232.8624,293.2873 224.5063,293.5307 216.1503,293.786 207.7944,294.0532 199.4386,294.3323 191.083,294.6233 182.7275,294.9261 174.3722,295.2409 166.017,295.5675 157.662,295.906 149.3071,296.2564 140.9524,296.6187 132.5978,296.9929 124.2434,297.379 115.8892,297.777 107.5352,298.1868 99.1814,298.6086 90.8278,299.0423 82.4743,299.4878 74.1211,299.9453 65.7681,300.4147" stroke="silver" stroke-opacity="0.5" stroke-width="1" /><polyline fill="none" points="739.1715,213.1705 730.6947,212.699 722.2178,212.2395 713.7407,211.7919 705.2634,211.3562 696.786,210.9325 688.3083,210.5208 679.8305,210.121 671.3525,209.7332 662.8744,209.3573 654.3961,208.9933 645.9176,208.6413 637.439,208.3013 628.9603,207.9732 620.4814,207.657 612.0024,207.3528 603.5233,207.0605 595.0441,206.7801 586.5647,206.5117 578.0853,206.2552 569.6057,206.0107 561.126,205.7781 552.6463,205.5574 544.1664,205.3487 535.6865,205.1519 527.2064,204.967 518.7264,204.794 510.2462,204.633 501.766,204.4839 493.2857,204.3468 484.8053,204.2215 476.3249,204.1082 467.8445,204.0069 459.364,203.9174 450.8835,203.8399 442.403,203.7743 433.9224,203.7206 425.4418,203.6789 416.9612,203.6491 408.4806,203.6312 400.0,203.6252 391.5194,203.6312 383.0388,203.6491 374.5582,203.6789 366.0776,203.7206 357.597,203.7743 349.1165,203.8399 340.636,203.9174 332.1555,204.0069 323.6751,204.1082 315.1947,204.2215 306.7143,204.3468 298.234,204.4839 289.7538,204.633 281.2736,204.794 272.7936,204.967 264.3135,205.1519 255.8336,205.3487 247.3537,205.5574 238.874,205.7781 230.3943,206.0107 221.9147,206.2552 213.4353,206.5117 204.9559,206.7801 196.4767,207.0605 187.9976,207.3528 179.5186,207.657 171.0397,207.9732 162.561,208.3013 154.0824,208.6413 145.6039,208.9933 137.1256,209.3573 128.6475,209.7332 120.1695,210.121 111.6917,210.5208 103.214,210.9325 94.7366,211.3562 86.2593,211.7919 77.7822,212.2395 69.3053,212.699 60.8285,213.1705" stroke="silver" stroke-opacity="0.5" stroke-width="1" /><polyline fill="none" points="744.0628,125.8923 735.4636,125.4188 726.8642,124.9574 718.2646,124.508 709.6649,124.0705 701.0649,123.6451 692.4649,123.2317 683.8646,122.8303 675.2642,122.4408 666.6637,122.0634 658.063,121.698 649.4622,121.3445 640.8613,121.0031 632.2602,120.6736 623.659,120.3562 615.0577,120.0507 606.4563,119.7572 597.8548,119.4757 589.2532,119.2062 580.6514,118.9487 572.0496,118.7031 563.4477,118.4696 554.8457,118.248 546.2436,118.0384 537.6414,117.8408 529.0392,117.6552 520.4369,117.4815 511.8345,117.3198 503.2321,117.1701 494.6296,117.0324 486.0271,116.9067 477.4245,116.7929 468.8219,116.6911 460.2192,116.6013 451.6165,116.5235 443.0138,116.4576 434.4111,116.4037 425.8083,116.3618 417.2056,116.3319 408.6028,116.3139 400.0,116.3079 391.3972,116.3139 382.7944,116.3319 374.1917,116.3618 365.5889,116.4037 356.9862,116.4576 348.3835,116.5235 339.7808,116.6013 331.1781,116.6911 322.5755,116.7929 313.9729,116.9067 305.3704,117.0324 296.7679,117.1701 288.1655,117.3198 279.5631,117.4815 270.9608,117.6552 262.3586,117.8408 253.7564,118.0384 245.1543,118.248 236.5523,118.4696 227.9504,118.7031 219.3486,118.9487 210.7468,119.2062 202.1452,119.4757 193.5437,119.7572 184.9423,120.0507 176.341,120.3562 167.7398,120.6736 159.1387,121.0031 150.5378,121.3445 141.937,121.698 133.3363,122.0634 124.7358,122.4408 116.1354,122.8303 107.5351,123.2317 98.9351,123.6451 90.3351,124.0705 81.7354,124.508 73.1358,124.9574 64.5364,125.4188 55.9372,125.8923" stroke="silver" stroke-opacity="0.5" stroke-width="1" /><circle cx="730.0637" cy="366.4212" fill="black" r="0.738" stroke="none" /><circle cx="726.9047" cy="411.1298" fill="black" r="0.738" stroke="none" /><circle cx="710.0523" cy="676.4031" fill="black" r="0.738" stroke="none" /><circle cx="740.2088" cy="113.1563" fill="black" r="0.738" stroke="none" /><circle cx="728.6185" cy="193.3301" fill="black" r="0.738" stroke="none" /><circle cx="702.9627" cy="649.1996" fill="black" r="0.738" stroke="none" /><circle cx="704.0134" cy="610.7442" fill="black" r="0.738" stroke="none" /><circle cx="714.2353" cy="374.7222" fill="black" r="0.738" stroke="none" /><circle cx="695.2825" cy="657.0821" fill="black" r="0.936" stroke="none" /><circle cx="707.3147" cy="275.5005" fill="black" r="0.738" stroke="none" /><circle cx="709.2948" cy="119.0629" fill="black" r="0.738" stroke="none" /><circle cx="695.6191" cy="292.7471" fill="black" r="0.738" stroke="none" /><circle cx="679.4948" cy="601.8868" fill="black" r="0.738" stroke="none" /><circle cx="700.8577" cy="115.1458" fill="black" r="0.738" stroke="none" /><circle cx="688.832" cy="254.4536" fill="black" r="0.738" stroke="none" /><circle cx="676.0937" cy="312.9587" fill="black" r="0.936" stroke="none" /><circle cx="670.2432" cy="412.7032" fill="black" r="0.738" stroke="none" /><circle cx="681.3736" cy="97.1665" fill="black" r="0.738" stroke="none" /><circle cx="652.7506" cy="705.1" fill="black" r="0.738" stroke="none" /><circle cx="651.2418" cy="540.1588" fill="black" r="0.738" stroke="none" /><circle cx="653.6205" cy="478.1965" fill="black" r="0.738" stroke="none" /><circle cx="665.481" cy="179.3017" fill="black" r="0.738" stroke="none" /><circle cx="639.0931" cy="415.1531" fill="black" r="0.738" stroke="none" /><circle cx="647.4718" cy="105.6088" fill="black" r="0.738" stroke="none" /><circle cx="633.7738" cy="299.1423" fill="black" r="0.738" stroke="none" /><circle cx="625.0898" cy="476.3604" fill="black" r="0.738" stroke="none" /><circle cx="616.1097" cy="644.3387" fill="black" r="0.738" stroke="none" /><circle cx="622.7954" cy="449.1798" fill="black" r="0.738" stroke="none" /><circle cx="623.0077" cy="323.5395" fill="black" r="0.738" stroke="none" /><circle cx="618.4996" cy="321.1845" fill="black" r="0.738" stroke="none" /><circle cx="620.4138" cy="190.8733" fill="black" r="0.738" stroke="none" /><circle cx="605.621" cy="579.6779" fill="black" r="0.738" stroke="none" /><circle cx="615.4465" cy="311.8095" fill="black" r="0.738" stroke="none" /><circle cx="612.4724" cy="249.4897" fill="black" r="0.738" stroke="none" /><circle cx="598.1402" cy="620.2122" fill="black" r="0.738" stroke="none" /><circle cx="613.3646" cy="191.8444" fill="black" r="0.738" stroke="none" /><circle cx="610.5947" cy="125.6668" fill="black" r="0.738" stroke="none" /><circle cx="590.6178" cy="522.5119" fill="black" r="0.738" stroke="none" /><circle cx="600.9259" cy="180.932" fill="black" r="0.738" stroke="none" /><circle cx="581.8981" cy="705.9941" fill="black" r="0.936" stroke="none" /><circle cx="584.5705" cy="584.948" fill="black" r="0.738" stroke="none" /><circle cx="576.9282" cy="618.1575" fill="black" r="0.738" stroke="none" /><circle cx="583.2885" cy="387.0509" fill="black" r="0.738" stroke="none" /><circle cx="571.8553" cy="638.3524" fill="black" r="0.738" stroke="none" /><circle cx="574.7067" cy="523.5561" fill="black" r="0.738" stroke="none" /><circle cx="581.8014" cy="269.0026" fill="black" r="0.738" stroke="none" /><circle cx="575.516" cy="361.2183" fill="black" r="0.738" stroke="none" /><circle cx="573.6681" cy="163.5776" fill="black" r="0.738" stroke="none" /><circle cx="554.0575" cy="642.5251" fill="black" r="0.738" stroke="none" /><circle cx="554.2955" cy="441.033" fill="black" r="0.738" stroke="none" /><circle cx="540.4632" cy="643.2839" fill="black" r="0.738" stroke="none" /><circle cx="552.4467" cy="75.5404" fill="black" r="0.738" stroke="none" /><circle cx="536.1686" cy="497.0573" fill="black" r="0.738" stroke="none" /><circle cx="534.9674" cy="406.6615" fill="black" r="0.738" stroke="none" /><circle cx="535.2193" cy="264.525" fill="black" r="0.936" stroke="none" /><circle cx="535.8786" cy="226.6405" fill="black" r="0.738" stroke="none" /><circle cx="532.4397" cy="204.643" fill="black" r="0.738" stroke="none" /><circle cx="522.4107" cy="374.3386" fill="black" r="0.738" stroke="none" /><circle cx="519.1326" cy="395.5704" fill="black" r="0.738" stroke="none" /><circle cx="521.8361" cy="232.1018" fill="black" r="0.738" stroke="none" /><circle cx="509.5627" cy="593.7349" fill="black" r="0.738" stroke="none" /><circle cx="514.3445" cy="238.7647" fill="black" r="0.738" stroke="none" /><circle cx="509.4202" cy="307.5571" fill="black" r="1.476" stroke="none" /><circle cx="502.7164" cy="560.2442" fill="black" r="0.738" stroke="none" /><circle cx="503.9494" cy="119.5408" fill="black" r="0.738" stroke="none" /><circle cx="489.5359" cy="675.8085" fill="black" r="0.738" stroke="none" /><circle cx="494.1222" cy="246.0075" fill="black" r="0.738" stroke="none" /><circle cx="490.4294" cy="306.4474" fill="black" r="0.738" stroke="none" /><circle cx="488.8306" cy="248.3707" fill="black" r="0.738" stroke="none" /><circle cx="478.6914" cy="653.8866" fill="black" r="0.936" stroke="none" /><circle cx="478.8262" cy="491.4064" fill="black" r="0.936" stroke="none" /><circle cx="481.034" cy="320.1886" fill="black" r="0.738" stroke="none" /><circle cx="474.7255" cy="545.9071" fill="black" r="1.17" stroke="none" /><circle cx="465.3368" cy="378.2936" fill="black" r="0.738" stroke="none" /><circle cx="460.1404" cy="708.5829" fill="black" r="0.738" stroke="none" /><circle cx="457.7441" cy="591.5334" fill="black" r="0.738" stroke="none" /><circle cx="456.0568" cy="187.3843" fill="black" r="0.738" stroke="none" /><circle cx="451.3684" cy="458.1809" fill="black" r="0.738" stroke="none" /><circle cx="448.3751" cy="510.8704" fill="black" r="0.738" stroke="none" /><circle cx="447.9549" cy="272.4294" fill="black" r="0.738" stroke="none" /><circle cx="443.0599" cy="604.5792" fill="black" r="0.738" stroke="none" /><circle cx="433.6915" cy="196.4731" fill="black" r="0.936" stroke="none" /><circle cx="432.9126" cy="227.0237" fill="black" r="0.738" stroke="none" /><circle cx="426.4806" cy="707.0799" fill="black" r="0.738" stroke="none" /><circle cx="422.4259" cy="436.3476" fill="black" r="0.738" stroke="none" /><circle cx="422.7001" cy="100.6281" fill="black" r="0.738" stroke="none" /><circle cx="421.08" cy="377.0003" fill="black" r="0.738" stroke="none" /><circle cx="418.9674" cy="212.9088" fill="black" r="0.738" stroke="none" /><circle cx="417.4256" cy="299.1424" fill="black" r="0.738" stroke="none" /><circle cx="414.5575" cy="377.3291" fill="black" r="0.738" stroke="none" /><circle cx="413.5698" cy="614.2018" fill="black" r="0.738" stroke="none" /><circle cx="408.1354" cy="400.1803" fill="black" r="0.738" stroke="none" /><circle cx="407.5235" cy="465.194" fill="black" r="0.738" stroke="none" /><circle cx="407.7527" cy="135.5259" fill="black" r="0.738" stroke="none" /><circle cx="405.9166" cy="628.8559" fill="black" r="0.738" stroke="none" /><circle cx="402.1857" cy="514.4118" fill="black" r="0.738" stroke="none" /><circle cx="397.3749" cy="92.988" fill="black" r="0.738" stroke="none" /><circle cx="395.2384" cy="509.1767" fill="black" r="0.738" stroke="none" /><circle cx="392.2865" cy="560.415" fill="black" r="0.738" stroke="none" /><circle cx="387.5024" cy="229.3906" fill="black" r="0.738" stroke="none" /><circle cx="380.6064" cy="248.5254" fill="black" r="0.738" stroke="none" /><circle cx="380.5843" cy="705.7385" fill="black" r="0.738" stroke="none" /><circle cx="370.2136" cy="257.4716" fill="black" r="0.936" stroke="none" /><circle cx="366.2861" cy="143.1236" fill="black" r="0.738" stroke="none" /><circle cx="362.0556" cy="90.0458" fill="black" r="0.738" stroke="none" /><circle cx="359.4125" cy="290.3544" fill="black" r="0.738" stroke="none" /><circle cx="358.2342" cy="583.878" fill="black" r="0.738" stroke="none" /><circle cx="355.3447" cy="352.6119" fill="black" r="0.738" stroke="none" /><circle cx="348.7248" cy="689.4455" fill="black" r="0.738" stroke="none" /><circle cx="346.0658" cy="629.824" fill="black" r="0.738" stroke="none" /><circle cx="343.6484" cy="615.4417" fill="black" r="0.738" stroke="none" /><circle cx="338.708" cy="201.1428" fill="black" r="0.738" stroke="none" /><circle cx="337.4887" cy="365.5198" fill="black" r="0.738" stroke="none" /><circle cx="331.49" cy="516.2335" fill="black" r="0.738" stroke="none" /><circle cx="326.1067" cy="203.2048" fill="black" r="0.738" stroke="none" /><circle cx="323.082" cy="129.801" fill="black" r="0.738" stroke="none" /><circle cx="321.3811" cy="351.0539" fill="black" r="0.738" stroke="none" /><circle cx="321.1377" cy="395.8323" fill="black" r="0.936" stroke="none" /><circle cx="318.7539" cy="270.9598" fill="black" r="0.738" stroke="none" /><circle cx="315.3935" cy="446.3641" fill="black" r="0.738" stroke="none" /><circle cx="311.6816" cy="273.6801" fill="black" r="0.738" stroke="none" /><circle cx="308.7108" cy="86.668" fill="black" r="0.738" stroke="none" /><circle cx="317.9193" cy="701.4567" fill="black" r="0.738" stroke="none" /><circle cx="309.9223" cy="223.6816" fill="black" r="0.738" stroke="none" /><circle cx="299.5736" cy="162.2819" fill="black" r="0.738" stroke="none" /><circle cx="304.1321" cy="677.6672" fill="black" r="0.738" stroke="none" /><circle cx="295.4933" cy="471.8394" fill="black" r="0.738" stroke="none" /><circle cx="292.5689" cy="430.6044" fill="black" r="1.17" stroke="none" /><circle cx="279.4059" cy="95.205" fill="black" r="0.738" stroke="none" /><circle cx="269.2479" cy="296.2075" fill="black" r="0.738" stroke="none" /><circle cx="273.934" cy="535.1496" fill="black" r="0.738" stroke="none" /><circle cx="265.6709" cy="414.2421" fill="black" r="0.738" stroke="none" /><circle cx="260.382" cy="436.11" fill="black" r="0.738" stroke="none" /><circle cx="251.9578" cy="126.2948" fill="black" r="0.738" stroke="none" /><circle cx="259.8056" cy="588.5055" fill="black" r="0.738" stroke="none" /><circle cx="246.3446" cy="281.8289" fill="black" r="0.738" stroke="none" /><circle cx="255.4283" cy="640.0742" fill="black" r="0.738" stroke="none" /><circle cx="246.5307" cy="381.9826" fill="black" r="0.738" stroke="none" /><circle cx="255.7544" cy="722.2092" fill="black" r="0.738" stroke="none" /><circle cx="241.0284" cy="693.9687" fill="black" r="0.738" stroke="none" /><circle cx="228.4303" cy="393.5869" fill="black" r="0.738" stroke="none" /><circle cx="215.9656" cy="125.6037" fill="black" r="0.738" stroke="none" /><circle cx="217.0603" cy="249.4702" fill="black" r="0.738" stroke="none" /><circle cx="219.9203" cy="488.7016" fill="black" r="1.17" stroke="none" /><circle cx="209.3707" cy="206.8136" fill="black" r="0.738" stroke="none" /><circle cx="215.6683" cy="417.8287" fill="black" r="0.738" stroke="none" /><circle cx="219.3406" cy="587.8739" fill="black" r="1.17" stroke="none" /><circle cx="200.4956" cy="166.0284" fill="black" r="0.738" stroke="none" /><circle cx="192.0722" cy="102.5836" fill="black" r="1.17" stroke="none" /><circle cx="193.989" cy="530.4065" fill="black" r="0.936" stroke="none" /><circle cx="191.4758" cy="629.2613" fill="black" r="0.738" stroke="none" /><circle cx="185.165" cy="560.7203" fill="black" r="0.738" stroke="none" /><circle cx="166.8717" cy="274.8213" fill="black" r="0.738" stroke="none" /><circle cx="177.7274" cy="569.4101" fill="black" r="0.936" stroke="none" /><circle cx="165.7889" cy="401.4919" fill="black" r="0.738" stroke="none" /><circle cx="170.6905" cy="544.6157" fill="black" r="0.936" stroke="none" /><circle cx="164.1228" cy="488.168" fill="black" r="0.738" stroke="none" /><circle cx="149.7773" cy="178.3919" fill="black" r="0.738" stroke="none" /><circle cx="138.9366" cy="114.3014" fill="black" r="0.738" stroke="none" /><circle cx="146.7704" cy="330.368" fill="black" r="0.738" stroke="none" /><circle cx="154.8885" cy="563.7485" fill="black" r="0.738" stroke="none" /><circle cx="140.2435" cy="269.8115" fill="black" r="0.738" stroke="none" /><circle cx="143.3941" cy="396.2496" fill="black" r="0.738" stroke="none" /><circle cx="144.3371" cy="476.1042" fill="black" r="0.738" stroke="none" /><circle cx="135.6878" cy="301.6615" fill="black" r="0.738" stroke="none" /><circle cx="121.1744" cy="154.7947" fill="black" r="0.738" stroke="none" /><circle cx="143.463" cy="707.8228" fill="black" r="0.936" stroke="none" /><circle cx="125.0721" cy="409.5178" fill="black" r="0.738" stroke="none" /><circle cx="129.3674" cy="645.089" fill="black" r="1.17" stroke="none" /><circle cx="110.3016" cy="345.6241" fill="black" r="0.738" stroke="none" /><circle cx="120.7142" cy="554.0252" fill="black" r="0.738" stroke="none" /><circle cx="120.6376" cy="586.0452" fill="black" r="0.738" stroke="none" /><circle cx="116.3466" cy="652.42" fill="black" r="0.936" stroke="none" /><circle cx="90.948" cy="166.2232" fill="black" r="0.738" stroke="none" /><circle cx="111.3566" cy="643.9373" fill="black" r="0.738" stroke="none" /><circle cx="109.5243" cy="613.6694" fill="black" r="0.738" stroke="none" /><circle cx="89.7666" cy="365.4946" fill="black" r="0.738" stroke="none" /><circle cx="69.1149" cy="96.1018" fill="black" r="0.738" stroke="none" /><circle cx="75.4221" cy="295.5857" fill="black" r="0.738" stroke="none" /><circle cx="72.1745" cy="404.2698" fill="black" r="0.936" stroke="none" /><circle cx="13.77" cy="786.23" fill="black" r="4.59" stroke="none" /><circle cx="13.77" cy="786.23" fill="black" r="4.59" stroke="none" /><text fill="black" font-family="monospace" font-size="12" x="10.77" y="775.64">1</text><circle cx="37.77" cy="786.23" fill="black" r="3.654" stroke="none" /><circle cx="37.77" cy="786.23" fill="black" r="3.654" stroke="none" /><text fill="black" font-family="monospace" font-size="12" x="34.769999999999996" y="775.64">2</text><circle cx="61.77" cy="786.23" fill="black" r="2.916" stroke="none" /><circle cx="61.77" cy="786.23" fill="black" r="2.916" stroke="none" /><text fill="black" font-family="monospace" font-size="12" x="58.769999999999996" y="775.64">3</text><circle cx="85.77" cy="786.23" fill="black" r="2.322" stroke="none" /><circle cx="85.77" cy="786.23" fill="black" r="2.322" stroke="none" /><text fill="black" font-family="monospace" font-size="12" x="82.77" y="775.64">4</text><circle cx="109.77" cy="786.23" fill="black" r="1.854" stroke="none" /><circle cx="109.77" cy="786.23" fill="black" r="1.854" stroke="none" /><text fill="black" font-family="monospace" font-size="12" x="106.77" y="775.64">5</text><circle cx="133.77" cy="786.23" fill="black" r="1.476" stroke="none" /><circle cx="133.77" cy="786.23" fill="black" r="1.476" stroke="none" /><text fill="black" font-family="monospace" font-size="12" x="130.77" y="775.64">6</text><circle cx="157.77" cy="786.23" fill="black" r="1.17" stroke="none" /><circle cx="157.77" cy="786.23" fill="black" r="1.17" stroke="none" /><text fill="black" font-family="monospace" font-size="12" x="154.77" y="775.64">7</text><circle cx="181.77" cy="786.23" fill="black" r="0.936" stroke="none" /><circle cx="181.77" cy="786.23" fill="black" r="0.936" stroke="none" /><text fill="black" font-family="monospace" font-size="12" x="178.77" y="775.64">8</text><circle cx="205.77" cy="786.23" fill="black" r="0.738" stroke="none" /><circle cx="205.77" cy="786.23" fill="black" r="0.738" stroke="none" /><text fill="black" font-family="monospace" font-size="12" x="202.77" y="775.64">9</text><text fill="gray" fill-opacity="0.5" font-family="monospace" font-size="12" x="746.4906560766287" y="82.23620766345118">12h40m</text><text fill="gray" fill-opacity="0.5" font-family="monospace" font-size="12" x="659.8831181527856" y="78.03401007618555">12h45m</text><text fill="gray" fill-opacity="0.5" font-family="monospace" font-size="12" x="573.2625992011291" y="75.03357006983748">12h50m</text><text fill="gray" fill-opacity="0.5" font-family="monospace" font-size="12" x="486.63345257160506" y="73.23375793695647">12h55m</text><text fill="gray" fill-opacity="0.5" font-family="monospace" font-size="12" x="400.0" y="72.6338958702741">13h00m</text><text fill="gray" fill-opacity="0.5" font-family="monospace" font-size="12" x="313.36654742839494" y="73.23375793695647">13h05m</text><text fill="gray" fill-opacity="0.5" font-family="monospace" font-size="12" x="226.73740079887088" y="75.03357006983748">13h10m</text><text fill="gray" fill-opacity="0.5" font-family="monospace" font-size="12" x="140.11688184721436" y="78.03401007618555">13h15m</text><text fill="gray" fill-opacity="0.5" font-family="monospace" font-size="12" x="53.50934392337126" y="82.23620766345118">13h20m</text><text fill="gray" fill-opacity="0.5" font-family="monospace" font-size="12" x="91.21501166528111" y="736.5871257825104">-45°</text><text fill="gray" fill-opacity="0.5" font-family="monospace" font-size="12" x="86.02315255410434" y="649.3149000676502">-44°</text><text fill="gray" fill-opacity="0.5" font-family="monospace" font-size="12" x="80.88334747514847" y="562.0747925296959">-43°</text><text fill="gray" fill-opacity="0.5" font-family="monospace" font-size="12" x="75.79476639634504" y="474.8535467108518">-42°</text><text fill="gray" fill-opacity="0.5" font-family="monospace" font-size="12" x="70.75661047360762" y="387.6379175874376">-41°</text><text fill="gray" fill-opacity="0.5" font-family="monospace" font-size="12" x="65.76811154241227" y="300.4146635359443">-40°</text><text fill="gray" fill-opacity="0.5" font-family="monospace" font-size="12" x="60.82853164903014" y="213.17053830345577">-39°</text><text fill="gray" fill-opacity="0.5" font-family="monospace" font-size="12" x="55.93716262080238" y="125.89228297210985">-38°</text><text fill="black" font-family="monospace" font-size="12" x="12" y="48">&gt;&gt; No.169 12h40m 13h20m -45.0°-37.5°</text><a target="_self" xlink:href="hip010.svg"><text fill="black" font-family="monospace" font-size="12" x="12" y="36">&gt; No.10 12h00m 15h00m -52.5°-22.5°</text></a><a target="_self" xlink:href="hip001.svg"><text fill="black" font-family="monospace" font-size="12" x="12" y="24">No.1 00h 24h -90.0°+0.0°</text></a><polyline fill="none" points="746.4907,82.2362 737.8306,81.7619 729.1704,81.2996 720.51,80.8493 711.8495,80.411 703.1888,79.9848 694.5279,79.5706 685.8669,79.1684 677.2058,78.7783 668.5445,78.4001 659.8831,78.034 651.2216,77.6799 642.5599,77.3378 633.8981,77.0078 625.2362,76.6897 616.5742,76.3837 607.9121,76.0896 599.2499,75.8076 590.5875,75.5376 581.9251,75.2796 573.2626,75.0336 564.6,74.7996 555.9373,74.5776 547.2746,74.3676 538.6117,74.1696 529.9488,73.9836 521.2859,73.8097 512.6228,73.6477 503.9598,73.4977 495.2966,73.3597 486.6335,73.2338 477.9702,73.1198 469.307,73.0178 460.6437,72.9278 451.9803,72.8498 443.317,72.7839 434.6536,72.7299 425.9902,72.6879 417.3268,72.6579 408.6634,72.6399 400.0,72.6339 391.3366,72.6399 382.6732,72.6579 374.0098,72.6879 365.3464,72.7299 356.683,72.7839 348.0197,72.8498 339.3563,72.9278 330.693,73.0178 322.0298,73.1198 313.3665,73.2338 304.7034,73.3597 296.0402,73.4977 287.3772,73.6477 278.7141,73.8097 270.0512,73.9836 261.3883,74.1696 252.7254,74.3676 244.0627,74.5776 235.4,74.7996 226.7374,75.0336 218.0749,75.2796 209.4125,75.5376 200.7501,75.8076 192.0879,76.0896 183.4258,76.3837 174.7638,76.6897 166.1019,77.0078 157.4401,77.3378 148.7784,77.6799 140.1169,78.034 131.4555,78.4001 122.7942,78.7783 114.1331,79.1684 105.4721,79.5706 96.8112,79.9848 88.1505,80.411 79.49,80.8493 70.8296,81.2996 62.1694,81.7619 53.5093,82.2362" stroke="black" stroke-opacity="0.5" stroke-width="1" /><polyline fill="none" points="708.785,736.5871 709.4368,725.6759 710.0879,714.7653 710.7381,703.8554 711.3875,692.9462 712.036,682.0375 712.6838,671.1294 713.3307,660.2219 713.9768,649.3149 714.6222,638.4084 715.2666,627.5024 715.9103,616.5968 716.5532,605.6917 717.1953,594.7869 717.8365,583.8825 718.477,572.9785 719.1167,562.0748 719.7555,551.1714 720.3936,540.2682 721.0308,529.3653 721.6673,518.4626 722.303,507.5601 722.9378,496.6578 723.5719,485.7556 724.2052,474.8535 724.8377,463.9516 725.4695,453.0496 726.1004,442.1477 726.7306,431.2459 727.3599,420.344 727.9885,409.442 728.6164,398.54 729.2434,387.6379 729.8697,376.7357 730.4951,365.8333 731.1199,354.9308 731.7438,344.0281 732.367,333.1251 732.9894,322.2219 733.611,311.3184 734.2319,300.4147 734.852,289.5106 735.4713,278.6061 736.0899,267.7013 736.7077,256.796 737.3248,245.8904 737.9411,234.9843 738.5567,224.0776 739.1715,213.1705 739.7855,202.2629 740.3988,191.3547 741.0113,180.4459 741.6231,169.5365 742.2342,158.6265 742.8445,147.7158 743.454,136.8044 744.0628,125.8923 744.6709,114.9794 745.2782,104.0658 745.8848,93.1514 746.4907,82.2362" stroke="black" stroke-opacity="0.5" stroke-width="1" /><polyline fill="none" points="708.785,736.5871 701.0692,736.1317 693.3531,735.6878 685.6367,735.2554 677.9201,734.8346 670.2031,734.4253 662.4859,734.0276 654.7685,733.6414 647.0508,733.2668 639.3329,732.9036 631.6148,732.5521 623.8964,732.212 616.1778,731.8835 608.459,731.5666 600.74,731.2611 593.0208,730.9672 585.3014,730.6849 577.5819,730.414 569.8621,730.1547 562.1423,729.907 554.4222,729.6707 546.702,729.446 538.9817,729.2328 531.2612,729.0311 523.5406,728.841 515.8199,728.6624 508.0991,728.4953 500.3781,728.3397 492.6571,728.1957 484.936,728.0632 477.2148,727.9422 469.4935,727.8328 461.7722,727.7348 454.0508,727.6484 446.3294,727.5735 438.6079,727.5101 430.8863,727.4583 423.1648,727.418 415.4432,727.3891 407.7216,727.3719 400.0,727.3661 392.2784,727.3719 384.5568,727.3891 376.8352,727.418 369.1137,727.4583 361.3921,727.5101 353.6706,727.5735 345.9492,727.6484 338.2278,727.7348 330.5065,727.8328 322.7852,727.9422 315.064,728.0632 307.3429,728.1957 299.6219,728.3397 291.9009,728.4953 284.1801,728.6624 276.4594,728.841 268.7388,729.0311 261.0183,729.2328 253.298,729.446 245.5778,729.6707 237.8577,729.907 230.1379,730.1547 222.4181,730.414 214.6986,730.6849 206.9792,730.9672 199.26,731.2611 191.541,731.5666 183.8222,731.8835 176.1036,732.212 168.3852,732.5521 160.6671,732.9036 152.9492,733.2668 145.2315,733.6414 137.5141,734.0276 129.7969,734.4253 122.0799,734.8346 114.3633,735.2554 106.6469,735.6878 98.9308,736.1317 91.215,736.5871" stroke="black" stroke-opacity="0.5" stroke-width="1" /><polyline fill="none" points="91.215,736.5871 90.5632,725.6759 89.9121,714.7653 89.2619,703.8554 88.6125,692.9462 87.964,682.0375 87.3162,671.1294 86.6693,660.2219 86.0232,649.3149 85.3778,638.4084 84.7334,627.5024 84.0897,616.5968 83.4468,605.6917 82.8047,594.7869 82.1635,583.8825 81.523,572.9785 80.8833,562.0748 80.2445,551.1714 79.6064,540.2682 78.9692,529.3653 78.3327,518.4626 77.697,507.5601 77.0622,496.6578 76.4281,485.7556 75.7948,474.8535 75.1623,463.9516 74.5305,453.0496 73.8996,442.1477 73.2694,431.2459 72.6401,420.344 72.0115,409.442 71.3836,398.54 70.7566,387.6379 70.1303,376.7357 69.5049,365.8333 68.8801,354.9308 68.2562,344.0281 67.633,333.1251 67.0106,322.2219 66.389,311.3184 65.7681,300.4147 65.148,289.5106 64.5287,278.6061 63.9101,267.7013 63.2923,256.796 62.6752,245.8904 62.0589,234.9843 61.4433,224.0776 60.8285,213.1705 60.2145,202.2629 59.6012,191.3547 58.9887,180.4459 58.3769,169.5365 57.7658,158.6265 57.1555,147.7158 56.546,136.8044 55.9372,125.8923 55.3291,114.9794 54.7218,104.0658 54.1152,93.1514 53.5093,82.2362" stroke="black" stroke-opacity="0.5" stroke-width="1" /></svg>