<?xml version="1.0" encoding="utf-8" ?>
<svg baseProfile="tiny" height="800" version="1.2" width="800" xmlns="http://www.w3.org/2000/svg" xmlns:ev="http://www.w3.org/2001/xml-events" xmlns:xlink="http://www.w3.org/1999/xlink"><defs /><rect fill="none" height="800" stroke="black" stroke-width="2" width="800" x="0" y="0" /><polyline fill="none" points="677.2272,733.0081 677.6715,722.0887 678.115,711.17 678.5579,700.2521 679.0,689.3348 679.4414,678.4181 679.8821,667.502 680.3221,656.5865 680.7613,645.6716 681.1999,634.7572 681.6377,623.8432 682.0748,612.9298 682.5112,602.0168 682.9469,591.1043 683.3819,580.1921 683.8162,569.2804 684.2498,558.3689 684.6827,547.4578 685.1148,536.547 685.5463,525.6365 685.9771,514.7262 686.4071,503.8161 686.8365,492.9063 687.2651,481.9965 687.6931,471.087 688.1204,460.1775 688.547,449.2681 688.9728,438.3588 689.398,427.4496 689.8225,416.5403 690.2463,405.6311 690.6695,394.7217 691.0919,383.8124 691.5136,372.9029 691.9347,361.9933 692.355,351.0836 692.7747,340.1737 693.1937,329.2636 693.612,318.3533 694.0296,307.4427 694.4466,296.5319 694.8629,285.6207 695.2784,274.7093 695.6934,263.7975 696.1076,252.8853 696.5211,241.9727 696.934,231.0597 697.3462,220.1462 697.7577,209.2322 698.1686,198.3178 698.5788,187.4028 698.9883,176.4872 699.3971,165.5711 699.8053,154.6543 700.2128,143.7369 700.6196,132.8189 701.0258,121.9002 701.4313,110.9807 701.8361,100.0605 702.2403,89.1395 702.6438,78.2178" stroke="silver" stroke-opacity="0.5" stroke-width="1" /><polyline fill="none" points="590.5945,730.0323 590.8998,719.1128 591.2046,708.194 591.5089,697.2759 591.8128,686.3586 592.1161,675.4418 592.419,664.5257 592.7213,653.6102 593.0232,642.6953 593.3245,631.781 593.6254,620.8671 593.9258,609.9538 594.2257,599.041 594.5251,588.1285 594.824,577.2166 595.1225,566.305 595.4204,555.3937 595.7179,544.4829 596.0149,533.5723 596.3114,522.662 596.6074,511.752 596.9029,500.8423 597.198,489.9327 597.4926,479.0234 597.7867,468.1142 598.0803,457.2051 598.3734,446.2961 598.6661,435.3873 598.9583,424.4785 599.25,413.5697 599.5412,402.6609 599.832,391.7522 600.1223,380.8433 600.4121,369.9344 600.7014,359.0254 600.9903,348.1163 601.2787,337.207 601.5666,326.2976 601.854,315.3879 602.141,304.4781 602.4275,293.568 602.7136,282.6576 602.9992,271.7468 603.2843,260.8358 603.5689,249.9244 603.8531,239.0126 604.1368,228.1005 604.4201,217.1878 604.7029,206.2748 604.9852,195.3612 605.2671,184.4471 605.5485,173.5325 605.8294,162.6173 606.1099,151.7016 606.3899,140.7852 606.6695,129.8682 606.9486,118.9505 607.2272,108.0321 607.5054,97.113 607.7831,86.1931 608.0604,75.2725" stroke="silver" stroke-opacity="0.5" stroke-width="1" /><polyline fill="none" points="503.9609,728.1592 504.1274,717.2397 504.2936,706.3208 504.4596,695.4027 504.6252,684.4853 504.7907,673.5686 504.9558,662.6525 505.1207,651.737 505.2853,640.8221 505.4496,629.9078 505.6137,618.994 505.7775,608.0807 505.941,597.1679 506.1043,586.2556 506.2673,575.3437 506.43,564.4322 506.5925,553.5211 506.7547,542.6104 506.9167,531.7 507.0784,520.7899 507.2398,509.8801 507.4009,498.9705 507.5618,488.0612 507.7225,477.152 507.8828,466.2431 508.0429,455.3343 508.2028,444.4256 508.3624,433.517 508.5217,422.6085 508.6808,411.7 508.8396,400.7916 508.9981,389.8831 509.1564,378.9746 509.3144,368.0661 509.4722,357.1575 509.6297,346.2487 509.787,335.3399 509.944,324.4308 510.1008,313.5216 510.2572,302.6122 510.4135,291.7025 510.5695,280.7926 510.7252,269.8823 510.8806,258.9718 511.0359,248.0609 511.1908,237.1496 511.3455,226.238 511.5,215.3259 511.6542,204.4134 511.8081,193.5004 511.9618,182.5869 512.1153,171.6729 512.2685,160.7583 512.4214,149.8432 512.5741,138.9274 512.7265,128.0111 512.8787,117.094 513.0307,106.1763 513.1824,95.2579 513.3338,84.3387 513.485,73.4188" stroke="silver" stroke-opacity="0.5" stroke-width="1" /><polyline fill="none" points="417.3268,727.3881 417.3546,716.4685 417.3823,705.5497 417.4099,694.6315 417.4375,683.7141 417.4651,672.7974 417.4926,661.8812 417.5201,650.9658 417.5475,640.0509 417.5749,629.1366 417.6023,618.2228 417.6296,607.3096 417.6568,596.3968 417.684,585.4845 417.7112,574.5727 417.7383,563.6612 417.7654,552.7502 417.7924,541.8395 417.8194,530.9292 417.8464,520.0192 417.8733,509.1094 417.9001,498.1999 417.9269,487.2907 417.9537,476.3816 417.9804,465.4728 418.0071,454.5641 418.0337,443.6555 418.0603,432.747 418.0869,421.8386 418.1134,410.9303 418.1399,400.022 418.1663,389.1137 418.1927,378.2053 418.219,367.2969 418.2453,356.3885 418.2715,345.4799 418.2977,334.5712 418.3239,323.6623 418.35,312.7533 418.3761,301.844 418.4021,290.9345 418.4281,280.0248 418.4541,269.1148 418.48,258.2044 418.5059,247.2937 418.5317,236.3827 418.5575,225.4713 418.5832,214.5594 418.6089,203.6471 418.6346,192.7344 418.6602,181.8211 418.6857,170.9073 418.7113,159.993 418.7368,149.0781 418.7622,138.1626 418.7876,127.2465 418.813,116.3298 418.8383,105.4123 418.8636,94.4942 418.8888,83.5753 418.914,72.6557" stroke="silver" stroke-opacity="0.5" stroke-width="1" /><polyline fill="none" points="330.6927,727.7186 330.5817,716.799 330.4709,705.8802 330.3603,694.962 330.2498,684.0446 330.1396,673.1279 330.0295,662.2118 329.9196,651.2963 329.8098,640.3814 329.7003,629.4671 329.5909,618.5533 329.4817,607.64 329.3727,596.7273 329.2638,585.815 329.1552,574.9031 329.0467,563.9917 328.9384,553.0806 328.8303,542.1699 328.7223,531.2595 328.6145,520.3495 328.5069,509.4397 328.3995,498.5302 328.2922,487.6209 328.1851,476.7118 328.0782,465.8029 327.9715,454.8942 327.8649,443.9855 327.7586,433.077 327.6524,422.1686 327.5463,411.2602 327.4405,400.3518 327.3348,389.4434 327.2292,378.535 327.1239,367.6266 327.0187,356.718 326.9137,345.8094 326.8089,334.9006 326.7042,323.9917 326.5997,313.0825 326.4954,302.1732 326.3913,291.2637 326.2873,280.3538 326.1835,269.4437 326.0798,258.5333 325.9764,247.6225 325.8731,236.7114 325.7699,225.7998 325.667,214.8879 325.5642,203.9755 325.4615,193.0626 325.3591,182.1493 325.2568,171.2354 325.1547,160.321 325.0527,149.406 324.9509,138.4904 324.8493,127.5742 324.7479,116.6573 324.6466,105.7397 324.5455,94.8215 324.4445,83.9025 324.3437,72.9827" stroke="silver" stroke-opacity="0.5" stroke-width="1" /><polyline fill="none" points="244.0589,729.1508 243.8091,718.2312 243.5597,707.3124 243.3108,696.3944 243.0622,685.477 242.8141,674.5602 242.5663,663.6441 242.319,652.7286 242.072,641.8137 241.8255,630.8994 241.5793,619.9856 241.3336,609.0723 241.0882,598.1595 240.8433,587.2471 240.5988,576.3351 240.3546,565.4236 240.1109,554.5124 239.8675,543.6016 239.6246,532.6911 239.382,521.781 239.1398,510.871 238.8981,499.9614 238.6567,489.0519 238.4157,478.1427 238.1751,467.2336 237.9349,456.3246 237.6951,445.4158 237.4557,434.5071 237.2167,423.5984 236.978,412.6898 236.7398,401.7812 236.5019,390.8725 236.2644,379.9639 236.0274,369.0551 235.7907,358.1463 235.5543,347.2374 235.3184,336.3283 235.0829,325.419 234.8477,314.5096 234.6129,303.5999 234.3786,292.69 234.1446,281.7798 233.9109,270.8694 233.6777,259.9586 233.4448,249.0474 233.2123,238.1359 232.9802,227.2239 232.7485,216.3116 232.5172,205.3988 232.2862,194.4855 232.0556,183.5717 231.8254,172.6573 231.5956,161.7424 231.3662,150.827 231.1371,139.9109 230.9084,128.9942 230.6801,118.0768 230.4521,107.1587 230.2245,96.2399 229.9973,85.3204 229.7705,74.4001" stroke="silver" stroke-opacity="0.5" stroke-width="1" /><polyline fill="none" points="157.4258,731.6853 157.0371,720.7659 156.649,709.8472 156.2616,698.9292 155.8748,688.0118 155.4887,677.0951 155.1032,666.1791 154.7183,655.2636 154.334,644.3486 153.9503,633.4342 153.5673,622.5204 153.1849,611.607 152.8031,600.6941 152.4219,589.7816 152.0414,578.8695 151.6615,567.9578 151.2822,557.0465 150.9035,546.1355 150.5254,535.2248 150.1479,524.3143 149.7711,513.4042 149.3949,502.4943 149.0193,491.5845 148.6442,480.675 148.2698,469.7656 147.8961,458.8563 147.5229,447.9471 147.1503,437.038 146.7783,426.1289 146.407,415.2199 146.0362,404.3108 145.6661,393.4018 145.2965,382.4926 144.9276,371.5834 144.5592,360.6741 144.1915,349.7646 143.8244,338.855 143.4578,327.9452 143.0919,317.0352 142.7265,306.1249 142.3618,295.2144 141.9976,284.3036 141.6341,273.3925 141.2711,262.481 140.9087,251.5692 140.5469,240.6569 140.1857,229.7443 139.8251,218.8312 139.4651,207.9176 139.1057,197.0036 138.7469,186.089 138.3886,175.1738 138.031,164.2581 137.6739,153.3418 137.3174,142.4249 136.9615,131.5073 136.6062,120.589 136.2515,109.67 135.8973,98.7503 135.5437,87.8298 135.1908,76.9086" stroke="silver" stroke-opacity="0.5" stroke-width="1" /><polyline fill="none" points="713.8748,690.8344 705.1561,690.4429 696.4374,690.0625 687.7187,689.6931 679.0,689.3348 670.2813,688.9875 661.5626,688.6512 652.8439,688.326 644.1252,688.0118 635.4064,687.7087 626.6877,687.4166 617.969,687.1355 609.2503,686.8655 600.5315,686.6065 591.8128,686.3586 583.094,686.1216 574.3753,685.8957 565.6565,685.6808 556.9378,685.477 548.219,685.2841 539.5003,685.1023 530.7815,684.9315 522.0628,684.7718 513.344,684.623 504.6252,684.4853 495.9065,684.3586 487.1877,684.2429 478.4689,684.1383 469.7502,684.0446 461.0314,683.962 452.3126,683.8904 443.5939,683.8298 434.8751,683.7802 426.1563,683.7416 417.4375,683.7141 408.7188,683.6976 400.0,683.6921 391.2812,683.6976 382.5625,683.7141 373.8437,683.7416 365.1249,683.7802 356.4061,683.8298 347.6874,683.8904 338.9686,683.962 330.2498,684.0446 321.5311,684.1383 312.8123,684.2429 304.0935,684.3586 295.3748,684.4853 286.656,684.623 277.9372,684.7718 269.2185,684.9315 260.4997,685.1023 251.781,685.2841 243.0622,685.477 234.3435,685.6808 225.6247,685.8957 216.906,686.1216 208.1872,686.3586 199.4685,686.6065 190.7497,686.8655 182.031,687.1355 173.3123,687.4166 164.5936,687.7087 155.8748,688.0118 147.1561,688.326 138.4374,688.6512 129.7187,688.9875 121.0,689.3348 112.2813,689.6931 103.5626,690.0625 94.8439,690.4429 86.1252,690.8344" stroke="silver" stroke-opacity="0.5" stroke-width="1" /><polyline fill="none" points="717.8258,603.5163 708.9971,603.1249 700.1685,602.7445 691.3398,602.3751 682.5112,602.0168 673.6826,601.6696 664.854,601.3334 656.0255,601.0082 647.1969,600.6941 638.3683,600.391 629.5398,600.0989 620.7113,599.8179 611.8827,599.5479 603.0542,599.2889 594.2257,599.041 585.3972,598.804 576.5687,598.5782 567.7402,598.3633 558.9118,598.1595 550.0833,597.9666 541.2548,597.7849 532.4264,597.6141 523.5979,597.4543 514.7695,597.3056 505.941,597.1679 497.1126,597.0412 488.2842,596.9256 479.4557,596.8209 470.6273,596.7273 461.7989,596.6447 452.9705,596.5731 444.1421,596.5125 435.3136,596.4629 426.4852,596.4243 417.6568,596.3968 408.8284,596.3803 400.0,596.3748 391.1716,596.3803 382.3432,596.3968 373.5148,596.4243 364.6864,596.4629 355.8579,596.5125 347.0295,596.5731 338.2011,596.6447 329.3727,596.7273 320.5443,596.8209 311.7158,596.9256 302.8874,597.0412 294.059,597.1679 285.2305,597.3056 276.4021,597.4543 267.5736,597.6141 258.7452,597.7849 249.9167,597.9666 241.0882,598.1595 232.2598,598.3633 223.4313,598.5782 214.6028,598.804 205.7743,599.041 196.9458,599.2889 188.1173,599.5479 179.2887,599.8179 170.4602,600.0989 161.6317,600.391 152.8031,600.6941 143.9745,601.0082 135.146,601.3334 126.3174,601.6696 117.4888,602.0168 108.6602,602.3751 99.8315,602.7445 91.0029,603.1249 82.1742,603.5163" stroke="silver" stroke-opacity="0.5" stroke-width="1" /><polyline fill="none" points="721.7257,516.2248 712.7885,515.8336 703.8513,515.4534 694.9142,515.0843 685.9771,514.7262 677.04,514.3792 668.1029,514.0431 659.1659,513.7181 650.2289,513.4042 641.2919,513.1013 632.355,512.8094 623.4181,512.5285 614.4811,512.2586 605.5443,511.9998 596.6074,511.752 587.6706,511.5152 578.7338,511.2895 569.7969,511.0748 560.8602,510.871 551.9234,510.6783 542.9866,510.4967 534.0499,510.326 525.1132,510.1663 516.1765,510.0177 507.2398,509.8801 498.3031,509.7535 489.3664,509.6379 480.4297,509.5333 471.4931,509.4397 462.5564,509.3571 453.6198,509.2856 444.6831,509.225 435.7465,509.1755 426.8099,509.1369 417.8733,509.1094 408.9366,509.0929 400.0,509.0874 391.0634,509.0929 382.1267,509.1094 373.1901,509.1369 364.2535,509.1755 355.3169,509.225 346.3802,509.2856 337.4436,509.3571 328.5069,509.4397 319.5703,509.5333 310.6336,509.6379 301.6969,509.7535 292.7602,509.8801 283.8235,510.0177 274.8868,510.1663 265.9501,510.326 257.0134,510.4967 248.0766,510.6783 239.1398,510.871 230.2031,511.0748 221.2662,511.2895 212.3294,511.5152 203.3926,511.752 194.4557,511.9998 185.5189,512.2586 176.5819,512.5285 167.645,512.8094 158.7081,513.1013 149.7711,513.4042 140.8341,513.7181 131.8971,514.0431 122.96,514.3792 114.0229,514.7262 105.0858,515.0843 96.1487,515.4534 87.2115,515.8336 78.2743,516.2248" stroke="silver" stroke-opacity="0.5" stroke-width="1" /><polyline fill="none" points="725.5752,428.9466 716.5308,428.5558 707.4865,428.1761 698.4422,427.8073 689.398,427.4496 680.3539,427.1029 671.3098,426.7672 662.2657,426.4426 653.2217,426.1289 644.1777,425.8263 635.1337,425.5347 626.0898,425.2541 617.0459,424.9846 608.0021,424.726 598.9583,424.4785 589.9145,424.242 580.8707,424.0164 571.827,423.8019 562.7833,423.5984 553.7397,423.4059 544.696,423.2244 535.6524,423.0539 526.6088,422.8944 517.5653,422.746 508.5217,422.6085 499.4782,422.482 490.4346,422.3665 481.3911,422.262 472.3476,422.1686 463.3042,422.0861 454.2607,422.0146 445.2172,421.9541 436.1738,421.9046 427.1303,421.8661 418.0869,421.8386 409.0434,421.8221 400.0,421.8167 390.9566,421.8221 381.9131,421.8386 372.8697,421.8661 363.8262,421.9046 354.7828,421.9541 345.7393,422.0146 336.6958,422.0861 327.6524,422.1686 318.6089,422.262 309.5654,422.3665 300.5218,422.482 291.4783,422.6085 282.4347,422.746 273.3912,422.8944 264.3476,423.0539 255.304,423.2244 246.2603,423.4059 237.2167,423.5984 228.173,423.8019 219.1293,424.0164 210.0855,424.242 201.0417,424.4785 191.9979,424.726 182.9541,424.9846 173.9102,425.2541 164.8663,425.5347 155.8223,425.8263 146.7783,426.1289 137.7343,426.4426 128.6902,426.7672 119.6461,427.1029 110.602,427.4496 101.5578,427.8073 92.5135,428.1761 83.4692,428.5558 74.4248,428.9466" stroke="silver" stroke-opacity="0.5" stroke-width="1" /><polyline fill="none" points="729.3748,341.6685 720.2247,341.2783 711.0746,340.8991 701.9246,340.5309 692.7747,340.1737 683.6249,339.8275 674.4751,339.4923 665.3253,339.1682 656.1756,338.855 647.026,338.5528 637.8764,338.2617 628.7269,337.9815 619.5775,337.7124 610.428,337.4542 601.2787,337.207 592.1293,336.9709 582.98,336.7457 573.8308,336.5315 564.6816,336.3283 555.5324,336.1361 546.3833,335.9549 537.2342,335.7846 528.0851,335.6254 518.936,335.4771 509.787,335.3399 500.638,335.2136 491.489,335.0983 482.3401,334.9939 473.1911,334.9006 464.0422,334.8182 454.8933,334.7469 445.7444,334.6865 436.5955,334.6371 427.4466,334.5986 418.2977,334.5712 409.1489,334.5547 400.0,334.5492 390.8511,334.5547 381.7023,334.5712 372.5534,334.5986 363.4045,334.6371 354.2556,334.6865 345.1067,334.7469 335.9578,334.8182 326.8089,334.9006 317.6599,334.9939 308.511,335.0983 299.362,335.2136 290.213,335.3399 281.064,335.4771 271.9149,335.6254 262.7658,335.7846 253.6167,335.9549 244.4676,336.1361 235.3184,336.3283 226.1692,336.5315 217.02,336.7457 207.8707,336.9709 198.7213,337.207 189.572,337.4542 180.4225,337.7124 171.2731,337.9815 162.1236,338.2617 152.974,338.5528 143.8244,338.855 134.6747,339.1682 125.5249,339.4923 116.3751,339.8275 107.2253,340.1737 98.0754,340.5309 88.9254,340.8991 79.7753,341.2783 70.6252,341.6685" stroke="silver" stroke-opacity="0.5" stroke-width="1" /><polyline fill="none" points="733.1252,254.3772 723.8706,253.9877 714.6162,253.6093 705.3619,253.2418 696.1076,252.8853 686.8534,252.5398 677.5993,252.2052 668.3452,251.8817 659.0913,251.5692 649.8374,251.2676 640.5836,250.977 631.3298,250.6974 622.0761,250.4288 612.8225,250.1711 603.5689,249.9244 594.3154,249.6887 585.0619,249.464 575.8085,249.2502 566.5552,249.0474 557.3019,248.8556 548.0486,248.6747 538.7953,248.5048 529.5422,248.3459 520.289,248.1979 511.0359,248.0609 501.7828,247.9349 492.5297,247.8198 483.2767,247.7157 474.0236,247.6225 464.7706,247.5403 455.5177,247.4691 446.2647,247.4088 437.0117,247.3595 427.7588,247.3211 418.5059,247.2937 409.2529,247.2773 400.0,247.2718 390.7471,247.2773 381.4941,247.2937 372.2412,247.3211 362.9883,247.3595 353.7353,247.4088 344.4823,247.4691 335.2294,247.5403 325.9764,247.6225 316.7233,247.7157 307.4703,247.8198 298.2172,247.9349 288.9641,248.0609 279.711,248.1979 270.4578,248.3459 261.2047,248.5048 251.9514,248.6747 242.6981,248.8556 233.4448,249.0474 224.1915,249.2502 214.9381,249.464 205.6846,249.6887 196.4311,249.9244 187.1775,250.1711 177.9239,250.4288 168.6702,250.6974 159.4164,250.977 150.1626,251.2676 140.9087,251.5692 131.6548,251.8817 122.4007,252.2052 113.1466,252.5398 103.8924,252.8853 94.6381,253.2418 85.3838,253.6093 76.1294,253.9877 66.8748,254.3772" stroke="silver" stroke-opacity="0.5" stroke-width="1" /><polyline fill="none" points="736.8268,167.0594 727.4692,166.6709 718.1118,166.2933 708.7544,165.9267 699.3971,165.5711 690.04,165.2264 680.6829,164.8927 671.3259,164.5699 661.969,164.2581 652.6122,163.9573 643.2555,163.6674 633.8989,163.3885 624.5423,163.1205 615.1858,162.8634 605.8294,162.6173 596.4731,162.3822 587.1168,162.158 577.7605,161.9447 568.4044,161.7424 559.0483,161.5511 549.6922,161.3706 540.3362,161.2012 530.9803,161.0426 521.6243,160.895 512.2685,160.7583 502.9126,160.6326 493.5568,160.5178 484.2011,160.4139 474.8453,160.321 465.4896,160.239 456.1339,160.1679 446.7782,160.1078 437.4226,160.0586 428.0669,160.0203 418.7113,159.993 409.3556,159.9766 400.0,159.9711 390.6444,159.9766 381.2887,159.993 371.9331,160.0203 362.5774,160.0586 353.2218,160.1078 343.8661,160.1679 334.5104,160.239 325.1547,160.321 315.7989,160.4139 306.4432,160.5178 297.0874,160.6326 287.7315,160.7583 278.3757,160.895 269.0197,161.0426 259.6638,161.2012 250.3078,161.3706 240.9517,161.5511 231.5956,161.7424 222.2395,161.9447 212.8832,162.158 203.5269,162.3822 194.1706,162.6173 184.8142,162.8634 175.4577,163.1205 166.1011,163.3885 156.7445,163.6674 147.3878,163.9573 138.031,164.2581 128.6741,164.5699 119.3171,164.8927 109.96,165.2264 100.6029,165.5711 91.2456,165.9267 81.8882,166.2933 72.5308,166.6709 63.1732,167.0594" stroke="silver" stroke-opacity="0.5" stroke-width="1" /><polyline fill="none" points="740.4802,79.7019 731.0209,79.3145 721.5618,78.938 712.1027,78.5724 702.6438,78.2178 693.185,77.8741 683.7263,77.5413 674.2677,77.2195 664.8092,76.9086 655.3509,76.6086 645.8926,76.3196 636.4344,76.0414 626.9763,75.7742 617.5183,75.5179 608.0604,75.2725 598.6026,75.038 589.1448,74.8145 579.6871,74.6018 570.2295,74.4001 560.7719,74.2093 551.3144,74.0294 541.857,73.8604 532.3996,73.7023 522.9423,73.5551 513.485,73.4188 504.0278,73.2934 494.5706,73.179 485.1134,73.0754 475.6563,72.9827 466.1992,72.901 456.7421,72.8301 447.2851,72.7702 437.828,72.7211 428.371,72.683 418.914,72.6557 409.457,72.6393 400.0,72.6339 390.543,72.6393 381.086,72.6557 371.629,72.683 362.172,72.7211 352.7149,72.7702 343.2579,72.8301 333.8008,72.901 324.3437,72.9827 314.8866,73.0754 305.4294,73.179 295.9722,73.2934 286.515,73.4188 277.0577,73.5551 267.6004,73.7023 258.143,73.8604 248.6856,74.0294 239.2281,74.2093 229.7705,74.4001 220.3129,74.6018 210.8552,74.8145 201.3974,75.038 191.9396,75.2725 182.4817,75.5179 173.0237,75.7742 163.5656,76.0414 154.1074,76.3196 144.6491,76.6086 135.1908,76.9086 125.7323,77.2195 116.2737,77.5413 106.815,77.8741 97.3562,78.2178 87.8973,78.5724 78.4382,78.938 68.9791,79.3145 59.5198,79.7019" stroke="silver" stroke-opacity="0.5" stroke-width="1" /><circle cx="733.2809" cy="220.9721" fill="black" r="0.738" stroke="none" /><circle cx="706.5452" cy="670.1163" fill="black" r="0.738" stroke="none" /><circle cx="726.3135" cy="145.2776" fill="black" r="0.738" stroke="none" /><circle cx="721.6076" cy="220.487" fill="black" r="0.738" stroke="none" /><circle cx="726.0445" cy="101.4307" fill="black" r="0.738" stroke="none" /><circle cx="704.2483" cy="580.1794" fill="black" r="0.738" stroke="none" /><circle cx="720.1065" cy="129.2811" fill="black" r="0.738" stroke="none" /><circle cx="697.2034" cy="614.3387" fill="black" r="0.738" stroke="none" /><circle cx="698.6123" cy="536.4818" fill="black" r="0.936" stroke="none" /><circle cx="703.9161" cy="369.4583" fill="black" r="0.738" stroke="none" /><circle cx="712.0451" cy="127.3912" fill="black" r="0.738" stroke="none" /><circle cx="699.2449" cy="365.6879" fill="black" r="1.17" stroke="none" /><circle cx="685.005" cy="610.3368" fill="black" r="0.936" stroke="none" /><circle cx="687.8507" cy="470.7435" fill="black" r="0.738" stroke="none" /><circle cx="685.6049" cy="524.1527" fill="black" r="0.738" stroke="none" /><circle cx="696.6791" cy="192.2285" fill="black" r="0.738" stroke="none" /><circle cx="677.153" cy="583.4439" fill="black" r="0.738" stroke="none" /><circle cx="688.9035" cy="267.2139" fill="black" r="0.738" stroke="none" /><circle cx="674.0607" cy="622.8441" fill="black" r="0.738" stroke="none" /><circle cx="667.7511" cy="404.7917" fill="black" r="0.738" stroke="none" /><circle cx="665.2323" cy="314.3476" fill="black" r="0.738" stroke="none" /><circle cx="660.9608" cy="219.8186" fill="black" r="0.738" stroke="none" /><circle cx="652.7158" cy="421.8304" fill="black" r="0.738" stroke="none" /><circle cx="642.8437" cy="605.9624" fill="black" r="0.738" stroke="none" /><circle cx="646.4521" cy="487.4982" fill="black" r="1.17" stroke="none" /><circle cx="656.816" cy="149.6667" fill="black" r="0.738" stroke="none" /><circle cx="630.0824" cy="679.8351" fill="black" r="0.738" stroke="none" /><circle cx="636.9197" cy="364.1778" fill="black" r="0.738" stroke="none" /><circle cx="627.4513" cy="631.8443" fill="black" r="1.17" stroke="none" /><circle cx="628.45" cy="507.2686" fill="black" r="0.936" stroke="none" /><circle cx="630.253" cy="428.7888" fill="black" r="0.738" stroke="none" /><circle cx="623.2396" cy="566.5171" fill="black" r="0.738" stroke="none" /><circle cx="617.0985" cy="681.5131" fill="black" r="0.738" stroke="none" /><circle cx="629.3994" cy="116.0584" fill="black" r="0.738" stroke="none" /><circle cx="615.5432" cy="426.8624" fill="black" r="0.738" stroke="none" /><circle cx="608.9503" cy="588.7134" fill="black" r="1.17" stroke="none" /><circle cx="604.6952" cy="729.3922" fill="black" r="0.738" stroke="none" /><circle cx="612.0212" cy="292.9522" fill="black" r="0.738" stroke="none" /><circle cx="611.6959" cy="217.7294" fill="black" r="0.738" stroke="none" /><circle cx="602.9857" cy="498.5638" fill="black" r="0.936" stroke="none" /><circle cx="607.3026" cy="209.4003" fill="black" r="0.738" stroke="none" /><circle cx="596.0504" cy="540.1244" fill="black" r="0.738" stroke="none" /><circle cx="604.8592" cy="171.243" fill="black" r="0.738" stroke="none" /><circle cx="601.6682" cy="155.3462" fill="black" r="0.936" stroke="none" /><circle cx="579.5282" cy="437.606" fill="black" r="0.738" stroke="none" /><circle cx="576.4149" cy="485.9077" fill="black" r="0.738" stroke="none" /><circle cx="582.2439" cy="78.7664" fill="black" r="0.738" stroke="none" /><circle cx="581.4055" cy="99.4619" fill="black" r="0.936" stroke="none" /><circle cx="580.8715" cy="82.6693" fill="black" r="0.738" stroke="none" /><circle cx="573.1452" cy="347.3433" fill="black" r="0.738" stroke="none" /><circle cx="558.5889" cy="677.3883" fill="black" r="0.738" stroke="none" /><circle cx="561.1211" cy="456.6532" fill="black" r="0.738" stroke="none" /><circle cx="561.5819" cy="358.0898" fill="black" r="0.738" stroke="none" /><circle cx="556.6394" cy="543.7866" fill="black" r="0.738" stroke="none" /><circle cx="557.9879" cy="424.4554" fill="black" r="0.738" stroke="none" /><circle cx="557.0758" cy="429.9364" fill="black" r="0.738" stroke="none" /><circle cx="554.0147" cy="503.1259" fill="black" r="0.738" stroke="none" /><circle cx="557.0307" cy="103.412" fill="black" r="1.476" stroke="none" /><circle cx="548.2522" cy="419.1039" fill="black" r="0.738" stroke="none" /><circle cx="546.402" cy="504.2783" fill="black" r="0.738" stroke="none" /><circle cx="546.5422" cy="257.9022" fill="black" r="0.738" stroke="none" /><circle cx="547.1901" cy="183.3353" fill="black" r="0.738" stroke="none" /><circle cx="539.2819" cy="590.3224" fill="black" r="0.738" stroke="none" /><circle cx="530.6136" cy="653.0419" fill="black" r="0.738" stroke="none" /><circle cx="532.0639" cy="505.4877" fill="black" r="0.738" stroke="none" /><circle cx="528.5153" cy="686.7237" fill="black" r="0.738" stroke="none" /><circle cx="530.2763" cy="297.0759" fill="black" r="0.738" stroke="none" /><circle cx="531.9191" cy="103.403" fill="black" r="0.738" stroke="none" /><circle cx="525.0723" cy="415.274" fill="black" r="0.738" stroke="none" /><circle cx="527.1324" cy="167.6184" fill="black" r="0.738" stroke="none" /><circle cx="512.7014" cy="710.9972" fill="black" r="0.738" stroke="none" /><circle cx="511.0997" cy="547.0416" fill="black" r="0.738" stroke="none" /><circle cx="516.3754" cy="109.4559" fill="black" r="0.738" stroke="none" /><circle cx="512.6093" cy="246.7738" fill="black" r="0.738" stroke="none" /><circle cx="513.9337" cy="106.2763" fill="black" r="0.738" stroke="none" /><circle cx="506.6649" cy="553.4349" fill="black" r="0.738" stroke="none" /><circle cx="507.6963" cy="177.8124" fill="black" r="0.738" stroke="none" /><circle cx="501.5734" cy="596.318" fill="black" r="0.738" stroke="none" /><circle cx="505.3018" cy="310.1371" fill="black" r="0.738" stroke="none" /><circle cx="499.9112" cy="433.311" fill="black" r="0.738" stroke="none" /><circle cx="495.2143" cy="410.7304" fill="black" r="0.738" stroke="none" /><circle cx="488.7569" cy="665.2214" fill="black" r="0.738" stroke="none" /><circle cx="492.9655" cy="279.4263" fill="black" r="0.738" stroke="none" /><circle cx="477.8212" cy="578.3808" fill="black" r="0.738" stroke="none" /><circle cx="476.0319" cy="708.9194" fill="black" r="0.936" stroke="none" /><circle cx="476.3436" cy="655.3794" fill="black" r="0.738" stroke="none" /><circle cx="477.8541" cy="482.8833" fill="black" r="0.738" stroke="none" /><circle cx="474.6898" cy="361.0985" fill="black" r="0.738" stroke="none" /><circle cx="470.7208" cy="522.6124" fill="black" r="0.738" stroke="none" /><circle cx="467.8937" cy="688.3934" fill="black" r="0.936" stroke="none" /><circle cx="465.3631" cy="459.1958" fill="black" r="0.738" stroke="none" /><circle cx="466.9582" cy="109.4222" fill="black" r="0.738" stroke="none" /><circle cx="463.6719" cy="471.5743" fill="black" r="0.738" stroke="none" /><circle cx="459.3137" cy="631.6358" fill="black" r="0.936" stroke="none" /><circle cx="456.7152" cy="469.6844" fill="black" r="0.738" stroke="none" /><circle cx="456.7691" cy="348.2009" fill="black" r="0.738" stroke="none" /><circle cx="454.3056" cy="615.7911" fill="black" r="0.738" stroke="none" /><circle cx="452.088" cy="648.6934" fill="black" r="0.738" stroke="none" /><circle cx="455.0983" cy="233.4119" fill="black" r="0.738" stroke="none" /><circle cx="453.9777" cy="287.8719" fill="black" r="0.936" stroke="none" /><circle cx="448.6412" cy="136.7157" fill="black" r="0.738" stroke="none" /><circle cx="448.417" cy="136.5397" fill="black" r="0.738" stroke="none" /><circle cx="444.3509" cy="696.2374" fill="black" r="0.738" stroke="none" /><circle cx="446.372" cy="191.2765" fill="black" r="0.738" stroke="none" /><circle cx="440.0166" cy="473.5889" fill="black" r="0.738" stroke="none" /><circle cx="441.0407" cy="198.5808" fill="black" r="0.738" stroke="none" /><circle cx="438.1545" cy="553.8772" fill="black" r="0.738" stroke="none" /><circle cx="440.2059" cy="157.2779" fill="black" r="0.738" stroke="none" /><circle cx="440.0978" cy="208.2666" fill="black" r="0.738" stroke="none" /><circle cx="439.475" cy="183.9053" fill="black" r="0.738" stroke="none" /><circle cx="439.1341" cy="207.5633" fill="black" r="0.738" stroke="none" /><circle cx="435.0576" cy="533.2618" fill="black" r="0.738" stroke="none" /><circle cx="432.604" cy="632.421" fill="black" r="0.738" stroke="none" /><circle cx="431.8094" cy="306.2516" fill="black" r="1.17" stroke="none" /><circle cx="427.957" cy="599.311" fill="black" r="0.738" stroke="none" /><circle cx="426.8617" cy="334.422" fill="black" r="0.738" stroke="none" /><circle cx="417.3718" cy="449.0646" fill="black" r="0.738" stroke="none" /><circle cx="417.1557" cy="386.1442" fill="black" r="0.936" stroke="none" /><circle cx="416.8587" cy="78.7663" fill="black" r="0.738" stroke="none" /><circle cx="408.8509" cy="142.5992" fill="black" r="0.738" stroke="none" /><circle cx="404.5809" cy="384.2062" fill="black" r="0.936" stroke="none" /><circle cx="404.1559" cy="363.6109" fill="black" r="0.738" stroke="none" /><circle cx="404.0719" cy="384.2059" fill="black" r="0.738" stroke="none" /><circle cx="400.1483" cy="233.3929" fill="black" r="0.738" stroke="none" /><circle cx="398.9962" cy="487.7051" fill="black" r="0.738" stroke="none" /><circle cx="397.3296" cy="631.8217" fill="black" r="0.738" stroke="none" /><circle cx="394.1427" cy="425.4842" fill="black" r="0.738" stroke="none" /><circle cx="393.2736" cy="81.1103" fill="black" r="0.738" stroke="none" /><circle cx="390.0251" cy="143.4738" fill="black" r="0.738" stroke="none" /><circle cx="379.8255" cy="629.6675" fill="black" r="0.738" stroke="none" /><circle cx="374.558" cy="276.6407" fill="black" r="0.738" stroke="none" /><circle cx="373.6503" cy="248.1018" fill="black" r="0.738" stroke="none" /><circle cx="371.6301" cy="721.8341" fill="black" r="0.738" stroke="none" /><circle cx="363.8343" cy="423.5627" fill="black" r="0.738" stroke="none" /><circle cx="364.273" cy="527.5916" fill="black" r="0.738" stroke="none" /><circle cx="362.5503" cy="632.9691" fill="black" r="0.738" stroke="none" /><circle cx="359.4175" cy="141.9981" fill="black" r="0.738" stroke="none" /><circle cx="359.1729" cy="364.3309" fill="black" r="0.738" stroke="none" /><circle cx="355.2064" cy="166.9946" fill="black" r="0.738" stroke="none" /><circle cx="354.538" cy="357.3756" fill="black" r="0.738" stroke="none" /><circle cx="346.5753" cy="356.2058" fill="black" r="0.738" stroke="none" /><circle cx="341.3424" cy="101.06" fill="black" r="0.936" stroke="none" /><circle cx="341.2906" cy="216.5894" fill="black" r="0.738" stroke="none" /><circle cx="343.6173" cy="549.0219" fill="black" r="0.936" stroke="none" /><circle cx="334.7214" cy="167.7469" fill="black" r="0.738" stroke="none" /><circle cx="336.742" cy="669.3088" fill="black" r="0.738" stroke="none" /><circle cx="328.2272" cy="466.3251" fill="black" r="0.738" stroke="none" /><circle cx="324.8354" cy="327.7629" fill="black" r="0.738" stroke="none" /><circle cx="325.4481" cy="565.9489" fill="black" r="0.738" stroke="none" /><circle cx="317.1358" cy="93.4083" fill="black" r="0.738" stroke="none" /><circle cx="314.6656" cy="152.3916" fill="black" r="0.738" stroke="none" /><circle cx="311.8469" cy="300.4941" fill="black" r="0.738" stroke="none" /><circle cx="310.5167" cy="280.8692" fill="black" r="0.738" stroke="none" /><circle cx="312.6487" cy="709.7533" fill="black" r="0.936" stroke="none" /><circle cx="305.7792" cy="380.1694" fill="black" r="0.738" stroke="none" /><circle cx="306.2297" cy="666.9469" fill="black" r="0.738" stroke="none" /><circle cx="289.9975" cy="101.592" fill="black" r="0.738" stroke="none" /><circle cx="295.7458" cy="577.3221" fill="black" r="0.936" stroke="none" /><circle cx="288.3568" cy="91.9167" fill="black" r="0.738" stroke="none" /><circle cx="291.3722" cy="573.895" fill="black" r="0.738" stroke="none" /><circle cx="288.8093" cy="679.6959" fill="black" r="0.738" stroke="none" /><circle cx="287.4076" cy="683.6498" fill="black" r="0.936" stroke="none" /><circle cx="284.7083" cy="655.5664" fill="black" r="0.738" stroke="none" /><circle cx="283.9481" cy="656.1905" fill="black" r="0.738" stroke="none" /><circle cx="279.4971" cy="617.3121" fill="black" r="0.738" stroke="none" /><circle cx="276.9031" cy="544.4433" fill="black" r="0.738" stroke="none" /><circle cx="272.9614" cy="473.446" fill="black" r="0.738" stroke="none" /><circle cx="266.0284" cy="262.0415" fill="black" r="0.738" stroke="none" /><circle cx="271.5799" cy="627.4087" fill="black" r="0.738" stroke="none" /><circle cx="265.9388" cy="333.0219" fill="black" r="0.738" stroke="none" /><circle cx="270.2623" cy="624.6381" fill="black" r="0.738" stroke="none" /><circle cx="267.5518" cy="588.8815" fill="black" r="1.476" stroke="none" /><circle cx="262.3629" cy="361.9818" fill="black" r="0.738" stroke="none" /><circle cx="259.3837" cy="225.3973" fill="black" r="0.936" stroke="none" /><circle cx="260.3185" cy="385.5027" fill="black" r="0.936" stroke="none" /><circle cx="256.1921" cy="209.212" fill="black" r="0.738" stroke="none" /><circle cx="255.7996" cy="276.4566" fill="black" r="0.738" stroke="none" /><circle cx="260.0817" cy="528.5978" fill="black" r="0.738" stroke="none" /><circle cx="259.8001" cy="625.8874" fill="black" r="1.17" stroke="none" /><circle cx="259.6926" cy="627.5491" fill="black" r="0.936" stroke="none" /><circle cx="259.2983" cy="680.9329" fill="black" r="0.738" stroke="none" /><circle cx="253.4289" cy="492.32" fill="black" r="0.738" stroke="none" /><circle cx="248.7851" cy="261.0477" fill="black" r="0.936" stroke="none" /><circle cx="253.9502" cy="553.3437" fill="black" r="0.936" stroke="none" /><circle cx="247.0595" cy="244.6647" fill="black" r="0.738" stroke="none" /><circle cx="245.8164" cy="481.5629" fill="black" r="0.738" stroke="none" /><circle cx="241.4721" cy="570.9881" fill="black" r="0.738" stroke="none" /><circle cx="230.3063" cy="111.0067" fill="black" r="0.738" stroke="none" /><circle cx="231.1083" cy="149.2598" fill="black" r="0.738" stroke="none" /><circle cx="235.7419" cy="717.8086" fill="black" r="0.738" stroke="none" /><circle cx="235.6809" cy="718.1596" fill="black" r="0.738" stroke="none" /><circle cx="216.4626" cy="125.2898" fill="black" r="0.738" stroke="none" /><circle cx="215.0545" cy="155.6421" fill="black" r="0.936" stroke="none" /><circle cx="214.3955" cy="175.6646" fill="black" r="0.738" stroke="none" /><circle cx="223.5736" cy="590.1013" fill="black" r="0.936" stroke="none" /><circle cx="211.5304" cy="90.9695" fill="black" r="0.738" stroke="none" /><circle cx="216.8023" cy="399.9725" fill="black" r="0.738" stroke="none" /><circle cx="219.4256" cy="588.3713" fill="black" r="0.738" stroke="none" /><circle cx="216.5474" cy="616.488" fill="black" r="0.738" stroke="none" /><circle cx="205.6309" cy="352.4852" fill="black" r="0.738" stroke="none" /><circle cx="204.4939" cy="499.4945" fill="black" r="0.738" stroke="none" /><circle cx="205.0744" cy="547.4312" fill="black" r="0.738" stroke="none" /><circle cx="197.7151" cy="337.9324" fill="black" r="0.738" stroke="none" /><circle cx="200.3362" cy="467.903" fill="black" r="0.738" stroke="none" /><circle cx="200.105" cy="555.6046" fill="black" r="0.738" stroke="none" /><circle cx="189.772" cy="326.0942" fill="black" r="0.738" stroke="none" /><circle cx="192.3882" cy="605.3629" fill="black" r="0.936" stroke="none" /><circle cx="173.563" cy="76.109" fill="black" r="0.936" stroke="none" /><circle cx="188.0667" cy="719.7328" fill="black" r="0.936" stroke="none" /><circle cx="181.5696" cy="551.8648" fill="black" r="1.17" stroke="none" /><circle cx="168.7539" cy="133.1568" fill="black" r="0.738" stroke="none" /><circle cx="180.1112" cy="657.3871" fill="black" r="1.476" stroke="none" /><circle cx="168.375" cy="287.9245" fill="black" r="0.738" stroke="none" /><circle cx="161.4272" cy="132.0588" fill="black" r="0.738" stroke="none" /><circle cx="161.0151" cy="133.3822" fill="black" r="0.738" stroke="none" /><circle cx="168.0937" cy="702.4547" fill="black" r="0.738" stroke="none" /><circle cx="157.6641" cy="477.3127" fill="black" r="0.936" stroke="none" /><circle cx="147.221" cy="235.8944" fill="black" r="0.738" stroke="none" /><circle cx="155.3544" cy="540.8266" fill="black" r="0.738" stroke="none" /><circle cx="161.4028" cy="724.3728" fill="black" r="0.738" stroke="none" /><circle cx="149.9565" cy="391.1607" fill="black" r="0.738" stroke="none" /><circle cx="152.9675" cy="518.9744" fill="black" r="0.738" stroke="none" /><circle cx="155.1658" cy="654.0238" fill="black" r="0.738" stroke="none" /><circle cx="148.0335" cy="462.8709" fill="black" r="0.738" stroke="none" /><circle cx="136.8158" cy="172.8653" fill="black" r="0.738" stroke="none" /><circle cx="134.542" cy="251.783" fill="black" r="0.738" stroke="none" /><circle cx="139.0041" cy="406.8248" fill="black" r="0.738" stroke="none" /><circle cx="141.0827" cy="466.0833" fill="black" r="0.738" stroke="none" /><circle cx="126.6119" cy="221.9883" fill="black" r="0.738" stroke="none" /><circle cx="116.0159" cy="128.6311" fill="black" r="0.738" stroke="none" /><circle cx="129.336" cy="504.8737" fill="black" r="0.738" stroke="none" /><circle cx="130.5557" cy="643.8265" fill="black" r="1.17" stroke="none" /><circle cx="118.6721" cy="344.4618" fill="black" r="1.17" stroke="none" /><circle cx="106.5573" cy="256.7186" fill="black" r="0.738" stroke="none" /><circle cx="114.0111" cy="638.1871" fill="black" r="0.738" stroke="none" /><circle cx="112.8625" cy="642.7822" fill="black" r="0.738" stroke="none" /><circle cx="100.419" cy="421.1221" fill="black" r="0.738" stroke="none" /><circle cx="88.3953" cy="219.2106" fill="black" r="0.738" stroke="none" /><circle cx="83.7966" cy="204.7888" fill="black" r="0.738" stroke="none" /><circle cx="83.4137" cy="204.5418" fill="black" r="0.738" stroke="none" /><circle cx="94.8505" cy="511.8356" fill="black" r="0.738" stroke="none" /><circle cx="95.2672" cy="628.0436" fill="black" r="0.738" stroke="none" /><circle cx="80.123" cy="282.505" fill="black" r="0.738" stroke="none" /><circle cx="92.909" cy="636.9818" fill="black" r="0.738" stroke="none" /><circle cx="71.5952" cy="149.2997" fill="black" r="0.738" stroke="none" /><circle cx="66.598" cy="113.7176" fill="black" r="0.738" stroke="none" /><circle cx="70.6031" cy="332.6625" fill="black" r="0.738" stroke="none" /><circle cx="13.77" cy="786.23" fill="black" r="4.59" stroke="none" /><circle cx="13.77" cy="786.23" fill="black" r="4.59" stroke="none" /><text fill="black" font-family="monospace" font-size="12" x="10.77" y="775.64">1</text><circle cx="37.77" cy="786.23" fill="black" r="3.654" stroke="none" /><circle cx="37.77" cy="786.23" fill="black" r="3.654" stroke="none" /><text fill="black" font-family="monospace" font-size="12" x="34.769999999999996" y="775.64">2</text><circle cx="61.77" cy="786.23" fill="black" r="2.916" stroke="none" /><circle cx="61.77" cy="786.23" fill="black" r="2.916" stroke="none" /><text fill="black" font-family="monospace" font-size="12" x="58.769999999999996" y="775.64">3</text><circle cx="85.77" cy="786.23" fill="black" r="2.322" stroke="none" /><circle cx="85.77" cy="786.23" fill="black" r="2.322" stroke="none" /><text fill="black" font-family="monospace" font-size="12" x="82.77" y="775.64">4</text><circle cx="109.77" cy="786.23" fill="black" r="1.854" stroke="none" /><circle cx="109.77" cy="786.23" fill="black" r="1.854" stroke="none" /><text fill="black" font-family="monospace" font-size="12" x="106.77" y="775.64">5</text><circle cx="133.77" cy="786.23" fill="black" r="1.476" stroke="none" /><circle cx="133.77" cy="786.23" fill="black" r="1.476" stroke="none" /><text fill="black" font-family="monospace" font-size="12" x="130.77" y="775.64">6</text><circle cx="157.77" cy="786.23" fill="black" r="1.17" stroke="none" /><circle cx="157.77" cy="786.23" fill="black" r="1.17" stroke="none" /><text fill="black" font-family="monospace" font-size="12" x="154.77" y="775.64">7</text><circle cx="181.77" cy="786.23" fill="black" r="0.936" stroke="none" /><circle cx="181.77" cy="786.23" fill="black" r="0.936" stroke="none" /><text fill="black" font-family="monospace" font-size="12" x="178.77" y="775.64">8</text><circle cx="205.77" cy="786.23" fill="black" r="0.738" stroke="none" /><circle cx="205.77" cy="786.23" fill="black" r="0.738" stroke="none" /><text fill="black" font-family="monospace" font-size="12" x="202.77" y="775.64">9</text><text fill="gray" fill-opacity="0.5" font-family="monospace" font-size="12" x="702.6438117677101" y="78.21779957407324">07h50m</text><text fill="gray" fill-opacity="0.5" font-family="monospace" font-size="12" x="608.0603939652624" y="75.27250574235688">07h55m</text><text fill="gray" fill-opacity="0.5" font-family="monospace" font-size="12" x="513.4850024781131" y="73.41881375617936">08h00m</text><text fill="gray" fill-opacity="0.5" font-family="monospace" font-size="12" x="418.91399640866916" y="72.65569773741748">08h05m</text><text fill="gray" fill-opacity="0.5" font-family="monospace" font-size="12" x="324.34372175152384" y="72.98273539556294">08h10m</text><text fill="gray" fill-opacity="0.5" font-family="monospace" font-size="12" x="229.77052231823947" y="74.40010770298323">08h15m</text><text fill="gray" fill-opacity="0.5" font-family="monospace" font-size="12" x="135.19075065525993" y="76.90859903409932">08h20m</text><text fill="gray" fill-opacity="0.5" font-family="monospace" font-size="12" x="86.12523979011092" y="690.8343540987717">-37°</text><text fill="gray" fill-opacity="0.5" font-family="monospace" font-size="12" x="82.1742489450931" y="603.5163037275">-36°</text><text fill="gray" fill-opacity="0.5" font-family="monospace" font-size="12" x="78.2743274386603" y="516.2248204294356">-35°</text><text fill="gray" fill-opacity="0.5" font-family="monospace" font-size="12" x="74.42484486387173" y="428.94664383073075">-34°</text><text fill="gray" fill-opacity="0.5" font-family="monospace" font-size="12" x="70.62520151171117" y="341.6685216233935">-33°</text><text fill="gray" fill-opacity="0.5" font-family="monospace" font-size="12" x="66.87482799348498" y="254.37720152816078">-32°</text><text fill="gray" fill-opacity="0.5" font-family="monospace" font-size="12" x="63.17318490240348" y="167.05942325739042">-31°</text><text fill="gray" fill-opacity="0.5" font-family="monospace" font-size="12" x="59.5197625139196" y="79.70191046764609">-30°</text><text fill="black" font-family="monospace" font-size="12" x="12" y="48">&gt;&gt; No.199 07h48m 08h24m -37.5°-30.0°</text><a target="_self" xlink:href="hip008.svg"><text fill="black" font-family="monospace" font-size="12" x="12" y="36">&gt; No.8 06h00m 09h00m -52.5°-22.5°</text></a><a target="_self" xlink:href="hip001.svg"><text fill="black" font-family="monospace" font-size="12" x="12" y="24">No.1 00h 24h -90.0°+0.0°</text></a><polyline fill="none" points="740.4802,79.7019 731.0209,79.3145 721.5618,78.938 712.1027,78.5724 702.6438,78.2178 693.185,77.8741 683.7263,77.5413 674.2677,77.2195 664.8092,76.9086 655.3509,76.6086 645.8926,76.3196 636.4344,76.0414 626.9763,75.7742 617.5183,75.5179 608.0604,75.2725 598.6026,75.038 589.1448,74.8145 579.6871,74.6018 570.2295,74.4001 560.7719,74.2093 551.3144,74.0294 541.857,73.8604 532.3996,73.7023 522.9423,73.5551 513.485,73.4188 504.0278,73.2934 494.5706,73.179 485.1134,73.0754 475.6563,72.9827 466.1992,72.901 456.7421,72.8301 447.2851,72.7702 437.828,72.7211 428.371,72.683 418.914,72.6557 409.457,72.6393 400.0,72.6339 390.543,72.6393 381.086,72.6557 371.629,72.683 362.172,72.7211 352.7149,72.7702 343.2579,72.8301 333.8008,72.901 324.3437,72.9827 314.8866,73.0754 305.4294,73.179 295.9722,73.2934 286.515,73.4188 277.0577,73.5551 267.6004,73.7023 258.143,73.8604 248.6856,74.0294 239.2281,74.2093 229.7705,74.4001 220.3129,74.6018 210.8552,74.8145 201.3974,75.038 191.9396,75.2725 182.4817,75.5179 173.0237,75.7742 163.5656,76.0414 154.1074,76.3196 144.6491,76.6086 135.1908,76.9086 125.7323,77.2195 116.2737,77.5413 106.815,77.8741 97.3562,78.2178 87.8973,78.5724 78.4382,78.938 68.9791,79.3145 59.5198,79.7019" stroke="black" stroke-opacity="0.5" stroke-width="1" /><polyline fill="none" points="711.8799,734.5075 712.3798,723.5882 712.879,712.6696 713.3773,701.7516 713.8748,690.8344 714.3714,679.9177 714.8673,669.0016 715.3624,658.0861 715.8567,647.1712 716.3501,636.2567 716.8428,625.3428 717.3347,614.4293 717.8258,603.5163 718.316,592.6037 718.8055,581.6915 719.2942,570.7796 719.7821,559.8681 720.2691,548.9569 720.7554,538.0459 721.241,527.1353 721.7257,516.2248 722.2096,505.3146 722.6927,494.4045 723.1751,483.4947 723.6567,472.5849 724.1375,461.6752 724.6175,450.7657 725.0967,439.8561 725.5752,428.9466 726.0528,418.0371 726.5297,407.1276 727.0058,396.2181 727.4812,385.3084 727.9557,374.3987 728.4295,363.4888 728.9025,352.5787 729.3748,341.6685 729.8463,330.7581 730.317,319.8474 730.7869,308.9365 731.2561,298.0253 731.7245,287.1138 732.1922,276.202 732.6591,265.2898 733.1252,254.3772 733.5905,243.4642 734.0551,232.5508 734.519,221.6368 734.9821,210.7224 735.4444,199.8075 735.9059,188.8921 736.3668,177.976 736.8268,167.0594 737.2861,156.1422 737.7447,145.2243 738.2025,134.3057 738.6595,123.3865 739.1158,112.4665 739.5714,101.5457 740.0262,90.6242 740.4802,79.7019" stroke="black" stroke-opacity="0.5" stroke-width="1" /><polyline fill="none" points="711.8799,734.5075 703.2167,734.1161 694.5536,733.7357 685.8904,733.3664 677.2272,733.0081 668.564,732.6608 659.9007,732.3246 651.2375,731.9995 642.5742,731.6853 633.911,731.3822 625.2477,731.0902 616.5844,730.8092 607.9211,730.5392 599.2578,730.2802 590.5945,730.0323 581.9311,729.7954 573.2678,729.5695 564.6045,729.3546 555.9411,729.1508 547.2778,728.958 538.6144,728.7762 529.951,728.6054 521.2877,728.4457 512.6243,728.2969 503.9609,728.1592 495.2975,728.0325 486.6341,727.9169 477.9707,727.8122 469.3073,727.7186 460.6439,727.636 451.9805,727.5644 443.3171,727.5038 434.6537,727.4542 425.9902,727.4157 417.3268,727.3881 408.6634,727.3716 400.0,727.3661 391.3366,727.3716 382.6732,727.3881 374.0098,727.4157 365.3463,727.4542 356.6829,727.5038 348.0195,727.5644 339.3561,727.636 330.6927,727.7186 322.0293,727.8122 313.3659,727.9169 304.7025,728.0325 296.0391,728.1592 287.3757,728.2969 278.7123,728.4457 270.049,728.6054 261.3856,728.7762 252.7222,728.958 244.0589,729.1508 235.3955,729.3546 226.7322,729.5695 218.0689,729.7954 209.4055,730.0323 200.7422,730.2802 192.0789,730.5392 183.4156,730.8092 174.7523,731.0902 166.089,731.3822 157.4258,731.6853 148.7625,731.9995 140.0993,732.3246 131.436,732.6608 122.7728,733.0081 114.1096,733.3664 105.4464,733.7357 96.7833,734.1161 88.1201,734.5075" stroke="black" stroke-opacity="0.5" stroke-width="1" /><polyline fill="none" points="88.1201,734.5075 87.6202,723.5882 87.121,712.6696 86.6227,701.7516 86.1252,690.8344 85.6286,679.9177 85.1327,669.0016 84.6376,658.0861 84.1433,647.1712 83.6499,636.2567 83.1572,625.3428 82.6653,614.4293 82.1742,603.5163 81.684,592.6037 81.1945,581.6915 80.7058,570.7796 80.2179,559.8681 79.7309,548.9569 79.2446,538.0459 78.759,527.1353 78.2743,516.2248 77.7904,505.3146 77.3073,494.4045 76.8249,483.4947 76.3433,472.5849 75.8625,461.6752 75.3825,450.7657 74.9033,439.8561 74.4248,428.9466 73.9472,418.0371 73.4703,407.1276 72.9942,396.2181 72.5188,385.3084 72.0443,374.3987 71.5705,363.4888 71.0975,352.5787 70.6252,341.6685 70.1537,330.7581 69.683,319.8474 69.2131,308.9365 68.7439,298.0253 68.2755,287.1138 67.8078,276.202 67.3409,265.2898 66.8748,254.3772 66.4095,243.4642 65.9449,232.5508 65.481,221.6368 65.0179,210.7224 64.5556,199.8075 64.0941,188.8921 63.6332,177.976 63.1732,167.0594 62.7139,156.1422 62.2553,145.2243 61.7975,134.3057 61.3405,123.3865 60.8842,112.4665 60.4286,101.5457 59.9738,90.6242 59.5198,79.7019" stroke="black" stroke-opacity="0.5" stroke-width="1" /></svg>