<?xml version="1.0" encoding="utf-8" ?>
<svg baseProfile="tiny" height="800" version="1.2" width="800" xmlns="http://www.w3.org/2000/svg" xmlns:ev="http://www.w3.org/2001/xml-events" xmlns:xlink="http://www.w3.org/1999/xlink"><defs /><rect fill="none" height="800" stroke="black" stroke-width="2" width="800" x="0" y="0" /><polyline fill="none" points="609.5088,722.0436 610.2856,711.584 611.0618,701.1251 611.8375,690.6668 612.6125,680.2091 613.3869,669.752 614.1607,659.2955 614.9339,648.8395 615.7066,638.384 616.4786,627.929 617.2501,617.4745 618.0209,607.0204 618.7912,596.5667 619.5609,586.1134 620.33,575.6605 621.0985,565.2079 621.8665,554.7556 622.6338,544.3036 623.4006,533.8519 624.1668,523.4004 624.9325,512.9491 625.6976,502.498 626.4621,492.0471 627.226,481.5963 627.9894,471.1456 628.7523,460.695 629.5145,450.2445 630.2762,439.794 631.0374,429.3435 631.798,418.893 632.558,408.4425 633.3175,397.9919 634.0765,387.5412 634.8349,377.0905 635.5927,366.6396 636.35,356.1885 637.1068,345.7372 637.863,335.2858 638.6187,324.8341 639.3739,314.3821 640.1285,303.9299 640.8826,293.4773 641.6361,283.0244 642.3891,272.5712 643.1416,262.1176 643.8936,251.6635 644.645,241.2091 645.396,230.7542 646.1464,220.2988 646.8962,209.8428 647.6456,199.3864 648.3944,188.9294 649.1428,178.4718 649.8906,168.0136 650.6379,157.5548 651.3847,147.0953 652.131,136.6352 652.8768,126.1743 653.6221,115.7127 654.3669,105.2503 655.1111,94.7872" stroke="silver" stroke-opacity="0.5" stroke-width="1" /><polyline fill="none" points="504.8126,716.2146 505.2011,705.7376 505.5892,695.2613 505.9771,684.7857 506.3647,674.3107 506.7519,663.8364 507.1389,653.3626 507.5256,642.8895 507.9119,632.4169 508.298,621.9449 508.6838,611.4733 509.0693,601.0023 509.4544,590.5316 509.8393,580.0615 510.2239,569.5917 510.6082,559.1223 510.9923,548.6533 511.376,538.1846 511.7594,527.7162 512.1426,517.2481 512.5254,506.7803 512.908,496.3127 513.2903,485.8453 513.6723,475.3781 514.0541,464.9111 514.4355,454.4441 514.8167,443.9773 515.1975,433.5106 515.5782,423.0439 515.9585,412.5773 516.3385,402.1107 516.7183,391.6441 517.0978,381.1774 517.477,370.7107 517.856,360.2438 518.2346,349.7769 518.6131,339.3098 518.9912,328.8426 519.369,318.3751 519.7466,307.9075 520.124,297.4396 520.501,286.9714 520.8778,276.503 521.2543,266.0342 521.6306,255.5651 522.0066,245.0957 522.3823,234.6258 522.7578,224.1556 523.133,213.6849 523.5079,203.2137 523.8826,192.7421 524.2571,182.2699 524.6312,171.7972 525.0051,161.3239 525.3788,150.8501 525.7522,140.3756 526.1253,129.9005 526.4982,119.4247 526.8709,108.9483 527.2433,98.4711 527.6154,87.9932" stroke="silver" stroke-opacity="0.5" stroke-width="1" /><polyline fill="none" points="400.0,714.2715 400.0,703.7886 400.0,693.3065 400.0,682.8251 400.0,672.3444 400.0,661.8643 400.0,651.3848 400.0,640.906 400.0,630.4277 400.0,619.95 400.0,609.4727 400.0,598.996 400.0,588.5198 400.0,578.044 400.0,567.5686 400.0,557.0937 400.0,546.6191 400.0,536.1448 400.0,525.6709 400.0,515.1973 400.0,504.7239 400.0,494.2508 400.0,483.7779 400.0,473.3053 400.0,462.8328 400.0,452.3604 400.0,441.8882 400.0,431.416 400.0,420.944 400.0,410.472 400.0,400.0 400.0,389.528 400.0,379.056 400.0,368.584 400.0,358.1118 400.0,347.6396 400.0,337.1672 400.0,326.6947 400.0,316.2221 400.0,305.7492 400.0,295.2761 400.0,284.8027 400.0,274.3291 400.0,263.8552 400.0,253.3809 400.0,242.9063 400.0,232.4314 400.0,221.956 400.0,211.4802 400.0,201.004 400.0,190.5273 400.0,180.05 400.0,169.5723 400.0,159.094 400.0,148.6152 400.0,138.1357 400.0,127.6556 400.0,117.1749 400.0,106.6935 400.0,96.2114 400.0,85.7285" stroke="silver" stroke-opacity="0.5" stroke-width="1" /><polyline fill="none" points="295.1874,716.2146 294.7989,705.7376 294.4108,695.2613 294.0229,684.7857 293.6353,674.3107 293.2481,663.8364 292.8611,653.3626 292.4744,642.8895 292.0881,632.4169 291.702,621.9449 291.3162,611.4733 290.9307,601.0023 290.5456,590.5316 290.1607,580.0615 289.7761,569.5917 289.3918,559.1223 289.0077,548.6533 288.624,538.1846 288.2406,527.7162 287.8574,517.2481 287.4746,506.7803 287.092,496.3127 286.7097,485.8453 286.3277,475.3781 285.9459,464.9111 285.5645,454.4441 285.1833,443.9773 284.8025,433.5106 284.4218,423.0439 284.0415,412.5773 283.6615,402.1107 283.2817,391.6441 282.9022,381.1774 282.523,370.7107 282.144,360.2438 281.7654,349.7769 281.3869,339.3098 281.0088,328.8426 280.631,318.3751 280.2534,307.9075 279.876,297.4396 279.499,286.9714 279.1222,276.503 278.7457,266.0342 278.3694,255.5651 277.9934,245.0957 277.6177,234.6258 277.2422,224.1556 276.867,213.6849 276.4921,203.2137 276.1174,192.7421 275.7429,182.2699 275.3688,171.7972 274.9949,161.3239 274.6212,150.8501 274.2478,140.3756 273.8747,129.9005 273.5018,119.4247 273.1291,108.9483 272.7567,98.4711 272.3846,87.9932" stroke="silver" stroke-opacity="0.5" stroke-width="1" /><polyline fill="none" points="190.4912,722.0436 189.7144,711.584 188.9382,701.1251 188.1625,690.6668 187.3875,680.2091 186.6131,669.752 185.8393,659.2955 185.0661,648.8395 184.2934,638.384 183.5214,627.929 182.7499,617.4745 181.9791,607.0204 181.2088,596.5667 180.4391,586.1134 179.67,575.6605 178.9015,565.2079 178.1335,554.7556 177.3662,544.3036 176.5994,533.8519 175.8332,523.4004 175.0675,512.9491 174.3024,502.498 173.5379,492.0471 172.774,481.5963 172.0106,471.1456 171.2477,460.695 170.4855,450.2445 169.7238,439.794 168.9626,429.3435 168.202,418.893 167.442,408.4425 166.6825,397.9919 165.9235,387.5412 165.1651,377.0905 164.4073,366.6396 163.65,356.1885 162.8932,345.7372 162.137,335.2858 161.3813,324.8341 160.6261,314.3821 159.8715,303.9299 159.1174,293.4773 158.3639,283.0244 157.6109,272.5712 156.8584,262.1176 156.1064,251.6635 155.355,241.2091 154.604,230.7542 153.8536,220.2988 153.1038,209.8428 152.3544,199.3864 151.6056,188.9294 150.8572,178.4718 150.1094,168.0136 149.3621,157.5548 148.6153,147.0953 147.869,136.6352 147.1232,126.1743 146.3779,115.7127 145.6331,105.2503 144.8889,94.7872" stroke="silver" stroke-opacity="0.5" stroke-width="1" /><polyline fill="none" points="679.3233,728.1012 677.4437,727.9153 672.2222,727.4054 666.9999,726.9052 661.7768,726.4147 656.5531,725.9339 651.3286,725.4628 646.1034,725.0014 640.8776,724.5497 635.651,724.1078 630.4238,723.6755 625.196,723.253 619.9675,722.8401 614.7385,722.437 609.5088,722.0436 604.2786,721.6599 599.0477,721.2859 593.8164,720.9216 588.5845,720.567 583.352,720.2221 578.1191,719.887 572.8857,719.5615 567.6517,719.2458 562.4174,718.9398 557.1825,718.6435 551.9473,718.3569 546.7116,718.08 541.4755,717.8128 536.239,717.5554 531.0021,717.3076 525.7649,717.0696 520.5273,716.8413 515.2894,716.6227 510.0511,716.4138 504.8126,716.2146 499.5738,716.0252 494.3346,715.8454 489.0953,715.6754 483.8557,715.5151 478.6158,715.3645 473.3757,715.2236 468.1355,715.0925 462.895,714.971 457.6544,714.8593 452.4136,714.7573 447.1726,714.665 441.9316,714.5824 436.6904,714.5095 431.4491,714.4464 426.2077,714.3929 420.9662,714.3492 415.7247,714.3152 410.4832,714.2909 405.2416,714.2763 400.0,714.2715 394.7584,714.2763 389.5168,714.2909 384.2753,714.3152 379.0338,714.3492 373.7923,714.3929 368.5509,714.4464 363.3096,714.5095 358.0684,714.5824 352.8274,714.665 347.5864,714.7573 342.3456,714.8593 337.105,714.971 331.8645,715.0925 326.6243,715.2236 321.3842,715.3645 316.1443,715.5151 310.9047,715.6754 305.6654,715.8454 300.4262,716.0252 295.1874,716.2146 289.9489,716.4138 284.7106,716.6227 279.4727,716.8413 274.2351,717.0696 268.9979,717.3076 263.761,717.5554 258.5245,717.8128 253.2884,718.08 248.0527,718.3569 242.8175,718.6435 237.5826,718.9398 232.3483,719.2458 227.1143,719.5615 221.8809,719.887 216.648,720.2221 211.4155,720.567 206.1836,720.9216 200.9523,721.2859 195.7214,721.6599 190.4912,722.0436 185.2615,722.437 180.0325,722.8401 174.804,723.253 169.5762,723.6755 164.349,724.1078 159.1224,724.5497 153.8966,725.0014 148.6714,725.4628 143.4469,725.9339 138.2232,726.4147 133.0001,726.9052 127.7778,727.4054 122.5563,727.9153 120.6767,728.1012" stroke="silver" stroke-opacity="0.5" stroke-width="1" /><polyline fill="none" points="687.5898,644.5854 685.6545,644.3951 680.2782,643.8731 674.9011,643.361 669.5232,642.8588 664.1446,642.3666 658.7653,641.8844 653.3852,641.412 648.0045,640.9496 642.6231,640.4972 637.2411,640.0547 631.8584,639.6221 626.4751,639.1995 621.0911,638.7868 615.7066,638.384 610.3214,637.9912 604.9357,637.6084 599.5495,637.2354 594.1627,636.8724 588.7753,636.5194 583.3875,636.1763 577.9991,635.8431 572.6103,635.5199 567.221,635.2066 561.8312,634.9033 556.4411,634.6099 551.0504,634.3265 545.6594,634.053 540.268,633.7894 534.8762,633.5358 529.484,633.2921 524.0915,633.0584 518.6986,632.8346 513.3054,632.6208 507.9119,632.4169 502.5181,632.223 497.1241,632.039 491.7297,631.8649 486.3352,631.7008 480.9404,631.5466 475.5453,631.4024 470.1501,631.2682 464.7547,631.1438 459.3591,631.0294 453.9633,630.925 448.5674,630.8305 443.1713,630.746 437.7752,630.6714 432.3789,630.6067 426.9826,630.552 421.5861,630.5073 416.1897,630.4725 410.7931,630.4476 405.3966,630.4327 400.0,630.4277 394.6034,630.4327 389.2069,630.4476 383.8103,630.4725 378.4139,630.5073 373.0174,630.552 367.6211,630.6067 362.2248,630.6714 356.8287,630.746 351.4326,630.8305 346.0367,630.925 340.6409,631.0294 335.2453,631.1438 329.8499,631.2682 324.4547,631.4024 319.0596,631.5466 313.6648,631.7008 308.2703,631.8649 302.8759,632.039 297.4819,632.223 292.0881,632.4169 286.6946,632.6208 281.3014,632.8346 275.9085,633.0584 270.516,633.2921 265.1238,633.5358 259.732,633.7894 254.3406,634.053 248.9496,634.3265 243.5589,634.6099 238.1688,634.9033 232.779,635.2066 227.3897,635.5199 222.0009,635.8431 216.6125,636.1763 211.2247,636.5194 205.8373,636.8724 200.4505,637.2354 195.0643,637.6084 189.6786,637.9912 184.2934,638.384 178.9089,638.7868 173.5249,639.1995 168.1416,639.6221 162.7589,640.0547 157.3769,640.4972 151.9955,640.9496 146.6148,641.412 141.2347,641.8844 135.8554,642.3666 130.4768,642.8588 125.0989,643.361 119.7218,643.8731 114.3455,644.3951 112.4102,644.5854" stroke="silver" stroke-opacity="0.5" stroke-width="1" /><polyline fill="none" points="695.8061,561.0977 693.8154,560.903 688.2851,560.3691 682.7541,559.8454 677.2223,559.3319 671.6898,558.8285 666.1566,558.3353 660.6227,557.8523 655.088,557.3794 649.5527,556.9167 644.0167,556.4641 638.4801,556.0218 632.9428,555.5895 627.4049,555.1675 621.8665,554.7556 616.3274,554.3539 610.7877,553.9624 605.2475,553.581 599.7067,553.2098 594.1654,552.8487 588.6236,552.4978 583.0813,552.1571 577.5385,551.8266 571.9952,551.5062 566.4515,551.196 560.9073,550.896 555.3627,550.6061 549.8177,550.3264 544.2723,550.0569 538.7265,549.7975 533.1803,549.5484 527.6338,549.3093 522.0869,549.0805 516.5397,548.8618 510.9923,548.6533 505.4445,548.455 499.8964,548.2668 494.3481,548.0888 488.7995,547.921 483.2506,547.7633 477.7016,547.6158 472.1523,547.4785 466.6029,547.3514 461.0533,547.2344 455.5035,547.1276 449.9536,547.031 444.4035,546.9445 438.8533,546.8683 433.303,546.8021 427.7527,546.7462 422.2022,546.7004 416.6517,546.6648 411.1012,546.6394 405.5506,546.6241 400.0,546.6191 394.4494,546.6241 388.8988,546.6394 383.3483,546.6648 377.7978,546.7004 372.2473,546.7462 366.697,546.8021 361.1467,546.8683 355.5965,546.9445 350.0464,547.031 344.4965,547.1276 338.9467,547.2344 333.3971,547.3514 327.8477,547.4785 322.2984,547.6158 316.7494,547.7633 311.2005,547.921 305.6519,548.0888 300.1036,548.2668 294.5555,548.455 289.0077,548.6533 283.4603,548.8618 277.9131,549.0805 272.3662,549.3093 266.8197,549.5484 261.2735,549.7975 255.7277,550.0569 250.1823,550.3264 244.6373,550.6061 239.0927,550.896 233.5485,551.196 228.0048,551.5062 222.4615,551.8266 216.9187,552.1571 211.3764,552.4978 205.8346,552.8487 200.2933,553.2098 194.7525,553.581 189.2123,553.9624 183.6726,554.3539 178.1335,554.7556 172.5951,555.1675 167.0572,555.5895 161.5199,556.0218 155.9833,556.4641 150.4473,556.9167 144.912,557.3794 139.3773,557.8523 133.8434,558.3353 128.3102,558.8285 122.7777,559.3319 117.2459,559.8454 111.7149,560.3691 106.1846,560.903 104.1939,561.0977" stroke="silver" stroke-opacity="0.5" stroke-width="1" /><polyline fill="none" points="703.9733,477.6252 701.9275,477.4263 696.2443,476.8809 690.5603,476.3458 684.8755,475.8211 679.19,475.3068 673.5037,474.8029 667.8168,474.3094 662.1291,473.8263 656.4408,473.3535 650.7518,472.8912 645.0622,472.4392 639.3719,471.9976 633.681,471.5664 627.9894,471.1456 622.2973,470.7352 616.6046,470.3351 610.9114,469.9455 605.2176,469.5662 599.5232,469.1974 593.8283,468.8389 588.133,468.4908 582.4371,468.1531 576.7408,467.8258 571.044,467.5088 565.3468,467.2023 559.6491,466.9062 553.951,466.6204 548.2525,466.345 542.5537,466.0801 536.8544,465.8255 531.1548,465.5813 525.4549,465.3475 519.7546,465.1241 514.0541,464.9111 508.3532,464.7084 502.652,464.5162 496.9506,464.3343 491.2489,464.1629 485.547,464.0018 479.8449,463.8511 474.1426,463.7108 468.44,463.5809 462.7373,463.4614 457.0344,463.3523 451.3314,463.2536 445.6283,463.1653 439.925,463.0873 434.2216,463.0198 428.5181,462.9626 422.8146,462.9159 417.111,462.8795 411.4074,462.8535 405.7037,462.8379 400.0,462.8328 394.2963,462.8379 388.5926,462.8535 382.889,462.8795 377.1854,462.9159 371.4819,462.9626 365.7784,463.0198 360.075,463.0873 354.3717,463.1653 348.6686,463.2536 342.9656,463.3523 337.2627,463.4614 331.56,463.5809 325.8574,463.7108 320.1551,463.8511 314.453,464.0018 308.7511,464.1629 303.0494,464.3343 297.348,464.5162 291.6468,464.7084 285.9459,464.9111 280.2454,465.1241 274.5451,465.3475 268.8452,465.5813 263.1456,465.8255 257.4463,466.0801 251.7475,466.345 246.049,466.6204 240.3509,466.9062 234.6532,467.2023 228.956,467.5088 223.2592,467.8258 217.5629,468.1531 211.867,468.4908 206.1717,468.8389 200.4768,469.1974 194.7824,469.5662 189.0886,469.9455 183.3954,470.3351 177.7027,470.7352 172.0106,471.1456 166.319,471.5664 160.6281,471.9976 154.9378,472.4392 149.2482,472.8912 143.5592,473.3535 137.8709,473.8263 132.1832,474.3094 126.4963,474.8029 120.81,475.3068 115.1245,475.8211 109.4397,476.3458 103.7557,476.8809 98.0725,477.4263 96.0267,477.6252" stroke="silver" stroke-opacity="0.5" stroke-width="1" /><polyline fill="none" points="712.0927,394.1554 709.9922,393.9524 704.1568,393.3956 698.3207,392.8494 692.4838,392.3139 686.6462,391.7889 680.8078,391.2745 674.9688,390.7707 669.129,390.2776 663.2885,389.795 657.4474,389.3231 651.6056,388.8617 645.7632,388.4109 639.9201,387.9708 634.0765,387.5412 628.2322,387.1223 622.3874,386.714 616.5419,386.3162 610.696,385.9291 604.8495,385.5526 599.0025,385.1867 593.1549,384.8314 587.3069,384.4866 581.4584,384.1525 575.6095,383.829 569.7601,383.5162 563.9102,383.2139 558.06,382.9222 552.2093,382.6411 546.3583,382.3706 540.5069,382.1108 534.6551,381.8615 528.803,381.6229 522.9506,381.3948 517.0978,381.1774 511.2447,380.9706 505.3914,380.7743 499.5378,380.5887 493.684,380.4137 487.8299,380.2493 481.9755,380.0955 476.121,379.9523 470.2663,379.8197 464.4114,379.6977 458.5563,379.5864 452.7011,379.4856 446.8458,379.3954 440.9903,379.3159 435.1348,379.2469 429.2791,379.1886 423.4234,379.1409 417.5676,379.1037 411.7117,379.0772 405.8559,379.0613 400.0,379.056 394.1441,379.0613 388.2883,379.0772 382.4324,379.1037 376.5766,379.1409 370.7209,379.1886 364.8652,379.2469 359.0097,379.3159 353.1542,379.3954 347.2989,379.4856 341.4437,379.5864 335.5886,379.6977 329.7337,379.8197 323.879,379.9523 318.0245,380.0955 312.1701,380.2493 306.316,380.4137 300.4622,380.5887 294.6086,380.7743 288.7553,380.9706 282.9022,381.1774 277.0494,381.3948 271.197,381.6229 265.3449,381.8615 259.4931,382.1108 253.6417,382.3706 247.7907,382.6411 241.94,382.9222 236.0898,383.2139 230.2399,383.5162 224.3905,383.829 218.5416,384.1525 212.6931,384.4866 206.8451,384.8314 200.9975,385.1867 195.1505,385.5526 189.304,385.9291 183.4581,386.3162 177.6126,386.714 171.7678,387.1223 165.9235,387.5412 160.0799,387.9708 154.2368,388.4109 148.3944,388.8617 142.5526,389.3231 136.7115,389.795 130.871,390.2776 125.0312,390.7707 119.1922,391.2745 113.3538,391.7889 107.5162,392.3139 101.6793,392.8494 95.8432,393.3956 90.0078,393.9524 87.9073,394.1554" stroke="silver" stroke-opacity="0.5" stroke-width="1" /><polyline fill="none" points="720.1656,310.6756 718.0106,310.4686 712.024,309.9007 706.0367,309.3436 700.0485,308.7974 694.0596,308.262 688.07,307.7374 682.0797,307.2236 676.0886,306.7206 670.0969,306.2285 664.1045,305.7471 658.1114,305.2766 652.1177,304.8169 646.1234,304.368 640.1285,303.9299 634.1329,303.5026 628.1368,303.0862 622.1401,302.6805 616.1429,302.2857 610.1451,301.9017 604.1468,301.5285 598.148,301.1661 592.1487,300.8146 586.1489,300.4738 580.1486,300.1439 574.1479,299.8248 568.1468,299.5165 562.1452,299.219 556.1433,298.9324 550.141,298.6565 544.1382,298.3915 538.1352,298.1373 532.1318,297.8939 526.128,297.6613 520.124,297.4396 514.1196,297.2286 508.115,297.0285 502.1101,296.8392 496.1049,296.6607 490.0995,296.4931 484.0939,296.3362 478.088,296.1902 472.082,296.055 466.0758,295.9306 460.0694,295.817 454.0629,295.7142 448.0563,295.6223 442.0495,295.5411 436.0426,295.4708 430.0357,295.4113 424.0286,295.3626 418.0215,295.3248 412.0144,295.2977 406.0072,295.2815 400.0,295.2761 393.9928,295.2815 387.9856,295.2977 381.9785,295.3248 375.9714,295.3626 369.9643,295.4113 363.9574,295.4708 357.9505,295.5411 351.9437,295.6223 345.9371,295.7142 339.9306,295.817 333.9242,295.9306 327.918,296.055 321.912,296.1902 315.9061,296.3362 309.9005,296.4931 303.8951,296.6607 297.8899,296.8392 291.885,297.0285 285.8804,297.2286 279.876,297.4396 273.872,297.6613 267.8682,297.8939 261.8648,298.1373 255.8618,298.3915 249.859,298.6565 243.8567,298.9324 237.8548,299.219 231.8532,299.5165 225.8521,299.8248 219.8514,300.1439 213.8511,300.4738 207.8513,300.8146 201.852,301.1661 195.8532,301.5285 189.8549,301.9017 183.8571,302.2857 177.8599,302.6805 171.8632,303.0862 165.8671,303.5026 159.8715,303.9299 153.8766,304.368 147.8823,304.8169 141.8886,305.2766 135.8955,305.7471 129.9031,306.2285 123.9114,306.7206 117.9203,307.2236 111.93,307.7374 105.9404,308.262 99.9515,308.7974 93.9633,309.3436 87.976,309.9007 81.9894,310.4686 79.8344,310.6756" stroke="silver" stroke-opacity="0.5" stroke-width="1" /><polyline fill="none" points="728.1932,227.1731 725.9841,226.9621 719.8471,226.3834 713.7093,225.8157 707.5707,225.2591 701.4314,224.7134 695.2913,224.1788 689.1506,223.6552 683.0091,223.1427 676.8669,222.6411 670.7241,222.1506 664.5806,221.6711 658.4365,221.2026 652.2917,220.7452 646.1464,220.2988 640.0004,219.8633 633.8538,219.439 627.7067,219.0256 621.559,218.6232 615.4108,218.2319 609.262,217.8516 603.1128,217.4824 596.963,217.1241 590.8128,216.7769 584.6621,216.4407 578.511,216.1155 572.3594,215.8013 566.2074,215.4982 560.055,215.2061 553.9022,214.925 547.7491,214.6549 541.5956,214.3959 535.4417,214.1478 529.2875,213.9108 523.133,213.6849 516.9782,213.4699 510.8231,213.266 504.6677,213.0731 498.5121,212.8912 492.3563,212.7203 486.2002,212.5605 480.0439,212.4117 473.8875,212.2739 467.7308,212.1471 461.574,212.0314 455.417,211.9267 449.2599,211.833 443.1027,211.7503 436.9453,211.6786 430.7879,211.618 424.6304,211.5684 418.4729,211.5298 412.3153,211.5023 406.1576,211.4857 400.0,211.4802 393.8424,211.4857 387.6847,211.5023 381.5271,211.5298 375.3696,211.5684 369.2121,211.618 363.0547,211.6786 356.8973,211.7503 350.7401,211.833 344.583,211.9267 338.426,212.0314 332.2692,212.1471 326.1125,212.2739 319.9561,212.4117 313.7998,212.5605 307.6437,212.7203 301.4879,212.8912 295.3323,213.0731 289.1769,213.266 283.0218,213.4699 276.867,213.6849 270.7125,213.9108 264.5583,214.1478 258.4044,214.3959 252.2509,214.6549 246.0978,214.925 239.945,215.2061 233.7926,215.4982 227.6406,215.8013 221.489,216.1155 215.3379,216.4407 209.1872,216.7769 203.037,217.1241 196.8872,217.4824 190.738,217.8516 184.5892,218.2319 178.441,218.6232 172.2933,219.0256 166.1462,219.439 159.9996,219.8633 153.8536,220.2988 147.7083,220.7452 141.5635,221.2026 135.4194,221.6711 129.2759,222.1506 123.1331,222.6411 116.9909,223.1427 110.8494,223.6552 104.7087,224.1788 98.5686,224.7134 92.4293,225.2591 86.2907,225.8157 80.1529,226.3834 74.0159,226.9621 71.8068,227.1731" stroke="silver" stroke-opacity="0.5" stroke-width="1" /><polyline fill="none" points="736.1767,143.6352 733.9137,143.4203 727.627,142.8311 721.3396,142.253 715.0515,141.6862 708.7625,141.1306 702.4729,140.5862 696.1825,140.053 689.8914,139.5311 683.5997,139.0204 677.3072,138.5209 671.0141,138.0326 664.7204,137.5556 658.426,137.0897 652.131,136.6352 645.8354,136.1918 639.5392,135.7596 633.2425,135.3387 626.9452,134.929 620.6474,134.5306 614.349,134.1433 608.0501,133.7673 601.7508,133.4025 595.4509,133.0489 589.1506,132.7066 582.8499,132.3755 576.5487,132.0556 570.2471,131.7469 563.9451,131.4495 557.6427,131.1632 551.3399,130.8882 545.0368,130.6245 538.7333,130.3719 532.4295,130.1306 526.1253,129.9005 519.8209,129.6816 513.5162,129.474 507.2112,129.2775 500.906,129.0923 494.6006,128.9184 488.2949,128.7556 481.989,128.6041 475.6829,128.4638 469.3766,128.3347 463.0702,128.2168 456.7636,128.1102 450.4568,128.0148 444.15,127.9306 437.843,127.8576 431.536,127.7959 425.2289,127.7454 418.9217,127.7061 412.6145,127.6781 406.3073,127.6612 400.0,127.6556 393.6927,127.6612 387.3855,127.6781 381.0783,127.7061 374.7711,127.7454 368.464,127.7959 362.157,127.8576 355.85,127.9306 349.5432,128.0148 343.2364,128.1102 336.9298,128.2168 330.6234,128.3347 324.3171,128.4638 318.011,128.6041 311.7051,128.7556 305.3994,128.9184 299.094,129.0923 292.7888,129.2775 286.4838,129.474 280.1791,129.6816 273.8747,129.9005 267.5705,130.1306 261.2667,130.3719 254.9632,130.6245 248.6601,130.8882 242.3573,131.1632 236.0549,131.4495 229.7529,131.7469 223.4513,132.0556 217.1501,132.3755 210.8494,132.7066 204.5491,133.0489 198.2492,133.4025 191.9499,133.7673 185.651,134.1433 179.3526,134.5306 173.0548,134.929 166.7575,135.3387 160.4608,135.7596 154.1646,136.1918 147.869,136.6352 141.574,137.0897 135.2796,137.5556 128.9859,138.0326 122.6928,138.5209 116.4003,139.0204 110.1086,139.5311 103.8175,140.053 97.5271,140.5862 91.2375,141.1306 84.9485,141.6862 78.6604,142.253 72.373,142.8311 66.0863,143.4203 63.8233,143.6352" stroke="silver" stroke-opacity="0.5" stroke-width="1" /><line fill="none" stroke="green" stroke-opacity="0.5" stroke-width="1.5" x1="497.5758" x2="431.1598" y1="629.2809" y2="653.6716" /><circle cx="715.7698" cy="319.2698" fill="black" r="0.738" stroke="none" /><circle cx="735.4779" cy="105.7087" fill="black" r="0.738" stroke="none" /><circle cx="730.5801" cy="110.9857" fill="black" r="0.738" stroke="none" /><circle cx="677.7487" cy="659.3924" fill="black" r="0.738" stroke="none" /><circle cx="676.4778" cy="579.4778" fill="black" r="0.936" stroke="none" /><circle cx="702.2206" cy="283.6466" fill="black" r="0.738" stroke="none" /><circle cx="669.9538" cy="616.8669" fill="black" r="0.738" stroke="none" /><circle cx="697.9554" cy="305.7462" fill="black" r="1.17" stroke="none" /><circle cx="699.8248" cy="265.1592" fill="black" r="0.738" stroke="none" /><circle cx="657.0132" cy="677.526" fill="black" r="0.738" stroke="none" /><circle cx="682.0185" cy="351.6544" fill="black" r="0.738" stroke="none" /><circle cx="678.5634" cy="387.2925" fill="black" r="0.738" stroke="none" /><circle cx="700.396" cy="117.1627" fill="black" r="1.476" stroke="none" /><circle cx="691.6391" cy="207.1132" fill="black" r="0.738" stroke="none" /><circle cx="691.8013" cy="206.9585" fill="black" r="0.738" stroke="none" /><circle cx="646.6757" cy="660.1165" fill="black" r="1.476" stroke="none" /><circle cx="689.2926" cy="114.4751" fill="black" r="0.738" stroke="none" /><circle cx="660.9345" cy="453.4503" fill="black" r="0.738" stroke="none" /><circle cx="688.0584" cy="119.006" fill="black" r="0.738" stroke="none" /><circle cx="641.4101" cy="587.0449" fill="black" r="0.738" stroke="none" /><circle cx="646.7793" cy="500.833" fill="black" r="0.738" stroke="none" /><circle cx="632.6674" cy="656.0113" fill="black" r="0.738" stroke="none" /><circle cx="626.1447" cy="701.2742" fill="black" r="0.738" stroke="none" /><circle cx="655.3056" cy="274.2831" fill="black" r="0.738" stroke="none" /><circle cx="662.2193" cy="166.2248" fill="black" r="0.738" stroke="none" /><circle cx="646.3067" cy="356.3365" fill="black" r="0.738" stroke="none" /><circle cx="621.5903" cy="645.8903" fill="black" r="1.17" stroke="none" /><circle cx="623.0772" cy="617.1532" fill="black" r="0.738" stroke="none" /><circle cx="618.3525" cy="678.2844" fill="black" r="0.738" stroke="none" /><circle cx="645.8868" cy="305.6115" fill="black" r="0.738" stroke="none" /><circle cx="619.6698" cy="642.128" fill="black" r="0.738" stroke="none" /><circle cx="647.9003" cy="240.3515" fill="black" r="0.738" stroke="none" /><circle cx="635.0343" cy="363.2373" fill="black" r="0.738" stroke="none" /><circle cx="616.1467" cy="610.4984" fill="black" r="0.738" stroke="none" /><circle cx="623.2716" cy="495.9337" fill="black" r="0.738" stroke="none" /><circle cx="622.0682" cy="509.4627" fill="black" r="0.738" stroke="none" /><circle cx="633.1013" cy="352.5091" fill="black" r="0.738" stroke="none" /><circle cx="603.9658" cy="716.085" fill="black" r="0.738" stroke="none" /><circle cx="620.7915" cy="479.7041" fill="black" r="0.738" stroke="none" /><circle cx="635.5895" cy="249.984" fill="black" r="0.738" stroke="none" /><circle cx="612.871" cy="547.1327" fill="black" r="0.738" stroke="none" /><circle cx="617.5777" cy="466.8737" fill="black" r="0.738" stroke="none" /><circle cx="618.369" cy="356.952" fill="black" r="0.738" stroke="none" /><circle cx="611.1373" cy="424.5973" fill="black" r="0.738" stroke="none" /><circle cx="611.0415" cy="304.4782" fill="black" r="0.738" stroke="none" /><circle cx="603.4745" cy="352.6299" fill="black" r="0.738" stroke="none" /><circle cx="586.8275" cy="585.4806" fill="black" r="0.738" stroke="none" /><circle cx="610.4605" cy="180.1212" fill="black" r="0.936" stroke="none" /><circle cx="585.5552" cy="532.7401" fill="black" r="0.738" stroke="none" /><circle cx="599.2548" cy="223.555" fill="black" r="0.738" stroke="none" /><circle cx="603.6979" cy="125.0282" fill="black" r="0.738" stroke="none" /><circle cx="599.2932" cy="176.4401" fill="black" r="0.738" stroke="none" /><circle cx="600.592" cy="119.8943" fill="black" r="0.738" stroke="none" /><circle cx="567.8852" cy="648.4317" fill="black" r="0.738" stroke="none" /><circle cx="572.339" cy="541.5348" fill="black" r="0.738" stroke="none" /><circle cx="579.5188" cy="412.8342" fill="black" r="0.738" stroke="none" /><circle cx="579.2963" cy="412.6538" fill="black" r="0.738" stroke="none" /><circle cx="584.8041" cy="286.464" fill="black" r="0.738" stroke="none" /><circle cx="569.3549" cy="539.0163" fill="black" r="0.936" stroke="none" /><circle cx="573.6106" cy="444.9881" fill="black" r="0.738" stroke="none" /><circle cx="573.6608" cy="374.6598" fill="black" r="0.738" stroke="none" /><circle cx="572.0879" cy="340.0843" fill="black" r="0.738" stroke="none" /><circle cx="578.038" cy="115.4183" fill="black" r="0.738" stroke="none" /><circle cx="567.2047" cy="291.4131" fill="black" r="0.738" stroke="none" /><circle cx="547.4892" cy="639.7696" fill="black" r="0.738" stroke="none" /><circle cx="546.1716" cy="651.3731" fill="black" r="0.738" stroke="none" /><circle cx="558.071" cy="366.3108" fill="black" r="0.936" stroke="none" /><circle cx="540.8206" cy="604.9428" fill="black" r="0.738" stroke="none" /><circle cx="542.8968" cy="505.0207" fill="black" r="0.936" stroke="none" /><circle cx="535.3703" cy="646.1489" fill="black" r="0.738" stroke="none" /><circle cx="537.7545" cy="585.3296" fill="black" r="0.738" stroke="none" /><circle cx="532.4021" cy="648.95" fill="black" r="0.738" stroke="none" /><circle cx="544.1547" cy="325.5696" fill="black" r="0.738" stroke="none" /><circle cx="531.6842" cy="560.389" fill="black" r="0.738" stroke="none" /><circle cx="535.7966" cy="451.1853" fill="black" r="0.738" stroke="none" /><circle cx="532.3439" cy="512.2661" fill="black" r="0.738" stroke="none" /><circle cx="538.2685" cy="245.299" fill="black" r="0.738" stroke="none" /><circle cx="524.0767" cy="576.1724" fill="black" r="0.738" stroke="none" /><circle cx="536.259" cy="262.4132" fill="black" r="0.738" stroke="none" /><circle cx="538.126" cy="180.1084" fill="black" r="0.936" stroke="none" /><circle cx="515.9956" cy="679.4669" fill="black" r="0.738" stroke="none" /><circle cx="525.301" cy="248.4864" fill="black" r="0.738" stroke="none" /><circle cx="524.7279" cy="100.4807" fill="black" r="0.738" stroke="none" /><circle cx="507.0745" cy="568.8068" fill="black" r="0.738" stroke="none" /><circle cx="517.4075" cy="203.7556" fill="black" r="0.738" stroke="none" /><circle cx="516.7542" cy="204.0689" fill="black" r="0.738" stroke="none" /><circle cx="517.1714" cy="133.4524" fill="black" r="0.738" stroke="none" /><circle cx="495.0535" cy="713.184" fill="black" r="0.738" stroke="none" /><circle cx="497.5614" cy="629.2855" fill="black" r="1.854" stroke="none" /><circle cx="497.4386" cy="576.0257" fill="black" r="0.738" stroke="none" /><circle cx="506.0121" cy="299.6438" fill="black" r="0.738" stroke="none" /><circle cx="494.9378" cy="516.164" fill="black" r="0.738" stroke="none" /><circle cx="493.9429" cy="545.3932" fill="black" r="0.936" stroke="none" /><circle cx="502.9498" cy="216.1238" fill="black" r="0.936" stroke="none" /><circle cx="496.9826" cy="348.2392" fill="black" r="0.738" stroke="none" /><circle cx="488.4044" cy="614.57" fill="black" r="0.738" stroke="none" /><circle cx="497.9133" cy="209.6878" fill="black" r="0.738" stroke="none" /><circle cx="475.4164" cy="666.1194" fill="black" r="1.17" stroke="none" /><circle cx="485.4442" cy="171.0371" fill="black" r="0.738" stroke="none" /><circle cx="482.3416" cy="211.1245" fill="black" r="0.738" stroke="none" /><circle cx="468.7419" cy="387.5803" fill="black" r="0.738" stroke="none" /><circle cx="467.4963" cy="343.7269" fill="black" r="1.17" stroke="none" /><circle cx="468.8687" cy="267.4915" fill="black" r="0.738" stroke="none" /><circle cx="457.9626" cy="712.0974" fill="black" r="0.738" stroke="none" /><circle cx="465.1863" cy="182.3376" fill="black" r="0.738" stroke="none" /><circle cx="461.5589" cy="349.5596" fill="black" r="0.738" stroke="none" /><circle cx="460.94" cy="155.0123" fill="black" r="0.738" stroke="none" /><circle cx="451.7007" cy="579.5805" fill="black" r="0.936" stroke="none" /><circle cx="452.0653" cy="401.3443" fill="black" r="0.738" stroke="none" /><circle cx="453.3877" cy="292.8541" fill="black" r="0.738" stroke="none" /><circle cx="449.6377" cy="511.6603" fill="black" r="0.936" stroke="none" /><circle cx="452.9719" cy="168.5489" fill="black" r="0.738" stroke="none" /><circle cx="451.0614" cy="255.7771" fill="black" r="0.738" stroke="none" /><circle cx="445.3229" cy="465.3394" fill="black" r="0.738" stroke="none" /><circle cx="447.1448" cy="342.3654" fill="black" r="0.738" stroke="none" /><circle cx="443.6659" cy="564.1145" fill="black" r="0.738" stroke="none" /><circle cx="442.7184" cy="508.4558" fill="black" r="1.476" stroke="none" /><circle cx="440.9061" cy="572.2054" fill="black" r="0.738" stroke="none" /><circle cx="442.1213" cy="349.7541" fill="black" r="0.738" stroke="none" /><circle cx="442.6513" cy="270.8287" fill="black" r="0.738" stroke="none" /><circle cx="441.1814" cy="207.6197" fill="black" r="0.738" stroke="none" /><circle cx="440.3767" cy="266.6945" fill="black" r="0.738" stroke="none" /><circle cx="437.6197" cy="442.1124" fill="black" r="0.738" stroke="none" /><circle cx="431.1387" cy="653.6478" fill="black" r="2.322" stroke="none" /><circle cx="434.6482" cy="134.6165" fill="black" r="0.738" stroke="none" /><circle cx="434.2421" cy="134.948" fill="black" r="0.738" stroke="none" /><circle cx="428.3656" cy="607.9326" fill="black" r="0.738" stroke="none" /><circle cx="427.9342" cy="253.0771" fill="black" r="0.936" stroke="none" /><circle cx="420.6906" cy="527.333" fill="black" r="0.738" stroke="none" /><circle cx="420.1786" cy="543.8372" fill="black" r="0.738" stroke="none" /><circle cx="420.1022" cy="555.317" fill="black" r="0.738" stroke="none" /><circle cx="417.415" cy="684.6389" fill="black" r="0.738" stroke="none" /><circle cx="417.9371" cy="485.7568" fill="black" r="0.936" stroke="none" /><circle cx="417.6245" cy="476.9577" fill="black" r="0.738" stroke="none" /><circle cx="415.0671" cy="178.993" fill="black" r="0.738" stroke="none" /><circle cx="414.7599" cy="121.3979" fill="black" r="0.738" stroke="none" /><circle cx="409.7909" cy="409.733" fill="black" r="0.936" stroke="none" /><circle cx="409.4519" cy="213.756" fill="black" r="0.738" stroke="none" /><circle cx="407.2245" cy="624.4852" fill="black" r="0.738" stroke="none" /><circle cx="405.5006" cy="310.9483" fill="black" r="0.936" stroke="none" /><circle cx="402.8103" cy="670.5012" fill="black" r="0.738" stroke="none" /><circle cx="398.8062" cy="316.4736" fill="black" r="0.738" stroke="none" /><circle cx="398.7024" cy="624.8957" fill="black" r="0.738" stroke="none" /><circle cx="394.1344" cy="89.1718" fill="black" r="0.738" stroke="none" /><circle cx="393.3388" cy="419.6105" fill="black" r="0.738" stroke="none" /><circle cx="389.4081" cy="363.3233" fill="black" r="0.738" stroke="none" /><circle cx="386.9548" cy="485.7323" fill="black" r="0.738" stroke="none" /><circle cx="380.9237" cy="454.8479" fill="black" r="0.738" stroke="none" /><circle cx="378.2275" cy="338.4961" fill="black" r="1.17" stroke="none" /><circle cx="375.4049" cy="257.1573" fill="black" r="0.738" stroke="none" /><circle cx="374.6328" cy="296.2942" fill="black" r="2.322" stroke="none" /><circle cx="373.4104" cy="375.8142" fill="black" r="0.738" stroke="none" /><circle cx="371.7529" cy="250.5657" fill="black" r="0.738" stroke="none" /><circle cx="374.4658" cy="608.3258" fill="black" r="0.738" stroke="none" /><circle cx="369.362" cy="189.573" fill="black" r="0.738" stroke="none" /><circle cx="367.3899" cy="164.1918" fill="black" r="0.738" stroke="none" /><circle cx="367.4586" cy="677.3079" fill="black" r="0.738" stroke="none" /><circle cx="361.6155" cy="179.5074" fill="black" r="0.738" stroke="none" /><circle cx="361.6558" cy="196.6068" fill="black" r="0.738" stroke="none" /><circle cx="360.5878" cy="118.3156" fill="black" r="0.738" stroke="none" /><circle cx="358.1755" cy="106.7707" fill="black" r="0.738" stroke="none" /><circle cx="358.1455" cy="482.468" fill="black" r="0.738" stroke="none" /><circle cx="353.0764" cy="150.7726" fill="black" r="0.738" stroke="none" /><circle cx="352.6855" cy="360.0473" fill="black" r="0.738" stroke="none" /><circle cx="349.2585" cy="604.7951" fill="black" r="0.738" stroke="none" /><circle cx="338.2932" cy="162.6556" fill="black" r="0.738" stroke="none" /><circle cx="335.2273" cy="250.9829" fill="black" r="0.738" stroke="none" /><circle cx="338.4133" cy="493.7747" fill="black" r="0.738" stroke="none" /><circle cx="334.3606" cy="291.2288" fill="black" r="0.738" stroke="none" /><circle cx="332.8789" cy="296.5381" fill="black" r="0.738" stroke="none" /><circle cx="329.7334" cy="149.4847" fill="black" r="0.738" stroke="none" /><circle cx="331.3496" cy="320.1186" fill="black" r="0.738" stroke="none" /><circle cx="330.0827" cy="387.2704" fill="black" r="0.738" stroke="none" /><circle cx="331.9423" cy="485.1943" fill="black" r="0.738" stroke="none" /><circle cx="335.9097" cy="693.5233" fill="black" r="0.738" stroke="none" /><circle cx="321.2467" cy="160.3143" fill="black" r="1.17" stroke="none" /><circle cx="322.0987" cy="285.6251" fill="black" r="0.738" stroke="none" /><circle cx="322.6759" cy="384.5064" fill="black" r="0.738" stroke="none" /><circle cx="321.4538" cy="376.5743" fill="black" r="0.738" stroke="none" /><circle cx="321.1725" cy="374.6535" fill="black" r="0.738" stroke="none" /><circle cx="328.0012" cy="679.8714" fill="black" r="0.936" stroke="none" /><circle cx="315.907" cy="242.0181" fill="black" r="0.738" stroke="none" /><circle cx="309.3975" cy="210.0745" fill="black" r="0.738" stroke="none" /><circle cx="316.6583" cy="555.7302" fill="black" r="0.738" stroke="none" /><circle cx="312.9616" cy="464.5458" fill="black" r="0.738" stroke="none" /><circle cx="305.2286" cy="324.7041" fill="black" r="0.738" stroke="none" /><circle cx="300.878" cy="172.4052" fill="black" r="0.936" stroke="none" /><circle cx="312.9916" cy="595.4929" fill="black" r="0.738" stroke="none" /><circle cx="298.4365" cy="206.3555" fill="black" r="0.738" stroke="none" /><circle cx="308.9222" cy="644.4259" fill="black" r="0.738" stroke="none" /><circle cx="306.5273" cy="576.1508" fill="black" r="0.738" stroke="none" /><circle cx="309.3836" cy="672.7647" fill="black" r="0.738" stroke="none" /><circle cx="299.9722" cy="526.6385" fill="black" r="0.738" stroke="none" /><circle cx="287.8066" cy="280.0587" fill="black" r="0.738" stroke="none" /><circle cx="298.8862" cy="651.4685" fill="black" r="0.738" stroke="none" /><circle cx="290.5368" cy="425.9295" fill="black" r="0.738" stroke="none" /><circle cx="294.1962" cy="573.542" fill="black" r="0.738" stroke="none" /><circle cx="283.4907" cy="274.0846" fill="black" r="0.738" stroke="none" /><circle cx="277.1874" cy="292.3385" fill="black" r="0.738" stroke="none" /><circle cx="270.7268" cy="134.9648" fill="black" r="0.738" stroke="none" /><circle cx="285.815" cy="579.1339" fill="black" r="1.17" stroke="none" /><circle cx="273.5452" cy="339.1833" fill="black" r="0.738" stroke="none" /><circle cx="270.6448" cy="351.1204" fill="black" r="0.738" stroke="none" /><circle cx="267.1495" cy="345.4741" fill="black" r="0.738" stroke="none" /><circle cx="272.108" cy="468.2976" fill="black" r="1.854" stroke="none" /><circle cx="268.8775" cy="417.6089" fill="black" r="0.738" stroke="none" /><circle cx="259.337" cy="197.3263" fill="black" r="0.738" stroke="none" /><circle cx="264.3367" cy="464.851" fill="black" r="0.738" stroke="none" /><circle cx="249.7079" cy="176.3328" fill="black" r="0.738" stroke="none" /><circle cx="264.8543" cy="523.2095" fill="black" r="0.738" stroke="none" /><circle cx="256.937" cy="382.6424" fill="black" r="0.738" stroke="none" /><circle cx="259.0406" cy="477.0805" fill="black" r="0.738" stroke="none" /><circle cx="247.4989" cy="236.3429" fill="black" r="0.738" stroke="none" /><circle cx="259.2715" cy="523.713" fill="black" r="0.738" stroke="none" /><circle cx="241.836" cy="162.1609" fill="black" r="0.738" stroke="none" /><circle cx="247.0036" cy="284.6081" fill="black" r="0.738" stroke="none" /><circle cx="254.5763" cy="474.0979" fill="black" r="0.738" stroke="none" /><circle cx="243.9229" cy="265.0331" fill="black" r="0.738" stroke="none" /><circle cx="231.903" cy="117.3702" fill="black" r="0.738" stroke="none" /><circle cx="252.3825" cy="547.1134" fill="black" r="0.936" stroke="none" /><circle cx="251.6527" cy="582.6483" fill="black" r="0.738" stroke="none" /><circle cx="229.79" cy="160.6269" fill="black" r="0.738" stroke="none" /><circle cx="245.1898" cy="653.8363" fill="black" r="1.476" stroke="none" /><circle cx="238.9141" cy="600.0995" fill="black" r="0.738" stroke="none" /><circle cx="234.7043" cy="652.315" fill="black" r="0.738" stroke="none" /><circle cx="237.6494" cy="709.1047" fill="black" r="0.738" stroke="none" /><circle cx="206.4456" cy="231.1215" fill="black" r="0.738" stroke="none" /><circle cx="196.97" cy="151.5384" fill="black" r="0.738" stroke="none" /><circle cx="220.4573" cy="554.0443" fill="black" r="0.738" stroke="none" /><circle cx="192.9722" cy="95.4735" fill="black" r="0.738" stroke="none" /><circle cx="188.243" cy="129.2814" fill="black" r="0.936" stroke="none" /><circle cx="187.631" cy="136.797" fill="black" r="0.738" stroke="none" /><circle cx="186.4229" cy="190.3092" fill="black" r="1.17" stroke="none" /><circle cx="190.8905" cy="287.6422" fill="black" r="0.738" stroke="none" /><circle cx="215.8398" cy="711.0265" fill="black" r="0.738" stroke="none" /><circle cx="188.3608" cy="343.7413" fill="black" r="0.738" stroke="none" /><circle cx="208.0163" cy="670.2649" fill="black" r="0.738" stroke="none" /><circle cx="193.412" cy="458.4845" fill="black" r="0.738" stroke="none" /><circle cx="178.9886" cy="236.9888" fill="black" r="0.936" stroke="none" /><circle cx="193.5194" cy="466.3734" fill="black" r="0.738" stroke="none" /><circle cx="193.3992" cy="466.6333" fill="black" r="0.738" stroke="none" /><circle cx="189.8587" cy="412.9395" fill="black" r="0.738" stroke="none" /><circle cx="168.5654" cy="109.4097" fill="black" r="0.738" stroke="none" /><circle cx="185.3707" cy="403.6613" fill="black" r="0.738" stroke="none" /><circle cx="201.194" cy="651.8955" fill="black" r="0.738" stroke="none" /><circle cx="170.0497" cy="246.4879" fill="black" r="0.738" stroke="none" /><circle cx="189.8857" cy="577.5322" fill="black" r="0.738" stroke="none" /><circle cx="163.9438" cy="224.0446" fill="black" r="0.738" stroke="none" /><circle cx="182.0599" cy="514.1259" fill="black" r="0.738" stroke="none" /><circle cx="155.2452" cy="131.3234" fill="black" r="0.738" stroke="none" /><circle cx="165.0905" cy="282.7986" fill="black" r="0.936" stroke="none" /><circle cx="162.1375" cy="241.9894" fill="black" r="0.738" stroke="none" /><circle cx="153.4144" cy="157.9404" fill="black" r="0.738" stroke="none" /><circle cx="176.3973" cy="496.3779" fill="black" r="0.738" stroke="none" /><circle cx="150.6634" cy="252.9001" fill="black" r="0.738" stroke="none" /><circle cx="170.1895" cy="554.0042" fill="black" r="1.17" stroke="none" /><circle cx="148.5901" cy="303.3339" fill="black" r="0.936" stroke="none" /><circle cx="161.8891" cy="493.7618" fill="black" r="0.936" stroke="none" /><circle cx="172.6683" cy="650.9605" fill="black" r="0.738" stroke="none" /><circle cx="139.7012" cy="323.4449" fill="black" r="0.936" stroke="none" /><circle cx="132.4202" cy="240.1586" fill="black" r="0.738" stroke="none" /><circle cx="133.4531" cy="375.9298" fill="black" r="0.738" stroke="none" /><circle cx="123.0599" cy="287.1018" fill="black" r="0.738" stroke="none" /><circle cx="135.0204" cy="497.7977" fill="black" r="0.738" stroke="none" /><circle cx="131.3906" cy="470.4222" fill="black" r="0.738" stroke="none" /><circle cx="107.5689" cy="214.7572" fill="black" r="1.17" stroke="none" /><circle cx="145.0472" cy="657.1281" fill="black" r="0.738" stroke="none" /><circle cx="132.4233" cy="527.9018" fill="black" r="0.738" stroke="none" /><circle cx="146.7025" cy="714.769" fill="black" r="0.738" stroke="none" /><circle cx="131.1532" cy="561.6891" fill="black" r="0.738" stroke="none" /><circle cx="112.271" cy="360.9065" fill="black" r="0.738" stroke="none" /><circle cx="102.447" cy="316.151" fill="black" r="0.738" stroke="none" /><circle cx="102.0243" cy="316.2732" fill="black" r="0.738" stroke="none" /><circle cx="120.638" cy="523.231" fill="black" r="0.738" stroke="none" /><circle cx="108.252" cy="393.6785" fill="black" r="0.738" stroke="none" /><circle cx="131.909" cy="682.8364" fill="black" r="0.738" stroke="none" /><circle cx="84.8619" cy="178.3455" fill="black" r="0.738" stroke="none" /><circle cx="83.3643" cy="162.8934" fill="black" r="0.738" stroke="none" /><circle cx="90.72" cy="246.218" fill="black" r="0.738" stroke="none" /><circle cx="93.7512" cy="288.56" fill="black" r="0.738" stroke="none" /><circle cx="89.3603" cy="250.7222" fill="black" r="0.738" stroke="none" /><circle cx="108.8973" cy="492.0625" fill="black" r="0.936" stroke="none" /><circle cx="106.3554" cy="476.7191" fill="black" r="0.738" stroke="none" /><circle cx="118.8473" cy="626.5946" fill="black" r="0.936" stroke="none" /><circle cx="119.6977" cy="643.6225" fill="black" r="0.738" stroke="none" /><circle cx="119.9195" cy="647.7314" fill="black" r="0.738" stroke="none" /><circle cx="117.3208" cy="622.5272" fill="black" r="0.738" stroke="none" /><circle cx="93.0455" cy="376.3078" fill="black" r="0.738" stroke="none" /><circle cx="117.8767" cy="673.8112" fill="black" r="0.936" stroke="none" /><circle cx="13.77" cy="786.23" fill="black" r="4.59" stroke="none" /><circle cx="13.77" cy="786.23" fill="black" r="4.59" stroke="none" /><text fill="black" font-family="monospace" font-size="12" x="10.77" y="775.64">1</text><circle cx="37.77" cy="786.23" fill="black" r="3.654" stroke="none" /><circle cx="37.77" cy="786.23" fill="black" r="3.654" stroke="none" /><text fill="black" font-family="monospace" font-size="12" x="34.769999999999996" y="775.64">2</text><circle cx="61.77" cy="786.23" fill="black" r="2.916" stroke="none" /><circle cx="61.77" cy="786.23" fill="black" r="2.916" stroke="none" /><text fill="black" font-family="monospace" font-size="12" x="58.769999999999996" y="775.64">3</text><circle cx="85.77" cy="786.23" fill="black" r="2.322" stroke="none" /><circle cx="85.77" cy="786.23" fill="black" r="2.322" stroke="none" /><text fill="black" font-family="monospace" font-size="12" x="82.77" y="775.64">4</text><circle cx="109.77" cy="786.23" fill="black" r="1.854" stroke="none" /><circle cx="109.77" cy="786.23" fill="black" r="1.854" stroke="none" /><text fill="black" font-family="monospace" font-size="12" x="106.77" y="775.64">5</text><circle cx="133.77" cy="786.23" fill="black" r="1.476" stroke="none" /><circle cx="133.77" cy="786.23" fill="black" r="1.476" stroke="none" /><text fill="black" font-family="monospace" font-size="12" x="130.77" y="775.64">6</text><circle cx="157.77" cy="786.23" fill="black" r="1.17" stroke="none" /><circle cx="157.77" cy="786.23" fill="black" r="1.17" stroke="none" /><text fill="black" font-family="monospace" font-size="12" x="154.77" y="775.64">7</text><circle cx="181.77" cy="786.23" fill="black" r="0.936" stroke="none" /><circle cx="181.77" cy="786.23" fill="black" r="0.936" stroke="none" /><text fill="black" font-family="monospace" font-size="12" x="178.77" y="775.64">8</text><circle cx="205.77" cy="786.23" fill="black" r="0.738" stroke="none" /><circle cx="205.77" cy="786.23" fill="black" r="0.738" stroke="none" /><text fill="black" font-family="monospace" font-size="12" x="202.77" y="775.64">9</text><text fill="gray" fill-opacity="0.5" font-family="monospace" font-size="12" x="655.1111306164955" y="94.78719557584799">09h00m</text><text fill="gray" fill-opacity="0.5" font-family="monospace" font-size="12" x="527.6153997360009" y="87.99318749285277">09h10m</text><text fill="gray" fill-opacity="0.5" font-family="monospace" font-size="12" x="400.0" y="85.72854003546342">09h20m</text><text fill="gray" fill-opacity="0.5" font-family="monospace" font-size="12" x="272.3846002639991" y="87.99318749285277">09h30m</text><text fill="gray" fill-opacity="0.5" font-family="monospace" font-size="12" x="144.88886938350313" y="94.78719557584799">09h40m</text><text fill="gray" fill-opacity="0.5" font-family="monospace" font-size="12" x="120.67671176696877" y="728.1012280278288">-60°</text><text fill="gray" fill-opacity="0.5" font-family="monospace" font-size="12" x="112.41016144201166" y="644.5854416543522">-59°</text><text fill="gray" fill-opacity="0.5" font-family="monospace" font-size="12" x="104.19393115647358" y="561.097670755817">-58°</text><text fill="gray" fill-opacity="0.5" font-family="monospace" font-size="12" x="96.02672761006471" y="477.6252303055501">-57°</text><text fill="gray" fill-opacity="0.5" font-family="monospace" font-size="12" x="87.90728735024658" y="394.15544456661434">-56°</text><text fill="gray" fill-opacity="0.5" font-family="monospace" font-size="12" x="79.83437598464621" y="310.67563940317893">-55°</text><text fill="gray" fill-opacity="0.5" font-family="monospace" font-size="12" x="71.8067874310272" y="227.17313459394407">-54°</text><text fill="gray" fill-opacity="0.5" font-family="monospace" font-size="12" x="63.823343203852176" y="143.635236137702">-53°</text><text fill="black" font-family="monospace" font-size="12" x="12" y="48">&gt;&gt; No.101 08h53m 09h47m -60.0°-52.5°</text><a target="_self" xlink:href="hip004.svg"><text fill="black" font-family="monospace" font-size="12" x="12" y="36">&gt; No.4 08h00m 16h00m -90.0°-52.5°</text></a><a target="_self" xlink:href="hip001.svg"><text fill="black" font-family="monospace" font-size="12" x="12" y="24">No.1 00h 24h -90.0°+0.0°</text></a><polyline fill="none" points="740.1522,101.849 737.8624,101.6323 731.5012,101.0378 725.1393,100.4546 718.7766,99.8828 712.4132,99.3222 706.0491,98.7731 699.6842,98.2352 693.3186,97.7086 686.9523,97.1934 680.5854,96.6895 674.2178,96.197 667.8495,95.7157 661.4806,95.2458 655.1111,94.7872 648.741,94.3399 642.3704,93.904 635.9991,93.4793 629.6273,93.066 623.255,92.6641 616.8821,92.2734 610.5087,91.8941 604.1349,91.5261 597.7605,91.1694 591.3857,90.824 585.0105,90.49 578.6348,90.1673 572.2586,89.8559 565.8821,89.5558 559.5052,89.2671 553.128,88.9896 546.7503,88.7235 540.3723,88.4688 533.994,88.2253 527.6154,87.9932 521.2365,87.7724 514.8573,87.5629 508.4778,87.3647 502.0981,87.1779 495.7181,87.0024 489.3379,86.8382 482.9575,86.6854 476.5769,86.5438 470.1961,86.4136 463.8152,86.2947 457.4341,86.1871 451.0529,86.0909 444.6715,86.006 438.2901,85.9324 431.9085,85.8701 425.5269,85.8191 419.1452,85.7795 412.7635,85.7512 406.3818,85.7342 400.0,85.7285 393.6182,85.7342 387.2365,85.7512 380.8548,85.7795 374.4731,85.8191 368.0915,85.8701 361.7099,85.9324 355.3285,86.006 348.9471,86.0909 342.5659,86.1871 336.1848,86.2947 329.8039,86.4136 323.4231,86.5438 317.0425,86.6854 310.6621,86.8382 304.2819,87.0024 297.9019,87.1779 291.5222,87.3647 285.1427,87.5629 278.7635,87.7724 272.3846,87.9932 266.006,88.2253 259.6277,88.4688 253.2497,88.7235 246.872,88.9896 240.4948,89.2671 234.1179,89.5558 227.7414,89.8559 221.3652,90.1673 214.9895,90.49 208.6143,90.824 202.2395,91.1694 195.8651,91.5261 189.4913,91.8941 183.1179,92.2734 176.745,92.6641 170.3727,93.066 164.0009,93.4793 157.6296,93.904 151.259,94.3399 144.8889,94.7872 138.5194,95.2458 132.1505,95.7157 125.7822,96.197 119.4146,96.6895 113.0477,97.1934 106.6814,97.7086 100.3158,98.2352 93.9509,98.7731 87.5868,99.3222 81.2234,99.8828 74.8607,100.4546 68.4988,101.0378 62.1376,101.6323 59.8478,101.849" stroke="black" stroke-opacity="0.5" stroke-width="1" /><polyline fill="none" points="679.3233,728.1012 680.3594,717.6598 681.3947,707.219 682.4292,696.7787 683.4629,686.339 684.4958,675.8999 685.528,665.4613 686.5593,655.0231 687.5898,644.5854 688.6196,634.1482 689.6486,623.7114 690.6768,613.2749 691.7042,602.8388 692.7308,592.4031 693.7567,581.9677 694.7817,571.5325 695.8061,561.0977 696.8296,550.663 697.8524,540.2286 698.8744,529.7944 699.8957,519.3603 700.9162,508.9264 701.936,498.4926 702.955,488.0589 703.9733,477.6252 704.9908,467.1916 706.0076,456.758 707.0236,446.3244 708.0389,435.8908 709.0534,425.4571 710.0673,415.0233 711.0804,404.5895 712.0927,394.1554 713.1043,383.7213 714.1153,373.2869 715.1254,362.8524 716.1349,352.4176 717.1437,341.9825 718.1517,331.5472 719.159,321.1116 720.1656,310.6756 721.1715,300.2393 722.1767,289.8026 723.1812,279.3655 724.185,268.928 725.1881,258.49 726.1905,248.0516 727.1922,237.6126 728.1932,227.1731 729.1935,216.7331 730.1932,206.2925 731.1921,195.8513 732.1904,185.4094 733.188,174.9669 734.1849,164.5237 735.1811,154.0798 736.1767,143.6352 737.1715,133.1899 738.1658,122.7437 739.1593,112.2968 740.1522,101.849" stroke="black" stroke-opacity="0.5" stroke-width="1" /><polyline fill="none" points="679.3233,728.1012 677.4437,727.9153 672.2222,727.4054 666.9999,726.9052 661.7768,726.4147 656.5531,725.9339 651.3286,725.4628 646.1034,725.0014 640.8776,724.5497 635.651,724.1078 630.4238,723.6755 625.196,723.253 619.9675,722.8401 614.7385,722.437 609.5088,722.0436 604.2786,721.6599 599.0477,721.2859 593.8164,720.9216 588.5845,720.567 583.352,720.2221 578.1191,719.887 572.8857,719.5615 567.6517,719.2458 562.4174,718.9398 557.1825,718.6435 551.9473,718.3569 546.7116,718.08 541.4755,717.8128 536.239,717.5554 531.0021,717.3076 525.7649,717.0696 520.5273,716.8413 515.2894,716.6227 510.0511,716.4138 504.8126,716.2146 499.5738,716.0252 494.3346,715.8454 489.0953,715.6754 483.8557,715.5151 478.6158,715.3645 473.3757,715.2236 468.1355,715.0925 462.895,714.971 457.6544,714.8593 452.4136,714.7573 447.1726,714.665 441.9316,714.5824 436.6904,714.5095 431.4491,714.4464 426.2077,714.3929 420.9662,714.3492 415.7247,714.3152 410.4832,714.2909 405.2416,714.2763 400.0,714.2715 394.7584,714.2763 389.5168,714.2909 384.2753,714.3152 379.0338,714.3492 373.7923,714.3929 368.5509,714.4464 363.3096,714.5095 358.0684,714.5824 352.8274,714.665 347.5864,714.7573 342.3456,714.8593 337.105,714.971 331.8645,715.0925 326.6243,715.2236 321.3842,715.3645 316.1443,715.5151 310.9047,715.6754 305.6654,715.8454 300.4262,716.0252 295.1874,716.2146 289.9489,716.4138 284.7106,716.6227 279.4727,716.8413 274.2351,717.0696 268.9979,717.3076 263.761,717.5554 258.5245,717.8128 253.2884,718.08 248.0527,718.3569 242.8175,718.6435 237.5826,718.9398 232.3483,719.2458 227.1143,719.5615 221.8809,719.887 216.648,720.2221 211.4155,720.567 206.1836,720.9216 200.9523,721.2859 195.7214,721.6599 190.4912,722.0436 185.2615,722.437 180.0325,722.8401 174.804,723.253 169.5762,723.6755 164.349,724.1078 159.1224,724.5497 153.8966,725.0014 148.6714,725.4628 143.4469,725.9339 138.2232,726.4147 133.0001,726.9052 127.7778,727.4054 122.5563,727.9153 120.6767,728.1012" stroke="black" stroke-opacity="0.5" stroke-width="1" /><polyline fill="none" points="120.6767,728.1012 119.6406,717.6598 118.6053,707.219 117.5708,696.7787 116.5371,686.339 115.5042,675.8999 114.472,665.4613 113.4407,655.0231 112.4102,644.5854 111.3804,634.1482 110.3514,623.7114 109.3232,613.2749 108.2958,602.8388 107.2692,592.4031 106.2433,581.9677 105.2183,571.5325 104.1939,561.0977 103.1704,550.663 102.1476,540.2286 101.1256,529.7944 100.1043,519.3603 99.0838,508.9264 98.064,498.4926 97.045,488.0589 96.0267,477.6252 95.0092,467.1916 93.9924,456.758 92.9764,446.3244 91.9611,435.8908 90.9466,425.4571 89.9327,415.0233 88.9196,404.5895 87.9073,394.1554 86.8957,383.7213 85.8847,373.2869 84.8746,362.8524 83.8651,352.4176 82.8563,341.9825 81.8483,331.5472 80.841,321.1116 79.8344,310.6756 78.8285,300.2393 77.8233,289.8026 76.8188,279.3655 75.815,268.928 74.8119,258.49 73.8095,248.0516 72.8078,237.6126 71.8068,227.1731 70.8065,216.7331 69.8068,206.2925 68.8079,195.8513 67.8096,185.4094 66.812,174.9669 65.8151,164.5237 64.8189,154.0798 63.8233,143.6352 62.8285,133.1899 61.8342,122.7437 60.8407,112.2968 59.8478,101.849" stroke="black" stroke-opacity="0.5" stroke-width="1" /></svg>