<?xml version="1.0" encoding="utf-8" ?>
<svg baseProfile="tiny" height="800" version="1.2" width="800" xmlns="http://www.w3.org/2000/svg" xmlns:ev="http://www.w3.org/2001/xml-events" xmlns:xlink="http://www.w3.org/1999/xlink"><defs /><rect fill="none" height="800" stroke="black" stroke-width="2" width="800" x="0" y="0" /><polyline fill="none" points="644.4312,724.8558 645.3377,714.4046 646.2435,703.9541 647.1486,693.5042 648.0529,683.0549 648.9566,672.6061 649.8596,662.1579 650.7619,651.7102 651.6635,641.263 652.5644,630.8162 653.4646,620.3699 654.3642,609.924 655.263,599.4785 656.1612,589.0334 657.0587,578.5885 657.9555,568.144 658.8516,557.6998 659.7471,547.2559 660.6419,536.8122 661.5361,526.3687 662.4295,515.9254 663.3223,505.4823 664.2145,495.0393 665.106,484.5964 665.9968,474.1537 666.887,463.711 667.7765,453.2683 668.6654,442.8256 669.5536,432.383 670.4412,421.9403 671.3282,411.4975 672.2145,401.0547 673.1001,390.6118 673.9851,380.1687 674.8695,369.7255 675.7533,359.2821 676.6364,348.8385 677.5189,338.3946 678.4008,327.9505 679.282,317.5061 680.1626,307.0615 681.0426,296.6164 681.922,286.1711 682.8008,275.7253 683.6789,265.2792 684.5564,254.8326 685.4334,244.3856 686.3097,233.938 687.1854,223.49 688.0605,213.0415 688.935,202.5924 689.8089,192.1427 690.6822,181.6924 691.5549,171.2415 692.427,160.7899 693.2985,150.3377 694.1694,139.8848 695.0398,129.4311 695.9095,118.9767 696.7787,108.5215 697.6473,98.0655" stroke="silver" stroke-opacity="0.5" stroke-width="1" /><polyline fill="none" points="539.7998,717.7294 540.318,707.2569 540.8358,696.7851 541.3532,686.314 541.8702,675.8435 542.3868,665.3737 542.903,654.9044 543.4188,644.4357 543.9342,633.9676 544.4492,623.4999 544.9638,613.0328 545.478,602.5662 545.9918,592.0999 546.5053,581.6342 547.0183,571.1688 547.5309,560.7037 548.0432,550.2391 548.5551,539.7747 549.0666,529.3107 549.5777,518.8469 550.0884,508.3833 550.5988,497.92 551.1087,487.4569 551.6183,476.994 552.1275,466.5312 552.6364,456.0685 553.1448,445.6059 553.6529,435.1434 554.1606,424.6809 554.668,414.2185 555.175,403.7561 555.6816,393.2936 556.1878,382.8311 556.6937,372.3685 557.1992,361.9058 557.7044,351.443 558.2091,340.98 558.7136,330.5169 559.2176,320.0535 559.7213,309.5899 560.2247,299.1261 560.7277,288.662 561.2303,278.1976 561.7326,267.7329 562.2345,257.2678 562.7361,246.8024 563.2373,236.3365 563.7382,225.8702 564.2387,215.4035 564.7389,204.9363 565.2387,194.4686 565.7382,184.0004 566.2373,173.5316 566.7361,163.0623 567.2346,152.5923 567.7327,142.1217 568.2305,131.6505 568.7279,121.1786 569.225,110.706 569.7218,100.2327 570.2182,89.7586" stroke="silver" stroke-opacity="0.5" stroke-width="1" /><polyline fill="none" points="435.0132,714.4882 435.1429,704.0061 435.2726,693.5246 435.4021,683.0438 435.5316,672.5638 435.6609,662.0843 435.7902,651.6055 435.9193,641.1273 436.0484,630.6496 436.1773,620.1725 436.3062,609.6959 436.4349,599.2198 436.5636,588.7442 436.6922,578.2691 436.8206,567.7943 436.949,557.32 437.0772,546.846 437.2054,536.3724 437.3335,525.8991 437.4615,515.4261 437.5893,504.9533 437.7171,494.4808 437.8448,484.0086 437.9724,473.5365 438.0999,463.0646 438.2273,452.5929 438.3546,442.1212 438.4819,431.6497 438.609,421.1783 438.736,410.7068 438.863,400.2355 438.9898,389.7641 439.1166,379.2927 439.2432,368.8212 439.3698,358.3497 439.4963,347.878 439.6227,337.4063 439.749,326.9343 439.8752,316.4623 440.0013,305.99 440.1273,295.5174 440.2532,285.0447 440.3791,274.5716 440.5049,264.0983 440.6305,253.6246 440.7561,243.1506 440.8816,232.6762 441.007,222.2014 441.1323,211.7262 441.2576,201.2505 441.3827,190.7743 441.5078,180.2977 441.6327,169.8205 441.7576,159.3428 441.8824,148.8645 442.0072,138.3856 442.1318,127.906 442.2563,117.4259 442.3808,106.945 442.5052,96.4635 442.6295,85.9812" stroke="silver" stroke-opacity="0.5" stroke-width="1" /><polyline fill="none" points="330.1876,715.1334 329.9289,704.6531 329.6704,694.1736 329.412,683.6948 329.1539,673.2166 328.896,662.739 328.6383,652.2621 328.3807,641.7858 328.1234,631.31 327.8663,620.8348 327.6094,610.3601 327.3526,599.8859 327.0961,589.4122 326.8397,578.9389 326.5836,568.466 326.3276,557.9935 326.0719,547.5214 325.8163,537.0496 325.5609,526.5781 325.3057,516.107 325.0508,505.636 324.7959,495.1654 324.5413,484.6949 324.2869,474.2247 324.0327,463.7546 323.7786,453.2847 323.5248,442.8148 323.2711,432.3451 323.0176,421.8754 322.7643,411.4058 322.5112,400.9362 322.2583,390.4666 322.0055,379.997 321.7529,369.5273 321.5006,359.0575 321.2484,348.5876 320.9963,338.1176 320.7445,327.6474 320.4928,317.1771 320.2414,306.7065 319.9901,296.2357 319.7389,285.7647 319.488,275.2934 319.2372,264.8217 318.9866,254.3498 318.7362,243.8774 318.486,233.4047 318.2359,222.9316 317.986,212.4581 317.7363,201.9841 317.4868,191.5096 317.2374,181.0347 316.9882,170.5592 316.7392,160.0831 316.4903,149.6065 316.2416,139.1292 315.9931,128.6513 315.7448,118.1728 315.4966,107.6936 315.2486,97.2137 315.0008,86.733" stroke="silver" stroke-opacity="0.5" stroke-width="1" /><polyline fill="none" points="225.4396,719.6646 224.7925,709.1979 224.1458,698.7319 223.4997,688.2665 222.8541,677.8018 222.2089,667.3377 221.5643,656.8741 220.9202,646.4111 220.2765,635.9487 219.6334,625.4867 218.9908,615.0252 218.3486,604.5642 217.7069,594.1036 217.0657,583.6434 216.425,573.1836 215.7848,562.7242 215.1451,552.2651 214.5059,541.8062 213.8671,531.3477 213.2288,520.8894 212.591,510.4314 211.9536,499.9736 211.3168,489.5159 210.6804,479.0584 210.0444,468.601 209.409,458.1438 208.774,447.6866 208.1395,437.2295 207.5054,426.7724 206.8718,416.3153 206.2387,405.8582 205.606,395.4011 204.9738,384.9439 204.342,374.4866 203.7107,364.0292 203.0799,353.5716 202.4495,343.1139 201.8195,332.656 201.19,322.1979 200.561,311.7395 199.9324,301.2809 199.3042,290.822 198.6765,280.3628 198.0492,269.9032 197.4224,259.4432 196.796,248.9829 196.17,238.5222 195.5445,228.061 194.9194,217.5993 194.2947,207.1372 193.6705,196.6745 193.0467,186.2113 192.4234,175.7476 191.8004,165.2832 191.1779,154.8183 190.5558,144.3527 189.9342,133.8864 189.3129,123.4195 188.6921,112.9518 188.0717,102.4834 187.4517,92.0142" stroke="silver" stroke-opacity="0.5" stroke-width="1" /><polyline fill="none" points="120.8855,728.0805 119.8502,717.639 118.8157,707.1981 117.7819,696.7578 116.749,686.3181 115.7169,675.8789 114.6855,665.4402 113.655,655.002 112.6252,644.5642 111.5962,634.1269 110.568,623.69 109.5406,613.2535 108.5139,602.8174 107.4881,592.3816 106.463,581.9461 105.4387,571.5109 104.4151,561.076 103.3923,550.6413 102.3703,540.2068 101.349,529.7725 100.3285,519.3384 99.3088,508.9044 98.2898,498.4705 97.2715,488.0368 96.254,477.6031 95.2373,467.1694 94.2213,456.7357 93.206,446.3021 92.1915,435.8684 91.1777,425.4347 90.1646,415.0008 89.1523,404.5669 88.1407,394.1328 87.1298,383.6986 86.1196,373.2642 85.1102,362.8296 84.1015,352.3947 83.0935,341.9596 82.0862,331.5243 81.0797,321.0886 80.0738,310.6526 79.0687,300.2162 78.0642,289.7794 77.0605,279.3423 76.0574,268.9047 75.0551,258.4667 74.0535,248.0282 73.0525,237.5892 72.0522,227.1496 71.0527,216.7095 70.0538,206.2688 69.0556,195.8276 68.0581,185.3857 67.0612,174.9431 66.0651,164.4999 65.0696,154.0559 64.0748,143.6113 63.0806,133.1659 62.0872,122.7197 61.0944,112.2727 60.1022,101.8249" stroke="silver" stroke-opacity="0.5" stroke-width="1" /><polyline fill="none" points="679.1145,728.0805 675.7729,727.7511 670.5511,727.2442 665.3286,726.7471 660.1053,726.2598 654.8813,725.7821 649.6566,725.3141 644.4312,724.8558 639.2051,724.4072 633.9784,723.9684 628.751,723.5392 623.523,723.1198 618.2943,722.7101 613.065,722.31 607.8352,721.9197 602.6048,721.5391 597.3738,721.1682 592.1422,720.8071 586.9101,720.4556 581.6775,720.1138 576.4444,719.7818 571.2109,719.4594 565.9768,719.1468 560.7423,718.8439 555.5073,718.5507 550.2719,718.2672 545.0361,717.9934 539.7998,717.7294 534.5632,717.475 529.3262,717.2304 524.0889,716.9955 518.8512,716.7703 513.6132,716.5548 508.3748,716.349 503.1362,716.153 497.8973,715.9666 492.6581,715.79 487.4186,715.6231 482.1789,715.4659 476.939,715.3184 471.6989,715.1806 466.4585,715.0525 461.218,714.9342 455.9773,714.8256 450.7365,714.7267 445.4955,714.6375 440.2544,714.558 435.0132,714.4882 429.7718,714.4282 424.5304,714.3779 419.289,714.3373 414.0474,714.3064 408.8059,714.2852 403.5643,714.2737 398.3227,714.272 393.0811,714.2799 387.8395,714.2976 382.598,714.325 377.3565,714.3621 372.1151,714.409 366.8737,714.4655 361.6324,714.5318 356.3913,714.6077 351.1503,714.6934 345.9094,714.7889 340.6686,714.894 335.428,715.0088 330.1876,715.1334 324.9474,715.2677 319.7074,715.4116 314.4676,715.5654 309.2281,715.7288 303.9888,715.9019 298.7498,716.0848 293.511,716.2773 288.2726,716.4796 283.0345,716.6916 277.7966,716.9133 272.5592,717.1447 267.3221,717.3859 262.0853,717.6367 256.8489,717.8973 251.613,718.1675 246.3774,718.4475 241.1423,718.7372 235.9076,719.0367 230.6734,719.3458 225.4396,719.6646 220.2063,719.9932 214.9735,720.3314 209.7413,720.6794 204.5095,721.0371 199.2783,721.4045 194.0477,721.7816 188.8176,722.1684 183.5882,722.5649 178.3593,722.9712 173.131,723.3871 167.9034,723.8128 162.6764,724.2481 157.4501,724.6932 152.2245,725.148 146.9995,725.6125 141.7752,726.0867 136.5517,726.5706 131.3289,727.0642 126.1068,727.5675 120.8855,728.0805" stroke="silver" stroke-opacity="0.5" stroke-width="1" /><polyline fill="none" points="687.3748,644.5642 683.9342,644.227 678.5576,643.7081 673.1802,643.1992 667.8021,642.7002 662.4233,642.2112 657.0437,641.7321 651.6635,641.263 646.2826,640.8038 640.901,640.3545 635.5187,639.9152 630.1358,639.4858 624.7523,639.0663 619.3681,638.6568 613.9834,638.2572 608.5981,637.8676 603.2122,637.4879 597.8257,637.1182 592.4388,636.7584 587.0513,636.4085 581.6633,636.0686 576.2748,635.7386 570.8858,635.4186 565.4963,635.1085 560.1064,634.8083 554.7161,634.5181 549.3253,634.2379 543.9342,633.9676 538.5426,633.7072 533.1507,633.4568 527.7584,633.2163 522.3658,632.9857 516.9728,632.7651 511.5795,632.5545 506.1859,632.3538 500.7921,632.163 495.3979,631.9822 490.0035,631.8113 484.6089,631.6504 479.214,631.4994 473.8189,631.3584 468.4236,631.2273 463.0281,631.1061 457.6324,630.9949 452.2366,630.8937 446.8407,630.8024 441.4446,630.721 436.0484,630.6496 430.6521,630.5881 425.2557,630.5366 419.8593,630.495 414.4628,630.4634 409.0662,630.4417 403.6697,630.43 398.2731,630.4282 392.8765,630.4364 387.48,630.4545 382.0835,630.4825 376.687,630.5205 371.2906,630.5685 365.8943,630.6263 360.498,630.6942 355.1019,630.772 349.7059,630.8597 344.31,630.9573 338.9143,631.065 333.5188,631.1825 328.1234,631.31 322.7282,631.4475 317.3333,631.5949 311.9385,631.7522 306.544,631.9195 301.1498,632.0968 295.7558,632.284 290.3621,632.4811 284.9687,632.6882 279.5756,632.9052 274.1829,633.1321 268.7905,633.369 263.3984,633.6159 258.0067,633.8727 252.6154,634.1394 247.2245,634.4161 241.834,634.7027 236.444,634.9993 231.0544,635.3058 225.6652,635.6223 220.2765,635.9487 214.8884,636.285 209.5007,636.6313 204.1135,636.9875 198.7269,637.3537 193.3408,637.7298 187.9553,638.1158 182.5703,638.5118 177.186,638.9178 171.8022,639.3336 166.4191,639.7594 161.0366,640.1952 155.6547,640.6409 150.2736,641.0965 144.8931,641.5621 139.5133,642.0376 134.1342,642.5231 128.7558,643.0184 123.3782,643.5238 118.0013,644.039 112.6252,644.5642" stroke="silver" stroke-opacity="0.5" stroke-width="1" /><polyline fill="none" points="695.5849,561.076 692.0458,560.731 686.5153,560.2004 680.984,559.68 675.452,559.1697 669.9193,558.6696 664.3858,558.1796 658.8516,557.6998 653.3168,557.2302 647.7813,556.7708 642.2451,556.3215 636.7082,555.8823 631.1708,555.4534 625.6327,555.0346 620.094,554.626 614.5547,554.2275 609.0149,553.8392 603.4745,553.4611 597.9336,553.0931 592.3921,552.7353 586.8501,552.3877 581.3077,552.0503 575.7647,551.723 570.2213,551.4058 564.6774,551.0989 559.1331,550.8021 553.5884,550.5155 548.0432,550.2391 542.4977,549.9728 536.9518,549.7167 531.4055,549.4708 525.8588,549.235 520.3119,549.0094 514.7646,548.794 509.217,548.5887 503.6691,548.3937 498.121,548.2087 492.5725,548.034 487.0239,547.8694 481.475,547.715 475.9259,547.5708 470.3765,547.4367 464.827,547.3129 459.2774,547.1991 453.7275,547.0956 448.1776,547.0022 442.6275,546.919 437.0772,546.846 431.5269,546.7831 425.9765,546.7304 420.4261,546.6879 414.8755,546.6556 409.325,546.6334 403.7744,546.6214 398.2238,546.6196 392.6732,546.6279 387.1226,546.6464 381.5721,546.6751 376.0216,546.714 370.4712,546.763 364.9209,546.8222 359.3706,546.8916 353.8205,546.9711 348.2704,547.0608 342.7206,547.1607 337.1708,547.2707 331.6213,547.391 326.0719,547.5214 320.5227,547.6619 314.9737,547.8127 309.425,547.9736 303.8765,548.1447 298.3282,548.3259 292.7802,548.5173 287.2325,548.7189 281.6851,548.9307 276.138,549.1526 270.5913,549.3847 265.0449,549.627 259.4988,549.8794 253.9531,550.142 248.4079,550.4148 242.863,550.6978 237.3185,550.9909 231.7745,551.2942 226.2309,551.6076 220.6878,551.9313 215.1451,552.2651 209.6029,552.609 204.0613,552.9631 198.5202,553.3274 192.9796,553.7019 187.4395,554.0865 181.9001,554.4813 176.3612,554.8863 170.8229,555.3014 165.2852,555.7267 159.7481,556.1622 154.2117,556.6078 148.6759,557.0636 143.1408,557.5296 137.6064,558.0057 132.0727,558.492 126.5397,558.9885 121.0074,559.4951 115.4759,560.0119 109.9451,560.5389 104.4151,561.076" stroke="silver" stroke-opacity="0.5" stroke-width="1" /><polyline fill="none" points="703.746,477.6031 700.1089,477.2507 694.4255,476.7085 688.7412,476.1768 683.0562,475.6554 677.3705,475.1445 671.684,474.6439 665.9968,474.1537 660.309,473.6739 654.6204,473.2044 648.9312,472.7454 643.2413,472.2967 637.5508,471.8585 631.8597,471.4306 626.168,471.0131 620.4757,470.606 614.7828,470.2093 609.0894,469.823 603.3954,469.4471 597.7009,469.0815 592.0059,468.7264 586.3104,468.3816 580.6143,468.0472 574.9179,467.7232 569.2209,467.4096 563.5236,467.1064 557.8258,466.8136 552.1275,466.5312 546.4289,466.2591 540.7299,465.9975 535.0306,465.7462 529.3309,465.5053 523.6308,465.2749 517.9305,465.0548 512.2298,464.8451 506.5288,464.6458 500.8276,464.4569 495.1261,464.2783 489.4243,464.1102 483.7224,463.9525 478.0202,463.8051 472.3178,463.6681 466.6152,463.5416 460.9124,463.4254 455.2095,463.3196 449.5064,463.2242 443.8032,463.1392 438.0999,463.0646 432.3965,463.0004 426.693,462.9466 420.9895,462.9031 415.2858,462.8701 409.5822,462.8474 403.8785,462.8352 398.1748,462.8333 392.4711,462.8418 386.7675,462.8607 381.0638,462.89 375.3603,462.9297 369.6567,462.9798 363.9533,463.0403 358.25,463.1112 352.5467,463.1924 346.8436,463.2841 341.1406,463.3861 335.4378,463.4986 329.7351,463.6214 324.0327,463.7546 318.3304,463.8982 312.6283,464.0522 306.9265,464.2166 301.2249,464.3914 295.5236,464.5766 289.8225,464.7721 284.1217,464.9781 278.4213,465.1944 272.7211,465.4212 267.0213,465.6583 261.3218,465.9058 255.6227,466.1637 249.9239,466.432 244.2256,466.7107 238.5276,466.9998 232.8301,467.2993 227.133,467.6091 221.4363,467.9294 215.7401,468.26 210.0444,468.601 204.3492,468.9525 198.6545,469.3143 192.9604,469.6865 187.2667,470.069 181.5737,470.462 175.8811,470.8654 170.1892,471.2791 164.4979,471.7033 158.8072,472.1378 153.1171,472.5827 147.4276,473.038 141.7388,473.5037 136.0507,473.9797 130.3633,474.4662 124.6766,474.963 118.9906,475.4703 113.3053,475.9879 107.6208,476.5159 101.937,477.0543 96.254,477.6031" stroke="silver" stroke-opacity="0.5" stroke-width="1" /><polyline fill="none" points="711.8593,394.1328 708.125,393.7731 702.2894,393.2197 696.453,392.6769 690.6159,392.1447 684.778,391.6231 678.9394,391.1122 673.1001,390.6118 667.2601,390.122 661.4194,389.6428 655.5781,389.1743 649.7361,388.7163 643.8935,388.2689 638.0502,387.8322 632.2064,387.406 626.3619,386.9905 620.5169,386.5855 614.6713,386.1912 608.8252,385.8075 602.9785,385.4343 597.1313,385.0718 591.2836,384.7199 585.4355,384.3786 579.5868,384.0479 573.7377,383.7278 567.8882,383.4183 562.0382,383.1194 556.1878,382.8311 550.337,382.5534 544.4859,382.2863 538.6343,382.0299 532.7825,381.784 526.9302,381.5487 521.0777,381.3241 515.2249,381.1101 509.3717,380.9066 503.5183,380.7138 497.6646,380.5316 491.8107,380.3599 485.9565,380.1989 480.1021,380.0485 474.2475,379.9087 468.3928,379.7795 462.5378,379.6609 456.6827,379.553 450.8274,379.4556 444.9721,379.3688 439.1166,379.2927 433.261,379.2271 427.4053,379.1722 421.5495,379.1278 415.6937,379.0941 409.8379,379.071 403.982,379.0585 398.1261,379.0566 392.2702,379.0653 386.4144,379.0846 380.5586,379.1145 374.7028,379.155 368.8471,379.2061 362.9915,379.2679 357.1359,379.3402 351.2805,379.4231 345.4252,379.5167 339.57,379.6208 333.715,379.7356 327.8602,379.861 322.0055,379.997 316.1511,380.1436 310.2968,380.3008 304.4428,380.4686 298.589,380.647 292.7355,380.836 286.8822,381.0356 281.0293,381.2458 275.1766,381.4667 269.3243,381.6981 263.4723,381.9401 257.6206,382.1928 251.7693,382.456 245.9184,382.7299 240.0679,383.0144 234.2178,383.3094 228.3681,383.6151 222.5188,383.9314 216.67,384.2583 210.8217,384.5958 204.9738,384.9439 199.1264,385.3026 193.2796,385.6719 187.4332,386.0518 181.5875,386.4424 175.7422,386.8435 169.8976,387.2552 164.0535,387.6775 158.21,388.1105 152.3672,388.554 146.5249,389.0082 140.6834,389.4729 134.8424,389.9483 129.0022,390.4342 123.1626,390.9308 117.3238,391.438 111.4857,391.9557 105.6483,392.4841 99.8116,393.0231 93.9758,393.5726 88.1407,394.1328" stroke="silver" stroke-opacity="0.5" stroke-width="1" /><polyline fill="none" points="719.9262,310.6526 716.095,310.2857 710.1082,309.7213 704.1205,309.1677 698.1322,308.6249 692.143,308.0929 686.1532,307.5718 680.1626,307.0615 674.1714,306.5619 668.1794,306.0732 662.1868,305.5954 656.1935,305.1283 650.1996,304.672 644.2051,304.2266 638.21,303.792 632.2142,303.3682 626.2179,302.9552 620.2211,302.553 614.2236,302.1616 608.2257,301.7811 602.2272,301.4114 596.2282,301.0525 590.2288,300.7044 584.2288,300.3671 578.2284,300.0406 572.2276,299.725 566.2263,299.4201 560.2247,299.1261 554.2226,298.8429 548.2201,298.5705 542.2173,298.309 536.2141,298.0582 530.2106,297.8183 524.2068,297.5892 518.2026,297.3709 512.1982,297.1634 506.1934,296.9668 500.1884,296.7809 494.1832,296.6059 488.1777,296.4417 482.172,296.2883 476.1661,296.1457 470.1601,296.014 464.1538,295.893 458.1474,295.7829 452.1408,295.6836 446.1341,295.5951 440.1273,295.5174 434.1204,295.4506 428.1134,295.3946 422.1063,295.3493 416.0992,295.3149 410.0921,295.2914 404.0849,295.2786 398.0777,295.2766 392.0705,295.2855 386.0633,295.3052 380.0562,295.3357 374.0491,295.377 368.0421,295.4292 362.0352,295.4921 356.0283,295.5659 350.0216,295.6505 344.015,295.7459 338.0085,295.8521 332.0022,295.9692 325.996,296.097 319.9901,296.2357 313.9843,296.3852 307.9787,296.5455 301.9734,296.7167 295.9683,296.8986 289.9635,297.0914 283.959,297.295 277.9547,297.5094 271.9507,297.7346 265.9471,297.9706 259.9438,298.2175 253.9408,298.4751 247.9383,298.7436 241.936,299.0229 235.9342,299.313 229.9328,299.614 223.9318,299.9257 217.9312,300.2483 211.9311,300.5817 205.9315,300.9259 199.9324,301.2809 193.9337,301.6467 187.9356,302.0234 181.938,302.4109 175.9409,302.8091 169.9444,303.2182 163.9484,303.6382 157.9531,304.0689 151.9583,304.5104 145.9642,304.9628 139.9707,305.426 133.9779,305.9 127.9857,306.3848 121.9942,306.8804 116.0033,307.3868 110.0132,307.9041 104.0238,308.4321 98.0352,308.971 92.0473,309.5207 86.0602,310.0812 80.0738,310.6526" stroke="silver" stroke-opacity="0.5" stroke-width="1" /><polyline fill="none" points="727.9478,227.1496 724.0203,226.7757 717.883,226.2006 711.745,225.6364 705.6062,225.0833 699.4667,224.5412 693.3264,224.0101 687.1854,223.49 681.0437,222.981 674.9013,222.483 668.7583,221.996 662.6146,221.52 656.4702,221.0551 650.3253,220.6011 644.1797,220.1582 638.0335,219.7263 631.8868,219.3055 625.7395,218.8956 619.5916,218.4968 613.4432,218.109 607.2943,217.7323 601.1449,217.3665 594.995,217.0118 588.8446,216.6681 582.6938,216.3354 576.5425,216.0138 570.3908,215.7031 564.2387,215.4035 558.0862,215.1149 551.9333,214.8374 545.78,214.5708 539.6264,214.3153 533.4724,214.0708 527.3181,213.8373 521.1635,213.6149 515.0086,213.4035 508.8534,213.2031 502.698,213.0137 496.5423,212.8353 490.3864,212.668 484.2302,212.5117 478.0739,212.3664 471.9173,212.2321 465.7606,212.1089 459.6038,211.9967 453.4467,211.8955 447.2896,211.8053 441.1323,211.7262 434.975,211.658 428.8175,211.6009 422.66,211.5549 416.5024,211.5198 410.3448,211.4958 404.1872,211.4828 398.0296,211.4808 391.8719,211.4898 385.7143,211.5099 379.5567,211.541 373.3992,211.5831 367.2417,211.6362 361.0843,211.7004 354.927,211.7755 348.7698,211.8617 342.6128,211.959 336.4558,212.0672 330.2991,212.1865 324.1425,212.3168 317.986,212.4581 311.8298,212.6104 305.6738,212.7738 299.518,212.9482 293.3625,213.1336 287.2072,213.33 281.0522,213.5375 274.8975,213.756 268.7431,213.9855 262.589,214.226 256.4353,214.4776 250.2819,214.7401 244.1288,215.0137 237.9762,215.2984 231.8239,215.594 225.672,215.9007 219.5206,216.2183 213.3696,216.5471 207.2191,216.8868 201.069,217.2375 194.9194,217.5993 188.7703,217.9721 182.6217,218.356 176.4737,218.7508 170.3262,219.1567 164.1792,219.5736 158.0328,220.0015 151.8871,220.4404 145.7419,220.8904 139.5973,221.3514 133.4534,221.8234 127.3101,222.3064 121.1675,222.8004 115.0255,223.3055 108.8843,223.8216 102.7438,224.3487 96.604,224.8868 90.4649,225.436 84.3266,225.9962 78.189,226.5674 72.0522,227.1496" stroke="silver" stroke-opacity="0.5" stroke-width="1" /><polyline fill="none" points="735.9252,143.6113 731.902,143.2306 725.6152,142.6449 719.3275,142.0704 713.0391,141.5071 706.7499,140.9551 700.46,140.4143 694.1694,139.8848 687.8781,139.3664 681.5861,138.8593 675.2935,138.3634 669.0002,137.8787 662.7062,137.4053 656.4117,136.9431 650.1165,136.4921 643.8207,136.0523 637.5243,135.6237 631.2274,135.2064 624.9299,134.8003 618.6319,134.4054 612.3334,134.0218 606.0344,133.6494 599.7349,133.2882 593.4349,132.9382 587.1344,132.5994 580.8335,132.2719 574.5322,131.9556 568.2305,131.6505 561.9283,131.3567 555.6258,131.074 549.3229,130.8026 543.0197,130.5424 536.7161,130.2935 530.4122,130.0557 524.108,129.8292 517.8035,129.6139 511.4987,129.4099 505.1936,129.2171 498.8883,129.0354 492.5828,128.8651 486.277,128.7059 479.971,128.558 473.6649,128.4212 467.3585,128.2958 461.0521,128.1815 454.7454,128.0784 448.4387,127.9866 442.1318,127.906 435.8248,127.8367 429.5177,127.7785 423.2106,127.7316 416.9034,127.6959 410.5962,127.6714 404.2889,127.6582 397.9817,127.6562 391.6744,127.6654 385.3672,127.6858 379.06,127.7175 372.7528,127.7603 366.4457,127.8144 360.1387,127.8798 353.8318,127.9563 347.525,128.0441 341.2183,128.1431 334.9118,128.2533 328.6054,128.3748 322.2992,128.5074 315.9931,128.6513 309.6873,128.8065 303.3817,128.9728 297.0763,129.1504 290.7711,129.3392 284.4662,129.5392 278.1616,129.7504 271.8573,129.9729 265.5533,130.2066 259.2496,130.4515 252.9462,130.7077 246.6432,130.975 240.3405,131.2536 234.0383,131.5434 227.7364,131.8445 221.4349,132.1567 215.1338,132.4802 208.8332,132.8149 202.5331,133.1609 196.2334,133.518 189.9342,133.8864 183.6355,134.266 177.3373,134.6569 171.0396,135.0589 164.7425,135.4722 158.4459,135.8967 152.1499,136.3324 145.8545,136.7794 139.5597,137.2376 133.2656,137.707 126.972,138.1876 120.6791,138.6795 114.3869,139.1826 108.0954,139.6969 101.8045,140.2224 95.5143,140.7591 89.2249,141.3071 82.9362,141.8663 76.6483,142.4368 70.3612,143.0184 64.0748,143.6113" stroke="silver" stroke-opacity="0.5" stroke-width="1" /><line fill="none" stroke="green" stroke-opacity="0.5" stroke-width="1.5" x1="383.8866" x2="69.3152" y1="584.7224" y2="181.0274" /><circle cx="681.5163" cy="663.7186" fill="black" r="0.738" stroke="none" /><circle cx="679.5789" cy="612.7929" fill="black" r="0.738" stroke="none" /><circle cx="684.8156" cy="530.1351" fill="black" r="0.738" stroke="none" /><circle cx="697.5605" cy="323.5613" fill="black" r="0.738" stroke="none" /><circle cx="657.5421" cy="713.214" fill="black" r="0.738" stroke="none" /><circle cx="696.2446" cy="281.3453" fill="black" r="0.738" stroke="none" /><circle cx="674.0101" cy="489.8306" fill="black" r="0.738" stroke="none" /><circle cx="664.2057" cy="554.6282" fill="black" r="0.738" stroke="none" /><circle cx="692.6116" cy="217.2982" fill="black" r="0.738" stroke="none" /><circle cx="683.3451" cy="317.2622" fill="black" r="0.738" stroke="none" /><circle cx="655.8191" cy="622.426" fill="black" r="0.738" stroke="none" /><circle cx="672.5446" cy="397.7169" fill="black" r="0.738" stroke="none" /><circle cx="685.2421" cy="122.9887" fill="black" r="0.738" stroke="none" /><circle cx="638.6028" cy="439.1507" fill="black" r="0.738" stroke="none" /><circle cx="636.0851" cy="470.6544" fill="black" r="0.738" stroke="none" /><circle cx="632.2145" cy="512.2299" fill="black" r="0.738" stroke="none" /><circle cx="620.1356" cy="608.6066" fill="black" r="0.738" stroke="none" /><circle cx="622.5036" cy="564.2185" fill="black" r="0.738" stroke="none" /><circle cx="647.0742" cy="209.4352" fill="black" r="0.738" stroke="none" /><circle cx="645.223" cy="178.0255" fill="black" r="0.738" stroke="none" /><circle cx="645.5584" cy="122.6327" fill="black" r="0.738" stroke="none" /><circle cx="622.3579" cy="348.4838" fill="black" r="0.738" stroke="none" /><circle cx="621.0256" cy="344.2768" fill="black" r="0.738" stroke="none" /><circle cx="592.1973" cy="643.0457" fill="black" r="0.738" stroke="none" /><circle cx="608.0538" cy="296.8151" fill="black" r="0.738" stroke="none" /><circle cx="582.5609" cy="693.186" fill="black" r="0.738" stroke="none" /><circle cx="592.1484" cy="534.7446" fill="black" r="0.738" stroke="none" /><circle cx="590.3747" cy="447.2992" fill="black" r="0.738" stroke="none" /><circle cx="584.1791" cy="485.0469" fill="black" r="0.738" stroke="none" /><circle cx="569.0362" cy="705.882" fill="black" r="0.738" stroke="none" /><circle cx="601.3996" cy="138.6753" fill="black" r="0.738" stroke="none" /><circle cx="571.5267" cy="540.9011" fill="black" r="0.738" stroke="none" /><circle cx="594.525" cy="116.701" fill="black" r="0.738" stroke="none" /><circle cx="566.8056" cy="579.1725" fill="black" r="0.738" stroke="none" /><circle cx="581.0295" cy="311.3554" fill="black" r="0.738" stroke="none" /><circle cx="577.5946" cy="350.785" fill="black" r="0.738" stroke="none" /><circle cx="560.88" cy="537.9684" fill="black" r="0.738" stroke="none" /><circle cx="576.8699" cy="203.8582" fill="black" r="0.738" stroke="none" /><circle cx="567.5633" cy="164.6128" fill="black" r="0.738" stroke="none" /><circle cx="558.4027" cy="216.8079" fill="black" r="0.738" stroke="none" /><circle cx="546.7038" cy="380.9603" fill="black" r="0.738" stroke="none" /><circle cx="532.8511" cy="649.4741" fill="black" r="0.738" stroke="none" /><circle cx="544.7812" cy="349.1673" fill="black" r="0.738" stroke="none" /><circle cx="539.4728" cy="261.1184" fill="black" r="0.738" stroke="none" /><circle cx="522.21" cy="670.3242" fill="black" r="0.738" stroke="none" /><circle cx="539.701" cy="214.9056" fill="black" r="0.738" stroke="none" /><circle cx="527.4454" cy="448.907" fill="black" r="0.738" stroke="none" /><circle cx="540.076" cy="105.1615" fill="black" r="0.738" stroke="none" /><circle cx="514.2202" cy="602.2029" fill="black" r="0.738" stroke="none" /><circle cx="511.9979" cy="524.8738" fill="black" r="0.738" stroke="none" /><circle cx="512.0351" cy="200.2223" fill="black" r="0.738" stroke="none" /><circle cx="485.1936" cy="681.8269" fill="black" r="0.738" stroke="none" /><circle cx="493.5394" cy="388.6238" fill="black" r="0.738" stroke="none" /><circle cx="496.4061" cy="277.8075" fill="black" r="0.738" stroke="none" /><circle cx="486.0177" cy="460.1591" fill="black" r="0.738" stroke="none" /><circle cx="471.8103" cy="558.1162" fill="black" r="0.738" stroke="none" /><circle cx="469.9739" cy="572.3238" fill="black" r="0.738" stroke="none" /><circle cx="468.2544" cy="539.09" fill="black" r="0.738" stroke="none" /><circle cx="466.3751" cy="91.4578" fill="black" r="0.738" stroke="none" /><circle cx="459.8319" cy="254.9151" fill="black" r="0.738" stroke="none" /><circle cx="454.0299" cy="522.4614" fill="black" r="0.738" stroke="none" /><circle cx="450.8572" cy="628.2704" fill="black" r="0.738" stroke="none" /><circle cx="448.1989" cy="650.4435" fill="black" r="0.738" stroke="none" /><circle cx="450.3536" cy="277.0527" fill="black" r="0.738" stroke="none" /><circle cx="452.1272" cy="103.4678" fill="black" r="0.738" stroke="none" /><circle cx="444.1909" cy="180.4146" fill="black" r="0.738" stroke="none" /><circle cx="430.0698" cy="624.2112" fill="black" r="0.738" stroke="none" /><circle cx="431.9454" cy="326.5144" fill="black" r="0.738" stroke="none" /><circle cx="430.5385" cy="399.4751" fill="black" r="0.738" stroke="none" /><circle cx="422.5766" cy="501.7065" fill="black" r="0.738" stroke="none" /><circle cx="420.5906" cy="411.6275" fill="black" r="0.738" stroke="none" /><circle cx="408.1212" cy="150.6365" fill="black" r="0.738" stroke="none" /><circle cx="406.9876" cy="439.3826" fill="black" r="0.738" stroke="none" /><circle cx="405.3441" cy="258.748" fill="black" r="0.738" stroke="none" /><circle cx="403.0277" cy="397.4882" fill="black" r="0.738" stroke="none" /><circle cx="395.7281" cy="689.7879" fill="black" r="0.738" stroke="none" /><circle cx="393.7974" cy="344.4619" fill="black" r="0.738" stroke="none" /><circle cx="386.7655" cy="177.0577" fill="black" r="0.738" stroke="none" /><circle cx="384.3352" cy="87.7754" fill="black" r="0.738" stroke="none" /><circle cx="383.8646" cy="584.7083" fill="black" r="1.854" stroke="none" /><circle cx="381.7263" cy="248.57" fill="black" r="0.738" stroke="none" /><circle cx="377.0482" cy="535.6448" fill="black" r="0.738" stroke="none" /><circle cx="374.5011" cy="441.3209" fill="black" r="0.738" stroke="none" /><circle cx="372.0704" cy="709.8805" fill="black" r="0.738" stroke="none" /><circle cx="368.3232" cy="510.7522" fill="black" r="0.738" stroke="none" /><circle cx="366.07" cy="314.0499" fill="black" r="0.738" stroke="none" /><circle cx="366.7617" cy="653.5873" fill="black" r="0.738" stroke="none" /><circle cx="359.8397" cy="163.432" fill="black" r="0.738" stroke="none" /><circle cx="358.3466" cy="664.1768" fill="black" r="0.738" stroke="none" /><circle cx="356.1553" cy="560.9323" fill="black" r="0.738" stroke="none" /><circle cx="356.5349" cy="637.1219" fill="black" r="0.738" stroke="none" /><circle cx="345.12" cy="375.3323" fill="black" r="0.738" stroke="none" /><circle cx="341.7673" cy="374.134" fill="black" r="0.738" stroke="none" /><circle cx="336.631" cy="242.6587" fill="black" r="0.738" stroke="none" /><circle cx="338.6888" cy="362.7109" fill="black" r="0.738" stroke="none" /><circle cx="324.2038" cy="190.3501" fill="black" r="0.738" stroke="none" /><circle cx="333.3372" cy="619.3641" fill="black" r="0.738" stroke="none" /><circle cx="329.1904" cy="610.9925" fill="black" r="0.738" stroke="none" /><circle cx="317.3718" cy="165.6865" fill="black" r="0.738" stroke="none" /><circle cx="313.3301" cy="289.6965" fill="black" r="0.738" stroke="none" /><circle cx="308.494" cy="190.8131" fill="black" r="0.936" stroke="none" /><circle cx="316.933" cy="520.1783" fill="black" r="0.738" stroke="none" /><circle cx="313.1992" cy="567.9008" fill="black" r="0.738" stroke="none" /><circle cx="309.1741" cy="515.5364" fill="black" r="0.738" stroke="none" /><circle cx="285.8298" cy="163.6383" fill="black" r="0.738" stroke="none" /><circle cx="286.9498" cy="374.913" fill="black" r="0.738" stroke="none" /><circle cx="276.0733" cy="110.3553" fill="black" r="0.738" stroke="none" /><circle cx="292.0683" cy="590.2244" fill="black" r="0.738" stroke="none" /><circle cx="287.0656" cy="461.7681" fill="black" r="0.738" stroke="none" /><circle cx="271.2175" cy="120.6816" fill="black" r="0.738" stroke="none" /><circle cx="280.469" cy="392.6696" fill="black" r="0.738" stroke="none" /><circle cx="267.0562" cy="246.5125" fill="black" r="0.738" stroke="none" /><circle cx="278.5666" cy="627.3249" fill="black" r="0.738" stroke="none" /><circle cx="263.8891" cy="326.2344" fill="black" r="0.738" stroke="none" /><circle cx="262.7806" cy="392.1176" fill="black" r="0.738" stroke="none" /><circle cx="256.1312" cy="275.4796" fill="black" r="1.17" stroke="none" /><circle cx="269.0084" cy="644.9413" fill="black" r="0.738" stroke="none" /><circle cx="260.5776" cy="527.764" fill="black" r="0.738" stroke="none" /><circle cx="257.5556" cy="515.7383" fill="black" r="0.738" stroke="none" /><circle cx="255.419" cy="478.5049" fill="black" r="0.738" stroke="none" /><circle cx="238.7021" cy="124.1079" fill="black" r="0.738" stroke="none" /><circle cx="241.6652" cy="295.3441" fill="black" r="0.738" stroke="none" /><circle cx="251.0608" cy="638.416" fill="black" r="0.738" stroke="none" /><circle cx="241.0342" cy="469.5565" fill="black" r="0.738" stroke="none" /><circle cx="243.8002" cy="531.6817" fill="black" r="0.738" stroke="none" /><circle cx="252.4995" cy="717.4491" fill="black" r="0.936" stroke="none" /><circle cx="222.2869" cy="234.2902" fill="black" r="0.936" stroke="none" /><circle cx="232.4455" cy="436.772" fill="black" r="0.738" stroke="none" /><circle cx="223.1207" cy="278.1462" fill="black" r="0.738" stroke="none" /><circle cx="210.2924" cy="155.1616" fill="black" r="0.738" stroke="none" /><circle cx="227.702" cy="579.4839" fill="black" r="0.738" stroke="none" /><circle cx="212.4163" cy="325.2353" fill="black" r="0.738" stroke="none" /><circle cx="222.5155" cy="540.5718" fill="black" r="0.738" stroke="none" /><circle cx="193.1796" cy="136.636" fill="black" r="0.738" stroke="none" /><circle cx="190.107" cy="138.4976" fill="black" r="0.738" stroke="none" /><circle cx="197.7921" cy="280.164" fill="black" r="0.738" stroke="none" /><circle cx="189.1798" cy="193.0808" fill="black" r="0.738" stroke="none" /><circle cx="218.0339" cy="670.3713" fill="black" r="0.738" stroke="none" /><circle cx="192.6521" cy="265.9476" fill="black" r="0.738" stroke="none" /><circle cx="189.4562" cy="429.3459" fill="black" r="0.738" stroke="none" /><circle cx="190.7828" cy="522.2575" fill="black" r="0.738" stroke="none" /><circle cx="157.3585" cy="303.1875" fill="black" r="0.738" stroke="none" /><circle cx="156.8191" cy="409.4007" fill="black" r="0.738" stroke="none" /><circle cx="171.1399" cy="599.3441" fill="black" r="0.738" stroke="none" /><circle cx="176.7845" cy="698.6023" fill="black" r="0.738" stroke="none" /><circle cx="150.718" cy="376.9097" fill="black" r="0.738" stroke="none" /><circle cx="169.1062" cy="665.7996" fill="black" r="0.738" stroke="none" /><circle cx="162.8442" cy="634.157" fill="black" r="0.738" stroke="none" /><circle cx="146.5209" cy="436.0193" fill="black" r="0.738" stroke="none" /><circle cx="149.6456" cy="525.9371" fill="black" r="0.936" stroke="none" /><circle cx="115.053" cy="107.558" fill="black" r="0.738" stroke="none" /><circle cx="119.1179" cy="160.9403" fill="black" r="1.17" stroke="none" /><circle cx="151.568" cy="599.6563" fill="black" r="0.738" stroke="none" /><circle cx="121.9022" cy="294.771" fill="black" r="0.738" stroke="none" /><circle cx="108.7772" cy="139.9774" fill="black" r="0.738" stroke="none" /><circle cx="125.5078" cy="416.5645" fill="black" r="0.738" stroke="none" /><circle cx="104.3892" cy="225.6377" fill="black" r="0.738" stroke="none" /><circle cx="128.7464" cy="520.9862" fill="black" r="0.738" stroke="none" /><circle cx="143.5594" cy="710.4175" fill="black" r="0.738" stroke="none" /><circle cx="101.5055" cy="319.6038" fill="black" r="0.738" stroke="none" /><circle cx="110.551" cy="478.4321" fill="black" r="0.738" stroke="none" /><circle cx="81.1728" cy="244.151" fill="black" r="0.738" stroke="none" /><circle cx="74.4529" cy="194.2204" fill="black" r="0.738" stroke="none" /><circle cx="81.2761" cy="273.3787" fill="black" r="0.738" stroke="none" /><circle cx="69.2931" cy="180.9688" fill="black" r="1.476" stroke="none" /><circle cx="13.77" cy="786.23" fill="black" r="4.59" stroke="none" /><circle cx="13.77" cy="786.23" fill="black" r="4.59" stroke="none" /><text fill="black" font-family="monospace" font-size="12" x="10.77" y="775.64">1</text><circle cx="37.77" cy="786.23" fill="black" r="3.654" stroke="none" /><circle cx="37.77" cy="786.23" fill="black" r="3.654" stroke="none" /><text fill="black" font-family="monospace" font-size="12" x="34.769999999999996" y="775.64">2</text><circle cx="61.77" cy="786.23" fill="black" r="2.916" stroke="none" /><circle cx="61.77" cy="786.23" fill="black" r="2.916" stroke="none" /><text fill="black" font-family="monospace" font-size="12" x="58.769999999999996" y="775.64">3</text><circle cx="85.77" cy="786.23" fill="black" r="2.322" stroke="none" /><circle cx="85.77" cy="786.23" fill="black" r="2.322" stroke="none" /><text fill="black" font-family="monospace" font-size="12" x="82.77" y="775.64">4</text><circle cx="109.77" cy="786.23" fill="black" r="1.854" stroke="none" /><circle cx="109.77" cy="786.23" fill="black" r="1.854" stroke="none" /><text fill="black" font-family="monospace" font-size="12" x="106.77" y="775.64">5</text><circle cx="133.77" cy="786.23" fill="black" r="1.476" stroke="none" /><circle cx="133.77" cy="786.23" fill="black" r="1.476" stroke="none" /><text fill="black" font-family="monospace" font-size="12" x="130.77" y="775.64">6</text><circle cx="157.77" cy="786.23" fill="black" r="1.17" stroke="none" /><circle cx="157.77" cy="786.23" fill="black" r="1.17" stroke="none" /><text fill="black" font-family="monospace" font-size="12" x="154.77" y="775.64">7</text><circle cx="181.77" cy="786.23" fill="black" r="0.936" stroke="none" /><circle cx="181.77" cy="786.23" fill="black" r="0.936" stroke="none" /><text fill="black" font-family="monospace" font-size="12" x="178.77" y="775.64">8</text><circle cx="205.77" cy="786.23" fill="black" r="0.738" stroke="none" /><circle cx="205.77" cy="786.23" fill="black" r="0.738" stroke="none" /><text fill="black" font-family="monospace" font-size="12" x="202.77" y="775.64">9</text><text fill="gray" fill-opacity="0.5" font-family="monospace" font-size="12" x="697.6472646334582" y="98.0654653516508">20h30m</text><text fill="gray" fill-opacity="0.5" font-family="monospace" font-size="12" x="570.2182081358848" y="89.75861470803483">20h40m</text><text fill="gray" fill-opacity="0.5" font-family="monospace" font-size="12" x="442.62945891813456" y="85.9811744913149">20h50m</text><text fill="gray" fill-opacity="0.5" font-family="monospace" font-size="12" x="315.00075584712386" y="86.73303662152028">21h00m</text><text fill="gray" fill-opacity="0.5" font-family="monospace" font-size="12" x="187.45173282138194" y="92.01422306623141">21h10m</text><text fill="gray" fill-opacity="0.5" font-family="monospace" font-size="12" x="60.10223302528658" y="101.8248817504628">21h20m</text><text fill="gray" fill-opacity="0.5" font-family="monospace" font-size="12" x="120.88554745457094" y="728.0805054192733">-60°</text><text fill="gray" fill-opacity="0.5" font-family="monospace" font-size="12" x="112.625189597982" y="644.5642270163122">-59°</text><text fill="gray" fill-opacity="0.5" font-family="monospace" font-size="12" x="104.41511476926985" y="561.075974707916">-58°</text><text fill="gray" fill-opacity="0.5" font-family="monospace" font-size="12" x="96.25403062470872" y="477.6030633254498">-57°</text><text fill="gray" fill-opacity="0.5" font-family="monospace" font-size="12" x="88.14067464645746" y="394.13281699646683">-56°</text><text fill="gray" fill-opacity="0.5" font-family="monospace" font-size="12" x="80.07381335554459" y="310.6525614559365">-55°</text><text fill="gray" fill-opacity="0.5" font-family="monospace" font-size="12" x="72.05224156238444" y="227.14961635953728">-54°</text><text fill="gray" fill-opacity="0.5" font-family="monospace" font-size="12" x="64.07478165385675" y="143.61128758909246">-53°</text><text fill="black" font-family="monospace" font-size="12" x="12" y="48">&gt;&gt; No.114 20h27m 21h20m -60.0°-52.5°</text><a target="_self" xlink:href="hip005.svg"><text fill="black" font-family="monospace" font-size="12" x="12" y="36">&gt; No.5 16h00m 24h00m -90.0°-52.5°</text></a><a target="_self" xlink:href="hip001.svg"><text fill="black" font-family="monospace" font-size="12" x="12" y="24">No.1 00h 24h -90.0°+0.0°</text></a><polyline fill="none" points="739.8978,101.8249 735.8269,101.4408 729.4655,100.8499 723.1033,100.2704 716.7404,99.7022 710.3768,99.1453 704.0124,98.5997 697.6473,98.0655 691.2815,97.5425 684.915,97.031 678.5478,96.5307 672.18,96.0417 665.8115,95.5641 659.4425,95.0978 653.0728,94.6428 646.7025,94.1992 640.3316,93.7669 633.9602,93.3459 627.5882,92.9362 621.2157,92.5378 614.8427,92.1508 608.4691,91.7751 602.0951,91.4107 595.7206,91.0576 589.3457,90.7159 582.9703,90.3855 576.5945,90.0664 570.2182,89.7586 563.8416,89.4622 557.4645,89.177 551.0871,88.9033 544.7094,88.6408 538.3313,88.3896 531.9529,88.1498 525.5742,87.9213 519.1952,87.7041 512.8159,87.4983 506.4363,87.3037 500.0565,87.1205 493.6765,86.9486 487.2962,86.7881 480.9157,86.6388 474.5351,86.5009 468.1542,86.3743 461.7732,86.259 455.3921,86.1551 449.0108,86.0625 442.6295,85.9812 436.248,85.9112 429.8664,85.8525 423.4848,85.8052 417.1031,85.7692 410.7214,85.7445 404.3396,85.7312 397.9578,85.7291 391.5761,85.7384 385.1943,85.759 378.8126,85.7909 372.431,85.8342 366.0494,85.8888 359.6679,85.9547 353.2864,86.0319 346.9051,86.1205 340.524,86.2203 334.1429,86.3315 327.762,86.454 321.3813,86.5879 315.0008,86.733 308.6204,86.8895 302.2403,87.0573 295.8604,87.2365 289.4807,87.4269 283.1014,87.6287 276.7222,87.8418 270.3434,88.0662 263.9649,88.302 257.5867,88.5491 251.2088,88.8075 244.8313,89.0772 238.4541,89.3582 232.0773,89.6506 225.7009,89.9543 219.325,90.2693 212.9494,90.5956 206.5743,90.9333 200.1996,91.2823 193.8254,91.6426 187.4517,92.0142 181.0785,92.3972 174.7058,92.7915 168.3337,93.1971 161.962,93.614 155.591,94.0422 149.2205,94.4818 142.8506,94.9327 136.4813,95.3949 130.1126,95.8685 123.7445,96.3534 117.3771,96.8495 111.0104,97.3571 104.6443,97.8759 98.279,98.4061 91.9143,98.9476 85.5504,99.5004 79.1872,100.0645 72.8248,100.64 66.4631,101.2268 60.1022,101.8249" stroke="black" stroke-opacity="0.5" stroke-width="1" /><polyline fill="none" points="679.1145,728.0805 680.1498,717.639 681.1843,707.1981 682.2181,696.7578 683.251,686.3181 684.2831,675.8789 685.3145,665.4402 686.345,655.002 687.3748,644.5642 688.4038,634.1269 689.432,623.69 690.4594,613.2535 691.4861,602.8174 692.5119,592.3816 693.537,581.9461 694.5613,571.5109 695.5849,561.076 696.6077,550.6413 697.6297,540.2068 698.651,529.7725 699.6715,519.3384 700.6912,508.9044 701.7102,498.4705 702.7285,488.0368 703.746,477.6031 704.7627,467.1694 705.7787,456.7357 706.794,446.3021 707.8085,435.8684 708.8223,425.4347 709.8354,415.0008 710.8477,404.5669 711.8593,394.1328 712.8702,383.6986 713.8804,373.2642 714.8898,362.8296 715.8985,352.3947 716.9065,341.9596 717.9138,331.5243 718.9203,321.0886 719.9262,310.6526 720.9313,300.2162 721.9358,289.7794 722.9395,279.3423 723.9426,268.9047 724.9449,258.4667 725.9465,248.0282 726.9475,237.5892 727.9478,227.1496 728.9473,216.7095 729.9462,206.2688 730.9444,195.8276 731.9419,185.3857 732.9388,174.9431 733.9349,164.4999 734.9304,154.0559 735.9252,143.6113 736.9194,133.1659 737.9128,122.7197 738.9056,112.2727 739.8978,101.8249" stroke="black" stroke-opacity="0.5" stroke-width="1" /><polyline fill="none" points="679.1145,728.0805 675.7729,727.7511 670.5511,727.2442 665.3286,726.7471 660.1053,726.2598 654.8813,725.7821 649.6566,725.3141 644.4312,724.8558 639.2051,724.4072 633.9784,723.9684 628.751,723.5392 623.523,723.1198 618.2943,722.7101 613.065,722.31 607.8352,721.9197 602.6048,721.5391 597.3738,721.1682 592.1422,720.8071 586.9101,720.4556 581.6775,720.1138 576.4444,719.7818 571.2109,719.4594 565.9768,719.1468 560.7423,718.8439 555.5073,718.5507 550.2719,718.2672 545.0361,717.9934 539.7998,717.7294 534.5632,717.475 529.3262,717.2304 524.0889,716.9955 518.8512,716.7703 513.6132,716.5548 508.3748,716.349 503.1362,716.153 497.8973,715.9666 492.6581,715.79 487.4186,715.6231 482.1789,715.4659 476.939,715.3184 471.6989,715.1806 466.4585,715.0525 461.218,714.9342 455.9773,714.8256 450.7365,714.7267 445.4955,714.6375 440.2544,714.558 435.0132,714.4882 429.7718,714.4282 424.5304,714.3779 419.289,714.3373 414.0474,714.3064 408.8059,714.2852 403.5643,714.2737 398.3227,714.272 393.0811,714.2799 387.8395,714.2976 382.598,714.325 377.3565,714.3621 372.1151,714.409 366.8737,714.4655 361.6324,714.5318 356.3913,714.6077 351.1503,714.6934 345.9094,714.7889 340.6686,714.894 335.428,715.0088 330.1876,715.1334 324.9474,715.2677 319.7074,715.4116 314.4676,715.5654 309.2281,715.7288 303.9888,715.9019 298.7498,716.0848 293.511,716.2773 288.2726,716.4796 283.0345,716.6916 277.7966,716.9133 272.5592,717.1447 267.3221,717.3859 262.0853,717.6367 256.8489,717.8973 251.613,718.1675 246.3774,718.4475 241.1423,718.7372 235.9076,719.0367 230.6734,719.3458 225.4396,719.6646 220.2063,719.9932 214.9735,720.3314 209.7413,720.6794 204.5095,721.0371 199.2783,721.4045 194.0477,721.7816 188.8176,722.1684 183.5882,722.5649 178.3593,722.9712 173.131,723.3871 167.9034,723.8128 162.6764,724.2481 157.4501,724.6932 152.2245,725.148 146.9995,725.6125 141.7752,726.0867 136.5517,726.5706 131.3289,727.0642 126.1068,727.5675 120.8855,728.0805" stroke="black" stroke-opacity="0.5" stroke-width="1" /><polyline fill="none" points="120.8855,728.0805 119.8502,717.639 118.8157,707.1981 117.7819,696.7578 116.749,686.3181 115.7169,675.8789 114.6855,665.4402 113.655,655.002 112.6252,644.5642 111.5962,634.1269 110.568,623.69 109.5406,613.2535 108.5139,602.8174 107.4881,592.3816 106.463,581.9461 105.4387,571.5109 104.4151,561.076 103.3923,550.6413 102.3703,540.2068 101.349,529.7725 100.3285,519.3384 99.3088,508.9044 98.2898,498.4705 97.2715,488.0368 96.254,477.6031 95.2373,467.1694 94.2213,456.7357 93.206,446.3021 92.1915,435.8684 91.1777,425.4347 90.1646,415.0008 89.1523,404.5669 88.1407,394.1328 87.1298,383.6986 86.1196,373.2642 85.1102,362.8296 84.1015,352.3947 83.0935,341.9596 82.0862,331.5243 81.0797,321.0886 80.0738,310.6526 79.0687,300.2162 78.0642,289.7794 77.0605,279.3423 76.0574,268.9047 75.0551,258.4667 74.0535,248.0282 73.0525,237.5892 72.0522,227.1496 71.0527,216.7095 70.0538,206.2688 69.0556,195.8276 68.0581,185.3857 67.0612,174.9431 66.0651,164.4999 65.0696,154.0559 64.0748,143.6113 63.0806,133.1659 62.0872,122.7197 61.0944,112.2727 60.1022,101.8249" stroke="black" stroke-opacity="0.5" stroke-width="1" /></svg>