<?xml version="1.0" encoding="utf-8" ?>
<svg baseProfile="tiny" height="800" version="1.2" width="800" xmlns="http://www.w3.org/2000/svg" xmlns:ev="http://www.w3.org/2001/xml-events" xmlns:xlink="http://www.w3.org/1999/xlink"><defs /><rect fill="none" height="800" stroke="black" stroke-width="2" width="800" x="0" y="0" /><polyline fill="none" points="637.5795,730.4373 637.8617,719.515 638.1432,708.5934 638.4241,697.6725 638.7045,686.7522 638.9842,675.8326 639.2633,664.9137 639.5418,653.9953 639.8198,643.0776 640.0971,632.1603 640.3738,621.2436 640.6499,610.3274 640.9255,599.4117 641.2004,588.4964 641.4747,577.5815 641.7485,566.6671 642.0216,555.7529 642.2941,544.8392 642.5661,533.9257 642.8375,523.0126 643.1082,512.0997 643.3784,501.187 643.648,490.2746 643.917,479.3623 644.1854,468.4502 644.4532,457.5382 644.7205,446.6264 644.9871,435.7146 645.2532,424.8029 645.5186,413.8912 645.7835,402.9795 646.0478,392.0678 646.3115,381.156 646.5747,370.2442 646.8372,359.3323 647.0992,348.4202 647.3606,337.508 647.6214,326.5957 647.8816,315.6831 648.1412,304.7703 648.4003,293.8572 648.6588,282.9439 648.9167,272.0302 649.174,261.1162 649.4308,250.2019 649.6869,239.2872 649.9425,228.372 650.1976,217.4565 650.452,206.5404 650.7059,195.6239 650.9592,184.7069 651.2119,173.7893 651.4641,162.8711 651.7156,151.9524 651.9666,141.0331 652.2171,130.1131 652.4669,119.1924 652.7162,108.271 652.965,97.3489 653.2131,86.4261 653.4607,75.5025" stroke="silver" stroke-opacity="0.5" stroke-width="1" /><polyline fill="none" points="542.9941,728.4786 543.1638,717.558 543.3332,706.6381 543.5023,695.719 543.6709,684.8005 543.8392,673.8827 544.0072,662.9656 544.1747,652.0491 544.3419,641.1332 544.5088,630.2178 544.6753,619.303 544.8414,608.3886 545.0072,597.4748 545.1726,586.5614 545.3376,575.6485 545.5023,564.736 545.6667,553.8238 545.8307,542.912 545.9943,532.0005 546.1575,521.0894 546.3204,510.1785 546.483,499.2679 546.6452,488.3575 546.807,477.4473 546.9685,466.5372 547.1296,455.6273 547.2904,444.7176 547.4509,433.8079 547.6109,422.8983 547.7706,411.9888 547.93,401.0792 548.089,390.1697 548.2477,379.2601 548.406,368.3505 548.5639,357.4407 548.7216,346.5309 548.8788,335.6209 549.0357,324.7108 549.1923,313.8005 549.3485,302.89 549.5044,291.9792 549.6599,281.0681 549.815,270.1568 549.9699,259.2451 550.1243,248.3331 550.2784,237.4208 550.4322,226.508 550.5856,215.5948 550.7387,204.6811 550.8915,193.767 551.0439,182.8524 551.1959,171.9373 551.3476,161.0216 551.499,150.1053 551.65,139.1884 551.8007,128.2709 551.951,117.3527 552.101,106.4339 552.2506,95.5143 552.3999,84.594 552.5488,73.6729" stroke="silver" stroke-opacity="0.5" stroke-width="1" /><polyline fill="none" points="448.42,727.4937 448.4775,716.5739 448.5348,705.655 448.592,694.7367 448.6491,683.8192 448.7061,672.9023 448.763,661.9861 448.8197,651.0705 448.8763,640.1555 448.9328,629.241 448.9892,618.3271 449.0454,607.4138 449.1015,596.5009 449.1575,585.5885 449.2134,574.6765 449.2692,563.765 449.3248,552.8538 449.3803,541.943 449.4357,531.0325 449.491,520.1224 449.5461,509.2125 449.6012,498.3029 449.6561,487.3935 449.7109,476.4843 449.7655,465.5753 449.8201,454.6665 449.8745,443.7578 449.9288,432.8492 449.983,421.9407 450.0371,411.0322 450.091,400.1237 450.1449,389.2153 450.1986,378.3068 450.2522,367.3983 450.3057,356.4897 450.359,345.5809 450.4123,334.6721 450.4654,323.7631 450.5184,312.8539 450.5713,301.9445 450.624,291.0349 450.6767,280.125 450.7292,269.2148 450.7816,258.3043 450.8339,247.3935 450.8861,236.4823 450.9382,225.5707 450.9901,214.6587 451.0419,203.7463 451.0936,192.8334 451.1452,181.92 451.1967,171.0061 451.2481,160.0916 451.2993,149.1765 451.3504,138.2609 451.4014,127.3446 451.4523,116.4277 451.5031,105.5101 451.5538,94.5918 451.6043,83.6728 451.6547,72.753" stroke="silver" stroke-opacity="0.5" stroke-width="1" /><polyline fill="none" points="353.8497,727.482 353.7949,716.5623 353.7403,705.6433 353.6857,694.7251 353.6313,683.8075 353.577,672.8907 353.5228,661.9745 353.4687,651.0589 353.4148,640.1439 353.3609,629.2295 353.3072,618.3156 353.2536,607.4022 353.2001,596.4894 353.1468,585.577 353.0935,574.665 353.0404,563.7535 352.9873,552.8423 352.9344,541.9315 352.8816,531.0211 352.8289,520.1109 352.7764,509.201 352.7239,498.2914 352.6716,487.3821 352.6194,476.4729 352.5672,465.5639 352.5153,454.6551 352.4634,443.7464 352.4116,432.8378 352.36,421.9293 352.3084,411.0208 352.257,400.1124 352.2057,389.204 352.1545,378.2955 352.1034,367.387 352.0524,356.4784 352.0016,345.5697 351.9508,334.6608 351.9002,323.7519 351.8497,312.8427 351.7993,301.9333 351.749,291.0237 351.6988,280.1138 351.6487,269.2036 351.5988,258.2932 351.5489,247.3824 351.4992,236.4712 351.4496,225.5596 351.4001,214.6476 351.3507,203.7352 351.3014,192.8223 351.2522,181.9089 351.2032,170.995 351.1542,160.0806 351.1054,149.1655 351.0567,138.2499 351.008,127.3336 350.9595,116.4167 350.9111,105.4992 350.8628,94.5809 350.8147,83.6619 350.7666,72.7421" stroke="silver" stroke-opacity="0.5" stroke-width="1" /><polyline fill="none" points="259.2758,728.4435 259.1087,717.523 258.942,706.6031 258.7757,695.684 258.6097,684.7656 258.4441,673.8479 258.2788,662.9308 258.1139,652.0143 257.9493,641.0984 257.7851,630.183 257.6213,619.2682 257.4578,608.354 257.2947,597.4402 257.1319,586.5268 256.9695,575.6139 256.8074,564.7014 256.6456,553.7893 256.4843,542.8775 256.3233,531.9661 256.1626,521.055 256.0023,510.1441 255.8423,499.2335 255.6827,488.3232 255.5234,477.413 255.3645,466.503 255.2059,455.5932 255.0477,444.6834 254.8898,433.7738 254.7323,422.8642 254.5751,411.9547 254.4183,401.0452 254.2618,390.1357 254.1056,379.2262 253.9498,368.3166 253.7944,357.4069 253.6393,346.4971 253.4845,335.5872 253.3301,324.6771 253.176,313.7668 253.0223,302.8563 252.8689,291.9456 252.7159,281.0346 252.5632,270.1233 252.4108,259.2117 252.2588,248.2997 252.1071,237.3874 251.9558,226.4746 251.8048,215.5615 251.6541,204.6479 251.5038,193.7338 251.3539,182.8192 251.2042,171.9041 251.0549,160.9885 250.906,150.0722 250.7574,139.1554 250.6091,128.2379 250.4611,117.3198 250.3135,106.401 250.1663,95.4815 250.0194,84.5612 249.8728,73.6402" stroke="silver" stroke-opacity="0.5" stroke-width="1" /><polyline fill="none" points="164.6907,730.3789 164.4113,719.4566 164.1324,708.5351 163.8542,697.6142 163.5765,686.694 163.2995,675.7745 163.023,664.8556 162.7472,653.9373 162.4719,643.0196 162.1972,632.1024 161.9232,621.1857 161.6497,610.2696 161.3768,599.3539 161.1045,588.4387 160.8328,577.5239 160.5617,566.6095 160.2911,555.6954 160.0212,544.7817 159.7518,533.8683 159.4831,522.9552 159.2149,512.0424 158.9473,501.1298 158.6803,490.2174 158.4139,479.3052 158.148,468.3931 157.8828,457.4812 157.6181,446.5694 157.354,435.6577 157.0905,424.7461 156.8276,413.8344 156.5652,402.9228 156.3034,392.0112 156.0423,381.0995 155.7816,370.1877 155.5216,359.2759 155.2621,348.3639 155.0033,337.4518 154.7449,326.5394 154.4872,315.6269 154.2301,304.7142 153.9735,293.8012 153.7175,282.8879 153.462,271.9743 153.2072,261.0604 152.9529,250.1462 152.6991,239.2315 152.446,228.3164 152.1934,217.4009 151.9414,206.485 151.6899,195.5685 151.4391,184.6515 151.1888,173.734 150.939,162.816 150.6899,151.8973 150.4412,140.978 150.1932,130.0581 149.9457,119.1375 149.6988,108.2162 149.4525,97.2942 149.2067,86.3715 148.9615,75.4479" stroke="silver" stroke-opacity="0.5" stroke-width="1" /><polyline fill="none" points="717.0455,732.8362 713.261,732.7064 703.8,732.3886 694.3393,732.0806 684.8788,731.7823 675.4185,731.4938 665.9585,731.2151 656.4986,730.9461 647.039,730.6868 637.5795,730.4373 628.1202,730.1976 618.6612,729.9676 609.2022,729.7474 599.7435,729.5369 590.2849,729.3362 580.8265,729.1452 571.3682,728.9639 561.91,728.7924 552.452,728.6306 542.9941,728.4786 533.5363,728.3363 524.0786,728.2037 514.621,728.0809 505.1635,727.9678 495.7061,727.8644 486.2487,727.7708 476.7915,727.6869 467.3343,727.6128 457.8771,727.5483 448.42,727.4937 438.9629,727.4487 429.5059,727.4135 420.0488,727.388 410.5918,727.3722 401.1348,727.3662 391.6778,727.3699 382.2208,727.3833 372.7638,727.4065 363.3068,727.4394 353.8497,727.482 344.3926,727.5343 334.9355,727.5964 325.4783,727.6682 316.021,727.7498 306.5637,727.8411 297.1063,727.9421 287.6488,728.0528 278.1912,728.1733 268.7336,728.3036 259.2758,728.4435 249.8179,728.5932 240.3599,728.7527 230.9018,728.9218 221.4435,729.1008 211.9851,729.2894 202.5266,729.4878 193.0679,729.696 183.609,729.9139 174.15,730.1415 164.6907,730.3789 155.2313,730.6261 145.7717,730.883 136.3119,731.1496 126.8519,731.426 117.3917,731.7122 107.9312,732.0081 98.4706,732.3138 89.0096,732.6292 82.9545,732.8362" stroke="silver" stroke-opacity="0.5" stroke-width="1" /><polyline fill="none" points="720.0364,645.4589 716.2162,645.33 706.6658,645.0145 697.1156,644.7087 687.5657,644.4127 678.0161,644.1263 668.4667,643.8496 658.9175,643.5826 649.3685,643.3252 639.8198,643.0776 630.2712,642.8396 620.7228,642.6113 611.1747,642.3927 601.6267,642.1837 592.0788,641.9845 582.5312,641.7949 572.9836,641.6149 563.4363,641.4447 553.889,641.2841 544.3419,641.1332 534.795,640.9919 525.2481,640.8603 515.7013,640.7384 506.1547,640.6261 496.6081,640.5235 487.0616,640.4306 477.5152,640.3473 467.9688,640.2737 458.4225,640.2098 448.8763,640.1555 439.3301,640.1108 429.7839,640.0759 420.2378,640.0506 410.6917,640.0349 401.1455,640.0289 391.5994,640.0326 382.0533,640.0459 372.5071,640.0689 362.961,640.1016 353.4148,640.1439 343.8686,640.1958 334.3223,640.2575 324.7759,640.3288 315.2295,640.4097 305.6831,640.5003 296.1365,640.6006 286.5899,640.7106 277.0431,640.8302 267.4963,640.9594 257.9493,641.0984 248.4023,641.247 238.8551,641.4052 229.3077,641.5732 219.7603,641.7508 210.2126,641.9381 200.6648,642.135 191.1169,642.3416 181.5687,642.5579 172.0204,642.7839 162.4719,643.0196 152.9232,643.2649 143.3743,643.5199 133.8251,643.7846 124.2758,644.059 114.7262,644.343 105.1764,644.6368 95.6263,644.9402 86.0759,645.2534 79.9636,645.4589" stroke="silver" stroke-opacity="0.5" stroke-width="1" /><polyline fill="none" points="722.9761,558.1156 719.1207,557.9877 709.4824,557.6747 699.8444,557.3713 690.2066,557.0776 680.5691,556.7934 670.9319,556.5189 661.2949,556.254 651.6581,555.9987 642.0216,555.7529 632.3853,555.5168 622.7492,555.2903 613.1132,555.0734 603.4775,554.8661 593.842,554.6684 584.2066,554.4803 574.5714,554.3018 564.9363,554.1329 555.3014,553.9735 545.6667,553.8238 536.032,553.6837 526.3975,553.5531 516.7631,553.4321 507.1288,553.3208 497.4946,553.219 487.8605,553.1268 478.2265,553.0441 468.5925,552.9711 458.9586,552.9077 449.3248,552.8538 439.691,552.8095 430.0572,552.7748 420.4235,552.7497 410.7898,552.7342 401.156,552.7283 391.5223,552.7319 381.8886,552.7451 372.2549,552.7679 362.6211,552.8003 352.9873,552.8423 343.3535,552.8939 333.7196,552.955 324.0857,553.0257 314.4516,553.1061 304.8176,553.196 295.1834,553.2955 285.5491,553.4045 275.9147,553.5232 266.2803,553.6515 256.6456,553.7893 247.0109,553.9367 237.376,554.0938 227.741,554.2604 218.1059,554.4366 208.4705,554.6224 198.835,554.8178 189.1994,555.0228 179.5635,555.2374 169.9274,555.4616 160.2911,555.6954 150.6547,555.9388 141.0179,556.1918 131.381,556.4544 121.7438,556.7267 112.1064,557.0085 102.4687,557.2999 92.8307,557.601 83.1925,557.9117 77.0239,558.1156" stroke="silver" stroke-opacity="0.5" stroke-width="1" /><polyline fill="none" points="725.865,470.793 721.9751,470.6662 712.2504,470.3559 702.526,470.055 692.8019,469.7637 683.0781,469.482 673.3546,469.2097 663.6313,468.947 653.9082,468.6939 644.1854,468.4502 634.4628,468.2161 624.7405,467.9915 615.0183,467.7764 605.2964,467.5708 595.5746,467.3748 585.8531,467.1882 576.1317,467.0112 566.4105,466.8437 556.6894,466.6857 546.9685,466.5372 537.2477,466.3982 527.5271,466.2688 517.8066,466.1488 508.0862,466.0384 498.3659,465.9374 488.6456,465.846 478.9255,465.7641 469.2055,465.6917 459.4855,465.6288 449.7655,465.5753 440.0456,465.5314 430.3258,465.497 420.606,465.4721 410.8862,465.4567 401.1664,465.4508 391.4466,465.4545 381.7268,465.4676 372.007,465.4902 362.2871,465.5223 352.5672,465.5639 342.8473,465.6151 333.1273,465.6757 323.4073,465.7458 313.6872,465.8255 303.967,465.9146 294.2467,466.0133 284.5263,466.1215 274.8058,466.2391 265.0852,466.3663 255.3645,466.503 245.6436,466.6492 235.9226,466.8049 226.2014,466.9701 216.4801,467.1449 206.7585,467.3291 197.0368,467.5229 187.315,467.7262 177.5929,467.939 167.8706,468.1613 158.148,468.3931 148.4253,468.6345 138.7023,468.8854 128.9791,469.1458 119.2556,469.4158 109.5318,469.6952 99.8078,469.9842 90.0835,470.2828 80.3589,470.5909 74.135,470.793" stroke="silver" stroke-opacity="0.5" stroke-width="1" /><polyline fill="none" points="728.7037,383.478 724.7798,383.3523 714.9702,383.0447 705.161,382.7466 695.352,382.4579 685.5434,382.1786 675.735,381.9088 665.9269,381.6485 656.1191,381.3975 646.3115,381.156 636.5042,380.924 626.6971,380.7014 616.8902,380.4882 607.0836,380.2845 597.2771,380.0902 587.4709,379.9053 577.6648,379.7299 567.859,379.5638 558.0532,379.4073 548.2477,379.2601 538.4423,379.1224 528.637,378.9941 518.8318,378.8752 509.0268,378.7657 499.2219,378.6657 489.4171,378.5751 479.6123,378.4939 469.8077,378.4221 460.0031,378.3597 450.1986,378.3068 440.3941,378.2633 430.5897,378.2292 420.7853,378.2045 410.9809,378.1893 401.1765,378.1834 391.3722,378.187 381.5678,378.2 371.7634,378.2224 361.959,378.2542 352.1545,378.2955 342.35,378.3462 332.5454,378.4063 322.7408,378.4758 312.9361,378.5547 303.1313,378.6431 293.3264,378.7408 283.5214,378.848 273.7163,378.9647 263.911,379.0907 254.1056,379.2262 244.3001,379.3711 234.4944,379.5254 224.6886,379.6892 214.8826,379.8623 205.0764,380.045 195.27,380.237 185.4634,380.4385 175.6566,380.6494 165.8495,380.8697 156.0423,381.0995 146.2347,381.3387 136.427,381.5874 126.6189,381.8455 116.8107,382.113 107.0021,382.39 97.1932,382.6764 87.384,382.9723 77.5745,383.2777 71.2963,383.478" stroke="silver" stroke-opacity="0.5" stroke-width="1" /><polyline fill="none" points="731.4925,296.1573 727.5352,296.0328 717.6423,295.7281 707.7496,295.4327 697.8573,295.1468 687.9653,294.8701 678.0737,294.6029 668.1823,294.345 658.2911,294.0964 648.4003,293.8572 638.5097,293.6274 628.6194,293.4069 618.7293,293.1957 608.8394,292.9939 598.9497,292.8014 589.0603,292.6183 579.171,292.4445 569.282,292.2801 559.3931,292.1249 549.5044,291.9792 539.6158,291.8427 529.7274,291.7156 519.8391,291.5979 509.9509,291.4895 500.0629,291.3904 490.1749,291.3006 480.2871,291.2202 470.3993,291.1491 460.5117,291.0873 450.624,291.0349 440.7365,290.9918 430.8489,290.958 420.9614,290.9336 411.074,290.9184 401.1865,290.9127 391.299,290.9162 381.4116,290.9291 371.5241,290.9513 361.6366,290.9828 351.749,291.0237 341.8614,291.0739 331.9737,291.1334 322.086,291.2023 312.1981,291.2805 302.3102,291.368 292.4222,291.4648 282.5341,291.571 272.6458,291.6865 262.7574,291.8114 252.8689,291.9456 242.9802,292.0891 233.0914,292.242 223.2024,292.4042 213.3132,292.5757 203.4238,292.7566 193.5342,292.9468 183.6443,293.1464 173.7543,293.3553 163.864,293.5736 153.9735,293.8012 144.0827,294.0382 134.1916,294.2845 124.3003,294.5401 114.4087,294.8051 104.5168,295.0795 94.6245,295.3633 84.732,295.6563 74.8391,295.9588 68.5075,296.1573" stroke="silver" stroke-opacity="0.5" stroke-width="1" /><polyline fill="none" points="734.2318,208.8175 730.2418,208.6943 720.2669,208.3926 710.2924,208.1002 700.3182,207.8171 690.3444,207.5432 680.3708,207.2786 670.3976,207.0233 660.4247,206.7772 650.452,206.5404 640.4796,206.3129 630.5075,206.0946 620.5356,205.8855 610.564,205.6857 600.5926,205.4952 590.6215,205.3139 580.6505,205.1418 570.6797,204.979 560.7091,204.8255 550.7387,204.6811 540.7685,204.5461 530.7984,204.4202 520.8285,204.3037 510.8586,204.1963 500.8889,204.0982 490.9194,204.0094 480.9499,203.9297 470.9805,203.8593 461.0112,203.7982 451.0419,203.7463 441.0727,203.7036 431.1036,203.6702 421.1345,203.646 411.1654,203.631 401.1963,203.6253 391.2272,203.6288 381.2581,203.6415 371.289,203.6635 361.3199,203.6947 351.3507,203.7352 341.3815,203.7849 331.4122,203.8438 321.4428,203.912 311.4733,203.9894 301.5038,204.076 291.5341,204.1719 281.5643,204.2771 271.5944,204.3914 261.6243,204.515 251.6541,204.6479 241.6838,204.79 231.7132,204.9413 221.7425,205.1019 211.7716,205.2717 201.8005,205.4508 191.8291,205.6391 181.8576,205.8367 171.8858,206.0435 161.9137,206.2596 151.9414,206.485 141.9688,206.7196 131.9959,206.9634 122.0228,207.2165 112.0493,207.4789 102.0755,207.7505 92.1014,208.0314 82.127,208.3216 72.1522,208.621 65.7682,208.8175" stroke="silver" stroke-opacity="0.5" stroke-width="1" /><polyline fill="none" points="736.9221,121.4455 732.8999,121.3236 722.8445,121.0251 712.7896,120.7358 702.735,120.4556 692.6807,120.1846 682.6268,119.9228 672.5732,119.6702 662.5199,119.4267 652.4669,119.1924 642.4142,118.9672 632.3618,118.7512 622.3097,118.5444 612.2577,118.3467 602.2061,118.1581 592.1546,117.9788 582.1034,117.8085 572.0524,117.6474 562.0016,117.4955 551.951,117.3527 541.9005,117.2191 531.8502,117.0946 521.8001,116.9792 511.7501,116.873 501.7002,116.7759 491.6504,116.688 481.6008,116.6092 471.5512,116.5396 461.5017,116.4791 451.4523,116.4277 441.403,116.3855 431.3537,116.3524 421.3044,116.3285 411.2551,116.3137 401.2059,116.308 391.1567,116.3115 381.1074,116.3241 371.0582,116.3458 361.0089,116.3767 350.9595,116.4167 340.9101,116.4659 330.8607,116.5242 320.8111,116.5917 310.7615,116.6683 300.7118,116.754 290.6619,116.8489 280.6119,116.9529 270.5618,117.066 260.5116,117.1884 250.4611,117.3198 240.4106,117.4604 230.3598,117.6101 220.3088,117.769 210.2577,117.9371 200.2063,118.1143 190.1547,118.3006 180.1028,118.4961 170.0507,118.7007 159.9984,118.9146 149.9457,119.1375 139.8928,119.3696 129.8396,119.6109 119.7861,119.8614 109.7322,120.121 99.6781,120.3897 89.6235,120.6677 79.5687,120.9548 69.5134,121.2511 63.0779,121.4455" stroke="silver" stroke-opacity="0.5" stroke-width="1" /><circle cx="732.0878" cy="192.8373" fill="black" r="0.936" stroke="none" /><circle cx="708.8734" cy="684.7053" fill="black" r="0.738" stroke="none" /><circle cx="706.0635" cy="675.1665" fill="black" r="0.738" stroke="none" /><circle cx="717.351" cy="79.3183" fill="black" r="0.738" stroke="none" /><circle cx="712.5134" cy="246.802" fill="black" r="0.738" stroke="none" /><circle cx="704.0794" cy="510.5667" fill="black" r="0.738" stroke="none" /><circle cx="693.4814" cy="718.5814" fill="black" r="0.738" stroke="none" /><circle cx="690.0207" cy="532.2512" fill="black" r="0.738" stroke="none" /><circle cx="694.8442" cy="281.1669" fill="black" r="0.738" stroke="none" /><circle cx="679.9635" cy="619.6189" fill="black" r="0.738" stroke="none" /><circle cx="678.8833" cy="632.8744" fill="black" r="0.738" stroke="none" /><circle cx="679.9134" cy="412.6014" fill="black" r="0.738" stroke="none" /><circle cx="684.0019" cy="244.866" fill="black" r="0.738" stroke="none" /><circle cx="678.9186" cy="189.3241" fill="black" r="0.738" stroke="none" /><circle cx="666.7109" cy="504.7623" fill="black" r="0.738" stroke="none" /><circle cx="663.2603" cy="583.1343" fill="black" r="0.738" stroke="none" /><circle cx="659.4612" cy="698.2369" fill="black" r="0.738" stroke="none" /><circle cx="654.331" cy="626.5016" fill="black" r="0.936" stroke="none" /><circle cx="647.9824" cy="539.8281" fill="black" r="0.738" stroke="none" /><circle cx="655.2569" cy="92.3305" fill="black" r="0.738" stroke="none" /><circle cx="636.4816" cy="651.2085" fill="black" r="0.738" stroke="none" /><circle cx="642.7601" cy="308.3124" fill="black" r="0.738" stroke="none" /><circle cx="624.735" cy="579.2725" fill="black" r="0.738" stroke="none" /><circle cx="632.4499" cy="219.5905" fill="black" r="0.738" stroke="none" /><circle cx="629.4679" cy="290.8051" fill="black" r="0.738" stroke="none" /><circle cx="621.7043" cy="512.99" fill="black" r="0.738" stroke="none" /><circle cx="621.6574" cy="438.5782" fill="black" r="0.936" stroke="none" /><circle cx="623.5145" cy="339.323" fill="black" r="0.738" stroke="none" /><circle cx="615.177" cy="583.509" fill="black" r="0.738" stroke="none" /><circle cx="613.6012" cy="330.9044" fill="black" r="0.738" stroke="none" /><circle cx="609.6708" cy="429.5879" fill="black" r="0.738" stroke="none" /><circle cx="600.4308" cy="658.8471" fill="black" r="0.738" stroke="none" /><circle cx="602.1195" cy="538.5925" fill="black" r="0.738" stroke="none" /><circle cx="601.2738" cy="568.0963" fill="black" r="0.738" stroke="none" /><circle cx="595.1598" cy="713.6173" fill="black" r="0.738" stroke="none" /><circle cx="597.1028" cy="401.2175" fill="black" r="0.738" stroke="none" /><circle cx="592.7016" cy="227.1865" fill="black" r="0.738" stroke="none" /><circle cx="585.3479" cy="336.5596" fill="black" r="0.936" stroke="none" /><circle cx="582.6692" cy="117.6431" fill="black" r="0.738" stroke="none" /><circle cx="576.232" cy="162.7931" fill="black" r="0.738" stroke="none" /><circle cx="567.4423" cy="442.4154" fill="black" r="0.738" stroke="none" /><circle cx="566.2865" cy="225.8696" fill="black" r="0.738" stroke="none" /><circle cx="555.0918" cy="474.3433" fill="black" r="0.738" stroke="none" /><circle cx="552.3712" cy="349.9016" fill="black" r="0.738" stroke="none" /><circle cx="548.9131" cy="221.2474" fill="black" r="0.738" stroke="none" /><circle cx="542.2561" cy="642.6737" fill="black" r="0.936" stroke="none" /><circle cx="538.4917" cy="720.8945" fill="black" r="0.738" stroke="none" /><circle cx="531.3861" cy="560.8663" fill="black" r="0.738" stroke="none" /><circle cx="529.3734" cy="301.1394" fill="black" r="0.738" stroke="none" /><circle cx="523.3203" cy="110.4443" fill="black" r="0.738" stroke="none" /><circle cx="520.4343" cy="218.0951" fill="black" r="0.738" stroke="none" /><circle cx="509.2183" cy="666.164" fill="black" r="0.738" stroke="none" /><circle cx="514.1067" cy="145.4591" fill="black" r="0.738" stroke="none" /><circle cx="496.6084" cy="610.4842" fill="black" r="0.738" stroke="none" /><circle cx="496.6868" cy="314.2278" fill="black" r="0.738" stroke="none" /><circle cx="490.4495" cy="723.7922" fill="black" r="0.738" stroke="none" /><circle cx="491.3194" cy="570.4443" fill="black" r="0.738" stroke="none" /><circle cx="488.5824" cy="366.2617" fill="black" r="1.476" stroke="none" /><circle cx="486.4336" cy="531.5523" fill="black" r="0.738" stroke="none" /><circle cx="475.8086" cy="727.5914" fill="black" r="0.738" stroke="none" /><circle cx="477.5225" cy="364.4265" fill="black" r="0.936" stroke="none" /><circle cx="477.274" cy="193.7748" fill="black" r="0.738" stroke="none" /><circle cx="474.7225" cy="445.4835" fill="black" r="0.936" stroke="none" /><circle cx="467.4611" cy="636.5152" fill="black" r="0.738" stroke="none" /><circle cx="468.0989" cy="468.3023" fill="black" r="0.738" stroke="none" /><circle cx="467.746" cy="346.1169" fill="black" r="0.738" stroke="none" /><circle cx="456.6134" cy="711.5536" fill="black" r="0.936" stroke="none" /><circle cx="458.7907" cy="81.7865" fill="black" r="0.738" stroke="none" /><circle cx="454.9185" cy="361.1387" fill="black" r="0.738" stroke="none" /><circle cx="449.905" cy="618.8558" fill="black" r="0.738" stroke="none" /><circle cx="443.6731" cy="131.8526" fill="black" r="0.936" stroke="none" /><circle cx="440.7642" cy="403.3109" fill="black" r="0.738" stroke="none" /><circle cx="438.6248" cy="568.8668" fill="black" r="0.738" stroke="none" /><circle cx="436.9382" cy="443.7017" fill="black" r="0.738" stroke="none" /><circle cx="419.9605" cy="590.11" fill="black" r="0.738" stroke="none" /><circle cx="413.6794" cy="580.2345" fill="black" r="0.738" stroke="none" /><circle cx="403.7439" cy="635.4019" fill="black" r="0.936" stroke="none" /><circle cx="402.6759" cy="343.3638" fill="black" r="0.738" stroke="none" /><circle cx="390.4113" cy="673.0422" fill="black" r="0.738" stroke="none" /><circle cx="389.5807" cy="465.8053" fill="black" r="0.738" stroke="none" /><circle cx="389.4871" cy="298.2491" fill="black" r="0.738" stroke="none" /><circle cx="384.3691" cy="258.3686" fill="black" r="0.738" stroke="none" /><circle cx="384.8206" cy="698.0283" fill="black" r="0.936" stroke="none" /><circle cx="380.525" cy="150.5581" fill="black" r="0.738" stroke="none" /><circle cx="377.942" cy="579.3771" fill="black" r="0.738" stroke="none" /><circle cx="375.8553" cy="282.5617" fill="black" r="0.738" stroke="none" /><circle cx="375.2937" cy="104.9813" fill="black" r="0.738" stroke="none" /><circle cx="376.2818" cy="560.6132" fill="black" r="0.738" stroke="none" /><circle cx="372.2901" cy="510.8721" fill="black" r="0.738" stroke="none" /><circle cx="369.6666" cy="562.9886" fill="black" r="0.738" stroke="none" /><circle cx="365.1565" cy="395.7837" fill="black" r="0.738" stroke="none" /><circle cx="364.1488" cy="710.4888" fill="black" r="0.738" stroke="none" /><circle cx="360.6165" cy="375.9031" fill="black" r="0.738" stroke="none" /><circle cx="357.395" cy="199.4317" fill="black" r="0.738" stroke="none" /><circle cx="351.4454" cy="98.8585" fill="black" r="0.738" stroke="none" /><circle cx="338.739" cy="159.532" fill="black" r="0.738" stroke="none" /><circle cx="336.0721" cy="570.66" fill="black" r="0.738" stroke="none" /><circle cx="333.6307" cy="482.7786" fill="black" r="0.738" stroke="none" /><circle cx="331.8066" cy="630.3207" fill="black" r="0.738" stroke="none" /><circle cx="324.6673" cy="127.919" fill="black" r="0.738" stroke="none" /><circle cx="322.7566" cy="317.6438" fill="black" r="0.738" stroke="none" /><circle cx="301.9661" cy="583.519" fill="black" r="0.738" stroke="none" /><circle cx="302.7762" cy="676.8624" fill="black" r="0.738" stroke="none" /><circle cx="291.7186" cy="490.8301" fill="black" r="0.738" stroke="none" /><circle cx="287.3995" cy="88.4899" fill="black" r="0.738" stroke="none" /><circle cx="275.8083" cy="244.3312" fill="black" r="0.738" stroke="none" /><circle cx="272.127" cy="402.2903" fill="black" r="0.738" stroke="none" /><circle cx="267.4437" cy="78.0495" fill="black" r="0.738" stroke="none" /><circle cx="272.5305" cy="565.7906" fill="black" r="0.738" stroke="none" /><circle cx="264.2446" cy="152.4315" fill="black" r="0.738" stroke="none" /><circle cx="269.4471" cy="703.8278" fill="black" r="0.738" stroke="none" /><circle cx="256.8973" cy="534.2277" fill="black" r="0.738" stroke="none" /><circle cx="256.6682" cy="534.4057" fill="black" r="0.738" stroke="none" /><circle cx="253.4532" cy="442.2624" fill="black" r="0.738" stroke="none" /><circle cx="252.9199" cy="453.7061" fill="black" r="0.738" stroke="none" /><circle cx="249.0788" cy="346.8248" fill="black" r="0.738" stroke="none" /><circle cx="249.725" cy="652.3193" fill="black" r="0.738" stroke="none" /><circle cx="242.8646" cy="531.126" fill="black" r="0.738" stroke="none" /><circle cx="244.8243" cy="660.5231" fill="black" r="0.738" stroke="none" /><circle cx="242.6936" cy="624.133" fill="black" r="0.738" stroke="none" /><circle cx="235.0353" cy="213.4484" fill="black" r="0.738" stroke="none" /><circle cx="224.6691" cy="275.9639" fill="black" r="0.738" stroke="none" /><circle cx="224.7931" cy="376.6316" fill="black" r="1.476" stroke="none" /><circle cx="214.364" cy="216.7557" fill="black" r="0.738" stroke="none" /><circle cx="203.0268" cy="82.0578" fill="black" r="0.738" stroke="none" /><circle cx="199.0462" cy="76.0978" fill="black" r="0.738" stroke="none" /><circle cx="197.4215" cy="482.535" fill="black" r="0.738" stroke="none" /><circle cx="196.4574" cy="627.7213" fill="black" r="1.476" stroke="none" /><circle cx="188.1971" cy="394.8772" fill="black" r="0.738" stroke="none" /><circle cx="175.096" cy="176.1836" fill="black" r="0.738" stroke="none" /><circle cx="174.4839" cy="260.8476" fill="black" r="0.738" stroke="none" /><circle cx="170.8237" cy="403.0271" fill="black" r="0.738" stroke="none" /><circle cx="174.6909" cy="658.5374" fill="black" r="0.738" stroke="none" /><circle cx="168.9336" cy="555.8347" fill="black" r="0.738" stroke="none" /><circle cx="155.2666" cy="191.2053" fill="black" r="0.738" stroke="none" /><circle cx="156.4662" cy="641.3374" fill="black" r="0.738" stroke="none" /><circle cx="151.7631" cy="514.5868" fill="black" r="0.738" stroke="none" /><circle cx="142.5154" cy="323.5163" fill="black" r="0.936" stroke="none" /><circle cx="146.6391" cy="508.1658" fill="black" r="0.738" stroke="none" /><circle cx="149.3336" cy="611.5471" fill="black" r="0.738" stroke="none" /><circle cx="127.7856" cy="303.7102" fill="black" r="0.738" stroke="none" /><circle cx="136.4456" cy="682.5264" fill="black" r="0.738" stroke="none" /><circle cx="119.2154" cy="221.9718" fill="black" r="0.738" stroke="none" /><circle cx="128.5577" cy="625.4028" fill="black" r="0.936" stroke="none" /><circle cx="113.904" cy="591.4794" fill="black" r="0.738" stroke="none" /><circle cx="103.4538" cy="414.1243" fill="black" r="0.738" stroke="none" /><circle cx="90.811" cy="79.3521" fill="black" r="0.738" stroke="none" /><circle cx="91.9411" cy="179.9736" fill="black" r="0.738" stroke="none" /><circle cx="83.0358" cy="333.5522" fill="black" r="0.738" stroke="none" /><circle cx="13.77" cy="786.23" fill="black" r="4.59" stroke="none" /><circle cx="13.77" cy="786.23" fill="black" r="4.59" stroke="none" /><text fill="black" font-family="monospace" font-size="12" x="10.77" y="775.64">1</text><circle cx="37.77" cy="786.23" fill="black" r="3.654" stroke="none" /><circle cx="37.77" cy="786.23" fill="black" r="3.654" stroke="none" /><text fill="black" font-family="monospace" font-size="12" x="34.769999999999996" y="775.64">2</text><circle cx="61.77" cy="786.23" fill="black" r="2.916" stroke="none" /><circle cx="61.77" cy="786.23" fill="black" r="2.916" stroke="none" /><text fill="black" font-family="monospace" font-size="12" x="58.769999999999996" y="775.64">3</text><circle cx="85.77" cy="786.23" fill="black" r="2.322" stroke="none" /><circle cx="85.77" cy="786.23" fill="black" r="2.322" stroke="none" /><text fill="black" font-family="monospace" font-size="12" x="82.77" y="775.64">4</text><circle cx="109.77" cy="786.23" fill="black" r="1.854" stroke="none" /><circle cx="109.77" cy="786.23" fill="black" r="1.854" stroke="none" /><text fill="black" font-family="monospace" font-size="12" x="106.77" y="775.64">5</text><circle cx="133.77" cy="786.23" fill="black" r="1.476" stroke="none" /><circle cx="133.77" cy="786.23" fill="black" r="1.476" stroke="none" /><text fill="black" font-family="monospace" font-size="12" x="130.77" y="775.64">6</text><circle cx="157.77" cy="786.23" fill="black" r="1.17" stroke="none" /><circle cx="157.77" cy="786.23" fill="black" r="1.17" stroke="none" /><text fill="black" font-family="monospace" font-size="12" x="154.77" y="775.64">7</text><circle cx="181.77" cy="786.23" fill="black" r="0.936" stroke="none" /><circle cx="181.77" cy="786.23" fill="black" r="0.936" stroke="none" /><text fill="black" font-family="monospace" font-size="12" x="178.77" y="775.64">8</text><circle cx="205.77" cy="786.23" fill="black" r="0.738" stroke="none" /><circle cx="205.77" cy="786.23" fill="black" r="0.738" stroke="none" /><text fill="black" font-family="monospace" font-size="12" x="202.77" y="775.64">9</text><text fill="gray" fill-opacity="0.5" font-family="monospace" font-size="12" x="653.4607023169219" y="75.50250136056479">09h00m</text><text fill="gray" fill-opacity="0.5" font-family="monospace" font-size="12" x="552.5488491213074" y="73.67293511216786">09h05m</text><text fill="gray" fill-opacity="0.5" font-family="monospace" font-size="12" x="451.6547275857773" y="72.75302456752547">09h10m</text><text fill="gray" fill-opacity="0.5" font-family="monospace" font-size="12" x="350.7666106626656" y="72.74211785620668">09h15m</text><text fill="gray" fill-opacity="0.5" font-family="monospace" font-size="12" x="249.8727705906264" y="73.64020725022573">09h20m</text><text fill="gray" fill-opacity="0.5" font-family="monospace" font-size="12" x="148.9614802884939" y="75.44792915406123">09h25m</text><text fill="gray" fill-opacity="0.5" font-family="monospace" font-size="12" x="82.95453128824971" y="732.8362097669298">-30°</text><text fill="gray" fill-opacity="0.5" font-family="monospace" font-size="12" x="79.96358374913427" y="645.4588591772325">-29°</text><text fill="gray" fill-opacity="0.5" font-family="monospace" font-size="12" x="77.02388925641878" y="558.1155597882419">-28°</text><text fill="gray" fill-opacity="0.5" font-family="monospace" font-size="12" x="74.13495100104507" y="470.79303764358383">-27°</text><text fill="gray" fill-opacity="0.5" font-family="monospace" font-size="12" x="71.296303079999" y="383.4780313860379">-26°</text><text fill="gray" fill-opacity="0.5" font-family="monospace" font-size="12" x="68.50751018884631" y="296.1572842128123">-25°</text><text fill="gray" fill-opacity="0.5" font-family="monospace" font-size="12" x="65.76816735381834" y="208.81753583668376">-24°</text><text fill="gray" fill-opacity="0.5" font-family="monospace" font-size="12" x="63.077899703094545" y="121.44551444264454">-23°</text><text fill="black" font-family="monospace" font-size="12" x="12" y="48">&gt;&gt; No.242 08h56m 09h29m -30.0°-22.5°</text><a target="_self" xlink:href="hip009.svg"><text fill="black" font-family="monospace" font-size="12" x="12" y="36">&gt; No.9 09h00m 12h00m -52.5°-22.5°</text></a><a target="_self" xlink:href="hip001.svg"><text fill="black" font-family="monospace" font-size="12" x="12" y="24">No.1 00h 24h -90.0°+0.0°</text></a><polyline fill="none" points="738.2489,77.7432 734.2108,77.622 724.1158,77.3251 714.0212,77.0374 703.9269,76.7588 693.833,76.4893 683.7395,76.2289 673.6462,75.9777 663.5533,75.7355 653.4607,75.5025 643.3684,75.2786 633.2764,75.0638 623.1846,74.8581 613.0931,74.6614 603.0018,74.4739 592.9108,74.2955 582.82,74.1262 572.7294,73.966 562.639,73.8149 552.5488,73.6729 542.4588,73.54 532.369,73.4162 522.2793,73.3015 512.1897,73.1959 502.1003,73.0993 492.011,73.0119 481.9218,72.9335 471.8327,72.8643 461.7437,72.8041 451.6547,72.753 441.5658,72.711 431.477,72.6781 421.3882,72.6543 411.2994,72.6396 401.2107,72.634 391.1219,72.6374 381.0331,72.65 370.9443,72.6716 360.8555,72.7023 350.7666,72.7421 340.6777,72.791 330.5887,72.849 320.4996,72.9161 310.4104,72.9923 300.3211,73.0775 290.2317,73.1719 280.1422,73.2753 270.0526,73.3878 259.9627,73.5095 249.8728,73.6402 239.7826,73.78 229.6923,73.9289 219.6017,74.087 209.511,74.2541 199.42,74.4303 189.3288,74.6156 179.2374,74.81 169.1457,75.0136 159.0537,75.2262 148.9615,75.4479 138.8689,75.6788 128.7761,75.9187 118.6829,76.1678 108.5895,76.426 98.4956,76.6933 88.4015,76.9697 78.3069,77.2552 68.212,77.5499 61.7511,77.7432" stroke="black" stroke-opacity="0.5" stroke-width="1" /><polyline fill="none" points="717.0455,732.8362 717.4222,721.9117 717.798,710.988 718.1731,700.0649 718.5474,689.1424 718.9208,678.2207 719.2935,667.2995 719.6654,656.3789 720.0364,645.4589 720.4067,634.5394 720.7761,623.6204 721.1448,612.7018 721.5126,601.7838 721.8797,590.8661 722.246,579.9489 722.6114,569.0321 722.9761,558.1156 723.34,547.1994 723.7031,536.2835 724.0654,525.3679 724.4269,514.4525 724.7876,503.5374 725.1475,492.6224 725.5067,481.7077 725.865,470.793 726.2226,459.8785 726.5794,448.9641 726.9354,438.0497 727.2906,427.1354 727.6451,416.2211 727.9987,405.3068 728.3516,394.3924 728.7037,383.478 729.055,372.5635 729.4056,361.6489 729.7553,350.7341 730.1043,339.8192 730.4525,328.9041 730.7999,317.9887 731.1466,307.0731 731.4925,296.1573 731.8376,285.2411 732.1819,274.3246 732.5255,263.4078 732.8683,252.4906 733.2103,241.573 733.5516,230.655 733.8921,219.7365 734.2318,208.8175 734.5708,197.8981 734.909,186.9781 735.2464,176.0575 735.5831,165.1364 735.919,154.2146 736.2541,143.2923 736.5885,132.3692 736.9221,121.4455 737.255,110.5211 737.587,99.5959 737.9184,88.67 738.2489,77.7432" stroke="black" stroke-opacity="0.5" stroke-width="1" /><polyline fill="none" points="717.0455,732.8362 713.261,732.7064 703.8,732.3886 694.3393,732.0806 684.8788,731.7823 675.4185,731.4938 665.9585,731.2151 656.4986,730.9461 647.039,730.6868 637.5795,730.4373 628.1202,730.1976 618.6612,729.9676 609.2022,729.7474 599.7435,729.5369 590.2849,729.3362 580.8265,729.1452 571.3682,728.9639 561.91,728.7924 552.452,728.6306 542.9941,728.4786 533.5363,728.3363 524.0786,728.2037 514.621,728.0809 505.1635,727.9678 495.7061,727.8644 486.2487,727.7708 476.7915,727.6869 467.3343,727.6128 457.8771,727.5483 448.42,727.4937 438.9629,727.4487 429.5059,727.4135 420.0488,727.388 410.5918,727.3722 401.1348,727.3662 391.6778,727.3699 382.2208,727.3833 372.7638,727.4065 363.3068,727.4394 353.8497,727.482 344.3926,727.5343 334.9355,727.5964 325.4783,727.6682 316.021,727.7498 306.5637,727.8411 297.1063,727.9421 287.6488,728.0528 278.1912,728.1733 268.7336,728.3036 259.2758,728.4435 249.8179,728.5932 240.3599,728.7527 230.9018,728.9218 221.4435,729.1008 211.9851,729.2894 202.5266,729.4878 193.0679,729.696 183.609,729.9139 174.15,730.1415 164.6907,730.3789 155.2313,730.6261 145.7717,730.883 136.3119,731.1496 126.8519,731.426 117.3917,731.7122 107.9312,732.0081 98.4706,732.3138 89.0096,732.6292 82.9545,732.8362" stroke="black" stroke-opacity="0.5" stroke-width="1" /><polyline fill="none" points="82.9545,732.8362 82.5778,721.9117 82.202,710.988 81.8269,700.0649 81.4526,689.1424 81.0792,678.2207 80.7065,667.2995 80.3346,656.3789 79.9636,645.4589 79.5933,634.5394 79.2239,623.6204 78.8552,612.7018 78.4874,601.7838 78.1203,590.8661 77.754,579.9489 77.3886,569.0321 77.0239,558.1156 76.66,547.1994 76.2969,536.2835 75.9346,525.3679 75.5731,514.4525 75.2124,503.5374 74.8525,492.6224 74.4933,481.7077 74.135,470.793 73.7774,459.8785 73.4206,448.9641 73.0646,438.0497 72.7094,427.1354 72.3549,416.2211 72.0013,405.3068 71.6484,394.3924 71.2963,383.478 70.945,372.5635 70.5944,361.6489 70.2447,350.7341 69.8957,339.8192 69.5475,328.9041 69.2001,317.9887 68.8534,307.0731 68.5075,296.1573 68.1624,285.2411 67.8181,274.3246 67.4745,263.4078 67.1317,252.4906 66.7897,241.573 66.4484,230.655 66.1079,219.7365 65.7682,208.8175 65.4292,197.8981 65.091,186.9781 64.7536,176.0575 64.4169,165.1364 64.081,154.2146 63.7459,143.2923 63.4115,132.3692 63.0779,121.4455 62.745,110.5211 62.413,99.5959 62.0816,88.67 61.7511,77.7432" stroke="black" stroke-opacity="0.5" stroke-width="1" /></svg>