<?xml version="1.0" encoding="utf-8" ?>
<svg baseProfile="tiny" height="800" version="1.2" width="800" xmlns="http://www.w3.org/2000/svg" xmlns:ev="http://www.w3.org/2001/xml-events" xmlns:xlink="http://www.w3.org/1999/xlink"><defs /><rect fill="none" height="800" stroke="black" stroke-width="2" width="800" x="0" y="0" /><polyline fill="none" points="694.5536,733.7357 695.0257,722.8164 695.497,711.8977 695.9676,700.9798 696.4374,690.0625 696.9064,679.1458 697.3747,668.2297 697.8422,657.3142 698.309,646.3993 698.775,635.4849 699.2402,624.5709 699.7047,613.6575 700.1685,602.7445 700.6314,591.8319 701.0937,580.9197 701.5551,570.0079 702.0159,559.0964 702.4759,548.1853 702.9351,537.2744 703.3936,526.3638 703.8513,515.4534 704.3083,504.5433 704.7645,493.6333 705.2201,482.7235 705.6748,471.8139 706.1288,460.9043 706.5821,449.9948 707.0347,439.0854 707.4865,428.1761 707.9376,417.2667 708.3879,406.3573 708.8375,395.4478 709.2864,384.5383 709.7346,373.6287 710.182,362.719 710.6287,351.8091 711.0746,340.8991 711.5199,329.9888 711.9644,319.0783 712.4081,308.1676 712.8512,297.2566 713.2935,286.3453 713.7351,275.4336 714.176,264.5216 714.6162,253.6093 715.0557,242.6965 715.4944,231.7832 715.9324,220.8695 716.3697,209.9554 716.8063,199.0407 717.2422,188.1255 717.6773,177.2097 718.1118,166.2933 718.5455,155.3763 718.9785,144.4587 719.4108,133.5404 719.8424,122.6214 720.2733,111.7017 720.7035,100.7812 721.133,89.86 721.5618,78.938" stroke="silver" stroke-opacity="0.5" stroke-width="1" /><polyline fill="none" points="607.9211,730.5392 608.2542,719.6197 608.5868,708.7009 608.9188,697.7829 609.2503,686.8655 609.5812,675.9488 609.9116,665.0327 610.2415,654.1172 610.5708,643.2023 610.8996,632.2879 611.2278,621.3741 611.5555,610.4607 611.8827,599.5479 612.2094,588.6354 612.5355,577.7234 612.8611,566.8118 613.1862,555.9005 613.5107,544.9896 613.8347,534.079 614.1582,523.1687 614.4811,512.2586 614.8036,501.3488 615.1255,490.4392 615.4469,479.5298 615.7677,468.6205 616.088,457.7114 616.4079,446.8024 616.7272,435.8935 617.0459,424.9846 617.3642,414.0757 617.6819,403.1669 617.9991,392.258 618.3158,381.3491 618.632,370.4401 618.9477,359.531 619.2628,348.6217 619.5775,337.7124 619.8916,326.8028 620.2052,315.8931 620.5183,304.9831 620.8309,294.0728 621.143,283.1623 621.4545,272.2515 621.7656,261.3403 622.0761,250.4288 622.3862,239.5168 622.6957,228.6045 623.0047,217.6918 623.3133,206.7785 623.6213,195.8648 623.9288,184.9506 624.2358,174.0358 624.5423,163.1205 624.8483,152.2045 625.1538,141.288 625.4588,130.3708 625.7633,119.4529 626.0673,108.5343 626.3708,97.6151 626.6738,86.695 626.9763,75.7742" stroke="silver" stroke-opacity="0.5" stroke-width="1" /><polyline fill="none" points="521.2877,728.4457 521.4819,717.5261 521.6758,706.6073 521.8695,695.6892 522.0628,684.7718 522.2558,673.855 522.4484,662.9389 522.6408,652.0234 522.8328,641.1085 523.0246,630.1942 523.216,619.2804 523.4071,608.3671 523.5979,597.4543 523.7884,586.542 523.9786,575.6301 524.1685,564.7186 524.358,553.8075 524.5473,542.8967 524.7362,531.9863 524.9249,521.0762 525.1132,510.1663 525.3012,499.2567 525.4889,488.3474 525.6763,477.4382 525.8634,466.5292 526.0502,455.6204 526.2367,444.7116 526.4229,433.803 526.6088,422.8944 526.7944,411.9859 526.9797,401.0774 527.1647,390.1689 527.3494,379.2604 527.5337,368.3518 527.7178,357.4431 527.9016,346.5343 528.0851,335.6254 528.2683,324.7163 528.4511,313.807 528.6337,302.8975 528.816,291.9878 528.998,281.0778 529.1797,270.1675 529.3611,259.2568 529.5422,248.3459 529.7229,237.4345 529.9034,226.5228 530.0837,215.6106 530.2636,204.698 530.4432,193.785 530.6225,182.8714 530.8015,171.9573 530.9803,161.0426 531.1587,150.1274 531.3369,139.2115 531.5147,128.295 531.6923,117.3779 531.8695,106.4601 532.0465,95.5416 532.2232,84.6223 532.3996,73.7023" stroke="silver" stroke-opacity="0.5" stroke-width="1" /><polyline fill="none" points="434.6537,727.4542 434.7092,716.5346 434.7646,705.6158 434.8199,694.6976 434.8751,683.7802 434.9302,672.8635 434.9853,661.9473 435.0402,651.0319 435.0951,640.117 435.1499,629.2027 435.2045,618.2889 435.2591,607.3757 435.3136,596.4629 435.3681,585.5506 435.4224,574.6388 435.4766,563.7273 435.5308,552.8163 435.5848,541.9056 435.6388,530.9953 435.6927,520.0852 435.7465,509.1755 435.8002,498.266 435.8539,487.3567 435.9074,476.4477 435.9608,465.5388 436.0142,454.6301 436.0675,443.7215 436.1207,432.813 436.1738,421.9046 436.2268,410.9963 436.2797,400.0879 436.3326,389.1796 436.3853,378.2713 436.438,367.3629 436.4906,356.4544 436.5431,345.5458 436.5955,334.6371 436.6478,323.7282 436.7001,312.8191 436.7522,301.9099 436.8043,291.0004 436.8563,280.0906 436.9082,269.1805 436.96,258.2702 437.0117,247.3595 437.0634,236.4484 437.1149,225.537 437.1664,214.6251 437.2178,203.7128 437.2691,192.8 437.3204,181.8867 437.3715,170.9729 437.4226,160.0586 437.4735,149.1437 437.5244,138.2282 437.5752,127.312 437.626,116.3953 437.6766,105.4778 437.7272,94.5596 437.7776,83.6407 437.828,72.7211" stroke="silver" stroke-opacity="0.5" stroke-width="1" /><polyline fill="none" points="348.0195,727.5644 347.9363,716.6448 347.8532,705.7259 347.7702,694.8078 347.6874,683.8904 347.6047,672.9736 347.5221,662.0575 347.4397,651.142 347.3574,640.2272 347.2752,629.3128 347.1932,618.3991 347.1113,607.4858 347.0295,596.5731 346.9479,585.6608 346.8664,574.7489 346.785,563.8375 346.7038,552.9264 346.6227,542.0157 346.5417,531.1054 346.4609,520.1953 346.3802,509.2856 346.2996,498.3761 346.2192,487.4668 346.1389,476.5577 346.0587,465.6488 345.9787,454.7401 345.8987,443.8315 345.819,432.923 345.7393,422.0146 345.6598,411.1062 345.5804,400.1979 345.5011,389.2895 345.422,378.3812 345.343,367.4727 345.2641,356.5642 345.1853,345.6556 345.1067,334.7469 345.0282,323.838 344.9499,312.9289 344.8716,302.0196 344.7935,291.1101 344.7155,280.2003 344.6377,269.2902 344.5599,258.3798 344.4823,247.4691 344.4049,236.558 344.3275,225.6465 344.2503,214.7346 344.1732,203.8223 344.0962,192.9094 344.0194,181.9961 343.9427,171.0823 343.8661,160.1679 343.7896,149.253 343.7133,138.3374 343.6371,127.4213 343.561,116.5044 343.485,105.5869 343.4092,94.6687 343.3335,83.7498 343.2579,72.8301" stroke="silver" stroke-opacity="0.5" stroke-width="1" /><polyline fill="none" points="261.3856,728.7762 261.1636,717.8566 260.9419,706.9378 260.7206,696.0197 260.4997,685.1023 260.2791,674.1856 260.0589,663.2695 259.8391,652.354 259.6196,641.4391 259.4005,630.5248 259.1817,619.611 258.9632,608.6977 258.7452,597.7849 258.5275,586.8725 258.3101,575.9606 258.0931,565.0491 257.8764,554.1379 257.6601,543.2271 257.4442,532.3167 257.2286,521.4065 257.0134,510.4967 256.7985,499.587 256.5839,488.6776 256.3697,477.7684 256.1559,466.8594 255.9424,455.9505 255.7292,445.0417 255.5164,434.133 255.304,423.2244 255.0919,412.3159 254.8801,401.4073 254.6687,390.4987 254.4576,379.5901 254.2469,368.6815 254.0365,357.7727 253.8264,346.8639 253.6167,335.9549 253.4074,325.0457 253.1984,314.1363 252.9897,303.2268 252.7814,292.3169 252.5734,281.4069 252.3657,270.4965 252.1584,259.5858 251.9514,248.6747 251.7448,237.7633 251.5385,226.8514 251.3325,215.9392 251.1269,205.0265 250.9216,194.1133 250.7167,183.1996 250.5121,172.2854 250.3078,161.3706 250.1038,150.4553 249.9002,139.5393 249.6969,128.6227 249.494,117.7055 249.2914,106.7876 249.0891,95.8689 248.8872,84.9495 248.6856,74.0294" stroke="silver" stroke-opacity="0.5" stroke-width="1" /><polyline fill="none" points="174.7523,731.0902 174.3914,720.1707 174.0311,709.252 173.6714,698.334 173.3123,687.4166 172.9537,676.4999 172.5958,665.5838 172.2384,654.6683 171.8816,643.7534 171.5254,632.839 171.1697,621.9252 170.8147,611.0118 170.4602,600.0989 170.1063,589.1864 169.753,578.2744 169.4002,567.3627 169.048,556.4514 168.6964,545.5405 168.3454,534.6298 167.9949,523.7195 167.645,512.8094 167.2957,501.8995 166.9469,490.9898 166.5988,480.0803 166.2511,469.171 165.9041,458.2618 165.5576,447.3527 165.2116,436.4437 164.8663,425.5347 164.5215,414.6258 164.1772,403.7168 163.8336,392.8079 163.4904,381.8988 163.1479,370.9897 162.8059,360.0805 162.4644,349.1712 162.1236,338.2617 161.7832,327.352 161.4435,316.4421 161.1042,305.532 160.7656,294.6216 160.4275,283.711 160.0899,272.8 159.7529,261.8887 159.4164,250.977 159.0805,240.0649 158.7452,229.1525 158.4103,218.2395 158.0761,207.3261 157.7424,196.4123 157.4092,185.4979 157.0766,174.5829 156.7445,163.6674 156.413,152.7513 156.082,141.8345 155.7515,130.9171 155.4216,119.9991 155.0923,109.0803 154.7634,98.1608 154.4351,87.2406 154.1074,76.3196" stroke="silver" stroke-opacity="0.5" stroke-width="1" /><polyline fill="none" points="88.1201,734.5075 87.6202,723.5882 87.121,712.6696 86.6227,701.7516 86.1252,690.8344 85.6286,679.9177 85.1327,669.0016 84.6376,658.0861 84.1433,647.1712 83.6499,636.2567 83.1572,625.3428 82.6653,614.4293 82.1742,603.5163 81.684,592.6037 81.1945,581.6915 80.7058,570.7796 80.2179,559.8681 79.7309,548.9569 79.2446,538.0459 78.759,527.1353 78.2743,516.2248 77.7904,505.3146 77.3073,494.4045 76.8249,483.4947 76.3433,472.5849 75.8625,461.6752 75.3825,450.7657 74.9033,439.8561 74.4248,428.9466 73.9472,418.0371 73.4703,407.1276 72.9942,396.2181 72.5188,385.3084 72.0443,374.3987 71.5705,363.4888 71.0975,352.5787 70.6252,341.6685 70.1537,330.7581 69.683,319.8474 69.2131,308.9365 68.7439,298.0253 68.2755,287.1138 67.8078,276.202 67.3409,265.2898 66.8748,254.3772 66.4095,243.4642 65.9449,232.5508 65.481,221.6368 65.0179,210.7224 64.5556,199.8075 64.0941,188.8921 63.6332,177.976 63.1732,167.0594 62.7139,156.1422 62.2553,145.2243 61.7975,134.3057 61.3405,123.3865 60.8842,112.4665 60.4286,101.5457 59.9738,90.6242 59.5198,79.7019" stroke="silver" stroke-opacity="0.5" stroke-width="1" /><polyline fill="none" points="713.8748,690.8344 705.1561,690.4429 696.4374,690.0625 687.7187,689.6931 679.0,689.3348 670.2813,688.9875 661.5626,688.6512 652.8439,688.326 644.1252,688.0118 635.4064,687.7087 626.6877,687.4166 617.969,687.1355 609.2503,686.8655 600.5315,686.6065 591.8128,686.3586 583.094,686.1216 574.3753,685.8957 565.6565,685.6808 556.9378,685.477 548.219,685.2841 539.5003,685.1023 530.7815,684.9315 522.0628,684.7718 513.344,684.623 504.6252,684.4853 495.9065,684.3586 487.1877,684.2429 478.4689,684.1383 469.7502,684.0446 461.0314,683.962 452.3126,683.8904 443.5939,683.8298 434.8751,683.7802 426.1563,683.7416 417.4375,683.7141 408.7188,683.6976 400.0,683.6921 391.2812,683.6976 382.5625,683.7141 373.8437,683.7416 365.1249,683.7802 356.4061,683.8298 347.6874,683.8904 338.9686,683.962 330.2498,684.0446 321.5311,684.1383 312.8123,684.2429 304.0935,684.3586 295.3748,684.4853 286.656,684.623 277.9372,684.7718 269.2185,684.9315 260.4997,685.1023 251.781,685.2841 243.0622,685.477 234.3435,685.6808 225.6247,685.8957 216.906,686.1216 208.1872,686.3586 199.4685,686.6065 190.7497,686.8655 182.031,687.1355 173.3123,687.4166 164.5936,687.7087 155.8748,688.0118 147.1561,688.326 138.4374,688.6512 129.7187,688.9875 121.0,689.3348 112.2813,689.6931 103.5626,690.0625 94.8439,690.4429 86.1252,690.8344" stroke="silver" stroke-opacity="0.5" stroke-width="1" /><polyline fill="none" points="717.8258,603.5163 708.9971,603.1249 700.1685,602.7445 691.3398,602.3751 682.5112,602.0168 673.6826,601.6696 664.854,601.3334 656.0255,601.0082 647.1969,600.6941 638.3683,600.391 629.5398,600.0989 620.7113,599.8179 611.8827,599.5479 603.0542,599.2889 594.2257,599.041 585.3972,598.804 576.5687,598.5782 567.7402,598.3633 558.9118,598.1595 550.0833,597.9666 541.2548,597.7849 532.4264,597.6141 523.5979,597.4543 514.7695,597.3056 505.941,597.1679 497.1126,597.0412 488.2842,596.9256 479.4557,596.8209 470.6273,596.7273 461.7989,596.6447 452.9705,596.5731 444.1421,596.5125 435.3136,596.4629 426.4852,596.4243 417.6568,596.3968 408.8284,596.3803 400.0,596.3748 391.1716,596.3803 382.3432,596.3968 373.5148,596.4243 364.6864,596.4629 355.8579,596.5125 347.0295,596.5731 338.2011,596.6447 329.3727,596.7273 320.5443,596.8209 311.7158,596.9256 302.8874,597.0412 294.059,597.1679 285.2305,597.3056 276.4021,597.4543 267.5736,597.6141 258.7452,597.7849 249.9167,597.9666 241.0882,598.1595 232.2598,598.3633 223.4313,598.5782 214.6028,598.804 205.7743,599.041 196.9458,599.2889 188.1173,599.5479 179.2887,599.8179 170.4602,600.0989 161.6317,600.391 152.8031,600.6941 143.9745,601.0082 135.146,601.3334 126.3174,601.6696 117.4888,602.0168 108.6602,602.3751 99.8315,602.7445 91.0029,603.1249 82.1742,603.5163" stroke="silver" stroke-opacity="0.5" stroke-width="1" /><polyline fill="none" points="721.7257,516.2248 712.7885,515.8336 703.8513,515.4534 694.9142,515.0843 685.9771,514.7262 677.04,514.3792 668.1029,514.0431 659.1659,513.7181 650.2289,513.4042 641.2919,513.1013 632.355,512.8094 623.4181,512.5285 614.4811,512.2586 605.5443,511.9998 596.6074,511.752 587.6706,511.5152 578.7338,511.2895 569.7969,511.0748 560.8602,510.871 551.9234,510.6783 542.9866,510.4967 534.0499,510.326 525.1132,510.1663 516.1765,510.0177 507.2398,509.8801 498.3031,509.7535 489.3664,509.6379 480.4297,509.5333 471.4931,509.4397 462.5564,509.3571 453.6198,509.2856 444.6831,509.225 435.7465,509.1755 426.8099,509.1369 417.8733,509.1094 408.9366,509.0929 400.0,509.0874 391.0634,509.0929 382.1267,509.1094 373.1901,509.1369 364.2535,509.1755 355.3169,509.225 346.3802,509.2856 337.4436,509.3571 328.5069,509.4397 319.5703,509.5333 310.6336,509.6379 301.6969,509.7535 292.7602,509.8801 283.8235,510.0177 274.8868,510.1663 265.9501,510.326 257.0134,510.4967 248.0766,510.6783 239.1398,510.871 230.2031,511.0748 221.2662,511.2895 212.3294,511.5152 203.3926,511.752 194.4557,511.9998 185.5189,512.2586 176.5819,512.5285 167.645,512.8094 158.7081,513.1013 149.7711,513.4042 140.8341,513.7181 131.8971,514.0431 122.96,514.3792 114.0229,514.7262 105.0858,515.0843 96.1487,515.4534 87.2115,515.8336 78.2743,516.2248" stroke="silver" stroke-opacity="0.5" stroke-width="1" /><polyline fill="none" points="725.5752,428.9466 716.5308,428.5558 707.4865,428.1761 698.4422,427.8073 689.398,427.4496 680.3539,427.1029 671.3098,426.7672 662.2657,426.4426 653.2217,426.1289 644.1777,425.8263 635.1337,425.5347 626.0898,425.2541 617.0459,424.9846 608.0021,424.726 598.9583,424.4785 589.9145,424.242 580.8707,424.0164 571.827,423.8019 562.7833,423.5984 553.7397,423.4059 544.696,423.2244 535.6524,423.0539 526.6088,422.8944 517.5653,422.746 508.5217,422.6085 499.4782,422.482 490.4346,422.3665 481.3911,422.262 472.3476,422.1686 463.3042,422.0861 454.2607,422.0146 445.2172,421.9541 436.1738,421.9046 427.1303,421.8661 418.0869,421.8386 409.0434,421.8221 400.0,421.8167 390.9566,421.8221 381.9131,421.8386 372.8697,421.8661 363.8262,421.9046 354.7828,421.9541 345.7393,422.0146 336.6958,422.0861 327.6524,422.1686 318.6089,422.262 309.5654,422.3665 300.5218,422.482 291.4783,422.6085 282.4347,422.746 273.3912,422.8944 264.3476,423.0539 255.304,423.2244 246.2603,423.4059 237.2167,423.5984 228.173,423.8019 219.1293,424.0164 210.0855,424.242 201.0417,424.4785 191.9979,424.726 182.9541,424.9846 173.9102,425.2541 164.8663,425.5347 155.8223,425.8263 146.7783,426.1289 137.7343,426.4426 128.6902,426.7672 119.6461,427.1029 110.602,427.4496 101.5578,427.8073 92.5135,428.1761 83.4692,428.5558 74.4248,428.9466" stroke="silver" stroke-opacity="0.5" stroke-width="1" /><polyline fill="none" points="729.3748,341.6685 720.2247,341.2783 711.0746,340.8991 701.9246,340.5309 692.7747,340.1737 683.6249,339.8275 674.4751,339.4923 665.3253,339.1682 656.1756,338.855 647.026,338.5528 637.8764,338.2617 628.7269,337.9815 619.5775,337.7124 610.428,337.4542 601.2787,337.207 592.1293,336.9709 582.98,336.7457 573.8308,336.5315 564.6816,336.3283 555.5324,336.1361 546.3833,335.9549 537.2342,335.7846 528.0851,335.6254 518.936,335.4771 509.787,335.3399 500.638,335.2136 491.489,335.0983 482.3401,334.9939 473.1911,334.9006 464.0422,334.8182 454.8933,334.7469 445.7444,334.6865 436.5955,334.6371 427.4466,334.5986 418.2977,334.5712 409.1489,334.5547 400.0,334.5492 390.8511,334.5547 381.7023,334.5712 372.5534,334.5986 363.4045,334.6371 354.2556,334.6865 345.1067,334.7469 335.9578,334.8182 326.8089,334.9006 317.6599,334.9939 308.511,335.0983 299.362,335.2136 290.213,335.3399 281.064,335.4771 271.9149,335.6254 262.7658,335.7846 253.6167,335.9549 244.4676,336.1361 235.3184,336.3283 226.1692,336.5315 217.02,336.7457 207.8707,336.9709 198.7213,337.207 189.572,337.4542 180.4225,337.7124 171.2731,337.9815 162.1236,338.2617 152.974,338.5528 143.8244,338.855 134.6747,339.1682 125.5249,339.4923 116.3751,339.8275 107.2253,340.1737 98.0754,340.5309 88.9254,340.8991 79.7753,341.2783 70.6252,341.6685" stroke="silver" stroke-opacity="0.5" stroke-width="1" /><polyline fill="none" points="733.1252,254.3772 723.8706,253.9877 714.6162,253.6093 705.3619,253.2418 696.1076,252.8853 686.8534,252.5398 677.5993,252.2052 668.3452,251.8817 659.0913,251.5692 649.8374,251.2676 640.5836,250.977 631.3298,250.6974 622.0761,250.4288 612.8225,250.1711 603.5689,249.9244 594.3154,249.6887 585.0619,249.464 575.8085,249.2502 566.5552,249.0474 557.3019,248.8556 548.0486,248.6747 538.7953,248.5048 529.5422,248.3459 520.289,248.1979 511.0359,248.0609 501.7828,247.9349 492.5297,247.8198 483.2767,247.7157 474.0236,247.6225 464.7706,247.5403 455.5177,247.4691 446.2647,247.4088 437.0117,247.3595 427.7588,247.3211 418.5059,247.2937 409.2529,247.2773 400.0,247.2718 390.7471,247.2773 381.4941,247.2937 372.2412,247.3211 362.9883,247.3595 353.7353,247.4088 344.4823,247.4691 335.2294,247.5403 325.9764,247.6225 316.7233,247.7157 307.4703,247.8198 298.2172,247.9349 288.9641,248.0609 279.711,248.1979 270.4578,248.3459 261.2047,248.5048 251.9514,248.6747 242.6981,248.8556 233.4448,249.0474 224.1915,249.2502 214.9381,249.464 205.6846,249.6887 196.4311,249.9244 187.1775,250.1711 177.9239,250.4288 168.6702,250.6974 159.4164,250.977 150.1626,251.2676 140.9087,251.5692 131.6548,251.8817 122.4007,252.2052 113.1466,252.5398 103.8924,252.8853 94.6381,253.2418 85.3838,253.6093 76.1294,253.9877 66.8748,254.3772" stroke="silver" stroke-opacity="0.5" stroke-width="1" /><polyline fill="none" points="736.8268,167.0594 727.4692,166.6709 718.1118,166.2933 708.7544,165.9267 699.3971,165.5711 690.04,165.2264 680.6829,164.8927 671.3259,164.5699 661.969,164.2581 652.6122,163.9573 643.2555,163.6674 633.8989,163.3885 624.5423,163.1205 615.1858,162.8634 605.8294,162.6173 596.4731,162.3822 587.1168,162.158 577.7605,161.9447 568.4044,161.7424 559.0483,161.5511 549.6922,161.3706 540.3362,161.2012 530.9803,161.0426 521.6243,160.895 512.2685,160.7583 502.9126,160.6326 493.5568,160.5178 484.2011,160.4139 474.8453,160.321 465.4896,160.239 456.1339,160.1679 446.7782,160.1078 437.4226,160.0586 428.0669,160.0203 418.7113,159.993 409.3556,159.9766 400.0,159.9711 390.6444,159.9766 381.2887,159.993 371.9331,160.0203 362.5774,160.0586 353.2218,160.1078 343.8661,160.1679 334.5104,160.239 325.1547,160.321 315.7989,160.4139 306.4432,160.5178 297.0874,160.6326 287.7315,160.7583 278.3757,160.895 269.0197,161.0426 259.6638,161.2012 250.3078,161.3706 240.9517,161.5511 231.5956,161.7424 222.2395,161.9447 212.8832,162.158 203.5269,162.3822 194.1706,162.6173 184.8142,162.8634 175.4577,163.1205 166.1011,163.3885 156.7445,163.6674 147.3878,163.9573 138.031,164.2581 128.6741,164.5699 119.3171,164.8927 109.96,165.2264 100.6029,165.5711 91.2456,165.9267 81.8882,166.2933 72.5308,166.6709 63.1732,167.0594" stroke="silver" stroke-opacity="0.5" stroke-width="1" /><polyline fill="none" points="740.4802,79.7019 731.0209,79.3145 721.5618,78.938 712.1027,78.5724 702.6438,78.2178 693.185,77.8741 683.7263,77.5413 674.2677,77.2195 664.8092,76.9086 655.3509,76.6086 645.8926,76.3196 636.4344,76.0414 626.9763,75.7742 617.5183,75.5179 608.0604,75.2725 598.6026,75.038 589.1448,74.8145 579.6871,74.6018 570.2295,74.4001 560.7719,74.2093 551.3144,74.0294 541.857,73.8604 532.3996,73.7023 522.9423,73.5551 513.485,73.4188 504.0278,73.2934 494.5706,73.179 485.1134,73.0754 475.6563,72.9827 466.1992,72.901 456.7421,72.8301 447.2851,72.7702 437.828,72.7211 428.371,72.683 418.914,72.6557 409.457,72.6393 400.0,72.6339 390.543,72.6393 381.086,72.6557 371.629,72.683 362.172,72.7211 352.7149,72.7702 343.2579,72.8301 333.8008,72.901 324.3437,72.9827 314.8866,73.0754 305.4294,73.179 295.9722,73.2934 286.515,73.4188 277.0577,73.5551 267.6004,73.7023 258.143,73.8604 248.6856,74.0294 239.2281,74.2093 229.7705,74.4001 220.3129,74.6018 210.8552,74.8145 201.3974,75.038 191.9396,75.2725 182.4817,75.5179 173.0237,75.7742 163.5656,76.0414 154.1074,76.3196 144.6491,76.6086 135.1908,76.9086 125.7323,77.2195 116.2737,77.5413 106.815,77.8741 97.3562,78.2178 87.8973,78.5724 78.4382,78.938 68.9791,79.3145 59.5198,79.7019" stroke="silver" stroke-opacity="0.5" stroke-width="1" /><circle cx="719.9233" cy="498.5675" fill="black" r="0.738" stroke="none" /><circle cx="707.0431" cy="605.7512" fill="black" r="0.738" stroke="none" /><circle cx="709.0574" cy="549.34" fill="black" r="0.738" stroke="none" /><circle cx="703.4442" cy="643.1213" fill="black" r="0.738" stroke="none" /><circle cx="704.1721" cy="488.8874" fill="black" r="0.936" stroke="none" /><circle cx="701.8979" cy="465.5379" fill="black" r="0.738" stroke="none" /><circle cx="708.0495" cy="164.7625" fill="black" r="0.738" stroke="none" /><circle cx="688.6069" cy="580.8394" fill="black" r="0.738" stroke="none" /><circle cx="688.137" cy="501.7865" fill="black" r="0.738" stroke="none" /><circle cx="691.681" cy="330.4294" fill="black" r="0.738" stroke="none" /><circle cx="684.5511" cy="475.9467" fill="black" r="0.738" stroke="none" /><circle cx="692.3844" cy="221.4468" fill="black" r="0.738" stroke="none" /><circle cx="670.0369" cy="698.7748" fill="black" r="0.738" stroke="none" /><circle cx="682.2578" cy="337.1548" fill="black" r="0.738" stroke="none" /><circle cx="676.6539" cy="435.0045" fill="black" r="0.738" stroke="none" /><circle cx="677.2674" cy="410.7317" fill="black" r="0.738" stroke="none" /><circle cx="679.3163" cy="303.1359" fill="black" r="0.738" stroke="none" /><circle cx="669.4942" cy="299.727" fill="black" r="0.738" stroke="none" /><circle cx="657.233" cy="521.7767" fill="black" r="0.738" stroke="none" /><circle cx="648.977" cy="704.4518" fill="black" r="0.936" stroke="none" /><circle cx="643.4419" cy="677.6695" fill="black" r="0.738" stroke="none" /><circle cx="657.7169" cy="182.2149" fill="black" r="0.738" stroke="none" /><circle cx="646.8724" cy="479.2991" fill="black" r="0.738" stroke="none" /><circle cx="648.1967" cy="197.3825" fill="black" r="0.738" stroke="none" /><circle cx="647.9305" cy="157.8669" fill="black" r="0.738" stroke="none" /><circle cx="628.4432" cy="668.0657" fill="black" r="0.936" stroke="none" /><circle cx="637.8146" cy="210.1726" fill="black" r="0.738" stroke="none" /><circle cx="620.1975" cy="678.5515" fill="black" r="0.738" stroke="none" /><circle cx="628.0292" cy="404.436" fill="black" r="0.738" stroke="none" /><circle cx="608.0616" cy="691.5501" fill="black" r="0.738" stroke="none" /><circle cx="616.026" cy="400.1492" fill="black" r="0.936" stroke="none" /><circle cx="607.579" cy="587.1879" fill="black" r="0.738" stroke="none" /><circle cx="609.8454" cy="466.7893" fill="black" r="0.738" stroke="none" /><circle cx="606.4656" cy="471.7594" fill="black" r="0.738" stroke="none" /><circle cx="610.1596" cy="331.2455" fill="black" r="0.738" stroke="none" /><circle cx="607.828" cy="394.5022" fill="black" r="0.738" stroke="none" /><circle cx="595.1923" cy="712.3277" fill="black" r="2.322" stroke="none" /><circle cx="594.2165" cy="724.6266" fill="black" r="0.738" stroke="none" /><circle cx="603.3555" cy="390.5368" fill="black" r="0.738" stroke="none" /><circle cx="601.9938" cy="103.1805" fill="black" r="0.738" stroke="none" /><circle cx="596.2319" cy="247.1162" fill="black" r="0.738" stroke="none" /><circle cx="583.8097" cy="605.4894" fill="black" r="0.738" stroke="none" /><circle cx="596.1713" cy="100.5908" fill="black" r="0.738" stroke="none" /><circle cx="585.348" cy="398.1916" fill="black" r="0.936" stroke="none" /><circle cx="588.518" cy="207.1826" fill="black" r="0.738" stroke="none" /><circle cx="589.3895" cy="109.8691" fill="black" r="0.738" stroke="none" /><circle cx="584.9743" cy="234.3516" fill="black" r="0.738" stroke="none" /><circle cx="583.76" cy="210.0405" fill="black" r="0.738" stroke="none" /><circle cx="572.8498" cy="448.1872" fill="black" r="0.936" stroke="none" /><circle cx="567.2886" cy="511.2784" fill="black" r="0.738" stroke="none" /><circle cx="562.7435" cy="341.3508" fill="black" r="0.738" stroke="none" /><circle cx="546.143" cy="694.3272" fill="black" r="2.916" stroke="none" /><circle cx="547.3304" cy="577.3851" fill="black" r="0.738" stroke="none" /><circle cx="547.2658" cy="167.0907" fill="black" r="0.738" stroke="none" /><circle cx="537.537" cy="574.4819" fill="black" r="0.738" stroke="none" /><circle cx="539.7024" cy="292.6137" fill="black" r="0.738" stroke="none" /><circle cx="536.4488" cy="264.0927" fill="black" r="0.738" stroke="none" /><circle cx="533.7166" cy="393.6874" fill="black" r="0.738" stroke="none" /><circle cx="534.065" cy="299.2362" fill="black" r="1.17" stroke="none" /><circle cx="527.9196" cy="623.9933" fill="black" r="0.738" stroke="none" /><circle cx="528.614" cy="502.2829" fill="black" r="0.738" stroke="none" /><circle cx="529.4452" cy="307.1016" fill="black" r="0.738" stroke="none" /><circle cx="518.2019" cy="594.8297" fill="black" r="0.738" stroke="none" /><circle cx="514.9658" cy="641.324" fill="black" r="0.738" stroke="none" /><circle cx="508.9654" cy="722.9946" fill="black" r="0.936" stroke="none" /><circle cx="510.3083" cy="409.4545" fill="black" r="0.738" stroke="none" /><circle cx="503.4487" cy="665.1629" fill="black" r="0.738" stroke="none" /><circle cx="508.841" cy="120.7076" fill="black" r="0.738" stroke="none" /><circle cx="504.442" cy="361.9744" fill="black" r="0.738" stroke="none" /><circle cx="500.8686" cy="378.248" fill="black" r="0.738" stroke="none" /><circle cx="492.3414" cy="426.143" fill="black" r="0.738" stroke="none" /><circle cx="488.9883" cy="194.1721" fill="black" r="0.738" stroke="none" /><circle cx="481.8499" cy="572.9258" fill="black" r="0.738" stroke="none" /><circle cx="484.2124" cy="263.8754" fill="black" r="0.738" stroke="none" /><circle cx="479.822" cy="538.5944" fill="black" r="0.738" stroke="none" /><circle cx="480.0535" cy="478.6302" fill="black" r="0.738" stroke="none" /><circle cx="477.6916" cy="152.4013" fill="black" r="0.738" stroke="none" /><circle cx="473.0292" cy="491.7363" fill="black" r="0.738" stroke="none" /><circle cx="468.0262" cy="617.3947" fill="black" r="0.738" stroke="none" /><circle cx="468.3124" cy="323.8582" fill="black" r="0.738" stroke="none" /><circle cx="461.7365" cy="339.3376" fill="black" r="0.738" stroke="none" /><circle cx="460.6671" cy="84.3027" fill="black" r="0.738" stroke="none" /><circle cx="449.1947" cy="144.404" fill="black" r="0.738" stroke="none" /><circle cx="443.7391" cy="715.7129" fill="black" r="0.738" stroke="none" /><circle cx="443.7387" cy="275.3259" fill="black" r="0.738" stroke="none" /><circle cx="441.7464" cy="619.3724" fill="black" r="0.738" stroke="none" /><circle cx="435.5348" cy="704.5715" fill="black" r="0.738" stroke="none" /><circle cx="436.6331" cy="264.9023" fill="black" r="0.936" stroke="none" /><circle cx="428.4874" cy="693.533" fill="black" r="0.738" stroke="none" /><circle cx="424.6848" cy="565.6896" fill="black" r="0.738" stroke="none" /><circle cx="424.4136" cy="541.1607" fill="black" r="0.738" stroke="none" /><circle cx="425.042" cy="97.3933" fill="black" r="0.738" stroke="none" /><circle cx="423.5723" cy="260.924" fill="black" r="0.738" stroke="none" /><circle cx="422.1715" cy="207.3229" fill="black" r="0.738" stroke="none" /><circle cx="418.9046" cy="265.9737" fill="black" r="0.936" stroke="none" /><circle cx="416.464" cy="500.0293" fill="black" r="0.738" stroke="none" /><circle cx="414.8366" cy="419.1262" fill="black" r="0.738" stroke="none" /><circle cx="413.2311" cy="506.3939" fill="black" r="0.738" stroke="none" /><circle cx="412.271" cy="394.8613" fill="black" r="0.738" stroke="none" /><circle cx="408.8187" cy="428.2796" fill="black" r="0.738" stroke="none" /><circle cx="406.8016" cy="257.0508" fill="black" r="0.738" stroke="none" /><circle cx="400.8201" cy="190.6172" fill="black" r="0.738" stroke="none" /><circle cx="400.2911" cy="378.5324" fill="black" r="0.936" stroke="none" /><circle cx="398.8711" cy="115.6093" fill="black" r="0.738" stroke="none" /><circle cx="394.8487" cy="292.9217" fill="black" r="0.738" stroke="none" /><circle cx="394.69" cy="579.0046" fill="black" r="0.738" stroke="none" /><circle cx="388.1078" cy="494.173" fill="black" r="0.738" stroke="none" /><circle cx="385.1331" cy="678.9919" fill="black" r="1.17" stroke="none" /><circle cx="379.5916" cy="339.0273" fill="black" r="0.936" stroke="none" /><circle cx="374.4974" cy="535.1419" fill="black" r="0.738" stroke="none" /><circle cx="371.6825" cy="88.1449" fill="black" r="0.738" stroke="none" /><circle cx="370.8313" cy="305.1939" fill="black" r="0.936" stroke="none" /><circle cx="371.0885" cy="428.9416" fill="black" r="0.738" stroke="none" /><circle cx="359.6387" cy="489.2131" fill="black" r="0.738" stroke="none" /><circle cx="346.0853" cy="555.7244" fill="black" r="0.738" stroke="none" /><circle cx="341.1788" cy="88.8318" fill="black" r="0.738" stroke="none" /><circle cx="342.8" cy="406.6767" fill="black" r="0.738" stroke="none" /><circle cx="344.0274" cy="714.0549" fill="black" r="0.738" stroke="none" /><circle cx="340.344" cy="362.0123" fill="black" r="0.738" stroke="none" /><circle cx="340.74" cy="727.3617" fill="black" r="0.738" stroke="none" /><circle cx="333.4495" cy="158.6759" fill="black" r="0.738" stroke="none" /><circle cx="336.0108" cy="658.2241" fill="black" r="0.738" stroke="none" /><circle cx="327.8644" cy="473.311" fill="black" r="0.738" stroke="none" /><circle cx="328.3383" cy="654.2816" fill="black" r="0.738" stroke="none" /><circle cx="324.3955" cy="282.9034" fill="black" r="0.738" stroke="none" /><circle cx="322.2177" cy="256.7377" fill="black" r="0.738" stroke="none" /><circle cx="321.6244" cy="256.5691" fill="black" r="0.738" stroke="none" /><circle cx="320.9304" cy="402.3378" fill="black" r="0.738" stroke="none" /><circle cx="319.9602" cy="499.491" fill="black" r="0.738" stroke="none" /><circle cx="309.3448" cy="211.3044" fill="black" r="0.738" stroke="none" /><circle cx="308.71" cy="283.9456" fill="black" r="0.738" stroke="none" /><circle cx="303.026" cy="570.9329" fill="black" r="0.738" stroke="none" /><circle cx="298.4661" cy="529.1778" fill="black" r="0.738" stroke="none" /><circle cx="295.6235" cy="449.695" fill="black" r="0.738" stroke="none" /><circle cx="292.2258" cy="424.2561" fill="black" r="0.738" stroke="none" /><circle cx="295.4649" cy="699.5973" fill="black" r="0.738" stroke="none" /><circle cx="288.8453" cy="473.4498" fill="black" r="0.738" stroke="none" /><circle cx="290.7499" cy="661.0591" fill="black" r="0.738" stroke="none" /><circle cx="289.4665" cy="588.0696" fill="black" r="0.738" stroke="none" /><circle cx="284.6576" cy="306.7023" fill="black" r="0.738" stroke="none" /><circle cx="287.3922" cy="595.5244" fill="black" r="0.738" stroke="none" /><circle cx="278.6566" cy="99.6563" fill="black" r="0.738" stroke="none" /><circle cx="275.3494" cy="115.1699" fill="black" r="0.738" stroke="none" /><circle cx="278.6878" cy="515.078" fill="black" r="0.738" stroke="none" /><circle cx="275.7965" cy="410.8948" fill="black" r="0.738" stroke="none" /><circle cx="274.8869" cy="643.1579" fill="black" r="0.738" stroke="none" /><circle cx="266.7608" cy="222.4745" fill="black" r="1.476" stroke="none" /><circle cx="268.925" cy="357.5005" fill="black" r="0.738" stroke="none" /><circle cx="263.0343" cy="126.0269" fill="black" r="0.936" stroke="none" /><circle cx="266.3056" cy="431.3117" fill="black" r="0.738" stroke="none" /><circle cx="266.846" cy="543.313" fill="black" r="0.738" stroke="none" /><circle cx="263.0853" cy="688.8075" fill="black" r="1.854" stroke="none" /><circle cx="245.0036" cy="557.1994" fill="black" r="0.738" stroke="none" /><circle cx="238.9792" cy="397.891" fill="black" r="0.738" stroke="none" /><circle cx="238.6344" cy="517.0821" fill="black" r="0.738" stroke="none" /><circle cx="234.346" cy="335.3889" fill="black" r="0.738" stroke="none" /><circle cx="230.043" cy="159.1544" fill="black" r="0.738" stroke="none" /><circle cx="231.8799" cy="275.978" fill="black" r="0.738" stroke="none" /><circle cx="226.8788" cy="123.3999" fill="black" r="0.738" stroke="none" /><circle cx="226.8732" cy="123.1379" fill="black" r="0.936" stroke="none" /><circle cx="236.3484" cy="588.7468" fill="black" r="0.738" stroke="none" /><circle cx="236.179" cy="724.4409" fill="black" r="0.738" stroke="none" /><circle cx="219.6564" cy="99.7005" fill="black" r="0.738" stroke="none" /><circle cx="221.2543" cy="198.0458" fill="black" r="0.738" stroke="none" /><circle cx="214.5319" cy="254.19" fill="black" r="0.738" stroke="none" /><circle cx="207.4603" cy="88.18" fill="black" r="0.738" stroke="none" /><circle cx="216.7494" cy="493.8483" fill="black" r="1.17" stroke="none" /><circle cx="208.259" cy="190.924" fill="black" r="0.738" stroke="none" /><circle cx="214.1134" cy="460.555" fill="black" r="0.936" stroke="none" /><circle cx="198.8419" cy="97.3035" fill="black" r="0.738" stroke="none" /><circle cx="200.0623" cy="217.9465" fill="black" r="0.738" stroke="none" /><circle cx="210.6062" cy="621.014" fill="black" r="0.738" stroke="none" /><circle cx="204.5619" cy="434.4281" fill="black" r="0.936" stroke="none" /><circle cx="204.7242" cy="513.3756" fill="black" r="0.936" stroke="none" /><circle cx="205.5847" cy="566.1983" fill="black" r="0.936" stroke="none" /><circle cx="192.6558" cy="252.8191" fill="black" r="0.738" stroke="none" /><circle cx="197.7579" cy="478.8037" fill="black" r="0.738" stroke="none" /><circle cx="196.8757" cy="488.4358" fill="black" r="0.936" stroke="none" /><circle cx="196.129" cy="502.7811" fill="black" r="1.17" stroke="none" /><circle cx="198.2257" cy="643.7292" fill="black" r="0.738" stroke="none" /><circle cx="181.3968" cy="292.0876" fill="black" r="0.738" stroke="none" /><circle cx="186.4598" cy="490.6547" fill="black" r="0.936" stroke="none" /><circle cx="185.6562" cy="497.4917" fill="black" r="0.936" stroke="none" /><circle cx="180.5142" cy="488.6473" fill="black" r="0.936" stroke="none" /><circle cx="171.2467" cy="186.0491" fill="black" r="0.738" stroke="none" /><circle cx="174.7183" cy="391.949" fill="black" r="0.738" stroke="none" /><circle cx="176.017" cy="465.9839" fill="black" r="0.936" stroke="none" /><circle cx="184.0396" cy="726.4171" fill="black" r="0.738" stroke="none" /><circle cx="171.3322" cy="421.4894" fill="black" r="0.738" stroke="none" /><circle cx="169.9623" cy="472.7229" fill="black" r="0.738" stroke="none" /><circle cx="163.2748" cy="260.9071" fill="black" r="0.738" stroke="none" /><circle cx="169.4962" cy="641.7338" fill="black" r="0.936" stroke="none" /><circle cx="150.7263" cy="128.9725" fill="black" r="0.738" stroke="none" /><circle cx="145.4641" cy="136.3057" fill="black" r="0.738" stroke="none" /><circle cx="159.0633" cy="701.279" fill="black" r="0.738" stroke="none" /><circle cx="148.787" cy="451.1368" fill="black" r="0.738" stroke="none" /><circle cx="145.3116" cy="393.6759" fill="black" r="0.738" stroke="none" /><circle cx="147.5608" cy="517.7628" fill="black" r="0.936" stroke="none" /><circle cx="137.3552" cy="293.1986" fill="black" r="0.936" stroke="none" /><circle cx="126.2061" cy="210.2889" fill="black" r="0.738" stroke="none" /><circle cx="136.6121" cy="531.4373" fill="black" r="0.738" stroke="none" /><circle cx="127.5607" cy="312.2405" fill="black" r="0.936" stroke="none" /><circle cx="139.9119" cy="659.0365" fill="black" r="0.738" stroke="none" /><circle cx="136.3922" cy="625.1546" fill="black" r="0.738" stroke="none" /><circle cx="133.5671" cy="574.2923" fill="black" r="0.738" stroke="none" /><circle cx="126.4614" cy="448.7844" fill="black" r="0.738" stroke="none" /><circle cx="123.0434" cy="599.3489" fill="black" r="0.738" stroke="none" /><circle cx="118.5054" cy="602.6758" fill="black" r="0.936" stroke="none" /><circle cx="97.0805" cy="113.573" fill="black" r="0.738" stroke="none" /><circle cx="99.9182" cy="212.8177" fill="black" r="0.738" stroke="none" /><circle cx="119.0719" cy="718.9844" fill="black" r="0.738" stroke="none" /><circle cx="100.109" cy="332.5831" fill="black" r="0.738" stroke="none" /><circle cx="106.5383" cy="520.8829" fill="black" r="0.738" stroke="none" /><circle cx="109.8624" cy="641.6815" fill="black" r="0.738" stroke="none" /><circle cx="95.1948" cy="369.1445" fill="black" r="0.738" stroke="none" /><circle cx="81.1433" cy="93.8836" fill="black" r="0.738" stroke="none" /><circle cx="104.2876" cy="677.6073" fill="black" r="1.17" stroke="none" /><circle cx="80.2265" cy="109.0571" fill="black" r="0.738" stroke="none" /><circle cx="77.6465" cy="101.1089" fill="black" r="1.17" stroke="none" /><circle cx="99.4246" cy="684.9041" fill="black" r="0.738" stroke="none" /><circle cx="78.5854" cy="205.0862" fill="black" r="0.738" stroke="none" /><circle cx="73.2623" cy="377.2314" fill="black" r="0.738" stroke="none" /><circle cx="13.77" cy="786.23" fill="black" r="4.59" stroke="none" /><circle cx="13.77" cy="786.23" fill="black" r="4.59" stroke="none" /><text fill="black" font-family="monospace" font-size="12" x="10.77" y="775.64">1</text><circle cx="37.77" cy="786.23" fill="black" r="3.654" stroke="none" /><circle cx="37.77" cy="786.23" fill="black" r="3.654" stroke="none" /><text fill="black" font-family="monospace" font-size="12" x="34.769999999999996" y="775.64">2</text><circle cx="61.77" cy="786.23" fill="black" r="2.916" stroke="none" /><circle cx="61.77" cy="786.23" fill="black" r="2.916" stroke="none" /><text fill="black" font-family="monospace" font-size="12" x="58.769999999999996" y="775.64">3</text><circle cx="85.77" cy="786.23" fill="black" r="2.322" stroke="none" /><circle cx="85.77" cy="786.23" fill="black" r="2.322" stroke="none" /><text fill="black" font-family="monospace" font-size="12" x="82.77" y="775.64">4</text><circle cx="109.77" cy="786.23" fill="black" r="1.854" stroke="none" /><circle cx="109.77" cy="786.23" fill="black" r="1.854" stroke="none" /><text fill="black" font-family="monospace" font-size="12" x="106.77" y="775.64">5</text><circle cx="133.77" cy="786.23" fill="black" r="1.476" stroke="none" /><circle cx="133.77" cy="786.23" fill="black" r="1.476" stroke="none" /><text fill="black" font-family="monospace" font-size="12" x="130.77" y="775.64">6</text><circle cx="157.77" cy="786.23" fill="black" r="1.17" stroke="none" /><circle cx="157.77" cy="786.23" fill="black" r="1.17" stroke="none" /><text fill="black" font-family="monospace" font-size="12" x="154.77" y="775.64">7</text><circle cx="181.77" cy="786.23" fill="black" r="0.936" stroke="none" /><circle cx="181.77" cy="786.23" fill="black" r="0.936" stroke="none" /><text fill="black" font-family="monospace" font-size="12" x="178.77" y="775.64">8</text><circle cx="205.77" cy="786.23" fill="black" r="0.738" stroke="none" /><circle cx="205.77" cy="786.23" fill="black" r="0.738" stroke="none" /><text fill="black" font-family="monospace" font-size="12" x="202.77" y="775.64">9</text><text fill="gray" fill-opacity="0.5" font-family="monospace" font-size="12" x="721.5617773142823" y="78.93798337469985">17h25m</text><text fill="gray" fill-opacity="0.5" font-family="monospace" font-size="12" x="626.9763192658146" y="75.77419290249986">17h30m</text><text fill="gray" fill-opacity="0.5" font-family="monospace" font-size="12" x="532.3996131753418" y="73.70228194320867">17h35m</text><text fill="gray" fill-opacity="0.5" font-family="monospace" font-size="12" x="437.8280220808132" y="72.72110382139249">17h40m</text><text fill="gray" fill-opacity="0.5" font-family="monospace" font-size="12" x="343.25789372358616" y="72.8301155698436">17h45m</text><text fill="gray" fill-opacity="0.5" font-family="monospace" font-size="12" x="248.68557147867043" y="74.0293775120661">17h50m</text><text fill="gray" fill-opacity="0.5" font-family="monospace" font-size="12" x="154.10740527127066" y="76.31955330866856">17h55m</text><text fill="gray" fill-opacity="0.5" font-family="monospace" font-size="12" x="59.519762513921535" y="79.70191046764609">18h00m</text><text fill="gray" fill-opacity="0.5" font-family="monospace" font-size="12" x="86.12523979011269" y="690.8343540987717">-37°</text><text fill="gray" fill-opacity="0.5" font-family="monospace" font-size="12" x="82.17424894509492" y="603.5163037275">-36°</text><text fill="gray" fill-opacity="0.5" font-family="monospace" font-size="12" x="78.27432743866211" y="516.2248204294356">-35°</text><text fill="gray" fill-opacity="0.5" font-family="monospace" font-size="12" x="74.42484486387355" y="428.94664383073075">-34°</text><text fill="gray" fill-opacity="0.5" font-family="monospace" font-size="12" x="70.62520151171304" y="341.6685216233935">-33°</text><text fill="gray" fill-opacity="0.5" font-family="monospace" font-size="12" x="66.87482799348686" y="254.37720152816078">-32°</text><text fill="gray" fill-opacity="0.5" font-family="monospace" font-size="12" x="63.17318490240535" y="167.05942325739042">-31°</text><text fill="gray" fill-opacity="0.5" font-family="monospace" font-size="12" x="59.519762513921535" y="79.70191046764609">-30°</text><text fill="black" font-family="monospace" font-size="12" x="12" y="48">&gt;&gt; No.215 17h24m 18h00m -37.5°-30.0°</text><a target="_self" xlink:href="hip011.svg"><text fill="black" font-family="monospace" font-size="12" x="12" y="36">&gt; No.11 15h00m 18h00m -52.5°-22.5°</text></a><a target="_self" xlink:href="hip001.svg"><text fill="black" font-family="monospace" font-size="12" x="12" y="24">No.1 00h 24h -90.0°+0.0°</text></a><polyline fill="none" points="740.4802,79.7019 731.0209,79.3145 721.5618,78.938 712.1027,78.5724 702.6438,78.2178 693.185,77.8741 683.7263,77.5413 674.2677,77.2195 664.8092,76.9086 655.3509,76.6086 645.8926,76.3196 636.4344,76.0414 626.9763,75.7742 617.5183,75.5179 608.0604,75.2725 598.6026,75.038 589.1448,74.8145 579.6871,74.6018 570.2295,74.4001 560.7719,74.2093 551.3144,74.0294 541.857,73.8604 532.3996,73.7023 522.9423,73.5551 513.485,73.4188 504.0278,73.2934 494.5706,73.179 485.1134,73.0754 475.6563,72.9827 466.1992,72.901 456.7421,72.8301 447.2851,72.7702 437.828,72.7211 428.371,72.683 418.914,72.6557 409.457,72.6393 400.0,72.6339 390.543,72.6393 381.086,72.6557 371.629,72.683 362.172,72.7211 352.7149,72.7702 343.2579,72.8301 333.8008,72.901 324.3437,72.9827 314.8866,73.0754 305.4294,73.179 295.9722,73.2934 286.515,73.4188 277.0577,73.5551 267.6004,73.7023 258.143,73.8604 248.6856,74.0294 239.2281,74.2093 229.7705,74.4001 220.3129,74.6018 210.8552,74.8145 201.3974,75.038 191.9396,75.2725 182.4817,75.5179 173.0237,75.7742 163.5656,76.0414 154.1074,76.3196 144.6491,76.6086 135.1908,76.9086 125.7323,77.2195 116.2737,77.5413 106.815,77.8741 97.3562,78.2178 87.8973,78.5724 78.4382,78.938 68.9791,79.3145 59.5198,79.7019" stroke="black" stroke-opacity="0.5" stroke-width="1" /><polyline fill="none" points="711.8799,734.5075 712.3798,723.5882 712.879,712.6696 713.3773,701.7516 713.8748,690.8344 714.3714,679.9177 714.8673,669.0016 715.3624,658.0861 715.8567,647.1712 716.3501,636.2567 716.8428,625.3428 717.3347,614.4293 717.8258,603.5163 718.316,592.6037 718.8055,581.6915 719.2942,570.7796 719.7821,559.8681 720.2691,548.9569 720.7554,538.0459 721.241,527.1353 721.7257,516.2248 722.2096,505.3146 722.6927,494.4045 723.1751,483.4947 723.6567,472.5849 724.1375,461.6752 724.6175,450.7657 725.0967,439.8561 725.5752,428.9466 726.0528,418.0371 726.5297,407.1276 727.0058,396.2181 727.4812,385.3084 727.9557,374.3987 728.4295,363.4888 728.9025,352.5787 729.3748,341.6685 729.8463,330.7581 730.317,319.8474 730.7869,308.9365 731.2561,298.0253 731.7245,287.1138 732.1922,276.202 732.6591,265.2898 733.1252,254.3772 733.5905,243.4642 734.0551,232.5508 734.519,221.6368 734.9821,210.7224 735.4444,199.8075 735.9059,188.8921 736.3668,177.976 736.8268,167.0594 737.2861,156.1422 737.7447,145.2243 738.2025,134.3057 738.6595,123.3865 739.1158,112.4665 739.5714,101.5457 740.0262,90.6242 740.4802,79.7019" stroke="black" stroke-opacity="0.5" stroke-width="1" /><polyline fill="none" points="711.8799,734.5075 703.2167,734.1161 694.5536,733.7357 685.8904,733.3664 677.2272,733.0081 668.564,732.6608 659.9007,732.3246 651.2375,731.9995 642.5742,731.6853 633.911,731.3822 625.2477,731.0902 616.5844,730.8092 607.9211,730.5392 599.2578,730.2802 590.5945,730.0323 581.9311,729.7954 573.2678,729.5695 564.6045,729.3546 555.9411,729.1508 547.2778,728.958 538.6144,728.7762 529.951,728.6054 521.2877,728.4457 512.6243,728.2969 503.9609,728.1592 495.2975,728.0325 486.6341,727.9169 477.9707,727.8122 469.3073,727.7186 460.6439,727.636 451.9805,727.5644 443.3171,727.5038 434.6537,727.4542 425.9902,727.4157 417.3268,727.3881 408.6634,727.3716 400.0,727.3661 391.3366,727.3716 382.6732,727.3881 374.0098,727.4157 365.3463,727.4542 356.6829,727.5038 348.0195,727.5644 339.3561,727.636 330.6927,727.7186 322.0293,727.8122 313.3659,727.9169 304.7025,728.0325 296.0391,728.1592 287.3757,728.2969 278.7123,728.4457 270.049,728.6054 261.3856,728.7762 252.7222,728.958 244.0589,729.1508 235.3955,729.3546 226.7322,729.5695 218.0689,729.7954 209.4055,730.0323 200.7422,730.2802 192.0789,730.5392 183.4156,730.8092 174.7523,731.0902 166.089,731.3822 157.4258,731.6853 148.7625,731.9995 140.0993,732.3246 131.436,732.6608 122.7728,733.0081 114.1096,733.3664 105.4464,733.7357 96.7833,734.1161 88.1201,734.5075" stroke="black" stroke-opacity="0.5" stroke-width="1" /><polyline fill="none" points="88.1201,734.5075 87.6202,723.5882 87.121,712.6696 86.6227,701.7516 86.1252,690.8344 85.6286,679.9177 85.1327,669.0016 84.6376,658.0861 84.1433,647.1712 83.6499,636.2567 83.1572,625.3428 82.6653,614.4293 82.1742,603.5163 81.684,592.6037 81.1945,581.6915 80.7058,570.7796 80.2179,559.8681 79.7309,548.9569 79.2446,538.0459 78.759,527.1353 78.2743,516.2248 77.7904,505.3146 77.3073,494.4045 76.8249,483.4947 76.3433,472.5849 75.8625,461.6752 75.3825,450.7657 74.9033,439.8561 74.4248,428.9466 73.9472,418.0371 73.4703,407.1276 72.9942,396.2181 72.5188,385.3084 72.0443,374.3987 71.5705,363.4888 71.0975,352.5787 70.6252,341.6685 70.1537,330.7581 69.683,319.8474 69.2131,308.9365 68.7439,298.0253 68.2755,287.1138 67.8078,276.202 67.3409,265.2898 66.8748,254.3772 66.4095,243.4642 65.9449,232.5508 65.481,221.6368 65.0179,210.7224 64.5556,199.8075 64.0941,188.8921 63.6332,177.976 63.1732,167.0594 62.7139,156.1422 62.2553,145.2243 61.7975,134.3057 61.3405,123.3865 60.8842,112.4665 60.4286,101.5457 59.9738,90.6242 59.5198,79.7019" stroke="black" stroke-opacity="0.5" stroke-width="1" /></svg>