<?xml version="1.0" encoding="utf-8" ?>
<svg baseProfile="tiny" height="800" version="1.2" width="800" xmlns="http://www.w3.org/2000/svg" xmlns:ev="http://www.w3.org/2001/xml-events" xmlns:xlink="http://www.w3.org/1999/xlink"><defs /><rect fill="none" height="800" stroke="black" stroke-width="2" width="800" x="0" y="0" /><polyline fill="none" points="648.5525,730.7276 648.8477,719.805 649.1422,708.8832 649.4362,697.962 649.7295,687.0415 650.0221,676.1216 650.3142,665.2024 650.6056,654.2838 650.8963,643.3657 651.1865,632.4482 651.476,621.5313 651.7649,610.6148 652.0532,599.6988 652.3408,588.7832 652.6278,577.868 652.9142,566.9533 653.2,556.0389 653.4852,545.1248 653.7697,534.2111 654.0536,523.2976 654.3369,512.3844 654.6196,501.4714 654.9016,490.5587 655.1831,479.6461 655.4639,468.7337 655.7441,457.8214 656.0237,446.9093 656.3027,435.9972 656.581,425.0852 656.8588,414.1731 657.1359,403.2611 657.4124,392.3491 657.6883,381.437 657.9636,370.5249 658.2383,359.6126 658.5124,348.7003 658.7859,337.7877 659.0587,326.875 659.331,315.9621 659.6027,305.049 659.8737,294.1356 660.1441,283.2219 660.414,272.3079 660.6832,261.3936 660.9518,250.4789 661.2199,239.5638 661.4873,228.6483 661.7541,217.7324 662.0203,206.816 662.2859,195.8991 662.5509,184.9817 662.8153,174.0638 663.0792,163.1453 663.3424,152.2262 663.605,141.3065 663.867,130.3861 664.1284,119.4651 664.3893,108.5433 664.6495,97.6209 664.9091,86.6976 665.1682,75.7737" stroke="silver" stroke-opacity="0.5" stroke-width="1" /><polyline fill="none" points="553.9653,728.6558 554.1481,717.7351 554.3305,706.8151 554.5125,695.8958 554.6941,684.9771 554.8753,674.0592 555.0561,663.1419 555.2365,652.2252 555.4166,641.3091 555.5962,630.3936 555.7755,619.4786 555.9544,608.5641 556.1329,597.6501 556.311,586.7365 556.4887,575.8234 556.6661,564.9107 556.843,553.9984 557.0196,543.0864 557.1958,532.1748 557.3716,521.2634 557.547,510.3524 557.722,499.4415 557.8966,488.531 558.0709,477.6206 558.2448,466.7103 558.4183,455.8003 558.5914,444.8903 558.7641,433.9805 558.9365,423.0707 559.1085,412.1609 559.2801,401.2512 559.4513,390.3415 559.6221,379.4317 559.7926,368.5219 559.9627,357.6119 560.1324,346.7019 560.3017,335.7917 560.4707,324.8814 560.6393,313.9709 560.8075,303.0601 560.9753,292.1491 561.1427,281.2379 561.3098,270.3263 561.4765,259.4145 561.6428,248.5022 561.8088,237.5897 561.9744,226.6767 562.1396,215.7633 562.3044,204.8494 562.4689,193.9351 562.633,183.0202 562.7967,172.1049 562.96,161.1889 563.123,150.2724 563.2856,139.3553 563.4479,128.4376 563.6097,117.5192 563.7712,106.6001 563.9323,95.6803 564.0931,84.7598 564.2535,73.8385" stroke="silver" stroke-opacity="0.5" stroke-width="1" /><polyline fill="none" points="459.3902,727.558 459.4607,716.6382 459.5311,705.7192 459.6013,694.8009 459.6713,683.8833 459.7412,672.9663 459.8109,662.0501 459.8805,651.1344 459.95,640.2193 460.0192,629.3048 460.0884,618.3909 460.1574,607.4775 460.2262,596.5645 460.2949,585.6521 460.3634,574.74 460.4318,563.8284 460.5001,552.9172 460.5682,542.0063 460.6361,531.0958 460.7039,520.1855 460.7715,509.2756 460.839,498.3659 460.9064,487.4565 460.9736,476.5472 461.0407,465.6382 461.1076,454.7293 461.1743,443.8205 461.241,432.9118 461.3074,422.0032 461.3737,411.0947 461.4399,400.1862 461.506,389.2776 461.5718,378.3691 461.6376,367.4605 461.7032,356.5518 461.7686,345.643 461.8339,334.7341 461.8991,323.825 461.9641,312.9157 462.029,302.0063 462.0937,291.0966 462.1583,280.1866 462.2227,269.2764 462.287,258.3658 462.3511,247.4549 462.4151,236.5436 462.479,225.632 462.5427,214.7199 462.6063,203.8074 462.6697,192.8944 462.733,181.9809 462.7961,171.0669 462.8591,160.1523 462.9219,149.2372 462.9847,138.3215 463.0472,127.4051 463.1096,116.4881 463.1719,105.5705 463.2341,94.6521 463.2961,83.733 463.3579,72.8131" stroke="silver" stroke-opacity="0.5" stroke-width="1" /><polyline fill="none" points="364.8199,727.4334 364.7782,716.5138 364.7365,705.5948 364.6949,694.6767 364.6534,683.7592 364.612,672.8423 364.5707,661.9262 364.5295,651.0106 364.4884,640.0957 364.4473,629.1813 364.4064,618.2675 364.3655,607.3542 364.3247,596.4414 364.2841,585.529 364.2435,574.6171 364.2029,563.7056 364.1625,552.7945 364.1222,541.8838 364.0819,530.9733 364.0418,520.0633 364.0017,509.1534 363.9617,498.2439 363.9218,487.3346 363.882,476.4255 363.8423,465.5165 363.8027,454.6078 363.7631,443.6991 363.7237,432.7906 363.6843,421.8821 363.645,410.9737 363.6058,400.0653 363.5667,389.1569 363.5277,378.2485 363.4887,367.3401 363.4499,356.4315 363.4111,345.5229 363.3724,334.6141 363.3338,323.7051 363.2953,312.796 363.2569,301.8867 363.2186,290.9771 363.1803,280.0673 363.1421,269.1572 363.1041,258.2468 363.0661,247.3361 363.0282,236.4249 362.9903,225.5134 362.9526,214.6015 362.9149,203.6891 362.8774,192.7763 362.8399,181.863 362.8025,170.9491 362.7652,160.0347 362.7279,149.1198 362.6908,138.2042 362.6537,127.288 362.6168,116.3712 362.5799,105.4536 362.5431,94.5354 362.5063,83.6165 362.4697,72.6968" stroke="silver" stroke-opacity="0.5" stroke-width="1" /><polyline fill="none" points="270.2468,728.2821 270.0928,717.3616 269.9391,706.442 269.7857,695.523 269.6327,684.6047 269.48,673.6871 269.3276,662.7702 269.1755,651.8538 269.0238,640.9381 268.8724,630.0229 268.7213,619.1083 268.5706,608.1941 268.4202,597.2805 268.2701,586.3673 268.1203,575.4546 267.9709,564.5422 267.8218,553.6303 267.673,542.7187 267.5245,531.8074 267.3764,520.8965 267.2286,509.9858 267.0811,499.0753 266.9339,488.1651 266.7871,477.2551 266.6405,466.3453 266.4943,455.4356 266.3484,444.5261 266.2029,433.6166 266.0576,422.7073 265.9127,411.7979 265.7681,400.8886 265.6238,389.9793 265.4799,379.0699 265.3362,368.1605 265.1929,357.251 265.0499,346.3414 264.9072,335.4316 264.7648,324.5217 264.6228,313.6116 264.481,302.7013 264.3396,291.7908 264.1985,280.88 264.0577,269.9689 263.9172,259.0574 263.7771,248.1457 263.6372,237.2335 263.4977,226.321 263.3585,215.408 263.2196,204.4946 263.081,193.5808 262.9427,182.6664 262.8047,171.7515 262.6671,160.836 262.5298,149.92 262.3927,139.0034 262.256,128.0861 262.1196,117.1682 261.9835,106.2496 261.8477,95.3303 261.7123,84.4102 261.5771,73.4894" stroke="silver" stroke-opacity="0.5" stroke-width="1" /><polyline fill="none" points="175.6634,730.1044 175.397,719.1824 175.1312,708.2611 174.8659,697.3405 174.6012,686.4205 174.3371,675.5013 174.0736,664.5826 173.8106,653.6646 173.5482,642.7471 173.2863,631.8302 173.025,620.9138 172.7643,609.9979 172.5042,599.0825 172.2446,588.1676 171.9856,577.253 171.7271,566.3389 171.4692,555.4251 171.2119,544.5117 170.9551,533.5985 170.6989,522.6857 170.4432,511.7732 170.1881,500.8608 169.9336,489.9487 169.6796,479.0368 169.4261,468.1251 169.1733,457.2135 168.9209,446.302 168.6692,435.3906 168.418,424.4792 168.1673,413.5679 167.9172,402.6565 167.6677,391.7452 167.4187,380.8338 167.1702,369.9224 166.9223,359.0108 166.675,348.0991 166.4282,337.1873 166.1819,326.2753 165.9362,315.3631 165.6911,304.4507 165.4465,293.538 165.2024,282.6251 164.9589,271.7118 164.7159,260.7982 164.4735,249.8843 164.2316,238.97 163.9903,228.0552 163.7495,217.1401 163.5093,206.2244 163.2695,195.3083 163.0304,184.3917 162.7918,173.4745 162.5537,162.5568 162.3161,151.6385 162.0791,140.7195 161.8427,129.8 161.6068,118.8797 161.3714,107.9588 161.1365,97.0371 160.9022,86.1147 160.6685,75.1916" stroke="silver" stroke-opacity="0.5" stroke-width="1" /><polyline fill="none" points="716.667,732.8232 714.7748,732.7581 705.3138,732.4388 695.853,732.1292 686.3925,731.8294 676.9321,731.5393 667.4721,731.259 658.0122,730.9884 648.5525,730.7276 639.093,730.4766 629.6337,730.2353 620.1746,730.0038 610.7157,729.782 601.2569,729.5699 591.7983,729.3676 582.3398,729.1751 572.8815,728.9922 563.4233,728.8192 553.9653,728.6558 544.5073,728.5022 535.0495,728.3584 525.5918,728.2243 516.1342,728.0999 506.6767,727.9852 497.2193,727.8803 487.7619,727.7851 478.3046,727.6997 468.8474,727.624 459.3902,727.558 449.9331,727.5017 440.476,727.4552 431.019,727.4184 421.562,727.3914 412.105,727.3741 402.648,727.3665 393.191,727.3686 383.734,727.3805 374.2769,727.4021 364.8199,727.4334 355.3628,727.4745 345.9058,727.5253 336.4486,727.5858 326.9914,727.6561 317.5342,727.7361 308.0769,727.8258 298.6195,727.9253 289.162,728.0345 279.7044,728.1534 270.2468,728.2821 260.789,728.4205 251.3312,728.5686 241.8732,728.7265 232.4151,728.8941 222.9569,729.0715 213.4985,729.2586 204.04,729.4554 194.5813,729.662 185.1224,729.8784 175.6634,730.1044 166.2042,730.3403 156.7448,730.5859 147.2853,730.8412 137.8255,731.1063 128.3655,731.3811 118.9053,731.6657 109.4449,731.9601 99.9843,732.2642 90.5234,732.5781 83.333,732.8232" stroke="silver" stroke-opacity="0.5" stroke-width="1" /><polyline fill="none" points="719.6544,645.4459 717.7443,645.3813 708.1938,645.0643 698.6436,644.757 689.0937,644.4594 679.544,644.1714 669.9946,643.8932 660.4453,643.6246 650.8963,643.3657 641.3475,643.1165 631.799,642.877 622.2506,642.6472 612.7024,642.427 603.1543,642.2165 593.6065,642.0157 584.0588,641.8245 574.5112,641.6431 564.9638,641.4713 555.4166,641.3091 545.8695,641.1567 536.3225,641.0138 526.7756,640.8807 517.2288,640.7572 507.6821,640.6434 498.1355,640.5393 488.589,640.4448 479.0426,640.36 469.4963,640.2848 459.95,640.2193 450.4037,640.1635 440.8575,640.1173 431.3113,640.0808 421.7652,640.054 412.219,640.0368 402.6729,640.0292 393.1268,640.0314 383.5807,640.0431 374.0345,640.0646 364.4884,640.0957 354.9422,640.1365 345.396,640.1869 335.8497,640.247 326.3034,640.3167 316.757,640.3961 307.2105,640.4852 297.664,640.5839 288.1173,640.6923 278.5706,640.8104 269.0238,640.9381 259.4769,641.0755 249.9298,641.2225 240.3826,641.3793 230.8353,641.5457 221.2879,641.7217 211.7403,641.9075 202.1925,642.1029 192.6446,642.3079 183.0965,642.5227 173.5482,642.7471 163.9997,642.9812 154.451,643.225 144.9021,643.4785 135.353,643.7416 125.8037,644.0144 116.2541,644.2969 106.7043,644.5891 97.1543,644.891 87.604,645.2026 80.3456,645.4459" stroke="silver" stroke-opacity="0.5" stroke-width="1" /><polyline fill="none" points="722.5906,558.1027 720.6629,558.0386 711.0245,557.7241 701.3865,557.4192 691.7487,557.1239 682.1111,556.8382 672.4738,556.5622 662.8368,556.2957 653.2,556.0389 643.5634,555.7916 633.9271,555.554 624.2909,555.3259 614.655,555.1075 605.0192,554.8987 595.3836,554.6994 585.7482,554.5098 576.113,554.3297 566.4779,554.1593 556.843,553.9984 547.2082,553.8471 537.5736,553.7054 527.939,553.5733 518.3046,553.4508 508.6703,553.3379 499.0361,553.2346 489.402,553.1409 479.7679,553.0567 470.134,552.9822 460.5001,552.9172 450.8662,552.8618 441.2324,552.816 431.5986,552.7797 421.9649,552.7531 412.3312,552.736 402.6974,552.7286 393.0637,552.7307 383.43,552.7424 373.7963,552.7636 364.1625,552.7945 354.5287,552.8349 344.8949,552.885 335.261,552.9446 325.6271,553.0138 315.9931,553.0926 306.359,553.1809 296.7248,553.2789 287.0906,553.3864 277.4562,553.5036 267.8218,553.6303 258.1872,553.7666 248.5525,553.9125 238.9176,554.068 229.2826,554.2331 219.6475,554.4078 210.0122,554.592 200.3767,554.7859 190.7411,554.9894 181.1052,555.2024 171.4692,555.4251 161.833,555.6574 152.1965,555.8992 142.5598,556.1507 132.9229,556.4118 123.2858,556.6825 113.6484,556.9628 104.0107,557.2527 94.3728,557.5522 84.7346,557.8613 77.4094,558.1027" stroke="silver" stroke-opacity="0.5" stroke-width="1" /><polyline fill="none" points="725.4761,470.7803 723.5311,470.7168 713.8063,470.4049 704.0819,470.1025 694.3578,469.8097 684.6339,469.5264 674.9103,469.2527 665.187,468.9884 655.4639,468.7337 645.741,468.4885 636.0184,468.2529 626.296,468.0268 616.5739,467.8102 606.8519,467.6031 597.1301,467.4055 587.4085,467.2174 577.6871,467.0389 567.9659,466.8699 558.2448,466.7103 548.5239,466.5603 538.8031,466.4198 529.0824,466.2889 519.3619,466.1674 509.6414,466.0554 499.9211,465.953 490.2009,465.86 480.4807,465.7766 470.7607,465.7026 461.0407,465.6382 451.3207,465.5833 441.6008,465.5378 431.881,465.5019 422.1611,465.4755 412.4413,465.4586 402.7215,465.4512 393.0018,465.4532 383.282,465.4648 373.5621,465.4859 363.8423,465.5165 354.1224,465.5566 344.4025,465.6063 334.6825,465.6654 324.9625,465.734 315.2424,465.8121 305.5222,465.8997 295.802,465.9969 286.0816,466.1035 276.3611,466.2197 266.6405,466.3453 256.9198,466.4805 247.199,466.6252 237.478,466.7794 227.7568,466.9431 218.0355,467.1163 208.314,467.299 198.5923,467.4912 188.8705,467.693 179.1484,467.9043 169.4261,468.1251 159.7037,468.3554 149.9809,468.5953 140.258,468.8446 130.5348,469.1035 120.8113,469.3719 111.0876,469.6499 101.3636,469.9374 91.6394,470.2344 81.9148,470.5409 74.5239,470.7803" stroke="silver" stroke-opacity="0.5" stroke-width="1" /><polyline fill="none" points="728.3113,383.4654 726.3493,383.4024 716.5397,383.0933 706.7304,382.7937 696.9214,382.5034 687.1127,382.2227 677.3043,381.9514 667.4962,381.6895 657.6883,381.437 647.8807,381.1941 638.0734,380.9605 628.2662,380.7364 618.4593,380.5217 608.6526,380.3164 598.8462,380.1206 589.0399,379.9343 579.2338,379.7573 569.4279,379.5898 559.6221,379.4317 549.8166,379.283 540.0111,379.1438 530.2058,379.014 520.4007,378.8936 510.5956,378.7826 500.7907,378.6811 490.9858,378.5889 481.1811,378.5062 471.3764,378.4329 461.5718,378.3691 451.7673,378.3146 441.9628,378.2696 432.1584,378.234 422.354,378.2078 412.5496,378.1911 402.7452,378.1837 392.9409,378.1858 383.1365,378.1973 373.3321,378.2182 363.5277,378.2485 353.7232,378.2883 343.9187,378.3374 334.1141,378.396 324.3095,378.464 314.5048,378.5415 304.7,378.6283 294.8952,378.7246 285.0902,378.8303 275.2851,378.9454 265.4799,379.0699 255.6745,379.2039 245.869,379.3473 236.0634,379.5001 226.2575,379.6623 216.4515,379.834 206.6454,380.0151 196.839,380.2056 187.0324,380.4056 177.2257,380.615 167.4187,380.8338 157.6114,381.0621 147.804,381.2998 137.9962,381.547 128.1883,381.8035 118.38,382.0696 108.5715,382.345 98.7626,382.63 88.9535,382.9243 79.1441,383.2282 71.6887,383.4654" stroke="silver" stroke-opacity="0.5" stroke-width="1" /><polyline fill="none" points="731.0968,296.1448 729.1181,296.0824 719.2251,295.7762 709.3324,295.4794 699.4401,295.1919 689.548,294.9138 679.6563,294.645 669.7649,294.3856 659.8737,294.1356 649.9828,293.8949 640.0922,293.6635 630.2018,293.4415 620.3117,293.2289 610.4217,293.0255 600.5321,292.8316 590.6426,292.647 580.7533,292.4717 570.8642,292.3057 560.9753,292.1491 551.0865,292.0019 541.198,291.8639 531.3095,291.7354 521.4212,291.6161 511.533,291.5062 501.645,291.4056 491.757,291.3143 481.8692,291.2324 471.9814,291.1598 462.0937,291.0966 452.206,291.0426 442.3185,290.998 432.4309,290.9628 422.5434,290.9368 412.656,290.9202 402.7685,290.913 392.881,290.915 382.9936,290.9264 373.1061,290.9471 363.2186,290.9771 353.331,291.0165 343.4434,291.0652 333.5557,291.1233 323.668,291.1906 313.7802,291.2673 303.8923,291.3533 294.0043,291.4487 284.1162,291.5534 274.228,291.6674 264.3396,291.7908 254.4511,291.9235 244.5624,292.0655 234.6736,292.2169 224.7846,292.3776 214.8954,292.5476 205.0061,292.727 195.1165,292.9158 185.2267,293.1138 175.3367,293.3213 165.4465,293.538 155.556,293.7641 145.6652,293.9996 135.7742,294.2444 125.8829,294.4986 115.9914,294.7621 106.0995,295.035 96.2073,295.3172 86.3148,295.6088 76.422,295.9098 68.9032,296.1448" stroke="silver" stroke-opacity="0.5" stroke-width="1" /><polyline fill="none" points="733.8328,208.8051 731.8378,208.7434 721.8629,208.4403 711.8883,208.1464 701.9141,207.8618 691.9402,207.5864 681.9666,207.3204 671.9933,207.0635 662.0203,206.816 652.0476,206.5777 642.0752,206.3487 632.103,206.1289 622.1311,205.9183 612.1595,205.7171 602.188,205.525 592.2168,205.3423 582.2458,205.1687 572.275,205.0044 562.3044,204.8494 552.334,204.7036 542.3637,204.5671 532.3936,204.4398 522.4236,204.3217 512.4538,204.2129 502.4841,204.1133 492.5145,204.023 482.545,203.9418 472.5756,203.87 462.6063,203.8074 452.637,203.754 442.6678,203.7098 432.6986,203.6749 422.7295,203.6492 412.7604,203.6328 402.7913,203.6256 392.8223,203.6276 382.8532,203.6389 372.8841,203.6594 362.9149,203.6891 352.9458,203.7281 342.9765,203.7763 333.0072,203.8338 323.0379,203.9005 313.0684,203.9764 303.0989,204.0616 293.1292,204.156 283.1595,204.2596 273.1896,204.3725 263.2196,204.4946 253.2494,204.626 243.279,204.7666 233.3085,204.9165 223.3378,205.0756 213.367,205.2439 203.3959,205.4215 193.4246,205.6084 183.453,205.8045 173.4813,206.0098 163.5093,206.2244 153.537,206.4483 143.5644,206.6814 133.5916,206.9238 123.6185,207.1754 113.6451,207.4363 103.6714,207.7064 93.6973,207.9859 83.7229,208.2745 73.7482,208.5725 66.1672,208.8051" stroke="silver" stroke-opacity="0.5" stroke-width="1" /><polyline fill="none" points="736.5199,121.4333 734.5088,121.3722 724.4534,121.0722 714.3984,120.7814 704.3437,120.4998 694.2894,120.2274 684.2354,119.9641 674.1818,119.71 664.1284,119.4651 654.0754,119.2293 644.0227,119.0026 633.9702,118.7852 623.918,118.5769 613.866,118.3777 603.8143,118.1877 593.7629,118.0069 583.7116,117.8352 573.6606,117.6726 563.6097,117.5192 553.5591,117.3749 543.5086,117.2398 533.4583,117.1139 523.4081,116.9971 513.3581,116.8894 503.3082,116.7909 493.2584,116.7015 483.2087,116.6212 473.1591,116.5501 463.1096,116.4881 453.0602,116.4353 443.0109,116.3916 432.9615,116.3571 422.9123,116.3317 412.863,116.3154 402.8138,116.3083 392.7646,116.3103 382.7153,116.3214 372.6661,116.3417 362.6168,116.3712 352.5674,116.4097 342.518,116.4574 332.4686,116.5143 322.4191,116.5803 312.3694,116.6554 302.3197,116.7397 292.2699,116.8331 282.2199,116.9356 272.1698,117.0473 262.1196,117.1682 252.0692,117.2982 242.0187,117.4373 231.9679,117.5856 221.917,117.743 211.8659,117.9096 201.8145,118.0853 191.7629,118.2702 181.7111,118.4642 171.6591,118.6674 161.6068,118.8797 151.5542,119.1012 141.5013,119.3319 131.4481,119.5717 121.3947,119.8207 111.3409,120.0788 101.2868,120.3461 91.2323,120.6226 81.1775,120.9082 71.1223,121.2031 63.4801,121.4333" stroke="silver" stroke-opacity="0.5" stroke-width="1" /><circle cx="712.583" cy="407.0044" fill="black" r="1.17" stroke="none" /><circle cx="713.5534" cy="189.3111" fill="black" r="0.738" stroke="none" /><circle cx="700.6836" cy="438.1026" fill="black" r="0.738" stroke="none" /><circle cx="709.9121" cy="102.726" fill="black" r="1.17" stroke="none" /><circle cx="696.4354" cy="142.1442" fill="black" r="0.738" stroke="none" /><circle cx="691.5224" cy="309.2993" fill="black" r="0.738" stroke="none" /><circle cx="677.2553" cy="641.3938" fill="black" r="0.738" stroke="none" /><circle cx="690.1093" cy="123.0897" fill="black" r="0.738" stroke="none" /><circle cx="673.552" cy="599.9405" fill="black" r="0.738" stroke="none" /><circle cx="683.3021" cy="241.2644" fill="black" r="1.17" stroke="none" /><circle cx="679.3668" cy="372.5719" fill="black" r="0.738" stroke="none" /><circle cx="674.5468" cy="526.8226" fill="black" r="0.738" stroke="none" /><circle cx="668.5536" cy="714.936" fill="black" r="0.738" stroke="none" /><circle cx="652.1027" cy="394.5745" fill="black" r="1.17" stroke="none" /><circle cx="653.1764" cy="338.2603" fill="black" r="0.738" stroke="none" /><circle cx="653.4057" cy="175.8502" fill="black" r="0.738" stroke="none" /><circle cx="652.1953" cy="145.0588" fill="black" r="0.738" stroke="none" /><circle cx="638.1056" cy="513.8987" fill="black" r="0.738" stroke="none" /><circle cx="634.973" cy="518.5401" fill="black" r="0.738" stroke="none" /><circle cx="633.9499" cy="423.4859" fill="black" r="0.738" stroke="none" /><circle cx="622.5391" cy="604.2079" fill="black" r="0.738" stroke="none" /><circle cx="613.761" cy="612.3944" fill="black" r="0.738" stroke="none" /><circle cx="618.5736" cy="87.6169" fill="black" r="0.738" stroke="none" /><circle cx="610.3364" cy="217.2992" fill="black" r="0.738" stroke="none" /><circle cx="600.4453" cy="640.2364" fill="black" r="0.738" stroke="none" /><circle cx="606.856" cy="297.2337" fill="black" r="0.738" stroke="none" /><circle cx="597.1676" cy="449.7675" fill="black" r="0.738" stroke="none" /><circle cx="584.6354" cy="242.3274" fill="black" r="0.738" stroke="none" /><circle cx="587.0624" cy="85.9951" fill="black" r="0.738" stroke="none" /><circle cx="571.6466" cy="558.3539" fill="black" r="0.738" stroke="none" /><circle cx="575.1036" cy="128.0926" fill="black" r="0.738" stroke="none" /><circle cx="563.1805" cy="660.5716" fill="black" r="0.738" stroke="none" /><circle cx="545.143" cy="371.359" fill="black" r="0.936" stroke="none" /><circle cx="545.4952" cy="167.4051" fill="black" r="0.738" stroke="none" /><circle cx="540.9699" cy="243.6674" fill="black" r="0.738" stroke="none" /><circle cx="538.5393" cy="234.9914" fill="black" r="0.738" stroke="none" /><circle cx="535.7323" cy="440.5387" fill="black" r="0.738" stroke="none" /><circle cx="531.7689" cy="693.0113" fill="black" r="0.738" stroke="none" /><circle cx="518.8355" cy="572.9272" fill="black" r="0.738" stroke="none" /><circle cx="512.8805" cy="427.0752" fill="black" r="0.738" stroke="none" /><circle cx="512.9511" cy="284.7125" fill="black" r="0.738" stroke="none" /><circle cx="507.4568" cy="725.9847" fill="black" r="0.738" stroke="none" /><circle cx="511.4989" cy="324.2395" fill="black" r="0.738" stroke="none" /><circle cx="507.7436" cy="73.8512" fill="black" r="0.738" stroke="none" /><circle cx="502.4045" cy="481.515" fill="black" r="0.738" stroke="none" /><circle cx="501.1015" cy="479.8431" fill="black" r="0.738" stroke="none" /><circle cx="500.7589" cy="200.9537" fill="black" r="0.738" stroke="none" /><circle cx="494.1656" cy="663.2057" fill="black" r="0.738" stroke="none" /><circle cx="484.5828" cy="115.6708" fill="black" r="0.738" stroke="none" /><circle cx="479.7368" cy="412.532" fill="black" r="0.738" stroke="none" /><circle cx="473.8486" cy="447.7461" fill="black" r="0.738" stroke="none" /><circle cx="474.8437" cy="244.393" fill="black" r="0.738" stroke="none" /><circle cx="471.092" cy="396.671" fill="black" r="0.738" stroke="none" /><circle cx="472.7092" cy="74.6172" fill="black" r="0.738" stroke="none" /><circle cx="456.936" cy="582.1395" fill="black" r="0.738" stroke="none" /><circle cx="453.0046" cy="706.4657" fill="black" r="0.738" stroke="none" /><circle cx="453.1353" cy="460.7055" fill="black" r="1.17" stroke="none" /><circle cx="450.1369" cy="618.4204" fill="black" r="0.738" stroke="none" /><circle cx="448.5235" cy="416.8719" fill="black" r="0.738" stroke="none" /><circle cx="448.4378" cy="107.1559" fill="black" r="0.936" stroke="none" /><circle cx="447.4218" cy="228.7845" fill="black" r="0.738" stroke="none" /><circle cx="435.2147" cy="678.4311" fill="black" r="0.738" stroke="none" /><circle cx="434.4729" cy="121.5146" fill="black" r="0.738" stroke="none" /><circle cx="431.513" cy="715.7141" fill="black" r="0.738" stroke="none" /><circle cx="432.0208" cy="564.9144" fill="black" r="0.738" stroke="none" /><circle cx="430.6056" cy="319.9328" fill="black" r="0.738" stroke="none" /><circle cx="426.0328" cy="255.2468" fill="black" r="0.738" stroke="none" /><circle cx="417.0698" cy="486.9343" fill="black" r="0.738" stroke="none" /><circle cx="409.3606" cy="433.8639" fill="black" r="0.738" stroke="none" /><circle cx="408.5901" cy="131.7692" fill="black" r="0.738" stroke="none" /><circle cx="406.5408" cy="567.6568" fill="black" r="0.738" stroke="none" /><circle cx="402.5549" cy="508.3022" fill="black" r="0.738" stroke="none" /><circle cx="397.632" cy="312.9061" fill="black" r="0.738" stroke="none" /><circle cx="387.996" cy="628.9475" fill="black" r="0.738" stroke="none" /><circle cx="380.4871" cy="218.2217" fill="black" r="0.738" stroke="none" /><circle cx="375.6632" cy="497.6844" fill="black" r="0.936" stroke="none" /><circle cx="372.7388" cy="301.7704" fill="black" r="0.936" stroke="none" /><circle cx="367.9785" cy="371.863" fill="black" r="0.738" stroke="none" /><circle cx="366.8392" cy="76.4395" fill="black" r="0.738" stroke="none" /><circle cx="356.2126" cy="427.8462" fill="black" r="0.738" stroke="none" /><circle cx="352.8295" cy="720.3235" fill="black" r="0.738" stroke="none" /><circle cx="351.0519" cy="535.8308" fill="black" r="0.738" stroke="none" /><circle cx="350.4548" cy="658.1477" fill="black" r="0.738" stroke="none" /><circle cx="346.4541" cy="338.0042" fill="black" r="0.738" stroke="none" /><circle cx="345.9296" cy="586.1387" fill="black" r="0.738" stroke="none" /><circle cx="328.0413" cy="271.3459" fill="black" r="1.17" stroke="none" /><circle cx="326.7244" cy="565.576" fill="black" r="0.738" stroke="none" /><circle cx="318.6814" cy="703.3517" fill="black" r="0.738" stroke="none" /><circle cx="316.785" cy="703.3686" fill="black" r="0.738" stroke="none" /><circle cx="313.3359" cy="342.2438" fill="black" r="0.738" stroke="none" /><circle cx="308.7783" cy="139.3059" fill="black" r="0.738" stroke="none" /><circle cx="305.2378" cy="501.0781" fill="black" r="0.738" stroke="none" /><circle cx="301.38" cy="440.1919" fill="black" r="0.936" stroke="none" /><circle cx="289.8654" cy="449.5639" fill="black" r="0.738" stroke="none" /><circle cx="278.3444" cy="264.4691" fill="black" r="0.738" stroke="none" /><circle cx="279.8347" cy="496.0307" fill="black" r="0.738" stroke="none" /><circle cx="276.3317" cy="639.0054" fill="black" r="0.738" stroke="none" /><circle cx="256.2039" cy="132.1818" fill="black" r="0.738" stroke="none" /><circle cx="242.3405" cy="94.8032" fill="black" r="0.738" stroke="none" /><circle cx="229.995" cy="237.368" fill="black" r="0.738" stroke="none" /><circle cx="221.5809" cy="546.3377" fill="black" r="0.738" stroke="none" /><circle cx="219.0919" cy="430.8627" fill="black" r="0.738" stroke="none" /><circle cx="212.7678" cy="109.4183" fill="black" r="0.738" stroke="none" /><circle cx="216.2134" cy="322.3869" fill="black" r="0.738" stroke="none" /><circle cx="218.156" cy="490.6019" fill="black" r="0.738" stroke="none" /><circle cx="211.0833" cy="348.2371" fill="black" r="0.738" stroke="none" /><circle cx="215.9071" cy="624.3532" fill="black" r="0.738" stroke="none" /><circle cx="215.2529" cy="691.9916" fill="black" r="0.738" stroke="none" /><circle cx="203.5866" cy="444.5135" fill="black" r="0.738" stroke="none" /><circle cx="202.6814" cy="672.5874" fill="black" r="0.738" stroke="none" /><circle cx="187.9727" cy="228.5133" fill="black" r="0.738" stroke="none" /><circle cx="197.2585" cy="720.5987" fill="black" r="0.738" stroke="none" /><circle cx="180.1432" cy="318.5467" fill="black" r="0.738" stroke="none" /><circle cx="167.8486" cy="94.1852" fill="black" r="0.738" stroke="none" /><circle cx="157.0108" cy="305.2606" fill="black" r="0.738" stroke="none" /><circle cx="162.6034" cy="623.8777" fill="black" r="0.738" stroke="none" /><circle cx="148.3676" cy="291.1389" fill="black" r="0.738" stroke="none" /><circle cx="153.0007" cy="602.1009" fill="black" r="0.738" stroke="none" /><circle cx="145.3979" cy="700.8128" fill="black" r="0.738" stroke="none" /><circle cx="132.7145" cy="276.6736" fill="black" r="0.738" stroke="none" /><circle cx="139.4919" cy="565.4077" fill="black" r="0.738" stroke="none" /><circle cx="137.6089" cy="532.7793" fill="black" r="0.738" stroke="none" /><circle cx="126.6681" cy="201.5043" fill="black" r="0.738" stroke="none" /><circle cx="120.6627" cy="157.4308" fill="black" r="0.738" stroke="none" /><circle cx="127.6137" cy="526.5873" fill="black" r="0.738" stroke="none" /><circle cx="104.366" cy="229.9755" fill="black" r="0.738" stroke="none" /><circle cx="106.4493" cy="327.0948" fill="black" r="0.738" stroke="none" /><circle cx="108.9097" cy="445.6838" fill="black" r="0.738" stroke="none" /><circle cx="104.5319" cy="448.084" fill="black" r="0.738" stroke="none" /><circle cx="110.205" cy="700.6217" fill="black" r="0.738" stroke="none" /><circle cx="94.3815" cy="237.5113" fill="black" r="0.738" stroke="none" /><circle cx="102.8423" cy="726.9223" fill="black" r="0.738" stroke="none" /><circle cx="102.0551" cy="718.987" fill="black" r="0.936" stroke="none" /><circle cx="96.0162" cy="570.5251" fill="black" r="0.738" stroke="none" /><circle cx="78.9464" cy="238.0525" fill="black" r="0.738" stroke="none" /><circle cx="77.3535" cy="343.6917" fill="black" r="0.738" stroke="none" /><circle cx="85.0897" cy="587.5745" fill="black" r="0.738" stroke="none" /><circle cx="66.0967" cy="162.3737" fill="black" r="0.738" stroke="none" /><circle cx="13.77" cy="786.23" fill="black" r="4.59" stroke="none" /><circle cx="13.77" cy="786.23" fill="black" r="4.59" stroke="none" /><text fill="black" font-family="monospace" font-size="12" x="10.77" y="775.64">1</text><circle cx="37.77" cy="786.23" fill="black" r="3.654" stroke="none" /><circle cx="37.77" cy="786.23" fill="black" r="3.654" stroke="none" /><text fill="black" font-family="monospace" font-size="12" x="34.769999999999996" y="775.64">2</text><circle cx="61.77" cy="786.23" fill="black" r="2.916" stroke="none" /><circle cx="61.77" cy="786.23" fill="black" r="2.916" stroke="none" /><text fill="black" font-family="monospace" font-size="12" x="58.769999999999996" y="775.64">3</text><circle cx="85.77" cy="786.23" fill="black" r="2.322" stroke="none" /><circle cx="85.77" cy="786.23" fill="black" r="2.322" stroke="none" /><text fill="black" font-family="monospace" font-size="12" x="82.77" y="775.64">4</text><circle cx="109.77" cy="786.23" fill="black" r="1.854" stroke="none" /><circle cx="109.77" cy="786.23" fill="black" r="1.854" stroke="none" /><text fill="black" font-family="monospace" font-size="12" x="106.77" y="775.64">5</text><circle cx="133.77" cy="786.23" fill="black" r="1.476" stroke="none" /><circle cx="133.77" cy="786.23" fill="black" r="1.476" stroke="none" /><text fill="black" font-family="monospace" font-size="12" x="130.77" y="775.64">6</text><circle cx="157.77" cy="786.23" fill="black" r="1.17" stroke="none" /><circle cx="157.77" cy="786.23" fill="black" r="1.17" stroke="none" /><text fill="black" font-family="monospace" font-size="12" x="154.77" y="775.64">7</text><circle cx="181.77" cy="786.23" fill="black" r="0.936" stroke="none" /><circle cx="181.77" cy="786.23" fill="black" r="0.936" stroke="none" /><text fill="black" font-family="monospace" font-size="12" x="178.77" y="775.64">8</text><circle cx="205.77" cy="786.23" fill="black" r="0.738" stroke="none" /><circle cx="205.77" cy="786.23" fill="black" r="0.738" stroke="none" /><text fill="black" font-family="monospace" font-size="12" x="202.77" y="775.64">9</text><text fill="gray" fill-opacity="0.5" font-family="monospace" font-size="12" x="665.1681603522937" y="75.77366393084918">05h05m</text><text fill="gray" fill-opacity="0.5" font-family="monospace" font-size="12" x="564.2534912981763" y="73.8385059936299">05h10m</text><text fill="gray" fill-opacity="0.5" font-family="monospace" font-size="12" x="463.35791413155914" y="72.81312110123156">05h15m</text><text fill="gray" fill-opacity="0.5" font-family="monospace" font-size="12" x="362.46970197809895" y="72.69678262407177">05h20m</text><text fill="gray" fill-opacity="0.5" font-family="monospace" font-size="12" x="261.5771270877524" y="73.48940813001906">05h25m</text><text fill="gray" fill-opacity="0.5" font-family="monospace" font-size="12" x="160.66846222882756" y="75.19155927791167">05h30m</text><text fill="gray" fill-opacity="0.5" font-family="monospace" font-size="12" x="83.33297901746278" y="732.82315467983">-30°</text><text fill="gray" fill-opacity="0.5" font-family="monospace" font-size="12" x="80.34560916169113" y="645.4458996653692">-29°</text><text fill="gray" fill-opacity="0.5" font-family="monospace" font-size="12" x="77.40943118114279" y="558.1027018944101">-28°</text><text fill="gray" fill-opacity="0.5" font-family="monospace" font-size="12" x="74.52394885402254" y="470.7802873175766">-27°</text><text fill="gray" fill-opacity="0.5" font-family="monospace" font-size="12" x="71.68869682781576" y="383.4653944884191">-26°</text><text fill="gray" fill-opacity="0.5" font-family="monospace" font-size="12" x="68.90324031218302" y="296.1447665185394">-25°</text><text fill="gray" fill-opacity="0.5" font-family="monospace" font-size="12" x="66.16717481135521" y="208.80514303858516">-24°</text><text fill="gray" fill-opacity="0.5" font-family="monospace" font-size="12" x="63.480125895680146" y="121.43325215475375">-23°</text><text fill="black" font-family="monospace" font-size="12" x="12" y="48">&gt;&gt; No.235 05h01m 05h35m -30.0°-22.5°</text><a target="_self" xlink:href="hip007.svg"><text fill="black" font-family="monospace" font-size="12" x="12" y="36">&gt; No.7 03h00m 06h00m -52.5°-22.5°</text></a><a target="_self" xlink:href="hip001.svg"><text fill="black" font-family="monospace" font-size="12" x="12" y="24">No.1 00h 24h -90.0°+0.0°</text></a><polyline fill="none" points="737.8451,77.7311 735.8261,77.6703 725.731,77.372 715.6363,77.0828 705.542,76.8027 695.448,76.5318 685.3544,76.27 675.2611,76.0173 665.1682,75.7737 655.0755,75.5392 644.9831,75.3138 634.8911,75.0975 624.7993,74.8904 614.7077,74.6923 604.6164,74.5033 594.5254,74.3235 584.4345,74.1527 574.3439,73.9911 564.2535,73.8385 554.1633,73.695 544.0732,73.5607 533.9833,73.4354 523.8936,73.3192 513.804,73.2122 503.7146,73.1142 493.6253,73.0253 483.5361,72.9455 473.4469,72.8747 463.3579,72.8131 453.269,72.7606 443.1801,72.7171 433.0912,72.6828 423.0024,72.6575 412.9136,72.6413 402.8249,72.6343 392.7361,72.6363 382.6473,72.6473 372.5585,72.6675 362.4697,72.6968 352.3808,72.7351 342.2919,72.7826 332.2029,72.8391 322.1139,72.9047 312.0247,72.9795 301.9354,73.0633 291.8461,73.1562 281.7566,73.2581 271.6669,73.3692 261.5771,73.4894 251.4872,73.6187 241.3971,73.757 231.3068,73.9045 221.2162,74.0611 211.1255,74.2267 201.0346,74.4015 190.9434,74.5854 180.852,74.7783 170.7604,74.9804 160.6685,75.1916 150.5763,75.4118 140.4838,75.6412 130.391,75.8797 120.2979,76.1273 110.2044,76.3841 100.1107,76.6499 90.0165,76.9249 79.9221,77.2089 69.8272,77.5021 62.1549,77.7311" stroke="black" stroke-opacity="0.5" stroke-width="1" /><polyline fill="none" points="716.667,732.8232 717.0433,721.8987 717.4187,710.9749 717.7933,700.0518 718.1671,689.1294 718.5402,678.2077 718.9124,667.2865 719.2838,656.3659 719.6544,645.4459 720.0242,634.5264 720.3932,623.6074 720.7614,612.6889 721.1288,601.7709 721.4955,590.8533 721.8613,579.936 722.2263,569.0192 722.5906,558.1027 722.954,547.1865 723.3167,536.2707 723.6785,525.3551 724.0396,514.4397 724.3999,503.5246 724.7594,492.6097 725.1181,481.6949 725.4761,470.7803 725.8332,459.8658 726.1896,448.9514 726.5451,438.037 726.8999,427.1227 727.2539,416.2084 727.6072,405.2941 727.9596,394.3798 728.3113,383.4654 728.6622,372.5509 729.0123,361.6363 729.3617,350.7215 729.7102,339.8066 730.058,328.8915 730.405,317.9762 730.7513,307.0606 731.0968,296.1448 731.4415,285.2286 731.7854,274.3122 732.1286,263.3953 732.4709,252.4782 732.8126,241.5606 733.1534,230.6426 733.4935,219.7241 733.8328,208.8051 734.1714,197.8857 734.5092,186.9657 734.8462,176.0452 735.1825,165.1241 735.518,154.2023 735.8527,143.28 736.1867,132.357 736.5199,121.4333 736.8523,110.5088 737.184,99.5837 737.515,88.6578 737.8451,77.7311" stroke="black" stroke-opacity="0.5" stroke-width="1" /><polyline fill="none" points="716.667,732.8232 714.7748,732.7581 705.3138,732.4388 695.853,732.1292 686.3925,731.8294 676.9321,731.5393 667.4721,731.259 658.0122,730.9884 648.5525,730.7276 639.093,730.4766 629.6337,730.2353 620.1746,730.0038 610.7157,729.782 601.2569,729.5699 591.7983,729.3676 582.3398,729.1751 572.8815,728.9922 563.4233,728.8192 553.9653,728.6558 544.5073,728.5022 535.0495,728.3584 525.5918,728.2243 516.1342,728.0999 506.6767,727.9852 497.2193,727.8803 487.7619,727.7851 478.3046,727.6997 468.8474,727.624 459.3902,727.558 449.9331,727.5017 440.476,727.4552 431.019,727.4184 421.562,727.3914 412.105,727.3741 402.648,727.3665 393.191,727.3686 383.734,727.3805 374.2769,727.4021 364.8199,727.4334 355.3628,727.4745 345.9058,727.5253 336.4486,727.5858 326.9914,727.6561 317.5342,727.7361 308.0769,727.8258 298.6195,727.9253 289.162,728.0345 279.7044,728.1534 270.2468,728.2821 260.789,728.4205 251.3312,728.5686 241.8732,728.7265 232.4151,728.8941 222.9569,729.0715 213.4985,729.2586 204.04,729.4554 194.5813,729.662 185.1224,729.8784 175.6634,730.1044 166.2042,730.3403 156.7448,730.5859 147.2853,730.8412 137.8255,731.1063 128.3655,731.3811 118.9053,731.6657 109.4449,731.9601 99.9843,732.2642 90.5234,732.5781 83.333,732.8232" stroke="black" stroke-opacity="0.5" stroke-width="1" /><polyline fill="none" points="83.333,732.8232 82.9567,721.8987 82.5813,710.9749 82.2067,700.0518 81.8329,689.1294 81.4598,678.2077 81.0876,667.2865 80.7162,656.3659 80.3456,645.4459 79.9758,634.5264 79.6068,623.6074 79.2386,612.6889 78.8712,601.7709 78.5045,590.8533 78.1387,579.936 77.7737,569.0192 77.4094,558.1027 77.046,547.1865 76.6833,536.2707 76.3215,525.3551 75.9604,514.4397 75.6001,503.5246 75.2406,492.6097 74.8819,481.6949 74.5239,470.7803 74.1668,459.8658 73.8104,448.9514 73.4549,438.037 73.1001,427.1227 72.7461,416.2084 72.3928,405.2941 72.0404,394.3798 71.6887,383.4654 71.3378,372.5509 70.9877,361.6363 70.6383,350.7215 70.2898,339.8066 69.942,328.8915 69.595,317.9762 69.2487,307.0606 68.9032,296.1448 68.5585,285.2286 68.2146,274.3122 67.8714,263.3953 67.5291,252.4782 67.1874,241.5606 66.8466,230.6426 66.5065,219.7241 66.1672,208.8051 65.8286,197.8857 65.4908,186.9657 65.1538,176.0452 64.8175,165.1241 64.482,154.2023 64.1473,143.28 63.8133,132.357 63.4801,121.4333 63.1477,110.5088 62.816,99.5837 62.485,88.6578 62.1549,77.7311" stroke="black" stroke-opacity="0.5" stroke-width="1" /></svg>