<?xml version="1.0" encoding="utf-8" ?>
<svg baseProfile="tiny" height="800" version="1.2" width="800" xmlns="http://www.w3.org/2000/svg" xmlns:ev="http://www.w3.org/2001/xml-events" xmlns:xlink="http://www.w3.org/1999/xlink"><defs /><rect fill="none" height="800" stroke="black" stroke-width="2" width="800" x="0" y="0" /><polyline fill="none" points="655.3634,730.9144 655.6667,719.9917 655.9694,709.0696 656.2714,698.1483 656.5727,687.2276 656.8734,676.3076 657.1734,665.3882 657.4728,654.4694 657.7716,643.5512 658.0697,632.6335 658.3672,621.7163 658.664,610.7997 658.9602,599.8835 659.2557,588.9677 659.5506,578.0524 659.8449,567.1374 660.1385,556.2228 660.4315,545.3086 660.7238,534.3946 661.0155,523.481 661.3066,512.5676 661.597,501.6545 661.8868,490.7415 662.176,479.8288 662.4645,468.9161 662.7524,458.0037 663.0396,447.0913 663.3263,436.179 663.6123,425.2668 663.8976,414.3546 664.1824,403.4424 664.4665,392.5301 664.75,381.6178 665.0328,370.7055 665.3151,359.793 665.5967,348.8804 665.8776,337.9677 666.158,327.0548 666.4377,316.1416 666.7168,305.2283 666.9953,294.3147 667.2732,283.4007 667.5504,272.4865 667.827,261.572 668.103,250.6571 668.3784,239.7418 668.6532,228.8261 668.9273,217.9099 669.2008,206.9933 669.4737,196.0762 669.746,185.1586 670.0177,174.2404 670.2887,163.3217 670.5592,152.4023 670.829,141.4824 671.0982,130.5618 671.3668,119.6405 671.6348,108.7185 671.9022,97.7958 672.1689,86.8724 672.4351,75.9481" stroke="silver" stroke-opacity="0.5" stroke-width="1" /><polyline fill="none" points="560.7751,728.7725 560.9659,717.8516 561.1564,706.9315 561.3464,696.0121 561.5361,685.0933 561.7253,674.1753 561.9142,663.2579 562.1026,652.3411 562.2906,641.4249 562.4782,630.5092 562.6654,619.5941 562.8522,608.6795 563.0386,597.7654 563.2246,586.8517 563.4102,575.9385 563.5954,565.0257 563.7801,554.1132 563.9645,543.2012 564.1485,532.2894 564.3321,521.3779 564.5153,510.4667 564.698,499.5558 564.8804,488.6451 565.0624,477.7346 565.244,466.8242 565.4251,455.914 565.6059,445.004 565.7863,434.094 565.9663,423.1841 566.1459,412.2742 566.3251,401.3643 566.5039,390.4545 566.6823,379.5446 566.8603,368.6346 567.0379,357.7245 567.2151,346.8144 567.3919,335.9041 567.5684,324.9936 567.7444,314.0829 567.92,303.1721 568.0953,292.2609 568.2701,281.3496 568.4446,270.4379 568.6187,259.5259 568.7924,248.6135 568.9657,237.7008 569.1386,226.7877 569.3111,215.8741 569.4832,204.9601 569.655,194.0456 569.8263,183.1306 569.9973,172.2151 570.1679,161.2991 570.3381,150.3824 570.5079,139.4652 570.6773,128.5473 570.8463,117.6287 571.015,106.7095 571.1832,95.7896 571.3511,84.8689 571.5186,73.9474" stroke="silver" stroke-opacity="0.5" stroke-width="1" /><polyline fill="none" points="466.1994,727.6045 466.278,716.6847 466.3564,705.7656 466.4346,694.8473 466.5127,683.9296 466.5906,673.0127 466.6683,662.0963 466.7459,651.1806 466.8233,640.2655 466.9005,629.351 466.9776,618.437 467.0545,607.5235 467.1312,596.6105 467.2078,585.698 467.2842,574.7859 467.3604,563.8743 467.4365,552.963 467.5124,542.0521 467.5881,531.1415 467.6637,520.2312 467.7391,509.3212 467.8143,498.4115 467.8894,487.502 467.9643,476.5927 468.0391,465.6836 468.1136,454.7747 468.1881,443.8658 468.2623,432.9571 468.3364,422.0485 468.4103,411.1399 468.4841,400.2313 468.5577,389.3227 468.6311,378.4141 468.7044,367.5055 468.7775,356.5967 468.8505,345.6879 468.9233,334.7789 468.9959,323.8698 469.0684,312.9605 469.1407,302.0509 469.2128,291.1412 469.2848,280.2312 469.3566,269.3208 469.4283,258.4102 469.4998,247.4993 469.5711,236.5879 469.6423,225.6762 469.7133,214.7641 469.7842,203.8515 469.8549,192.9385 469.9254,182.0249 469.9958,171.1109 470.066,160.1963 470.1361,149.2811 470.206,138.3653 470.2757,127.4489 470.3453,116.5318 470.4147,105.6141 470.484,94.6957 470.5531,83.7765 470.622,72.8566" stroke="silver" stroke-opacity="0.5" stroke-width="1" /><polyline fill="none" points="371.629,727.4099 371.5953,716.4902 371.5617,705.5713 371.5282,694.6532 371.4947,683.7357 371.4613,672.8189 371.428,661.9028 371.3948,650.9872 371.3616,640.0723 371.3285,629.158 371.2955,618.2442 371.2625,607.3309 371.2296,596.4181 371.1968,585.5058 371.1641,574.5939 371.1314,563.6824 371.0988,552.7713 371.0663,541.8606 371.0338,530.9502 371.0015,520.0401 370.9691,509.1304 370.9369,498.2208 370.9047,487.3115 370.8726,476.4025 370.8406,465.4935 370.8086,454.5848 370.7767,443.6762 370.7449,432.7677 370.7132,421.8592 370.6815,410.9508 370.6499,400.0425 370.6183,389.1341 370.5868,378.2257 370.5554,367.3173 370.5241,356.4088 370.4928,345.5002 370.4617,334.5914 370.4305,323.6825 370.3995,312.7734 370.3685,301.8641 370.3376,290.9546 370.3067,280.0448 370.2759,269.1347 370.2452,258.2243 370.2146,247.3136 370.184,236.4025 370.1535,225.491 370.1231,214.5791 370.0927,203.6668 370.0624,192.754 370.0322,181.8407 370.002,170.9269 369.9719,160.0125 369.9419,149.0976 369.912,138.182 369.8821,127.2659 369.8523,116.3491 369.8225,105.4316 369.7928,94.5134 369.7632,83.5945 369.7337,72.6748" stroke="silver" stroke-opacity="0.5" stroke-width="1" /><polyline fill="none" points="277.0563,728.1885 276.9104,717.2681 276.7647,706.3485 276.6194,695.4296 276.4744,684.5115 276.3297,673.5939 276.1853,662.6771 276.0413,651.7608 275.8975,640.8452 275.7541,629.9301 275.6109,619.0155 275.4681,608.1015 275.3256,597.1879 275.1834,586.2748 275.0415,575.3622 274.8999,564.4499 274.7586,553.5381 274.6176,542.6266 274.477,531.7154 274.3366,520.8045 274.1965,509.894 274.0568,498.9836 273.9173,488.0735 273.7782,477.1636 273.6394,466.2539 273.5008,455.3443 273.3626,444.4349 273.2247,433.5255 273.0871,422.6162 272.9498,411.707 272.8127,400.7978 272.676,389.8886 272.5396,378.9793 272.4035,368.07 272.2677,357.1606 272.1322,346.2511 271.997,335.3415 271.8621,324.4317 271.7275,313.5217 271.5932,302.6115 271.4592,291.701 271.3255,280.7903 271.1921,269.8793 271.059,258.968 270.9262,248.0563 270.7937,237.1443 270.6615,226.2319 270.5296,215.3191 270.398,204.4058 270.2667,193.492 270.1357,182.5777 270.005,171.663 269.8745,160.7476 269.7444,149.8317 269.6146,138.9152 269.485,127.998 269.3558,117.0802 269.2269,106.1618 269.0982,95.2426 268.9699,84.3226 268.8418,73.402" stroke="silver" stroke-opacity="0.5" stroke-width="1" /><polyline fill="none" points="182.4739,729.9407 182.2156,719.0188 181.9579,708.0976 181.7007,697.1771 181.444,686.2574 181.1879,675.3382 180.9324,664.4197 180.6774,653.5019 180.423,642.5845 180.1691,631.6678 179.9157,620.7516 179.6629,609.8358 179.4107,598.9206 179.159,588.0058 178.9078,577.0914 178.6572,566.1774 178.4072,555.2638 178.1576,544.3505 177.9087,533.4376 177.6602,522.5249 177.4123,511.6125 177.165,500.7004 176.9182,489.7885 176.6719,478.8767 176.4262,467.9652 176.181,457.0537 175.9364,446.1424 175.6922,435.2311 175.4487,424.32 175.2056,413.4088 174.9631,402.4977 174.7212,391.5865 174.4797,380.6753 174.2388,369.764 173.9985,358.8527 173.7586,347.9412 173.5193,337.0296 173.2806,326.1177 173.0423,315.2057 172.8046,304.2935 172.5675,293.381 172.3308,282.4683 172.0947,271.5552 171.8591,260.6418 171.6241,249.7281 171.3895,238.8139 171.1555,227.8994 170.9221,216.9844 170.6891,206.069 170.4567,195.1531 170.2248,184.2366 169.9934,173.3197 169.7626,162.4022 169.5323,151.4841 169.3025,140.5653 169.0732,129.646 168.8445,118.7259 168.6162,107.8052 168.3885,96.8837 168.1613,85.9616 167.9347,75.0386" stroke="silver" stroke-opacity="0.5" stroke-width="1" /><polyline fill="none" points="87.8743,732.6677 87.5035,721.7434 87.1335,710.8198 86.7642,699.8968 86.3958,688.9746 86.0281,678.0529 85.6612,667.1319 85.2952,656.2115 84.9299,645.2916 84.5654,634.3723 84.2017,623.4534 83.8388,612.5351 83.4766,601.6172 83.1153,590.6997 82.7547,579.7826 82.3949,568.8659 82.0359,557.9496 81.6777,547.0336 81.3202,536.1179 80.9636,525.2025 80.6077,514.2873 80.2526,503.3723 79.8982,492.4575 79.5447,481.5429 79.1919,470.6285 78.8399,459.7141 78.4886,448.7999 78.1382,437.8857 77.7885,426.9716 77.4395,416.0575 77.0914,405.1433 76.744,394.2292 76.3974,383.3149 76.0515,372.4006 75.7064,361.4862 75.3621,350.5716 75.0186,339.6569 74.6758,328.7419 74.3337,317.8268 73.9925,306.9114 73.652,295.9957 73.3122,285.0798 72.9732,274.1635 72.635,263.2469 72.2975,252.3298 71.9608,241.4124 71.6249,230.4946 71.2897,219.5763 70.9552,208.6576 70.6215,197.7383 70.2886,186.8185 69.9564,175.8982 69.625,164.9773 69.2943,154.0557 68.9644,143.1336 68.6352,132.2108 68.3068,121.2872 67.9791,110.363 67.6522,99.4381 67.326,88.5124 67.0006,77.5859" stroke="silver" stroke-opacity="0.5" stroke-width="1" /><polyline fill="none" points="716.667,732.8232 712.1257,732.6677 702.6647,732.3511 693.204,732.0442 683.7435,731.7472 674.2833,731.4598 664.8233,731.1823 655.3634,730.9144 645.9038,730.6564 636.4444,730.4081 626.9851,730.1695 617.5261,729.9407 608.0672,729.7216 598.6085,729.5123 589.1499,729.3127 579.6915,729.1229 570.2332,728.9428 560.7751,728.7725 551.317,728.6118 541.8591,728.461 532.4014,728.3198 522.9437,728.1885 513.4861,728.0668 504.0286,727.9549 494.5712,727.8527 485.1139,727.7602 475.6566,727.6775 466.1994,727.6045 456.7422,727.5413 447.2851,727.4877 437.8281,727.444 428.371,727.4099 418.914,727.3856 409.457,727.371 400.0,727.3661 390.543,727.371 381.086,727.3856 371.629,727.4099 362.1719,727.444 352.7149,727.4877 343.2578,727.5413 333.8006,727.6045 324.3434,727.6775 314.8861,727.7602 305.4288,727.8527 295.9714,727.9549 286.5139,728.0668 277.0563,728.1885 267.5986,728.3198 258.1409,728.461 248.683,728.6118 239.2249,728.7725 229.7668,728.9428 220.3085,729.1229 210.8501,729.3127 201.3915,729.5123 191.9328,729.7216 182.4739,729.9407 173.0149,730.1695 163.5556,730.4081 154.0962,730.6564 144.6366,730.9144 135.1767,731.1823 125.7167,731.4598 116.2565,731.7472 106.796,732.0442 97.3353,732.3511 87.8743,732.6677 83.333,732.8232" stroke="silver" stroke-opacity="0.5" stroke-width="1" /><polyline fill="none" points="719.6544,645.4459 715.0701,645.2916 705.5197,644.9773 695.9696,644.6727 686.4198,644.3778 676.8702,644.0926 667.3208,643.817 657.7716,643.5512 648.2227,643.295 638.6739,643.0485 629.1254,642.8117 619.577,642.5845 610.0289,642.3671 600.4809,642.1593 590.9331,641.9612 581.3854,641.7728 571.8379,641.594 562.2906,641.4249 552.7434,641.2655 543.1963,641.1157 533.6493,640.9756 524.1025,640.8452 514.5557,640.7244 505.0091,640.6133 495.4625,640.5119 485.916,640.4201 476.3696,640.338 466.8233,640.2655 457.277,640.2027 447.7308,640.1496 438.1846,640.1061 428.6384,640.0723 419.0922,640.0482 409.5461,640.0337 400.0,640.0289 390.4539,640.0337 380.9078,640.0482 371.3616,640.0723 361.8154,640.1061 352.2692,640.1496 342.723,640.2027 333.1767,640.2655 323.6304,640.338 314.084,640.4201 304.5375,640.5119 294.9909,640.6133 285.4443,640.7244 275.8975,640.8452 266.3507,640.9756 256.8037,641.1157 247.2566,641.2655 237.7094,641.4249 228.1621,641.594 218.6146,641.7728 209.0669,641.9612 199.5191,642.1593 189.9711,642.3671 180.423,642.5845 170.8746,642.8117 161.3261,643.0485 151.7773,643.295 142.2284,643.5512 132.6792,643.817 123.1298,644.0926 113.5802,644.3778 104.0304,644.6727 94.4803,644.9773 84.9299,645.2916 80.3456,645.4459" stroke="silver" stroke-opacity="0.5" stroke-width="1" /><polyline fill="none" points="722.5906,558.1027 717.9641,557.9496 708.3258,557.6378 698.6878,557.3356 689.0501,557.043 679.4127,556.76 669.7755,556.4866 660.1385,556.2228 650.5017,555.9687 640.8652,555.7241 631.2289,555.4892 621.5928,555.2638 611.9569,555.048 602.3212,554.8419 592.6857,554.6453 583.0504,554.4584 573.4152,554.281 563.7801,554.1132 554.1453,553.9551 544.5105,553.8065 534.8759,553.6675 525.2414,553.5381 515.607,553.4183 505.9727,553.308 496.3385,553.2074 486.7044,553.1163 477.0704,553.0349 467.4365,552.963 457.8026,552.9007 448.1687,552.848 438.5349,552.8049 428.9012,552.7713 419.2674,552.7474 409.6337,552.733 400.0,552.7282 390.3663,552.733 380.7326,552.7474 371.0988,552.7713 361.4651,552.8049 351.8313,552.848 342.1974,552.9007 332.5635,552.963 322.9296,553.0349 313.2956,553.1163 303.6615,553.2074 294.0273,553.308 284.393,553.4183 274.7586,553.5381 265.1241,553.6675 255.4895,553.8065 245.8547,553.9551 236.2199,554.1132 226.5848,554.281 216.9496,554.4584 207.3143,554.6453 197.6788,554.8419 188.0431,555.048 178.4072,555.2638 168.7711,555.4892 159.1348,555.7241 149.4983,555.9687 139.8615,556.2228 130.2245,556.4866 120.5873,556.76 110.9499,557.043 101.3122,557.3356 91.6742,557.6378 82.0359,557.9496 77.4094,558.1027" stroke="silver" stroke-opacity="0.5" stroke-width="1" /><polyline fill="none" points="725.4761,470.7803 720.8081,470.6285 711.0835,470.3193 701.3591,470.0196 691.6351,469.7294 681.9113,469.4488 672.1877,469.1777 662.4645,468.9161 652.7415,468.6641 643.0187,468.4216 633.2961,468.1886 623.5738,467.9652 613.8517,467.7512 604.1298,467.5468 594.4081,467.3519 584.6865,467.1665 574.9652,466.9906 565.244,466.8242 555.5229,466.6674 545.802,466.52 536.0813,466.3822 526.3606,466.2539 516.6401,466.1351 506.9197,466.0258 497.1994,465.926 487.4792,465.8357 477.7591,465.7549 468.0391,465.6836 458.3191,465.6218 448.5991,465.5696 438.8793,465.5268 429.1594,465.4935 419.4396,465.4698 409.7198,465.4555 400.0,465.4508 390.2802,465.4555 380.5604,465.4698 370.8406,465.4935 361.1207,465.5268 351.4009,465.5696 341.6809,465.6218 331.9609,465.6836 322.2409,465.7549 312.5208,465.8357 302.8006,465.926 293.0803,466.0258 283.3599,466.1351 273.6394,466.2539 263.9187,466.3822 254.198,466.52 244.4771,466.6674 234.756,466.8242 225.0348,466.9906 215.3135,467.1665 205.5919,467.3519 195.8702,467.5468 186.1483,467.7512 176.4262,467.9652 166.7039,468.1886 156.9813,468.4216 147.2585,468.6641 137.5355,468.9161 127.8123,469.1777 118.0887,469.4488 108.3649,469.7294 98.6409,470.0196 88.9165,470.3193 79.1919,470.6285 74.5239,470.7803" stroke="silver" stroke-opacity="0.5" stroke-width="1" /><polyline fill="none" points="728.3113,383.4654 723.6026,383.3149 713.7931,383.0085 703.9839,382.7114 694.175,382.4239 684.3664,382.1458 674.558,381.8771 664.75,381.6178 654.9422,381.3681 645.1346,381.1277 635.3273,380.8968 625.5203,380.6753 615.7134,380.4633 605.9068,380.2607 596.1004,380.0675 586.2942,379.8838 576.4881,379.7094 566.6823,379.5446 556.8766,379.3891 547.071,379.2431 537.2656,379.1065 527.4604,378.9793 517.6552,378.8615 507.8502,378.7532 498.0453,378.6543 488.2405,378.5648 478.4358,378.4848 468.6311,378.4141 458.8266,378.3529 449.022,378.3011 439.2176,378.2587 429.4132,378.2257 419.6088,378.2022 409.8044,378.1881 400.0,378.1833 390.1956,378.1881 380.3912,378.2022 370.5868,378.2257 360.7824,378.2587 350.978,378.3011 341.1734,378.3529 331.3689,378.4141 321.5642,378.4848 311.7595,378.5648 301.9547,378.6543 292.1498,378.7532 282.3448,378.8615 272.5396,378.9793 262.7344,379.1065 252.929,379.2431 243.1234,379.3891 233.3177,379.5446 223.5119,379.7094 213.7058,379.8838 203.8996,380.0675 194.0932,380.2607 184.2866,380.4633 174.4797,380.6753 164.6727,380.8968 154.8654,381.1277 145.0578,381.3681 135.25,381.6178 125.442,381.8771 115.6336,382.1458 105.825,382.4239 96.0161,382.7114 86.2069,383.0085 76.3974,383.3149 71.6887,383.4654" stroke="silver" stroke-opacity="0.5" stroke-width="1" /><polyline fill="none" points="731.0968,296.1448 726.348,295.9957 716.4551,295.6921 706.5625,295.3979 696.6703,295.1131 686.7783,294.8376 676.8867,294.5714 666.9953,294.3147 657.1042,294.0672 647.2134,293.8291 637.3228,293.6004 627.4325,293.381 617.5425,293.171 607.6526,292.9703 597.763,292.7789 587.8736,292.5969 577.9843,292.4243 568.0953,292.2609 558.2064,292.107 548.3177,291.9623 538.4292,291.827 528.5408,291.701 518.6525,291.5844 508.7644,291.4771 498.8763,291.3791 488.9884,291.2905 479.1006,291.2112 469.2128,291.1412 459.3251,291.0805 449.4375,291.0292 439.55,290.9872 429.6624,290.9546 419.7749,290.9313 409.8875,290.9173 400.0,290.9126 390.1125,290.9173 380.2251,290.9313 370.3376,290.9546 360.45,290.9872 350.5625,291.0292 340.6749,291.0805 330.7872,291.1412 320.8994,291.2112 311.0116,291.2905 301.1237,291.3791 291.2356,291.4771 281.3475,291.5844 271.4592,291.701 261.5708,291.827 251.6823,291.9623 241.7936,292.107 231.9047,292.2609 222.0157,292.4243 212.1264,292.5969 202.237,292.7789 192.3474,292.9703 182.4575,293.171 172.5675,293.381 162.6772,293.6004 152.7866,293.8291 142.8958,294.0672 133.0047,294.3147 123.1133,294.5714 113.2217,294.8376 103.3297,295.1131 93.4375,295.3979 83.5449,295.6921 73.652,295.9957 68.9032,296.1448" stroke="silver" stroke-opacity="0.5" stroke-width="1" /><polyline fill="none" points="733.8328,208.8051 729.0448,208.6576 719.07,208.357 709.0955,208.0658 699.1213,207.7837 689.1475,207.511 679.174,207.2475 669.2008,206.9933 659.2279,206.7483 649.2553,206.5126 639.283,206.2862 629.3109,206.069 619.339,205.861 609.3674,205.6624 599.3961,205.4729 589.4249,205.2927 579.454,205.1218 569.4832,204.9601 559.5127,204.8077 549.5423,204.6644 539.5721,204.5305 529.602,204.4058 519.6321,204.2903 509.6623,204.1841 499.6926,204.0871 489.723,203.9993 479.7536,203.9208 469.7842,203.8515 459.8149,203.7915 449.8456,203.7407 439.8764,203.6991 429.9073,203.6668 419.9382,203.6437 409.9691,203.6298 400.0,203.6252 390.0309,203.6298 380.0618,203.6437 370.0927,203.6668 360.1236,203.6991 350.1544,203.7407 340.1851,203.7915 330.2158,203.8515 320.2464,203.9208 310.277,203.9993 300.3074,204.0871 290.3377,204.1841 280.3679,204.2903 270.398,204.4058 260.4279,204.5305 250.4577,204.6644 240.4873,204.8077 230.5168,204.9601 220.546,205.1218 210.5751,205.2927 200.6039,205.4729 190.6326,205.6624 180.661,205.861 170.6891,206.069 160.717,206.2862 150.7447,206.5126 140.7721,206.7483 130.7992,206.9933 120.826,207.2475 110.8525,207.511 100.8787,207.7837 90.9045,208.0658 80.93,208.357 70.9552,208.6576 66.1672,208.8051" stroke="silver" stroke-opacity="0.5" stroke-width="1" /><polyline fill="none" points="736.5199,121.4333 731.6932,121.2872 721.6379,120.9899 711.583,120.7017 701.5285,120.4226 691.4742,120.1527 681.4204,119.892 671.3668,119.6405 661.3136,119.3981 651.2606,119.1649 641.2079,118.9408 631.1555,118.7259 621.1034,118.5202 611.0515,118.3236 600.9999,118.1361 590.9485,117.9579 580.8973,117.7887 570.8463,117.6287 560.7955,117.4779 550.7449,117.3362 540.6945,117.2036 530.6442,117.0802 520.5941,116.966 510.5441,116.8609 500.4942,116.7649 490.4445,116.6781 480.3948,116.6004 470.3453,116.5318 460.2958,116.4724 450.2464,116.4222 440.197,116.381 430.1477,116.3491 420.0985,116.3262 410.0492,116.3125 400.0,116.3079 389.9508,116.3125 379.9015,116.3262 369.8523,116.3491 359.803,116.381 349.7536,116.4222 339.7042,116.4724 329.6547,116.5318 319.6052,116.6004 309.5555,116.6781 299.5058,116.7649 289.4559,116.8609 279.4059,116.966 269.3558,117.0802 259.3055,117.2036 249.2551,117.3362 239.2045,117.4779 229.1537,117.6287 219.1027,117.7887 209.0515,117.9579 199.0001,118.1361 188.9485,118.3236 178.8966,118.5202 168.8445,118.7259 158.7921,118.9408 148.7394,119.1649 138.6864,119.3981 128.6332,119.6405 118.5796,119.892 108.5258,120.1527 98.4715,120.4226 88.417,120.7017 78.3621,120.9899 68.3068,121.2872 63.4801,121.4333" stroke="silver" stroke-opacity="0.5" stroke-width="1" /><circle cx="724.6672" cy="435.7036" fill="black" r="0.738" stroke="none" /><circle cx="718.3026" cy="209.9954" fill="black" r="0.738" stroke="none" /><circle cx="702.1092" cy="581.1309" fill="black" r="0.738" stroke="none" /><circle cx="710.5788" cy="209.2449" fill="black" r="0.738" stroke="none" /><circle cx="699.2877" cy="300.5183" fill="black" r="0.738" stroke="none" /><circle cx="696.2521" cy="219.1546" fill="black" r="0.738" stroke="none" /><circle cx="678.0948" cy="728.1631" fill="black" r="0.738" stroke="none" /><circle cx="691.0882" cy="110.3491" fill="black" r="0.738" stroke="none" /><circle cx="675.1687" cy="391.2415" fill="black" r="0.738" stroke="none" /><circle cx="664.6288" cy="445.9975" fill="black" r="0.936" stroke="none" /><circle cx="658.9753" cy="602.1561" fill="black" r="0.738" stroke="none" /><circle cx="657.4613" cy="646.5146" fill="black" r="0.738" stroke="none" /><circle cx="637.7328" cy="659.1061" fill="black" r="0.738" stroke="none" /><circle cx="638.2879" cy="444.8989" fill="black" r="0.738" stroke="none" /><circle cx="629.9421" cy="491.9548" fill="black" r="0.738" stroke="none" /><circle cx="637.5559" cy="109.1595" fill="black" r="0.738" stroke="none" /><circle cx="620.0308" cy="226.5787" fill="black" r="0.738" stroke="none" /><circle cx="608.2393" cy="534.1798" fill="black" r="0.738" stroke="none" /><circle cx="607.8756" cy="281.7088" fill="black" r="0.738" stroke="none" /><circle cx="600.7974" cy="278.9513" fill="black" r="1.17" stroke="none" /><circle cx="597.9618" cy="421.3173" fill="black" r="0.738" stroke="none" /><circle cx="601.3058" cy="132.2103" fill="black" r="0.738" stroke="none" /><circle cx="584.9384" cy="381.0814" fill="black" r="0.738" stroke="none" /><circle cx="578.7537" cy="602.9377" fill="black" r="0.738" stroke="none" /><circle cx="586.116" cy="103.9817" fill="black" r="0.738" stroke="none" /><circle cx="580.8583" cy="340.933" fill="black" r="0.738" stroke="none" /><circle cx="580.4349" cy="310.8899" fill="black" r="0.738" stroke="none" /><circle cx="583.596" cy="100.5317" fill="black" r="0.738" stroke="none" /><circle cx="572.2811" cy="491.5654" fill="black" r="0.738" stroke="none" /><circle cx="562.1518" cy="378.2494" fill="black" r="0.738" stroke="none" /><circle cx="563.1392" cy="239.0071" fill="black" r="0.738" stroke="none" /><circle cx="558.2015" cy="532.1037" fill="black" r="0.936" stroke="none" /><circle cx="553.8332" cy="450.1413" fill="black" r="0.738" stroke="none" /><circle cx="552.7856" cy="359.074" fill="black" r="0.738" stroke="none" /><circle cx="542.765" cy="228.3238" fill="black" r="0.738" stroke="none" /><circle cx="533.2213" cy="482.4057" fill="black" r="0.738" stroke="none" /><circle cx="530.7218" cy="626.1746" fill="black" r="0.738" stroke="none" /><circle cx="531.4737" cy="272.2694" fill="black" r="0.738" stroke="none" /><circle cx="525.5543" cy="646.5415" fill="black" r="0.738" stroke="none" /><circle cx="516.0048" cy="615.9403" fill="black" r="0.738" stroke="none" /><circle cx="515.5917" cy="267.7183" fill="black" r="0.738" stroke="none" /><circle cx="511.7007" cy="320.1391" fill="black" r="0.738" stroke="none" /><circle cx="496.9345" cy="110.0945" fill="black" r="0.738" stroke="none" /><circle cx="491.6002" cy="474.3391" fill="black" r="0.738" stroke="none" /><circle cx="475.2677" cy="318.0657" fill="black" r="0.738" stroke="none" /><circle cx="470.2088" cy="667.5369" fill="black" r="0.738" stroke="none" /><circle cx="469.8681" cy="415.1644" fill="black" r="0.738" stroke="none" /><circle cx="464.1194" cy="177.2741" fill="black" r="1.17" stroke="none" /><circle cx="460.2952" cy="473.1393" fill="black" r="0.738" stroke="none" /><circle cx="458.6456" cy="382.5409" fill="black" r="0.738" stroke="none" /><circle cx="443.76" cy="539.2102" fill="black" r="0.738" stroke="none" /><circle cx="442.2607" cy="343.9737" fill="black" r="0.738" stroke="none" /><circle cx="431.6423" cy="562.9928" fill="black" r="0.738" stroke="none" /><circle cx="427.9356" cy="430.3204" fill="black" r="0.738" stroke="none" /><circle cx="425.8416" cy="514.8818" fill="black" r="0.738" stroke="none" /><circle cx="417.266" cy="418.1662" fill="black" r="0.738" stroke="none" /><circle cx="417.5169" cy="221.1863" fill="black" r="0.738" stroke="none" /><circle cx="407.6557" cy="89.8455" fill="black" r="0.738" stroke="none" /><circle cx="403.6305" cy="314.2156" fill="black" r="0.738" stroke="none" /><circle cx="393.6749" cy="161.37" fill="black" r="0.738" stroke="none" /><circle cx="388.3934" cy="163.9939" fill="black" r="0.738" stroke="none" /><circle cx="382.2088" cy="150.9918" fill="black" r="2.322" stroke="none" /><circle cx="370.4555" cy="440.4482" fill="black" r="0.738" stroke="none" /><circle cx="359.6975" cy="608.9443" fill="black" r="0.738" stroke="none" /><circle cx="346.5503" cy="503.2107" fill="black" r="0.738" stroke="none" /><circle cx="343.9514" cy="113.7425" fill="black" r="0.738" stroke="none" /><circle cx="331.7347" cy="216.9373" fill="black" r="0.738" stroke="none" /><circle cx="330.425" cy="701.3342" fill="black" r="0.738" stroke="none" /><circle cx="326.8461" cy="281.8285" fill="black" r="0.738" stroke="none" /><circle cx="326.753" cy="380.1044" fill="black" r="0.738" stroke="none" /><circle cx="322.8364" cy="589.4398" fill="black" r="0.738" stroke="none" /><circle cx="318.3749" cy="477.9178" fill="black" r="1.17" stroke="none" /><circle cx="295.9885" cy="424.012" fill="black" r="0.738" stroke="none" /><circle cx="283.437" cy="87.3075" fill="black" r="0.738" stroke="none" /><circle cx="287.8402" cy="687.5997" fill="black" r="0.738" stroke="none" /><circle cx="278.4264" cy="187.721" fill="black" r="0.738" stroke="none" /><circle cx="280.4508" cy="698.0877" fill="black" r="0.738" stroke="none" /><circle cx="277.8455" cy="620.1218" fill="black" r="0.738" stroke="none" /><circle cx="271.6991" cy="166.0535" fill="black" r="0.738" stroke="none" /><circle cx="271.7346" cy="721.0085" fill="black" r="0.738" stroke="none" /><circle cx="270.5328" cy="694.6389" fill="black" r="0.738" stroke="none" /><circle cx="259.2" cy="451.695" fill="black" r="0.738" stroke="none" /><circle cx="257.8985" cy="528.7126" fill="black" r="0.738" stroke="none" /><circle cx="250.9727" cy="545.8419" fill="black" r="0.936" stroke="none" /><circle cx="229.9153" cy="93.8503" fill="black" r="0.738" stroke="none" /><circle cx="223.4183" cy="566.6519" fill="black" r="0.738" stroke="none" /><circle cx="216.0152" cy="351.1165" fill="black" r="0.738" stroke="none" /><circle cx="208.7351" cy="191.5244" fill="black" r="0.738" stroke="none" /><circle cx="207.7591" cy="291.8029" fill="black" r="0.936" stroke="none" /><circle cx="211.657" cy="499.8052" fill="black" r="0.738" stroke="none" /><circle cx="209.5855" cy="625.9632" fill="black" r="0.738" stroke="none" /><circle cx="205.4164" cy="422.2119" fill="black" r="0.738" stroke="none" /><circle cx="203.7033" cy="406.4408" fill="black" r="0.738" stroke="none" /><circle cx="208.9367" cy="680.4967" fill="black" r="0.738" stroke="none" /><circle cx="202.4906" cy="616.0617" fill="black" r="0.738" stroke="none" /><circle cx="194.5555" cy="296.5946" fill="black" r="0.738" stroke="none" /><circle cx="198.1178" cy="583.1329" fill="black" r="1.17" stroke="none" /><circle cx="184.1797" cy="459.4973" fill="black" r="0.738" stroke="none" /><circle cx="176.4472" cy="140.5048" fill="black" r="0.738" stroke="none" /><circle cx="174.7426" cy="622.271" fill="black" r="0.936" stroke="none" /><circle cx="175.5783" cy="711.0476" fill="black" r="0.738" stroke="none" /><circle cx="166.5672" cy="495.3559" fill="black" r="0.738" stroke="none" /><circle cx="157.7124" cy="253.1814" fill="black" r="0.738" stroke="none" /><circle cx="150.1844" cy="86.7867" fill="black" r="0.738" stroke="none" /><circle cx="136.3876" cy="93.7492" fill="black" r="0.738" stroke="none" /><circle cx="140.885" cy="365.4001" fill="black" r="0.738" stroke="none" /><circle cx="144.9431" cy="642.1663" fill="black" r="0.738" stroke="none" /><circle cx="131.0753" cy="381.1155" fill="black" r="0.738" stroke="none" /><circle cx="130.8699" cy="713.3786" fill="black" r="0.738" stroke="none" /><circle cx="115.473" cy="296.0869" fill="black" r="0.738" stroke="none" /><circle cx="114.9284" cy="281.8587" fill="black" r="0.936" stroke="none" /><circle cx="109.4273" cy="277.9021" fill="black" r="0.738" stroke="none" /><circle cx="109.1943" cy="278.0833" fill="black" r="0.738" stroke="none" /><circle cx="111.1408" cy="521.8172" fill="black" r="1.17" stroke="none" /><circle cx="88.4454" cy="141.6012" fill="black" r="0.738" stroke="none" /><circle cx="85.8279" cy="321.4937" fill="black" r="0.738" stroke="none" /><circle cx="82.6568" cy="536.7736" fill="black" r="0.738" stroke="none" /><circle cx="73.5242" cy="369.5966" fill="black" r="0.738" stroke="none" /><circle cx="13.77" cy="786.23" fill="black" r="4.59" stroke="none" /><circle cx="13.77" cy="786.23" fill="black" r="4.59" stroke="none" /><text fill="black" font-family="monospace" font-size="12" x="10.77" y="775.64">1</text><circle cx="37.77" cy="786.23" fill="black" r="3.654" stroke="none" /><circle cx="37.77" cy="786.23" fill="black" r="3.654" stroke="none" /><text fill="black" font-family="monospace" font-size="12" x="34.769999999999996" y="775.64">2</text><circle cx="61.77" cy="786.23" fill="black" r="2.916" stroke="none" /><circle cx="61.77" cy="786.23" fill="black" r="2.916" stroke="none" /><text fill="black" font-family="monospace" font-size="12" x="58.769999999999996" y="775.64">3</text><circle cx="85.77" cy="786.23" fill="black" r="2.322" stroke="none" /><circle cx="85.77" cy="786.23" fill="black" r="2.322" stroke="none" /><text fill="black" font-family="monospace" font-size="12" x="82.77" y="775.64">4</text><circle cx="109.77" cy="786.23" fill="black" r="1.854" stroke="none" /><circle cx="109.77" cy="786.23" fill="black" r="1.854" stroke="none" /><text fill="black" font-family="monospace" font-size="12" x="106.77" y="775.64">5</text><circle cx="133.77" cy="786.23" fill="black" r="1.476" stroke="none" /><circle cx="133.77" cy="786.23" fill="black" r="1.476" stroke="none" /><text fill="black" font-family="monospace" font-size="12" x="130.77" y="775.64">6</text><circle cx="157.77" cy="786.23" fill="black" r="1.17" stroke="none" /><circle cx="157.77" cy="786.23" fill="black" r="1.17" stroke="none" /><text fill="black" font-family="monospace" font-size="12" x="154.77" y="775.64">7</text><circle cx="181.77" cy="786.23" fill="black" r="0.936" stroke="none" /><circle cx="181.77" cy="786.23" fill="black" r="0.936" stroke="none" /><text fill="black" font-family="monospace" font-size="12" x="178.77" y="775.64">8</text><circle cx="205.77" cy="786.23" fill="black" r="0.738" stroke="none" /><circle cx="205.77" cy="786.23" fill="black" r="0.738" stroke="none" /><text fill="black" font-family="monospace" font-size="12" x="202.77" y="775.64">9</text><text fill="gray" fill-opacity="0.5" font-family="monospace" font-size="12" x="672.4350658475307" y="75.94813783191188">12h20m</text><text fill="gray" fill-opacity="0.5" font-family="monospace" font-size="12" x="571.5185696660432" y="73.94743100675294">12h25m</text><text fill="gray" fill-opacity="0.5" font-family="monospace" font-size="12" x="470.622009635842" y="72.85657442448309">12h30m</text><text fill="gray" fill-opacity="0.5" font-family="monospace" font-size="12" x="369.7336589996813" y="72.6747950470176">12h35m</text><text fill="gray" fill-opacity="0.5" font-family="monospace" font-size="12" x="268.84179002395837" y="73.4019640734968">12h40m</text><text fill="gray" fill-opacity="0.5" font-family="monospace" font-size="12" x="167.93467539303273" y="75.03859677390625">12h45m</text><text fill="gray" fill-opacity="0.5" font-family="monospace" font-size="12" x="67.00058961066156" y="77.58585315470174">12h50m</text><text fill="gray" fill-opacity="0.5" font-family="monospace" font-size="12" x="83.33297901746278" y="732.82315467983">-30°</text><text fill="gray" fill-opacity="0.5" font-family="monospace" font-size="12" x="80.34560916169113" y="645.4458996653692">-29°</text><text fill="gray" fill-opacity="0.5" font-family="monospace" font-size="12" x="77.40943118114279" y="558.1027018944101">-28°</text><text fill="gray" fill-opacity="0.5" font-family="monospace" font-size="12" x="74.52394885402254" y="470.7802873175766">-27°</text><text fill="gray" fill-opacity="0.5" font-family="monospace" font-size="12" x="71.68869682781576" y="383.4653944884191">-26°</text><text fill="gray" fill-opacity="0.5" font-family="monospace" font-size="12" x="68.90324031218302" y="296.1447665185394">-25°</text><text fill="gray" fill-opacity="0.5" font-family="monospace" font-size="12" x="66.16717481135521" y="208.80514303858516">-24°</text><text fill="gray" fill-opacity="0.5" font-family="monospace" font-size="12" x="63.480125895680146" y="121.43325215475375">-23°</text><text fill="black" font-family="monospace" font-size="12" x="12" y="48">&gt;&gt; No.248 12h17m 12h50m -30.0°-22.5°</text><a target="_self" xlink:href="hip010.svg"><text fill="black" font-family="monospace" font-size="12" x="12" y="36">&gt; No.10 12h00m 15h00m -52.5°-22.5°</text></a><a target="_self" xlink:href="hip001.svg"><text fill="black" font-family="monospace" font-size="12" x="12" y="24">No.1 00h 24h -90.0°+0.0°</text></a><polyline fill="none" points="737.8451,77.7311 732.9994,77.5859 722.9045,77.2901 712.8099,77.0035 702.7157,76.726 692.6218,76.4576 682.5283,76.1983 672.4351,75.9481 662.3422,75.7071 652.2496,75.4751 642.1573,75.2523 632.0653,75.0386 621.9736,74.834 611.8821,74.6385 601.7909,74.4521 591.6999,74.2747 581.6091,74.1065 571.5186,73.9474 561.4282,73.7974 551.338,73.6565 541.248,73.5247 531.1582,73.402 521.0685,73.2883 510.979,73.1838 500.8896,73.0884 490.8003,73.002 480.7111,72.9247 470.622,72.8566 460.533,72.7975 450.4441,72.7475 440.3552,72.7066 430.2663,72.6748 420.1775,72.6521 410.0888,72.6384 400.0,72.6339 389.9112,72.6384 379.8225,72.6521 369.7337,72.6748 359.6448,72.7066 349.5559,72.7475 339.467,72.7975 329.378,72.8566 319.2889,72.9247 309.1997,73.002 299.1104,73.0884 289.021,73.1838 278.9315,73.2883 268.8418,73.402 258.752,73.5247 248.662,73.6565 238.5718,73.7974 228.4814,73.9474 218.3909,74.1065 208.3001,74.2747 198.2091,74.4521 188.1179,74.6385 178.0264,74.834 167.9347,75.0386 157.8427,75.2523 147.7504,75.4751 137.6578,75.7071 127.5649,75.9481 117.4717,76.1983 107.3782,76.4576 97.2843,76.726 87.1901,77.0035 77.0955,77.2901 67.0006,77.5859 62.1549,77.7311" stroke="black" stroke-opacity="0.5" stroke-width="1" /><polyline fill="none" points="716.667,732.8232 717.0433,721.8987 717.4187,710.9749 717.7933,700.0518 718.1671,689.1294 718.5402,678.2077 718.9124,667.2865 719.2838,656.3659 719.6544,645.4459 720.0242,634.5264 720.3932,623.6074 720.7614,612.6889 721.1288,601.7709 721.4955,590.8533 721.8613,579.936 722.2263,569.0192 722.5906,558.1027 722.954,547.1865 723.3167,536.2707 723.6785,525.3551 724.0396,514.4397 724.3999,503.5246 724.7594,492.6097 725.1181,481.6949 725.4761,470.7803 725.8332,459.8658 726.1896,448.9514 726.5451,438.037 726.8999,427.1227 727.2539,416.2084 727.6072,405.2941 727.9596,394.3798 728.3113,383.4654 728.6622,372.5509 729.0123,361.6363 729.3617,350.7215 729.7102,339.8066 730.058,328.8915 730.405,317.9762 730.7513,307.0606 731.0968,296.1448 731.4415,285.2286 731.7854,274.3122 732.1286,263.3953 732.4709,252.4782 732.8126,241.5606 733.1534,230.6426 733.4935,219.7241 733.8328,208.8051 734.1714,197.8857 734.5092,186.9657 734.8462,176.0452 735.1825,165.1241 735.518,154.2023 735.8527,143.28 736.1867,132.357 736.5199,121.4333 736.8523,110.5088 737.184,99.5837 737.515,88.6578 737.8451,77.7311" stroke="black" stroke-opacity="0.5" stroke-width="1" /><polyline fill="none" points="716.667,732.8232 712.1257,732.6677 702.6647,732.3511 693.204,732.0442 683.7435,731.7472 674.2833,731.4598 664.8233,731.1823 655.3634,730.9144 645.9038,730.6564 636.4444,730.4081 626.9851,730.1695 617.5261,729.9407 608.0672,729.7216 598.6085,729.5123 589.1499,729.3127 579.6915,729.1229 570.2332,728.9428 560.7751,728.7725 551.317,728.6118 541.8591,728.461 532.4014,728.3198 522.9437,728.1885 513.4861,728.0668 504.0286,727.9549 494.5712,727.8527 485.1139,727.7602 475.6566,727.6775 466.1994,727.6045 456.7422,727.5413 447.2851,727.4877 437.8281,727.444 428.371,727.4099 418.914,727.3856 409.457,727.371 400.0,727.3661 390.543,727.371 381.086,727.3856 371.629,727.4099 362.1719,727.444 352.7149,727.4877 343.2578,727.5413 333.8006,727.6045 324.3434,727.6775 314.8861,727.7602 305.4288,727.8527 295.9714,727.9549 286.5139,728.0668 277.0563,728.1885 267.5986,728.3198 258.1409,728.461 248.683,728.6118 239.2249,728.7725 229.7668,728.9428 220.3085,729.1229 210.8501,729.3127 201.3915,729.5123 191.9328,729.7216 182.4739,729.9407 173.0149,730.1695 163.5556,730.4081 154.0962,730.6564 144.6366,730.9144 135.1767,731.1823 125.7167,731.4598 116.2565,731.7472 106.796,732.0442 97.3353,732.3511 87.8743,732.6677 83.333,732.8232" stroke="black" stroke-opacity="0.5" stroke-width="1" /><polyline fill="none" points="83.333,732.8232 82.9567,721.8987 82.5813,710.9749 82.2067,700.0518 81.8329,689.1294 81.4598,678.2077 81.0876,667.2865 80.7162,656.3659 80.3456,645.4459 79.9758,634.5264 79.6068,623.6074 79.2386,612.6889 78.8712,601.7709 78.5045,590.8533 78.1387,579.936 77.7737,569.0192 77.4094,558.1027 77.046,547.1865 76.6833,536.2707 76.3215,525.3551 75.9604,514.4397 75.6001,503.5246 75.2406,492.6097 74.8819,481.6949 74.5239,470.7803 74.1668,459.8658 73.8104,448.9514 73.4549,438.037 73.1001,427.1227 72.7461,416.2084 72.3928,405.2941 72.0404,394.3798 71.6887,383.4654 71.3378,372.5509 70.9877,361.6363 70.6383,350.7215 70.2898,339.8066 69.942,328.8915 69.595,317.9762 69.2487,307.0606 68.9032,296.1448 68.5585,285.2286 68.2146,274.3122 67.8714,263.3953 67.5291,252.4782 67.1874,241.5606 66.8466,230.6426 66.5065,219.7241 66.1672,208.8051 65.8286,197.8857 65.4908,186.9657 65.1538,176.0452 64.8175,165.1241 64.482,154.2023 64.1473,143.28 63.8133,132.357 63.4801,121.4333 63.1477,110.5088 62.816,99.5837 62.485,88.6578 62.1549,77.7311" stroke="black" stroke-opacity="0.5" stroke-width="1" /></svg>