<?xml version="1.0" encoding="utf-8" ?>
<svg baseProfile="tiny" height="800" version="1.2" width="800" xmlns="http://www.w3.org/2000/svg" xmlns:ev="http://www.w3.org/2001/xml-events" xmlns:xlink="http://www.w3.org/1999/xlink"><defs /><rect fill="none" height="800" stroke="black" stroke-width="2" width="800" x="0" y="0" /><polyline fill="none" points="701.5294,732.3138 701.8877,721.3897 702.2451,710.4664 702.6018,699.5438 702.9577,688.6219 703.3129,677.7006 703.6672,666.7799 704.0209,655.8598 704.3737,644.9402 704.7258,634.0212 705.0772,623.1027 705.4277,612.1847 705.7776,601.2672 706.1266,590.35 706.4749,579.4333 706.8225,568.517 707.1693,557.601 707.5153,546.6854 707.8606,535.77 708.2051,524.8549 708.5489,513.9401 708.8919,503.0255 709.2342,492.1111 709.5757,481.1969 709.9165,470.2828 710.2566,459.3688 710.5959,448.455 710.9344,437.5412 711.2722,426.6274 711.6093,415.7137 711.9456,404.7999 712.2811,393.8862 712.616,382.9723 712.9501,372.0584 713.2834,361.1444 713.616,350.2302 713.9479,339.3159 714.279,328.4013 714.6094,317.4866 714.9391,306.5716 715.268,295.6563 715.5962,284.7408 715.9236,273.8249 716.2504,262.9087 716.5764,251.9921 716.9016,241.0752 717.2261,230.1578 717.5499,219.2399 717.873,208.3216 718.1953,197.4028 718.5169,186.4834 718.8378,175.5635 719.158,164.643 719.4774,153.7219 719.7961,142.8002 720.1141,131.8779 720.4313,120.9548 720.7478,110.031 721.0636,99.1065 721.3787,88.1813 721.6931,77.2552" stroke="silver" stroke-opacity="0.5" stroke-width="1" /><polyline fill="none" points="606.9321,729.696 607.1778,718.7743 607.423,707.8533 607.6677,696.9331 607.9118,686.0135 608.1554,675.0946 608.3985,664.1764 608.6411,653.2587 608.8831,642.3416 609.1246,631.4251 609.3656,620.5091 609.6061,609.5936 609.846,598.6786 610.0855,587.7641 610.3244,576.8499 610.5628,565.9362 610.8006,555.0228 611.038,544.1098 611.2748,533.1971 611.5112,522.2847 611.747,511.3725 611.9823,500.4607 612.217,489.549 612.4513,478.6375 612.685,467.7262 612.9183,456.815 613.151,445.9039 613.3832,434.9929 613.6149,424.082 613.8461,413.1712 614.0768,402.2603 614.307,391.3494 614.5366,380.4385 614.7658,369.5275 614.9944,358.6164 615.2226,347.7052 615.4502,336.7938 615.6773,325.8823 615.9039,314.9706 616.1301,304.0586 616.3557,293.1464 616.5808,282.2339 616.8054,271.3212 617.0295,260.4081 617.2531,249.4946 617.4762,238.5808 617.6988,227.6665 617.9208,216.7518 618.1424,205.8367 618.3635,194.9211 618.5841,184.005 618.8042,173.0883 619.0238,162.1711 619.2429,151.2533 619.4615,140.3349 619.6796,129.4158 619.8972,118.4961 620.1143,107.5757 620.3309,96.6546 620.547,85.7327 620.7626,74.81" stroke="silver" stroke-opacity="0.5" stroke-width="1" /><polyline fill="none" points="512.3512,728.0528 512.4846,717.1326 512.6176,706.2131 512.7504,695.2944 512.8829,684.3763 513.0152,673.459 513.1471,662.5422 513.2788,651.6261 513.4101,640.7106 513.5412,629.7956 513.672,618.8812 513.8025,607.9673 513.9328,597.0538 514.0627,586.1409 514.1924,575.2284 514.3218,564.3163 514.4509,553.4045 514.5797,542.4932 514.7083,531.5821 514.8365,520.6714 514.9645,509.761 515.0922,498.8508 515.2197,487.9408 515.3468,477.031 515.4737,466.1215 515.6003,455.212 515.7266,444.3027 515.8526,433.3935 515.9784,422.4844 516.1038,411.5753 516.2291,400.6662 516.354,389.7572 516.4786,378.848 516.603,367.9389 516.7271,357.0296 516.8509,346.1203 516.9745,335.2108 517.0977,324.3012 517.2207,313.3913 517.3435,302.4813 517.4659,291.571 517.5881,280.6605 517.71,269.7496 517.8316,258.8385 517.953,247.927 518.0741,237.0151 518.1949,226.1029 518.3154,215.1902 518.4357,204.2771 518.5557,193.3635 518.6754,182.4494 518.7949,171.5348 518.914,160.6196 519.033,149.7038 519.1516,138.7875 519.27,127.8705 519.3881,116.9529 519.5059,106.0346 519.6235,95.1156 519.7408,84.1958 519.8578,73.2753" stroke="silver" stroke-opacity="0.5" stroke-width="1" /><polyline fill="none" points="417.7792,727.3833 417.8003,716.4637 417.8213,705.5448 417.8423,694.6267 417.8633,683.7092 417.8842,672.7924 417.9051,661.8763 417.9259,650.9608 417.9467,640.0459 417.9675,629.1316 417.9881,618.2178 418.0088,607.3046 418.0294,596.3918 418.05,585.4795 418.0705,574.5676 418.091,563.6562 418.1114,552.7451 418.1318,541.8344 418.1521,530.9241 418.1724,520.014 418.1927,509.1043 418.2129,498.1948 418.233,487.2855 418.2531,476.3765 418.2732,465.4676 418.2932,454.5589 418.3132,443.6503 418.3332,432.7418 418.3531,421.8334 418.3729,410.925 418.3927,400.0167 418.4125,389.1084 418.4322,378.2 418.4519,367.2916 418.4715,356.3831 418.4911,345.4745 418.5107,334.5658 418.5302,323.6569 418.5496,312.7478 418.5691,301.8386 418.5884,290.9291 418.6078,280.0193 418.6271,269.1093 418.6463,258.1989 418.6655,247.2882 418.6847,236.3772 418.7038,225.4657 418.7228,214.5539 418.7419,203.6415 418.7609,192.7288 418.7798,181.8155 418.7987,170.9017 418.8176,159.9874 418.8364,149.0725 418.8552,138.157 418.8739,127.2409 418.8926,116.3241 418.9112,105.4066 418.9298,94.4885 418.9484,83.5696 418.9669,72.65" stroke="silver" stroke-opacity="0.5" stroke-width="1" /><polyline fill="none" points="323.2085,727.6869 323.1174,716.767 323.0264,705.8479 322.9357,694.9295 322.8451,684.0117 322.7547,673.0947 322.6646,662.1783 322.5746,651.2625 322.4848,640.3473 322.3952,629.4327 322.3058,618.5186 322.2166,607.6051 322.1276,596.692 322.0388,585.7794 321.9502,574.8672 321.8617,563.9555 321.7735,553.0441 321.6855,542.1331 321.5976,531.2225 321.5099,520.3121 321.4225,509.4021 321.3352,498.4922 321.2481,487.5827 321.1612,476.6733 321.0745,465.7641 320.988,454.855 320.9016,443.9461 320.8155,433.0373 320.7296,422.1286 320.6438,411.2199 320.5582,400.3112 320.4728,389.4026 320.3877,378.4939 320.3027,367.5851 320.2178,356.6763 320.1332,345.7674 320.0488,334.8583 319.9645,323.9491 319.8805,313.0397 319.7966,302.13 319.7129,291.2202 319.6294,280.3101 319.5461,269.3997 319.463,258.4889 319.38,247.5779 319.2973,236.6665 319.2147,225.7546 319.1323,214.8424 319.0501,203.9297 318.9681,193.0166 318.8863,182.1029 318.8046,171.1888 318.7232,160.2741 318.6419,149.3588 318.5608,138.4429 318.4799,127.5264 318.3992,116.6092 318.3187,105.6914 318.2383,94.7728 318.1582,83.8536 318.0782,72.9335" stroke="silver" stroke-opacity="0.5" stroke-width="1" /><polyline fill="none" points="228.6318,728.9639 228.4284,718.0429 228.2253,707.1226 228.0228,696.203 227.8206,685.2841 227.6189,674.3659 227.4176,663.4483 227.2168,652.5313 227.0164,641.6149 226.8164,630.6991 226.6168,619.7838 226.4177,608.869 226.219,597.9547 226.0208,587.0409 225.823,576.1274 225.6256,565.2144 225.4286,554.3018 225.2321,543.3895 225.036,532.4776 224.8403,521.5659 224.645,510.6545 224.4502,499.7434 224.2558,488.8325 224.0618,477.9217 223.8683,467.0112 223.6752,456.1008 223.4825,445.1905 223.2902,434.2803 223.0983,423.3702 222.9069,412.4601 222.7159,401.5501 222.5253,390.64 222.3352,379.7299 222.1454,368.8197 221.9561,357.9094 221.7672,346.999 221.5787,336.0885 221.3906,325.1778 221.203,314.2669 221.0158,303.3558 220.829,292.4445 220.6426,281.5329 220.4566,270.621 220.2711,259.7087 220.0859,248.7962 219.9012,237.8832 219.7169,226.9698 219.533,216.0561 219.3495,205.1418 219.1664,194.2271 218.9838,183.3119 218.8016,172.3961 218.6197,161.4798 218.4383,150.5629 218.2573,139.6454 218.0767,128.7273 217.8966,117.8085 217.7168,106.8891 217.5375,95.9689 217.3585,85.0479 217.18,74.1262" stroke="silver" stroke-opacity="0.5" stroke-width="1" /><polyline fill="none" points="134.0415,731.2151 133.7257,720.292 133.4104,709.3697 133.0959,698.4481 132.782,687.5271 132.4688,676.6068 132.1563,665.6872 131.8445,654.7681 131.5333,643.8496 131.2228,632.9316 130.913,622.0142 130.6038,611.0972 130.2954,600.1807 129.9875,589.2647 129.6804,578.349 129.3739,567.4338 129.0681,556.5189 128.7629,545.6043 128.4585,534.6901 128.1546,523.7762 127.8515,512.8625 127.549,501.949 127.2471,491.0357 126.946,480.1227 126.6454,469.2097 126.3456,458.2969 126.0464,447.3843 125.7478,436.4716 125.45,425.5591 125.1527,414.6465 124.8562,403.734 124.5602,392.8214 124.265,381.9088 123.9704,370.9961 123.6764,360.0833 123.3831,349.1704 123.0905,338.2573 122.7985,327.344 122.5071,316.4306 122.2164,305.5169 121.9263,294.6029 121.6369,283.6886 121.3482,272.7741 121.0601,261.8591 120.7726,250.9439 120.4858,240.0282 120.1996,229.1121 119.9141,218.1956 119.6292,207.2786 119.3449,196.3612 119.0613,185.4432 118.7784,174.5246 118.4961,163.6055 118.2144,152.6858 117.9333,141.7655 117.6529,130.8445 117.3732,119.9228 117.0941,109.0005 116.8156,98.0774 116.5377,87.1535 116.2605,76.2289" stroke="silver" stroke-opacity="0.5" stroke-width="1" /><polyline fill="none" points="716.667,732.8232 710.9904,732.6292 701.5294,732.3138 692.0688,732.0081 682.6083,731.7122 673.1481,731.426 663.6881,731.1496 654.2283,730.883 644.7687,730.6261 635.3093,730.3789 625.85,730.1415 616.391,729.9139 606.9321,729.696 597.4734,729.4878 588.0149,729.2894 578.5565,729.1008 569.0982,728.9218 559.6401,728.7527 550.1821,728.5932 540.7242,728.4435 531.2664,728.3036 521.8088,728.1733 512.3512,728.0528 502.8937,727.9421 493.4363,727.8411 483.979,727.7498 474.5217,727.6682 465.0645,727.5964 455.6074,727.5343 446.1503,727.482 436.6932,727.4394 427.2362,727.4065 417.7792,727.3833 408.3222,727.3699 398.8652,727.3662 389.4082,727.3722 379.9512,727.388 370.4941,727.4135 361.0371,727.4487 351.58,727.4937 342.1229,727.5483 332.6657,727.6128 323.2085,727.6869 313.7513,727.7708 304.2939,727.8644 294.8365,727.9678 285.379,728.0809 275.9214,728.2037 266.4637,728.3363 257.0059,728.4786 247.548,728.6306 238.09,728.7924 228.6318,728.9639 219.1735,729.1452 209.7151,729.3362 200.2565,729.5369 190.7978,729.7474 181.3388,729.9676 171.8798,730.1976 162.4205,730.4373 152.961,730.6868 143.5014,730.9461 134.0415,731.2151 124.5815,731.4938 115.1212,731.7823 105.6607,732.0806 96.2,732.3886 86.739,732.7064 83.333,732.8232" stroke="silver" stroke-opacity="0.5" stroke-width="1" /><polyline fill="none" points="719.6544,645.4459 713.9241,645.2534 704.3737,644.9402 694.8236,644.6368 685.2738,644.343 675.7242,644.059 666.1749,643.7846 656.6257,643.5199 647.0768,643.2649 637.5281,643.0196 627.9796,642.7839 618.4313,642.5579 608.8831,642.3416 599.3352,642.135 589.7874,641.9381 580.2397,641.7508 570.6923,641.5732 561.1449,641.4052 551.5977,641.247 542.0507,641.0984 532.5037,640.9594 522.9569,640.8302 513.4101,640.7106 503.8635,640.6006 494.3169,640.5003 484.7705,640.4097 475.2241,640.3288 465.6777,640.2575 456.1314,640.1958 446.5852,640.1439 437.039,640.1016 427.4929,640.0689 417.9467,640.0459 408.4006,640.0326 398.8545,640.0289 389.3083,640.0349 379.7622,640.0506 370.2161,640.0759 360.6699,640.1108 351.1237,640.1555 341.5775,640.2098 332.0312,640.2737 322.4848,640.3473 312.9384,640.4306 303.3919,640.5235 293.8453,640.6261 284.2987,640.7384 274.7519,640.8603 265.205,640.9919 255.6581,641.1332 246.111,641.2841 236.5637,641.4447 227.0164,641.6149 217.4688,641.7949 207.9212,641.9845 198.3733,642.1837 188.8253,642.3927 179.2772,642.6113 169.7288,642.8396 160.1802,643.0776 150.6315,643.3252 141.0825,643.5826 131.5333,643.8496 121.9839,644.1263 112.4343,644.4127 102.8844,644.7087 93.3342,645.0145 83.7838,645.33 80.3456,645.4459" stroke="silver" stroke-opacity="0.5" stroke-width="1" /><polyline fill="none" points="722.5906,558.1027 716.8075,557.9117 707.1693,557.601 697.5313,557.2999 687.8936,557.0085 678.2562,556.7267 668.619,556.4544 658.9821,556.1918 649.3453,555.9388 639.7089,555.6954 630.0726,555.4616 620.4365,555.2374 610.8006,555.0228 601.165,554.8178 591.5295,554.6224 581.8941,554.4366 572.259,554.2604 562.624,554.0938 552.9891,553.9367 543.3544,553.7893 533.7197,553.6515 524.0853,553.5232 514.4509,553.4045 504.8166,553.2955 495.1824,553.196 485.5484,553.1061 475.9143,553.0257 466.2804,552.955 456.6465,552.8939 447.0127,552.8423 437.3789,552.8003 427.7451,552.7679 418.1114,552.7451 408.4777,552.7319 398.844,552.7283 389.2102,552.7342 379.5765,552.7497 369.9428,552.7748 360.309,552.8095 350.6752,552.8538 341.0414,552.9077 331.4075,552.9711 321.7735,553.0441 312.1395,553.1268 302.5054,553.219 292.8712,553.3208 283.2369,553.4321 273.6025,553.5531 263.968,553.6837 254.3333,553.8238 244.6986,553.9735 235.0637,554.1329 225.4286,554.3018 215.7934,554.4803 206.158,554.6684 196.5225,554.8661 186.8868,555.0734 177.2508,555.2903 167.6147,555.5168 157.9784,555.7529 148.3419,555.9987 138.7051,556.254 129.0681,556.5189 119.4309,556.7934 109.7934,557.0776 100.1556,557.3713 90.5176,557.6747 80.8793,557.9877 77.4094,558.1027" stroke="silver" stroke-opacity="0.5" stroke-width="1" /><polyline fill="none" points="725.4761,470.7803 719.6411,470.5909 709.9165,470.2828 700.1922,469.9842 690.4682,469.6952 680.7444,469.4158 671.0209,469.1458 661.2977,468.8854 651.5747,468.6345 641.852,468.3931 632.1294,468.1613 622.4071,467.939 612.685,467.7262 602.9632,467.5229 593.2415,467.3291 583.5199,467.1449 573.7986,466.9701 564.0774,466.8049 554.3564,466.6492 544.6355,466.503 534.9148,466.3663 525.1942,466.2391 515.4737,466.1215 505.7533,466.0133 496.033,465.9146 486.3128,465.8255 476.5927,465.7458 466.8727,465.6757 457.1527,465.6151 447.4328,465.5639 437.7129,465.5223 427.993,465.4902 418.2732,465.4676 408.5534,465.4545 398.8336,465.4508 389.1138,465.4567 379.394,465.4721 369.6742,465.497 359.9544,465.5314 350.2345,465.5753 340.5145,465.6288 330.7945,465.6917 321.0745,465.7641 311.3544,465.846 301.6341,465.9374 291.9138,466.0384 282.1934,466.1488 272.4729,466.2688 262.7523,466.3982 253.0315,466.5372 243.3106,466.6857 233.5895,466.8437 223.8683,467.0112 214.1469,467.1882 204.4254,467.3748 194.7036,467.5708 184.9817,467.7764 175.2595,467.9915 165.5372,468.2161 155.8146,468.4502 146.0918,468.6939 136.3687,468.947 126.6454,469.2097 116.9219,469.482 107.1981,469.7637 97.474,470.055 87.7496,470.3559 78.0249,470.6662 74.5239,470.7803" stroke="silver" stroke-opacity="0.5" stroke-width="1" /><polyline fill="none" points="728.3113,383.4654 722.4255,383.2777 712.616,382.9723 702.8068,382.6764 692.9979,382.39 683.1893,382.113 673.3811,381.8455 663.573,381.5874 653.7653,381.3387 643.9577,381.0995 634.1505,380.8697 624.3434,380.6494 614.5366,380.4385 604.73,380.237 594.9236,380.045 585.1174,379.8623 575.3114,379.6892 565.5056,379.5254 555.6999,379.3711 545.8944,379.2262 536.089,379.0907 526.2837,378.9647 516.4786,378.848 506.6736,378.7408 496.8687,378.6431 487.0639,378.5547 477.2592,378.4758 467.4546,378.4063 457.65,378.3462 447.8455,378.2955 438.041,378.2542 428.2366,378.2224 418.4322,378.2 408.6278,378.187 398.8235,378.1834 389.0191,378.1893 379.2147,378.2045 369.4103,378.2292 359.6059,378.2633 349.8014,378.3068 339.9969,378.3597 330.1923,378.4221 320.3877,378.4939 310.5829,378.5751 300.7781,378.6657 290.9732,378.7657 281.1682,378.8752 271.363,378.9941 261.5577,379.1224 251.7523,379.2601 241.9468,379.4073 232.141,379.5638 222.3352,379.7299 212.5291,379.9053 202.7229,380.0902 192.9164,380.2845 183.1098,380.4882 173.3029,380.7014 163.4958,380.924 153.6885,381.156 143.8809,381.3975 134.0731,381.6485 124.265,381.9088 114.4566,382.1786 104.648,382.4579 94.839,382.7466 85.0298,383.0447 75.2202,383.3523 71.6887,383.4654" stroke="silver" stroke-opacity="0.5" stroke-width="1" /><polyline fill="none" points="731.0968,296.1448 725.1609,295.9588 715.268,295.6563 705.3755,295.3633 695.4832,295.0795 685.5913,294.8051 675.6997,294.5401 665.8084,294.2845 655.9173,294.0382 646.0265,293.8012 636.136,293.5736 626.2457,293.3553 616.3557,293.1464 606.4658,292.9468 596.5762,292.7566 586.6868,292.5757 576.7976,292.4042 566.9086,292.242 557.0198,292.0891 547.1311,291.9456 537.2426,291.8114 527.3542,291.6865 517.4659,291.571 507.5778,291.4648 497.6898,291.368 487.8019,291.2805 477.914,291.2023 468.0263,291.1334 458.1386,291.0739 448.251,291.0237 438.3634,290.9828 428.4759,290.9513 418.5884,290.9291 408.701,290.9162 398.8135,290.9127 388.926,290.9184 379.0386,290.9336 369.1511,290.958 359.2635,290.9918 349.376,291.0349 339.4883,291.0873 329.6007,291.1491 319.7129,291.2202 309.8251,291.3006 299.9371,291.3904 290.0491,291.4895 280.1609,291.5979 270.2726,291.7156 260.3842,291.8427 250.4956,291.9792 240.6069,292.1249 230.718,292.2801 220.829,292.4445 210.9397,292.6183 201.0503,292.8014 191.1606,292.9939 181.2707,293.1957 171.3806,293.4069 161.4903,293.6274 151.5997,293.8572 141.7089,294.0964 131.8177,294.345 121.9263,294.6029 112.0347,294.8701 102.1427,295.1468 92.2504,295.4327 82.3577,295.7281 72.4648,296.0328 68.9032,296.1448" stroke="silver" stroke-opacity="0.5" stroke-width="1" /><polyline fill="none" points="733.8328,208.8051 727.8478,208.621 717.873,208.3216 707.8986,208.0314 697.9245,207.7505 687.9507,207.4789 677.9772,207.2165 668.0041,206.9634 658.0312,206.7196 648.0586,206.485 638.0863,206.2596 628.1142,206.0435 618.1424,205.8367 608.1709,205.6391 598.1995,205.4508 588.2284,205.2717 578.2575,205.1019 568.2868,204.9413 558.3162,204.79 548.3459,204.6479 538.3757,204.515 528.4056,204.3914 518.4357,204.2771 508.4659,204.1719 498.4962,204.076 488.5267,203.9894 478.5572,203.912 468.5878,203.8438 458.6185,203.7849 448.6493,203.7352 438.6801,203.6947 428.711,203.6635 418.7419,203.6415 408.7728,203.6288 398.8037,203.6253 388.8346,203.631 378.8655,203.646 368.8964,203.6702 358.9273,203.7036 348.9581,203.7463 338.9888,203.7982 329.0195,203.8593 319.0501,203.9297 309.0806,204.0094 299.1111,204.0982 289.1414,204.1963 279.1715,204.3037 269.2016,204.4202 259.2315,204.5461 249.2613,204.6811 239.2909,204.8255 229.3203,204.979 219.3495,205.1418 209.3785,205.3139 199.4074,205.4952 189.436,205.6857 179.4644,205.8855 169.4925,206.0946 159.5204,206.3129 149.548,206.5404 139.5753,206.7772 129.6024,207.0233 119.6292,207.2786 109.6556,207.5432 99.6818,207.8171 89.7076,208.1002 79.7331,208.3926 69.7582,208.6943 66.1672,208.8051" stroke="silver" stroke-opacity="0.5" stroke-width="1" /><polyline fill="none" points="736.5199,121.4333 730.4866,121.2511 720.4313,120.9548 710.3765,120.6677 700.3219,120.3897 690.2678,120.121 680.2139,119.8614 670.1604,119.6109 660.1072,119.3696 650.0543,119.1375 640.0016,118.9146 629.9493,118.7007 619.8972,118.4961 609.8453,118.3006 599.7937,118.1143 589.7423,117.9371 579.6912,117.769 569.6402,117.6101 559.5894,117.4604 549.5389,117.3198 539.4884,117.1884 529.4382,117.066 519.3881,116.9529 509.3381,116.8489 499.2882,116.754 489.2385,116.6683 479.1889,116.5917 469.1393,116.5242 459.0899,116.4659 449.0405,116.4167 438.9911,116.3767 428.9418,116.3458 418.8926,116.3241 408.8433,116.3115 398.7941,116.308 388.7449,116.3137 378.6956,116.3285 368.6463,116.3524 358.597,116.3855 348.5477,116.4277 338.4983,116.4791 328.4488,116.5396 318.3992,116.6092 308.3496,116.688 298.2998,116.7759 288.2499,116.873 278.1999,116.9792 268.1498,117.0946 258.0995,117.2191 248.049,117.3527 237.9984,117.4955 227.9476,117.6474 217.8966,117.8085 207.8454,117.9788 197.7939,118.1581 187.7423,118.3467 177.6903,118.5444 167.6382,118.7512 157.5858,118.9672 147.5331,119.1924 137.4801,119.4267 127.4268,119.6702 117.3732,119.9228 107.3193,120.1846 97.265,120.4556 87.2104,120.7358 77.1555,121.0251 67.1001,121.3236 63.4801,121.4333" stroke="silver" stroke-opacity="0.5" stroke-width="1" /><circle cx="729.9321" cy="221.3625" fill="black" r="0.738" stroke="none" /><circle cx="714.9481" cy="584.0786" fill="black" r="0.738" stroke="none" /><circle cx="716.4927" cy="476.5209" fill="black" r="0.738" stroke="none" /><circle cx="720.9688" cy="135.6633" fill="black" r="0.738" stroke="none" /><circle cx="714.7682" cy="121.9289" fill="black" r="0.738" stroke="none" /><circle cx="695.8055" cy="731.2528" fill="black" r="0.738" stroke="none" /><circle cx="711.7351" cy="188.5591" fill="black" r="0.738" stroke="none" /><circle cx="713.4579" cy="119.8801" fill="black" r="0.738" stroke="none" /><circle cx="702.9968" cy="457.1356" fill="black" r="0.738" stroke="none" /><circle cx="709.8089" cy="180.3731" fill="black" r="0.738" stroke="none" /><circle cx="692.3063" cy="619.6409" fill="black" r="0.738" stroke="none" /><circle cx="697.5352" cy="364.0839" fill="black" r="0.936" stroke="none" /><circle cx="684.9828" cy="582.356" fill="black" r="0.738" stroke="none" /><circle cx="694.0977" cy="219.1827" fill="black" r="0.936" stroke="none" /><circle cx="695.7014" cy="148.5069" fill="black" r="0.738" stroke="none" /><circle cx="685.6737" cy="391.5311" fill="black" r="0.738" stroke="none" /><circle cx="686.0818" cy="279.7015" fill="black" r="0.738" stroke="none" /><circle cx="674.2416" cy="453.9447" fill="black" r="0.738" stroke="none" /><circle cx="664.6211" cy="628.2692" fill="black" r="0.738" stroke="none" /><circle cx="667.2469" cy="510.7181" fill="black" r="0.738" stroke="none" /><circle cx="660.2103" cy="687.7657" fill="black" r="0.738" stroke="none" /><circle cx="672.0421" cy="224.0182" fill="black" r="0.738" stroke="none" /><circle cx="653.6775" cy="633.7383" fill="black" r="0.738" stroke="none" /><circle cx="658.0914" cy="314.9704" fill="black" r="0.738" stroke="none" /><circle cx="632.6117" cy="674.7977" fill="black" r="0.738" stroke="none" /><circle cx="639.4501" cy="321.5999" fill="black" r="0.738" stroke="none" /><circle cx="642.2073" cy="124.7315" fill="black" r="0.738" stroke="none" /><circle cx="633.9317" cy="424.2715" fill="black" r="0.738" stroke="none" /><circle cx="636.5062" cy="298.2113" fill="black" r="0.738" stroke="none" /><circle cx="627.8571" cy="587.1216" fill="black" r="0.738" stroke="none" /><circle cx="633.9695" cy="141.5085" fill="black" r="0.738" stroke="none" /><circle cx="627.9434" cy="352.8695" fill="black" r="0.738" stroke="none" /><circle cx="621.0394" cy="204.6728" fill="black" r="0.936" stroke="none" /><circle cx="609.8292" cy="715.5125" fill="black" r="0.738" stroke="none" /><circle cx="620.3005" cy="94.1192" fill="black" r="0.738" stroke="none" /><circle cx="615.3084" cy="179.8332" fill="black" r="0.738" stroke="none" /><circle cx="607.8218" cy="409.3779" fill="black" r="0.936" stroke="none" /><circle cx="603.2331" cy="595.5656" fill="black" r="0.738" stroke="none" /><circle cx="584.8591" cy="495.3732" fill="black" r="0.738" stroke="none" /><circle cx="584.5423" cy="508.1161" fill="black" r="0.738" stroke="none" /><circle cx="552.4836" cy="205.4044" fill="black" r="0.936" stroke="none" /><circle cx="542.5634" cy="662.6815" fill="black" r="0.738" stroke="none" /><circle cx="547.2247" cy="318.9232" fill="black" r="0.936" stroke="none" /><circle cx="537.9393" cy="707.1677" fill="black" r="0.738" stroke="none" /><circle cx="537.8691" cy="639.7262" fill="black" r="0.738" stroke="none" /><circle cx="543.5323" cy="164.4969" fill="black" r="0.738" stroke="none" /><circle cx="538.0556" cy="396.0516" fill="black" r="0.936" stroke="none" /><circle cx="539.9365" cy="237.6291" fill="black" r="0.738" stroke="none" /><circle cx="532.6399" cy="348.4937" fill="black" r="0.738" stroke="none" /><circle cx="519.1317" cy="647.3314" fill="black" r="0.738" stroke="none" /><circle cx="519.9074" cy="523.4385" fill="black" r="0.738" stroke="none" /><circle cx="511.5646" cy="325.4622" fill="black" r="0.738" stroke="none" /><circle cx="502.1802" cy="517.9995" fill="black" r="0.936" stroke="none" /><circle cx="498.1128" cy="467.9425" fill="black" r="0.738" stroke="none" /><circle cx="489.8505" cy="691.8997" fill="black" r="0.738" stroke="none" /><circle cx="469.1339" cy="552.7131" fill="black" r="0.738" stroke="none" /><circle cx="466.1198" cy="620.7012" fill="black" r="0.738" stroke="none" /><circle cx="466.6529" cy="245.4733" fill="black" r="0.738" stroke="none" /><circle cx="464.0994" cy="400.4644" fill="black" r="0.738" stroke="none" /><circle cx="463.3412" cy="241.263" fill="black" r="0.738" stroke="none" /><circle cx="460.3625" cy="289.5154" fill="black" r="0.738" stroke="none" /><circle cx="457.9874" cy="157.6803" fill="black" r="0.738" stroke="none" /><circle cx="447.1624" cy="339.1077" fill="black" r="0.738" stroke="none" /><circle cx="446.6406" cy="225.4638" fill="black" r="0.738" stroke="none" /><circle cx="445.7198" cy="291.0123" fill="black" r="0.738" stroke="none" /><circle cx="442.3232" cy="550.1147" fill="black" r="0.738" stroke="none" /><circle cx="443.0957" cy="94.5558" fill="black" r="0.738" stroke="none" /><circle cx="438.3349" cy="659.4051" fill="black" r="0.738" stroke="none" /><circle cx="430.7077" cy="637.8086" fill="black" r="0.738" stroke="none" /><circle cx="425.7153" cy="444.1029" fill="black" r="0.738" stroke="none" /><circle cx="425.2261" cy="227.225" fill="black" r="0.738" stroke="none" /><circle cx="417.2989" cy="107.2382" fill="black" r="0.738" stroke="none" /><circle cx="407.9945" cy="577.7838" fill="black" r="0.738" stroke="none" /><circle cx="404.8634" cy="377.3118" fill="black" r="0.738" stroke="none" /><circle cx="387.8145" cy="546.0148" fill="black" r="0.738" stroke="none" /><circle cx="385.8504" cy="521.142" fill="black" r="0.738" stroke="none" /><circle cx="371.9488" cy="331.0964" fill="black" r="0.738" stroke="none" /><circle cx="369.212" cy="230.2075" fill="black" r="0.738" stroke="none" /><circle cx="364.0352" cy="107.5451" fill="black" r="0.738" stroke="none" /><circle cx="365.5146" cy="669.957" fill="black" r="0.936" stroke="none" /><circle cx="362.4867" cy="655.2101" fill="black" r="0.738" stroke="none" /><circle cx="360.781" cy="438.3869" fill="black" r="0.936" stroke="none" /><circle cx="349.2353" cy="211.7768" fill="black" r="0.738" stroke="none" /><circle cx="348.4092" cy="488.3635" fill="black" r="0.738" stroke="none" /><circle cx="346.1818" cy="548.6878" fill="black" r="0.738" stroke="none" /><circle cx="339.8987" cy="492.2519" fill="black" r="0.738" stroke="none" /><circle cx="334.5776" cy="92.3935" fill="black" r="0.738" stroke="none" /><circle cx="331.7775" cy="108.7449" fill="black" r="0.738" stroke="none" /><circle cx="330.7938" cy="280.1434" fill="black" r="0.738" stroke="none" /><circle cx="330.6013" cy="357.7355" fill="black" r="0.738" stroke="none" /><circle cx="326.9264" cy="349.3825" fill="black" r="0.738" stroke="none" /><circle cx="321.8518" cy="161.0371" fill="black" r="0.738" stroke="none" /><circle cx="320.7159" cy="147.9463" fill="black" r="0.738" stroke="none" /><circle cx="316.2757" cy="175.2247" fill="black" r="0.738" stroke="none" /><circle cx="317.7372" cy="428.6983" fill="black" r="0.738" stroke="none" /><circle cx="301.8487" cy="440.2745" fill="black" r="0.738" stroke="none" /><circle cx="302.4096" cy="678.1764" fill="black" r="0.738" stroke="none" /><circle cx="298.6442" cy="345.258" fill="black" r="0.738" stroke="none" /><circle cx="298.6292" cy="580.4105" fill="black" r="0.738" stroke="none" /><circle cx="294.1528" cy="290.487" fill="black" r="0.738" stroke="none" /><circle cx="291.6405" cy="150.8156" fill="black" r="0.738" stroke="none" /><circle cx="282.8912" cy="73.6831" fill="black" r="0.738" stroke="none" /><circle cx="286.6766" cy="550.9468" fill="black" r="0.738" stroke="none" /><circle cx="279.0544" cy="250.2306" fill="black" r="0.738" stroke="none" /><circle cx="279.3475" cy="617.832" fill="black" r="0.738" stroke="none" /><circle cx="264.4519" cy="306.5428" fill="black" r="0.738" stroke="none" /><circle cx="260.8204" cy="478.3847" fill="black" r="0.738" stroke="none" /><circle cx="259.9533" cy="521.0873" fill="black" r="0.738" stroke="none" /><circle cx="254.1522" cy="321.4355" fill="black" r="0.738" stroke="none" /><circle cx="252.8501" cy="690.7959" fill="black" r="0.738" stroke="none" /><circle cx="244.3561" cy="256.6203" fill="black" r="0.738" stroke="none" /><circle cx="246.3805" cy="629.6625" fill="black" r="0.936" stroke="none" /><circle cx="236.0208" cy="178.5861" fill="black" r="0.738" stroke="none" /><circle cx="236.6245" cy="244.3374" fill="black" r="0.738" stroke="none" /><circle cx="232.2153" cy="91.3686" fill="black" r="0.738" stroke="none" /><circle cx="237.7131" cy="528.067" fill="black" r="0.738" stroke="none" /><circle cx="234.1863" cy="432.4357" fill="black" r="0.738" stroke="none" /><circle cx="237.3284" cy="628.1542" fill="black" r="0.738" stroke="none" /><circle cx="230.4849" cy="439.7438" fill="black" r="0.738" stroke="none" /><circle cx="214.2059" cy="226.0162" fill="black" r="0.738" stroke="none" /><circle cx="212.2027" cy="318.7913" fill="black" r="0.738" stroke="none" /><circle cx="208.3305" cy="231.4475" fill="black" r="0.738" stroke="none" /><circle cx="192.8174" cy="590.4963" fill="black" r="0.738" stroke="none" /><circle cx="184.7432" cy="569.6212" fill="black" r="0.738" stroke="none" /><circle cx="174.2191" cy="195.5105" fill="black" r="0.936" stroke="none" /><circle cx="174.0384" cy="438.0629" fill="black" r="0.738" stroke="none" /><circle cx="167.1454" cy="156.1661" fill="black" r="0.738" stroke="none" /><circle cx="174.9158" cy="574.2137" fill="black" r="0.738" stroke="none" /><circle cx="174.3865" cy="693.2437" fill="black" r="0.738" stroke="none" /><circle cx="168.7908" cy="700.5495" fill="black" r="0.738" stroke="none" /><circle cx="160.5789" cy="363.6112" fill="black" r="0.738" stroke="none" /><circle cx="157.3028" cy="249.1722" fill="black" r="0.936" stroke="none" /><circle cx="153.1928" cy="159.706" fill="black" r="0.738" stroke="none" /><circle cx="155.2946" cy="296.1288" fill="black" r="0.738" stroke="none" /><circle cx="143.6851" cy="303.6574" fill="black" r="0.738" stroke="none" /><circle cx="143.2407" cy="352.6747" fill="black" r="0.738" stroke="none" /><circle cx="130.4096" cy="291.9348" fill="black" r="0.738" stroke="none" /><circle cx="136.504" cy="560.4206" fill="black" r="1.17" stroke="none" /><circle cx="122.9054" cy="99.7602" fill="black" r="0.738" stroke="none" /><circle cx="133.2389" cy="567.8505" fill="black" r="0.738" stroke="none" /><circle cx="129.1108" cy="482.5095" fill="black" r="0.738" stroke="none" /><circle cx="120.1143" cy="303.8255" fill="black" r="0.738" stroke="none" /><circle cx="125.8556" cy="598.0346" fill="black" r="0.738" stroke="none" /><circle cx="118.3696" cy="358.8296" fill="black" r="0.738" stroke="none" /><circle cx="114.8289" cy="236.8573" fill="black" r="0.738" stroke="none" /><circle cx="125.0933" cy="648.4937" fill="black" r="0.738" stroke="none" /><circle cx="111.8287" cy="408.5521" fill="black" r="0.738" stroke="none" /><circle cx="106.1534" cy="219.6128" fill="black" r="0.738" stroke="none" /><circle cx="116.4026" cy="694.4832" fill="black" r="0.738" stroke="none" /><circle cx="87.942" cy="207.8016" fill="black" r="0.738" stroke="none" /><circle cx="97.8492" cy="661.7461" fill="black" r="0.738" stroke="none" /><circle cx="90.4329" cy="569.4789" fill="black" r="1.854" stroke="none" /><circle cx="84.0958" cy="426.0725" fill="black" r="0.738" stroke="none" /><circle cx="74.8296" cy="178.1121" fill="black" r="0.738" stroke="none" /><circle cx="86.1449" cy="672.4511" fill="black" r="0.738" stroke="none" /><circle cx="76.4703" cy="407.7852" fill="black" r="0.936" stroke="none" /><circle cx="13.77" cy="786.23" fill="black" r="4.59" stroke="none" /><circle cx="13.77" cy="786.23" fill="black" r="4.59" stroke="none" /><text fill="black" font-family="monospace" font-size="12" x="10.77" y="775.64">1</text><circle cx="37.77" cy="786.23" fill="black" r="3.654" stroke="none" /><circle cx="37.77" cy="786.23" fill="black" r="3.654" stroke="none" /><text fill="black" font-family="monospace" font-size="12" x="34.769999999999996" y="775.64">2</text><circle cx="61.77" cy="786.23" fill="black" r="2.916" stroke="none" /><circle cx="61.77" cy="786.23" fill="black" r="2.916" stroke="none" /><text fill="black" font-family="monospace" font-size="12" x="58.769999999999996" y="775.64">3</text><circle cx="85.77" cy="786.23" fill="black" r="2.322" stroke="none" /><circle cx="85.77" cy="786.23" fill="black" r="2.322" stroke="none" /><text fill="black" font-family="monospace" font-size="12" x="82.77" y="775.64">4</text><circle cx="109.77" cy="786.23" fill="black" r="1.854" stroke="none" /><circle cx="109.77" cy="786.23" fill="black" r="1.854" stroke="none" /><text fill="black" font-family="monospace" font-size="12" x="106.77" y="775.64">5</text><circle cx="133.77" cy="786.23" fill="black" r="1.476" stroke="none" /><circle cx="133.77" cy="786.23" fill="black" r="1.476" stroke="none" /><text fill="black" font-family="monospace" font-size="12" x="130.77" y="775.64">6</text><circle cx="157.77" cy="786.23" fill="black" r="1.17" stroke="none" /><circle cx="157.77" cy="786.23" fill="black" r="1.17" stroke="none" /><text fill="black" font-family="monospace" font-size="12" x="154.77" y="775.64">7</text><circle cx="181.77" cy="786.23" fill="black" r="0.936" stroke="none" /><circle cx="181.77" cy="786.23" fill="black" r="0.936" stroke="none" /><text fill="black" font-family="monospace" font-size="12" x="178.77" y="775.64">8</text><circle cx="205.77" cy="786.23" fill="black" r="0.738" stroke="none" /><circle cx="205.77" cy="786.23" fill="black" r="0.738" stroke="none" /><text fill="black" font-family="monospace" font-size="12" x="202.77" y="775.64">9</text><text fill="gray" fill-opacity="0.5" font-family="monospace" font-size="12" x="721.6930846712874" y="77.25522605104987">15h05m</text><text fill="gray" fill-opacity="0.5" font-family="monospace" font-size="12" x="620.762602654287" y="74.81003741427219">15h10m</text><text fill="gray" fill-opacity="0.5" font-family="monospace" font-size="12" x="519.8577786680626" y="73.27531043605694">15h15m</text><text fill="gray" fill-opacity="0.5" font-family="monospace" font-size="12" x="418.96688694215186" y="72.64995737958918">15h20m</text><text fill="gray" fill-opacity="0.5" font-family="monospace" font-size="12" x="318.07820004474826" y="72.93353512857743">15h25m</text><text fill="gray" fill-opacity="0.5" font-family="monospace" font-size="12" x="217.17999028216718" y="74.12624461484415">15h30m</text><text fill="gray" fill-opacity="0.5" font-family="monospace" font-size="12" x="116.26053109383253" y="76.22893107787905">15h35m</text><text fill="gray" fill-opacity="0.5" font-family="monospace" font-size="12" x="83.33297901746465" y="732.82315467983">-30°</text><text fill="gray" fill-opacity="0.5" font-family="monospace" font-size="12" x="80.345609161693" y="645.4458996653692">-29°</text><text fill="gray" fill-opacity="0.5" font-family="monospace" font-size="12" x="77.40943118114467" y="558.1027018944101">-28°</text><text fill="gray" fill-opacity="0.5" font-family="monospace" font-size="12" x="74.52394885402447" y="470.7802873175766">-27°</text><text fill="gray" fill-opacity="0.5" font-family="monospace" font-size="12" x="71.6886968278177" y="383.4653944884191">-26°</text><text fill="gray" fill-opacity="0.5" font-family="monospace" font-size="12" x="68.90324031218495" y="296.1447665185394">-25°</text><text fill="gray" fill-opacity="0.5" font-family="monospace" font-size="12" x="66.1671748113572" y="208.80514303858516">-24°</text><text fill="gray" fill-opacity="0.5" font-family="monospace" font-size="12" x="63.480125895682136" y="121.43325215475375">-23°</text><text fill="black" font-family="monospace" font-size="12" x="12" y="48">&gt;&gt; No.253 15h04m 15h38m -30.0°-22.5°</text><a target="_self" xlink:href="hip011.svg"><text fill="black" font-family="monospace" font-size="12" x="12" y="36">&gt; No.11 15h00m 18h00m -52.5°-22.5°</text></a><a target="_self" xlink:href="hip001.svg"><text fill="black" font-family="monospace" font-size="12" x="12" y="24">No.1 00h 24h -90.0°+0.0°</text></a><polyline fill="none" points="737.8451,77.7311 731.788,77.5499 721.6931,77.2552 711.5985,76.9697 701.5044,76.6933 691.4105,76.426 681.3171,76.1678 671.2239,75.9187 661.1311,75.6788 651.0385,75.4479 640.9463,75.2262 630.8543,75.0136 620.7626,74.81 610.6712,74.6156 600.58,74.4303 590.489,74.2541 580.3983,74.087 570.3077,73.9289 560.2174,73.78 550.1272,73.6402 540.0373,73.5095 529.9474,73.3878 519.8578,73.2753 509.7683,73.1719 499.6789,73.0775 489.5896,72.9923 479.5004,72.9161 469.4113,72.849 459.3223,72.791 449.2334,72.7421 439.1445,72.7023 429.0557,72.6716 418.9669,72.65 408.8781,72.6374 398.7893,72.634 388.7006,72.6396 378.6118,72.6543 368.523,72.6781 358.4342,72.711 348.3453,72.753 338.2563,72.8041 328.1673,72.8643 318.0782,72.9335 307.989,73.0119 297.8997,73.0993 287.8103,73.1959 277.7207,73.3015 267.631,73.4162 257.5412,73.54 247.4512,73.6729 237.361,73.8149 227.2706,73.966 217.18,74.1262 207.0892,74.2955 196.9982,74.4739 186.9069,74.6614 176.8154,74.8581 166.7236,75.0638 156.6316,75.2786 146.5393,75.5025 136.4467,75.7355 126.3538,75.9777 116.2605,76.2289 106.167,76.4893 96.0731,76.7588 85.9788,77.0374 75.8842,77.3251 65.7892,77.622 62.1549,77.7311" stroke="black" stroke-opacity="0.5" stroke-width="1" /><polyline fill="none" points="716.667,732.8232 717.0433,721.8987 717.4187,710.9749 717.7933,700.0518 718.1671,689.1294 718.5402,678.2077 718.9124,667.2865 719.2838,656.3659 719.6544,645.4459 720.0242,634.5264 720.3932,623.6074 720.7614,612.6889 721.1288,601.7709 721.4955,590.8533 721.8613,579.936 722.2263,569.0192 722.5906,558.1027 722.954,547.1865 723.3167,536.2707 723.6785,525.3551 724.0396,514.4397 724.3999,503.5246 724.7594,492.6097 725.1181,481.6949 725.4761,470.7803 725.8332,459.8658 726.1896,448.9514 726.5451,438.037 726.8999,427.1227 727.2539,416.2084 727.6072,405.2941 727.9596,394.3798 728.3113,383.4654 728.6622,372.5509 729.0123,361.6363 729.3617,350.7215 729.7102,339.8066 730.058,328.8915 730.405,317.9762 730.7513,307.0606 731.0968,296.1448 731.4415,285.2286 731.7854,274.3122 732.1286,263.3953 732.4709,252.4782 732.8126,241.5606 733.1534,230.6426 733.4935,219.7241 733.8328,208.8051 734.1714,197.8857 734.5092,186.9657 734.8462,176.0452 735.1825,165.1241 735.518,154.2023 735.8527,143.28 736.1867,132.357 736.5199,121.4333 736.8523,110.5088 737.184,99.5837 737.515,88.6578 737.8451,77.7311" stroke="black" stroke-opacity="0.5" stroke-width="1" /><polyline fill="none" points="716.667,732.8232 710.9904,732.6292 701.5294,732.3138 692.0688,732.0081 682.6083,731.7122 673.1481,731.426 663.6881,731.1496 654.2283,730.883 644.7687,730.6261 635.3093,730.3789 625.85,730.1415 616.391,729.9139 606.9321,729.696 597.4734,729.4878 588.0149,729.2894 578.5565,729.1008 569.0982,728.9218 559.6401,728.7527 550.1821,728.5932 540.7242,728.4435 531.2664,728.3036 521.8088,728.1733 512.3512,728.0528 502.8937,727.9421 493.4363,727.8411 483.979,727.7498 474.5217,727.6682 465.0645,727.5964 455.6074,727.5343 446.1503,727.482 436.6932,727.4394 427.2362,727.4065 417.7792,727.3833 408.3222,727.3699 398.8652,727.3662 389.4082,727.3722 379.9512,727.388 370.4941,727.4135 361.0371,727.4487 351.58,727.4937 342.1229,727.5483 332.6657,727.6128 323.2085,727.6869 313.7513,727.7708 304.2939,727.8644 294.8365,727.9678 285.379,728.0809 275.9214,728.2037 266.4637,728.3363 257.0059,728.4786 247.548,728.6306 238.09,728.7924 228.6318,728.9639 219.1735,729.1452 209.7151,729.3362 200.2565,729.5369 190.7978,729.7474 181.3388,729.9676 171.8798,730.1976 162.4205,730.4373 152.961,730.6868 143.5014,730.9461 134.0415,731.2151 124.5815,731.4938 115.1212,731.7823 105.6607,732.0806 96.2,732.3886 86.739,732.7064 83.333,732.8232" stroke="black" stroke-opacity="0.5" stroke-width="1" /><polyline fill="none" points="83.333,732.8232 82.9567,721.8987 82.5813,710.9749 82.2067,700.0518 81.8329,689.1294 81.4598,678.2077 81.0876,667.2865 80.7162,656.3659 80.3456,645.4459 79.9758,634.5264 79.6068,623.6074 79.2386,612.6889 78.8712,601.7709 78.5045,590.8533 78.1387,579.936 77.7737,569.0192 77.4094,558.1027 77.046,547.1865 76.6833,536.2707 76.3215,525.3551 75.9604,514.4397 75.6001,503.5246 75.2406,492.6097 74.8819,481.6949 74.5239,470.7803 74.1668,459.8658 73.8104,448.9514 73.4549,438.037 73.1001,427.1227 72.7461,416.2084 72.3928,405.2941 72.0404,394.3798 71.6887,383.4654 71.3378,372.5509 70.9877,361.6363 70.6383,350.7215 70.2898,339.8066 69.942,328.8915 69.595,317.9762 69.2487,307.0606 68.9032,296.1448 68.5585,285.2286 68.2146,274.3122 67.8714,263.3953 67.5291,252.4782 67.1874,241.5606 66.8466,230.6426 66.5065,219.7241 66.1672,208.8051 65.8286,197.8857 65.4908,186.9657 65.1538,176.0452 64.8175,165.1241 64.482,154.2023 64.1473,143.28 63.8133,132.357 63.4801,121.4333 63.1477,110.5088 62.816,99.5837 62.485,88.6578 62.1549,77.7311" stroke="black" stroke-opacity="0.5" stroke-width="1" /></svg>