<?xml version="1.0" encoding="utf-8" ?>
<svg baseProfile="tiny" height="800" version="1.2" width="800" xmlns="http://www.w3.org/2000/svg" xmlns:ev="http://www.w3.org/2001/xml-events" xmlns:xlink="http://www.w3.org/1999/xlink"><defs /><rect fill="none" height="800" stroke="black" stroke-width="2" width="800" x="0" y="0" /><polyline fill="none" points="631.1472,730.2733 631.4217,719.3511 631.6956,708.4296 631.9689,697.5088 632.2416,686.5887 632.5138,675.6693 632.7854,664.7505 633.0563,653.8323 633.3267,642.9147 633.5965,631.9976 633.8657,621.0811 634.1344,610.165 634.4024,599.2494 634.6699,588.3343 634.9368,577.4196 635.2031,566.5053 635.4689,555.5914 635.734,544.6777 635.9986,533.7645 636.2626,522.8515 636.5261,511.9387 636.7889,501.0263 637.0512,490.114 637.3129,479.2019 637.574,468.29 637.8346,457.3782 638.0946,446.4665 638.354,435.5549 638.6128,424.6433 638.8711,413.7318 639.1288,402.8203 639.386,391.9088 639.6425,380.9972 639.8985,370.0856 640.154,359.1738 640.4088,348.262 640.6631,337.35 640.9168,326.4378 641.17,315.5254 641.4226,304.6128 641.6747,293.6999 641.9261,282.7867 642.1771,271.8733 642.4274,260.9595 642.6772,250.0454 642.9264,239.1308 643.1751,228.2159 643.4232,217.3005 643.6708,206.3847 643.9177,195.4684 644.1642,184.5515 644.4101,173.6341 644.6554,162.7162 644.9001,151.7977 645.1443,140.8785 645.388,129.9587 645.6311,119.0383 645.8736,108.1171 646.1156,97.1953 646.357,86.2726 646.5979,75.3492" stroke="silver" stroke-opacity="0.5" stroke-width="1" /><polyline fill="none" points="536.5628,728.3807 536.7249,717.4602 536.8867,706.5405 537.0481,695.6214 537.2092,684.703 537.3699,673.7854 537.5303,662.8683 537.6903,651.9519 537.85,641.036 538.0093,630.1208 538.1683,619.206 538.327,608.2918 538.4853,597.3781 538.6433,586.4648 538.8009,575.552 538.9582,564.6395 539.1151,553.7275 539.2717,542.8158 539.428,531.9044 539.5839,520.9933 539.7395,510.0826 539.8947,499.172 540.0496,488.2617 540.2042,477.3516 540.3584,466.4417 540.5123,455.5319 540.6658,444.6222 540.819,433.7127 540.9719,422.8032 541.1244,411.8937 541.2766,400.9843 541.4285,390.0749 541.58,379.1654 541.7312,368.2559 541.882,357.3463 542.0325,346.4366 542.1827,335.5267 542.3326,324.6167 542.4821,313.7065 542.6313,302.7961 542.7801,291.8854 542.9286,280.9745 543.0768,270.0632 543.2247,259.1517 543.3722,248.2398 543.5194,237.3275 543.6662,226.4149 543.8128,215.5018 543.9589,204.5883 544.1048,193.6743 544.2503,182.7598 544.3956,171.8448 544.5404,160.9292 544.685,150.013 544.8292,139.0963 544.9731,128.1789 545.1166,117.2608 545.2599,106.3421 545.4028,95.4227 545.5454,84.5025 545.6876,73.5816" stroke="silver" stroke-opacity="0.5" stroke-width="1" /><polyline fill="none" points="441.9892,727.462 442.039,716.5423 442.0887,705.6234 442.1384,694.7052 442.1879,683.7876 442.2373,672.8708 442.2866,661.9546 442.3358,651.039 442.3849,640.1241 442.4339,629.2097 442.4827,618.2958 442.5315,607.3825 442.5802,596.4696 442.6287,585.5572 442.6772,574.6453 442.7256,563.7338 442.7738,552.8226 442.8219,541.9119 442.87,531.0014 442.9179,520.0913 442.9657,509.1815 443.0135,498.2719 443.0611,487.3626 443.1086,476.4534 443.156,465.5445 443.2033,454.6357 443.2505,443.727 443.2976,432.8184 443.3446,421.9099 443.3915,411.0015 443.4383,400.0931 443.485,389.1846 443.5315,378.2762 443.578,367.3677 443.6244,356.4591 443.6707,345.5504 443.7168,334.6416 443.7629,323.7327 443.8089,312.8235 443.8547,301.9141 443.9005,291.0046 443.9461,280.0947 443.9917,269.1846 444.0371,258.2741 444.0825,247.3633 444.1277,236.4522 444.1729,225.5406 444.2179,214.6287 444.2629,203.7163 444.3077,192.8034 444.3524,181.89 444.3971,170.9761 444.4416,160.0617 444.4861,149.1467 444.5304,138.2311 444.5746,127.3149 444.6188,116.398 444.6628,105.4805 444.7067,94.5622 444.7505,83.6432 444.7943,72.7235" stroke="silver" stroke-opacity="0.5" stroke-width="1" /><polyline fill="none" points="347.4189,727.5165 347.3565,716.5968 347.2942,705.6778 347.2321,694.7595 347.1701,683.8419 347.1082,672.9251 347.0464,662.0088 346.9848,651.0932 346.9234,640.1782 346.862,629.2637 346.8008,618.3498 346.7397,607.4364 346.6788,596.5235 346.618,585.6111 346.5573,574.6991 346.4967,563.7875 346.4363,552.8763 346.376,541.9655 346.3159,531.055 346.2559,520.1448 346.196,509.2349 346.1362,498.3253 346.0766,487.4159 346.0171,476.5067 345.9577,465.5977 345.8985,454.6888 345.8394,443.7801 345.7804,432.8715 345.7215,421.9629 345.6628,411.0544 345.6042,400.1459 345.5458,389.2374 345.4874,378.3289 345.4292,367.4204 345.3712,356.5117 345.3132,345.603 345.2554,334.6941 345.1977,323.7851 345.1402,312.8759 345.0827,301.9665 345.0254,291.0568 344.9682,280.1469 344.9112,269.2367 344.8543,258.3262 344.7975,247.4153 344.7408,236.5041 344.6843,225.5925 344.6279,214.6805 344.5716,203.768 344.5155,192.8551 344.4594,181.9416 344.4035,171.0277 344.3478,160.1132 344.2921,149.1981 344.2366,138.2824 344.1812,127.3661 344.1259,116.4492 344.0708,105.5316 344.0158,94.6132 343.9609,83.6942 343.9061,72.7744" stroke="silver" stroke-opacity="0.5" stroke-width="1" /><polyline fill="none" points="252.8444,728.5443 252.6697,717.6236 252.4954,706.7037 252.3215,695.7845 252.1479,684.866 251.9747,673.9481 251.8019,663.0309 251.6294,652.1144 251.4574,641.1984 251.2856,630.2829 251.1143,619.368 250.9433,608.4537 250.7727,597.5398 250.6025,586.6263 250.4327,575.7133 250.2632,564.8007 250.094,553.8885 249.9253,542.9766 249.7569,532.0651 249.5889,521.1539 249.4212,510.2429 249.254,499.3322 249.087,488.4218 248.9205,477.5115 248.7543,466.6014 248.5885,455.6914 248.423,444.7816 248.2579,433.8719 248.0932,422.9622 247.9288,412.0526 247.7648,401.143 247.6012,390.2333 247.4379,379.3237 247.275,368.414 247.1124,357.5042 246.9502,346.5943 246.7884,335.6842 246.6269,324.774 246.4658,313.8636 246.305,302.953 246.1446,292.0422 245.9846,281.131 245.8249,270.2196 245.6656,259.3079 245.5066,248.3958 245.348,237.4834 245.1897,226.5705 245.0319,215.6572 244.8743,204.7435 244.7171,193.8293 244.5603,182.9146 244.4038,171.9994 244.2477,161.0836 244.0919,150.1672 243.9365,139.2503 243.7815,128.3327 243.6268,117.4144 243.4724,106.4955 243.3184,95.5758 243.1648,84.6554 243.0115,73.7343" stroke="silver" stroke-opacity="0.5" stroke-width="1" /><polyline fill="none" points="158.2584,730.5459 157.9713,719.6235 157.6848,708.7018 157.3989,697.7807 157.1137,686.8604 156.829,675.9407 156.545,665.0217 156.2616,654.1032 155.9788,643.1853 155.6966,632.268 155.4151,621.3512 155.1341,610.4349 154.8537,599.5191 154.574,588.6037 154.2948,577.6887 154.0163,566.7741 153.7384,555.8599 153.461,544.946 153.1843,534.0324 152.9082,523.1192 152.6327,512.2062 152.3577,501.2934 152.0834,490.3808 151.8097,479.4685 151.5366,468.5562 151.2641,457.6442 150.9922,446.7322 150.7208,435.8203 150.4501,424.9084 150.18,413.9966 149.9105,403.0848 149.6415,392.173 149.3732,381.2611 149.1054,370.3492 148.8383,359.4371 148.5717,348.525 148.3057,337.6126 148.0404,326.7001 147.7756,315.7874 147.5114,304.8745 147.2478,293.9613 146.9847,283.0478 146.7223,272.1341 146.4605,261.2199 146.1992,250.3055 145.9386,239.3906 145.6785,228.4754 145.419,217.5596 145.1601,206.6435 144.9017,195.7268 144.644,184.8097 144.3868,173.8919 144.1303,162.9737 143.8743,152.0548 143.6189,141.1353 143.364,130.2152 143.1098,119.2944 142.8561,108.3729 142.603,97.4506 142.3505,86.5277 142.0986,75.6039" stroke="silver" stroke-opacity="0.5" stroke-width="1" /><polyline fill="none" points="716.667,732.8232 716.2886,732.8101 706.8275,732.4892 697.3667,732.1781 687.9061,731.8767 678.4458,731.5851 668.9857,731.3032 659.5257,731.0311 650.066,730.7687 640.6065,730.5161 631.1472,730.2733 621.688,730.0402 612.2291,729.8168 602.7703,729.6032 593.3116,729.3993 583.8532,729.2052 574.3948,729.0208 564.9366,728.8462 555.4786,728.6813 546.0206,728.5262 536.5628,728.3807 527.1051,728.2451 517.6474,728.1191 508.1899,728.0029 498.7325,727.8964 489.2751,727.7997 479.8178,727.7127 470.3606,727.6354 460.9034,727.5679 451.4463,727.5101 441.9892,727.462 432.5321,727.4237 423.0751,727.3951 413.6181,727.3762 404.1611,727.367 394.7041,727.3676 385.2471,727.3779 375.7901,727.398 366.333,727.4278 356.876,727.4673 347.4189,727.5165 337.9618,727.5755 328.5046,727.6442 319.0473,727.7226 309.59,727.8108 300.1327,727.9087 290.6752,728.0163 281.2177,728.1337 271.76,728.2608 262.3023,728.3977 252.8444,728.5443 243.3865,728.7006 233.9284,728.8667 224.4702,729.0425 215.0118,729.228 205.5533,729.4233 196.0947,729.6283 186.6359,729.8431 177.1769,730.0676 167.7177,730.3019 158.2584,730.5459 148.7988,730.7997 139.3391,731.0632 129.8791,731.3365 120.419,731.6195 110.9586,731.9123 101.498,732.2149 92.0372,732.5272 83.333,732.8232" stroke="silver" stroke-opacity="0.5" stroke-width="1" /><polyline fill="none" points="719.6544,645.4459 719.2724,645.433 709.7219,645.1144 700.1717,644.8055 690.6217,644.5064 681.072,644.2169 671.5225,643.9371 661.9732,643.6669 652.4242,643.4065 642.8753,643.1558 633.3267,642.9147 623.7783,642.6833 614.2301,642.4616 604.682,642.2495 595.1341,642.0472 585.5864,641.8545 576.0388,641.6715 566.4914,641.4981 556.9441,641.3344 547.397,641.1804 537.85,641.036 528.3031,640.9014 518.7563,640.7763 509.2096,640.661 499.663,640.5553 490.1165,640.4593 480.57,640.3729 471.0237,640.2962 461.4774,640.2292 451.9311,640.1718 442.3849,640.1241 432.8387,640.086 423.2925,640.0576 413.7464,640.0389 404.2003,640.0298 394.6542,640.0304 385.1081,640.0406 375.5619,640.0605 366.0158,640.0901 356.4696,640.1293 346.9234,640.1782 337.3771,640.2367 327.8308,640.3049 318.2844,640.3828 308.7379,640.4703 299.1914,640.5675 289.6448,640.6743 280.0981,640.7908 270.5513,640.917 261.0044,641.0529 251.4574,641.1984 241.9102,641.3535 232.3629,641.5184 222.8155,641.6929 213.2679,641.8771 203.7202,642.0709 194.1722,642.2745 184.6242,642.4877 175.0759,642.7106 165.5275,642.9431 155.9788,643.1853 146.43,643.4373 136.8809,643.6989 127.3316,643.9701 117.7821,644.2511 108.2323,644.5417 98.6823,644.8421 89.1321,645.1521 80.3456,645.4459" stroke="silver" stroke-opacity="0.5" stroke-width="1" /><polyline fill="none" points="722.5906,558.1027 722.205,558.0899 712.5666,557.7738 702.9285,557.4674 693.2907,557.1705 683.6531,556.8833 674.0158,556.6057 664.3787,556.3377 654.7419,556.0793 645.1053,555.8305 635.4689,555.5914 625.8327,555.3618 616.1967,555.1418 606.5609,554.9314 596.9253,554.7306 587.2899,554.5395 577.6546,554.3579 568.0195,554.1859 558.3846,554.0235 548.7498,553.8707 539.1151,553.7275 529.4806,553.5938 519.8461,553.4698 510.2118,553.3554 500.5776,553.2505 490.9434,553.1552 481.3094,553.0695 471.6754,552.9934 462.0415,552.9269 452.4076,552.87 442.7738,552.8226 433.14,552.7849 423.5063,552.7567 413.8725,552.7381 404.2388,552.7291 394.6051,552.7297 384.9714,552.7398 375.3377,552.7596 365.7039,552.7889 356.0701,552.8278 346.4363,552.8763 336.8025,552.9344 327.1685,553.0021 317.5345,553.0793 307.9005,553.1661 298.2663,553.2626 288.6321,553.3686 278.9977,553.4842 269.3633,553.6094 259.7287,553.7441 250.094,553.8885 240.4592,554.0425 230.8243,554.206 221.1891,554.3792 211.5539,554.5619 201.9184,554.7542 192.2828,554.9562 182.647,555.1677 173.011,555.3888 163.3748,555.6195 153.7384,555.8599 144.1017,556.1098 134.4648,556.3694 124.8277,556.6385 115.1904,556.9173 105.5528,557.2056 95.9149,557.5036 86.2768,557.8112 77.4094,558.1027" stroke="silver" stroke-opacity="0.5" stroke-width="1" /><polyline fill="none" points="725.4761,470.7803 725.0871,470.7676 715.3623,470.4541 705.6378,470.1503 695.9136,469.8559 686.1897,469.5711 676.4661,469.2958 666.7427,469.0301 657.0196,468.7738 647.2967,468.5271 637.574,468.29 627.8516,468.0623 618.1294,467.8442 608.4074,467.6356 598.6856,467.4365 588.964,467.2469 579.2425,467.0668 569.5213,466.8963 559.8002,466.7352 550.0792,466.5837 540.3584,466.4417 530.6377,466.3092 520.9171,466.1862 511.1967,466.0727 501.4763,465.9687 491.7561,465.8742 482.0359,465.7893 472.3159,465.7138 462.5959,465.6479 452.8759,465.5914 443.156,465.5445 433.4361,465.507 423.7163,465.4791 413.9965,465.4606 404.2767,465.4517 394.5569,465.4523 384.8371,465.4623 375.1173,465.4819 365.3975,465.511 355.6776,465.5496 345.9577,465.5977 336.2377,465.6553 326.5177,465.7224 316.7976,465.799 307.0775,465.8851 297.3572,465.9807 287.6369,466.0858 277.9164,466.2004 268.1958,466.3246 258.4751,466.4582 248.7543,466.6014 239.0333,466.754 229.3122,466.9162 219.5909,467.0879 209.8694,467.2691 200.1478,467.4598 190.426,467.6601 180.704,467.8698 170.9817,468.0891 161.2593,468.3179 151.5366,468.5562 141.8137,468.8041 132.0905,469.0614 122.3671,469.3283 112.6434,469.6048 102.9195,469.8907 93.1953,470.1862 83.4708,470.4912 74.5239,470.7803" stroke="silver" stroke-opacity="0.5" stroke-width="1" /><polyline fill="none" points="728.3113,383.4654 727.9189,383.4528 718.1092,383.1421 708.2999,382.841 698.4909,382.5492 688.6821,382.267 678.8737,381.9941 669.0655,381.7307 659.2576,381.4768 649.4499,381.2323 639.6425,380.9972 629.8354,380.7716 620.0284,380.5554 610.2217,380.3487 600.4152,380.1513 590.6089,379.9634 580.8028,379.785 570.9968,379.6159 561.1911,379.4563 551.3854,379.3062 541.58,379.1654 531.7747,379.0341 521.9695,378.9122 512.1644,378.7997 502.3595,378.6967 492.5546,378.603 482.7499,378.5188 472.9452,378.444 463.1406,378.3787 453.336,378.3227 443.5315,378.2762 433.7271,378.2391 423.9227,378.2114 414.1183,378.1931 404.3139,378.1843 394.5096,378.1848 384.7052,378.1948 374.9008,378.2142 365.0964,378.243 355.2919,378.2813 345.4874,378.3289 335.6829,378.386 325.8783,378.4525 316.0736,378.5284 306.2688,378.6138 296.4639,378.7085 286.659,378.8127 276.8539,378.9263 267.0487,379.0494 257.2434,379.1818 247.4379,379.3237 237.6323,379.475 227.8265,379.6357 218.0205,379.8059 208.2144,379.9855 198.408,380.1745 188.6015,380.373 178.7948,380.5809 168.9878,380.7982 159.1806,381.0249 149.3732,381.2611 139.5655,381.5068 129.7575,381.7619 119.9493,382.0264 110.1408,382.3003 100.3321,382.5837 90.523,382.8766 80.7136,383.1789 71.6887,383.4654" stroke="silver" stroke-opacity="0.5" stroke-width="1" /><polyline fill="none" points="731.0968,296.1448 730.701,296.1323 720.808,295.8246 710.9152,295.5262 701.0228,295.2373 691.1308,294.9576 681.239,294.6874 671.3475,294.4265 661.4563,294.1749 651.5653,293.9327 641.6747,293.6999 631.7842,293.4764 621.8941,293.2622 612.0041,293.0574 602.1144,292.862 592.2249,292.6759 582.3356,292.4991 572.4464,292.3317 562.5575,292.1736 552.6687,292.0248 542.7801,291.8854 532.8917,291.7553 523.0033,291.6346 513.1151,291.5231 503.227,291.4211 493.3391,291.3283 483.4512,291.2449 473.5634,291.1708 463.6757,291.1061 453.7881,291.0506 443.9005,291.0046 434.0129,290.9678 424.1254,290.9404 414.2379,290.9223 404.3505,290.9135 394.463,290.9141 384.5756,290.9239 374.6881,290.9432 364.8006,290.9717 354.913,291.0096 345.0254,291.0568 335.1378,291.1133 325.2501,291.1792 315.3623,291.2544 305.4744,291.339 295.5864,291.4328 285.6983,291.536 275.8101,291.6486 265.9217,291.7704 256.0333,291.9016 246.1446,292.0422 236.2558,292.192 226.3669,292.3513 216.4777,292.5198 206.5884,292.6977 196.6989,292.8849 186.8091,293.0815 176.9191,293.2875 167.0289,293.5027 157.1385,293.7273 147.2478,293.9613 137.3568,294.2046 127.4656,294.4573 117.574,294.7193 107.6822,294.9907 97.7901,295.2714 87.8976,295.5615 78.0049,295.861 68.9032,296.1448" stroke="silver" stroke-opacity="0.5" stroke-width="1" /><polyline fill="none" points="733.8328,208.8051 733.4338,208.7928 723.4588,208.4881 713.4842,208.1928 703.5099,207.9067 693.536,207.6299 683.5623,207.3623 673.589,207.104 663.616,206.855 653.6432,206.6152 643.6708,206.3847 633.6986,206.1634 623.7266,205.9514 613.7549,205.7486 603.7835,205.5551 593.8122,205.3709 583.8412,205.1959 573.8703,205.0301 563.8997,204.8736 553.9292,204.7263 543.9589,204.5883 533.9888,204.4595 524.0188,204.34 514.049,204.2297 504.0792,204.1286 494.1096,204.0368 484.1401,203.9542 474.1707,203.8809 464.2013,203.8168 454.2321,203.7619 444.2629,203.7163 434.2937,203.6799 424.3246,203.6527 414.3555,203.6348 404.3864,203.6261 394.4173,203.6267 384.4482,203.6365 374.4791,203.6555 364.51,203.6838 354.5408,203.7213 344.5716,203.768 334.6023,203.824 324.633,203.8892 314.6636,203.9636 304.694,204.0473 294.7244,204.1402 284.7547,204.2424 274.7848,204.3538 264.8148,204.4745 254.8446,204.6044 244.8743,204.7435 234.9038,204.8919 224.9332,205.0495 214.9623,205.2164 204.9913,205.3925 195.02,205.5779 185.0485,205.7725 175.0768,205.9764 165.1048,206.1895 155.1326,206.4118 145.1601,206.6435 135.1873,206.8844 125.2142,207.1345 115.2409,207.3939 105.2672,207.6626 95.2932,207.9405 85.3189,208.2277 75.3442,208.5242 66.1672,208.8051" stroke="silver" stroke-opacity="0.5" stroke-width="1" /><polyline fill="none" points="736.5199,121.4333 736.1176,121.421 726.0622,121.1196 716.0071,120.8273 705.9524,120.5443 695.8981,120.2704 685.844,120.0056 675.7903,119.75 665.7369,119.5036 655.6839,119.2664 645.6311,119.0383 635.5786,118.8194 625.5263,118.6096 615.4743,118.409 605.4226,118.2175 595.3711,118.0352 585.3198,117.862 575.2687,117.698 565.2178,117.5431 555.1672,117.3974 545.1166,117.2608 535.0663,117.1334 525.0161,117.0151 514.9661,116.906 504.9161,116.806 494.8664,116.7151 484.8167,116.6334 474.7671,116.5609 464.7176,116.4974 454.6681,116.4432 444.6188,116.398 434.5694,116.362 424.5202,116.3351 414.4709,116.3174 404.4217,116.3088 394.3724,116.3094 384.3232,116.319 374.2739,116.3379 364.2246,116.3658 354.1753,116.4029 344.1259,116.4492 334.0765,116.5046 324.027,116.5691 313.9774,116.6428 303.9277,116.7256 293.8779,116.8175 283.8279,116.9186 273.7779,117.0288 263.7277,117.1482 253.6773,117.2767 243.6268,117.4144 233.5761,117.5612 223.5252,117.7172 213.4741,117.8823 203.4228,118.0566 193.3712,118.24 183.3194,118.4325 173.2674,118.6343 163.2152,118.8451 153.1626,119.0652 143.1098,119.2944 133.0567,119.5327 123.0032,119.7802 112.9495,120.0369 102.8954,120.3027 92.841,120.5777 82.7863,120.8619 72.7312,121.1553 63.4801,121.4333" stroke="silver" stroke-opacity="0.5" stroke-width="1" /><circle cx="717.8215" cy="469.0466" fill="black" r="0.738" stroke="none" /><circle cx="711.7022" cy="392.2953" fill="black" r="0.738" stroke="none" /><circle cx="710.4665" cy="286.5982" fill="black" r="0.738" stroke="none" /><circle cx="697.9947" cy="554.7794" fill="black" r="0.738" stroke="none" /><circle cx="700.8541" cy="416.6984" fill="black" r="0.738" stroke="none" /><circle cx="692.6005" cy="518.4326" fill="black" r="0.738" stroke="none" /><circle cx="682.8543" cy="607.4664" fill="black" r="0.738" stroke="none" /><circle cx="689.0141" cy="262.3917" fill="black" r="0.738" stroke="none" /><circle cx="682.6702" cy="372.4879" fill="black" r="0.738" stroke="none" /><circle cx="664.009" cy="679.9164" fill="black" r="0.738" stroke="none" /><circle cx="677.1882" cy="134.56" fill="black" r="0.738" stroke="none" /><circle cx="675.3998" cy="96.5703" fill="black" r="0.738" stroke="none" /><circle cx="662.2974" cy="469.3485" fill="black" r="0.738" stroke="none" /><circle cx="667.2587" cy="214.4602" fill="black" r="0.738" stroke="none" /><circle cx="653.8506" cy="714.3451" fill="black" r="0.738" stroke="none" /><circle cx="662.4658" cy="171.9578" fill="black" r="0.738" stroke="none" /><circle cx="658.9949" cy="232.869" fill="black" r="0.738" stroke="none" /><circle cx="634.6832" cy="619.004" fill="black" r="0.738" stroke="none" /><circle cx="637.8718" cy="432.8359" fill="black" r="0.738" stroke="none" /><circle cx="637.2787" cy="367.841" fill="black" r="0.738" stroke="none" /><circle cx="633.7399" cy="412.3017" fill="black" r="0.738" stroke="none" /><circle cx="629.1915" cy="556.8384" fill="black" r="0.738" stroke="none" /><circle cx="628.0355" cy="415.4028" fill="black" r="0.738" stroke="none" /><circle cx="628.8347" cy="298.0407" fill="black" r="1.17" stroke="none" /><circle cx="617.071" cy="498.3008" fill="black" r="0.936" stroke="none" /><circle cx="602.7889" cy="694.2032" fill="black" r="0.738" stroke="none" /><circle cx="609.8222" cy="206.8942" fill="black" r="0.738" stroke="none" /><circle cx="598.9013" cy="525.95" fill="black" r="0.738" stroke="none" /><circle cx="597.5562" cy="353.3763" fill="black" r="0.738" stroke="none" /><circle cx="588.2338" cy="623.9977" fill="black" r="0.738" stroke="none" /><circle cx="587.2004" cy="614.2807" fill="black" r="0.738" stroke="none" /><circle cx="594.4362" cy="102.5513" fill="black" r="0.738" stroke="none" /><circle cx="586.6499" cy="445.3744" fill="black" r="0.738" stroke="none" /><circle cx="580.9982" cy="704.9388" fill="black" r="0.738" stroke="none" /><circle cx="574.376" cy="388.491" fill="black" r="0.738" stroke="none" /><circle cx="568.6676" cy="401.7522" fill="black" r="0.738" stroke="none" /><circle cx="569.7417" cy="193.6103" fill="black" r="0.738" stroke="none" /><circle cx="565.5824" cy="432.2572" fill="black" r="0.738" stroke="none" /><circle cx="563.6463" cy="392.6779" fill="black" r="0.738" stroke="none" /><circle cx="551.601" cy="534.1816" fill="black" r="0.738" stroke="none" /><circle cx="542.8369" cy="467.1754" fill="black" r="0.738" stroke="none" /><circle cx="538.5611" cy="644.6276" fill="black" r="0.738" stroke="none" /><circle cx="537.4325" cy="184.5924" fill="black" r="0.738" stroke="none" /><circle cx="538.2133" cy="96.9037" fill="black" r="0.738" stroke="none" /><circle cx="515.773" cy="702.5827" fill="black" r="0.738" stroke="none" /><circle cx="519.7713" cy="241.6613" fill="black" r="0.738" stroke="none" /><circle cx="506.0311" cy="624.3815" fill="black" r="0.738" stroke="none" /><circle cx="506.7252" cy="554.975" fill="black" r="0.738" stroke="none" /><circle cx="501.2202" cy="475.8292" fill="black" r="0.738" stroke="none" /><circle cx="496.4727" cy="531.9083" fill="black" r="0.738" stroke="none" /><circle cx="496.388" cy="295.2839" fill="black" r="0.738" stroke="none" /><circle cx="494.43" cy="353.833" fill="black" r="0.738" stroke="none" /><circle cx="490.3832" cy="428.4189" fill="black" r="0.738" stroke="none" /><circle cx="487.601" cy="487.2208" fill="black" r="0.738" stroke="none" /><circle cx="486.2909" cy="102.8437" fill="black" r="0.738" stroke="none" /><circle cx="476.9116" cy="222.0594" fill="black" r="0.738" stroke="none" /><circle cx="473.7427" cy="584.9603" fill="black" r="0.738" stroke="none" /><circle cx="469.7113" cy="127.7947" fill="black" r="0.738" stroke="none" /><circle cx="467.1843" cy="160.0035" fill="black" r="0.738" stroke="none" /><circle cx="455.5061" cy="250.1229" fill="black" r="0.738" stroke="none" /><circle cx="454.2731" cy="408.4359" fill="black" r="0.738" stroke="none" /><circle cx="445.4654" cy="650.617" fill="black" r="0.738" stroke="none" /><circle cx="445.3383" cy="97.7093" fill="black" r="0.738" stroke="none" /><circle cx="442.5155" cy="281.398" fill="black" r="0.738" stroke="none" /><circle cx="440.3045" cy="217.1449" fill="black" r="0.738" stroke="none" /><circle cx="438.7189" cy="323.0144" fill="black" r="0.738" stroke="none" /><circle cx="437.7896" cy="252.4018" fill="black" r="0.738" stroke="none" /><circle cx="429.8346" cy="421.5118" fill="black" r="0.738" stroke="none" /><circle cx="426.4721" cy="650.0205" fill="black" r="0.738" stroke="none" /><circle cx="426.8601" cy="79.4801" fill="black" r="0.738" stroke="none" /><circle cx="426.5118" cy="189.8639" fill="black" r="0.738" stroke="none" /><circle cx="420.6128" cy="712.0145" fill="black" r="0.738" stroke="none" /><circle cx="418.4828" cy="215.1645" fill="black" r="0.738" stroke="none" /><circle cx="418.2292" cy="315.4528" fill="black" r="0.738" stroke="none" /><circle cx="418.149" cy="224.0681" fill="black" r="0.738" stroke="none" /><circle cx="412.5393" cy="628.8609" fill="black" r="0.738" stroke="none" /><circle cx="411.5283" cy="514.6799" fill="black" r="0.738" stroke="none" /><circle cx="411.055" cy="74.9981" fill="black" r="1.17" stroke="none" /><circle cx="409.4156" cy="105.1325" fill="black" r="0.738" stroke="none" /><circle cx="408.961" cy="168.9683" fill="black" r="0.738" stroke="none" /><circle cx="404.3279" cy="345.0225" fill="black" r="0.738" stroke="none" /><circle cx="400.0" cy="434.4704" fill="black" r="0.738" stroke="none" /><circle cx="399.9224" cy="487.356" fill="black" r="0.738" stroke="none" /><circle cx="395.8178" cy="680.4616" fill="black" r="0.738" stroke="none" /><circle cx="387.2282" cy="626.5911" fill="black" r="0.738" stroke="none" /><circle cx="385.3732" cy="459.8763" fill="black" r="0.738" stroke="none" /><circle cx="384.0116" cy="623.8894" fill="black" r="0.738" stroke="none" /><circle cx="366.6549" cy="422.7445" fill="black" r="0.738" stroke="none" /><circle cx="365.532" cy="367.8566" fill="black" r="0.738" stroke="none" /><circle cx="363.9607" cy="109.3795" fill="black" r="0.936" stroke="none" /><circle cx="358.442" cy="201.9594" fill="black" r="0.738" stroke="none" /><circle cx="358.8179" cy="415.9665" fill="black" r="0.936" stroke="none" /><circle cx="355.8561" cy="154.472" fill="black" r="0.738" stroke="none" /><circle cx="356.8962" cy="547.9359" fill="black" r="0.738" stroke="none" /><circle cx="354.9516" cy="510.8491" fill="black" r="0.738" stroke="none" /><circle cx="350.7524" cy="460.2491" fill="black" r="0.738" stroke="none" /><circle cx="349.5528" cy="469.157" fill="black" r="0.738" stroke="none" /><circle cx="348.0515" cy="566.5724" fill="black" r="0.738" stroke="none" /><circle cx="344.9674" cy="75.2153" fill="black" r="0.738" stroke="none" /><circle cx="344.8656" cy="245.2327" fill="black" r="0.738" stroke="none" /><circle cx="346.7239" cy="645.4186" fill="black" r="0.738" stroke="none" /><circle cx="343.5643" cy="715.833" fill="black" r="0.738" stroke="none" /><circle cx="336.2749" cy="397.7567" fill="black" r="0.738" stroke="none" /><circle cx="331.3093" cy="136.8711" fill="black" r="0.738" stroke="none" /><circle cx="331.7903" cy="394.4695" fill="black" r="0.738" stroke="none" /><circle cx="330.6941" cy="240.6891" fill="black" r="0.738" stroke="none" /><circle cx="323.8419" cy="304.1945" fill="black" r="0.738" stroke="none" /><circle cx="324.9791" cy="518.8883" fill="black" r="0.738" stroke="none" /><circle cx="314.1594" cy="346.6009" fill="black" r="0.738" stroke="none" /><circle cx="300.9776" cy="207.5733" fill="black" r="0.738" stroke="none" /><circle cx="301.1138" cy="582.8292" fill="black" r="0.738" stroke="none" /><circle cx="300.3478" cy="698.7261" fill="black" r="0.936" stroke="none" /><circle cx="294.3635" cy="248.2338" fill="black" r="0.738" stroke="none" /><circle cx="295.4097" cy="443.3946" fill="black" r="0.738" stroke="none" /><circle cx="295.7119" cy="711.7068" fill="black" r="0.738" stroke="none" /><circle cx="287.3634" cy="194.3479" fill="black" r="0.936" stroke="none" /><circle cx="281.8506" cy="272.9846" fill="black" r="0.738" stroke="none" /><circle cx="277.6021" cy="302.8012" fill="black" r="0.738" stroke="none" /><circle cx="261.5399" cy="666.9876" fill="black" r="1.476" stroke="none" /><circle cx="252.116" cy="585.1183" fill="black" r="0.738" stroke="none" /><circle cx="244.0079" cy="81.4978" fill="black" r="0.738" stroke="none" /><circle cx="244.2915" cy="414.5523" fill="black" r="0.738" stroke="none" /><circle cx="245.637" cy="602.6867" fill="black" r="0.738" stroke="none" /><circle cx="245.3064" cy="586.9723" fill="black" r="0.738" stroke="none" /><circle cx="237.1351" cy="140.6595" fill="black" r="0.738" stroke="none" /><circle cx="242.6398" cy="560.1193" fill="black" r="0.738" stroke="none" /><circle cx="232.9483" cy="238.0199" fill="black" r="0.738" stroke="none" /><circle cx="231.5923" cy="237.7793" fill="black" r="0.738" stroke="none" /><circle cx="233.5445" cy="383.8187" fill="black" r="0.738" stroke="none" /><circle cx="233.5971" cy="585.247" fill="black" r="0.738" stroke="none" /><circle cx="223.2838" cy="152.6676" fill="black" r="0.738" stroke="none" /><circle cx="214.1545" cy="167.408" fill="black" r="0.738" stroke="none" /><circle cx="216.0459" cy="452.0476" fill="black" r="0.738" stroke="none" /><circle cx="211.5513" cy="689.3569" fill="black" r="0.738" stroke="none" /><circle cx="207.1547" cy="538.8409" fill="black" r="0.738" stroke="none" /><circle cx="204.9093" cy="633.0474" fill="black" r="0.738" stroke="none" /><circle cx="196.3314" cy="306.5153" fill="black" r="0.738" stroke="none" /><circle cx="188.877" cy="254.0" fill="black" r="0.738" stroke="none" /><circle cx="192.7492" cy="455.9097" fill="black" r="0.738" stroke="none" /><circle cx="188.6964" cy="517.5639" fill="black" r="0.738" stroke="none" /><circle cx="181.7475" cy="266.5472" fill="black" r="0.738" stroke="none" /><circle cx="177.3275" cy="406.7247" fill="black" r="0.738" stroke="none" /><circle cx="175.082" cy="358.0429" fill="black" r="0.738" stroke="none" /><circle cx="168.9885" cy="208.639" fill="black" r="0.738" stroke="none" /><circle cx="172.992" cy="504.7262" fill="black" r="0.738" stroke="none" /><circle cx="165.2967" cy="189.3227" fill="black" r="0.738" stroke="none" /><circle cx="165.2463" cy="238.074" fill="black" r="0.738" stroke="none" /><circle cx="161.5879" cy="118.0061" fill="black" r="0.738" stroke="none" /><circle cx="167.8757" cy="517.8607" fill="black" r="0.738" stroke="none" /><circle cx="168.6454" cy="591.9233" fill="black" r="0.738" stroke="none" /><circle cx="162.661" cy="405.6605" fill="black" r="0.738" stroke="none" /><circle cx="153.4233" cy="76.3105" fill="black" r="0.738" stroke="none" /><circle cx="154.2314" cy="236.6624" fill="black" r="0.936" stroke="none" /><circle cx="161.4179" cy="643.6579" fill="black" r="0.738" stroke="none" /><circle cx="156.5041" cy="477.5176" fill="black" r="0.738" stroke="none" /><circle cx="159.6937" cy="608.7459" fill="black" r="0.738" stroke="none" /><circle cx="158.5045" cy="678.8693" fill="black" r="0.738" stroke="none" /><circle cx="156.9626" cy="730.2303" fill="black" r="0.738" stroke="none" /><circle cx="138.4988" cy="172.1093" fill="black" r="0.738" stroke="none" /><circle cx="140.838" cy="575.333" fill="black" r="0.738" stroke="none" /><circle cx="129.1072" cy="125.836" fill="black" r="0.738" stroke="none" /><circle cx="130.0916" cy="251.5766" fill="black" r="0.738" stroke="none" /><circle cx="132.9222" cy="488.3469" fill="black" r="0.738" stroke="none" /><circle cx="128.6679" cy="334.4401" fill="black" r="0.738" stroke="none" /><circle cx="122.5643" cy="350.9398" fill="black" r="0.738" stroke="none" /><circle cx="119.1817" cy="256.928" fill="black" r="0.738" stroke="none" /><circle cx="109.835" cy="237.6912" fill="black" r="0.738" stroke="none" /><circle cx="112.5504" cy="409.1432" fill="black" r="0.738" stroke="none" /><circle cx="110.4572" cy="514.4092" fill="black" r="0.738" stroke="none" /><circle cx="105.4945" cy="438.3563" fill="black" r="0.738" stroke="none" /><circle cx="99.676" cy="410.8279" fill="black" r="0.738" stroke="none" /><circle cx="93.8418" cy="210.2546" fill="black" r="0.738" stroke="none" /><circle cx="77.7926" cy="109.7235" fill="black" r="0.738" stroke="none" /><circle cx="90.727" cy="642.4762" fill="black" r="0.738" stroke="none" /><circle cx="75.4601" cy="277.5832" fill="black" r="0.738" stroke="none" /><circle cx="88.0665" cy="722.6867" fill="black" r="0.738" stroke="none" /><circle cx="69.9279" cy="206.4158" fill="black" r="0.738" stroke="none" /><circle cx="13.77" cy="786.23" fill="black" r="4.59" stroke="none" /><circle cx="13.77" cy="786.23" fill="black" r="4.59" stroke="none" /><text fill="black" font-family="monospace" font-size="12" x="10.77" y="775.64">1</text><circle cx="37.77" cy="786.23" fill="black" r="3.654" stroke="none" /><circle cx="37.77" cy="786.23" fill="black" r="3.654" stroke="none" /><text fill="black" font-family="monospace" font-size="12" x="34.769999999999996" y="775.64">2</text><circle cx="61.77" cy="786.23" fill="black" r="2.916" stroke="none" /><circle cx="61.77" cy="786.23" fill="black" r="2.916" stroke="none" /><text fill="black" font-family="monospace" font-size="12" x="58.769999999999996" y="775.64">3</text><circle cx="85.77" cy="786.23" fill="black" r="2.322" stroke="none" /><circle cx="85.77" cy="786.23" fill="black" r="2.322" stroke="none" /><text fill="black" font-family="monospace" font-size="12" x="82.77" y="775.64">4</text><circle cx="109.77" cy="786.23" fill="black" r="1.854" stroke="none" /><circle cx="109.77" cy="786.23" fill="black" r="1.854" stroke="none" /><text fill="black" font-family="monospace" font-size="12" x="106.77" y="775.64">5</text><circle cx="133.77" cy="786.23" fill="black" r="1.476" stroke="none" /><circle cx="133.77" cy="786.23" fill="black" r="1.476" stroke="none" /><text fill="black" font-family="monospace" font-size="12" x="130.77" y="775.64">6</text><circle cx="157.77" cy="786.23" fill="black" r="1.17" stroke="none" /><circle cx="157.77" cy="786.23" fill="black" r="1.17" stroke="none" /><text fill="black" font-family="monospace" font-size="12" x="154.77" y="775.64">7</text><circle cx="181.77" cy="786.23" fill="black" r="0.936" stroke="none" /><circle cx="181.77" cy="786.23" fill="black" r="0.936" stroke="none" /><text fill="black" font-family="monospace" font-size="12" x="178.77" y="775.64">8</text><circle cx="205.77" cy="786.23" fill="black" r="0.738" stroke="none" /><circle cx="205.77" cy="786.23" fill="black" r="0.738" stroke="none" /><text fill="black" font-family="monospace" font-size="12" x="202.77" y="775.64">9</text><text fill="gray" fill-opacity="0.5" font-family="monospace" font-size="12" x="646.5978951312247" y="75.34924273947456">01h45m</text><text fill="gray" fill-opacity="0.5" font-family="monospace" font-size="12" x="545.6876192596756" y="73.58156689039993">01h50m</text><text fill="gray" fill-opacity="0.5" font-family="monospace" font-size="12" x="444.79427766013464" y="72.72348199365706">01h55m</text><text fill="gray" fill-opacity="0.5" font-family="monospace" font-size="12" x="343.906143192119" y="72.77437999779374">02h00m</text><text fill="gray" fill-opacity="0.5" font-family="monospace" font-size="12" x="243.0114880963645" y="73.73429696676487">02h05m</text><text fill="gray" fill-opacity="0.5" font-family="monospace" font-size="12" x="142.09858538872334" y="75.60391312651689">02h10m</text><text fill="gray" fill-opacity="0.5" font-family="monospace" font-size="12" x="83.33297901746232" y="732.82315467983">-30°</text><text fill="gray" fill-opacity="0.5" font-family="monospace" font-size="12" x="80.34560916169062" y="645.4458996653692">-29°</text><text fill="gray" fill-opacity="0.5" font-family="monospace" font-size="12" x="77.40943118114228" y="558.1027018944101">-28°</text><text fill="gray" fill-opacity="0.5" font-family="monospace" font-size="12" x="74.52394885402202" y="470.7802873175766">-27°</text><text fill="gray" fill-opacity="0.5" font-family="monospace" font-size="12" x="71.68869682781525" y="383.4653944884191">-26°</text><text fill="gray" fill-opacity="0.5" font-family="monospace" font-size="12" x="68.9032403121825" y="296.1447665185394">-25°</text><text fill="gray" fill-opacity="0.5" font-family="monospace" font-size="12" x="66.1671748113547" y="208.80514303858516">-24°</text><text fill="gray" fill-opacity="0.5" font-family="monospace" font-size="12" x="63.480125895679635" y="121.43325215475375">-23°</text><text fill="black" font-family="monospace" font-size="12" x="12" y="48">&gt;&gt; No.229 01h40m 02h14m -30.0°-22.5°</text><a target="_self" xlink:href="hip006.svg"><text fill="black" font-family="monospace" font-size="12" x="12" y="36">&gt; No.6 00h00m 03h00m -52.5°-22.5°</text></a><a target="_self" xlink:href="hip001.svg"><text fill="black" font-family="monospace" font-size="12" x="12" y="24">No.1 00h 24h -90.0°+0.0°</text></a><polyline fill="none" points="737.8451,77.7311 737.4413,77.7189 727.3462,77.4191 717.2514,77.1285 707.1571,76.8469 697.063,76.5745 686.9694,76.3113 676.876,76.0571 666.783,75.812 656.6903,75.5761 646.5979,75.3492 636.5058,75.1315 626.4139,74.9229 616.3223,74.7234 606.231,74.533 596.1399,74.3516 586.049,74.1794 575.9584,74.0163 565.8679,73.8623 555.7777,73.7174 545.6876,73.5816 535.5977,73.4548 525.508,73.3372 515.4184,73.2287 505.3289,73.1292 495.2396,73.0389 485.1503,72.9576 475.0612,72.8854 464.9722,72.8224 454.8832,72.7684 444.7943,72.7235 434.7054,72.6877 424.6166,72.661 414.5278,72.6433 404.4391,72.6348 394.3503,72.6353 384.2615,72.645 374.1727,72.6637 364.0839,72.6915 353.9951,72.7284 343.9061,72.7744 333.8172,72.8295 323.7281,72.8936 313.639,72.9669 303.5497,73.0492 293.4604,73.1407 283.3709,73.2412 273.2813,73.3508 263.1915,73.4696 253.1016,73.5974 243.0115,73.7343 232.9212,73.8803 222.8307,74.0354 212.7401,74.1996 202.6492,74.3729 192.5581,74.5553 182.4667,74.7468 172.3751,74.9474 162.2832,75.1572 152.191,75.376 142.0986,75.6039 132.0058,75.841 121.9128,76.0871 111.8194,76.3424 101.7257,76.6068 91.6316,76.8802 81.5372,77.1629 71.4424,77.4546 62.1549,77.7311" stroke="black" stroke-opacity="0.5" stroke-width="1" /><polyline fill="none" points="716.667,732.8232 717.0433,721.8987 717.4187,710.9749 717.7933,700.0518 718.1671,689.1294 718.5402,678.2077 718.9124,667.2865 719.2838,656.3659 719.6544,645.4459 720.0242,634.5264 720.3932,623.6074 720.7614,612.6889 721.1288,601.7709 721.4955,590.8533 721.8613,579.936 722.2263,569.0192 722.5906,558.1027 722.954,547.1865 723.3167,536.2707 723.6785,525.3551 724.0396,514.4397 724.3999,503.5246 724.7594,492.6097 725.1181,481.6949 725.4761,470.7803 725.8332,459.8658 726.1896,448.9514 726.5451,438.037 726.8999,427.1227 727.2539,416.2084 727.6072,405.2941 727.9596,394.3798 728.3113,383.4654 728.6622,372.5509 729.0123,361.6363 729.3617,350.7215 729.7102,339.8066 730.058,328.8915 730.405,317.9762 730.7513,307.0606 731.0968,296.1448 731.4415,285.2286 731.7854,274.3122 732.1286,263.3953 732.4709,252.4782 732.8126,241.5606 733.1534,230.6426 733.4935,219.7241 733.8328,208.8051 734.1714,197.8857 734.5092,186.9657 734.8462,176.0452 735.1825,165.1241 735.518,154.2023 735.8527,143.28 736.1867,132.357 736.5199,121.4333 736.8523,110.5088 737.184,99.5837 737.515,88.6578 737.8451,77.7311" stroke="black" stroke-opacity="0.5" stroke-width="1" /><polyline fill="none" points="716.667,732.8232 716.2886,732.8101 706.8275,732.4892 697.3667,732.1781 687.9061,731.8767 678.4458,731.5851 668.9857,731.3032 659.5257,731.0311 650.066,730.7687 640.6065,730.5161 631.1472,730.2733 621.688,730.0402 612.2291,729.8168 602.7703,729.6032 593.3116,729.3993 583.8532,729.2052 574.3948,729.0208 564.9366,728.8462 555.4786,728.6813 546.0206,728.5262 536.5628,728.3807 527.1051,728.2451 517.6474,728.1191 508.1899,728.0029 498.7325,727.8964 489.2751,727.7997 479.8178,727.7127 470.3606,727.6354 460.9034,727.5679 451.4463,727.5101 441.9892,727.462 432.5321,727.4237 423.0751,727.3951 413.6181,727.3762 404.1611,727.367 394.7041,727.3676 385.2471,727.3779 375.7901,727.398 366.333,727.4278 356.876,727.4673 347.4189,727.5165 337.9618,727.5755 328.5046,727.6442 319.0473,727.7226 309.59,727.8108 300.1327,727.9087 290.6752,728.0163 281.2177,728.1337 271.76,728.2608 262.3023,728.3977 252.8444,728.5443 243.3865,728.7006 233.9284,728.8667 224.4702,729.0425 215.0118,729.228 205.5533,729.4233 196.0947,729.6283 186.6359,729.8431 177.1769,730.0676 167.7177,730.3019 158.2584,730.5459 148.7988,730.7997 139.3391,731.0632 129.8791,731.3365 120.419,731.6195 110.9586,731.9123 101.498,732.2149 92.0372,732.5272 83.333,732.8232" stroke="black" stroke-opacity="0.5" stroke-width="1" /><polyline fill="none" points="83.333,732.8232 82.9567,721.8987 82.5813,710.9749 82.2067,700.0518 81.8329,689.1294 81.4598,678.2077 81.0876,667.2865 80.7162,656.3659 80.3456,645.4459 79.9758,634.5264 79.6068,623.6074 79.2386,612.6889 78.8712,601.7709 78.5045,590.8533 78.1387,579.936 77.7737,569.0192 77.4094,558.1027 77.046,547.1865 76.6833,536.2707 76.3215,525.3551 75.9604,514.4397 75.6001,503.5246 75.2406,492.6097 74.8819,481.6949 74.5239,470.7803 74.1668,459.8658 73.8104,448.9514 73.4549,438.037 73.1001,427.1227 72.7461,416.2084 72.3928,405.2941 72.0404,394.3798 71.6887,383.4654 71.3378,372.5509 70.9877,361.6363 70.6383,350.7215 70.2898,339.8066 69.942,328.8915 69.595,317.9762 69.2487,307.0606 68.9032,296.1448 68.5585,285.2286 68.2146,274.3122 67.8714,263.3953 67.5291,252.4782 67.1874,241.5606 66.8466,230.6426 66.5065,219.7241 66.1672,208.8051 65.8286,197.8857 65.4908,186.9657 65.1538,176.0452 64.8175,165.1241 64.482,154.2023 64.1473,143.28 63.8133,132.357 63.4801,121.4333 63.1477,110.5088 62.816,99.5837 62.485,88.6578 62.1549,77.7311" stroke="black" stroke-opacity="0.5" stroke-width="1" /></svg>