<?xml version="1.0" encoding="utf-8" ?>
<svg baseProfile="tiny" height="800" version="1.2" width="800" xmlns="http://www.w3.org/2000/svg" xmlns:ev="http://www.w3.org/2001/xml-events" xmlns:xlink="http://www.w3.org/1999/xlink"><defs /><rect fill="none" height="800" stroke="black" stroke-width="2" width="800" x="0" y="0" /><polyline fill="none" points="642.5742,731.6853 642.9629,720.7659 643.351,709.8472 643.7384,698.9292 644.1252,688.0118 644.5113,677.0951 644.8968,666.1791 645.2817,655.2636 645.666,644.3486 646.0497,633.4342 646.4327,622.5204 646.8151,611.607 647.1969,600.6941 647.5781,589.7816 647.9586,578.8695 648.3385,567.9578 648.7178,557.0465 649.0965,546.1355 649.4746,535.2248 649.8521,524.3143 650.2289,513.4042 650.6051,502.4943 650.9807,491.5845 651.3558,480.675 651.7302,469.7656 652.1039,458.8563 652.4771,447.9471 652.8497,437.038 653.2217,426.1289 653.593,415.2199 653.9638,404.3108 654.3339,393.4018 654.7035,382.4926 655.0724,371.5834 655.4408,360.6741 655.8085,349.7646 656.1756,338.855 656.5422,327.9452 656.9081,317.0352 657.2735,306.1249 657.6382,295.2144 658.0024,284.3036 658.3659,273.3925 658.7289,262.481 659.0913,251.5692 659.4531,240.6569 659.8143,229.7443 660.1749,218.8312 660.5349,207.9176 660.8943,197.0036 661.2531,186.089 661.6114,175.1738 661.969,164.2581 662.3261,153.3418 662.6826,142.4249 663.0385,131.5073 663.3938,120.589 663.7485,109.67 664.1027,98.7503 664.4563,87.8298 664.8092,76.9086" stroke="silver" stroke-opacity="0.5" stroke-width="1" /><polyline fill="none" points="555.9411,729.1508 556.1909,718.2312 556.4403,707.3124 556.6892,696.3944 556.9378,685.477 557.1859,674.5602 557.4337,663.6441 557.681,652.7286 557.928,641.8137 558.1745,630.8994 558.4207,619.9856 558.6664,609.0723 558.9118,598.1595 559.1567,587.2471 559.4012,576.3351 559.6454,565.4236 559.8891,554.5124 560.1325,543.6016 560.3754,532.6911 560.618,521.781 560.8602,510.871 561.1019,499.9614 561.3433,489.0519 561.5843,478.1427 561.8249,467.2336 562.0651,456.3246 562.3049,445.4158 562.5443,434.5071 562.7833,423.5984 563.022,412.6898 563.2602,401.7812 563.4981,390.8725 563.7356,379.9639 563.9726,369.0551 564.2093,358.1463 564.4457,347.2374 564.6816,336.3283 564.9171,325.419 565.1523,314.5096 565.3871,303.5999 565.6214,292.69 565.8554,281.7798 566.0891,270.8694 566.3223,259.9586 566.5552,249.0474 566.7877,238.1359 567.0198,227.2239 567.2515,216.3116 567.4828,205.3988 567.7138,194.4855 567.9444,183.5717 568.1746,172.6573 568.4044,161.7424 568.6338,150.827 568.8629,139.9109 569.0916,128.9942 569.3199,118.0768 569.5479,107.1587 569.7755,96.2399 570.0027,85.3204 570.2295,74.4001" stroke="silver" stroke-opacity="0.5" stroke-width="1" /><polyline fill="none" points="469.3073,727.7186 469.4183,716.799 469.5291,705.8802 469.6397,694.962 469.7502,684.0446 469.8604,673.1279 469.9705,662.2118 470.0804,651.2963 470.1902,640.3814 470.2997,629.4671 470.4091,618.5533 470.5183,607.64 470.6273,596.7273 470.7362,585.815 470.8448,574.9031 470.9533,563.9917 471.0616,553.0806 471.1697,542.1699 471.2777,531.2595 471.3855,520.3495 471.4931,509.4397 471.6005,498.5302 471.7078,487.6209 471.8149,476.7118 471.9218,465.8029 472.0285,454.8942 472.1351,443.9855 472.2414,433.077 472.3476,422.1686 472.4537,411.2602 472.5595,400.3518 472.6652,389.4434 472.7708,378.535 472.8761,367.6266 472.9813,356.718 473.0863,345.8094 473.1911,334.9006 473.2958,323.9917 473.4003,313.0825 473.5046,302.1732 473.6087,291.2637 473.7127,280.3538 473.8165,269.4437 473.9202,258.5333 474.0236,247.6225 474.1269,236.7114 474.2301,225.7998 474.333,214.8879 474.4358,203.9755 474.5385,193.0626 474.6409,182.1493 474.7432,171.2354 474.8453,160.321 474.9473,149.406 475.0491,138.4904 475.1507,127.5742 475.2521,116.6573 475.3534,105.7397 475.4545,94.8215 475.5555,83.9025 475.6563,72.9827" stroke="silver" stroke-opacity="0.5" stroke-width="1" /><polyline fill="none" points="382.6732,727.3881 382.6454,716.4685 382.6177,705.5497 382.5901,694.6315 382.5625,683.7141 382.5349,672.7974 382.5074,661.8812 382.4799,650.9658 382.4525,640.0509 382.4251,629.1366 382.3977,618.2228 382.3704,607.3096 382.3432,596.3968 382.316,585.4845 382.2888,574.5727 382.2617,563.6612 382.2346,552.7502 382.2076,541.8395 382.1806,530.9292 382.1536,520.0192 382.1267,509.1094 382.0999,498.1999 382.0731,487.2907 382.0463,476.3816 382.0196,465.4728 381.9929,454.5641 381.9663,443.6555 381.9397,432.747 381.9131,421.8386 381.8866,410.9303 381.8601,400.022 381.8337,389.1137 381.8073,378.2053 381.781,367.2969 381.7547,356.3885 381.7285,345.4799 381.7023,334.5712 381.6761,323.6623 381.65,312.7533 381.6239,301.844 381.5979,290.9345 381.5719,280.0248 381.5459,269.1148 381.52,258.2044 381.4941,247.2937 381.4683,236.3827 381.4425,225.4713 381.4168,214.5594 381.3911,203.6471 381.3654,192.7344 381.3398,181.8211 381.3143,170.9073 381.2887,159.993 381.2632,149.0781 381.2378,138.1626 381.2124,127.2465 381.187,116.3298 381.1617,105.4123 381.1364,94.4942 381.1112,83.5753 381.086,72.6557" stroke="silver" stroke-opacity="0.5" stroke-width="1" /><polyline fill="none" points="296.0391,728.1592 295.8726,717.2397 295.7064,706.3208 295.5404,695.4027 295.3748,684.4853 295.2093,673.5686 295.0442,662.6525 294.8793,651.737 294.7147,640.8221 294.5504,629.9078 294.3863,618.994 294.2225,608.0807 294.059,597.1679 293.8957,586.2556 293.7327,575.3437 293.57,564.4322 293.4075,553.5211 293.2453,542.6104 293.0833,531.7 292.9216,520.7899 292.7602,509.8801 292.5991,498.9705 292.4382,488.0612 292.2775,477.152 292.1172,466.2431 291.9571,455.3343 291.7972,444.4256 291.6376,433.517 291.4783,422.6085 291.3192,411.7 291.1604,400.7916 291.0019,389.8831 290.8436,378.9746 290.6856,368.0661 290.5278,357.1575 290.3703,346.2487 290.213,335.3399 290.056,324.4308 289.8992,313.5216 289.7428,302.6122 289.5865,291.7025 289.4305,280.7926 289.2748,269.8823 289.1194,258.9718 288.9641,248.0609 288.8092,237.1496 288.6545,226.238 288.5,215.3259 288.3458,204.4134 288.1919,193.5004 288.0382,182.5869 287.8847,171.6729 287.7315,160.7583 287.5786,149.8432 287.4259,138.9274 287.2735,128.0111 287.1213,117.094 286.9693,106.1763 286.8176,95.2579 286.6662,84.3387 286.515,73.4188" stroke="silver" stroke-opacity="0.5" stroke-width="1" /><polyline fill="none" points="209.4055,730.0323 209.1002,719.1128 208.7954,708.194 208.4911,697.2759 208.1872,686.3586 207.8839,675.4418 207.581,664.5257 207.2787,653.6102 206.9768,642.6953 206.6755,631.781 206.3746,620.8671 206.0742,609.9538 205.7743,599.041 205.4749,588.1285 205.176,577.2166 204.8775,566.305 204.5796,555.3937 204.2821,544.4829 203.9851,533.5723 203.6886,522.662 203.3926,511.752 203.0971,500.8423 202.802,489.9327 202.5074,479.0234 202.2133,468.1142 201.9197,457.2051 201.6266,446.2961 201.3339,435.3873 201.0417,424.4785 200.75,413.5697 200.4588,402.6609 200.168,391.7522 199.8777,380.8433 199.5879,369.9344 199.2986,359.0254 199.0097,348.1163 198.7213,337.207 198.4334,326.2976 198.146,315.3879 197.859,304.4781 197.5725,293.568 197.2864,282.6576 197.0008,271.7468 196.7157,260.8358 196.4311,249.9244 196.1469,239.0126 195.8632,228.1005 195.5799,217.1878 195.2971,206.2748 195.0148,195.3612 194.7329,184.4471 194.4515,173.5325 194.1706,162.6173 193.8901,151.7016 193.6101,140.7852 193.3305,129.8682 193.0514,118.9505 192.7728,108.0321 192.4946,97.113 192.2169,86.1931 191.9396,75.2725" stroke="silver" stroke-opacity="0.5" stroke-width="1" /><polyline fill="none" points="122.7728,733.0081 122.3285,722.0887 121.885,711.17 121.4421,700.2521 121.0,689.3348 120.5586,678.4181 120.1179,667.502 119.6779,656.5865 119.2387,645.6716 118.8001,634.7572 118.3623,623.8432 117.9252,612.9298 117.4888,602.0168 117.0531,591.1043 116.6181,580.1921 116.1838,569.2804 115.7502,558.3689 115.3173,547.4578 114.8852,536.547 114.4537,525.6365 114.0229,514.7262 113.5929,503.8161 113.1635,492.9063 112.7349,481.9965 112.3069,471.087 111.8796,460.1775 111.453,449.2681 111.0272,438.3588 110.602,427.4496 110.1775,416.5403 109.7537,405.6311 109.3305,394.7217 108.9081,383.8124 108.4864,372.9029 108.0653,361.9933 107.645,351.0836 107.2253,340.1737 106.8063,329.2636 106.388,318.3533 105.9704,307.4427 105.5534,296.5319 105.1371,285.6207 104.7216,274.7093 104.3066,263.7975 103.8924,252.8853 103.4789,241.9727 103.066,231.0597 102.6538,220.1462 102.2423,209.2322 101.8314,198.3178 101.4212,187.4028 101.0117,176.4872 100.6029,165.5711 100.1947,154.6543 99.7872,143.7369 99.3804,132.8189 98.9742,121.9002 98.5687,110.9807 98.1639,100.0605 97.7597,89.1395 97.3562,78.2178" stroke="silver" stroke-opacity="0.5" stroke-width="1" /><polyline fill="none" points="713.8748,690.8344 705.1561,690.4429 696.4374,690.0625 687.7187,689.6931 679.0,689.3348 670.2813,688.9875 661.5626,688.6512 652.8439,688.326 644.1252,688.0118 635.4064,687.7087 626.6877,687.4166 617.969,687.1355 609.2503,686.8655 600.5315,686.6065 591.8128,686.3586 583.094,686.1216 574.3753,685.8957 565.6565,685.6808 556.9378,685.477 548.219,685.2841 539.5003,685.1023 530.7815,684.9315 522.0628,684.7718 513.344,684.623 504.6252,684.4853 495.9065,684.3586 487.1877,684.2429 478.4689,684.1383 469.7502,684.0446 461.0314,683.962 452.3126,683.8904 443.5939,683.8298 434.8751,683.7802 426.1563,683.7416 417.4375,683.7141 408.7188,683.6976 400.0,683.6921 391.2812,683.6976 382.5625,683.7141 373.8437,683.7416 365.1249,683.7802 356.4061,683.8298 347.6874,683.8904 338.9686,683.962 330.2498,684.0446 321.5311,684.1383 312.8123,684.2429 304.0935,684.3586 295.3748,684.4853 286.656,684.623 277.9372,684.7718 269.2185,684.9315 260.4997,685.1023 251.781,685.2841 243.0622,685.477 234.3435,685.6808 225.6247,685.8957 216.906,686.1216 208.1872,686.3586 199.4685,686.6065 190.7497,686.8655 182.031,687.1355 173.3123,687.4166 164.5936,687.7087 155.8748,688.0118 147.1561,688.326 138.4374,688.6512 129.7187,688.9875 121.0,689.3348 112.2813,689.6931 103.5626,690.0625 94.8439,690.4429 86.1252,690.8344" stroke="silver" stroke-opacity="0.5" stroke-width="1" /><polyline fill="none" points="717.8258,603.5163 708.9971,603.1249 700.1685,602.7445 691.3398,602.3751 682.5112,602.0168 673.6826,601.6696 664.854,601.3334 656.0255,601.0082 647.1969,600.6941 638.3683,600.391 629.5398,600.0989 620.7113,599.8179 611.8827,599.5479 603.0542,599.2889 594.2257,599.041 585.3972,598.804 576.5687,598.5782 567.7402,598.3633 558.9118,598.1595 550.0833,597.9666 541.2548,597.7849 532.4264,597.6141 523.5979,597.4543 514.7695,597.3056 505.941,597.1679 497.1126,597.0412 488.2842,596.9256 479.4557,596.8209 470.6273,596.7273 461.7989,596.6447 452.9705,596.5731 444.1421,596.5125 435.3136,596.4629 426.4852,596.4243 417.6568,596.3968 408.8284,596.3803 400.0,596.3748 391.1716,596.3803 382.3432,596.3968 373.5148,596.4243 364.6864,596.4629 355.8579,596.5125 347.0295,596.5731 338.2011,596.6447 329.3727,596.7273 320.5443,596.8209 311.7158,596.9256 302.8874,597.0412 294.059,597.1679 285.2305,597.3056 276.4021,597.4543 267.5736,597.6141 258.7452,597.7849 249.9167,597.9666 241.0882,598.1595 232.2598,598.3633 223.4313,598.5782 214.6028,598.804 205.7743,599.041 196.9458,599.2889 188.1173,599.5479 179.2887,599.8179 170.4602,600.0989 161.6317,600.391 152.8031,600.6941 143.9745,601.0082 135.146,601.3334 126.3174,601.6696 117.4888,602.0168 108.6602,602.3751 99.8315,602.7445 91.0029,603.1249 82.1742,603.5163" stroke="silver" stroke-opacity="0.5" stroke-width="1" /><polyline fill="none" points="721.7257,516.2248 712.7885,515.8336 703.8513,515.4534 694.9142,515.0843 685.9771,514.7262 677.04,514.3792 668.1029,514.0431 659.1659,513.7181 650.2289,513.4042 641.2919,513.1013 632.355,512.8094 623.4181,512.5285 614.4811,512.2586 605.5443,511.9998 596.6074,511.752 587.6706,511.5152 578.7338,511.2895 569.7969,511.0748 560.8602,510.871 551.9234,510.6783 542.9866,510.4967 534.0499,510.326 525.1132,510.1663 516.1765,510.0177 507.2398,509.8801 498.3031,509.7535 489.3664,509.6379 480.4297,509.5333 471.4931,509.4397 462.5564,509.3571 453.6198,509.2856 444.6831,509.225 435.7465,509.1755 426.8099,509.1369 417.8733,509.1094 408.9366,509.0929 400.0,509.0874 391.0634,509.0929 382.1267,509.1094 373.1901,509.1369 364.2535,509.1755 355.3169,509.225 346.3802,509.2856 337.4436,509.3571 328.5069,509.4397 319.5703,509.5333 310.6336,509.6379 301.6969,509.7535 292.7602,509.8801 283.8235,510.0177 274.8868,510.1663 265.9501,510.326 257.0134,510.4967 248.0766,510.6783 239.1398,510.871 230.2031,511.0748 221.2662,511.2895 212.3294,511.5152 203.3926,511.752 194.4557,511.9998 185.5189,512.2586 176.5819,512.5285 167.645,512.8094 158.7081,513.1013 149.7711,513.4042 140.8341,513.7181 131.8971,514.0431 122.96,514.3792 114.0229,514.7262 105.0858,515.0843 96.1487,515.4534 87.2115,515.8336 78.2743,516.2248" stroke="silver" stroke-opacity="0.5" stroke-width="1" /><polyline fill="none" points="725.5752,428.9466 716.5308,428.5558 707.4865,428.1761 698.4422,427.8073 689.398,427.4496 680.3539,427.1029 671.3098,426.7672 662.2657,426.4426 653.2217,426.1289 644.1777,425.8263 635.1337,425.5347 626.0898,425.2541 617.0459,424.9846 608.0021,424.726 598.9583,424.4785 589.9145,424.242 580.8707,424.0164 571.827,423.8019 562.7833,423.5984 553.7397,423.4059 544.696,423.2244 535.6524,423.0539 526.6088,422.8944 517.5653,422.746 508.5217,422.6085 499.4782,422.482 490.4346,422.3665 481.3911,422.262 472.3476,422.1686 463.3042,422.0861 454.2607,422.0146 445.2172,421.9541 436.1738,421.9046 427.1303,421.8661 418.0869,421.8386 409.0434,421.8221 400.0,421.8167 390.9566,421.8221 381.9131,421.8386 372.8697,421.8661 363.8262,421.9046 354.7828,421.9541 345.7393,422.0146 336.6958,422.0861 327.6524,422.1686 318.6089,422.262 309.5654,422.3665 300.5218,422.482 291.4783,422.6085 282.4347,422.746 273.3912,422.8944 264.3476,423.0539 255.304,423.2244 246.2603,423.4059 237.2167,423.5984 228.173,423.8019 219.1293,424.0164 210.0855,424.242 201.0417,424.4785 191.9979,424.726 182.9541,424.9846 173.9102,425.2541 164.8663,425.5347 155.8223,425.8263 146.7783,426.1289 137.7343,426.4426 128.6902,426.7672 119.6461,427.1029 110.602,427.4496 101.5578,427.8073 92.5135,428.1761 83.4692,428.5558 74.4248,428.9466" stroke="silver" stroke-opacity="0.5" stroke-width="1" /><polyline fill="none" points="729.3748,341.6685 720.2247,341.2783 711.0746,340.8991 701.9246,340.5309 692.7747,340.1737 683.6249,339.8275 674.4751,339.4923 665.3253,339.1682 656.1756,338.855 647.026,338.5528 637.8764,338.2617 628.7269,337.9815 619.5775,337.7124 610.428,337.4542 601.2787,337.207 592.1293,336.9709 582.98,336.7457 573.8308,336.5315 564.6816,336.3283 555.5324,336.1361 546.3833,335.9549 537.2342,335.7846 528.0851,335.6254 518.936,335.4771 509.787,335.3399 500.638,335.2136 491.489,335.0983 482.3401,334.9939 473.1911,334.9006 464.0422,334.8182 454.8933,334.7469 445.7444,334.6865 436.5955,334.6371 427.4466,334.5986 418.2977,334.5712 409.1489,334.5547 400.0,334.5492 390.8511,334.5547 381.7023,334.5712 372.5534,334.5986 363.4045,334.6371 354.2556,334.6865 345.1067,334.7469 335.9578,334.8182 326.8089,334.9006 317.6599,334.9939 308.511,335.0983 299.362,335.2136 290.213,335.3399 281.064,335.4771 271.9149,335.6254 262.7658,335.7846 253.6167,335.9549 244.4676,336.1361 235.3184,336.3283 226.1692,336.5315 217.02,336.7457 207.8707,336.9709 198.7213,337.207 189.572,337.4542 180.4225,337.7124 171.2731,337.9815 162.1236,338.2617 152.974,338.5528 143.8244,338.855 134.6747,339.1682 125.5249,339.4923 116.3751,339.8275 107.2253,340.1737 98.0754,340.5309 88.9254,340.8991 79.7753,341.2783 70.6252,341.6685" stroke="silver" stroke-opacity="0.5" stroke-width="1" /><polyline fill="none" points="733.1252,254.3772 723.8706,253.9877 714.6162,253.6093 705.3619,253.2418 696.1076,252.8853 686.8534,252.5398 677.5993,252.2052 668.3452,251.8817 659.0913,251.5692 649.8374,251.2676 640.5836,250.977 631.3298,250.6974 622.0761,250.4288 612.8225,250.1711 603.5689,249.9244 594.3154,249.6887 585.0619,249.464 575.8085,249.2502 566.5552,249.0474 557.3019,248.8556 548.0486,248.6747 538.7953,248.5048 529.5422,248.3459 520.289,248.1979 511.0359,248.0609 501.7828,247.9349 492.5297,247.8198 483.2767,247.7157 474.0236,247.6225 464.7706,247.5403 455.5177,247.4691 446.2647,247.4088 437.0117,247.3595 427.7588,247.3211 418.5059,247.2937 409.2529,247.2773 400.0,247.2718 390.7471,247.2773 381.4941,247.2937 372.2412,247.3211 362.9883,247.3595 353.7353,247.4088 344.4823,247.4691 335.2294,247.5403 325.9764,247.6225 316.7233,247.7157 307.4703,247.8198 298.2172,247.9349 288.9641,248.0609 279.711,248.1979 270.4578,248.3459 261.2047,248.5048 251.9514,248.6747 242.6981,248.8556 233.4448,249.0474 224.1915,249.2502 214.9381,249.464 205.6846,249.6887 196.4311,249.9244 187.1775,250.1711 177.9239,250.4288 168.6702,250.6974 159.4164,250.977 150.1626,251.2676 140.9087,251.5692 131.6548,251.8817 122.4007,252.2052 113.1466,252.5398 103.8924,252.8853 94.6381,253.2418 85.3838,253.6093 76.1294,253.9877 66.8748,254.3772" stroke="silver" stroke-opacity="0.5" stroke-width="1" /><polyline fill="none" points="736.8268,167.0594 727.4692,166.6709 718.1118,166.2933 708.7544,165.9267 699.3971,165.5711 690.04,165.2264 680.6829,164.8927 671.3259,164.5699 661.969,164.2581 652.6122,163.9573 643.2555,163.6674 633.8989,163.3885 624.5423,163.1205 615.1858,162.8634 605.8294,162.6173 596.4731,162.3822 587.1168,162.158 577.7605,161.9447 568.4044,161.7424 559.0483,161.5511 549.6922,161.3706 540.3362,161.2012 530.9803,161.0426 521.6243,160.895 512.2685,160.7583 502.9126,160.6326 493.5568,160.5178 484.2011,160.4139 474.8453,160.321 465.4896,160.239 456.1339,160.1679 446.7782,160.1078 437.4226,160.0586 428.0669,160.0203 418.7113,159.993 409.3556,159.9766 400.0,159.9711 390.6444,159.9766 381.2887,159.993 371.9331,160.0203 362.5774,160.0586 353.2218,160.1078 343.8661,160.1679 334.5104,160.239 325.1547,160.321 315.7989,160.4139 306.4432,160.5178 297.0874,160.6326 287.7315,160.7583 278.3757,160.895 269.0197,161.0426 259.6638,161.2012 250.3078,161.3706 240.9517,161.5511 231.5956,161.7424 222.2395,161.9447 212.8832,162.158 203.5269,162.3822 194.1706,162.6173 184.8142,162.8634 175.4577,163.1205 166.1011,163.3885 156.7445,163.6674 147.3878,163.9573 138.031,164.2581 128.6741,164.5699 119.3171,164.8927 109.96,165.2264 100.6029,165.5711 91.2456,165.9267 81.8882,166.2933 72.5308,166.6709 63.1732,167.0594" stroke="silver" stroke-opacity="0.5" stroke-width="1" /><polyline fill="none" points="740.4802,79.7019 731.0209,79.3145 721.5618,78.938 712.1027,78.5724 702.6438,78.2178 693.185,77.8741 683.7263,77.5413 674.2677,77.2195 664.8092,76.9086 655.3509,76.6086 645.8926,76.3196 636.4344,76.0414 626.9763,75.7742 617.5183,75.5179 608.0604,75.2725 598.6026,75.038 589.1448,74.8145 579.6871,74.6018 570.2295,74.4001 560.7719,74.2093 551.3144,74.0294 541.857,73.8604 532.3996,73.7023 522.9423,73.5551 513.485,73.4188 504.0278,73.2934 494.5706,73.179 485.1134,73.0754 475.6563,72.9827 466.1992,72.901 456.7421,72.8301 447.2851,72.7702 437.828,72.7211 428.371,72.683 418.914,72.6557 409.457,72.6393 400.0,72.6339 390.543,72.6393 381.086,72.6557 371.629,72.683 362.172,72.7211 352.7149,72.7702 343.2579,72.8301 333.8008,72.901 324.3437,72.9827 314.8866,73.0754 305.4294,73.179 295.9722,73.2934 286.515,73.4188 277.0577,73.5551 267.6004,73.7023 258.143,73.8604 248.6856,74.0294 239.2281,74.2093 229.7705,74.4001 220.3129,74.6018 210.8552,74.8145 201.3974,75.038 191.9396,75.2725 182.4817,75.5179 173.0237,75.7742 163.5656,76.0414 154.1074,76.3196 144.6491,76.6086 135.1908,76.9086 125.7323,77.2195 116.2737,77.5413 106.815,77.8741 97.3562,78.2178 87.8973,78.5724 78.4382,78.938 68.9791,79.3145 59.5198,79.7019" stroke="silver" stroke-opacity="0.5" stroke-width="1" /><line fill="none" stroke="green" stroke-opacity="0.5" stroke-width="1.5" x1="353.5577" x2="317.7491" y1="713.8377" y2="693.5726" /><line fill="none" stroke="green" stroke-opacity="0.5" stroke-width="1.5" x1="317.7491" x2="183.629" y1="693.5726" y2="692.6218" /><circle cx="715.2939" cy="622.1237" fill="black" r="0.738" stroke="none" /><circle cx="725.4867" cy="282.6513" fill="black" r="0.738" stroke="none" /><circle cx="714.6868" cy="490.1198" fill="black" r="0.738" stroke="none" /><circle cx="718.1989" cy="403.0088" fill="black" r="0.738" stroke="none" /><circle cx="696.3395" cy="708.5213" fill="black" r="0.738" stroke="none" /><circle cx="696.6399" cy="607.5806" fill="black" r="0.738" stroke="none" /><circle cx="695.9654" cy="501.5762" fill="black" r="0.738" stroke="none" /><circle cx="692.4994" cy="475.2106" fill="black" r="0.738" stroke="none" /><circle cx="697.174" cy="196.9688" fill="black" r="0.738" stroke="none" /><circle cx="687.802" cy="312.5389" fill="black" r="0.738" stroke="none" /><circle cx="689.3908" cy="80.1889" fill="black" r="0.738" stroke="none" /><circle cx="683.4368" cy="184.4006" fill="black" r="0.738" stroke="none" /><circle cx="665.4367" cy="441.061" fill="black" r="0.936" stroke="none" /><circle cx="658.3257" cy="621.199" fill="black" r="0.738" stroke="none" /><circle cx="669.7233" cy="254.9008" fill="black" r="0.738" stroke="none" /><circle cx="674.5489" cy="104.8678" fill="black" r="0.738" stroke="none" /><circle cx="665.2673" cy="338.7292" fill="black" r="0.738" stroke="none" /><circle cx="655.3321" cy="539.1005" fill="black" r="0.738" stroke="none" /><circle cx="652.8608" cy="598.5342" fill="black" r="0.738" stroke="none" /><circle cx="658.4882" cy="186.086" fill="black" r="0.738" stroke="none" /><circle cx="648.8694" cy="395.8395" fill="black" r="0.738" stroke="none" /><circle cx="644.3262" cy="527.0964" fill="black" r="0.738" stroke="none" /><circle cx="639.7082" cy="608.827" fill="black" r="0.738" stroke="none" /><circle cx="644.8887" cy="359.3644" fill="black" r="0.738" stroke="none" /><circle cx="642.8479" cy="413.2896" fill="black" r="0.738" stroke="none" /><circle cx="634.5722" cy="508.4248" fill="black" r="0.738" stroke="none" /><circle cx="633.0411" cy="522.617" fill="black" r="0.738" stroke="none" /><circle cx="644.3514" cy="122.5276" fill="black" r="0.738" stroke="none" /><circle cx="623.667" cy="626.9155" fill="black" r="0.738" stroke="none" /><circle cx="635.968" cy="202.1651" fill="black" r="0.738" stroke="none" /><circle cx="627.8184" cy="458.4144" fill="black" r="0.738" stroke="none" /><circle cx="628.2346" cy="178.0818" fill="black" r="0.738" stroke="none" /><circle cx="615.1354" cy="465.6321" fill="black" r="0.738" stroke="none" /><circle cx="618.0665" cy="282.3761" fill="black" r="0.738" stroke="none" /><circle cx="613.4728" cy="428.3748" fill="black" r="0.738" stroke="none" /><circle cx="607.0709" cy="638.0289" fill="black" r="0.738" stroke="none" /><circle cx="604.9463" cy="525.5222" fill="black" r="0.738" stroke="none" /><circle cx="614.7731" cy="93.5423" fill="black" r="0.738" stroke="none" /><circle cx="601.2668" cy="315.3725" fill="black" r="0.738" stroke="none" /><circle cx="589.6516" cy="417.5111" fill="black" r="0.738" stroke="none" /><circle cx="589.1272" cy="292.2698" fill="black" r="0.738" stroke="none" /><circle cx="572.6868" cy="661.2107" fill="black" r="0.936" stroke="none" /><circle cx="571.601" cy="567.1857" fill="black" r="1.476" stroke="none" /><circle cx="573.7739" cy="377.2202" fill="black" r="0.738" stroke="none" /><circle cx="574.5236" cy="196.8161" fill="black" r="0.738" stroke="none" /><circle cx="562.8179" cy="675.8264" fill="black" r="0.738" stroke="none" /><circle cx="566.7247" cy="369.9012" fill="black" r="0.738" stroke="none" /><circle cx="562.4173" cy="227.1275" fill="black" r="0.738" stroke="none" /><circle cx="559.2258" cy="362.4927" fill="black" r="0.738" stroke="none" /><circle cx="553.6733" cy="585.5541" fill="black" r="0.936" stroke="none" /><circle cx="554.3053" cy="552.9927" fill="black" r="0.738" stroke="none" /><circle cx="547.6588" cy="452.4423" fill="black" r="0.738" stroke="none" /><circle cx="545.0093" cy="473.4303" fill="black" r="0.738" stroke="none" /><circle cx="545.2504" cy="333.9252" fill="black" r="0.738" stroke="none" /><circle cx="535.837" cy="585.5398" fill="black" r="0.738" stroke="none" /><circle cx="540.8555" cy="191.081" fill="black" r="0.738" stroke="none" /><circle cx="535.5815" cy="415.0213" fill="black" r="0.738" stroke="none" /><circle cx="519.2426" cy="686.4697" fill="black" r="0.738" stroke="none" /><circle cx="525.6302" cy="148.9035" fill="black" r="0.738" stroke="none" /><circle cx="521.3249" cy="304.7866" fill="black" r="0.738" stroke="none" /><circle cx="510.977" cy="644.9278" fill="black" r="0.738" stroke="none" /><circle cx="509.1534" cy="553.3851" fill="black" r="0.738" stroke="none" /><circle cx="512.3763" cy="262.9219" fill="black" r="0.738" stroke="none" /><circle cx="500.3839" cy="726.2707" fill="black" r="0.738" stroke="none" /><circle cx="504.1484" cy="414.5157" fill="black" r="0.738" stroke="none" /><circle cx="498.2618" cy="685.5273" fill="black" r="0.738" stroke="none" /><circle cx="504.2344" cy="236.181" fill="black" r="0.738" stroke="none" /><circle cx="492.3767" cy="564.5858" fill="black" r="0.738" stroke="none" /><circle cx="498.4029" cy="81.6991" fill="black" r="0.738" stroke="none" /><circle cx="489.1311" cy="470.2685" fill="black" r="0.738" stroke="none" /><circle cx="490.8376" cy="309.7778" fill="black" r="0.936" stroke="none" /><circle cx="484.4728" cy="487.6702" fill="black" r="0.936" stroke="none" /><circle cx="481.4933" cy="652.2938" fill="black" r="0.738" stroke="none" /><circle cx="478.4304" cy="387.145" fill="black" r="0.738" stroke="none" /><circle cx="479.2383" cy="207.6018" fill="black" r="0.738" stroke="none" /><circle cx="469.8532" cy="387.0603" fill="black" r="0.738" stroke="none" /><circle cx="469.113" cy="380.5951" fill="black" r="0.738" stroke="none" /><circle cx="468.1566" cy="92.2239" fill="black" r="0.738" stroke="none" /><circle cx="461.0343" cy="667.8042" fill="black" r="0.738" stroke="none" /><circle cx="460.4369" cy="454.179" fill="black" r="0.738" stroke="none" /><circle cx="458.0003" cy="637.4753" fill="black" r="0.738" stroke="none" /><circle cx="458.031" cy="448.6614" fill="black" r="0.738" stroke="none" /><circle cx="456.8317" cy="156.7673" fill="black" r="0.738" stroke="none" /><circle cx="450.4099" cy="705.5382" fill="black" r="0.738" stroke="none" /><circle cx="453.0637" cy="324.1736" fill="black" r="0.738" stroke="none" /><circle cx="449.2657" cy="83.0904" fill="black" r="0.738" stroke="none" /><circle cx="444.8509" cy="505.2112" fill="black" r="0.738" stroke="none" /><circle cx="442.2707" cy="542.6401" fill="black" r="0.738" stroke="none" /><circle cx="437.48" cy="303.3971" fill="black" r="0.738" stroke="none" /><circle cx="433.6936" cy="697.1377" fill="black" r="0.738" stroke="none" /><circle cx="431.5421" cy="522.4225" fill="black" r="0.738" stroke="none" /><circle cx="430.1555" cy="563.6156" fill="black" r="0.738" stroke="none" /><circle cx="425.5224" cy="647.4103" fill="black" r="0.738" stroke="none" /><circle cx="424.4702" cy="136.7807" fill="black" r="0.936" stroke="none" /><circle cx="413.5783" cy="185.4777" fill="black" r="0.738" stroke="none" /><circle cx="405.8484" cy="246.5757" fill="black" r="0.936" stroke="none" /><circle cx="403.1633" cy="109.4088" fill="black" r="0.738" stroke="none" /><circle cx="399.8506" cy="177.3465" fill="black" r="0.738" stroke="none" /><circle cx="397.4781" cy="653.7385" fill="black" r="0.738" stroke="none" /><circle cx="384.419" cy="443.7372" fill="black" r="0.738" stroke="none" /><circle cx="383.561" cy="573.2602" fill="black" r="0.738" stroke="none" /><circle cx="382.01" cy="519.6704" fill="black" r="0.738" stroke="none" /><circle cx="379.6156" cy="401.7731" fill="black" r="0.738" stroke="none" /><circle cx="377.2666" cy="727.2293" fill="black" r="0.738" stroke="none" /><circle cx="375.2796" cy="294.7051" fill="black" r="0.738" stroke="none" /><circle cx="375.8461" cy="717.5374" fill="black" r="0.936" stroke="none" /><circle cx="371.2809" cy="478.1614" fill="black" r="0.738" stroke="none" /><circle cx="368.515" cy="646.8234" fill="black" r="0.738" stroke="none" /><circle cx="358.3375" cy="449.3363" fill="black" r="0.738" stroke="none" /><circle cx="357.4623" cy="358.3186" fill="black" r="0.738" stroke="none" /><circle cx="354.392" cy="220.2565" fill="black" r="0.936" stroke="none" /><circle cx="353.0184" cy="150.9402" fill="black" r="0.738" stroke="none" /><circle cx="351.7968" cy="373.7996" fill="black" r="0.738" stroke="none" /><circle cx="353.5402" cy="713.809" fill="black" r="1.17" stroke="none" /><circle cx="349.8491" cy="365.6088" fill="black" r="0.738" stroke="none" /><circle cx="350.777" cy="535.4395" fill="black" r="0.738" stroke="none" /><circle cx="347.5109" cy="75.3353" fill="black" r="0.738" stroke="none" /><circle cx="347.2824" cy="278.2621" fill="black" r="0.738" stroke="none" /><circle cx="346.3347" cy="363.4511" fill="black" r="0.738" stroke="none" /><circle cx="345.9821" cy="661.982" fill="black" r="0.738" stroke="none" /><circle cx="327.7339" cy="574.4809" fill="black" r="0.738" stroke="none" /><circle cx="322.9873" cy="145.059" fill="black" r="0.738" stroke="none" /><circle cx="322.0593" cy="210.9066" fill="black" r="0.738" stroke="none" /><circle cx="326.2232" cy="711.7776" fill="black" r="0.738" stroke="none" /><circle cx="320.8029" cy="263.0371" fill="black" r="0.738" stroke="none" /><circle cx="318.5254" cy="163.5295" fill="black" r="0.936" stroke="none" /><circle cx="320.1271" cy="495.1249" fill="black" r="0.738" stroke="none" /><circle cx="319.464" cy="441.0175" fill="black" r="0.738" stroke="none" /><circle cx="320.4355" cy="587.1308" fill="black" r="0.738" stroke="none" /><circle cx="312.6076" cy="142.283" fill="black" r="0.738" stroke="none" /><circle cx="317.7367" cy="693.529" fill="black" r="1.17" stroke="none" /><circle cx="313.5148" cy="593.8474" fill="black" r="0.738" stroke="none" /><circle cx="304.4094" cy="589.4241" fill="black" r="0.738" stroke="none" /><circle cx="296.6846" cy="463.6461" fill="black" r="0.738" stroke="none" /><circle cx="294.228" cy="417.5063" fill="black" r="0.738" stroke="none" /><circle cx="287.8798" cy="270.4262" fill="black" r="0.738" stroke="none" /><circle cx="272.2557" cy="355.8723" fill="black" r="0.738" stroke="none" /><circle cx="277.1255" cy="690.1155" fill="black" r="0.936" stroke="none" /><circle cx="276.7786" cy="690.209" fill="black" r="0.936" stroke="none" /><circle cx="272.7514" cy="594.8119" fill="black" r="0.738" stroke="none" /><circle cx="265.3814" cy="455.9465" fill="black" r="0.738" stroke="none" /><circle cx="266.4538" cy="675.4615" fill="black" r="0.738" stroke="none" /><circle cx="260.5622" cy="425.7429" fill="black" r="0.738" stroke="none" /><circle cx="255.2224" cy="300.7398" fill="black" r="0.738" stroke="none" /><circle cx="262.2296" cy="680.8738" fill="black" r="0.738" stroke="none" /><circle cx="252.9619" cy="203.5948" fill="black" r="0.738" stroke="none" /><circle cx="249.8906" cy="264.6936" fill="black" r="0.738" stroke="none" /><circle cx="254.7322" cy="539.269" fill="black" r="0.738" stroke="none" /><circle cx="248.8731" cy="295.7977" fill="black" r="0.738" stroke="none" /><circle cx="243.0146" cy="156.007" fill="black" r="0.738" stroke="none" /><circle cx="249.6338" cy="523.6561" fill="black" r="0.738" stroke="none" /><circle cx="246.3558" cy="606.4281" fill="black" r="0.738" stroke="none" /><circle cx="227.424" cy="502.495" fill="black" r="0.738" stroke="none" /><circle cx="224.9797" cy="609.7213" fill="black" r="0.738" stroke="none" /><circle cx="217.4955" cy="543.1743" fill="black" r="0.738" stroke="none" /><circle cx="205.124" cy="166.4497" fill="black" r="1.17" stroke="none" /><circle cx="215.9991" cy="608.9889" fill="black" r="0.738" stroke="none" /><circle cx="202.8309" cy="146.2341" fill="black" r="0.738" stroke="none" /><circle cx="200.7503" cy="195.0403" fill="black" r="0.738" stroke="none" /><circle cx="212.3538" cy="672.6973" fill="black" r="0.738" stroke="none" /><circle cx="193.2012" cy="338.927" fill="black" r="0.738" stroke="none" /><circle cx="193.2405" cy="544.4427" fill="black" r="0.738" stroke="none" /><circle cx="188.7149" cy="405.953" fill="black" r="0.738" stroke="none" /><circle cx="189.6169" cy="616.6299" fill="black" r="0.738" stroke="none" /><circle cx="174.2713" cy="223.8855" fill="black" r="0.738" stroke="none" /><circle cx="176.2463" cy="442.6536" fill="black" r="0.738" stroke="none" /><circle cx="183.5989" cy="692.5939" fill="black" r="1.476" stroke="none" /><circle cx="167.0699" cy="565.6033" fill="black" r="0.738" stroke="none" /><circle cx="154.3781" cy="286.085" fill="black" r="0.738" stroke="none" /><circle cx="147.3239" cy="145.2518" fill="black" r="0.738" stroke="none" /><circle cx="147.168" cy="222.6998" fill="black" r="0.738" stroke="none" /><circle cx="158.1102" cy="596.6648" fill="black" r="0.738" stroke="none" /><circle cx="145.9048" cy="302.0872" fill="black" r="0.738" stroke="none" /><circle cx="157.0317" cy="677.2156" fill="black" r="0.738" stroke="none" /><circle cx="143.4497" cy="292.4693" fill="black" r="0.738" stroke="none" /><circle cx="140.2357" cy="295.5479" fill="black" r="0.738" stroke="none" /><circle cx="128.07" cy="162.2298" fill="black" r="0.738" stroke="none" /><circle cx="127.8339" cy="172.9042" fill="black" r="0.738" stroke="none" /><circle cx="134.9832" cy="397.8785" fill="black" r="0.738" stroke="none" /><circle cx="132.8973" cy="408.7009" fill="black" r="0.738" stroke="none" /><circle cx="132.6041" cy="408.624" fill="black" r="0.738" stroke="none" /><circle cx="129.9212" cy="370.2703" fill="black" r="0.738" stroke="none" /><circle cx="132.3674" cy="517.0848" fill="black" r="0.738" stroke="none" /><circle cx="123.7615" cy="329.2436" fill="black" r="0.738" stroke="none" /><circle cx="123.7823" cy="469.7722" fill="black" r="0.738" stroke="none" /><circle cx="110.6423" cy="134.1566" fill="black" r="0.738" stroke="none" /><circle cx="121.2879" cy="453.3478" fill="black" r="0.738" stroke="none" /><circle cx="125.043" cy="616.1461" fill="black" r="0.936" stroke="none" /><circle cx="108.9661" cy="245.7882" fill="black" r="0.738" stroke="none" /><circle cx="117.9941" cy="506.3539" fill="black" r="0.738" stroke="none" /><circle cx="88.6772" cy="79.1553" fill="black" r="0.936" stroke="none" /><circle cx="90.2309" cy="287.6897" fill="black" r="0.738" stroke="none" /><circle cx="98.5167" cy="708.833" fill="black" r="0.738" stroke="none" /><circle cx="88.6397" cy="507.3777" fill="black" r="0.738" stroke="none" /><circle cx="78.8318" cy="403.3105" fill="black" r="0.738" stroke="none" /><circle cx="67.909" cy="178.1468" fill="black" r="0.738" stroke="none" /><circle cx="13.77" cy="786.23" fill="black" r="4.59" stroke="none" /><circle cx="13.77" cy="786.23" fill="black" r="4.59" stroke="none" /><text fill="black" font-family="monospace" font-size="12" x="10.77" y="775.64">1</text><circle cx="37.77" cy="786.23" fill="black" r="3.654" stroke="none" /><circle cx="37.77" cy="786.23" fill="black" r="3.654" stroke="none" /><text fill="black" font-family="monospace" font-size="12" x="34.769999999999996" y="775.64">2</text><circle cx="61.77" cy="786.23" fill="black" r="2.916" stroke="none" /><circle cx="61.77" cy="786.23" fill="black" r="2.916" stroke="none" /><text fill="black" font-family="monospace" font-size="12" x="58.769999999999996" y="775.64">3</text><circle cx="85.77" cy="786.23" fill="black" r="2.322" stroke="none" /><circle cx="85.77" cy="786.23" fill="black" r="2.322" stroke="none" /><text fill="black" font-family="monospace" font-size="12" x="82.77" y="775.64">4</text><circle cx="109.77" cy="786.23" fill="black" r="1.854" stroke="none" /><circle cx="109.77" cy="786.23" fill="black" r="1.854" stroke="none" /><text fill="black" font-family="monospace" font-size="12" x="106.77" y="775.64">5</text><circle cx="133.77" cy="786.23" fill="black" r="1.476" stroke="none" /><circle cx="133.77" cy="786.23" fill="black" r="1.476" stroke="none" /><text fill="black" font-family="monospace" font-size="12" x="130.77" y="775.64">6</text><circle cx="157.77" cy="786.23" fill="black" r="1.17" stroke="none" /><circle cx="157.77" cy="786.23" fill="black" r="1.17" stroke="none" /><text fill="black" font-family="monospace" font-size="12" x="154.77" y="775.64">7</text><circle cx="181.77" cy="786.23" fill="black" r="0.936" stroke="none" /><circle cx="181.77" cy="786.23" fill="black" r="0.936" stroke="none" /><text fill="black" font-family="monospace" font-size="12" x="178.77" y="775.64">8</text><circle cx="205.77" cy="786.23" fill="black" r="0.738" stroke="none" /><circle cx="205.77" cy="786.23" fill="black" r="0.738" stroke="none" /><text fill="black" font-family="monospace" font-size="12" x="202.77" y="775.64">9</text><text fill="gray" fill-opacity="0.5" font-family="monospace" font-size="12" x="664.809249344742" y="76.90859903409932">18h40m</text><text fill="gray" fill-opacity="0.5" font-family="monospace" font-size="12" x="570.2294776817605" y="74.40010770298323">18h45m</text><text fill="gray" fill-opacity="0.5" font-family="monospace" font-size="12" x="475.65627824847803" y="72.98273539556294">18h50m</text><text fill="gray" fill-opacity="0.5" font-family="monospace" font-size="12" x="381.08600359133277" y="72.65569773741748">18h55m</text><text fill="gray" fill-opacity="0.5" font-family="monospace" font-size="12" x="286.51499752189073" y="73.41881375617936">19h00m</text><text fill="gray" fill-opacity="0.5" font-family="monospace" font-size="12" x="191.93960603473957" y="75.27250574235688">19h05m</text><text fill="gray" fill-opacity="0.5" font-family="monospace" font-size="12" x="97.35618823228992" y="78.21779957407324">19h10m</text><text fill="gray" fill-opacity="0.5" font-family="monospace" font-size="12" x="86.12523979011269" y="690.8343540987717">-37°</text><text fill="gray" fill-opacity="0.5" font-family="monospace" font-size="12" x="82.17424894509492" y="603.5163037275">-36°</text><text fill="gray" fill-opacity="0.5" font-family="monospace" font-size="12" x="78.27432743866211" y="516.2248204294356">-35°</text><text fill="gray" fill-opacity="0.5" font-family="monospace" font-size="12" x="74.42484486387355" y="428.94664383073075">-34°</text><text fill="gray" fill-opacity="0.5" font-family="monospace" font-size="12" x="70.62520151171304" y="341.6685216233935">-33°</text><text fill="gray" fill-opacity="0.5" font-family="monospace" font-size="12" x="66.87482799348686" y="254.37720152816078">-32°</text><text fill="gray" fill-opacity="0.5" font-family="monospace" font-size="12" x="63.17318490240535" y="167.05942325739042">-31°</text><text fill="gray" fill-opacity="0.5" font-family="monospace" font-size="12" x="59.519762513921535" y="79.70191046764609">-30°</text><text fill="black" font-family="monospace" font-size="12" x="12" y="48">&gt;&gt; No.217 18h36m 19h12m -37.5°-30.0°</text><a target="_self" xlink:href="hip012.svg"><text fill="black" font-family="monospace" font-size="12" x="12" y="36">&gt; No.12 18h00m 21h00m -52.5°-22.5°</text></a><a target="_self" xlink:href="hip001.svg"><text fill="black" font-family="monospace" font-size="12" x="12" y="24">No.1 00h 24h -90.0°+0.0°</text></a><polyline fill="none" points="740.4802,79.7019 731.0209,79.3145 721.5618,78.938 712.1027,78.5724 702.6438,78.2178 693.185,77.8741 683.7263,77.5413 674.2677,77.2195 664.8092,76.9086 655.3509,76.6086 645.8926,76.3196 636.4344,76.0414 626.9763,75.7742 617.5183,75.5179 608.0604,75.2725 598.6026,75.038 589.1448,74.8145 579.6871,74.6018 570.2295,74.4001 560.7719,74.2093 551.3144,74.0294 541.857,73.8604 532.3996,73.7023 522.9423,73.5551 513.485,73.4188 504.0278,73.2934 494.5706,73.179 485.1134,73.0754 475.6563,72.9827 466.1992,72.901 456.7421,72.8301 447.2851,72.7702 437.828,72.7211 428.371,72.683 418.914,72.6557 409.457,72.6393 400.0,72.6339 390.543,72.6393 381.086,72.6557 371.629,72.683 362.172,72.7211 352.7149,72.7702 343.2579,72.8301 333.8008,72.901 324.3437,72.9827 314.8866,73.0754 305.4294,73.179 295.9722,73.2934 286.515,73.4188 277.0577,73.5551 267.6004,73.7023 258.143,73.8604 248.6856,74.0294 239.2281,74.2093 229.7705,74.4001 220.3129,74.6018 210.8552,74.8145 201.3974,75.038 191.9396,75.2725 182.4817,75.5179 173.0237,75.7742 163.5656,76.0414 154.1074,76.3196 144.6491,76.6086 135.1908,76.9086 125.7323,77.2195 116.2737,77.5413 106.815,77.8741 97.3562,78.2178 87.8973,78.5724 78.4382,78.938 68.9791,79.3145 59.5198,79.7019" stroke="black" stroke-opacity="0.5" stroke-width="1" /><polyline fill="none" points="711.8799,734.5075 712.3798,723.5882 712.879,712.6696 713.3773,701.7516 713.8748,690.8344 714.3714,679.9177 714.8673,669.0016 715.3624,658.0861 715.8567,647.1712 716.3501,636.2567 716.8428,625.3428 717.3347,614.4293 717.8258,603.5163 718.316,592.6037 718.8055,581.6915 719.2942,570.7796 719.7821,559.8681 720.2691,548.9569 720.7554,538.0459 721.241,527.1353 721.7257,516.2248 722.2096,505.3146 722.6927,494.4045 723.1751,483.4947 723.6567,472.5849 724.1375,461.6752 724.6175,450.7657 725.0967,439.8561 725.5752,428.9466 726.0528,418.0371 726.5297,407.1276 727.0058,396.2181 727.4812,385.3084 727.9557,374.3987 728.4295,363.4888 728.9025,352.5787 729.3748,341.6685 729.8463,330.7581 730.317,319.8474 730.7869,308.9365 731.2561,298.0253 731.7245,287.1138 732.1922,276.202 732.6591,265.2898 733.1252,254.3772 733.5905,243.4642 734.0551,232.5508 734.519,221.6368 734.9821,210.7224 735.4444,199.8075 735.9059,188.8921 736.3668,177.976 736.8268,167.0594 737.2861,156.1422 737.7447,145.2243 738.2025,134.3057 738.6595,123.3865 739.1158,112.4665 739.5714,101.5457 740.0262,90.6242 740.4802,79.7019" stroke="black" stroke-opacity="0.5" stroke-width="1" /><polyline fill="none" points="711.8799,734.5075 703.2167,734.1161 694.5536,733.7357 685.8904,733.3664 677.2272,733.0081 668.564,732.6608 659.9007,732.3246 651.2375,731.9995 642.5742,731.6853 633.911,731.3822 625.2477,731.0902 616.5844,730.8092 607.9211,730.5392 599.2578,730.2802 590.5945,730.0323 581.9311,729.7954 573.2678,729.5695 564.6045,729.3546 555.9411,729.1508 547.2778,728.958 538.6144,728.7762 529.951,728.6054 521.2877,728.4457 512.6243,728.2969 503.9609,728.1592 495.2975,728.0325 486.6341,727.9169 477.9707,727.8122 469.3073,727.7186 460.6439,727.636 451.9805,727.5644 443.3171,727.5038 434.6537,727.4542 425.9902,727.4157 417.3268,727.3881 408.6634,727.3716 400.0,727.3661 391.3366,727.3716 382.6732,727.3881 374.0098,727.4157 365.3463,727.4542 356.6829,727.5038 348.0195,727.5644 339.3561,727.636 330.6927,727.7186 322.0293,727.8122 313.3659,727.9169 304.7025,728.0325 296.0391,728.1592 287.3757,728.2969 278.7123,728.4457 270.049,728.6054 261.3856,728.7762 252.7222,728.958 244.0589,729.1508 235.3955,729.3546 226.7322,729.5695 218.0689,729.7954 209.4055,730.0323 200.7422,730.2802 192.0789,730.5392 183.4156,730.8092 174.7523,731.0902 166.089,731.3822 157.4258,731.6853 148.7625,731.9995 140.0993,732.3246 131.436,732.6608 122.7728,733.0081 114.1096,733.3664 105.4464,733.7357 96.7833,734.1161 88.1201,734.5075" stroke="black" stroke-opacity="0.5" stroke-width="1" /><polyline fill="none" points="88.1201,734.5075 87.6202,723.5882 87.121,712.6696 86.6227,701.7516 86.1252,690.8344 85.6286,679.9177 85.1327,669.0016 84.6376,658.0861 84.1433,647.1712 83.6499,636.2567 83.1572,625.3428 82.6653,614.4293 82.1742,603.5163 81.684,592.6037 81.1945,581.6915 80.7058,570.7796 80.2179,559.8681 79.7309,548.9569 79.2446,538.0459 78.759,527.1353 78.2743,516.2248 77.7904,505.3146 77.3073,494.4045 76.8249,483.4947 76.3433,472.5849 75.8625,461.6752 75.3825,450.7657 74.9033,439.8561 74.4248,428.9466 73.9472,418.0371 73.4703,407.1276 72.9942,396.2181 72.5188,385.3084 72.0443,374.3987 71.5705,363.4888 71.0975,352.5787 70.6252,341.6685 70.1537,330.7581 69.683,319.8474 69.2131,308.9365 68.7439,298.0253 68.2755,287.1138 67.8078,276.202 67.3409,265.2898 66.8748,254.3772 66.4095,243.4642 65.9449,232.5508 65.481,221.6368 65.0179,210.7224 64.5556,199.8075 64.0941,188.8921 63.6332,177.976 63.1732,167.0594 62.7139,156.1422 62.2553,145.2243 61.7975,134.3057 61.3405,123.3865 60.8842,112.4665 60.4286,101.5457 59.9738,90.6242 59.5198,79.7019" stroke="black" stroke-opacity="0.5" stroke-width="1" /></svg>