<?xml version="1.0" encoding="utf-8" ?>
<svg baseProfile="tiny" height="800" version="1.2" width="800" xmlns="http://www.w3.org/2000/svg" xmlns:ev="http://www.w3.org/2001/xml-events" xmlns:xlink="http://www.w3.org/1999/xlink"><defs /><rect fill="none" height="800" stroke="black" stroke-width="2" width="800" x="0" y="0" /><polyline fill="none" points="633.4174,730.3307 633.6946,719.4084 633.9712,708.4869 634.2472,697.5661 634.5226,686.6459 634.7974,675.7264 635.0717,664.8076 635.3453,653.8893 635.6184,642.9717 635.8908,632.0545 636.1627,621.1379 636.434,610.2218 636.7047,599.3062 636.9748,588.391 637.2443,577.4763 637.5132,566.5619 637.7816,555.6479 638.0494,544.7342 638.3165,533.8209 638.5831,522.9078 638.8492,511.995 639.1146,501.0825 639.3795,490.1702 639.6437,479.258 639.9074,468.346 640.1706,457.4342 640.4331,446.5224 640.6951,435.6108 640.9565,424.6991 641.2173,413.7876 641.4775,402.876 641.7372,391.9644 641.9963,381.0528 642.2548,370.1411 642.5127,359.2293 642.7701,348.3173 643.0269,337.4053 643.2831,326.493 643.5388,315.5806 643.7939,304.6679 644.0484,293.7549 644.3024,282.8417 644.5557,271.9282 644.8085,261.0143 645.0608,250.1001 645.3125,239.1855 645.5636,228.2705 645.8141,217.3551 646.0641,206.4392 646.3135,195.5228 646.5624,184.6059 646.8107,173.6884 647.0584,162.7704 647.3056,151.8518 647.5522,140.9326 647.7982,130.0127 648.0437,119.0922 648.2886,108.171 648.533,97.249 648.7768,86.3263 649.02,75.4029" stroke="silver" stroke-opacity="0.5" stroke-width="1" /><polyline fill="none" points="538.8326,728.4148 538.9975,717.4942 539.1619,706.5744 539.326,695.6553 539.4898,684.7369 539.6532,673.8192 539.8162,662.9021 539.9789,651.9857 540.1413,641.0698 540.3032,630.1545 540.4649,619.2397 540.6262,608.3255 540.7871,597.4117 540.9477,586.4984 541.108,575.5855 541.2679,564.673 541.4274,553.761 541.5866,542.8492 541.7455,531.9378 541.904,521.0267 542.0622,510.1159 542.22,499.2053 542.3774,488.295 542.5346,477.3849 542.6914,466.4749 542.8478,455.5651 543.0039,444.6554 543.1597,433.7458 543.3151,422.8363 543.4701,411.9268 543.6249,401.0173 543.7792,390.1078 543.9333,379.1983 544.087,368.2888 544.2403,357.3791 544.3934,346.4694 544.546,335.5595 544.6984,324.6494 544.8504,313.7392 545.002,302.8287 545.1534,291.918 545.3044,281.007 545.455,270.0958 545.6053,259.1842 545.7553,248.2722 545.9049,237.36 546.0542,226.4473 546.2032,215.5341 546.3518,204.6206 546.5001,193.7065 546.6481,182.792 546.7957,171.8769 546.943,160.9613 547.0899,150.0451 547.2365,139.1283 547.3828,128.2109 547.5288,117.2928 547.6744,106.374 547.8197,95.4545 547.9646,84.5343 548.1092,73.6133" stroke="silver" stroke-opacity="0.5" stroke-width="1" /><polyline fill="none" points="444.2589,727.4727 444.3114,716.553 444.3638,705.634 444.4161,694.7158 444.4683,683.7983 444.5204,672.8814 444.5724,661.9652 444.6242,651.0496 444.676,640.1346 444.7276,629.2202 444.7791,618.3064 444.8305,607.393 444.8818,596.4802 444.933,585.5678 444.9841,574.6558 445.0351,563.7443 445.0859,552.8331 445.1367,541.9224 445.1873,531.0119 445.2378,520.1018 445.2882,509.1919 445.3385,498.2823 445.3887,487.373 445.4388,476.4638 445.4888,465.5549 445.5386,454.646 445.5884,443.7374 445.638,432.8288 445.6876,421.9203 445.737,411.0118 445.7863,400.1034 445.8355,389.195 445.8846,378.2865 445.9336,367.378 445.9825,356.4694 446.0313,345.5607 446.0799,334.6519 446.1285,323.7429 446.1769,312.8337 446.2253,301.9244 446.2735,291.0148 446.3216,280.1049 446.3696,269.1947 446.4175,258.2843 446.4653,247.3735 446.513,236.4623 446.5606,225.5508 446.6081,214.6388 446.6555,203.7264 446.7027,192.8135 446.7499,181.9001 446.7969,170.9862 446.8439,160.0718 446.8907,149.1568 446.9375,138.2411 446.9841,127.3249 447.0306,116.408 447.077,105.4904 447.1233,94.5722 447.1695,83.6532 447.2156,72.7334" stroke="silver" stroke-opacity="0.5" stroke-width="1" /><polyline fill="none" points="349.6886,727.5038 349.6289,716.5841 349.5693,705.6651 349.5098,694.7468 349.4505,683.8293 349.3913,672.9124 349.3322,661.9962 349.2733,651.0806 349.2145,640.1656 349.1558,629.2511 349.0972,618.3372 349.0387,607.4238 348.9804,596.5109 348.9222,585.5985 348.8642,574.6865 348.8063,563.775 348.7484,552.8638 348.6908,541.953 348.6332,531.0425 348.5758,520.1323 348.5185,509.2225 348.4613,498.3128 348.4042,487.4035 348.3473,476.4943 348.2905,465.5853 348.2338,454.6764 348.1772,443.7677 348.1208,432.8591 348.0645,421.9505 348.0083,411.0421 347.9523,400.1336 347.8963,389.2251 347.8405,378.3166 347.7848,367.4081 347.7293,356.4995 347.6738,345.5907 347.6185,334.6819 347.5633,323.7729 347.5082,312.8637 347.4533,301.9543 347.3984,291.0446 347.3437,280.1347 347.2892,269.2245 347.2347,258.314 347.1804,247.4032 347.1261,236.492 347.0721,225.5804 347.0181,214.6684 346.9642,203.7559 346.9105,192.843 346.8569,181.9296 346.8034,171.0157 346.75,160.1012 346.6968,149.1861 346.6437,138.2705 346.5907,127.3542 346.5378,116.4373 346.485,105.5197 346.4324,94.6013 346.3799,83.6823 346.3275,72.7625" stroke="silver" stroke-opacity="0.5" stroke-width="1" /><polyline fill="none" points="255.1143,728.5082 254.9423,717.5876 254.7707,706.6677 254.5994,695.7485 254.4286,684.83 254.258,673.9122 254.0879,662.9951 253.9181,652.0785 253.7486,641.1626 253.5796,630.2472 253.4109,619.3323 253.2426,608.418 253.0746,597.5041 252.907,586.5907 252.7398,575.6777 252.5729,564.7652 252.4064,553.853 252.2402,542.9412 252.0744,532.0297 251.909,521.1185 251.744,510.2076 251.5793,499.2969 251.4149,488.3865 251.2509,477.4762 251.0873,466.5662 250.924,455.6562 250.7611,444.7464 250.5986,433.8367 250.4364,422.9271 250.2746,412.0175 250.1131,401.108 249.952,390.1984 249.7912,379.2888 249.6308,368.3791 249.4708,357.4694 249.3111,346.5595 249.1517,335.6495 248.9927,324.7393 248.8341,313.829 248.6758,302.9184 248.5179,292.0076 248.3603,281.0965 248.2031,270.1851 248.0463,259.2734 247.8897,248.3614 247.7336,237.449 247.5778,226.5362 247.4223,215.6229 247.2672,204.7093 247.1124,193.7951 246.958,182.8805 246.804,171.9653 246.6503,161.0495 246.4969,150.1332 246.3439,139.2163 246.1912,128.2987 246.0389,117.3805 245.8869,106.4616 245.7353,95.542 245.5841,84.6217 245.4331,73.7006" stroke="silver" stroke-opacity="0.5" stroke-width="1" /><polyline fill="none" points="160.5286,730.4865 160.2442,719.5641 159.9604,708.6424 159.6773,697.7214 159.3947,686.8012 159.1127,675.8815 158.8314,664.9625 158.5506,654.0441 158.2705,643.1263 157.991,632.209 157.712,621.2923 157.4337,610.376 157.156,599.4603 156.8789,588.5449 156.6024,577.63 156.3264,566.7155 156.0511,555.8013 155.7764,544.8875 155.5023,533.974 155.2287,523.0608 154.9558,512.1478 154.6835,501.2351 154.4117,490.3226 154.1406,479.4103 153.8701,468.4982 153.6001,457.5862 153.3307,446.6742 153.062,435.7624 152.7938,424.8506 152.5262,413.9389 152.2592,403.0272 151.9928,392.1154 151.727,381.2036 151.4617,370.2917 151.1971,359.3797 150.9331,348.4676 150.6696,337.5554 150.4067,326.6429 150.1444,315.7303 149.8827,304.8174 149.6216,293.9043 149.361,282.9909 149.1011,272.0772 148.8417,261.1632 148.5829,250.2488 148.3247,239.334 148.067,228.4188 147.81,217.5031 147.5535,206.587 147.2976,195.6705 147.0423,184.7534 146.7875,173.8357 146.5334,162.9175 146.2798,151.9987 146.0268,141.0793 145.7743,130.1593 145.5225,119.2385 145.2712,108.3171 145.0205,97.3949 144.7704,86.4721 144.5208,75.5484" stroke="silver" stroke-opacity="0.5" stroke-width="1" /><polyline fill="none" points="716.667,732.8232 709.0981,732.5653 699.6373,732.2518 690.1766,731.9481 680.7162,731.6542 671.2561,731.3699 661.7961,731.0955 652.3363,730.8308 642.8768,730.5759 633.4174,730.3307 623.9582,730.0952 614.4992,729.8695 605.0404,729.6536 595.5817,729.4474 586.1232,729.2509 576.6648,729.0642 567.2066,728.8872 557.7485,728.72 548.2905,728.5625 538.8326,728.4148 529.3749,728.2767 519.9172,728.1485 510.4597,728.0299 501.0022,727.9211 491.5449,727.822 482.0875,727.7327 472.6303,727.6531 463.1731,727.5832 453.716,727.5231 444.2589,727.4727 434.8018,727.432 425.3448,727.4011 415.8878,727.3798 406.4308,727.3684 396.9738,727.3666 387.5168,727.3746 378.0598,727.3923 368.6027,727.4197 359.1457,727.4569 349.6886,727.5038 340.2315,727.5604 330.7743,727.6268 321.3171,727.7029 311.8598,727.7888 302.4024,727.8843 292.945,727.9896 283.4875,728.1047 274.0299,728.2294 264.5722,728.3639 255.1143,728.5082 245.6564,728.6622 236.1984,728.8259 226.7402,728.9994 217.2818,729.1826 207.8234,729.3755 198.3648,729.5782 188.906,729.7907 179.447,730.0128 169.9879,730.2448 160.5286,730.4865 151.0691,730.7379 141.6094,730.9991 132.1495,731.27 122.6894,731.5507 113.2291,731.8412 103.7686,732.1414 94.3078,732.4514 84.8468,732.7711 83.333,732.8232" stroke="silver" stroke-opacity="0.5" stroke-width="1" /><polyline fill="none" points="719.6544,645.4459 712.014,645.19 702.4637,644.8788 692.9137,644.5773 683.3639,644.2855 673.8143,644.0033 664.265,643.7309 654.7159,643.4681 645.167,643.2151 635.6184,642.9717 626.0699,642.7379 616.5216,642.5139 606.9735,642.2995 597.4256,642.0949 587.8778,641.8998 578.3302,641.7145 568.7828,641.5388 559.2355,641.3728 549.6883,641.2165 540.1413,641.0698 530.5943,640.9328 521.0475,640.8055 511.5008,640.6878 501.9542,640.5798 492.4076,640.4814 482.8612,640.3928 473.3148,640.3137 463.7685,640.2444 454.2222,640.1847 444.676,640.1346 435.1298,640.0943 425.5836,640.0635 416.0375,640.0425 406.4914,640.0311 396.9452,640.0293 387.3991,640.0373 377.853,640.0548 368.3068,640.0821 358.7607,640.119 349.2145,640.1656 339.6682,640.2218 330.1219,640.2877 320.5755,640.3632 311.0291,640.4484 301.4826,640.5433 291.936,640.6478 282.3893,640.762 272.8425,640.8859 263.2957,641.0194 253.7486,641.1626 244.2015,641.3154 234.6543,641.4779 225.1069,641.6501 215.5593,641.832 206.0116,642.0235 196.4638,642.2247 186.9157,642.4356 177.3675,642.6562 167.8191,642.8864 158.2705,643.1263 148.7217,643.3759 139.1727,643.6352 129.6235,643.9041 120.074,644.1828 110.5243,644.4711 100.9744,644.7691 91.4242,645.0768 81.8737,645.3942 80.3456,645.4459" stroke="silver" stroke-opacity="0.5" stroke-width="1" /><polyline fill="none" points="722.5906,558.1027 714.8798,557.8488 705.2417,557.54 695.6037,557.2409 685.9661,556.9514 676.3287,556.6715 666.6916,556.4011 657.0547,556.1405 647.418,555.8894 637.7816,555.6479 628.1454,555.416 618.5093,555.1937 608.8735,554.981 599.2379,554.778 589.6024,554.5845 579.9671,554.4006 570.332,554.2263 560.697,554.0616 551.0621,553.9065 541.4274,553.761 531.7928,553.625 522.1584,553.4987 512.524,553.3819 502.8898,553.2748 493.2556,553.1772 483.6215,553.0892 473.9875,553.0108 464.3536,552.942 454.7197,552.8828 445.0859,552.8331 435.4521,552.7931 425.8184,552.7626 416.1846,552.7417 406.5509,552.7304 396.9172,552.7287 387.2835,552.7365 377.6498,552.754 368.016,552.781 358.3823,552.8176 348.7484,552.8638 339.1146,552.9196 329.4807,552.9849 319.8467,553.0599 310.2127,553.1444 300.5785,553.2386 290.9443,553.3423 281.31,553.4556 271.6756,553.5784 262.041,553.7109 252.4064,553.853 242.7716,554.0046 233.1367,554.1659 223.5016,554.3367 213.8663,554.5172 204.2309,554.7072 194.5954,554.9068 184.9596,555.116 175.3236,555.3349 165.6875,555.5633 156.0511,555.8013 146.4145,556.049 136.7777,556.3062 127.1407,556.573 117.5034,556.8495 107.8658,557.1356 98.228,557.4312 88.5899,557.7365 78.9516,558.0514 77.4094,558.1027" stroke="silver" stroke-opacity="0.5" stroke-width="1" /><polyline fill="none" points="725.4761,470.7803 717.6962,470.5285 707.9716,470.2223 698.2474,469.9257 688.5234,469.6386 678.7997,469.361 669.0763,469.093 659.3531,468.8345 649.6301,468.5855 639.9074,468.346 630.185,468.1161 620.4627,467.8957 610.7407,467.6848 601.0188,467.4834 591.2971,467.2915 581.5757,467.1092 571.8544,466.9363 562.1332,466.773 552.4122,466.6192 542.6914,466.4749 532.9706,466.3401 523.2501,466.2148 513.5296,466.0991 503.8092,465.9928 494.089,465.896 484.3688,465.8088 474.6487,465.7311 464.9287,465.6628 455.2087,465.6041 445.4888,465.5549 435.7689,465.5151 426.0491,465.4849 416.3293,465.4642 406.6095,465.453 396.8897,465.4513 387.1699,465.4591 377.4501,465.4764 367.7302,465.5032 358.0104,465.5395 348.2905,465.5853 338.5705,465.6406 328.8505,465.7054 319.1305,465.7797 309.4103,465.8635 299.6901,465.9569 289.9698,466.0597 280.2493,466.1721 270.5288,466.2939 260.8081,466.4253 251.0873,466.5662 241.3664,466.7165 231.6453,466.8764 221.924,467.0458 212.2026,467.2248 202.481,467.4132 192.7592,467.6112 183.0373,467.8186 173.3151,468.0356 163.5927,468.2621 153.8701,468.4982 144.1472,468.7437 134.4241,468.9988 124.7008,469.2634 114.9771,469.5376 105.2533,469.8212 95.5291,470.1144 85.8047,470.4172 76.0799,470.7294 74.5239,470.7803" stroke="silver" stroke-opacity="0.5" stroke-width="1" /><polyline fill="none" points="728.3113,383.4654 720.4635,383.2158 710.6541,382.9124 700.845,382.6184 691.0362,382.3338 681.2277,382.0587 671.4194,381.7931 661.6114,381.5369 651.8037,381.2901 641.9963,381.0528 632.1891,380.8249 622.3821,380.6064 612.5753,380.3974 602.7687,380.1978 592.9624,380.0077 583.1562,379.827 573.3502,379.6557 563.5444,379.4938 553.7388,379.3414 543.9333,379.1983 534.1279,379.0648 524.3227,378.9406 514.5176,378.8259 504.7126,378.7205 494.9078,378.6246 485.103,378.5382 475.2983,378.4611 465.4937,378.3935 455.6891,378.3353 445.8846,378.2865 436.0802,378.2471 426.2757,378.2172 416.4713,378.1966 406.667,378.1855 396.8626,378.1838 387.0582,378.1916 377.2538,378.2087 367.4494,378.2353 357.645,378.2712 347.8405,378.3166 338.036,378.3715 328.2314,378.4357 318.4267,378.5094 308.622,378.5924 298.8171,378.6849 289.0122,378.7869 279.2071,378.8982 269.402,379.019 259.5967,379.1492 249.7912,379.2888 239.9856,379.4378 230.1799,379.5963 220.374,379.7642 210.5679,379.9415 200.7616,380.1283 190.9551,380.3245 181.1484,380.5301 171.3415,380.7452 161.5344,380.9697 151.727,381.2036 141.9194,381.447 132.1115,381.6998 122.3033,381.962 112.4949,382.2337 102.6862,382.5149 92.8772,382.8055 83.0679,383.1055 73.2583,383.415 71.6887,383.4654" stroke="silver" stroke-opacity="0.5" stroke-width="1" /><polyline fill="none" points="731.0968,296.1448 723.1823,295.8976 713.2895,295.597 703.397,295.3058 693.5048,295.0239 683.613,294.7514 673.7214,294.4882 663.8301,294.2345 653.9391,293.99 644.0484,293.7549 634.1579,293.5292 624.2677,293.3128 614.3777,293.1057 604.4879,292.908 594.5983,292.7197 584.709,292.5407 574.8198,292.371 564.9308,292.2107 555.042,292.0597 545.1534,291.918 535.2649,291.7857 525.3765,291.6627 515.4883,291.549 505.6002,291.4447 495.7122,291.3497 485.8243,291.2641 475.9365,291.1877 466.0488,291.1208 456.1611,291.0631 446.2735,291.0148 436.3859,290.9758 426.4984,290.9461 416.6109,290.9258 406.7235,290.9148 396.836,290.9131 386.9485,290.9207 377.0611,290.9377 367.1736,290.964 357.286,290.9997 347.3984,291.0446 337.5108,291.0989 327.6231,291.1626 317.7353,291.2355 307.8475,291.3178 297.9595,291.4094 288.0714,291.5104 278.1833,291.6207 268.295,291.7403 258.4065,291.8693 248.5179,292.0076 238.6292,292.1552 228.7402,292.3122 218.8511,292.4785 208.9618,292.6542 199.0724,292.8392 189.1827,293.0335 179.2927,293.2372 169.4026,293.4502 159.5122,293.6726 149.6216,293.9043 139.7307,294.1454 129.8395,294.3958 119.948,294.6556 110.0563,294.9247 100.1642,295.2032 90.2719,295.4911 80.3792,295.7883 70.4862,296.0948 68.9032,296.1448" stroke="silver" stroke-opacity="0.5" stroke-width="1" /><polyline fill="none" points="733.8328,208.8051 725.8528,208.5604 715.8781,208.2628 705.9037,207.9745 695.9297,207.6955 685.956,207.4257 675.9826,207.1652 666.0095,206.9139 656.0367,206.6719 646.0641,206.4392 636.0919,206.2157 626.1199,206.0014 616.1481,205.7965 606.1766,205.6007 596.2053,205.4143 586.2342,205.237 576.2633,205.069 566.2926,204.9103 556.3221,204.7608 546.3518,204.6206 536.3816,204.4896 526.4116,204.3678 516.4417,204.2553 506.472,204.152 496.5023,204.058 486.5328,203.9732 476.5633,203.8976 466.594,203.8313 456.6247,203.7742 446.6555,203.7264 436.6863,203.6878 426.7172,203.6584 416.7481,203.6383 406.779,203.6274 396.8099,203.6257 386.8408,203.6333 376.8717,203.6501 366.9026,203.6761 356.9334,203.7114 346.9642,203.7559 336.995,203.8097 327.0256,203.8727 317.0562,203.9449 307.0867,204.0264 297.1171,204.1171 287.1474,204.2171 277.1776,204.3262 267.2076,204.4447 257.2375,204.5723 247.2672,204.7093 237.2968,204.8554 227.3261,205.0108 217.3553,205.1755 207.3843,205.3494 197.4131,205.5325 187.4417,205.7249 177.47,205.9266 167.4981,206.1375 157.5259,206.3576 147.5535,206.587 137.5808,206.8257 127.6078,207.0736 117.6345,207.3308 107.6609,207.5973 97.687,207.873 87.7127,208.158 77.7381,208.4522 67.7632,208.7557 66.1672,208.8051" stroke="silver" stroke-opacity="0.5" stroke-width="1" /><polyline fill="none" points="736.5199,121.4333 728.4755,121.1911 718.4203,120.8966 708.3655,120.6114 698.3111,120.3353 688.257,120.0683 678.2032,119.8105 668.1497,119.5619 658.0966,119.3225 648.0437,119.0922 637.9911,118.8711 627.9388,118.6591 617.8868,118.4563 607.835,118.2626 597.7834,118.0781 587.7321,117.9027 577.681,117.7365 567.63,117.5795 557.5793,117.4315 547.5288,117.2928 537.4784,117.1632 527.4281,117.0427 517.3781,116.9314 507.3281,116.8292 497.2783,116.7361 487.2286,116.6522 477.179,116.5775 467.1294,116.5118 457.08,116.4554 447.0306,116.408 436.9813,116.3698 426.932,116.3407 416.8827,116.3208 406.8335,116.31 396.7842,116.3084 386.735,116.3159 376.6858,116.3325 366.6365,116.3583 356.5872,116.3932 346.5378,116.4373 336.4884,116.4904 326.4389,116.5528 316.3893,116.6242 306.3396,116.7049 296.2898,116.7946 286.2399,116.8935 276.1899,117.0016 266.1397,117.1187 256.0894,117.2451 246.0389,117.3805 235.9882,117.5252 225.9374,117.6789 215.8863,117.8418 205.8351,118.0139 195.7836,118.1951 185.7319,118.3855 175.6799,118.585 165.6277,118.7937 155.5752,119.0115 145.5225,119.2385 135.4694,119.4747 125.4161,119.72 115.3624,119.9745 105.3084,120.2381 95.2541,120.5109 85.1994,120.7929 75.1444,121.084 65.089,121.3843 63.4801,121.4333" stroke="silver" stroke-opacity="0.5" stroke-width="1" /><circle cx="705.7955" cy="657.6664" fill="black" r="0.738" stroke="none" /><circle cx="709.6481" cy="345.9154" fill="black" r="0.738" stroke="none" /><circle cx="701.066" cy="589.8401" fill="black" r="0.738" stroke="none" /><circle cx="704.0205" cy="420.7256" fill="black" r="0.738" stroke="none" /><circle cx="693.5312" cy="680.9735" fill="black" r="0.738" stroke="none" /><circle cx="699.2094" cy="489.6174" fill="black" r="0.738" stroke="none" /><circle cx="701.7474" cy="275.5072" fill="black" r="0.738" stroke="none" /><circle cx="683.4325" cy="707.3343" fill="black" r="0.936" stroke="none" /><circle cx="692.7763" cy="197.3825" fill="black" r="0.738" stroke="none" /><circle cx="665.7355" cy="634.9435" fill="black" r="0.738" stroke="none" /><circle cx="674.9767" cy="171.3056" fill="black" r="0.738" stroke="none" /><circle cx="664.5876" cy="375.7607" fill="black" r="0.738" stroke="none" /><circle cx="659.3862" cy="401.0473" fill="black" r="0.738" stroke="none" /><circle cx="650.1949" cy="594.4068" fill="black" r="0.738" stroke="none" /><circle cx="650.6011" cy="552.1269" fill="black" r="0.738" stroke="none" /><circle cx="647.0543" cy="530.7187" fill="black" r="0.738" stroke="none" /><circle cx="654.6948" cy="195.8921" fill="black" r="0.738" stroke="none" /><circle cx="636.204" cy="698.315" fill="black" r="0.738" stroke="none" /><circle cx="636.729" cy="529.1523" fill="black" r="0.738" stroke="none" /><circle cx="641.2591" cy="318.4972" fill="black" r="0.738" stroke="none" /><circle cx="610.5929" cy="610.0522" fill="black" r="0.738" stroke="none" /><circle cx="608.5523" cy="615.686" fill="black" r="0.738" stroke="none" /><circle cx="616.1471" cy="225.6259" fill="black" r="0.738" stroke="none" /><circle cx="608.7359" cy="496.2866" fill="black" r="0.738" stroke="none" /><circle cx="601.2768" cy="411.8651" fill="black" r="0.738" stroke="none" /><circle cx="592.5344" cy="690.3145" fill="black" r="0.738" stroke="none" /><circle cx="593.5653" cy="156.5349" fill="black" r="0.738" stroke="none" /><circle cx="589.21" cy="275.5056" fill="black" r="0.738" stroke="none" /><circle cx="589.8362" cy="117.1523" fill="black" r="0.738" stroke="none" /><circle cx="584.1879" cy="396.5218" fill="black" r="0.738" stroke="none" /><circle cx="581.9815" cy="280.9667" fill="black" r="0.738" stroke="none" /><circle cx="551.8882" cy="661.0808" fill="black" r="0.738" stroke="none" /><circle cx="542.2426" cy="243.597" fill="black" r="0.738" stroke="none" /><circle cx="537.0525" cy="469.2763" fill="black" r="1.17" stroke="none" /><circle cx="532.6003" cy="595.6355" fill="black" r="0.738" stroke="none" /><circle cx="525.0427" cy="447.2953" fill="black" r="0.738" stroke="none" /><circle cx="522.8269" cy="189.9183" fill="black" r="0.738" stroke="none" /><circle cx="522.9883" cy="161.5381" fill="black" r="0.738" stroke="none" /><circle cx="511.6094" cy="518.8008" fill="black" r="0.738" stroke="none" /><circle cx="512.1783" cy="356.0188" fill="black" r="0.738" stroke="none" /><circle cx="490.1672" cy="674.87" fill="black" r="0.738" stroke="none" /><circle cx="490.2254" cy="375.8766" fill="black" r="0.738" stroke="none" /><circle cx="489.115" cy="81.8999" fill="black" r="0.738" stroke="none" /><circle cx="484.1152" cy="227.4391" fill="black" r="0.738" stroke="none" /><circle cx="480.2706" cy="585.1873" fill="black" r="0.738" stroke="none" /><circle cx="469.0038" cy="472.3233" fill="black" r="0.738" stroke="none" /><circle cx="468.4073" cy="194.5881" fill="black" r="0.738" stroke="none" /><circle cx="463.7245" cy="635.4414" fill="black" r="0.738" stroke="none" /><circle cx="460.7" cy="393.0255" fill="black" r="0.738" stroke="none" /><circle cx="455.9573" cy="694.6908" fill="black" r="0.738" stroke="none" /><circle cx="451.0799" cy="311.0238" fill="black" r="0.738" stroke="none" /><circle cx="441.3697" cy="538.676" fill="black" r="0.738" stroke="none" /><circle cx="439.8926" cy="651.5523" fill="black" r="0.738" stroke="none" /><circle cx="436.1349" cy="656.7766" fill="black" r="0.738" stroke="none" /><circle cx="435.7517" cy="657.2991" fill="black" r="0.936" stroke="none" /><circle cx="432.5874" cy="391.2383" fill="black" r="0.738" stroke="none" /><circle cx="431.7898" cy="469.6907" fill="black" r="0.738" stroke="none" /><circle cx="431.4554" cy="273.3293" fill="black" r="0.738" stroke="none" /><circle cx="430.4684" cy="494.9086" fill="black" r="0.738" stroke="none" /><circle cx="418.8448" cy="97.1088" fill="black" r="0.738" stroke="none" /><circle cx="416.8189" cy="157.8885" fill="black" r="0.738" stroke="none" /><circle cx="396.3969" cy="392.1467" fill="black" r="0.738" stroke="none" /><circle cx="388.4845" cy="653.3085" fill="black" r="0.738" stroke="none" /><circle cx="378.4308" cy="591.6849" fill="black" r="0.738" stroke="none" /><circle cx="376.3066" cy="442.3525" fill="black" r="0.738" stroke="none" /><circle cx="369.0974" cy="218.0739" fill="black" r="0.738" stroke="none" /><circle cx="365.9599" cy="515.6924" fill="black" r="0.738" stroke="none" /><circle cx="365.1851" cy="311.3931" fill="black" r="0.738" stroke="none" /><circle cx="365.0119" cy="553.2278" fill="black" r="0.738" stroke="none" /><circle cx="362.2354" cy="552.7145" fill="black" r="0.738" stroke="none" /><circle cx="360.1951" cy="157.9481" fill="black" r="0.738" stroke="none" /><circle cx="355.2286" cy="363.7948" fill="black" r="0.738" stroke="none" /><circle cx="354.7458" cy="646.9484" fill="black" r="0.738" stroke="none" /><circle cx="352.725" cy="225.9904" fill="black" r="0.738" stroke="none" /><circle cx="343.4041" cy="132.4355" fill="black" r="0.738" stroke="none" /><circle cx="343.0983" cy="726.2318" fill="black" r="0.738" stroke="none" /><circle cx="340.4765" cy="610.7912" fill="black" r="0.936" stroke="none" /><circle cx="338.6207" cy="678.4793" fill="black" r="0.738" stroke="none" /><circle cx="332.2438" cy="427.0191" fill="black" r="0.738" stroke="none" /><circle cx="328.8641" cy="80.8973" fill="black" r="0.738" stroke="none" /><circle cx="322.6055" cy="286.5723" fill="black" r="0.738" stroke="none" /><circle cx="319.7905" cy="646.832" fill="black" r="0.738" stroke="none" /><circle cx="305.5776" cy="258.691" fill="black" r="0.738" stroke="none" /><circle cx="303.3376" cy="504.85" fill="black" r="0.738" stroke="none" /><circle cx="301.3645" cy="462.2742" fill="black" r="0.738" stroke="none" /><circle cx="302.332" cy="596.7865" fill="black" r="0.738" stroke="none" /><circle cx="301.7723" cy="624.2975" fill="black" r="0.738" stroke="none" /><circle cx="297.427" cy="396.4167" fill="black" r="0.738" stroke="none" /><circle cx="296.568" cy="531.2814" fill="black" r="0.738" stroke="none" /><circle cx="292.7393" cy="576.109" fill="black" r="0.936" stroke="none" /><circle cx="288.246" cy="344.4054" fill="black" r="0.936" stroke="none" /><circle cx="290.4086" cy="673.3308" fill="black" r="0.738" stroke="none" /><circle cx="283.2781" cy="118.1473" fill="black" r="0.738" stroke="none" /><circle cx="277.5792" cy="218.5542" fill="black" r="0.738" stroke="none" /><circle cx="276.663" cy="401.9722" fill="black" r="0.738" stroke="none" /><circle cx="272.4552" cy="202.9841" fill="black" r="0.738" stroke="none" /><circle cx="269.7219" cy="452.1632" fill="black" r="0.738" stroke="none" /><circle cx="269.5019" cy="675.2592" fill="black" r="0.738" stroke="none" /><circle cx="253.3373" cy="103.7395" fill="black" r="0.738" stroke="none" /><circle cx="251.6374" cy="360.4932" fill="black" r="0.738" stroke="none" /><circle cx="240.5751" cy="701.7459" fill="black" r="0.738" stroke="none" /><circle cx="235.8193" cy="651.3288" fill="black" r="0.936" stroke="none" /><circle cx="229.6792" cy="387.2001" fill="black" r="0.738" stroke="none" /><circle cx="228.3299" cy="591.5408" fill="black" r="0.738" stroke="none" /><circle cx="224.8011" cy="532.3071" fill="black" r="0.738" stroke="none" /><circle cx="218.4584" cy="560.8926" fill="black" r="0.738" stroke="none" /><circle cx="214.9341" cy="459.3152" fill="black" r="0.738" stroke="none" /><circle cx="205.6398" cy="165.8969" fill="black" r="0.738" stroke="none" /><circle cx="202.6275" cy="211.3752" fill="black" r="0.738" stroke="none" /><circle cx="202.4999" cy="281.5088" fill="black" r="0.738" stroke="none" /><circle cx="207.9057" cy="607.2152" fill="black" r="0.738" stroke="none" /><circle cx="199.3195" cy="366.6221" fill="black" r="0.738" stroke="none" /><circle cx="201.3" cy="606.7391" fill="black" r="0.738" stroke="none" /><circle cx="191.6173" cy="288.0942" fill="black" r="0.936" stroke="none" /><circle cx="181.3249" cy="668.1685" fill="black" r="0.738" stroke="none" /><circle cx="175.8306" cy="482.9133" fill="black" r="0.738" stroke="none" /><circle cx="163.6041" cy="140.6866" fill="black" r="0.738" stroke="none" /><circle cx="175.8006" cy="701.4263" fill="black" r="0.738" stroke="none" /><circle cx="159.1853" cy="488.6328" fill="black" r="0.738" stroke="none" /><circle cx="158.1024" cy="730.3751" fill="black" r="0.738" stroke="none" /><circle cx="147.1621" cy="335.9809" fill="black" r="0.738" stroke="none" /><circle cx="145.4836" cy="499.4595" fill="black" r="0.738" stroke="none" /><circle cx="137.0768" cy="166.2879" fill="black" r="0.738" stroke="none" /><circle cx="145.371" cy="554.5036" fill="black" r="0.738" stroke="none" /><circle cx="132.0944" cy="239.5551" fill="black" r="0.738" stroke="none" /><circle cx="135.6882" cy="449.1341" fill="black" r="0.738" stroke="none" /><circle cx="116.8901" cy="94.6651" fill="black" r="0.738" stroke="none" /><circle cx="114.3527" cy="619.2636" fill="black" r="0.738" stroke="none" /><circle cx="95.1056" cy="240.5498" fill="black" r="0.738" stroke="none" /><circle cx="104.5488" cy="629.4429" fill="black" r="0.738" stroke="none" /><circle cx="93.0838" cy="304.9343" fill="black" r="0.936" stroke="none" /><circle cx="86.7018" cy="228.2061" fill="black" r="0.738" stroke="none" /><circle cx="79.4887" cy="354.0258" fill="black" r="0.738" stroke="none" /><circle cx="79.3424" cy="595.1971" fill="black" r="0.738" stroke="none" /><circle cx="13.77" cy="786.23" fill="black" r="4.59" stroke="none" /><circle cx="13.77" cy="786.23" fill="black" r="4.59" stroke="none" /><text fill="black" font-family="monospace" font-size="12" x="10.77" y="775.64">1</text><circle cx="37.77" cy="786.23" fill="black" r="3.654" stroke="none" /><circle cx="37.77" cy="786.23" fill="black" r="3.654" stroke="none" /><text fill="black" font-family="monospace" font-size="12" x="34.769999999999996" y="775.64">2</text><circle cx="61.77" cy="786.23" fill="black" r="2.916" stroke="none" /><circle cx="61.77" cy="786.23" fill="black" r="2.916" stroke="none" /><text fill="black" font-family="monospace" font-size="12" x="58.769999999999996" y="775.64">3</text><circle cx="85.77" cy="786.23" fill="black" r="2.322" stroke="none" /><circle cx="85.77" cy="786.23" fill="black" r="2.322" stroke="none" /><text fill="black" font-family="monospace" font-size="12" x="82.77" y="775.64">4</text><circle cx="109.77" cy="786.23" fill="black" r="1.854" stroke="none" /><circle cx="109.77" cy="786.23" fill="black" r="1.854" stroke="none" /><text fill="black" font-family="monospace" font-size="12" x="106.77" y="775.64">5</text><circle cx="133.77" cy="786.23" fill="black" r="1.476" stroke="none" /><circle cx="133.77" cy="786.23" fill="black" r="1.476" stroke="none" /><text fill="black" font-family="monospace" font-size="12" x="130.77" y="775.64">6</text><circle cx="157.77" cy="786.23" fill="black" r="1.17" stroke="none" /><circle cx="157.77" cy="786.23" fill="black" r="1.17" stroke="none" /><text fill="black" font-family="monospace" font-size="12" x="154.77" y="775.64">7</text><circle cx="181.77" cy="786.23" fill="black" r="0.936" stroke="none" /><circle cx="181.77" cy="786.23" fill="black" r="0.936" stroke="none" /><text fill="black" font-family="monospace" font-size="12" x="178.77" y="775.64">8</text><circle cx="205.77" cy="786.23" fill="black" r="0.738" stroke="none" /><circle cx="205.77" cy="786.23" fill="black" r="0.738" stroke="none" /><text fill="black" font-family="monospace" font-size="12" x="202.77" y="775.64">9</text><text fill="gray" fill-opacity="0.5" font-family="monospace" font-size="12" x="649.0200470510953" y="75.40285309465855">20h10m</text><text fill="gray" fill-opacity="0.5" font-family="monospace" font-size="12" x="548.1092206678173" y="73.61333424717509">20h15m</text><text fill="gray" fill-opacity="0.5" font-family="monospace" font-size="12" x="447.21560998871894" y="72.7334288649759">20h20m</text><text fill="gray" fill-opacity="0.5" font-family="monospace" font-size="12" x="346.32748790534333" y="72.76251343151506">20h25m</text><text fill="gray" fill-opacity="0.5" font-family="monospace" font-size="12" x="245.43312665694887" y="73.7006085547572">20h30m</text><text fill="gray" fill-opacity="0.5" font-family="monospace" font-size="12" x="144.52079922441214" y="75.54837899379828">20h35m</text><text fill="gray" fill-opacity="0.5" font-family="monospace" font-size="12" x="83.33297901746465" y="732.82315467983">-30°</text><text fill="gray" fill-opacity="0.5" font-family="monospace" font-size="12" x="80.345609161693" y="645.4458996653692">-29°</text><text fill="gray" fill-opacity="0.5" font-family="monospace" font-size="12" x="77.40943118114467" y="558.1027018944101">-28°</text><text fill="gray" fill-opacity="0.5" font-family="monospace" font-size="12" x="74.52394885402447" y="470.7802873175766">-27°</text><text fill="gray" fill-opacity="0.5" font-family="monospace" font-size="12" x="71.6886968278177" y="383.4653944884191">-26°</text><text fill="gray" fill-opacity="0.5" font-family="monospace" font-size="12" x="68.90324031218495" y="296.1447665185394">-25°</text><text fill="gray" fill-opacity="0.5" font-family="monospace" font-size="12" x="66.1671748113572" y="208.80514303858516">-24°</text><text fill="gray" fill-opacity="0.5" font-family="monospace" font-size="12" x="63.480125895682136" y="121.43325215475375">-23°</text><text fill="black" font-family="monospace" font-size="12" x="12" y="48">&gt;&gt; No.262 20h06m 20h39m -30.0°-22.5°</text><a target="_self" xlink:href="hip012.svg"><text fill="black" font-family="monospace" font-size="12" x="12" y="36">&gt; No.12 18h00m 21h00m -52.5°-22.5°</text></a><a target="_self" xlink:href="hip001.svg"><text fill="black" font-family="monospace" font-size="12" x="12" y="24">No.1 00h 24h -90.0°+0.0°</text></a><polyline fill="none" points="737.8451,77.7311 729.769,77.4902 719.6741,77.1974 709.5797,76.9137 699.4856,76.6391 689.3918,76.3736 679.2984,76.1173 669.2053,75.87 659.1125,75.6319 649.02,75.4029 638.9279,75.1829 628.8359,74.9721 618.7443,74.7704 608.6529,74.5778 598.5617,74.3943 588.4708,74.2199 578.3801,74.0546 568.2896,73.8984 558.1993,73.7513 548.1092,73.6133 538.0193,73.4844 527.9295,73.3646 517.8399,73.2539 507.7504,73.1523 497.661,73.0597 487.5717,72.9763 477.4826,72.9019 467.3935,72.8367 457.3045,72.7805 447.2156,72.7334 437.1267,72.6954 427.0379,72.6665 416.9491,72.6467 406.8604,72.636 396.7716,72.6344 386.6828,72.6418 376.594,72.6584 366.5052,72.684 356.4164,72.7187 346.3275,72.7625 336.2385,72.8154 326.1495,72.8774 316.0604,72.9485 305.9711,73.0286 295.8818,73.1179 285.7924,73.2163 275.7028,73.3237 265.6131,73.4402 255.5232,73.5659 245.4331,73.7006 235.3429,73.8444 225.2525,73.9974 215.1618,74.1594 205.071,74.3305 194.9799,74.5107 184.8886,74.7 174.7971,74.8985 164.7053,75.106 154.6132,75.3226 144.5208,75.5484 134.4281,75.7832 124.3351,76.0272 114.2418,76.2803 104.1482,76.5425 94.0542,76.8138 83.9599,77.0942 73.8652,77.3838 63.7701,77.6824 62.1549,77.7311" stroke="black" stroke-opacity="0.5" stroke-width="1" /><polyline fill="none" points="716.667,732.8232 717.0433,721.8987 717.4187,710.9749 717.7933,700.0518 718.1671,689.1294 718.5402,678.2077 718.9124,667.2865 719.2838,656.3659 719.6544,645.4459 720.0242,634.5264 720.3932,623.6074 720.7614,612.6889 721.1288,601.7709 721.4955,590.8533 721.8613,579.936 722.2263,569.0192 722.5906,558.1027 722.954,547.1865 723.3167,536.2707 723.6785,525.3551 724.0396,514.4397 724.3999,503.5246 724.7594,492.6097 725.1181,481.6949 725.4761,470.7803 725.8332,459.8658 726.1896,448.9514 726.5451,438.037 726.8999,427.1227 727.2539,416.2084 727.6072,405.2941 727.9596,394.3798 728.3113,383.4654 728.6622,372.5509 729.0123,361.6363 729.3617,350.7215 729.7102,339.8066 730.058,328.8915 730.405,317.9762 730.7513,307.0606 731.0968,296.1448 731.4415,285.2286 731.7854,274.3122 732.1286,263.3953 732.4709,252.4782 732.8126,241.5606 733.1534,230.6426 733.4935,219.7241 733.8328,208.8051 734.1714,197.8857 734.5092,186.9657 734.8462,176.0452 735.1825,165.1241 735.518,154.2023 735.8527,143.28 736.1867,132.357 736.5199,121.4333 736.8523,110.5088 737.184,99.5837 737.515,88.6578 737.8451,77.7311" stroke="black" stroke-opacity="0.5" stroke-width="1" /><polyline fill="none" points="716.667,732.8232 709.0981,732.5653 699.6373,732.2518 690.1766,731.9481 680.7162,731.6542 671.2561,731.3699 661.7961,731.0955 652.3363,730.8308 642.8768,730.5759 633.4174,730.3307 623.9582,730.0952 614.4992,729.8695 605.0404,729.6536 595.5817,729.4474 586.1232,729.2509 576.6648,729.0642 567.2066,728.8872 557.7485,728.72 548.2905,728.5625 538.8326,728.4148 529.3749,728.2767 519.9172,728.1485 510.4597,728.0299 501.0022,727.9211 491.5449,727.822 482.0875,727.7327 472.6303,727.6531 463.1731,727.5832 453.716,727.5231 444.2589,727.4727 434.8018,727.432 425.3448,727.4011 415.8878,727.3798 406.4308,727.3684 396.9738,727.3666 387.5168,727.3746 378.0598,727.3923 368.6027,727.4197 359.1457,727.4569 349.6886,727.5038 340.2315,727.5604 330.7743,727.6268 321.3171,727.7029 311.8598,727.7888 302.4024,727.8843 292.945,727.9896 283.4875,728.1047 274.0299,728.2294 264.5722,728.3639 255.1143,728.5082 245.6564,728.6622 236.1984,728.8259 226.7402,728.9994 217.2818,729.1826 207.8234,729.3755 198.3648,729.5782 188.906,729.7907 179.447,730.0128 169.9879,730.2448 160.5286,730.4865 151.0691,730.7379 141.6094,730.9991 132.1495,731.27 122.6894,731.5507 113.2291,731.8412 103.7686,732.1414 94.3078,732.4514 84.8468,732.7711 83.333,732.8232" stroke="black" stroke-opacity="0.5" stroke-width="1" /><polyline fill="none" points="83.333,732.8232 82.9567,721.8987 82.5813,710.9749 82.2067,700.0518 81.8329,689.1294 81.4598,678.2077 81.0876,667.2865 80.7162,656.3659 80.3456,645.4459 79.9758,634.5264 79.6068,623.6074 79.2386,612.6889 78.8712,601.7709 78.5045,590.8533 78.1387,579.936 77.7737,569.0192 77.4094,558.1027 77.046,547.1865 76.6833,536.2707 76.3215,525.3551 75.9604,514.4397 75.6001,503.5246 75.2406,492.6097 74.8819,481.6949 74.5239,470.7803 74.1668,459.8658 73.8104,448.9514 73.4549,438.037 73.1001,427.1227 72.7461,416.2084 72.3928,405.2941 72.0404,394.3798 71.6887,383.4654 71.3378,372.5509 70.9877,361.6363 70.6383,350.7215 70.2898,339.8066 69.942,328.8915 69.595,317.9762 69.2487,307.0606 68.9032,296.1448 68.5585,285.2286 68.2146,274.3122 67.8714,263.3953 67.5291,252.4782 67.1874,241.5606 66.8466,230.6426 66.5065,219.7241 66.1672,208.8051 65.8286,197.8857 65.4908,186.9657 65.1538,176.0452 64.8175,165.1241 64.482,154.2023 64.1473,143.28 63.8133,132.357 63.4801,121.4333 63.1477,110.5088 62.816,99.5837 62.485,88.6578 62.1549,77.7311" stroke="black" stroke-opacity="0.5" stroke-width="1" /></svg>