<?xml version="1.0" encoding="utf-8" ?>
<svg baseProfile="tiny" height="800" version="1.2" width="800" xmlns="http://www.w3.org/2000/svg" xmlns:ev="http://www.w3.org/2001/xml-events" xmlns:xlink="http://www.w3.org/1999/xlink"><defs /><rect fill="none" height="800" stroke="black" stroke-width="2" width="800" x="0" y="0" /><polyline fill="none" points="642.165,729.601 642.3664,718.6767 642.5671,707.7531 642.7673,696.8303 642.9668,685.9081 643.1658,674.9866 643.3641,664.0657 643.5618,653.1454 643.759,642.2257 643.9555,631.3066 644.1515,620.3879 644.3468,609.4698 644.5415,598.5522 644.7357,587.635 644.9292,576.7183 645.1221,565.8019 645.3145,554.8859 645.5062,543.9703 645.6974,533.055 645.8879,522.14 646.0779,511.2253 646.2672,500.3108 646.456,489.3965 646.6442,478.4824 646.8318,467.5685 647.0188,456.6547 647.2051,445.741 647.391,434.8275 647.5762,423.9139 647.7608,413.0005 647.9448,402.087 648.1283,391.1735 648.3111,380.26 648.4934,369.3464 648.675,358.4327 648.8561,347.5189 649.0366,336.605 649.2165,325.6909 649.3958,314.7766 649.5746,303.862 649.7527,292.9473 649.9303,282.0322 650.1072,271.1168 650.2836,260.2012 650.4594,249.2851 650.6347,238.3687 650.8093,227.4519 650.9833,216.5347 651.1568,205.617 651.3297,194.6988 651.502,183.7801 651.6737,172.8609 651.8448,161.9411 652.0154,151.0207 652.1854,140.0997 652.3548,129.1781 652.5236,118.2558 652.6918,107.3329 652.8594,96.4092 653.0265,85.4847 653.193,74.5595" stroke="silver" stroke-opacity="0.5" stroke-width="1" /><polyline fill="none" points="541.2496,728.1264 541.367,717.2052 541.484,706.2847 541.6007,695.365 541.7171,684.4459 541.8331,673.5276 541.9487,662.6098 542.064,651.6927 542.1789,640.7762 542.2935,629.8603 542.4078,618.9448 542.5216,608.0299 542.6352,597.1155 542.7484,586.2016 542.8612,575.2881 542.9737,564.375 543.0858,553.4622 543.1976,542.5499 543.3091,531.6378 543.4202,520.7261 543.5309,509.8147 543.6413,498.9035 543.7514,487.9925 543.8611,477.0818 543.9705,466.1712 544.0795,455.2608 544.1882,444.3505 544.2965,433.4403 544.4045,422.5301 544.5121,411.62 544.6194,400.71 544.7264,389.7999 544.833,378.8898 544.9393,367.9796 545.0452,357.0694 545.1508,346.1591 545.256,335.2486 545.3609,324.3379 545.4654,313.4271 545.5696,302.516 545.6735,291.6048 545.777,280.6932 545.8802,269.7814 545.983,258.8692 546.0855,247.9567 546.1877,237.0439 546.2895,226.1306 546.391,215.2169 546.4921,204.3028 546.5929,193.3882 546.6934,182.4731 546.7935,171.5575 546.8933,160.6413 546.9927,149.7245 547.0918,138.8072 547.1906,127.8892 547.289,116.9706 547.3871,106.0513 547.4848,95.1312 547.5822,84.2105 547.6793,73.289" stroke="silver" stroke-opacity="0.5" stroke-width="1" /><polyline fill="none" points="440.3552,727.4282 440.3887,716.5084 440.4222,705.5894 440.4555,694.6712 440.4888,683.7536 440.5219,672.8367 440.5549,661.9205 440.5878,651.0049 440.6207,640.0899 440.6534,629.1754 440.686,618.2615 440.7186,607.3481 440.751,596.4352 440.7833,585.5228 440.8156,574.6108 440.8477,563.6993 440.8797,552.7881 440.9117,541.8773 440.9435,530.9668 440.9752,520.0566 441.0069,509.1468 441.0384,498.2371 441.0699,487.3278 441.1012,476.4186 441.1324,465.5096 441.1636,454.6007 441.1946,443.692 441.2256,432.7834 441.2564,421.8749 441.2872,410.9664 441.3178,400.058 441.3484,389.1495 441.3788,378.241 441.4092,367.3325 441.4394,356.4239 441.4696,345.5151 441.4996,334.6063 441.5296,323.6973 441.5595,312.7881 441.5892,301.8787 441.6189,290.9691 441.6485,280.0592 441.6779,269.149 441.7073,258.2385 441.7366,247.3277 441.7658,236.4165 441.7949,225.505 441.8238,214.593 441.8527,203.6805 441.8815,192.7676 441.9102,181.8542 441.9388,170.9403 441.9673,160.0258 441.9957,149.1108 442.024,138.1952 442.0522,127.2789 442.0803,116.362 442.1084,105.4444 442.1363,94.5261 442.1641,83.6071 442.1918,72.6874" stroke="silver" stroke-opacity="0.5" stroke-width="1" /><polyline fill="none" points="339.4669,727.5057 339.4166,716.5858 339.3664,705.6667 339.3164,694.7483 339.2666,683.8305 339.2169,672.9135 339.1673,661.9971 339.1179,651.0813 339.0687,640.1661 339.0196,629.2515 338.9706,618.3374 338.9218,607.4239 338.8732,596.5108 338.8247,585.5982 338.7763,574.6861 338.7281,563.7743 338.6801,552.863 338.6322,541.952 338.5844,531.0414 338.5368,520.131 338.4894,509.221 338.442,498.3112 338.3949,487.4016 338.3479,476.4923 338.301,465.5831 338.2543,454.6741 338.2077,443.7652 338.1613,432.8564 338.1151,421.9477 338.0689,411.039 338.023,400.1304 337.9771,389.2218 337.9315,378.3131 337.8859,367.4044 337.8405,356.4956 337.7953,345.5867 337.7502,334.6777 337.7053,323.7685 337.6605,312.8591 337.6158,301.9495 337.5713,291.0397 337.527,280.1296 337.4827,269.2193 337.4387,258.3086 337.3948,247.3976 337.351,236.4862 337.3074,225.5745 337.2639,214.6623 337.2205,203.7497 337.1774,192.8366 337.1343,181.923 337.0914,171.0089 337.0487,160.0942 337.0061,149.179 336.9636,138.2632 336.9213,127.3467 336.8791,116.4296 336.8371,105.5118 336.7952,94.5934 336.7535,83.6742 336.7119,72.7542" stroke="silver" stroke-opacity="0.5" stroke-width="1" /><polyline fill="none" points="238.5695,728.3592 238.4353,717.4375 238.3015,706.5165 238.1682,695.5963 238.0352,684.6768 237.9026,673.7579 237.7704,662.8397 237.6387,651.922 237.5073,641.005 237.3763,630.0886 237.2458,619.1726 237.1156,608.2572 236.9858,597.3423 236.8565,586.4279 236.7275,575.5138 236.5989,564.6002 236.4707,553.687 236.343,542.7741 236.2156,531.8616 236.0886,520.9493 235.962,510.0374 235.8358,499.1256 235.71,488.2142 235.5846,477.3029 235.4596,466.3918 235.335,455.4808 235.2108,444.57 235.087,433.6592 234.9636,422.7486 234.8406,411.838 234.7179,400.9274 234.5957,390.0167 234.4738,379.1061 234.3524,368.1954 234.2313,357.2846 234.1107,346.3737 233.9904,335.4627 233.8705,324.5515 233.751,313.6401 233.6319,302.7285 233.5132,291.8167 233.3949,280.9046 233.2769,269.9922 233.1594,259.0795 233.0422,248.1664 232.9255,237.253 232.8091,226.3392 232.6931,215.4249 232.5775,204.5102 232.4623,193.5951 232.3475,182.6794 232.2331,171.7632 232.119,160.8465 232.0054,149.9292 231.8921,139.0112 231.7792,128.0927 231.6668,117.1735 231.5547,106.2536 231.4429,95.333 231.3316,84.4116 231.2207,73.4895" stroke="silver" stroke-opacity="0.5" stroke-width="1" /><polyline fill="none" points="137.648,729.9892 137.4299,719.0641 137.2124,708.1397 136.9955,697.216 136.7793,686.293 136.5637,675.3706 136.3488,664.4489 136.1346,653.5278 135.921,642.6073 135.7081,631.6873 135.4958,620.7678 135.2841,609.8489 135.0732,598.9304 134.8628,588.0124 134.6531,577.0948 134.4441,566.1776 134.2357,555.2607 134.0279,544.3442 133.8208,533.4281 133.6144,522.5122 133.4085,511.5966 133.2034,500.6812 132.9988,489.7661 132.795,478.8511 132.5917,467.9363 132.3891,457.0216 132.1872,446.1071 131.9859,435.1926 131.7852,424.2782 131.5852,413.3638 131.3858,402.4495 131.187,391.5351 130.9889,380.6207 130.7914,369.7062 130.5946,358.7916 130.3984,347.8769 130.2028,336.9621 130.0079,326.047 129.8136,315.1318 129.62,304.2164 129.4269,293.3007 129.2346,282.3847 129.0428,271.4684 128.8517,260.5518 128.6612,249.6348 128.4714,238.7175 128.2822,227.7997 128.0936,216.8815 127.9056,205.9629 127.7183,195.0438 127.5316,184.1241 127.3456,173.204 127.1602,162.2832 126.9754,151.3619 126.7912,140.44 126.6077,129.5174 126.4248,118.5942 126.2425,107.6702 126.0609,96.7456 125.8798,85.8202 125.6995,74.894" stroke="silver" stroke-opacity="0.5" stroke-width="1" /><polyline fill="none" points="723.9924,687.6328 713.8626,687.3902 703.7334,687.1553 693.6045,686.9282 683.4762,686.7087 673.3482,686.497 663.2207,686.293 653.0936,686.0967 642.9668,685.9081 632.8404,685.7272 622.7144,685.554 612.5887,685.3886 602.4634,685.2308 592.3383,685.0807 582.2135,684.9384 572.089,684.8037 561.9648,684.6768 551.8408,684.5575 541.7171,684.4459 531.5935,684.3421 521.4702,684.2459 511.347,684.1575 501.224,684.0767 491.1012,684.0036 480.9785,683.9382 470.8559,683.8805 460.7334,683.8305 450.6111,683.7882 440.4888,683.7536 430.3665,683.7267 420.2443,683.7075 410.1221,683.6959 400.0,683.6921 389.8779,683.6959 379.7557,683.7075 369.6335,683.7267 359.5112,683.7536 349.3889,683.7882 339.2666,683.8305 329.1441,683.8805 319.0215,683.9382 308.8988,684.0036 298.776,684.0767 288.653,684.1575 278.5298,684.2459 268.4065,684.3421 258.2829,684.4459 248.1592,684.5575 238.0352,684.6768 227.911,684.8037 217.7865,684.9384 207.6617,685.0807 197.5366,685.2308 187.4113,685.3886 177.2856,685.554 167.1596,685.7272 157.0332,685.9081 146.9064,686.0967 136.7793,686.293 126.6518,686.497 116.5238,686.7087 106.3955,686.9282 96.2666,687.1553 86.1374,687.3902 76.0076,687.6328" stroke="silver" stroke-opacity="0.5" stroke-width="1" /><polyline fill="none" points="726.0932,600.2469 715.8976,600.0085 705.7026,599.7777 695.508,599.5545 685.3138,599.3389 675.1201,599.1309 664.9268,598.9304 654.734,598.7375 644.5415,598.5522 634.3494,598.3745 624.1577,598.2043 613.9664,598.0417 603.7753,597.8867 593.5846,597.7393 583.3942,597.5994 573.204,597.4671 563.0142,597.3423 552.8246,597.2251 542.6352,597.1155 532.446,597.0135 522.2571,596.919 512.0683,596.8321 501.8797,596.7527 491.6913,596.6809 481.503,596.6166 471.3149,596.5599 461.1268,596.5108 450.9389,596.4693 440.751,596.4352 430.5632,596.4088 420.3754,596.3899 410.1877,596.3786 400.0,596.3748 389.8123,596.3786 379.6246,596.3899 369.4368,596.4088 359.249,596.4352 349.0611,596.4693 338.8732,596.5108 328.6851,596.5599 318.497,596.6166 308.3087,596.6809 298.1203,596.7527 287.9317,596.8321 277.7429,596.919 267.554,597.0135 257.3648,597.1155 247.1754,597.2251 236.9858,597.3423 226.796,597.4671 216.6058,597.5994 206.4154,597.7393 196.2247,597.8867 186.0336,598.0417 175.8423,598.2043 165.6506,598.3745 155.4585,598.5522 145.266,598.7375 135.0732,598.9304 124.8799,599.1309 114.6862,599.3389 104.492,599.5545 94.2974,599.7777 84.1024,600.0085 73.9068,600.2469" stroke="silver" stroke-opacity="0.5" stroke-width="1" /><polyline fill="none" points="728.1429,512.8892 717.8831,512.6551 707.6238,512.4285 697.365,512.2094 687.1067,511.9977 676.8489,511.7934 666.5915,511.5966 656.3345,511.4072 646.0779,511.2253 635.8217,511.0507 625.5659,510.8837 615.3104,510.724 605.0553,510.5718 594.8005,510.4271 584.5461,510.2897 574.2919,510.1598 564.038,510.0374 553.7843,509.9223 543.5309,509.8147 533.2778,509.7145 523.0248,509.6217 512.7721,509.5364 502.5195,509.4584 492.2671,509.3879 482.0148,509.3249 471.7627,509.2692 461.5106,509.221 451.2587,509.1802 441.0069,509.1468 430.7551,509.1208 420.5034,509.1022 410.2517,509.0911 400.0,509.0874 389.7483,509.0911 379.4966,509.1022 369.2449,509.1208 358.9931,509.1468 348.7413,509.1802 338.4894,509.221 328.2373,509.2692 317.9852,509.3249 307.7329,509.3879 297.4805,509.4584 287.2279,509.5364 276.9752,509.6217 266.7222,509.7145 256.4691,509.8147 246.2157,509.9223 235.962,510.0374 225.7081,510.1598 215.4539,510.2897 205.1995,510.4271 194.9447,510.5718 184.6896,510.724 174.4341,510.8837 164.1783,511.0507 153.9221,511.2253 143.6655,511.4072 133.4085,511.5966 123.1511,511.7934 112.8933,511.9977 102.635,512.2094 92.3762,512.4285 82.1169,512.6551 71.8571,512.8892" stroke="silver" stroke-opacity="0.5" stroke-width="1" /><polyline fill="none" points="730.1418,425.5463 719.8194,425.3167 709.4975,425.0944 699.1761,424.8794 688.8552,424.6717 678.5348,424.4713 668.2148,424.2782 657.8953,424.0924 647.5762,423.9139 637.2575,423.7427 626.9391,423.5788 616.6212,423.4222 606.3036,423.2729 595.9863,423.1309 585.6694,422.9962 575.3528,422.8687 565.0364,422.7486 554.7203,422.6357 544.4045,422.5301 534.0889,422.4318 523.7735,422.3408 513.4584,422.2571 503.1434,422.1806 492.8286,422.1115 482.5139,422.0496 472.1994,421.995 461.8849,421.9477 451.5706,421.9076 441.2564,421.8749 430.9422,421.8494 420.6281,421.8312 410.3141,421.8203 400.0,421.8167 389.6859,421.8203 379.3719,421.8312 369.0578,421.8494 358.7436,421.8749 348.4294,421.9076 338.1151,421.9477 327.8006,421.995 317.4861,422.0496 307.1714,422.1115 296.8566,422.1806 286.5416,422.2571 276.2265,422.3408 265.9111,422.4318 255.5955,422.5301 245.2797,422.6357 234.9636,422.7486 224.6472,422.8687 214.3306,422.9962 204.0137,423.1309 193.6964,423.2729 183.3788,423.4222 173.0609,423.5788 162.7425,423.7427 152.4238,423.9139 142.1047,424.0924 131.7852,424.2782 121.4652,424.4713 111.1448,424.6717 100.8239,424.8794 90.5025,425.0944 80.1806,425.3167 69.8582,425.5463" stroke="silver" stroke-opacity="0.5" stroke-width="1" /><polyline fill="none" points="732.0902,338.205 721.7068,337.98 711.3238,337.7621 700.9414,337.5513 690.5595,337.3477 680.1781,337.1513 669.7972,336.9621 659.4167,336.7799 649.0366,336.605 638.657,336.4372 628.2777,336.2765 617.8988,336.123 607.5203,335.9767 597.1422,335.8375 586.7644,335.7054 576.3868,335.5805 566.0096,335.4627 555.6327,335.3521 545.256,335.2486 534.8795,335.1522 524.5033,335.063 514.1273,334.9809 503.7515,334.906 493.3759,334.8382 483.0004,334.7776 472.625,334.724 462.2498,334.6777 451.8747,334.6384 441.4996,334.6063 431.1247,334.5813 420.7497,334.5635 410.3749,334.5528 400.0,334.5492 389.6251,334.5528 379.2503,334.5635 368.8753,334.5813 358.5004,334.6063 348.1253,334.6384 337.7502,334.6777 327.375,334.724 316.9996,334.7776 306.6241,334.8382 296.2485,334.906 285.8727,334.9809 275.4967,335.063 265.1205,335.1522 254.744,335.2486 244.3673,335.3521 233.9904,335.4627 223.6132,335.5805 213.2356,335.7054 202.8578,335.8375 192.4797,335.9767 182.1012,336.123 171.7223,336.2765 161.343,336.4372 150.9634,336.605 140.5833,336.7799 130.2028,336.9621 119.8219,337.1513 109.4405,337.3477 99.0586,337.5513 88.6762,337.7621 78.2932,337.98 67.9098,338.205" stroke="silver" stroke-opacity="0.5" stroke-width="1" /><polyline fill="none" points="733.9885,250.8521 723.5456,250.6317 713.1032,250.4183 702.6613,250.2119 692.22,250.0125 681.7791,249.8202 671.3388,249.6348 660.8989,249.4565 650.4594,249.2851 640.0204,249.1208 629.5818,248.9635 619.1436,248.8131 608.7057,248.6698 598.2683,248.5334 587.8311,248.4041 577.3943,248.2818 566.9578,248.1664 556.5215,248.0581 546.0855,247.9567 535.6498,247.8624 525.2143,247.775 514.7791,247.6946 504.344,247.6212 493.9091,247.5548 483.4743,247.4954 473.0397,247.443 462.6052,247.3976 452.1709,247.3592 441.7366,247.3277 431.3024,247.3033 420.8682,247.2858 410.4341,247.2753 400.0,247.2718 389.5659,247.2753 379.1318,247.2858 368.6976,247.3033 358.2634,247.3277 347.8291,247.3592 337.3948,247.3976 326.9603,247.443 316.5257,247.4954 306.0909,247.5548 295.656,247.6212 285.2209,247.6946 274.7857,247.775 264.3502,247.8624 253.9145,247.9567 243.4785,248.0581 233.0422,248.1664 222.6057,248.2818 212.1689,248.4041 201.7317,248.5334 191.2943,248.6698 180.8564,248.8131 170.4182,248.9635 159.9796,249.1208 149.5406,249.2851 139.1011,249.4565 128.6612,249.6348 118.2209,249.8202 107.78,250.0125 97.3387,250.2119 86.8968,250.4183 76.4544,250.6317 66.0115,250.8521" stroke="silver" stroke-opacity="0.5" stroke-width="1" /><polyline fill="none" points="735.8368,163.4743 725.336,163.2587 714.8357,163.0499 704.336,162.8479 693.8367,162.6528 683.338,162.4646 672.8398,162.2832 662.3421,162.1087 651.8448,161.9411 641.348,161.7803 630.8516,161.6263 620.3556,161.4792 609.86,161.339 599.3647,161.2056 588.8698,161.079 578.3752,160.9593 567.881,160.8465 557.387,160.7405 546.8933,160.6413 536.3998,160.549 525.9066,160.4635 515.4136,160.3848 504.9208,160.313 494.4282,160.2481 483.9358,160.19 473.4435,160.1387 462.9513,160.0942 452.4593,160.0566 441.9673,160.0258 431.4754,160.0019 420.9836,159.9848 410.4918,159.9746 400.0,159.9711 389.5082,159.9746 379.0164,159.9848 368.5246,160.0019 358.0327,160.0258 347.5407,160.0566 337.0487,160.0942 326.5565,160.1387 316.0642,160.19 305.5718,160.2481 295.0792,160.313 284.5864,160.3848 274.0934,160.4635 263.6002,160.549 253.1067,160.6413 242.613,160.7405 232.119,160.8465 221.6248,160.9593 211.1302,161.079 200.6353,161.2056 190.14,161.339 179.6444,161.4792 169.1484,161.6263 158.652,161.7803 148.1552,161.9411 137.6579,162.1087 127.1602,162.2832 116.662,162.4646 106.1633,162.6528 95.664,162.8479 85.1643,163.0499 74.664,163.2587 64.1632,163.4743" stroke="silver" stroke-opacity="0.5" stroke-width="1" /><polyline fill="none" points="737.6355,76.0583 727.0783,75.8475 716.5216,75.6434 705.9656,75.446 695.41,75.2553 684.855,75.0713 674.3005,74.894 663.7465,74.7234 653.193,74.5595 642.6399,74.4024 632.0873,74.2519 621.535,74.1081 610.9832,73.971 600.4317,73.8406 589.8806,73.7169 579.3298,73.5999 568.7793,73.4895 558.2292,73.3859 547.6793,73.289 537.1297,73.1987 526.5803,73.1152 516.0311,73.0383 505.4822,72.9681 494.9335,72.9046 484.3849,72.8478 473.8364,72.7976 463.2881,72.7542 452.7399,72.7174 442.1918,72.6874 431.6438,72.664 421.0958,72.6473 410.5479,72.6372 400.0,72.6339 389.4521,72.6372 378.9042,72.6473 368.3562,72.664 357.8082,72.6874 347.2601,72.7174 336.7119,72.7542 326.1636,72.7976 315.6151,72.8478 305.0665,72.9046 294.5178,72.9681 283.9689,73.0383 273.4197,73.1152 262.8703,73.1987 252.3207,73.289 241.7708,73.3859 231.2207,73.4895 220.6702,73.5999 210.1194,73.7169 199.5683,73.8406 189.0168,73.971 178.465,74.1081 167.9127,74.2519 157.3601,74.4024 146.807,74.5595 136.2535,74.7234 125.6995,74.894 115.145,75.0713 104.59,75.2553 94.0344,75.446 83.4784,75.6434 72.9217,75.8475 62.3645,76.0583" stroke="silver" stroke-opacity="0.5" stroke-width="1" /><circle cx="735.5353" cy="133.3891" fill="black" r="0.738" stroke="none" /><circle cx="723.5919" cy="419.1084" fill="black" r="0.738" stroke="none" /><circle cx="727.4184" cy="233.3198" fill="black" r="0.738" stroke="none" /><circle cx="715.8386" cy="686.1252" fill="black" r="0.738" stroke="none" /><circle cx="710.5341" cy="555.312" fill="black" r="0.738" stroke="none" /><circle cx="711.4364" cy="207.9989" fill="black" r="0.738" stroke="none" /><circle cx="695.0091" cy="700.3374" fill="black" r="0.738" stroke="none" /><circle cx="695.9514" cy="635.4875" fill="black" r="0.738" stroke="none" /><circle cx="695.3744" cy="635.8245" fill="black" r="1.17" stroke="none" /><circle cx="702.6282" cy="208.5271" fill="black" r="0.738" stroke="none" /><circle cx="689.7868" cy="281.7701" fill="black" r="0.936" stroke="none" /><circle cx="683.6516" cy="297.9052" fill="black" r="0.738" stroke="none" /><circle cx="668.9892" cy="721.467" fill="black" r="0.738" stroke="none" /><circle cx="668.745" cy="721.5495" fill="black" r="0.738" stroke="none" /><circle cx="676.5365" cy="309.0438" fill="black" r="0.738" stroke="none" /><circle cx="668.3319" cy="587.4626" fill="black" r="0.738" stroke="none" /><circle cx="676.1958" cy="113.0436" fill="black" r="0.738" stroke="none" /><circle cx="654.1034" cy="480.0102" fill="black" r="0.738" stroke="none" /><circle cx="646.4294" cy="687.108" fill="black" r="0.738" stroke="none" /><circle cx="645.443" cy="524.1412" fill="black" r="0.738" stroke="none" /><circle cx="644.1507" cy="209.0892" fill="black" r="0.738" stroke="none" /><circle cx="640.2657" cy="391.2183" fill="black" r="0.738" stroke="none" /><circle cx="613.6535" cy="607.6457" fill="black" r="0.738" stroke="none" /><circle cx="616.5449" cy="406.2196" fill="black" r="0.738" stroke="none" /><circle cx="619.0065" cy="155.6946" fill="black" r="0.738" stroke="none" /><circle cx="609.0041" cy="618.5805" fill="black" r="0.738" stroke="none" /><circle cx="592.3206" cy="686.3038" fill="black" r="0.738" stroke="none" /><circle cx="591.6642" cy="374.5314" fill="black" r="0.738" stroke="none" /><circle cx="587.2815" cy="670.1553" fill="black" r="0.738" stroke="none" /><circle cx="594.4719" cy="78.1397" fill="black" r="0.738" stroke="none" /><circle cx="584.9128" cy="303.6404" fill="black" r="0.738" stroke="none" /><circle cx="581.2916" cy="300.2792" fill="black" r="0.738" stroke="none" /><circle cx="576.5425" cy="212.6438" fill="black" r="0.738" stroke="none" /><circle cx="572.7587" cy="191.2056" fill="black" r="0.738" stroke="none" /><circle cx="565.2521" cy="113.8222" fill="black" r="0.738" stroke="none" /><circle cx="563.3684" cy="116.9484" fill="black" r="0.738" stroke="none" /><circle cx="555.3868" cy="326.9691" fill="black" r="0.738" stroke="none" /><circle cx="554.8054" cy="326.9631" fill="black" r="0.738" stroke="none" /><circle cx="546.8236" cy="386.8527" fill="black" r="0.738" stroke="none" /><circle cx="537.9585" cy="475.2779" fill="black" r="0.738" stroke="none" /><circle cx="537.9434" cy="389.8224" fill="black" r="0.738" stroke="none" /><circle cx="526.5537" cy="545.8816" fill="black" r="0.738" stroke="none" /><circle cx="520.0968" cy="719.5278" fill="black" r="0.738" stroke="none" /><circle cx="518.388" cy="455.2892" fill="black" r="0.738" stroke="none" /><circle cx="512.2953" cy="686.9607" fill="black" r="0.936" stroke="none" /><circle cx="515.6565" cy="253.201" fill="black" r="0.738" stroke="none" /><circle cx="512.5698" cy="182.8073" fill="black" r="1.17" stroke="none" /><circle cx="508.411" cy="202.5993" fill="black" r="0.936" stroke="none" /><circle cx="496.399" cy="528.8809" fill="black" r="0.738" stroke="none" /><circle cx="496.1559" cy="109.3405" fill="black" r="0.738" stroke="none" /><circle cx="494.3034" cy="195.6115" fill="black" r="0.738" stroke="none" /><circle cx="477.8339" cy="611.176" fill="black" r="0.738" stroke="none" /><circle cx="473.6428" cy="692.4555" fill="black" r="0.738" stroke="none" /><circle cx="465.4913" cy="569.9043" fill="black" r="0.738" stroke="none" /><circle cx="460.2747" cy="659.8113" fill="black" r="0.738" stroke="none" /><circle cx="459.9483" cy="660.2465" fill="black" r="0.738" stroke="none" /><circle cx="455.2729" cy="335.9596" fill="black" r="0.738" stroke="none" /><circle cx="454.6341" cy="505.8761" fill="black" r="0.738" stroke="none" /><circle cx="444.7169" cy="554.5457" fill="black" r="0.738" stroke="none" /><circle cx="444.556" cy="134.3594" fill="black" r="0.738" stroke="none" /><circle cx="437.5862" cy="339.5705" fill="black" r="0.738" stroke="none" /><circle cx="437.3402" cy="200.4391" fill="black" r="0.738" stroke="none" /><circle cx="437.2737" cy="193.1054" fill="black" r="0.738" stroke="none" /><circle cx="418.6152" cy="690.5175" fill="black" r="0.738" stroke="none" /><circle cx="416.7813" cy="244.2258" fill="black" r="0.738" stroke="none" /><circle cx="413.7769" cy="335.6028" fill="black" r="0.738" stroke="none" /><circle cx="409.1915" cy="623.4424" fill="black" r="0.738" stroke="none" /><circle cx="404.1297" cy="92.9006" fill="black" r="0.738" stroke="none" /><circle cx="403.5222" cy="173.8544" fill="black" r="0.936" stroke="none" /><circle cx="395.877" cy="431.0675" fill="black" r="0.936" stroke="none" /><circle cx="395.4835" cy="490.9349" fill="black" r="1.476" stroke="none" /><circle cx="392.7141" cy="195.8571" fill="black" r="0.738" stroke="none" /><circle cx="390.9578" cy="342.4062" fill="black" r="0.738" stroke="none" /><circle cx="390.753" cy="135.087" fill="black" r="0.738" stroke="none" /><circle cx="388.0967" cy="591.7531" fill="black" r="0.738" stroke="none" /><circle cx="380.8907" cy="447.3987" fill="black" r="0.738" stroke="none" /><circle cx="377.809" cy="681.7891" fill="black" r="0.738" stroke="none" /><circle cx="373.5512" cy="531.2812" fill="black" r="0.738" stroke="none" /><circle cx="372.8771" cy="478.3926" fill="black" r="0.936" stroke="none" /><circle cx="355.0554" cy="292.2877" fill="black" r="0.738" stroke="none" /><circle cx="352.2905" cy="724.832" fill="black" r="0.738" stroke="none" /><circle cx="348.4651" cy="160.4029" fill="black" r="0.738" stroke="none" /><circle cx="348.9171" cy="372.0751" fill="black" r="0.936" stroke="none" /><circle cx="346.7261" cy="314.3956" fill="black" r="0.936" stroke="none" /><circle cx="340.5429" cy="389.7348" fill="black" r="0.738" stroke="none" /><circle cx="334.0646" cy="86.1307" fill="black" r="0.738" stroke="none" /><circle cx="328.3331" cy="528.1222" fill="black" r="0.738" stroke="none" /><circle cx="325.5976" cy="241.7754" fill="black" r="0.738" stroke="none" /><circle cx="323.0315" cy="591.2648" fill="black" r="0.738" stroke="none" /><circle cx="315.7607" cy="628.6773" fill="black" r="0.738" stroke="none" /><circle cx="310.5228" cy="389.7115" fill="black" r="0.738" stroke="none" /><circle cx="311.4812" cy="718.928" fill="black" r="1.17" stroke="none" /><circle cx="302.5663" cy="509.5098" fill="black" r="0.738" stroke="none" /><circle cx="294.2509" cy="123.3752" fill="black" r="0.738" stroke="none" /><circle cx="282.0124" cy="264.9165" fill="black" r="0.738" stroke="none" /><circle cx="283.6311" cy="646.7302" fill="black" r="0.738" stroke="none" /><circle cx="270.9452" cy="584.8442" fill="black" r="0.738" stroke="none" /><circle cx="265.1799" cy="351.0382" fill="black" r="0.738" stroke="none" /><circle cx="262.3055" cy="389.9073" fill="black" r="0.738" stroke="none" /><circle cx="254.9625" cy="647.0078" fill="black" r="0.738" stroke="none" /><circle cx="246.5904" cy="437.3743" fill="black" r="0.738" stroke="none" /><circle cx="240.85" cy="586.0319" fill="black" r="0.738" stroke="none" /><circle cx="238.8821" cy="470.718" fill="black" r="0.738" stroke="none" /><circle cx="228.9631" cy="507.9374" fill="black" r="0.738" stroke="none" /><circle cx="217.9352" cy="198.209" fill="black" r="0.738" stroke="none" /><circle cx="215.5644" cy="349.5583" fill="black" r="0.936" stroke="none" /><circle cx="211.5051" cy="106.3839" fill="black" r="0.738" stroke="none" /><circle cx="210.1649" cy="121.6026" fill="black" r="0.936" stroke="none" /><circle cx="207.419" cy="354.8118" fill="black" r="0.738" stroke="none" /><circle cx="207.7149" cy="544.3606" fill="black" r="0.738" stroke="none" /><circle cx="206.7223" cy="715.0681" fill="black" r="0.738" stroke="none" /><circle cx="193.9187" cy="87.9808" fill="black" r="0.738" stroke="none" /><circle cx="193.0753" cy="87.9914" fill="black" r="0.738" stroke="none" /><circle cx="188.0614" cy="358.3039" fill="black" r="0.738" stroke="none" /><circle cx="185.9887" cy="574.1093" fill="black" r="0.738" stroke="none" /><circle cx="172.9337" cy="410.0459" fill="black" r="0.738" stroke="none" /><circle cx="167.4015" cy="85.9722" fill="black" r="0.936" stroke="none" /><circle cx="168.6945" cy="444.9547" fill="black" r="0.738" stroke="none" /><circle cx="159.0615" cy="211.0492" fill="black" r="0.738" stroke="none" /><circle cx="151.7035" cy="584.8157" fill="black" r="0.738" stroke="none" /><circle cx="146.213" cy="488.5642" fill="black" r="0.738" stroke="none" /><circle cx="143.6087" cy="508.2637" fill="black" r="0.738" stroke="none" /><circle cx="133.7789" cy="260.6412" fill="black" r="0.738" stroke="none" /><circle cx="137.6653" cy="690.1218" fill="black" r="0.738" stroke="none" /><circle cx="129.0374" cy="680.2415" fill="black" r="0.738" stroke="none" /><circle cx="119.8722" cy="258.003" fill="black" r="0.738" stroke="none" /><circle cx="113.2877" cy="114.0108" fill="black" r="0.738" stroke="none" /><circle cx="110.7717" cy="138.4448" fill="black" r="0.738" stroke="none" /><circle cx="113.0469" cy="382.3544" fill="black" r="0.738" stroke="none" /><circle cx="113.5894" cy="632.573" fill="black" r="0.738" stroke="none" /><circle cx="93.1596" cy="337.5828" fill="black" r="0.738" stroke="none" /><circle cx="95.6684" cy="512.7943" fill="black" r="0.738" stroke="none" /><circle cx="82.6886" cy="143.9526" fill="black" r="0.738" stroke="none" /><circle cx="91.6712" cy="577.1993" fill="black" r="0.738" stroke="none" /><circle cx="78.3191" cy="389.2705" fill="black" r="0.738" stroke="none" /><circle cx="72.9363" cy="206.0414" fill="black" r="0.738" stroke="none" /><circle cx="69.3429" cy="112.302" fill="black" r="0.738" stroke="none" /><circle cx="13.77" cy="786.23" fill="black" r="4.59" stroke="none" /><circle cx="13.77" cy="786.23" fill="black" r="4.59" stroke="none" /><text fill="black" font-family="monospace" font-size="12" x="10.77" y="775.64">1</text><circle cx="37.77" cy="786.23" fill="black" r="3.654" stroke="none" /><circle cx="37.77" cy="786.23" fill="black" r="3.654" stroke="none" /><text fill="black" font-family="monospace" font-size="12" x="34.769999999999996" y="775.64">2</text><circle cx="61.77" cy="786.23" fill="black" r="2.916" stroke="none" /><circle cx="61.77" cy="786.23" fill="black" r="2.916" stroke="none" /><text fill="black" font-family="monospace" font-size="12" x="58.769999999999996" y="775.64">3</text><circle cx="85.77" cy="786.23" fill="black" r="2.322" stroke="none" /><circle cx="85.77" cy="786.23" fill="black" r="2.322" stroke="none" /><text fill="black" font-family="monospace" font-size="12" x="82.77" y="775.64">4</text><circle cx="109.77" cy="786.23" fill="black" r="1.854" stroke="none" /><circle cx="109.77" cy="786.23" fill="black" r="1.854" stroke="none" /><text fill="black" font-family="monospace" font-size="12" x="106.77" y="775.64">5</text><circle cx="133.77" cy="786.23" fill="black" r="1.476" stroke="none" /><circle cx="133.77" cy="786.23" fill="black" r="1.476" stroke="none" /><text fill="black" font-family="monospace" font-size="12" x="130.77" y="775.64">6</text><circle cx="157.77" cy="786.23" fill="black" r="1.17" stroke="none" /><circle cx="157.77" cy="786.23" fill="black" r="1.17" stroke="none" /><text fill="black" font-family="monospace" font-size="12" x="154.77" y="775.64">7</text><circle cx="181.77" cy="786.23" fill="black" r="0.936" stroke="none" /><circle cx="181.77" cy="786.23" fill="black" r="0.936" stroke="none" /><text fill="black" font-family="monospace" font-size="12" x="178.77" y="775.64">8</text><circle cx="205.77" cy="786.23" fill="black" r="0.738" stroke="none" /><circle cx="205.77" cy="786.23" fill="black" r="0.738" stroke="none" /><text fill="black" font-family="monospace" font-size="12" x="202.77" y="775.64">9</text><text fill="gray" fill-opacity="0.5" font-family="monospace" font-size="12" x="653.1930024076987" y="74.55954103107132">15h00m</text><text fill="gray" fill-opacity="0.5" font-family="monospace" font-size="12" x="547.679289945296" y="73.28897759160554">15h05m</text><text fill="gray" fill-opacity="0.5" font-family="monospace" font-size="12" x="442.19183275626153" y="72.68736525964624">15h10m</text><text fill="gray" fill-opacity="0.5" font-family="monospace" font-size="12" x="336.71187586748806" y="72.75420366359111">15h15m</text><text fill="gray" fill-opacity="0.5" font-family="monospace" font-size="12" x="231.22066832725866" y="73.48954838790456">15h20m</text><text fill="gray" fill-opacity="0.5" font-family="monospace" font-size="12" x="125.69945315170861" y="74.89401106597882">15h25m</text><text fill="gray" fill-opacity="0.5" font-family="monospace" font-size="12" x="76.00761266269632" y="687.6327966096526">-22°</text><text fill="gray" fill-opacity="0.5" font-family="monospace" font-size="12" x="73.9067891285718" y="600.2468986105309">-21°</text><text fill="gray" fill-opacity="0.5" font-family="monospace" font-size="12" x="71.85710180537563" y="512.8891501128414">-20°</text><text fill="gray" fill-opacity="0.5" font-family="monospace" font-size="12" x="69.85819999837872" y="425.5462805813149">-19°</text><text fill="gray" fill-opacity="0.5" font-family="monospace" font-size="12" x="67.90976392210877" y="338.2050285012752">-18°</text><text fill="gray" fill-opacity="0.5" font-family="monospace" font-size="12" x="66.01150449154" y="250.85213333648935">-17°</text><text fill="gray" fill-opacity="0.5" font-family="monospace" font-size="12" x="64.16316315295313" y="163.474327488269">-16°</text><text fill="gray" fill-opacity="0.5" font-family="monospace" font-size="12" x="62.36451175425992" y="76.05832824548338">-15°</text><text fill="black" font-family="monospace" font-size="12" x="12" y="48">&gt;&gt; No.297 14h56m 15h28m -22.5°-15.0°</text><a target="_self" xlink:href="hip019.svg"><text fill="black" font-family="monospace" font-size="12" x="12" y="36">&gt; No.19 13h20m 16h00m -22.5°+0.0°</text></a><a target="_self" xlink:href="hip001.svg"><text fill="black" font-family="monospace" font-size="12" x="12" y="24">No.1 00h 24h -90.0°+0.0°</text></a><polyline fill="none" points="737.6355,76.0583 727.0783,75.8475 716.5216,75.6434 705.9656,75.446 695.41,75.2553 684.855,75.0713 674.3005,74.894 663.7465,74.7234 653.193,74.5595 642.6399,74.4024 632.0873,74.2519 621.535,74.1081 610.9832,73.971 600.4317,73.8406 589.8806,73.7169 579.3298,73.5999 568.7793,73.4895 558.2292,73.3859 547.6793,73.289 537.1297,73.1987 526.5803,73.1152 516.0311,73.0383 505.4822,72.9681 494.9335,72.9046 484.3849,72.8478 473.8364,72.7976 463.2881,72.7542 452.7399,72.7174 442.1918,72.6874 431.6438,72.664 421.0958,72.6473 410.5479,72.6372 400.0,72.6339 389.4521,72.6372 378.9042,72.6473 368.3562,72.664 357.8082,72.6874 347.2601,72.7174 336.7119,72.7542 326.1636,72.7976 315.6151,72.8478 305.0665,72.9046 294.5178,72.9681 283.9689,73.0383 273.4197,73.1152 262.8703,73.1987 252.3207,73.289 241.7708,73.3859 231.2207,73.4895 220.6702,73.5999 210.1194,73.7169 199.5683,73.8406 189.0168,73.971 178.465,74.1081 167.9127,74.2519 157.3601,74.4024 146.807,74.5595 136.2535,74.7234 125.6995,74.894 115.145,75.0713 104.59,75.2553 94.0344,75.446 83.4784,75.6434 72.9217,75.8475 62.3645,76.0583" stroke="black" stroke-opacity="0.5" stroke-width="1" /><polyline fill="none" points="722.9227,731.3405 723.1913,720.4125 723.4591,709.4852 723.7262,698.5587 723.9924,687.6328 724.2578,676.7076 724.5224,665.783 724.7862,654.8589 725.0492,643.9355 725.3114,633.0126 725.5728,622.0902 725.8334,611.1683 726.0932,600.2469 726.3522,589.3259 726.6104,578.4053 726.8678,567.4852 727.1244,556.5653 727.3802,545.6458 727.6353,534.7267 727.8895,523.8078 728.1429,512.8892 728.3955,501.9707 728.6474,491.0526 728.8984,480.1345 729.1487,469.2167 729.3981,458.299 729.6468,447.3813 729.8947,436.4638 730.1418,425.5463 730.3881,414.6288 730.6336,403.7113 730.8784,392.7938 731.1223,381.8763 731.3655,370.9587 731.6078,360.0409 731.8494,349.123 732.0902,338.205 732.3303,327.2868 732.5695,316.3684 732.8079,305.4498 733.0456,294.5309 733.2825,283.6117 733.5186,272.6922 733.7539,261.7723 733.9885,250.8521 734.2223,239.9315 734.4553,229.0105 734.6875,218.0891 734.9189,207.1672 735.1495,196.2448 735.3794,185.3218 735.6085,174.3984 735.8368,163.4743 736.0644,152.5497 736.2911,141.6244 736.5171,130.6985 736.7424,119.7719 736.9668,108.8446 737.1905,97.9166 737.4134,86.9879 737.6355,76.0583" stroke="black" stroke-opacity="0.5" stroke-width="1" /><polyline fill="none" points="722.9227,731.3405 712.8264,731.0958 702.7307,730.8589 692.6354,730.6298 682.5405,730.4085 672.446,730.195 662.352,729.9892 652.2583,729.7912 642.165,729.601 632.0721,729.4186 621.9795,729.244 611.8873,729.0771 601.7953,728.918 591.7037,728.7666 581.6124,728.623 571.5213,728.4872 561.4305,728.3592 551.3399,728.2389 541.2496,728.1264 531.1594,728.0217 521.0695,727.9247 510.9797,727.8355 500.8901,727.754 490.8007,727.6803 480.7114,727.6143 470.6222,727.5562 460.5331,727.5057 450.4441,727.4631 440.3552,727.4282 430.2664,727.401 420.1775,727.3816 410.0888,727.37 400.0,727.3661 389.9112,727.37 379.8225,727.3816 369.7336,727.401 359.6448,727.4282 349.5559,727.4631 339.4669,727.5057 329.3778,727.5562 319.2886,727.6143 309.1993,727.6803 299.1099,727.754 289.0203,727.8355 278.9305,727.9247 268.8406,728.0217 258.7504,728.1264 248.6601,728.2389 238.5695,728.3592 228.4787,728.4872 218.3876,728.623 208.2963,728.7666 198.2047,728.918 188.1127,729.0771 178.0205,729.244 167.9279,729.4186 157.835,729.601 147.7417,729.7912 137.648,729.9892 127.554,730.195 117.4595,730.4085 107.3646,730.6298 97.2693,730.8589 87.1736,731.0958 77.0773,731.3405" stroke="black" stroke-opacity="0.5" stroke-width="1" /><polyline fill="none" points="77.0773,731.3405 76.8087,720.4125 76.5409,709.4852 76.2738,698.5587 76.0076,687.6328 75.7422,676.7076 75.4776,665.783 75.2138,654.8589 74.9508,643.9355 74.6886,633.0126 74.4272,622.0902 74.1666,611.1683 73.9068,600.2469 73.6478,589.3259 73.3896,578.4053 73.1322,567.4852 72.8756,556.5653 72.6198,545.6458 72.3647,534.7267 72.1105,523.8078 71.8571,512.8892 71.6045,501.9707 71.3526,491.0526 71.1016,480.1345 70.8513,469.2167 70.6019,458.299 70.3532,447.3813 70.1053,436.4638 69.8582,425.5463 69.6119,414.6288 69.3664,403.7113 69.1216,392.7938 68.8777,381.8763 68.6345,370.9587 68.3922,360.0409 68.1506,349.123 67.9098,338.205 67.6697,327.2868 67.4305,316.3684 67.1921,305.4498 66.9544,294.5309 66.7175,283.6117 66.4814,272.6922 66.2461,261.7723 66.0115,250.8521 65.7777,239.9315 65.5447,229.0105 65.3125,218.0891 65.0811,207.1672 64.8505,196.2448 64.6206,185.3218 64.3915,174.3984 64.1632,163.4743 63.9356,152.5497 63.7089,141.6244 63.4829,130.6985 63.2576,119.7719 63.0332,108.8446 62.8095,97.9166 62.5866,86.9879 62.3645,76.0583" stroke="black" stroke-opacity="0.5" stroke-width="1" /></svg>