<?xml version="1.0" encoding="utf-8" ?>
<svg baseProfile="tiny" height="800" version="1.2" width="800" xmlns="http://www.w3.org/2000/svg" xmlns:ev="http://www.w3.org/2001/xml-events" xmlns:xlink="http://www.w3.org/1999/xlink"><defs /><rect fill="none" height="800" stroke="black" stroke-width="2" width="800" x="0" y="0" /><polyline fill="none" points="644.0119,730.6059 644.3017,719.6834 644.5909,708.7617 644.8794,697.8406 645.1674,686.9202 645.4547,676.0005 645.7414,665.0814 646.0274,654.1629 646.3129,643.2449 646.5977,632.3275 646.882,621.4107 647.1656,610.4943 647.4486,599.5784 647.7309,588.6629 648.0127,577.7479 648.2939,566.8333 648.5744,555.919 648.8544,545.0051 649.1337,534.0914 649.4124,523.1781 649.6905,512.265 649.968,501.3522 650.2449,490.4396 650.5212,479.5271 650.7969,468.6148 651.072,457.7027 651.3464,446.7907 651.6203,435.8787 651.8936,424.9668 652.1663,414.0549 652.4383,403.1431 652.7098,392.2312 652.9806,381.3192 653.2509,370.4072 653.5206,359.4951 653.7896,348.5829 654.0581,337.6705 654.326,326.7579 654.5933,315.8451 654.86,304.9321 655.126,294.0189 655.3915,283.1053 655.6564,272.1915 655.9207,261.2773 656.1844,250.3627 656.4476,239.4478 656.7101,228.5325 656.972,217.6167 657.2334,206.7004 657.4941,195.7837 657.7543,184.8665 658.0139,173.9487 658.2729,163.0303 658.5313,152.1114 658.7891,141.1918 659.0463,130.2716 659.3029,119.3507 659.559,108.4292 659.8145,97.5068 660.0693,86.5838 660.3236,75.66" stroke="silver" stroke-opacity="0.5" stroke-width="1" /><polyline fill="none" points="549.4255,728.5809 549.6028,717.6602 549.7799,706.7402 549.9565,695.821 550.1327,684.9025 550.3086,673.9846 550.4841,663.0674 550.6592,652.1508 550.834,641.2347 551.0083,630.3193 551.1823,619.4043 551.3559,608.4899 551.5291,597.576 551.702,586.6625 551.8745,575.7495 552.0466,564.8368 552.2183,553.9246 552.3897,543.0127 552.5606,532.1011 552.7312,521.1898 552.9015,510.2789 553.0714,499.3681 553.2408,488.4576 553.41,477.5473 553.5787,466.6372 553.7471,455.7272 553.9151,444.8173 554.0828,433.9075 554.25,422.9978 554.4169,412.0881 554.5835,401.1785 554.7496,390.2688 554.9154,379.3591 555.0809,368.4494 555.2459,357.5396 555.4106,346.6296 555.575,335.7195 555.7389,324.8093 555.9026,313.8988 556.0658,302.9882 556.2287,292.0773 556.3912,281.1661 556.5533,270.2547 556.7151,259.3429 556.8765,248.4308 557.0376,237.5183 557.1983,226.6054 557.3586,215.692 557.5186,204.7783 557.6782,193.864 557.8374,182.9493 557.9963,172.034 558.1549,161.1182 558.313,150.2018 558.4708,139.2848 558.6283,128.3671 558.7854,117.4488 558.9421,106.5298 559.0985,95.6101 559.2545,84.6897 559.4102,73.7685" stroke="silver" stroke-opacity="0.5" stroke-width="1" /><polyline fill="none" points="454.8508,727.5298 454.9159,716.61 454.9809,705.691 455.0457,694.7727 455.1104,683.8552 455.1749,672.9383 455.2393,662.022 455.3036,651.1064 455.3677,640.1913 455.4317,629.2769 455.4956,618.3629 455.5593,607.4495 455.6229,596.5366 455.6863,585.6242 455.7496,574.7122 455.8128,563.8006 455.8758,552.8894 455.9387,541.9785 456.0014,531.068 456.0641,520.1578 456.1265,509.2479 456.1889,498.3383 456.2511,487.4289 456.3131,476.5197 456.3751,465.6106 456.4369,454.7018 456.4985,443.793 456.5601,432.8844 456.6215,421.9758 456.6827,411.0673 456.7438,400.1588 456.8048,389.2503 456.8657,378.3418 456.9264,367.4332 456.987,356.5245 457.0474,345.6158 457.1077,334.7069 457.1679,323.7979 457.2279,312.8886 457.2878,301.9792 457.3476,291.0695 457.4072,280.1596 457.4668,269.2494 457.5261,258.3388 457.5854,247.428 457.6445,236.5167 457.7035,225.6051 457.7623,214.6931 457.821,203.7806 457.8796,192.8676 457.938,181.9542 457.9963,171.0402 458.0545,160.1257 458.1126,149.2106 458.1705,138.2949 458.2283,127.3786 458.2859,116.4616 458.3434,105.544 458.4008,94.6257 458.4581,83.7066 458.5152,72.7868" stroke="silver" stroke-opacity="0.5" stroke-width="1" /><polyline fill="none" points="360.2805,727.4519 360.2334,716.5322 360.1863,705.6133 360.1394,694.6951 360.0926,683.7776 360.0458,672.8608 359.9992,661.9446 359.9526,651.029 359.9062,640.1141 359.8599,629.1997 359.8136,618.2858 359.7675,607.3725 359.7215,596.4596 359.6755,585.5473 359.6297,574.6353 359.5839,563.7238 359.5383,552.8127 359.4928,541.902 359.4473,530.9915 359.402,520.0814 359.3567,509.1716 359.3116,498.262 359.2666,487.3527 359.2216,476.4435 359.1768,465.5346 359.132,454.6258 359.0874,443.7171 359.0428,432.8086 358.9984,421.9001 358.954,410.9917 358.9098,400.0833 358.8656,389.1749 358.8215,378.2664 358.7776,367.3579 358.7337,356.4494 358.6899,345.5407 358.6463,334.6319 358.6027,323.7229 358.5592,312.8138 358.5158,301.9045 358.4725,290.9949 358.4293,280.085 358.3863,269.1749 358.3433,258.2645 358.3004,247.3537 358.2576,236.4426 358.2149,225.531 358.1723,214.6191 358.1297,203.7067 358.0873,192.7938 358.045,181.8805 358.0028,170.9666 357.9606,160.0522 357.9186,149.1372 357.8767,138.2216 357.8348,127.3054 357.7931,116.3885 357.7514,105.471 357.7099,94.5528 357.6684,83.6338 357.6271,72.7141" stroke="silver" stroke-opacity="0.5" stroke-width="1" /><polyline fill="none" points="265.7071,728.3473 265.5477,717.4268 265.3886,706.5071 265.2299,695.588 265.0715,684.6697 264.9134,673.7521 264.7557,662.835 264.5983,651.9186 264.4413,641.0028 264.2846,630.0876 264.1282,619.1729 263.9722,608.2587 263.8165,597.345 263.6612,586.4318 263.5062,575.5189 263.3515,564.6065 263.1972,553.6945 263.0432,542.7829 262.8895,531.8715 262.7362,520.9605 262.5832,510.0497 262.4306,499.1392 262.2782,488.229 262.1263,477.3189 261.9746,466.409 261.8233,455.4993 261.6723,444.5896 261.5216,433.6801 261.3713,422.7707 261.2213,411.8613 261.0716,400.9519 260.9223,390.0425 260.7733,379.133 260.6246,368.2236 260.4763,357.314 260.3283,346.4043 260.1806,335.4945 260.0332,324.5845 259.8862,313.6743 259.7395,302.7639 259.5931,291.8533 259.4471,280.9424 259.3014,270.0312 259.156,259.1197 259.0109,248.2079 258.8662,237.2957 258.7218,226.3831 258.5777,215.47 258.4339,204.5565 258.2905,193.6426 258.1473,182.7281 258.0046,171.8131 257.8621,160.8976 257.7199,149.9815 257.5781,139.0648 257.4366,128.1474 257.2954,117.2294 257.1546,106.3107 257.0141,95.3913 256.8739,84.4712 256.734,73.5503" stroke="silver" stroke-opacity="0.5" stroke-width="1" /><polyline fill="none" points="171.123,730.2164 170.8512,719.2943 170.58,708.3729 170.3094,697.4521 170.0393,686.5321 169.7699,675.6127 169.501,664.694 169.2327,653.7758 168.9649,642.8583 168.6978,631.9413 168.4312,621.0248 168.1652,610.1088 167.8998,599.1932 167.6349,588.2782 167.3707,577.3635 167.107,566.4493 166.8438,555.5354 166.5813,544.6218 166.3193,533.7086 166.0579,522.7957 165.797,511.883 165.5368,500.9706 165.2771,490.0584 165.0179,479.1463 164.7594,468.2345 164.5014,457.3227 164.2439,446.4111 163.9871,435.4996 163.7308,424.5881 163.475,413.6766 163.2199,402.7652 162.9653,391.8537 162.7112,380.9422 162.4577,370.0306 162.2048,359.119 161.9525,348.2072 161.7007,337.2952 161.4494,326.3831 161.1987,315.4708 160.9486,304.5582 160.6991,293.6454 160.4501,282.7323 160.2016,271.8189 159.9537,260.9052 159.7064,249.9911 159.4596,239.0767 159.2134,228.1618 158.9677,217.2465 158.7226,206.3307 158.478,195.4145 158.234,184.4977 157.9906,173.5804 157.7477,162.6625 157.5053,151.7441 157.2635,140.825 157.0223,129.9053 156.7816,118.9849 156.5414,108.0638 156.3018,97.142 156.0627,86.2195 155.8242,75.2962" stroke="silver" stroke-opacity="0.5" stroke-width="1" /><polyline fill="none" points="716.667,732.8232 710.2335,732.6036 700.7726,732.2889 691.3119,731.9841 681.8515,731.6889 672.3913,731.4035 662.9313,731.1279 653.4715,730.862 644.0119,730.6059 634.5525,730.3596 625.0933,730.123 615.6343,729.8961 606.1754,729.679 596.7167,729.4716 587.2582,729.274 577.7998,729.0861 568.3416,728.908 558.8834,728.7396 549.4255,728.5809 539.9676,728.432 530.5098,728.2928 521.0522,728.1633 511.5946,728.0436 502.1371,727.9337 492.6797,727.8334 483.2224,727.7429 473.7652,727.6621 464.308,727.5911 454.8508,727.5298 445.3937,727.4782 435.9367,727.4364 426.4796,727.4043 417.0226,727.3819 407.5656,727.3692 398.1086,727.3663 388.6516,727.3731 379.1946,727.3897 369.7376,727.4159 360.2805,727.4519 350.8234,727.4977 341.3663,727.5531 331.9092,727.6183 322.4519,727.6933 312.9947,727.7779 303.5373,727.8723 294.0799,727.9765 284.6224,728.0903 275.1648,728.214 265.7071,728.3473 256.2493,728.4904 246.7914,728.6432 237.3333,728.8057 227.8752,728.978 218.4169,729.1601 208.9584,729.3519 199.4998,729.5534 190.041,729.7647 180.5821,729.9857 171.123,730.2164 161.6637,730.4569 152.2043,730.7072 142.7446,730.9672 133.2847,731.237 123.8247,731.5165 114.3644,731.8058 104.9039,732.1048 95.4431,732.4136 85.9821,732.7322 83.333,732.8232" stroke="silver" stroke-opacity="0.5" stroke-width="1" /><polyline fill="none" points="719.6544,645.4459 713.16,645.228 703.6097,644.9156 694.0596,644.6129 684.5098,644.32 674.9603,644.0367 665.4109,643.7631 655.8618,643.4992 646.3129,643.2449 636.7642,643.0004 627.2157,642.7655 617.6674,642.5403 608.1193,642.3248 598.5713,642.1189 589.0236,641.9227 579.4759,641.7362 569.9285,641.5594 560.3811,641.3922 550.834,641.2347 541.2869,641.0869 531.74,640.9487 522.1931,640.8202 512.6464,640.7014 503.0998,640.5922 493.5532,640.4927 484.0068,640.4029 474.4604,640.3227 464.914,640.2522 455.3677,640.1913 445.8215,640.1401 436.2753,640.0986 426.7292,640.0667 417.183,640.0445 407.6369,640.0319 398.0908,640.029 388.5447,640.0358 378.9985,640.0522 369.4524,640.0783 359.9062,640.1141 350.36,640.1595 340.8138,640.2145 331.2675,640.2792 321.7211,640.3536 312.1747,640.4377 302.6282,640.5314 293.0816,640.6347 283.5349,640.7478 273.9882,640.8705 264.4413,641.0028 254.8943,641.1449 245.3472,641.2966 235.7999,641.4579 226.2526,641.629 216.705,641.8097 207.1574,642.0 197.6095,642.2001 188.0615,642.4098 178.5133,642.6292 168.9649,642.8583 159.4164,643.097 149.8676,643.3455 140.3186,643.6036 130.7694,643.8714 121.2199,644.1488 111.6703,644.436 102.1204,644.7328 92.5702,645.0394 83.0198,645.3556 80.3456,645.4459" stroke="silver" stroke-opacity="0.5" stroke-width="1" /><polyline fill="none" points="722.5906,558.1027 716.0364,557.8865 706.3982,557.5766 696.7603,557.2763 687.1226,556.9856 677.4852,556.7045 667.848,556.4331 658.2111,556.1712 648.5744,555.919 638.938,555.6764 629.3017,555.4433 619.6656,555.2199 610.0298,555.0061 600.3941,554.8018 590.7586,554.6072 581.1233,554.4221 571.4882,554.2467 561.8532,554.0808 552.2183,553.9246 542.5836,553.7779 532.949,553.6408 523.3145,553.5133 513.6801,553.3955 504.0459,553.2871 494.4117,553.1884 484.7776,553.0993 475.1436,553.0197 465.5097,552.9498 455.8758,552.8894 446.242,552.8386 436.6082,552.7974 426.9744,552.7658 417.3407,552.7437 407.707,552.7312 398.0733,552.7284 388.4395,552.7351 378.8058,552.7514 369.1721,552.7773 359.5383,552.8127 349.9045,552.8578 340.2707,552.9124 330.6367,552.9766 321.0028,553.0504 311.3687,553.1338 301.7346,553.2268 292.1004,553.3293 282.4661,553.4415 272.8317,553.5632 263.1972,553.6945 253.5625,553.8354 243.9278,553.9859 234.2929,554.146 224.6578,554.3157 215.0226,554.495 205.3872,554.6839 195.7516,554.8824 186.1159,555.0904 176.48,555.3081 166.8438,555.5354 157.2075,555.7723 147.5709,556.0187 137.9341,556.2748 128.2971,556.5405 118.6599,556.8158 109.0223,557.1007 99.3846,557.3952 89.7465,557.6994 80.1082,558.0131 77.4094,558.1027" stroke="silver" stroke-opacity="0.5" stroke-width="1" /><polyline fill="none" points="725.4761,470.7803 718.8632,470.5659 709.1386,470.2586 699.4143,469.9608 689.6903,469.6725 679.9665,469.3938 670.2431,469.1246 660.5199,468.865 650.7969,468.6148 641.0742,468.3742 631.3517,468.1432 621.6294,467.9216 611.9073,467.7096 602.1854,467.507 592.4637,467.314 582.7422,467.1305 573.0209,466.9566 563.2997,466.7921 553.5787,466.6372 543.8579,466.4917 534.1371,466.3558 524.4165,466.2294 514.696,466.1125 504.9757,466.0051 495.2554,465.9072 485.5352,465.8188 475.8151,465.7399 466.0951,465.6705 456.3751,465.6106 446.6552,465.5603 436.9353,465.5194 427.2154,465.488 417.4956,465.4662 407.7758,465.4538 398.056,465.451 388.3362,465.4576 378.6164,465.4738 368.8966,465.4994 359.1768,465.5346 349.4569,465.5793 339.7369,465.6334 330.0169,465.6971 320.2969,465.7703 310.5767,465.853 300.8565,465.9452 291.1362,466.0469 281.4158,466.1581 271.6953,466.2788 261.9746,466.409 252.2538,466.5487 242.5329,466.698 232.8118,466.8567 223.0906,467.025 213.3692,467.2028 203.6476,467.3901 193.9259,467.5869 184.2039,467.7932 174.4817,468.0091 164.7594,468.2345 155.0368,468.4693 145.314,468.7138 135.5909,468.9677 125.8676,469.2312 116.144,469.5042 106.4202,469.7867 96.696,470.0787 86.9716,470.3803 77.2469,470.6915 74.5239,470.7803" stroke="silver" stroke-opacity="0.5" stroke-width="1" /><polyline fill="none" points="728.3113,383.4654 721.6407,383.2529 711.8312,382.9483 702.0221,382.6532 692.2132,382.3675 682.4047,382.0913 672.5964,381.8245 662.7884,381.5671 652.9806,381.3192 643.1732,381.0808 633.3659,380.8517 623.5589,380.6322 613.7521,380.422 603.9455,380.2213 594.1391,380.03 584.3329,379.8481 574.5269,379.6757 564.7211,379.5127 554.9154,379.3591 545.1099,379.215 535.3046,379.0803 525.4993,378.955 515.6942,378.8391 505.8892,378.7327 496.0843,378.6357 486.2796,378.5481 476.4748,378.4699 466.6702,378.4011 456.8657,378.3418 447.0612,378.2919 437.2567,378.2514 427.4523,378.2203 417.6479,378.1986 407.8435,378.1864 398.0391,378.1835 388.2348,378.1901 378.4304,378.2061 368.626,378.2316 358.8215,378.2664 349.0171,378.3107 339.2125,378.3644 329.4079,378.4275 319.6033,378.5 309.7985,378.582 299.9937,378.6733 290.1888,378.7741 280.3837,378.8843 270.5786,379.004 260.7733,379.133 250.9679,379.2715 241.1623,379.4194 231.3566,379.5768 221.5507,379.7436 211.7446,379.9197 201.9383,380.1054 192.1319,380.3004 182.3252,380.5049 172.5183,380.7189 162.7112,380.9422 152.9039,381.175 143.0963,381.4173 133.2884,381.6689 123.4803,381.9301 113.6719,382.2006 103.8633,382.4806 94.0543,382.7701 84.245,383.069 74.4354,383.3774 71.6887,383.4654" stroke="silver" stroke-opacity="0.5" stroke-width="1" /><polyline fill="none" points="731.0968,296.1448 724.3694,295.9343 714.4766,295.6326 704.5841,295.3402 694.6919,295.0572 684.8,294.7836 674.9084,294.5193 665.0171,294.2644 655.126,294.0189 645.2353,293.7826 635.3448,293.5558 625.4545,293.3383 615.5645,293.1301 605.6747,292.9313 595.7851,292.7418 585.8957,292.5617 576.0065,292.3909 566.1175,292.2294 556.2287,292.0773 546.34,291.9345 536.4515,291.8011 526.5631,291.6769 516.6749,291.5622 506.7867,291.4567 496.8987,291.3606 487.0108,291.2739 477.123,291.1964 467.2353,291.1283 457.3476,291.0695 447.46,291.0201 437.5724,290.98 427.6849,290.9492 417.7974,290.9277 407.91,290.9156 398.0225,290.9128 388.135,290.9193 378.2476,290.9352 368.3601,290.9604 358.4725,290.9949 348.585,291.0387 338.6973,291.0919 328.8096,291.1544 318.9219,291.2263 309.034,291.3074 299.1461,291.3979 289.258,291.4978 279.3699,291.607 269.4816,291.7255 259.5931,291.8533 249.7046,291.9905 239.8158,292.137 229.9269,292.2929 220.0378,292.4581 210.1486,292.6326 200.2591,292.8165 190.3694,293.0097 180.4795,293.2122 170.5894,293.4241 160.6991,293.6454 150.8085,293.876 140.9176,294.116 131.0264,294.3653 121.135,294.6239 111.2433,294.8919 101.3513,295.1693 91.459,295.456 81.5663,295.7521 71.6733,296.0576 68.9032,296.1448" stroke="silver" stroke-opacity="0.5" stroke-width="1" /><polyline fill="none" points="733.8328,208.8051 727.0498,208.5967 717.075,208.298 707.1006,208.0086 697.1265,207.7285 687.1528,207.4576 677.1794,207.1959 667.2062,206.9436 657.2334,206.7004 647.2608,206.4666 637.2885,206.242 627.3165,206.0267 617.3447,205.8206 607.3732,205.6237 597.4018,205.4361 587.4307,205.2578 577.4598,205.0887 567.4891,204.9289 557.5186,204.7783 547.5482,204.6369 537.578,204.5048 527.608,204.3819 517.6381,204.2683 507.6683,204.1639 497.6987,204.0688 487.7291,203.9829 477.7597,203.9062 467.7903,203.8388 457.821,203.7806 447.8518,203.7316 437.8826,203.6919 427.9135,203.6614 417.9444,203.6402 407.9753,203.6282 398.0062,203.6254 388.0371,203.6319 378.068,203.6476 368.0989,203.6725 358.1297,203.7067 348.1605,203.7501 338.1913,203.8027 328.222,203.8646 318.2526,203.9358 308.2831,204.0161 298.3135,204.1057 288.3438,204.2046 278.374,204.3127 268.404,204.43 258.4339,204.5565 248.4636,204.6923 238.4932,204.8374 228.5226,204.9917 218.5518,205.1552 208.5809,205.328 198.6097,205.5101 188.6383,205.7014 178.6666,205.9019 168.6947,206.1117 158.7226,206.3307 148.7502,206.559 138.7775,206.7966 128.8046,207.0434 118.8313,207.2995 108.8577,207.5648 98.8839,207.8394 88.9097,208.1233 78.9351,208.4164 68.9602,208.7188 66.1672,208.8051" stroke="silver" stroke-opacity="0.5" stroke-width="1" /><polyline fill="none" points="736.5199,121.4333 729.6821,121.227 719.6269,120.9315 709.5721,120.6451 699.5176,120.3679 689.4634,120.0999 679.4096,119.841 669.3561,119.5913 659.3029,119.3507 649.25,119.1193 639.1974,118.8971 629.1451,118.684 619.093,118.4801 609.0412,118.2854 598.9896,118.0998 588.9382,117.9233 578.8871,117.756 568.8361,117.5978 558.7854,117.4488 548.7348,117.309 538.6844,117.1782 528.6342,117.0567 518.5841,116.9442 508.5341,116.8409 498.4843,116.7468 488.4345,116.6618 478.3849,116.5859 468.3354,116.5192 458.2859,116.4616 448.2365,116.4132 438.1872,116.3739 428.1379,116.3438 418.0886,116.3227 408.0394,116.3109 397.9902,116.3081 387.9409,116.3145 377.8917,116.33 367.8424,116.3547 357.7931,116.3885 347.7437,116.4315 337.6943,116.4836 327.6448,116.5448 317.5952,116.6152 307.5456,116.6947 297.4958,116.7834 287.4459,116.8812 277.3959,116.9881 267.3458,117.1042 257.2954,117.2294 247.245,117.3638 237.1943,117.5073 227.1435,117.66 217.0925,117.8218 207.0412,117.9928 196.9898,118.1729 186.9381,118.3622 176.8862,118.5606 166.834,118.7682 156.7816,118.9849 146.7288,119.2108 136.6758,119.4459 126.6225,119.6901 116.5689,119.9434 106.5149,120.206 96.4607,120.4777 86.406,120.7586 76.351,121.0486 66.2957,121.3478 63.4801,121.4333" stroke="silver" stroke-opacity="0.5" stroke-width="1" /><line fill="none" stroke="green" stroke-opacity="0.5" stroke-width="1.5" x1="246.4764" x2="370.5654" y1="572.8162" y2="415.9202" /><circle cx="717.2741" cy="483.713" fill="black" r="0.738" stroke="none" /><circle cx="716.5454" cy="477.3092" fill="black" r="0.738" stroke="none" /><circle cx="710.6483" cy="518.6389" fill="black" r="0.738" stroke="none" /><circle cx="714.9684" cy="372.9069" fill="black" r="0.738" stroke="none" /><circle cx="723.2753" cy="81.2376" fill="black" r="0.738" stroke="none" /><circle cx="716.9964" cy="142.3692" fill="black" r="0.738" stroke="none" /><circle cx="714.002" cy="201.3889" fill="black" r="0.738" stroke="none" /><circle cx="705.7802" cy="424.6239" fill="black" r="0.738" stroke="none" /><circle cx="700.0949" cy="593.8309" fill="black" r="1.17" stroke="none" /><circle cx="697.9533" cy="644.8226" fill="black" r="0.738" stroke="none" /><circle cx="700.7388" cy="550.9309" fill="black" r="1.476" stroke="none" /><circle cx="691.5907" cy="585.264" fill="black" r="0.738" stroke="none" /><circle cx="695.9884" cy="414.4574" fill="black" r="0.738" stroke="none" /><circle cx="689.7837" cy="568.602" fill="black" r="0.738" stroke="none" /><circle cx="700.26" cy="149.1555" fill="black" r="0.738" stroke="none" /><circle cx="679.7577" cy="700.7507" fill="black" r="0.738" stroke="none" /><circle cx="672.2189" cy="648.9401" fill="black" r="0.738" stroke="none" /><circle cx="680.9967" cy="244.1744" fill="black" r="0.936" stroke="none" /><circle cx="680.5056" cy="229.5676" fill="black" r="0.738" stroke="none" /><circle cx="673.7967" cy="407.1921" fill="black" r="0.738" stroke="none" /><circle cx="667.8508" cy="578.5421" fill="black" r="0.738" stroke="none" /><circle cx="676.9676" cy="187.4385" fill="black" r="0.738" stroke="none" /><circle cx="656.2354" cy="335.7151" fill="black" r="0.936" stroke="none" /><circle cx="654.616" cy="185.6661" fill="black" r="0.738" stroke="none" /><circle cx="644.1223" cy="486.7922" fill="black" r="0.738" stroke="none" /><circle cx="645.5201" cy="102.2524" fill="black" r="0.738" stroke="none" /><circle cx="639.4526" cy="304.3054" fill="black" r="0.738" stroke="none" /><circle cx="631.0879" cy="643.8209" fill="black" r="0.738" stroke="none" /><circle cx="621.9039" cy="663.7873" fill="black" r="0.738" stroke="none" /><circle cx="632.7044" cy="133.0044" fill="black" r="0.738" stroke="none" /><circle cx="621.9574" cy="569.5985" fill="black" r="0.738" stroke="none" /><circle cx="627.7085" cy="298.8895" fill="black" r="0.738" stroke="none" /><circle cx="627.0577" cy="292.4121" fill="black" r="0.738" stroke="none" /><circle cx="627.9091" cy="230.6748" fill="black" r="0.936" stroke="none" /><circle cx="617.0656" cy="368.528" fill="black" r="0.738" stroke="none" /><circle cx="609.0277" cy="707.365" fill="black" r="0.738" stroke="none" /><circle cx="621.1519" cy="128.1344" fill="black" r="0.738" stroke="none" /><circle cx="611.695" cy="225.1875" fill="black" r="0.738" stroke="none" /><circle cx="606.2395" cy="410.2187" fill="black" r="0.738" stroke="none" /><circle cx="592.8465" cy="711.8206" fill="black" r="0.738" stroke="none" /><circle cx="585.5238" cy="558.1735" fill="black" r="0.738" stroke="none" /><circle cx="583.9479" cy="608.1027" fill="black" r="1.476" stroke="none" /><circle cx="589.0895" cy="141.8664" fill="black" r="0.738" stroke="none" /><circle cx="582.044" cy="96.9233" fill="black" r="0.738" stroke="none" /><circle cx="568.3418" cy="579.8662" fill="black" r="0.738" stroke="none" /><circle cx="567.4939" cy="358.6923" fill="black" r="0.738" stroke="none" /><circle cx="558.052" cy="724.2681" fill="black" r="0.738" stroke="none" /><circle cx="560.9096" cy="455.8402" fill="black" r="0.738" stroke="none" /><circle cx="551.8845" cy="366.8301" fill="black" r="0.738" stroke="none" /><circle cx="554.2548" cy="187.5265" fill="black" r="0.738" stroke="none" /><circle cx="546.2507" cy="616.445" fill="black" r="0.738" stroke="none" /><circle cx="548.9658" cy="302.0115" fill="black" r="0.738" stroke="none" /><circle cx="539.3941" cy="686.046" fill="black" r="0.738" stroke="none" /><circle cx="544.6374" cy="219.3551" fill="black" r="1.476" stroke="none" /><circle cx="542.4349" cy="81.7536" fill="black" r="0.738" stroke="none" /><circle cx="532.0743" cy="343.5108" fill="black" r="1.854" stroke="none" /><circle cx="527.8876" cy="486.5254" fill="black" r="0.738" stroke="none" /><circle cx="531.5073" cy="178.9297" fill="black" r="0.738" stroke="none" /><circle cx="518.1867" cy="290.7935" fill="black" r="0.738" stroke="none" /><circle cx="510.6901" cy="235.8882" fill="black" r="0.738" stroke="none" /><circle cx="505.1063" cy="237.5777" fill="black" r="0.738" stroke="none" /><circle cx="501.1225" cy="127.1649" fill="black" r="0.738" stroke="none" /><circle cx="494.5948" cy="266.0253" fill="black" r="0.738" stroke="none" /><circle cx="488.2724" cy="410.9447" fill="black" r="0.738" stroke="none" /><circle cx="480.4447" cy="402.1519" fill="black" r="0.738" stroke="none" /><circle cx="475.8918" cy="708.2849" fill="black" r="0.738" stroke="none" /><circle cx="475.9095" cy="327.4092" fill="black" r="0.738" stroke="none" /><circle cx="473.7495" cy="160.2206" fill="black" r="0.738" stroke="none" /><circle cx="470.0683" cy="293.3289" fill="black" r="0.738" stroke="none" /><circle cx="470.1334" cy="86.3946" fill="black" r="0.738" stroke="none" /><circle cx="468.3308" cy="352.8409" fill="black" r="0.738" stroke="none" /><circle cx="465.852" cy="478.8477" fill="black" r="0.738" stroke="none" /><circle cx="461.3772" cy="701.8004" fill="black" r="1.17" stroke="none" /><circle cx="462.8575" cy="448.8055" fill="black" r="0.738" stroke="none" /><circle cx="457.493" cy="322.0541" fill="black" r="0.738" stroke="none" /><circle cx="450.6848" cy="528.5077" fill="black" r="0.738" stroke="none" /><circle cx="449.9828" cy="156.5929" fill="black" r="0.936" stroke="none" /><circle cx="449.5769" cy="244.4197" fill="black" r="0.738" stroke="none" /><circle cx="446.3831" cy="155.4418" fill="black" r="1.476" stroke="none" /><circle cx="446.3987" cy="151.7744" fill="black" r="0.738" stroke="none" /><circle cx="442.76" cy="675.0565" fill="black" r="0.738" stroke="none" /><circle cx="439.5233" cy="720.2876" fill="black" r="0.738" stroke="none" /><circle cx="440.1416" cy="537.0124" fill="black" r="0.738" stroke="none" /><circle cx="440.1189" cy="427.8308" fill="black" r="0.738" stroke="none" /><circle cx="427.0498" cy="525.6205" fill="black" r="0.738" stroke="none" /><circle cx="418.4062" cy="477.5985" fill="black" r="0.738" stroke="none" /><circle cx="413.4298" cy="481.9542" fill="black" r="0.738" stroke="none" /><circle cx="407.6927" cy="665.1808" fill="black" r="0.738" stroke="none" /><circle cx="407.426" cy="304.0939" fill="black" r="0.738" stroke="none" /><circle cx="401.1291" cy="80.9329" fill="black" r="0.738" stroke="none" /><circle cx="393.0657" cy="330.5371" fill="black" r="0.738" stroke="none" /><circle cx="389.6957" cy="269.0979" fill="black" r="0.738" stroke="none" /><circle cx="379.3897" cy="644.33" fill="black" r="0.738" stroke="none" /><circle cx="378.4818" cy="250.6105" fill="black" r="0.738" stroke="none" /><circle cx="373.5722" cy="498.3007" fill="black" r="0.738" stroke="none" /><circle cx="370.5396" cy="415.9255" fill="black" r="2.916" stroke="none" /><circle cx="366.8867" cy="515.2528" fill="black" r="0.738" stroke="none" /><circle cx="360.2849" cy="289.155" fill="black" r="0.738" stroke="none" /><circle cx="358.7608" cy="303.9109" fill="black" r="0.738" stroke="none" /><circle cx="354.4031" cy="301.0488" fill="black" r="1.476" stroke="none" /><circle cx="354.4943" cy="545.5029" fill="black" r="0.738" stroke="none" /><circle cx="347.4481" cy="332.1518" fill="black" r="0.738" stroke="none" /><circle cx="347.9051" cy="481.0349" fill="black" r="0.738" stroke="none" /><circle cx="346.7815" cy="682.3594" fill="black" r="0.738" stroke="none" /><circle cx="344.8323" cy="582.3038" fill="black" r="0.738" stroke="none" /><circle cx="345.0628" cy="582.3025" fill="black" r="0.738" stroke="none" /><circle cx="337.8849" cy="727.4013" fill="black" r="0.738" stroke="none" /><circle cx="332.0765" cy="425.362" fill="black" r="0.936" stroke="none" /><circle cx="325.1155" cy="99.1794" fill="black" r="0.738" stroke="none" /><circle cx="326.6699" cy="696.6462" fill="black" r="0.738" stroke="none" /><circle cx="321.5716" cy="379.4447" fill="black" r="0.738" stroke="none" /><circle cx="297.448" cy="563.311" fill="black" r="0.738" stroke="none" /><circle cx="290.7667" cy="474.8669" fill="black" r="0.738" stroke="none" /><circle cx="280.6895" cy="101.7518" fill="black" r="0.738" stroke="none" /><circle cx="281.606" cy="229.6848" fill="black" r="0.738" stroke="none" /><circle cx="280.1152" cy="362.6523" fill="black" r="0.738" stroke="none" /><circle cx="279.8092" cy="422.9702" fill="black" r="0.738" stroke="none" /><circle cx="281.5576" cy="713.3628" fill="black" r="0.738" stroke="none" /><circle cx="275.2574" cy="291.7424" fill="black" r="0.738" stroke="none" /><circle cx="277.7775" cy="656.1926" fill="black" r="0.738" stroke="none" /><circle cx="271.9723" cy="339.7063" fill="black" r="0.738" stroke="none" /><circle cx="262.9939" cy="83.6954" fill="black" r="0.738" stroke="none" /><circle cx="262.4782" cy="342.3599" fill="black" r="0.738" stroke="none" /><circle cx="263.6878" cy="494.7568" fill="black" r="0.738" stroke="none" /><circle cx="260.6669" cy="417.0191" fill="black" r="0.738" stroke="none" /><circle cx="256.4233" cy="420.9195" fill="black" r="0.738" stroke="none" /><circle cx="257.2069" cy="687.4954" fill="black" r="0.738" stroke="none" /><circle cx="242.8495" cy="325.3544" fill="black" r="0.738" stroke="none" /><circle cx="246.4632" cy="572.8068" fill="black" r="2.322" stroke="none" /><circle cx="232.6514" cy="203.704" fill="black" r="0.738" stroke="none" /><circle cx="204.9596" cy="701.2911" fill="black" r="0.738" stroke="none" /><circle cx="199.202" cy="470.7099" fill="black" r="0.738" stroke="none" /><circle cx="195.2406" cy="283.045" fill="black" r="0.738" stroke="none" /><circle cx="190.3797" cy="108.9454" fill="black" r="0.738" stroke="none" /><circle cx="187.6697" cy="217.2511" fill="black" r="0.738" stroke="none" /><circle cx="191.8836" cy="466.6689" fill="black" r="0.738" stroke="none" /><circle cx="193.9937" cy="720.3215" fill="black" r="0.738" stroke="none" /><circle cx="184.6934" cy="553.5497" fill="black" r="0.738" stroke="none" /><circle cx="185.6561" cy="634.0758" fill="black" r="0.738" stroke="none" /><circle cx="184.74" cy="723.2431" fill="black" r="0.738" stroke="none" /><circle cx="174.5066" cy="492.9875" fill="black" r="0.738" stroke="none" /><circle cx="166.9673" cy="294.2902" fill="black" r="0.738" stroke="none" /><circle cx="165.4737" cy="637.7009" fill="black" r="0.738" stroke="none" /><circle cx="159.8072" cy="420.6632" fill="black" r="0.738" stroke="none" /><circle cx="162.9058" cy="555.3689" fill="black" r="0.738" stroke="none" /><circle cx="159.0635" cy="409.1517" fill="black" r="0.738" stroke="none" /><circle cx="152.5306" cy="197.3842" fill="black" r="0.738" stroke="none" /><circle cx="132.8603" cy="147.8604" fill="black" r="0.738" stroke="none" /><circle cx="130.8063" cy="242.1216" fill="black" r="0.738" stroke="none" /><circle cx="137.5626" cy="607.4944" fill="black" r="0.738" stroke="none" /><circle cx="127.7729" cy="247.9659" fill="black" r="0.936" stroke="none" /><circle cx="135.0145" cy="539.7522" fill="black" r="0.936" stroke="none" /><circle cx="129.4624" cy="478.3062" fill="black" r="0.738" stroke="none" /><circle cx="128.3203" cy="630.4795" fill="black" r="0.738" stroke="none" /><circle cx="128.7922" cy="654.8557" fill="black" r="0.738" stroke="none" /><circle cx="117.7034" cy="278.9003" fill="black" r="0.738" stroke="none" /><circle cx="111.0677" cy="94.1151" fill="black" r="0.738" stroke="none" /><circle cx="121.7763" cy="678.3183" fill="black" r="0.738" stroke="none" /><circle cx="111.0997" cy="486.0773" fill="black" r="0.738" stroke="none" /><circle cx="103.3117" cy="422.6044" fill="black" r="0.738" stroke="none" /><circle cx="101.3863" cy="584.6057" fill="black" r="0.738" stroke="none" /><circle cx="82.5309" cy="97.8662" fill="black" r="0.738" stroke="none" /><circle cx="79.9815" cy="132.3998" fill="black" r="0.738" stroke="none" /><circle cx="89.2525" cy="453.616" fill="black" r="0.936" stroke="none" /><circle cx="82.5747" cy="510.3773" fill="black" r="0.936" stroke="none" /><circle cx="69.1624" cy="79.6215" fill="black" r="0.738" stroke="none" /><circle cx="78.0045" cy="411.6694" fill="black" r="0.738" stroke="none" /><circle cx="82.6953" cy="700.9974" fill="black" r="0.738" stroke="none" /><circle cx="13.77" cy="786.23" fill="black" r="4.59" stroke="none" /><circle cx="13.77" cy="786.23" fill="black" r="4.59" stroke="none" /><text fill="black" font-family="monospace" font-size="12" x="10.77" y="775.64">1</text><circle cx="37.77" cy="786.23" fill="black" r="3.654" stroke="none" /><circle cx="37.77" cy="786.23" fill="black" r="3.654" stroke="none" /><text fill="black" font-family="monospace" font-size="12" x="34.769999999999996" y="775.64">2</text><circle cx="61.77" cy="786.23" fill="black" r="2.916" stroke="none" /><circle cx="61.77" cy="786.23" fill="black" r="2.916" stroke="none" /><text fill="black" font-family="monospace" font-size="12" x="58.769999999999996" y="775.64">3</text><circle cx="85.77" cy="786.23" fill="black" r="2.322" stroke="none" /><circle cx="85.77" cy="786.23" fill="black" r="2.322" stroke="none" /><text fill="black" font-family="monospace" font-size="12" x="82.77" y="775.64">4</text><circle cx="109.77" cy="786.23" fill="black" r="1.854" stroke="none" /><circle cx="109.77" cy="786.23" fill="black" r="1.854" stroke="none" /><text fill="black" font-family="monospace" font-size="12" x="106.77" y="775.64">5</text><circle cx="133.77" cy="786.23" fill="black" r="1.476" stroke="none" /><circle cx="133.77" cy="786.23" fill="black" r="1.476" stroke="none" /><text fill="black" font-family="monospace" font-size="12" x="130.77" y="775.64">6</text><circle cx="157.77" cy="786.23" fill="black" r="1.17" stroke="none" /><circle cx="157.77" cy="786.23" fill="black" r="1.17" stroke="none" /><text fill="black" font-family="monospace" font-size="12" x="154.77" y="775.64">7</text><circle cx="181.77" cy="786.23" fill="black" r="0.936" stroke="none" /><circle cx="181.77" cy="786.23" fill="black" r="0.936" stroke="none" /><text fill="black" font-family="monospace" font-size="12" x="178.77" y="775.64">8</text><circle cx="205.77" cy="786.23" fill="black" r="0.738" stroke="none" /><circle cx="205.77" cy="786.23" fill="black" r="0.738" stroke="none" /><text fill="black" font-family="monospace" font-size="12" x="202.77" y="775.64">9</text><text fill="gray" fill-opacity="0.5" font-family="monospace" font-size="12" x="660.3236457112464" y="75.65997197830183">16h15m</text><text fill="gray" fill-opacity="0.5" font-family="monospace" font-size="12" x="559.4101609749456" y="73.76850933456757">16h20m</text><text fill="gray" fill-opacity="0.5" font-family="monospace" font-size="12" x="458.51520527702195" y="72.78677012809987">16h25m</text><text fill="gray" fill-opacity="0.5" font-family="monospace" font-size="12" x="357.6270516691102" y="72.71405866559479">16h30m</text><text fill="gray" fill-opacity="0.5" font-family="monospace" font-size="12" x="256.7339723942267" y="73.55032342708148">16h35m</text><text fill="gray" fill-opacity="0.5" font-family="monospace" font-size="12" x="155.8242402806699" y="75.29615699936988">16h40m</text><text fill="gray" fill-opacity="0.5" font-family="monospace" font-size="12" x="83.33297901746084" y="732.82315467983">-30°</text><text fill="gray" fill-opacity="0.5" font-family="monospace" font-size="12" x="80.3456091616892" y="645.4458996653692">-29°</text><text fill="gray" fill-opacity="0.5" font-family="monospace" font-size="12" x="77.4094311811408" y="558.1027018944101">-28°</text><text fill="gray" fill-opacity="0.5" font-family="monospace" font-size="12" x="74.52394885402055" y="470.7802873175766">-27°</text><text fill="gray" fill-opacity="0.5" font-family="monospace" font-size="12" x="71.68869682781377" y="383.4653944884191">-26°</text><text fill="gray" fill-opacity="0.5" font-family="monospace" font-size="12" x="68.90324031218097" y="296.1447665185394">-25°</text><text fill="gray" fill-opacity="0.5" font-family="monospace" font-size="12" x="66.16717481135316" y="208.80514303858516">-24°</text><text fill="gray" fill-opacity="0.5" font-family="monospace" font-size="12" x="63.4801258956781" y="121.43325215475375">-23°</text><text fill="black" font-family="monospace" font-size="12" x="12" y="48">&gt;&gt; No.255 16h11m 16h45m -30.0°-22.5°</text><a target="_self" xlink:href="hip011.svg"><text fill="black" font-family="monospace" font-size="12" x="12" y="36">&gt; No.11 15h00m 18h00m -52.5°-22.5°</text></a><a target="_self" xlink:href="hip001.svg"><text fill="black" font-family="monospace" font-size="12" x="12" y="24">No.1 00h 24h -90.0°+0.0°</text></a><polyline fill="none" points="737.8451,77.7311 730.9804,77.526 720.8855,77.232 710.791,76.9472 700.6969,76.6716 690.6031,76.405 680.5096,76.1475 670.4165,75.8992 660.3236,75.66 650.2311,75.4299 640.1389,75.2088 630.047,74.9969 619.9553,74.7941 609.8639,74.6005 599.7727,74.4159 589.6817,74.2404 579.591,74.074 569.5005,73.9167 559.4102,73.7685 549.32,73.6294 539.2301,73.4994 529.1403,73.3785 519.0506,73.2667 508.9611,73.164 498.8717,73.0704 488.7824,72.9858 478.6933,72.9104 468.6042,72.844 458.5152,72.7868 448.4263,72.7386 438.3374,72.6995 428.2486,72.6695 418.1598,72.6486 408.071,72.6368 397.9822,72.6341 387.8935,72.6404 377.8047,72.6559 367.7159,72.6804 357.6271,72.7141 347.5382,72.7568 337.4492,72.8086 327.3602,72.8695 317.2711,72.9395 307.1819,73.0185 297.0925,73.1067 287.0031,73.204 276.9135,73.3103 266.8238,73.4258 256.734,73.5503 246.6439,73.684 236.5537,73.8267 226.4633,73.9785 216.3727,74.1395 206.2819,74.3095 196.1909,74.4886 186.0996,74.6768 176.0081,74.8742 165.9163,75.0806 155.8242,75.2962 145.7319,75.5208 135.6393,75.7546 125.5463,75.9974 115.4531,76.2494 105.3595,76.5105 95.2655,76.7807 85.1712,77.0601 75.0766,77.3485 64.9816,77.6461 62.1549,77.7311" stroke="black" stroke-opacity="0.5" stroke-width="1" /><polyline fill="none" points="716.667,732.8232 717.0433,721.8987 717.4187,710.9749 717.7933,700.0518 718.1671,689.1294 718.5402,678.2077 718.9124,667.2865 719.2838,656.3659 719.6544,645.4459 720.0242,634.5264 720.3932,623.6074 720.7614,612.6889 721.1288,601.7709 721.4955,590.8533 721.8613,579.936 722.2263,569.0192 722.5906,558.1027 722.954,547.1865 723.3167,536.2707 723.6785,525.3551 724.0396,514.4397 724.3999,503.5246 724.7594,492.6097 725.1181,481.6949 725.4761,470.7803 725.8332,459.8658 726.1896,448.9514 726.5451,438.037 726.8999,427.1227 727.2539,416.2084 727.6072,405.2941 727.9596,394.3798 728.3113,383.4654 728.6622,372.5509 729.0123,361.6363 729.3617,350.7215 729.7102,339.8066 730.058,328.8915 730.405,317.9762 730.7513,307.0606 731.0968,296.1448 731.4415,285.2286 731.7854,274.3122 732.1286,263.3953 732.4709,252.4782 732.8126,241.5606 733.1534,230.6426 733.4935,219.7241 733.8328,208.8051 734.1714,197.8857 734.5092,186.9657 734.8462,176.0452 735.1825,165.1241 735.518,154.2023 735.8527,143.28 736.1867,132.357 736.5199,121.4333 736.8523,110.5088 737.184,99.5837 737.515,88.6578 737.8451,77.7311" stroke="black" stroke-opacity="0.5" stroke-width="1" /><polyline fill="none" points="716.667,732.8232 710.2335,732.6036 700.7726,732.2889 691.3119,731.9841 681.8515,731.6889 672.3913,731.4035 662.9313,731.1279 653.4715,730.862 644.0119,730.6059 634.5525,730.3596 625.0933,730.123 615.6343,729.8961 606.1754,729.679 596.7167,729.4716 587.2582,729.274 577.7998,729.0861 568.3416,728.908 558.8834,728.7396 549.4255,728.5809 539.9676,728.432 530.5098,728.2928 521.0522,728.1633 511.5946,728.0436 502.1371,727.9337 492.6797,727.8334 483.2224,727.7429 473.7652,727.6621 464.308,727.5911 454.8508,727.5298 445.3937,727.4782 435.9367,727.4364 426.4796,727.4043 417.0226,727.3819 407.5656,727.3692 398.1086,727.3663 388.6516,727.3731 379.1946,727.3897 369.7376,727.4159 360.2805,727.4519 350.8234,727.4977 341.3663,727.5531 331.9092,727.6183 322.4519,727.6933 312.9947,727.7779 303.5373,727.8723 294.0799,727.9765 284.6224,728.0903 275.1648,728.214 265.7071,728.3473 256.2493,728.4904 246.7914,728.6432 237.3333,728.8057 227.8752,728.978 218.4169,729.1601 208.9584,729.3519 199.4998,729.5534 190.041,729.7647 180.5821,729.9857 171.123,730.2164 161.6637,730.4569 152.2043,730.7072 142.7446,730.9672 133.2847,731.237 123.8247,731.5165 114.3644,731.8058 104.9039,732.1048 95.4431,732.4136 85.9821,732.7322 83.333,732.8232" stroke="black" stroke-opacity="0.5" stroke-width="1" /><polyline fill="none" points="83.333,732.8232 82.9567,721.8987 82.5813,710.9749 82.2067,700.0518 81.8329,689.1294 81.4598,678.2077 81.0876,667.2865 80.7162,656.3659 80.3456,645.4459 79.9758,634.5264 79.6068,623.6074 79.2386,612.6889 78.8712,601.7709 78.5045,590.8533 78.1387,579.936 77.7737,569.0192 77.4094,558.1027 77.046,547.1865 76.6833,536.2707 76.3215,525.3551 75.9604,514.4397 75.6001,503.5246 75.2406,492.6097 74.8819,481.6949 74.5239,470.7803 74.1668,459.8658 73.8104,448.9514 73.4549,438.037 73.1001,427.1227 72.7461,416.2084 72.3928,405.2941 72.0404,394.3798 71.6887,383.4654 71.3378,372.5509 70.9877,361.6363 70.6383,350.7215 70.2898,339.8066 69.942,328.8915 69.595,317.9762 69.2487,307.0606 68.9032,296.1448 68.5585,285.2286 68.2146,274.3122 67.8714,263.3953 67.5291,252.4782 67.1874,241.5606 66.8466,230.6426 66.5065,219.7241 66.1672,208.8051 65.8286,197.8857 65.4908,186.9657 65.1538,176.0452 64.8175,165.1241 64.482,154.2023 64.1473,143.28 63.8133,132.357 63.4801,121.4333 63.1477,110.5088 62.816,99.5837 62.485,88.6578 62.1549,77.7311" stroke="black" stroke-opacity="0.5" stroke-width="1" /></svg>