<?xml version="1.0" encoding="utf-8" ?>
<svg baseProfile="tiny" height="800" version="1.2" width="800" xmlns="http://www.w3.org/2000/svg" xmlns:ev="http://www.w3.org/2001/xml-events" xmlns:xlink="http://www.w3.org/1999/xlink"><defs /><rect fill="none" height="800" stroke="black" stroke-width="2" width="800" x="0" y="0" /><polyline fill="none" points="681.4731,731.6773 681.8074,720.7539 682.1411,709.8311 682.474,698.9091 682.8062,687.9877 683.1377,677.067 683.4684,666.1469 683.7985,655.2274 684.1278,644.3084 684.4565,633.39 684.7844,622.4722 685.1116,611.5548 685.4381,600.6378 685.7639,589.7213 686.089,578.8052 686.4134,567.8895 686.7371,556.9742 687.0601,546.0592 687.3824,535.1444 687.7039,524.23 688.0248,513.3159 688.345,502.4019 688.6645,491.4882 688.9832,480.5746 689.3013,469.6612 689.6187,458.7479 689.9354,447.8347 690.2514,436.9216 690.5667,426.0086 690.8813,415.0955 691.1952,404.1825 691.5084,393.2694 691.8209,382.3563 692.1327,371.4431 692.4438,360.5297 692.7543,349.6163 693.064,338.7027 693.3731,327.7889 693.6815,316.8749 693.9892,305.9606 694.2962,295.0461 694.6025,284.1313 694.9081,273.2162 695.2131,262.3007 695.5174,251.3849 695.8209,240.4687 696.1238,229.5521 696.4261,218.635 696.7276,207.7174 697.0284,196.7994 697.3286,185.8808 697.6281,174.9617 697.9269,164.042 698.2251,153.1217 698.5225,142.2008 698.8193,131.2793 699.1154,120.357 699.4109,109.4341 699.7056,98.5104 699.9997,87.5859 700.2931,76.6607" stroke="silver" stroke-opacity="0.5" stroke-width="1" /><polyline fill="none" points="586.8799,729.2663 587.1017,718.345 587.3232,707.4244 587.5441,696.5046 587.7645,685.5854 587.9845,674.6669 588.204,663.749 588.4231,652.8318 588.6416,641.9151 588.8597,630.999 589.0774,620.0834 589.2945,609.1683 589.5112,598.2537 589.7274,587.3396 589.9431,576.4258 590.1584,565.5125 590.3732,554.5996 590.5876,543.687 590.8014,532.7747 591.0148,521.8628 591.2278,510.9511 591.4402,500.0396 591.6522,489.1284 591.8638,478.2174 592.0749,467.3065 592.2855,456.3958 592.4956,445.4852 592.7053,434.5747 592.9146,423.6642 593.1233,412.7538 593.3316,401.8434 593.5395,390.933 593.7469,380.0225 593.9538,369.112 594.1603,358.2014 594.3663,347.2907 594.5718,336.3798 594.7769,325.4688 594.9816,314.5576 595.1858,303.6461 595.3895,292.7344 595.5928,281.8224 595.7956,270.9102 595.998,259.9976 596.1999,249.0846 596.4013,238.1713 596.6023,227.2576 596.8029,216.3434 597.003,205.4288 597.2026,194.5137 597.4018,183.5982 597.6006,172.682 597.7989,161.7653 597.9967,150.8481 598.1941,139.9302 598.391,129.0117 598.5875,118.0925 598.7836,107.1727 598.9792,96.2521 599.1743,85.3308 599.369,74.4087" stroke="silver" stroke-opacity="0.5" stroke-width="1" /><polyline fill="none" points="492.3014,727.8296 492.411,716.9096 492.5203,705.9903 492.6294,695.0718 492.7383,684.1539 492.8469,673.2367 492.9553,662.3202 493.0634,651.4043 493.1714,640.489 493.279,629.5742 493.3865,618.66 493.4937,607.7463 493.6007,596.8331 493.7075,585.9204 493.814,575.0081 493.9203,564.0962 494.0264,553.1847 494.1322,542.2735 494.2378,531.3627 494.3432,520.4522 494.4483,509.542 494.5532,498.632 494.6579,487.7223 494.7623,476.8128 494.8666,465.9034 494.9706,454.9942 495.0743,444.0852 495.1779,433.1762 495.2812,422.2673 495.3843,411.3585 495.4871,400.4496 495.5898,389.5408 495.6922,378.632 495.7943,367.7231 495.8963,356.8141 495.998,345.905 496.0995,334.9957 496.2008,324.0864 496.3018,313.1768 496.4026,302.267 496.5032,291.357 496.6036,280.4467 496.7037,269.5361 496.8036,258.6252 496.9033,247.714 497.0028,236.8024 497.1021,225.8904 497.2011,214.978 497.2999,204.0652 497.3985,193.1518 497.4968,182.238 497.595,171.3237 497.6929,160.4088 497.7905,149.4933 497.888,138.5773 497.9853,127.6606 498.0823,116.7432 498.1791,105.8252 498.2757,94.9065 498.372,83.987 498.4681,73.0668" stroke="silver" stroke-opacity="0.5" stroke-width="1" /><polyline fill="none" points="397.7303,727.3664 397.7276,716.4468 397.7249,705.5279 397.7223,694.6098 397.7196,683.6924 397.7169,672.7756 397.7142,661.8595 397.7116,650.944 397.7089,640.0291 397.7063,629.1148 397.7036,618.2011 397.701,607.2878 397.6984,596.3751 397.6958,585.4628 397.6931,574.5509 397.6905,563.6395 397.6879,552.7285 397.6853,541.8178 397.6827,530.9074 397.6801,519.9974 397.6775,509.0877 397.675,498.1782 397.6724,487.269 397.6698,476.3599 397.6673,465.4511 397.6647,454.5424 397.6621,443.6338 397.6596,432.7253 397.6571,421.8169 397.6545,410.9086 397.652,400.0003 397.6495,389.092 397.647,378.1836 397.6444,367.2752 397.6419,356.3668 397.6394,345.4582 397.6369,334.5495 397.6344,323.6406 397.632,312.7316 397.6295,301.8223 397.627,290.9129 397.6245,280.0031 397.6221,269.0931 397.6196,258.1828 397.6172,247.2721 397.6147,236.361 397.6123,225.4496 397.6099,214.5378 397.6074,203.6255 397.605,192.7127 397.6026,181.7995 397.6002,170.8857 397.5978,159.9714 397.5954,149.0565 397.593,138.141 397.5906,127.2249 397.5882,116.3082 397.5858,105.3908 397.5834,94.4726 397.5811,83.5538 397.5787,72.6342" stroke="silver" stroke-opacity="0.5" stroke-width="1" /><polyline fill="none" points="303.159,727.8763 303.0441,716.9563 302.9294,706.0369 302.8149,695.1183 302.7007,684.2004 302.5867,673.2832 302.473,662.3666 302.3595,651.4507 302.2463,640.5353 302.1333,629.6205 302.0206,618.7063 301.9081,607.7925 301.7958,596.8793 301.6838,585.9665 301.5721,575.0542 301.4605,564.1422 301.3493,553.2307 301.2382,542.3195 301.1274,531.4086 301.0169,520.4981 300.9066,509.5878 300.7965,498.6778 300.6866,487.768 300.5771,476.8585 300.4677,465.9491 300.3586,455.0398 300.2497,444.1307 300.1411,433.2217 300.0327,422.3127 299.9245,411.4038 299.8166,400.495 299.709,389.5861 299.6015,378.6772 299.4943,367.7682 299.3874,356.8592 299.2806,345.95 299.1741,335.0407 299.0679,324.1313 298.9619,313.2217 298.8561,302.3118 298.7506,291.4018 298.6452,280.4914 298.5402,269.5808 298.4353,258.6699 298.3307,247.7586 298.2264,236.8469 298.1222,225.9349 298.0184,215.0224 297.9147,204.1095 297.8113,193.1961 297.7081,182.2822 297.6051,171.3678 297.5024,160.4529 297.3999,149.5374 297.2976,138.6213 297.1956,127.7045 297.0938,116.7871 296.9923,105.869 296.8909,94.9502 296.7898,84.0307 296.689,73.1104" stroke="silver" stroke-opacity="0.5" stroke-width="1" /><polyline fill="none" points="208.5801,729.3597 208.3528,718.4383 208.126,707.5177 207.8997,696.5978 207.6739,685.6785 207.4485,674.7599 207.2237,663.842 206.9993,652.9246 206.7754,642.0079 206.5521,631.0917 206.3291,620.176 206.1067,609.2608 205.8848,598.3461 205.6633,587.4319 205.4423,576.5181 205.2218,565.6047 205.0018,554.6916 204.7822,543.779 204.5632,532.8666 204.3446,521.9545 204.1265,511.0427 203.9088,500.1312 203.6916,489.2199 203.475,478.3087 203.2588,467.3978 203.043,456.487 202.8277,445.5763 202.613,434.6656 202.3986,423.7551 202.1848,412.8446 201.9714,401.9341 201.7585,391.0236 201.5461,380.113 201.3341,369.2024 201.1226,358.2917 200.9116,347.3808 200.7011,336.4699 200.491,325.5587 200.2814,314.6474 200.0722,303.7358 199.8635,292.824 199.6553,281.9119 199.4476,270.9996 199.2403,260.0868 199.0335,249.1738 198.8271,238.2604 198.6212,227.3465 198.4158,216.4323 198.2108,205.5175 198.0063,194.6023 197.8023,183.6866 197.5987,172.7704 197.3956,161.8536 197.1929,150.9362 196.9907,140.0182 196.789,129.0996 196.5877,118.1803 196.3869,107.2603 196.1866,96.3396 195.9867,85.4182 195.7872,74.496" stroke="silver" stroke-opacity="0.5" stroke-width="1" /><polyline fill="none" points="113.986,731.8176 113.6462,720.894 113.3072,709.9711 112.9689,699.049 112.6313,688.1275 112.2945,677.2066 111.9583,666.2864 111.623,655.3668 111.2883,644.4477 110.9543,633.5291 110.6211,622.6111 110.2886,611.6936 109.9568,600.7765 109.6257,589.8599 109.2954,578.9436 108.9658,568.0278 108.6368,557.1123 108.3086,546.1972 107.9812,535.2823 107.6544,524.3677 107.3283,513.4534 107.003,502.5393 106.6783,491.6255 106.3544,480.7117 106.0312,469.7982 105.7087,458.8848 105.3869,447.9714 105.0658,437.0582 104.7454,426.1449 104.4257,415.2317 104.1067,404.3185 103.7885,393.4053 103.4709,382.492 103.154,371.5787 102.8379,360.6652 102.5224,349.7516 102.2077,338.8378 101.8936,327.9238 101.5802,317.0097 101.2676,306.0953 100.9556,295.1806 100.6443,284.2656 100.3338,273.3503 100.0239,262.4347 99.7147,251.5187 99.4062,240.6024 99.0984,229.6856 98.7913,218.7683 98.4849,207.8506 98.1792,196.9324 97.8742,186.0136 97.5698,175.0943 97.2662,164.1745 96.9632,153.254 96.661,142.3329 96.3594,131.4112 96.0585,120.4887 95.7583,109.5656 95.4587,98.6418 95.1599,87.7171 94.8618,76.7917" stroke="silver" stroke-opacity="0.5" stroke-width="1" /><polyline fill="none" points="717.0455,732.8362 709.855,732.5908 700.3941,732.2766 690.9335,731.9721 681.4731,731.6773 672.0129,731.3923 662.5529,731.1171 653.0931,730.8516 643.6335,730.5959 634.1741,730.3499 624.715,730.1137 615.2559,729.8872 605.7971,729.6705 596.3384,729.4635 586.8799,729.2663 577.4215,729.0788 567.9632,728.901 558.5051,728.733 549.0471,728.5748 539.5893,728.4262 530.1315,728.2874 520.6739,728.1584 511.2163,728.039 501.7588,727.9295 492.3014,727.8296 482.8441,727.7395 473.3869,727.6591 463.9297,727.5885 454.4725,727.5275 445.0154,727.4763 435.5584,727.4349 426.1013,727.4032 416.6443,727.3812 407.1873,727.3689 397.7303,727.3664 388.2733,727.3736 378.8163,727.3905 369.3593,727.4172 359.9022,727.4536 350.4452,727.4997 340.988,727.5556 331.5309,727.6212 322.0737,727.6965 312.6164,727.7815 303.159,727.8763 293.7016,727.9808 284.2441,728.0951 274.7865,728.2191 265.3288,728.3528 255.871,728.4963 246.413,728.6495 236.955,728.8125 227.4968,728.9851 218.0385,729.1676 208.5801,729.3597 199.1215,729.5616 189.6627,729.7733 180.2038,729.9947 170.7447,730.2259 161.2854,730.4668 151.8259,730.7174 142.3662,730.9778 132.9063,731.248 123.4463,731.5279 113.986,731.8176 104.5254,732.117 95.0647,732.4262 85.6037,732.7452 82.9545,732.8362" stroke="silver" stroke-opacity="0.5" stroke-width="1" /><polyline fill="none" points="720.0364,645.4589 712.778,645.2153 703.2277,644.9033 693.6776,644.601 684.1278,644.3084 674.5783,644.0255 665.0289,643.7523 655.4798,643.4888 645.9309,643.2349 636.3823,642.9908 626.8338,642.7563 617.2855,642.5315 607.7374,642.3163 598.1894,642.1109 588.6416,641.9151 579.094,641.729 569.5466,641.5525 559.9993,641.3857 550.4521,641.2286 540.905,641.0812 531.3581,640.9434 521.8113,640.8153 512.2645,640.6969 502.7179,640.5881 493.1714,640.489 483.6249,640.3995 474.0785,640.3197 464.5322,640.2496 454.9859,640.1891 445.4397,640.1383 435.8935,640.0971 426.3473,640.0656 416.8012,640.0438 407.2551,640.0316 397.7089,640.0291 388.1628,640.0363 378.6167,640.0531 369.0705,640.0796 359.5244,640.1157 349.9781,640.1615 340.4319,640.2169 330.8856,640.282 321.3392,640.3568 311.7928,640.4412 302.2463,640.5353 292.6997,640.6391 283.1531,640.7525 273.6063,640.8756 264.0594,641.0083 254.5124,641.1508 244.9653,641.3028 235.4181,641.4646 225.8707,641.636 216.3231,641.8171 206.7754,642.0079 197.2276,642.2083 187.6796,642.4184 178.1314,642.6382 168.583,642.8676 159.0344,643.1068 149.4856,643.3556 139.9366,643.6141 130.3874,643.8823 120.838,644.1601 111.2883,644.4477 101.7384,644.7449 92.1882,645.0518 82.6378,645.3685 79.9636,645.4589" stroke="silver" stroke-opacity="0.5" stroke-width="1" /><polyline fill="none" points="722.9761,558.1156 715.6509,557.8739 706.0127,557.5644 696.3748,557.2645 686.7371,556.9742 677.0997,556.6935 667.4626,556.4224 657.8256,556.161 648.189,555.9091 638.5525,555.6668 628.9162,555.4342 619.2802,555.2111 609.6444,554.9977 600.0087,554.7938 590.3732,554.5996 580.7379,554.4149 571.1028,554.2399 561.4678,554.0744 551.8329,553.9185 542.1982,553.7722 532.5636,553.6356 522.9291,553.5084 513.2948,553.3909 503.6605,553.283 494.0264,553.1847 484.3923,553.0959 474.7583,553.0167 465.1243,552.9472 455.4904,552.8872 445.8566,552.8368 436.2228,552.7959 426.5891,552.7647 416.9553,552.743 407.3216,552.731 397.6879,552.7285 388.0542,552.7356 378.4205,552.7522 368.7867,552.7785 359.153,552.8143 349.5191,552.8598 339.8853,552.9148 330.2514,552.9794 320.6174,553.0535 310.9834,553.1373 301.3493,553.2307 291.715,553.3336 282.0807,553.4461 272.4463,553.5683 262.8118,553.7 253.1772,553.8413 243.5424,553.9922 233.9075,554.1526 224.2724,554.3227 214.6372,554.5024 205.0018,554.6916 195.3662,554.8905 185.7305,555.099 176.0945,555.317 166.4584,555.5447 156.822,555.7819 147.1855,556.0288 137.5487,556.2853 127.9116,556.5513 118.2744,556.827 108.6368,557.1123 98.9991,557.4072 89.361,557.7117 79.7227,558.0259 77.0239,558.1156" stroke="silver" stroke-opacity="0.5" stroke-width="1" /><polyline fill="none" points="725.865,470.793 718.4742,470.5534 708.7496,470.2465 699.0253,469.9491 689.3013,469.6612 679.5776,469.3829 669.8541,469.1141 660.1309,468.8548 650.408,468.605 640.6853,468.3648 630.9628,468.1341 621.2405,467.9129 611.5184,467.7013 601.7965,467.4991 592.0749,467.3065 582.3534,467.1234 572.632,466.9498 562.9109,466.7857 553.1899,466.6312 543.469,466.4861 533.7483,466.3505 524.0277,466.2245 514.3072,466.108 504.5868,466.001 494.8666,465.9034 485.1464,465.8154 475.4263,465.7369 465.7063,465.6679 455.9863,465.6084 446.2664,465.5584 436.5465,465.518 426.8267,465.487 417.1068,465.4655 407.387,465.4535 397.6673,465.4511 387.9475,465.4581 378.2277,465.4746 368.5078,465.5007 358.788,465.5362 349.0681,465.5813 339.3481,465.6358 329.6281,465.6999 319.9081,465.7734 310.1879,465.8565 300.4677,465.9491 290.7474,466.0511 281.027,466.1627 271.3064,466.2838 261.5858,466.4144 251.865,466.5545 242.1441,466.7042 232.423,466.8633 222.7017,467.0319 212.9803,467.2101 203.2588,467.3978 193.537,467.595 183.815,467.8017 174.0929,468.0179 164.3705,468.2437 154.6479,468.4789 144.925,468.7237 135.202,468.9781 125.4786,469.2419 115.755,469.5153 106.0312,469.7982 96.3071,470.0906 86.5826,470.3926 76.8579,470.7041 74.135,470.793" stroke="silver" stroke-opacity="0.5" stroke-width="1" /><polyline fill="none" points="728.7037,383.478 721.2483,383.2405 711.4389,382.9363 701.6297,382.6416 691.8209,382.3563 682.0123,382.0804 672.2041,381.814 662.3961,381.557 652.5883,381.3095 642.7809,381.0714 632.9736,380.8428 623.1666,380.6236 613.3598,380.4138 603.5532,380.2134 593.7469,380.0225 583.9407,379.8411 574.1347,379.669 564.3289,379.5064 554.5232,379.3532 544.7177,379.2094 534.9124,379.0751 525.1071,378.9502 515.302,378.8347 505.497,378.7286 495.6922,378.632 485.8874,378.5447 476.0827,378.4669 466.278,378.3986 456.4735,378.3396 446.669,378.2901 436.8645,378.2499 427.0601,378.2192 417.2557,378.1979 407.4513,378.1861 397.647,378.1836 387.8426,378.1906 378.0382,378.207 368.2338,378.2328 358.4294,378.268 348.6249,378.3127 338.8203,378.3667 329.0158,378.4302 319.2111,378.5031 309.4063,378.5854 299.6015,378.6772 289.7966,378.7784 279.9915,378.8889 270.1864,379.009 260.3811,379.1384 250.5757,379.2773 240.7701,379.4256 230.9643,379.5833 221.1584,379.7504 211.3524,379.927 201.5461,380.113 191.7396,380.3084 181.9329,380.5133 172.1261,380.7276 162.3189,380.9513 152.5116,381.1845 142.704,381.4271 132.8961,381.6792 123.088,381.9407 113.2796,382.2116 103.4709,382.492 93.6619,382.7819 83.8526,383.0812 74.043,383.3899 71.2963,383.478" stroke="silver" stroke-opacity="0.5" stroke-width="1" /><polyline fill="none" points="731.4925,296.1573 723.9737,295.922 714.0809,295.6207 704.1884,295.3287 694.2962,295.0461 684.4043,294.7729 674.5127,294.509 664.6214,294.2544 654.7304,294.0092 644.8396,293.7734 634.9492,293.5469 625.0589,293.3298 615.1689,293.122 605.2791,292.9235 595.3895,292.7344 585.5001,292.5546 575.6109,292.3842 565.7219,292.2231 555.8331,292.0714 545.9445,291.929 536.0559,291.7959 526.1676,291.6722 516.2793,291.5578 506.3912,291.4527 496.5032,291.357 486.6153,291.2706 476.7275,291.1935 466.8398,291.1258 456.9521,291.0674 447.0645,291.0183 437.1769,290.9785 427.2894,290.9481 417.4019,290.927 407.5145,290.9153 397.627,290.9129 387.7395,290.9198 377.8521,290.936 367.9646,290.9616 358.077,290.9965 348.1895,291.0407 338.3018,291.0942 328.4141,291.1571 318.5264,291.2293 308.6385,291.3109 298.7506,291.4018 288.8625,291.502 278.9743,291.6115 269.086,291.7304 259.1976,291.8586 249.309,291.9962 239.4203,292.1431 229.5314,292.2993 219.6423,292.4649 209.753,292.6398 199.8635,292.824 189.9738,293.0176 180.0839,293.2205 170.1938,293.4328 160.3034,293.6544 150.4128,293.8854 140.5219,294.1257 130.6308,294.3754 120.7394,294.6345 110.8476,294.9028 100.9556,295.1806 91.0633,295.4677 81.1706,295.7641 71.2776,296.07 68.5075,296.1573" stroke="silver" stroke-opacity="0.5" stroke-width="1" /><polyline fill="none" points="734.2318,208.8175 726.6508,208.5846 716.676,208.2863 706.7016,207.9972 696.7276,207.7174 686.7538,207.4469 676.7804,207.1857 666.8073,206.9337 656.8345,206.6909 646.8619,206.4574 636.8896,206.2332 626.9176,206.0182 616.9458,205.8125 606.9743,205.616 597.003,205.4288 587.0319,205.2509 577.061,205.0821 567.0903,204.9227 557.1198,204.7724 547.1494,204.6315 537.1792,204.4997 527.2092,204.3772 517.2393,204.264 507.2695,204.1599 497.2999,204.0652 487.3303,203.9796 477.3609,203.9033 467.3915,203.8363 457.4222,203.7784 447.453,203.7299 437.4838,203.6905 427.5147,203.6604 417.5456,203.6395 407.5765,203.6279 397.6074,203.6255 387.6383,203.6323 377.6692,203.6484 367.7001,203.6737 357.731,203.7082 347.7618,203.752 337.7925,203.805 327.8232,203.8673 317.8538,203.9388 307.8843,204.0195 297.9147,204.1095 287.945,204.2087 277.9752,204.3172 268.0052,204.4349 258.0351,204.5618 248.0648,204.698 238.0944,204.8434 228.1238,204.9981 218.153,205.162 208.182,205.3351 198.2108,205.5175 188.2394,205.7092 178.2677,205.9101 168.2959,206.1203 158.3237,206.3397 148.3513,206.5684 138.3786,206.8063 128.4056,207.0535 118.4324,207.3099 108.4588,207.5756 98.4849,207.8506 88.5107,208.1348 78.5361,208.4283 68.5612,208.7311 65.7682,208.8175" stroke="silver" stroke-opacity="0.5" stroke-width="1" /><polyline fill="none" points="736.9221,121.4455 729.2799,121.215 719.2247,120.9199 709.1699,120.6338 699.1154,120.357 689.0613,120.0893 679.0075,119.8308 668.954,119.5815 658.9008,119.3413 648.8479,119.1103 638.7953,118.8884 628.743,118.6757 618.6909,118.4722 608.6391,118.2778 598.5875,118.0925 588.5362,117.9164 578.485,117.7495 568.4341,117.5917 558.3834,117.443 548.3328,117.3035 538.2824,117.1732 528.2322,117.052 518.1821,116.9399 508.1321,116.837 498.0823,116.7432 488.0326,116.6586 477.9829,116.5831 467.9334,116.5167 457.8839,116.4595 447.8345,116.4115 437.7852,116.3725 427.7359,116.3427 417.6867,116.3221 407.6374,116.3106 397.5882,116.3082 387.5389,116.315 377.4897,116.3309 367.4404,116.3559 357.3911,116.3901 347.3418,116.4334 337.2923,116.4859 327.2428,116.5475 317.1933,116.6182 307.1436,116.6981 297.0938,116.7871 287.0439,116.8853 276.9939,116.9926 266.9437,117.109 256.8934,117.2346 246.843,117.3694 236.7923,117.5133 226.7415,117.6663 216.6904,117.8285 206.6392,117.9998 196.5877,118.1803 186.536,118.3699 176.4841,118.5687 166.4319,118.7767 156.3795,118.9938 146.3267,119.22 136.2737,119.4554 126.2204,119.7 116.1667,119.9538 106.1128,120.2167 96.0585,120.4887 86.0038,120.77 75.9488,121.0604 65.8935,121.36 63.0779,121.4455" stroke="silver" stroke-opacity="0.5" stroke-width="1" /><circle cx="734.0335" cy="215.1943" fill="black" r="0.936" stroke="none" /><circle cx="710.855" cy="693.7808" fill="black" r="0.738" stroke="none" /><circle cx="706.9409" cy="687.8777" fill="black" r="0.738" stroke="none" /><circle cx="716.7776" cy="311.1721" fill="black" r="0.738" stroke="none" /><circle cx="721.734" cy="95.452" fill="black" r="0.738" stroke="none" /><circle cx="696.4497" cy="602.2845" fill="black" r="0.738" stroke="none" /><circle cx="692.7234" cy="670.2792" fill="black" r="0.738" stroke="none" /><circle cx="708.8677" cy="119.9258" fill="black" r="0.738" stroke="none" /><circle cx="674.4084" cy="675.932" fill="black" r="0.738" stroke="none" /><circle cx="680.4443" cy="430.09" fill="black" r="0.738" stroke="none" /><circle cx="682.0874" cy="268.9332" fill="black" r="0.738" stroke="none" /><circle cx="670.7399" cy="499.2806" fill="black" r="0.738" stroke="none" /><circle cx="666.9996" cy="505.5565" fill="black" r="0.738" stroke="none" /><circle cx="672.6949" cy="266.8515" fill="black" r="0.738" stroke="none" /><circle cx="673.7197" cy="192.5124" fill="black" r="0.738" stroke="none" /><circle cx="663.1354" cy="419.5761" fill="black" r="0.738" stroke="none" /><circle cx="662.5944" cy="425.3275" fill="black" r="0.738" stroke="none" /><circle cx="661.5567" cy="411.0615" fill="black" r="0.738" stroke="none" /><circle cx="668.548" cy="113.1021" fill="black" r="0.738" stroke="none" /><circle cx="661.0274" cy="285.9521" fill="black" r="0.936" stroke="none" /><circle cx="659.5346" cy="190.6767" fill="black" r="0.738" stroke="none" /><circle cx="654.5722" cy="294.0054" fill="black" r="1.854" stroke="none" /><circle cx="655.6379" cy="169.4355" fill="black" r="0.738" stroke="none" /><circle cx="644.8374" cy="399.9869" fill="black" r="0.738" stroke="none" /><circle cx="637.128" cy="655.8569" fill="black" r="0.738" stroke="none" /><circle cx="634.0675" cy="527.2537" fill="black" r="0.738" stroke="none" /><circle cx="638.2613" cy="342.3602" fill="black" r="0.738" stroke="none" /><circle cx="631.5967" cy="301.9446" fill="black" r="0.738" stroke="none" /><circle cx="623.2781" cy="552.4198" fill="black" r="0.738" stroke="none" /><circle cx="621.6917" cy="567.7578" fill="black" r="1.17" stroke="none" /><circle cx="608.0418" cy="714.0734" fill="black" r="0.738" stroke="none" /><circle cx="606.3181" cy="672.0826" fill="black" r="0.738" stroke="none" /><circle cx="612.0142" cy="399.7718" fill="black" r="0.738" stroke="none" /><circle cx="616.022" cy="192.1658" fill="black" r="0.936" stroke="none" /><circle cx="599.8386" cy="718.1752" fill="black" r="0.738" stroke="none" /><circle cx="600.9699" cy="611.8536" fill="black" r="0.738" stroke="none" /><circle cx="611.0609" cy="100.9322" fill="black" r="0.738" stroke="none" /><circle cx="600.3729" cy="460.9211" fill="black" r="0.738" stroke="none" /><circle cx="595.3088" cy="535.3967" fill="black" r="0.738" stroke="none" /><circle cx="594.5421" cy="226.6958" fill="black" r="0.936" stroke="none" /><circle cx="592.6154" cy="249.543" fill="black" r="0.738" stroke="none" /><circle cx="593.3163" cy="106.7264" fill="black" r="0.738" stroke="none" /><circle cx="587.7066" cy="392.6572" fill="black" r="0.738" stroke="none" /><circle cx="578.0508" cy="700.3374" fill="black" r="0.936" stroke="none" /><circle cx="578.0123" cy="466.2589" fill="black" r="0.738" stroke="none" /><circle cx="572.92" cy="611.5647" fill="black" r="0.738" stroke="none" /><circle cx="577.8405" cy="132.767" fill="black" r="0.738" stroke="none" /><circle cx="569.7837" cy="519.2881" fill="black" r="0.738" stroke="none" /><circle cx="568.1119" cy="601.6962" fill="black" r="0.738" stroke="none" /><circle cx="569.4015" cy="220.2421" fill="black" r="1.476" stroke="none" /><circle cx="557.0556" cy="408.375" fill="black" r="0.738" stroke="none" /><circle cx="559.4883" cy="238.5152" fill="black" r="0.738" stroke="none" /><circle cx="556.1682" cy="374.4022" fill="black" r="0.936" stroke="none" /><circle cx="555.1634" cy="315.8085" fill="black" r="0.738" stroke="none" /><circle cx="549.6696" cy="661.5693" fill="black" r="0.738" stroke="none" /><circle cx="544.7384" cy="723.4374" fill="black" r="0.738" stroke="none" /><circle cx="542.4929" cy="716.8485" fill="black" r="1.476" stroke="none" /><circle cx="543.9671" cy="262.9161" fill="black" r="0.738" stroke="none" /><circle cx="537.6017" cy="704.3667" fill="black" r="0.936" stroke="none" /><circle cx="536.7428" cy="585.0404" fill="black" r="0.738" stroke="none" /><circle cx="535.9759" cy="568.6136" fill="black" r="0.738" stroke="none" /><circle cx="522.508" cy="645.9773" fill="black" r="0.738" stroke="none" /><circle cx="522.7136" cy="336.2375" fill="black" r="0.738" stroke="none" /><circle cx="524.7833" cy="80.4066" fill="black" r="0.738" stroke="none" /><circle cx="517.8513" cy="442.5818" fill="black" r="0.738" stroke="none" /><circle cx="520.4915" cy="155.5714" fill="black" r="0.738" stroke="none" /><circle cx="516.8382" cy="233.6838" fill="black" r="0.738" stroke="none" /><circle cx="515.2388" cy="189.922" fill="black" r="0.738" stroke="none" /><circle cx="499.0791" cy="608.6759" fill="black" r="0.738" stroke="none" /><circle cx="501.729" cy="139.7476" fill="black" r="0.738" stroke="none" /><circle cx="495.9487" cy="112.4444" fill="black" r="0.738" stroke="none" /><circle cx="483.83" cy="483.5222" fill="black" r="0.738" stroke="none" /><circle cx="480.8938" cy="190.1342" fill="black" r="0.738" stroke="none" /><circle cx="475.8034" cy="644.2631" fill="black" r="0.738" stroke="none" /><circle cx="469.0871" cy="200.6167" fill="black" r="1.476" stroke="none" /><circle cx="462.9659" cy="724.6988" fill="black" r="0.738" stroke="none" /><circle cx="461.4293" cy="401.9315" fill="black" r="0.936" stroke="none" /><circle cx="456.5857" cy="563.2813" fill="black" r="0.738" stroke="none" /><circle cx="458.9291" cy="116.4651" fill="black" r="0.738" stroke="none" /><circle cx="437.2262" cy="231.8866" fill="black" r="0.738" stroke="none" /><circle cx="434.6133" cy="696.945" fill="black" r="0.738" stroke="none" /><circle cx="435.8179" cy="295.1632" fill="black" r="0.738" stroke="none" /><circle cx="434.4663" cy="591.2862" fill="black" r="0.738" stroke="none" /><circle cx="433.2979" cy="216.1606" fill="black" r="0.738" stroke="none" /><circle cx="429.7355" cy="506.5141" fill="black" r="0.738" stroke="none" /><circle cx="427.8174" cy="209.9468" fill="black" r="0.738" stroke="none" /><circle cx="424.3033" cy="633.0749" fill="black" r="0.738" stroke="none" /><circle cx="416.8784" cy="119.1156" fill="black" r="0.738" stroke="none" /><circle cx="412.5898" cy="280.0977" fill="black" r="0.738" stroke="none" /><circle cx="404.0379" cy="662.384" fill="black" r="0.738" stroke="none" /><circle cx="402.1043" cy="442.761" fill="black" r="0.738" stroke="none" /><circle cx="399.5424" cy="652.8648" fill="black" r="0.738" stroke="none" /><circle cx="397.7935" cy="329.7496" fill="black" r="0.738" stroke="none" /><circle cx="394.3843" cy="570.5368" fill="black" r="0.738" stroke="none" /><circle cx="389.2262" cy="497.2238" fill="black" r="0.738" stroke="none" /><circle cx="387.0405" cy="170.5439" fill="black" r="0.738" stroke="none" /><circle cx="386.3528" cy="258.4531" fill="black" r="0.738" stroke="none" /><circle cx="380.8829" cy="471.4036" fill="black" r="0.738" stroke="none" /><circle cx="375.1852" cy="699.3593" fill="black" r="0.738" stroke="none" /><circle cx="372.9353" cy="602.6989" fill="black" r="0.738" stroke="none" /><circle cx="352.6178" cy="255.4954" fill="black" r="0.738" stroke="none" /><circle cx="349.1176" cy="706.279" fill="black" r="0.738" stroke="none" /><circle cx="347.0305" cy="447.9628" fill="black" r="0.738" stroke="none" /><circle cx="345.7544" cy="609.3628" fill="black" r="0.738" stroke="none" /><circle cx="341.8939" cy="150.4331" fill="black" r="0.738" stroke="none" /><circle cx="340.0251" cy="288.1167" fill="black" r="0.738" stroke="none" /><circle cx="335.7954" cy="79.9817" fill="black" r="0.738" stroke="none" /><circle cx="336.9822" cy="410.7557" fill="black" r="0.738" stroke="none" /><circle cx="336.0589" cy="557.042" fill="black" r="0.936" stroke="none" /><circle cx="333.0927" cy="483.5678" fill="black" r="0.738" stroke="none" /><circle cx="320.6829" cy="589.0208" fill="black" r="0.738" stroke="none" /><circle cx="317.9187" cy="460.2911" fill="black" r="0.738" stroke="none" /><circle cx="315.2681" cy="686.7854" fill="black" r="0.936" stroke="none" /><circle cx="298.5899" cy="122.1015" fill="black" r="0.738" stroke="none" /><circle cx="294.6104" cy="633.8931" fill="black" r="0.738" stroke="none" /><circle cx="287.7909" cy="345.9814" fill="black" r="0.738" stroke="none" /><circle cx="287.4447" cy="544.0409" fill="black" r="0.738" stroke="none" /><circle cx="281.1673" cy="189.961" fill="black" r="0.738" stroke="none" /><circle cx="286.0079" cy="693.1256" fill="black" r="0.738" stroke="none" /><circle cx="277.5803" cy="204.6709" fill="black" r="0.738" stroke="none" /><circle cx="267.0169" cy="376.6057" fill="black" r="0.738" stroke="none" /><circle cx="264.8633" cy="649.1198" fill="black" r="0.738" stroke="none" /><circle cx="259.6857" cy="452.9976" fill="black" r="0.738" stroke="none" /><circle cx="250.5543" cy="147.806" fill="black" r="0.738" stroke="none" /><circle cx="256.0187" cy="679.4761" fill="black" r="0.738" stroke="none" /><circle cx="254.0985" cy="619.2344" fill="black" r="0.738" stroke="none" /><circle cx="248.2654" cy="230.1066" fill="black" r="0.738" stroke="none" /><circle cx="246.5645" cy="540.3224" fill="black" r="0.738" stroke="none" /><circle cx="239.3064" cy="253.465" fill="black" r="0.738" stroke="none" /><circle cx="238.3484" cy="394.9158" fill="black" r="0.738" stroke="none" /><circle cx="237.6691" cy="543.9596" fill="black" r="0.936" stroke="none" /><circle cx="235.8064" cy="487.9352" fill="black" r="0.738" stroke="none" /><circle cx="232.4175" cy="695.5983" fill="black" r="0.738" stroke="none" /><circle cx="217.5547" cy="97.0172" fill="black" r="0.738" stroke="none" /><circle cx="219.0312" cy="533.7224" fill="black" r="0.738" stroke="none" /><circle cx="211.7625" cy="177.233" fill="black" r="0.738" stroke="none" /><circle cx="206.2197" cy="431.452" fill="black" r="0.738" stroke="none" /><circle cx="201.1625" cy="265.2032" fill="black" r="0.738" stroke="none" /><circle cx="199.0676" cy="591.7608" fill="black" r="0.738" stroke="none" /><circle cx="197.4494" cy="652.5139" fill="black" r="0.738" stroke="none" /><circle cx="193.7409" cy="590.5637" fill="black" r="0.738" stroke="none" /><circle cx="189.5497" cy="437.1142" fill="black" r="0.738" stroke="none" /><circle cx="187.5336" cy="649.4995" fill="black" r="0.738" stroke="none" /><circle cx="183.2951" cy="465.3677" fill="black" r="0.738" stroke="none" /><circle cx="170.0754" cy="218.4003" fill="black" r="0.738" stroke="none" /><circle cx="174.0047" cy="398.1524" fill="black" r="0.738" stroke="none" /><circle cx="163.786" cy="178.6956" fill="black" r="0.738" stroke="none" /><circle cx="167.404" cy="359.4366" fill="black" r="0.738" stroke="none" /><circle cx="167.8962" cy="664.5588" fill="black" r="0.738" stroke="none" /><circle cx="155.2938" cy="541.0556" fill="black" r="1.476" stroke="none" /><circle cx="146.3035" cy="310.4946" fill="black" r="0.738" stroke="none" /><circle cx="150.4627" cy="610.7309" fill="black" r="0.738" stroke="none" /><circle cx="143.8364" cy="507.7143" fill="black" r="0.738" stroke="none" /><circle cx="142.6717" cy="557.4584" fill="black" r="0.738" stroke="none" /><circle cx="129.2125" cy="139.9079" fill="black" r="0.738" stroke="none" /><circle cx="135.844" cy="466.7769" fill="black" r="0.936" stroke="none" /><circle cx="115.0128" cy="159.1504" fill="black" r="0.738" stroke="none" /><circle cx="110.1012" cy="152.3733" fill="black" r="0.738" stroke="none" /><circle cx="123.1948" cy="682.4733" fill="black" r="0.738" stroke="none" /><circle cx="122.1879" cy="671.6608" fill="black" r="0.738" stroke="none" /><circle cx="117.838" cy="668.9929" fill="black" r="0.738" stroke="none" /><circle cx="99.8689" cy="225.9054" fill="black" r="0.738" stroke="none" /><circle cx="103.4371" cy="437.4557" fill="black" r="0.738" stroke="none" /><circle cx="103.7516" cy="453.3501" fill="black" r="0.738" stroke="none" /><circle cx="91.8345" cy="207.0775" fill="black" r="0.738" stroke="none" /><circle cx="99.3494" cy="475.4163" fill="black" r="0.738" stroke="none" /><circle cx="83.7432" cy="131.7664" fill="black" r="0.738" stroke="none" /><circle cx="85.3513" cy="505.0435" fill="black" r="0.738" stroke="none" /><circle cx="73.1707" cy="114.2323" fill="black" r="0.738" stroke="none" /><circle cx="75.0844" cy="205.2097" fill="black" r="0.738" stroke="none" /><circle cx="13.77" cy="786.23" fill="black" r="4.59" stroke="none" /><circle cx="13.77" cy="786.23" fill="black" r="4.59" stroke="none" /><text fill="black" font-family="monospace" font-size="12" x="10.77" y="775.64">1</text><circle cx="37.77" cy="786.23" fill="black" r="3.654" stroke="none" /><circle cx="37.77" cy="786.23" fill="black" r="3.654" stroke="none" /><text fill="black" font-family="monospace" font-size="12" x="34.769999999999996" y="775.64">2</text><circle cx="61.77" cy="786.23" fill="black" r="2.916" stroke="none" /><circle cx="61.77" cy="786.23" fill="black" r="2.916" stroke="none" /><text fill="black" font-family="monospace" font-size="12" x="58.769999999999996" y="775.64">3</text><circle cx="85.77" cy="786.23" fill="black" r="2.322" stroke="none" /><circle cx="85.77" cy="786.23" fill="black" r="2.322" stroke="none" /><text fill="black" font-family="monospace" font-size="12" x="82.77" y="775.64">4</text><circle cx="109.77" cy="786.23" fill="black" r="1.854" stroke="none" /><circle cx="109.77" cy="786.23" fill="black" r="1.854" stroke="none" /><text fill="black" font-family="monospace" font-size="12" x="106.77" y="775.64">5</text><circle cx="133.77" cy="786.23" fill="black" r="1.476" stroke="none" /><circle cx="133.77" cy="786.23" fill="black" r="1.476" stroke="none" /><text fill="black" font-family="monospace" font-size="12" x="130.77" y="775.64">6</text><circle cx="157.77" cy="786.23" fill="black" r="1.17" stroke="none" /><circle cx="157.77" cy="786.23" fill="black" r="1.17" stroke="none" /><text fill="black" font-family="monospace" font-size="12" x="154.77" y="775.64">7</text><circle cx="181.77" cy="786.23" fill="black" r="0.936" stroke="none" /><circle cx="181.77" cy="786.23" fill="black" r="0.936" stroke="none" /><text fill="black" font-family="monospace" font-size="12" x="178.77" y="775.64">8</text><circle cx="205.77" cy="786.23" fill="black" r="0.738" stroke="none" /><circle cx="205.77" cy="786.23" fill="black" r="0.738" stroke="none" /><text fill="black" font-family="monospace" font-size="12" x="202.77" y="775.64">9</text><text fill="gray" fill-opacity="0.5" font-family="monospace" font-size="12" x="700.2930956742557" y="76.66072046827435">17h20m</text><text fill="gray" fill-opacity="0.5" font-family="monospace" font-size="12" x="599.3690324580587" y="74.40867269228232">17h25m</text><text fill="gray" fill-opacity="0.5" font-family="monospace" font-size="12" x="498.468141618509" y="73.06680207340281">17h30m</text><text fill="gray" fill-opacity="0.5" font-family="monospace" font-size="12" x="397.578696915012" y="72.6341576236232">17h35m</text><text fill="gray" fill-opacity="0.5" font-family="monospace" font-size="12" x="296.6889707438483" y="73.11043278458493">17h40m</text><text fill="gray" fill-opacity="0.5" font-family="monospace" font-size="12" x="195.78723553473958" y="74.49596503158136">17h45m</text><text fill="gray" fill-opacity="0.5" font-family="monospace" font-size="12" x="94.86176514794175" y="76.7917363094985">17h50m</text><text fill="gray" fill-opacity="0.5" font-family="monospace" font-size="12" x="82.95453128825358" y="732.8362097669294">-30°</text><text fill="gray" fill-opacity="0.5" font-family="monospace" font-size="12" x="79.9635837491382" y="645.4588591772322">-29°</text><text fill="gray" fill-opacity="0.5" font-family="monospace" font-size="12" x="77.02388925642265" y="558.1155597882415">-28°</text><text fill="gray" fill-opacity="0.5" font-family="monospace" font-size="12" x="74.13495100104905" y="470.79303764358355">-27°</text><text fill="gray" fill-opacity="0.5" font-family="monospace" font-size="12" x="71.29630308000293" y="383.4780313860376">-26°</text><text fill="gray" fill-opacity="0.5" font-family="monospace" font-size="12" x="68.50751018885023" y="296.1572842128121">-25°</text><text fill="gray" fill-opacity="0.5" font-family="monospace" font-size="12" x="65.76816735382238" y="208.8175358366835">-24°</text><text fill="gray" fill-opacity="0.5" font-family="monospace" font-size="12" x="63.07789970309858" y="121.44551444264454">-23°</text><text fill="black" font-family="monospace" font-size="12" x="12" y="48">&gt;&gt; No.257 17h18m 17h52m -30.0°-22.5°</text><a target="_self" xlink:href="hip011.svg"><text fill="black" font-family="monospace" font-size="12" x="12" y="36">&gt; No.11 15h00m 18h00m -52.5°-22.5°</text></a><a target="_self" xlink:href="hip001.svg"><text fill="black" font-family="monospace" font-size="12" x="12" y="24">No.1 00h 24h -90.0°+0.0°</text></a><polyline fill="none" points="738.2489,77.7432 730.5766,77.514 720.4817,77.2205 710.3872,76.936 700.2931,76.6607 690.1993,76.3945 680.1059,76.1374 670.0127,75.8895 659.9199,75.6506 649.8274,75.4208 639.7352,75.2002 629.6433,74.9887 619.5516,74.7862 609.4602,74.5929 599.369,74.4087 589.2781,74.2335 579.1874,74.0675 569.0969,73.9106 559.0066,73.7628 548.9164,73.624 538.8265,73.4944 528.7367,73.3739 518.647,73.2624 508.5575,73.1601 498.4681,73.0668 488.3789,72.9826 478.2897,72.9076 468.2006,72.8416 458.1116,72.7847 448.0227,72.7369 437.9339,72.6981 427.845,72.6685 417.7562,72.648 407.6675,72.6365 397.5787,72.6342 387.4899,72.6409 377.4011,72.6567 367.3123,72.6816 357.2235,72.7156 347.1346,72.7587 337.0456,72.8108 326.9566,72.8721 316.8675,72.9425 306.7783,73.0219 296.689,73.1104 286.5995,73.2081 276.51,73.3148 266.4202,73.4306 256.3304,73.5555 246.2403,73.6895 236.1501,73.8326 226.0597,73.9848 215.9691,74.1461 205.8783,74.3165 195.7872,74.496 185.696,74.6846 175.6044,74.8823 165.5126,75.0891 155.4206,75.305 145.3282,75.53 135.2356,75.7641 125.1426,76.0073 115.0493,76.2597 104.9557,76.5212 94.8618,76.7917 84.7675,77.0714 74.6728,77.3603 64.5777,77.6582 61.7511,77.7432" stroke="black" stroke-opacity="0.5" stroke-width="1" /><polyline fill="none" points="717.0455,732.8362 717.4222,721.9117 717.798,710.988 718.1731,700.0649 718.5474,689.1424 718.9208,678.2207 719.2935,667.2995 719.6654,656.3789 720.0364,645.4589 720.4067,634.5394 720.7761,623.6204 721.1448,612.7018 721.5126,601.7838 721.8797,590.8661 722.246,579.9489 722.6114,569.0321 722.9761,558.1156 723.34,547.1994 723.7031,536.2835 724.0654,525.3679 724.4269,514.4525 724.7876,503.5374 725.1475,492.6224 725.5067,481.7077 725.865,470.793 726.2226,459.8785 726.5794,448.9641 726.9354,438.0497 727.2906,427.1354 727.6451,416.2211 727.9987,405.3068 728.3516,394.3924 728.7037,383.478 729.055,372.5635 729.4056,361.6489 729.7553,350.7341 730.1043,339.8192 730.4525,328.9041 730.7999,317.9887 731.1466,307.0731 731.4925,296.1573 731.8376,285.2411 732.1819,274.3246 732.5255,263.4078 732.8683,252.4906 733.2103,241.573 733.5516,230.655 733.8921,219.7365 734.2318,208.8175 734.5708,197.8981 734.909,186.9781 735.2464,176.0575 735.5831,165.1364 735.919,154.2146 736.2541,143.2923 736.5885,132.3692 736.9221,121.4455 737.255,110.5211 737.587,99.5959 737.9184,88.67 738.2489,77.7432" stroke="black" stroke-opacity="0.5" stroke-width="1" /><polyline fill="none" points="717.0455,732.8362 709.855,732.5908 700.3941,732.2766 690.9335,731.9721 681.4731,731.6773 672.0129,731.3923 662.5529,731.1171 653.0931,730.8516 643.6335,730.5959 634.1741,730.3499 624.715,730.1137 615.2559,729.8872 605.7971,729.6705 596.3384,729.4635 586.8799,729.2663 577.4215,729.0788 567.9632,728.901 558.5051,728.733 549.0471,728.5748 539.5893,728.4262 530.1315,728.2874 520.6739,728.1584 511.2163,728.039 501.7588,727.9295 492.3014,727.8296 482.8441,727.7395 473.3869,727.6591 463.9297,727.5885 454.4725,727.5275 445.0154,727.4763 435.5584,727.4349 426.1013,727.4032 416.6443,727.3812 407.1873,727.3689 397.7303,727.3664 388.2733,727.3736 378.8163,727.3905 369.3593,727.4172 359.9022,727.4536 350.4452,727.4997 340.988,727.5556 331.5309,727.6212 322.0737,727.6965 312.6164,727.7815 303.159,727.8763 293.7016,727.9808 284.2441,728.0951 274.7865,728.2191 265.3288,728.3528 255.871,728.4963 246.413,728.6495 236.955,728.8125 227.4968,728.9851 218.0385,729.1676 208.5801,729.3597 199.1215,729.5616 189.6627,729.7733 180.2038,729.9947 170.7447,730.2259 161.2854,730.4668 151.8259,730.7174 142.3662,730.9778 132.9063,731.248 123.4463,731.5279 113.986,731.8176 104.5254,732.117 95.0647,732.4262 85.6037,732.7452 82.9545,732.8362" stroke="black" stroke-opacity="0.5" stroke-width="1" /><polyline fill="none" points="82.9545,732.8362 82.5778,721.9117 82.202,710.988 81.8269,700.0649 81.4526,689.1424 81.0792,678.2207 80.7065,667.2995 80.3346,656.3789 79.9636,645.4589 79.5933,634.5394 79.2239,623.6204 78.8552,612.7018 78.4874,601.7838 78.1203,590.8661 77.754,579.9489 77.3886,569.0321 77.0239,558.1156 76.66,547.1994 76.2969,536.2835 75.9346,525.3679 75.5731,514.4525 75.2124,503.5374 74.8525,492.6224 74.4933,481.7077 74.135,470.793 73.7774,459.8785 73.4206,448.9641 73.0646,438.0497 72.7094,427.1354 72.3549,416.2211 72.0013,405.3068 71.6484,394.3924 71.2963,383.478 70.945,372.5635 70.5944,361.6489 70.2447,350.7341 69.8957,339.8192 69.5475,328.9041 69.2001,317.9887 68.8534,307.0731 68.5075,296.1573 68.1624,285.2411 67.8181,274.3246 67.4745,263.4078 67.1317,252.4906 66.7897,241.573 66.4484,230.655 66.1079,219.7365 65.7682,208.8175 65.4292,197.8981 65.091,186.9781 64.7536,176.0575 64.4169,165.1364 64.081,154.2146 63.7459,143.2923 63.4115,132.3692 63.0779,121.4455 62.745,110.5211 62.413,99.5959 62.0816,88.67 61.7511,77.7432" stroke="black" stroke-opacity="0.5" stroke-width="1" /></svg>