<?xml version="1.0" encoding="utf-8" ?>
<svg baseProfile="tiny" height="800" version="1.2" width="800" xmlns="http://www.w3.org/2000/svg" xmlns:ev="http://www.w3.org/2001/xml-events" xmlns:xlink="http://www.w3.org/1999/xlink"><defs /><rect fill="none" height="800" stroke="black" stroke-width="2" width="800" x="0" y="0" /><polyline fill="none" points="711.8799,734.5075 712.3798,723.5882 712.879,712.6696 713.3773,701.7516 713.8748,690.8344 714.3714,679.9177 714.8673,669.0016 715.3624,658.0861 715.8567,647.1712 716.3501,636.2567 716.8428,625.3428 717.3347,614.4293 717.8258,603.5163 718.316,592.6037 718.8055,581.6915 719.2942,570.7796 719.7821,559.8681 720.2691,548.9569 720.7554,538.0459 721.241,527.1353 721.7257,516.2248 722.2096,505.3146 722.6927,494.4045 723.1751,483.4947 723.6567,472.5849 724.1375,461.6752 724.6175,450.7657 725.0967,439.8561 725.5752,428.9466 726.0528,418.0371 726.5297,407.1276 727.0058,396.2181 727.4812,385.3084 727.9557,374.3987 728.4295,363.4888 728.9025,352.5787 729.3748,341.6685 729.8463,330.7581 730.317,319.8474 730.7869,308.9365 731.2561,298.0253 731.7245,287.1138 732.1922,276.202 732.6591,265.2898 733.1252,254.3772 733.5905,243.4642 734.0551,232.5508 734.519,221.6368 734.9821,210.7224 735.4444,199.8075 735.9059,188.8921 736.3668,177.976 736.8268,167.0594 737.2861,156.1422 737.7447,145.2243 738.2025,134.3057 738.6595,123.3865 739.1158,112.4665 739.5714,101.5457 740.0262,90.6242 740.4802,79.7019" stroke="silver" stroke-opacity="0.5" stroke-width="1" /><polyline fill="none" points="625.2477,731.0902 625.6086,720.1707 625.9689,709.252 626.3286,698.334 626.6877,687.4166 627.0463,676.4999 627.4042,665.5838 627.7616,654.6683 628.1184,643.7534 628.4746,632.839 628.8303,621.9252 629.1853,611.0118 629.5398,600.0989 629.8937,589.1864 630.247,578.2744 630.5998,567.3627 630.952,556.4514 631.3036,545.5405 631.6546,534.6298 632.0051,523.7195 632.355,512.8094 632.7043,501.8995 633.0531,490.9898 633.4012,480.0803 633.7489,469.171 634.0959,458.2618 634.4424,447.3527 634.7884,436.4437 635.1337,425.5347 635.4785,414.6258 635.8228,403.7168 636.1664,392.8079 636.5096,381.8988 636.8521,370.9897 637.1941,360.0805 637.5356,349.1712 637.8764,338.2617 638.2168,327.352 638.5565,316.4421 638.8958,305.532 639.2344,294.6216 639.5725,283.711 639.9101,272.8 640.2471,261.8887 640.5836,250.977 640.9195,240.0649 641.2548,229.1525 641.5897,218.2395 641.9239,207.3261 642.2576,196.4123 642.5908,185.4979 642.9234,174.5829 643.2555,163.6674 643.587,152.7513 643.918,141.8345 644.2485,130.9171 644.5784,119.9991 644.9077,109.0803 645.2366,98.1608 645.5649,87.2406 645.8926,76.3196" stroke="silver" stroke-opacity="0.5" stroke-width="1" /><polyline fill="none" points="538.6144,728.7762 538.8364,717.8566 539.0581,706.9378 539.2794,696.0197 539.5003,685.1023 539.7209,674.1856 539.9411,663.2695 540.1609,652.354 540.3804,641.4391 540.5995,630.5248 540.8183,619.611 541.0368,608.6977 541.2548,597.7849 541.4725,586.8725 541.6899,575.9606 541.9069,565.0491 542.1236,554.1379 542.3399,543.2271 542.5558,532.3167 542.7714,521.4065 542.9866,510.4967 543.2015,499.587 543.4161,488.6776 543.6303,477.7684 543.8441,466.8594 544.0576,455.9505 544.2708,445.0417 544.4836,434.133 544.696,423.2244 544.9081,412.3159 545.1199,401.4073 545.3313,390.4987 545.5424,379.5901 545.7531,368.6815 545.9635,357.7727 546.1736,346.8639 546.3833,335.9549 546.5926,325.0457 546.8016,314.1363 547.0103,303.2268 547.2186,292.3169 547.4266,281.4069 547.6343,270.4965 547.8416,259.5858 548.0486,248.6747 548.2552,237.7633 548.4615,226.8514 548.6675,215.9392 548.8731,205.0265 549.0784,194.1133 549.2833,183.1996 549.4879,172.2854 549.6922,161.3706 549.8962,150.4553 550.0998,139.5393 550.3031,128.6227 550.506,117.7055 550.7086,106.7876 550.9109,95.8689 551.1128,84.9495 551.3144,74.0294" stroke="silver" stroke-opacity="0.5" stroke-width="1" /><polyline fill="none" points="451.9805,727.5644 452.0637,716.6448 452.1468,705.7259 452.2298,694.8078 452.3126,683.8904 452.3953,672.9736 452.4779,662.0575 452.5603,651.142 452.6426,640.2272 452.7248,629.3128 452.8068,618.3991 452.8887,607.4858 452.9705,596.5731 453.0521,585.6608 453.1336,574.7489 453.215,563.8375 453.2962,552.9264 453.3773,542.0157 453.4583,531.1054 453.5391,520.1953 453.6198,509.2856 453.7004,498.3761 453.7808,487.4668 453.8611,476.5577 453.9413,465.6488 454.0213,454.7401 454.1013,443.8315 454.181,432.923 454.2607,422.0146 454.3402,411.1062 454.4196,400.1979 454.4989,389.2895 454.578,378.3812 454.657,367.4727 454.7359,356.5642 454.8147,345.6556 454.8933,334.7469 454.9718,323.838 455.0501,312.9289 455.1284,302.0196 455.2065,291.1101 455.2845,280.2003 455.3623,269.2902 455.4401,258.3798 455.5177,247.4691 455.5951,236.558 455.6725,225.6465 455.7497,214.7346 455.8268,203.8223 455.9038,192.9094 455.9806,181.9961 456.0573,171.0823 456.1339,160.1679 456.2104,149.253 456.2867,138.3374 456.3629,127.4213 456.439,116.5044 456.515,105.5869 456.5908,94.6687 456.6665,83.7498 456.7421,72.8301" stroke="silver" stroke-opacity="0.5" stroke-width="1" /><polyline fill="none" points="365.3463,727.4542 365.2908,716.5346 365.2354,705.6158 365.1801,694.6976 365.1249,683.7802 365.0698,672.8635 365.0147,661.9473 364.9598,651.0319 364.9049,640.117 364.8501,629.2027 364.7955,618.2889 364.7409,607.3757 364.6864,596.4629 364.6319,585.5506 364.5776,574.6388 364.5234,563.7273 364.4692,552.8163 364.4152,541.9056 364.3612,530.9953 364.3073,520.0852 364.2535,509.1755 364.1998,498.266 364.1461,487.3567 364.0926,476.4477 364.0392,465.5388 363.9858,454.6301 363.9325,443.7215 363.8793,432.813 363.8262,421.9046 363.7732,410.9963 363.7203,400.0879 363.6674,389.1796 363.6147,378.2713 363.562,367.3629 363.5094,356.4544 363.4569,345.5458 363.4045,334.6371 363.3522,323.7282 363.2999,312.8191 363.2478,301.9099 363.1957,291.0004 363.1437,280.0906 363.0918,269.1805 363.04,258.2702 362.9883,247.3595 362.9366,236.4484 362.8851,225.537 362.8336,214.6251 362.7822,203.7128 362.7309,192.8 362.6796,181.8867 362.6285,170.9729 362.5774,160.0586 362.5265,149.1437 362.4756,138.2282 362.4248,127.312 362.374,116.3953 362.3234,105.4778 362.2728,94.5596 362.2224,83.6407 362.172,72.7211" stroke="silver" stroke-opacity="0.5" stroke-width="1" /><polyline fill="none" points="278.7123,728.4457 278.5181,717.5261 278.3242,706.6073 278.1305,695.6892 277.9372,684.7718 277.7442,673.855 277.5516,662.9389 277.3592,652.0234 277.1672,641.1085 276.9754,630.1942 276.784,619.2804 276.5929,608.3671 276.4021,597.4543 276.2116,586.542 276.0214,575.6301 275.8315,564.7186 275.642,553.8075 275.4527,542.8967 275.2638,531.9863 275.0751,521.0762 274.8868,510.1663 274.6988,499.2567 274.5111,488.3474 274.3237,477.4382 274.1366,466.5292 273.9498,455.6204 273.7633,444.7116 273.5771,433.803 273.3912,422.8944 273.2056,411.9859 273.0203,401.0774 272.8353,390.1689 272.6506,379.2604 272.4663,368.3518 272.2822,357.4431 272.0984,346.5343 271.9149,335.6254 271.7317,324.7163 271.5489,313.807 271.3663,302.8975 271.184,291.9878 271.002,281.0778 270.8203,270.1675 270.6389,259.2568 270.4578,248.3459 270.2771,237.4345 270.0966,226.5228 269.9163,215.6106 269.7364,204.698 269.5568,193.785 269.3775,182.8714 269.1985,171.9573 269.0197,161.0426 268.8413,150.1274 268.6631,139.2115 268.4853,128.295 268.3077,117.3779 268.1305,106.4601 267.9535,95.5416 267.7768,84.6223 267.6004,73.7023" stroke="silver" stroke-opacity="0.5" stroke-width="1" /><polyline fill="none" points="192.0789,730.5392 191.7458,719.6197 191.4132,708.7009 191.0812,697.7829 190.7497,686.8655 190.4188,675.9488 190.0884,665.0327 189.7585,654.1172 189.4292,643.2023 189.1004,632.2879 188.7722,621.3741 188.4445,610.4607 188.1173,599.5479 187.7906,588.6354 187.4645,577.7234 187.1389,566.8118 186.8138,555.9005 186.4893,544.9896 186.1653,534.079 185.8418,523.1687 185.5189,512.2586 185.1964,501.3488 184.8745,490.4392 184.5531,479.5298 184.2323,468.6205 183.912,457.7114 183.5921,446.8024 183.2728,435.8935 182.9541,424.9846 182.6358,414.0757 182.3181,403.1669 182.0009,392.258 181.6842,381.3491 181.368,370.4401 181.0523,359.531 180.7372,348.6217 180.4225,337.7124 180.1084,326.8028 179.7948,315.8931 179.4817,304.9831 179.1691,294.0728 178.857,283.1623 178.5455,272.2515 178.2344,261.3403 177.9239,250.4288 177.6138,239.5168 177.3043,228.6045 176.9953,217.6918 176.6867,206.7785 176.3787,195.8648 176.0712,184.9506 175.7642,174.0358 175.4577,163.1205 175.1517,152.2045 174.8462,141.288 174.5412,130.3708 174.2367,119.4529 173.9327,108.5343 173.6292,97.6151 173.3262,86.695 173.0237,75.7742" stroke="silver" stroke-opacity="0.5" stroke-width="1" /><polyline fill="none" points="105.4464,733.7357 104.9743,722.8164 104.503,711.8977 104.0324,700.9798 103.5626,690.0625 103.0936,679.1458 102.6253,668.2297 102.1578,657.3142 101.691,646.3993 101.225,635.4849 100.7598,624.5709 100.2953,613.6575 99.8315,602.7445 99.3686,591.8319 98.9063,580.9197 98.4449,570.0079 97.9841,559.0964 97.5241,548.1853 97.0649,537.2744 96.6064,526.3638 96.1487,515.4534 95.6917,504.5433 95.2355,493.6333 94.7799,482.7235 94.3252,471.8139 93.8712,460.9043 93.4179,449.9948 92.9653,439.0854 92.5135,428.1761 92.0624,417.2667 91.6121,406.3573 91.1625,395.4478 90.7136,384.5383 90.2654,373.6287 89.818,362.719 89.3713,351.8091 88.9254,340.8991 88.4801,329.9888 88.0356,319.0783 87.5919,308.1676 87.1488,297.2566 86.7065,286.3453 86.2649,275.4336 85.824,264.5216 85.3838,253.6093 84.9443,242.6965 84.5056,231.7832 84.0676,220.8695 83.6303,209.9554 83.1937,199.0407 82.7578,188.1255 82.3227,177.2097 81.8882,166.2933 81.4545,155.3763 81.0215,144.4587 80.5892,133.5404 80.1576,122.6214 79.7267,111.7017 79.2965,100.7812 78.867,89.86 78.4382,78.938" stroke="silver" stroke-opacity="0.5" stroke-width="1" /><polyline fill="none" points="713.8748,690.8344 705.1561,690.4429 696.4374,690.0625 687.7187,689.6931 679.0,689.3348 670.2813,688.9875 661.5626,688.6512 652.8439,688.326 644.1252,688.0118 635.4064,687.7087 626.6877,687.4166 617.969,687.1355 609.2503,686.8655 600.5315,686.6065 591.8128,686.3586 583.094,686.1216 574.3753,685.8957 565.6565,685.6808 556.9378,685.477 548.219,685.2841 539.5003,685.1023 530.7815,684.9315 522.0628,684.7718 513.344,684.623 504.6252,684.4853 495.9065,684.3586 487.1877,684.2429 478.4689,684.1383 469.7502,684.0446 461.0314,683.962 452.3126,683.8904 443.5939,683.8298 434.8751,683.7802 426.1563,683.7416 417.4375,683.7141 408.7188,683.6976 400.0,683.6921 391.2812,683.6976 382.5625,683.7141 373.8437,683.7416 365.1249,683.7802 356.4061,683.8298 347.6874,683.8904 338.9686,683.962 330.2498,684.0446 321.5311,684.1383 312.8123,684.2429 304.0935,684.3586 295.3748,684.4853 286.656,684.623 277.9372,684.7718 269.2185,684.9315 260.4997,685.1023 251.781,685.2841 243.0622,685.477 234.3435,685.6808 225.6247,685.8957 216.906,686.1216 208.1872,686.3586 199.4685,686.6065 190.7497,686.8655 182.031,687.1355 173.3123,687.4166 164.5936,687.7087 155.8748,688.0118 147.1561,688.326 138.4374,688.6512 129.7187,688.9875 121.0,689.3348 112.2813,689.6931 103.5626,690.0625 94.8439,690.4429 86.1252,690.8344" stroke="silver" stroke-opacity="0.5" stroke-width="1" /><polyline fill="none" points="717.8258,603.5163 708.9971,603.1249 700.1685,602.7445 691.3398,602.3751 682.5112,602.0168 673.6826,601.6696 664.854,601.3334 656.0255,601.0082 647.1969,600.6941 638.3683,600.391 629.5398,600.0989 620.7113,599.8179 611.8827,599.5479 603.0542,599.2889 594.2257,599.041 585.3972,598.804 576.5687,598.5782 567.7402,598.3633 558.9118,598.1595 550.0833,597.9666 541.2548,597.7849 532.4264,597.6141 523.5979,597.4543 514.7695,597.3056 505.941,597.1679 497.1126,597.0412 488.2842,596.9256 479.4557,596.8209 470.6273,596.7273 461.7989,596.6447 452.9705,596.5731 444.1421,596.5125 435.3136,596.4629 426.4852,596.4243 417.6568,596.3968 408.8284,596.3803 400.0,596.3748 391.1716,596.3803 382.3432,596.3968 373.5148,596.4243 364.6864,596.4629 355.8579,596.5125 347.0295,596.5731 338.2011,596.6447 329.3727,596.7273 320.5443,596.8209 311.7158,596.9256 302.8874,597.0412 294.059,597.1679 285.2305,597.3056 276.4021,597.4543 267.5736,597.6141 258.7452,597.7849 249.9167,597.9666 241.0882,598.1595 232.2598,598.3633 223.4313,598.5782 214.6028,598.804 205.7743,599.041 196.9458,599.2889 188.1173,599.5479 179.2887,599.8179 170.4602,600.0989 161.6317,600.391 152.8031,600.6941 143.9745,601.0082 135.146,601.3334 126.3174,601.6696 117.4888,602.0168 108.6602,602.3751 99.8315,602.7445 91.0029,603.1249 82.1742,603.5163" stroke="silver" stroke-opacity="0.5" stroke-width="1" /><polyline fill="none" points="721.7257,516.2248 712.7885,515.8336 703.8513,515.4534 694.9142,515.0843 685.9771,514.7262 677.04,514.3792 668.1029,514.0431 659.1659,513.7181 650.2289,513.4042 641.2919,513.1013 632.355,512.8094 623.4181,512.5285 614.4811,512.2586 605.5443,511.9998 596.6074,511.752 587.6706,511.5152 578.7338,511.2895 569.7969,511.0748 560.8602,510.871 551.9234,510.6783 542.9866,510.4967 534.0499,510.326 525.1132,510.1663 516.1765,510.0177 507.2398,509.8801 498.3031,509.7535 489.3664,509.6379 480.4297,509.5333 471.4931,509.4397 462.5564,509.3571 453.6198,509.2856 444.6831,509.225 435.7465,509.1755 426.8099,509.1369 417.8733,509.1094 408.9366,509.0929 400.0,509.0874 391.0634,509.0929 382.1267,509.1094 373.1901,509.1369 364.2535,509.1755 355.3169,509.225 346.3802,509.2856 337.4436,509.3571 328.5069,509.4397 319.5703,509.5333 310.6336,509.6379 301.6969,509.7535 292.7602,509.8801 283.8235,510.0177 274.8868,510.1663 265.9501,510.326 257.0134,510.4967 248.0766,510.6783 239.1398,510.871 230.2031,511.0748 221.2662,511.2895 212.3294,511.5152 203.3926,511.752 194.4557,511.9998 185.5189,512.2586 176.5819,512.5285 167.645,512.8094 158.7081,513.1013 149.7711,513.4042 140.8341,513.7181 131.8971,514.0431 122.96,514.3792 114.0229,514.7262 105.0858,515.0843 96.1487,515.4534 87.2115,515.8336 78.2743,516.2248" stroke="silver" stroke-opacity="0.5" stroke-width="1" /><polyline fill="none" points="725.5752,428.9466 716.5308,428.5558 707.4865,428.1761 698.4422,427.8073 689.398,427.4496 680.3539,427.1029 671.3098,426.7672 662.2657,426.4426 653.2217,426.1289 644.1777,425.8263 635.1337,425.5347 626.0898,425.2541 617.0459,424.9846 608.0021,424.726 598.9583,424.4785 589.9145,424.242 580.8707,424.0164 571.827,423.8019 562.7833,423.5984 553.7397,423.4059 544.696,423.2244 535.6524,423.0539 526.6088,422.8944 517.5653,422.746 508.5217,422.6085 499.4782,422.482 490.4346,422.3665 481.3911,422.262 472.3476,422.1686 463.3042,422.0861 454.2607,422.0146 445.2172,421.9541 436.1738,421.9046 427.1303,421.8661 418.0869,421.8386 409.0434,421.8221 400.0,421.8167 390.9566,421.8221 381.9131,421.8386 372.8697,421.8661 363.8262,421.9046 354.7828,421.9541 345.7393,422.0146 336.6958,422.0861 327.6524,422.1686 318.6089,422.262 309.5654,422.3665 300.5218,422.482 291.4783,422.6085 282.4347,422.746 273.3912,422.8944 264.3476,423.0539 255.304,423.2244 246.2603,423.4059 237.2167,423.5984 228.173,423.8019 219.1293,424.0164 210.0855,424.242 201.0417,424.4785 191.9979,424.726 182.9541,424.9846 173.9102,425.2541 164.8663,425.5347 155.8223,425.8263 146.7783,426.1289 137.7343,426.4426 128.6902,426.7672 119.6461,427.1029 110.602,427.4496 101.5578,427.8073 92.5135,428.1761 83.4692,428.5558 74.4248,428.9466" stroke="silver" stroke-opacity="0.5" stroke-width="1" /><polyline fill="none" points="729.3748,341.6685 720.2247,341.2783 711.0746,340.8991 701.9246,340.5309 692.7747,340.1737 683.6249,339.8275 674.4751,339.4923 665.3253,339.1682 656.1756,338.855 647.026,338.5528 637.8764,338.2617 628.7269,337.9815 619.5775,337.7124 610.428,337.4542 601.2787,337.207 592.1293,336.9709 582.98,336.7457 573.8308,336.5315 564.6816,336.3283 555.5324,336.1361 546.3833,335.9549 537.2342,335.7846 528.0851,335.6254 518.936,335.4771 509.787,335.3399 500.638,335.2136 491.489,335.0983 482.3401,334.9939 473.1911,334.9006 464.0422,334.8182 454.8933,334.7469 445.7444,334.6865 436.5955,334.6371 427.4466,334.5986 418.2977,334.5712 409.1489,334.5547 400.0,334.5492 390.8511,334.5547 381.7023,334.5712 372.5534,334.5986 363.4045,334.6371 354.2556,334.6865 345.1067,334.7469 335.9578,334.8182 326.8089,334.9006 317.6599,334.9939 308.511,335.0983 299.362,335.2136 290.213,335.3399 281.064,335.4771 271.9149,335.6254 262.7658,335.7846 253.6167,335.9549 244.4676,336.1361 235.3184,336.3283 226.1692,336.5315 217.02,336.7457 207.8707,336.9709 198.7213,337.207 189.572,337.4542 180.4225,337.7124 171.2731,337.9815 162.1236,338.2617 152.974,338.5528 143.8244,338.855 134.6747,339.1682 125.5249,339.4923 116.3751,339.8275 107.2253,340.1737 98.0754,340.5309 88.9254,340.8991 79.7753,341.2783 70.6252,341.6685" stroke="silver" stroke-opacity="0.5" stroke-width="1" /><polyline fill="none" points="733.1252,254.3772 723.8706,253.9877 714.6162,253.6093 705.3619,253.2418 696.1076,252.8853 686.8534,252.5398 677.5993,252.2052 668.3452,251.8817 659.0913,251.5692 649.8374,251.2676 640.5836,250.977 631.3298,250.6974 622.0761,250.4288 612.8225,250.1711 603.5689,249.9244 594.3154,249.6887 585.0619,249.464 575.8085,249.2502 566.5552,249.0474 557.3019,248.8556 548.0486,248.6747 538.7953,248.5048 529.5422,248.3459 520.289,248.1979 511.0359,248.0609 501.7828,247.9349 492.5297,247.8198 483.2767,247.7157 474.0236,247.6225 464.7706,247.5403 455.5177,247.4691 446.2647,247.4088 437.0117,247.3595 427.7588,247.3211 418.5059,247.2937 409.2529,247.2773 400.0,247.2718 390.7471,247.2773 381.4941,247.2937 372.2412,247.3211 362.9883,247.3595 353.7353,247.4088 344.4823,247.4691 335.2294,247.5403 325.9764,247.6225 316.7233,247.7157 307.4703,247.8198 298.2172,247.9349 288.9641,248.0609 279.711,248.1979 270.4578,248.3459 261.2047,248.5048 251.9514,248.6747 242.6981,248.8556 233.4448,249.0474 224.1915,249.2502 214.9381,249.464 205.6846,249.6887 196.4311,249.9244 187.1775,250.1711 177.9239,250.4288 168.6702,250.6974 159.4164,250.977 150.1626,251.2676 140.9087,251.5692 131.6548,251.8817 122.4007,252.2052 113.1466,252.5398 103.8924,252.8853 94.6381,253.2418 85.3838,253.6093 76.1294,253.9877 66.8748,254.3772" stroke="silver" stroke-opacity="0.5" stroke-width="1" /><polyline fill="none" points="736.8268,167.0594 727.4692,166.6709 718.1118,166.2933 708.7544,165.9267 699.3971,165.5711 690.04,165.2264 680.6829,164.8927 671.3259,164.5699 661.969,164.2581 652.6122,163.9573 643.2555,163.6674 633.8989,163.3885 624.5423,163.1205 615.1858,162.8634 605.8294,162.6173 596.4731,162.3822 587.1168,162.158 577.7605,161.9447 568.4044,161.7424 559.0483,161.5511 549.6922,161.3706 540.3362,161.2012 530.9803,161.0426 521.6243,160.895 512.2685,160.7583 502.9126,160.6326 493.5568,160.5178 484.2011,160.4139 474.8453,160.321 465.4896,160.239 456.1339,160.1679 446.7782,160.1078 437.4226,160.0586 428.0669,160.0203 418.7113,159.993 409.3556,159.9766 400.0,159.9711 390.6444,159.9766 381.2887,159.993 371.9331,160.0203 362.5774,160.0586 353.2218,160.1078 343.8661,160.1679 334.5104,160.239 325.1547,160.321 315.7989,160.4139 306.4432,160.5178 297.0874,160.6326 287.7315,160.7583 278.3757,160.895 269.0197,161.0426 259.6638,161.2012 250.3078,161.3706 240.9517,161.5511 231.5956,161.7424 222.2395,161.9447 212.8832,162.158 203.5269,162.3822 194.1706,162.6173 184.8142,162.8634 175.4577,163.1205 166.1011,163.3885 156.7445,163.6674 147.3878,163.9573 138.031,164.2581 128.6741,164.5699 119.3171,164.8927 109.96,165.2264 100.6029,165.5711 91.2456,165.9267 81.8882,166.2933 72.5308,166.6709 63.1732,167.0594" stroke="silver" stroke-opacity="0.5" stroke-width="1" /><polyline fill="none" points="740.4802,79.7019 731.0209,79.3145 721.5618,78.938 712.1027,78.5724 702.6438,78.2178 693.185,77.8741 683.7263,77.5413 674.2677,77.2195 664.8092,76.9086 655.3509,76.6086 645.8926,76.3196 636.4344,76.0414 626.9763,75.7742 617.5183,75.5179 608.0604,75.2725 598.6026,75.038 589.1448,74.8145 579.6871,74.6018 570.2295,74.4001 560.7719,74.2093 551.3144,74.0294 541.857,73.8604 532.3996,73.7023 522.9423,73.5551 513.485,73.4188 504.0278,73.2934 494.5706,73.179 485.1134,73.0754 475.6563,72.9827 466.1992,72.901 456.7421,72.8301 447.2851,72.7702 437.828,72.7211 428.371,72.683 418.914,72.6557 409.457,72.6393 400.0,72.6339 390.543,72.6393 381.086,72.6557 371.629,72.683 362.172,72.7211 352.7149,72.7702 343.2579,72.8301 333.8008,72.901 324.3437,72.9827 314.8866,73.0754 305.4294,73.179 295.9722,73.2934 286.515,73.4188 277.0577,73.5551 267.6004,73.7023 258.143,73.8604 248.6856,74.0294 239.2281,74.2093 229.7705,74.4001 220.3129,74.6018 210.8552,74.8145 201.3974,75.038 191.9396,75.2725 182.4817,75.5179 173.0237,75.7742 163.5656,76.0414 154.1074,76.3196 144.6491,76.6086 135.1908,76.9086 125.7323,77.2195 116.2737,77.5413 106.815,77.8741 97.3562,78.2178 87.8973,78.5724 78.4382,78.938 68.9791,79.3145 59.5198,79.7019" stroke="silver" stroke-opacity="0.5" stroke-width="1" /><line fill="none" stroke="green" stroke-opacity="0.5" stroke-width="1.5" x1="401.1392" x2="708.3247" y1="262.3285" y2="275.897" /><circle cx="736.9273" cy="130.5772" fill="black" r="0.738" stroke="none" /><circle cx="711.6853" cy="630.2735" fill="black" r="0.738" stroke="none" /><circle cx="708.6229" cy="541.1886" fill="black" r="0.936" stroke="none" /><circle cx="720.1388" cy="186.7546" fill="black" r="0.738" stroke="none" /><circle cx="702.0151" cy="607.5461" fill="black" r="0.936" stroke="none" /><circle cx="715.1589" cy="284.0603" fill="black" r="0.738" stroke="none" /><circle cx="707.4247" cy="440.1507" fill="black" r="0.738" stroke="none" /><circle cx="699.1823" cy="531.3468" fill="black" r="0.738" stroke="none" /><circle cx="708.318" cy="275.9159" fill="black" r="1.476" stroke="none" /><circle cx="703.0182" cy="388.1296" fill="black" r="0.738" stroke="none" /><circle cx="703.5301" cy="331.503" fill="black" r="0.738" stroke="none" /><circle cx="700.7662" cy="298.9613" fill="black" r="0.738" stroke="none" /><circle cx="692.6331" cy="426.2651" fill="black" r="0.738" stroke="none" /><circle cx="683.2363" cy="652.2438" fill="black" r="0.738" stroke="none" /><circle cx="688.2561" cy="146.0109" fill="black" r="0.738" stroke="none" /><circle cx="674.2951" cy="497.9302" fill="black" r="0.738" stroke="none" /><circle cx="672.5684" cy="541.7431" fill="black" r="0.738" stroke="none" /><circle cx="676.282" cy="303.5508" fill="black" r="0.738" stroke="none" /><circle cx="655.6885" cy="728.0536" fill="black" r="0.738" stroke="none" /><circle cx="657.5421" cy="667.1615" fill="black" r="0.738" stroke="none" /><circle cx="660.5416" cy="296.5353" fill="black" r="0.738" stroke="none" /><circle cx="655.3436" cy="363.5542" fill="black" r="0.738" stroke="none" /><circle cx="644.9683" cy="583.3107" fill="black" r="0.738" stroke="none" /><circle cx="637.2945" cy="602.8895" fill="black" r="0.738" stroke="none" /><circle cx="636.8098" cy="323.0275" fill="black" r="0.738" stroke="none" /><circle cx="623.5171" cy="707.5977" fill="black" r="0.738" stroke="none" /><circle cx="636.1139" cy="280.9836" fill="black" r="0.738" stroke="none" /><circle cx="636.4891" cy="102.8859" fill="black" r="0.738" stroke="none" /><circle cx="617.2834" cy="630.6477" fill="black" r="0.738" stroke="none" /><circle cx="626.296" cy="86.6845" fill="black" r="1.17" stroke="none" /><circle cx="620.5633" cy="166.1559" fill="black" r="0.738" stroke="none" /><circle cx="608.2552" cy="479.671" fill="black" r="0.738" stroke="none" /><circle cx="613.6295" cy="280.0686" fill="black" r="1.17" stroke="none" /><circle cx="596.401" cy="516.725" fill="black" r="0.738" stroke="none" /><circle cx="597.631" cy="206.0948" fill="black" r="0.738" stroke="none" /><circle cx="591.713" cy="167.247" fill="black" r="0.738" stroke="none" /><circle cx="583.6236" cy="441.4613" fill="black" r="0.738" stroke="none" /><circle cx="576.7806" cy="709.0305" fill="black" r="0.738" stroke="none" /><circle cx="572.0452" cy="689.7698" fill="black" r="0.738" stroke="none" /><circle cx="572.1113" cy="383.0321" fill="black" r="0.738" stroke="none" /><circle cx="561.8779" cy="706.8269" fill="black" r="0.936" stroke="none" /><circle cx="566.7069" cy="149.7384" fill="black" r="0.738" stroke="none" /><circle cx="559.8517" cy="250.9158" fill="black" r="0.738" stroke="none" /><circle cx="551.0099" cy="659.6573" fill="black" r="0.936" stroke="none" /><circle cx="555.6479" cy="351.9413" fill="black" r="0.738" stroke="none" /><circle cx="549.637" cy="538.1361" fill="black" r="0.738" stroke="none" /><circle cx="545.4618" cy="204.2643" fill="black" r="0.738" stroke="none" /><circle cx="540.2557" cy="322.7442" fill="black" r="0.738" stroke="none" /><circle cx="532.3464" cy="493.8813" fill="black" r="0.738" stroke="none" /><circle cx="519.3297" cy="709.5368" fill="black" r="0.738" stroke="none" /><circle cx="521.1882" cy="589.6408" fill="black" r="0.738" stroke="none" /><circle cx="513.3062" cy="496.8777" fill="black" r="0.738" stroke="none" /><circle cx="510.5988" cy="588.4198" fill="black" r="0.738" stroke="none" /><circle cx="510.4398" cy="124.8348" fill="black" r="0.738" stroke="none" /><circle cx="501.6201" cy="254.7423" fill="black" r="0.738" stroke="none" /><circle cx="492.4378" cy="576.2857" fill="black" r="0.738" stroke="none" /><circle cx="485.1547" cy="521.1968" fill="black" r="0.738" stroke="none" /><circle cx="485.5242" cy="465.1632" fill="black" r="0.738" stroke="none" /><circle cx="482.2717" cy="633.789" fill="black" r="0.936" stroke="none" /><circle cx="484.8281" cy="399.9572" fill="black" r="0.738" stroke="none" /><circle cx="470.4693" cy="304.5014" fill="black" r="0.738" stroke="none" /><circle cx="466.9004" cy="542.0416" fill="black" r="0.738" stroke="none" /><circle cx="466.3658" cy="294.602" fill="black" r="0.738" stroke="none" /><circle cx="465.287" cy="139.104" fill="black" r="0.738" stroke="none" /><circle cx="461.2479" cy="327.2895" fill="black" r="0.738" stroke="none" /><circle cx="456.1132" cy="696.8474" fill="black" r="0.738" stroke="none" /><circle cx="456.4367" cy="514.8058" fill="black" r="0.738" stroke="none" /><circle cx="458.262" cy="176.2498" fill="black" r="0.738" stroke="none" /><circle cx="455.4706" cy="158.6788" fill="black" r="0.738" stroke="none" /><circle cx="450.8988" cy="509.8769" fill="black" r="0.738" stroke="none" /><circle cx="449.5902" cy="351.0306" fill="black" r="0.738" stroke="none" /><circle cx="447.7828" cy="336.4445" fill="black" r="0.738" stroke="none" /><circle cx="444.7222" cy="571.6357" fill="black" r="0.738" stroke="none" /><circle cx="442.3522" cy="715.4421" fill="black" r="0.738" stroke="none" /><circle cx="439.096" cy="614.9044" fill="black" r="0.936" stroke="none" /><circle cx="438.1582" cy="553.179" fill="black" r="0.738" stroke="none" /><circle cx="430.5479" cy="97.4994" fill="black" r="0.738" stroke="none" /><circle cx="424.1029" cy="611.5194" fill="black" r="0.738" stroke="none" /><circle cx="413.4897" cy="237.158" fill="black" r="0.738" stroke="none" /><circle cx="410.7324" cy="137.7986" fill="black" r="0.738" stroke="none" /><circle cx="407.0113" cy="428.6268" fill="black" r="0.738" stroke="none" /><circle cx="405.4985" cy="421.6441" fill="black" r="0.738" stroke="none" /><circle cx="401.1821" cy="262.3722" fill="black" r="1.476" stroke="none" /><circle cx="399.25" cy="143.3803" fill="black" r="0.738" stroke="none" /><circle cx="393.2746" cy="503.5921" fill="black" r="0.738" stroke="none" /><circle cx="383.8333" cy="338.5808" fill="black" r="0.738" stroke="none" /><circle cx="382.1119" cy="616.5647" fill="black" r="0.738" stroke="none" /><circle cx="380.6095" cy="278.3688" fill="black" r="0.738" stroke="none" /><circle cx="380.0855" cy="414.7747" fill="black" r="0.738" stroke="none" /><circle cx="378.0553" cy="99.1313" fill="black" r="0.738" stroke="none" /><circle cx="376.1217" cy="530.8594" fill="black" r="0.738" stroke="none" /><circle cx="370.6734" cy="469.8729" fill="black" r="0.738" stroke="none" /><circle cx="367.541" cy="394.3107" fill="black" r="0.738" stroke="none" /><circle cx="362.1396" cy="473.752" fill="black" r="0.738" stroke="none" /><circle cx="361.1616" cy="584.7831" fill="black" r="0.738" stroke="none" /><circle cx="358.8397" cy="246.7692" fill="black" r="0.738" stroke="none" /><circle cx="359.1567" cy="665.2979" fill="black" r="0.738" stroke="none" /><circle cx="350.1082" cy="690.6852" fill="black" r="0.738" stroke="none" /><circle cx="349.6324" cy="653.9203" fill="black" r="0.738" stroke="none" /><circle cx="346.0101" cy="156.2237" fill="black" r="0.738" stroke="none" /><circle cx="344.7826" cy="151.9532" fill="black" r="0.738" stroke="none" /><circle cx="345.0146" cy="249.473" fill="black" r="0.738" stroke="none" /><circle cx="334.6134" cy="575.2001" fill="black" r="0.738" stroke="none" /><circle cx="329.5248" cy="85.9538" fill="black" r="0.738" stroke="none" /><circle cx="333.2502" cy="633.0998" fill="black" r="0.738" stroke="none" /><circle cx="311.9011" cy="393.3617" fill="black" r="0.738" stroke="none" /><circle cx="304.2266" cy="144.1252" fill="black" r="0.738" stroke="none" /><circle cx="299.5061" cy="96.0526" fill="black" r="0.738" stroke="none" /><circle cx="303.9615" cy="469.8319" fill="black" r="0.738" stroke="none" /><circle cx="299.4115" cy="316.7079" fill="black" r="0.738" stroke="none" /><circle cx="299.3397" cy="393.7817" fill="black" r="0.738" stroke="none" /><circle cx="299.1075" cy="569.5904" fill="black" r="0.738" stroke="none" /><circle cx="280.8464" cy="507.2724" fill="black" r="0.738" stroke="none" /><circle cx="272.1844" cy="240.7212" fill="black" r="0.738" stroke="none" /><circle cx="278.5544" cy="707.8264" fill="black" r="0.738" stroke="none" /><circle cx="269.945" cy="497.7687" fill="black" r="0.738" stroke="none" /><circle cx="265.8308" cy="561.3193" fill="black" r="0.738" stroke="none" /><circle cx="261.5044" cy="583.4953" fill="black" r="0.738" stroke="none" /><circle cx="251.8768" cy="177.326" fill="black" r="0.738" stroke="none" /><circle cx="251.2313" cy="636.6334" fill="black" r="0.738" stroke="none" /><circle cx="241.2071" cy="178.1429" fill="black" r="0.738" stroke="none" /><circle cx="239.794" cy="114.4838" fill="black" r="0.738" stroke="none" /><circle cx="236.4554" cy="116.997" fill="black" r="0.738" stroke="none" /><circle cx="241.3924" cy="512.4805" fill="black" r="0.738" stroke="none" /><circle cx="238.783" cy="415.7064" fill="black" r="0.738" stroke="none" /><circle cx="232.9609" cy="243.7305" fill="black" r="0.738" stroke="none" /><circle cx="234.2281" cy="502.5113" fill="black" r="0.738" stroke="none" /><circle cx="228.5344" cy="281.5528" fill="black" r="0.738" stroke="none" /><circle cx="227.8012" cy="275.1069" fill="black" r="0.738" stroke="none" /><circle cx="236.797" cy="694.9728" fill="black" r="0.738" stroke="none" /><circle cx="222.0911" cy="148.4934" fill="black" r="0.738" stroke="none" /><circle cx="224.8944" cy="325.6456" fill="black" r="0.738" stroke="none" /><circle cx="225.4317" cy="619.4071" fill="black" r="0.738" stroke="none" /><circle cx="210.9752" cy="721.5958" fill="black" r="0.738" stroke="none" /><circle cx="193.5137" cy="183.5176" fill="black" r="0.936" stroke="none" /><circle cx="187.9776" cy="249.6252" fill="black" r="0.738" stroke="none" /><circle cx="171.9539" cy="86.296" fill="black" r="0.738" stroke="none" /><circle cx="179.0714" cy="599.6499" fill="black" r="0.738" stroke="none" /><circle cx="161.4206" cy="159.6808" fill="black" r="0.738" stroke="none" /><circle cx="172.7172" cy="647.8345" fill="black" r="0.738" stroke="none" /><circle cx="163.516" cy="373.4242" fill="black" r="0.738" stroke="none" /><circle cx="157.753" cy="416.1531" fill="black" r="0.738" stroke="none" /><circle cx="156.2175" cy="519.9128" fill="black" r="0.738" stroke="none" /><circle cx="160.4609" cy="697.3824" fill="black" r="0.738" stroke="none" /><circle cx="142.8771" cy="212.0012" fill="black" r="0.738" stroke="none" /><circle cx="136.0963" cy="111.8612" fill="black" r="0.738" stroke="none" /><circle cx="155.1603" cy="685.5887" fill="black" r="0.738" stroke="none" /><circle cx="142.1985" cy="421.4806" fill="black" r="0.936" stroke="none" /><circle cx="136.4181" cy="456.5492" fill="black" r="0.738" stroke="none" /><circle cx="120.1329" cy="509.7676" fill="black" r="0.738" stroke="none" /><circle cx="120.4726" cy="549.8779" fill="black" r="0.738" stroke="none" /><circle cx="118.5901" cy="552.749" fill="black" r="0.738" stroke="none" /><circle cx="95.9144" cy="86.3207" fill="black" r="0.738" stroke="none" /><circle cx="108.0551" cy="658.9888" fill="black" r="0.738" stroke="none" /><circle cx="105.1909" cy="592.1122" fill="black" r="0.738" stroke="none" /><circle cx="92.1498" cy="307.9837" fill="black" r="0.738" stroke="none" /><circle cx="99.2026" cy="660.4158" fill="black" r="0.738" stroke="none" /><circle cx="89.5997" cy="457.1488" fill="black" r="0.738" stroke="none" /><circle cx="72.6523" cy="294.5354" fill="black" r="0.738" stroke="none" /><circle cx="13.77" cy="786.23" fill="black" r="4.59" stroke="none" /><circle cx="13.77" cy="786.23" fill="black" r="4.59" stroke="none" /><text fill="black" font-family="monospace" font-size="12" x="10.77" y="775.64">1</text><circle cx="37.77" cy="786.23" fill="black" r="3.654" stroke="none" /><circle cx="37.77" cy="786.23" fill="black" r="3.654" stroke="none" /><text fill="black" font-family="monospace" font-size="12" x="34.769999999999996" y="775.64">2</text><circle cx="61.77" cy="786.23" fill="black" r="2.916" stroke="none" /><circle cx="61.77" cy="786.23" fill="black" r="2.916" stroke="none" /><text fill="black" font-family="monospace" font-size="12" x="58.769999999999996" y="775.64">3</text><circle cx="85.77" cy="786.23" fill="black" r="2.322" stroke="none" /><circle cx="85.77" cy="786.23" fill="black" r="2.322" stroke="none" /><text fill="black" font-family="monospace" font-size="12" x="82.77" y="775.64">4</text><circle cx="109.77" cy="786.23" fill="black" r="1.854" stroke="none" /><circle cx="109.77" cy="786.23" fill="black" r="1.854" stroke="none" /><text fill="black" font-family="monospace" font-size="12" x="106.77" y="775.64">5</text><circle cx="133.77" cy="786.23" fill="black" r="1.476" stroke="none" /><circle cx="133.77" cy="786.23" fill="black" r="1.476" stroke="none" /><text fill="black" font-family="monospace" font-size="12" x="130.77" y="775.64">6</text><circle cx="157.77" cy="786.23" fill="black" r="1.17" stroke="none" /><circle cx="157.77" cy="786.23" fill="black" r="1.17" stroke="none" /><text fill="black" font-family="monospace" font-size="12" x="154.77" y="775.64">7</text><circle cx="181.77" cy="786.23" fill="black" r="0.936" stroke="none" /><circle cx="181.77" cy="786.23" fill="black" r="0.936" stroke="none" /><text fill="black" font-family="monospace" font-size="12" x="178.77" y="775.64">8</text><circle cx="205.77" cy="786.23" fill="black" r="0.738" stroke="none" /><circle cx="205.77" cy="786.23" fill="black" r="0.738" stroke="none" /><text fill="black" font-family="monospace" font-size="12" x="202.77" y="775.64">9</text><text fill="gray" fill-opacity="0.5" font-family="monospace" font-size="12" x="740.4802374860824" y="79.70191046764609">21h00m</text><text fill="gray" fill-opacity="0.5" font-family="monospace" font-size="12" x="645.8925947287294" y="76.31955330866856">21h05m</text><text fill="gray" fill-opacity="0.5" font-family="monospace" font-size="12" x="551.3144285213334" y="74.0293775120661">21h10m</text><text fill="gray" fill-opacity="0.5" font-family="monospace" font-size="12" x="456.74210627641384" y="72.8301155698436">21h15m</text><text fill="gray" fill-opacity="0.5" font-family="monospace" font-size="12" x="362.1719779191907" y="72.72110382139249">21h20m</text><text fill="gray" fill-opacity="0.5" font-family="monospace" font-size="12" x="267.60038682466205" y="73.70228194320867">21h25m</text><text fill="gray" fill-opacity="0.5" font-family="monospace" font-size="12" x="173.02368073418927" y="75.77419290249958">21h30m</text><text fill="gray" fill-opacity="0.5" font-family="monospace" font-size="12" x="78.4382226857216" y="78.93798337469957">21h35m</text><text fill="gray" fill-opacity="0.5" font-family="monospace" font-size="12" x="86.12523979011269" y="690.8343540987717">-37°</text><text fill="gray" fill-opacity="0.5" font-family="monospace" font-size="12" x="82.17424894509492" y="603.5163037275">-36°</text><text fill="gray" fill-opacity="0.5" font-family="monospace" font-size="12" x="78.27432743866211" y="516.2248204294356">-35°</text><text fill="gray" fill-opacity="0.5" font-family="monospace" font-size="12" x="74.42484486387355" y="428.94664383073075">-34°</text><text fill="gray" fill-opacity="0.5" font-family="monospace" font-size="12" x="70.62520151171304" y="341.6685216233935">-33°</text><text fill="gray" fill-opacity="0.5" font-family="monospace" font-size="12" x="66.87482799348686" y="254.37720152816078">-32°</text><text fill="gray" fill-opacity="0.5" font-family="monospace" font-size="12" x="63.17318490240535" y="167.05942325739042">-31°</text><text fill="gray" fill-opacity="0.5" font-family="monospace" font-size="12" x="59.519762513921535" y="79.70191046764609">-30°</text><text fill="black" font-family="monospace" font-size="12" x="12" y="48">&gt;&gt; No.221 21h00m 21h36m -37.5°-30.0°</text><a target="_self" xlink:href="hip013.svg"><text fill="black" font-family="monospace" font-size="12" x="12" y="36">&gt; No.13 21h00m 24h00m -52.5°-22.5°</text></a><a target="_self" xlink:href="hip001.svg"><text fill="black" font-family="monospace" font-size="12" x="12" y="24">No.1 00h 24h -90.0°+0.0°</text></a><polyline fill="none" points="740.4802,79.7019 731.0209,79.3145 721.5618,78.938 712.1027,78.5724 702.6438,78.2178 693.185,77.8741 683.7263,77.5413 674.2677,77.2195 664.8092,76.9086 655.3509,76.6086 645.8926,76.3196 636.4344,76.0414 626.9763,75.7742 617.5183,75.5179 608.0604,75.2725 598.6026,75.038 589.1448,74.8145 579.6871,74.6018 570.2295,74.4001 560.7719,74.2093 551.3144,74.0294 541.857,73.8604 532.3996,73.7023 522.9423,73.5551 513.485,73.4188 504.0278,73.2934 494.5706,73.179 485.1134,73.0754 475.6563,72.9827 466.1992,72.901 456.7421,72.8301 447.2851,72.7702 437.828,72.7211 428.371,72.683 418.914,72.6557 409.457,72.6393 400.0,72.6339 390.543,72.6393 381.086,72.6557 371.629,72.683 362.172,72.7211 352.7149,72.7702 343.2579,72.8301 333.8008,72.901 324.3437,72.9827 314.8866,73.0754 305.4294,73.179 295.9722,73.2934 286.515,73.4188 277.0577,73.5551 267.6004,73.7023 258.143,73.8604 248.6856,74.0294 239.2281,74.2093 229.7705,74.4001 220.3129,74.6018 210.8552,74.8145 201.3974,75.038 191.9396,75.2725 182.4817,75.5179 173.0237,75.7742 163.5656,76.0414 154.1074,76.3196 144.6491,76.6086 135.1908,76.9086 125.7323,77.2195 116.2737,77.5413 106.815,77.8741 97.3562,78.2178 87.8973,78.5724 78.4382,78.938 68.9791,79.3145 59.5198,79.7019" stroke="black" stroke-opacity="0.5" stroke-width="1" /><polyline fill="none" points="711.8799,734.5075 712.3798,723.5882 712.879,712.6696 713.3773,701.7516 713.8748,690.8344 714.3714,679.9177 714.8673,669.0016 715.3624,658.0861 715.8567,647.1712 716.3501,636.2567 716.8428,625.3428 717.3347,614.4293 717.8258,603.5163 718.316,592.6037 718.8055,581.6915 719.2942,570.7796 719.7821,559.8681 720.2691,548.9569 720.7554,538.0459 721.241,527.1353 721.7257,516.2248 722.2096,505.3146 722.6927,494.4045 723.1751,483.4947 723.6567,472.5849 724.1375,461.6752 724.6175,450.7657 725.0967,439.8561 725.5752,428.9466 726.0528,418.0371 726.5297,407.1276 727.0058,396.2181 727.4812,385.3084 727.9557,374.3987 728.4295,363.4888 728.9025,352.5787 729.3748,341.6685 729.8463,330.7581 730.317,319.8474 730.7869,308.9365 731.2561,298.0253 731.7245,287.1138 732.1922,276.202 732.6591,265.2898 733.1252,254.3772 733.5905,243.4642 734.0551,232.5508 734.519,221.6368 734.9821,210.7224 735.4444,199.8075 735.9059,188.8921 736.3668,177.976 736.8268,167.0594 737.2861,156.1422 737.7447,145.2243 738.2025,134.3057 738.6595,123.3865 739.1158,112.4665 739.5714,101.5457 740.0262,90.6242 740.4802,79.7019" stroke="black" stroke-opacity="0.5" stroke-width="1" /><polyline fill="none" points="711.8799,734.5075 703.2167,734.1161 694.5536,733.7357 685.8904,733.3664 677.2272,733.0081 668.564,732.6608 659.9007,732.3246 651.2375,731.9995 642.5742,731.6853 633.911,731.3822 625.2477,731.0902 616.5844,730.8092 607.9211,730.5392 599.2578,730.2802 590.5945,730.0323 581.9311,729.7954 573.2678,729.5695 564.6045,729.3546 555.9411,729.1508 547.2778,728.958 538.6144,728.7762 529.951,728.6054 521.2877,728.4457 512.6243,728.2969 503.9609,728.1592 495.2975,728.0325 486.6341,727.9169 477.9707,727.8122 469.3073,727.7186 460.6439,727.636 451.9805,727.5644 443.3171,727.5038 434.6537,727.4542 425.9902,727.4157 417.3268,727.3881 408.6634,727.3716 400.0,727.3661 391.3366,727.3716 382.6732,727.3881 374.0098,727.4157 365.3463,727.4542 356.6829,727.5038 348.0195,727.5644 339.3561,727.636 330.6927,727.7186 322.0293,727.8122 313.3659,727.9169 304.7025,728.0325 296.0391,728.1592 287.3757,728.2969 278.7123,728.4457 270.049,728.6054 261.3856,728.7762 252.7222,728.958 244.0589,729.1508 235.3955,729.3546 226.7322,729.5695 218.0689,729.7954 209.4055,730.0323 200.7422,730.2802 192.0789,730.5392 183.4156,730.8092 174.7523,731.0902 166.089,731.3822 157.4258,731.6853 148.7625,731.9995 140.0993,732.3246 131.436,732.6608 122.7728,733.0081 114.1096,733.3664 105.4464,733.7357 96.7833,734.1161 88.1201,734.5075" stroke="black" stroke-opacity="0.5" stroke-width="1" /><polyline fill="none" points="88.1201,734.5075 87.6202,723.5882 87.121,712.6696 86.6227,701.7516 86.1252,690.8344 85.6286,679.9177 85.1327,669.0016 84.6376,658.0861 84.1433,647.1712 83.6499,636.2567 83.1572,625.3428 82.6653,614.4293 82.1742,603.5163 81.684,592.6037 81.1945,581.6915 80.7058,570.7796 80.2179,559.8681 79.7309,548.9569 79.2446,538.0459 78.759,527.1353 78.2743,516.2248 77.7904,505.3146 77.3073,494.4045 76.8249,483.4947 76.3433,472.5849 75.8625,461.6752 75.3825,450.7657 74.9033,439.8561 74.4248,428.9466 73.9472,418.0371 73.4703,407.1276 72.9942,396.2181 72.5188,385.3084 72.0443,374.3987 71.5705,363.4888 71.0975,352.5787 70.6252,341.6685 70.1537,330.7581 69.683,319.8474 69.2131,308.9365 68.7439,298.0253 68.2755,287.1138 67.8078,276.202 67.3409,265.2898 66.8748,254.3772 66.4095,243.4642 65.9449,232.5508 65.481,221.6368 65.0179,210.7224 64.5556,199.8075 64.0941,188.8921 63.6332,177.976 63.1732,167.0594 62.7139,156.1422 62.2553,145.2243 61.7975,134.3057 61.3405,123.3865 60.8842,112.4665 60.4286,101.5457 59.9738,90.6242 59.5198,79.7019" stroke="black" stroke-opacity="0.5" stroke-width="1" /></svg>