<?xml version="1.0" encoding="utf-8" ?>
<svg baseProfile="tiny" height="800" version="1.2" width="800" xmlns="http://www.w3.org/2000/svg" xmlns:ev="http://www.w3.org/2001/xml-events" xmlns:xlink="http://www.w3.org/1999/xlink"><defs /><rect fill="none" height="800" stroke="black" stroke-width="2" width="800" x="0" y="0" /><polyline fill="none" points="672.7697,731.4148 673.0937,720.4915 673.417,709.569 673.7396,698.6472 674.0615,687.7261 674.3827,676.8056 674.7032,665.8858 675.0231,654.9665 675.3422,644.0478 675.6607,633.1297 675.9785,622.212 676.2956,611.2949 676.6119,600.3782 676.9277,589.462 677.2427,578.5461 677.557,567.6307 677.8707,556.7156 678.1837,545.8008 678.496,534.8864 678.8076,523.9722 679.1185,513.0583 679.4288,502.1447 679.7384,491.2312 680.0473,480.3179 680.3555,469.4048 680.663,458.4918 680.9699,447.5789 681.2761,436.666 681.5816,425.7533 681.8865,414.8405 682.1907,403.9278 682.4942,393.015 682.797,382.1021 683.0992,371.1892 683.4007,360.2762 683.7015,349.363 684.0017,338.4497 684.3012,327.5362 684.6,316.6225 684.8981,305.7086 685.1956,294.7944 685.4925,283.8799 685.7886,272.9651 686.0841,262.0499 686.379,251.1344 686.6732,240.2185 686.9667,229.3022 687.2595,218.3854 687.5517,207.4682 687.8433,196.5505 688.1341,185.6323 688.4244,174.7135 688.7139,163.7941 689.0028,152.8741 689.2911,141.9536 689.5787,131.0323 689.8656,120.1104 690.1519,109.1878 690.4375,98.2645 690.7225,87.3404 691.0068,76.4155" stroke="silver" stroke-opacity="0.5" stroke-width="1" /><polyline fill="none" points="578.1781,729.0934 578.3897,718.1723 578.6008,707.2519 578.8114,696.3322 579.0216,685.4132 579.2313,674.4948 579.4406,663.5771 579.6495,652.66 579.8578,641.7435 580.0658,630.8275 580.2732,619.9121 580.4803,608.9972 580.6869,598.0828 580.893,587.1688 581.0987,576.2553 581.3039,565.3421 581.5087,554.4294 581.7131,543.5169 581.917,532.6049 582.1204,521.6931 582.3235,510.7815 582.526,499.8703 582.7282,488.9592 582.9298,478.0484 583.1311,467.1377 583.3319,456.2272 583.5323,445.3167 583.7322,434.4064 583.9317,423.4961 584.1307,412.5859 584.3293,401.6757 584.5275,390.7655 584.7252,379.8552 584.9225,368.9449 585.1193,358.0345 585.3157,347.124 585.5117,336.2133 585.7073,325.3025 585.9024,314.3914 586.097,303.4802 586.2913,292.5687 586.4851,281.6569 586.6784,270.7448 586.8714,259.8325 587.0639,248.9197 587.2559,238.0066 587.4476,227.0931 587.6388,216.1792 587.8296,205.2648 588.0199,194.3499 588.2098,183.4345 588.3993,172.5186 588.5884,161.6021 588.777,150.6851 588.9652,139.7674 589.1529,128.8491 589.3403,117.9302 589.5272,107.0105 589.7137,96.0902 589.8997,85.1691 590.0854,74.2472" stroke="silver" stroke-opacity="0.5" stroke-width="1" /><polyline fill="none" points="483.6007,727.7463 483.6999,716.8264 483.799,705.9072 483.8978,694.9887 483.9964,684.0709 484.0947,673.1538 484.1929,662.2374 484.2909,651.3215 484.3886,640.4063 484.4861,629.4916 484.5835,618.5775 484.6806,607.6639 484.7775,596.7508 484.8742,585.8381 484.9707,574.9259 485.0669,564.0141 485.163,553.1027 485.2589,542.1916 485.3545,531.2809 485.4499,520.3705 485.5452,509.4603 485.6402,498.5505 485.735,487.6408 485.8296,476.7314 485.924,465.8221 486.0182,454.913 486.1122,444.004 486.206,433.0952 486.2995,422.1864 486.3929,411.2776 486.486,400.3689 486.579,389.4601 486.6717,378.5514 486.7643,367.6426 486.8566,356.7337 486.9488,345.8247 487.0407,334.9155 487.1324,324.0062 487.2239,313.0968 487.3152,302.1871 487.4063,291.2771 487.4972,280.367 487.588,269.4565 487.6784,258.5457 487.7687,247.6346 487.8588,236.7231 487.9487,225.8112 488.0384,214.8989 488.1279,203.9861 488.2172,193.0729 488.3063,182.1592 488.3951,171.245 488.4838,160.3302 488.5723,149.4148 488.6606,138.4989 488.7487,127.5823 488.8365,116.665 488.9242,105.7471 489.0117,94.8285 489.0989,83.9091 489.186,72.989" stroke="silver" stroke-opacity="0.5" stroke-width="1" /><polyline fill="none" points="389.0299,727.3727 389.0169,716.453 389.0039,705.5342 388.9909,694.616 388.978,683.6986 388.9651,672.7818 388.9522,661.8657 388.9393,650.9502 388.9265,640.0354 388.9137,629.121 388.9009,618.2073 388.8882,607.294 388.8755,596.3813 388.8628,585.469 388.8501,574.5571 388.8375,563.6457 388.8249,552.7346 388.8123,541.8239 388.7998,530.9136 388.7872,520.0036 388.7747,509.0938 388.7623,498.1843 388.7498,487.2751 388.7374,476.366 388.725,465.4572 388.7127,454.5485 388.7004,443.6399 388.688,432.7314 388.6758,421.823 388.6635,410.9147 388.6513,400.0064 388.6391,389.098 388.6269,378.1897 388.6148,367.2813 388.6027,356.3728 388.5906,345.4642 388.5785,334.5555 388.5665,323.6467 388.5545,312.7376 388.5425,301.8284 388.5305,290.9189 388.5186,280.0091 388.5067,269.0991 388.4948,258.1887 388.483,247.2781 388.4712,236.367 388.4594,225.4556 388.4476,214.5437 388.4359,203.6314 388.4242,192.7187 388.4125,181.8054 388.4008,170.8916 388.3892,159.9773 388.3776,149.0624 388.366,138.1469 388.3544,127.2308 388.3429,116.3141 388.3314,105.3966 388.3199,94.4785 388.3085,83.5596 388.297,72.64" stroke="silver" stroke-opacity="0.5" stroke-width="1" /><polyline fill="none" points="294.4582,727.9721 294.3329,717.052 294.2079,706.1326 294.0832,695.2139 293.9587,684.2959 293.8345,673.3786 293.7105,662.4619 293.5869,651.5459 293.4635,640.6304 293.3403,629.7155 293.2174,618.8012 293.0948,607.8874 292.9725,596.974 292.8504,586.0611 292.7286,575.1487 292.6071,564.2367 292.4858,553.325 292.3648,542.4137 292.244,531.5028 292.1235,520.5921 292.0033,509.6818 291.8833,498.7717 291.7636,487.8618 291.6442,476.9521 291.525,466.0426 291.4061,455.1333 291.2874,444.2241 291.1691,433.3149 291.0509,422.4059 290.933,411.4969 290.8154,400.5879 290.6981,389.6789 290.581,378.7699 290.4641,367.8608 290.3476,356.9517 290.2313,346.0424 290.1152,335.133 289.9994,324.2235 289.8839,313.3138 289.7686,302.4038 289.6535,291.4936 289.5388,280.5832 289.4243,269.6724 289.31,258.7614 289.196,247.85 289.0823,236.9382 288.9688,226.026 288.8555,215.1135 288.7426,204.2004 288.6298,193.2869 288.5174,182.3729 288.4052,171.4584 288.2932,160.5434 288.1815,149.6277 288.0701,138.7115 287.9589,127.7946 287.8479,116.8771 287.7372,105.9589 287.6268,95.04 287.5166,84.1203 287.4067,73.1999" stroke="silver" stroke-opacity="0.5" stroke-width="1" /><polyline fill="none" points="199.8782,729.5451 199.6405,718.6236 199.4034,707.7028 199.1668,696.7827 198.9307,685.8632 198.6951,674.9445 198.4601,664.0264 198.2255,653.1088 197.9914,642.1919 197.7579,631.2755 197.5248,620.3597 197.2923,609.4443 197.0602,598.5295 196.8287,587.615 196.5976,576.701 196.3671,565.7875 196.1371,554.8742 195.9075,543.9614 195.6785,533.0488 195.4499,522.1366 195.2219,511.2246 194.9944,500.3129 194.7673,489.4013 194.5408,478.49 194.3147,467.5788 194.0892,456.6678 193.8641,445.7569 193.6396,434.8461 193.4155,423.9354 193.1919,413.0246 192.9688,402.1139 192.7462,391.2032 192.5241,380.2925 192.3025,369.3816 192.0814,358.4707 191.8608,347.5597 191.6407,336.6485 191.421,325.7371 191.2019,314.8256 190.9832,303.9138 190.765,293.0018 190.5473,282.0895 190.3301,271.1769 190.1134,260.264 189.8972,249.3507 189.6814,238.437 189.4662,227.523 189.2514,216.6085 189.0371,205.6935 188.8233,194.7781 188.61,183.8622 188.3971,172.9457 188.1848,162.0287 187.9729,151.111 187.7615,140.1928 187.5506,129.274 187.3402,118.3544 187.1302,107.4342 186.9208,96.5133 186.7118,85.5916 186.5033,74.6691" stroke="silver" stroke-opacity="0.5" stroke-width="1" /><polyline fill="none" points="105.2823,732.0927 104.9322,721.1689 104.5828,710.2458 104.2342,699.3234 103.8863,688.4016 103.5392,677.4805 103.1929,666.56 102.8472,655.6401 102.5024,644.7208 102.1582,633.802 101.8148,622.8837 101.4722,611.9659 101.1303,601.0486 100.7891,590.1317 100.4487,579.2152 100.109,568.299 99.7701,557.3833 99.4319,546.4678 99.0944,535.5527 98.7577,524.6379 98.4217,513.7233 98.0864,502.8089 97.7519,491.8947 97.4181,480.9807 97.085,470.0669 96.7527,459.1532 96.421,448.2395 96.0902,437.326 95.76,426.4125 95.4306,415.499 95.1019,404.5855 94.7739,393.6719 94.4467,382.7583 94.1201,371.8447 93.7943,360.9309 93.4693,350.0169 93.1449,339.1029 92.8213,328.1886 92.4983,317.2741 92.1761,306.3594 91.8547,295.4444 91.5339,284.5291 91.2139,273.6135 90.8945,262.6975 90.5759,251.7812 90.258,240.8645 89.9409,229.9474 89.6244,219.0298 89.3086,208.1117 88.9936,197.1932 88.6793,186.2741 88.3656,175.3545 88.0527,164.4343 87.7405,153.5135 87.4291,142.592 87.1183,131.6699 86.8082,120.7472 86.4989,109.8237 86.1902,98.8995 85.8823,87.9745 85.575,77.0487" stroke="silver" stroke-opacity="0.5" stroke-width="1" /><polyline fill="none" points="716.667,732.8232 710.6119,732.6164 701.151,732.3013 691.6903,731.9961 682.2299,731.7005 672.7697,731.4148 663.3097,731.1388 653.8499,730.8725 644.3903,730.616 634.9309,730.3692 625.4717,730.1322 616.0126,729.905 606.5538,729.6875 597.0951,729.4797 587.6365,729.2817 578.1781,729.0934 568.7199,728.9149 559.2618,728.7461 549.8038,728.5871 540.3459,728.4377 530.8881,728.2982 521.4305,728.1683 511.9729,728.0482 502.5154,727.9379 493.058,727.8372 483.6007,727.7463 474.1434,727.6652 464.6863,727.5937 455.2291,727.532 445.772,727.4801 436.3149,727.4378 426.8579,727.4053 417.4009,727.3826 407.9439,727.3695 398.4869,727.3662 389.0299,727.3727 379.5729,727.3888 370.1159,727.4147 360.6588,727.4503 351.2017,727.4957 341.7446,727.5507 332.2875,727.6155 322.8302,727.6901 313.373,727.7744 303.9156,727.8684 294.4582,727.9721 285.0007,728.0856 275.5431,728.2088 266.0854,728.3418 256.6276,728.4845 247.1697,728.6369 237.7116,728.7991 228.2535,728.971 218.7952,729.1526 209.3367,729.344 199.8782,729.5451 190.4194,729.756 180.9605,729.9766 171.5014,730.207 162.0421,730.4471 152.5827,730.697 143.123,730.9566 133.6631,731.226 124.2031,731.5051 114.7428,731.794 105.2823,732.0927 95.8215,732.4011 86.3605,732.7193 83.333,732.8232" stroke="silver" stroke-opacity="0.5" stroke-width="1" /><polyline fill="none" points="719.6544,645.4459 713.542,645.2407 703.9917,644.9279 694.4416,644.6249 684.8918,644.3315 675.3422,644.0478 665.7929,643.7738 656.2438,643.5095 646.6948,643.2549 637.1461,643.01 627.5976,642.7747 618.0493,642.5491 608.5012,642.3332 598.9532,642.127 589.4055,641.9304 579.8578,641.7435 570.3104,641.5663 560.763,641.3987 551.2158,641.2408 541.6688,641.0926 532.1218,640.9541 522.575,640.8252 513.0283,640.706 503.4816,640.5964 493.9351,640.4965 484.3886,640.4063 474.8422,640.3257 465.2959,640.2548 455.7496,640.1936 446.2034,640.142 436.6572,640.1001 427.111,640.0678 417.5649,640.0452 408.0187,640.0323 398.4726,640.029 388.9265,640.0354 379.3804,640.0514 369.8342,640.0771 360.2881,640.1124 350.7418,640.1575 341.1956,640.2121 331.6493,640.2765 322.1029,640.3505 312.5565,640.4341 303.01,640.5274 293.4635,640.6304 283.9168,640.7431 274.37,640.8654 264.8232,640.9974 255.2762,641.139 245.7291,641.2903 236.1818,641.4513 226.6345,641.6219 217.0869,641.8023 207.5393,641.9922 197.9914,642.1919 188.4434,642.4012 178.8952,642.6202 169.3469,642.8489 159.7983,643.0873 150.2495,643.3353 140.7005,643.5931 131.1513,643.8605 121.6019,644.1375 112.0523,644.4243 102.5024,644.7208 92.9522,645.0269 83.4018,645.3428 80.3456,645.4459" stroke="silver" stroke-opacity="0.5" stroke-width="1" /><polyline fill="none" points="722.5906,558.1027 716.422,557.8991 706.7837,557.5888 697.1458,557.2881 687.5081,556.997 677.8707,556.7156 668.2335,556.4438 658.5966,556.1815 648.9599,555.9289 639.3234,555.6859 629.6871,555.4525 620.0511,555.2286 610.4152,555.0144 600.7795,554.8098 591.144,554.6148 581.5087,554.4294 571.8736,554.2535 562.2386,554.0873 552.6037,553.9306 542.969,553.7836 533.3344,553.6461 523.6999,553.5183 514.0655,553.4 504.4313,553.2913 494.7971,553.1922 485.163,553.1027 475.529,553.0227 465.895,552.9524 456.2612,552.8916 446.6273,552.8404 436.9935,552.7988 427.3598,552.7668 417.726,552.7444 408.0923,552.7316 398.4586,552.7283 388.8249,552.7346 379.1912,552.7505 369.5574,552.776 359.9237,552.8111 350.2899,552.8558 340.656,552.91 331.0221,552.9738 321.3881,553.0473 311.7541,553.1303 302.12,553.2229 292.4858,553.325 282.8515,553.4368 273.2171,553.5581 263.5826,553.6891 253.9479,553.8296 244.3132,553.9797 234.6783,554.1394 225.0432,554.3087 215.408,554.4876 205.7726,554.6761 196.1371,554.8742 186.5013,555.0819 176.8654,555.2992 167.2293,555.5261 157.5929,555.7626 147.9564,556.0087 138.3196,556.2644 128.6826,556.5297 119.0454,556.8046 109.4079,557.0891 99.7701,557.3833 90.1321,557.687 80.4938,558.0004 77.4094,558.1027" stroke="silver" stroke-opacity="0.5" stroke-width="1" /><polyline fill="none" points="725.4761,470.7803 719.2522,470.5784 709.5276,470.2707 699.8033,469.9725 690.0792,469.6839 680.3555,469.4048 670.632,469.1352 660.9088,468.8752 651.1858,468.6247 641.4631,468.3837 631.7405,468.1522 622.0183,467.9303 612.2962,467.7179 602.5743,467.515 592.8526,467.3216 583.1311,467.1377 573.4097,466.9633 563.6886,466.7985 553.9676,466.6432 544.2467,466.4973 534.526,466.361 524.8053,466.2342 515.0849,466.1169 505.3645,466.0092 495.6442,465.9109 485.924,465.8221 476.2039,465.7429 466.4839,465.6731 456.7639,465.6128 447.044,465.5621 437.3241,465.5208 427.6042,465.4891 417.8844,465.4669 408.1646,465.4541 398.4448,465.4509 388.725,465.4572 379.0052,465.473 369.2854,465.4982 359.5656,465.533 349.8457,465.5773 340.1257,465.6311 330.4057,465.6944 320.6857,465.7672 310.9655,465.8495 301.2453,465.9413 291.525,466.0426 281.8046,466.1534 272.0841,466.2738 262.3634,466.4036 252.6426,466.543 242.9217,466.6918 233.2007,466.8502 223.4794,467.0181 213.7581,467.1955 204.0365,467.3824 194.3147,467.5788 184.5928,467.7848 174.8706,468.0003 165.1483,468.2253 155.4257,468.4598 145.7029,468.7038 135.9798,468.9574 126.2565,469.2204 116.5329,469.4931 106.8091,469.7752 97.085,470.0669 87.3606,470.3681 77.6359,470.6788 74.5239,470.7803" stroke="silver" stroke-opacity="0.5" stroke-width="1" /><polyline fill="none" points="728.3113,383.4654 722.0331,383.2653 712.2236,382.9603 702.4144,382.6648 692.6056,382.3787 682.797,382.1021 672.9887,381.835 663.1807,381.5772 653.373,381.329 643.5655,381.0901 633.7582,380.8607 623.9512,380.6408 614.1444,380.4302 604.3378,380.2291 594.5314,380.0375 584.7252,379.8552 574.9192,379.6824 565.1133,379.5191 555.3077,379.3651 545.5021,379.2206 535.6968,379.0855 525.8915,378.9598 516.0864,378.8436 506.2814,378.7368 496.4765,378.6394 486.6717,378.5514 476.867,378.4728 467.0624,378.4037 457.2578,378.344 447.4533,378.2937 437.6489,378.2528 427.8444,378.2213 418.04,378.1993 408.2357,378.1867 398.4313,378.1835 388.6269,378.1897 378.8225,378.2053 369.0181,378.2304 359.2137,378.2648 349.4092,378.3087 339.6047,378.3621 329.8001,378.4248 319.9955,378.4969 310.1907,378.5785 300.3859,378.6695 290.581,378.7699 280.776,378.8798 270.9708,378.999 261.1655,379.1277 251.3601,379.2658 241.5545,379.4133 231.7488,379.5703 221.9429,379.7367 212.1369,379.9125 202.3306,380.0978 192.5241,380.2925 182.7175,380.4966 172.9106,380.7101 163.1035,380.9331 153.2962,381.1655 143.4886,381.4074 133.6808,381.6587 123.8727,381.9194 114.0643,382.1896 104.2556,382.4693 94.4467,382.7583 84.6374,383.0569 74.8278,383.3648 71.6887,383.4654" stroke="silver" stroke-opacity="0.5" stroke-width="1" /><polyline fill="none" points="731.0968,296.1448 724.7652,295.9465 714.8723,295.6444 704.9798,295.3517 695.0875,295.0684 685.1956,294.7944 675.304,294.5297 665.4127,294.2744 655.5217,294.0285 645.6309,293.7919 635.7404,293.5647 625.8501,293.3468 615.9601,293.1382 606.0703,292.939 596.1807,292.7492 586.2913,292.5687 576.4021,292.3975 566.5131,292.2357 556.6242,292.0832 546.7355,291.94 536.847,291.8062 526.9586,291.6817 517.0704,291.5666 507.1823,291.4608 497.2943,291.3643 487.4063,291.2771 477.5185,291.1993 467.6308,291.1308 457.7431,291.0717 447.8555,291.0219 437.9679,290.9814 428.0804,290.9502 418.1929,290.9284 408.3055,290.9159 398.418,290.9127 388.5305,290.9189 378.6431,290.9344 368.7556,290.9592 358.868,290.9933 348.9805,291.0368 339.0928,291.0896 329.2051,291.1517 319.3174,291.2232 309.4295,291.304 299.5416,291.3942 289.6535,291.4936 279.7654,291.6024 269.8771,291.7206 259.9887,291.848 250.1001,291.9848 240.2114,292.131 230.3225,292.2864 220.4334,292.4513 210.5441,292.6254 200.6547,292.8089 190.765,293.0018 180.8751,293.204 170.985,293.4155 161.0947,293.6364 151.2041,293.8666 141.3132,294.1062 131.4221,294.3551 121.5307,294.6134 111.639,294.881 101.747,295.158 91.8547,295.4444 81.962,295.7401 72.0691,296.0452 68.9032,296.1448" stroke="silver" stroke-opacity="0.5" stroke-width="1" /><polyline fill="none" points="733.8328,208.8051 727.4488,208.6089 717.474,208.3098 707.4996,208.02 697.5255,207.7395 687.5517,207.4682 677.5783,207.2062 667.6051,206.9535 657.6323,206.71 647.6597,206.4758 637.6874,206.2508 627.7154,206.0351 617.7436,205.8286 607.772,205.6314 597.8007,205.4435 587.8296,205.2648 577.8587,205.0953 567.8879,204.9351 557.9174,204.7841 547.947,204.6424 537.9768,204.5099 528.0068,204.3867 518.0369,204.2727 508.0671,204.1679 498.0975,204.0724 488.1279,203.9861 478.1584,203.9091 468.1891,203.8413 458.2198,203.7827 448.2505,203.7334 438.2814,203.6933 428.3122,203.6625 418.3431,203.6409 408.374,203.6285 398.4049,203.6253 388.4359,203.6314 378.4668,203.6468 368.4977,203.6713 358.5285,203.7051 348.5593,203.7482 338.5901,203.8005 328.6207,203.862 318.6513,203.9327 308.6819,204.0127 298.7123,204.102 288.7426,204.2004 278.7727,204.3082 268.8028,204.4251 258.8327,204.5513 248.8625,204.6867 238.892,204.8314 228.9215,204.9853 218.9507,205.1485 208.9797,205.3209 199.0085,205.5026 189.0371,205.6935 179.0655,205.8937 169.0936,206.1031 159.1215,206.3218 149.1491,206.5497 139.1764,206.7869 129.2035,207.0333 119.2302,207.2891 109.2567,207.554 99.2828,207.8282 89.3086,208.1117 79.3341,208.4045 69.3592,208.7065 66.1672,208.8051" stroke="silver" stroke-opacity="0.5" stroke-width="1" /><polyline fill="none" points="736.5199,121.4333 730.0843,121.2391 720.0291,120.9431 709.9743,120.6564 699.9198,120.3788 689.8656,120.1104 679.8118,119.8512 669.7583,119.6011 659.7051,119.3602 649.6522,119.1284 639.5995,118.9058 629.5472,118.6924 619.4951,118.4881 609.4433,118.293 599.3917,118.107 589.3403,117.9302 579.2891,117.7625 569.2382,117.604 559.1874,117.4546 549.1368,117.3144 539.0864,117.1833 529.0362,117.0613 518.9861,116.9486 508.9361,116.8449 498.8863,116.7504 488.8365,116.665 478.7869,116.5888 468.7374,116.5217 458.6879,116.4638 448.6385,116.415 438.5892,116.3753 428.5399,116.3448 418.4906,116.3234 408.4414,116.3112 398.3921,116.308 388.3429,116.3141 378.2936,116.3292 368.2444,116.3536 358.1951,116.387 348.1457,116.4296 338.0963,116.4813 328.0468,116.5422 317.9972,116.6122 307.9476,116.6913 297.8978,116.7796 287.8479,116.8771 277.7979,116.9837 267.7478,117.0994 257.6975,117.2242 247.647,117.3582 237.5964,117.5014 227.5455,117.6537 217.4945,117.8152 207.4433,117.9858 197.3919,118.1655 187.3402,118.3544 177.2883,118.5525 167.2361,118.7597 157.1837,118.9761 147.1309,119.2016 137.0779,119.4363 127.0246,119.6801 116.971,119.9331 106.9171,120.1953 96.8628,120.4666 86.8082,120.7472 76.7533,121.0368 66.6979,121.3357 63.4801,121.4333" stroke="silver" stroke-opacity="0.5" stroke-width="1" /><circle cx="733.7307" cy="133.7691" fill="black" r="0.936" stroke="none" /><circle cx="710.7504" cy="575.8113" fill="black" r="0.936" stroke="none" /><circle cx="718.3944" cy="265.5954" fill="black" r="0.738" stroke="none" /><circle cx="698.8279" cy="712.8047" fill="black" r="1.854" stroke="none" /><circle cx="705.6747" cy="456.256" fill="black" r="0.738" stroke="none" /><circle cx="714.9976" cy="125.1713" fill="black" r="0.738" stroke="none" /><circle cx="698.759" cy="307.9312" fill="black" r="0.738" stroke="none" /><circle cx="702.4556" cy="133.5646" fill="black" r="0.936" stroke="none" /><circle cx="691.4241" cy="484.8406" fill="black" r="0.738" stroke="none" /><circle cx="685.576" cy="601.1664" fill="black" r="0.738" stroke="none" /><circle cx="696.0873" cy="190.305" fill="black" r="0.738" stroke="none" /><circle cx="686.3428" cy="525.7631" fill="black" r="0.738" stroke="none" /><circle cx="686.1024" cy="515.4442" fill="black" r="0.738" stroke="none" /><circle cx="685.0861" cy="502.3943" fill="black" r="0.738" stroke="none" /><circle cx="672.6352" cy="663.5522" fill="black" r="0.738" stroke="none" /><circle cx="682.3826" cy="191.4243" fill="black" r="1.17" stroke="none" /><circle cx="666.0394" cy="728.4187" fill="black" r="0.738" stroke="none" /><circle cx="671.34" cy="346.1471" fill="black" r="0.738" stroke="none" /><circle cx="657.8764" cy="678.6083" fill="black" r="0.738" stroke="none" /><circle cx="666.9035" cy="235.0736" fill="black" r="0.738" stroke="none" /><circle cx="661.4865" cy="241.6673" fill="black" r="0.738" stroke="none" /><circle cx="645.0173" cy="669.433" fill="black" r="0.738" stroke="none" /><circle cx="646.7807" cy="394.1818" fill="black" r="0.738" stroke="none" /><circle cx="651.3608" cy="142.942" fill="black" r="0.738" stroke="none" /><circle cx="648.1319" cy="122.3284" fill="black" r="0.738" stroke="none" /><circle cx="630.0119" cy="379.9022" fill="black" r="0.738" stroke="none" /><circle cx="622.2818" cy="572.2267" fill="black" r="0.738" stroke="none" /><circle cx="627.3835" cy="229.1786" fill="black" r="0.738" stroke="none" /><circle cx="618.8631" cy="553.1926" fill="black" r="0.738" stroke="none" /><circle cx="613.658" cy="687.5421" fill="black" r="0.738" stroke="none" /><circle cx="621.2797" cy="329.581" fill="black" r="0.738" stroke="none" /><circle cx="601.2194" cy="240.008" fill="black" r="0.738" stroke="none" /><circle cx="594.3993" cy="507.2584" fill="black" r="0.738" stroke="none" /><circle cx="583.3454" cy="724.3003" fill="black" r="0.738" stroke="none" /><circle cx="591.6949" cy="125.9223" fill="black" r="0.738" stroke="none" /><circle cx="585.7222" cy="108.2569" fill="black" r="0.738" stroke="none" /><circle cx="578.4488" cy="297.6712" fill="black" r="0.738" stroke="none" /><circle cx="575.7226" cy="405.8009" fill="black" r="0.738" stroke="none" /><circle cx="578.8045" cy="162.2235" fill="black" r="0.738" stroke="none" /><circle cx="573.8124" cy="271.9221" fill="black" r="0.738" stroke="none" /><circle cx="575.2879" cy="96.1156" fill="black" r="0.936" stroke="none" /><circle cx="570.314" cy="335.5153" fill="black" r="0.738" stroke="none" /><circle cx="568.9487" cy="253.768" fill="black" r="0.738" stroke="none" /><circle cx="560.5695" cy="657.2069" fill="black" r="0.738" stroke="none" /><circle cx="557.9879" cy="559.4309" fill="black" r="0.936" stroke="none" /><circle cx="549.7215" cy="412.2794" fill="black" r="0.738" stroke="none" /><circle cx="542.6127" cy="603.6391" fill="black" r="0.738" stroke="none" /><circle cx="537.5314" cy="473.9969" fill="black" r="0.738" stroke="none" /><circle cx="538.0487" cy="367.5945" fill="black" r="0.738" stroke="none" /><circle cx="528.3099" cy="668.328" fill="black" r="0.738" stroke="none" /><circle cx="527.0823" cy="377.8398" fill="black" r="0.738" stroke="none" /><circle cx="525.6243" cy="310.5214" fill="black" r="0.738" stroke="none" /><circle cx="522.8142" cy="425.6204" fill="black" r="0.738" stroke="none" /><circle cx="525.7826" cy="148.3819" fill="black" r="0.738" stroke="none" /><circle cx="525.528" cy="149.6018" fill="black" r="0.738" stroke="none" /><circle cx="515.6208" cy="622.3105" fill="black" r="0.738" stroke="none" /><circle cx="519.3138" cy="189.7916" fill="black" r="0.936" stroke="none" /><circle cx="510.3161" cy="516.8657" fill="black" r="0.738" stroke="none" /><circle cx="510.8204" cy="231.0004" fill="black" r="0.738" stroke="none" /><circle cx="505.525" cy="682.8924" fill="black" r="0.738" stroke="none" /><circle cx="488.031" cy="542.8274" fill="black" r="0.738" stroke="none" /><circle cx="487.074" cy="580.4449" fill="black" r="0.738" stroke="none" /><circle cx="487.3753" cy="304.457" fill="black" r="0.738" stroke="none" /><circle cx="486.3973" cy="327.0549" fill="black" r="0.738" stroke="none" /><circle cx="480.9434" cy="614.5292" fill="black" r="0.738" stroke="none" /><circle cx="481.6608" cy="337.8391" fill="black" r="0.738" stroke="none" /><circle cx="479.9932" cy="105.417" fill="black" r="0.738" stroke="none" /><circle cx="475.1111" cy="403.7692" fill="black" r="0.936" stroke="none" /><circle cx="475.3363" cy="139.098" fill="black" r="0.738" stroke="none" /><circle cx="473.2383" cy="424.6139" fill="black" r="0.738" stroke="none" /><circle cx="473.4511" cy="204.1378" fill="black" r="0.738" stroke="none" /><circle cx="467.5979" cy="356.6762" fill="black" r="1.476" stroke="none" /><circle cx="467.1654" cy="83.9303" fill="black" r="0.738" stroke="none" /><circle cx="458.8082" cy="700.1241" fill="black" r="0.738" stroke="none" /><circle cx="449.6047" cy="617.7192" fill="black" r="0.738" stroke="none" /><circle cx="446.3077" cy="571.2576" fill="black" r="0.738" stroke="none" /><circle cx="441.8074" cy="717.5022" fill="black" r="0.936" stroke="none" /><circle cx="442.3177" cy="406.0226" fill="black" r="0.738" stroke="none" /><circle cx="436.1441" cy="292.2841" fill="black" r="0.738" stroke="none" /><circle cx="433.0986" cy="473.4476" fill="black" r="0.738" stroke="none" /><circle cx="424.0649" cy="282.8233" fill="black" r="0.738" stroke="none" /><circle cx="418.5601" cy="638.8247" fill="black" r="0.738" stroke="none" /><circle cx="418.3163" cy="525.7748" fill="black" r="0.738" stroke="none" /><circle cx="415.9345" cy="319.4635" fill="black" r="1.476" stroke="none" /><circle cx="410.3228" cy="250.1573" fill="black" r="1.17" stroke="none" /><circle cx="409.7316" cy="201.709" fill="black" r="1.17" stroke="none" /><circle cx="398.4495" cy="495.0362" fill="black" r="0.936" stroke="none" /><circle cx="396.1701" cy="198.6497" fill="black" r="0.738" stroke="none" /><circle cx="395.6862" cy="378.5333" fill="black" r="0.738" stroke="none" /><circle cx="395.2637" cy="312.2088" fill="black" r="1.17" stroke="none" /><circle cx="394.5231" cy="95.8713" fill="black" r="0.936" stroke="none" /><circle cx="393.0222" cy="704.22" fill="black" r="0.738" stroke="none" /><circle cx="391.3919" cy="108.7128" fill="black" r="0.738" stroke="none" /><circle cx="388.121" cy="544.356" fill="black" r="0.738" stroke="none" /><circle cx="385.1136" cy="442.2483" fill="black" r="0.738" stroke="none" /><circle cx="384.5977" cy="358.9088" fill="black" r="0.738" stroke="none" /><circle cx="382.5253" cy="148.459" fill="black" r="0.738" stroke="none" /><circle cx="378.8708" cy="401.4183" fill="black" r="1.17" stroke="none" /><circle cx="378.8068" cy="656.6436" fill="black" r="0.738" stroke="none" /><circle cx="375.0622" cy="443.4028" fill="black" r="0.738" stroke="none" /><circle cx="374.4961" cy="584.187" fill="black" r="0.738" stroke="none" /><circle cx="373.5111" cy="263.2781" fill="black" r="0.738" stroke="none" /><circle cx="369.2233" cy="445.339" fill="black" r="0.738" stroke="none" /><circle cx="367.3532" cy="372.6504" fill="black" r="0.738" stroke="none" /><circle cx="366.229" cy="570.6817" fill="black" r="0.738" stroke="none" /><circle cx="356.0968" cy="233.0468" fill="black" r="0.738" stroke="none" /><circle cx="352.2351" cy="132.4809" fill="black" r="0.738" stroke="none" /><circle cx="353.0499" cy="658.833" fill="black" r="1.854" stroke="none" /><circle cx="345.7228" cy="521.6316" fill="black" r="0.738" stroke="none" /><circle cx="345.6011" cy="727.1776" fill="black" r="0.738" stroke="none" /><circle cx="332.1108" cy="162.5402" fill="black" r="0.936" stroke="none" /><circle cx="331.401" cy="463.4183" fill="black" r="0.738" stroke="none" /><circle cx="319.6633" cy="189.8681" fill="black" r="0.738" stroke="none" /><circle cx="320.3729" cy="579.4199" fill="black" r="0.738" stroke="none" /><circle cx="317.6204" cy="276.5722" fill="black" r="1.17" stroke="none" /><circle cx="316.6751" cy="195.9153" fill="black" r="0.738" stroke="none" /><circle cx="317.4368" cy="333.3078" fill="black" r="0.738" stroke="none" /><circle cx="313.1777" cy="388.5022" fill="black" r="2.322" stroke="none" /><circle cx="302.0367" cy="467.33" fill="black" r="0.738" stroke="none" /><circle cx="300.9992" cy="695.749" fill="black" r="0.738" stroke="none" /><circle cx="287.7045" cy="134.3481" fill="black" r="0.738" stroke="none" /><circle cx="290.4058" cy="512.231" fill="black" r="0.738" stroke="none" /><circle cx="287.0619" cy="393.9082" fill="black" r="0.738" stroke="none" /><circle cx="286.9101" cy="394.3463" fill="black" r="0.738" stroke="none" /><circle cx="280.8209" cy="83.9277" fill="black" r="2.322" stroke="none" /><circle cx="278.9086" cy="719.426" fill="black" r="0.738" stroke="none" /><circle cx="270.7388" cy="470.4812" fill="black" r="0.738" stroke="none" /><circle cx="266.3818" cy="227.7689" fill="black" r="0.738" stroke="none" /><circle cx="270.064" cy="582.6755" fill="black" r="0.738" stroke="none" /><circle cx="270.1718" cy="641.0969" fill="black" r="0.738" stroke="none" /><circle cx="263.1698" cy="206.853" fill="black" r="0.738" stroke="none" /><circle cx="265.947" cy="455.2684" fill="black" r="0.738" stroke="none" /><circle cx="261.3269" cy="309.2028" fill="black" r="0.738" stroke="none" /><circle cx="260.6845" cy="490.783" fill="black" r="0.738" stroke="none" /><circle cx="255.7059" cy="232.9722" fill="black" r="0.738" stroke="none" /><circle cx="257.1306" cy="586.4395" fill="black" r="0.738" stroke="none" /><circle cx="242.678" cy="90.1674" fill="black" r="0.738" stroke="none" /><circle cx="242.0687" cy="392.3256" fill="black" r="0.738" stroke="none" /><circle cx="242.9486" cy="653.2163" fill="black" r="0.936" stroke="none" /><circle cx="232.6905" cy="133.388" fill="black" r="0.738" stroke="none" /><circle cx="233.0318" cy="293.4653" fill="black" r="0.738" stroke="none" /><circle cx="229.3056" cy="434.6128" fill="black" r="0.738" stroke="none" /><circle cx="227.5637" cy="442.2382" fill="black" r="0.738" stroke="none" /><circle cx="224.8006" cy="367.9008" fill="black" r="1.17" stroke="none" /><circle cx="217.1105" cy="526.0736" fill="black" r="0.738" stroke="none" /><circle cx="211.8572" cy="268.675" fill="black" r="0.936" stroke="none" /><circle cx="207.2635" cy="635.9696" fill="black" r="0.738" stroke="none" /><circle cx="197.0995" cy="214.2734" fill="black" r="0.738" stroke="none" /><circle cx="193.754" cy="463.0495" fill="black" r="0.738" stroke="none" /><circle cx="182.0731" cy="176.915" fill="black" r="0.738" stroke="none" /><circle cx="184.9043" cy="464.1975" fill="black" r="0.738" stroke="none" /><circle cx="166.2769" cy="171.7388" fill="black" r="1.17" stroke="none" /><circle cx="162.3943" cy="288.1039" fill="black" r="0.738" stroke="none" /><circle cx="166.8518" cy="530.1143" fill="black" r="0.738" stroke="none" /><circle cx="160.9811" cy="417.4036" fill="black" r="0.738" stroke="none" /><circle cx="153.7627" cy="109.8735" fill="black" r="0.738" stroke="none" /><circle cx="157.6757" cy="531.2116" fill="black" r="0.738" stroke="none" /><circle cx="147.1654" cy="117.1903" fill="black" r="0.738" stroke="none" /><circle cx="161.047" cy="715.4338" fill="black" r="0.738" stroke="none" /><circle cx="151.5197" cy="477.2045" fill="black" r="0.738" stroke="none" /><circle cx="151.8521" cy="631.5815" fill="black" r="0.738" stroke="none" /><circle cx="139.0727" cy="202.5076" fill="black" r="0.738" stroke="none" /><circle cx="149.3683" cy="684.6179" fill="black" r="0.738" stroke="none" /><circle cx="132.926" cy="247.3108" fill="black" r="0.936" stroke="none" /><circle cx="135.3653" cy="532.7526" fill="black" r="0.738" stroke="none" /><circle cx="131.9243" cy="410.2713" fill="black" r="1.17" stroke="none" /><circle cx="125.3615" cy="194.1088" fill="black" r="0.738" stroke="none" /><circle cx="124.8296" cy="305.6224" fill="black" r="0.738" stroke="none" /><circle cx="131.2345" cy="641.4104" fill="black" r="0.738" stroke="none" /><circle cx="117.9124" cy="327.6505" fill="black" r="0.738" stroke="none" /><circle cx="113.9546" cy="179.8953" fill="black" r="1.17" stroke="none" /><circle cx="110.6871" cy="409.7206" fill="black" r="0.738" stroke="none" /><circle cx="118.0456" cy="670.8229" fill="black" r="0.738" stroke="none" /><circle cx="105.66" cy="548.0251" fill="black" r="0.738" stroke="none" /><circle cx="100.2141" cy="421.0358" fill="black" r="0.738" stroke="none" /><circle cx="87.5288" cy="259.0379" fill="black" r="0.936" stroke="none" /><circle cx="91.7044" cy="462.2794" fill="black" r="0.936" stroke="none" /><circle cx="95.8928" cy="669.6802" fill="black" r="0.738" stroke="none" /><circle cx="78.5517" cy="130.255" fill="black" r="0.738" stroke="none" /><circle cx="78.8059" cy="293.5638" fill="black" r="0.738" stroke="none" /><circle cx="75.0817" cy="341.6652" fill="black" r="0.738" stroke="none" /><circle cx="71.7595" cy="306.3695" fill="black" r="0.738" stroke="none" /><circle cx="83.9415" cy="681.7097" fill="black" r="1.17" stroke="none" /><circle cx="13.77" cy="786.23" fill="black" r="4.59" stroke="none" /><circle cx="13.77" cy="786.23" fill="black" r="4.59" stroke="none" /><text fill="black" font-family="monospace" font-size="12" x="10.77" y="775.64">1</text><circle cx="37.77" cy="786.23" fill="black" r="3.654" stroke="none" /><circle cx="37.77" cy="786.23" fill="black" r="3.654" stroke="none" /><text fill="black" font-family="monospace" font-size="12" x="34.769999999999996" y="775.64">2</text><circle cx="61.77" cy="786.23" fill="black" r="2.916" stroke="none" /><circle cx="61.77" cy="786.23" fill="black" r="2.916" stroke="none" /><text fill="black" font-family="monospace" font-size="12" x="58.769999999999996" y="775.64">3</text><circle cx="85.77" cy="786.23" fill="black" r="2.322" stroke="none" /><circle cx="85.77" cy="786.23" fill="black" r="2.322" stroke="none" /><text fill="black" font-family="monospace" font-size="12" x="82.77" y="775.64">4</text><circle cx="109.77" cy="786.23" fill="black" r="1.854" stroke="none" /><circle cx="109.77" cy="786.23" fill="black" r="1.854" stroke="none" /><text fill="black" font-family="monospace" font-size="12" x="106.77" y="775.64">5</text><circle cx="133.77" cy="786.23" fill="black" r="1.476" stroke="none" /><circle cx="133.77" cy="786.23" fill="black" r="1.476" stroke="none" /><text fill="black" font-family="monospace" font-size="12" x="130.77" y="775.64">6</text><circle cx="157.77" cy="786.23" fill="black" r="1.17" stroke="none" /><circle cx="157.77" cy="786.23" fill="black" r="1.17" stroke="none" /><text fill="black" font-family="monospace" font-size="12" x="154.77" y="775.64">7</text><circle cx="181.77" cy="786.23" fill="black" r="0.936" stroke="none" /><circle cx="181.77" cy="786.23" fill="black" r="0.936" stroke="none" /><text fill="black" font-family="monospace" font-size="12" x="178.77" y="775.64">8</text><circle cx="205.77" cy="786.23" fill="black" r="0.738" stroke="none" /><circle cx="205.77" cy="786.23" fill="black" r="0.738" stroke="none" /><text fill="black" font-family="monospace" font-size="12" x="202.77" y="775.64">9</text><text fill="gray" fill-opacity="0.5" font-family="monospace" font-size="12" x="691.0068025410716" y="76.41547806920494">15h40m</text><text fill="gray" fill-opacity="0.5" font-family="monospace" font-size="12" x="590.0853609016757" y="74.24722345166361">15h45m</text><text fill="gray" fill-opacity="0.5" font-family="monospace" font-size="12" x="489.18601291917867" y="72.98903155720757">15h50m</text><text fill="gray" fill-opacity="0.5" font-family="monospace" font-size="12" x="388.29703216879096" y="72.64001072399918">15h55m</text><text fill="gray" fill-opacity="0.5" font-family="monospace" font-size="12" x="287.40669099171737" y="73.19991364866695">16h00m</text><text fill="gray" fill-opacity="0.5" font-family="monospace" font-size="12" x="186.50326189072558" y="74.66913706684903">16h05m</text><text fill="gray" fill-opacity="0.5" font-family="monospace" font-size="12" x="85.57501892852446" y="77.04872226568614">16h10m</text><text fill="gray" fill-opacity="0.5" font-family="monospace" font-size="12" x="83.33297901746084" y="732.82315467983">-30°</text><text fill="gray" fill-opacity="0.5" font-family="monospace" font-size="12" x="80.3456091616892" y="645.4458996653692">-29°</text><text fill="gray" fill-opacity="0.5" font-family="monospace" font-size="12" x="77.4094311811408" y="558.1027018944101">-28°</text><text fill="gray" fill-opacity="0.5" font-family="monospace" font-size="12" x="74.52394885402055" y="470.7802873175766">-27°</text><text fill="gray" fill-opacity="0.5" font-family="monospace" font-size="12" x="71.68869682781377" y="383.4653944884191">-26°</text><text fill="gray" fill-opacity="0.5" font-family="monospace" font-size="12" x="68.90324031218097" y="296.1447665185394">-25°</text><text fill="gray" fill-opacity="0.5" font-family="monospace" font-size="12" x="66.16717481135316" y="208.80514303858516">-24°</text><text fill="gray" fill-opacity="0.5" font-family="monospace" font-size="12" x="63.4801258956781" y="121.43325215475375">-23°</text><text fill="black" font-family="monospace" font-size="12" x="12" y="48">&gt;&gt; No.254 15h38m 16h11m -30.0°-22.5°</text><a target="_self" xlink:href="hip011.svg"><text fill="black" font-family="monospace" font-size="12" x="12" y="36">&gt; No.11 15h00m 18h00m -52.5°-22.5°</text></a><a target="_self" xlink:href="hip001.svg"><text fill="black" font-family="monospace" font-size="12" x="12" y="24">No.1 00h 24h -90.0°+0.0°</text></a><polyline fill="none" points="737.8451,77.7311 731.3842,77.5379 721.2893,77.2436 711.1948,76.9585 701.1006,76.6824 691.0068,76.4155 680.9133,76.1577 670.8202,75.909 660.7274,75.6694 650.6348,75.4389 640.5426,75.2175 630.4506,75.0052 620.3589,74.8021 610.2675,74.608 600.1763,74.4231 590.0854,74.2472 579.9946,74.0805 569.9041,73.9228 559.8138,73.7743 549.7236,73.6348 539.6337,73.5044 529.5439,73.3832 519.4542,73.271 509.3647,73.1679 499.2753,73.0739 489.186,72.989 479.0968,72.9132 469.0078,72.8465 458.9188,72.7889 448.8298,72.7404 438.741,72.7009 428.6521,72.6705 418.5633,72.6493 408.4746,72.6371 398.3858,72.634 388.297,72.64 378.2083,72.6551 368.1194,72.6793 358.0306,72.7125 347.9417,72.7549 337.8528,72.8063 327.7637,72.8669 317.6746,72.9365 307.5854,73.0152 297.4961,73.103 287.4067,73.1999 277.3171,73.3059 267.2274,73.421 257.1376,73.5452 247.0475,73.6784 236.9573,73.8208 226.867,73.9723 216.7764,74.1328 206.6856,74.3025 196.5945,74.4813 186.5033,74.6691 176.4117,74.8661 166.32,75.0722 156.2279,75.2874 146.1356,75.5116 136.043,75.745 125.95,75.9876 115.8568,76.2392 105.7632,76.4999 95.6693,76.7698 85.575,77.0487 75.4804,77.3368 65.3854,77.634 62.1549,77.7311" stroke="black" stroke-opacity="0.5" stroke-width="1" /><polyline fill="none" points="716.667,732.8232 717.0433,721.8987 717.4187,710.9749 717.7933,700.0518 718.1671,689.1294 718.5402,678.2077 718.9124,667.2865 719.2838,656.3659 719.6544,645.4459 720.0242,634.5264 720.3932,623.6074 720.7614,612.6889 721.1288,601.7709 721.4955,590.8533 721.8613,579.936 722.2263,569.0192 722.5906,558.1027 722.954,547.1865 723.3167,536.2707 723.6785,525.3551 724.0396,514.4397 724.3999,503.5246 724.7594,492.6097 725.1181,481.6949 725.4761,470.7803 725.8332,459.8658 726.1896,448.9514 726.5451,438.037 726.8999,427.1227 727.2539,416.2084 727.6072,405.2941 727.9596,394.3798 728.3113,383.4654 728.6622,372.5509 729.0123,361.6363 729.3617,350.7215 729.7102,339.8066 730.058,328.8915 730.405,317.9762 730.7513,307.0606 731.0968,296.1448 731.4415,285.2286 731.7854,274.3122 732.1286,263.3953 732.4709,252.4782 732.8126,241.5606 733.1534,230.6426 733.4935,219.7241 733.8328,208.8051 734.1714,197.8857 734.5092,186.9657 734.8462,176.0452 735.1825,165.1241 735.518,154.2023 735.8527,143.28 736.1867,132.357 736.5199,121.4333 736.8523,110.5088 737.184,99.5837 737.515,88.6578 737.8451,77.7311" stroke="black" stroke-opacity="0.5" stroke-width="1" /><polyline fill="none" points="716.667,732.8232 710.6119,732.6164 701.151,732.3013 691.6903,731.9961 682.2299,731.7005 672.7697,731.4148 663.3097,731.1388 653.8499,730.8725 644.3903,730.616 634.9309,730.3692 625.4717,730.1322 616.0126,729.905 606.5538,729.6875 597.0951,729.4797 587.6365,729.2817 578.1781,729.0934 568.7199,728.9149 559.2618,728.7461 549.8038,728.5871 540.3459,728.4377 530.8881,728.2982 521.4305,728.1683 511.9729,728.0482 502.5154,727.9379 493.058,727.8372 483.6007,727.7463 474.1434,727.6652 464.6863,727.5937 455.2291,727.532 445.772,727.4801 436.3149,727.4378 426.8579,727.4053 417.4009,727.3826 407.9439,727.3695 398.4869,727.3662 389.0299,727.3727 379.5729,727.3888 370.1159,727.4147 360.6588,727.4503 351.2017,727.4957 341.7446,727.5507 332.2875,727.6155 322.8302,727.6901 313.373,727.7744 303.9156,727.8684 294.4582,727.9721 285.0007,728.0856 275.5431,728.2088 266.0854,728.3418 256.6276,728.4845 247.1697,728.6369 237.7116,728.7991 228.2535,728.971 218.7952,729.1526 209.3367,729.344 199.8782,729.5451 190.4194,729.756 180.9605,729.9766 171.5014,730.207 162.0421,730.4471 152.5827,730.697 143.123,730.9566 133.6631,731.226 124.2031,731.5051 114.7428,731.794 105.2823,732.0927 95.8215,732.4011 86.3605,732.7193 83.333,732.8232" stroke="black" stroke-opacity="0.5" stroke-width="1" /><polyline fill="none" points="83.333,732.8232 82.9567,721.8987 82.5813,710.9749 82.2067,700.0518 81.8329,689.1294 81.4598,678.2077 81.0876,667.2865 80.7162,656.3659 80.3456,645.4459 79.9758,634.5264 79.6068,623.6074 79.2386,612.6889 78.8712,601.7709 78.5045,590.8533 78.1387,579.936 77.7737,569.0192 77.4094,558.1027 77.046,547.1865 76.6833,536.2707 76.3215,525.3551 75.9604,514.4397 75.6001,503.5246 75.2406,492.6097 74.8819,481.6949 74.5239,470.7803 74.1668,459.8658 73.8104,448.9514 73.4549,438.037 73.1001,427.1227 72.7461,416.2084 72.3928,405.2941 72.0404,394.3798 71.6887,383.4654 71.3378,372.5509 70.9877,361.6363 70.6383,350.7215 70.2898,339.8066 69.942,328.8915 69.595,317.9762 69.2487,307.0606 68.9032,296.1448 68.5585,285.2286 68.2146,274.3122 67.8714,263.3953 67.5291,252.4782 67.1874,241.5606 66.8466,230.6426 66.5065,219.7241 66.1672,208.8051 65.8286,197.8857 65.4908,186.9657 65.1538,176.0452 64.8175,165.1241 64.482,154.2023 64.1473,143.28 63.8133,132.357 63.4801,121.4333 63.1477,110.5088 62.816,99.5837 62.485,88.6578 62.1549,77.7311" stroke="black" stroke-opacity="0.5" stroke-width="1" /></svg>