<?xml version="1.0" encoding="utf-8" ?>
<svg baseProfile="tiny" height="800" version="1.2" width="800" xmlns="http://www.w3.org/2000/svg" xmlns:ev="http://www.w3.org/2001/xml-events" xmlns:xlink="http://www.w3.org/1999/xlink"><defs /><rect fill="none" height="800" stroke="black" stroke-width="2" width="800" x="0" y="0" /><polyline fill="none" points="682.5405,730.4085 682.7755,719.4825 683.0097,708.5572 683.2433,697.6326 683.4762,686.7087 683.7083,675.7855 683.9398,664.8629 684.1706,653.9408 684.4006,643.0194 684.63,632.0985 684.8586,621.1782 685.0866,610.2583 685.3138,599.3389 685.5404,588.42 685.7662,577.5014 685.9914,566.5833 686.2158,555.6655 686.4396,544.7481 686.6627,533.831 686.885,522.9142 687.1067,511.9977 687.3277,501.0813 687.548,490.1652 687.7676,479.2493 687.9865,468.3336 688.2047,457.418 688.4222,446.5025 688.6391,435.5871 688.8552,424.6717 689.0707,413.7564 689.2854,402.841 689.4995,391.9257 689.7129,381.0103 689.9256,370.0948 690.1376,359.1793 690.3489,348.2636 690.5595,337.3477 690.7695,326.4317 690.9788,315.5155 691.1873,304.5991 691.3952,293.6824 691.6024,282.7654 691.809,271.8481 692.0148,260.9305 692.22,250.0125 692.4245,239.0942 692.6283,228.1754 692.8314,217.2562 693.0338,206.3366 693.2356,195.4164 693.4366,184.4958 693.637,173.5746 693.8367,162.6528 694.0358,151.7305 694.2341,140.8075 694.4318,129.8839 694.6288,118.9596 694.8251,108.0346 695.0208,97.1089 695.2158,86.1825 695.41,75.2553" stroke="silver" stroke-opacity="0.5" stroke-width="1" /><polyline fill="none" points="581.6124,728.623 581.7633,717.7008 581.9139,706.7793 582.0639,695.8585 582.2135,684.9384 582.3627,674.0189 582.5114,663.1001 582.6597,652.182 582.8075,641.2644 582.9548,630.3473 583.1017,619.4309 583.2482,608.5149 583.3942,597.5994 583.5397,586.6843 583.6848,575.7697 583.8295,564.8555 583.9737,553.9417 584.1175,543.0283 584.2608,532.1151 584.4036,521.2023 584.5461,510.2897 584.688,499.3774 584.8296,488.4654 584.9706,477.5535 585.1113,466.6418 585.2515,455.7302 585.3912,444.8188 585.5305,433.9074 585.6694,422.9962 585.8078,412.0849 585.9458,401.1737 586.0833,390.2625 586.2204,379.3513 586.3571,368.44 586.4933,357.5286 586.629,346.617 586.7644,335.7054 586.8992,324.7936 587.0337,313.8816 587.1677,302.9694 587.3013,292.0569 587.4344,281.1442 587.5671,270.2311 587.6993,259.3178 587.8311,248.4041 587.9625,237.4901 588.0934,226.5756 588.2239,215.6607 588.354,204.7454 588.4836,193.8296 588.6128,182.9133 588.7415,171.9964 588.8698,161.079 588.9977,150.1611 589.1251,139.2425 589.2521,128.3233 589.3787,117.4034 589.5048,106.4829 589.6305,95.5616 589.7558,84.6396 589.8806,73.7169" stroke="silver" stroke-opacity="0.5" stroke-width="1" /><polyline fill="none" points="480.7114,727.6143 480.7785,716.6942 480.8453,705.7748 480.912,694.8562 480.9785,683.9382 481.0448,673.0209 481.1108,662.1043 481.1767,651.1883 481.2424,640.2729 481.3078,629.358 481.3731,618.4437 481.4382,607.5299 481.503,596.6166 481.5677,585.7038 481.6322,574.7914 481.6964,563.8794 481.7605,552.9679 481.8244,542.0566 481.8881,531.1457 481.9515,520.2352 482.0148,509.3249 482.0779,498.4148 482.1408,487.505 482.2034,476.5954 482.2659,465.686 482.3282,454.7767 482.3903,443.8676 482.4522,432.9586 482.5139,422.0496 482.5754,411.1407 482.6367,400.2318 482.6978,389.3229 482.7587,378.414 482.8194,367.505 482.8799,356.596 482.9402,345.6868 483.0004,334.7776 483.0603,323.8681 483.12,312.9585 483.1796,302.0487 483.2389,291.1386 483.2981,280.2283 483.357,269.3176 483.4158,258.4067 483.4743,247.4954 483.5327,236.5838 483.5909,225.6718 483.6488,214.7593 483.7066,203.8464 483.7642,192.9331 483.8216,182.0192 483.8788,171.1049 483.9358,160.19 483.9926,149.2745 484.0492,138.3584 484.1056,127.4417 484.1619,116.5243 484.2179,105.6062 484.2738,94.6875 484.3294,83.768 484.3849,72.8478" stroke="silver" stroke-opacity="0.5" stroke-width="1" /><polyline fill="none" points="379.8225,727.3816 379.8057,716.462 379.789,705.5431 379.7723,694.6249 379.7557,683.7075 379.7391,672.7907 379.7226,661.8745 379.7061,650.959 379.6897,640.0441 379.6734,629.1298 379.657,618.216 379.6408,607.3027 379.6246,596.3899 379.6084,585.4776 379.5923,574.5657 379.5762,563.6542 379.5602,552.7432 379.5442,541.8325 379.5283,530.9221 379.5124,520.012 379.4966,509.1022 379.4809,498.1927 379.4651,487.2834 379.4495,476.3744 379.4338,465.4655 379.4183,454.5567 379.4028,443.6481 379.3873,432.7396 379.3719,421.8312 379.3565,410.9228 379.3412,400.0145 379.3259,389.1061 379.3107,378.1978 379.2955,367.2893 379.2804,356.3808 379.2653,345.4722 379.2503,334.5635 379.2353,323.6546 379.2203,312.7455 379.2055,301.8362 379.1906,290.9267 379.1758,280.0169 379.1611,269.1069 379.1464,258.1965 379.1318,247.2858 379.1172,236.3747 379.1026,225.4633 379.0882,214.5514 379.0737,203.639 379.0593,192.7263 379.045,181.813 379.0307,170.8992 379.0164,159.9848 379.0022,149.0699 378.9881,138.1544 378.974,127.2382 378.9599,116.3214 378.9459,105.404 378.9319,94.4858 378.918,83.5669 378.9042,72.6473" stroke="silver" stroke-opacity="0.5" stroke-width="1" /><polyline fill="none" points="278.9305,727.9247 278.8299,717.0039 278.7296,706.0839 278.6295,695.1645 278.5298,684.2459 278.4304,673.328 278.3313,662.4107 278.2325,651.494 278.134,640.5779 278.0358,629.6624 277.9378,618.7474 277.8402,607.833 277.7429,596.919 277.6459,586.0055 277.5492,575.0924 277.4528,564.1797 277.3567,553.2675 277.2608,542.3556 277.1653,531.444 277.0701,520.5327 276.9752,509.6217 276.8806,498.711 276.7862,487.8005 276.6922,476.8902 276.5985,465.9801 276.505,455.0701 276.4119,444.1602 276.319,433.2505 276.2265,422.3408 276.1342,411.4312 276.0423,400.5216 275.9506,389.612 275.8592,378.7024 275.7681,367.7927 275.6774,356.8829 275.5869,345.973 275.4967,335.063 275.4068,324.1528 275.3172,313.2425 275.2278,302.3319 275.1388,291.4211 275.0501,280.51 274.9617,269.5987 274.8735,258.687 274.7857,247.775 274.6981,236.8626 274.6108,225.9498 274.5239,215.0366 274.4372,204.123 274.3508,193.2089 274.2647,182.2943 274.1789,171.3792 274.0934,160.4635 274.0082,149.5472 273.9232,138.6304 273.8386,127.7129 273.7542,116.7948 273.6702,105.8759 273.5864,94.9564 273.5029,84.0362 273.4197,73.1152" stroke="silver" stroke-opacity="0.5" stroke-width="1" /><polyline fill="none" points="178.0205,729.244 177.8359,718.3204 177.6519,707.3976 177.4685,696.4754 177.2856,685.554 177.1032,674.6333 176.9214,663.7131 176.7402,652.7936 176.5595,641.8747 176.3794,630.9563 176.1998,620.0385 176.0208,609.1212 175.8423,598.2043 175.6643,587.2879 175.487,576.3719 175.3101,565.4564 175.1338,554.5412 174.9581,543.6264 174.7829,532.7118 174.6082,521.7976 174.4341,510.8837 174.2606,499.97 174.0875,489.0565 173.9151,478.1432 173.7431,467.2301 173.5718,456.3172 173.4009,445.4043 173.2306,434.4915 173.0609,423.5788 172.8916,412.6662 172.723,401.7536 172.5548,390.8409 172.3873,379.9282 172.2202,369.0154 172.0537,358.1026 171.8877,347.1896 171.7223,336.2765 171.5574,325.3633 171.393,314.4498 171.2292,303.5361 171.0659,292.6222 170.9032,281.708 170.741,270.7935 170.5793,259.8786 170.4182,248.9635 170.2576,238.0479 170.0975,227.1319 169.938,216.2156 169.779,205.2987 169.6206,194.3814 169.4626,183.4636 169.3052,172.5452 169.1484,161.6263 168.9921,150.7068 168.8363,139.7867 168.681,128.866 168.5263,117.9446 168.3721,107.0225 168.2185,96.0997 168.0653,85.1762 167.9127,74.2519" stroke="silver" stroke-opacity="0.5" stroke-width="1" /><polyline fill="none" points="77.0773,731.3405 76.8087,720.4125 76.5409,709.4852 76.2738,698.5587 76.0076,687.6328 75.7422,676.7076 75.4776,665.783 75.2138,654.8589 74.9508,643.9355 74.6886,633.0126 74.4272,622.0902 74.1666,611.1683 73.9068,600.2469 73.6478,589.3259 73.3896,578.4053 73.1322,567.4852 72.8756,556.5653 72.6198,545.6458 72.3647,534.7267 72.1105,523.8078 71.8571,512.8892 71.6045,501.9707 71.3526,491.0526 71.1016,480.1345 70.8513,469.2167 70.6019,458.299 70.3532,447.3813 70.1053,436.4638 69.8582,425.5463 69.6119,414.6288 69.3664,403.7113 69.1216,392.7938 68.8777,381.8763 68.6345,370.9587 68.3922,360.0409 68.1506,349.123 67.9098,338.205 67.6697,327.2868 67.4305,316.3684 67.1921,305.4498 66.9544,294.5309 66.7175,283.6117 66.4814,272.6922 66.2461,261.7723 66.0115,250.8521 65.7777,239.9315 65.5447,229.0105 65.3125,218.0891 65.0811,207.1672 64.8505,196.2448 64.6206,185.3218 64.3915,174.3984 64.1632,163.4743 63.9356,152.5497 63.7089,141.6244 63.4829,130.6985 63.2576,119.7719 63.0332,108.8446 62.8095,97.9166 62.5866,86.9879 62.3645,76.0583" stroke="silver" stroke-opacity="0.5" stroke-width="1" /><polyline fill="none" points="723.9924,687.6328 713.8626,687.3902 703.7334,687.1553 693.6045,686.9282 683.4762,686.7087 673.3482,686.497 663.2207,686.293 653.0936,686.0967 642.9668,685.9081 632.8404,685.7272 622.7144,685.554 612.5887,685.3886 602.4634,685.2308 592.3383,685.0807 582.2135,684.9384 572.089,684.8037 561.9648,684.6768 551.8408,684.5575 541.7171,684.4459 531.5935,684.3421 521.4702,684.2459 511.347,684.1575 501.224,684.0767 491.1012,684.0036 480.9785,683.9382 470.8559,683.8805 460.7334,683.8305 450.6111,683.7882 440.4888,683.7536 430.3665,683.7267 420.2443,683.7075 410.1221,683.6959 400.0,683.6921 389.8779,683.6959 379.7557,683.7075 369.6335,683.7267 359.5112,683.7536 349.3889,683.7882 339.2666,683.8305 329.1441,683.8805 319.0215,683.9382 308.8988,684.0036 298.776,684.0767 288.653,684.1575 278.5298,684.2459 268.4065,684.3421 258.2829,684.4459 248.1592,684.5575 238.0352,684.6768 227.911,684.8037 217.7865,684.9384 207.6617,685.0807 197.5366,685.2308 187.4113,685.3886 177.2856,685.554 167.1596,685.7272 157.0332,685.9081 146.9064,686.0967 136.7793,686.293 126.6518,686.497 116.5238,686.7087 106.3955,686.9282 96.2666,687.1553 86.1374,687.3902 76.0076,687.6328" stroke="silver" stroke-opacity="0.5" stroke-width="1" /><polyline fill="none" points="726.0932,600.2469 715.8976,600.0085 705.7026,599.7777 695.508,599.5545 685.3138,599.3389 675.1201,599.1309 664.9268,598.9304 654.734,598.7375 644.5415,598.5522 634.3494,598.3745 624.1577,598.2043 613.9664,598.0417 603.7753,597.8867 593.5846,597.7393 583.3942,597.5994 573.204,597.4671 563.0142,597.3423 552.8246,597.2251 542.6352,597.1155 532.446,597.0135 522.2571,596.919 512.0683,596.8321 501.8797,596.7527 491.6913,596.6809 481.503,596.6166 471.3149,596.5599 461.1268,596.5108 450.9389,596.4693 440.751,596.4352 430.5632,596.4088 420.3754,596.3899 410.1877,596.3786 400.0,596.3748 389.8123,596.3786 379.6246,596.3899 369.4368,596.4088 359.249,596.4352 349.0611,596.4693 338.8732,596.5108 328.6851,596.5599 318.497,596.6166 308.3087,596.6809 298.1203,596.7527 287.9317,596.8321 277.7429,596.919 267.554,597.0135 257.3648,597.1155 247.1754,597.2251 236.9858,597.3423 226.796,597.4671 216.6058,597.5994 206.4154,597.7393 196.2247,597.8867 186.0336,598.0417 175.8423,598.2043 165.6506,598.3745 155.4585,598.5522 145.266,598.7375 135.0732,598.9304 124.8799,599.1309 114.6862,599.3389 104.492,599.5545 94.2974,599.7777 84.1024,600.0085 73.9068,600.2469" stroke="silver" stroke-opacity="0.5" stroke-width="1" /><polyline fill="none" points="728.1429,512.8892 717.8831,512.6551 707.6238,512.4285 697.365,512.2094 687.1067,511.9977 676.8489,511.7934 666.5915,511.5966 656.3345,511.4072 646.0779,511.2253 635.8217,511.0507 625.5659,510.8837 615.3104,510.724 605.0553,510.5718 594.8005,510.4271 584.5461,510.2897 574.2919,510.1598 564.038,510.0374 553.7843,509.9223 543.5309,509.8147 533.2778,509.7145 523.0248,509.6217 512.7721,509.5364 502.5195,509.4584 492.2671,509.3879 482.0148,509.3249 471.7627,509.2692 461.5106,509.221 451.2587,509.1802 441.0069,509.1468 430.7551,509.1208 420.5034,509.1022 410.2517,509.0911 400.0,509.0874 389.7483,509.0911 379.4966,509.1022 369.2449,509.1208 358.9931,509.1468 348.7413,509.1802 338.4894,509.221 328.2373,509.2692 317.9852,509.3249 307.7329,509.3879 297.4805,509.4584 287.2279,509.5364 276.9752,509.6217 266.7222,509.7145 256.4691,509.8147 246.2157,509.9223 235.962,510.0374 225.7081,510.1598 215.4539,510.2897 205.1995,510.4271 194.9447,510.5718 184.6896,510.724 174.4341,510.8837 164.1783,511.0507 153.9221,511.2253 143.6655,511.4072 133.4085,511.5966 123.1511,511.7934 112.8933,511.9977 102.635,512.2094 92.3762,512.4285 82.1169,512.6551 71.8571,512.8892" stroke="silver" stroke-opacity="0.5" stroke-width="1" /><polyline fill="none" points="730.1418,425.5463 719.8194,425.3167 709.4975,425.0944 699.1761,424.8794 688.8552,424.6717 678.5348,424.4713 668.2148,424.2782 657.8953,424.0924 647.5762,423.9139 637.2575,423.7427 626.9391,423.5788 616.6212,423.4222 606.3036,423.2729 595.9863,423.1309 585.6694,422.9962 575.3528,422.8687 565.0364,422.7486 554.7203,422.6357 544.4045,422.5301 534.0889,422.4318 523.7735,422.3408 513.4584,422.2571 503.1434,422.1806 492.8286,422.1115 482.5139,422.0496 472.1994,421.995 461.8849,421.9477 451.5706,421.9076 441.2564,421.8749 430.9422,421.8494 420.6281,421.8312 410.3141,421.8203 400.0,421.8167 389.6859,421.8203 379.3719,421.8312 369.0578,421.8494 358.7436,421.8749 348.4294,421.9076 338.1151,421.9477 327.8006,421.995 317.4861,422.0496 307.1714,422.1115 296.8566,422.1806 286.5416,422.2571 276.2265,422.3408 265.9111,422.4318 255.5955,422.5301 245.2797,422.6357 234.9636,422.7486 224.6472,422.8687 214.3306,422.9962 204.0137,423.1309 193.6964,423.2729 183.3788,423.4222 173.0609,423.5788 162.7425,423.7427 152.4238,423.9139 142.1047,424.0924 131.7852,424.2782 121.4652,424.4713 111.1448,424.6717 100.8239,424.8794 90.5025,425.0944 80.1806,425.3167 69.8582,425.5463" stroke="silver" stroke-opacity="0.5" stroke-width="1" /><polyline fill="none" points="732.0902,338.205 721.7068,337.98 711.3238,337.7621 700.9414,337.5513 690.5595,337.3477 680.1781,337.1513 669.7972,336.9621 659.4167,336.7799 649.0366,336.605 638.657,336.4372 628.2777,336.2765 617.8988,336.123 607.5203,335.9767 597.1422,335.8375 586.7644,335.7054 576.3868,335.5805 566.0096,335.4627 555.6327,335.3521 545.256,335.2486 534.8795,335.1522 524.5033,335.063 514.1273,334.9809 503.7515,334.906 493.3759,334.8382 483.0004,334.7776 472.625,334.724 462.2498,334.6777 451.8747,334.6384 441.4996,334.6063 431.1247,334.5813 420.7497,334.5635 410.3749,334.5528 400.0,334.5492 389.6251,334.5528 379.2503,334.5635 368.8753,334.5813 358.5004,334.6063 348.1253,334.6384 337.7502,334.6777 327.375,334.724 316.9996,334.7776 306.6241,334.8382 296.2485,334.906 285.8727,334.9809 275.4967,335.063 265.1205,335.1522 254.744,335.2486 244.3673,335.3521 233.9904,335.4627 223.6132,335.5805 213.2356,335.7054 202.8578,335.8375 192.4797,335.9767 182.1012,336.123 171.7223,336.2765 161.343,336.4372 150.9634,336.605 140.5833,336.7799 130.2028,336.9621 119.8219,337.1513 109.4405,337.3477 99.0586,337.5513 88.6762,337.7621 78.2932,337.98 67.9098,338.205" stroke="silver" stroke-opacity="0.5" stroke-width="1" /><polyline fill="none" points="733.9885,250.8521 723.5456,250.6317 713.1032,250.4183 702.6613,250.2119 692.22,250.0125 681.7791,249.8202 671.3388,249.6348 660.8989,249.4565 650.4594,249.2851 640.0204,249.1208 629.5818,248.9635 619.1436,248.8131 608.7057,248.6698 598.2683,248.5334 587.8311,248.4041 577.3943,248.2818 566.9578,248.1664 556.5215,248.0581 546.0855,247.9567 535.6498,247.8624 525.2143,247.775 514.7791,247.6946 504.344,247.6212 493.9091,247.5548 483.4743,247.4954 473.0397,247.443 462.6052,247.3976 452.1709,247.3592 441.7366,247.3277 431.3024,247.3033 420.8682,247.2858 410.4341,247.2753 400.0,247.2718 389.5659,247.2753 379.1318,247.2858 368.6976,247.3033 358.2634,247.3277 347.8291,247.3592 337.3948,247.3976 326.9603,247.443 316.5257,247.4954 306.0909,247.5548 295.656,247.6212 285.2209,247.6946 274.7857,247.775 264.3502,247.8624 253.9145,247.9567 243.4785,248.0581 233.0422,248.1664 222.6057,248.2818 212.1689,248.4041 201.7317,248.5334 191.2943,248.6698 180.8564,248.8131 170.4182,248.9635 159.9796,249.1208 149.5406,249.2851 139.1011,249.4565 128.6612,249.6348 118.2209,249.8202 107.78,250.0125 97.3387,250.2119 86.8968,250.4183 76.4544,250.6317 66.0115,250.8521" stroke="silver" stroke-opacity="0.5" stroke-width="1" /><polyline fill="none" points="735.8368,163.4743 725.336,163.2587 714.8357,163.0499 704.336,162.8479 693.8367,162.6528 683.338,162.4646 672.8398,162.2832 662.3421,162.1087 651.8448,161.9411 641.348,161.7803 630.8516,161.6263 620.3556,161.4792 609.86,161.339 599.3647,161.2056 588.8698,161.079 578.3752,160.9593 567.881,160.8465 557.387,160.7405 546.8933,160.6413 536.3998,160.549 525.9066,160.4635 515.4136,160.3848 504.9208,160.313 494.4282,160.2481 483.9358,160.19 473.4435,160.1387 462.9513,160.0942 452.4593,160.0566 441.9673,160.0258 431.4754,160.0019 420.9836,159.9848 410.4918,159.9746 400.0,159.9711 389.5082,159.9746 379.0164,159.9848 368.5246,160.0019 358.0327,160.0258 347.5407,160.0566 337.0487,160.0942 326.5565,160.1387 316.0642,160.19 305.5718,160.2481 295.0792,160.313 284.5864,160.3848 274.0934,160.4635 263.6002,160.549 253.1067,160.6413 242.613,160.7405 232.119,160.8465 221.6248,160.9593 211.1302,161.079 200.6353,161.2056 190.14,161.339 179.6444,161.4792 169.1484,161.6263 158.652,161.7803 148.1552,161.9411 137.6579,162.1087 127.1602,162.2832 116.662,162.4646 106.1633,162.6528 95.664,162.8479 85.1643,163.0499 74.664,163.2587 64.1632,163.4743" stroke="silver" stroke-opacity="0.5" stroke-width="1" /><polyline fill="none" points="737.6355,76.0583 727.0783,75.8475 716.5216,75.6434 705.9656,75.446 695.41,75.2553 684.855,75.0713 674.3005,74.894 663.7465,74.7234 653.193,74.5595 642.6399,74.4024 632.0873,74.2519 621.535,74.1081 610.9832,73.971 600.4317,73.8406 589.8806,73.7169 579.3298,73.5999 568.7793,73.4895 558.2292,73.3859 547.6793,73.289 537.1297,73.1987 526.5803,73.1152 516.0311,73.0383 505.4822,72.9681 494.9335,72.9046 484.3849,72.8478 473.8364,72.7976 463.2881,72.7542 452.7399,72.7174 442.1918,72.6874 431.6438,72.664 421.0958,72.6473 410.5479,72.6372 400.0,72.6339 389.4521,72.6372 378.9042,72.6473 368.3562,72.664 357.8082,72.6874 347.2601,72.7174 336.7119,72.7542 326.1636,72.7976 315.6151,72.8478 305.0665,72.9046 294.5178,72.9681 283.9689,73.0383 273.4197,73.1152 262.8703,73.1987 252.3207,73.289 241.7708,73.3859 231.2207,73.4895 220.6702,73.5999 210.1194,73.7169 199.5683,73.8406 189.0168,73.971 178.465,74.1081 167.9127,74.2519 157.3601,74.4024 146.807,74.5595 136.2535,74.7234 125.6995,74.894 115.145,75.0713 104.59,75.2553 94.0344,75.446 83.4784,75.6434 72.9217,75.8475 62.3645,76.0583" stroke="silver" stroke-opacity="0.5" stroke-width="1" /><circle cx="725.37" cy="630.5659" fill="black" r="0.738" stroke="none" /><circle cx="723.3162" cy="394.0246" fill="black" r="0.738" stroke="none" /><circle cx="717.6643" cy="284.6795" fill="black" r="0.738" stroke="none" /><circle cx="717.1198" cy="298.9117" fill="black" r="0.738" stroke="none" /><circle cx="716.7112" cy="318.5638" fill="black" r="0.936" stroke="none" /><circle cx="713.6757" cy="324.5298" fill="black" r="0.738" stroke="none" /><circle cx="716.4145" cy="163.955" fill="black" r="0.738" stroke="none" /><circle cx="712.6285" cy="219.7339" fill="black" r="0.738" stroke="none" /><circle cx="700.2431" cy="687.3385" fill="black" r="0.738" stroke="none" /><circle cx="710.4789" cy="192.6847" fill="black" r="0.738" stroke="none" /><circle cx="702.5929" cy="474.7494" fill="black" r="0.738" stroke="none" /><circle cx="698.3586" cy="577.1555" fill="black" r="0.738" stroke="none" /><circle cx="693.2463" cy="710.4418" fill="black" r="0.738" stroke="none" /><circle cx="701.9721" cy="246.9654" fill="black" r="0.738" stroke="none" /><circle cx="699.0942" cy="367.6551" fill="black" r="0.738" stroke="none" /><circle cx="701.6932" cy="173.8116" fill="black" r="0.738" stroke="none" /><circle cx="694.0512" cy="477.8043" fill="black" r="0.738" stroke="none" /><circle cx="690.3903" cy="535.9172" fill="black" r="0.738" stroke="none" /><circle cx="683.3724" cy="578.6756" fill="black" r="0.738" stroke="none" /><circle cx="686.3078" cy="267.0273" fill="black" r="0.738" stroke="none" /><circle cx="674.7939" cy="528.7889" fill="black" r="0.738" stroke="none" /><circle cx="675.1092" cy="102.4476" fill="black" r="0.738" stroke="none" /><circle cx="672.7633" cy="81.0765" fill="black" r="0.936" stroke="none" /><circle cx="664.8366" cy="451.031" fill="black" r="0.738" stroke="none" /><circle cx="657.1876" cy="422.0712" fill="black" r="0.936" stroke="none" /><circle cx="658.5539" cy="314.3181" fill="black" r="0.936" stroke="none" /><circle cx="651.6151" cy="635.1165" fill="black" r="0.738" stroke="none" /><circle cx="648.0135" cy="312.8325" fill="black" r="0.738" stroke="none" /><circle cx="641.9614" cy="647.2617" fill="black" r="0.738" stroke="none" /><circle cx="640.4129" cy="196.0151" fill="black" r="0.738" stroke="none" /><circle cx="631.8505" cy="308.9971" fill="black" r="0.738" stroke="none" /><circle cx="623.8316" cy="598.199" fill="black" r="0.936" stroke="none" /><circle cx="619.7247" cy="615.2547" fill="black" r="0.738" stroke="none" /><circle cx="608.9357" cy="716.618" fill="black" r="0.738" stroke="none" /><circle cx="610.3178" cy="470.8303" fill="black" r="0.738" stroke="none" /><circle cx="610.3822" cy="333.2222" fill="black" r="0.738" stroke="none" /><circle cx="610.1371" cy="210.3475" fill="black" r="0.738" stroke="none" /><circle cx="607.0796" cy="239.0415" fill="black" r="0.738" stroke="none" /><circle cx="602.4938" cy="557.255" fill="black" r="0.738" stroke="none" /><circle cx="598.2739" cy="287.1304" fill="black" r="0.738" stroke="none" /><circle cx="580.991" cy="167.2777" fill="black" r="0.738" stroke="none" /><circle cx="579.0702" cy="158.8707" fill="black" r="0.738" stroke="none" /><circle cx="571.9971" cy="509.9572" fill="black" r="0.738" stroke="none" /><circle cx="567.8074" cy="625.2604" fill="black" r="0.738" stroke="none" /><circle cx="570.5886" cy="356.2912" fill="black" r="0.738" stroke="none" /><circle cx="571.6744" cy="151.5401" fill="black" r="0.738" stroke="none" /><circle cx="566.7153" cy="434.7273" fill="black" r="0.738" stroke="none" /><circle cx="563.5167" cy="519.6351" fill="black" r="0.738" stroke="none" /><circle cx="559.8269" cy="598.0035" fill="black" r="0.738" stroke="none" /><circle cx="551.324" cy="607.6005" fill="black" r="0.738" stroke="none" /><circle cx="547.9796" cy="188.4234" fill="black" r="0.738" stroke="none" /><circle cx="540.4808" cy="671.0674" fill="black" r="0.738" stroke="none" /><circle cx="539.7603" cy="509.5151" fill="black" r="0.738" stroke="none" /><circle cx="529.3213" cy="235.7603" fill="black" r="0.738" stroke="none" /><circle cx="525.9667" cy="152.7785" fill="black" r="0.738" stroke="none" /><circle cx="525.27" cy="230.4016" fill="black" r="0.738" stroke="none" /><circle cx="515.1503" cy="353.1437" fill="black" r="0.738" stroke="none" /><circle cx="514.352" cy="445.0446" fill="black" r="0.738" stroke="none" /><circle cx="504.9502" cy="468.8885" fill="black" r="0.738" stroke="none" /><circle cx="503.7569" cy="222.8237" fill="black" r="0.738" stroke="none" /><circle cx="494.8857" cy="384.5959" fill="black" r="0.738" stroke="none" /><circle cx="489.1156" cy="435.5288" fill="black" r="0.738" stroke="none" /><circle cx="483.4907" cy="336.1767" fill="black" r="0.738" stroke="none" /><circle cx="479.0625" cy="581.586" fill="black" r="0.738" stroke="none" /><circle cx="474.2959" cy="557.4654" fill="black" r="0.738" stroke="none" /><circle cx="472.5802" cy="694.3712" fill="black" r="0.738" stroke="none" /><circle cx="467.5799" cy="96.3577" fill="black" r="0.738" stroke="none" /><circle cx="457.9776" cy="257.1561" fill="black" r="0.738" stroke="none" /><circle cx="456.8655" cy="501.7828" fill="black" r="0.936" stroke="none" /><circle cx="449.4996" cy="139.7882" fill="black" r="0.738" stroke="none" /><circle cx="447.5894" cy="244.2021" fill="black" r="0.738" stroke="none" /><circle cx="443.7818" cy="539.8784" fill="black" r="0.738" stroke="none" /><circle cx="441.3487" cy="641.1399" fill="black" r="0.738" stroke="none" /><circle cx="439.834" cy="305.1033" fill="black" r="0.936" stroke="none" /><circle cx="435.0118" cy="672.4718" fill="black" r="0.738" stroke="none" /><circle cx="435.406" cy="204.2759" fill="black" r="0.738" stroke="none" /><circle cx="432.7842" cy="93.3694" fill="black" r="0.738" stroke="none" /><circle cx="421.5352" cy="365.5452" fill="black" r="0.936" stroke="none" /><circle cx="396.6473" cy="182.1488" fill="black" r="0.936" stroke="none" /><circle cx="391.7908" cy="348.6891" fill="black" r="0.738" stroke="none" /><circle cx="391.1744" cy="286.6385" fill="black" r="0.738" stroke="none" /><circle cx="385.7332" cy="512.5857" fill="black" r="0.738" stroke="none" /><circle cx="375.2474" cy="564.2723" fill="black" r="0.738" stroke="none" /><circle cx="371.5416" cy="667.1291" fill="black" r="0.738" stroke="none" /><circle cx="364.5352" cy="623.3982" fill="black" r="0.738" stroke="none" /><circle cx="364.4548" cy="623.7477" fill="black" r="0.738" stroke="none" /><circle cx="361.9192" cy="529.7368" fill="black" r="0.738" stroke="none" /><circle cx="357.7998" cy="102.4749" fill="black" r="0.936" stroke="none" /><circle cx="347.7525" cy="224.4014" fill="black" r="0.738" stroke="none" /><circle cx="348.1275" cy="429.8503" fill="black" r="0.738" stroke="none" /><circle cx="346.951" cy="512.9398" fill="black" r="0.936" stroke="none" /><circle cx="340.5375" cy="261.5261" fill="black" r="0.738" stroke="none" /><circle cx="303.595" cy="491.8711" fill="black" r="0.738" stroke="none" /><circle cx="299.1497" cy="99.0609" fill="black" r="0.738" stroke="none" /><circle cx="299.5178" cy="388.9094" fill="black" r="0.738" stroke="none" /><circle cx="296.893" cy="507.6297" fill="black" r="0.738" stroke="none" /><circle cx="297.9249" cy="646.7018" fill="black" r="0.738" stroke="none" /><circle cx="294.564" cy="447.4208" fill="black" r="0.738" stroke="none" /><circle cx="294.0882" cy="381.4413" fill="black" r="0.738" stroke="none" /><circle cx="291.7073" cy="600.1197" fill="black" r="0.738" stroke="none" /><circle cx="290.1682" cy="710.6141" fill="black" r="0.738" stroke="none" /><circle cx="272.7664" cy="245.8707" fill="black" r="0.738" stroke="none" /><circle cx="272.1475" cy="380.2177" fill="black" r="0.738" stroke="none" /><circle cx="267.3819" cy="181.3021" fill="black" r="0.738" stroke="none" /><circle cx="264.5368" cy="686.128" fill="black" r="0.738" stroke="none" /><circle cx="244.9682" cy="246.7335" fill="black" r="0.738" stroke="none" /><circle cx="245.9962" cy="512.3692" fill="black" r="0.738" stroke="none" /><circle cx="240.6032" cy="135.6913" fill="black" r="0.738" stroke="none" /><circle cx="246.0472" cy="691.0468" fill="black" r="0.738" stroke="none" /><circle cx="237.6168" cy="97.3681" fill="black" r="0.738" stroke="none" /><circle cx="242.1296" cy="612.1284" fill="black" r="0.738" stroke="none" /><circle cx="229.584" cy="94.9152" fill="black" r="1.476" stroke="none" /><circle cx="221.5002" cy="339.4467" fill="black" r="0.738" stroke="none" /><circle cx="217.7218" cy="539.686" fill="black" r="0.738" stroke="none" /><circle cx="209.8271" cy="164.5012" fill="black" r="0.738" stroke="none" /><circle cx="210.8871" cy="366.7286" fill="black" r="0.738" stroke="none" /><circle cx="210.5452" cy="480.4933" fill="black" r="0.738" stroke="none" /><circle cx="206.1207" cy="656.9691" fill="black" r="0.738" stroke="none" /><circle cx="201.6743" cy="510.6506" fill="black" r="0.936" stroke="none" /><circle cx="198.2394" cy="476.645" fill="black" r="0.738" stroke="none" /><circle cx="189.5343" cy="172.7911" fill="black" r="0.738" stroke="none" /><circle cx="185.3701" cy="679.3916" fill="black" r="0.738" stroke="none" /><circle cx="175.6977" cy="143.3603" fill="black" r="0.738" stroke="none" /><circle cx="178.2303" cy="405.075" fill="black" r="0.738" stroke="none" /><circle cx="169.2922" cy="274.3085" fill="black" r="0.738" stroke="none" /><circle cx="166.8616" cy="125.2216" fill="black" r="0.738" stroke="none" /><circle cx="170.1208" cy="487.7226" fill="black" r="0.738" stroke="none" /><circle cx="157.5264" cy="501.2063" fill="black" r="0.738" stroke="none" /><circle cx="149.6594" cy="95.6715" fill="black" r="0.738" stroke="none" /><circle cx="151.6019" cy="304.5416" fill="black" r="0.738" stroke="none" /><circle cx="156.2527" cy="633.8368" fill="black" r="0.738" stroke="none" /><circle cx="155.9274" cy="633.8427" fill="black" r="0.738" stroke="none" /><circle cx="150.1669" cy="630.2775" fill="black" r="0.738" stroke="none" /><circle cx="140.5376" cy="260.4393" fill="black" r="0.738" stroke="none" /><circle cx="137.6989" cy="449.9367" fill="black" r="0.738" stroke="none" /><circle cx="139.0948" cy="578.6703" fill="black" r="0.738" stroke="none" /><circle cx="136.9712" cy="522.1871" fill="black" r="0.738" stroke="none" /><circle cx="131.9305" cy="283.9972" fill="black" r="0.738" stroke="none" /><circle cx="120.0092" cy="209.5084" fill="black" r="0.738" stroke="none" /><circle cx="106.8678" cy="263.6602" fill="black" r="0.738" stroke="none" /><circle cx="106.2395" cy="296.3486" fill="black" r="0.738" stroke="none" /><circle cx="105.4475" cy="400.0626" fill="black" r="0.738" stroke="none" /><circle cx="102.3304" cy="552.0605" fill="black" r="0.936" stroke="none" /><circle cx="102.4436" cy="602.92" fill="black" r="0.738" stroke="none" /><circle cx="90.1847" cy="354.5063" fill="black" r="0.738" stroke="none" /><circle cx="93.2618" cy="589.9242" fill="black" r="0.738" stroke="none" /><circle cx="79.7681" cy="550.1126" fill="black" r="0.738" stroke="none" /><circle cx="69.6112" cy="79.3242" fill="black" r="0.738" stroke="none" /><circle cx="76.524" cy="424.3486" fill="black" r="0.738" stroke="none" /><circle cx="13.77" cy="786.23" fill="black" r="4.59" stroke="none" /><circle cx="13.77" cy="786.23" fill="black" r="4.59" stroke="none" /><text fill="black" font-family="monospace" font-size="12" x="10.77" y="775.64">1</text><circle cx="37.77" cy="786.23" fill="black" r="3.654" stroke="none" /><circle cx="37.77" cy="786.23" fill="black" r="3.654" stroke="none" /><text fill="black" font-family="monospace" font-size="12" x="34.769999999999996" y="775.64">2</text><circle cx="61.77" cy="786.23" fill="black" r="2.916" stroke="none" /><circle cx="61.77" cy="786.23" fill="black" r="2.916" stroke="none" /><text fill="black" font-family="monospace" font-size="12" x="58.769999999999996" y="775.64">3</text><circle cx="85.77" cy="786.23" fill="black" r="2.322" stroke="none" /><circle cx="85.77" cy="786.23" fill="black" r="2.322" stroke="none" /><text fill="black" font-family="monospace" font-size="12" x="82.77" y="775.64">4</text><circle cx="109.77" cy="786.23" fill="black" r="1.854" stroke="none" /><circle cx="109.77" cy="786.23" fill="black" r="1.854" stroke="none" /><text fill="black" font-family="monospace" font-size="12" x="106.77" y="775.64">5</text><circle cx="133.77" cy="786.23" fill="black" r="1.476" stroke="none" /><circle cx="133.77" cy="786.23" fill="black" r="1.476" stroke="none" /><text fill="black" font-family="monospace" font-size="12" x="130.77" y="775.64">6</text><circle cx="157.77" cy="786.23" fill="black" r="1.17" stroke="none" /><circle cx="157.77" cy="786.23" fill="black" r="1.17" stroke="none" /><text fill="black" font-family="monospace" font-size="12" x="154.77" y="775.64">7</text><circle cx="181.77" cy="786.23" fill="black" r="0.936" stroke="none" /><circle cx="181.77" cy="786.23" fill="black" r="0.936" stroke="none" /><text fill="black" font-family="monospace" font-size="12" x="178.77" y="775.64">8</text><circle cx="205.77" cy="786.23" fill="black" r="0.738" stroke="none" /><circle cx="205.77" cy="786.23" fill="black" r="0.738" stroke="none" /><text fill="black" font-family="monospace" font-size="12" x="202.77" y="775.64">9</text><text fill="gray" fill-opacity="0.5" font-family="monospace" font-size="12" x="695.4100424334827" y="75.25529077872562">02h10m</text><text fill="gray" fill-opacity="0.5" font-family="monospace" font-size="12" x="589.8805736541268" y="73.71688212012094">02h15m</text><text fill="gray" fill-opacity="0.5" font-family="monospace" font-size="12" x="484.3848655155238" y="72.8477805413861">02h20m</text><text fill="gray" fill-opacity="0.5" font-family="monospace" font-size="12" x="378.90415862085115" y="72.64726310647052">02h25m</text><text fill="gray" fill-opacity="0.5" font-family="monospace" font-size="12" x="273.41970161626125" y="73.11516305826507">02h30m</text><text fill="gray" fill-opacity="0.5" font-family="monospace" font-size="12" x="167.9127411372217" y="74.25186954001742">02h35m</text><text fill="gray" fill-opacity="0.5" font-family="monospace" font-size="12" x="62.36451175426049" y="76.05832824548338">02h40m</text><text fill="gray" fill-opacity="0.5" font-family="monospace" font-size="12" x="76.00761266269683" y="687.6327966096526">-22°</text><text fill="gray" fill-opacity="0.5" font-family="monospace" font-size="12" x="73.90678912857231" y="600.2468986105309">-21°</text><text fill="gray" fill-opacity="0.5" font-family="monospace" font-size="12" x="71.85710180537615" y="512.8891501128414">-20°</text><text fill="gray" fill-opacity="0.5" font-family="monospace" font-size="12" x="69.85819999837923" y="425.5462805813149">-19°</text><text fill="gray" fill-opacity="0.5" font-family="monospace" font-size="12" x="67.90976392210928" y="338.2050285012752">-18°</text><text fill="gray" fill-opacity="0.5" font-family="monospace" font-size="12" x="66.01150449154056" y="250.85213333648935">-17°</text><text fill="gray" fill-opacity="0.5" font-family="monospace" font-size="12" x="64.16316315295364" y="163.474327488269">-16°</text><text fill="gray" fill-opacity="0.5" font-family="monospace" font-size="12" x="62.36451175426049" y="76.05832824548338">-15°</text><text fill="black" font-family="monospace" font-size="12" x="12" y="48">&gt;&gt; No.273 02h08m 02h40m -22.5°-15.0°</text><a target="_self" xlink:href="hip014.svg"><text fill="black" font-family="monospace" font-size="12" x="12" y="36">&gt; No.14 00h00m 02h40m -22.5°+0.0°</text></a><a target="_self" xlink:href="hip001.svg"><text fill="black" font-family="monospace" font-size="12" x="12" y="24">No.1 00h 24h -90.0°+0.0°</text></a><polyline fill="none" points="737.6355,76.0583 727.0783,75.8475 716.5216,75.6434 705.9656,75.446 695.41,75.2553 684.855,75.0713 674.3005,74.894 663.7465,74.7234 653.193,74.5595 642.6399,74.4024 632.0873,74.2519 621.535,74.1081 610.9832,73.971 600.4317,73.8406 589.8806,73.7169 579.3298,73.5999 568.7793,73.4895 558.2292,73.3859 547.6793,73.289 537.1297,73.1987 526.5803,73.1152 516.0311,73.0383 505.4822,72.9681 494.9335,72.9046 484.3849,72.8478 473.8364,72.7976 463.2881,72.7542 452.7399,72.7174 442.1918,72.6874 431.6438,72.664 421.0958,72.6473 410.5479,72.6372 400.0,72.6339 389.4521,72.6372 378.9042,72.6473 368.3562,72.664 357.8082,72.6874 347.2601,72.7174 336.7119,72.7542 326.1636,72.7976 315.6151,72.8478 305.0665,72.9046 294.5178,72.9681 283.9689,73.0383 273.4197,73.1152 262.8703,73.1987 252.3207,73.289 241.7708,73.3859 231.2207,73.4895 220.6702,73.5999 210.1194,73.7169 199.5683,73.8406 189.0168,73.971 178.465,74.1081 167.9127,74.2519 157.3601,74.4024 146.807,74.5595 136.2535,74.7234 125.6995,74.894 115.145,75.0713 104.59,75.2553 94.0344,75.446 83.4784,75.6434 72.9217,75.8475 62.3645,76.0583" stroke="black" stroke-opacity="0.5" stroke-width="1" /><polyline fill="none" points="722.9227,731.3405 723.1913,720.4125 723.4591,709.4852 723.7262,698.5587 723.9924,687.6328 724.2578,676.7076 724.5224,665.783 724.7862,654.8589 725.0492,643.9355 725.3114,633.0126 725.5728,622.0902 725.8334,611.1683 726.0932,600.2469 726.3522,589.3259 726.6104,578.4053 726.8678,567.4852 727.1244,556.5653 727.3802,545.6458 727.6353,534.7267 727.8895,523.8078 728.1429,512.8892 728.3955,501.9707 728.6474,491.0526 728.8984,480.1345 729.1487,469.2167 729.3981,458.299 729.6468,447.3813 729.8947,436.4638 730.1418,425.5463 730.3881,414.6288 730.6336,403.7113 730.8784,392.7938 731.1223,381.8763 731.3655,370.9587 731.6078,360.0409 731.8494,349.123 732.0902,338.205 732.3303,327.2868 732.5695,316.3684 732.8079,305.4498 733.0456,294.5309 733.2825,283.6117 733.5186,272.6922 733.7539,261.7723 733.9885,250.8521 734.2223,239.9315 734.4553,229.0105 734.6875,218.0891 734.9189,207.1672 735.1495,196.2448 735.3794,185.3218 735.6085,174.3984 735.8368,163.4743 736.0644,152.5497 736.2911,141.6244 736.5171,130.6985 736.7424,119.7719 736.9668,108.8446 737.1905,97.9166 737.4134,86.9879 737.6355,76.0583" stroke="black" stroke-opacity="0.5" stroke-width="1" /><polyline fill="none" points="722.9227,731.3405 712.8264,731.0958 702.7307,730.8589 692.6354,730.6298 682.5405,730.4085 672.446,730.195 662.352,729.9892 652.2583,729.7912 642.165,729.601 632.0721,729.4186 621.9795,729.244 611.8873,729.0771 601.7953,728.918 591.7037,728.7666 581.6124,728.623 571.5213,728.4872 561.4305,728.3592 551.3399,728.2389 541.2496,728.1264 531.1594,728.0217 521.0695,727.9247 510.9797,727.8355 500.8901,727.754 490.8007,727.6803 480.7114,727.6143 470.6222,727.5562 460.5331,727.5057 450.4441,727.4631 440.3552,727.4282 430.2664,727.401 420.1775,727.3816 410.0888,727.37 400.0,727.3661 389.9112,727.37 379.8225,727.3816 369.7336,727.401 359.6448,727.4282 349.5559,727.4631 339.4669,727.5057 329.3778,727.5562 319.2886,727.6143 309.1993,727.6803 299.1099,727.754 289.0203,727.8355 278.9305,727.9247 268.8406,728.0217 258.7504,728.1264 248.6601,728.2389 238.5695,728.3592 228.4787,728.4872 218.3876,728.623 208.2963,728.7666 198.2047,728.918 188.1127,729.0771 178.0205,729.244 167.9279,729.4186 157.835,729.601 147.7417,729.7912 137.648,729.9892 127.554,730.195 117.4595,730.4085 107.3646,730.6298 97.2693,730.8589 87.1736,731.0958 77.0773,731.3405" stroke="black" stroke-opacity="0.5" stroke-width="1" /><polyline fill="none" points="77.0773,731.3405 76.8087,720.4125 76.5409,709.4852 76.2738,698.5587 76.0076,687.6328 75.7422,676.7076 75.4776,665.783 75.2138,654.8589 74.9508,643.9355 74.6886,633.0126 74.4272,622.0902 74.1666,611.1683 73.9068,600.2469 73.6478,589.3259 73.3896,578.4053 73.1322,567.4852 72.8756,556.5653 72.6198,545.6458 72.3647,534.7267 72.1105,523.8078 71.8571,512.8892 71.6045,501.9707 71.3526,491.0526 71.1016,480.1345 70.8513,469.2167 70.6019,458.299 70.3532,447.3813 70.1053,436.4638 69.8582,425.5463 69.6119,414.6288 69.3664,403.7113 69.1216,392.7938 68.8777,381.8763 68.6345,370.9587 68.3922,360.0409 68.1506,349.123 67.9098,338.205 67.6697,327.2868 67.4305,316.3684 67.1921,305.4498 66.9544,294.5309 66.7175,283.6117 66.4814,272.6922 66.2461,261.7723 66.0115,250.8521 65.7777,239.9315 65.5447,229.0105 65.3125,218.0891 65.0811,207.1672 64.8505,196.2448 64.6206,185.3218 64.3915,174.3984 64.1632,163.4743 63.9356,152.5497 63.7089,141.6244 63.4829,130.6985 63.2576,119.7719 63.0332,108.8446 62.8095,97.9166 62.5866,86.9879 62.3645,76.0583" stroke="black" stroke-opacity="0.5" stroke-width="1" /></svg>