<?xml version="1.0" encoding="utf-8" ?>
<svg baseProfile="tiny" height="800" version="1.2" width="800" xmlns="http://www.w3.org/2000/svg" xmlns:ev="http://www.w3.org/2001/xml-events" xmlns:xlink="http://www.w3.org/1999/xlink"><defs /><rect fill="none" height="800" stroke="black" stroke-width="2" width="800" x="0" y="0" /><polyline fill="none" points="712.1257,732.6677 712.4965,721.7434 712.8665,710.8198 713.2358,699.8968 713.6042,688.9746 713.9719,678.0529 714.3388,667.1319 714.7048,656.2115 715.0701,645.2916 715.4346,634.3723 715.7983,623.4534 716.1612,612.5351 716.5234,601.6172 716.8847,590.6997 717.2453,579.7826 717.6051,568.8659 717.9641,557.9496 718.3223,547.0336 718.6798,536.1179 719.0364,525.2025 719.3923,514.2873 719.7474,503.3723 720.1018,492.4575 720.4553,481.5429 720.8081,470.6285 721.1601,459.7141 721.5114,448.7999 721.8618,437.8857 722.2115,426.9716 722.5605,416.0575 722.9086,405.1433 723.256,394.2292 723.6026,383.3149 723.9485,372.4006 724.2936,361.4862 724.6379,350.5716 724.9814,339.6569 725.3242,328.7419 725.6663,317.8268 726.0075,306.9114 726.348,295.9957 726.6878,285.0798 727.0268,274.1635 727.365,263.2469 727.7025,252.3298 728.0392,241.4124 728.3751,230.4946 728.7103,219.5763 729.0448,208.6576 729.3785,197.7383 729.7114,186.8185 730.0436,175.8982 730.375,164.9773 730.7057,154.0557 731.0356,143.1336 731.3648,132.2108 731.6932,121.2872 732.0209,110.363 732.3478,99.4381 732.674,88.5124 732.9994,77.5859" stroke="silver" stroke-opacity="0.5" stroke-width="1" /><polyline fill="none" points="617.5261,729.9407 617.7844,719.0188 618.0421,708.0976 618.2993,697.1771 618.556,686.2574 618.8121,675.3382 619.0676,664.4197 619.3226,653.5019 619.577,642.5845 619.8309,631.6678 620.0843,620.7516 620.3371,609.8358 620.5893,598.9206 620.841,588.0058 621.0922,577.0914 621.3428,566.1774 621.5928,555.2638 621.8424,544.3505 622.0913,533.4376 622.3398,522.5249 622.5877,511.6125 622.835,500.7004 623.0818,489.7885 623.3281,478.8767 623.5738,467.9652 623.819,457.0537 624.0636,446.1424 624.3078,435.2311 624.5513,424.32 624.7944,413.4088 625.0369,402.4977 625.2788,391.5865 625.5203,380.6753 625.7612,369.764 626.0015,358.8527 626.2414,347.9412 626.4807,337.0296 626.7194,326.1177 626.9577,315.2057 627.1954,304.2935 627.4325,293.381 627.6692,282.4683 627.9053,271.5552 628.1409,260.6418 628.3759,249.7281 628.6105,238.8139 628.8445,227.8994 629.0779,216.9844 629.3109,206.069 629.5433,195.1531 629.7752,184.2366 630.0066,173.3197 630.2374,162.4022 630.4677,151.4841 630.6975,140.5653 630.9268,129.646 631.1555,118.7259 631.3838,107.8052 631.6115,96.8837 631.8387,85.9616 632.0653,75.0386" stroke="silver" stroke-opacity="0.5" stroke-width="1" /><polyline fill="none" points="522.9437,728.1885 523.0896,717.2681 523.2353,706.3485 523.3806,695.4296 523.5256,684.5115 523.6703,673.5939 523.8147,662.6771 523.9587,651.7608 524.1025,640.8452 524.2459,629.9301 524.3891,619.0155 524.5319,608.1015 524.6744,597.1879 524.8166,586.2748 524.9585,575.3622 525.1001,564.4499 525.2414,553.5381 525.3824,542.6266 525.523,531.7154 525.6634,520.8045 525.8035,509.894 525.9432,498.9836 526.0827,488.0735 526.2218,477.1636 526.3606,466.2539 526.4992,455.3443 526.6374,444.4349 526.7753,433.5255 526.9129,422.6162 527.0502,411.707 527.1873,400.7978 527.324,389.8886 527.4604,378.9793 527.5965,368.07 527.7323,357.1606 527.8678,346.2511 528.003,335.3415 528.1379,324.4317 528.2725,313.5217 528.4068,302.6115 528.5408,291.701 528.6745,280.7903 528.8079,269.8793 528.941,258.968 529.0738,248.0563 529.2063,237.1443 529.3385,226.2319 529.4704,215.3191 529.602,204.4058 529.7333,193.492 529.8643,182.5777 529.995,171.663 530.1255,160.7476 530.2556,149.8317 530.3854,138.9152 530.515,127.998 530.6442,117.0802 530.7731,106.1618 530.9018,95.2426 531.0301,84.3226 531.1582,73.402" stroke="silver" stroke-opacity="0.5" stroke-width="1" /><polyline fill="none" points="428.371,727.4099 428.4047,716.4902 428.4383,705.5713 428.4718,694.6532 428.5053,683.7357 428.5387,672.8189 428.572,661.9028 428.6052,650.9872 428.6384,640.0723 428.6715,629.158 428.7045,618.2442 428.7375,607.3309 428.7704,596.4181 428.8032,585.5058 428.8359,574.5939 428.8686,563.6824 428.9012,552.7713 428.9337,541.8606 428.9662,530.9502 428.9985,520.0401 429.0309,509.1304 429.0631,498.2208 429.0953,487.3115 429.1274,476.4025 429.1594,465.4935 429.1914,454.5848 429.2233,443.6762 429.2551,432.7677 429.2868,421.8592 429.3185,410.9508 429.3501,400.0425 429.3817,389.1341 429.4132,378.2257 429.4446,367.3173 429.4759,356.4088 429.5072,345.5002 429.5383,334.5914 429.5695,323.6825 429.6005,312.7734 429.6315,301.8641 429.6624,290.9546 429.6933,280.0448 429.7241,269.1347 429.7548,258.2243 429.7854,247.3136 429.816,236.4025 429.8465,225.491 429.8769,214.5791 429.9073,203.6668 429.9376,192.754 429.9678,181.8407 429.998,170.9269 430.0281,160.0125 430.0581,149.0976 430.088,138.182 430.1179,127.2659 430.1477,116.3491 430.1775,105.4316 430.2072,94.5134 430.2368,83.5945 430.2663,72.6748" stroke="silver" stroke-opacity="0.5" stroke-width="1" /><polyline fill="none" points="333.8006,727.6045 333.722,716.6847 333.6436,705.7656 333.5654,694.8473 333.4873,683.9296 333.4094,673.0127 333.3317,662.0963 333.2541,651.1806 333.1767,640.2655 333.0995,629.351 333.0224,618.437 332.9455,607.5235 332.8688,596.6105 332.7922,585.698 332.7158,574.7859 332.6396,563.8743 332.5635,552.963 332.4876,542.0521 332.4119,531.1415 332.3363,520.2312 332.2609,509.3212 332.1857,498.4115 332.1106,487.502 332.0357,476.5927 331.9609,465.6836 331.8864,454.7747 331.8119,443.8658 331.7377,432.9571 331.6636,422.0485 331.5897,411.1399 331.5159,400.2313 331.4423,389.3227 331.3689,378.4141 331.2956,367.5055 331.2225,356.5967 331.1495,345.6879 331.0767,334.7789 331.0041,323.8698 330.9316,312.9605 330.8593,302.0509 330.7872,291.1412 330.7152,280.2312 330.6434,269.3208 330.5717,258.4102 330.5002,247.4993 330.4289,236.5879 330.3577,225.6762 330.2867,214.7641 330.2158,203.8515 330.1451,192.9385 330.0746,182.0249 330.0042,171.1109 329.934,160.1963 329.8639,149.2811 329.794,138.3653 329.7243,127.4489 329.6547,116.5318 329.5853,105.6141 329.516,94.6957 329.4469,83.7765 329.378,72.8566" stroke="silver" stroke-opacity="0.5" stroke-width="1" /><polyline fill="none" points="239.2249,728.7725 239.0341,717.8516 238.8436,706.9315 238.6536,696.0121 238.4639,685.0933 238.2747,674.1753 238.0858,663.2579 237.8974,652.3411 237.7094,641.4249 237.5218,630.5092 237.3346,619.5941 237.1478,608.6795 236.9614,597.7654 236.7754,586.8517 236.5898,575.9385 236.4046,565.0257 236.2199,554.1132 236.0355,543.2012 235.8515,532.2894 235.6679,521.3779 235.4847,510.4667 235.302,499.5558 235.1196,488.6451 234.9376,477.7346 234.756,466.8242 234.5749,455.914 234.3941,445.004 234.2137,434.094 234.0337,423.1841 233.8541,412.2742 233.6749,401.3643 233.4961,390.4545 233.3177,379.5446 233.1397,368.6346 232.9621,357.7245 232.7849,346.8144 232.6081,335.9041 232.4316,324.9936 232.2556,314.0829 232.08,303.1721 231.9047,292.2609 231.7299,281.3496 231.5554,270.4379 231.3813,259.5259 231.2076,248.6135 231.0343,237.7008 230.8614,226.7877 230.6889,215.8741 230.5168,204.9601 230.345,194.0456 230.1737,183.1306 230.0027,172.2151 229.8321,161.2991 229.6619,150.3824 229.4921,139.4652 229.3227,128.5473 229.1537,117.6287 228.985,106.7095 228.8168,95.7896 228.6489,84.8689 228.4814,73.9474" stroke="silver" stroke-opacity="0.5" stroke-width="1" /><polyline fill="none" points="144.6366,730.9144 144.3333,719.9917 144.0306,709.0696 143.7286,698.1483 143.4273,687.2276 143.1266,676.3076 142.8266,665.3882 142.5272,654.4694 142.2284,643.5512 141.9303,632.6335 141.6328,621.7163 141.336,610.7997 141.0398,599.8835 140.7443,588.9677 140.4494,578.0524 140.1551,567.1374 139.8615,556.2228 139.5685,545.3086 139.2762,534.3946 138.9845,523.481 138.6934,512.5676 138.403,501.6545 138.1132,490.7415 137.824,479.8288 137.5355,468.9161 137.2476,458.0037 136.9604,447.0913 136.6737,436.179 136.3877,425.2668 136.1024,414.3546 135.8176,403.4424 135.5335,392.5301 135.25,381.6178 134.9672,370.7055 134.6849,359.793 134.4033,348.8804 134.1224,337.9677 133.842,327.0548 133.5623,316.1416 133.2832,305.2283 133.0047,294.3147 132.7268,283.4007 132.4496,272.4865 132.173,261.572 131.897,250.6571 131.6216,239.7418 131.3468,228.8261 131.0727,217.9099 130.7992,206.9933 130.5263,196.0762 130.254,185.1586 129.9823,174.2404 129.7113,163.3217 129.4408,152.4023 129.171,141.4824 128.9018,130.5618 128.6332,119.6405 128.3652,108.7185 128.0978,97.7958 127.8311,86.8724 127.5649,75.9481" stroke="silver" stroke-opacity="0.5" stroke-width="1" /><polyline fill="none" points="716.667,732.8232 712.1257,732.6677 702.6647,732.3511 693.204,732.0442 683.7435,731.7472 674.2833,731.4598 664.8233,731.1823 655.3634,730.9144 645.9038,730.6564 636.4444,730.4081 626.9851,730.1695 617.5261,729.9407 608.0672,729.7216 598.6085,729.5123 589.1499,729.3127 579.6915,729.1229 570.2332,728.9428 560.7751,728.7725 551.317,728.6118 541.8591,728.461 532.4014,728.3198 522.9437,728.1885 513.4861,728.0668 504.0286,727.9549 494.5712,727.8527 485.1139,727.7602 475.6566,727.6775 466.1994,727.6045 456.7422,727.5413 447.2851,727.4877 437.8281,727.444 428.371,727.4099 418.914,727.3856 409.457,727.371 400.0,727.3661 390.543,727.371 381.086,727.3856 371.629,727.4099 362.1719,727.444 352.7149,727.4877 343.2578,727.5413 333.8006,727.6045 324.3434,727.6775 314.8861,727.7602 305.4288,727.8527 295.9714,727.9549 286.5139,728.0668 277.0563,728.1885 267.5986,728.3198 258.1409,728.461 248.683,728.6118 239.2249,728.7725 229.7668,728.9428 220.3085,729.1229 210.8501,729.3127 201.3915,729.5123 191.9328,729.7216 182.4739,729.9407 173.0149,730.1695 163.5556,730.4081 154.0962,730.6564 144.6366,730.9144 135.1767,731.1823 125.7167,731.4598 116.2565,731.7472 106.796,732.0442 97.3353,732.3511 87.8743,732.6677 83.333,732.8232" stroke="silver" stroke-opacity="0.5" stroke-width="1" /><polyline fill="none" points="719.6544,645.4459 715.0701,645.2916 705.5197,644.9773 695.9696,644.6727 686.4198,644.3778 676.8702,644.0926 667.3208,643.817 657.7716,643.5512 648.2227,643.295 638.6739,643.0485 629.1254,642.8117 619.577,642.5845 610.0289,642.3671 600.4809,642.1593 590.9331,641.9612 581.3854,641.7728 571.8379,641.594 562.2906,641.4249 552.7434,641.2655 543.1963,641.1157 533.6493,640.9756 524.1025,640.8452 514.5557,640.7244 505.0091,640.6133 495.4625,640.5119 485.916,640.4201 476.3696,640.338 466.8233,640.2655 457.277,640.2027 447.7308,640.1496 438.1846,640.1061 428.6384,640.0723 419.0922,640.0482 409.5461,640.0337 400.0,640.0289 390.4539,640.0337 380.9078,640.0482 371.3616,640.0723 361.8154,640.1061 352.2692,640.1496 342.723,640.2027 333.1767,640.2655 323.6304,640.338 314.084,640.4201 304.5375,640.5119 294.9909,640.6133 285.4443,640.7244 275.8975,640.8452 266.3507,640.9756 256.8037,641.1157 247.2566,641.2655 237.7094,641.4249 228.1621,641.594 218.6146,641.7728 209.0669,641.9612 199.5191,642.1593 189.9711,642.3671 180.423,642.5845 170.8746,642.8117 161.3261,643.0485 151.7773,643.295 142.2284,643.5512 132.6792,643.817 123.1298,644.0926 113.5802,644.3778 104.0304,644.6727 94.4803,644.9773 84.9299,645.2916 80.3456,645.4459" stroke="silver" stroke-opacity="0.5" stroke-width="1" /><polyline fill="none" points="722.5906,558.1027 717.9641,557.9496 708.3258,557.6378 698.6878,557.3356 689.0501,557.043 679.4127,556.76 669.7755,556.4866 660.1385,556.2228 650.5017,555.9687 640.8652,555.7241 631.2289,555.4892 621.5928,555.2638 611.9569,555.048 602.3212,554.8419 592.6857,554.6453 583.0504,554.4584 573.4152,554.281 563.7801,554.1132 554.1453,553.9551 544.5105,553.8065 534.8759,553.6675 525.2414,553.5381 515.607,553.4183 505.9727,553.308 496.3385,553.2074 486.7044,553.1163 477.0704,553.0349 467.4365,552.963 457.8026,552.9007 448.1687,552.848 438.5349,552.8049 428.9012,552.7713 419.2674,552.7474 409.6337,552.733 400.0,552.7282 390.3663,552.733 380.7326,552.7474 371.0988,552.7713 361.4651,552.8049 351.8313,552.848 342.1974,552.9007 332.5635,552.963 322.9296,553.0349 313.2956,553.1163 303.6615,553.2074 294.0273,553.308 284.393,553.4183 274.7586,553.5381 265.1241,553.6675 255.4895,553.8065 245.8547,553.9551 236.2199,554.1132 226.5848,554.281 216.9496,554.4584 207.3143,554.6453 197.6788,554.8419 188.0431,555.048 178.4072,555.2638 168.7711,555.4892 159.1348,555.7241 149.4983,555.9687 139.8615,556.2228 130.2245,556.4866 120.5873,556.76 110.9499,557.043 101.3122,557.3356 91.6742,557.6378 82.0359,557.9496 77.4094,558.1027" stroke="silver" stroke-opacity="0.5" stroke-width="1" /><polyline fill="none" points="725.4761,470.7803 720.8081,470.6285 711.0835,470.3193 701.3591,470.0196 691.6351,469.7294 681.9113,469.4488 672.1877,469.1777 662.4645,468.9161 652.7415,468.6641 643.0187,468.4216 633.2961,468.1886 623.5738,467.9652 613.8517,467.7512 604.1298,467.5468 594.4081,467.3519 584.6865,467.1665 574.9652,466.9906 565.244,466.8242 555.5229,466.6674 545.802,466.52 536.0813,466.3822 526.3606,466.2539 516.6401,466.1351 506.9197,466.0258 497.1994,465.926 487.4792,465.8357 477.7591,465.7549 468.0391,465.6836 458.3191,465.6218 448.5991,465.5696 438.8793,465.5268 429.1594,465.4935 419.4396,465.4698 409.7198,465.4555 400.0,465.4508 390.2802,465.4555 380.5604,465.4698 370.8406,465.4935 361.1207,465.5268 351.4009,465.5696 341.6809,465.6218 331.9609,465.6836 322.2409,465.7549 312.5208,465.8357 302.8006,465.926 293.0803,466.0258 283.3599,466.1351 273.6394,466.2539 263.9187,466.3822 254.198,466.52 244.4771,466.6674 234.756,466.8242 225.0348,466.9906 215.3135,467.1665 205.5919,467.3519 195.8702,467.5468 186.1483,467.7512 176.4262,467.9652 166.7039,468.1886 156.9813,468.4216 147.2585,468.6641 137.5355,468.9161 127.8123,469.1777 118.0887,469.4488 108.3649,469.7294 98.6409,470.0196 88.9165,470.3193 79.1919,470.6285 74.5239,470.7803" stroke="silver" stroke-opacity="0.5" stroke-width="1" /><polyline fill="none" points="728.3113,383.4654 723.6026,383.3149 713.7931,383.0085 703.9839,382.7114 694.175,382.4239 684.3664,382.1458 674.558,381.8771 664.75,381.6178 654.9422,381.3681 645.1346,381.1277 635.3273,380.8968 625.5203,380.6753 615.7134,380.4633 605.9068,380.2607 596.1004,380.0675 586.2942,379.8838 576.4881,379.7094 566.6823,379.5446 556.8766,379.3891 547.071,379.2431 537.2656,379.1065 527.4604,378.9793 517.6552,378.8615 507.8502,378.7532 498.0453,378.6543 488.2405,378.5648 478.4358,378.4848 468.6311,378.4141 458.8266,378.3529 449.022,378.3011 439.2176,378.2587 429.4132,378.2257 419.6088,378.2022 409.8044,378.1881 400.0,378.1833 390.1956,378.1881 380.3912,378.2022 370.5868,378.2257 360.7824,378.2587 350.978,378.3011 341.1734,378.3529 331.3689,378.4141 321.5642,378.4848 311.7595,378.5648 301.9547,378.6543 292.1498,378.7532 282.3448,378.8615 272.5396,378.9793 262.7344,379.1065 252.929,379.2431 243.1234,379.3891 233.3177,379.5446 223.5119,379.7094 213.7058,379.8838 203.8996,380.0675 194.0932,380.2607 184.2866,380.4633 174.4797,380.6753 164.6727,380.8968 154.8654,381.1277 145.0578,381.3681 135.25,381.6178 125.442,381.8771 115.6336,382.1458 105.825,382.4239 96.0161,382.7114 86.2069,383.0085 76.3974,383.3149 71.6887,383.4654" stroke="silver" stroke-opacity="0.5" stroke-width="1" /><polyline fill="none" points="731.0968,296.1448 726.348,295.9957 716.4551,295.6921 706.5625,295.3979 696.6703,295.1131 686.7783,294.8376 676.8867,294.5714 666.9953,294.3147 657.1042,294.0672 647.2134,293.8291 637.3228,293.6004 627.4325,293.381 617.5425,293.171 607.6526,292.9703 597.763,292.7789 587.8736,292.5969 577.9843,292.4243 568.0953,292.2609 558.2064,292.107 548.3177,291.9623 538.4292,291.827 528.5408,291.701 518.6525,291.5844 508.7644,291.4771 498.8763,291.3791 488.9884,291.2905 479.1006,291.2112 469.2128,291.1412 459.3251,291.0805 449.4375,291.0292 439.55,290.9872 429.6624,290.9546 419.7749,290.9313 409.8875,290.9173 400.0,290.9126 390.1125,290.9173 380.2251,290.9313 370.3376,290.9546 360.45,290.9872 350.5625,291.0292 340.6749,291.0805 330.7872,291.1412 320.8994,291.2112 311.0116,291.2905 301.1237,291.3791 291.2356,291.4771 281.3475,291.5844 271.4592,291.701 261.5708,291.827 251.6823,291.9623 241.7936,292.107 231.9047,292.2609 222.0157,292.4243 212.1264,292.5969 202.237,292.7789 192.3474,292.9703 182.4575,293.171 172.5675,293.381 162.6772,293.6004 152.7866,293.8291 142.8958,294.0672 133.0047,294.3147 123.1133,294.5714 113.2217,294.8376 103.3297,295.1131 93.4375,295.3979 83.5449,295.6921 73.652,295.9957 68.9032,296.1448" stroke="silver" stroke-opacity="0.5" stroke-width="1" /><polyline fill="none" points="733.8328,208.8051 729.0448,208.6576 719.07,208.357 709.0955,208.0658 699.1213,207.7837 689.1475,207.511 679.174,207.2475 669.2008,206.9933 659.2279,206.7483 649.2553,206.5126 639.283,206.2862 629.3109,206.069 619.339,205.861 609.3674,205.6624 599.3961,205.4729 589.4249,205.2927 579.454,205.1218 569.4832,204.9601 559.5127,204.8077 549.5423,204.6644 539.5721,204.5305 529.602,204.4058 519.6321,204.2903 509.6623,204.1841 499.6926,204.0871 489.723,203.9993 479.7536,203.9208 469.7842,203.8515 459.8149,203.7915 449.8456,203.7407 439.8764,203.6991 429.9073,203.6668 419.9382,203.6437 409.9691,203.6298 400.0,203.6252 390.0309,203.6298 380.0618,203.6437 370.0927,203.6668 360.1236,203.6991 350.1544,203.7407 340.1851,203.7915 330.2158,203.8515 320.2464,203.9208 310.277,203.9993 300.3074,204.0871 290.3377,204.1841 280.3679,204.2903 270.398,204.4058 260.4279,204.5305 250.4577,204.6644 240.4873,204.8077 230.5168,204.9601 220.546,205.1218 210.5751,205.2927 200.6039,205.4729 190.6326,205.6624 180.661,205.861 170.6891,206.069 160.717,206.2862 150.7447,206.5126 140.7721,206.7483 130.7992,206.9933 120.826,207.2475 110.8525,207.511 100.8787,207.7837 90.9045,208.0658 80.93,208.357 70.9552,208.6576 66.1672,208.8051" stroke="silver" stroke-opacity="0.5" stroke-width="1" /><polyline fill="none" points="736.5199,121.4333 731.6932,121.2872 721.6379,120.9899 711.583,120.7017 701.5285,120.4226 691.4742,120.1527 681.4204,119.892 671.3668,119.6405 661.3136,119.3981 651.2606,119.1649 641.2079,118.9408 631.1555,118.7259 621.1034,118.5202 611.0515,118.3236 600.9999,118.1361 590.9485,117.9579 580.8973,117.7887 570.8463,117.6287 560.7955,117.4779 550.7449,117.3362 540.6945,117.2036 530.6442,117.0802 520.5941,116.966 510.5441,116.8609 500.4942,116.7649 490.4445,116.6781 480.3948,116.6004 470.3453,116.5318 460.2958,116.4724 450.2464,116.4222 440.197,116.381 430.1477,116.3491 420.0985,116.3262 410.0492,116.3125 400.0,116.3079 389.9508,116.3125 379.9015,116.3262 369.8523,116.3491 359.803,116.381 349.7536,116.4222 339.7042,116.4724 329.6547,116.5318 319.6052,116.6004 309.5555,116.6781 299.5058,116.7649 289.4559,116.8609 279.4059,116.966 269.3558,117.0802 259.3055,117.2036 249.2551,117.3362 239.2045,117.4779 229.1537,117.6287 219.1027,117.7887 209.0515,117.9579 199.0001,118.1361 188.9485,118.3236 178.8966,118.5202 168.8445,118.7259 158.7921,118.9408 148.7394,119.1649 138.6864,119.3981 128.6332,119.6405 118.5796,119.892 108.5258,120.1527 98.4715,120.4226 88.417,120.7017 78.3621,120.9899 68.3068,121.2872 63.4801,121.4333" stroke="silver" stroke-opacity="0.5" stroke-width="1" /><circle cx="713.1156" cy="714.6776" fill="black" r="0.738" stroke="none" /><circle cx="723.0311" cy="349.0353" fill="black" r="0.738" stroke="none" /><circle cx="716.746" cy="516.9986" fill="black" r="0.738" stroke="none" /><circle cx="711.4188" cy="581.3407" fill="black" r="0.738" stroke="none" /><circle cx="705.6376" cy="681.1874" fill="black" r="0.738" stroke="none" /><circle cx="722.1687" cy="102.7248" fill="black" r="0.738" stroke="none" /><circle cx="713.176" cy="382.6399" fill="black" r="0.738" stroke="none" /><circle cx="698.721" cy="105.1304" fill="black" r="1.476" stroke="none" /><circle cx="679.8171" cy="683.6126" fill="black" r="0.738" stroke="none" /><circle cx="683.0922" cy="452.5316" fill="black" r="0.936" stroke="none" /><circle cx="683.6407" cy="394.0953" fill="black" r="0.738" stroke="none" /><circle cx="668.8599" cy="712.2338" fill="black" r="0.738" stroke="none" /><circle cx="673.7463" cy="191.4643" fill="black" r="0.738" stroke="none" /><circle cx="659.6285" cy="422.1059" fill="black" r="0.738" stroke="none" /><circle cx="657.6161" cy="119.2238" fill="black" r="0.738" stroke="none" /><circle cx="648.7016" cy="455.8963" fill="black" r="0.738" stroke="none" /><circle cx="625.4364" cy="582.1719" fill="black" r="0.738" stroke="none" /><circle cx="634.9007" cy="127.982" fill="black" r="0.738" stroke="none" /><circle cx="633.326" cy="175.3128" fill="black" r="0.738" stroke="none" /><circle cx="611.6815" cy="687.4969" fill="black" r="0.738" stroke="none" /><circle cx="617.0658" cy="111.0989" fill="black" r="0.738" stroke="none" /><circle cx="603.7732" cy="690.9036" fill="black" r="0.738" stroke="none" /><circle cx="609.9768" cy="353.9717" fill="black" r="0.738" stroke="none" /><circle cx="606.0013" cy="320.4461" fill="black" r="0.738" stroke="none" /><circle cx="601.9514" cy="209.626" fill="black" r="0.738" stroke="none" /><circle cx="591.6897" cy="565.9795" fill="black" r="0.738" stroke="none" /><circle cx="586.8575" cy="488.1633" fill="black" r="0.738" stroke="none" /><circle cx="585.1448" cy="391.3006" fill="black" r="0.738" stroke="none" /><circle cx="580.9649" cy="538.0887" fill="black" r="0.738" stroke="none" /><circle cx="573.6663" cy="202.8434" fill="black" r="0.738" stroke="none" /><circle cx="565.4084" cy="676.8609" fill="black" r="0.738" stroke="none" /><circle cx="555.8385" cy="431.4029" fill="black" r="0.738" stroke="none" /><circle cx="556.9197" cy="234.7222" fill="black" r="0.936" stroke="none" /><circle cx="547.801" cy="311.6854" fill="black" r="0.738" stroke="none" /><circle cx="544.0657" cy="457.5031" fill="black" r="0.738" stroke="none" /><circle cx="535.4459" cy="595.2387" fill="black" r="0.738" stroke="none" /><circle cx="541.4499" cy="139.751" fill="black" r="0.738" stroke="none" /><circle cx="529.0288" cy="570.0897" fill="black" r="0.738" stroke="none" /><circle cx="518.7948" cy="582.4438" fill="black" r="0.936" stroke="none" /><circle cx="523.5755" cy="180.321" fill="black" r="0.738" stroke="none" /><circle cx="518.2794" cy="392.6598" fill="black" r="0.738" stroke="none" /><circle cx="513.083" cy="135.841" fill="black" r="0.738" stroke="none" /><circle cx="503.0421" cy="617.7993" fill="black" r="0.738" stroke="none" /><circle cx="498.7493" cy="726.3239" fill="black" r="0.738" stroke="none" /><circle cx="496.8328" cy="692.494" fill="black" r="0.738" stroke="none" /><circle cx="492.9291" cy="220.6151" fill="black" r="0.738" stroke="none" /><circle cx="487.4092" cy="271.8991" fill="black" r="0.738" stroke="none" /><circle cx="483.5523" cy="308.2661" fill="black" r="0.738" stroke="none" /><circle cx="478.1694" cy="180.335" fill="black" r="0.738" stroke="none" /><circle cx="475.1291" cy="574.6694" fill="black" r="0.738" stroke="none" /><circle cx="465.2816" cy="631.2607" fill="black" r="0.738" stroke="none" /><circle cx="463.8744" cy="178.1458" fill="black" r="0.738" stroke="none" /><circle cx="455.0041" cy="300.4832" fill="black" r="0.738" stroke="none" /><circle cx="452.7041" cy="597.1312" fill="black" r="0.738" stroke="none" /><circle cx="450.8729" cy="461.9155" fill="black" r="0.738" stroke="none" /><circle cx="441.0493" cy="467.281" fill="black" r="0.738" stroke="none" /><circle cx="435.2236" cy="655.8125" fill="black" r="0.738" stroke="none" /><circle cx="435.9058" cy="246.0232" fill="black" r="0.738" stroke="none" /><circle cx="434.3735" cy="101.7753" fill="black" r="0.738" stroke="none" /><circle cx="426.5815" cy="610.9914" fill="black" r="0.738" stroke="none" /><circle cx="423.821" cy="454.2214" fill="black" r="0.738" stroke="none" /><circle cx="415.5537" cy="513.3763" fill="black" r="0.738" stroke="none" /><circle cx="413.4875" cy="380.723" fill="black" r="0.738" stroke="none" /><circle cx="405.4804" cy="88.6213" fill="black" r="0.738" stroke="none" /><circle cx="401.2377" cy="516.5061" fill="black" r="0.738" stroke="none" /><circle cx="400.6315" cy="312.2077" fill="black" r="0.738" stroke="none" /><circle cx="398.0778" cy="575.4238" fill="black" r="0.738" stroke="none" /><circle cx="392.3559" cy="329.8394" fill="black" r="0.738" stroke="none" /><circle cx="390.3858" cy="721.6928" fill="black" r="0.738" stroke="none" /><circle cx="383.0361" cy="218.4793" fill="black" r="0.738" stroke="none" /><circle cx="380.3945" cy="211.1508" fill="black" r="0.738" stroke="none" /><circle cx="380.6727" cy="637.1672" fill="black" r="0.738" stroke="none" /><circle cx="377.8551" cy="366.0772" fill="black" r="0.738" stroke="none" /><circle cx="372.302" cy="595.8038" fill="black" r="0.738" stroke="none" /><circle cx="368.7461" cy="94.691" fill="black" r="0.738" stroke="none" /><circle cx="362.3039" cy="188.5876" fill="black" r="0.738" stroke="none" /><circle cx="356.0555" cy="409.6948" fill="black" r="0.738" stroke="none" /><circle cx="356.5152" cy="531.7024" fill="black" r="0.738" stroke="none" /><circle cx="350.9423" cy="270.6907" fill="black" r="0.738" stroke="none" /><circle cx="343.9554" cy="680.1924" fill="black" r="0.738" stroke="none" /><circle cx="339.825" cy="555.6212" fill="black" r="0.936" stroke="none" /><circle cx="337.551" cy="244.3129" fill="black" r="1.17" stroke="none" /><circle cx="335.6135" cy="291.285" fill="black" r="0.738" stroke="none" /><circle cx="324.4939" cy="360.9205" fill="black" r="0.936" stroke="none" /><circle cx="311.4946" cy="97.7072" fill="black" r="0.738" stroke="none" /><circle cx="294.5518" cy="251.2001" fill="black" r="0.738" stroke="none" /><circle cx="290.0644" cy="663.4648" fill="black" r="1.17" stroke="none" /><circle cx="285.2836" cy="444.0292" fill="black" r="0.936" stroke="none" /><circle cx="285.0611" cy="653.131" fill="black" r="0.738" stroke="none" /><circle cx="280.451" cy="546.3071" fill="black" r="0.738" stroke="none" /><circle cx="270.5373" cy="155.8488" fill="black" r="0.738" stroke="none" /><circle cx="262.5101" cy="129.1312" fill="black" r="0.738" stroke="none" /><circle cx="261.0902" cy="425.0441" fill="black" r="0.738" stroke="none" /><circle cx="242.7622" cy="319.5937" fill="black" r="0.738" stroke="none" /><circle cx="245.7947" cy="579.1049" fill="black" r="0.738" stroke="none" /><circle cx="245.0788" cy="587.1506" fill="black" r="0.738" stroke="none" /><circle cx="237.6856" cy="193.5834" fill="black" r="0.738" stroke="none" /><circle cx="243.0639" cy="660.1156" fill="black" r="0.738" stroke="none" /><circle cx="220.1633" cy="272.0231" fill="black" r="0.738" stroke="none" /><circle cx="219.282" cy="480.016" fill="black" r="0.738" stroke="none" /><circle cx="207.7456" cy="346.5525" fill="black" r="0.738" stroke="none" /><circle cx="196.1507" cy="243.9011" fill="black" r="0.738" stroke="none" /><circle cx="188.8617" cy="113.7809" fill="black" r="0.936" stroke="none" /><circle cx="186.3926" cy="629.4283" fill="black" r="0.738" stroke="none" /><circle cx="180.3042" cy="577.5836" fill="black" r="0.738" stroke="none" /><circle cx="175.069" cy="580.7623" fill="black" r="0.738" stroke="none" /><circle cx="152.0546" cy="269.4739" fill="black" r="0.936" stroke="none" /><circle cx="150.2515" cy="233.2602" fill="black" r="0.738" stroke="none" /><circle cx="155.8478" cy="529.2478" fill="black" r="0.738" stroke="none" /><circle cx="150.6514" cy="454.9516" fill="black" r="0.738" stroke="none" /><circle cx="145.2074" cy="284.9253" fill="black" r="0.738" stroke="none" /><circle cx="135.6604" cy="599.7686" fill="black" r="0.738" stroke="none" /><circle cx="115.7466" cy="403.0243" fill="black" r="0.738" stroke="none" /><circle cx="120.9644" cy="661.2924" fill="black" r="0.936" stroke="none" /><circle cx="109.9327" cy="440.5862" fill="black" r="0.738" stroke="none" /><circle cx="95.4938" cy="137.9058" fill="black" r="0.738" stroke="none" /><circle cx="91.194" cy="90.2753" fill="black" r="0.738" stroke="none" /><circle cx="92.5132" cy="241.7606" fill="black" r="0.738" stroke="none" /><circle cx="94.555" cy="700.9491" fill="black" r="0.738" stroke="none" /><circle cx="13.77" cy="786.23" fill="black" r="4.59" stroke="none" /><circle cx="13.77" cy="786.23" fill="black" r="4.59" stroke="none" /><text fill="black" font-family="monospace" font-size="12" x="10.77" y="775.64">1</text><circle cx="37.77" cy="786.23" fill="black" r="3.654" stroke="none" /><circle cx="37.77" cy="786.23" fill="black" r="3.654" stroke="none" /><text fill="black" font-family="monospace" font-size="12" x="34.769999999999996" y="775.64">2</text><circle cx="61.77" cy="786.23" fill="black" r="2.916" stroke="none" /><circle cx="61.77" cy="786.23" fill="black" r="2.916" stroke="none" /><text fill="black" font-family="monospace" font-size="12" x="58.769999999999996" y="775.64">3</text><circle cx="85.77" cy="786.23" fill="black" r="2.322" stroke="none" /><circle cx="85.77" cy="786.23" fill="black" r="2.322" stroke="none" /><text fill="black" font-family="monospace" font-size="12" x="82.77" y="775.64">4</text><circle cx="109.77" cy="786.23" fill="black" r="1.854" stroke="none" /><circle cx="109.77" cy="786.23" fill="black" r="1.854" stroke="none" /><text fill="black" font-family="monospace" font-size="12" x="106.77" y="775.64">5</text><circle cx="133.77" cy="786.23" fill="black" r="1.476" stroke="none" /><circle cx="133.77" cy="786.23" fill="black" r="1.476" stroke="none" /><text fill="black" font-family="monospace" font-size="12" x="130.77" y="775.64">6</text><circle cx="157.77" cy="786.23" fill="black" r="1.17" stroke="none" /><circle cx="157.77" cy="786.23" fill="black" r="1.17" stroke="none" /><text fill="black" font-family="monospace" font-size="12" x="154.77" y="775.64">7</text><circle cx="181.77" cy="786.23" fill="black" r="0.936" stroke="none" /><circle cx="181.77" cy="786.23" fill="black" r="0.936" stroke="none" /><text fill="black" font-family="monospace" font-size="12" x="178.77" y="775.64">8</text><circle cx="205.77" cy="786.23" fill="black" r="0.738" stroke="none" /><circle cx="205.77" cy="786.23" fill="black" r="0.738" stroke="none" /><text fill="black" font-family="monospace" font-size="12" x="202.77" y="775.64">9</text><text fill="gray" fill-opacity="0.5" font-family="monospace" font-size="12" x="732.9994103893384" y="77.58585315470174">11h10m</text><text fill="gray" fill-opacity="0.5" font-family="monospace" font-size="12" x="632.0653246069672" y="75.03859677390625">11h15m</text><text fill="gray" fill-opacity="0.5" font-family="monospace" font-size="12" x="531.1582099760417" y="73.4019640734968">11h20m</text><text fill="gray" fill-opacity="0.5" font-family="monospace" font-size="12" x="430.2663410003187" y="72.6747950470176">11h25m</text><text fill="gray" fill-opacity="0.5" font-family="monospace" font-size="12" x="329.37799036416004" y="72.85657442448309">11h30m</text><text fill="gray" fill-opacity="0.5" font-family="monospace" font-size="12" x="228.48143033395894" y="73.94743100675294">11h35m</text><text fill="gray" fill-opacity="0.5" font-family="monospace" font-size="12" x="127.56493415247144" y="75.94813783191165">11h40m</text><text fill="gray" fill-opacity="0.5" font-family="monospace" font-size="12" x="83.33297901746278" y="732.82315467983">-30°</text><text fill="gray" fill-opacity="0.5" font-family="monospace" font-size="12" x="80.34560916169113" y="645.4458996653692">-29°</text><text fill="gray" fill-opacity="0.5" font-family="monospace" font-size="12" x="77.40943118114279" y="558.1027018944101">-28°</text><text fill="gray" fill-opacity="0.5" font-family="monospace" font-size="12" x="74.52394885402254" y="470.7802873175766">-27°</text><text fill="gray" fill-opacity="0.5" font-family="monospace" font-size="12" x="71.68869682781576" y="383.4653944884191">-26°</text><text fill="gray" fill-opacity="0.5" font-family="monospace" font-size="12" x="68.90324031218302" y="296.1447665185394">-25°</text><text fill="gray" fill-opacity="0.5" font-family="monospace" font-size="12" x="66.16717481135521" y="208.80514303858516">-24°</text><text fill="gray" fill-opacity="0.5" font-family="monospace" font-size="12" x="63.480125895680146" y="121.43325215475375">-23°</text><text fill="black" font-family="monospace" font-size="12" x="12" y="48">&gt;&gt; No.246 11h10m 11h43m -30.0°-22.5°</text><a target="_self" xlink:href="hip009.svg"><text fill="black" font-family="monospace" font-size="12" x="12" y="36">&gt; No.9 09h00m 12h00m -52.5°-22.5°</text></a><a target="_self" xlink:href="hip001.svg"><text fill="black" font-family="monospace" font-size="12" x="12" y="24">No.1 00h 24h -90.0°+0.0°</text></a><polyline fill="none" points="737.8451,77.7311 732.9994,77.5859 722.9045,77.2901 712.8099,77.0035 702.7157,76.726 692.6218,76.4576 682.5283,76.1983 672.4351,75.9481 662.3422,75.7071 652.2496,75.4751 642.1573,75.2523 632.0653,75.0386 621.9736,74.834 611.8821,74.6385 601.7909,74.4521 591.6999,74.2747 581.6091,74.1065 571.5186,73.9474 561.4282,73.7974 551.338,73.6565 541.248,73.5247 531.1582,73.402 521.0685,73.2883 510.979,73.1838 500.8896,73.0884 490.8003,73.002 480.7111,72.9247 470.622,72.8566 460.533,72.7975 450.4441,72.7475 440.3552,72.7066 430.2663,72.6748 420.1775,72.6521 410.0888,72.6384 400.0,72.6339 389.9112,72.6384 379.8225,72.6521 369.7337,72.6748 359.6448,72.7066 349.5559,72.7475 339.467,72.7975 329.378,72.8566 319.2889,72.9247 309.1997,73.002 299.1104,73.0884 289.021,73.1838 278.9315,73.2883 268.8418,73.402 258.752,73.5247 248.662,73.6565 238.5718,73.7974 228.4814,73.9474 218.3909,74.1065 208.3001,74.2747 198.2091,74.4521 188.1179,74.6385 178.0264,74.834 167.9347,75.0386 157.8427,75.2523 147.7504,75.4751 137.6578,75.7071 127.5649,75.9481 117.4717,76.1983 107.3782,76.4576 97.2843,76.726 87.1901,77.0035 77.0955,77.2901 67.0006,77.5859 62.1549,77.7311" stroke="black" stroke-opacity="0.5" stroke-width="1" /><polyline fill="none" points="716.667,732.8232 717.0433,721.8987 717.4187,710.9749 717.7933,700.0518 718.1671,689.1294 718.5402,678.2077 718.9124,667.2865 719.2838,656.3659 719.6544,645.4459 720.0242,634.5264 720.3932,623.6074 720.7614,612.6889 721.1288,601.7709 721.4955,590.8533 721.8613,579.936 722.2263,569.0192 722.5906,558.1027 722.954,547.1865 723.3167,536.2707 723.6785,525.3551 724.0396,514.4397 724.3999,503.5246 724.7594,492.6097 725.1181,481.6949 725.4761,470.7803 725.8332,459.8658 726.1896,448.9514 726.5451,438.037 726.8999,427.1227 727.2539,416.2084 727.6072,405.2941 727.9596,394.3798 728.3113,383.4654 728.6622,372.5509 729.0123,361.6363 729.3617,350.7215 729.7102,339.8066 730.058,328.8915 730.405,317.9762 730.7513,307.0606 731.0968,296.1448 731.4415,285.2286 731.7854,274.3122 732.1286,263.3953 732.4709,252.4782 732.8126,241.5606 733.1534,230.6426 733.4935,219.7241 733.8328,208.8051 734.1714,197.8857 734.5092,186.9657 734.8462,176.0452 735.1825,165.1241 735.518,154.2023 735.8527,143.28 736.1867,132.357 736.5199,121.4333 736.8523,110.5088 737.184,99.5837 737.515,88.6578 737.8451,77.7311" stroke="black" stroke-opacity="0.5" stroke-width="1" /><polyline fill="none" points="716.667,732.8232 712.1257,732.6677 702.6647,732.3511 693.204,732.0442 683.7435,731.7472 674.2833,731.4598 664.8233,731.1823 655.3634,730.9144 645.9038,730.6564 636.4444,730.4081 626.9851,730.1695 617.5261,729.9407 608.0672,729.7216 598.6085,729.5123 589.1499,729.3127 579.6915,729.1229 570.2332,728.9428 560.7751,728.7725 551.317,728.6118 541.8591,728.461 532.4014,728.3198 522.9437,728.1885 513.4861,728.0668 504.0286,727.9549 494.5712,727.8527 485.1139,727.7602 475.6566,727.6775 466.1994,727.6045 456.7422,727.5413 447.2851,727.4877 437.8281,727.444 428.371,727.4099 418.914,727.3856 409.457,727.371 400.0,727.3661 390.543,727.371 381.086,727.3856 371.629,727.4099 362.1719,727.444 352.7149,727.4877 343.2578,727.5413 333.8006,727.6045 324.3434,727.6775 314.8861,727.7602 305.4288,727.8527 295.9714,727.9549 286.5139,728.0668 277.0563,728.1885 267.5986,728.3198 258.1409,728.461 248.683,728.6118 239.2249,728.7725 229.7668,728.9428 220.3085,729.1229 210.8501,729.3127 201.3915,729.5123 191.9328,729.7216 182.4739,729.9407 173.0149,730.1695 163.5556,730.4081 154.0962,730.6564 144.6366,730.9144 135.1767,731.1823 125.7167,731.4598 116.2565,731.7472 106.796,732.0442 97.3353,732.3511 87.8743,732.6677 83.333,732.8232" stroke="black" stroke-opacity="0.5" stroke-width="1" /><polyline fill="none" points="83.333,732.8232 82.9567,721.8987 82.5813,710.9749 82.2067,700.0518 81.8329,689.1294 81.4598,678.2077 81.0876,667.2865 80.7162,656.3659 80.3456,645.4459 79.9758,634.5264 79.6068,623.6074 79.2386,612.6889 78.8712,601.7709 78.5045,590.8533 78.1387,579.936 77.7737,569.0192 77.4094,558.1027 77.046,547.1865 76.6833,536.2707 76.3215,525.3551 75.9604,514.4397 75.6001,503.5246 75.2406,492.6097 74.8819,481.6949 74.5239,470.7803 74.1668,459.8658 73.8104,448.9514 73.4549,438.037 73.1001,427.1227 72.7461,416.2084 72.3928,405.2941 72.0404,394.3798 71.6887,383.4654 71.3378,372.5509 70.9877,361.6363 70.6383,350.7215 70.2898,339.8066 69.942,328.8915 69.595,317.9762 69.2487,307.0606 68.9032,296.1448 68.5585,285.2286 68.2146,274.3122 67.8714,263.3953 67.5291,252.4782 67.1874,241.5606 66.8466,230.6426 66.5065,219.7241 66.1672,208.8051 65.8286,197.8857 65.4908,186.9657 65.1538,176.0452 64.8175,165.1241 64.482,154.2023 64.1473,143.28 63.8133,132.357 63.4801,121.4333 63.1477,110.5088 62.816,99.5837 62.485,88.6578 62.1549,77.7311" stroke="black" stroke-opacity="0.5" stroke-width="1" /></svg>