<?xml version="1.0" encoding="utf-8" ?>
<svg baseProfile="tiny" height="800" version="1.2" width="800" xmlns="http://www.w3.org/2000/svg" xmlns:ev="http://www.w3.org/2001/xml-events" xmlns:xlink="http://www.w3.org/1999/xlink"><defs /><rect fill="none" height="800" stroke="black" stroke-width="2" width="800" x="0" y="0" /><polyline fill="none" points="679.581,731.6195 679.9131,720.6961 680.2445,709.7735 680.5752,698.8515 680.9051,687.9302 681.2344,677.0095 681.5629,666.0894 681.8908,655.17 682.2179,644.2511 682.5443,633.3327 682.8701,622.4149 683.1951,611.4976 683.5194,600.5807 683.843,589.6642 684.1659,578.7482 684.4881,567.8326 684.8096,556.9173 685.1304,546.0023 685.4505,535.0877 685.7699,524.1733 686.0887,513.2592 686.4067,502.3453 686.724,491.4316 687.0406,480.5181 687.3566,469.6048 687.6718,458.6915 687.9863,447.7784 688.3002,436.8654 688.6134,425.9524 688.9259,415.0394 689.2376,404.1264 689.5487,393.2134 689.8592,382.3003 690.1689,371.3872 690.4779,360.4739 690.7863,349.5605 691.0939,338.647 691.4009,327.7333 691.7072,316.8193 692.0128,305.9051 692.3178,294.9907 692.622,284.076 692.9256,273.1609 693.2285,262.2455 693.5307,251.3298 693.8323,240.4136 694.1331,229.4971 694.4333,218.5801 694.7328,207.6626 695.0316,196.7446 695.3298,185.8261 695.6273,174.9071 695.9241,163.9875 696.2202,153.0673 696.5157,142.1464 696.8105,131.2249 697.1046,120.3027 697.398,109.3799 697.6908,98.4563 697.9829,87.5319 698.2743,76.6068" stroke="silver" stroke-opacity="0.5" stroke-width="1" /><polyline fill="none" points="584.9882,729.228 585.2078,718.3067 585.427,707.3862 585.6457,696.4664 585.8639,685.5472 586.0817,674.6288 586.2989,663.7109 586.5158,652.7937 586.7321,641.8771 586.948,630.961 587.1634,620.0455 587.3784,609.1304 587.5928,598.2159 587.8069,587.3018 588.0204,576.3881 588.2335,565.4748 588.4461,554.5619 588.6583,543.6493 588.87,532.7371 589.0813,521.8252 589.292,510.9135 589.5024,500.0021 589.7122,489.0909 589.9216,478.1799 590.1306,467.2691 590.339,456.3584 590.5471,445.4479 590.7546,434.5374 590.9617,423.627 591.1684,412.7166 591.3746,401.8063 591.5803,390.8959 591.7856,379.9855 591.9905,369.075 592.1948,358.1645 592.3988,347.2538 592.6022,336.3429 592.8053,325.432 593.0078,314.5208 593.2099,303.6094 593.4116,292.6977 593.6128,281.7858 593.8136,270.8736 594.0139,259.961 594.2138,249.0481 594.4132,238.1348 594.6122,227.2212 594.8107,216.3071 595.0087,205.3925 595.2064,194.4775 595.4035,183.5619 595.6003,172.6458 595.7966,161.7292 595.9924,150.812 596.1878,139.8942 596.3827,128.9757 596.5772,118.0566 596.7713,107.1368 596.9649,96.2162 597.1581,85.295 597.3508,74.3729" stroke="silver" stroke-opacity="0.5" stroke-width="1" /><polyline fill="none" points="490.41,727.8108 490.5173,716.8908 490.6244,705.9715 490.7312,695.053 490.8379,684.1352 490.9442,673.218 491.0504,662.3015 491.1563,651.3856 491.2621,640.4703 491.3675,629.5556 491.4728,618.6414 491.5778,607.7277 491.6826,596.8145 491.7872,585.9018 491.8915,574.9895 491.9956,564.0776 492.0995,553.1661 492.2032,542.255 492.3066,531.3442 492.4098,520.4338 492.5128,509.5236 492.6156,498.6136 492.7181,487.7039 492.8204,476.7944 492.9225,465.8851 493.0244,454.9759 493.126,444.0669 493.2274,433.1579 493.3286,422.249 493.4296,411.3402 493.5304,400.4314 493.6309,389.5226 493.7312,378.6138 493.8313,367.7049 493.9311,356.7959 494.0308,345.8868 494.1302,334.9776 494.2294,324.0683 494.3283,313.1587 494.4271,302.2489 494.5256,291.339 494.6239,280.4287 494.722,269.5181 494.8199,258.6073 494.9176,247.6961 495.015,236.7845 495.1122,225.8725 495.2092,214.9601 495.306,204.0473 495.4025,193.134 495.4989,182.2202 495.595,171.3059 495.6909,160.391 495.7866,149.4756 495.882,138.5596 495.9773,127.6429 496.0723,116.7256 496.1671,105.8076 496.2617,94.8889 496.3561,83.9694 496.4503,73.0492" stroke="silver" stroke-opacity="0.5" stroke-width="1" /><polyline fill="none" points="395.8389,727.367 395.834,716.4474 395.8291,705.5286 395.8241,694.6104 395.8192,683.693 395.8143,672.7763 395.8094,661.8602 395.8046,650.9447 395.7997,640.0298 395.7949,629.1155 395.79,618.2017 395.7852,607.2885 395.7804,596.3757 395.7755,585.4634 395.7707,574.5516 395.7659,563.6401 395.7612,552.7291 395.7564,541.8184 395.7516,530.9081 395.7469,519.9981 395.7421,509.0883 395.7374,498.1788 395.7327,487.2696 395.728,476.3606 395.7233,465.4517 395.7186,454.543 395.7139,443.6344 395.7093,432.726 395.7046,421.8176 395.7,410.9092 395.6953,400.0009 395.6907,389.0926 395.6861,378.1843 395.6815,367.2759 395.6769,356.3674 395.6723,345.4588 395.6677,334.5501 395.6632,323.6413 395.6586,312.7322 395.6541,301.823 395.6495,290.9135 395.645,280.0038 395.6405,269.0937 395.636,258.1834 395.6315,247.2727 395.627,236.3617 395.6225,225.4502 395.6181,214.5384 395.6136,203.6261 395.6092,192.7134 395.6047,181.8001 395.6003,170.8863 395.5959,159.972 395.5915,149.0572 395.5871,138.1417 395.5827,127.2256 395.5783,116.3088 395.574,105.3914 395.5696,94.4732 395.5653,83.5544 395.5609,72.6348" stroke="silver" stroke-opacity="0.5" stroke-width="1" /><polyline fill="none" points="301.2675,727.8964 301.1503,716.9764 301.0334,706.057 300.9167,695.1384 300.8003,684.2205 300.6841,673.3033 300.5681,662.3867 300.4524,651.4707 300.337,640.5553 300.2218,629.6405 300.1069,618.7262 299.9922,607.8125 299.8777,596.8992 299.7635,585.9864 299.6496,575.074 299.5359,564.1621 299.4224,553.2505 299.3092,542.3393 299.1963,531.4284 299.0835,520.5178 298.9711,509.6076 298.8588,498.6975 298.7469,487.7877 298.6351,476.8781 298.5237,465.9687 298.4124,455.0594 298.3014,444.1503 298.1907,433.2413 298.0801,422.3323 297.9699,411.4234 297.8599,400.5145 297.7501,389.6056 297.6405,378.6967 297.5312,367.7877 297.4222,356.8786 297.3134,345.9694 297.2048,335.0601 297.0965,324.1507 296.9884,313.241 296.8806,302.3312 296.773,291.4211 296.6656,280.5107 296.5585,269.6 296.4516,258.6891 296.3449,247.7778 296.2385,236.8661 296.1324,225.954 296.0264,215.0415 295.9208,204.1286 295.8153,193.2152 295.7101,182.3013 295.6051,171.3869 295.5004,160.4719 295.3959,149.5564 295.2917,138.6402 295.1876,127.7234 295.0839,116.806 294.9803,105.8879 294.877,94.9691 294.7739,84.0495 294.6711,73.1292" stroke="silver" stroke-opacity="0.5" stroke-width="1" /><polyline fill="none" points="206.6884,729.3993 206.4588,718.4779 206.2298,707.5572 206.0012,696.6373 205.7732,685.718 205.5456,674.7993 205.3186,663.8814 205.092,652.964 204.8659,642.0472 204.6403,631.1309 204.4152,620.2152 204.1905,609.3 203.9664,598.3853 203.7427,587.471 203.5196,576.5572 203.2969,565.6437 203.0747,554.7306 202.853,543.8179 202.6317,532.9055 202.411,521.9934 202.1907,511.0816 201.9709,500.17 201.7516,489.2586 201.5328,478.3475 201.3144,467.4365 201.0965,456.5256 200.8791,445.6148 200.6622,434.7042 200.4458,423.7936 200.2298,412.883 200.0144,401.9725 199.7993,391.0619 199.5848,380.1513 199.3708,369.2407 199.1572,358.3299 198.9441,347.419 198.7314,336.508 198.5193,325.5968 198.3076,314.6854 198.0964,303.7738 197.8856,292.862 197.6753,281.9499 197.4655,271.0374 197.2562,260.1247 197.0473,249.2116 196.8389,238.2981 196.631,227.3842 196.4235,216.4699 196.2165,205.5551 196.01,194.6399 195.804,183.7241 195.5984,172.8078 195.3933,161.891 195.1886,150.9736 194.9844,140.0555 194.7807,129.1368 194.5774,118.2175 194.3746,107.2975 194.1723,96.3767 193.9704,85.4552 193.769,74.533" stroke="silver" stroke-opacity="0.5" stroke-width="1" /><polyline fill="none" points="112.0939,731.8767 111.7519,720.953 111.4106,710.0301 111.0701,699.1079 110.7302,688.1864 110.3912,677.2655 110.0528,666.3452 109.7152,655.4255 109.3783,644.5064 109.0422,633.5878 108.7067,622.6697 108.372,611.7521 108.038,600.835 107.7048,589.9183 107.3722,579.002 107.0404,568.0861 106.7093,557.1705 106.3789,546.2553 106.0493,535.3404 105.7203,524.4258 105.3921,513.5114 105.0646,502.5972 104.7378,491.6833 104.4117,480.7695 104.0864,469.8559 103.7617,458.9424 103.4378,448.029 103.1146,437.1157 102.7921,426.2024 102.4703,415.2892 102.1492,404.3759 101.8288,393.4626 101.5091,382.5492 101.1902,371.6358 100.8719,360.7223 100.5544,349.8086 100.2375,338.8947 99.9214,327.9807 99.6059,317.0665 99.2912,306.152 98.9772,295.2373 98.6638,284.3222 98.3512,273.4069 98.0393,262.4912 97.728,251.5751 97.4175,240.6587 97.1077,229.7418 96.7985,218.8245 96.4901,207.9067 96.1823,196.9884 95.8753,186.0696 95.5689,175.1502 95.2633,164.2303 94.9583,153.3097 94.654,142.3886 94.3505,131.4668 94.0476,120.5443 93.7454,109.6211 93.4439,98.6971 93.1431,87.7724 92.8429,76.8469" stroke="silver" stroke-opacity="0.5" stroke-width="1" /><polyline fill="none" points="716.667,732.8232 707.9628,732.5272 698.502,732.2149 689.0414,731.9123 679.581,731.6195 670.1209,731.3365 660.6609,731.0632 651.2012,730.7997 641.7416,730.5459 632.2823,730.3019 622.8231,730.0676 613.3641,729.8431 603.9053,729.6283 594.4467,729.4233 584.9882,729.228 575.5298,729.0425 566.0716,728.8667 556.6135,728.7006 547.1556,728.5443 537.6977,728.3977 528.24,728.2608 518.7823,728.1337 509.3248,728.0163 499.8673,727.9087 490.41,727.8108 480.9527,727.7226 471.4954,727.6442 462.0382,727.5755 452.5811,727.5165 443.124,727.4673 433.667,727.4278 424.2099,727.398 414.7529,727.3779 405.2959,727.3676 395.8389,727.367 386.3819,727.3762 376.9249,727.3951 367.4679,727.4237 358.0108,727.462 348.5537,727.5101 339.0966,727.5679 329.6394,727.6354 320.1822,727.7127 310.7249,727.7997 301.2675,727.8964 291.8101,728.0029 282.3526,728.1191 272.8949,728.2451 263.4372,728.3807 253.9794,728.5262 244.5214,728.6813 235.0634,728.8462 225.6052,729.0208 216.1468,729.2052 206.6884,729.3993 197.2297,729.6032 187.7709,729.8168 178.312,730.0402 168.8528,730.2733 159.3935,730.5161 149.934,730.7687 140.4743,731.0311 131.0143,731.3032 121.5542,731.5851 112.0939,731.8767 102.6333,732.1781 93.1725,732.4892 83.7114,732.8101 83.333,732.8232" stroke="silver" stroke-opacity="0.5" stroke-width="1" /><polyline fill="none" points="719.6544,645.4459 710.8679,645.1521 701.3177,644.8421 691.7677,644.5417 682.2179,644.2511 672.6684,643.9701 663.1191,643.6989 653.57,643.4373 644.0212,643.1853 634.4725,642.9431 624.9241,642.7106 615.3758,642.4877 605.8278,642.2745 596.2798,642.0709 586.7321,641.8771 577.1845,641.6929 567.6371,641.5184 558.0898,641.3535 548.5426,641.1984 538.9956,641.0529 529.4487,640.917 519.9019,640.7908 510.3552,640.6743 500.8086,640.5675 491.2621,640.4703 481.7156,640.3828 472.1692,640.3049 462.6229,640.2367 453.0766,640.1782 443.5304,640.1293 433.9842,640.0901 424.4381,640.0605 414.8919,640.0406 405.3458,640.0304 395.7997,640.0298 386.2536,640.0389 376.7075,640.0576 367.1613,640.086 357.6151,640.1241 348.0689,640.1718 338.5226,640.2292 328.9763,640.2962 319.43,640.3729 309.8835,640.4593 300.337,640.5553 290.7904,640.661 281.2437,640.7763 271.6969,640.9014 262.15,641.036 252.603,641.1804 243.0559,641.3344 233.5086,641.4981 223.9612,641.6715 214.4136,641.8545 204.8659,642.0472 195.318,642.2495 185.7699,642.4616 176.2217,642.6833 166.6733,642.9147 157.1247,643.1558 147.5758,643.4065 138.0268,643.6669 128.4775,643.9371 118.928,644.2169 109.3783,644.5064 99.8283,644.8055 90.2781,645.1144 80.7276,645.433 80.3456,645.4459" stroke="silver" stroke-opacity="0.5" stroke-width="1" /><polyline fill="none" points="722.5906,558.1027 713.7232,557.8112 704.0851,557.5036 694.4472,557.2056 684.8096,556.9173 675.1723,556.6385 665.5352,556.3694 655.8983,556.1098 646.2616,555.8599 636.6252,555.6195 626.989,555.3888 617.353,555.1677 607.7172,554.9562 598.0816,554.7542 588.4461,554.5619 578.8109,554.3792 569.1757,554.206 559.5408,554.0425 549.906,553.8885 540.2713,553.7441 530.6367,553.6094 521.0023,553.4842 511.3679,553.3686 501.7337,553.2626 492.0995,553.1661 482.4655,553.0793 472.8315,553.0021 463.1975,552.9344 453.5637,552.8763 443.9299,552.8278 434.2961,552.7889 424.6623,552.7596 415.0286,552.7398 405.3949,552.7297 395.7612,552.7291 386.1275,552.7381 376.4937,552.7567 366.86,552.7849 357.2262,552.8226 347.5924,552.87 337.9585,552.9269 328.3246,552.9934 318.6906,553.0695 309.0566,553.1552 299.4224,553.2505 289.7882,553.3554 280.1539,553.4698 270.5194,553.5938 260.8849,553.7275 251.2502,553.8707 241.6154,554.0235 231.9805,554.1859 222.3454,554.3579 212.7101,554.5395 203.0747,554.7306 193.4391,554.9314 183.8033,555.1418 174.1673,555.3618 164.5311,555.5914 154.8947,555.8305 145.2581,556.0793 135.6213,556.3377 125.9842,556.6057 116.3469,556.8833 106.7093,557.1705 97.0715,557.4674 87.4334,557.7738 77.795,558.0899 77.4094,558.1027" stroke="silver" stroke-opacity="0.5" stroke-width="1" /><polyline fill="none" points="725.4761,470.7803 716.5292,470.4912 706.8047,470.1862 697.0805,469.8907 687.3566,469.6048 677.6329,469.3283 667.9095,469.0614 658.1863,468.8041 648.4634,468.5562 638.7407,468.3179 629.0183,468.0891 619.296,467.8698 609.574,467.6601 599.8522,467.4598 590.1306,467.2691 580.4091,467.0879 570.6878,466.9162 560.9667,466.754 551.2457,466.6014 541.5249,466.4582 531.8042,466.3246 522.0836,466.2004 512.3631,466.0858 502.6428,465.9807 492.9225,465.8851 483.2024,465.799 473.4823,465.7224 463.7623,465.6553 454.0423,465.5977 444.3224,465.5496 434.6025,465.511 424.8827,465.4819 415.1629,465.4623 405.4431,465.4523 395.7233,465.4517 386.0035,465.4606 376.2837,465.4791 366.5639,465.507 356.844,465.5445 347.1241,465.5914 337.4041,465.6479 327.6841,465.7138 317.9641,465.7893 308.2439,465.8742 298.5237,465.9687 288.8033,466.0727 279.0829,466.1862 269.3623,466.3092 259.6416,466.4417 249.9208,466.5837 240.1998,466.7352 230.4787,466.8963 220.7575,467.0668 211.036,467.2469 201.3144,467.4365 191.5926,467.6356 181.8706,467.8442 172.1484,468.0623 162.426,468.29 152.7033,468.5271 142.9804,468.7738 133.2573,469.0301 123.5339,469.2958 113.8103,469.5711 104.0864,469.8559 94.3622,470.1503 84.6377,470.4541 74.9129,470.7676 74.5239,470.7803" stroke="silver" stroke-opacity="0.5" stroke-width="1" /><polyline fill="none" points="728.3113,383.4654 719.2864,383.1789 709.477,382.8766 699.6679,382.5837 689.8592,382.3003 680.0507,382.0264 670.2425,381.7619 660.4345,381.5068 650.6268,381.2611 640.8194,381.0249 631.0122,380.7982 621.2052,380.5809 611.3985,380.373 601.592,380.1745 591.7856,379.9855 581.9795,379.8059 572.1735,379.6357 562.3677,379.475 552.5621,379.3237 542.7566,379.1818 532.9513,379.0494 523.1461,378.9263 513.341,378.8127 503.5361,378.7085 493.7312,378.6138 483.9264,378.5284 474.1217,378.4525 464.3171,378.386 454.5126,378.3289 444.7081,378.2813 434.9036,378.243 425.0992,378.2142 415.2948,378.1948 405.4904,378.1848 395.6861,378.1843 385.8817,378.1931 376.0773,378.2114 366.2729,378.2391 356.4685,378.2762 346.664,378.3227 336.8594,378.3787 327.0548,378.444 317.2501,378.5188 307.4454,378.603 297.6405,378.6967 287.8356,378.7997 278.0305,378.9122 268.2253,379.0341 258.42,379.1654 248.6146,379.3062 238.8089,379.4563 229.0032,379.6159 219.1972,379.785 209.3911,379.9634 199.5848,380.1513 189.7783,380.3487 179.9716,380.5554 170.1646,380.7716 160.3575,380.9972 150.5501,381.2323 140.7424,381.4768 130.9345,381.7307 121.1263,381.9941 111.3179,382.267 101.5091,382.5492 91.7001,382.841 81.8908,383.1421 72.0811,383.4528 71.6887,383.4654" stroke="silver" stroke-opacity="0.5" stroke-width="1" /><polyline fill="none" points="731.0968,296.1448 721.9951,295.861 712.1024,295.5615 702.2099,295.2714 692.3178,294.9907 682.426,294.7193 672.5344,294.4573 662.6432,294.2046 652.7522,293.9613 642.8615,293.7273 632.9711,293.5027 623.0809,293.2875 613.1909,293.0815 603.3011,292.8849 593.4116,292.6977 583.5223,292.5198 573.6331,292.3513 563.7442,292.192 553.8554,292.0422 543.9667,291.9016 534.0783,291.7704 524.1899,291.6486 514.3017,291.536 504.4136,291.4328 494.5256,291.339 484.6377,291.2544 474.7499,291.1792 464.8622,291.1133 454.9746,291.0568 445.087,291.0096 435.1994,290.9717 425.3119,290.9432 415.4244,290.9239 405.537,290.9141 395.6495,290.9135 385.7621,290.9223 375.8746,290.9404 365.9871,290.9678 356.0995,291.0046 346.2119,291.0506 336.3243,291.1061 326.4366,291.1708 316.5488,291.2449 306.6609,291.3283 296.773,291.4211 286.8849,291.5231 276.9967,291.6346 267.1083,291.7553 257.2199,291.8854 247.3313,292.0248 237.4425,292.1736 227.5536,292.3317 217.6644,292.4991 207.7751,292.6759 197.8856,292.862 187.9959,293.0574 178.1059,293.2622 168.2158,293.4764 158.3253,293.6999 148.4347,293.9327 138.5437,294.1749 128.6525,294.4265 118.761,294.6874 108.8692,294.9576 98.9772,295.2373 89.0848,295.5262 79.192,295.8246 69.299,296.1323 68.9032,296.1448" stroke="silver" stroke-opacity="0.5" stroke-width="1" /><polyline fill="none" points="733.8328,208.8051 724.6558,208.5242 714.6811,208.2277 704.7068,207.9405 694.7328,207.6626 684.7591,207.3939 674.7858,207.1345 664.8127,206.8844 654.8399,206.6435 644.8674,206.4118 634.8952,206.1895 624.9232,205.9764 614.9515,205.7725 604.98,205.5779 595.0087,205.3925 585.0377,205.2164 575.0668,205.0495 565.0962,204.8919 555.1257,204.7435 545.1554,204.6044 535.1852,204.4745 525.2152,204.3538 515.2453,204.2424 505.2756,204.1402 495.306,204.0473 485.3364,203.9636 475.367,203.8892 465.3977,203.824 455.4284,203.768 445.4592,203.7213 435.49,203.6838 425.5209,203.6555 415.5518,203.6365 405.5827,203.6267 395.6136,203.6261 385.6445,203.6348 375.6754,203.6527 365.7063,203.6799 355.7371,203.7163 345.7679,203.7619 335.7987,203.8168 325.8293,203.8809 315.8599,203.9542 305.8904,204.0368 295.9208,204.1286 285.951,204.2297 275.9812,204.34 266.0112,204.4595 256.0411,204.5883 246.0708,204.7263 236.1003,204.8736 226.1297,205.0301 216.1588,205.1959 206.1878,205.3709 196.2165,205.5551 186.2451,205.7486 176.2734,205.9514 166.3014,206.1634 156.3292,206.3847 146.3568,206.6152 136.384,206.855 126.411,207.104 116.4377,207.3623 106.464,207.6299 96.4901,207.9067 86.5158,208.1928 76.5412,208.4881 66.5662,208.7928 66.1672,208.8051" stroke="silver" stroke-opacity="0.5" stroke-width="1" /><polyline fill="none" points="736.5199,121.4333 727.2688,121.1553 717.2137,120.8619 707.159,120.5777 697.1046,120.3027 687.0505,120.0369 676.9968,119.7802 666.9433,119.5327 656.8902,119.2944 646.8374,119.0652 636.7848,118.8451 626.7326,118.6343 616.6806,118.4325 606.6288,118.24 596.5772,118.0566 586.5259,117.8823 576.4748,117.7172 566.4239,117.5612 556.3732,117.4144 546.3227,117.2767 536.2723,117.1482 526.2221,117.0288 516.1721,116.9186 506.1221,116.8175 496.0723,116.7256 486.0226,116.6428 475.973,116.5691 465.9235,116.5046 455.8741,116.4492 445.8247,116.4029 435.7754,116.3658 425.7261,116.3379 415.6768,116.319 405.6276,116.3094 395.5783,116.3088 385.5291,116.3174 375.4798,116.3351 365.4306,116.362 355.3812,116.398 345.3319,116.4432 335.2824,116.4974 325.2329,116.5609 315.1833,116.6334 305.1336,116.7151 295.0839,116.806 285.0339,116.906 274.9839,117.0151 264.9337,117.1334 254.8834,117.2608 244.8328,117.3974 234.7822,117.5431 224.7313,117.698 214.6802,117.862 204.6289,118.0352 194.5774,118.2175 184.5257,118.409 174.4737,118.6096 164.4214,118.8194 154.3689,119.0383 144.3161,119.2664 134.2631,119.5036 124.2097,119.75 114.156,120.0056 104.1019,120.2704 94.0476,120.5443 83.9929,120.8273 73.9378,121.1196 63.8824,121.421 63.4801,121.4333" stroke="silver" stroke-opacity="0.5" stroke-width="1" /><circle cx="729.3438" cy="309.0266" fill="black" r="0.738" stroke="none" /><circle cx="726.9987" cy="202.3874" fill="black" r="0.738" stroke="none" /><circle cx="713.54" cy="594.1744" fill="black" r="0.738" stroke="none" /><circle cx="705.8221" cy="293.6284" fill="black" r="0.738" stroke="none" /><circle cx="700.3842" cy="129.9228" fill="black" r="0.738" stroke="none" /><circle cx="688.6705" cy="472.6138" fill="black" r="0.738" stroke="none" /><circle cx="691.2953" cy="204.8594" fill="black" r="0.738" stroke="none" /><circle cx="684.6518" cy="84.8226" fill="black" r="0.738" stroke="none" /><circle cx="670.7381" cy="439.3466" fill="black" r="0.738" stroke="none" /><circle cx="664.7069" cy="558.4438" fill="black" r="0.738" stroke="none" /><circle cx="669.51" cy="220.1092" fill="black" r="0.738" stroke="none" /><circle cx="655.2589" cy="609.0473" fill="black" r="0.738" stroke="none" /><circle cx="662.2539" cy="268.5093" fill="black" r="0.738" stroke="none" /><circle cx="648.0217" cy="394.7361" fill="black" r="0.738" stroke="none" /><circle cx="643.5487" cy="534.8239" fill="black" r="0.738" stroke="none" /><circle cx="648.9415" cy="192.4374" fill="black" r="0.738" stroke="none" /><circle cx="639.3994" cy="450.6028" fill="black" r="0.738" stroke="none" /><circle cx="639.1134" cy="332.7722" fill="black" r="0.738" stroke="none" /><circle cx="630.2287" cy="697.2032" fill="black" r="2.916" stroke="none" /><circle cx="632.5336" cy="552.5502" fill="black" r="0.738" stroke="none" /><circle cx="642.1893" cy="84.9575" fill="black" r="0.738" stroke="none" /><circle cx="634.6394" cy="390.3134" fill="black" r="0.738" stroke="none" /><circle cx="630.5238" cy="443.3197" fill="black" r="0.738" stroke="none" /><circle cx="613.8304" cy="581.8192" fill="black" r="0.738" stroke="none" /><circle cx="613.5944" cy="568.1866" fill="black" r="0.738" stroke="none" /><circle cx="620.3152" cy="157.7409" fill="black" r="0.738" stroke="none" /><circle cx="619.6256" cy="156.1542" fill="black" r="0.738" stroke="none" /><circle cx="593.6115" cy="682.3844" fill="black" r="1.17" stroke="none" /><circle cx="591.2508" cy="306.9788" fill="black" r="1.17" stroke="none" /><circle cx="587.7242" cy="437.9728" fill="black" r="0.738" stroke="none" /><circle cx="589.9194" cy="297.6112" fill="black" r="0.738" stroke="none" /><circle cx="584.4115" cy="547.7597" fill="black" r="0.738" stroke="none" /><circle cx="585.1523" cy="475.5575" fill="black" r="0.738" stroke="none" /><circle cx="591.9061" cy="76.376" fill="black" r="0.738" stroke="none" /><circle cx="585.265" cy="393.3109" fill="black" r="0.738" stroke="none" /><circle cx="584.2895" cy="347.2802" fill="black" r="0.936" stroke="none" /><circle cx="582.1966" cy="407.0504" fill="black" r="0.738" stroke="none" /><circle cx="583.9911" cy="201.0933" fill="black" r="0.738" stroke="none" /><circle cx="582.9285" cy="202.5601" fill="black" r="0.738" stroke="none" /><circle cx="573.6444" cy="647.2181" fill="black" r="0.738" stroke="none" /><circle cx="579.0994" cy="292.0067" fill="black" r="0.738" stroke="none" /><circle cx="561.6684" cy="628.6611" fill="black" r="1.17" stroke="none" /><circle cx="569.034" cy="99.3393" fill="black" r="0.936" stroke="none" /><circle cx="560.9122" cy="555.0257" fill="black" r="0.738" stroke="none" /><circle cx="555.2621" cy="710.0638" fill="black" r="0.738" stroke="none" /><circle cx="555.7291" cy="682.1986" fill="black" r="0.738" stroke="none" /><circle cx="548.4253" cy="663.1219" fill="black" r="0.738" stroke="none" /><circle cx="549.5465" cy="300.0991" fill="black" r="0.738" stroke="none" /><circle cx="530.3131" cy="715.4451" fill="black" r="0.738" stroke="none" /><circle cx="519.6354" cy="449.8478" fill="black" r="0.936" stroke="none" /><circle cx="515.3063" cy="357.5373" fill="black" r="0.738" stroke="none" /><circle cx="515.4527" cy="294.7785" fill="black" r="0.738" stroke="none" /><circle cx="515.2289" cy="91.5746" fill="black" r="0.738" stroke="none" /><circle cx="508.8981" cy="574.1193" fill="black" r="0.738" stroke="none" /><circle cx="507.3278" cy="214.2888" fill="black" r="0.738" stroke="none" /><circle cx="502.8651" cy="351.7319" fill="black" r="0.738" stroke="none" /><circle cx="500.711" cy="394.6525" fill="black" r="0.738" stroke="none" /><circle cx="495.9959" cy="477.7848" fill="black" r="0.738" stroke="none" /><circle cx="497.9596" cy="130.5426" fill="black" r="0.738" stroke="none" /><circle cx="495.1884" cy="190.2507" fill="black" r="0.738" stroke="none" /><circle cx="490.3181" cy="595.0553" fill="black" r="0.738" stroke="none" /><circle cx="489.9446" cy="234.558" fill="black" r="0.738" stroke="none" /><circle cx="477.2098" cy="374.6353" fill="black" r="0.738" stroke="none" /><circle cx="464.2793" cy="505.6321" fill="black" r="0.738" stroke="none" /><circle cx="461.9373" cy="181.3651" fill="black" r="1.476" stroke="none" /><circle cx="458.3229" cy="530.3834" fill="black" r="0.738" stroke="none" /><circle cx="457.7938" cy="296.2215" fill="black" r="0.738" stroke="none" /><circle cx="453.4752" cy="130.3239" fill="black" r="0.738" stroke="none" /><circle cx="441.7812" cy="603.7123" fill="black" r="0.738" stroke="none" /><circle cx="430.2807" cy="268.5253" fill="black" r="0.738" stroke="none" /><circle cx="427.3081" cy="624.701" fill="black" r="1.17" stroke="none" /><circle cx="418.0661" cy="363.4511" fill="black" r="0.936" stroke="none" /><circle cx="407.6914" cy="474.0063" fill="black" r="0.738" stroke="none" /><circle cx="402.3296" cy="125.0416" fill="black" r="0.738" stroke="none" /><circle cx="400.6931" cy="560.4968" fill="black" r="0.936" stroke="none" /><circle cx="396.4014" cy="615.5822" fill="black" r="0.738" stroke="none" /><circle cx="395.9836" cy="125.4788" fill="black" r="0.738" stroke="none" /><circle cx="393.429" cy="635.3161" fill="black" r="0.738" stroke="none" /><circle cx="390.9253" cy="490.5892" fill="black" r="0.738" stroke="none" /><circle cx="390.5038" cy="372.1663" fill="black" r="0.738" stroke="none" /><circle cx="388.0615" cy="225.5433" fill="black" r="0.738" stroke="none" /><circle cx="386.0278" cy="590.1867" fill="black" r="0.738" stroke="none" /><circle cx="384.6746" cy="409.8727" fill="black" r="0.738" stroke="none" /><circle cx="381.0769" cy="685.8947" fill="black" r="0.936" stroke="none" /><circle cx="380.4655" cy="720.2235" fill="black" r="0.738" stroke="none" /><circle cx="379.1211" cy="555.9803" fill="black" r="0.738" stroke="none" /><circle cx="354.476" cy="525.0782" fill="black" r="0.738" stroke="none" /><circle cx="353.1733" cy="326.277" fill="black" r="0.738" stroke="none" /><circle cx="345.6888" cy="188.0471" fill="black" r="0.738" stroke="none" /><circle cx="343.5672" cy="117.2381" fill="black" r="0.738" stroke="none" /><circle cx="338.3581" cy="443.8234" fill="black" r="0.738" stroke="none" /><circle cx="334.579" cy="213.0783" fill="black" r="0.738" stroke="none" /><circle cx="332.356" cy="589.1932" fill="black" r="0.738" stroke="none" /><circle cx="326.9248" cy="425.5727" fill="black" r="0.738" stroke="none" /><circle cx="327.5774" cy="696.2023" fill="black" r="0.738" stroke="none" /><circle cx="308.7436" cy="593.2307" fill="black" r="0.738" stroke="none" /><circle cx="307.818" cy="701.8811" fill="black" r="0.738" stroke="none" /><circle cx="302.377" cy="340.5088" fill="black" r="0.738" stroke="none" /><circle cx="290.2305" cy="278.5681" fill="black" r="0.738" stroke="none" /><circle cx="284.8624" cy="481.6549" fill="black" r="0.738" stroke="none" /><circle cx="287.032" cy="714.7795" fill="black" r="0.936" stroke="none" /><circle cx="284.1974" cy="537.0077" fill="black" r="0.738" stroke="none" /><circle cx="276.4214" cy="586.9573" fill="black" r="0.738" stroke="none" /><circle cx="265.336" cy="136.8705" fill="black" r="0.738" stroke="none" /><circle cx="269.2999" cy="473.3807" fill="black" r="0.738" stroke="none" /><circle cx="264.3643" cy="256.7817" fill="black" r="0.738" stroke="none" /><circle cx="268.2587" cy="613.3509" fill="black" r="0.738" stroke="none" /><circle cx="266.5742" cy="720.2954" fill="black" r="0.738" stroke="none" /><circle cx="255.2591" cy="151.8481" fill="black" r="0.738" stroke="none" /><circle cx="262.0059" cy="667.5922" fill="black" r="0.738" stroke="none" /><circle cx="253.94" cy="202.6081" fill="black" r="0.738" stroke="none" /><circle cx="258.6725" cy="592.0054" fill="black" r="0.936" stroke="none" /><circle cx="245.0882" cy="101.1431" fill="black" r="0.738" stroke="none" /><circle cx="250.7029" cy="656.2346" fill="black" r="0.738" stroke="none" /><circle cx="229.8464" cy="292.2069" fill="black" r="0.738" stroke="none" /><circle cx="229.5342" cy="292.4739" fill="black" r="0.738" stroke="none" /><circle cx="221.7777" cy="374.763" fill="black" r="0.738" stroke="none" /><circle cx="225.6072" cy="619.0161" fill="black" r="0.738" stroke="none" /><circle cx="221.8936" cy="588.2521" fill="black" r="0.936" stroke="none" /><circle cx="210.7485" cy="224.1554" fill="black" r="0.738" stroke="none" /><circle cx="209.8201" cy="419.5084" fill="black" r="0.738" stroke="none" /><circle cx="210.6616" cy="618.5162" fill="black" r="0.738" stroke="none" /><circle cx="201.1259" cy="137.8455" fill="black" r="0.738" stroke="none" /><circle cx="193.3208" cy="102.5977" fill="black" r="0.738" stroke="none" /><circle cx="186.9952" cy="367.3075" fill="black" r="0.738" stroke="none" /><circle cx="182.8969" cy="306.6988" fill="black" r="0.738" stroke="none" /><circle cx="185.1081" cy="526.9002" fill="black" r="0.738" stroke="none" /><circle cx="176.7589" cy="315.3874" fill="black" r="0.738" stroke="none" /><circle cx="176.7896" cy="466.8216" fill="black" r="1.17" stroke="none" /><circle cx="150.2984" cy="228.4538" fill="black" r="0.738" stroke="none" /><circle cx="150.3867" cy="509.2055" fill="black" r="0.738" stroke="none" /><circle cx="138.182" cy="158.9196" fill="black" r="0.738" stroke="none" /><circle cx="138.1339" cy="209.8707" fill="black" r="0.738" stroke="none" /><circle cx="133.3218" cy="153.6181" fill="black" r="0.738" stroke="none" /><circle cx="133.4232" cy="260.7541" fill="black" r="0.738" stroke="none" /><circle cx="133.9516" cy="415.8961" fill="black" r="0.738" stroke="none" /><circle cx="137.7002" cy="615.2691" fill="black" r="0.738" stroke="none" /><circle cx="136.6517" cy="643.7052" fill="black" r="0.738" stroke="none" /><circle cx="132.8008" cy="607.3645" fill="black" r="0.738" stroke="none" /><circle cx="118.5214" cy="85.7916" fill="black" r="0.738" stroke="none" /><circle cx="134.2017" cy="699.9028" fill="black" r="0.738" stroke="none" /><circle cx="123.675" cy="493.8437" fill="black" r="0.738" stroke="none" /><circle cx="115.7666" cy="510.4089" fill="black" r="0.738" stroke="none" /><circle cx="109.0553" cy="327.1088" fill="black" r="0.738" stroke="none" /><circle cx="93.4937" cy="77.0041" fill="black" r="0.738" stroke="none" /><circle cx="89.7254" cy="377.3078" fill="black" r="0.738" stroke="none" /><circle cx="98.9328" cy="692.9338" fill="black" r="0.738" stroke="none" /><circle cx="82.5285" cy="202.9768" fill="black" r="0.738" stroke="none" /><circle cx="89.4148" cy="549.7551" fill="black" r="0.738" stroke="none" /><circle cx="81.8671" cy="507.6905" fill="black" r="0.936" stroke="none" /><circle cx="67.3703" cy="127.6132" fill="black" r="0.738" stroke="none" /><circle cx="13.77" cy="786.23" fill="black" r="4.59" stroke="none" /><circle cx="13.77" cy="786.23" fill="black" r="4.59" stroke="none" /><text fill="black" font-family="monospace" font-size="12" x="10.77" y="775.64">1</text><circle cx="37.77" cy="786.23" fill="black" r="3.654" stroke="none" /><circle cx="37.77" cy="786.23" fill="black" r="3.654" stroke="none" /><text fill="black" font-family="monospace" font-size="12" x="34.769999999999996" y="775.64">2</text><circle cx="61.77" cy="786.23" fill="black" r="2.916" stroke="none" /><circle cx="61.77" cy="786.23" fill="black" r="2.916" stroke="none" /><text fill="black" font-family="monospace" font-size="12" x="58.769999999999996" y="775.64">3</text><circle cx="85.77" cy="786.23" fill="black" r="2.322" stroke="none" /><circle cx="85.77" cy="786.23" fill="black" r="2.322" stroke="none" /><text fill="black" font-family="monospace" font-size="12" x="82.77" y="775.64">4</text><circle cx="109.77" cy="786.23" fill="black" r="1.854" stroke="none" /><circle cx="109.77" cy="786.23" fill="black" r="1.854" stroke="none" /><text fill="black" font-family="monospace" font-size="12" x="106.77" y="775.64">5</text><circle cx="133.77" cy="786.23" fill="black" r="1.476" stroke="none" /><circle cx="133.77" cy="786.23" fill="black" r="1.476" stroke="none" /><text fill="black" font-family="monospace" font-size="12" x="130.77" y="775.64">6</text><circle cx="157.77" cy="786.23" fill="black" r="1.17" stroke="none" /><circle cx="157.77" cy="786.23" fill="black" r="1.17" stroke="none" /><text fill="black" font-family="monospace" font-size="12" x="154.77" y="775.64">7</text><circle cx="181.77" cy="786.23" fill="black" r="0.936" stroke="none" /><circle cx="181.77" cy="786.23" fill="black" r="0.936" stroke="none" /><text fill="black" font-family="monospace" font-size="12" x="178.77" y="775.64">8</text><circle cx="205.77" cy="786.23" fill="black" r="0.738" stroke="none" /><circle cx="205.77" cy="786.23" fill="black" r="0.738" stroke="none" /><text fill="black" font-family="monospace" font-size="12" x="202.77" y="775.64">9</text><text fill="gray" fill-opacity="0.5" font-family="monospace" font-size="12" x="698.2743114873019" y="76.60675051616818">22h55m</text><text fill="gray" fill-opacity="0.5" font-family="monospace" font-size="12" x="597.3508266201725" y="74.37291977627274">23h00m</text><text fill="gray" fill-opacity="0.5" font-family="monospace" font-size="12" x="496.45027962736594" y="73.04924085174684">23h05m</text><text fill="gray" fill-opacity="0.5" font-family="monospace" font-size="12" x="395.56094422721253" y="72.6347756524354">23h10m</text><text fill="gray" fill-opacity="0.5" font-family="monospace" font-size="12" x="294.67109280302884" y="73.12923050176039">23h15m</text><text fill="gray" fill-opacity="0.5" font-family="monospace" font-size="12" x="193.76899779940172" y="74.53295575736342">23h20m</text><text fill="gray" fill-opacity="0.5" font-family="monospace" font-size="12" x="92.84293311957884" y="76.84694626368474">23h25m</text><text fill="gray" fill-opacity="0.5" font-family="monospace" font-size="12" x="83.33297901746084" y="732.82315467983">-30°</text><text fill="gray" fill-opacity="0.5" font-family="monospace" font-size="12" x="80.3456091616892" y="645.4458996653692">-29°</text><text fill="gray" fill-opacity="0.5" font-family="monospace" font-size="12" x="77.4094311811408" y="558.1027018944101">-28°</text><text fill="gray" fill-opacity="0.5" font-family="monospace" font-size="12" x="74.52394885402055" y="470.7802873175766">-27°</text><text fill="gray" fill-opacity="0.5" font-family="monospace" font-size="12" x="71.68869682781377" y="383.4653944884191">-26°</text><text fill="gray" fill-opacity="0.5" font-family="monospace" font-size="12" x="68.90324031218097" y="296.1447665185394">-25°</text><text fill="gray" fill-opacity="0.5" font-family="monospace" font-size="12" x="66.16717481135316" y="208.80514303858516">-24°</text><text fill="gray" fill-opacity="0.5" font-family="monospace" font-size="12" x="63.4801258956781" y="121.43325215475375">-23°</text><text fill="black" font-family="monospace" font-size="12" x="12" y="48">&gt;&gt; No.267 22h53m 23h27m -30.0°-22.5°</text><a target="_self" xlink:href="hip013.svg"><text fill="black" font-family="monospace" font-size="12" x="12" y="36">&gt; No.13 21h00m 24h00m -52.5°-22.5°</text></a><a target="_self" xlink:href="hip001.svg"><text fill="black" font-family="monospace" font-size="12" x="12" y="24">No.1 00h 24h -90.0°+0.0°</text></a><polyline fill="none" points="737.8451,77.7311 728.5576,77.4546 718.4628,77.1629 708.3684,76.8802 698.2743,76.6068 688.1806,76.3424 678.0872,76.0871 667.9942,75.841 657.9014,75.6039 647.809,75.376 637.7168,75.1572 627.6249,74.9474 617.5333,74.7468 607.4419,74.5553 597.3508,74.3729 587.2599,74.1996 577.1693,74.0354 567.0788,73.8803 556.9885,73.7343 546.8984,73.5974 536.8085,73.4696 526.7187,73.3508 516.6291,73.2412 506.5396,73.1407 496.4503,73.0492 486.361,72.9669 476.2719,72.8936 466.1828,72.8295 456.0939,72.7744 446.0049,72.7284 435.9161,72.6915 425.8273,72.6637 415.7385,72.645 405.6497,72.6353 395.5609,72.6348 385.4722,72.6433 375.3834,72.661 365.2946,72.6877 355.2057,72.7235 345.1168,72.7684 335.0278,72.8224 324.9388,72.8854 314.8497,72.9576 304.7604,73.0389 294.6711,73.1292 284.5816,73.2287 274.492,73.3372 264.4023,73.4548 254.3124,73.5816 244.2223,73.7174 234.1321,73.8623 224.0416,74.0163 213.951,74.1794 203.8601,74.3516 193.769,74.533 183.6777,74.7234 173.5861,74.9229 163.4942,75.1315 153.4021,75.3492 143.3097,75.5761 133.217,75.812 123.124,76.0571 113.0306,76.3113 102.937,76.5745 92.8429,76.8469 82.7486,77.1285 72.6538,77.4191 62.5587,77.7189 62.1549,77.7311" stroke="black" stroke-opacity="0.5" stroke-width="1" /><polyline fill="none" points="716.667,732.8232 717.0433,721.8987 717.4187,710.9749 717.7933,700.0518 718.1671,689.1294 718.5402,678.2077 718.9124,667.2865 719.2838,656.3659 719.6544,645.4459 720.0242,634.5264 720.3932,623.6074 720.7614,612.6889 721.1288,601.7709 721.4955,590.8533 721.8613,579.936 722.2263,569.0192 722.5906,558.1027 722.954,547.1865 723.3167,536.2707 723.6785,525.3551 724.0396,514.4397 724.3999,503.5246 724.7594,492.6097 725.1181,481.6949 725.4761,470.7803 725.8332,459.8658 726.1896,448.9514 726.5451,438.037 726.8999,427.1227 727.2539,416.2084 727.6072,405.2941 727.9596,394.3798 728.3113,383.4654 728.6622,372.5509 729.0123,361.6363 729.3617,350.7215 729.7102,339.8066 730.058,328.8915 730.405,317.9762 730.7513,307.0606 731.0968,296.1448 731.4415,285.2286 731.7854,274.3122 732.1286,263.3953 732.4709,252.4782 732.8126,241.5606 733.1534,230.6426 733.4935,219.7241 733.8328,208.8051 734.1714,197.8857 734.5092,186.9657 734.8462,176.0452 735.1825,165.1241 735.518,154.2023 735.8527,143.28 736.1867,132.357 736.5199,121.4333 736.8523,110.5088 737.184,99.5837 737.515,88.6578 737.8451,77.7311" stroke="black" stroke-opacity="0.5" stroke-width="1" /><polyline fill="none" points="716.667,732.8232 707.9628,732.5272 698.502,732.2149 689.0414,731.9123 679.581,731.6195 670.1209,731.3365 660.6609,731.0632 651.2012,730.7997 641.7416,730.5459 632.2823,730.3019 622.8231,730.0676 613.3641,729.8431 603.9053,729.6283 594.4467,729.4233 584.9882,729.228 575.5298,729.0425 566.0716,728.8667 556.6135,728.7006 547.1556,728.5443 537.6977,728.3977 528.24,728.2608 518.7823,728.1337 509.3248,728.0163 499.8673,727.9087 490.41,727.8108 480.9527,727.7226 471.4954,727.6442 462.0382,727.5755 452.5811,727.5165 443.124,727.4673 433.667,727.4278 424.2099,727.398 414.7529,727.3779 405.2959,727.3676 395.8389,727.367 386.3819,727.3762 376.9249,727.3951 367.4679,727.4237 358.0108,727.462 348.5537,727.5101 339.0966,727.5679 329.6394,727.6354 320.1822,727.7127 310.7249,727.7997 301.2675,727.8964 291.8101,728.0029 282.3526,728.1191 272.8949,728.2451 263.4372,728.3807 253.9794,728.5262 244.5214,728.6813 235.0634,728.8462 225.6052,729.0208 216.1468,729.2052 206.6884,729.3993 197.2297,729.6032 187.7709,729.8168 178.312,730.0402 168.8528,730.2733 159.3935,730.5161 149.934,730.7687 140.4743,731.0311 131.0143,731.3032 121.5542,731.5851 112.0939,731.8767 102.6333,732.1781 93.1725,732.4892 83.7114,732.8101 83.333,732.8232" stroke="black" stroke-opacity="0.5" stroke-width="1" /><polyline fill="none" points="83.333,732.8232 82.9567,721.8987 82.5813,710.9749 82.2067,700.0518 81.8329,689.1294 81.4598,678.2077 81.0876,667.2865 80.7162,656.3659 80.3456,645.4459 79.9758,634.5264 79.6068,623.6074 79.2386,612.6889 78.8712,601.7709 78.5045,590.8533 78.1387,579.936 77.7737,569.0192 77.4094,558.1027 77.046,547.1865 76.6833,536.2707 76.3215,525.3551 75.9604,514.4397 75.6001,503.5246 75.2406,492.6097 74.8819,481.6949 74.5239,470.7803 74.1668,459.8658 73.8104,448.9514 73.4549,438.037 73.1001,427.1227 72.7461,416.2084 72.3928,405.2941 72.0404,394.3798 71.6887,383.4654 71.3378,372.5509 70.9877,361.6363 70.6383,350.7215 70.2898,339.8066 69.942,328.8915 69.595,317.9762 69.2487,307.0606 68.9032,296.1448 68.5585,285.2286 68.2146,274.3122 67.8714,263.3953 67.5291,252.4782 67.1874,241.5606 66.8466,230.6426 66.5065,219.7241 66.1672,208.8051 65.8286,197.8857 65.4908,186.9657 65.1538,176.0452 64.8175,165.1241 64.482,154.2023 64.1473,143.28 63.8133,132.357 63.4801,121.4333 63.1477,110.5088 62.816,99.5837 62.485,88.6578 62.1549,77.7311" stroke="black" stroke-opacity="0.5" stroke-width="1" /></svg>