<?xml version="1.0" encoding="utf-8" ?>
<svg baseProfile="tiny" height="800" version="1.2" width="800" xmlns="http://www.w3.org/2000/svg" xmlns:ev="http://www.w3.org/2001/xml-events" xmlns:xlink="http://www.w3.org/1999/xlink"><defs /><rect fill="none" height="800" stroke="black" stroke-width="2" width="800" x="0" y="0" /><polyline fill="none" points="639.4714,730.4865 639.7558,719.5641 640.0396,708.6424 640.3227,697.7214 640.6053,686.8012 640.8873,675.8815 641.1686,664.9625 641.4494,654.0441 641.7295,643.1263 642.009,632.209 642.288,621.2923 642.5663,610.376 642.844,599.4603 643.1211,588.5449 643.3976,577.63 643.6736,566.7155 643.9489,555.8013 644.2236,544.8875 644.4977,533.974 644.7713,523.0608 645.0442,512.1478 645.3165,501.2351 645.5883,490.3226 645.8594,479.4103 646.1299,468.4982 646.3999,457.5862 646.6693,446.6742 646.938,435.7624 647.2062,424.8506 647.4738,413.9389 647.7408,403.0272 648.0072,392.1154 648.273,381.2036 648.5383,370.2917 648.8029,359.3797 649.0669,348.4676 649.3304,337.5554 649.5933,326.6429 649.8556,315.7303 650.1173,304.8174 650.3784,293.9043 650.639,282.9909 650.8989,272.0772 651.1583,261.1632 651.4171,250.2488 651.6753,239.334 651.933,228.4188 652.19,217.5031 652.4465,206.587 652.7024,195.6705 652.9577,184.7534 653.2125,173.8357 653.4666,162.9175 653.7202,151.9987 653.9732,141.0793 654.2257,130.1593 654.4775,119.2385 654.7288,108.3171 654.9795,97.3949 655.2296,86.4721 655.4792,75.5484" stroke="silver" stroke-opacity="0.5" stroke-width="1" /><polyline fill="none" points="544.8857,728.5082 545.0577,717.5876 545.2293,706.6677 545.4006,695.7485 545.5714,684.83 545.742,673.9122 545.9121,662.9951 546.0819,652.0785 546.2514,641.1626 546.4204,630.2472 546.5891,619.3323 546.7574,608.418 546.9254,597.5041 547.093,586.5907 547.2602,575.6777 547.4271,564.7652 547.5936,553.853 547.7598,542.9412 547.9256,532.0297 548.091,521.1185 548.256,510.2076 548.4207,499.2969 548.5851,488.3865 548.7491,477.4762 548.9127,466.5662 549.076,455.6562 549.2389,444.7464 549.4014,433.8367 549.5636,422.9271 549.7254,412.0175 549.8869,401.108 550.048,390.1984 550.2088,379.2888 550.3692,368.3791 550.5292,357.4694 550.6889,346.5595 550.8483,335.6495 551.0073,324.7393 551.1659,313.829 551.3242,302.9184 551.4821,292.0076 551.6397,281.0965 551.7969,270.1851 551.9537,259.2734 552.1103,248.3614 552.2664,237.449 552.4222,226.5362 552.5777,215.6229 552.7328,204.7093 552.8876,193.7951 553.042,182.8805 553.196,171.9653 553.3497,161.0495 553.5031,150.1332 553.6561,139.2163 553.8088,128.2987 553.9611,117.3805 554.1131,106.4616 554.2647,95.542 554.4159,84.6217 554.5669,73.7006" stroke="silver" stroke-opacity="0.5" stroke-width="1" /><polyline fill="none" points="450.3114,727.5038 450.3711,716.5841 450.4307,705.6651 450.4902,694.7468 450.5495,683.8293 450.6087,672.9124 450.6678,661.9962 450.7267,651.0806 450.7855,640.1656 450.8442,629.2511 450.9028,618.3372 450.9613,607.4238 451.0196,596.5109 451.0778,585.5985 451.1358,574.6865 451.1937,563.775 451.2516,552.8638 451.3092,541.953 451.3668,531.0425 451.4242,520.1323 451.4815,509.2225 451.5387,498.3128 451.5958,487.4035 451.6527,476.4943 451.7095,465.5853 451.7662,454.6764 451.8228,443.7677 451.8792,432.8591 451.9355,421.9505 451.9917,411.0421 452.0477,400.1336 452.1037,389.2251 452.1595,378.3166 452.2152,367.4081 452.2707,356.4995 452.3262,345.5907 452.3815,334.6819 452.4367,323.7729 452.4918,312.8637 452.5467,301.9543 452.6016,291.0446 452.6563,280.1347 452.7108,269.2245 452.7653,258.314 452.8196,247.4032 452.8739,236.492 452.9279,225.5804 452.9819,214.6684 453.0358,203.7559 453.0895,192.843 453.1431,181.9296 453.1966,171.0157 453.25,160.1012 453.3032,149.1861 453.3563,138.2705 453.4093,127.3542 453.4622,116.4373 453.515,105.5197 453.5676,94.6013 453.6201,83.6823 453.6725,72.7625" stroke="silver" stroke-opacity="0.5" stroke-width="1" /><polyline fill="none" points="355.7411,727.4727 355.6886,716.553 355.6362,705.634 355.5839,694.7158 355.5317,683.7983 355.4796,672.8814 355.4276,661.9652 355.3758,651.0496 355.324,640.1346 355.2724,629.2202 355.2209,618.3064 355.1695,607.393 355.1182,596.4802 355.067,585.5678 355.0159,574.6558 354.9649,563.7443 354.9141,552.8331 354.8633,541.9224 354.8127,531.0119 354.7622,520.1018 354.7118,509.1919 354.6615,498.2823 354.6113,487.373 354.5612,476.4638 354.5112,465.5549 354.4614,454.646 354.4116,443.7374 354.362,432.8288 354.3124,421.9203 354.263,411.0118 354.2137,400.1034 354.1645,389.195 354.1154,378.2865 354.0664,367.378 354.0175,356.4694 353.9687,345.5607 353.9201,334.6519 353.8715,323.7429 353.8231,312.8337 353.7747,301.9244 353.7265,291.0148 353.6784,280.1049 353.6304,269.1947 353.5825,258.2843 353.5347,247.3735 353.487,236.4623 353.4394,225.5508 353.3919,214.6388 353.3445,203.7264 353.2973,192.8135 353.2501,181.9001 353.2031,170.9862 353.1561,160.0718 353.1093,149.1568 353.0625,138.2411 353.0159,127.3249 352.9694,116.408 352.923,105.4904 352.8767,94.5722 352.8305,83.6532 352.7844,72.7334" stroke="silver" stroke-opacity="0.5" stroke-width="1" /><polyline fill="none" points="261.1674,728.4148 261.0025,717.4942 260.8381,706.5744 260.674,695.6553 260.5102,684.7369 260.3468,673.8192 260.1838,662.9021 260.0211,651.9857 259.8587,641.0698 259.6968,630.1545 259.5351,619.2397 259.3738,608.3255 259.2129,597.4117 259.0523,586.4984 258.892,575.5855 258.7321,564.673 258.5726,553.761 258.4134,542.8492 258.2545,531.9378 258.096,521.0267 257.9378,510.1159 257.78,499.2053 257.6226,488.295 257.4654,477.3849 257.3086,466.4749 257.1522,455.5651 256.9961,444.6554 256.8403,433.7458 256.6849,422.8363 256.5299,411.9268 256.3751,401.0173 256.2208,390.1078 256.0667,379.1983 255.913,368.2888 255.7597,357.3791 255.6066,346.4694 255.454,335.5595 255.3016,324.6494 255.1496,313.7392 254.998,302.8287 254.8466,291.918 254.6956,281.007 254.545,270.0958 254.3947,259.1842 254.2447,248.2722 254.0951,237.36 253.9458,226.4473 253.7968,215.5341 253.6482,204.6206 253.4999,193.7065 253.3519,182.792 253.2043,171.8769 253.057,160.9613 252.9101,150.0451 252.7635,139.1283 252.6172,128.2109 252.4712,117.2928 252.3256,106.374 252.1803,95.4545 252.0354,84.5343 251.8908,73.6133" stroke="silver" stroke-opacity="0.5" stroke-width="1" /><polyline fill="none" points="166.5826,730.3307 166.3054,719.4084 166.0288,708.4869 165.7528,697.5661 165.4774,686.6459 165.2026,675.7264 164.9283,664.8076 164.6547,653.8893 164.3816,642.9717 164.1092,632.0545 163.8373,621.1379 163.566,610.2218 163.2953,599.3062 163.0252,588.391 162.7557,577.4763 162.4868,566.5619 162.2184,555.6479 161.9506,544.7342 161.6835,533.8209 161.4169,522.9078 161.1508,511.995 160.8854,501.0825 160.6205,490.1702 160.3563,479.258 160.0926,468.346 159.8294,457.4342 159.5669,446.5224 159.3049,435.6108 159.0435,424.6991 158.7827,413.7876 158.5225,402.876 158.2628,391.9644 158.0037,381.0528 157.7452,370.1411 157.4873,359.2293 157.2299,348.3173 156.9731,337.4053 156.7169,326.493 156.4612,315.5806 156.2061,304.6679 155.9516,293.7549 155.6976,282.8417 155.4443,271.9282 155.1915,261.0143 154.9392,250.1001 154.6875,239.1855 154.4364,228.2705 154.1859,217.3551 153.9359,206.4392 153.6865,195.5228 153.4376,184.6059 153.1893,173.6884 152.9416,162.7704 152.6944,151.8518 152.4478,140.9326 152.2018,130.0127 151.9563,119.0922 151.7114,108.171 151.467,97.249 151.2232,86.3263 150.98,75.4029" stroke="silver" stroke-opacity="0.5" stroke-width="1" /><polyline fill="none" points="716.667,732.8232 715.1532,732.7711 705.6922,732.4514 696.2314,732.1414 686.7709,731.8412 677.3106,731.5507 667.8505,731.27 658.3906,730.9991 648.9309,730.7379 639.4714,730.4865 630.0121,730.2448 620.553,730.0128 611.094,729.7907 601.6352,729.5782 592.1766,729.3755 582.7182,729.1826 573.2598,728.9994 563.8016,728.8259 554.3436,728.6622 544.8857,728.5082 535.4278,728.3639 525.9701,728.2294 516.5125,728.1047 507.055,727.9896 497.5976,727.8843 488.1402,727.7888 478.6829,727.7029 469.2257,727.6268 459.7685,727.5604 450.3114,727.5038 440.8543,727.4569 431.3973,727.4197 421.9402,727.3923 412.4832,727.3746 403.0262,727.3666 393.5692,727.3684 384.1122,727.3798 374.6552,727.4011 365.1982,727.432 355.7411,727.4727 346.284,727.5231 336.8269,727.5832 327.3697,727.6531 317.9125,727.7327 308.4551,727.822 298.9978,727.9211 289.5403,728.0299 280.0828,728.1485 270.6251,728.2767 261.1674,728.4148 251.7095,728.5625 242.2515,728.72 232.7934,728.8872 223.3352,729.0642 213.8768,729.2509 204.4183,729.4474 194.9596,729.6536 185.5008,729.8695 176.0418,730.0952 166.5826,730.3307 157.1232,730.5759 147.6637,730.8308 138.2039,731.0955 128.7439,731.3699 119.2838,731.6542 109.8234,731.9481 100.3627,732.2518 90.9019,732.5653 83.333,732.8232" stroke="silver" stroke-opacity="0.5" stroke-width="1" /><polyline fill="none" points="719.6544,645.4459 718.1263,645.3942 708.5758,645.0768 699.0256,644.7691 689.4757,644.4711 679.926,644.1828 670.3765,643.9041 660.8273,643.6352 651.2783,643.3759 641.7295,643.1263 632.1809,642.8864 622.6325,642.6562 613.0843,642.4356 603.5362,642.2247 593.9884,642.0235 584.4407,641.832 574.8931,641.6501 565.3457,641.4779 555.7985,641.3154 546.2514,641.1626 536.7043,641.0194 527.1575,640.8859 517.6107,640.762 508.064,640.6478 498.5174,640.5433 488.9709,640.4484 479.4245,640.3632 469.8781,640.2877 460.3318,640.2218 450.7855,640.1656 441.2393,640.119 431.6932,640.0821 422.147,640.0548 412.6009,640.0373 403.0548,640.0293 393.5086,640.0311 383.9625,640.0425 374.4164,640.0635 364.8702,640.0943 355.324,640.1346 345.7778,640.1847 336.2315,640.2444 326.6852,640.3137 317.1388,640.3928 307.5924,640.4814 298.0458,640.5798 288.4992,640.6878 278.9525,640.8055 269.4057,640.9328 259.8587,641.0698 250.3117,641.2165 240.7645,641.3728 231.2172,641.5388 221.6698,641.7145 212.1222,641.8998 202.5744,642.0949 193.0265,642.2995 183.4784,642.5139 173.9301,642.7379 164.3816,642.9717 154.833,643.2151 145.2841,643.4681 135.735,643.7309 126.1857,644.0033 116.6361,644.2855 107.0863,644.5773 97.5363,644.8788 87.986,645.19 80.3456,645.4459" stroke="silver" stroke-opacity="0.5" stroke-width="1" /><polyline fill="none" points="722.5906,558.1027 721.0484,558.0514 711.4101,557.7365 701.772,557.4312 692.1342,557.1356 682.4966,556.8495 672.8593,556.573 663.2223,556.3062 653.5855,556.049 643.9489,555.8013 634.3125,555.5633 624.6764,555.3349 615.0404,555.116 605.4046,554.9068 595.7691,554.7072 586.1337,554.5172 576.4984,554.3367 566.8633,554.1659 557.2284,554.0046 547.5936,553.853 537.959,553.7109 528.3244,553.5784 518.69,553.4556 509.0557,553.3423 499.4215,553.2386 489.7873,553.1444 480.1533,553.0599 470.5193,552.9849 460.8854,552.9196 451.2516,552.8638 441.6177,552.8176 431.984,552.781 422.3502,552.754 412.7165,552.7365 403.0828,552.7287 393.4491,552.7304 383.8154,552.7417 374.1816,552.7626 364.5479,552.7931 354.9141,552.8331 345.2803,552.8828 335.6464,552.942 326.0125,553.0108 316.3785,553.0892 306.7444,553.1772 297.1102,553.2748 287.476,553.3819 277.8416,553.4987 268.2072,553.625 258.5726,553.761 248.9379,553.9065 239.303,554.0616 229.668,554.2263 220.0329,554.4006 210.3976,554.5845 200.7621,554.778 191.1265,554.981 181.4907,555.1937 171.8546,555.416 162.2184,555.6479 152.582,555.8894 142.9453,556.1405 133.3084,556.4011 123.6713,556.6715 114.0339,556.9514 104.3963,557.2409 94.7583,557.54 85.1202,557.8488 77.4094,558.1027" stroke="silver" stroke-opacity="0.5" stroke-width="1" /><polyline fill="none" points="725.4761,470.7803 723.9201,470.7294 714.1953,470.4172 704.4709,470.1144 694.7467,469.8212 685.0229,469.5376 675.2992,469.2634 665.5759,468.9988 655.8528,468.7437 646.1299,468.4982 636.4073,468.2621 626.6849,468.0356 616.9627,467.8186 607.2408,467.6112 597.519,467.4132 587.7974,467.2248 578.076,467.0458 568.3547,466.8764 558.6336,466.7165 548.9127,466.5662 539.1919,466.4253 529.4712,466.2939 519.7507,466.1721 510.0302,466.0597 500.3099,465.9569 490.5897,465.8635 480.8695,465.7797 471.1495,465.7054 461.4295,465.6406 451.7095,465.5853 441.9896,465.5395 432.2698,465.5032 422.5499,465.4764 412.8301,465.4591 403.1103,465.4513 393.3905,465.453 383.6707,465.4642 373.9509,465.4849 364.2311,465.5151 354.5112,465.5549 344.7913,465.6041 335.0713,465.6628 325.3513,465.7311 315.6312,465.8088 305.911,465.896 296.1908,465.9928 286.4704,466.0991 276.7499,466.2148 267.0294,466.3401 257.3086,466.4749 247.5878,466.6192 237.8668,466.773 228.1456,466.9363 218.4243,467.1092 208.7029,467.2915 198.9812,467.4834 189.2593,467.6848 179.5373,467.8957 169.815,468.1161 160.0926,468.346 150.3699,468.5855 140.6469,468.8345 130.9237,469.093 121.2003,469.361 111.4766,469.6386 101.7526,469.9257 92.0284,470.2223 82.3038,470.5285 74.5239,470.7803" stroke="silver" stroke-opacity="0.5" stroke-width="1" /><polyline fill="none" points="728.3113,383.4654 726.7417,383.415 716.9321,383.1055 707.1228,382.8055 697.3138,382.5149 687.5051,382.2337 677.6967,381.962 667.8885,381.6998 658.0806,381.447 648.273,381.2036 638.4656,380.9697 628.6585,380.7452 618.8516,380.5301 609.0449,380.3245 599.2384,380.1283 589.4321,379.9415 579.626,379.7642 569.8201,379.5963 560.0144,379.4378 550.2088,379.2888 540.4033,379.1492 530.598,379.019 520.7929,378.8982 510.9878,378.7869 501.1829,378.6849 491.378,378.5924 481.5733,378.5094 471.7686,378.4357 461.964,378.3715 452.1595,378.3166 442.355,378.2712 432.5506,378.2353 422.7462,378.2087 412.9418,378.1916 403.1374,378.1838 393.333,378.1855 383.5287,378.1966 373.7243,378.2172 363.9198,378.2471 354.1154,378.2865 344.3109,378.3353 334.5063,378.3935 324.7017,378.4611 314.897,378.5382 305.0922,378.6246 295.2874,378.7205 285.4824,378.8259 275.6773,378.9406 265.8721,379.0648 256.0667,379.1983 246.2612,379.3414 236.4556,379.4938 226.6498,379.6557 216.8438,379.827 207.0376,380.0077 197.2313,380.1978 187.4247,380.3974 177.6179,380.6064 167.8109,380.8249 158.0037,381.0528 148.1963,381.2901 138.3886,381.5369 128.5806,381.7931 118.7723,382.0587 108.9638,382.3338 99.155,382.6184 89.3459,382.9124 79.5365,383.2158 71.6887,383.4654" stroke="silver" stroke-opacity="0.5" stroke-width="1" /><polyline fill="none" points="731.0968,296.1448 729.5138,296.0948 719.6208,295.7883 709.7281,295.4911 699.8358,295.2032 689.9437,294.9247 680.052,294.6556 670.1605,294.3958 660.2693,294.1454 650.3784,293.9043 640.4878,293.6726 630.5974,293.4502 620.7073,293.2372 610.8173,293.0335 600.9276,292.8392 591.0382,292.6542 581.1489,292.4785 571.2598,292.3122 561.3708,292.1552 551.4821,292.0076 541.5935,291.8693 531.705,291.7403 521.8167,291.6207 511.9286,291.5104 502.0405,291.4094 492.1525,291.3178 482.2647,291.2355 472.3769,291.1626 462.4892,291.0989 452.6016,291.0446 442.714,290.9997 432.8264,290.964 422.9389,290.9377 413.0515,290.9207 403.164,290.9131 393.2765,290.9148 383.3891,290.9258 373.5016,290.9461 363.6141,290.9758 353.7265,291.0148 343.8389,291.0631 333.9512,291.1208 324.0635,291.1877 314.1757,291.2641 304.2878,291.3497 294.3998,291.4447 284.5117,291.549 274.6235,291.6627 264.7351,291.7857 254.8466,291.918 244.958,292.0597 235.0692,292.2107 225.1802,292.371 215.291,292.5407 205.4017,292.7197 195.5121,292.908 185.6223,293.1057 175.7323,293.3128 165.8421,293.5292 155.9516,293.7549 146.0609,293.99 136.1699,294.2345 126.2786,294.4882 116.387,294.7514 106.4952,295.0239 96.603,295.3058 86.7105,295.597 76.8177,295.8976 68.9032,296.1448" stroke="silver" stroke-opacity="0.5" stroke-width="1" /><polyline fill="none" points="733.8328,208.8051 732.2368,208.7557 722.2619,208.4522 712.2873,208.158 702.313,207.873 692.3391,207.5973 682.3655,207.3308 672.3922,207.0736 662.4192,206.8257 652.4465,206.587 642.4741,206.3576 632.5019,206.1375 622.53,205.9266 612.5583,205.7249 602.5869,205.5325 592.6157,205.3494 582.6447,205.1755 572.6739,205.0108 562.7032,204.8554 552.7328,204.7093 542.7625,204.5723 532.7924,204.4447 522.8224,204.3262 512.8526,204.2171 502.8829,204.1171 492.9133,204.0264 482.9438,203.9449 472.9744,203.8727 463.005,203.8097 453.0358,203.7559 443.0666,203.7114 433.0974,203.6761 423.1283,203.6501 413.1592,203.6333 403.1901,203.6257 393.221,203.6274 383.2519,203.6383 373.2828,203.6584 363.3137,203.6878 353.3445,203.7264 343.3753,203.7742 333.406,203.8313 323.4367,203.8976 313.4672,203.9732 303.4977,204.058 293.528,204.152 283.5583,204.2553 273.5884,204.3678 263.6184,204.4896 253.6482,204.6206 243.6779,204.7608 233.7074,204.9103 223.7367,205.069 213.7658,205.237 203.7947,205.4143 193.8234,205.6007 183.8519,205.7965 173.8801,206.0014 163.9081,206.2157 153.9359,206.4392 143.9633,206.6719 133.9905,206.9139 124.0174,207.1652 114.044,207.4257 104.0703,207.6955 94.0963,207.9745 84.1219,208.2628 74.1472,208.5604 66.1672,208.8051" stroke="silver" stroke-opacity="0.5" stroke-width="1" /><polyline fill="none" points="736.5199,121.4333 734.911,121.3843 724.8556,121.084 714.8006,120.7929 704.7459,120.5109 694.6916,120.2381 684.6376,119.9745 674.5839,119.72 664.5306,119.4747 654.4775,119.2385 644.4248,119.0115 634.3723,118.7937 624.3201,118.585 614.2681,118.3855 604.2164,118.1951 594.1649,118.0139 584.1137,117.8418 574.0626,117.6789 564.0118,117.5252 553.9611,117.3805 543.9106,117.2451 533.8603,117.1187 523.8101,117.0016 513.7601,116.8935 503.7102,116.7946 493.6604,116.7049 483.6107,116.6242 473.5611,116.5528 463.5116,116.4904 453.4622,116.4373 443.4128,116.3932 433.3635,116.3583 423.3142,116.3325 413.265,116.3159 403.2158,116.3084 393.1665,116.31 383.1173,116.3208 373.068,116.3407 363.0187,116.3698 352.9694,116.408 342.92,116.4554 332.8706,116.5118 322.821,116.5775 312.7714,116.6522 302.7217,116.7361 292.6719,116.8292 282.6219,116.9314 272.5719,117.0427 262.5216,117.1632 252.4712,117.2928 242.4207,117.4315 232.37,117.5795 222.319,117.7365 212.2679,117.9027 202.2166,118.0781 192.165,118.2626 182.1132,118.4563 172.0612,118.6591 162.0089,118.8711 151.9563,119.0922 141.9034,119.3225 131.8503,119.5619 121.7968,119.8105 111.743,120.0683 101.6889,120.3353 91.6345,120.6114 81.5797,120.8966 71.5245,121.1911 63.4801,121.4333" stroke="silver" stroke-opacity="0.5" stroke-width="1" /><circle cx="724.7739" cy="398.2981" fill="black" r="0.738" stroke="none" /><circle cx="709.1334" cy="731.5166" fill="black" r="0.738" stroke="none" /><circle cx="725.2149" cy="176.627" fill="black" r="1.17" stroke="none" /><circle cx="702.8469" cy="346.6747" fill="black" r="0.936" stroke="none" /><circle cx="700.4926" cy="117.0714" fill="black" r="0.738" stroke="none" /><circle cx="689.3938" cy="490.4609" fill="black" r="0.738" stroke="none" /><circle cx="686.049" cy="495.9559" fill="black" r="0.738" stroke="none" /><circle cx="676.7686" cy="676.0017" fill="black" r="0.738" stroke="none" /><circle cx="683.1431" cy="392.2467" fill="black" r="0.738" stroke="none" /><circle cx="669.8685" cy="550.3723" fill="black" r="0.738" stroke="none" /><circle cx="665.4799" cy="654.867" fill="black" r="0.738" stroke="none" /><circle cx="662.8412" cy="645.4394" fill="black" r="0.738" stroke="none" /><circle cx="671.5211" cy="315.1373" fill="black" r="0.738" stroke="none" /><circle cx="668.254" cy="400.5791" fill="black" r="0.738" stroke="none" /><circle cx="667.7817" cy="400.654" fill="black" r="0.738" stroke="none" /><circle cx="666.5487" cy="384.8969" fill="black" r="0.738" stroke="none" /><circle cx="666.3127" cy="233.2239" fill="black" r="0.738" stroke="none" /><circle cx="651.6335" cy="359.4487" fill="black" r="0.738" stroke="none" /><circle cx="636.1907" cy="716.6742" fill="black" r="0.738" stroke="none" /><circle cx="643.4742" cy="256.8777" fill="black" r="0.738" stroke="none" /><circle cx="633.7441" cy="492.0441" fill="black" r="0.738" stroke="none" /><circle cx="630.9339" cy="110.0684" fill="black" r="0.738" stroke="none" /><circle cx="618.7613" cy="495.5434" fill="black" r="0.936" stroke="none" /><circle cx="616.2116" cy="466.5796" fill="black" r="0.738" stroke="none" /><circle cx="609.4222" cy="603.9983" fill="black" r="0.738" stroke="none" /><circle cx="614.9383" cy="182.3594" fill="black" r="0.738" stroke="none" /><circle cx="614.5489" cy="181.8275" fill="black" r="0.738" stroke="none" /><circle cx="602.8139" cy="459.5734" fill="black" r="0.738" stroke="none" /><circle cx="597.0645" cy="532.6374" fill="black" r="0.738" stroke="none" /><circle cx="592.7722" cy="503.2966" fill="black" r="0.738" stroke="none" /><circle cx="579.7511" cy="679.1358" fill="black" r="0.738" stroke="none" /><circle cx="579.7747" cy="433.1124" fill="black" r="0.738" stroke="none" /><circle cx="579.8498" cy="353.5754" fill="black" r="0.738" stroke="none" /><circle cx="571.0135" cy="283.1401" fill="black" r="0.738" stroke="none" /><circle cx="564.9607" cy="213.7104" fill="black" r="0.738" stroke="none" /><circle cx="561.7097" cy="159.0739" fill="black" r="0.738" stroke="none" /><circle cx="554.5036" cy="603.475" fill="black" r="0.738" stroke="none" /><circle cx="558.2739" cy="74.1893" fill="black" r="0.738" stroke="none" /><circle cx="554.8053" cy="182.5562" fill="black" r="0.738" stroke="none" /><circle cx="547.2856" cy="407.7042" fill="black" r="0.738" stroke="none" /><circle cx="548.3324" cy="182.3783" fill="black" r="0.738" stroke="none" /><circle cx="534.7393" cy="546.8554" fill="black" r="0.738" stroke="none" /><circle cx="528.1684" cy="678.6338" fill="black" r="0.738" stroke="none" /><circle cx="529.1204" cy="433.2062" fill="black" r="0.738" stroke="none" /><circle cx="513.3991" cy="345.1216" fill="black" r="0.936" stroke="none" /><circle cx="506.5208" cy="642.0276" fill="black" r="0.738" stroke="none" /><circle cx="503.5561" cy="257.9035" fill="black" r="0.738" stroke="none" /><circle cx="502.5784" cy="348.936" fill="black" r="0.738" stroke="none" /><circle cx="501.3516" cy="171.7074" fill="black" r="0.738" stroke="none" /><circle cx="490.8512" cy="183.6646" fill="black" r="0.738" stroke="none" /><circle cx="486.688" cy="367.3801" fill="black" r="0.738" stroke="none" /><circle cx="479.1932" cy="640.6232" fill="black" r="0.738" stroke="none" /><circle cx="480.9092" cy="112.2369" fill="black" r="0.738" stroke="none" /><circle cx="454.8637" cy="341.9385" fill="black" r="0.936" stroke="none" /><circle cx="451.6304" cy="230.5499" fill="black" r="0.738" stroke="none" /><circle cx="446.7886" cy="281.9399" fill="black" r="0.738" stroke="none" /><circle cx="445.8776" cy="199.0959" fill="black" r="0.738" stroke="none" /><circle cx="443.1813" cy="582.2424" fill="black" r="0.738" stroke="none" /><circle cx="441.688" cy="481.7711" fill="black" r="0.738" stroke="none" /><circle cx="441.8861" cy="415.7949" fill="black" r="0.738" stroke="none" /><circle cx="436.9091" cy="614.6055" fill="black" r="0.738" stroke="none" /><circle cx="435.3682" cy="446.925" fill="black" r="0.738" stroke="none" /><circle cx="433.4665" cy="161.5942" fill="black" r="0.738" stroke="none" /><circle cx="427.7097" cy="618.1539" fill="black" r="0.738" stroke="none" /><circle cx="423.9155" cy="543.0689" fill="black" r="0.738" stroke="none" /><circle cx="413.8553" cy="564.7839" fill="black" r="0.738" stroke="none" /><circle cx="413.3173" cy="564.1721" fill="black" r="0.738" stroke="none" /><circle cx="409.6238" cy="712.5206" fill="black" r="0.738" stroke="none" /><circle cx="397.3845" cy="269.966" fill="black" r="0.738" stroke="none" /><circle cx="392.563" cy="602.6634" fill="black" r="0.738" stroke="none" /><circle cx="392.4766" cy="686.1406" fill="black" r="0.738" stroke="none" /><circle cx="385.8048" cy="204.2457" fill="black" r="0.738" stroke="none" /><circle cx="379.4317" cy="207.748" fill="black" r="0.738" stroke="none" /><circle cx="377.7289" cy="344.0857" fill="black" r="0.738" stroke="none" /><circle cx="378.101" cy="547.7776" fill="black" r="0.936" stroke="none" /><circle cx="373.3019" cy="211.3407" fill="black" r="0.738" stroke="none" /><circle cx="369.1604" cy="524.7589" fill="black" r="0.738" stroke="none" /><circle cx="364.0641" cy="649.004" fill="black" r="0.738" stroke="none" /><circle cx="363.0281" cy="497.2873" fill="black" r="0.738" stroke="none" /><circle cx="357.1943" cy="597.5183" fill="black" r="0.738" stroke="none" /><circle cx="355.2987" cy="397.655" fill="black" r="0.738" stroke="none" /><circle cx="347.5058" cy="248.9728" fill="black" r="0.738" stroke="none" /><circle cx="339.0981" cy="550.3009" fill="black" r="0.738" stroke="none" /><circle cx="329.1226" cy="546.1787" fill="black" r="0.738" stroke="none" /><circle cx="320.4965" cy="621.8517" fill="black" r="0.738" stroke="none" /><circle cx="314.1657" cy="260.8875" fill="black" r="0.936" stroke="none" /><circle cx="313.0588" cy="172.9797" fill="black" r="0.738" stroke="none" /><circle cx="311.0966" cy="138.2388" fill="black" r="0.738" stroke="none" /><circle cx="299.0174" cy="244.7838" fill="black" r="0.738" stroke="none" /><circle cx="296.2161" cy="108.9337" fill="black" r="0.738" stroke="none" /><circle cx="292.9907" cy="376.6496" fill="black" r="0.738" stroke="none" /><circle cx="284.3391" cy="687.2058" fill="black" r="0.738" stroke="none" /><circle cx="279.2278" cy="608.4024" fill="black" r="0.738" stroke="none" /><circle cx="263.8966" cy="306.3754" fill="black" r="0.738" stroke="none" /><circle cx="255.401" cy="150.4486" fill="black" r="0.738" stroke="none" /><circle cx="256.6809" cy="519.4759" fill="black" r="0.738" stroke="none" /><circle cx="250.6037" cy="541.9184" fill="black" r="0.738" stroke="none" /><circle cx="252.8904" cy="698.1345" fill="black" r="0.738" stroke="none" /><circle cx="245.1303" cy="372.0254" fill="black" r="0.738" stroke="none" /><circle cx="229.0262" cy="124.9698" fill="black" r="0.738" stroke="none" /><circle cx="231.7082" cy="338.7125" fill="black" r="0.738" stroke="none" /><circle cx="229.8638" cy="239.1166" fill="black" r="0.738" stroke="none" /><circle cx="232.5845" cy="671.0429" fill="black" r="0.936" stroke="none" /><circle cx="221.8369" cy="323.5985" fill="black" r="0.738" stroke="none" /><circle cx="220.0598" cy="279.8838" fill="black" r="0.738" stroke="none" /><circle cx="221.7188" cy="433.697" fill="black" r="0.738" stroke="none" /><circle cx="215.6893" cy="139.6883" fill="black" r="1.476" stroke="none" /><circle cx="216.8845" cy="720.6248" fill="black" r="0.936" stroke="none" /><circle cx="215.3749" cy="682.8137" fill="black" r="0.738" stroke="none" /><circle cx="206.4518" cy="483.4894" fill="black" r="0.738" stroke="none" /><circle cx="200.4018" cy="194.5578" fill="black" r="1.17" stroke="none" /><circle cx="198.1165" cy="408.9083" fill="black" r="0.738" stroke="none" /><circle cx="191.6881" cy="135.5738" fill="black" r="0.738" stroke="none" /><circle cx="194.7799" cy="463.7269" fill="black" r="0.738" stroke="none" /><circle cx="187.2506" cy="595.8599" fill="black" r="0.738" stroke="none" /><circle cx="177.6004" cy="383.4014" fill="black" r="0.738" stroke="none" /><circle cx="172.039" cy="287.2785" fill="black" r="0.738" stroke="none" /><circle cx="158.7127" cy="337.6266" fill="black" r="0.738" stroke="none" /><circle cx="153.209" cy="361.2528" fill="black" r="0.738" stroke="none" /><circle cx="147.1237" cy="191.6549" fill="black" r="0.738" stroke="none" /><circle cx="147.2449" cy="210.4389" fill="black" r="0.738" stroke="none" /><circle cx="147.7005" cy="433.712" fill="black" r="0.738" stroke="none" /><circle cx="146.3856" cy="678.4915" fill="black" r="0.738" stroke="none" /><circle cx="138.2703" cy="395.2547" fill="black" r="0.738" stroke="none" /><circle cx="133.0327" cy="216.5502" fill="black" r="0.738" stroke="none" /><circle cx="117.4627" cy="113.975" fill="black" r="0.738" stroke="none" /><circle cx="128.8333" cy="629.6781" fill="black" r="0.738" stroke="none" /><circle cx="118.3333" cy="345.9871" fill="black" r="0.738" stroke="none" /><circle cx="111.6094" cy="93.2266" fill="black" r="0.738" stroke="none" /><circle cx="115.417" cy="291.1078" fill="black" r="0.738" stroke="none" /><circle cx="103.7479" cy="110.0488" fill="black" r="0.738" stroke="none" /><circle cx="81.4926" cy="261.8401" fill="black" r="1.476" stroke="none" /><circle cx="72.0417" cy="133.1583" fill="black" r="0.936" stroke="none" /><circle cx="78.6142" cy="529.1258" fill="black" r="0.738" stroke="none" /><circle cx="13.77" cy="786.23" fill="black" r="4.59" stroke="none" /><circle cx="13.77" cy="786.23" fill="black" r="4.59" stroke="none" /><text fill="black" font-family="monospace" font-size="12" x="10.77" y="775.64">1</text><circle cx="37.77" cy="786.23" fill="black" r="3.654" stroke="none" /><circle cx="37.77" cy="786.23" fill="black" r="3.654" stroke="none" /><text fill="black" font-family="monospace" font-size="12" x="34.769999999999996" y="775.64">2</text><circle cx="61.77" cy="786.23" fill="black" r="2.916" stroke="none" /><circle cx="61.77" cy="786.23" fill="black" r="2.916" stroke="none" /><text fill="black" font-family="monospace" font-size="12" x="58.769999999999996" y="775.64">3</text><circle cx="85.77" cy="786.23" fill="black" r="2.322" stroke="none" /><circle cx="85.77" cy="786.23" fill="black" r="2.322" stroke="none" /><text fill="black" font-family="monospace" font-size="12" x="82.77" y="775.64">4</text><circle cx="109.77" cy="786.23" fill="black" r="1.854" stroke="none" /><circle cx="109.77" cy="786.23" fill="black" r="1.854" stroke="none" /><text fill="black" font-family="monospace" font-size="12" x="106.77" y="775.64">5</text><circle cx="133.77" cy="786.23" fill="black" r="1.476" stroke="none" /><circle cx="133.77" cy="786.23" fill="black" r="1.476" stroke="none" /><text fill="black" font-family="monospace" font-size="12" x="130.77" y="775.64">6</text><circle cx="157.77" cy="786.23" fill="black" r="1.17" stroke="none" /><circle cx="157.77" cy="786.23" fill="black" r="1.17" stroke="none" /><text fill="black" font-family="monospace" font-size="12" x="154.77" y="775.64">7</text><circle cx="181.77" cy="786.23" fill="black" r="0.936" stroke="none" /><circle cx="181.77" cy="786.23" fill="black" r="0.936" stroke="none" /><text fill="black" font-family="monospace" font-size="12" x="178.77" y="775.64">8</text><circle cx="205.77" cy="786.23" fill="black" r="0.738" stroke="none" /><circle cx="205.77" cy="786.23" fill="black" r="0.738" stroke="none" /><text fill="black" font-family="monospace" font-size="12" x="202.77" y="775.64">9</text><text fill="gray" fill-opacity="0.5" font-family="monospace" font-size="12" x="655.4792007755893" y="75.54837899379856">03h25m</text><text fill="gray" fill-opacity="0.5" font-family="monospace" font-size="12" x="554.5668733430501" y="73.7006085547572">03h30m</text><text fill="gray" fill-opacity="0.5" font-family="monospace" font-size="12" x="453.6725120946577" y="72.76251343151506">03h35m</text><text fill="gray" fill-opacity="0.5" font-family="monospace" font-size="12" x="352.78439001128004" y="72.7334288649759">03h40m</text><text fill="gray" fill-opacity="0.5" font-family="monospace" font-size="12" x="251.89077933218368" y="73.61333424717509">03h45m</text><text fill="gray" fill-opacity="0.5" font-family="monospace" font-size="12" x="150.9799529489037" y="75.40285309465855">03h50m</text><text fill="gray" fill-opacity="0.5" font-family="monospace" font-size="12" x="83.33297901746181" y="732.82315467983">-30°</text><text fill="gray" fill-opacity="0.5" font-family="monospace" font-size="12" x="80.34560916169016" y="645.4458996653692">-29°</text><text fill="gray" fill-opacity="0.5" font-family="monospace" font-size="12" x="77.40943118114183" y="558.1027018944101">-28°</text><text fill="gray" fill-opacity="0.5" font-family="monospace" font-size="12" x="74.52394885402157" y="470.7802873175766">-27°</text><text fill="gray" fill-opacity="0.5" font-family="monospace" font-size="12" x="71.6886968278148" y="383.4653944884191">-26°</text><text fill="gray" fill-opacity="0.5" font-family="monospace" font-size="12" x="68.90324031218199" y="296.1447665185394">-25°</text><text fill="gray" fill-opacity="0.5" font-family="monospace" font-size="12" x="66.16717481135419" y="208.80514303858516">-24°</text><text fill="gray" fill-opacity="0.5" font-family="monospace" font-size="12" x="63.48012589567912" y="121.43325215475375">-23°</text><text fill="black" font-family="monospace" font-size="12" x="12" y="48">&gt;&gt; No.232 03h21m 03h54m -30.0°-22.5°</text><a target="_self" xlink:href="hip007.svg"><text fill="black" font-family="monospace" font-size="12" x="12" y="36">&gt; No.7 03h00m 06h00m -52.5°-22.5°</text></a><a target="_self" xlink:href="hip001.svg"><text fill="black" font-family="monospace" font-size="12" x="12" y="24">No.1 00h 24h -90.0°+0.0°</text></a><polyline fill="none" points="737.8451,77.7311 736.2299,77.6824 726.1348,77.3838 716.0401,77.0942 705.9458,76.8138 695.8518,76.5425 685.7582,76.2803 675.6649,76.0272 665.5719,75.7832 655.4792,75.5484 645.3868,75.3226 635.2947,75.106 625.2029,74.8985 615.1114,74.7 605.0201,74.5107 594.929,74.3305 584.8382,74.1594 574.7475,73.9974 564.6571,73.8444 554.5669,73.7006 544.4768,73.5659 534.3869,73.4402 524.2972,73.3237 514.2076,73.2163 504.1182,73.1179 494.0289,73.0286 483.9396,72.9485 473.8505,72.8774 463.7615,72.8154 453.6725,72.7625 443.5836,72.7187 433.4948,72.684 423.406,72.6584 413.3172,72.6418 403.2284,72.6344 393.1396,72.636 383.0509,72.6467 372.9621,72.6665 362.8733,72.6954 352.7844,72.7334 342.6955,72.7805 332.6065,72.8367 322.5174,72.9019 312.4283,72.9763 302.339,73.0597 292.2496,73.1523 282.1601,73.2539 272.0705,73.3646 261.9807,73.4844 251.8908,73.6133 241.8007,73.7513 231.7104,73.8984 221.6199,74.0546 211.5292,74.2199 201.4383,74.3943 191.3471,74.5778 181.2557,74.7704 171.1641,74.9721 161.0721,75.1829 150.98,75.4029 140.8875,75.6319 130.7947,75.87 120.7016,76.1173 110.6082,76.3736 100.5144,76.6391 90.4203,76.9137 80.3259,77.1974 70.231,77.4902 62.1549,77.7311" stroke="black" stroke-opacity="0.5" stroke-width="1" /><polyline fill="none" points="716.667,732.8232 717.0433,721.8987 717.4187,710.9749 717.7933,700.0518 718.1671,689.1294 718.5402,678.2077 718.9124,667.2865 719.2838,656.3659 719.6544,645.4459 720.0242,634.5264 720.3932,623.6074 720.7614,612.6889 721.1288,601.7709 721.4955,590.8533 721.8613,579.936 722.2263,569.0192 722.5906,558.1027 722.954,547.1865 723.3167,536.2707 723.6785,525.3551 724.0396,514.4397 724.3999,503.5246 724.7594,492.6097 725.1181,481.6949 725.4761,470.7803 725.8332,459.8658 726.1896,448.9514 726.5451,438.037 726.8999,427.1227 727.2539,416.2084 727.6072,405.2941 727.9596,394.3798 728.3113,383.4654 728.6622,372.5509 729.0123,361.6363 729.3617,350.7215 729.7102,339.8066 730.058,328.8915 730.405,317.9762 730.7513,307.0606 731.0968,296.1448 731.4415,285.2286 731.7854,274.3122 732.1286,263.3953 732.4709,252.4782 732.8126,241.5606 733.1534,230.6426 733.4935,219.7241 733.8328,208.8051 734.1714,197.8857 734.5092,186.9657 734.8462,176.0452 735.1825,165.1241 735.518,154.2023 735.8527,143.28 736.1867,132.357 736.5199,121.4333 736.8523,110.5088 737.184,99.5837 737.515,88.6578 737.8451,77.7311" stroke="black" stroke-opacity="0.5" stroke-width="1" /><polyline fill="none" points="716.667,732.8232 715.1532,732.7711 705.6922,732.4514 696.2314,732.1414 686.7709,731.8412 677.3106,731.5507 667.8505,731.27 658.3906,730.9991 648.9309,730.7379 639.4714,730.4865 630.0121,730.2448 620.553,730.0128 611.094,729.7907 601.6352,729.5782 592.1766,729.3755 582.7182,729.1826 573.2598,728.9994 563.8016,728.8259 554.3436,728.6622 544.8857,728.5082 535.4278,728.3639 525.9701,728.2294 516.5125,728.1047 507.055,727.9896 497.5976,727.8843 488.1402,727.7888 478.6829,727.7029 469.2257,727.6268 459.7685,727.5604 450.3114,727.5038 440.8543,727.4569 431.3973,727.4197 421.9402,727.3923 412.4832,727.3746 403.0262,727.3666 393.5692,727.3684 384.1122,727.3798 374.6552,727.4011 365.1982,727.432 355.7411,727.4727 346.284,727.5231 336.8269,727.5832 327.3697,727.6531 317.9125,727.7327 308.4551,727.822 298.9978,727.9211 289.5403,728.0299 280.0828,728.1485 270.6251,728.2767 261.1674,728.4148 251.7095,728.5625 242.2515,728.72 232.7934,728.8872 223.3352,729.0642 213.8768,729.2509 204.4183,729.4474 194.9596,729.6536 185.5008,729.8695 176.0418,730.0952 166.5826,730.3307 157.1232,730.5759 147.6637,730.8308 138.2039,731.0955 128.7439,731.3699 119.2838,731.6542 109.8234,731.9481 100.3627,732.2518 90.9019,732.5653 83.333,732.8232" stroke="black" stroke-opacity="0.5" stroke-width="1" /><polyline fill="none" points="83.333,732.8232 82.9567,721.8987 82.5813,710.9749 82.2067,700.0518 81.8329,689.1294 81.4598,678.2077 81.0876,667.2865 80.7162,656.3659 80.3456,645.4459 79.9758,634.5264 79.6068,623.6074 79.2386,612.6889 78.8712,601.7709 78.5045,590.8533 78.1387,579.936 77.7737,569.0192 77.4094,558.1027 77.046,547.1865 76.6833,536.2707 76.3215,525.3551 75.9604,514.4397 75.6001,503.5246 75.2406,492.6097 74.8819,481.6949 74.5239,470.7803 74.1668,459.8658 73.8104,448.9514 73.4549,438.037 73.1001,427.1227 72.7461,416.2084 72.3928,405.2941 72.0404,394.3798 71.6887,383.4654 71.3378,372.5509 70.9877,361.6363 70.6383,350.7215 70.2898,339.8066 69.942,328.8915 69.595,317.9762 69.2487,307.0606 68.9032,296.1448 68.5585,285.2286 68.2146,274.3122 67.8714,263.3953 67.5291,252.4782 67.1874,241.5606 66.8466,230.6426 66.5065,219.7241 66.1672,208.8051 65.8286,197.8857 65.4908,186.9657 65.1538,176.0452 64.8175,165.1241 64.482,154.2023 64.1473,143.28 63.8133,132.357 63.4801,121.4333 63.1477,110.5088 62.816,99.5837 62.485,88.6578 62.1549,77.7311" stroke="black" stroke-opacity="0.5" stroke-width="1" /></svg>