<?xml version="1.0" encoding="utf-8" ?>
<svg baseProfile="tiny" height="800" version="1.2" width="800" xmlns="http://www.w3.org/2000/svg" xmlns:ev="http://www.w3.org/2001/xml-events" xmlns:xlink="http://www.w3.org/1999/xlink"><defs /><rect fill="none" height="800" stroke="black" stroke-width="2" width="800" x="0" y="0" /><polyline fill="none" points="694.7177,732.0927 695.0678,721.1689 695.4172,710.2458 695.7658,699.3234 696.1137,688.4016 696.4608,677.4805 696.8071,666.56 697.1528,655.6401 697.4976,644.7208 697.8418,633.802 698.1852,622.8837 698.5278,611.9659 698.8697,601.0486 699.2109,590.1317 699.5513,579.2152 699.891,568.299 700.2299,557.3833 700.5681,546.4678 700.9056,535.5527 701.2423,524.6379 701.5783,513.7233 701.9136,502.8089 702.2481,491.8947 702.5819,480.9807 702.915,470.0669 703.2473,459.1532 703.579,448.2395 703.9098,437.326 704.24,426.4125 704.5694,415.499 704.8981,404.5855 705.2261,393.6719 705.5533,382.7583 705.8799,371.8447 706.2057,360.9309 706.5307,350.0169 706.8551,339.1029 707.1787,328.1886 707.5017,317.2741 707.8239,306.3594 708.1453,295.4444 708.4661,284.5291 708.7861,273.6135 709.1055,262.6975 709.4241,251.7812 709.742,240.8645 710.0591,229.9474 710.3756,219.0298 710.6914,208.1117 711.0064,197.1932 711.3207,186.2741 711.6344,175.3545 711.9473,164.4343 712.2595,153.5135 712.5709,142.592 712.8817,131.6699 713.1918,120.7472 713.5011,109.8237 713.8098,98.8995 714.1177,87.9745 714.425,77.0487" stroke="silver" stroke-opacity="0.5" stroke-width="1" /><polyline fill="none" points="600.1218,729.5451 600.3595,718.6236 600.5966,707.7028 600.8332,696.7827 601.0693,685.8632 601.3049,674.9445 601.5399,664.0264 601.7745,653.1088 602.0086,642.1919 602.2421,631.2755 602.4752,620.3597 602.7077,609.4443 602.9398,598.5295 603.1713,587.615 603.4024,576.701 603.6329,565.7875 603.8629,554.8742 604.0925,543.9614 604.3215,533.0488 604.5501,522.1366 604.7781,511.2246 605.0056,500.3129 605.2327,489.4013 605.4592,478.49 605.6853,467.5788 605.9108,456.6678 606.1359,445.7569 606.3604,434.8461 606.5845,423.9354 606.8081,413.0246 607.0312,402.1139 607.2538,391.2032 607.4759,380.2925 607.6975,369.3816 607.9186,358.4707 608.1392,347.5597 608.3593,336.6485 608.579,325.7371 608.7981,314.8256 609.0168,303.9138 609.235,293.0018 609.4527,282.0895 609.6699,271.1769 609.8866,260.264 610.1028,249.3507 610.3186,238.437 610.5338,227.523 610.7486,216.6085 610.9629,205.6935 611.1767,194.7781 611.39,183.8622 611.6029,172.9457 611.8152,162.0287 612.0271,151.111 612.2385,140.1928 612.4494,129.274 612.6598,118.3544 612.8698,107.4342 613.0792,96.5133 613.2882,85.5916 613.4967,74.6691" stroke="silver" stroke-opacity="0.5" stroke-width="1" /><polyline fill="none" points="505.5418,727.9721 505.6671,717.052 505.7921,706.1326 505.9168,695.2139 506.0413,684.2959 506.1655,673.3786 506.2895,662.4619 506.4131,651.5459 506.5365,640.6304 506.6597,629.7155 506.7826,618.8012 506.9052,607.8874 507.0275,596.974 507.1496,586.0611 507.2714,575.1487 507.3929,564.2367 507.5142,553.325 507.6352,542.4137 507.756,531.5028 507.8765,520.5921 507.9967,509.6818 508.1167,498.7717 508.2364,487.8618 508.3558,476.9521 508.475,466.0426 508.5939,455.1333 508.7126,444.2241 508.8309,433.3149 508.9491,422.4059 509.067,411.4969 509.1846,400.5879 509.3019,389.6789 509.419,378.7699 509.5359,367.8608 509.6524,356.9517 509.7687,346.0424 509.8848,335.133 510.0006,324.2235 510.1161,313.3138 510.2314,302.4038 510.3465,291.4936 510.4612,280.5832 510.5757,269.6724 510.69,258.7614 510.804,247.85 510.9177,236.9382 511.0312,226.026 511.1445,215.1135 511.2574,204.2004 511.3702,193.2869 511.4826,182.3729 511.5948,171.4584 511.7068,160.5434 511.8185,149.6277 511.9299,138.7115 512.0411,127.7946 512.1521,116.8771 512.2628,105.9589 512.3732,95.04 512.4834,84.1203 512.5933,73.1999" stroke="silver" stroke-opacity="0.5" stroke-width="1" /><polyline fill="none" points="410.9701,727.3727 410.9831,716.453 410.9961,705.5342 411.0091,694.616 411.022,683.6986 411.0349,672.7818 411.0478,661.8657 411.0607,650.9502 411.0735,640.0354 411.0863,629.121 411.0991,618.2073 411.1118,607.294 411.1245,596.3813 411.1372,585.469 411.1499,574.5571 411.1625,563.6457 411.1751,552.7346 411.1877,541.8239 411.2002,530.9136 411.2128,520.0036 411.2253,509.0938 411.2377,498.1843 411.2502,487.2751 411.2626,476.366 411.275,465.4572 411.2873,454.5485 411.2996,443.6399 411.312,432.7314 411.3242,421.823 411.3365,410.9147 411.3487,400.0064 411.3609,389.098 411.3731,378.1897 411.3852,367.2813 411.3973,356.3728 411.4094,345.4642 411.4215,334.5555 411.4335,323.6467 411.4455,312.7376 411.4575,301.8284 411.4695,290.9189 411.4814,280.0091 411.4933,269.0991 411.5052,258.1887 411.517,247.2781 411.5288,236.367 411.5406,225.4556 411.5524,214.5437 411.5641,203.6314 411.5758,192.7187 411.5875,181.8054 411.5992,170.8916 411.6108,159.9773 411.6224,149.0624 411.634,138.1469 411.6456,127.2308 411.6571,116.3141 411.6686,105.3966 411.6801,94.4785 411.6915,83.5596 411.703,72.64" stroke="silver" stroke-opacity="0.5" stroke-width="1" /><polyline fill="none" points="316.3993,727.7463 316.3001,716.8264 316.201,705.9072 316.1022,694.9887 316.0036,684.0709 315.9053,673.1538 315.8071,662.2374 315.7091,651.3215 315.6114,640.4063 315.5139,629.4916 315.4165,618.5775 315.3194,607.6639 315.2225,596.7508 315.1258,585.8381 315.0293,574.9259 314.9331,564.0141 314.837,553.1027 314.7411,542.1916 314.6455,531.2809 314.5501,520.3705 314.4548,509.4603 314.3598,498.5505 314.265,487.6408 314.1704,476.7314 314.076,465.8221 313.9818,454.913 313.8878,444.004 313.794,433.0952 313.7005,422.1864 313.6071,411.2776 313.514,400.3689 313.421,389.4601 313.3283,378.5514 313.2357,367.6426 313.1434,356.7337 313.0512,345.8247 312.9593,334.9155 312.8676,324.0062 312.7761,313.0968 312.6848,302.1871 312.5937,291.2771 312.5028,280.367 312.412,269.4565 312.3216,258.5457 312.2313,247.6346 312.1412,236.7231 312.0513,225.8112 311.9616,214.8989 311.8721,203.9861 311.7828,193.0729 311.6937,182.1592 311.6049,171.245 311.5162,160.3302 311.4277,149.4148 311.3394,138.4989 311.2513,127.5823 311.1635,116.665 311.0758,105.7471 310.9883,94.8285 310.9011,83.9091 310.814,72.989" stroke="silver" stroke-opacity="0.5" stroke-width="1" /><polyline fill="none" points="221.8219,729.0934 221.6103,718.1723 221.3992,707.2519 221.1886,696.3322 220.9784,685.4132 220.7687,674.4948 220.5594,663.5771 220.3505,652.66 220.1422,641.7435 219.9342,630.8275 219.7268,619.9121 219.5197,608.9972 219.3131,598.0828 219.107,587.1688 218.9013,576.2553 218.6961,565.3421 218.4913,554.4294 218.2869,543.5169 218.083,532.6049 217.8796,521.6931 217.6765,510.7815 217.474,499.8703 217.2718,488.9592 217.0702,478.0484 216.8689,467.1377 216.6681,456.2272 216.4677,445.3167 216.2678,434.4064 216.0683,423.4961 215.8693,412.5859 215.6707,401.6757 215.4725,390.7655 215.2748,379.8552 215.0775,368.9449 214.8807,358.0345 214.6843,347.124 214.4883,336.2133 214.2927,325.3025 214.0976,314.3914 213.903,303.4802 213.7087,292.5687 213.5149,281.6569 213.3216,270.7448 213.1286,259.8325 212.9361,248.9197 212.7441,238.0066 212.5524,227.0931 212.3612,216.1792 212.1704,205.2648 211.9801,194.3499 211.7902,183.4345 211.6007,172.5186 211.4116,161.6021 211.223,150.6851 211.0348,139.7674 210.8471,128.8491 210.6597,117.9302 210.4728,107.0105 210.2863,96.0902 210.1003,85.1691 209.9146,74.2472" stroke="silver" stroke-opacity="0.5" stroke-width="1" /><polyline fill="none" points="127.2303,731.4148 126.9063,720.4915 126.583,709.569 126.2604,698.6472 125.9385,687.7261 125.6173,676.8056 125.2968,665.8858 124.9769,654.9665 124.6578,644.0478 124.3393,633.1297 124.0215,622.212 123.7044,611.2949 123.3881,600.3782 123.0723,589.462 122.7573,578.5461 122.443,567.6307 122.1293,556.7156 121.8163,545.8008 121.504,534.8864 121.1924,523.9722 120.8815,513.0583 120.5712,502.1447 120.2616,491.2312 119.9527,480.3179 119.6445,469.4048 119.337,458.4918 119.0301,447.5789 118.7239,436.666 118.4184,425.7533 118.1135,414.8405 117.8093,403.9278 117.5058,393.015 117.203,382.1021 116.9008,371.1892 116.5993,360.2762 116.2985,349.363 115.9983,338.4497 115.6988,327.5362 115.4,316.6225 115.1019,305.7086 114.8044,294.7944 114.5075,283.8799 114.2114,272.9651 113.9159,262.0499 113.621,251.1344 113.3268,240.2185 113.0333,229.3022 112.7405,218.3854 112.4483,207.4682 112.1567,196.5505 111.8659,185.6323 111.5756,174.7135 111.2861,163.7941 110.9972,152.8741 110.7089,141.9536 110.4213,131.0323 110.1344,120.1104 109.8481,109.1878 109.5625,98.2645 109.2775,87.3404 108.9932,76.4155" stroke="silver" stroke-opacity="0.5" stroke-width="1" /><polyline fill="none" points="716.667,732.8232 713.6395,732.7193 704.1785,732.4011 694.7177,732.0927 685.2572,731.794 675.7969,731.5051 666.3369,731.226 656.877,730.9566 647.4173,730.697 637.9579,730.4471 628.4986,730.207 619.0395,729.9766 609.5806,729.756 600.1218,729.5451 590.6633,729.344 581.2048,729.1526 571.7465,728.971 562.2884,728.7991 552.8303,728.6369 543.3724,728.4845 533.9146,728.3418 524.4569,728.2088 514.9993,728.0856 505.5418,727.9721 496.0844,727.8684 486.627,727.7744 477.1698,727.6901 467.7125,727.6155 458.2554,727.5507 448.7983,727.4957 439.3412,727.4503 429.8841,727.4147 420.4271,727.3888 410.9701,727.3727 401.5131,727.3662 392.0561,727.3695 382.5991,727.3826 373.1421,727.4053 363.6851,727.4378 354.228,727.4801 344.7709,727.532 335.3137,727.5937 325.8566,727.6652 316.3993,727.7463 306.942,727.8372 297.4846,727.9379 288.0271,728.0482 278.5695,728.1683 269.1119,728.2982 259.6541,728.4377 250.1962,728.5871 240.7382,728.7461 231.2801,728.9149 221.8219,729.0934 212.3635,729.2817 202.9049,729.4797 193.4462,729.6875 183.9874,729.905 174.5283,730.1322 165.0691,730.3692 155.6097,730.616 146.1501,730.8725 136.6903,731.1388 127.2303,731.4148 117.7701,731.7005 108.3097,731.9961 98.849,732.3013 89.3881,732.6164 83.333,732.8232" stroke="silver" stroke-opacity="0.5" stroke-width="1" /><polyline fill="none" points="719.6544,645.4459 716.5982,645.3428 707.0478,645.0269 697.4976,644.7208 687.9477,644.4243 678.3981,644.1375 668.8487,643.8605 659.2995,643.5931 649.7505,643.3353 640.2017,643.0873 630.6531,642.8489 621.1048,642.6202 611.5566,642.4012 602.0086,642.1919 592.4607,641.9922 582.9131,641.8023 573.3655,641.6219 563.8182,641.4513 554.2709,641.2903 544.7238,641.139 535.1768,640.9974 525.63,640.8654 516.0832,640.7431 506.5365,640.6304 496.99,640.5274 487.4435,640.4341 477.8971,640.3505 468.3507,640.2765 458.8044,640.2121 449.2582,640.1575 439.7119,640.1124 430.1658,640.0771 420.6196,640.0514 411.0735,640.0354 401.5274,640.029 391.9813,640.0323 382.4351,640.0452 372.889,640.0678 363.3428,640.1001 353.7966,640.142 344.2504,640.1936 334.7041,640.2548 325.1578,640.3257 315.6114,640.4063 306.0649,640.4965 296.5184,640.5964 286.9717,640.706 277.425,640.8252 267.8782,640.9541 258.3312,641.0926 248.7842,641.2408 239.237,641.3987 229.6896,641.5663 220.1422,641.7435 210.5945,641.9304 201.0468,642.127 191.4988,642.3332 181.9507,642.5491 172.4024,642.7747 162.8539,643.01 153.3052,643.2549 143.7562,643.5095 134.2071,643.7738 124.6578,644.0478 115.1082,644.3315 105.5584,644.6249 96.0083,644.9279 86.458,645.2407 80.3456,645.4459" stroke="silver" stroke-opacity="0.5" stroke-width="1" /><polyline fill="none" points="722.5906,558.1027 719.5062,558.0004 709.8679,557.687 700.2299,557.3833 690.5921,557.0891 680.9546,556.8046 671.3174,556.5297 661.6804,556.2644 652.0436,556.0087 642.4071,555.7626 632.7707,555.5261 623.1346,555.2992 613.4987,555.0819 603.8629,554.8742 594.2274,554.6761 584.592,554.4876 574.9568,554.3087 565.3217,554.1394 555.6868,553.9797 546.0521,553.8296 536.4174,553.6891 526.7829,553.5581 517.1485,553.4368 507.5142,553.325 497.88,553.2229 488.2459,553.1303 478.6119,553.0473 468.9779,552.9738 459.344,552.91 449.7101,552.8558 440.0763,552.8111 430.4426,552.776 420.8088,552.7505 411.1751,552.7346 401.5414,552.7283 391.9077,552.7316 382.274,552.7444 372.6402,552.7668 363.0065,552.7988 353.3727,552.8404 343.7388,552.8916 334.105,552.9524 324.471,553.0227 314.837,553.1027 305.2029,553.1922 295.5687,553.2913 285.9345,553.4 276.3001,553.5183 266.6656,553.6461 257.031,553.7836 247.3963,553.9306 237.7614,554.0873 228.1264,554.2535 218.4913,554.4294 208.856,554.6148 199.2205,554.8098 189.5848,555.0144 179.9489,555.2286 170.3129,555.4525 160.6766,555.6859 151.0401,555.9289 141.4034,556.1815 131.7665,556.4438 122.1293,556.7156 112.4919,556.997 102.8542,557.2881 93.2163,557.5888 83.578,557.8991 77.4094,558.1027" stroke="silver" stroke-opacity="0.5" stroke-width="1" /><polyline fill="none" points="725.4761,470.7803 722.3641,470.6788 712.6394,470.3681 702.915,470.0669 693.1909,469.7752 683.4671,469.4931 673.7435,469.2204 664.0202,468.9574 654.2971,468.7038 644.5743,468.4598 634.8517,468.2253 625.1294,468.0003 615.4072,467.7848 605.6853,467.5788 595.9635,467.3824 586.2419,467.1955 576.5206,467.0181 566.7993,466.8502 557.0783,466.6918 547.3574,466.543 537.6366,466.4036 527.9159,466.2738 518.1954,466.1534 508.475,466.0426 498.7547,465.9413 489.0345,465.8495 479.3143,465.7672 469.5943,465.6944 459.8743,465.6311 450.1543,465.5773 440.4344,465.533 430.7146,465.4982 420.9948,465.473 411.275,465.4572 401.5552,465.4509 391.8354,465.4541 382.1156,465.4669 372.3958,465.4891 362.6759,465.5208 352.956,465.5621 343.2361,465.6128 333.5161,465.6731 323.7961,465.7429 314.076,465.8221 304.3558,465.9109 294.6355,466.0092 284.9151,466.1169 275.1947,466.2342 265.474,466.361 255.7533,466.4973 246.0324,466.6432 236.3114,466.7985 226.5903,466.9633 216.8689,467.1377 207.1474,467.3216 197.4257,467.515 187.7038,467.7179 177.9817,467.9303 168.2595,468.1522 158.5369,468.3837 148.8142,468.6247 139.0912,468.8752 129.368,469.1352 119.6445,469.4048 109.9208,469.6839 100.1967,469.9725 90.4724,470.2707 80.7478,470.5784 74.5239,470.7803" stroke="silver" stroke-opacity="0.5" stroke-width="1" /><polyline fill="none" points="728.3113,383.4654 725.1722,383.3648 715.3626,383.0569 705.5533,382.7583 695.7444,382.4693 685.9357,382.1896 676.1273,381.9194 666.3192,381.6587 656.5114,381.4074 646.7038,381.1655 636.8965,380.9331 627.0894,380.7101 617.2825,380.4966 607.4759,380.2925 597.6694,380.0978 587.8631,379.9125 578.0571,379.7367 568.2512,379.5703 558.4455,379.4133 548.6399,379.2658 538.8345,379.1277 529.0292,378.999 519.224,378.8798 509.419,378.7699 499.6141,378.6695 489.8093,378.5785 480.0045,378.4969 470.1999,378.4248 460.3953,378.3621 450.5908,378.3087 440.7863,378.2648 430.9819,378.2304 421.1775,378.2053 411.3731,378.1897 401.5687,378.1835 391.7643,378.1867 381.96,378.1993 372.1556,378.2213 362.3511,378.2528 352.5467,378.2937 342.7422,378.344 332.9376,378.4037 323.133,378.4728 313.3283,378.5514 303.5235,378.6394 293.7186,378.7368 283.9136,378.8436 274.1085,378.9598 264.3032,379.0855 254.4979,379.2206 244.6923,379.3651 234.8867,379.5191 225.0808,379.6824 215.2748,379.8552 205.4686,380.0375 195.6622,380.2291 185.8556,380.4302 176.0488,380.6408 166.2418,380.8607 156.4345,381.0901 146.627,381.329 136.8193,381.5772 127.0113,381.835 117.203,382.1021 107.3944,382.3787 97.5856,382.6648 87.7764,382.9603 77.9669,383.2653 71.6887,383.4654" stroke="silver" stroke-opacity="0.5" stroke-width="1" /><polyline fill="none" points="731.0968,296.1448 727.9309,296.0452 718.038,295.7401 708.1453,295.4444 698.253,295.158 688.361,294.881 678.4693,294.6134 668.5779,294.3551 658.6868,294.1062 648.7959,293.8666 638.9053,293.6364 629.015,293.4155 619.1249,293.204 609.235,293.0018 599.3453,292.8089 589.4559,292.6254 579.5666,292.4513 569.6775,292.2864 559.7886,292.131 549.8999,291.9848 540.0113,291.848 530.1229,291.7206 520.2346,291.6024 510.3465,291.4936 500.4584,291.3942 490.5705,291.304 480.6826,291.2232 470.7949,291.1517 460.9072,291.0896 451.0195,291.0368 441.132,290.9933 431.2444,290.9592 421.3569,290.9344 411.4695,290.9189 401.582,290.9127 391.6945,290.9159 381.8071,290.9284 371.9196,290.9502 362.0321,290.9814 352.1445,291.0219 342.2569,291.0717 332.3692,291.1308 322.4815,291.1993 312.5937,291.2771 302.7057,291.3643 292.8177,291.4608 282.9296,291.5666 273.0414,291.6817 263.153,291.8062 253.2645,291.94 243.3758,292.0832 233.4869,292.2357 223.5979,292.3975 213.7087,292.5687 203.8193,292.7492 193.9297,292.939 184.0399,293.1382 174.1499,293.3468 164.2596,293.5647 154.3691,293.7919 144.4783,294.0285 134.5873,294.2744 124.696,294.5297 114.8044,294.7944 104.9125,295.0684 95.0202,295.3517 85.1277,295.6444 75.2348,295.9465 68.9032,296.1448" stroke="silver" stroke-opacity="0.5" stroke-width="1" /><polyline fill="none" points="733.8328,208.8051 730.6408,208.7065 720.6659,208.4045 710.6914,208.1117 700.7172,207.8282 690.7433,207.554 680.7698,207.2891 670.7965,207.0333 660.8236,206.7869 650.8509,206.5497 640.8785,206.3218 630.9064,206.1031 620.9345,205.8937 610.9629,205.6935 600.9915,205.5026 591.0203,205.3209 581.0493,205.1485 571.0785,204.9853 561.108,204.8314 551.1375,204.6867 541.1673,204.5513 531.1972,204.4251 521.2273,204.3082 511.2574,204.2004 501.2877,204.102 491.3181,204.0127 481.3487,203.9327 471.3793,203.862 461.4099,203.8005 451.4407,203.7482 441.4715,203.7051 431.5023,203.6713 421.5332,203.6468 411.5641,203.6314 401.5951,203.6253 391.626,203.6285 381.6569,203.6409 371.6878,203.6625 361.7186,203.6933 351.7495,203.7334 341.7802,203.7827 331.8109,203.8413 321.8416,203.9091 311.8721,203.9861 301.9025,204.0724 291.9329,204.1679 281.9631,204.2727 271.9932,204.3867 262.0232,204.5099 252.053,204.6424 242.0826,204.7841 232.1121,204.9351 222.1413,205.0953 212.1704,205.2648 202.1993,205.4435 192.228,205.6314 182.2564,205.8286 172.2846,206.0351 162.3126,206.2508 152.3403,206.4758 142.3677,206.71 132.3949,206.9535 122.4217,207.2062 112.4483,207.4682 102.4745,207.7395 92.5004,208.02 82.526,208.3098 72.5512,208.6089 66.1672,208.8051" stroke="silver" stroke-opacity="0.5" stroke-width="1" /><polyline fill="none" points="736.5199,121.4333 733.3021,121.3357 723.2467,121.0368 713.1918,120.7472 703.1372,120.4666 693.0829,120.1953 683.029,119.9331 672.9754,119.6801 662.9221,119.4363 652.8691,119.2016 642.8163,118.9761 632.7639,118.7597 622.7117,118.5525 612.6598,118.3544 602.6081,118.1655 592.5567,117.9858 582.5055,117.8152 572.4545,117.6537 562.4036,117.5014 552.353,117.3582 542.3025,117.2242 532.2522,117.0994 522.2021,116.9837 512.1521,116.8771 502.1022,116.7796 492.0524,116.6913 482.0028,116.6122 471.9532,116.5422 461.9037,116.4813 451.8543,116.4296 441.8049,116.387 431.7556,116.3536 421.7064,116.3292 411.6571,116.3141 401.6079,116.308 391.5586,116.3112 381.5094,116.3234 371.4601,116.3448 361.4108,116.3753 351.3615,116.415 341.3121,116.4638 331.2626,116.5217 321.2131,116.5888 311.1635,116.665 301.1137,116.7504 291.0639,116.8449 281.0139,116.9486 270.9638,117.0613 260.9136,117.1833 250.8632,117.3144 240.8126,117.4546 230.7618,117.604 220.7109,117.7625 210.6597,117.9302 200.6083,118.107 190.5567,118.293 180.5049,118.4881 170.4528,118.6924 160.4005,118.9058 150.3478,119.1284 140.2949,119.3602 130.2417,119.6011 120.1882,119.8512 110.1344,120.1104 100.0802,120.3788 90.0257,120.6564 79.9709,120.9431 69.9157,121.2391 63.4801,121.4333" stroke="silver" stroke-opacity="0.5" stroke-width="1" /><line fill="none" stroke="green" stroke-opacity="0.5" stroke-width="1.5" x1="360.9518" x2="727.61" y1="230.2494" y2="288.362" /><circle cx="730.1422" cy="293.7544" fill="black" r="0.738" stroke="none" /><circle cx="723.6479" cy="430.9508" fill="black" r="0.738" stroke="none" /><circle cx="727.6169" cy="288.343" fill="black" r="1.17" stroke="none" /><circle cx="727.0896" cy="254.1468" fill="black" r="0.738" stroke="none" /><circle cx="714.9605" cy="620.9771" fill="black" r="0.738" stroke="none" /><circle cx="722.4497" cy="283.6377" fill="black" r="1.854" stroke="none" /><circle cx="717.3532" cy="434.6831" fill="black" r="0.738" stroke="none" /><circle cx="721.9133" cy="228.025" fill="black" r="0.738" stroke="none" /><circle cx="715.0653" cy="412.8494" fill="black" r="0.738" stroke="none" /><circle cx="710.563" cy="543.1984" fill="black" r="0.738" stroke="none" /><circle cx="711.5198" cy="190.4763" fill="black" r="0.936" stroke="none" /><circle cx="698.5377" cy="579.6207" fill="black" r="0.738" stroke="none" /><circle cx="688.1914" cy="666.3784" fill="black" r="0.738" stroke="none" /><circle cx="689.4908" cy="253.6658" fill="black" r="0.936" stroke="none" /><circle cx="688.4252" cy="122.8707" fill="black" r="0.738" stroke="none" /><circle cx="673.1693" cy="312.5593" fill="black" r="0.738" stroke="none" /><circle cx="667.6632" cy="501.1186" fill="black" r="0.738" stroke="none" /><circle cx="671.2936" cy="365.8025" fill="black" r="0.738" stroke="none" /><circle cx="667.9983" cy="459.9779" fill="black" r="0.738" stroke="none" /><circle cx="670.3806" cy="251.7634" fill="black" r="0.738" stroke="none" /><circle cx="665.7464" cy="204.6353" fill="black" r="0.738" stroke="none" /><circle cx="651.3942" cy="698.6269" fill="black" r="0.738" stroke="none" /><circle cx="658.7691" cy="419.0264" fill="black" r="0.738" stroke="none" /><circle cx="663.8294" cy="145.3327" fill="black" r="0.738" stroke="none" /><circle cx="658.8441" cy="287.7326" fill="black" r="0.738" stroke="none" /><circle cx="646.6775" cy="710.216" fill="black" r="0.738" stroke="none" /><circle cx="645.2246" cy="620.319" fill="black" r="0.738" stroke="none" /><circle cx="653.0906" cy="302.8799" fill="black" r="0.738" stroke="none" /><circle cx="648.511" cy="409.9464" fill="black" r="0.738" stroke="none" /><circle cx="642.5116" cy="624.5314" fill="black" r="0.738" stroke="none" /><circle cx="629.4111" cy="714.842" fill="black" r="0.738" stroke="none" /><circle cx="630.3756" cy="619.685" fill="black" r="0.738" stroke="none" /><circle cx="628.0132" cy="706.9393" fill="black" r="0.738" stroke="none" /><circle cx="632.5637" cy="492.715" fill="black" r="0.738" stroke="none" /><circle cx="633.759" cy="401.2977" fill="black" r="0.738" stroke="none" /><circle cx="631.1795" cy="508.6668" fill="black" r="0.738" stroke="none" /><circle cx="639.3237" cy="146.3433" fill="black" r="0.738" stroke="none" /><circle cx="639.084" cy="135.2388" fill="black" r="0.738" stroke="none" /><circle cx="632.6242" cy="419.9617" fill="black" r="0.738" stroke="none" /><circle cx="628.3386" cy="553.7608" fill="black" r="0.738" stroke="none" /><circle cx="630.1018" cy="403.6594" fill="black" r="0.738" stroke="none" /><circle cx="626.8004" cy="411.183" fill="black" r="0.936" stroke="none" /><circle cx="624.8837" cy="319.7896" fill="black" r="0.738" stroke="none" /><circle cx="614.7596" cy="564.2816" fill="black" r="0.936" stroke="none" /><circle cx="612.5337" cy="235.0745" fill="black" r="0.738" stroke="none" /><circle cx="611.7143" cy="158.9687" fill="black" r="0.738" stroke="none" /><circle cx="606.5922" cy="225.4371" fill="black" r="0.738" stroke="none" /><circle cx="601.6307" cy="374.2376" fill="black" r="0.738" stroke="none" /><circle cx="602.2032" cy="230.0697" fill="black" r="0.738" stroke="none" /><circle cx="592.5828" cy="548.1804" fill="black" r="0.738" stroke="none" /><circle cx="591.3968" cy="545.7116" fill="black" r="0.738" stroke="none" /><circle cx="590.1731" cy="477.2243" fill="black" r="0.738" stroke="none" /><circle cx="585.8369" cy="609.537" fill="black" r="0.738" stroke="none" /><circle cx="584.9755" cy="443.1605" fill="black" r="0.738" stroke="none" /><circle cx="589.1983" cy="78.9519" fill="black" r="0.738" stroke="none" /><circle cx="582.4193" cy="118.1632" fill="black" r="0.738" stroke="none" /><circle cx="575.4348" cy="107.2155" fill="black" r="1.476" stroke="none" /><circle cx="562.4519" cy="706.6046" fill="black" r="0.738" stroke="none" /><circle cx="563.9254" cy="568.2624" fill="black" r="0.738" stroke="none" /><circle cx="547.696" cy="346.6908" fill="black" r="0.738" stroke="none" /><circle cx="546.1987" cy="434.0515" fill="black" r="0.738" stroke="none" /><circle cx="549.4116" cy="208.3304" fill="black" r="0.738" stroke="none" /><circle cx="547.1163" cy="118.0735" fill="black" r="0.738" stroke="none" /><circle cx="537.5313" cy="652.3863" fill="black" r="0.738" stroke="none" /><circle cx="541.4211" cy="275.2793" fill="black" r="0.738" stroke="none" /><circle cx="534.2266" cy="516.8151" fill="black" r="0.738" stroke="none" /><circle cx="533.8125" cy="355.143" fill="black" r="0.738" stroke="none" /><circle cx="527.8703" cy="644.6511" fill="black" r="0.738" stroke="none" /><circle cx="529.049" cy="545.4684" fill="black" r="0.738" stroke="none" /><circle cx="525.4993" cy="667.7657" fill="black" r="0.738" stroke="none" /><circle cx="528.0856" cy="315.8763" fill="black" r="0.738" stroke="none" /><circle cx="530.0023" cy="144.1514" fill="black" r="1.17" stroke="none" /><circle cx="516.6127" cy="591.2359" fill="black" r="0.738" stroke="none" /><circle cx="511.1622" cy="617.4543" fill="black" r="0.738" stroke="none" /><circle cx="510.7976" cy="147.5212" fill="black" r="0.738" stroke="none" /><circle cx="502.8531" cy="430.3716" fill="black" r="0.738" stroke="none" /><circle cx="503.9296" cy="178.1937" fill="black" r="0.738" stroke="none" /><circle cx="490.7192" cy="485.6778" fill="black" r="0.738" stroke="none" /><circle cx="488.985" cy="418.8059" fill="black" r="0.738" stroke="none" /><circle cx="484.3035" cy="717.094" fill="black" r="0.738" stroke="none" /><circle cx="483.1909" cy="689.1299" fill="black" r="0.738" stroke="none" /><circle cx="485.6068" cy="327.3102" fill="black" r="0.738" stroke="none" /><circle cx="472.1787" cy="588.6152" fill="black" r="0.738" stroke="none" /><circle cx="470.394" cy="484.4648" fill="black" r="0.936" stroke="none" /><circle cx="464.203" cy="384.058" fill="black" r="0.738" stroke="none" /><circle cx="458.9905" cy="294.308" fill="black" r="0.738" stroke="none" /><circle cx="457.188" cy="513.0945" fill="black" r="0.738" stroke="none" /><circle cx="447.5355" cy="256.7181" fill="black" r="0.738" stroke="none" /><circle cx="445.1476" cy="489.2047" fill="black" r="0.738" stroke="none" /><circle cx="437.7357" cy="245.2439" fill="black" r="0.738" stroke="none" /><circle cx="435.7538" cy="676.6864" fill="black" r="0.738" stroke="none" /><circle cx="435.0546" cy="89.9854" fill="black" r="0.738" stroke="none" /><circle cx="430.333" cy="463.1407" fill="black" r="0.738" stroke="none" /><circle cx="428.5925" cy="655.1787" fill="black" r="0.738" stroke="none" /><circle cx="423.264" cy="589.1572" fill="black" r="0.738" stroke="none" /><circle cx="420.3666" cy="352.0232" fill="black" r="0.936" stroke="none" /><circle cx="418.6863" cy="235.417" fill="black" r="0.738" stroke="none" /><circle cx="417.7092" cy="724.4129" fill="black" r="0.738" stroke="none" /><circle cx="416.2905" cy="189.7564" fill="black" r="0.738" stroke="none" /><circle cx="414.0791" cy="569.6726" fill="black" r="0.738" stroke="none" /><circle cx="413.7729" cy="568.5373" fill="black" r="0.738" stroke="none" /><circle cx="412.8063" cy="423.2211" fill="black" r="0.738" stroke="none" /><circle cx="409.5497" cy="559.8032" fill="black" r="0.738" stroke="none" /><circle cx="407.3901" cy="563.9039" fill="black" r="0.738" stroke="none" /><circle cx="400.5527" cy="310.2004" fill="black" r="0.738" stroke="none" /><circle cx="400.3079" cy="565.7342" fill="black" r="0.738" stroke="none" /><circle cx="399.4704" cy="726.6672" fill="black" r="0.738" stroke="none" /><circle cx="398.4111" cy="726.6674" fill="black" r="0.738" stroke="none" /><circle cx="392.8349" cy="449.7449" fill="black" r="0.738" stroke="none" /><circle cx="376.2072" cy="263.0971" fill="black" r="0.738" stroke="none" /><circle cx="375.1422" cy="475.4308" fill="black" r="0.738" stroke="none" /><circle cx="374.2064" cy="474.0369" fill="black" r="0.738" stroke="none" /><circle cx="373.497" cy="719.28" fill="black" r="0.738" stroke="none" /><circle cx="372.8383" cy="675.2601" fill="black" r="0.738" stroke="none" /><circle cx="372.4343" cy="718.4095" fill="black" r="0.738" stroke="none" /><circle cx="367.414" cy="646.8961" fill="black" r="0.738" stroke="none" /><circle cx="361.4648" cy="108.7765" fill="black" r="0.738" stroke="none" /><circle cx="360.9382" cy="230.2346" fill="black" r="1.854" stroke="none" /><circle cx="358.9641" cy="580.8362" fill="black" r="0.738" stroke="none" /><circle cx="352.3913" cy="149.9458" fill="black" r="0.738" stroke="none" /><circle cx="349.6436" cy="362.1625" fill="black" r="0.738" stroke="none" /><circle cx="345.1204" cy="170.4128" fill="black" r="0.936" stroke="none" /><circle cx="335.0793" cy="661.3854" fill="black" r="0.738" stroke="none" /><circle cx="333.0384" cy="716.4276" fill="black" r="0.738" stroke="none" /><circle cx="320.9151" cy="504.0818" fill="black" r="0.738" stroke="none" /><circle cx="316.9908" cy="423.3806" fill="black" r="0.738" stroke="none" /><circle cx="305.5919" cy="75.915" fill="black" r="0.936" stroke="none" /><circle cx="291.1033" cy="455.9221" fill="black" r="0.738" stroke="none" /><circle cx="278.9451" cy="511.9293" fill="black" r="0.738" stroke="none" /><circle cx="273.4199" cy="603.9369" fill="black" r="0.738" stroke="none" /><circle cx="266.3611" cy="219.7361" fill="black" r="0.738" stroke="none" /><circle cx="264.0033" cy="720.5952" fill="black" r="0.936" stroke="none" /><circle cx="248.1076" cy="202.0775" fill="black" r="0.738" stroke="none" /><circle cx="247.1455" cy="162.0907" fill="black" r="0.738" stroke="none" /><circle cx="246.9947" cy="230.2993" fill="black" r="0.738" stroke="none" /><circle cx="241.7032" cy="200.6851" fill="black" r="0.738" stroke="none" /><circle cx="232.9868" cy="354.4066" fill="black" r="0.738" stroke="none" /><circle cx="229.0405" cy="286.4572" fill="black" r="0.738" stroke="none" /><circle cx="226.7627" cy="503.3696" fill="black" r="0.738" stroke="none" /><circle cx="226.6013" cy="533.5848" fill="black" r="0.738" stroke="none" /><circle cx="221.8645" cy="379.7381" fill="black" r="0.738" stroke="none" /><circle cx="219.9501" cy="647.6878" fill="black" r="0.738" stroke="none" /><circle cx="218.5414" cy="593.8175" fill="black" r="0.738" stroke="none" /><circle cx="214.948" cy="614.4134" fill="black" r="0.738" stroke="none" /><circle cx="203.4601" cy="173.7985" fill="black" r="0.738" stroke="none" /><circle cx="209.2411" cy="523.0804" fill="black" r="0.738" stroke="none" /><circle cx="202.1906" cy="380.9737" fill="black" r="0.738" stroke="none" /><circle cx="206.9042" cy="655.7225" fill="black" r="0.738" stroke="none" /><circle cx="166.6013" cy="183.0909" fill="black" r="0.738" stroke="none" /><circle cx="173.749" cy="654.2778" fill="black" r="0.738" stroke="none" /><circle cx="167.1604" cy="407.2154" fill="black" r="0.738" stroke="none" /><circle cx="162.7602" cy="293.7732" fill="black" r="0.738" stroke="none" /><circle cx="164.5356" cy="571.5789" fill="black" r="0.738" stroke="none" /><circle cx="156.9249" cy="325.2653" fill="black" r="0.738" stroke="none" /><circle cx="150.5846" cy="411.3662" fill="black" r="0.738" stroke="none" /><circle cx="146.0448" cy="260.4436" fill="black" r="0.738" stroke="none" /><circle cx="150.6955" cy="716.9318" fill="black" r="0.738" stroke="none" /><circle cx="149.7958" cy="708.9118" fill="black" r="0.738" stroke="none" /><circle cx="144.0775" cy="708.019" fill="black" r="0.738" stroke="none" /><circle cx="141.0428" cy="710.8142" fill="black" r="0.738" stroke="none" /><circle cx="133.7245" cy="451.545" fill="black" r="0.738" stroke="none" /><circle cx="135.9565" cy="543.1343" fill="black" r="0.738" stroke="none" /><circle cx="125.881" cy="189.3762" fill="black" r="0.738" stroke="none" /><circle cx="126.4919" cy="443.7027" fill="black" r="0.738" stroke="none" /><circle cx="122.1243" cy="331.6432" fill="black" r="0.738" stroke="none" /><circle cx="125.4433" cy="476.4072" fill="black" r="0.738" stroke="none" /><circle cx="109.5954" cy="160.517" fill="black" r="0.738" stroke="none" /><circle cx="107.4313" cy="151.5701" fill="black" r="0.738" stroke="none" /><circle cx="116.1415" cy="469.4169" fill="black" r="0.738" stroke="none" /><circle cx="107.7063" cy="188.6284" fill="black" r="0.738" stroke="none" /><circle cx="109.3807" cy="366.5943" fill="black" r="0.738" stroke="none" /><circle cx="100.7877" cy="113.8011" fill="black" r="0.936" stroke="none" /><circle cx="116.8329" cy="683.6263" fill="black" r="0.738" stroke="none" /><circle cx="104.9863" cy="525.7588" fill="black" r="0.738" stroke="none" /><circle cx="99.3138" cy="306.9379" fill="black" r="0.738" stroke="none" /><circle cx="104.4621" cy="611.8726" fill="black" r="0.738" stroke="none" /><circle cx="83.2225" cy="612.4681" fill="black" r="0.738" stroke="none" /><circle cx="76.5292" cy="421.8552" fill="black" r="0.738" stroke="none" /><circle cx="67.9515" cy="157.4197" fill="black" r="0.738" stroke="none" /><circle cx="13.77" cy="786.23" fill="black" r="4.59" stroke="none" /><circle cx="13.77" cy="786.23" fill="black" r="4.59" stroke="none" /><text fill="black" font-family="monospace" font-size="12" x="10.77" y="775.64">1</text><circle cx="37.77" cy="786.23" fill="black" r="3.654" stroke="none" /><circle cx="37.77" cy="786.23" fill="black" r="3.654" stroke="none" /><text fill="black" font-family="monospace" font-size="12" x="34.769999999999996" y="775.64">2</text><circle cx="61.77" cy="786.23" fill="black" r="2.916" stroke="none" /><circle cx="61.77" cy="786.23" fill="black" r="2.916" stroke="none" /><text fill="black" font-family="monospace" font-size="12" x="58.769999999999996" y="775.64">3</text><circle cx="85.77" cy="786.23" fill="black" r="2.322" stroke="none" /><circle cx="85.77" cy="786.23" fill="black" r="2.322" stroke="none" /><text fill="black" font-family="monospace" font-size="12" x="82.77" y="775.64">4</text><circle cx="109.77" cy="786.23" fill="black" r="1.854" stroke="none" /><circle cx="109.77" cy="786.23" fill="black" r="1.854" stroke="none" /><text fill="black" font-family="monospace" font-size="12" x="106.77" y="775.64">5</text><circle cx="133.77" cy="786.23" fill="black" r="1.476" stroke="none" /><circle cx="133.77" cy="786.23" fill="black" r="1.476" stroke="none" /><text fill="black" font-family="monospace" font-size="12" x="130.77" y="775.64">6</text><circle cx="157.77" cy="786.23" fill="black" r="1.17" stroke="none" /><circle cx="157.77" cy="786.23" fill="black" r="1.17" stroke="none" /><text fill="black" font-family="monospace" font-size="12" x="154.77" y="775.64">7</text><circle cx="181.77" cy="786.23" fill="black" r="0.936" stroke="none" /><circle cx="181.77" cy="786.23" fill="black" r="0.936" stroke="none" /><text fill="black" font-family="monospace" font-size="12" x="178.77" y="775.64">8</text><circle cx="205.77" cy="786.23" fill="black" r="0.738" stroke="none" /><circle cx="205.77" cy="786.23" fill="black" r="0.738" stroke="none" /><text fill="black" font-family="monospace" font-size="12" x="202.77" y="775.64">9</text><text fill="gray" fill-opacity="0.5" font-family="monospace" font-size="12" x="714.4249810714775" y="77.04872226568614">07h50m</text><text fill="gray" fill-opacity="0.5" font-family="monospace" font-size="12" x="613.4967381092745" y="74.66913706684903">07h55m</text><text fill="gray" fill-opacity="0.5" font-family="monospace" font-size="12" x="512.5933090082847" y="73.19991364866695">08h00m</text><text fill="gray" fill-opacity="0.5" font-family="monospace" font-size="12" x="411.70296783120904" y="72.64001072399918">08h05m</text><text fill="gray" fill-opacity="0.5" font-family="monospace" font-size="12" x="310.81398708082133" y="72.98903155720757">08h10m</text><text fill="gray" fill-opacity="0.5" font-family="monospace" font-size="12" x="209.91463909832223" y="74.24722345166361">08h15m</text><text fill="gray" fill-opacity="0.5" font-family="monospace" font-size="12" x="108.99319745892842" y="76.41547806920494">08h20m</text><text fill="gray" fill-opacity="0.5" font-family="monospace" font-size="12" x="83.33297901746278" y="732.82315467983">-30°</text><text fill="gray" fill-opacity="0.5" font-family="monospace" font-size="12" x="80.34560916169113" y="645.4458996653692">-29°</text><text fill="gray" fill-opacity="0.5" font-family="monospace" font-size="12" x="77.40943118114279" y="558.1027018944101">-28°</text><text fill="gray" fill-opacity="0.5" font-family="monospace" font-size="12" x="74.52394885402254" y="470.7802873175766">-27°</text><text fill="gray" fill-opacity="0.5" font-family="monospace" font-size="12" x="71.68869682781576" y="383.4653944884191">-26°</text><text fill="gray" fill-opacity="0.5" font-family="monospace" font-size="12" x="68.90324031218302" y="296.1447665185394">-25°</text><text fill="gray" fill-opacity="0.5" font-family="monospace" font-size="12" x="66.16717481135521" y="208.80514303858516">-24°</text><text fill="gray" fill-opacity="0.5" font-family="monospace" font-size="12" x="63.480125895680146" y="121.43325215475375">-23°</text><text fill="black" font-family="monospace" font-size="12" x="12" y="48">&gt;&gt; No.240 07h49m 08h22m -30.0°-22.5°</text><a target="_self" xlink:href="hip008.svg"><text fill="black" font-family="monospace" font-size="12" x="12" y="36">&gt; No.8 06h00m 09h00m -52.5°-22.5°</text></a><a target="_self" xlink:href="hip001.svg"><text fill="black" font-family="monospace" font-size="12" x="12" y="24">No.1 00h 24h -90.0°+0.0°</text></a><polyline fill="none" points="737.8451,77.7311 734.6146,77.634 724.5196,77.3368 714.425,77.0487 704.3307,76.7698 694.2368,76.4999 684.1432,76.2392 674.05,75.9876 663.957,75.745 653.8644,75.5116 643.7721,75.2874 633.68,75.0722 623.5883,74.8661 613.4967,74.6691 603.4055,74.4813 593.3144,74.3025 583.2236,74.1328 573.133,73.9723 563.0427,73.8208 552.9525,73.6784 542.8624,73.5452 532.7726,73.421 522.6829,73.3059 512.5933,73.1999 502.5039,73.103 492.4146,73.0152 482.3254,72.9365 472.2363,72.8669 462.1472,72.8063 452.0583,72.7549 441.9694,72.7125 431.8806,72.6793 421.7917,72.6551 411.703,72.64 401.6142,72.634 391.5254,72.6371 381.4367,72.6493 371.3479,72.6705 361.259,72.7009 351.1702,72.7404 341.0812,72.7889 330.9922,72.8465 320.9032,72.9132 310.814,72.989 300.7247,73.0739 290.6353,73.1679 280.5458,73.271 270.4561,73.3832 260.3663,73.5044 250.2764,73.6348 240.1862,73.7743 230.0959,73.9228 220.0054,74.0805 209.9146,74.2472 199.8237,74.4231 189.7325,74.608 179.6411,74.8021 169.5494,75.0052 159.4574,75.2175 149.3652,75.4389 139.2726,75.6694 129.1798,75.909 119.0867,76.1577 108.9932,76.4155 98.8994,76.6824 88.8052,76.9585 78.7107,77.2436 68.6158,77.5379 62.1549,77.7311" stroke="black" stroke-opacity="0.5" stroke-width="1" /><polyline fill="none" points="716.667,732.8232 717.0433,721.8987 717.4187,710.9749 717.7933,700.0518 718.1671,689.1294 718.5402,678.2077 718.9124,667.2865 719.2838,656.3659 719.6544,645.4459 720.0242,634.5264 720.3932,623.6074 720.7614,612.6889 721.1288,601.7709 721.4955,590.8533 721.8613,579.936 722.2263,569.0192 722.5906,558.1027 722.954,547.1865 723.3167,536.2707 723.6785,525.3551 724.0396,514.4397 724.3999,503.5246 724.7594,492.6097 725.1181,481.6949 725.4761,470.7803 725.8332,459.8658 726.1896,448.9514 726.5451,438.037 726.8999,427.1227 727.2539,416.2084 727.6072,405.2941 727.9596,394.3798 728.3113,383.4654 728.6622,372.5509 729.0123,361.6363 729.3617,350.7215 729.7102,339.8066 730.058,328.8915 730.405,317.9762 730.7513,307.0606 731.0968,296.1448 731.4415,285.2286 731.7854,274.3122 732.1286,263.3953 732.4709,252.4782 732.8126,241.5606 733.1534,230.6426 733.4935,219.7241 733.8328,208.8051 734.1714,197.8857 734.5092,186.9657 734.8462,176.0452 735.1825,165.1241 735.518,154.2023 735.8527,143.28 736.1867,132.357 736.5199,121.4333 736.8523,110.5088 737.184,99.5837 737.515,88.6578 737.8451,77.7311" stroke="black" stroke-opacity="0.5" stroke-width="1" /><polyline fill="none" points="716.667,732.8232 713.6395,732.7193 704.1785,732.4011 694.7177,732.0927 685.2572,731.794 675.7969,731.5051 666.3369,731.226 656.877,730.9566 647.4173,730.697 637.9579,730.4471 628.4986,730.207 619.0395,729.9766 609.5806,729.756 600.1218,729.5451 590.6633,729.344 581.2048,729.1526 571.7465,728.971 562.2884,728.7991 552.8303,728.6369 543.3724,728.4845 533.9146,728.3418 524.4569,728.2088 514.9993,728.0856 505.5418,727.9721 496.0844,727.8684 486.627,727.7744 477.1698,727.6901 467.7125,727.6155 458.2554,727.5507 448.7983,727.4957 439.3412,727.4503 429.8841,727.4147 420.4271,727.3888 410.9701,727.3727 401.5131,727.3662 392.0561,727.3695 382.5991,727.3826 373.1421,727.4053 363.6851,727.4378 354.228,727.4801 344.7709,727.532 335.3137,727.5937 325.8566,727.6652 316.3993,727.7463 306.942,727.8372 297.4846,727.9379 288.0271,728.0482 278.5695,728.1683 269.1119,728.2982 259.6541,728.4377 250.1962,728.5871 240.7382,728.7461 231.2801,728.9149 221.8219,729.0934 212.3635,729.2817 202.9049,729.4797 193.4462,729.6875 183.9874,729.905 174.5283,730.1322 165.0691,730.3692 155.6097,730.616 146.1501,730.8725 136.6903,731.1388 127.2303,731.4148 117.7701,731.7005 108.3097,731.9961 98.849,732.3013 89.3881,732.6164 83.333,732.8232" stroke="black" stroke-opacity="0.5" stroke-width="1" /><polyline fill="none" points="83.333,732.8232 82.9567,721.8987 82.5813,710.9749 82.2067,700.0518 81.8329,689.1294 81.4598,678.2077 81.0876,667.2865 80.7162,656.3659 80.3456,645.4459 79.9758,634.5264 79.6068,623.6074 79.2386,612.6889 78.8712,601.7709 78.5045,590.8533 78.1387,579.936 77.7737,569.0192 77.4094,558.1027 77.046,547.1865 76.6833,536.2707 76.3215,525.3551 75.9604,514.4397 75.6001,503.5246 75.2406,492.6097 74.8819,481.6949 74.5239,470.7803 74.1668,459.8658 73.8104,448.9514 73.4549,438.037 73.1001,427.1227 72.7461,416.2084 72.3928,405.2941 72.0404,394.3798 71.6887,383.4654 71.3378,372.5509 70.9877,361.6363 70.6383,350.7215 70.2898,339.8066 69.942,328.8915 69.595,317.9762 69.2487,307.0606 68.9032,296.1448 68.5585,285.2286 68.2146,274.3122 67.8714,263.3953 67.5291,252.4782 67.1874,241.5606 66.8466,230.6426 66.5065,219.7241 66.1672,208.8051 65.8286,197.8857 65.4908,186.9657 65.1538,176.0452 64.8175,165.1241 64.482,154.2023 64.1473,143.28 63.8133,132.357 63.4801,121.4333 63.1477,110.5088 62.816,99.5837 62.485,88.6578 62.1549,77.7311" stroke="black" stroke-opacity="0.5" stroke-width="1" /></svg>