<?xml version="1.0" encoding="utf-8" ?>
<svg baseProfile="tiny" height="800" version="1.2" width="800" xmlns="http://www.w3.org/2000/svg" xmlns:ev="http://www.w3.org/2001/xml-events" xmlns:xlink="http://www.w3.org/1999/xlink"><defs /><rect fill="none" height="800" stroke="black" stroke-width="2" width="800" x="0" y="0" /><polyline fill="none" points="675.0401,731.4825 675.3668,720.5592 675.6928,709.6366 676.0181,698.7148 676.3427,687.7936 676.6666,676.873 676.9898,665.9531 677.3123,655.0338 677.6341,644.115 677.9552,633.1968 678.2756,622.2791 678.5954,611.3619 678.9144,600.4451 679.2328,589.5288 679.5504,578.6129 679.8674,567.6974 680.1837,556.7823 680.4992,545.8674 680.8141,534.9529 681.1284,524.0387 681.4419,513.1247 681.7547,502.211 682.0669,491.2975 682.3784,480.3841 682.6892,469.4709 682.9993,458.5578 683.3087,447.6448 683.6175,436.7319 683.9255,425.8191 684.2329,414.9063 684.5396,403.9934 684.8457,393.0806 685.151,382.1677 685.4557,371.2547 685.7597,360.3416 686.0631,349.4283 686.3657,338.5149 686.6677,327.6014 686.9691,316.6876 687.2697,305.7736 687.5697,294.8593 687.869,283.9447 688.1676,273.0298 688.4656,262.1146 688.7629,251.199 689.0595,240.283 689.3555,229.3666 689.6508,218.4498 689.9454,207.5325 690.2394,196.6147 690.5327,185.6963 690.8253,174.7775 691.1173,163.858 691.4086,152.938 691.6993,142.0173 691.9892,131.096 692.2786,120.174 692.5672,109.2513 692.8552,98.3279 693.1426,87.4037 693.4293,76.4787" stroke="silver" stroke-opacity="0.5" stroke-width="1" /><polyline fill="none" points="580.4481,729.1377 580.6624,718.2165 580.8762,707.2961 581.0895,696.3763 581.3024,685.4573 581.5148,674.5389 581.7267,663.6212 581.9382,652.704 582.1493,641.7875 582.3598,630.8715 582.57,619.956 582.7796,609.0411 582.9888,598.1266 583.1976,587.2126 583.4059,576.299 583.6138,565.3858 583.8212,554.473 584.0281,543.5605 584.2346,532.6484 584.4407,521.7366 584.6463,510.825 584.8515,499.9137 585.0562,489.0026 585.2604,478.0917 585.4642,467.181 585.6676,456.2704 585.8705,445.3599 586.073,434.4495 586.275,423.5392 586.4766,412.6289 586.6777,401.7187 586.8784,390.8084 587.0787,379.8981 587.2785,368.9877 587.4778,358.0773 587.6767,347.1667 587.8752,336.256 588.0732,325.3451 588.2708,314.434 588.468,303.5227 588.6647,292.6112 588.861,281.6993 589.0568,270.7872 589.2522,259.8748 589.4472,248.962 589.6417,238.0488 589.8358,227.1353 590.0294,216.2213 590.2226,205.3068 590.4154,194.3919 590.6077,183.4764 590.7996,172.5605 590.9911,161.644 591.1821,150.7269 591.3727,139.8091 591.5629,128.8908 591.7526,117.9718 591.9419,107.0521 592.1307,96.1317 592.3192,85.2105 592.5072,74.2886" stroke="silver" stroke-opacity="0.5" stroke-width="1" /><polyline fill="none" points="485.8705,727.7673 485.9724,716.8473 486.0741,705.9281 486.1756,695.0096 486.2768,684.0918 486.3779,673.1747 486.4787,662.2582 486.5794,651.3423 486.6798,640.4271 486.7799,629.5124 486.8799,618.5982 486.9797,607.6846 487.0792,596.7715 487.1785,585.8588 487.2776,574.9465 487.3765,564.0347 487.4752,553.1233 487.5736,542.2122 487.6719,531.3014 487.7699,520.391 487.8677,509.4809 487.9653,498.571 488.0627,487.6613 488.1599,476.7518 488.2568,465.8426 488.3536,454.9334 488.4501,444.0244 488.5464,433.1155 488.6426,422.2067 488.7385,411.2979 488.8341,400.3892 488.9296,389.4804 489.0249,378.5716 489.1199,367.6628 489.2148,356.7539 489.3094,345.8448 489.4038,334.9357 489.4981,324.0264 489.5921,313.1169 489.6858,302.2072 489.7794,291.2972 489.8728,280.387 489.966,269.4765 490.0589,258.5657 490.1517,247.6545 490.2442,236.743 490.3365,225.8311 490.4287,214.9188 490.5206,204.006 490.6123,193.0927 490.7038,182.179 490.7951,171.2647 490.8862,160.3499 490.9771,149.4345 491.0677,138.5186 491.1582,127.6019 491.2485,116.6847 491.3385,105.7667 491.4284,94.8481 491.518,83.9287 491.6074,73.0086" stroke="silver" stroke-opacity="0.5" stroke-width="1" /><polyline fill="none" points="391.2996,727.3702 391.2892,716.4506 391.2789,705.5317 391.2687,694.6136 391.2584,683.6962 391.2482,672.7794 391.2379,661.8633 391.2277,650.9478 391.2176,640.0329 391.2074,629.1186 391.1973,618.2049 391.1872,607.2916 391.1771,596.3788 391.167,585.4666 391.157,574.5547 391.147,563.6433 391.137,552.7322 391.127,541.8216 391.1171,530.9112 391.1071,520.0012 391.0972,509.0914 391.0873,498.182 391.0775,487.2727 391.0676,476.3637 391.0578,465.4548 391.048,454.5461 391.0382,443.6375 391.0285,432.729 391.0187,421.8207 391.009,410.9123 390.9993,400.004 390.9896,389.0957 390.98,378.1873 390.9703,367.2789 390.9607,356.3705 390.9512,345.4619 390.9416,334.5532 390.932,323.6443 390.9225,312.7353 390.913,301.826 390.9035,290.9165 390.8941,280.0068 390.8846,269.0968 390.8752,258.1864 390.8658,247.2757 390.8564,236.3647 390.8471,225.4533 390.8378,214.5414 390.8284,203.6291 390.8192,192.7164 390.8099,181.8031 390.8006,170.8894 390.7914,159.975 390.7822,149.0601 390.773,138.1447 390.7638,127.2286 390.7547,116.3118 390.7456,105.3944 390.7365,94.4762 390.7274,83.5574 390.7183,72.6377" stroke="silver" stroke-opacity="0.5" stroke-width="1" /><polyline fill="none" points="296.728,727.9463 296.6054,717.0262 296.4831,706.1068 296.361,695.1882 296.2392,684.2702 296.1177,673.3529 295.9964,662.4363 295.8754,651.5203 295.7546,640.6048 295.6342,629.69 295.5139,618.7756 295.394,607.8618 295.2742,596.9485 295.1548,586.0357 295.0356,575.1233 294.9167,564.2112 294.798,553.2996 294.6796,542.3884 294.5614,531.4774 294.4435,520.5668 294.3259,509.6565 294.2085,498.7464 294.0914,487.8366 293.9745,476.9269 293.8579,466.0174 293.7415,455.1081 293.6254,444.1989 293.5096,433.2898 293.394,422.3808 293.2787,411.4718 293.1636,400.5629 293.0487,389.6539 292.9342,378.745 292.8199,367.8359 292.7058,356.9268 292.592,346.0176 292.4784,335.1082 292.3651,324.1987 292.252,313.289 292.1392,302.3791 292.0267,291.4689 291.9144,280.5585 291.8023,269.6478 291.6905,258.7367 291.579,247.8254 291.4677,236.9136 291.3566,226.0015 291.2459,215.089 291.1353,204.176 291.025,193.2625 290.915,182.3485 290.8052,171.434 290.6956,160.519 290.5863,149.6034 290.4773,138.6872 290.3685,127.7703 290.2599,116.8529 290.1516,105.9347 290.0435,95.0158 289.9357,84.0962 289.8282,73.1758" stroke="silver" stroke-opacity="0.5" stroke-width="1" /><polyline fill="none" points="202.1482,729.496 201.9133,718.5745 201.6789,707.6537 201.445,696.7336 201.2116,685.8143 200.9786,674.8955 200.7462,663.9775 200.5143,653.06 200.2829,642.1431 200.052,631.2268 199.8216,620.311 199.5917,609.3957 199.3623,598.4808 199.1334,587.5665 198.905,576.6525 198.677,565.739 198.4496,554.8258 198.2227,543.913 197.9962,533.0005 197.7703,522.0883 197.5448,511.1764 197.3199,500.2647 197.0954,489.3532 196.8715,478.4419 196.648,467.5308 196.425,456.6199 196.2025,445.709 195.9805,434.7983 195.7589,423.8876 195.5379,412.9769 195.3173,402.0662 195.0973,391.1556 194.8777,380.2449 194.6586,369.3341 194.44,358.4232 194.2219,347.5122 194.0043,336.6011 193.7871,325.6898 193.5704,314.7783 193.3543,303.8666 193.1386,292.9546 192.9233,282.0424 192.7086,271.1299 192.4944,260.217 192.2806,249.3038 192.0673,238.3902 191.8545,227.4762 191.6421,216.5617 191.4303,205.6469 191.2189,194.7315 191.008,183.8156 190.7976,172.8992 190.5876,161.9822 190.3782,151.0647 190.1692,140.1465 189.9606,129.2277 189.7526,118.3082 189.545,107.3881 189.3379,96.4672 189.1313,85.5456 188.9252,74.6232" stroke="silver" stroke-opacity="0.5" stroke-width="1" /><polyline fill="none" points="107.5528,732.0201 107.2054,721.0964 106.8587,710.1733 106.5128,699.251 106.1677,688.3293 105.8232,677.4083 105.4795,666.4878 105.1366,655.568 104.7944,644.6487 104.4529,633.73 104.1122,622.8118 103.7722,611.8941 103.4329,600.9768 103.0944,590.06 102.7566,579.1435 102.4195,568.2275 102.0832,557.3118 101.7476,546.3964 101.4127,535.4814 101.0786,524.5666 100.7452,513.6521 100.4125,502.7378 100.0805,491.8237 99.7493,480.9098 99.4188,469.996 99.089,459.0824 98.76,448.1688 98.4317,437.2553 98.1041,426.3419 97.7772,415.4285 97.451,404.5151 97.1256,393.6016 96.8008,382.6881 96.4768,371.7745 96.1535,360.8608 95.831,349.9469 95.5091,339.0329 95.188,328.1188 94.8676,317.2043 94.5478,306.2897 94.2288,295.3748 93.9106,284.4596 93.593,273.5441 93.2761,262.6282 92.96,251.712 92.6445,240.7954 92.3298,229.8783 92.0158,218.9608 91.7025,208.0429 91.3899,197.1244 91.078,186.2054 90.7668,175.2859 90.4563,164.3657 90.1465,153.445 89.8374,142.5237 89.529,131.6017 89.2214,120.679 88.9144,109.7556 88.6081,98.8315 88.3025,87.9066 87.9977,76.9809" stroke="silver" stroke-opacity="0.5" stroke-width="1" /><polyline fill="none" points="716.667,732.8232 712.8826,732.6935 703.4216,732.3761 693.9609,732.0684 684.5004,731.7706 675.0401,731.4825 665.5801,731.2041 656.1202,730.9355 646.6606,730.6767 637.2011,730.4276 627.7419,730.1882 618.2828,729.9586 608.8239,729.7388 599.3652,729.5287 589.9066,729.3283 580.4481,729.1377 570.9899,728.9569 561.5317,728.7857 552.0737,728.6243 542.6158,728.4727 533.158,728.3308 523.7003,728.1986 514.2427,728.0762 504.7852,727.9635 495.3278,727.8605 485.8705,727.7673 476.4132,727.6838 466.956,727.61 457.4988,727.546 448.0417,727.4917 438.5846,727.4471 429.1276,727.4123 419.6706,727.3872 410.2136,727.3718 400.7566,727.3661 391.2996,727.3702 381.8426,727.384 372.3855,727.4076 362.9285,727.4409 353.4714,727.4839 344.0143,727.5366 334.5572,727.5991 325.1,727.6713 315.6427,727.7533 306.1854,727.8449 296.728,727.9463 287.2705,728.0575 277.8129,728.1784 268.3553,728.309 258.8975,728.4493 249.4396,728.5994 239.9816,728.7592 230.5235,728.9288 221.0652,729.1081 211.6068,729.2972 202.1482,729.496 192.6895,729.7045 183.2306,729.9228 173.7716,730.1508 164.3124,730.3886 154.8529,730.6362 145.3933,730.8934 135.9335,731.1605 126.4735,731.4373 117.0133,731.7238 107.5528,732.0201 98.0921,732.3262 88.6312,732.642 83.333,732.8232" stroke="silver" stroke-opacity="0.5" stroke-width="1" /><polyline fill="none" points="719.6544,645.4459 715.8342,645.3172 706.2838,645.0021 696.7336,644.6967 687.1838,644.401 677.6341,644.115 668.0847,643.8387 658.5355,643.5721 648.9866,643.3151 639.4378,643.0679 629.8893,642.8303 620.3409,642.6024 610.7927,642.3841 601.2447,642.1756 591.6969,641.9767 582.1493,641.7875 572.6017,641.6079 563.0544,641.4381 553.5072,641.2779 543.9601,641.1273 534.4131,640.9864 524.8662,640.8552 515.3195,640.7337 505.7728,640.6218 496.2262,640.5196 486.6798,640.4271 477.1333,640.3442 467.587,640.271 458.0407,640.2074 448.4945,640.1535 438.9483,640.1093 429.4021,640.0747 419.8559,640.0497 410.3098,640.0345 400.7637,640.0289 391.2176,640.0329 381.6714,640.0467 372.1253,640.07 362.5791,640.1031 353.0329,640.1458 343.4867,640.1981 333.9404,640.2601 324.3941,640.3318 314.8477,640.4132 305.3012,640.5042 295.7546,640.6048 286.208,640.7152 276.6613,640.8351 267.1144,640.9648 257.5675,641.1041 248.0204,641.2531 238.4732,641.4118 228.9258,641.5801 219.3784,641.7581 209.8307,641.9458 200.2829,642.1431 190.735,642.3501 181.1868,642.5668 171.6385,642.7932 162.09,643.0292 152.5413,643.2749 142.9923,643.5303 133.4432,643.7954 123.8938,644.0702 114.3442,644.3546 104.7944,644.6487 95.2443,644.9526 85.6939,645.2661 80.3456,645.4459" stroke="silver" stroke-opacity="0.5" stroke-width="1" /><polyline fill="none" points="722.5906,558.1027 718.7352,557.975 709.0969,557.6624 699.4589,557.3594 689.8211,557.066 680.1837,556.7823 670.5464,556.5081 660.9094,556.2436 651.2727,555.9886 641.6361,555.7433 631.9998,555.5076 622.3637,555.2815 612.7278,555.065 603.0921,554.858 593.4566,554.6607 583.8212,554.473 574.186,554.2949 564.5509,554.1263 554.916,553.9674 545.2813,553.818 535.6467,553.6783 526.0122,553.5481 516.3778,553.4275 506.7435,553.3165 497.1093,553.2151 487.4752,553.1233 477.8411,553.041 468.2072,552.9684 458.5733,552.9053 448.9394,552.8518 439.3056,552.808 429.6719,552.7736 420.0381,552.7489 410.4044,552.7338 400.7707,552.7282 391.137,552.7322 381.5033,552.7458 371.8695,552.769 362.2358,552.8018 352.602,552.8442 342.9681,552.8961 333.3342,552.9577 323.7003,553.0288 314.0663,553.1095 304.4322,553.1998 294.798,553.2996 285.1637,553.4091 275.5294,553.5281 265.8949,553.6568 256.2603,553.795 246.6255,553.9428 236.9907,554.1002 227.3556,554.2672 217.7205,554.4438 208.0851,554.63 198.4496,554.8258 188.8139,555.0312 179.178,555.2462 169.542,555.4708 159.9057,555.705 150.2692,555.9487 140.6325,556.2021 130.9955,556.4651 121.3583,556.7378 111.7209,557.02 102.0832,557.3118 92.4452,557.6132 82.807,557.9243 77.4094,558.1027" stroke="silver" stroke-opacity="0.5" stroke-width="1" /><polyline fill="none" points="725.4761,470.7803 721.5861,470.6536 711.8614,470.3436 702.1371,470.0432 692.413,469.7523 682.6892,469.4709 672.9656,469.199 663.2423,468.9367 653.5193,468.6839 643.7965,468.4407 634.0739,468.2069 624.3516,467.9827 614.6295,467.768 604.9075,467.5628 595.1858,467.3671 585.4642,467.181 575.7429,467.0043 566.0216,466.8372 556.3006,466.6796 546.5797,466.5315 536.8589,466.3929 527.1383,466.2638 517.4178,466.1442 507.6974,466.0342 497.9771,465.9336 488.2568,465.8426 478.5367,465.761 468.8167,465.689 459.0967,465.6264 449.3767,465.5734 439.6568,465.5299 429.937,465.4959 420.2172,465.4713 410.4974,465.4563 400.7776,465.4508 391.0578,465.4548 381.338,465.4683 371.6182,465.4913 361.8983,465.5238 352.1785,465.5658 342.4585,465.6173 332.7385,465.6783 323.0185,465.7488 313.2984,465.8289 303.5782,465.9184 293.8579,466.0174 284.1375,466.126 274.417,466.244 264.6964,466.3716 254.9756,466.5087 245.2548,466.6552 235.5337,466.8113 225.8125,466.9769 216.0912,467.1521 206.3697,467.3367 196.648,467.5308 186.9261,467.7345 177.204,467.9477 167.4817,468.1704 157.7591,468.4026 148.0364,468.6444 138.3134,468.8956 128.5901,469.1564 118.8666,469.4268 109.1429,469.7066 99.4188,469.996 89.6945,470.2949 79.9699,470.6034 74.5239,470.7803" stroke="silver" stroke-opacity="0.5" stroke-width="1" /><polyline fill="none" points="728.3113,383.4654 724.3874,383.3399 714.5778,383.0326 704.7686,382.7349 694.9597,382.4465 685.151,382.1677 675.3427,381.8982 665.5346,381.6382 655.7268,381.3877 645.9192,381.1466 636.1119,380.9149 626.3048,380.6927 616.498,380.4799 606.6913,380.2765 596.8849,380.0826 587.0787,379.8981 577.2726,379.723 567.4667,379.5574 557.661,379.4012 547.8555,379.2544 538.0501,379.1171 528.2448,378.9891 518.4396,378.8706 508.6346,378.7615 498.8297,378.6619 489.0249,378.5716 479.2202,378.4908 469.4155,378.4194 459.6109,378.3574 449.8064,378.3049 440.0019,378.2617 430.1975,378.228 420.3931,378.2037 410.5887,378.1888 400.7843,378.1834 390.98,378.1873 381.1756,378.2007 371.3712,378.2235 361.5668,378.2557 351.7623,378.2973 341.9578,378.3484 332.1532,378.4089 322.3486,378.4788 312.5439,378.5581 302.7391,378.6468 292.9342,378.745 283.1292,378.8525 273.324,378.9695 263.5188,379.096 253.7134,379.2318 243.9079,379.3771 234.1022,379.5318 224.2964,379.6959 214.4903,379.8695 204.6841,380.0525 194.8777,380.2449 185.0711,380.4467 175.2643,380.658 165.4572,380.8787 155.65,381.1089 145.8424,381.3485 136.0347,381.5975 126.2266,381.856 116.4183,382.1239 106.6097,382.4013 96.8008,382.6881 86.9917,382.9844 77.1822,383.2901 71.6887,383.4654" stroke="silver" stroke-opacity="0.5" stroke-width="1" /><polyline fill="none" points="731.0968,296.1448 727.1395,296.0204 717.2465,295.7161 707.3539,295.4211 697.4617,295.1355 687.5697,294.8593 677.678,294.5924 667.7866,294.3348 657.8955,294.0867 648.0047,293.8478 638.1141,293.6184 628.2238,293.3982 618.3337,293.1874 608.4438,292.986 598.5541,292.7939 588.6647,292.6112 578.7755,292.4377 568.8864,292.2737 558.9975,292.1189 549.1088,291.9735 539.2203,291.8375 529.3318,291.7108 519.4436,291.5934 509.5554,291.4853 499.6674,291.3866 489.7794,291.2972 479.8916,291.2172 470.0038,291.1464 460.1161,291.085 450.2285,291.033 440.341,290.9902 430.4534,290.9568 420.5659,290.9328 410.6785,290.918 400.791,290.9126 390.9035,290.9165 381.0161,290.9298 371.1286,290.9524 361.2411,290.9843 351.3535,291.0255 341.4659,291.0761 331.5782,291.136 321.6905,291.2052 311.8026,291.2838 301.9147,291.3717 292.0267,291.4689 282.1386,291.5755 272.2503,291.6913 262.3619,291.8166 252.4734,291.9511 242.5847,292.095 232.6958,292.2483 222.8068,292.4109 212.9176,292.5828 203.0282,292.764 193.1386,292.9546 183.2487,293.1546 173.3587,293.3639 163.4684,293.5825 153.5778,293.8105 143.6871,294.0478 133.796,294.2945 123.9046,294.5505 114.013,294.8159 104.1211,295.0907 94.2288,295.3748 84.3363,295.6683 74.4434,295.9711 68.9032,296.1448" stroke="silver" stroke-opacity="0.5" stroke-width="1" /><polyline fill="none" points="733.8328,208.8051 729.8428,208.682 719.8679,208.3807 709.8934,208.0887 699.9193,207.806 689.9454,207.5325 679.9719,207.2683 669.9987,207.0133 660.0257,206.7676 650.0531,206.5311 640.0807,206.304 630.1086,206.086 620.1368,205.8773 610.1652,205.6779 600.1938,205.4877 590.2226,205.3068 580.2517,205.1351 570.2809,204.9727 560.3103,204.8195 550.3399,204.6756 540.3697,204.5409 530.3996,204.4154 520.4297,204.2992 510.4599,204.1922 500.4902,204.0945 490.5206,204.006 480.5511,203.9267 470.5817,203.8567 460.6124,203.7959 450.6432,203.7444 440.674,203.7021 430.7048,203.669 420.7357,203.6452 410.7666,203.6306 400.7975,203.6253 390.8284,203.6291 380.8594,203.6422 370.8902,203.6646 360.9211,203.6962 350.9519,203.737 340.9827,203.7871 331.0134,203.8464 321.044,203.9149 311.0745,203.9927 301.105,204.0797 291.1353,204.176 281.1655,204.2815 271.1956,204.3962 261.2255,204.5202 251.2553,204.6534 241.285,204.7959 231.3144,204.9476 221.3437,205.1085 211.3728,205.2787 201.4016,205.4582 191.4303,205.6469 181.4587,205.8448 171.4869,206.052 161.5148,206.2685 151.5425,206.4942 141.5699,206.7291 131.597,206.9734 121.6239,207.2268 111.6504,207.4896 101.6766,207.7616 91.7025,208.0429 81.728,208.3334 71.7532,208.6332 66.1672,208.8051" stroke="silver" stroke-opacity="0.5" stroke-width="1" /><polyline fill="none" points="736.5199,121.4333 732.4976,121.3114 722.4423,121.0133 712.3874,120.7244 702.3328,120.4446 692.2786,120.174 682.2247,119.9126 672.1711,119.6603 662.1178,119.4172 652.0648,119.1832 642.0121,118.9584 631.9597,118.7428 621.9076,118.5363 611.8557,118.339 601.804,118.1508 591.7526,117.9718 581.7014,117.8019 571.6504,117.6412 561.5996,117.4896 551.549,117.3472 541.4985,117.2139 531.4482,117.0898 521.3981,116.9748 511.3481,116.8689 501.2982,116.7722 491.2485,116.6847 481.1988,116.6063 471.1492,116.537 461.0998,116.4768 451.0503,116.4259 441.001,116.384 430.9517,116.3513 420.9024,116.3277 410.8532,116.3133 400.8039,116.308 390.7547,116.3118 380.7055,116.3248 370.6562,116.3469 360.6069,116.3781 350.5576,116.4185 340.5082,116.4681 330.4587,116.5267 320.4091,116.5946 310.3595,116.6715 300.3098,116.7576 290.2599,116.8529 280.2099,116.9572 270.1598,117.0708 260.1096,117.1934 250.0591,117.3253 240.0085,117.4662 229.9578,117.6163 219.9068,117.7756 209.8556,117.944 199.8042,118.1215 189.7526,118.3082 179.7007,118.5041 169.6486,118.7091 159.5963,118.9233 149.5436,119.1466 139.4907,119.3791 129.4375,119.6208 119.3839,119.8716 109.3301,120.1315 99.2759,120.4007 89.2214,120.679 79.1665,120.9665 69.1112,121.2631 63.4801,121.4333" stroke="silver" stroke-opacity="0.5" stroke-width="1" /><circle cx="703.7942" cy="648.6817" fill="black" r="0.738" stroke="none" /><circle cx="708.9184" cy="462.2987" fill="black" r="0.738" stroke="none" /><circle cx="712.617" cy="323.2821" fill="black" r="0.936" stroke="none" /><circle cx="707.9628" cy="336.3393" fill="black" r="0.738" stroke="none" /><circle cx="699.333" cy="600.9756" fill="black" r="0.738" stroke="none" /><circle cx="692.7456" cy="590.2817" fill="black" r="0.738" stroke="none" /><circle cx="707.0962" cy="82.0061" fill="black" r="0.738" stroke="none" /><circle cx="702.2484" cy="232.7828" fill="black" r="1.17" stroke="none" /><circle cx="691.6101" cy="533.4348" fill="black" r="0.738" stroke="none" /><circle cx="696.2781" cy="209.5406" fill="black" r="0.738" stroke="none" /><circle cx="683.2457" cy="573.3896" fill="black" r="0.738" stroke="none" /><circle cx="675.8368" cy="573.8737" fill="black" r="0.738" stroke="none" /><circle cx="675.9175" cy="222.1075" fill="black" r="0.738" stroke="none" /><circle cx="665.0104" cy="493.009" fill="black" r="0.738" stroke="none" /><circle cx="666.9259" cy="367.435" fill="black" r="0.738" stroke="none" /><circle cx="656.4952" cy="653.9182" fill="black" r="0.738" stroke="none" /><circle cx="655.8945" cy="433.6282" fill="black" r="0.738" stroke="none" /><circle cx="650.7898" cy="612.6864" fill="black" r="0.738" stroke="none" /><circle cx="658.3748" cy="131.4796" fill="black" r="0.738" stroke="none" /><circle cx="640.4572" cy="727.5392" fill="black" r="0.738" stroke="none" /><circle cx="651.7627" cy="269.1275" fill="black" r="0.738" stroke="none" /><circle cx="652.0981" cy="166.6437" fill="black" r="0.738" stroke="none" /><circle cx="637.5887" cy="631.4853" fill="black" r="0.738" stroke="none" /><circle cx="639.9847" cy="287.9833" fill="black" r="0.738" stroke="none" /><circle cx="602.1136" cy="707.7358" fill="black" r="0.738" stroke="none" /><circle cx="608.2592" cy="167.8138" fill="black" r="0.738" stroke="none" /><circle cx="596.623" cy="195.6387" fill="black" r="0.738" stroke="none" /><circle cx="590.2527" cy="326.9565" fill="black" r="0.738" stroke="none" /><circle cx="582.7322" cy="666.7862" fill="black" r="0.738" stroke="none" /><circle cx="587.1171" cy="377.8033" fill="black" r="0.738" stroke="none" /><circle cx="588.3599" cy="174.7892" fill="black" r="0.738" stroke="none" /><circle cx="576.9606" cy="685.8107" fill="black" r="0.738" stroke="none" /><circle cx="578.8709" cy="571.9341" fill="black" r="0.738" stroke="none" /><circle cx="570.9476" cy="330.5492" fill="black" r="0.738" stroke="none" /><circle cx="553.3437" cy="441.4039" fill="black" r="0.738" stroke="none" /><circle cx="554.8925" cy="85.1526" fill="black" r="0.738" stroke="none" /><circle cx="543.5635" cy="606.71" fill="black" r="0.936" stroke="none" /><circle cx="542.7515" cy="489.2607" fill="black" r="0.738" stroke="none" /><circle cx="544.714" cy="213.6802" fill="black" r="0.738" stroke="none" /><circle cx="528.164" cy="684.4868" fill="black" r="0.738" stroke="none" /><circle cx="527.7283" cy="598.3634" fill="black" r="0.738" stroke="none" /><circle cx="520.8086" cy="468.7163" fill="black" r="0.936" stroke="none" /><circle cx="512.4094" cy="549.9758" fill="black" r="0.738" stroke="none" /><circle cx="513.8488" cy="123.8825" fill="black" r="0.738" stroke="none" /><circle cx="507.6708" cy="187.9229" fill="black" r="0.936" stroke="none" /><circle cx="497.0132" cy="469.0663" fill="black" r="0.738" stroke="none" /><circle cx="489.6544" cy="624.7364" fill="black" r="0.738" stroke="none" /><circle cx="487.4942" cy="290.2304" fill="black" r="0.738" stroke="none" /><circle cx="468.7483" cy="430.3422" fill="black" r="0.738" stroke="none" /><circle cx="466.5247" cy="606.5594" fill="black" r="0.738" stroke="none" /><circle cx="465.5358" cy="703.838" fill="black" r="0.738" stroke="none" /><circle cx="463.5169" cy="527.6227" fill="black" r="0.738" stroke="none" /><circle cx="461.5657" cy="638.396" fill="black" r="0.738" stroke="none" /><circle cx="447.8125" cy="698.6632" fill="black" r="0.738" stroke="none" /><circle cx="444.2978" cy="453.5932" fill="black" r="0.738" stroke="none" /><circle cx="444.1874" cy="297.9881" fill="black" r="0.738" stroke="none" /><circle cx="439.5972" cy="192.8724" fill="black" r="0.738" stroke="none" /><circle cx="437.1621" cy="86.3234" fill="black" r="0.738" stroke="none" /><circle cx="435.1876" cy="624.5524" fill="black" r="0.738" stroke="none" /><circle cx="432.035" cy="513.7655" fill="black" r="0.738" stroke="none" /><circle cx="426.9603" cy="639.3688" fill="black" r="1.17" stroke="none" /><circle cx="426.6261" cy="482.2427" fill="black" r="0.738" stroke="none" /><circle cx="421.8675" cy="421.8404" fill="black" r="0.738" stroke="none" /><circle cx="414.129" cy="132.1243" fill="black" r="0.738" stroke="none" /><circle cx="402.6829" cy="316.048" fill="black" r="0.738" stroke="none" /><circle cx="395.1107" cy="636.7121" fill="black" r="0.738" stroke="none" /><circle cx="394.5127" cy="74.6445" fill="black" r="0.738" stroke="none" /><circle cx="394.4516" cy="113.7765" fill="black" r="0.738" stroke="none" /><circle cx="386.3442" cy="125.3118" fill="black" r="0.738" stroke="none" /><circle cx="380.0046" cy="172.6501" fill="black" r="0.738" stroke="none" /><circle cx="379.684" cy="172.3014" fill="black" r="0.738" stroke="none" /><circle cx="372.8241" cy="617.4539" fill="black" r="0.738" stroke="none" /><circle cx="364.1217" cy="323.5278" fill="black" r="0.936" stroke="none" /><circle cx="363.5313" cy="401.1128" fill="black" r="0.738" stroke="none" /><circle cx="361.3094" cy="178.4632" fill="black" r="0.936" stroke="none" /><circle cx="362.1497" cy="722.0277" fill="black" r="0.738" stroke="none" /><circle cx="360.4856" cy="577.0761" fill="black" r="0.738" stroke="none" /><circle cx="358.4432" cy="75.1571" fill="black" r="0.936" stroke="none" /><circle cx="354.2255" cy="241.7839" fill="black" r="0.738" stroke="none" /><circle cx="348.1686" cy="221.9085" fill="black" r="0.738" stroke="none" /><circle cx="346.3621" cy="688.7377" fill="black" r="0.738" stroke="none" /><circle cx="345.4722" cy="626.9141" fill="black" r="0.738" stroke="none" /><circle cx="335.5879" cy="437.208" fill="black" r="0.738" stroke="none" /><circle cx="336.1163" cy="554.0737" fill="black" r="0.738" stroke="none" /><circle cx="331.4395" cy="233.0022" fill="black" r="0.936" stroke="none" /><circle cx="322.3858" cy="383.3659" fill="black" r="0.738" stroke="none" /><circle cx="318.4614" cy="157.3943" fill="black" r="0.738" stroke="none" /><circle cx="316.8772" cy="696.7288" fill="black" r="0.738" stroke="none" /><circle cx="309.363" cy="503.0468" fill="black" r="0.738" stroke="none" /><circle cx="306.912" cy="257.0206" fill="black" r="0.738" stroke="none" /><circle cx="303.6392" cy="340.7588" fill="black" r="0.738" stroke="none" /><circle cx="299.0038" cy="490.1418" fill="black" r="0.738" stroke="none" /><circle cx="295.3247" cy="288.9913" fill="black" r="0.738" stroke="none" /><circle cx="294.5944" cy="520.216" fill="black" r="0.738" stroke="none" /><circle cx="291.699" cy="410.0049" fill="black" r="0.738" stroke="none" /><circle cx="285.125" cy="163.8949" fill="black" r="0.738" stroke="none" /><circle cx="288.3948" cy="657.6325" fill="black" r="0.936" stroke="none" /><circle cx="270.4878" cy="574.2" fill="black" r="0.738" stroke="none" /><circle cx="272.3508" cy="716.2816" fill="black" r="0.738" stroke="none" /><circle cx="244.2821" cy="185.8007" fill="black" r="0.738" stroke="none" /><circle cx="241.0635" cy="134.8362" fill="black" r="0.738" stroke="none" /><circle cx="230.3715" cy="362.7434" fill="black" r="0.738" stroke="none" /><circle cx="225.9488" cy="228.2638" fill="black" r="0.738" stroke="none" /><circle cx="223.0957" cy="432.101" fill="black" r="0.738" stroke="none" /><circle cx="219.5287" cy="239.3741" fill="black" r="0.738" stroke="none" /><circle cx="222.1881" cy="498.9981" fill="black" r="0.738" stroke="none" /><circle cx="209.9325" cy="145.6402" fill="black" r="0.738" stroke="none" /><circle cx="216.5156" cy="596.3018" fill="black" r="0.738" stroke="none" /><circle cx="211.6721" cy="455.6217" fill="black" r="0.738" stroke="none" /><circle cx="211.3102" cy="699.9361" fill="black" r="1.17" stroke="none" /><circle cx="199.9113" cy="299.4599" fill="black" r="0.738" stroke="none" /><circle cx="182.7921" cy="192.8011" fill="black" r="0.738" stroke="none" /><circle cx="177.7294" cy="312.7465" fill="black" r="0.738" stroke="none" /><circle cx="179.0114" cy="422.8439" fill="black" r="0.936" stroke="none" /><circle cx="177.3304" cy="388.9965" fill="black" r="0.738" stroke="none" /><circle cx="176.6345" cy="456.4322" fill="black" r="0.738" stroke="none" /><circle cx="170.1485" cy="221.8058" fill="black" r="0.738" stroke="none" /><circle cx="171.9121" cy="524.9284" fill="black" r="0.738" stroke="none" /><circle cx="164.0354" cy="576.309" fill="black" r="0.936" stroke="none" /><circle cx="159.5801" cy="667.3907" fill="black" r="0.738" stroke="none" /><circle cx="142.4987" cy="171.9265" fill="black" r="0.738" stroke="none" /><circle cx="152.1863" cy="647.2174" fill="black" r="0.738" stroke="none" /><circle cx="140.2297" cy="434.776" fill="black" r="0.738" stroke="none" /><circle cx="130.2077" cy="78.3326" fill="black" r="0.738" stroke="none" /><circle cx="131.2045" cy="337.9558" fill="black" r="0.738" stroke="none" /><circle cx="133.4455" cy="452.7755" fill="black" r="0.738" stroke="none" /><circle cx="120.0801" cy="83.5662" fill="black" r="0.738" stroke="none" /><circle cx="122.5255" cy="499.9049" fill="black" r="0.738" stroke="none" /><circle cx="126.178" cy="690.6921" fill="black" r="0.738" stroke="none" /><circle cx="110.7349" cy="185.2254" fill="black" r="1.17" stroke="none" /><circle cx="107.9818" cy="233.9838" fill="black" r="0.738" stroke="none" /><circle cx="108.2232" cy="411.1894" fill="black" r="0.738" stroke="none" /><circle cx="97.9531" cy="303.6563" fill="black" r="0.738" stroke="none" /><circle cx="90.458" cy="136.0353" fill="black" r="0.936" stroke="none" /><circle cx="97.1697" cy="416.0584" fill="black" r="0.738" stroke="none" /><circle cx="77.5761" cy="442.2739" fill="black" r="0.936" stroke="none" /><circle cx="13.77" cy="786.23" fill="black" r="4.59" stroke="none" /><circle cx="13.77" cy="786.23" fill="black" r="4.59" stroke="none" /><text fill="black" font-family="monospace" font-size="12" x="10.77" y="775.64">1</text><circle cx="37.77" cy="786.23" fill="black" r="3.654" stroke="none" /><circle cx="37.77" cy="786.23" fill="black" r="3.654" stroke="none" /><text fill="black" font-family="monospace" font-size="12" x="34.769999999999996" y="775.64">2</text><circle cx="61.77" cy="786.23" fill="black" r="2.916" stroke="none" /><circle cx="61.77" cy="786.23" fill="black" r="2.916" stroke="none" /><text fill="black" font-family="monospace" font-size="12" x="58.769999999999996" y="775.64">3</text><circle cx="85.77" cy="786.23" fill="black" r="2.322" stroke="none" /><circle cx="85.77" cy="786.23" fill="black" r="2.322" stroke="none" /><text fill="black" font-family="monospace" font-size="12" x="82.77" y="775.64">4</text><circle cx="109.77" cy="786.23" fill="black" r="1.854" stroke="none" /><circle cx="109.77" cy="786.23" fill="black" r="1.854" stroke="none" /><text fill="black" font-family="monospace" font-size="12" x="106.77" y="775.64">5</text><circle cx="133.77" cy="786.23" fill="black" r="1.476" stroke="none" /><circle cx="133.77" cy="786.23" fill="black" r="1.476" stroke="none" /><text fill="black" font-family="monospace" font-size="12" x="130.77" y="775.64">6</text><circle cx="157.77" cy="786.23" fill="black" r="1.17" stroke="none" /><circle cx="157.77" cy="786.23" fill="black" r="1.17" stroke="none" /><text fill="black" font-family="monospace" font-size="12" x="154.77" y="775.64">7</text><circle cx="181.77" cy="786.23" fill="black" r="0.936" stroke="none" /><circle cx="181.77" cy="786.23" fill="black" r="0.936" stroke="none" /><text fill="black" font-family="monospace" font-size="12" x="178.77" y="775.64">8</text><circle cx="205.77" cy="786.23" fill="black" r="0.738" stroke="none" /><circle cx="205.77" cy="786.23" fill="black" r="0.738" stroke="none" /><text fill="black" font-family="monospace" font-size="12" x="202.77" y="775.64">9</text><text fill="gray" fill-opacity="0.5" font-family="monospace" font-size="12" x="693.4292858280489" y="76.47871046653876">10h05m</text><text fill="gray" fill-opacity="0.5" font-family="monospace" font-size="12" x="592.5071698656453" y="74.28859803877532">10h10m</text><text fill="gray" fill-opacity="0.5" font-family="monospace" font-size="12" x="491.60742896749537" y="73.00857765972188">10h15m</text><text fill="gray" fill-opacity="0.5" font-family="monospace" font-size="12" x="390.7183367557092" y="72.63774219211376">10h20m</text><text fill="gray" fill-opacity="0.5" font-family="monospace" font-size="12" x="289.8281655847175" y="73.17582887504409">10h25m</text><text fill="gray" fill-opacity="0.5" font-family="monospace" font-size="12" x="188.92518793709863" y="74.62321898453791">10h30m</text><text fill="gray" fill-opacity="0.5" font-family="monospace" font-size="12" x="87.99767782158057" y="76.98093832607697">10h35m</text><text fill="gray" fill-opacity="0.5" font-family="monospace" font-size="12" x="83.33297901746084" y="732.82315467983">-30°</text><text fill="gray" fill-opacity="0.5" font-family="monospace" font-size="12" x="80.3456091616892" y="645.4458996653692">-29°</text><text fill="gray" fill-opacity="0.5" font-family="monospace" font-size="12" x="77.4094311811408" y="558.1027018944101">-28°</text><text fill="gray" fill-opacity="0.5" font-family="monospace" font-size="12" x="74.52394885402055" y="470.7802873175766">-27°</text><text fill="gray" fill-opacity="0.5" font-family="monospace" font-size="12" x="71.68869682781377" y="383.4653944884191">-26°</text><text fill="gray" fill-opacity="0.5" font-family="monospace" font-size="12" x="68.90324031218097" y="296.1447665185394">-25°</text><text fill="gray" fill-opacity="0.5" font-family="monospace" font-size="12" x="66.16717481135316" y="208.80514303858516">-24°</text><text fill="gray" fill-opacity="0.5" font-family="monospace" font-size="12" x="63.4801258956781" y="121.43325215475375">-23°</text><text fill="black" font-family="monospace" font-size="12" x="12" y="48">&gt;&gt; No.244 10h03m 10h36m -30.0°-22.5°</text><a target="_self" xlink:href="hip009.svg"><text fill="black" font-family="monospace" font-size="12" x="12" y="36">&gt; No.9 09h00m 12h00m -52.5°-22.5°</text></a><a target="_self" xlink:href="hip001.svg"><text fill="black" font-family="monospace" font-size="12" x="12" y="24">No.1 00h 24h -90.0°+0.0°</text></a><polyline fill="none" points="737.8451,77.7311 733.807,77.6099 723.712,77.3134 713.6174,77.0261 703.5232,76.7478 693.4293,76.4787 683.3357,76.2187 673.2425,75.9678 663.1496,75.726 653.057,75.4934 642.9647,75.2698 632.8727,75.0554 622.7809,74.85 612.6894,74.6538 602.5982,74.4666 592.5072,74.2886 582.4164,74.1197 572.3258,73.9598 562.2354,73.8091 552.1452,73.6674 542.0552,73.5349 531.9654,73.4114 521.8757,73.2971 511.7861,73.1918 501.6967,73.0957 491.6074,73.0086 481.5182,72.9306 471.4291,72.8617 461.3401,72.8019 451.2512,72.7512 441.1623,72.7095 431.0734,72.677 420.9846,72.6536 410.8959,72.6392 400.8071,72.6339 390.7183,72.6377 380.6296,72.6506 370.5408,72.6726 360.4519,72.7037 350.3631,72.7439 340.2741,72.7932 330.1851,72.8515 320.096,72.919 310.0068,72.9955 299.9176,73.0811 289.8282,73.1758 279.7386,73.2796 269.649,73.3925 259.5592,73.5145 249.4692,73.6456 239.379,73.7858 229.2887,73.9351 219.1981,74.0935 209.1074,74.261 199.0164,74.4375 188.9252,74.6232 178.8337,74.818 168.742,75.0219 158.65,75.2349 148.5578,75.457 138.4652,75.6882 128.3724,75.9285 118.2792,76.178 108.1857,76.4365 98.0919,76.7042 87.9977,76.9809 77.9031,77.2668 67.8082,77.5619 62.1549,77.7311" stroke="black" stroke-opacity="0.5" stroke-width="1" /><polyline fill="none" points="716.667,732.8232 717.0433,721.8987 717.4187,710.9749 717.7933,700.0518 718.1671,689.1294 718.5402,678.2077 718.9124,667.2865 719.2838,656.3659 719.6544,645.4459 720.0242,634.5264 720.3932,623.6074 720.7614,612.6889 721.1288,601.7709 721.4955,590.8533 721.8613,579.936 722.2263,569.0192 722.5906,558.1027 722.954,547.1865 723.3167,536.2707 723.6785,525.3551 724.0396,514.4397 724.3999,503.5246 724.7594,492.6097 725.1181,481.6949 725.4761,470.7803 725.8332,459.8658 726.1896,448.9514 726.5451,438.037 726.8999,427.1227 727.2539,416.2084 727.6072,405.2941 727.9596,394.3798 728.3113,383.4654 728.6622,372.5509 729.0123,361.6363 729.3617,350.7215 729.7102,339.8066 730.058,328.8915 730.405,317.9762 730.7513,307.0606 731.0968,296.1448 731.4415,285.2286 731.7854,274.3122 732.1286,263.3953 732.4709,252.4782 732.8126,241.5606 733.1534,230.6426 733.4935,219.7241 733.8328,208.8051 734.1714,197.8857 734.5092,186.9657 734.8462,176.0452 735.1825,165.1241 735.518,154.2023 735.8527,143.28 736.1867,132.357 736.5199,121.4333 736.8523,110.5088 737.184,99.5837 737.515,88.6578 737.8451,77.7311" stroke="black" stroke-opacity="0.5" stroke-width="1" /><polyline fill="none" points="716.667,732.8232 712.8826,732.6935 703.4216,732.3761 693.9609,732.0684 684.5004,731.7706 675.0401,731.4825 665.5801,731.2041 656.1202,730.9355 646.6606,730.6767 637.2011,730.4276 627.7419,730.1882 618.2828,729.9586 608.8239,729.7388 599.3652,729.5287 589.9066,729.3283 580.4481,729.1377 570.9899,728.9569 561.5317,728.7857 552.0737,728.6243 542.6158,728.4727 533.158,728.3308 523.7003,728.1986 514.2427,728.0762 504.7852,727.9635 495.3278,727.8605 485.8705,727.7673 476.4132,727.6838 466.956,727.61 457.4988,727.546 448.0417,727.4917 438.5846,727.4471 429.1276,727.4123 419.6706,727.3872 410.2136,727.3718 400.7566,727.3661 391.2996,727.3702 381.8426,727.384 372.3855,727.4076 362.9285,727.4409 353.4714,727.4839 344.0143,727.5366 334.5572,727.5991 325.1,727.6713 315.6427,727.7533 306.1854,727.8449 296.728,727.9463 287.2705,728.0575 277.8129,728.1784 268.3553,728.309 258.8975,728.4493 249.4396,728.5994 239.9816,728.7592 230.5235,728.9288 221.0652,729.1081 211.6068,729.2972 202.1482,729.496 192.6895,729.7045 183.2306,729.9228 173.7716,730.1508 164.3124,730.3886 154.8529,730.6362 145.3933,730.8934 135.9335,731.1605 126.4735,731.4373 117.0133,731.7238 107.5528,732.0201 98.0921,732.3262 88.6312,732.642 83.333,732.8232" stroke="black" stroke-opacity="0.5" stroke-width="1" /><polyline fill="none" points="83.333,732.8232 82.9567,721.8987 82.5813,710.9749 82.2067,700.0518 81.8329,689.1294 81.4598,678.2077 81.0876,667.2865 80.7162,656.3659 80.3456,645.4459 79.9758,634.5264 79.6068,623.6074 79.2386,612.6889 78.8712,601.7709 78.5045,590.8533 78.1387,579.936 77.7737,569.0192 77.4094,558.1027 77.046,547.1865 76.6833,536.2707 76.3215,525.3551 75.9604,514.4397 75.6001,503.5246 75.2406,492.6097 74.8819,481.6949 74.5239,470.7803 74.1668,459.8658 73.8104,448.9514 73.4549,438.037 73.1001,427.1227 72.7461,416.2084 72.3928,405.2941 72.0404,394.3798 71.6887,383.4654 71.3378,372.5509 70.9877,361.6363 70.6383,350.7215 70.2898,339.8066 69.942,328.8915 69.595,317.9762 69.2487,307.0606 68.9032,296.1448 68.5585,285.2286 68.2146,274.3122 67.8714,263.3953 67.5291,252.4782 67.1874,241.5606 66.8466,230.6426 66.5065,219.7241 66.1672,208.8051 65.8286,197.8857 65.4908,186.9657 65.1538,176.0452 64.8175,165.1241 64.482,154.2023 64.1473,143.28 63.8133,132.357 63.4801,121.4333 63.1477,110.5088 62.816,99.5837 62.485,88.6578 62.1549,77.7311" stroke="black" stroke-opacity="0.5" stroke-width="1" /></svg>