<?xml version="1.0" encoding="utf-8" ?>
<svg baseProfile="tiny" height="800" version="1.2" width="800" xmlns="http://www.w3.org/2000/svg" xmlns:ev="http://www.w3.org/2001/xml-events" xmlns:xlink="http://www.w3.org/1999/xlink"><defs /><rect fill="none" height="800" stroke="black" stroke-width="2" width="800" x="0" y="0" /><polyline fill="none" points="713.999,729.6828 714.1599,718.7535 714.32,707.8249 714.4794,696.897 714.638,685.9698 714.7958,675.0432 714.9528,664.1173 715.1091,653.192 715.2647,642.2672 715.4194,631.343 715.5734,620.4194 715.7266,609.4963 715.8791,598.5736 716.0307,587.6514 716.1817,576.7296 716.3318,565.8082 716.4812,554.8872 716.6298,543.9665 716.7777,533.0462 716.9248,522.1261 717.0711,511.2064 717.2167,500.2868 717.3615,489.3675 717.5056,478.4484 717.6489,467.5295 717.7914,456.6106 717.9332,445.6919 718.0742,434.7733 718.2144,423.8548 718.3539,412.9363 718.4927,402.0178 718.6306,391.0993 718.7678,380.1807 718.9043,369.2621 719.04,358.3434 719.1749,347.4246 719.3091,336.5056 719.4426,325.5865 719.5752,314.6672 719.7071,303.7476 719.8383,292.8278 719.9687,281.9077 720.0984,270.9873 720.2273,260.0666 720.3554,249.1456 720.4828,238.2242 720.6094,227.3023 720.7353,216.3801 720.8604,205.4573 720.9848,194.5341 721.1084,183.6104 721.2312,172.6862 721.3533,161.7614 721.4747,150.836 721.5953,139.91 721.7152,128.9834 721.8342,118.0561 721.9526,107.1281 722.0702,96.1994 722.187,85.27 722.3031,74.3398" stroke="silver" stroke-opacity="0.5" stroke-width="1" /><polyline fill="none" points="608.454,728.3871 608.5607,717.4632 608.667,706.54 608.7727,695.6176 608.8779,684.6959 608.9826,673.7748 609.0868,662.8544 609.1905,651.9345 609.2937,641.0153 609.3964,630.0967 609.4986,619.1785 609.6002,608.2609 609.7014,597.3438 609.802,586.4271 609.9022,575.5109 610.0018,564.5951 610.1009,553.6797 610.1995,542.7646 610.2976,531.8498 610.3952,520.9354 610.4923,510.0212 610.5889,499.1073 610.685,488.1936 610.7806,477.2802 610.8756,466.3669 610.9702,455.4537 611.0643,444.5407 611.1578,433.6277 611.2509,422.7149 611.3434,411.8021 611.4355,400.8893 611.527,389.9764 611.6181,379.0636 611.7086,368.1507 611.7986,357.2377 611.8882,346.3246 611.9772,335.4114 612.0657,324.498 612.1537,313.5844 612.2413,302.6707 612.3283,291.7566 612.4148,280.8423 612.5008,269.9277 612.5864,259.0128 612.6714,248.0976 612.7559,237.182 612.8399,226.266 612.9234,215.3495 613.0064,204.4326 613.089,193.5153 613.171,182.5974 613.2525,171.679 613.3335,160.7601 613.414,149.8406 613.494,138.9205 613.5735,127.9997 613.6526,117.0783 613.7311,106.1563 613.8091,95.2335 613.8866,84.31 613.9636,73.3857" stroke="silver" stroke-opacity="0.5" stroke-width="1" /><polyline fill="none" points="502.9509,727.6151 503.0036,716.6945 503.056,705.7746 503.1082,694.8554 503.1602,683.9369 503.2119,673.0191 503.2633,662.1019 503.3145,651.1854 503.3655,640.2695 503.4162,629.3541 503.4666,618.4393 503.5168,607.525 503.5667,596.6111 503.6164,585.6978 503.6659,574.7849 503.7151,563.8724 503.764,552.9603 503.8127,542.0485 503.8611,531.1371 503.9093,520.226 503.9572,509.3152 504.0049,498.4046 504.0524,487.4943 504.0995,476.5842 504.1465,465.6742 504.1932,454.7644 504.2396,443.8548 504.2858,432.9452 504.3317,422.0357 504.3774,411.1263 504.4229,400.2169 504.4681,389.3075 504.513,378.3981 504.5577,367.4886 504.6022,356.579 504.6464,345.6693 504.6903,334.7595 504.734,323.8496 504.7775,312.9394 504.8207,302.0291 504.8637,291.1185 504.9064,280.2076 504.9489,269.2965 504.9911,258.385 505.0331,247.4732 505.0748,236.5611 505.1163,225.6485 505.1575,214.7356 505.1985,203.8222 505.2392,192.9083 505.2797,181.9939 505.32,171.079 505.36,160.1636 505.3997,149.2476 505.4392,138.331 505.4785,127.4137 505.5175,116.4958 505.5562,105.5773 505.5948,94.658 505.633,83.738 505.6711,72.8173" stroke="silver" stroke-opacity="0.5" stroke-width="1" /><polyline fill="none" points="397.4685,727.3663 397.4672,716.4466 397.4659,705.5278 397.4646,694.6097 397.4634,683.6922 397.4621,672.7755 397.4608,661.8594 397.4596,650.9439 397.4583,640.029 397.4571,629.1147 397.4558,618.2009 397.4546,607.2877 397.4534,596.3749 397.4521,585.4626 397.4509,574.5508 397.4497,563.6394 397.4485,552.7283 397.4473,541.8176 397.4461,530.9073 397.4449,519.9973 397.4438,509.0875 397.4426,498.1781 397.4414,487.2688 397.4403,476.3598 397.4391,465.4509 397.438,454.5422 397.4368,443.6336 397.4357,432.7252 397.4346,421.8168 397.4334,410.9084 397.4323,400.0001 397.4312,389.0918 397.4301,378.1835 397.429,367.2751 397.4279,356.3666 397.4268,345.458 397.4257,334.5493 397.4247,323.6405 397.4236,312.7314 397.4225,301.8222 397.4215,290.9127 397.4204,280.003 397.4194,269.093 397.4183,258.1826 397.4173,247.2719 397.4163,236.3609 397.4153,225.4495 397.4142,214.5376 397.4132,203.6253 397.4122,192.7126 397.4112,181.7993 397.4103,170.8856 397.4093,159.9713 397.4083,149.0564 397.4073,138.1409 397.4064,127.2248 397.4054,116.308 397.4044,105.3906 397.4035,94.4725 397.4026,83.5536 397.4016,72.634" stroke="silver" stroke-opacity="0.5" stroke-width="1" /><polyline fill="none" points="291.9856,727.6402 291.9303,716.7195 291.8753,705.7995 291.8205,694.8802 291.766,683.9616 291.7118,673.0437 291.6578,662.1264 291.6041,651.2098 291.5506,640.2937 291.4974,629.3782 291.4445,618.4633 291.3919,607.5489 291.3395,596.635 291.2873,585.7215 291.2355,574.8085 291.1838,563.8959 291.1325,552.9837 291.0814,542.0718 291.0306,531.1603 290.98,520.2491 290.9298,509.3381 290.8797,498.4275 290.8299,487.517 290.7804,476.6068 290.7312,465.6967 290.6822,454.7868 290.6335,443.8771 290.585,432.9674 290.5368,422.0578 290.4889,411.1483 290.4412,400.2388 290.3938,389.3292 290.3466,378.4197 290.2997,367.5101 290.2531,356.6004 290.2067,345.6906 290.1606,334.7807 290.1147,323.8706 290.0691,312.9604 290.0238,302.0499 289.9787,291.1392 289.9339,280.2282 289.8893,269.317 289.845,258.4054 289.801,247.4935 289.7572,236.5813 289.7137,225.6686 289.6704,214.7555 289.6274,203.842 289.5847,192.928 289.5422,182.0135 289.5,171.0985 289.458,160.183 289.4163,149.2669 289.3749,138.3501 289.3337,127.4328 289.2928,116.5148 289.2521,105.5961 289.2117,94.6767 289.1715,83.7566 289.1316,72.8357" stroke="silver" stroke-opacity="0.5" stroke-width="1" /><polyline fill="none" points="186.481,728.4373 186.3717,717.5132 186.2628,706.5898 186.1545,695.6672 186.0467,684.7452 185.9395,673.8239 185.8327,662.9033 185.7265,651.9833 185.6208,641.0638 185.5156,630.145 185.411,619.2266 185.3069,608.3088 185.2033,597.3915 185.1002,586.4746 184.9976,575.5582 184.8955,564.6421 184.794,553.7265 184.693,542.8112 184.5925,531.8962 184.4925,520.9816 184.3931,510.0672 184.2941,499.153 184.1957,488.2391 184.0978,477.3254 184.0004,466.4119 183.9036,455.4985 183.8072,444.5853 183.7114,433.6721 183.6161,422.7591 183.5213,411.846 183.427,400.933 183.3332,390.02 183.24,379.1069 183.1472,368.1938 183.055,357.2806 182.9633,346.3673 182.8721,335.4538 182.7814,324.5402 182.6912,313.6264 182.6016,302.7124 182.5124,291.7981 182.4238,280.8836 182.3357,269.9688 182.2481,259.0537 182.161,248.1382 182.0745,237.2224 181.9884,226.3061 181.9028,215.3895 181.8178,204.4724 181.7333,193.5548 181.6493,182.6367 181.5658,171.7181 181.4828,160.7989 181.4003,149.8792 181.3184,138.9588 181.2369,128.0379 181.156,117.1162 181.0755,106.1939 180.9956,95.2709 180.9162,84.3472 180.8373,73.4227" stroke="silver" stroke-opacity="0.5" stroke-width="1" /><polyline fill="none" points="80.9334,729.7582 80.7699,718.8286 80.6072,707.8996 80.4453,696.9714 80.2841,686.0439 80.1237,675.117 79.9641,664.1907 79.8053,653.2651 79.6473,642.3401 79.49,631.4156 79.3336,620.4916 79.1779,609.5681 79.023,598.6451 78.8688,587.7226 78.7155,576.8005 78.5629,565.8788 78.4111,554.9574 78.26,544.0365 78.1098,533.1158 77.9603,522.1954 77.8116,511.2753 77.6637,500.3555 77.5165,489.4358 77.3701,478.5164 77.2245,467.5971 77.0797,456.678 76.9356,445.7589 76.7923,434.84 76.6498,423.9211 76.5081,413.0023 76.3671,402.0835 76.2269,391.1646 76.0875,380.2457 75.9488,369.3268 75.8109,358.4078 75.6738,347.4886 75.5374,336.5693 75.4018,325.6498 75.267,314.7301 75.133,303.8103 74.9997,292.8901 74.8672,281.9697 74.7354,271.049 74.6044,260.1279 74.4742,249.2066 74.3448,238.2848 74.2161,227.3626 74.0882,216.44 73.9611,205.517 73.8347,194.5934 73.7091,183.6694 73.5842,172.7448 73.4601,161.8197 73.3368,150.8939 73.2143,139.9676 73.0925,129.0406 72.9715,118.113 72.8512,107.1847 72.7317,96.2556 72.613,85.3258 72.495,74.3953" stroke="silver" stroke-opacity="0.5" stroke-width="1" /><polyline fill="none" points="723.2896,729.822 713.999,729.6828 703.442,729.5297 692.8856,729.3817 682.3298,729.2391 671.7746,729.1016 661.2199,728.9694 650.6657,728.8425 640.1121,728.7208 629.5589,728.6043 619.0062,728.4931 608.454,728.3871 597.9021,728.2864 587.3507,728.1908 576.7996,728.1006 566.2489,728.0155 555.6985,727.9357 545.1484,727.8611 534.5987,727.7918 524.0492,727.7277 513.4999,727.6688 502.9509,727.6151 492.4021,727.5667 481.8534,727.5235 471.305,727.4856 460.7566,727.4528 450.2084,727.4253 439.6603,727.4031 429.1123,727.386 418.5643,727.3742 408.0164,727.3676 397.4685,727.3663 386.9206,727.3701 376.3726,727.3792 365.8247,727.3935 355.2766,727.4131 344.7285,727.4379 334.1802,727.4679 323.6318,727.5031 313.0833,727.5436 302.5345,727.5893 291.9856,727.6402 281.4365,727.6964 270.8871,727.7578 260.3375,727.8244 249.7876,727.8963 239.2374,727.9734 228.6868,728.0557 218.1359,728.1432 207.5847,728.236 197.0331,728.3341 186.481,728.4373 175.9285,728.5458 165.3756,728.6596 154.8222,728.7786 144.2683,728.9028 133.7139,729.0322 123.159,729.1669 112.6035,729.3069 102.0474,729.4521 91.4907,729.6025 80.9334,729.7582 76.7104,729.822" stroke="silver" stroke-opacity="0.5" stroke-width="1" /><polyline fill="none" points="724.5929,642.4016 715.2647,642.2672 704.665,642.1192 694.066,641.9763 683.4676,641.8385 672.8698,641.7057 662.2725,641.578 651.6758,641.4553 641.0795,641.3377 630.4838,641.2252 619.8885,641.1177 609.2937,641.0153 598.6993,640.918 588.1054,640.8257 577.5118,640.7385 566.9185,640.6563 556.3256,640.5792 545.733,640.5071 535.1408,640.4401 524.5488,640.3782 513.957,640.3213 503.3655,640.2695 492.7742,640.2227 482.183,640.181 471.5921,640.1443 461.0013,640.1127 450.4106,640.0861 439.82,640.0646 429.2295,640.0481 418.6391,640.0367 408.0487,640.0303 397.4583,640.029 386.8679,640.0327 376.2775,640.0415 365.687,640.0554 355.0965,640.0743 344.5059,640.0982 333.9151,640.1272 323.3243,640.1612 312.7332,640.2004 302.142,640.2445 291.5506,640.2937 280.959,640.348 270.3671,640.4073 259.775,640.4717 249.1826,640.5411 238.5898,640.6156 227.9968,640.6951 217.4034,640.7797 206.8096,640.8694 196.2154,640.9641 185.6208,641.0638 175.0258,641.1687 164.4303,641.2786 153.8343,641.3935 143.2379,641.5135 132.6409,641.6386 122.0433,641.7688 111.4452,641.904 100.8465,642.0443 90.2472,642.1896 79.6473,642.3401 75.4071,642.4016" stroke="silver" stroke-opacity="0.5" stroke-width="1" /><polyline fill="none" points="725.8455,555.0169 716.4812,554.8872 705.8406,554.7444 695.2006,554.6066 684.5612,554.4736 673.9225,554.3456 663.2843,554.2224 652.6466,554.1041 642.0094,553.9906 631.3728,553.8821 620.7366,553.7784 610.1009,553.6797 599.4656,553.5858 588.8307,553.4968 578.1963,553.4126 567.5622,553.3334 556.9284,553.259 546.295,553.1895 535.6618,553.1249 525.029,553.0651 514.3964,553.0103 503.764,552.9603 493.1318,552.9151 482.4999,552.8749 471.8681,552.8395 461.2365,552.809 450.6049,552.7834 439.9735,552.7626 429.3422,552.7467 418.7109,552.7357 408.0797,552.7296 397.4485,552.7283 386.8173,552.7319 376.1861,552.7404 365.5548,552.7538 354.9234,552.772 344.2919,552.7951 333.6604,552.823 323.0287,552.8559 312.3968,552.8936 301.7648,552.9362 291.1325,552.9837 280.5,553.036 269.8673,553.0932 259.2343,553.1553 248.601,553.2223 237.9674,553.2941 227.3335,553.3708 216.6992,553.4524 206.0646,553.5389 195.4295,553.6302 184.794,553.7265 174.1581,553.8276 163.5217,553.9336 152.8848,554.0445 142.2474,554.1602 131.6095,554.2809 120.971,554.4064 110.3319,554.5368 99.6923,554.6722 89.052,554.8124 78.4111,554.9574 74.1545,555.0169" stroke="silver" stroke-opacity="0.5" stroke-width="1" /><polyline fill="none" points="727.0478,467.6543 717.6489,467.5295 706.9689,467.392 696.2896,467.2593 685.6109,467.1313 674.9329,467.008 664.2553,466.8894 653.5784,466.7755 642.902,466.6663 632.226,466.5618 621.5506,466.462 610.8756,466.3669 600.2011,466.2765 589.527,466.1908 578.8533,466.1098 568.1799,466.0335 557.5069,465.9618 546.8343,465.8949 536.1619,465.8327 525.4899,465.7752 514.8181,465.7224 504.1465,465.6742 493.4751,465.6308 482.804,465.592 472.133,465.558 461.4622,465.5286 450.7915,465.5039 440.1209,465.4839 429.4504,465.4686 418.7799,465.458 408.1095,465.4521 397.4391,465.4509 386.7687,465.4544 376.0983,465.4626 365.4278,465.4754 354.7573,465.4929 344.0866,465.5152 333.4158,465.5421 322.7449,465.5737 312.0739,465.61 301.4026,465.651 290.7312,465.6967 280.0595,465.7471 269.3876,465.8022 258.7154,465.862 248.0429,465.9265 237.3701,465.9956 226.6969,466.0695 216.0234,466.1481 205.3495,466.2313 194.6752,466.3193 184.0004,466.4119 173.3252,466.5093 162.6496,466.6113 151.9734,466.7181 141.2967,466.8295 130.6195,466.9457 119.9417,467.0666 109.2634,467.1921 98.5844,467.3224 87.9048,467.4574 77.2245,467.5971 72.9522,467.6543" stroke="silver" stroke-opacity="0.5" stroke-width="1" /><polyline fill="none" points="728.1999,380.3007 718.7678,380.1807 708.0502,380.0487 697.3332,379.9211 686.6169,379.7981 675.9011,379.6796 665.1859,379.5657 654.4713,379.4562 643.7573,379.3513 633.0437,379.2509 622.3306,379.155 611.6181,379.0636 600.9059,378.9767 590.1942,378.8944 579.4829,378.8166 568.7719,378.7432 558.0614,378.6744 547.3511,378.6101 536.6412,378.5503 525.9315,378.4951 515.2222,378.4443 504.513,378.3981 493.8041,378.3563 483.0954,378.3191 472.3869,378.2863 461.6785,378.2581 450.9702,378.2344 440.2621,378.2152 429.554,378.2005 418.846,378.1903 408.138,378.1847 397.4301,378.1835 386.7221,378.1868 376.0142,378.1947 365.3061,378.207 354.598,378.2239 343.8898,378.2452 333.1815,378.2711 322.4731,378.3015 311.7644,378.3364 301.0556,378.3758 290.3466,378.4197 279.6374,378.4681 268.9279,378.521 258.2181,378.5785 247.508,378.6404 236.7976,378.7069 226.0869,378.7779 215.3757,378.8534 204.6642,378.9334 193.9523,379.0179 183.24,379.1069 172.5271,379.2005 161.8138,379.2985 151.1001,379.4011 140.3857,379.5082 129.6709,379.6198 118.9554,379.736 108.2394,379.8566 97.5227,379.9818 86.8054,380.1115 76.0875,380.2457 71.8001,380.3007" stroke="silver" stroke-opacity="0.5" stroke-width="1" /><polyline fill="none" points="729.3021,292.9428 719.8383,292.8278 709.0846,292.7012 698.3316,292.5789 687.5792,292.4609 676.8274,292.3473 666.0762,292.238 655.3256,292.1331 644.5755,292.0325 633.8259,291.9362 623.0769,291.8442 612.3283,291.7566 601.5802,291.6733 590.8325,291.5944 580.0852,291.5197 569.3383,291.4494 558.5917,291.3835 547.8455,291.3218 537.0997,291.2645 526.3541,291.2115 515.6087,291.1628 504.8637,291.1185 494.1188,291.0784 483.3742,291.0427 472.6297,291.0114 461.8854,290.9843 451.1412,290.9616 440.3971,290.9431 429.6531,290.9291 418.9092,290.9193 408.1653,290.9138 397.4215,290.9127 386.6776,290.9159 375.9337,290.9234 365.1897,290.9353 354.4457,290.9514 343.7016,290.9719 332.9574,290.9967 322.213,291.0259 311.4684,291.0593 300.7237,291.0971 289.9787,291.1392 279.2335,291.1856 268.4881,291.2364 257.7424,291.2915 246.9963,291.3509 236.25,291.4146 225.5032,291.4826 214.7562,291.555 204.0087,291.6317 193.2608,291.7128 182.5124,291.7981 171.7636,291.8878 161.0143,291.9819 150.2645,292.0802 139.5142,292.1829 128.7633,292.2899 118.0118,292.4013 107.2598,292.517 96.5071,292.637 85.7537,292.7614 74.9997,292.8901 70.6979,292.9428" stroke="silver" stroke-opacity="0.5" stroke-width="1" /><polyline fill="none" points="730.3545,205.5674 720.8604,205.4573 710.0723,205.3362 699.2848,205.2192 688.498,205.1064 677.7118,204.9977 666.9262,204.8932 656.1412,204.7928 645.3567,204.6965 634.5728,204.6044 623.7894,204.5165 613.0064,204.4326 602.224,204.353 591.4419,204.2774 580.6603,204.206 569.879,204.1388 559.0982,204.0757 548.3176,204.0167 537.5374,203.9619 526.7575,203.9111 515.9779,203.8646 505.1985,203.8222 494.4193,203.7839 483.6404,203.7497 472.8616,203.7197 462.083,203.6938 451.3045,203.6721 440.5261,203.6544 429.7478,203.641 418.9696,203.6316 408.1914,203.6264 397.4132,203.6253 386.6351,203.6284 375.8569,203.6356 365.0786,203.6469 354.3003,203.6624 343.5219,203.682 332.7433,203.7057 321.9646,203.7336 311.1858,203.7656 300.4067,203.8017 289.6274,203.842 278.8479,203.8864 268.0682,203.935 257.2881,203.9877 246.5078,204.0445 235.7271,204.1054 224.946,204.1705 214.1646,204.2398 203.3828,204.3132 192.6005,204.3907 181.8178,204.4724 171.0346,204.5582 160.251,204.6481 149.4668,204.7422 138.6821,204.8404 127.8968,204.9428 117.1109,205.0494 106.3244,205.16 95.5373,205.2749 84.7495,205.3938 73.9611,205.517 69.6455,205.5674" stroke="silver" stroke-opacity="0.5" stroke-width="1" /><polyline fill="none" points="731.3573,118.1611 721.8342,118.0561 711.0133,117.9405 700.193,117.8289 689.3734,117.7212 678.5545,117.6175 667.7361,117.5178 656.9183,117.422 646.1011,117.3301 635.2844,117.2423 624.4682,117.1583 613.6526,117.0783 602.8373,117.0023 592.0226,116.9302 581.2082,116.8621 570.3943,116.798 559.5807,116.7377 548.7674,116.6815 537.9545,116.6291 527.1419,116.5808 516.3296,116.5363 505.5175,116.4958 494.7056,116.4593 483.894,116.4267 473.0825,116.3981 462.2712,116.3734 451.46,116.3526 440.649,116.3358 429.838,116.323 419.0271,116.314 408.2162,116.3091 397.4054,116.308 386.5945,116.311 375.7837,116.3178 364.9727,116.3286 354.1617,116.3434 343.3506,116.3621 332.5394,116.3847 321.728,116.4113 310.9165,116.4419 300.1047,116.4763 289.2928,116.5148 278.4806,116.5572 267.6681,116.6035 256.8553,116.6538 246.0423,116.708 235.2289,116.7661 224.4151,116.8283 213.6009,116.8943 202.7864,116.9644 191.9714,117.0383 181.156,117.1162 170.3401,117.1981 159.5236,117.2839 148.7067,117.3737 137.8892,117.4675 127.0712,117.5652 116.2525,117.6668 105.4332,117.7724 94.6133,117.882 83.7927,117.9955 72.9715,118.113 68.6427,118.1611" stroke="silver" stroke-opacity="0.5" stroke-width="1" /><circle cx="724.0607" cy="632.341" fill="black" r="0.738" stroke="none" /><circle cx="722.173" cy="512.411" fill="black" r="0.738" stroke="none" /><circle cx="712.6885" cy="474.4541" fill="black" r="0.738" stroke="none" /><circle cx="710.4044" cy="445.8577" fill="black" r="0.936" stroke="none" /><circle cx="708.8528" cy="134.0906" fill="black" r="0.936" stroke="none" /><circle cx="700.3756" cy="150.6975" fill="black" r="0.738" stroke="none" /><circle cx="693.4241" cy="253.2994" fill="black" r="1.476" stroke="none" /><circle cx="684.9886" cy="713.5362" fill="black" r="0.738" stroke="none" /><circle cx="690.46" cy="223.9122" fill="black" r="0.738" stroke="none" /><circle cx="679.9476" cy="704.7272" fill="black" r="0.738" stroke="none" /><circle cx="678.4417" cy="588.8217" fill="black" r="0.738" stroke="none" /><circle cx="675.4857" cy="716.3844" fill="black" r="0.738" stroke="none" /><circle cx="674.3941" cy="454.1628" fill="black" r="0.738" stroke="none" /><circle cx="670.8589" cy="410.1056" fill="black" r="0.738" stroke="none" /><circle cx="664.2092" cy="628.4063" fill="black" r="0.738" stroke="none" /><circle cx="663.1932" cy="252.642" fill="black" r="0.738" stroke="none" /><circle cx="656.0277" cy="525.1423" fill="black" r="0.738" stroke="none" /><circle cx="646.418" cy="641.5711" fill="black" r="0.738" stroke="none" /><circle cx="642.5705" cy="304.4151" fill="black" r="0.738" stroke="none" /><circle cx="628.7914" cy="356.3353" fill="black" r="0.738" stroke="none" /><circle cx="625.8028" cy="253.792" fill="black" r="0.738" stroke="none" /><circle cx="619.9338" cy="493.8651" fill="black" r="0.738" stroke="none" /><circle cx="618.5021" cy="151.3637" fill="black" r="0.738" stroke="none" /><circle cx="614.7003" cy="562.3677" fill="black" r="0.738" stroke="none" /><circle cx="610.9859" cy="614.3882" fill="black" r="0.738" stroke="none" /><circle cx="614.3442" cy="93.0525" fill="black" r="0.738" stroke="none" /><circle cx="609.9426" cy="445.7534" fill="black" r="0.738" stroke="none" /><circle cx="605.5406" cy="367.4893" fill="black" r="0.738" stroke="none" /><circle cx="601.2265" cy="670.4693" fill="black" r="0.738" stroke="none" /><circle cx="598.5784" cy="700.8519" fill="black" r="0.738" stroke="none" /><circle cx="598.4898" cy="701.288" fill="black" r="0.936" stroke="none" /><circle cx="601.7315" cy="305.7319" fill="black" r="0.738" stroke="none" /><circle cx="595.5777" cy="75.8839" fill="black" r="0.738" stroke="none" /><circle cx="588.7826" cy="690.1039" fill="black" r="1.17" stroke="none" /><circle cx="577.343" cy="438.8615" fill="black" r="0.738" stroke="none" /><circle cx="573.217" cy="524.9985" fill="black" r="0.936" stroke="none" /><circle cx="573.5981" cy="188.442" fill="black" r="0.738" stroke="none" /><circle cx="569.3775" cy="584.0828" fill="black" r="0.738" stroke="none" /><circle cx="568.9971" cy="357.6195" fill="black" r="0.738" stroke="none" /><circle cx="565.8566" cy="635.3205" fill="black" r="0.738" stroke="none" /><circle cx="562.1544" cy="120.6829" fill="black" r="0.738" stroke="none" /><circle cx="559.6256" cy="202.3322" fill="black" r="0.738" stroke="none" /><circle cx="553.1875" cy="319.0248" fill="black" r="0.738" stroke="none" /><circle cx="547.9264" cy="482.7489" fill="black" r="1.17" stroke="none" /><circle cx="535.8836" cy="484.9474" fill="black" r="0.738" stroke="none" /><circle cx="524.0752" cy="694.0046" fill="black" r="0.738" stroke="none" /><circle cx="523.7125" cy="394.2821" fill="black" r="0.936" stroke="none" /><circle cx="521.4254" cy="334.7448" fill="black" r="0.738" stroke="none" /><circle cx="518.6439" cy="415.9031" fill="black" r="0.738" stroke="none" /><circle cx="514.668" cy="583.8299" fill="black" r="0.936" stroke="none" /><circle cx="515.4585" cy="118.1052" fill="black" r="0.738" stroke="none" /><circle cx="512.62" cy="286.4364" fill="black" r="0.738" stroke="none" /><circle cx="510.3613" cy="647.7262" fill="black" r="0.936" stroke="none" /><circle cx="511.2973" cy="143.4182" fill="black" r="0.738" stroke="none" /><circle cx="501.3463" cy="219.7852" fill="black" r="1.17" stroke="none" /><circle cx="484.7711" cy="389.5829" fill="black" r="0.936" stroke="none" /><circle cx="476.7105" cy="393.3098" fill="black" r="0.738" stroke="none" /><circle cx="476.2138" cy="239.085" fill="black" r="0.936" stroke="none" /><circle cx="468.0869" cy="537.0288" fill="black" r="0.936" stroke="none" /><circle cx="465.857" cy="631.22" fill="black" r="1.17" stroke="none" /><circle cx="463.1276" cy="381.1416" fill="black" r="0.738" stroke="none" /><circle cx="463.1591" cy="260.9617" fill="black" r="0.738" stroke="none" /><circle cx="454.1242" cy="713.9816" fill="black" r="1.17" stroke="none" /><circle cx="451.0311" cy="628.1251" fill="black" r="0.936" stroke="none" /><circle cx="443.6798" cy="113.8073" fill="black" r="0.738" stroke="none" /><circle cx="439.8109" cy="645.1291" fill="black" r="0.738" stroke="none" /><circle cx="438.294" cy="432.7547" fill="black" r="0.738" stroke="none" /><circle cx="425.6775" cy="222.9297" fill="black" r="0.738" stroke="none" /><circle cx="410.4073" cy="272.237" fill="black" r="0.738" stroke="none" /><circle cx="406.4798" cy="146.7866" fill="black" r="0.738" stroke="none" /><circle cx="404.6833" cy="524.8853" fill="black" r="0.738" stroke="none" /><circle cx="391.3525" cy="391.3621" fill="black" r="0.738" stroke="none" /><circle cx="390.3462" cy="445.7298" fill="black" r="0.738" stroke="none" /><circle cx="386.1738" cy="141.2005" fill="black" r="0.738" stroke="none" /><circle cx="385.935" cy="348.6907" fill="black" r="0.738" stroke="none" /><circle cx="382.868" cy="616.6358" fill="black" r="0.738" stroke="none" /><circle cx="376.5199" cy="273.2053" fill="black" r="0.738" stroke="none" /><circle cx="376.6623" cy="518.5249" fill="black" r="0.936" stroke="none" /><circle cx="372.6553" cy="278.9694" fill="black" r="0.738" stroke="none" /><circle cx="367.9125" cy="115.5393" fill="black" r="0.738" stroke="none" /><circle cx="360.1868" cy="547.0887" fill="black" r="0.738" stroke="none" /><circle cx="350.7222" cy="691.696" fill="black" r="0.738" stroke="none" /><circle cx="349.9468" cy="685.3218" fill="black" r="0.738" stroke="none" /><circle cx="347.0386" cy="98.8865" fill="black" r="0.738" stroke="none" /><circle cx="345.4749" cy="358.2569" fill="black" r="0.738" stroke="none" /><circle cx="336.5054" cy="189.466" fill="black" r="0.738" stroke="none" /><circle cx="318.6209" cy="296.9718" fill="black" r="0.738" stroke="none" /><circle cx="315.3048" cy="580.3815" fill="black" r="0.738" stroke="none" /><circle cx="312.3497" cy="423.2804" fill="black" r="0.738" stroke="none" /><circle cx="309.4483" cy="448.2516" fill="black" r="0.738" stroke="none" /><circle cx="308.2989" cy="164.2211" fill="black" r="0.738" stroke="none" /><circle cx="304.898" cy="73.2193" fill="black" r="0.738" stroke="none" /><circle cx="303.0277" cy="333.2459" fill="black" r="0.738" stroke="none" /><circle cx="296.4395" cy="541.349" fill="black" r="0.738" stroke="none" /><circle cx="294.5783" cy="213.2523" fill="black" r="0.738" stroke="none" /><circle cx="295.7259" cy="627.175" fill="black" r="0.738" stroke="none" /><circle cx="285.5471" cy="626.2643" fill="black" r="0.738" stroke="none" /><circle cx="279.0996" cy="119.8739" fill="black" r="0.738" stroke="none" /><circle cx="269.6755" cy="652.4637" fill="black" r="0.738" stroke="none" /><circle cx="262.7575" cy="486.0026" fill="black" r="0.738" stroke="none" /><circle cx="260.998" cy="535.0729" fill="black" r="0.738" stroke="none" /><circle cx="255.9709" cy="281.611" fill="black" r="0.738" stroke="none" /><circle cx="251.9284" cy="168.4734" fill="black" r="0.738" stroke="none" /><circle cx="246.5072" cy="235.2166" fill="black" r="0.738" stroke="none" /><circle cx="246.6175" cy="536.2104" fill="black" r="0.738" stroke="none" /><circle cx="243.3432" cy="80.2895" fill="black" r="0.738" stroke="none" /><circle cx="218.9658" cy="571.248" fill="black" r="0.738" stroke="none" /><circle cx="212.9182" cy="132.0128" fill="black" r="0.738" stroke="none" /><circle cx="201.1953" cy="329.1088" fill="black" r="0.738" stroke="none" /><circle cx="196.1298" cy="565.5007" fill="black" r="0.738" stroke="none" /><circle cx="189.8295" cy="468.8928" fill="black" r="0.738" stroke="none" /><circle cx="180.7079" cy="194.8729" fill="black" r="0.738" stroke="none" /><circle cx="178.6736" cy="700.0247" fill="black" r="0.738" stroke="none" /><circle cx="177.5646" cy="665.9562" fill="black" r="0.738" stroke="none" /><circle cx="173.4295" cy="285.4989" fill="black" r="0.738" stroke="none" /><circle cx="172.1136" cy="302.6257" fill="black" r="0.738" stroke="none" /><circle cx="174.0567" cy="603.8763" fill="black" r="0.738" stroke="none" /><circle cx="167.3646" cy="156.541" fill="black" r="0.738" stroke="none" /><circle cx="154.3305" cy="96.1764" fill="black" r="0.738" stroke="none" /><circle cx="150.9456" cy="225.4319" fill="black" r="0.738" stroke="none" /><circle cx="150.6063" cy="226.0464" fill="black" r="0.936" stroke="none" /><circle cx="125.1234" cy="168.0096" fill="black" r="0.738" stroke="none" /><circle cx="125.944" cy="550.2413" fill="black" r="0.738" stroke="none" /><circle cx="120.8308" cy="598.7912" fill="black" r="0.738" stroke="none" /><circle cx="112.2714" cy="161.6685" fill="black" r="0.738" stroke="none" /><circle cx="103.2245" cy="361.4838" fill="black" r="0.738" stroke="none" /><circle cx="98.9918" cy="409.664" fill="black" r="0.936" stroke="none" /><circle cx="93.6846" cy="430.781" fill="black" r="0.738" stroke="none" /><circle cx="85.2187" cy="417.7832" fill="black" r="0.738" stroke="none" /><circle cx="83.996" cy="619.9884" fill="black" r="0.738" stroke="none" /><circle cx="79.0471" cy="533.1029" fill="black" r="0.738" stroke="none" /><circle cx="13.77" cy="786.23" fill="black" r="4.59" stroke="none" /><circle cx="13.77" cy="786.23" fill="black" r="4.59" stroke="none" /><text fill="black" font-family="monospace" font-size="12" x="10.77" y="775.64">1</text><circle cx="37.77" cy="786.23" fill="black" r="3.654" stroke="none" /><circle cx="37.77" cy="786.23" fill="black" r="3.654" stroke="none" /><text fill="black" font-family="monospace" font-size="12" x="34.769999999999996" y="775.64">2</text><circle cx="61.77" cy="786.23" fill="black" r="2.916" stroke="none" /><circle cx="61.77" cy="786.23" fill="black" r="2.916" stroke="none" /><text fill="black" font-family="monospace" font-size="12" x="58.769999999999996" y="775.64">3</text><circle cx="85.77" cy="786.23" fill="black" r="2.322" stroke="none" /><circle cx="85.77" cy="786.23" fill="black" r="2.322" stroke="none" /><text fill="black" font-family="monospace" font-size="12" x="82.77" y="775.64">4</text><circle cx="109.77" cy="786.23" fill="black" r="1.854" stroke="none" /><circle cx="109.77" cy="786.23" fill="black" r="1.854" stroke="none" /><text fill="black" font-family="monospace" font-size="12" x="106.77" y="775.64">5</text><circle cx="133.77" cy="786.23" fill="black" r="1.476" stroke="none" /><circle cx="133.77" cy="786.23" fill="black" r="1.476" stroke="none" /><text fill="black" font-family="monospace" font-size="12" x="130.77" y="775.64">6</text><circle cx="157.77" cy="786.23" fill="black" r="1.17" stroke="none" /><circle cx="157.77" cy="786.23" fill="black" r="1.17" stroke="none" /><text fill="black" font-family="monospace" font-size="12" x="154.77" y="775.64">7</text><circle cx="181.77" cy="786.23" fill="black" r="0.936" stroke="none" /><circle cx="181.77" cy="786.23" fill="black" r="0.936" stroke="none" /><text fill="black" font-family="monospace" font-size="12" x="178.77" y="775.64">8</text><circle cx="205.77" cy="786.23" fill="black" r="0.738" stroke="none" /><circle cx="205.77" cy="786.23" fill="black" r="0.738" stroke="none" /><text fill="black" font-family="monospace" font-size="12" x="202.77" y="775.64">9</text><text fill="gray" fill-opacity="0.5" font-family="monospace" font-size="12" x="722.3031043326303" y="74.33977793845173">07h40m</text><text fill="gray" fill-opacity="0.5" font-family="monospace" font-size="12" x="613.9636383661518" y="73.38568003049625">07h45m</text><text fill="gray" fill-opacity="0.5" font-family="monospace" font-size="12" x="505.67105619533027" y="72.81726290638255">07h50m</text><text fill="gray" fill-opacity="0.5" font-family="monospace" font-size="12" x="397.4016217042901" y="72.63400673991003">07h55m</text><text fill="gray" fill-opacity="0.5" font-family="monospace" font-size="12" x="289.13161808331074" y="72.83574399498116">08h00m</text><text fill="gray" fill-opacity="0.5" font-family="monospace" font-size="12" x="180.83732804805513" y="73.42265910491335">08h05m</text><text fill="gray" fill-opacity="0.5" font-family="monospace" font-size="12" x="72.49501405800856" y="74.39528882547387">08h10m</text><text fill="gray" fill-opacity="0.5" font-family="monospace" font-size="12" x="76.71035069797495" y="729.8219665440616">-15°</text><text fill="gray" fill-opacity="0.5" font-family="monospace" font-size="12" x="75.40714312416856" y="642.4016498613714">-14°</text><text fill="gray" fill-opacity="0.5" font-family="monospace" font-size="12" x="74.15451755678691" y="555.0168519113298">-13°</text><text fill="gray" fill-opacity="0.5" font-family="monospace" font-size="12" x="72.95223276131458" y="467.65429096855854">-12°</text><text fill="gray" fill-opacity="0.5" font-family="monospace" font-size="12" x="71.80007815861342" y="380.30069879479095">-11°</text><text fill="gray" fill-opacity="0.5" font-family="monospace" font-size="12" x="70.69787367159438" y="292.9428125892501">-10°</text><text fill="gray" fill-opacity="0.5" font-family="monospace" font-size="12" x="69.64546961131464" y="205.56736694601938">-9°</text><text fill="gray" fill-opacity="0.5" font-family="monospace" font-size="12" x="68.64274660234406" y="118.16108580806116">-8°</text><text fill="black" font-family="monospace" font-size="12" x="12" y="48">&gt;&gt; No.329 07h40m 08h10m -15.0°-7.5°</text><a target="_self" xlink:href="hip016.svg"><text fill="black" font-family="monospace" font-size="12" x="12" y="36">&gt; No.16 05h20m 08h00m -22.5°+0.0°</text></a><a target="_self" xlink:href="hip001.svg"><text fill="black" font-family="monospace" font-size="12" x="12" y="24">No.1 00h 24h -90.0°+0.0°</text></a><polyline fill="none" points="731.84,74.4422 722.3031,74.3398 711.4664,74.227 700.6303,74.1181 689.7949,74.013 678.9602,73.9118 668.126,73.8145 657.2925,73.721 646.4595,73.6314 635.627,73.5456 624.7951,73.4637 613.9636,73.3857 603.1327,73.3115 592.3021,73.2412 581.472,73.1747 570.6423,73.1121 559.813,73.0533 548.984,72.9984 538.1553,72.9473 527.327,72.9001 516.4989,72.8568 505.6711,72.8173 494.8435,72.7816 484.0161,72.7498 473.1889,72.7219 462.3618,72.6978 451.5349,72.6775 440.7081,72.6611 429.8814,72.6486 419.0548,72.6399 408.2282,72.635 397.4016,72.634 386.575,72.6369 375.7484,72.6436 364.9218,72.6541 354.095,72.6685 343.2682,72.6867 332.4412,72.7088 321.6141,72.7348 310.7868,72.7646 299.9593,72.7982 289.1316,72.8357 278.3037,72.8771 267.4755,72.9223 256.647,72.9714 245.8181,73.0243 234.989,73.081 224.1595,73.1416 213.3296,73.2061 202.4993,73.2744 191.6685,73.3466 180.8373,73.4227 170.0056,73.5026 159.1735,73.5863 148.3408,73.6739 137.5075,73.7654 126.6737,73.8607 115.8392,73.9599 105.0042,74.063 94.1685,74.1699 83.3321,74.2806 72.495,74.3953 68.16,74.4422" stroke="black" stroke-opacity="0.5" stroke-width="1" /><polyline fill="none" points="723.2896,729.822 723.4553,718.892 723.6202,707.9628 723.7843,697.0343 723.9476,686.1065 724.1101,675.1794 724.2718,664.2529 724.4327,653.327 724.5929,642.4016 724.7522,631.4769 724.9107,620.5526 725.0685,609.6289 725.2255,598.7056 725.3817,587.7828 725.5371,576.8604 725.6917,565.9385 725.8455,555.0169 725.9985,544.0956 726.1508,533.1746 726.3022,522.254 726.4529,511.3336 726.6028,500.4135 726.7519,489.4936 726.9002,478.5738 727.0478,467.6543 727.1945,456.7349 727.3405,445.8156 727.4857,434.8964 727.6301,423.9772 727.7737,413.0581 727.9166,402.139 728.0586,391.2199 728.1999,380.3007 728.3404,369.3815 728.4801,358.4621 728.6191,347.5427 728.7573,336.6231 728.8946,325.7034 729.0312,314.7834 729.1671,303.8632 729.3021,292.9428 729.4364,282.0221 729.5699,271.1011 729.7026,260.1798 729.8345,249.2581 729.9657,238.3361 730.0961,227.4136 730.2257,216.4907 730.3545,205.5674 730.4826,194.6435 730.6099,183.7192 730.7364,172.7943 730.8621,161.8689 730.987,150.9429 731.1112,140.0163 731.2346,129.089 731.3573,118.1611 731.4791,107.2325 731.6002,96.3031 731.7205,85.3731 731.84,74.4422" stroke="black" stroke-opacity="0.5" stroke-width="1" /><polyline fill="none" points="723.2896,729.822 713.999,729.6828 703.442,729.5297 692.8856,729.3817 682.3298,729.2391 671.7746,729.1016 661.2199,728.9694 650.6657,728.8425 640.1121,728.7208 629.5589,728.6043 619.0062,728.4931 608.454,728.3871 597.9021,728.2864 587.3507,728.1908 576.7996,728.1006 566.2489,728.0155 555.6985,727.9357 545.1484,727.8611 534.5987,727.7918 524.0492,727.7277 513.4999,727.6688 502.9509,727.6151 492.4021,727.5667 481.8534,727.5235 471.305,727.4856 460.7566,727.4528 450.2084,727.4253 439.6603,727.4031 429.1123,727.386 418.5643,727.3742 408.0164,727.3676 397.4685,727.3663 386.9206,727.3701 376.3726,727.3792 365.8247,727.3935 355.2766,727.4131 344.7285,727.4379 334.1802,727.4679 323.6318,727.5031 313.0833,727.5436 302.5345,727.5893 291.9856,727.6402 281.4365,727.6964 270.8871,727.7578 260.3375,727.8244 249.7876,727.8963 239.2374,727.9734 228.6868,728.0557 218.1359,728.1432 207.5847,728.236 197.0331,728.3341 186.481,728.4373 175.9285,728.5458 165.3756,728.6596 154.8222,728.7786 144.2683,728.9028 133.7139,729.0322 123.159,729.1669 112.6035,729.3069 102.0474,729.4521 91.4907,729.6025 80.9334,729.7582 76.7104,729.822" stroke="black" stroke-opacity="0.5" stroke-width="1" /><polyline fill="none" points="76.7104,729.822 76.5447,718.892 76.3798,707.9628 76.2157,697.0343 76.0524,686.1065 75.8899,675.1794 75.7282,664.2529 75.5673,653.327 75.4071,642.4016 75.2478,631.4769 75.0893,620.5526 74.9315,609.6289 74.7745,598.7056 74.6183,587.7828 74.4629,576.8604 74.3083,565.9385 74.1545,555.0169 74.0015,544.0956 73.8492,533.1746 73.6978,522.254 73.5471,511.3336 73.3972,500.4135 73.2481,489.4936 73.0998,478.5738 72.9522,467.6543 72.8055,456.7349 72.6595,445.8156 72.5143,434.8964 72.3699,423.9772 72.2263,413.0581 72.0834,402.139 71.9414,391.2199 71.8001,380.3007 71.6596,369.3815 71.5199,358.4621 71.3809,347.5427 71.2427,336.6231 71.1054,325.7034 70.9688,314.7834 70.8329,303.8632 70.6979,292.9428 70.5636,282.0221 70.4301,271.1011 70.2974,260.1798 70.1655,249.2581 70.0343,238.3361 69.9039,227.4136 69.7743,216.4907 69.6455,205.5674 69.5174,194.6435 69.3901,183.7192 69.2636,172.7943 69.1379,161.8689 69.013,150.9429 68.8888,140.0163 68.7654,129.089 68.6427,118.1611 68.5209,107.2325 68.3998,96.3031 68.2795,85.3731 68.16,74.4422" stroke="black" stroke-opacity="0.5" stroke-width="1" /></svg>