<?xml version="1.0" encoding="utf-8" ?>
<svg baseProfile="tiny" height="800" version="1.2" width="800" xmlns="http://www.w3.org/2000/svg" xmlns:ev="http://www.w3.org/2001/xml-events" xmlns:xlink="http://www.w3.org/1999/xlink"><defs /><rect fill="none" height="800" stroke="black" stroke-width="2" width="800" x="0" y="0" /><polyline fill="none" points="669.2414,729.0694 669.3793,718.1427 669.5166,707.2166 669.6532,696.2913 669.7892,685.3667 669.9245,674.4427 670.0591,663.5194 670.1931,652.5967 670.3264,641.6746 670.459,630.753 670.591,619.832 670.7224,608.9114 670.8531,597.9914 670.9831,587.0718 671.1125,576.1527 671.2412,565.2339 671.3692,554.3155 671.4967,543.3975 671.6234,532.4798 671.7495,521.5624 671.8749,510.6453 671.9997,499.7284 672.1239,488.8118 672.2474,477.8954 672.3702,466.9791 672.4924,456.0629 672.6139,445.1469 672.7348,434.231 672.855,423.3151 672.9746,412.3993 673.0935,401.4835 673.2118,390.5677 673.3294,379.6519 673.4464,368.736 673.5627,357.82 673.6784,346.9039 673.7934,335.9876 673.9078,325.0712 674.0215,314.1546 674.1346,303.2378 674.247,292.3207 674.3588,281.4034 674.47,270.4857 674.5805,259.5678 674.6903,248.6495 674.7995,237.7308 674.908,226.8117 675.0159,215.8922 675.1232,204.9722 675.2298,194.0518 675.3358,183.1309 675.4411,172.2094 675.5458,161.2874 675.6498,150.3648 675.7532,139.4416 675.8559,128.5177 675.958,117.5932 676.0595,106.668 676.1603,95.7421 676.2604,84.8155 676.3599,73.8881" stroke="silver" stroke-opacity="0.5" stroke-width="1" /><polyline fill="none" points="563.7168,727.9959 563.8006,717.0736 563.884,706.1521 563.9671,695.2313 564.0497,684.3112 564.1319,673.3918 564.2137,662.473 564.2952,651.5549 564.3762,640.6373 564.4568,629.7203 564.537,618.8039 564.6169,607.8879 564.6963,596.9725 564.7753,586.0575 564.854,575.143 564.9322,564.2288 565.01,553.3151 565.0875,542.4017 565.1645,531.4886 565.2411,520.5759 565.3174,509.6634 565.3932,498.7512 565.4687,487.8392 565.5437,476.9274 565.6184,466.0158 565.6926,455.1044 565.7665,444.1931 565.84,433.2818 565.913,422.3707 565.9857,411.4596 566.058,400.5485 566.1299,389.6374 566.2014,378.7263 566.2725,367.8151 566.3432,356.9039 566.4135,345.9925 566.4834,335.081 566.5529,324.1694 566.622,313.2576 566.6907,302.3455 566.7591,291.4332 566.827,280.5207 566.8946,269.6078 566.9617,258.6947 567.0285,247.7812 567.0949,236.8673 567.1608,225.9531 567.2264,215.0384 567.2916,204.1233 567.3564,193.2077 567.4208,182.2916 567.4848,171.375 567.5484,160.4578 567.6116,149.5401 567.6745,138.6217 567.7369,127.7028 567.799,116.7831 567.8606,105.8628 567.9219,94.9418 567.9828,84.0201 568.0432,73.0976" stroke="silver" stroke-opacity="0.5" stroke-width="1" /><polyline fill="none" points="458.225,727.4458 458.2549,716.5258 458.2845,705.6066 458.314,694.6882 458.3434,683.7704 458.3727,672.8533 458.4018,661.9369 458.4307,651.021 458.4595,640.1058 458.4882,629.1912 458.5167,618.2771 458.5451,607.3635 458.5733,596.4504 458.6014,585.5378 458.6294,574.6256 458.6572,563.7138 458.6849,552.8024 458.7124,541.8914 458.7398,530.9807 458.7671,520.0703 458.7942,509.1603 458.8211,498.2504 458.848,487.3408 458.8746,476.4315 458.9012,465.5223 458.9276,454.6132 458.9539,443.7043 458.98,432.7955 459.006,421.8867 459.0318,410.978 459.0575,400.0694 459.0831,389.1607 459.1085,378.252 459.1338,367.3433 459.1589,356.4345 459.1839,345.5255 459.2087,334.6165 459.2335,323.7073 459.258,312.7979 459.2825,301.8883 459.3068,290.9784 459.3309,280.0683 459.3549,269.158 459.3788,258.2473 459.4026,247.3362 459.4262,236.4248 459.4496,225.5131 459.4729,214.6009 459.4961,203.6882 459.5192,192.7751 459.5421,181.8615 459.5648,170.9474 459.5874,160.0327 459.6099,149.1175 459.6322,138.2016 459.6545,127.2851 459.6765,116.368 459.6984,105.4502 459.7202,94.5317 459.7419,83.6125 459.7634,72.6925" stroke="silver" stroke-opacity="0.5" stroke-width="1" /><polyline fill="none" points="352.7451,727.4186 352.7209,716.4987 352.6968,705.5797 352.6728,694.6613 352.649,683.7437 352.6253,672.8267 352.6016,661.9104 352.5781,650.9947 352.5548,640.0795 352.5315,629.165 352.5083,618.251 352.4853,607.3376 352.4624,596.4246 352.4396,585.5121 352.4169,574.6 352.3943,563.6883 352.3719,552.7771 352.3495,541.8662 352.3273,530.9556 352.3052,520.0454 352.2832,509.1354 352.2613,498.2257 352.2395,487.3162 352.2179,476.4069 352.1963,465.4979 352.1749,454.5889 352.1536,443.6801 352.1324,432.7714 352.1113,421.8628 352.0903,410.9542 352.0695,400.0457 352.0487,389.1372 352.0281,378.2286 352.0076,367.32 351.9872,356.4113 351.9669,345.5025 351.9467,334.5935 351.9266,323.6844 351.9067,312.7752 351.8869,301.8657 351.8671,290.956 351.8475,280.046 351.828,269.1357 351.8087,258.2252 351.7894,247.3143 351.7703,236.403 351.7512,225.4913 351.7323,214.5792 351.7135,203.6667 351.6948,192.7537 351.6762,181.8402 351.6577,170.9262 351.6394,160.0117 351.6211,149.0966 351.603,138.1809 351.585,127.2645 351.5671,116.3475 351.5493,105.4298 351.5316,94.5115 351.514,83.5924 351.4966,72.6725" stroke="silver" stroke-opacity="0.5" stroke-width="1" /><polyline fill="none" points="247.2556,727.9143 247.1773,716.9924 247.0995,706.0712 247.022,695.1508 246.945,684.231 246.8682,673.3119 246.7919,662.3935 246.7159,651.4757 246.6403,640.5585 246.5651,629.6419 246.4903,618.7258 246.4158,607.8102 246.3417,596.8951 246.268,585.9804 246.1946,575.0662 246.1216,564.1524 246.049,553.2391 245.9768,542.326 245.9049,531.4133 245.8334,520.5009 245.7623,509.5888 245.6915,498.6769 245.6211,487.7653 245.5511,476.8539 245.4814,465.9426 245.4122,455.0315 245.3432,444.1206 245.2747,433.2097 245.2065,422.2989 245.1387,411.3882 245.0713,400.4775 245.0042,389.5667 244.9375,378.656 244.8712,367.7452 244.8053,356.8343 244.7397,345.9233 244.6744,335.0121 244.6096,324.1009 244.5451,313.1894 244.481,302.2777 244.4172,291.3658 244.3538,280.4536 244.2908,269.5411 244.2282,258.6283 244.1659,247.7152 244.104,236.8017 244.0424,225.8878 243.9812,214.9735 243.9204,204.0587 243.86,193.1435 243.7999,182.2278 243.7402,171.3115 243.6808,160.3948 243.6218,149.4774 243.5632,138.5594 243.505,127.6408 243.4471,116.7216 243.3896,105.8016 243.3324,94.881 243.2756,83.9597 243.2192,73.0375" stroke="silver" stroke-opacity="0.5" stroke-width="1" /><polyline fill="none" points="141.7353,728.9334 141.603,718.0072 141.4714,707.0817 141.3403,696.157 141.2099,685.2329 141.0802,674.3095 140.951,663.3868 140.8225,652.4646 140.6946,641.5431 140.5674,630.6221 140.4408,619.7017 140.3148,608.7817 140.1895,597.8623 140.0647,586.9433 139.9406,576.0247 139.8172,565.1065 139.6943,554.1887 139.5721,543.2713 139.4506,532.3542 139.3296,521.4374 139.2093,510.5209 139.0896,499.6046 138.9705,488.6885 138.8521,477.7727 138.7343,466.857 138.6171,455.9415 138.5005,445.026 138.3846,434.1107 138.2692,423.1954 138.1545,412.2802 138.0405,401.365 137.927,390.4498 137.8142,379.5346 137.702,368.6193 137.5904,357.7039 137.4795,346.7884 137.3691,335.8727 137.2594,324.9569 137.1504,314.0409 137.0419,303.1247 136.934,292.2082 136.8268,281.2915 136.7202,270.3745 136.6142,259.4571 136.5089,248.5394 136.4041,237.6213 136.3,226.7029 136.1965,215.784 136.0937,204.8646 135.9914,193.9448 135.8898,183.0245 135.7887,172.1036 135.6883,161.1822 135.5886,150.2602 135.4894,139.3377 135.3909,128.4144 135.2929,117.4905 135.1956,106.566 135.0989,95.6407 135.0029,84.7147 134.9074,73.7879" stroke="silver" stroke-opacity="0.5" stroke-width="1" /><polyline fill="none" points="723.2896,729.822 722.0227,729.8028 711.4652,729.6456 700.9084,729.4937 690.3521,729.347 679.7965,729.2056 669.2414,729.0694 658.6868,728.9385 648.1328,728.8128 637.5793,728.6924 627.0262,728.5771 616.4736,728.4672 605.9215,728.3624 595.3697,728.263 584.8184,728.1687 574.2674,728.0797 563.7168,727.9959 553.1665,727.9173 542.6165,727.844 532.0668,727.7759 521.5173,727.7131 510.9681,727.6554 500.4191,727.603 489.8704,727.5559 479.3218,727.5139 468.7733,727.4772 458.225,727.4458 447.6769,727.4195 437.1288,727.3985 426.5808,727.3827 416.0328,727.3721 405.4849,727.3668 394.937,727.3667 384.3891,727.3718 373.8411,727.3822 363.2931,727.3978 352.7451,727.4186 342.1969,727.4446 331.6486,727.4759 321.1002,727.5124 310.5516,727.5541 300.0028,727.6011 289.4539,727.6532 278.9047,727.7107 268.3552,727.7733 257.8055,727.8412 247.2556,727.9143 236.7053,727.9926 226.1546,728.0762 215.6037,728.165 205.0523,728.2591 194.5006,728.3584 183.9485,728.4629 173.3959,728.5726 162.8428,728.6876 152.2893,728.8079 141.7353,728.9334 131.1808,729.0641 120.6257,729.2001 110.0701,729.3413 99.5139,729.4877 88.9571,729.6394 78.3996,729.7964 76.7104,729.822" stroke="silver" stroke-opacity="0.5" stroke-width="1" /><polyline fill="none" points="724.5929,642.4016 723.3208,642.3831 712.7207,642.2312 702.1212,642.0845 691.5223,641.9428 680.9241,641.8061 670.3264,641.6746 659.7292,641.5481 649.1326,641.4266 638.5365,641.3102 627.9409,641.1989 617.3457,641.0927 606.751,640.9915 596.1567,640.8954 585.5629,640.8043 574.9693,640.7183 564.3762,640.6373 553.7834,640.5614 543.1909,640.4906 532.5987,640.4248 522.0067,640.3641 511.415,640.3084 500.8235,640.2578 490.2323,640.2122 479.6412,640.1717 469.0503,640.1362 458.4595,640.1058 447.8689,640.0805 437.2783,640.0601 426.6878,640.0449 416.0974,640.0347 405.507,640.0295 394.9166,640.0294 384.3262,640.0344 373.7358,640.0444 363.1453,640.0594 352.5548,640.0795 341.9641,640.1047 331.3733,640.1349 320.7824,640.1702 310.1914,640.2105 299.6001,640.2559 289.0086,640.3063 278.417,640.3617 267.825,640.4223 257.2328,640.4879 246.6403,640.5585 236.0475,640.6342 225.4544,640.7149 214.8609,640.8008 204.267,640.8916 193.6727,640.9876 183.0781,641.0885 172.4829,641.1946 161.8873,641.3057 151.2912,641.4219 140.6946,641.5431 130.0975,641.6694 119.4998,641.8008 108.9016,641.9372 98.3028,642.0787 87.7033,642.2253 77.1032,642.3769 75.4071,642.4016" stroke="silver" stroke-opacity="0.5" stroke-width="1" /><polyline fill="none" points="725.8455,555.0169 724.5685,554.9989 713.9274,554.8525 703.2869,554.7109 692.6471,554.5742 682.0079,554.4424 671.3692,554.3155 660.7312,554.1935 650.0936,554.0764 639.4566,553.9641 628.8201,553.8568 618.184,553.7543 607.5484,553.6567 596.9132,553.564 586.2784,553.4761 575.644,553.3932 565.01,553.3151 554.3763,553.2419 543.743,553.1735 533.1099,553.1101 522.4771,553.0515 511.8446,552.9978 501.2123,552.949 490.5802,552.905 479.9482,552.866 469.3165,552.8317 458.6849,552.8024 448.0534,552.778 437.422,552.7584 426.7907,552.7437 416.1594,552.7338 405.5282,552.7288 394.897,552.7287 384.2658,552.7335 373.6345,552.7432 363.0032,552.7577 352.3719,552.7771 341.7404,552.8013 331.1088,552.8305 320.477,552.8645 309.8451,552.9034 299.213,552.9471 288.5807,552.9958 277.9482,553.0493 267.3154,553.1077 256.6824,553.1709 246.049,553.2391 235.4153,553.3121 224.7813,553.39 214.1469,553.4727 203.5122,553.5604 192.877,553.6529 182.2414,553.7503 171.6054,553.8526 160.9689,553.9598 150.3319,554.0718 139.6943,554.1887 129.0563,554.3106 118.4177,554.4373 107.7785,554.5689 97.1387,554.7054 86.4982,554.8467 75.8572,554.993 74.1545,555.0169" stroke="silver" stroke-opacity="0.5" stroke-width="1" /><polyline fill="none" points="727.0478,467.6543 725.7661,467.6371 715.0856,467.496 704.4058,467.3597 693.7267,467.2281 683.0481,467.1013 672.3702,466.9791 661.6928,466.8616 651.016,466.7488 640.3397,466.6407 629.6639,466.5374 618.9886,466.4387 608.3137,466.3447 597.6393,466.2555 586.9653,466.1709 576.2916,466.091 565.6184,466.0158 554.9455,465.9454 544.2729,465.8796 533.6006,465.8185 522.9286,465.7621 512.2569,465.7104 501.5853,465.6634 490.914,465.6211 480.2429,465.5834 469.572,465.5505 458.9012,465.5223 448.2305,465.4987 437.5599,465.4798 426.8894,465.4657 416.219,465.4562 405.5486,465.4514 394.8782,465.4513 384.2078,465.4559 373.5374,465.4652 362.8669,465.4792 352.1963,465.4979 341.5256,465.5212 330.8548,465.5493 320.1839,465.582 309.5128,465.6195 298.8415,465.6616 288.17,465.7084 277.4983,465.7599 266.8263,465.8161 256.154,465.877 245.4814,465.9426 234.8085,466.0129 224.1353,466.0879 213.4617,466.1676 202.7877,466.252 192.1133,466.3411 181.4384,466.4349 170.7631,466.5333 160.0874,466.6365 149.4111,466.7444 138.7343,466.857 128.0569,466.9743 117.379,467.0963 106.7005,467.223 96.0213,467.3544 85.3416,467.4905 74.6612,467.6313 72.9522,467.6543" stroke="silver" stroke-opacity="0.5" stroke-width="1" /><polyline fill="none" points="728.1999,380.3007 726.9137,380.2841 716.1955,380.1486 705.4781,380.0177 694.7612,379.8912 684.045,379.7693 673.3294,379.6519 662.6144,379.539 651.8999,379.4306 641.186,379.3268 630.4725,379.2275 619.7596,379.1326 609.0471,379.0423 598.3351,378.9566 587.6234,378.8753 576.9122,378.7986 566.2014,378.7263 555.4909,378.6586 544.7807,378.5954 534.0708,378.5367 523.3613,378.4825 512.6519,378.4328 501.9429,378.3876 491.234,378.347 480.5253,378.3108 469.8168,378.2792 459.1085,378.252 448.4002,378.2294 437.6921,378.2113 426.9841,378.1977 416.2761,378.1886 405.5681,378.184 394.8602,378.1839 384.1522,378.1883 373.4442,378.1972 362.7362,378.2106 352.0281,378.2286 341.3199,378.251 330.6115,378.278 319.903,378.3095 309.1943,378.3454 298.4855,378.3859 287.7764,378.4309 277.0671,378.4804 266.3575,378.5344 255.6477,378.5929 244.9375,378.656 234.2271,378.7235 223.5162,378.7956 212.805,378.8721 202.0934,378.9532 191.3814,379.0388 180.6689,379.1289 169.956,379.2236 159.2426,379.3227 148.5287,379.4264 137.8142,379.5346 127.0992,379.6473 116.3836,379.7645 105.6674,379.8862 94.9506,380.0125 84.2332,380.1433 73.515,380.2786 71.8001,380.3007" stroke="silver" stroke-opacity="0.5" stroke-width="1" /><polyline fill="none" points="729.3021,292.9428 728.0116,292.9269 717.2574,292.797 706.5038,292.6714 695.7509,292.5502 684.9987,292.4333 674.247,292.3207 663.496,292.2125 652.7455,292.1085 641.9955,292.009 631.2461,291.9137 620.4972,291.8228 609.7487,291.7362 599.0007,291.654 588.2531,291.5761 577.5059,291.5025 566.7591,291.4332 556.0126,291.3683 545.2665,291.3077 534.5207,291.2514 523.7752,291.1994 513.0299,291.1518 502.2849,291.1085 491.5401,291.0695 480.7955,291.0348 470.0511,291.0045 459.3068,290.9784 448.5626,290.9567 437.8186,290.9394 427.0746,290.9263 416.3307,290.9176 405.5868,290.9132 394.8429,290.9131 384.0991,290.9173 373.3552,290.9259 362.6112,290.9388 351.8671,290.956 341.123,290.9775 330.3787,291.0033 319.6343,291.0335 308.8897,291.068 298.1449,291.1068 287.3999,291.15 276.6546,291.1974 265.9091,291.2492 255.1633,291.3053 244.4172,291.3658 233.6708,291.4305 222.924,291.4996 212.1768,291.573 201.4292,291.6508 190.6812,291.7329 179.9328,291.8193 169.1839,291.91 158.4344,292.0051 147.6845,292.1045 136.934,292.2082 126.183,292.3163 115.4314,292.4287 104.6792,292.5454 93.9263,292.6665 83.1728,292.7919 72.4186,292.9216 70.6979,292.9428" stroke="silver" stroke-opacity="0.5" stroke-width="1" /><polyline fill="none" points="730.3545,205.5674 729.0598,205.5522 718.2712,205.4279 707.4832,205.3077 696.6959,205.1918 685.9093,205.0799 675.1232,204.9722 664.3378,204.8687 653.5529,204.7693 642.7685,204.674 631.9847,204.5829 621.2014,204.496 610.4186,204.4131 599.6362,204.3345 588.8543,204.2599 578.0727,204.1895 567.2916,204.1233 556.5108,204.0611 545.7304,204.0032 534.9502,203.9493 524.1704,203.8996 513.3908,203.854 502.6115,203.8126 491.8323,203.7753 481.0534,203.7421 470.2747,203.7131 459.4961,203.6882 448.7177,203.6675 437.9393,203.6508 427.161,203.6384 416.3828,203.63 405.6046,203.6258 394.8265,203.6257 384.0483,203.6298 373.2701,203.6379 362.4918,203.6503 351.7135,203.6667 340.935,203.6873 330.1564,203.712 319.3777,203.7409 308.5988,203.7739 297.8197,203.811 287.0404,203.8523 276.2608,203.8977 265.481,203.9472 254.7009,204.0009 243.9204,204.0587 233.1396,204.1207 222.3585,204.1868 211.577,204.257 200.7951,204.3314 190.0127,204.4099 179.2299,204.4926 168.4466,204.5794 157.6628,204.6703 146.8785,204.7654 136.0937,204.8646 125.3082,204.968 114.5222,205.0755 103.7356,205.1872 92.9483,205.303 82.1603,205.423 71.3717,205.5471 69.6455,205.5674" stroke="silver" stroke-opacity="0.5" stroke-width="1" /><polyline fill="none" points="731.3573,118.1611 730.0586,118.1466 719.2372,118.028 708.4164,117.9134 697.5963,117.8027 686.7768,117.696 675.958,117.5932 665.1398,117.4944 654.3221,117.3996 643.505,117.3087 632.6885,117.2218 621.8724,117.1388 611.0569,117.0597 600.2418,116.9847 589.4271,116.9135 578.6128,116.8464 567.799,116.7831 556.9855,116.7239 546.1723,116.6685 535.3595,116.6172 524.5469,116.5697 513.7346,116.5262 502.9226,116.4867 492.1108,116.4511 481.2992,116.4195 470.4878,116.3918 459.6765,116.368 448.8654,116.3482 438.0543,116.3324 427.2434,116.3205 416.4325,116.3125 405.6216,116.3085 394.8108,116.3084 383.9999,116.3122 373.1891,116.3201 362.3781,116.3318 351.5671,116.3475 340.7559,116.3672 329.9447,116.3908 319.1333,116.4183 308.3217,116.4498 297.5099,116.4852 286.6978,116.5246 275.8856,116.5679 265.073,116.6152 254.2602,116.6664 243.4471,116.7216 232.6336,116.7807 221.8197,116.8438 211.0055,116.9108 200.1908,116.9817 189.3757,117.0567 178.5602,117.1355 167.7442,117.2184 156.9276,117.3051 146.1106,117.3959 135.2929,117.4905 124.4747,117.5892 113.6559,117.6918 102.8365,117.7983 92.0164,117.9089 81.1957,118.0233 70.3742,118.1418 68.6427,118.1611" stroke="silver" stroke-opacity="0.5" stroke-width="1" /><line fill="none" stroke="green" stroke-opacity="0.5" stroke-width="1.5" x1="311.8699" x2="534.0085" y1="97.5132" y2="629.0557" /><circle cx="726.1307" cy="167.4095" fill="black" r="0.936" stroke="none" /><circle cx="725.3351" cy="168.9739" fill="black" r="0.738" stroke="none" /><circle cx="708.6495" cy="476.3242" fill="black" r="0.738" stroke="none" /><circle cx="712.0997" cy="80.0924" fill="black" r="0.738" stroke="none" /><circle cx="705.7125" cy="525.4729" fill="black" r="0.738" stroke="none" /><circle cx="703.0826" cy="576.7275" fill="black" r="0.738" stroke="none" /><circle cx="695.5761" cy="308.2725" fill="black" r="0.738" stroke="none" /><circle cx="694.0437" cy="404.6897" fill="black" r="0.738" stroke="none" /><circle cx="687.2082" cy="686.4641" fill="black" r="0.738" stroke="none" /><circle cx="679.1197" cy="319.7108" fill="black" r="0.738" stroke="none" /><circle cx="667.5397" cy="486.5767" fill="black" r="0.738" stroke="none" /><circle cx="662.7483" cy="541.3756" fill="black" r="0.738" stroke="none" /><circle cx="662.9947" cy="163.4421" fill="black" r="0.738" stroke="none" /><circle cx="657.1023" cy="619.3239" fill="black" r="0.738" stroke="none" /><circle cx="656.4264" cy="655.8406" fill="black" r="0.738" stroke="none" /><circle cx="648.2804" cy="556.5026" fill="black" r="0.738" stroke="none" /><circle cx="647.3196" cy="409.4252" fill="black" r="0.738" stroke="none" /><circle cx="639.2435" cy="669.8907" fill="black" r="0.738" stroke="none" /><circle cx="634.7815" cy="281.0284" fill="black" r="0.738" stroke="none" /><circle cx="629.108" cy="229.1905" fill="black" r="0.738" stroke="none" /><circle cx="613.0995" cy="485.3335" fill="black" r="0.738" stroke="none" /><circle cx="610.3961" cy="160.7385" fill="black" r="0.738" stroke="none" /><circle cx="597.8567" cy="724.0909" fill="black" r="0.738" stroke="none" /><circle cx="597.0783" cy="98.1774" fill="black" r="0.738" stroke="none" /><circle cx="584.1377" cy="555.2054" fill="black" r="0.738" stroke="none" /><circle cx="575.4203" cy="679.7697" fill="black" r="0.738" stroke="none" /><circle cx="577.7103" cy="179.4718" fill="black" r="0.738" stroke="none" /><circle cx="573.4679" cy="368.6486" fill="black" r="0.738" stroke="none" /><circle cx="566.2898" cy="552.8003" fill="black" r="0.738" stroke="none" /><circle cx="553.4978" cy="620.4723" fill="black" r="0.738" stroke="none" /><circle cx="556.2597" cy="90.0735" fill="black" r="0.738" stroke="none" /><circle cx="554.1731" cy="282.3657" fill="black" r="0.738" stroke="none" /><circle cx="547.3921" cy="458.3913" fill="black" r="0.738" stroke="none" /><circle cx="538.0334" cy="718.7267" fill="black" r="0.738" stroke="none" /><circle cx="534.0228" cy="629.0802" fill="black" r="1.476" stroke="none" /><circle cx="533.1456" cy="648.1136" fill="black" r="0.738" stroke="none" /><circle cx="535.0623" cy="180.4605" fill="black" r="0.738" stroke="none" /><circle cx="526.6197" cy="510.4728" fill="black" r="0.738" stroke="none" /><circle cx="517.1548" cy="330.1866" fill="black" r="0.738" stroke="none" /><circle cx="509.3373" cy="683.181" fill="black" r="0.936" stroke="none" /><circle cx="507.1569" cy="298.0232" fill="black" r="0.738" stroke="none" /><circle cx="489.5862" cy="431.8402" fill="black" r="0.738" stroke="none" /><circle cx="484.2753" cy="579.0705" fill="black" r="0.738" stroke="none" /><circle cx="483.9515" cy="503.6498" fill="black" r="0.738" stroke="none" /><circle cx="473.9209" cy="410.2322" fill="black" r="0.738" stroke="none" /><circle cx="471.5727" cy="132.6391" fill="black" r="0.738" stroke="none" /><circle cx="470.667" cy="76.9967" fill="black" r="0.936" stroke="none" /><circle cx="470.1456" cy="186.2512" fill="black" r="0.738" stroke="none" /><circle cx="465.0836" cy="605.6352" fill="black" r="0.738" stroke="none" /><circle cx="464.2467" cy="689.1149" fill="black" r="0.738" stroke="none" /><circle cx="463.8243" cy="630.6902" fill="black" r="0.738" stroke="none" /><circle cx="451.5865" cy="237.5439" fill="black" r="0.738" stroke="none" /><circle cx="447.8298" cy="362.6071" fill="black" r="0.936" stroke="none" /><circle cx="445.6548" cy="427.5311" fill="black" r="1.17" stroke="none" /><circle cx="433.1016" cy="540.7063" fill="black" r="0.738" stroke="none" /><circle cx="419.8711" cy="268.6637" fill="black" r="0.738" stroke="none" /><circle cx="411.8507" cy="659.6793" fill="black" r="0.738" stroke="none" /><circle cx="410.2773" cy="383.8578" fill="black" r="0.738" stroke="none" /><circle cx="407.0266" cy="656.9701" fill="black" r="0.936" stroke="none" /><circle cx="403.5458" cy="117.5308" fill="black" r="0.738" stroke="none" /><circle cx="402.5749" cy="328.0913" fill="black" r="0.738" stroke="none" /><circle cx="398.1149" cy="371.6384" fill="black" r="0.738" stroke="none" /><circle cx="394.7275" cy="555.1728" fill="black" r="0.738" stroke="none" /><circle cx="392.7101" cy="628.7665" fill="black" r="0.738" stroke="none" /><circle cx="391.0108" cy="393.6311" fill="black" r="0.738" stroke="none" /><circle cx="385.4844" cy="458.9971" fill="black" r="0.738" stroke="none" /><circle cx="376.7822" cy="716.0223" fill="black" r="0.738" stroke="none" /><circle cx="375.123" cy="429.6832" fill="black" r="0.738" stroke="none" /><circle cx="364.6197" cy="181.3847" fill="black" r="0.738" stroke="none" /><circle cx="362.6451" cy="487.6469" fill="black" r="0.738" stroke="none" /><circle cx="348.2023" cy="121.0695" fill="black" r="0.738" stroke="none" /><circle cx="341.1452" cy="301.0145" fill="black" r="0.738" stroke="none" /><circle cx="339.3576" cy="151.1281" fill="black" r="0.738" stroke="none" /><circle cx="331.1692" cy="656.2033" fill="black" r="0.738" stroke="none" /><circle cx="331.2383" cy="678.2111" fill="black" r="0.738" stroke="none" /><circle cx="322.4907" cy="644.0937" fill="black" r="0.738" stroke="none" /><circle cx="315.6754" cy="395.0796" fill="black" r="0.738" stroke="none" /><circle cx="315.2241" cy="336.2581" fill="black" r="0.738" stroke="none" /><circle cx="315.6865" cy="724.3006" fill="black" r="0.738" stroke="none" /><circle cx="314.6135" cy="434.9672" fill="black" r="0.738" stroke="none" /><circle cx="314.0438" cy="538.2224" fill="black" r="1.17" stroke="none" /><circle cx="311.8118" cy="97.4845" fill="black" r="1.476" stroke="none" /><circle cx="311.283" cy="207.2576" fill="black" r="0.936" stroke="none" /><circle cx="311.7786" cy="697.5847" fill="black" r="0.738" stroke="none" /><circle cx="307.0422" cy="656.9906" fill="black" r="0.738" stroke="none" /><circle cx="295.9435" cy="486.5342" fill="black" r="0.738" stroke="none" /><circle cx="290.8329" cy="268.6148" fill="black" r="0.738" stroke="none" /><circle cx="289.8525" cy="80.5216" fill="black" r="0.738" stroke="none" /><circle cx="276.779" cy="695.5722" fill="black" r="0.738" stroke="none" /><circle cx="268.2408" cy="427.1412" fill="black" r="0.738" stroke="none" /><circle cx="267.2138" cy="579.737" fill="black" r="0.936" stroke="none" /><circle cx="260.861" cy="360.4085" fill="black" r="0.738" stroke="none" /><circle cx="259.9169" cy="360.2391" fill="black" r="0.738" stroke="none" /><circle cx="255.9488" cy="160.8549" fill="black" r="0.738" stroke="none" /><circle cx="254.8296" cy="458.5526" fill="black" r="0.738" stroke="none" /><circle cx="252.6609" cy="273.9466" fill="black" r="0.738" stroke="none" /><circle cx="239.0372" cy="101.107" fill="black" r="1.17" stroke="none" /><circle cx="239.8035" cy="485.2718" fill="black" r="0.738" stroke="none" /><circle cx="235.1694" cy="311.2384" fill="black" r="0.738" stroke="none" /><circle cx="229.2539" cy="638.8512" fill="black" r="0.738" stroke="none" /><circle cx="225.3373" cy="183.7325" fill="black" r="0.738" stroke="none" /><circle cx="225.7592" cy="721.001" fill="black" r="0.738" stroke="none" /><circle cx="216.2323" cy="482.3849" fill="black" r="0.738" stroke="none" /><circle cx="214.0124" cy="680.731" fill="black" r="0.738" stroke="none" /><circle cx="206.545" cy="82.6867" fill="black" r="0.738" stroke="none" /><circle cx="199.7761" cy="182.2414" fill="black" r="0.738" stroke="none" /><circle cx="197.875" cy="365.716" fill="black" r="0.738" stroke="none" /><circle cx="180.2948" cy="659.5505" fill="black" r="0.738" stroke="none" /><circle cx="176.7279" cy="724.2544" fill="black" r="0.738" stroke="none" /><circle cx="155.8414" cy="309.3202" fill="black" r="0.738" stroke="none" /><circle cx="151.8537" cy="600.2651" fill="black" r="0.936" stroke="none" /><circle cx="148.0366" cy="274.6336" fill="black" r="0.738" stroke="none" /><circle cx="149.4009" cy="570.2415" fill="black" r="0.738" stroke="none" /><circle cx="145.0655" cy="126.6686" fill="black" r="0.738" stroke="none" /><circle cx="146.7253" cy="430.0067" fill="black" r="0.738" stroke="none" /><circle cx="145.2708" cy="550.4582" fill="black" r="0.738" stroke="none" /><circle cx="139.1666" cy="641.3862" fill="black" r="0.738" stroke="none" /><circle cx="127.6253" cy="458.9438" fill="black" r="0.738" stroke="none" /><circle cx="125.38" cy="395.0372" fill="black" r="0.738" stroke="none" /><circle cx="116.7297" cy="201.4708" fill="black" r="0.738" stroke="none" /><circle cx="120.6551" cy="725.0028" fill="black" r="0.738" stroke="none" /><circle cx="115.1401" cy="537.0048" fill="black" r="0.738" stroke="none" /><circle cx="110.5592" cy="651.9666" fill="black" r="0.738" stroke="none" /><circle cx="101.7014" cy="399.8483" fill="black" r="0.738" stroke="none" /><circle cx="97.154" cy="162.5225" fill="black" r="0.738" stroke="none" /><circle cx="98.4251" cy="347.301" fill="black" r="0.738" stroke="none" /><circle cx="13.77" cy="786.23" fill="black" r="4.59" stroke="none" /><circle cx="13.77" cy="786.23" fill="black" r="4.59" stroke="none" /><text fill="black" font-family="monospace" font-size="12" x="10.77" y="775.64">1</text><circle cx="37.77" cy="786.23" fill="black" r="3.654" stroke="none" /><circle cx="37.77" cy="786.23" fill="black" r="3.654" stroke="none" /><text fill="black" font-family="monospace" font-size="12" x="34.769999999999996" y="775.64">2</text><circle cx="61.77" cy="786.23" fill="black" r="2.916" stroke="none" /><circle cx="61.77" cy="786.23" fill="black" r="2.916" stroke="none" /><text fill="black" font-family="monospace" font-size="12" x="58.769999999999996" y="775.64">3</text><circle cx="85.77" cy="786.23" fill="black" r="2.322" stroke="none" /><circle cx="85.77" cy="786.23" fill="black" r="2.322" stroke="none" /><text fill="black" font-family="monospace" font-size="12" x="82.77" y="775.64">4</text><circle cx="109.77" cy="786.23" fill="black" r="1.854" stroke="none" /><circle cx="109.77" cy="786.23" fill="black" r="1.854" stroke="none" /><text fill="black" font-family="monospace" font-size="12" x="106.77" y="775.64">5</text><circle cx="133.77" cy="786.23" fill="black" r="1.476" stroke="none" /><circle cx="133.77" cy="786.23" fill="black" r="1.476" stroke="none" /><text fill="black" font-family="monospace" font-size="12" x="130.77" y="775.64">6</text><circle cx="157.77" cy="786.23" fill="black" r="1.17" stroke="none" /><circle cx="157.77" cy="786.23" fill="black" r="1.17" stroke="none" /><text fill="black" font-family="monospace" font-size="12" x="154.77" y="775.64">7</text><circle cx="181.77" cy="786.23" fill="black" r="0.936" stroke="none" /><circle cx="181.77" cy="786.23" fill="black" r="0.936" stroke="none" /><text fill="black" font-family="monospace" font-size="12" x="178.77" y="775.64">8</text><circle cx="205.77" cy="786.23" fill="black" r="0.738" stroke="none" /><circle cx="205.77" cy="786.23" fill="black" r="0.738" stroke="none" /><text fill="black" font-family="monospace" font-size="12" x="202.77" y="775.64">9</text><text fill="gray" fill-opacity="0.5" font-family="monospace" font-size="12" x="676.3599216461228" y="73.88809624843304">22h00m</text><text fill="gray" fill-opacity="0.5" font-family="monospace" font-size="12" x="568.0432349299672" y="73.09761310224661">22h05m</text><text fill="gray" fill-opacity="0.5" font-family="monospace" font-size="12" x="459.7633642689611" y="72.69254726632374">22h10m</text><text fill="gray" fill-opacity="0.5" font-family="monospace" font-size="12" x="351.4965841498167" y="72.67252836786315">22h15m</text><text fill="gray" fill-opacity="0.5" font-family="monospace" font-size="12" x="243.21917997633372" y="73.0375381059091">22h20m</text><text fill="gray" fill-opacity="0.5" font-family="monospace" font-size="12" x="134.90742829232863" y="73.78791021632145">22h25m</text><text fill="gray" fill-opacity="0.5" font-family="monospace" font-size="12" x="76.71035069797495" y="729.8219665440616">-15°</text><text fill="gray" fill-opacity="0.5" font-family="monospace" font-size="12" x="75.40714312416856" y="642.4016498613714">-14°</text><text fill="gray" fill-opacity="0.5" font-family="monospace" font-size="12" x="74.15451755678691" y="555.0168519113298">-13°</text><text fill="gray" fill-opacity="0.5" font-family="monospace" font-size="12" x="72.95223276131458" y="467.65429096855854">-12°</text><text fill="gray" fill-opacity="0.5" font-family="monospace" font-size="12" x="71.80007815861342" y="380.30069879479095">-11°</text><text fill="gray" fill-opacity="0.5" font-family="monospace" font-size="12" x="70.69787367159438" y="292.9428125892501">-10°</text><text fill="gray" fill-opacity="0.5" font-family="monospace" font-size="12" x="69.64546961131464" y="205.56736694601938">-9°</text><text fill="gray" fill-opacity="0.5" font-family="monospace" font-size="12" x="68.64274660234406" y="118.16108580806116">-8°</text><text fill="black" font-family="monospace" font-size="12" x="12" y="48">&gt;&gt; No.357 21h57m 22h28m -15.0°-7.5°</text><a target="_self" xlink:href="hip022.svg"><text fill="black" font-family="monospace" font-size="12" x="12" y="36">&gt; No.22 21h20m 24h00m -22.5°+0.0°</text></a><a target="_self" xlink:href="hip001.svg"><text fill="black" font-family="monospace" font-size="12" x="12" y="24">No.1 00h 24h -90.0°+0.0°</text></a><polyline fill="none" points="731.84,74.4422 730.5395,74.4281 719.7022,74.3124 708.8657,74.2005 698.0298,74.0925 687.1945,73.9884 676.3599,73.8881 665.5259,73.7917 654.6925,73.6991 643.8596,73.6104 633.0273,73.5256 622.1955,73.4446 611.3642,73.3675 600.5333,73.2943 589.7029,73.2249 578.8729,73.1593 568.0432,73.0976 557.214,73.0398 546.3851,72.9858 535.5565,72.9356 524.7282,72.8894 513.9002,72.8469 503.0724,72.8084 492.2449,72.7736 481.4175,72.7427 470.5904,72.7157 459.7634,72.6925 448.9365,72.6732 438.1097,72.6577 427.283,72.6461 416.4564,72.6383 405.6298,72.6344 394.8032,72.6343 383.9767,72.6381 373.15,72.6457 362.3233,72.6572 351.4966,72.6725 340.6697,72.6917 329.8427,72.7147 319.0156,72.7416 308.1882,72.7723 297.3607,72.8069 286.5329,72.8453 275.7049,72.8876 264.8766,72.9337 254.0481,72.9837 243.2192,73.0375 232.3899,73.0952 221.5603,73.1568 210.7303,73.2222 199.8999,73.2914 189.0691,73.3645 178.2378,73.4415 167.406,73.5223 156.5737,73.607 145.7408,73.6955 134.9074,73.7879 124.0734,73.8842 113.2389,73.9843 102.4037,74.0883 91.5678,74.1961 80.7313,74.3078 69.894,74.4234 68.16,74.4422" stroke="black" stroke-opacity="0.5" stroke-width="1" /><polyline fill="none" points="723.2896,729.822 723.4553,718.892 723.6202,707.9628 723.7843,697.0343 723.9476,686.1065 724.1101,675.1794 724.2718,664.2529 724.4327,653.327 724.5929,642.4016 724.7522,631.4769 724.9107,620.5526 725.0685,609.6289 725.2255,598.7056 725.3817,587.7828 725.5371,576.8604 725.6917,565.9385 725.8455,555.0169 725.9985,544.0956 726.1508,533.1746 726.3022,522.254 726.4529,511.3336 726.6028,500.4135 726.7519,489.4936 726.9002,478.5738 727.0478,467.6543 727.1945,456.7349 727.3405,445.8156 727.4857,434.8964 727.6301,423.9772 727.7737,413.0581 727.9166,402.139 728.0586,391.2199 728.1999,380.3007 728.3404,369.3815 728.4801,358.4621 728.6191,347.5427 728.7573,336.6231 728.8946,325.7034 729.0312,314.7834 729.1671,303.8632 729.3021,292.9428 729.4364,282.0221 729.5699,271.1011 729.7026,260.1798 729.8345,249.2581 729.9657,238.3361 730.0961,227.4136 730.2257,216.4907 730.3545,205.5674 730.4826,194.6435 730.6099,183.7192 730.7364,172.7943 730.8621,161.8689 730.987,150.9429 731.1112,140.0163 731.2346,129.089 731.3573,118.1611 731.4791,107.2325 731.6002,96.3031 731.7205,85.3731 731.84,74.4422" stroke="black" stroke-opacity="0.5" stroke-width="1" /><polyline fill="none" points="723.2896,729.822 722.0227,729.8028 711.4652,729.6456 700.9084,729.4937 690.3521,729.347 679.7965,729.2056 669.2414,729.0694 658.6868,728.9385 648.1328,728.8128 637.5793,728.6924 627.0262,728.5771 616.4736,728.4672 605.9215,728.3624 595.3697,728.263 584.8184,728.1687 574.2674,728.0797 563.7168,727.9959 553.1665,727.9173 542.6165,727.844 532.0668,727.7759 521.5173,727.7131 510.9681,727.6554 500.4191,727.603 489.8704,727.5559 479.3218,727.5139 468.7733,727.4772 458.225,727.4458 447.6769,727.4195 437.1288,727.3985 426.5808,727.3827 416.0328,727.3721 405.4849,727.3668 394.937,727.3667 384.3891,727.3718 373.8411,727.3822 363.2931,727.3978 352.7451,727.4186 342.1969,727.4446 331.6486,727.4759 321.1002,727.5124 310.5516,727.5541 300.0028,727.6011 289.4539,727.6532 278.9047,727.7107 268.3552,727.7733 257.8055,727.8412 247.2556,727.9143 236.7053,727.9926 226.1546,728.0762 215.6037,728.165 205.0523,728.2591 194.5006,728.3584 183.9485,728.4629 173.3959,728.5726 162.8428,728.6876 152.2893,728.8079 141.7353,728.9334 131.1808,729.0641 120.6257,729.2001 110.0701,729.3413 99.5139,729.4877 88.9571,729.6394 78.3996,729.7964 76.7104,729.822" stroke="black" stroke-opacity="0.5" stroke-width="1" /><polyline fill="none" points="76.7104,729.822 76.5447,718.892 76.3798,707.9628 76.2157,697.0343 76.0524,686.1065 75.8899,675.1794 75.7282,664.2529 75.5673,653.327 75.4071,642.4016 75.2478,631.4769 75.0893,620.5526 74.9315,609.6289 74.7745,598.7056 74.6183,587.7828 74.4629,576.8604 74.3083,565.9385 74.1545,555.0169 74.0015,544.0956 73.8492,533.1746 73.6978,522.254 73.5471,511.3336 73.3972,500.4135 73.2481,489.4936 73.0998,478.5738 72.9522,467.6543 72.8055,456.7349 72.6595,445.8156 72.5143,434.8964 72.3699,423.9772 72.2263,413.0581 72.0834,402.139 71.9414,391.2199 71.8001,380.3007 71.6596,369.3815 71.5199,358.4621 71.3809,347.5427 71.2427,336.6231 71.1054,325.7034 70.9688,314.7834 70.8329,303.8632 70.6979,292.9428 70.5636,282.0221 70.4301,271.1011 70.2974,260.1798 70.1655,249.2581 70.0343,238.3361 69.9039,227.4136 69.7743,216.4907 69.6455,205.5674 69.5174,194.6435 69.3901,183.7192 69.2636,172.7943 69.1379,161.8689 69.013,150.9429 68.8888,140.0163 68.7654,129.089 68.6427,118.1611 68.5209,107.2325 68.3998,96.3031 68.2795,85.3731 68.16,74.4422" stroke="black" stroke-opacity="0.5" stroke-width="1" /></svg>