<?xml version="1.0" encoding="utf-8" ?>
<svg baseProfile="tiny" height="800" version="1.2" width="800" xmlns="http://www.w3.org/2000/svg" xmlns:ev="http://www.w3.org/2001/xml-events" xmlns:xlink="http://www.w3.org/1999/xlink"><defs /><rect fill="none" height="800" stroke="black" stroke-width="2" width="800" x="0" y="0" /><polyline fill="none" points="719.0666,729.7582 719.2301,718.8286 719.3928,707.8996 719.5547,696.9714 719.7159,686.0439 719.8763,675.117 720.0359,664.1907 720.1947,653.2651 720.3527,642.3401 720.51,631.4156 720.6664,620.4916 720.8221,609.5681 720.977,598.6451 721.1312,587.7226 721.2845,576.8005 721.4371,565.8788 721.5889,554.9574 721.74,544.0365 721.8902,533.1158 722.0397,522.1954 722.1884,511.2753 722.3363,500.3555 722.4835,489.4358 722.6299,478.5164 722.7755,467.5971 722.9203,456.678 723.0644,445.7589 723.2077,434.84 723.3502,423.9211 723.4919,413.0023 723.6329,402.0835 723.7731,391.1646 723.9125,380.2457 724.0512,369.3268 724.1891,358.4078 724.3262,347.4886 724.4626,336.5693 724.5982,325.6498 724.733,314.7301 724.867,303.8103 725.0003,292.8901 725.1328,281.9697 725.2646,271.049 725.3956,260.1279 725.5258,249.2066 725.6552,238.2848 725.7839,227.3626 725.9118,216.44 726.0389,205.517 726.1653,194.5934 726.2909,183.6694 726.4158,172.7448 726.5399,161.8197 726.6632,150.8939 726.7857,139.9676 726.9075,129.0406 727.0285,118.113 727.1488,107.1847 727.2683,96.2556 727.387,85.3258 727.505,74.3953" stroke="silver" stroke-opacity="0.5" stroke-width="1" /><polyline fill="none" points="613.519,728.4373 613.6283,717.5132 613.7372,706.5898 613.8455,695.6672 613.9533,684.7452 614.0605,673.8239 614.1673,662.9033 614.2735,651.9833 614.3792,641.0638 614.4844,630.145 614.589,619.2266 614.6931,608.3088 614.7967,597.3915 614.8998,586.4746 615.0024,575.5582 615.1045,564.6421 615.206,553.7265 615.307,542.8112 615.4075,531.8962 615.5075,520.9816 615.6069,510.0672 615.7059,499.153 615.8043,488.2391 615.9022,477.3254 615.9996,466.4119 616.0964,455.4985 616.1928,444.5853 616.2886,433.6721 616.3839,422.7591 616.4787,411.846 616.573,400.933 616.6668,390.02 616.76,379.1069 616.8528,368.1938 616.945,357.2806 617.0367,346.3673 617.1279,335.4538 617.2186,324.5402 617.3088,313.6264 617.3984,302.7124 617.4876,291.7981 617.5762,280.8836 617.6643,269.9688 617.7519,259.0537 617.839,248.1382 617.9255,237.2224 618.0116,226.3061 618.0972,215.3895 618.1822,204.4724 618.2667,193.5548 618.3507,182.6367 618.4342,171.7181 618.5172,160.7989 618.5997,149.8792 618.6816,138.9588 618.7631,128.0379 618.844,117.1162 618.9245,106.1939 619.0044,95.2709 619.0838,84.3472 619.1627,73.4227" stroke="silver" stroke-opacity="0.5" stroke-width="1" /><polyline fill="none" points="508.0144,727.6402 508.0697,716.7195 508.1247,705.7995 508.1795,694.8802 508.234,683.9616 508.2882,673.0437 508.3422,662.1264 508.3959,651.2098 508.4494,640.2937 508.5026,629.3782 508.5555,618.4633 508.6081,607.5489 508.6605,596.635 508.7127,585.7215 508.7645,574.8085 508.8162,563.8959 508.8675,552.9837 508.9186,542.0718 508.9694,531.1603 509.02,520.2491 509.0702,509.3381 509.1203,498.4275 509.1701,487.517 509.2196,476.6068 509.2688,465.6967 509.3178,454.7868 509.3665,443.8771 509.415,432.9674 509.4632,422.0578 509.5111,411.1483 509.5588,400.2388 509.6062,389.3292 509.6534,378.4197 509.7003,367.5101 509.7469,356.6004 509.7933,345.6906 509.8394,334.7807 509.8853,323.8706 509.9309,312.9604 509.9762,302.0499 510.0213,291.1392 510.0661,280.2282 510.1107,269.317 510.155,258.4054 510.199,247.4935 510.2428,236.5813 510.2863,225.6686 510.3296,214.7555 510.3726,203.842 510.4153,192.928 510.4578,182.0135 510.5,171.0985 510.542,160.183 510.5837,149.2669 510.6251,138.3501 510.6663,127.4328 510.7072,116.5148 510.7479,105.5961 510.7883,94.6767 510.8285,83.7566 510.8684,72.8357" stroke="silver" stroke-opacity="0.5" stroke-width="1" /><polyline fill="none" points="402.5315,727.3663 402.5328,716.4466 402.5341,705.5278 402.5354,694.6097 402.5366,683.6922 402.5379,672.7755 402.5392,661.8594 402.5404,650.9439 402.5417,640.029 402.5429,629.1147 402.5442,618.2009 402.5454,607.2877 402.5466,596.3749 402.5479,585.4626 402.5491,574.5508 402.5503,563.6394 402.5515,552.7283 402.5527,541.8176 402.5539,530.9073 402.5551,519.9973 402.5562,509.0875 402.5574,498.1781 402.5586,487.2688 402.5597,476.3598 402.5609,465.4509 402.562,454.5422 402.5632,443.6336 402.5643,432.7252 402.5654,421.8168 402.5666,410.9084 402.5677,400.0001 402.5688,389.0918 402.5699,378.1835 402.571,367.2751 402.5721,356.3666 402.5732,345.458 402.5743,334.5493 402.5753,323.6405 402.5764,312.7314 402.5775,301.8222 402.5785,290.9127 402.5796,280.003 402.5806,269.093 402.5817,258.1826 402.5827,247.2719 402.5837,236.3609 402.5847,225.4495 402.5858,214.5376 402.5868,203.6253 402.5878,192.7126 402.5888,181.7993 402.5897,170.8856 402.5907,159.9713 402.5917,149.0564 402.5927,138.1409 402.5936,127.2248 402.5946,116.308 402.5956,105.3906 402.5965,94.4725 402.5974,83.5536 402.5984,72.634" stroke="silver" stroke-opacity="0.5" stroke-width="1" /><polyline fill="none" points="297.0491,727.6151 296.9964,716.6945 296.944,705.7746 296.8918,694.8554 296.8398,683.9369 296.7881,673.0191 296.7367,662.1019 296.6855,651.1854 296.6345,640.2695 296.5838,629.3541 296.5334,618.4393 296.4832,607.525 296.4333,596.6111 296.3836,585.6978 296.3341,574.7849 296.2849,563.8724 296.236,552.9603 296.1873,542.0485 296.1389,531.1371 296.0907,520.226 296.0428,509.3152 295.9951,498.4046 295.9476,487.4943 295.9005,476.5842 295.8535,465.6742 295.8068,454.7644 295.7604,443.8548 295.7142,432.9452 295.6683,422.0357 295.6226,411.1263 295.5771,400.2169 295.5319,389.3075 295.487,378.3981 295.4423,367.4886 295.3978,356.579 295.3536,345.6693 295.3097,334.7595 295.266,323.8496 295.2225,312.9394 295.1793,302.0291 295.1363,291.1185 295.0936,280.2076 295.0511,269.2965 295.0089,258.385 294.9669,247.4732 294.9252,236.5611 294.8837,225.6485 294.8425,214.7356 294.8015,203.8222 294.7608,192.9083 294.7203,181.9939 294.68,171.079 294.64,160.1636 294.6003,149.2476 294.5608,138.331 294.5215,127.4137 294.4825,116.4958 294.4438,105.5773 294.4052,94.658 294.367,83.738 294.3289,72.8173" stroke="silver" stroke-opacity="0.5" stroke-width="1" /><polyline fill="none" points="191.546,728.3871 191.4393,717.4632 191.333,706.54 191.2273,695.6176 191.1221,684.6959 191.0174,673.7748 190.9132,662.8544 190.8095,651.9345 190.7063,641.0153 190.6036,630.0967 190.5014,619.1785 190.3998,608.2609 190.2986,597.3438 190.198,586.4271 190.0978,575.5109 189.9982,564.5951 189.8991,553.6797 189.8005,542.7646 189.7024,531.8498 189.6048,520.9354 189.5077,510.0212 189.4111,499.1073 189.315,488.1936 189.2194,477.2802 189.1244,466.3669 189.0298,455.4537 188.9357,444.5407 188.8422,433.6277 188.7491,422.7149 188.6566,411.8021 188.5645,400.8893 188.473,389.9764 188.3819,379.0636 188.2914,368.1507 188.2014,357.2377 188.1118,346.3246 188.0228,335.4114 187.9343,324.498 187.8463,313.5844 187.7587,302.6707 187.6717,291.7566 187.5852,280.8423 187.4992,269.9277 187.4136,259.0128 187.3286,248.0976 187.2441,237.182 187.1601,226.266 187.0766,215.3495 186.9936,204.4326 186.911,193.5153 186.829,182.5974 186.7475,171.679 186.6665,160.7601 186.586,149.8406 186.506,138.9205 186.4265,127.9997 186.3474,117.0783 186.2689,106.1563 186.1909,95.2335 186.1134,84.31 186.0364,73.3857" stroke="silver" stroke-opacity="0.5" stroke-width="1" /><polyline fill="none" points="86.001,729.6828 85.8401,718.7535 85.68,707.8249 85.5206,696.897 85.362,685.9698 85.2042,675.0432 85.0472,664.1173 84.8909,653.192 84.7353,642.2672 84.5806,631.343 84.4266,620.4194 84.2734,609.4963 84.1209,598.5736 83.9693,587.6514 83.8183,576.7296 83.6682,565.8082 83.5188,554.8872 83.3702,543.9665 83.2223,533.0462 83.0752,522.1261 82.9289,511.2064 82.7833,500.2868 82.6385,489.3675 82.4944,478.4484 82.3511,467.5295 82.2086,456.6106 82.0668,445.6919 81.9258,434.7733 81.7856,423.8548 81.6461,412.9363 81.5073,402.0178 81.3694,391.0993 81.2322,380.1807 81.0957,369.2621 80.96,358.3434 80.8251,347.4246 80.6909,336.5056 80.5574,325.5865 80.4248,314.6672 80.2929,303.7476 80.1617,292.8278 80.0313,281.9077 79.9016,270.9873 79.7727,260.0666 79.6446,249.1456 79.5172,238.2242 79.3906,227.3023 79.2647,216.3801 79.1396,205.4573 79.0152,194.5341 78.8916,183.6104 78.7688,172.6862 78.6467,161.7614 78.5253,150.836 78.4047,139.91 78.2848,128.9834 78.1658,118.0561 78.0474,107.1281 77.9298,96.1994 77.813,85.27 77.6969,74.3398" stroke="silver" stroke-opacity="0.5" stroke-width="1" /><polyline fill="none" points="723.2896,729.822 719.0666,729.7582 708.5093,729.6025 697.9526,729.4521 687.3965,729.3069 676.841,729.1669 666.2861,729.0322 655.7317,728.9028 645.1778,728.7786 634.6244,728.6596 624.0715,728.5458 613.519,728.4373 602.9669,728.3341 592.4153,728.236 581.8641,728.1432 571.3132,728.0557 560.7626,727.9734 550.2124,727.8963 539.6625,727.8244 529.1129,727.7578 518.5635,727.6964 508.0144,727.6402 497.4655,727.5893 486.9167,727.5436 476.3682,727.5031 465.8198,727.4679 455.2715,727.4379 444.7234,727.4131 434.1753,727.3935 423.6274,727.3792 413.0794,727.3701 402.5315,727.3663 391.9836,727.3676 381.4357,727.3742 370.8877,727.386 360.3397,727.4031 349.7916,727.4253 339.2434,727.4528 328.695,727.4856 318.1466,727.5235 307.5979,727.5667 297.0491,727.6151 286.5001,727.6688 275.9508,727.7277 265.4013,727.7918 254.8516,727.8611 244.3015,727.9357 233.7511,728.0155 223.2004,728.1006 212.6493,728.1908 202.0979,728.2864 191.546,728.3871 180.9938,728.4931 170.4411,728.6043 159.8879,728.7208 149.3343,728.8425 138.7801,728.9694 128.2254,729.1016 117.6702,729.2391 107.1144,729.3817 96.558,729.5297 86.001,729.6828 76.7104,729.822" stroke="silver" stroke-opacity="0.5" stroke-width="1" /><polyline fill="none" points="724.5929,642.4016 720.3527,642.3401 709.7528,642.1896 699.1535,642.0443 688.5548,641.904 677.9567,641.7688 667.3591,641.6386 656.7621,641.5135 646.1657,641.3935 635.5697,641.2786 624.9742,641.1687 614.3792,641.0638 603.7846,640.9641 593.1904,640.8694 582.5966,640.7797 572.0032,640.6951 561.4102,640.6156 550.8174,640.5411 540.225,640.4717 529.6329,640.4073 519.041,640.348 508.4494,640.2937 497.858,640.2445 487.2668,640.2004 476.6757,640.1612 466.0849,640.1272 455.4941,640.0982 444.9035,640.0743 434.313,640.0554 423.7225,640.0415 413.1321,640.0327 402.5417,640.029 391.9513,640.0303 381.3609,640.0367 370.7705,640.0481 360.18,640.0646 349.5894,640.0861 338.9987,640.1127 328.4079,640.1443 317.817,640.181 307.2258,640.2227 296.6345,640.2695 286.043,640.3213 275.4512,640.3782 264.8592,640.4401 254.267,640.5071 243.6744,640.5792 233.0815,640.6563 222.4882,640.7385 211.8946,640.8257 201.3007,640.918 190.7063,641.0153 180.1115,641.1177 169.5162,641.2252 158.9205,641.3377 148.3242,641.4553 137.7275,641.578 127.1302,641.7057 116.5324,641.8385 105.934,641.9763 95.335,642.1192 84.7353,642.2672 75.4071,642.4016" stroke="silver" stroke-opacity="0.5" stroke-width="1" /><polyline fill="none" points="725.8455,555.0169 721.5889,554.9574 710.948,554.8124 700.3077,554.6722 689.6681,554.5368 679.029,554.4064 668.3905,554.2809 657.7526,554.1602 647.1152,554.0445 636.4783,553.9336 625.8419,553.8276 615.206,553.7265 604.5705,553.6302 593.9354,553.5389 583.3008,553.4524 572.6665,553.3708 562.0326,553.2941 551.399,553.2223 540.7657,553.1553 530.1327,553.0932 519.5,553.036 508.8675,552.9837 498.2352,552.9362 487.6032,552.8936 476.9713,552.8559 466.3396,552.823 455.7081,552.7951 445.0766,552.772 434.4452,552.7538 423.8139,552.7404 413.1827,552.7319 402.5515,552.7283 391.9203,552.7296 381.2891,552.7357 370.6578,552.7467 360.0265,552.7626 349.3951,552.7834 338.7635,552.809 328.1319,552.8395 317.5001,552.8749 306.8682,552.9151 296.236,552.9603 285.6036,553.0103 274.971,553.0651 264.3382,553.1249 253.705,553.1895 243.0716,553.259 232.4378,553.3334 221.8037,553.4126 211.1693,553.4968 200.5344,553.5858 189.8991,553.6797 179.2634,553.7784 168.6272,553.8821 157.9906,553.9906 147.3534,554.1041 136.7157,554.2224 126.0775,554.3456 115.4388,554.4736 104.7994,554.6066 94.1594,554.7444 83.5188,554.8872 74.1545,555.0169" stroke="silver" stroke-opacity="0.5" stroke-width="1" /><polyline fill="none" points="727.0478,467.6543 722.7755,467.5971 712.0952,467.4574 701.4156,467.3224 690.7366,467.1921 680.0583,467.0666 669.3805,466.9457 658.7033,466.8295 648.0266,466.7181 637.3504,466.6113 626.6748,466.5093 615.9996,466.4119 605.3248,466.3193 594.6505,466.2313 583.9766,466.1481 573.3031,466.0695 562.6299,465.9956 551.9571,465.9265 541.2846,465.862 530.6124,465.8022 519.9405,465.7471 509.2688,465.6967 498.5974,465.651 487.9261,465.61 477.2551,465.5737 466.5842,465.5421 455.9134,465.5152 445.2427,465.4929 434.5722,465.4754 423.9017,465.4626 413.2313,465.4544 402.5609,465.4509 391.8905,465.4521 381.2201,465.458 370.5496,465.4686 359.8791,465.4839 349.2085,465.5039 338.5378,465.5286 327.867,465.558 317.196,465.592 306.5249,465.6308 295.8535,465.6742 285.1819,465.7224 274.5101,465.7752 263.8381,465.8327 253.1657,465.8949 242.4931,465.9618 231.8201,466.0335 221.1467,466.1098 210.473,466.1908 199.7989,466.2765 189.1244,466.3669 178.4494,466.462 167.774,466.5618 157.098,466.6663 146.4216,466.7755 135.7447,466.8894 125.0671,467.008 114.3891,467.1313 103.7104,467.2593 93.0311,467.392 82.3511,467.5295 72.9522,467.6543" stroke="silver" stroke-opacity="0.5" stroke-width="1" /><polyline fill="none" points="728.1999,380.3007 723.9125,380.2457 713.1946,380.1115 702.4773,379.9818 691.7606,379.8566 681.0446,379.736 670.3291,379.6198 659.6143,379.5082 648.8999,379.4011 638.1862,379.2985 627.4729,379.2005 616.76,379.1069 606.0477,379.0179 595.3358,378.9334 584.6243,378.8534 573.9131,378.7779 563.2024,378.7069 552.492,378.6404 541.7819,378.5785 531.0721,378.521 520.3626,378.4681 509.6534,378.4197 498.9444,378.3758 488.2356,378.3364 477.5269,378.3015 466.8185,378.2711 456.1102,378.2452 445.402,378.2239 434.6939,378.207 423.9858,378.1947 413.2779,378.1868 402.5699,378.1835 391.862,378.1847 381.154,378.1903 370.446,378.2005 359.7379,378.2152 349.0298,378.2344 338.3215,378.2581 327.6131,378.2863 316.9046,378.3191 306.1959,378.3563 295.487,378.3981 284.7778,378.4443 274.0685,378.4951 263.3588,378.5503 252.6489,378.6101 241.9386,378.6744 231.2281,378.7432 220.5171,378.8166 209.8058,378.8944 199.0941,378.9767 188.3819,379.0636 177.6694,379.155 166.9563,379.2509 156.2427,379.3513 145.5287,379.4562 134.8141,379.5657 124.0989,379.6796 113.3831,379.7981 102.6668,379.9211 91.9498,380.0487 81.2322,380.1807 71.8001,380.3007" stroke="silver" stroke-opacity="0.5" stroke-width="1" /><polyline fill="none" points="729.3021,292.9428 725.0003,292.8901 714.2463,292.7614 703.4929,292.637 692.7402,292.517 681.9882,292.4013 671.2367,292.2899 660.4858,292.1829 649.7355,292.0802 638.9857,291.9819 628.2364,291.8878 617.4876,291.7981 606.7392,291.7128 595.9913,291.6317 585.2438,291.555 574.4968,291.4826 563.75,291.4146 553.0037,291.3509 542.2576,291.2915 531.5119,291.2364 520.7665,291.1856 510.0213,291.1392 499.2763,291.0971 488.5316,291.0593 477.787,291.0259 467.0426,290.9967 456.2984,290.9719 445.5543,290.9514 434.8103,290.9353 424.0663,290.9234 413.3224,290.9159 402.5785,290.9127 391.8347,290.9138 381.0908,290.9193 370.3469,290.9291 359.6029,290.9431 348.8588,290.9616 338.1146,290.9843 327.3703,291.0114 316.6258,291.0427 305.8812,291.0784 295.1363,291.1185 284.3913,291.1628 273.6459,291.2115 262.9003,291.2645 252.1545,291.3218 241.4083,291.3835 230.6617,291.4494 219.9148,291.5197 209.1675,291.5944 198.4198,291.6733 187.6717,291.7566 176.9231,291.8442 166.1741,291.9362 155.4245,292.0325 144.6744,292.1331 133.9238,292.238 123.1726,292.3473 112.4208,292.4609 101.6684,292.5789 90.9154,292.7012 80.1617,292.8278 70.6979,292.9428" stroke="silver" stroke-opacity="0.5" stroke-width="1" /><polyline fill="none" points="730.3545,205.5674 726.0389,205.517 715.2505,205.3938 704.4627,205.2749 693.6756,205.16 682.8891,205.0494 672.1032,204.9428 661.3179,204.8404 650.5332,204.7422 639.749,204.6481 628.9654,204.5582 618.1822,204.4724 607.3995,204.3907 596.6172,204.3132 585.8354,204.2398 575.054,204.1705 564.2729,204.1054 553.4922,204.0445 542.7119,203.9877 531.9318,203.935 521.1521,203.8864 510.3726,203.842 499.5933,203.8017 488.8142,203.7656 478.0354,203.7336 467.2567,203.7057 456.4781,203.682 445.6997,203.6624 434.9214,203.6469 424.1431,203.6356 413.3649,203.6284 402.5868,203.6253 391.8086,203.6264 381.0304,203.6316 370.2522,203.641 359.4739,203.6544 348.6955,203.6721 337.917,203.6938 327.1384,203.7197 316.3596,203.7497 305.5807,203.7839 294.8015,203.8222 284.0221,203.8646 273.2425,203.9111 262.4626,203.9619 251.6824,204.0167 240.9018,204.0757 230.121,204.1388 219.3397,204.206 208.5581,204.2774 197.776,204.353 186.9936,204.4326 176.2106,204.5165 165.4272,204.6044 154.6433,204.6965 143.8588,204.7928 133.0738,204.8932 122.2882,204.9977 111.502,205.1064 100.7152,205.2192 89.9277,205.3362 79.1396,205.4573 69.6455,205.5674" stroke="silver" stroke-opacity="0.5" stroke-width="1" /><polyline fill="none" points="731.3573,118.1611 727.0285,118.113 716.2073,117.9955 705.3867,117.882 694.5668,117.7724 683.7475,117.6668 672.9288,117.5652 662.1108,117.4675 651.2933,117.3737 640.4764,117.2839 629.6599,117.1981 618.844,117.1162 608.0286,117.0383 597.2136,116.9644 586.3991,116.8943 575.5849,116.8283 564.7711,116.7661 553.9577,116.708 543.1447,116.6538 532.3319,116.6035 521.5194,116.5572 510.7072,116.5148 499.8953,116.4763 489.0835,116.4419 478.272,116.4113 467.4606,116.3847 456.6494,116.3621 445.8383,116.3434 435.0273,116.3286 424.2163,116.3178 413.4055,116.311 402.5946,116.308 391.7838,116.3091 380.9729,116.314 370.162,116.323 359.351,116.3358 348.54,116.3526 337.7288,116.3734 326.9175,116.3981 316.106,116.4267 305.2944,116.4593 294.4825,116.4958 283.6704,116.5363 272.8581,116.5808 262.0455,116.6291 251.2326,116.6815 240.4193,116.7377 229.6057,116.798 218.7918,116.8621 207.9774,116.9302 197.1627,117.0023 186.3474,117.0783 175.5318,117.1583 164.7156,117.2423 153.8989,117.3301 143.0817,117.422 132.2639,117.5178 121.4455,117.6175 110.6266,117.7212 99.807,117.8289 88.9867,117.9405 78.1658,118.0561 68.6427,118.1611" stroke="silver" stroke-opacity="0.5" stroke-width="1" /><circle cx="723.6731" cy="385.572" fill="black" r="0.738" stroke="none" /><circle cx="720.034" cy="646.7937" fill="black" r="0.738" stroke="none" /><circle cx="722.8422" cy="242.8831" fill="black" r="0.738" stroke="none" /><circle cx="718.5695" cy="429.5379" fill="black" r="0.738" stroke="none" /><circle cx="707.0818" cy="589.2769" fill="black" r="0.738" stroke="none" /><circle cx="706.9694" cy="355.7507" fill="black" r="0.738" stroke="none" /><circle cx="700.2282" cy="284.5629" fill="black" r="0.738" stroke="none" /><circle cx="693.4867" cy="521.5608" fill="black" r="0.738" stroke="none" /><circle cx="684.8506" cy="717.5562" fill="black" r="0.738" stroke="none" /><circle cx="685.4362" cy="653.5751" fill="black" r="0.936" stroke="none" /><circle cx="687.3462" cy="121.4602" fill="black" r="0.738" stroke="none" /><circle cx="683.6781" cy="246.0329" fill="black" r="0.738" stroke="none" /><circle cx="680.6192" cy="513.9792" fill="black" r="0.738" stroke="none" /><circle cx="677.843" cy="697.444" fill="black" r="0.738" stroke="none" /><circle cx="678.8727" cy="73.9984" fill="black" r="0.738" stroke="none" /><circle cx="675.3036" cy="363.5156" fill="black" r="0.738" stroke="none" /><circle cx="672.2725" cy="240.5011" fill="black" r="0.738" stroke="none" /><circle cx="649.7722" cy="704.0937" fill="black" r="0.738" stroke="none" /><circle cx="650.0109" cy="600.6351" fill="black" r="0.738" stroke="none" /><circle cx="646.0994" cy="340.6016" fill="black" r="0.738" stroke="none" /><circle cx="638.1954" cy="476.2253" fill="black" r="0.738" stroke="none" /><circle cx="631.8574" cy="726.881" fill="black" r="0.738" stroke="none" /><circle cx="633.2286" cy="387.1112" fill="black" r="0.738" stroke="none" /><circle cx="632.9756" cy="167.9013" fill="black" r="0.738" stroke="none" /><circle cx="626.2607" cy="664.51" fill="black" r="0.738" stroke="none" /><circle cx="623.0465" cy="613.4563" fill="black" r="0.738" stroke="none" /><circle cx="603.2205" cy="173.6152" fill="black" r="0.738" stroke="none" /><circle cx="591.6926" cy="267.4147" fill="black" r="0.738" stroke="none" /><circle cx="587.807" cy="675.7667" fill="black" r="0.936" stroke="none" /><circle cx="585.6315" cy="642.7266" fill="black" r="0.738" stroke="none" /><circle cx="580.8081" cy="713.2783" fill="black" r="0.936" stroke="none" /><circle cx="583.4783" cy="195.3164" fill="black" r="0.738" stroke="none" /><circle cx="580.2051" cy="546.7047" fill="black" r="0.738" stroke="none" /><circle cx="577.4658" cy="603.706" fill="black" r="0.738" stroke="none" /><circle cx="574.3032" cy="550.6763" fill="black" r="0.738" stroke="none" /><circle cx="571.1511" cy="368.9821" fill="black" r="0.738" stroke="none" /><circle cx="564.852" cy="251.697" fill="black" r="0.738" stroke="none" /><circle cx="547.6662" cy="680.6995" fill="black" r="0.738" stroke="none" /><circle cx="546.6726" cy="664.882" fill="black" r="1.17" stroke="none" /><circle cx="541.7178" cy="591.8402" fill="black" r="0.738" stroke="none" /><circle cx="541.5032" cy="204.2435" fill="black" r="0.738" stroke="none" /><circle cx="531.1543" cy="567.9409" fill="black" r="0.738" stroke="none" /><circle cx="526.4699" cy="373.61" fill="black" r="0.738" stroke="none" /><circle cx="526.7811" cy="179.3745" fill="black" r="0.738" stroke="none" /><circle cx="526.3364" cy="182.3415" fill="black" r="0.738" stroke="none" /><circle cx="520.4406" cy="552.0805" fill="black" r="0.738" stroke="none" /><circle cx="516.4158" cy="360.9065" fill="black" r="0.738" stroke="none" /><circle cx="514.6796" cy="287.3181" fill="black" r="0.738" stroke="none" /><circle cx="513.0442" cy="138.6214" fill="black" r="0.738" stroke="none" /><circle cx="513.0799" cy="106.7404" fill="black" r="0.738" stroke="none" /><circle cx="502.6344" cy="99.7144" fill="black" r="0.738" stroke="none" /><circle cx="493.3802" cy="152.3503" fill="black" r="1.17" stroke="none" /><circle cx="488.3304" cy="495.0247" fill="black" r="0.738" stroke="none" /><circle cx="487.3893" cy="541.8939" fill="black" r="0.738" stroke="none" /><circle cx="486.2745" cy="677.138" fill="black" r="0.738" stroke="none" /><circle cx="481.2248" cy="478.2419" fill="black" r="0.738" stroke="none" /><circle cx="466.5799" cy="403.7535" fill="black" r="0.738" stroke="none" /><circle cx="466.1708" cy="428.8865" fill="black" r="0.738" stroke="none" /><circle cx="453.5771" cy="696.3355" fill="black" r="0.738" stroke="none" /><circle cx="453.4245" cy="509.7585" fill="black" r="0.738" stroke="none" /><circle cx="449.919" cy="346.1169" fill="black" r="0.738" stroke="none" /><circle cx="447.9041" cy="623.6652" fill="black" r="0.738" stroke="none" /><circle cx="446.2642" cy="120.5363" fill="black" r="0.738" stroke="none" /><circle cx="443.4445" cy="155.8125" fill="black" r="0.738" stroke="none" /><circle cx="442.2795" cy="184.3626" fill="black" r="0.738" stroke="none" /><circle cx="420.5477" cy="283.9383" fill="black" r="0.738" stroke="none" /><circle cx="415.7945" cy="176.2158" fill="black" r="0.738" stroke="none" /><circle cx="414.8608" cy="452.9758" fill="black" r="0.738" stroke="none" /><circle cx="414.7112" cy="417.3704" fill="black" r="0.738" stroke="none" /><circle cx="414.4546" cy="417.4575" fill="black" r="0.738" stroke="none" /><circle cx="408.7791" cy="719.5057" fill="black" r="0.738" stroke="none" /><circle cx="400.8547" cy="433.8595" fill="black" r="0.738" stroke="none" /><circle cx="389.1019" cy="527.593" fill="black" r="0.738" stroke="none" /><circle cx="386.1131" cy="360.8209" fill="black" r="0.738" stroke="none" /><circle cx="380.5856" cy="183.6393" fill="black" r="0.738" stroke="none" /><circle cx="378.9385" cy="491.9907" fill="black" r="0.738" stroke="none" /><circle cx="378.6406" cy="630.5218" fill="black" r="0.738" stroke="none" /><circle cx="377.1271" cy="377.4082" fill="black" r="0.738" stroke="none" /><circle cx="373.2094" cy="477.6836" fill="black" r="0.738" stroke="none" /><circle cx="370.2988" cy="667.2937" fill="black" r="0.738" stroke="none" /><circle cx="364.3605" cy="248.6916" fill="black" r="0.738" stroke="none" /><circle cx="359.0053" cy="646.2664" fill="black" r="0.936" stroke="none" /><circle cx="354.9238" cy="319.3154" fill="black" r="0.738" stroke="none" /><circle cx="354.8281" cy="674.394" fill="black" r="0.738" stroke="none" /><circle cx="353.4293" cy="90.3156" fill="black" r="0.738" stroke="none" /><circle cx="352.9062" cy="564.5602" fill="black" r="0.738" stroke="none" /><circle cx="351.6779" cy="131.1943" fill="black" r="0.738" stroke="none" /><circle cx="347.0482" cy="530.5305" fill="black" r="1.17" stroke="none" /><circle cx="343.8998" cy="458.5338" fill="black" r="0.738" stroke="none" /><circle cx="337.4885" cy="553.0743" fill="black" r="0.738" stroke="none" /><circle cx="333.0921" cy="619.9594" fill="black" r="0.738" stroke="none" /><circle cx="330.124" cy="564.7053" fill="black" r="0.738" stroke="none" /><circle cx="328.3398" cy="299.9114" fill="black" r="0.936" stroke="none" /><circle cx="320.0528" cy="167.8535" fill="black" r="0.738" stroke="none" /><circle cx="315.6419" cy="135.5552" fill="black" r="0.738" stroke="none" /><circle cx="315.7562" cy="260.3206" fill="black" r="0.738" stroke="none" /><circle cx="313.5469" cy="373.4429" fill="black" r="0.738" stroke="none" /><circle cx="309.2099" cy="498.438" fill="black" r="0.738" stroke="none" /><circle cx="298.7885" cy="389.9052" fill="black" r="0.738" stroke="none" /><circle cx="298.4891" cy="542.9986" fill="black" r="0.738" stroke="none" /><circle cx="294.6479" cy="138.5053" fill="black" r="0.738" stroke="none" /><circle cx="292.2936" cy="432.6981" fill="black" r="0.738" stroke="none" /><circle cx="280.8158" cy="137.8597" fill="black" r="0.738" stroke="none" /><circle cx="280.8181" cy="597.8229" fill="black" r="0.738" stroke="none" /><circle cx="276.4173" cy="471.4389" fill="black" r="0.738" stroke="none" /><circle cx="276.0638" cy="673.9129" fill="black" r="0.738" stroke="none" /><circle cx="274.1763" cy="639.6867" fill="black" r="0.738" stroke="none" /><circle cx="266.7157" cy="445.5664" fill="black" r="0.738" stroke="none" /><circle cx="262.8836" cy="401.5087" fill="black" r="0.738" stroke="none" /><circle cx="253.5746" cy="345.61" fill="black" r="0.738" stroke="none" /><circle cx="252.1854" cy="296.9086" fill="black" r="1.17" stroke="none" /><circle cx="248.7986" cy="164.4723" fill="black" r="1.17" stroke="none" /><circle cx="248.1541" cy="711.8303" fill="black" r="0.738" stroke="none" /><circle cx="246.9078" cy="617.7623" fill="black" r="0.738" stroke="none" /><circle cx="242.3476" cy="333.4548" fill="black" r="0.738" stroke="none" /><circle cx="239.0111" cy="580.8786" fill="black" r="0.738" stroke="none" /><circle cx="234.8487" cy="496.7416" fill="black" r="0.738" stroke="none" /><circle cx="231.7258" cy="169.2835" fill="black" r="0.738" stroke="none" /><circle cx="219.1052" cy="556.4897" fill="black" r="0.738" stroke="none" /><circle cx="214.541" cy="221.9651" fill="black" r="0.738" stroke="none" /><circle cx="213.3201" cy="127.2053" fill="black" r="0.738" stroke="none" /><circle cx="212.7986" cy="85.4438" fill="black" r="0.738" stroke="none" /><circle cx="212.7153" cy="85.9686" fill="black" r="0.738" stroke="none" /><circle cx="213.6097" cy="452.0235" fill="black" r="1.17" stroke="none" /><circle cx="207.5701" cy="185.856" fill="black" r="0.738" stroke="none" /><circle cx="208.9272" cy="443.242" fill="black" r="0.738" stroke="none" /><circle cx="206.4242" cy="654.9371" fill="black" r="0.738" stroke="none" /><circle cx="203.5037" cy="327.7817" fill="black" r="0.738" stroke="none" /><circle cx="191.5773" cy="696.8376" fill="black" r="0.738" stroke="none" /><circle cx="185.273" cy="531.8026" fill="black" r="0.738" stroke="none" /><circle cx="179.5047" cy="383.2427" fill="black" r="0.738" stroke="none" /><circle cx="177.8066" cy="525.8466" fill="black" r="0.738" stroke="none" /><circle cx="173.1854" cy="149.418" fill="black" r="1.17" stroke="none" /><circle cx="173.2557" cy="715.3757" fill="black" r="0.936" stroke="none" /><circle cx="168.8904" cy="717.9572" fill="black" r="0.738" stroke="none" /><circle cx="153.3426" cy="308.6447" fill="black" r="0.738" stroke="none" /><circle cx="152.1235" cy="514.2252" fill="black" r="0.738" stroke="none" /><circle cx="148.4239" cy="154.952" fill="black" r="0.738" stroke="none" /><circle cx="150.5501" cy="452.8474" fill="black" r="0.738" stroke="none" /><circle cx="143.8008" cy="235.9793" fill="black" r="0.738" stroke="none" /><circle cx="130.0336" cy="586.7977" fill="black" r="0.738" stroke="none" /><circle cx="121.6194" cy="89.8181" fill="black" r="0.738" stroke="none" /><circle cx="126.6257" cy="593.2162" fill="black" r="0.738" stroke="none" /><circle cx="114.1371" cy="460.2338" fill="black" r="0.738" stroke="none" /><circle cx="108.8733" cy="405.0924" fill="black" r="0.738" stroke="none" /><circle cx="106.2243" cy="361.1873" fill="black" r="0.738" stroke="none" /><circle cx="103.2834" cy="211.396" fill="black" r="0.738" stroke="none" /><circle cx="106.793" cy="718.2811" fill="black" r="0.936" stroke="none" /><circle cx="90.1019" cy="478.8737" fill="black" r="0.738" stroke="none" /><circle cx="88.3347" cy="698.4301" fill="black" r="0.738" stroke="none" /><circle cx="79.8342" cy="279.8131" fill="black" r="0.738" stroke="none" /><circle cx="76.8701" cy="614.4958" fill="black" r="0.738" stroke="none" /><circle cx="13.77" cy="786.23" fill="black" r="4.59" stroke="none" /><circle cx="13.77" cy="786.23" fill="black" r="4.59" stroke="none" /><text fill="black" font-family="monospace" font-size="12" x="10.77" y="775.64">1</text><circle cx="37.77" cy="786.23" fill="black" r="3.654" stroke="none" /><circle cx="37.77" cy="786.23" fill="black" r="3.654" stroke="none" /><text fill="black" font-family="monospace" font-size="12" x="34.769999999999996" y="775.64">2</text><circle cx="61.77" cy="786.23" fill="black" r="2.916" stroke="none" /><circle cx="61.77" cy="786.23" fill="black" r="2.916" stroke="none" /><text fill="black" font-family="monospace" font-size="12" x="58.769999999999996" y="775.64">3</text><circle cx="85.77" cy="786.23" fill="black" r="2.322" stroke="none" /><circle cx="85.77" cy="786.23" fill="black" r="2.322" stroke="none" /><text fill="black" font-family="monospace" font-size="12" x="82.77" y="775.64">4</text><circle cx="109.77" cy="786.23" fill="black" r="1.854" stroke="none" /><circle cx="109.77" cy="786.23" fill="black" r="1.854" stroke="none" /><text fill="black" font-family="monospace" font-size="12" x="106.77" y="775.64">5</text><circle cx="133.77" cy="786.23" fill="black" r="1.476" stroke="none" /><circle cx="133.77" cy="786.23" fill="black" r="1.476" stroke="none" /><text fill="black" font-family="monospace" font-size="12" x="130.77" y="775.64">6</text><circle cx="157.77" cy="786.23" fill="black" r="1.17" stroke="none" /><circle cx="157.77" cy="786.23" fill="black" r="1.17" stroke="none" /><text fill="black" font-family="monospace" font-size="12" x="154.77" y="775.64">7</text><circle cx="181.77" cy="786.23" fill="black" r="0.936" stroke="none" /><circle cx="181.77" cy="786.23" fill="black" r="0.936" stroke="none" /><text fill="black" font-family="monospace" font-size="12" x="178.77" y="775.64">8</text><circle cx="205.77" cy="786.23" fill="black" r="0.738" stroke="none" /><circle cx="205.77" cy="786.23" fill="black" r="0.738" stroke="none" /><text fill="black" font-family="monospace" font-size="12" x="202.77" y="775.64">9</text><text fill="gray" fill-opacity="0.5" font-family="monospace" font-size="12" x="727.5049859419914" y="74.39528882547387">15h50m</text><text fill="gray" fill-opacity="0.5" font-family="monospace" font-size="12" x="619.1626719519448" y="73.42265910491335">15h55m</text><text fill="gray" fill-opacity="0.5" font-family="monospace" font-size="12" x="510.8683819166914" y="72.83574399498116">16h00m</text><text fill="gray" fill-opacity="0.5" font-family="monospace" font-size="12" x="402.5983782957099" y="72.63400673991003">16h05m</text><text fill="gray" fill-opacity="0.5" font-family="monospace" font-size="12" x="294.32894380467195" y="72.81726290638255">16h10m</text><text fill="gray" fill-opacity="0.5" font-family="monospace" font-size="12" x="186.0363616338482" y="73.38568003049625">16h15m</text><text fill="gray" fill-opacity="0.5" font-family="monospace" font-size="12" x="77.69689566736758" y="74.33977793845173">16h20m</text><text fill="gray" fill-opacity="0.5" font-family="monospace" font-size="12" x="76.71035069797495" y="729.8219665440616">-15°</text><text fill="gray" fill-opacity="0.5" font-family="monospace" font-size="12" x="75.40714312416856" y="642.4016498613714">-14°</text><text fill="gray" fill-opacity="0.5" font-family="monospace" font-size="12" x="74.15451755678691" y="555.0168519113298">-13°</text><text fill="gray" fill-opacity="0.5" font-family="monospace" font-size="12" x="72.95223276131458" y="467.65429096855854">-12°</text><text fill="gray" fill-opacity="0.5" font-family="monospace" font-size="12" x="71.80007815861342" y="380.30069879479095">-11°</text><text fill="gray" fill-opacity="0.5" font-family="monospace" font-size="12" x="70.69787367159438" y="292.9428125892501">-10°</text><text fill="gray" fill-opacity="0.5" font-family="monospace" font-size="12" x="69.64546961131464" y="205.56736694601938">-9°</text><text fill="gray" fill-opacity="0.5" font-family="monospace" font-size="12" x="68.64274660234406" y="118.16108580806116">-8°</text><text fill="black" font-family="monospace" font-size="12" x="12" y="48">&gt;&gt; No.345 15h50m 16h20m -15.0°-7.5°</text><a target="_self" xlink:href="hip020.svg"><text fill="black" font-family="monospace" font-size="12" x="12" y="36">&gt; No.20 16h00m 18h40m -22.5°+0.0°</text></a><a target="_self" xlink:href="hip001.svg"><text fill="black" font-family="monospace" font-size="12" x="12" y="24">No.1 00h 24h -90.0°+0.0°</text></a><polyline fill="none" points="731.84,74.4422 727.505,74.3953 716.6679,74.2806 705.8315,74.1699 694.9958,74.063 684.1608,73.9599 673.3263,73.8607 662.4925,73.7654 651.6592,73.6739 640.8265,73.5863 629.9944,73.5026 619.1627,73.4227 608.3315,73.3466 597.5007,73.2744 586.6704,73.2061 575.8405,73.1416 565.011,73.081 554.1819,73.0243 543.353,72.9714 532.5245,72.9223 521.6963,72.8771 510.8684,72.8357 500.0407,72.7982 489.2132,72.7646 478.3859,72.7348 467.5588,72.7088 456.7318,72.6867 445.905,72.6685 435.0782,72.6541 424.2516,72.6436 413.425,72.6369 402.5984,72.634 391.7718,72.635 380.9452,72.6399 370.1186,72.6486 359.2919,72.6611 348.4651,72.6775 337.6382,72.6978 326.8111,72.7219 315.9839,72.7498 305.1565,72.7816 294.3289,72.8173 283.5011,72.8568 272.673,72.9001 261.8447,72.9473 251.016,72.9984 240.187,73.0533 229.3577,73.1121 218.528,73.1747 207.6979,73.2412 196.8673,73.3115 186.0364,73.3857 175.2049,73.4637 164.373,73.5456 153.5405,73.6314 142.7075,73.721 131.874,73.8145 121.0398,73.9118 110.2051,74.013 99.3697,74.1181 88.5336,74.227 77.6969,74.3398 68.16,74.4422" stroke="black" stroke-opacity="0.5" stroke-width="1" /><polyline fill="none" points="723.2896,729.822 723.4553,718.892 723.6202,707.9628 723.7843,697.0343 723.9476,686.1065 724.1101,675.1794 724.2718,664.2529 724.4327,653.327 724.5929,642.4016 724.7522,631.4769 724.9107,620.5526 725.0685,609.6289 725.2255,598.7056 725.3817,587.7828 725.5371,576.8604 725.6917,565.9385 725.8455,555.0169 725.9985,544.0956 726.1508,533.1746 726.3022,522.254 726.4529,511.3336 726.6028,500.4135 726.7519,489.4936 726.9002,478.5738 727.0478,467.6543 727.1945,456.7349 727.3405,445.8156 727.4857,434.8964 727.6301,423.9772 727.7737,413.0581 727.9166,402.139 728.0586,391.2199 728.1999,380.3007 728.3404,369.3815 728.4801,358.4621 728.6191,347.5427 728.7573,336.6231 728.8946,325.7034 729.0312,314.7834 729.1671,303.8632 729.3021,292.9428 729.4364,282.0221 729.5699,271.1011 729.7026,260.1798 729.8345,249.2581 729.9657,238.3361 730.0961,227.4136 730.2257,216.4907 730.3545,205.5674 730.4826,194.6435 730.6099,183.7192 730.7364,172.7943 730.8621,161.8689 730.987,150.9429 731.1112,140.0163 731.2346,129.089 731.3573,118.1611 731.4791,107.2325 731.6002,96.3031 731.7205,85.3731 731.84,74.4422" stroke="black" stroke-opacity="0.5" stroke-width="1" /><polyline fill="none" points="723.2896,729.822 719.0666,729.7582 708.5093,729.6025 697.9526,729.4521 687.3965,729.3069 676.841,729.1669 666.2861,729.0322 655.7317,728.9028 645.1778,728.7786 634.6244,728.6596 624.0715,728.5458 613.519,728.4373 602.9669,728.3341 592.4153,728.236 581.8641,728.1432 571.3132,728.0557 560.7626,727.9734 550.2124,727.8963 539.6625,727.8244 529.1129,727.7578 518.5635,727.6964 508.0144,727.6402 497.4655,727.5893 486.9167,727.5436 476.3682,727.5031 465.8198,727.4679 455.2715,727.4379 444.7234,727.4131 434.1753,727.3935 423.6274,727.3792 413.0794,727.3701 402.5315,727.3663 391.9836,727.3676 381.4357,727.3742 370.8877,727.386 360.3397,727.4031 349.7916,727.4253 339.2434,727.4528 328.695,727.4856 318.1466,727.5235 307.5979,727.5667 297.0491,727.6151 286.5001,727.6688 275.9508,727.7277 265.4013,727.7918 254.8516,727.8611 244.3015,727.9357 233.7511,728.0155 223.2004,728.1006 212.6493,728.1908 202.0979,728.2864 191.546,728.3871 180.9938,728.4931 170.4411,728.6043 159.8879,728.7208 149.3343,728.8425 138.7801,728.9694 128.2254,729.1016 117.6702,729.2391 107.1144,729.3817 96.558,729.5297 86.001,729.6828 76.7104,729.822" stroke="black" stroke-opacity="0.5" stroke-width="1" /><polyline fill="none" points="76.7104,729.822 76.5447,718.892 76.3798,707.9628 76.2157,697.0343 76.0524,686.1065 75.8899,675.1794 75.7282,664.2529 75.5673,653.327 75.4071,642.4016 75.2478,631.4769 75.0893,620.5526 74.9315,609.6289 74.7745,598.7056 74.6183,587.7828 74.4629,576.8604 74.3083,565.9385 74.1545,555.0169 74.0015,544.0956 73.8492,533.1746 73.6978,522.254 73.5471,511.3336 73.3972,500.4135 73.2481,489.4936 73.0998,478.5738 72.9522,467.6543 72.8055,456.7349 72.6595,445.8156 72.5143,434.8964 72.3699,423.9772 72.2263,413.0581 72.0834,402.139 71.9414,391.2199 71.8001,380.3007 71.6596,369.3815 71.5199,358.4621 71.3809,347.5427 71.2427,336.6231 71.1054,325.7034 70.9688,314.7834 70.8329,303.8632 70.6979,292.9428 70.5636,282.0221 70.4301,271.1011 70.2974,260.1798 70.1655,249.2581 70.0343,238.3361 69.9039,227.4136 69.7743,216.4907 69.6455,205.5674 69.5174,194.6435 69.3901,183.7192 69.2636,172.7943 69.1379,161.8689 69.013,150.9429 68.8888,140.0163 68.7654,129.089 68.6427,118.1611 68.5209,107.2325 68.3998,96.3031 68.2795,85.3731 68.16,74.4422" stroke="black" stroke-opacity="0.5" stroke-width="1" /></svg>