<?xml version="1.0" encoding="utf-8" ?>
<svg baseProfile="tiny" height="800" version="1.2" width="800" xmlns="http://www.w3.org/2000/svg" xmlns:ev="http://www.w3.org/2001/xml-events" xmlns:xlink="http://www.w3.org/1999/xlink"><defs /><rect fill="none" height="800" stroke="black" stroke-width="2" width="800" x="0" y="0" /><polyline fill="none" points="633.7801,728.6503 633.8999,717.7253 634.019,706.801 634.1376,695.8775 634.2557,684.9546 634.3731,674.0324 634.49,663.1109 634.6063,652.1899 634.722,641.2696 634.8372,630.3498 634.9518,619.4306 635.0658,608.5118 635.1793,597.5936 635.2922,586.6758 635.4045,575.7584 635.5162,564.8415 635.6274,553.9249 635.738,543.0087 635.848,532.0928 635.9575,521.1773 636.0664,510.2619 636.1747,499.3469 636.2825,488.4321 636.3897,477.5174 636.4963,466.603 636.6024,455.6887 636.7079,444.7745 636.8129,433.8604 636.9172,422.9464 637.021,412.0324 637.1243,401.1185 637.227,390.2045 637.3291,379.2905 637.4306,368.3764 637.5316,357.4623 637.632,346.548 637.7319,335.6337 637.8312,324.7191 637.9299,313.8044 638.0281,302.8894 638.1257,291.9742 638.2227,281.0587 638.3192,270.143 638.4151,259.2269 638.5105,248.3104 638.6053,237.3936 638.6995,226.4764 638.7932,215.5588 638.8863,204.6408 638.9789,193.7222 639.0709,182.8032 639.1623,171.8836 639.2532,160.9635 639.3435,150.0428 639.4332,139.1215 639.5224,128.1995 639.611,117.2769 639.6991,106.3537 639.7866,95.4297 639.8736,84.5049 639.9599,73.5795" stroke="silver" stroke-opacity="0.5" stroke-width="1" /><polyline fill="none" points="528.2689,727.7527 528.3346,716.8314 528.4,705.911 528.465,694.9912 528.5297,684.0721 528.5942,673.1537 528.6583,662.236 528.722,651.3189 528.7855,640.4024 528.8487,629.4864 528.9115,618.571 528.9741,607.6561 529.0363,596.7417 529.0982,585.8277 529.1598,574.9142 529.2211,564.0011 529.2821,553.0884 529.3427,542.1761 529.4031,531.2641 529.4631,520.3524 529.5228,509.441 529.5823,498.5298 529.6414,487.6189 529.7002,476.7082 529.7587,465.7976 529.8168,454.8872 529.8747,443.977 529.9322,433.0668 529.9895,422.1567 530.0464,411.2467 530.103,400.3367 530.1594,389.4267 530.2154,378.5166 530.2711,367.6065 530.3264,356.6964 530.3815,345.7861 530.4363,334.8757 530.4907,323.9651 530.5449,313.0543 530.5987,302.1434 530.6523,291.2322 530.7055,280.3207 530.7584,269.409 530.811,258.4969 530.8633,247.5845 530.9153,236.6717 530.967,225.7585 531.0184,214.845 531.0694,203.9309 531.1202,193.0164 531.1707,182.1014 531.2208,171.1859 531.2706,160.2699 531.3202,149.3532 531.3694,138.436 531.4183,127.5181 531.4669,116.5996 531.5152,105.6804 531.5632,94.7605 531.6109,83.8399 531.6583,72.9185" stroke="silver" stroke-opacity="0.5" stroke-width="1" /><polyline fill="none" points="422.7835,727.3783 422.7952,716.4586 422.8068,705.5397 422.8183,694.6215 422.8298,683.7041 422.8413,672.7873 422.8527,661.8711 422.864,650.9556 422.8753,640.0406 422.8865,629.1263 422.8976,618.2125 422.9087,607.2992 422.9198,596.3864 422.9308,585.474 422.9417,574.5621 422.9526,563.6506 422.9634,552.7395 422.9742,541.8288 422.9849,530.9184 422.9956,520.0084 423.0062,509.0986 423.0168,498.189 423.0273,487.2797 423.0377,476.3706 423.0481,465.4617 423.0584,454.553 423.0687,443.6443 423.0789,432.7358 423.0891,421.8274 423.0992,410.919 423.1092,400.0106 423.1192,389.1023 423.1292,378.1939 423.1391,367.2854 423.1489,356.3769 423.1587,345.4683 423.1684,334.5595 423.1781,323.6506 423.1877,312.7415 423.1973,301.8322 423.2068,290.9227 423.2162,280.0129 423.2256,269.1028 423.235,258.1924 423.2443,247.2817 423.2535,236.3706 423.2627,225.4591 423.2718,214.5472 423.2809,203.6349 423.2899,192.7221 423.2988,181.8088 423.3078,170.8949 423.3166,159.9806 423.3254,149.0656 423.3341,138.1501 423.3428,127.2339 423.3515,116.3171 423.36,105.3996 423.3686,94.4815 423.377,83.5625 423.3854,72.6429" stroke="silver" stroke-opacity="0.5" stroke-width="1" /><polyline fill="none" points="317.3027,727.5268 317.2604,716.6065 317.2182,705.687 317.1763,694.7682 317.1346,683.8501 317.093,672.9326 317.0517,662.0158 317.0106,651.0997 316.9697,640.1841 316.9289,629.2691 316.8884,618.3547 316.8481,607.4407 316.808,596.5273 316.7681,585.6143 316.7284,574.7018 316.6889,563.7897 316.6496,552.8779 316.6105,541.9666 316.5716,531.0555 316.5329,520.1448 316.4943,509.2344 316.456,498.3242 316.4179,487.4143 316.38,476.5045 316.3423,465.595 316.3048,454.6856 316.2675,443.7763 316.2304,432.8671 316.1935,421.958 316.1568,411.049 316.1203,400.14 316.084,389.2309 316.0479,378.3219 316.012,367.4128 315.9763,356.5036 315.9408,345.5943 315.9055,334.6849 315.8704,323.7753 315.8355,312.8656 315.8008,301.9556 315.7663,291.0454 315.7319,280.135 315.6978,269.2242 315.6639,258.3132 315.6302,247.4018 315.5967,236.49 315.5634,225.5779 315.5303,214.6653 315.4973,203.7523 315.4646,192.8388 315.4321,181.9248 315.3998,171.0104 315.3676,160.0953 315.3357,149.1797 315.304,138.2635 315.2724,127.3467 315.2411,116.4292 315.21,105.511 315.179,94.5922 315.1483,83.6726 315.1177,72.7522" stroke="silver" stroke-opacity="0.5" stroke-width="1" /><polyline fill="none" points="211.8052,728.1983 211.7089,717.2752 211.6129,706.3528 211.5175,695.4312 211.4225,684.5102 211.328,673.59 211.2339,662.6703 211.1403,651.7513 211.0471,640.8329 210.9545,629.915 210.8622,618.9977 210.7705,608.0809 210.6791,597.1646 210.5883,586.2487 210.4979,575.3333 210.408,564.4183 210.3185,553.5037 210.2295,542.5894 210.1409,531.6755 210.0528,520.7619 209.9651,509.8485 209.8779,498.9355 209.7912,488.0226 209.7049,477.1099 209.6191,466.1974 209.5337,455.2851 209.4488,444.3729 209.3644,433.4608 209.2804,422.5488 209.1968,411.6368 209.1137,400.7248 209.0311,389.8128 208.9489,378.9008 208.8672,367.9888 208.7859,357.0766 208.705,346.1644 208.6247,335.252 208.5448,324.3394 208.4653,313.4267 208.3863,302.5137 208.3077,291.6005 208.2296,280.6871 208.152,269.7733 208.0748,258.8593 207.998,247.9449 207.9217,237.0301 207.8459,226.1149 207.7705,215.1994 207.6955,204.2833 207.6211,193.3668 207.547,182.4498 207.4734,171.5323 207.4003,160.6142 207.3276,149.6956 207.2554,138.7763 207.1836,127.8564 207.1123,116.9359 207.0414,106.0146 206.971,95.0927 206.901,84.1701 206.8314,73.2466" stroke="silver" stroke-opacity="0.5" stroke-width="1" /><polyline fill="none" points="106.2699,729.3934 106.1194,718.4652 105.9696,707.5379 105.8206,696.6112 105.6722,685.6852 105.5246,674.7598 105.3777,663.8351 105.2315,652.9111 105.0861,641.9876 104.9413,631.0646 104.7973,620.1422 104.654,609.2203 104.5114,598.2989 104.3695,587.3779 104.2284,576.4573 104.0879,565.5372 103.9482,554.6174 103.8092,543.698 103.6709,532.7789 103.5333,521.8601 103.3964,510.9416 103.2603,500.0233 103.1248,489.1053 102.9901,478.1874 102.8561,467.2697 102.7227,456.3522 102.5901,445.4348 102.4583,434.5174 102.3271,423.6001 102.1966,412.6829 102.0668,401.7657 101.9378,390.8485 101.8094,379.9312 101.6818,369.0138 101.5549,358.0964 101.4287,347.1789 101.3032,336.2612 101.1784,325.3433 101.0543,314.4253 100.9309,303.507 100.8082,292.5885 100.6862,281.6697 100.565,270.7506 100.4444,259.8312 100.3246,248.9115 100.2054,237.9913 100.087,227.0708 99.9692,216.1498 99.8522,205.2284 99.7359,194.3065 99.6203,183.3841 99.5054,172.4612 99.3912,161.5377 99.2776,150.6136 99.1648,139.689 99.0527,128.7636 98.9414,117.8377 98.8307,106.911 98.7207,95.9836 98.6114,85.0555 98.5028,74.1266" stroke="silver" stroke-opacity="0.5" stroke-width="1" /><polyline fill="none" points="723.2896,729.822 718.2219,729.7456 707.6647,729.5903 697.1081,729.4403 686.552,729.2955 675.9966,729.156 665.4417,729.0217 654.8873,728.8926 644.3335,728.7688 633.7801,728.6503 623.2272,728.537 612.6748,728.4289 602.1228,728.326 591.5712,728.2284 581.02,728.136 570.4691,728.0489 559.9186,727.967 549.3684,727.8903 538.8185,727.8189 528.2689,727.7527 517.7196,727.6917 507.1705,727.636 496.6216,727.5855 486.0729,727.5402 475.5243,727.5001 464.9759,727.4653 454.4277,727.4357 443.8796,727.4113 433.3315,727.3922 422.7835,727.3783 412.2356,727.3696 401.6877,727.3662 391.1398,727.3679 380.5918,727.375 370.0439,727.3872 359.4958,727.4047 348.9477,727.4273 338.3995,727.4553 327.8512,727.4884 317.3027,727.5268 306.754,727.5704 296.2052,727.6192 285.6562,727.6733 275.1069,727.7326 264.5574,727.7971 254.0076,727.8669 243.4575,727.9419 232.9071,728.0221 222.3563,728.1076 211.8052,728.1983 201.2538,728.2942 190.7019,728.3954 180.1496,728.5018 169.5968,728.6134 159.0436,728.7303 148.49,728.8525 137.9358,728.9798 127.381,729.1124 116.8258,729.2503 106.2699,729.3934 95.7135,729.5417 85.1564,729.6953 76.7104,729.822" stroke="silver" stroke-opacity="0.5" stroke-width="1" /><polyline fill="none" points="724.5929,642.4016 719.5047,642.3278 708.9048,642.1778 698.3055,642.0329 687.7069,641.893 677.1088,641.7582 666.5113,641.6284 655.9144,641.5038 645.318,641.3841 634.722,641.2696 624.1266,641.1601 613.5316,641.0557 602.937,640.9563 592.3429,640.862 581.7491,640.7727 571.1558,640.6886 560.5627,640.6094 549.97,640.5353 539.3776,640.4663 528.7855,640.4024 518.1937,640.3434 507.6021,640.2896 497.0107,640.2408 486.4195,640.197 475.8285,640.1583 465.2376,640.1247 454.6469,640.0961 444.0563,640.0726 433.4657,640.0541 422.8753,640.0406 412.2848,640.0323 401.6945,640.0289 391.1041,640.0306 380.5137,640.0374 369.9232,640.0492 359.3327,640.0661 348.7421,640.088 338.1514,640.115 327.5606,640.147 316.9697,640.1841 306.3785,640.2262 295.7872,640.2734 285.1957,640.3257 274.6039,640.383 264.0119,640.4453 253.4196,640.5127 242.827,640.5852 232.234,640.6627 221.6408,640.7453 211.0471,640.8329 200.4531,640.9256 189.8587,641.0233 179.2639,641.1261 168.6686,641.234 158.0728,641.3469 147.4765,641.4649 136.8797,641.588 126.2824,641.7161 115.6845,641.8493 105.0861,641.9876 94.487,642.1309 83.8874,642.2793 75.4071,642.4016" stroke="silver" stroke-opacity="0.5" stroke-width="1" /><polyline fill="none" points="725.8455,555.0169 720.7376,554.9457 710.0968,554.801 699.4565,554.6611 688.8169,554.5262 678.1779,554.3962 667.5395,554.271 656.9016,554.1508 646.2642,554.0354 635.6274,553.9249 624.991,553.8193 614.3551,553.7186 603.7197,553.6227 593.0846,553.5318 582.45,553.4457 571.8158,553.3645 561.1819,553.2882 550.5483,553.2167 539.915,553.1501 529.2821,553.0884 518.6494,553.0316 508.0169,552.9797 497.3847,552.9326 486.7526,552.8904 476.1208,552.8531 465.4891,552.8206 454.8575,552.793 444.2261,552.7703 433.5947,552.7525 422.9634,552.7395 412.3322,552.7315 401.701,552.7282 391.0698,552.7299 380.4386,552.7364 369.8073,552.7478 359.176,552.7641 348.5445,552.7853 337.913,552.8113 327.2814,552.8422 316.6496,552.8779 306.0176,552.9186 295.3854,552.9641 284.753,553.0145 274.1204,553.0697 263.4875,553.1299 252.8544,553.1949 242.2209,553.2648 231.5871,553.3395 220.953,553.4192 210.3185,553.5037 199.6836,553.5931 189.0483,553.6874 178.4125,553.7866 167.7763,553.8906 157.1396,553.9995 146.5024,554.1133 135.8647,554.232 125.2265,554.3556 114.5876,554.4841 103.9482,554.6174 93.3082,554.7557 82.6675,554.8988 74.1545,555.0169" stroke="silver" stroke-opacity="0.5" stroke-width="1" /><polyline fill="none" points="727.0478,467.6543 721.921,467.5857 711.2408,467.4464 700.5613,467.3118 689.8823,467.1819 679.204,467.0567 668.5263,466.9362 657.8491,466.8205 647.1725,466.7094 636.4963,466.603 625.8207,466.5013 615.1456,466.4043 604.4709,466.3121 593.7966,466.2245 583.1227,466.1416 572.4492,466.0634 561.7761,465.9899 551.1033,465.9211 540.4308,465.857 529.7587,465.7976 519.0867,465.7429 508.4151,465.6929 497.7436,465.6476 487.0724,465.607 476.4014,465.571 465.7305,465.5398 455.0597,465.5132 444.3891,465.4914 433.7186,465.4742 423.0481,465.4617 412.3777,465.4539 401.7073,465.4508 391.0369,465.4524 380.3665,465.4587 369.696,465.4697 359.0255,465.4854 348.3549,465.5057 337.6842,465.5308 327.0133,465.5605 316.3423,465.595 305.6712,465.6341 294.9998,465.6779 284.3282,465.7264 273.6564,465.7796 262.9843,465.8375 252.3119,465.9001 241.6392,465.9674 230.9662,466.0394 220.2928,466.1161 209.6191,466.1974 198.945,466.2835 188.2704,466.3743 177.5954,466.4698 166.9199,466.5699 156.2439,466.6748 145.5675,466.7844 134.8905,466.8987 124.2129,467.0177 113.5348,467.1413 102.8561,467.2697 92.1767,467.4028 81.4967,467.5407 72.9522,467.6543" stroke="silver" stroke-opacity="0.5" stroke-width="1" /><polyline fill="none" points="728.1999,380.3007 723.0551,380.2348 712.3372,380.101 701.6199,379.9716 690.9033,379.8468 680.1873,379.7265 669.4719,379.6107 658.7571,379.4995 648.0428,379.3927 637.3291,379.2905 626.6158,379.1928 615.903,379.0996 605.1907,379.0109 594.4788,378.9268 583.7674,378.8472 573.0563,378.772 562.3456,378.7014 551.6352,378.6353 540.9251,378.5737 530.2154,378.5166 519.5059,378.4641 508.7967,378.416 498.0877,378.3725 487.3789,378.3334 476.6703,378.2989 465.9618,378.2689 455.2535,378.2434 444.5453,378.2224 433.8372,378.2059 423.1292,378.1939 412.4212,378.1864 401.7133,378.1834 391.0053,378.1849 380.2974,378.191 369.5894,378.2015 358.8813,378.2166 348.1731,378.2361 337.4649,378.2602 326.7565,378.2888 316.0479,378.3219 305.3392,378.3595 294.6303,378.4016 283.9211,378.4482 273.2117,378.4993 262.502,378.555 251.7921,378.6151 241.0818,378.6798 230.3712,378.7489 219.6602,378.8226 208.9489,378.9008 198.2371,378.9835 187.525,379.0708 176.8123,379.1625 166.0992,379.2587 155.3856,379.3595 144.6715,379.4648 133.9569,379.5746 123.2417,379.689 112.5259,379.8078 101.8094,379.9312 91.0924,380.0591 80.3747,380.1915 71.8001,380.3007" stroke="silver" stroke-opacity="0.5" stroke-width="1" /><polyline fill="none" points="729.3021,292.9428 724.14,292.8797 713.386,292.7513 702.6327,292.6273 691.8801,292.5076 681.128,292.3922 670.3766,292.2812 659.6257,292.1745 648.8755,292.0722 638.1257,291.9742 627.3764,291.8805 616.6277,291.7912 605.8794,291.7061 595.1315,291.6254 584.3841,291.5491 573.637,291.477 562.8903,291.4093 552.144,291.346 541.398,291.2869 530.6523,291.2322 519.9068,291.1818 509.1617,291.1357 498.4167,291.0939 487.672,291.0565 476.9275,291.0234 466.1831,290.9946 455.4389,290.9701 444.6948,290.95 433.9507,290.9342 423.2068,290.9227 412.4629,290.9155 401.719,290.9127 390.9752,290.9141 380.2313,290.9199 369.4873,290.93 358.7433,290.9445 347.9993,290.9632 337.2551,290.9863 326.5107,291.0137 315.7663,291.0454 305.0216,291.0815 294.2767,291.1219 283.5316,291.1665 272.7863,291.2156 262.0407,291.2689 251.2948,291.3266 240.5485,291.3886 229.802,291.4549 219.055,291.5256 208.3077,291.6005 197.56,291.6798 186.8118,291.7635 176.0632,291.8514 165.3141,291.9437 154.5645,292.0404 143.8144,292.1413 133.0637,292.2466 122.3125,292.3562 111.5607,292.4702 100.8082,292.5885 90.0551,292.7111 79.3014,292.8381 70.6979,292.9428" stroke="silver" stroke-opacity="0.5" stroke-width="1" /><polyline fill="none" points="730.3545,205.5674 725.1758,205.507 714.3874,205.3842 703.5997,205.2655 692.8126,205.151 682.0262,205.0407 671.2404,204.9345 660.4551,204.8324 649.6705,204.7345 638.8863,204.6408 628.1027,204.5511 617.3196,204.4657 606.5369,204.3843 595.7547,204.3071 584.9729,204.2341 574.1915,204.1652 563.4105,204.1004 552.6298,204.0398 541.8495,203.9833 531.0694,203.9309 520.2897,203.8827 509.5102,203.8386 498.731,203.7987 487.9519,203.7629 477.1731,203.7312 466.3944,203.7037 455.6159,203.6803 444.8374,203.661 434.0591,203.6459 423.2809,203.6349 412.5027,203.628 401.7245,203.6253 390.9463,203.6267 380.1682,203.6322 369.3899,203.6419 358.6116,203.6557 347.8333,203.6736 337.0548,203.6957 326.2761,203.7219 315.4973,203.7523 304.7184,203.7868 293.9392,203.8254 283.1598,203.8682 272.3801,203.9151 261.6002,203.9661 250.8199,204.0213 240.0394,204.0806 229.2585,204.144 218.4772,204.2116 207.6955,204.2833 196.9135,204.3592 186.1309,204.4392 175.348,204.5233 164.5645,204.6116 153.7805,204.7041 142.996,204.8006 132.211,204.9014 121.4253,205.0062 110.6391,205.1153 99.8522,205.2284 89.0647,205.3457 78.2765,205.4672 69.6455,205.5674" stroke="silver" stroke-opacity="0.5" stroke-width="1" /><polyline fill="none" points="731.3573,118.1611 726.1628,118.1034 715.3416,117.9863 704.5211,117.8731 693.7012,117.7638 682.882,117.6585 672.0634,117.5572 661.2454,117.4598 650.4279,117.3664 639.611,117.2769 628.7947,117.1914 617.9788,117.1099 607.1634,117.0323 596.3484,116.9586 585.5339,116.8889 574.7198,116.8231 563.9061,116.7613 553.0927,116.7035 542.2796,116.6496 531.4669,116.5996 520.6545,116.5536 509.8423,116.5116 499.0303,116.4734 488.2186,116.4393 477.4071,116.4091 466.5957,116.3828 455.7845,116.3604 444.9734,116.3421 434.1624,116.3276 423.3515,116.3171 412.5406,116.3106 401.7297,116.308 390.9189,116.3093 380.108,116.3146 369.2971,116.3238 358.4861,116.337 347.6751,116.3541 336.8639,116.3752 326.0526,116.4002 315.2411,116.4292 304.4294,116.4621 293.6176,116.4989 282.8055,116.5397 271.9931,116.5845 261.1805,116.6332 250.3675,116.6858 239.5543,116.7424 228.7406,116.8029 217.9266,116.8674 207.1123,116.9359 196.2975,117.0083 185.4822,117.0846 174.6665,117.1649 163.8503,117.2491 153.0335,117.3373 142.2163,117.4295 131.3984,117.5256 120.58,117.6257 109.761,117.7297 98.9414,117.8377 88.121,117.9496 77.3,118.0655 68.6427,118.1611" stroke="silver" stroke-opacity="0.5" stroke-width="1" /><circle cx="706.7523" cy="698.8844" fill="black" r="0.738" stroke="none" /><circle cx="707.6462" cy="158.2032" fill="black" r="0.738" stroke="none" /><circle cx="699.3102" cy="723.0001" fill="black" r="0.738" stroke="none" /><circle cx="699.2735" cy="719.5893" fill="black" r="0.738" stroke="none" /><circle cx="703.2537" cy="283.3738" fill="black" r="0.738" stroke="none" /><circle cx="695.2851" cy="652.3061" fill="black" r="0.738" stroke="none" /><circle cx="700.5032" cy="155.0689" fill="black" r="0.738" stroke="none" /><circle cx="694.4918" cy="516.1569" fill="black" r="0.738" stroke="none" /><circle cx="693.3137" cy="279.4196" fill="black" r="0.738" stroke="none" /><circle cx="686.6642" cy="383.2051" fill="black" r="0.738" stroke="none" /><circle cx="678.2326" cy="556.9303" fill="black" r="0.738" stroke="none" /><circle cx="678.1444" cy="557.1914" fill="black" r="0.738" stroke="none" /><circle cx="677.5405" cy="394.3704" fill="black" r="0.738" stroke="none" /><circle cx="672.9647" cy="668.2749" fill="black" r="1.476" stroke="none" /><circle cx="673.825" cy="576.8838" fill="black" r="0.738" stroke="none" /><circle cx="669.4835" cy="234.8828" fill="black" r="0.738" stroke="none" /><circle cx="663.752" cy="137.146" fill="black" r="0.738" stroke="none" /><circle cx="660.0399" cy="477.586" fill="black" r="1.17" stroke="none" /><circle cx="658.0933" cy="584.4763" fill="black" r="0.738" stroke="none" /><circle cx="648.6089" cy="672.7915" fill="black" r="1.17" stroke="none" /><circle cx="642.1988" cy="693.4317" fill="black" r="0.738" stroke="none" /><circle cx="643.2948" cy="418.2926" fill="black" r="0.738" stroke="none" /><circle cx="642.1232" cy="352.7023" fill="black" r="0.738" stroke="none" /><circle cx="630.7641" cy="555.1861" fill="black" r="0.738" stroke="none" /><circle cx="628.2217" cy="221.6718" fill="black" r="0.738" stroke="none" /><circle cx="619.5017" cy="297.8398" fill="black" r="0.738" stroke="none" /><circle cx="608.0714" cy="635.7624" fill="black" r="0.738" stroke="none" /><circle cx="601.0279" cy="701.0493" fill="black" r="0.738" stroke="none" /><circle cx="599.8548" cy="507.8337" fill="black" r="0.936" stroke="none" /><circle cx="594.6765" cy="430.6986" fill="black" r="0.738" stroke="none" /><circle cx="588.1374" cy="480.1487" fill="black" r="0.738" stroke="none" /><circle cx="579.5658" cy="574.2055" fill="black" r="0.738" stroke="none" /><circle cx="581.4591" cy="187.2685" fill="black" r="0.738" stroke="none" /><circle cx="567.9984" cy="258.0899" fill="black" r="0.738" stroke="none" /><circle cx="561.7885" cy="186.1016" fill="black" r="0.936" stroke="none" /><circle cx="556.8602" cy="350.9086" fill="black" r="0.738" stroke="none" /><circle cx="555.2918" cy="491.6995" fill="black" r="0.738" stroke="none" /><circle cx="551.1402" cy="679.8497" fill="black" r="0.738" stroke="none" /><circle cx="550.962" cy="160.7156" fill="black" r="1.17" stroke="none" /><circle cx="511.846" cy="721.1946" fill="black" r="0.738" stroke="none" /><circle cx="512.2824" cy="567.9284" fill="black" r="0.738" stroke="none" /><circle cx="511.5943" cy="461.256" fill="black" r="0.738" stroke="none" /><circle cx="505.7303" cy="550.7867" fill="black" r="0.738" stroke="none" /><circle cx="505.2499" cy="427.3635" fill="black" r="0.738" stroke="none" /><circle cx="504.8731" cy="310.4958" fill="black" r="0.738" stroke="none" /><circle cx="504.0072" cy="245.5488" fill="black" r="0.738" stroke="none" /><circle cx="490.889" cy="603.6289" fill="black" r="0.738" stroke="none" /><circle cx="486.5432" cy="694.608" fill="black" r="0.738" stroke="none" /><circle cx="465.5483" cy="372.5079" fill="black" r="0.738" stroke="none" /><circle cx="465.0243" cy="342.485" fill="black" r="0.738" stroke="none" /><circle cx="461.2952" cy="247.9514" fill="black" r="0.738" stroke="none" /><circle cx="453.9124" cy="443.8672" fill="black" r="0.738" stroke="none" /><circle cx="454.3692" cy="86.0484" fill="black" r="0.738" stroke="none" /><circle cx="438.0245" cy="204.4367" fill="black" r="0.738" stroke="none" /><circle cx="434.6693" cy="126.5464" fill="black" r="0.738" stroke="none" /><circle cx="432.3468" cy="708.9586" fill="black" r="0.738" stroke="none" /><circle cx="429.6165" cy="469.2215" fill="black" r="0.738" stroke="none" /><circle cx="429.171" cy="619.9659" fill="black" r="0.936" stroke="none" /><circle cx="427.2555" cy="443.3868" fill="black" r="0.738" stroke="none" /><circle cx="415.3567" cy="608.1658" fill="black" r="0.738" stroke="none" /><circle cx="407.4886" cy="251.6372" fill="black" r="0.738" stroke="none" /><circle cx="396.6588" cy="375.5656" fill="black" r="0.738" stroke="none" /><circle cx="389.1809" cy="691.4679" fill="black" r="0.738" stroke="none" /><circle cx="387.6349" cy="316.2251" fill="black" r="0.738" stroke="none" /><circle cx="387.1289" cy="151.3295" fill="black" r="0.738" stroke="none" /><circle cx="386.9369" cy="460.829" fill="black" r="0.738" stroke="none" /><circle cx="384.6765" cy="530.563" fill="black" r="0.738" stroke="none" /><circle cx="373.0078" cy="107.2369" fill="black" r="0.738" stroke="none" /><circle cx="372.5603" cy="90.9036" fill="black" r="0.738" stroke="none" /><circle cx="371.7924" cy="576.4012" fill="black" r="0.738" stroke="none" /><circle cx="367.8204" cy="333.6091" fill="black" r="0.738" stroke="none" /><circle cx="363.9848" cy="85.9335" fill="black" r="0.738" stroke="none" /><circle cx="363.4879" cy="173.6154" fill="black" r="0.738" stroke="none" /><circle cx="344.6705" cy="260.5082" fill="black" r="0.738" stroke="none" /><circle cx="337.5333" cy="505.9403" fill="black" r="0.738" stroke="none" /><circle cx="336.0347" cy="388.649" fill="black" r="0.738" stroke="none" /><circle cx="334.3336" cy="722.4877" fill="black" r="0.738" stroke="none" /><circle cx="321.7288" cy="272.3484" fill="black" r="0.738" stroke="none" /><circle cx="304.095" cy="411.616" fill="black" r="0.738" stroke="none" /><circle cx="298.7758" cy="107.2219" fill="black" r="0.738" stroke="none" /><circle cx="296.6583" cy="716.6087" fill="black" r="0.738" stroke="none" /><circle cx="292.6998" cy="305.0939" fill="black" r="0.738" stroke="none" /><circle cx="286.7686" cy="382.9739" fill="black" r="0.738" stroke="none" /><circle cx="275.9509" cy="513.1653" fill="black" r="0.738" stroke="none" /><circle cx="272.6003" cy="156.6719" fill="black" r="0.738" stroke="none" /><circle cx="266.6053" cy="240.525" fill="black" r="0.738" stroke="none" /><circle cx="258.68" cy="614.716" fill="black" r="0.738" stroke="none" /><circle cx="258.9723" cy="660.7397" fill="black" r="0.936" stroke="none" /><circle cx="254.6863" cy="434.3746" fill="black" r="0.738" stroke="none" /><circle cx="249.4931" cy="661.2393" fill="black" r="0.738" stroke="none" /><circle cx="238.139" cy="233.2562" fill="black" r="0.738" stroke="none" /><circle cx="241.1228" cy="709.0852" fill="black" r="0.738" stroke="none" /><circle cx="229.3966" cy="533.0118" fill="black" r="0.738" stroke="none" /><circle cx="222.1381" cy="97.7077" fill="black" r="0.738" stroke="none" /><circle cx="220.9837" cy="322.4182" fill="black" r="0.738" stroke="none" /><circle cx="219.7781" cy="218.6996" fill="black" r="0.738" stroke="none" /><circle cx="220.019" cy="711.1741" fill="black" r="0.738" stroke="none" /><circle cx="216.7367" cy="377.4467" fill="black" r="0.738" stroke="none" /><circle cx="211.9097" cy="314.5369" fill="black" r="1.17" stroke="none" /><circle cx="209.1755" cy="101.37" fill="black" r="0.738" stroke="none" /><circle cx="211.5251" cy="513.0666" fill="black" r="1.476" stroke="none" /><circle cx="203.3258" cy="405.1346" fill="black" r="0.738" stroke="none" /><circle cx="200.5759" cy="173.1517" fill="black" r="0.738" stroke="none" /><circle cx="196.3312" cy="597.6382" fill="black" r="0.738" stroke="none" /><circle cx="191.0812" cy="76.1474" fill="black" r="0.738" stroke="none" /><circle cx="186.564" cy="397.2392" fill="black" r="0.738" stroke="none" /><circle cx="185.1607" cy="224.098" fill="black" r="0.738" stroke="none" /><circle cx="184.7508" cy="375.3397" fill="black" r="0.738" stroke="none" /><circle cx="182.4175" cy="280.0978" fill="black" r="0.738" stroke="none" /><circle cx="182.0594" cy="561.5247" fill="black" r="0.738" stroke="none" /><circle cx="177.1462" cy="348.5122" fill="black" r="0.738" stroke="none" /><circle cx="170.504" cy="373.4557" fill="black" r="0.738" stroke="none" /><circle cx="150.8516" cy="195.4698" fill="black" r="0.738" stroke="none" /><circle cx="146.4416" cy="135.7452" fill="black" r="0.738" stroke="none" /><circle cx="146.8259" cy="505.1108" fill="black" r="0.738" stroke="none" /><circle cx="142.038" cy="175.3669" fill="black" r="0.936" stroke="none" /><circle cx="126.8733" cy="437.4668" fill="black" r="0.738" stroke="none" /><circle cx="129.4776" cy="674.0131" fill="black" r="0.936" stroke="none" /><circle cx="128.0723" cy="690.2883" fill="black" r="0.936" stroke="none" /><circle cx="123.0693" cy="347.8118" fill="black" r="0.738" stroke="none" /><circle cx="118.2446" cy="616.2118" fill="black" r="0.738" stroke="none" /><circle cx="114.4538" cy="305.5418" fill="black" r="0.738" stroke="none" /><circle cx="114.4837" cy="724.6473" fill="black" r="0.738" stroke="none" /><circle cx="111.7008" cy="548.2295" fill="black" r="0.738" stroke="none" /><circle cx="106.9835" cy="440.9271" fill="black" r="0.738" stroke="none" /><circle cx="99.5305" cy="166.6054" fill="black" r="0.738" stroke="none" /><circle cx="90.2247" cy="277.5946" fill="black" r="0.738" stroke="none" /><circle cx="84.8317" cy="243.0562" fill="black" r="0.738" stroke="none" /><circle cx="85.4771" cy="634.7393" fill="black" r="0.738" stroke="none" /><circle cx="80.3978" cy="611.7359" fill="black" r="0.738" stroke="none" /><circle cx="75.7964" cy="329.7513" fill="black" r="0.738" stroke="none" /><circle cx="76.9854" cy="703.2315" fill="black" r="0.738" stroke="none" /><circle cx="68.6424" cy="94.7264" fill="black" r="0.738" stroke="none" /><circle cx="13.77" cy="786.23" fill="black" r="4.59" stroke="none" /><circle cx="13.77" cy="786.23" fill="black" r="4.59" stroke="none" /><text fill="black" font-family="monospace" font-size="12" x="10.77" y="775.64">1</text><circle cx="37.77" cy="786.23" fill="black" r="3.654" stroke="none" /><circle cx="37.77" cy="786.23" fill="black" r="3.654" stroke="none" /><text fill="black" font-family="monospace" font-size="12" x="34.769999999999996" y="775.64">2</text><circle cx="61.77" cy="786.23" fill="black" r="2.916" stroke="none" /><circle cx="61.77" cy="786.23" fill="black" r="2.916" stroke="none" /><text fill="black" font-family="monospace" font-size="12" x="58.769999999999996" y="775.64">3</text><circle cx="85.77" cy="786.23" fill="black" r="2.322" stroke="none" /><circle cx="85.77" cy="786.23" fill="black" r="2.322" stroke="none" /><text fill="black" font-family="monospace" font-size="12" x="82.77" y="775.64">4</text><circle cx="109.77" cy="786.23" fill="black" r="1.854" stroke="none" /><circle cx="109.77" cy="786.23" fill="black" r="1.854" stroke="none" /><text fill="black" font-family="monospace" font-size="12" x="106.77" y="775.64">5</text><circle cx="133.77" cy="786.23" fill="black" r="1.476" stroke="none" /><circle cx="133.77" cy="786.23" fill="black" r="1.476" stroke="none" /><text fill="black" font-family="monospace" font-size="12" x="130.77" y="775.64">6</text><circle cx="157.77" cy="786.23" fill="black" r="1.17" stroke="none" /><circle cx="157.77" cy="786.23" fill="black" r="1.17" stroke="none" /><text fill="black" font-family="monospace" font-size="12" x="154.77" y="775.64">7</text><circle cx="181.77" cy="786.23" fill="black" r="0.936" stroke="none" /><circle cx="181.77" cy="786.23" fill="black" r="0.936" stroke="none" /><text fill="black" font-family="monospace" font-size="12" x="178.77" y="775.64">8</text><circle cx="205.77" cy="786.23" fill="black" r="0.738" stroke="none" /><circle cx="205.77" cy="786.23" fill="black" r="0.738" stroke="none" /><text fill="black" font-family="monospace" font-size="12" x="202.77" y="775.64">9</text><text fill="gray" fill-opacity="0.5" font-family="monospace" font-size="12" x="639.9599389609576" y="73.579462397888">04h40m</text><text fill="gray" fill-opacity="0.5" font-family="monospace" font-size="12" x="531.6582705585847" y="72.91854258971955">04h45m</text><text fill="gray" fill-opacity="0.5" font-family="monospace" font-size="12" x="423.3854439969929" y="72.64287634230715">04h50m</text><text fill="gray" fill-opacity="0.5" font-family="monospace" font-size="12" x="315.1177396376556" y="72.75221162457717">04h55m</text><text fill="gray" fill-opacity="0.5" font-family="monospace" font-size="12" x="206.83144211364717" y="73.24664839039008">05h00m</text><text fill="gray" fill-opacity="0.5" font-family="monospace" font-size="12" x="98.50282055126826" y="74.12663876985982">05h05m</text><text fill="gray" fill-opacity="0.5" font-family="monospace" font-size="12" x="76.71035069797705" y="729.8219665440616">-15°</text><text fill="gray" fill-opacity="0.5" font-family="monospace" font-size="12" x="75.40714312417072" y="642.4016498613714">-14°</text><text fill="gray" fill-opacity="0.5" font-family="monospace" font-size="12" x="74.15451755678907" y="555.0168519113298">-13°</text><text fill="gray" fill-opacity="0.5" font-family="monospace" font-size="12" x="72.9522327613168" y="467.65429096855854">-12°</text><text fill="gray" fill-opacity="0.5" font-family="monospace" font-size="12" x="71.80007815861558" y="380.30069879479095">-11°</text><text fill="gray" fill-opacity="0.5" font-family="monospace" font-size="12" x="70.6978736715966" y="292.9428125892501">-10°</text><text fill="gray" fill-opacity="0.5" font-family="monospace" font-size="12" x="69.6454696113168" y="205.56736694601938">-9°</text><text fill="gray" fill-opacity="0.5" font-family="monospace" font-size="12" x="68.64274660234628" y="118.16108580806116">-8°</text><text fill="black" font-family="monospace" font-size="12" x="12" y="48">&gt;&gt; No.323 04h36m 05h06m -15.0°-7.5°</text><a target="_self" xlink:href="hip015.svg"><text fill="black" font-family="monospace" font-size="12" x="12" y="36">&gt; No.15 02h40m 05h20m -22.5°+0.0°</text></a><a target="_self" xlink:href="hip001.svg"><text fill="black" font-family="monospace" font-size="12" x="12" y="24">No.1 00h 24h -90.0°+0.0°</text></a><polyline fill="none" points="731.84,74.4422 726.638,74.386 715.801,74.2716 704.9647,74.1612 694.129,74.0546 683.294,73.9518 672.4596,73.8529 661.6258,73.7579 650.7926,73.6668 639.9599,73.5795 629.1278,73.496 618.2962,73.4164 607.465,73.3407 596.6343,73.2688 585.804,73.2008 574.9741,73.1367 564.1447,73.0763 553.3155,73.0199 542.4867,72.9673 531.6583,72.9185 520.8301,72.8736 510.0022,72.8326 499.1745,72.7954 488.347,72.7621 477.5197,72.7326 466.6926,72.7069 455.8657,72.6851 445.0388,72.6672 434.2121,72.6531 423.3854,72.6429 412.5588,72.6365 401.7323,72.6339 390.9057,72.6353 380.0791,72.6404 369.2524,72.6494 358.4257,72.6623 347.5989,72.679 336.772,72.6995 325.945,72.724 315.1177,72.7522 304.2903,72.7843 293.4627,72.8203 282.6349,72.8601 271.8068,72.9038 260.9784,72.9513 250.1497,73.0026 239.3207,73.0579 228.4913,73.1169 217.6616,73.1799 206.8314,73.2466 196.0009,73.3173 185.1699,73.3918 174.3384,73.4701 163.5064,73.5523 152.6739,73.6384 141.8409,73.7283 131.0073,73.8221 120.1731,73.9198 109.3383,74.0213 98.5028,74.1266 87.6667,74.2359 76.8299,74.349 68.16,74.4422" stroke="black" stroke-opacity="0.5" stroke-width="1" /><polyline fill="none" points="723.2896,729.822 723.4553,718.892 723.6202,707.9628 723.7843,697.0343 723.9476,686.1065 724.1101,675.1794 724.2718,664.2529 724.4327,653.327 724.5929,642.4016 724.7522,631.4769 724.9107,620.5526 725.0685,609.6289 725.2255,598.7056 725.3817,587.7828 725.5371,576.8604 725.6917,565.9385 725.8455,555.0169 725.9985,544.0956 726.1508,533.1746 726.3022,522.254 726.4529,511.3336 726.6028,500.4135 726.7519,489.4936 726.9002,478.5738 727.0478,467.6543 727.1945,456.7349 727.3405,445.8156 727.4857,434.8964 727.6301,423.9772 727.7737,413.0581 727.9166,402.139 728.0586,391.2199 728.1999,380.3007 728.3404,369.3815 728.4801,358.4621 728.6191,347.5427 728.7573,336.6231 728.8946,325.7034 729.0312,314.7834 729.1671,303.8632 729.3021,292.9428 729.4364,282.0221 729.5699,271.1011 729.7026,260.1798 729.8345,249.2581 729.9657,238.3361 730.0961,227.4136 730.2257,216.4907 730.3545,205.5674 730.4826,194.6435 730.6099,183.7192 730.7364,172.7943 730.8621,161.8689 730.987,150.9429 731.1112,140.0163 731.2346,129.089 731.3573,118.1611 731.4791,107.2325 731.6002,96.3031 731.7205,85.3731 731.84,74.4422" stroke="black" stroke-opacity="0.5" stroke-width="1" /><polyline fill="none" points="723.2896,729.822 718.2219,729.7456 707.6647,729.5903 697.1081,729.4403 686.552,729.2955 675.9966,729.156 665.4417,729.0217 654.8873,728.8926 644.3335,728.7688 633.7801,728.6503 623.2272,728.537 612.6748,728.4289 602.1228,728.326 591.5712,728.2284 581.02,728.136 570.4691,728.0489 559.9186,727.967 549.3684,727.8903 538.8185,727.8189 528.2689,727.7527 517.7196,727.6917 507.1705,727.636 496.6216,727.5855 486.0729,727.5402 475.5243,727.5001 464.9759,727.4653 454.4277,727.4357 443.8796,727.4113 433.3315,727.3922 422.7835,727.3783 412.2356,727.3696 401.6877,727.3662 391.1398,727.3679 380.5918,727.375 370.0439,727.3872 359.4958,727.4047 348.9477,727.4273 338.3995,727.4553 327.8512,727.4884 317.3027,727.5268 306.754,727.5704 296.2052,727.6192 285.6562,727.6733 275.1069,727.7326 264.5574,727.7971 254.0076,727.8669 243.4575,727.9419 232.9071,728.0221 222.3563,728.1076 211.8052,728.1983 201.2538,728.2942 190.7019,728.3954 180.1496,728.5018 169.5968,728.6134 159.0436,728.7303 148.49,728.8525 137.9358,728.9798 127.381,729.1124 116.8258,729.2503 106.2699,729.3934 95.7135,729.5417 85.1564,729.6953 76.7104,729.822" stroke="black" stroke-opacity="0.5" stroke-width="1" /><polyline fill="none" points="76.7104,729.822 76.5447,718.892 76.3798,707.9628 76.2157,697.0343 76.0524,686.1065 75.8899,675.1794 75.7282,664.2529 75.5673,653.327 75.4071,642.4016 75.2478,631.4769 75.0893,620.5526 74.9315,609.6289 74.7745,598.7056 74.6183,587.7828 74.4629,576.8604 74.3083,565.9385 74.1545,555.0169 74.0015,544.0956 73.8492,533.1746 73.6978,522.254 73.5471,511.3336 73.3972,500.4135 73.2481,489.4936 73.0998,478.5738 72.9522,467.6543 72.8055,456.7349 72.6595,445.8156 72.5143,434.8964 72.3699,423.9772 72.2263,413.0581 72.0834,402.139 71.9414,391.2199 71.8001,380.3007 71.6596,369.3815 71.5199,358.4621 71.3809,347.5427 71.2427,336.6231 71.1054,325.7034 70.9688,314.7834 70.8329,303.8632 70.6979,292.9428 70.5636,282.0221 70.4301,271.1011 70.2974,260.1798 70.1655,249.2581 70.0343,238.3361 69.9039,227.4136 69.7743,216.4907 69.6455,205.5674 69.5174,194.6435 69.3901,183.7192 69.2636,172.7943 69.1379,161.8689 69.013,150.9429 68.8888,140.0163 68.7654,129.089 68.6427,118.1611 68.5209,107.2325 68.3998,96.3031 68.2795,85.3731 68.16,74.4422" stroke="black" stroke-opacity="0.5" stroke-width="1" /></svg>