<?xml version="1.0" encoding="utf-8" ?>
<svg baseProfile="tiny" height="800" version="1.2" width="800" xmlns="http://www.w3.org/2000/svg" xmlns:ev="http://www.w3.org/2001/xml-events" xmlns:xlink="http://www.w3.org/1999/xlink"><defs /><rect fill="none" height="800" stroke="black" stroke-width="2" width="800" x="0" y="0" /><polyline fill="none" points="655.7317,728.9028 655.8627,717.9767 655.993,707.0514 656.1228,696.1268 656.2519,685.2028 656.3804,674.2796 656.5083,663.357 656.6355,652.435 656.7621,641.5135 656.8881,630.5927 657.0135,619.6724 657.1382,608.7526 657.2624,597.8332 657.3858,586.9144 657.5087,575.9959 657.631,565.0779 657.7526,554.1602 657.8736,543.2429 657.994,532.326 658.1137,521.4093 658.2329,510.4929 658.3514,499.5767 658.4693,488.6608 658.5866,477.7451 658.7033,466.8295 658.8193,455.9141 658.9347,444.9988 659.0495,434.0837 659.1637,423.1685 659.2773,412.2534 659.3902,401.3384 659.5026,390.4233 659.6143,379.5082 659.7254,368.593 659.8359,357.6778 659.9457,346.7624 660.055,335.8469 660.1636,324.9312 660.2716,314.0153 660.379,303.0992 660.4858,292.1829 660.592,281.2663 660.6975,270.3494 660.8025,259.4322 660.9068,248.5147 661.0105,237.5967 661.1136,226.6784 661.2161,215.7596 661.3179,204.8404 661.4192,193.9208 661.5198,183.0006 661.6199,172.0799 661.7193,161.1586 661.8181,150.2367 661.9163,139.3143 662.0138,128.3912 662.1108,117.4675 662.2071,106.543 662.3029,95.6179 662.398,84.692 662.4925,73.7654" stroke="silver" stroke-opacity="0.5" stroke-width="1" /><polyline fill="none" points="550.2124,727.8963 550.2893,716.9744 550.3659,706.0533 550.4421,695.133 550.5179,684.2133 550.5933,673.2943 550.6684,662.376 550.7431,651.4582 550.8174,640.5411 550.8914,629.6245 550.965,618.7085 551.0383,607.793 551.1111,596.878 551.1836,585.9634 551.2558,575.0493 551.3276,564.1356 551.399,553.2223 551.47,542.3093 551.5407,531.3967 551.611,520.4843 551.681,509.5723 551.7505,498.6605 551.8198,487.749 551.8886,476.8376 551.9571,465.9265 552.0252,455.0155 552.093,444.1046 552.1604,433.1938 552.2275,422.2831 552.2941,411.3724 552.3605,400.4618 552.4264,389.5511 552.492,378.6404 552.5572,367.7297 552.6221,356.8189 552.6866,345.908 552.7507,334.9969 552.8145,324.0857 552.8779,313.1743 552.941,302.2627 553.0037,291.3509 553.066,280.4388 553.128,269.5264 553.1896,258.6137 553.2508,247.7006 553.3117,236.7872 553.3723,225.8734 553.4324,214.9592 553.4922,204.0445 553.5517,193.1293 553.6108,182.2137 553.6695,171.2975 553.7279,160.3808 553.7859,149.4635 553.8435,138.5457 553.9008,127.6271 553.9577,116.708 554.0143,105.7881 554.0705,94.8676 554.1264,83.9463 554.1819,73.0243" stroke="silver" stroke-opacity="0.5" stroke-width="1" /><polyline fill="none" points="444.7234,727.4131 444.7463,716.4933 444.7691,705.5742 444.7918,694.6559 444.8143,683.7383 444.8368,672.8213 444.8591,661.905 444.8814,650.9893 444.9035,640.0743 444.9255,629.1597 444.9474,618.2458 444.9692,607.3323 444.9909,596.4194 445.0125,585.5069 445.034,574.5949 445.0553,563.6832 445.0766,552.772 445.0977,541.8611 445.1188,530.9506 445.1397,520.0403 445.1605,509.1304 445.1813,498.2207 445.2019,487.3113 445.2224,476.402 445.2427,465.4929 445.263,454.584 445.2832,443.6753 445.3033,432.7666 445.3232,421.858 445.3431,410.9495 445.3628,400.0409 445.3824,389.1324 445.402,378.2239 445.4214,367.3153 445.4407,356.4066 445.4599,345.4978 445.479,334.5889 445.498,323.6798 445.5168,312.7706 445.5356,301.8611 445.5543,290.9514 445.5728,280.0415 445.5913,269.1313 445.6096,258.2207 445.6279,247.3098 445.646,236.3986 445.664,225.4869 445.6819,214.5749 445.6997,203.6624 445.7174,192.7494 445.735,181.836 445.7525,170.922 445.7698,160.0075 445.7871,149.0924 445.8043,138.1767 445.8213,127.2604 445.8383,116.3434 445.8551,105.4257 445.8718,94.5074 445.8885,83.5883 445.905,72.6685" stroke="silver" stroke-opacity="0.5" stroke-width="1" /><polyline fill="none" points="339.2434,727.4528 339.2123,716.5329 339.1813,705.6136 339.1505,694.6951 339.1199,683.7773 339.0893,672.8602 339.059,661.9438 339.0288,651.0279 338.9987,640.1127 338.9688,629.198 338.939,618.2838 338.9094,607.3702 338.8799,596.4571 338.8506,585.5444 338.8214,574.6322 338.7924,563.7204 338.7635,552.809 338.7348,541.898 338.7062,530.9872 338.6778,520.0768 338.6495,509.1667 338.6214,498.2569 338.5934,487.3473 338.5655,476.4378 338.5378,465.5286 338.5103,454.6195 338.4829,443.7106 338.4556,432.8017 338.4285,421.893 338.4015,410.9842 338.3747,400.0755 338.3481,389.1668 338.3215,378.2581 338.2952,367.3494 338.2689,356.4405 338.2428,345.5315 338.2169,334.6225 338.1911,323.7132 338.1655,312.8038 338.14,301.8942 338.1146,290.9843 338.0894,280.0742 338.0643,269.1638 338.0394,258.253 338.0147,247.342 337.99,236.4305 337.9656,225.5187 337.9412,214.6065 337.917,203.6938 337.893,192.7807 337.8691,181.867 337.8454,170.9529 337.8218,160.0382 337.7983,149.1229 337.775,138.207 337.7518,127.2905 337.7288,116.3734 337.7059,105.4555 337.6832,94.537 337.6606,83.6178 337.6382,72.6978" stroke="silver" stroke-opacity="0.5" stroke-width="1" /><polyline fill="none" points="233.7511,728.0155 233.666,717.0932 233.5813,706.1716 233.497,695.2507 233.413,684.3305 233.3295,673.411 233.2465,662.4922 233.1638,651.5739 233.0815,640.6563 232.9996,629.7392 232.9181,618.8227 232.8371,607.9067 232.7564,596.9911 232.6762,586.0761 232.5963,575.1614 232.5169,564.2472 232.4378,553.3334 232.3592,542.4199 232.281,531.5068 232.2032,520.5939 232.1257,509.6814 232.0487,498.7691 231.9721,487.857 231.8959,476.9451 231.8201,466.0335 231.7447,455.1219 231.6697,444.2105 231.5951,433.2992 231.5208,422.388 231.447,411.4768 231.3737,400.5656 231.3007,389.6544 231.2281,378.7432 231.1559,367.832 231.0841,356.9206 231.0127,346.0092 230.9417,335.0976 230.8711,324.1859 230.8009,313.274 230.7311,302.3618 230.6617,291.4494 230.5927,280.5368 230.5241,269.6239 230.4559,258.7106 230.3881,247.7971 230.3208,236.8831 230.2538,225.9688 230.1872,215.054 230.121,204.1388 230.0552,193.2231 229.9898,182.3069 229.9248,171.3902 229.8602,160.473 229.796,149.5551 229.7322,138.6367 229.6688,127.7177 229.6057,116.798 229.5431,105.8776 229.4809,94.9565 229.4191,84.0346 229.3577,73.1121" stroke="silver" stroke-opacity="0.5" stroke-width="1" /><polyline fill="none" points="128.2254,729.1016 128.0862,718.1747 127.9476,707.2486 127.8097,696.3231 127.6725,685.3983 127.5359,674.4742 127.4,663.5508 127.2648,652.6279 127.1302,641.7057 126.9963,630.784 126.8631,619.8628 126.7305,608.9421 126.5986,598.022 126.4673,587.1022 126.3367,576.1829 126.2068,565.2641 126.0775,554.3456 125.9489,543.4274 125.821,532.5096 125.6937,521.592 125.5671,510.6748 125.4411,499.7578 125.3158,488.841 125.1911,477.9244 125.0671,467.008 124.9438,456.0917 124.8211,445.1755 124.6991,434.2595 124.5778,423.3435 124.4571,412.4275 124.337,401.5116 124.2176,390.5956 124.0989,379.6796 123.9808,368.7636 123.8634,357.8475 123.7466,346.9312 123.6305,336.0148 123.5151,325.0982 123.4003,314.1815 123.2861,303.2645 123.1726,292.3473 123.0598,281.4298 122.9476,270.512 122.8361,259.5939 122.7252,248.6755 122.615,237.7567 122.5054,226.8374 122.3965,215.9178 122.2882,204.9977 122.1806,194.0771 122.0736,183.156 121.9673,172.2344 121.8617,161.3123 121.7566,150.3895 121.6523,139.4662 121.5486,128.5422 121.4455,117.6175 121.3431,106.6922 121.2414,95.7661 121.1403,84.8394 121.0398,73.9118" stroke="silver" stroke-opacity="0.5" stroke-width="1" /><polyline fill="none" points="723.2896,729.822 719.0666,729.7582 708.5093,729.6025 697.9526,729.4521 687.3965,729.3069 676.841,729.1669 666.2861,729.0322 655.7317,728.9028 645.1778,728.7786 634.6244,728.6596 624.0715,728.5458 613.519,728.4373 602.9669,728.3341 592.4153,728.236 581.8641,728.1432 571.3132,728.0557 560.7626,727.9734 550.2124,727.8963 539.6625,727.8244 529.1129,727.7578 518.5635,727.6964 508.0144,727.6402 497.4655,727.5893 486.9167,727.5436 476.3682,727.5031 465.8198,727.4679 455.2715,727.4379 444.7234,727.4131 434.1753,727.3935 423.6274,727.3792 413.0794,727.3701 402.5315,727.3663 391.9836,727.3676 381.4357,727.3742 370.8877,727.386 360.3397,727.4031 349.7916,727.4253 339.2434,727.4528 328.695,727.4856 318.1466,727.5235 307.5979,727.5667 297.0491,727.6151 286.5001,727.6688 275.9508,727.7277 265.4013,727.7918 254.8516,727.8611 244.3015,727.9357 233.7511,728.0155 223.2004,728.1006 212.6493,728.1908 202.0979,728.2864 191.546,728.3871 180.9938,728.4931 170.4411,728.6043 159.8879,728.7208 149.3343,728.8425 138.7801,728.9694 128.2254,729.1016 117.6702,729.2391 107.1144,729.3817 96.558,729.5297 86.001,729.6828 76.7104,729.822" stroke="silver" stroke-opacity="0.5" stroke-width="1" /><polyline fill="none" points="724.5929,642.4016 720.3527,642.3401 709.7528,642.1896 699.1535,642.0443 688.5548,641.904 677.9567,641.7688 667.3591,641.6386 656.7621,641.5135 646.1657,641.3935 635.5697,641.2786 624.9742,641.1687 614.3792,641.0638 603.7846,640.9641 593.1904,640.8694 582.5966,640.7797 572.0032,640.6951 561.4102,640.6156 550.8174,640.5411 540.225,640.4717 529.6329,640.4073 519.041,640.348 508.4494,640.2937 497.858,640.2445 487.2668,640.2004 476.6757,640.1612 466.0849,640.1272 455.4941,640.0982 444.9035,640.0743 434.313,640.0554 423.7225,640.0415 413.1321,640.0327 402.5417,640.029 391.9513,640.0303 381.3609,640.0367 370.7705,640.0481 360.18,640.0646 349.5894,640.0861 338.9987,640.1127 328.4079,640.1443 317.817,640.181 307.2258,640.2227 296.6345,640.2695 286.043,640.3213 275.4512,640.3782 264.8592,640.4401 254.267,640.5071 243.6744,640.5792 233.0815,640.6563 222.4882,640.7385 211.8946,640.8257 201.3007,640.918 190.7063,641.0153 180.1115,641.1177 169.5162,641.2252 158.9205,641.3377 148.3242,641.4553 137.7275,641.578 127.1302,641.7057 116.5324,641.8385 105.934,641.9763 95.335,642.1192 84.7353,642.2672 75.4071,642.4016" stroke="silver" stroke-opacity="0.5" stroke-width="1" /><polyline fill="none" points="725.8455,555.0169 721.5889,554.9574 710.948,554.8124 700.3077,554.6722 689.6681,554.5368 679.029,554.4064 668.3905,554.2809 657.7526,554.1602 647.1152,554.0445 636.4783,553.9336 625.8419,553.8276 615.206,553.7265 604.5705,553.6302 593.9354,553.5389 583.3008,553.4524 572.6665,553.3708 562.0326,553.2941 551.399,553.2223 540.7657,553.1553 530.1327,553.0932 519.5,553.036 508.8675,552.9837 498.2352,552.9362 487.6032,552.8936 476.9713,552.8559 466.3396,552.823 455.7081,552.7951 445.0766,552.772 434.4452,552.7538 423.8139,552.7404 413.1827,552.7319 402.5515,552.7283 391.9203,552.7296 381.2891,552.7357 370.6578,552.7467 360.0265,552.7626 349.3951,552.7834 338.7635,552.809 328.1319,552.8395 317.5001,552.8749 306.8682,552.9151 296.236,552.9603 285.6036,553.0103 274.971,553.0651 264.3382,553.1249 253.705,553.1895 243.0716,553.259 232.4378,553.3334 221.8037,553.4126 211.1693,553.4968 200.5344,553.5858 189.8991,553.6797 179.2634,553.7784 168.6272,553.8821 157.9906,553.9906 147.3534,554.1041 136.7157,554.2224 126.0775,554.3456 115.4388,554.4736 104.7994,554.6066 94.1594,554.7444 83.5188,554.8872 74.1545,555.0169" stroke="silver" stroke-opacity="0.5" stroke-width="1" /><polyline fill="none" points="727.0478,467.6543 722.7755,467.5971 712.0952,467.4574 701.4156,467.3224 690.7366,467.1921 680.0583,467.0666 669.3805,466.9457 658.7033,466.8295 648.0266,466.7181 637.3504,466.6113 626.6748,466.5093 615.9996,466.4119 605.3248,466.3193 594.6505,466.2313 583.9766,466.1481 573.3031,466.0695 562.6299,465.9956 551.9571,465.9265 541.2846,465.862 530.6124,465.8022 519.9405,465.7471 509.2688,465.6967 498.5974,465.651 487.9261,465.61 477.2551,465.5737 466.5842,465.5421 455.9134,465.5152 445.2427,465.4929 434.5722,465.4754 423.9017,465.4626 413.2313,465.4544 402.5609,465.4509 391.8905,465.4521 381.2201,465.458 370.5496,465.4686 359.8791,465.4839 349.2085,465.5039 338.5378,465.5286 327.867,465.558 317.196,465.592 306.5249,465.6308 295.8535,465.6742 285.1819,465.7224 274.5101,465.7752 263.8381,465.8327 253.1657,465.8949 242.4931,465.9618 231.8201,466.0335 221.1467,466.1098 210.473,466.1908 199.7989,466.2765 189.1244,466.3669 178.4494,466.462 167.774,466.5618 157.098,466.6663 146.4216,466.7755 135.7447,466.8894 125.0671,467.008 114.3891,467.1313 103.7104,467.2593 93.0311,467.392 82.3511,467.5295 72.9522,467.6543" stroke="silver" stroke-opacity="0.5" stroke-width="1" /><polyline fill="none" points="728.1999,380.3007 723.9125,380.2457 713.1946,380.1115 702.4773,379.9818 691.7606,379.8566 681.0446,379.736 670.3291,379.6198 659.6143,379.5082 648.8999,379.4011 638.1862,379.2985 627.4729,379.2005 616.76,379.1069 606.0477,379.0179 595.3358,378.9334 584.6243,378.8534 573.9131,378.7779 563.2024,378.7069 552.492,378.6404 541.7819,378.5785 531.0721,378.521 520.3626,378.4681 509.6534,378.4197 498.9444,378.3758 488.2356,378.3364 477.5269,378.3015 466.8185,378.2711 456.1102,378.2452 445.402,378.2239 434.6939,378.207 423.9858,378.1947 413.2779,378.1868 402.5699,378.1835 391.862,378.1847 381.154,378.1903 370.446,378.2005 359.7379,378.2152 349.0298,378.2344 338.3215,378.2581 327.6131,378.2863 316.9046,378.3191 306.1959,378.3563 295.487,378.3981 284.7778,378.4443 274.0685,378.4951 263.3588,378.5503 252.6489,378.6101 241.9386,378.6744 231.2281,378.7432 220.5171,378.8166 209.8058,378.8944 199.0941,378.9767 188.3819,379.0636 177.6694,379.155 166.9563,379.2509 156.2427,379.3513 145.5287,379.4562 134.8141,379.5657 124.0989,379.6796 113.3831,379.7981 102.6668,379.9211 91.9498,380.0487 81.2322,380.1807 71.8001,380.3007" stroke="silver" stroke-opacity="0.5" stroke-width="1" /><polyline fill="none" points="729.3021,292.9428 725.0003,292.8901 714.2463,292.7614 703.4929,292.637 692.7402,292.517 681.9882,292.4013 671.2367,292.2899 660.4858,292.1829 649.7355,292.0802 638.9857,291.9819 628.2364,291.8878 617.4876,291.7981 606.7392,291.7128 595.9913,291.6317 585.2438,291.555 574.4968,291.4826 563.75,291.4146 553.0037,291.3509 542.2576,291.2915 531.5119,291.2364 520.7665,291.1856 510.0213,291.1392 499.2763,291.0971 488.5316,291.0593 477.787,291.0259 467.0426,290.9967 456.2984,290.9719 445.5543,290.9514 434.8103,290.9353 424.0663,290.9234 413.3224,290.9159 402.5785,290.9127 391.8347,290.9138 381.0908,290.9193 370.3469,290.9291 359.6029,290.9431 348.8588,290.9616 338.1146,290.9843 327.3703,291.0114 316.6258,291.0427 305.8812,291.0784 295.1363,291.1185 284.3913,291.1628 273.6459,291.2115 262.9003,291.2645 252.1545,291.3218 241.4083,291.3835 230.6617,291.4494 219.9148,291.5197 209.1675,291.5944 198.4198,291.6733 187.6717,291.7566 176.9231,291.8442 166.1741,291.9362 155.4245,292.0325 144.6744,292.1331 133.9238,292.238 123.1726,292.3473 112.4208,292.4609 101.6684,292.5789 90.9154,292.7012 80.1617,292.8278 70.6979,292.9428" stroke="silver" stroke-opacity="0.5" stroke-width="1" /><polyline fill="none" points="730.3545,205.5674 726.0389,205.517 715.2505,205.3938 704.4627,205.2749 693.6756,205.16 682.8891,205.0494 672.1032,204.9428 661.3179,204.8404 650.5332,204.7422 639.749,204.6481 628.9654,204.5582 618.1822,204.4724 607.3995,204.3907 596.6172,204.3132 585.8354,204.2398 575.054,204.1705 564.2729,204.1054 553.4922,204.0445 542.7119,203.9877 531.9318,203.935 521.1521,203.8864 510.3726,203.842 499.5933,203.8017 488.8142,203.7656 478.0354,203.7336 467.2567,203.7057 456.4781,203.682 445.6997,203.6624 434.9214,203.6469 424.1431,203.6356 413.3649,203.6284 402.5868,203.6253 391.8086,203.6264 381.0304,203.6316 370.2522,203.641 359.4739,203.6544 348.6955,203.6721 337.917,203.6938 327.1384,203.7197 316.3596,203.7497 305.5807,203.7839 294.8015,203.8222 284.0221,203.8646 273.2425,203.9111 262.4626,203.9619 251.6824,204.0167 240.9018,204.0757 230.121,204.1388 219.3397,204.206 208.5581,204.2774 197.776,204.353 186.9936,204.4326 176.2106,204.5165 165.4272,204.6044 154.6433,204.6965 143.8588,204.7928 133.0738,204.8932 122.2882,204.9977 111.502,205.1064 100.7152,205.2192 89.9277,205.3362 79.1396,205.4573 69.6455,205.5674" stroke="silver" stroke-opacity="0.5" stroke-width="1" /><polyline fill="none" points="731.3573,118.1611 727.0285,118.113 716.2073,117.9955 705.3867,117.882 694.5668,117.7724 683.7475,117.6668 672.9288,117.5652 662.1108,117.4675 651.2933,117.3737 640.4764,117.2839 629.6599,117.1981 618.844,117.1162 608.0286,117.0383 597.2136,116.9644 586.3991,116.8943 575.5849,116.8283 564.7711,116.7661 553.9577,116.708 543.1447,116.6538 532.3319,116.6035 521.5194,116.5572 510.7072,116.5148 499.8953,116.4763 489.0835,116.4419 478.272,116.4113 467.4606,116.3847 456.6494,116.3621 445.8383,116.3434 435.0273,116.3286 424.2163,116.3178 413.4055,116.311 402.5946,116.308 391.7838,116.3091 380.9729,116.314 370.162,116.323 359.351,116.3358 348.54,116.3526 337.7288,116.3734 326.9175,116.3981 316.106,116.4267 305.2944,116.4593 294.4825,116.4958 283.6704,116.5363 272.8581,116.5808 262.0455,116.6291 251.2326,116.6815 240.4193,116.7377 229.6057,116.798 218.7918,116.8621 207.9774,116.9302 197.1627,117.0023 186.3474,117.0783 175.5318,117.1583 164.7156,117.2423 153.8989,117.3301 143.0817,117.422 132.2639,117.5178 121.4455,117.6175 110.6266,117.7212 99.807,117.8289 88.9867,117.9405 78.1658,118.0561 68.6427,118.1611" stroke="silver" stroke-opacity="0.5" stroke-width="1" /><circle cx="725.4369" cy="292.3712" fill="black" r="0.738" stroke="none" /><circle cx="720.5517" cy="187.0128" fill="black" r="0.738" stroke="none" /><circle cx="718.9299" cy="208.2319" fill="black" r="0.738" stroke="none" /><circle cx="712.6292" cy="606.2194" fill="black" r="0.738" stroke="none" /><circle cx="709.4727" cy="438.3331" fill="black" r="0.738" stroke="none" /><circle cx="710.507" cy="149.4055" fill="black" r="0.738" stroke="none" /><circle cx="696.8042" cy="714.8332" fill="black" r="0.738" stroke="none" /><circle cx="699.699" cy="461.0116" fill="black" r="0.738" stroke="none" /><circle cx="696.9171" cy="429.5309" fill="black" r="0.936" stroke="none" /><circle cx="680.5029" cy="714.0016" fill="black" r="0.738" stroke="none" /><circle cx="685.3995" cy="204.2884" fill="black" r="0.738" stroke="none" /><circle cx="676.7343" cy="624.1013" fill="black" r="0.738" stroke="none" /><circle cx="673.6106" cy="320.6137" fill="black" r="0.738" stroke="none" /><circle cx="671.0901" cy="534.3954" fill="black" r="0.738" stroke="none" /><circle cx="663.7704" cy="643.9551" fill="black" r="0.738" stroke="none" /><circle cx="658.6523" cy="661.1099" fill="black" r="0.738" stroke="none" /><circle cx="662.2437" cy="169.9885" fill="black" r="0.738" stroke="none" /><circle cx="657.2856" cy="511.356" fill="black" r="0.738" stroke="none" /><circle cx="642.2413" cy="666.7777" fill="black" r="0.936" stroke="none" /><circle cx="632.436" cy="273.6723" fill="black" r="0.738" stroke="none" /><circle cx="629.9242" cy="182.1163" fill="black" r="0.738" stroke="none" /><circle cx="626.8764" cy="269.6079" fill="black" r="0.738" stroke="none" /><circle cx="624.9314" cy="461.0793" fill="black" r="0.738" stroke="none" /><circle cx="609.3695" cy="472.6403" fill="black" r="0.738" stroke="none" /><circle cx="607.9419" cy="489.6541" fill="black" r="0.936" stroke="none" /><circle cx="604.3908" cy="339.4543" fill="black" r="0.738" stroke="none" /><circle cx="599.7682" cy="681.8142" fill="black" r="0.738" stroke="none" /><circle cx="598.1835" cy="593.6594" fill="black" r="0.738" stroke="none" /><circle cx="581.4587" cy="592.7338" fill="black" r="0.738" stroke="none" /><circle cx="583.5539" cy="261.9449" fill="black" r="0.738" stroke="none" /><circle cx="583.7685" cy="80.267" fill="black" r="0.738" stroke="none" /><circle cx="582.3953" cy="215.9193" fill="black" r="0.738" stroke="none" /><circle cx="575.0944" cy="478.1298" fill="black" r="0.738" stroke="none" /><circle cx="566.4896" cy="595.5884" fill="black" r="0.738" stroke="none" /><circle cx="568.097" cy="94.5933" fill="black" r="0.738" stroke="none" /><circle cx="566.0749" cy="371.8293" fill="black" r="0.738" stroke="none" /><circle cx="559.8224" cy="695.5498" fill="black" r="0.738" stroke="none" /><circle cx="559.4862" cy="211.6749" fill="black" r="0.738" stroke="none" /><circle cx="545.8083" cy="692.8298" fill="black" r="0.738" stroke="none" /><circle cx="540.5404" cy="446.8289" fill="black" r="0.738" stroke="none" /><circle cx="539.9388" cy="447.4365" fill="black" r="0.738" stroke="none" /><circle cx="538.3104" cy="289.874" fill="black" r="0.738" stroke="none" /><circle cx="526.0545" cy="628.8592" fill="black" r="0.738" stroke="none" /><circle cx="518.7201" cy="207.9797" fill="black" r="0.738" stroke="none" /><circle cx="514.6214" cy="593.0845" fill="black" r="0.738" stroke="none" /><circle cx="511.6763" cy="306.4213" fill="black" r="0.738" stroke="none" /><circle cx="508.3438" cy="100.4334" fill="black" r="0.738" stroke="none" /><circle cx="502.3787" cy="418.6238" fill="black" r="0.738" stroke="none" /><circle cx="497.3943" cy="380.4644" fill="black" r="0.738" stroke="none" /><circle cx="494.4866" cy="103.7058" fill="black" r="1.476" stroke="none" /><circle cx="492.176" cy="255.8944" fill="black" r="0.738" stroke="none" /><circle cx="490.7964" cy="177.2289" fill="black" r="0.738" stroke="none" /><circle cx="484.3251" cy="369.1594" fill="black" r="0.738" stroke="none" /><circle cx="482.0525" cy="719.6615" fill="black" r="0.738" stroke="none" /><circle cx="481.9931" cy="599.4041" fill="black" r="0.738" stroke="none" /><circle cx="482.0224" cy="469.5168" fill="black" r="0.738" stroke="none" /><circle cx="480.8167" cy="225.9163" fill="black" r="0.738" stroke="none" /><circle cx="479.7606" cy="77.0192" fill="black" r="0.738" stroke="none" /><circle cx="460.7721" cy="630.9436" fill="black" r="0.738" stroke="none" /><circle cx="456.8771" cy="341.3313" fill="black" r="0.936" stroke="none" /><circle cx="455.4037" cy="134.8748" fill="black" r="0.738" stroke="none" /><circle cx="453.36" cy="211.0092" fill="black" r="0.738" stroke="none" /><circle cx="452.465" cy="519.7936" fill="black" r="0.738" stroke="none" /><circle cx="449.0059" cy="135.824" fill="black" r="0.738" stroke="none" /><circle cx="443.2113" cy="406.8441" fill="black" r="0.738" stroke="none" /><circle cx="441.3702" cy="273.0522" fill="black" r="0.738" stroke="none" /><circle cx="436.1868" cy="289.9771" fill="black" r="0.738" stroke="none" /><circle cx="424.9943" cy="216.0327" fill="black" r="0.738" stroke="none" /><circle cx="421.3462" cy="359.0807" fill="black" r="0.738" stroke="none" /><circle cx="416.61" cy="634.3595" fill="black" r="0.738" stroke="none" /><circle cx="413.7634" cy="713.4809" fill="black" r="0.738" stroke="none" /><circle cx="412.1131" cy="644.2234" fill="black" r="1.17" stroke="none" /><circle cx="410.4779" cy="698.0184" fill="black" r="0.738" stroke="none" /><circle cx="402.388" cy="487.2688" fill="black" r="0.738" stroke="none" /><circle cx="398.3603" cy="179.8785" fill="black" r="0.738" stroke="none" /><circle cx="392.3997" cy="156.916" fill="black" r="0.738" stroke="none" /><circle cx="389.5019" cy="469.1184" fill="black" r="0.738" stroke="none" /><circle cx="381.7613" cy="611.4855" fill="black" r="0.738" stroke="none" /><circle cx="379.8679" cy="674.9679" fill="black" r="0.936" stroke="none" /><circle cx="368.4552" cy="290.3203" fill="black" r="0.738" stroke="none" /><circle cx="365.8522" cy="201.638" fill="black" r="0.738" stroke="none" /><circle cx="359.9611" cy="705.4776" fill="black" r="0.936" stroke="none" /><circle cx="351.3031" cy="445.689" fill="black" r="0.738" stroke="none" /><circle cx="340.9065" cy="309.5683" fill="black" r="0.738" stroke="none" /><circle cx="339.5621" cy="206.8331" fill="black" r="0.738" stroke="none" /><circle cx="337.8469" cy="210.9401" fill="black" r="1.17" stroke="none" /><circle cx="332.8148" cy="612.2769" fill="black" r="0.738" stroke="none" /><circle cx="332.4741" cy="611.8413" fill="black" r="0.738" stroke="none" /><circle cx="330.9677" cy="533.8892" fill="black" r="0.936" stroke="none" /><circle cx="328.8169" cy="608.8841" fill="black" r="0.738" stroke="none" /><circle cx="326.834" cy="152.2048" fill="black" r="0.738" stroke="none" /><circle cx="310.5732" cy="227.8633" fill="black" r="0.936" stroke="none" /><circle cx="310.9879" cy="517.8956" fill="black" r="0.738" stroke="none" /><circle cx="307.4243" cy="362.7295" fill="black" r="0.738" stroke="none" /><circle cx="305.5446" cy="410.3014" fill="black" r="1.17" stroke="none" /><circle cx="301.446" cy="155.1619" fill="black" r="0.738" stroke="none" /><circle cx="302.1509" cy="439.2901" fill="black" r="0.738" stroke="none" /><circle cx="300.1933" cy="117.0875" fill="black" r="0.738" stroke="none" /><circle cx="297.5672" cy="157.5332" fill="black" r="0.738" stroke="none" /><circle cx="293.2096" cy="685.1773" fill="black" r="0.738" stroke="none" /><circle cx="293.1134" cy="699.9403" fill="black" r="0.738" stroke="none" /><circle cx="286.7616" cy="563.6552" fill="black" r="0.738" stroke="none" /><circle cx="285.1602" cy="269.9477" fill="black" r="0.738" stroke="none" /><circle cx="280.9594" cy="87.3698" fill="black" r="0.738" stroke="none" /><circle cx="275.1376" cy="279.2454" fill="black" r="0.738" stroke="none" /><circle cx="273.1252" cy="478.4389" fill="black" r="0.738" stroke="none" /><circle cx="263.8469" cy="654.9444" fill="black" r="0.738" stroke="none" /><circle cx="244.4452" cy="605.1165" fill="black" r="0.738" stroke="none" /><circle cx="239.3573" cy="143.9979" fill="black" r="0.738" stroke="none" /><circle cx="238.9917" cy="529.1025" fill="black" r="0.936" stroke="none" /><circle cx="236.5875" cy="438.3286" fill="black" r="0.738" stroke="none" /><circle cx="229.8742" cy="431.7397" fill="black" r="0.738" stroke="none" /><circle cx="227.3201" cy="408.7115" fill="black" r="0.738" stroke="none" /><circle cx="217.3463" cy="202.7343" fill="black" r="0.936" stroke="none" /><circle cx="210.6048" cy="347.8091" fill="black" r="0.738" stroke="none" /><circle cx="206.7133" cy="108.8128" fill="black" r="0.738" stroke="none" /><circle cx="207.214" cy="294.9262" fill="black" r="0.738" stroke="none" /><circle cx="209.5385" cy="710.6529" fill="black" r="0.738" stroke="none" /><circle cx="199.382" cy="596.9123" fill="black" r="0.738" stroke="none" /><circle cx="179.1047" cy="143.5187" fill="black" r="0.738" stroke="none" /><circle cx="176.5905" cy="241.0217" fill="black" r="0.738" stroke="none" /><circle cx="170.4802" cy="551.9423" fill="black" r="0.738" stroke="none" /><circle cx="167.563" cy="407.8854" fill="black" r="0.738" stroke="none" /><circle cx="166.2668" cy="341.0987" fill="black" r="0.738" stroke="none" /><circle cx="162.8299" cy="602.1568" fill="black" r="1.17" stroke="none" /><circle cx="158.6378" cy="314.3595" fill="black" r="0.738" stroke="none" /><circle cx="162.066" cy="657.9051" fill="black" r="0.738" stroke="none" /><circle cx="153.5281" cy="319.2972" fill="black" r="0.936" stroke="none" /><circle cx="151.3384" cy="152.1308" fill="black" r="0.738" stroke="none" /><circle cx="150.7711" cy="272.5121" fill="black" r="0.738" stroke="none" /><circle cx="151.1792" cy="545.7649" fill="black" r="0.738" stroke="none" /><circle cx="140.0279" cy="411.3" fill="black" r="0.738" stroke="none" /><circle cx="131.2758" cy="74.7814" fill="black" r="0.738" stroke="none" /><circle cx="124.354" cy="464.3958" fill="black" r="0.738" stroke="none" /><circle cx="102.4136" cy="402.111" fill="black" r="0.738" stroke="none" /><circle cx="103.2628" cy="645.1584" fill="black" r="0.738" stroke="none" /><circle cx="94.9022" cy="249.4956" fill="black" r="0.738" stroke="none" /><circle cx="92.3098" cy="256.5145" fill="black" r="0.738" stroke="none" /><circle cx="89.1995" cy="79.9916" fill="black" r="0.738" stroke="none" /><circle cx="91.4603" cy="625.6531" fill="black" r="0.738" stroke="none" /><circle cx="85.8081" cy="585.3538" fill="black" r="0.738" stroke="none" /><circle cx="13.77" cy="786.23" fill="black" r="4.59" stroke="none" /><circle cx="13.77" cy="786.23" fill="black" r="4.59" stroke="none" /><text fill="black" font-family="monospace" font-size="12" x="10.77" y="775.64">1</text><circle cx="37.77" cy="786.23" fill="black" r="3.654" stroke="none" /><circle cx="37.77" cy="786.23" fill="black" r="3.654" stroke="none" /><text fill="black" font-family="monospace" font-size="12" x="34.769999999999996" y="775.64">2</text><circle cx="61.77" cy="786.23" fill="black" r="2.916" stroke="none" /><circle cx="61.77" cy="786.23" fill="black" r="2.916" stroke="none" /><text fill="black" font-family="monospace" font-size="12" x="58.769999999999996" y="775.64">3</text><circle cx="85.77" cy="786.23" fill="black" r="2.322" stroke="none" /><circle cx="85.77" cy="786.23" fill="black" r="2.322" stroke="none" /><text fill="black" font-family="monospace" font-size="12" x="82.77" y="775.64">4</text><circle cx="109.77" cy="786.23" fill="black" r="1.854" stroke="none" /><circle cx="109.77" cy="786.23" fill="black" r="1.854" stroke="none" /><text fill="black" font-family="monospace" font-size="12" x="106.77" y="775.64">5</text><circle cx="133.77" cy="786.23" fill="black" r="1.476" stroke="none" /><circle cx="133.77" cy="786.23" fill="black" r="1.476" stroke="none" /><text fill="black" font-family="monospace" font-size="12" x="130.77" y="775.64">6</text><circle cx="157.77" cy="786.23" fill="black" r="1.17" stroke="none" /><circle cx="157.77" cy="786.23" fill="black" r="1.17" stroke="none" /><text fill="black" font-family="monospace" font-size="12" x="154.77" y="775.64">7</text><circle cx="181.77" cy="786.23" fill="black" r="0.936" stroke="none" /><circle cx="181.77" cy="786.23" fill="black" r="0.936" stroke="none" /><text fill="black" font-family="monospace" font-size="12" x="178.77" y="775.64">8</text><circle cx="205.77" cy="786.23" fill="black" r="0.738" stroke="none" /><circle cx="205.77" cy="786.23" fill="black" r="0.738" stroke="none" /><text fill="black" font-family="monospace" font-size="12" x="202.77" y="775.64">9</text><text fill="gray" fill-opacity="0.5" font-family="monospace" font-size="12" x="662.492504238103" y="73.76538332414123">21h30m</text><text fill="gray" fill-opacity="0.5" font-family="monospace" font-size="12" x="554.1818549253649" y="73.02426653797278">21h35m</text><text fill="gray" fill-opacity="0.5" font-family="monospace" font-size="12" x="445.9049835038283" y="72.66849998785887">21h40m</text><text fill="gray" fill-opacity="0.5" font-family="monospace" font-size="12" x="337.63816696161024" y="72.697758391609">21h45m</text><text fill="gray" fill-opacity="0.5" font-family="monospace" font-size="12" x="229.35769067215458" y="73.11206849680099">21h50m</text><text fill="gray" fill-opacity="0.5" font-family="monospace" font-size="12" x="121.03982861704526" y="73.91180913197542">21h55m</text><text fill="gray" fill-opacity="0.5" font-family="monospace" font-size="12" x="76.71035069797057" y="729.8219665440618">-15°</text><text fill="gray" fill-opacity="0.5" font-family="monospace" font-size="12" x="75.40714312416429" y="642.4016498613715">-14°</text><text fill="gray" fill-opacity="0.5" font-family="monospace" font-size="12" x="74.1545175567826" y="555.0168519113299">-13°</text><text fill="gray" fill-opacity="0.5" font-family="monospace" font-size="12" x="72.9522327613102" y="467.6542909685587">-12°</text><text fill="gray" fill-opacity="0.5" font-family="monospace" font-size="12" x="71.80007815860904" y="380.30069879479106">-11°</text><text fill="gray" fill-opacity="0.5" font-family="monospace" font-size="12" x="70.69787367158995" y="292.9428125892501">-10°</text><text fill="gray" fill-opacity="0.5" font-family="monospace" font-size="12" x="69.6454696113102" y="205.56736694601938">-9°</text><text fill="gray" fill-opacity="0.5" font-family="monospace" font-size="12" x="68.64274660233957" y="118.16108580806116">-8°</text><text fill="black" font-family="monospace" font-size="12" x="12" y="48">&gt;&gt; No.356 21h27m 21h57m -15.0°-7.5°</text><a target="_self" xlink:href="hip022.svg"><text fill="black" font-family="monospace" font-size="12" x="12" y="36">&gt; No.22 21h20m 24h00m -22.5°+0.0°</text></a><a target="_self" xlink:href="hip001.svg"><text fill="black" font-family="monospace" font-size="12" x="12" y="24">No.1 00h 24h -90.0°+0.0°</text></a><polyline fill="none" points="731.84,74.4422 727.505,74.3953 716.6679,74.2806 705.8315,74.1699 694.9958,74.063 684.1608,73.9599 673.3263,73.8607 662.4925,73.7654 651.6592,73.6739 640.8265,73.5863 629.9944,73.5026 619.1627,73.4227 608.3315,73.3466 597.5007,73.2744 586.6704,73.2061 575.8405,73.1416 565.011,73.081 554.1819,73.0243 543.353,72.9714 532.5245,72.9223 521.6963,72.8771 510.8684,72.8357 500.0407,72.7982 489.2132,72.7646 478.3859,72.7348 467.5588,72.7088 456.7318,72.6867 445.905,72.6685 435.0782,72.6541 424.2516,72.6436 413.425,72.6369 402.5984,72.634 391.7718,72.635 380.9452,72.6399 370.1186,72.6486 359.2919,72.6611 348.4651,72.6775 337.6382,72.6978 326.8111,72.7219 315.9839,72.7498 305.1565,72.7816 294.3289,72.8173 283.5011,72.8568 272.673,72.9001 261.8447,72.9473 251.016,72.9984 240.187,73.0533 229.3577,73.1121 218.528,73.1747 207.6979,73.2412 196.8673,73.3115 186.0364,73.3857 175.2049,73.4637 164.373,73.5456 153.5405,73.6314 142.7075,73.721 131.874,73.8145 121.0398,73.9118 110.2051,74.013 99.3697,74.1181 88.5336,74.227 77.6969,74.3398 68.16,74.4422" stroke="black" stroke-opacity="0.5" stroke-width="1" /><polyline fill="none" points="723.2896,729.822 723.4553,718.892 723.6202,707.9628 723.7843,697.0343 723.9476,686.1065 724.1101,675.1794 724.2718,664.2529 724.4327,653.327 724.5929,642.4016 724.7522,631.4769 724.9107,620.5526 725.0685,609.6289 725.2255,598.7056 725.3817,587.7828 725.5371,576.8604 725.6917,565.9385 725.8455,555.0169 725.9985,544.0956 726.1508,533.1746 726.3022,522.254 726.4529,511.3336 726.6028,500.4135 726.7519,489.4936 726.9002,478.5738 727.0478,467.6543 727.1945,456.7349 727.3405,445.8156 727.4857,434.8964 727.6301,423.9772 727.7737,413.0581 727.9166,402.139 728.0586,391.2199 728.1999,380.3007 728.3404,369.3815 728.4801,358.4621 728.6191,347.5427 728.7573,336.6231 728.8946,325.7034 729.0312,314.7834 729.1671,303.8632 729.3021,292.9428 729.4364,282.0221 729.5699,271.1011 729.7026,260.1798 729.8345,249.2581 729.9657,238.3361 730.0961,227.4136 730.2257,216.4907 730.3545,205.5674 730.4826,194.6435 730.6099,183.7192 730.7364,172.7943 730.8621,161.8689 730.987,150.9429 731.1112,140.0163 731.2346,129.089 731.3573,118.1611 731.4791,107.2325 731.6002,96.3031 731.7205,85.3731 731.84,74.4422" stroke="black" stroke-opacity="0.5" stroke-width="1" /><polyline fill="none" points="723.2896,729.822 719.0666,729.7582 708.5093,729.6025 697.9526,729.4521 687.3965,729.3069 676.841,729.1669 666.2861,729.0322 655.7317,728.9028 645.1778,728.7786 634.6244,728.6596 624.0715,728.5458 613.519,728.4373 602.9669,728.3341 592.4153,728.236 581.8641,728.1432 571.3132,728.0557 560.7626,727.9734 550.2124,727.8963 539.6625,727.8244 529.1129,727.7578 518.5635,727.6964 508.0144,727.6402 497.4655,727.5893 486.9167,727.5436 476.3682,727.5031 465.8198,727.4679 455.2715,727.4379 444.7234,727.4131 434.1753,727.3935 423.6274,727.3792 413.0794,727.3701 402.5315,727.3663 391.9836,727.3676 381.4357,727.3742 370.8877,727.386 360.3397,727.4031 349.7916,727.4253 339.2434,727.4528 328.695,727.4856 318.1466,727.5235 307.5979,727.5667 297.0491,727.6151 286.5001,727.6688 275.9508,727.7277 265.4013,727.7918 254.8516,727.8611 244.3015,727.9357 233.7511,728.0155 223.2004,728.1006 212.6493,728.1908 202.0979,728.2864 191.546,728.3871 180.9938,728.4931 170.4411,728.6043 159.8879,728.7208 149.3343,728.8425 138.7801,728.9694 128.2254,729.1016 117.6702,729.2391 107.1144,729.3817 96.558,729.5297 86.001,729.6828 76.7104,729.822" stroke="black" stroke-opacity="0.5" stroke-width="1" /><polyline fill="none" points="76.7104,729.822 76.5447,718.892 76.3798,707.9628 76.2157,697.0343 76.0524,686.1065 75.8899,675.1794 75.7282,664.2529 75.5673,653.327 75.4071,642.4016 75.2478,631.4769 75.0893,620.5526 74.9315,609.6289 74.7745,598.7056 74.6183,587.7828 74.4629,576.8604 74.3083,565.9385 74.1545,555.0169 74.0015,544.0956 73.8492,533.1746 73.6978,522.254 73.5471,511.3336 73.3972,500.4135 73.2481,489.4936 73.0998,478.5738 72.9522,467.6543 72.8055,456.7349 72.6595,445.8156 72.5143,434.8964 72.3699,423.9772 72.2263,413.0581 72.0834,402.139 71.9414,391.2199 71.8001,380.3007 71.6596,369.3815 71.5199,358.4621 71.3809,347.5427 71.2427,336.6231 71.1054,325.7034 70.9688,314.7834 70.8329,303.8632 70.6979,292.9428 70.5636,282.0221 70.4301,271.1011 70.2974,260.1798 70.1655,249.2581 70.0343,238.3361 69.9039,227.4136 69.7743,216.4907 69.6455,205.5674 69.5174,194.6435 69.3901,183.7192 69.2636,172.7943 69.1379,161.8689 69.013,150.9429 68.8888,140.0163 68.7654,129.089 68.6427,118.1611 68.5209,107.2325 68.3998,96.3031 68.2795,85.3731 68.16,74.4422" stroke="black" stroke-opacity="0.5" stroke-width="1" /></svg>