<?xml version="1.0" encoding="utf-8" ?>
<svg baseProfile="tiny" height="800" version="1.2" width="800" xmlns="http://www.w3.org/2000/svg" xmlns:ev="http://www.w3.org/2001/xml-events" xmlns:xlink="http://www.w3.org/1999/xlink"><defs /><rect fill="none" height="800" stroke="black" stroke-width="2" width="800" x="0" y="0" /><polyline fill="none" points="692.0411,729.3701 692.1907,718.4421 692.3397,707.5148 692.4879,696.5882 692.6353,685.6623 692.7821,674.7371 692.9282,663.8125 693.0735,652.8885 693.2181,641.9651 693.362,631.0423 693.5052,620.1199 693.6477,609.1981 693.7895,598.2768 693.9305,587.3559 694.0709,576.4355 694.2105,565.5154 694.3494,554.5958 694.4877,543.6765 694.6252,532.7575 694.762,521.8388 694.898,510.9204 695.0334,500.0022 695.1681,489.0842 695.3021,478.1665 695.4353,467.2489 695.5678,456.3314 695.6997,445.4141 695.8308,434.4969 695.9612,423.5797 696.091,412.6626 696.22,401.7454 696.3483,390.8283 696.4759,379.9111 696.6028,368.9939 696.729,358.0766 696.8545,347.1591 696.9792,336.2416 697.1033,325.3238 697.2267,314.4059 697.3494,303.4877 697.4714,292.5693 697.5926,281.6506 697.7132,270.7316 697.833,259.8123 697.9522,248.8927 698.0707,237.9726 698.1884,227.0522 698.3055,216.1314 698.4218,205.21 698.5375,194.2883 698.6524,183.366 698.7667,172.4431 698.8803,161.5197 698.9931,150.5958 699.1053,139.6712 699.2167,128.746 699.3275,117.8201 699.4375,106.8936 699.5469,95.9663 699.6555,85.0383 699.7635,74.1095" stroke="silver" stroke-opacity="0.5" stroke-width="1" /><polyline fill="none" points="586.5066,728.1834 586.6021,717.2604 586.6971,706.3381 586.7917,695.4165 586.8859,684.4956 586.9795,673.5754 587.0728,662.6558 587.1655,651.7369 587.2578,640.8185 587.3497,629.9007 587.4411,618.9835 587.5321,608.0667 587.6225,597.1505 587.7126,586.2347 587.8022,575.3194 587.8913,564.4044 587.98,553.4899 588.0682,542.5757 588.156,531.6618 588.2433,520.7482 588.3301,509.8349 588.4166,498.9219 588.5025,488.0091 588.588,477.0965 588.6731,466.1841 588.7577,455.2718 588.8418,444.3597 588.9255,433.4477 589.0088,422.5357 589.0916,411.6238 589.1739,400.7119 589.2558,389.7999 589.3373,378.888 589.4183,367.976 589.4988,357.0639 589.5789,346.1517 589.6586,335.2394 589.7378,324.3269 589.8165,313.4143 589.8948,302.5014 589.9727,291.5882 590.0501,280.6749 590.127,269.7612 590.2035,258.8472 590.2796,247.9329 590.3552,237.0181 590.4304,226.1031 590.5051,215.1875 590.5794,204.2716 590.6532,193.3551 590.7266,182.4382 590.7995,171.5207 590.872,160.6027 590.944,149.6841 591.0156,138.7649 591.0867,127.8451 591.1574,116.9247 591.2277,106.0035 591.2975,95.0816 591.3668,84.1591 591.4357,73.2357" stroke="silver" stroke-opacity="0.5" stroke-width="1" /><polyline fill="none" points="481.0095,727.5203 481.051,716.6 481.0923,705.6805 481.1334,694.7617 481.1742,683.8437 481.2149,672.9263 481.2554,662.0095 481.2957,651.0934 481.3358,640.1778 481.3757,629.2629 481.4153,618.3484 481.4548,607.4345 481.4941,596.5211 481.5332,585.6082 481.5721,574.6957 481.6108,563.7836 481.6493,552.8719 481.6876,541.9605 481.7258,531.0495 481.7637,520.1388 481.8014,509.2284 481.8389,498.3183 481.8762,487.4084 481.9134,476.4987 481.9503,465.5891 481.987,454.6798 482.0236,443.7705 482.0599,432.8614 482.0961,421.9523 482.132,411.0433 482.1678,400.1343 482.2033,389.2253 482.2387,378.3163 482.2739,367.4072 482.3089,356.4981 482.3436,345.5888 482.3782,334.6794 482.4126,323.7699 482.4468,312.8602 482.4808,301.9502 482.5146,291.0401 482.5482,280.1296 482.5816,269.2189 482.6149,258.3079 482.6479,247.3965 482.6807,236.4848 482.7134,225.5727 482.7458,214.6601 482.7781,203.7472 482.8101,192.8337 482.842,181.9198 482.8736,171.0053 482.9051,160.0903 482.9364,149.1747 482.9675,138.2585 482.9984,127.3417 483.0291,116.4243 483.0596,105.5061 483.0899,94.5873 483.12,83.6677 483.1499,72.7474" stroke="silver" stroke-opacity="0.5" stroke-width="1" /><polyline fill="none" points="375.5288,727.3802 375.5163,716.4605 375.5038,705.5416 375.4914,694.6234 375.4791,683.7059 375.4668,672.7891 375.4545,661.8729 375.4424,650.9574 375.4303,640.0424 375.4182,629.1281 375.4062,618.2143 375.3943,607.3009 375.3824,596.3881 375.3706,585.4758 375.3589,574.5639 375.3472,563.6524 375.3356,552.7413 375.324,541.8306 375.3125,530.9202 375.301,520.0101 375.2896,509.1003 375.2783,498.1907 375.267,487.2814 375.2558,476.3723 375.2446,465.4634 375.2335,454.5546 375.2225,443.646 375.2115,432.7375 375.2006,421.829 375.1898,410.9206 375.179,400.0123 375.1682,389.1039 375.1575,378.1955 375.1469,367.287 375.1363,356.3785 375.1258,345.4699 375.1154,334.5611 375.105,323.6522 375.0947,312.7431 375.0844,301.8338 375.0742,290.9242 375.064,280.0144 375.0539,269.1043 375.0439,258.1939 375.0339,247.2832 375.024,236.3721 375.0142,225.4606 375.0044,214.5487 374.9946,203.6363 374.9849,192.7235 374.9753,181.8102 374.9657,170.8964 374.9562,159.982 374.9468,149.0671 374.9374,138.1515 374.9281,127.2354 374.9188,116.3185 374.9096,105.4011 374.9004,94.4829 374.8913,83.5639 374.8823,72.6443" stroke="silver" stroke-opacity="0.5" stroke-width="1" /><polyline fill="none" points="270.0432,727.7629 269.9766,716.8416 269.9104,705.9211 269.8445,695.0013 269.7789,684.0822 269.7136,673.1638 269.6487,662.246 269.5841,651.3288 269.5198,640.4123 269.4558,629.4963 269.3921,618.5808 269.3287,607.6659 269.2657,596.7514 269.203,585.8374 269.1405,574.9239 269.0785,564.0107 269.0167,553.098 268.9552,542.1856 268.8941,531.2736 268.8332,520.3618 268.7727,509.4504 268.7125,498.5391 268.6526,487.6282 268.5931,476.7174 268.5338,465.8068 268.4749,454.8964 268.4163,443.9861 268.3579,433.0759 268.2999,422.1658 268.2423,411.2557 268.1849,400.3456 268.1278,389.4356 268.0711,378.5255 268.0147,367.6153 267.9586,356.7051 267.9027,345.7948 267.8473,334.8843 267.7921,323.9737 267.7372,313.0629 267.6827,302.1519 267.6284,291.2406 267.5745,280.3291 267.5209,269.4173 267.4676,258.5052 267.4146,247.5928 267.3619,236.6799 267.3096,225.7667 267.2575,214.8531 267.2058,203.939 267.1543,193.0245 267.1032,182.1095 267.0524,171.1939 267.0019,160.2778 266.9518,149.3611 266.9019,138.4438 266.8523,127.5259 266.8031,116.6074 266.7541,105.6881 266.7055,94.7682 266.6572,83.8475 266.6092,72.9261" stroke="silver" stroke-opacity="0.5" stroke-width="1" /><polyline fill="none" points="164.5314,728.6689 164.4108,717.7438 164.2907,706.8195 164.1713,695.8958 164.0524,684.9729 163.9341,674.0506 163.8164,663.129 163.6992,652.208 163.5826,641.2876 163.4666,630.3677 163.3512,619.4484 163.2364,608.5296 163.1221,597.6113 163.0084,586.6934 162.8953,575.776 162.7827,564.8589 162.6708,553.9423 162.5593,543.026 162.4485,532.11 162.3383,521.1944 162.2286,510.279 162.1194,499.3638 162.0109,488.4489 161.9029,477.5342 161.7955,466.6197 161.6887,455.7053 161.5824,444.791 161.4767,433.8769 161.3716,422.9628 161.267,412.0487 161.163,401.1347 161.0596,390.2206 160.9568,379.3066 160.8545,368.3924 160.7528,357.4782 160.6516,346.5639 160.551,335.6494 160.451,324.7347 160.3516,313.8199 160.2527,302.9049 160.1544,291.9896 160.0566,281.074 159.9595,270.1582 159.8628,259.242 159.7668,248.3255 159.6713,237.4086 159.5764,226.4913 159.482,215.5736 159.3883,204.6555 159.295,193.7369 159.2024,182.8177 159.1103,171.8981 159.0188,160.9779 158.9278,150.0571 158.8374,139.1357 158.7476,128.2137 158.6583,117.291 158.5696,106.3676 158.4815,95.4435 158.3939,84.5187 158.3069,73.5932" stroke="silver" stroke-opacity="0.5" stroke-width="1" /><polyline fill="none" points="723.2896,729.822 713.1544,729.6704 702.5974,729.5176 692.0411,729.3701 681.4854,729.2279 670.9302,729.0909 660.3755,728.9591 649.8214,728.8326 639.2678,728.7113 628.7147,728.5952 618.162,728.4844 607.6098,728.3789 597.058,728.2785 586.5066,728.1834 575.9555,728.0936 565.4048,728.0089 554.8545,727.9295 544.3044,727.8554 533.7547,727.7865 523.2052,727.7228 512.656,727.6643 502.107,727.6111 491.5582,727.5631 481.0095,727.5203 470.4611,727.4828 459.9128,727.4504 449.3646,727.4234 438.8165,727.4015 428.2685,727.3849 417.7205,727.3735 407.1726,727.3673 396.6247,727.3664 386.0768,727.3707 375.5288,727.3802 364.9808,727.3949 354.4328,727.4149 343.8846,727.4401 333.3363,727.4705 322.7879,727.5062 312.2394,727.5471 301.6906,727.5932 291.1417,727.6445 280.5926,727.7011 270.0432,727.7629 259.4935,727.83 248.9436,727.9022 238.3933,727.9798 227.8428,728.0625 217.2919,728.1505 206.7406,728.2437 196.1889,728.3421 185.6368,728.4458 175.0843,728.5547 164.5314,728.6689 153.9779,728.7883 143.424,728.9129 132.8696,729.0428 122.3146,729.1779 111.759,729.3183 101.2029,729.4639 90.6462,729.6148 80.0888,729.7709 76.7104,729.822" stroke="silver" stroke-opacity="0.5" stroke-width="1" /><polyline fill="none" points="724.5929,642.4016 714.4167,642.2552 703.8171,642.1076 693.2181,641.9651 682.6198,641.8276 672.022,641.6953 661.4247,641.568 650.828,641.4457 640.2319,641.3285 629.6362,641.2164 619.0409,641.1093 608.4462,641.0073 597.8518,640.9104 587.2578,640.8185 576.6643,640.7317 566.0711,640.6499 555.4782,640.5732 544.8856,640.5016 534.2934,640.435 523.7014,640.3735 513.1097,640.317 502.5182,640.2655 491.9269,640.2192 481.3358,640.1778 470.7448,640.1416 460.154,640.1103 449.5634,640.0842 438.9728,640.0631 428.3823,640.047 417.7919,640.036 407.2015,640.03 396.6111,640.0291 386.0207,640.0333 375.4303,640.0424 364.8398,640.0567 354.2493,640.076 343.6586,640.1003 333.0679,640.1297 322.477,640.1642 311.8859,640.2037 301.2947,640.2483 290.7033,640.2979 280.1117,640.3525 269.5198,640.4123 258.9276,640.477 248.3352,640.5469 237.7424,640.6217 227.1493,640.7017 216.5559,640.7867 205.9621,640.8767 195.3679,640.9719 184.7732,641.072 174.1782,641.1773 163.5826,641.2876 152.9866,641.4029 142.3901,641.5234 131.7931,641.6489 121.1955,641.7794 110.5974,641.915 99.9986,642.0557 89.3993,642.2015 78.7993,642.3523 75.4071,642.4016" stroke="silver" stroke-opacity="0.5" stroke-width="1" /><polyline fill="none" points="725.8455,555.0169 715.6299,554.8756 704.9894,554.7332 694.3494,554.5958 683.7101,554.4632 673.0714,554.3355 662.4332,554.2127 651.7956,554.0948 641.1585,553.9818 630.5219,553.8736 619.8857,553.7704 609.2501,553.672 598.6148,553.5785 587.98,553.4899 577.3455,553.4061 566.7114,553.3272 556.0777,553.2533 545.4443,553.1842 534.8112,553.1199 524.1783,553.0606 513.5458,553.0061 502.9134,552.9565 492.2813,552.9117 481.6493,552.8719 471.0176,552.8369 460.3859,552.8068 449.7544,552.7815 439.123,552.7612 428.4917,552.7457 417.8604,552.7351 407.2292,552.7293 396.598,552.7284 385.9668,552.7324 375.3356,552.7413 364.7043,552.755 354.0729,552.7736 343.4414,552.7971 332.8098,552.8255 322.1781,552.8587 311.5462,552.8968 300.9142,552.9398 290.2819,552.9877 279.6494,553.0404 269.0167,553.098 258.3837,553.1605 247.7504,553.2278 237.1167,553.3001 226.4828,553.3772 215.8485,553.4591 205.2138,553.546 194.5787,553.6378 183.9432,553.7344 173.3072,553.8359 162.6708,553.9423 152.0338,554.0535 141.3964,554.1697 130.7584,554.2907 120.1199,554.4167 109.4808,554.5475 98.8411,554.6832 88.2007,554.8238 77.5598,554.9693 74.1545,555.0169" stroke="silver" stroke-opacity="0.5" stroke-width="1" /><polyline fill="none" points="727.0478,467.6543 716.7944,467.5183 706.1146,467.3812 695.4353,467.2489 684.7567,467.1212 674.0786,466.9983 663.4012,466.8801 652.7242,466.7665 642.0479,466.6577 631.372,466.5536 620.6966,466.4542 610.0217,466.3595 599.3472,466.2694 588.6731,466.1841 577.9994,466.1035 567.3261,466.0276 556.6531,465.9563 545.9805,465.8898 535.3082,465.8279 524.6361,465.7708 513.9643,465.7183 503.2928,465.6706 492.6214,465.6275 481.9503,465.5891 471.2793,465.5554 460.6085,465.5265 449.9378,465.5022 439.2672,465.4825 428.5967,465.4676 417.9263,465.4574 407.2559,465.4519 396.5855,465.451 385.9151,465.4549 375.2446,465.4634 364.5742,465.4766 353.9036,465.4946 343.233,465.5172 332.5622,465.5445 321.8913,465.5765 311.2202,465.6132 300.5489,465.6545 289.8775,465.7006 279.2058,465.7514 268.5338,465.8068 257.8616,465.867 247.1891,465.9318 236.5162,466.0014 225.843,466.0756 215.1695,466.1545 204.4956,466.2382 193.8212,466.3265 183.1464,466.4195 172.4712,466.5173 161.7955,466.6197 151.1193,466.7268 140.4426,466.8387 129.7653,466.9552 119.0875,467.0764 108.4091,467.2024 97.73,467.333 87.0504,467.4684 76.3701,467.6085 72.9522,467.6543" stroke="silver" stroke-opacity="0.5" stroke-width="1" /><polyline fill="none" points="728.1999,380.3007 717.9104,380.17 707.1928,380.0383 696.4759,379.9111 685.7596,379.7885 675.0439,379.6704 664.3287,379.5568 653.6142,379.4477 642.9002,379.3431 632.1866,379.243 621.4736,379.1475 610.7611,379.0565 600.049,378.97 589.3373,378.888 578.626,378.8105 567.9151,378.7376 557.2045,378.6691 546.4943,378.6052 535.7844,378.5458 525.0748,378.4908 514.3654,378.4404 503.6563,378.3945 492.9474,378.3532 482.2387,378.3163 471.5302,378.2839 460.8218,378.2561 450.1136,378.2327 439.4054,378.2139 428.6974,378.1995 417.9894,378.1897 407.2814,378.1844 396.5735,378.1836 385.8655,378.1873 375.1575,378.1955 364.4495,378.2082 353.7414,378.2254 343.0332,378.2471 332.3249,378.2734 321.6164,378.3041 310.9077,378.3394 300.1989,378.3791 289.4899,378.4234 278.7806,378.4722 268.0711,378.5255 257.3613,378.5833 246.6512,378.6456 235.9408,378.7124 225.23,378.7837 214.5188,378.8596 203.8073,378.94 193.0953,379.0248 182.3829,379.1142 171.6701,379.2081 160.9568,379.3066 150.2429,379.4095 139.5286,379.517 128.8136,379.6289 118.0981,379.7454 107.3821,379.8665 96.6654,379.992 85.948,380.1221 75.23,380.2567 71.8001,380.3007" stroke="silver" stroke-opacity="0.5" stroke-width="1" /><polyline fill="none" points="729.3021,292.9428 718.978,292.8175 708.2243,292.6912 697.4714,292.5693 686.719,292.4517 675.9673,292.3384 665.2161,292.2295 654.4655,292.1249 643.7155,292.0246 632.966,291.9287 622.217,291.8371 611.4684,291.7498 600.7203,291.6669 589.9727,291.5882 579.2254,291.514 568.4785,291.444 557.732,291.3784 546.9859,291.3171 536.24,291.2601 525.4944,291.2074 514.7491,291.1591 504.0041,291.1151 493.2592,291.0754 482.5146,291.0401 471.7702,291.009 461.0259,290.9823 450.2817,290.9599 439.5376,290.9419 428.7936,290.9281 418.0497,290.9187 407.3058,290.9136 396.562,290.9128 385.8181,290.9164 375.0742,290.9242 364.3302,290.9364 353.5862,290.9529 342.8421,290.9738 332.0978,290.9989 321.3534,291.0284 310.6088,291.0622 299.8641,291.1003 289.1191,291.1428 278.3739,291.1895 267.6284,291.2406 256.8827,291.2961 246.1366,291.3558 235.3902,291.4199 224.6435,291.4883 213.8964,291.561 203.1489,291.6381 192.4009,291.7194 181.6526,291.8052 170.9037,291.8952 160.1544,291.9896 149.4045,292.0883 138.6542,292.1913 127.9032,292.2987 117.1517,292.4104 106.3996,292.5264 95.6468,292.6468 84.8934,292.7715 74.1393,292.9006 70.6979,292.9428" stroke="silver" stroke-opacity="0.5" stroke-width="1" /><polyline fill="none" points="730.3545,205.5674 719.9973,205.4475 709.2092,205.3267 698.4218,205.21 687.6351,205.0975 676.8489,204.9892 666.0634,204.885 655.2784,204.7849 644.494,204.689 633.7101,204.5972 622.9267,204.5096 612.1438,204.4261 601.3614,204.3468 590.5794,204.2716 579.7978,204.2005 569.0166,204.1336 558.2357,204.0708 547.4552,204.0121 536.675,203.9576 525.8951,203.9073 515.1155,203.861 504.3361,203.8189 493.557,203.781 482.7781,203.7472 471.9993,203.7175 461.2207,203.6919 450.4422,203.6705 439.6638,203.6532 428.8856,203.6401 418.1073,203.6311 407.3292,203.6262 396.551,203.6254 385.7728,203.6288 374.9946,203.6363 364.2164,203.648 353.438,203.6638 342.6596,203.6837 331.881,203.7078 321.1023,203.736 310.3234,203.7683 299.5444,203.8048 288.7651,203.8454 277.9856,203.8902 267.2058,203.939 256.4257,203.9921 245.6453,204.0492 234.8646,204.1105 224.0835,204.1759 213.3021,204.2455 202.5202,204.3192 191.7379,204.3971 180.9552,204.4791 170.172,204.5652 159.3883,204.6555 148.604,204.7499 137.8193,204.8485 127.0339,204.9512 116.248,205.0581 105.4615,205.1691 94.6743,205.2842 83.8865,205.4035 73.0979,205.527 69.6455,205.5674" stroke="silver" stroke-opacity="0.5" stroke-width="1" /><polyline fill="none" points="731.3573,118.1611 720.9685,118.0467 710.1477,117.9314 699.3275,117.8201 688.5079,117.7128 677.689,117.6094 666.8707,117.51 656.0529,117.4145 645.2357,117.323 634.4191,117.2354 623.603,117.1518 612.7873,117.0721 601.9721,116.9964 591.1574,116.9247 580.3431,116.8568 569.5292,116.793 558.7156,116.7331 547.9024,116.6771 537.0895,116.6251 526.2769,116.5771 515.4646,116.5329 504.6525,116.4928 493.8407,116.4566 483.0291,116.4243 472.2176,116.3959 461.4063,116.3716 450.5951,116.3511 439.7841,116.3346 428.9731,116.3221 418.1622,116.3135 407.3514,116.3088 396.5405,116.3081 385.7297,116.3114 374.9188,116.3185 364.1079,116.3297 353.2968,116.3447 342.4857,116.3638 331.6745,116.3867 320.8631,116.4136 310.0515,116.4445 299.2398,116.4793 288.4278,116.518 277.6156,116.5607 266.8031,116.6074 255.9903,116.6579 245.1772,116.7125 234.3638,116.771 223.55,116.8334 212.7358,116.8998 201.9212,116.9701 191.1062,117.0444 180.2907,117.1226 169.4748,117.2048 158.6583,117.291 147.8413,117.3811 137.0238,117.4751 126.2057,117.5731 115.387,117.6751 104.5677,117.781 93.7477,117.8909 82.9271,118.0048 72.1057,118.1226 68.6427,118.1611" stroke="silver" stroke-opacity="0.5" stroke-width="1" /><circle cx="729.8485" cy="219.1955" fill="black" r="0.738" stroke="none" /><circle cx="719.4022" cy="565.3262" fill="black" r="0.738" stroke="none" /><circle cx="714.2379" cy="365.0111" fill="black" r="0.738" stroke="none" /><circle cx="707.5366" cy="655.1831" fill="black" r="1.17" stroke="none" /><circle cx="711.3228" cy="162.001" fill="black" r="0.738" stroke="none" /><circle cx="703.2356" cy="222.9128" fill="black" r="0.738" stroke="none" /><circle cx="694.1191" cy="599.0675" fill="black" r="0.738" stroke="none" /><circle cx="693.8178" cy="105.9635" fill="black" r="0.738" stroke="none" /><circle cx="682.5173" cy="468.6673" fill="black" r="0.738" stroke="none" /><circle cx="683.9049" cy="137.2472" fill="black" r="0.738" stroke="none" /><circle cx="667.3449" cy="607.2985" fill="black" r="0.738" stroke="none" /><circle cx="665.4198" cy="340.2678" fill="black" r="0.738" stroke="none" /><circle cx="650.6513" cy="619.4257" fill="black" r="0.738" stroke="none" /><circle cx="646.8953" cy="598.1548" fill="black" r="0.738" stroke="none" /><circle cx="647.6235" cy="287.9559" fill="black" r="0.738" stroke="none" /><circle cx="645.6677" cy="420.6737" fill="black" r="0.738" stroke="none" /><circle cx="643.6714" cy="397.1643" fill="black" r="0.738" stroke="none" /><circle cx="633.523" cy="500.1067" fill="black" r="0.738" stroke="none" /><circle cx="636.2608" cy="178.0623" fill="black" r="0.738" stroke="none" /><circle cx="632.6179" cy="522.8034" fill="black" r="0.738" stroke="none" /><circle cx="626.3692" cy="106.1621" fill="black" r="0.738" stroke="none" /><circle cx="615.1916" cy="211.9607" fill="black" r="0.738" stroke="none" /><circle cx="606.6768" cy="437.6933" fill="black" r="0.738" stroke="none" /><circle cx="601.9829" cy="457.3858" fill="black" r="0.936" stroke="none" /><circle cx="602.1702" cy="150.9832" fill="black" r="0.738" stroke="none" /><circle cx="588.71" cy="93.4924" fill="black" r="0.738" stroke="none" /><circle cx="588.0212" cy="212.7255" fill="black" r="0.738" stroke="none" /><circle cx="581.1662" cy="245.6008" fill="black" r="0.738" stroke="none" /><circle cx="578.7155" cy="316.1304" fill="black" r="0.738" stroke="none" /><circle cx="573.3221" cy="522.2927" fill="black" r="0.738" stroke="none" /><circle cx="571.0869" cy="571.3465" fill="black" r="0.738" stroke="none" /><circle cx="568.5094" cy="632.0214" fill="black" r="0.738" stroke="none" /><circle cx="556.9756" cy="198.0384" fill="black" r="0.738" stroke="none" /><circle cx="552.2865" cy="281.3946" fill="black" r="0.738" stroke="none" /><circle cx="551.2488" cy="414.4211" fill="black" r="1.17" stroke="none" /><circle cx="534.2267" cy="719.8383" fill="black" r="0.738" stroke="none" /><circle cx="533.091" cy="614.6658" fill="black" r="0.738" stroke="none" /><circle cx="532.6085" cy="521.5047" fill="black" r="0.738" stroke="none" /><circle cx="529.2114" cy="504.0272" fill="black" r="0.936" stroke="none" /><circle cx="520.2128" cy="391.9958" fill="black" r="0.936" stroke="none" /><circle cx="519.7123" cy="177.2482" fill="black" r="0.738" stroke="none" /><circle cx="509.1324" cy="532.7323" fill="black" r="0.738" stroke="none" /><circle cx="505.9169" cy="390.9718" fill="black" r="0.936" stroke="none" /><circle cx="499.0359" cy="286.3827" fill="black" r="0.738" stroke="none" /><circle cx="495.6545" cy="341.5325" fill="black" r="0.738" stroke="none" /><circle cx="493.335" cy="342.3968" fill="black" r="0.738" stroke="none" /><circle cx="476.3686" cy="703.7415" fill="black" r="0.738" stroke="none" /><circle cx="474.4684" cy="215.5971" fill="black" r="0.738" stroke="none" /><circle cx="470.8222" cy="504.7418" fill="black" r="0.738" stroke="none" /><circle cx="470.7137" cy="454.5572" fill="black" r="0.738" stroke="none" /><circle cx="471.3106" cy="203.2792" fill="black" r="0.738" stroke="none" /><circle cx="468.9512" cy="349.7388" fill="black" r="0.738" stroke="none" /><circle cx="466.7018" cy="390.0524" fill="black" r="0.738" stroke="none" /><circle cx="461.9156" cy="161.6967" fill="black" r="1.17" stroke="none" /><circle cx="450.752" cy="524.2413" fill="black" r="0.738" stroke="none" /><circle cx="448.5026" cy="581.7602" fill="black" r="0.738" stroke="none" /><circle cx="447.416" cy="156.7793" fill="black" r="0.738" stroke="none" /><circle cx="442.5613" cy="386.4222" fill="black" r="0.738" stroke="none" /><circle cx="438.1881" cy="146.4617" fill="black" r="0.936" stroke="none" /><circle cx="436.716" cy="79.208" fill="black" r="0.936" stroke="none" /><circle cx="428.9867" cy="102.4349" fill="black" r="0.936" stroke="none" /><circle cx="427.3605" cy="501.5974" fill="black" r="0.738" stroke="none" /><circle cx="421.0308" cy="325.1324" fill="black" r="0.738" stroke="none" /><circle cx="414.9767" cy="540.3385" fill="black" r="0.738" stroke="none" /><circle cx="404.8493" cy="78.8367" fill="black" r="0.738" stroke="none" /><circle cx="400.3446" cy="230.1631" fill="black" r="0.738" stroke="none" /><circle cx="390.4065" cy="380.3668" fill="black" r="0.738" stroke="none" /><circle cx="389.8027" cy="139.7144" fill="black" r="0.738" stroke="none" /><circle cx="387.2388" cy="204.0646" fill="black" r="0.738" stroke="none" /><circle cx="386.4235" cy="120.4158" fill="black" r="0.738" stroke="none" /><circle cx="382.3087" cy="436.2221" fill="black" r="0.738" stroke="none" /><circle cx="381.0135" cy="727.1125" fill="black" r="0.738" stroke="none" /><circle cx="378.1725" cy="187.5699" fill="black" r="0.738" stroke="none" /><circle cx="376.3883" cy="500.0224" fill="black" r="0.738" stroke="none" /><circle cx="366.0305" cy="342.9494" fill="black" r="0.738" stroke="none" /><circle cx="364.0925" cy="596.5778" fill="black" r="0.738" stroke="none" /><circle cx="353.7031" cy="662.432" fill="black" r="0.738" stroke="none" /><circle cx="351.7952" cy="250.6312" fill="black" r="0.738" stroke="none" /><circle cx="351.547" cy="395.4215" fill="black" r="0.738" stroke="none" /><circle cx="348.0165" cy="255.2644" fill="black" r="0.738" stroke="none" /><circle cx="343.8394" cy="394.1284" fill="black" r="0.738" stroke="none" /><circle cx="341.8902" cy="544.6831" fill="black" r="0.738" stroke="none" /><circle cx="328.4161" cy="197.5177" fill="black" r="0.738" stroke="none" /><circle cx="324.2923" cy="699.4589" fill="black" r="0.738" stroke="none" /><circle cx="312.1356" cy="435.2378" fill="black" r="0.738" stroke="none" /><circle cx="312.6007" cy="691.9037" fill="black" r="0.738" stroke="none" /><circle cx="308.9323" cy="470.1601" fill="black" r="0.738" stroke="none" /><circle cx="305.5297" cy="108.8594" fill="black" r="0.738" stroke="none" /><circle cx="303.7628" cy="275.6362" fill="black" r="0.738" stroke="none" /><circle cx="290.9908" cy="447.3667" fill="black" r="0.738" stroke="none" /><circle cx="289.856" cy="640.3021" fill="black" r="0.738" stroke="none" /><circle cx="275.3193" cy="105.3017" fill="black" r="0.738" stroke="none" /><circle cx="276.1161" cy="428.7589" fill="black" r="0.738" stroke="none" /><circle cx="271.3018" cy="550.9899" fill="black" r="0.738" stroke="none" /><circle cx="259.8395" cy="281.3286" fill="black" r="0.738" stroke="none" /><circle cx="251.7282" cy="76.927" fill="black" r="0.738" stroke="none" /><circle cx="243.0185" cy="557.9742" fill="black" r="0.738" stroke="none" /><circle cx="239.5455" cy="419.8907" fill="black" r="0.738" stroke="none" /><circle cx="239.0564" cy="383.5808" fill="black" r="0.738" stroke="none" /><circle cx="227.0166" cy="190.1849" fill="black" r="0.738" stroke="none" /><circle cx="215.0919" cy="227.0263" fill="black" r="0.738" stroke="none" /><circle cx="211.5917" cy="499.9696" fill="black" r="0.738" stroke="none" /><circle cx="212.9224" cy="701.4481" fill="black" r="0.738" stroke="none" /><circle cx="201.404" cy="276.6328" fill="black" r="0.738" stroke="none" /><circle cx="198.5848" cy="379.5919" fill="black" r="0.936" stroke="none" /><circle cx="186.2261" cy="171.2462" fill="black" r="0.738" stroke="none" /><circle cx="189.3692" cy="643.0372" fill="black" r="0.738" stroke="none" /><circle cx="188.0505" cy="499.556" fill="black" r="0.738" stroke="none" /><circle cx="182.243" cy="247.6136" fill="black" r="0.738" stroke="none" /><circle cx="179.2435" cy="184.1402" fill="black" r="0.738" stroke="none" /><circle cx="178.0694" cy="166.3287" fill="black" r="0.738" stroke="none" /><circle cx="178.346" cy="659.4826" fill="black" r="0.936" stroke="none" /><circle cx="157.1962" cy="297.6928" fill="black" r="0.738" stroke="none" /><circle cx="155.2847" cy="341.7238" fill="black" r="0.738" stroke="none" /><circle cx="152.7694" cy="418.4187" fill="black" r="0.738" stroke="none" /><circle cx="148.3437" cy="702.0179" fill="black" r="0.738" stroke="none" /><circle cx="130.4692" cy="573.2511" fill="black" r="0.738" stroke="none" /><circle cx="121.747" cy="336.5589" fill="black" r="0.738" stroke="none" /><circle cx="124.2457" cy="557.7743" fill="black" r="0.738" stroke="none" /><circle cx="118.1359" cy="142.5588" fill="black" r="0.738" stroke="none" /><circle cx="120.3395" cy="380.8561" fill="black" r="0.738" stroke="none" /><circle cx="122.0286" cy="694.0364" fill="black" r="0.738" stroke="none" /><circle cx="116.4167" cy="238.5187" fill="black" r="2.322" stroke="none" /><circle cx="110.3317" cy="105.2235" fill="black" r="0.738" stroke="none" /><circle cx="109.9591" cy="172.3535" fill="black" r="0.738" stroke="none" /><circle cx="106.1133" cy="336.2938" fill="black" r="0.738" stroke="none" /><circle cx="103.1915" cy="74.8675" fill="black" r="0.738" stroke="none" /><circle cx="105.2502" cy="654.3093" fill="black" r="0.738" stroke="none" /><circle cx="89.9861" cy="548.2465" fill="black" r="0.738" stroke="none" /><circle cx="84.0692" cy="273.909" fill="black" r="0.738" stroke="none" /><circle cx="81.4" cy="152.7274" fill="black" r="0.738" stroke="none" /><circle cx="13.77" cy="786.23" fill="black" r="4.59" stroke="none" /><circle cx="13.77" cy="786.23" fill="black" r="4.59" stroke="none" /><text fill="black" font-family="monospace" font-size="12" x="10.77" y="775.64">1</text><circle cx="37.77" cy="786.23" fill="black" r="3.654" stroke="none" /><circle cx="37.77" cy="786.23" fill="black" r="3.654" stroke="none" /><text fill="black" font-family="monospace" font-size="12" x="34.769999999999996" y="775.64">2</text><circle cx="61.77" cy="786.23" fill="black" r="2.916" stroke="none" /><circle cx="61.77" cy="786.23" fill="black" r="2.916" stroke="none" /><text fill="black" font-family="monospace" font-size="12" x="58.769999999999996" y="775.64">3</text><circle cx="85.77" cy="786.23" fill="black" r="2.322" stroke="none" /><circle cx="85.77" cy="786.23" fill="black" r="2.322" stroke="none" /><text fill="black" font-family="monospace" font-size="12" x="82.77" y="775.64">4</text><circle cx="109.77" cy="786.23" fill="black" r="1.854" stroke="none" /><circle cx="109.77" cy="786.23" fill="black" r="1.854" stroke="none" /><text fill="black" font-family="monospace" font-size="12" x="106.77" y="775.64">5</text><circle cx="133.77" cy="786.23" fill="black" r="1.476" stroke="none" /><circle cx="133.77" cy="786.23" fill="black" r="1.476" stroke="none" /><text fill="black" font-family="monospace" font-size="12" x="130.77" y="775.64">6</text><circle cx="157.77" cy="786.23" fill="black" r="1.17" stroke="none" /><circle cx="157.77" cy="786.23" fill="black" r="1.17" stroke="none" /><text fill="black" font-family="monospace" font-size="12" x="154.77" y="775.64">7</text><circle cx="181.77" cy="786.23" fill="black" r="0.936" stroke="none" /><circle cx="181.77" cy="786.23" fill="black" r="0.936" stroke="none" /><text fill="black" font-family="monospace" font-size="12" x="178.77" y="775.64">8</text><circle cx="205.77" cy="786.23" fill="black" r="0.738" stroke="none" /><circle cx="205.77" cy="786.23" fill="black" r="0.738" stroke="none" /><text fill="black" font-family="monospace" font-size="12" x="202.77" y="775.64">9</text><text fill="gray" fill-opacity="0.5" font-family="monospace" font-size="12" x="699.7634646641125" y="74.10952012187755">14h50m</text><text fill="gray" fill-opacity="0.5" font-family="monospace" font-size="12" x="591.4357072533892" y="73.23570399565875">14h55m</text><text fill="gray" fill-opacity="0.5" font-family="monospace" font-size="12" x="483.1498939619474" y="72.74743147306981">15h00m</text><text fill="gray" fill-opacity="0.5" font-family="monospace" font-size="12" x="374.8822943199819" y="72.64425606383145">15h05m</text><text fill="gray" fill-opacity="0.5" font-family="monospace" font-size="12" x="266.6091930478935" y="72.9260834455522">15h10m</text><text fill="gray" fill-opacity="0.5" font-family="monospace" font-size="12" x="158.30687027805433" y="73.5931712831889">15h15m</text><text fill="gray" fill-opacity="0.5" font-family="monospace" font-size="12" x="76.71035069797495" y="729.8219665440616">-15°</text><text fill="gray" fill-opacity="0.5" font-family="monospace" font-size="12" x="75.40714312416856" y="642.4016498613714">-14°</text><text fill="gray" fill-opacity="0.5" font-family="monospace" font-size="12" x="74.15451755678691" y="555.0168519113298">-13°</text><text fill="gray" fill-opacity="0.5" font-family="monospace" font-size="12" x="72.95223276131458" y="467.65429096855854">-12°</text><text fill="gray" fill-opacity="0.5" font-family="monospace" font-size="12" x="71.80007815861342" y="380.30069879479095">-11°</text><text fill="gray" fill-opacity="0.5" font-family="monospace" font-size="12" x="70.69787367159438" y="292.9428125892501">-10°</text><text fill="gray" fill-opacity="0.5" font-family="monospace" font-size="12" x="69.64546961131464" y="205.56736694601938">-9°</text><text fill="gray" fill-opacity="0.5" font-family="monospace" font-size="12" x="68.64274660234406" y="118.16108580806116">-8°</text><text fill="black" font-family="monospace" font-size="12" x="12" y="48">&gt;&gt; No.343 14h49m 15h19m -15.0°-7.5°</text><a target="_self" xlink:href="hip019.svg"><text fill="black" font-family="monospace" font-size="12" x="12" y="36">&gt; No.19 13h20m 16h00m -22.5°+0.0°</text></a><a target="_self" xlink:href="hip001.svg"><text fill="black" font-family="monospace" font-size="12" x="12" y="24">No.1 00h 24h -90.0°+0.0°</text></a><polyline fill="none" points="731.84,74.4422 721.4361,74.3306 710.5995,74.2181 699.7635,74.1095 688.9281,74.0048 678.0934,73.9039 667.2593,73.8069 656.4258,73.7137 645.5929,73.6244 634.7604,73.5389 623.9285,73.4573 613.0971,73.3796 602.2662,73.3057 591.4357,73.2357 580.6056,73.1695 569.7759,73.1072 558.9466,73.0488 548.1177,72.9942 537.289,72.9434 526.4607,72.8965 515.6326,72.8535 504.8048,72.8143 493.9773,72.7789 483.1499,72.7474 472.3227,72.7198 461.4957,72.696 450.6688,72.6761 439.842,72.66 429.0153,72.6477 418.1887,72.6393 407.3621,72.6348 396.5355,72.6341 385.7089,72.6372 374.8823,72.6443 364.0556,72.6551 353.2289,72.6698 342.402,72.6884 331.575,72.7108 320.7479,72.737 309.9206,72.7671 299.0931,72.8011 288.2654,72.8389 277.4374,72.8806 266.6092,72.9261 255.7807,72.9754 244.9518,73.0287 234.1226,73.0857 223.2931,73.1467 212.4632,73.2114 201.6328,73.2801 190.802,73.3526 179.9708,73.4289 169.1391,73.5091 158.3069,73.5932 147.4741,73.6811 136.6408,73.7729 125.8069,73.8685 114.9724,73.968 104.1373,74.0714 93.3016,74.1786 82.4651,74.2897 71.628,74.4046 68.16,74.4422" stroke="black" stroke-opacity="0.5" stroke-width="1" /><polyline fill="none" points="723.2896,729.822 723.4553,718.892 723.6202,707.9628 723.7843,697.0343 723.9476,686.1065 724.1101,675.1794 724.2718,664.2529 724.4327,653.327 724.5929,642.4016 724.7522,631.4769 724.9107,620.5526 725.0685,609.6289 725.2255,598.7056 725.3817,587.7828 725.5371,576.8604 725.6917,565.9385 725.8455,555.0169 725.9985,544.0956 726.1508,533.1746 726.3022,522.254 726.4529,511.3336 726.6028,500.4135 726.7519,489.4936 726.9002,478.5738 727.0478,467.6543 727.1945,456.7349 727.3405,445.8156 727.4857,434.8964 727.6301,423.9772 727.7737,413.0581 727.9166,402.139 728.0586,391.2199 728.1999,380.3007 728.3404,369.3815 728.4801,358.4621 728.6191,347.5427 728.7573,336.6231 728.8946,325.7034 729.0312,314.7834 729.1671,303.8632 729.3021,292.9428 729.4364,282.0221 729.5699,271.1011 729.7026,260.1798 729.8345,249.2581 729.9657,238.3361 730.0961,227.4136 730.2257,216.4907 730.3545,205.5674 730.4826,194.6435 730.6099,183.7192 730.7364,172.7943 730.8621,161.8689 730.987,150.9429 731.1112,140.0163 731.2346,129.089 731.3573,118.1611 731.4791,107.2325 731.6002,96.3031 731.7205,85.3731 731.84,74.4422" stroke="black" stroke-opacity="0.5" stroke-width="1" /><polyline fill="none" points="723.2896,729.822 713.1544,729.6704 702.5974,729.5176 692.0411,729.3701 681.4854,729.2279 670.9302,729.0909 660.3755,728.9591 649.8214,728.8326 639.2678,728.7113 628.7147,728.5952 618.162,728.4844 607.6098,728.3789 597.058,728.2785 586.5066,728.1834 575.9555,728.0936 565.4048,728.0089 554.8545,727.9295 544.3044,727.8554 533.7547,727.7865 523.2052,727.7228 512.656,727.6643 502.107,727.6111 491.5582,727.5631 481.0095,727.5203 470.4611,727.4828 459.9128,727.4504 449.3646,727.4234 438.8165,727.4015 428.2685,727.3849 417.7205,727.3735 407.1726,727.3673 396.6247,727.3664 386.0768,727.3707 375.5288,727.3802 364.9808,727.3949 354.4328,727.4149 343.8846,727.4401 333.3363,727.4705 322.7879,727.5062 312.2394,727.5471 301.6906,727.5932 291.1417,727.6445 280.5926,727.7011 270.0432,727.7629 259.4935,727.83 248.9436,727.9022 238.3933,727.9798 227.8428,728.0625 217.2919,728.1505 206.7406,728.2437 196.1889,728.3421 185.6368,728.4458 175.0843,728.5547 164.5314,728.6689 153.9779,728.7883 143.424,728.9129 132.8696,729.0428 122.3146,729.1779 111.759,729.3183 101.2029,729.4639 90.6462,729.6148 80.0888,729.7709 76.7104,729.822" stroke="black" stroke-opacity="0.5" stroke-width="1" /><polyline fill="none" points="76.7104,729.822 76.5447,718.892 76.3798,707.9628 76.2157,697.0343 76.0524,686.1065 75.8899,675.1794 75.7282,664.2529 75.5673,653.327 75.4071,642.4016 75.2478,631.4769 75.0893,620.5526 74.9315,609.6289 74.7745,598.7056 74.6183,587.7828 74.4629,576.8604 74.3083,565.9385 74.1545,555.0169 74.0015,544.0956 73.8492,533.1746 73.6978,522.254 73.5471,511.3336 73.3972,500.4135 73.2481,489.4936 73.0998,478.5738 72.9522,467.6543 72.8055,456.7349 72.6595,445.8156 72.5143,434.8964 72.3699,423.9772 72.2263,413.0581 72.0834,402.139 71.9414,391.2199 71.8001,380.3007 71.6596,369.3815 71.5199,358.4621 71.3809,347.5427 71.2427,336.6231 71.1054,325.7034 70.9688,314.7834 70.8329,303.8632 70.6979,292.9428 70.5636,282.0221 70.4301,271.1011 70.2974,260.1798 70.1655,249.2581 70.0343,238.3361 69.9039,227.4136 69.7743,216.4907 69.6455,205.5674 69.5174,194.6435 69.3901,183.7192 69.2636,172.7943 69.1379,161.8689 69.013,150.9429 68.8888,140.0163 68.7654,129.089 68.6427,118.1611 68.5209,107.2325 68.3998,96.3031 68.2795,85.3731 68.16,74.4422" stroke="black" stroke-opacity="0.5" stroke-width="1" /></svg>