<?xml version="1.0" encoding="utf-8" ?>
<svg baseProfile="tiny" height="800" version="1.2" width="800" xmlns="http://www.w3.org/2000/svg" xmlns:ev="http://www.w3.org/2001/xml-events" xmlns:xlink="http://www.w3.org/1999/xlink"><defs /><rect fill="none" height="800" stroke="black" stroke-width="2" width="800" x="0" y="0" /><polyline fill="none" points="627.0262,728.5771 627.1425,717.6524 627.2582,706.7285 627.3734,695.8052 627.488,684.8827 627.6021,673.9608 627.7156,663.0396 627.8285,652.119 627.9409,641.1989 628.0527,630.2795 628.164,619.3605 628.2747,608.4421 628.3849,597.5242 628.4945,586.6067 628.6036,575.6897 628.7121,564.773 628.8201,553.8568 628.9275,542.9409 629.0343,532.0253 629.1406,521.11 629.2464,510.1951 629.3516,499.2803 629.4562,488.3658 629.5603,477.4515 629.6639,466.5374 629.7669,455.6234 629.8693,444.7095 629.9712,433.7958 630.0726,422.8821 630.1734,411.9684 630.2737,401.0548 630.3734,390.1411 630.4725,379.2275 630.5711,368.3137 630.6692,357.3999 630.7667,346.486 630.8637,335.5719 630.9601,324.6577 631.056,313.7432 631.1513,302.8286 631.2461,291.9137 631.3403,280.9986 631.434,270.0832 631.5272,259.1674 631.6198,248.2513 631.7118,237.3348 631.8033,226.418 631.8943,215.5007 631.9847,204.5829 632.0746,193.6647 632.1639,182.746 632.2527,171.8268 632.341,160.907 632.4287,149.9866 632.5158,139.0656 632.6024,128.144 632.6885,117.2218 632.774,106.2988 632.859,95.3752 632.9434,84.4508 633.0273,73.5256" stroke="silver" stroke-opacity="0.5" stroke-width="1" /><polyline fill="none" points="521.5173,727.7131 521.5795,716.792 521.6414,705.8717 521.7031,694.9521 521.7644,684.0332 521.8254,673.115 521.8861,662.1974 521.9466,651.2804 522.0067,640.3641 522.0665,629.4483 522.1261,618.533 522.1853,607.6183 522.2443,596.7041 522.3029,585.7903 522.3613,574.877 522.4193,563.964 522.4771,553.0515 522.5346,542.1393 522.5918,531.2275 522.6486,520.316 522.7052,509.4047 522.7615,498.4938 522.8175,487.583 522.8732,476.6725 522.9286,465.7621 522.9837,454.8519 523.0385,443.9418 523.0931,433.0318 523.1473,422.1219 523.2012,411.212 523.2549,400.3022 523.3082,389.3923 523.3613,378.4825 523.414,367.5726 523.4665,356.6626 523.5187,345.7524 523.5706,334.8422 523.6222,323.9318 523.6734,313.0212 523.7245,302.1104 523.7752,291.1994 523.8256,280.2881 523.8757,269.3765 523.9256,258.4647 523.9751,247.5524 524.0244,236.6398 524.0733,225.7268 524.122,214.8134 524.1704,203.8996 524.2185,192.9853 524.2663,182.0705 524.3138,171.1551 524.361,160.2393 524.4079,149.3228 524.4545,138.4057 524.5009,127.4881 524.5469,116.5697 524.5927,105.6507 524.6381,94.731 524.6833,83.8106 524.7282,72.8894" stroke="silver" stroke-opacity="0.5" stroke-width="1" /><polyline fill="none" points="416.0328,727.3721 416.041,716.4525 416.0492,705.5336 416.0573,694.6155 416.0654,683.698 416.0735,672.7812 416.0815,661.8651 416.0895,650.9496 416.0974,640.0347 416.1053,629.1204 416.1131,618.2066 416.121,607.2933 416.1287,596.3805 416.1365,585.4682 416.1442,574.5563 416.1518,563.6449 416.1594,552.7338 416.167,541.8231 416.1746,530.9127 416.1821,520.0027 416.1895,509.0929 416.197,498.1834 416.2044,487.2741 416.2117,476.3651 416.219,465.4562 416.2263,454.5475 416.2335,443.6389 416.2407,432.7304 416.2479,421.822 416.255,410.9136 416.262,400.0053 416.2691,389.0969 416.2761,378.1886 416.283,367.2801 416.29,356.3716 416.2969,345.463 416.3037,334.5543 416.3105,323.6454 416.3173,312.7364 416.324,301.8271 416.3307,290.9176 416.3373,280.0078 416.344,269.0978 416.3505,258.1874 416.3571,247.2767 416.3636,236.3656 416.37,225.4542 416.3764,214.5423 416.3828,203.63 416.3892,192.7172 416.3955,181.8039 416.4017,170.8902 416.408,159.9758 416.4142,149.0609 416.4203,138.1454 416.4264,127.2293 416.4325,116.3125 416.4385,105.395 416.4445,94.4769 416.4505,83.558 416.4564,72.6383" stroke="silver" stroke-opacity="0.5" stroke-width="1" /><polyline fill="none" points="310.5516,727.5541 310.5058,716.6337 310.4602,705.714 310.4149,694.7951 310.3697,683.8769 310.3248,672.9593 310.2801,662.0424 310.2356,651.1262 310.1914,640.2105 310.1473,629.2954 310.1035,618.3808 310.0599,607.4668 310.0165,596.5532 309.9733,585.6401 309.9304,574.7275 309.8876,563.8152 309.8451,552.9034 309.8028,541.9919 309.7607,531.0807 309.7189,520.1699 309.6772,509.2593 309.6358,498.3491 309.5946,487.439 309.5536,476.5291 309.5128,465.6195 309.4722,454.7099 309.4319,443.8005 309.3918,432.8912 309.3518,421.982 309.3121,411.0729 309.2727,400.1637 309.2334,389.2546 309.1943,378.3454 309.1555,367.4362 309.1169,356.5269 309.0785,345.6175 309.0403,334.708 309.0023,323.7983 308.9646,312.8884 308.927,301.9783 308.8897,291.068 308.8526,280.1574 308.8157,269.2466 308.779,258.3354 308.7425,247.4239 308.7063,236.512 308.6702,225.5997 308.6344,214.687 308.5988,203.7739 308.5634,192.8603 308.5282,181.9462 308.4933,171.0316 308.4585,160.1164 308.424,149.2007 308.3897,138.2843 308.3556,127.3674 308.3217,116.4498 308.288,105.5315 308.2545,94.6125 308.2213,83.6928 308.1882,72.7723" stroke="silver" stroke-opacity="0.5" stroke-width="1" /><polyline fill="none" points="205.0523,728.2591 204.9525,717.3357 204.8531,706.4131 204.7543,695.4912 204.6559,684.57 204.5579,673.6495 204.4605,662.7296 204.3635,651.8103 204.267,640.8916 204.171,629.9735 204.0755,619.0559 203.9804,608.1389 203.8858,597.2223 203.7917,586.3062 203.698,575.3905 203.6049,564.4752 203.5122,553.5604 203.42,542.6458 203.3282,531.7316 203.237,520.8178 203.1462,509.9041 203.0558,498.9908 202.966,488.0777 202.8766,477.1647 202.7877,466.252 202.6993,455.3394 202.6113,444.4269 202.5238,433.5145 202.4368,422.6022 202.3502,411.69 202.2642,400.7777 202.1785,389.8655 202.0934,378.9532 202.0087,368.0409 201.9245,357.1285 201.8408,346.216 201.7576,335.3033 201.6748,324.3905 201.5925,313.4775 201.5106,302.5643 201.4292,291.6508 201.3483,280.7371 201.2679,269.8231 201.1879,258.9087 201.1084,247.994 201.0294,237.079 200.9508,226.1636 200.8727,215.2477 200.7951,204.3314 200.7179,193.4146 200.6412,182.4973 200.565,171.5795 200.4892,160.6612 200.4139,149.7423 200.3391,138.8227 200.2647,127.9026 200.1908,116.9817 200.1174,106.0602 200.0444,95.138 199.972,84.2151 199.8999,73.2914" stroke="silver" stroke-opacity="0.5" stroke-width="1" /><polyline fill="none" points="99.5139,729.4877 99.3599,718.5592 99.2067,707.6314 99.0542,696.7043 98.9024,685.7779 98.7514,674.8522 98.6011,663.9271 98.4516,653.0026 98.3028,642.0787 98.1547,631.1554 98.0073,620.2325 97.8607,609.3102 97.7149,598.3884 97.5697,587.467 97.4253,576.5461 97.2816,565.6255 97.1387,554.7054 96.9964,543.7855 96.855,532.866 96.7142,521.9468 96.5742,511.0279 96.4349,500.1092 96.2963,489.1908 96.1585,478.2725 96.0213,467.3544 95.885,456.4364 95.7493,445.5186 95.6144,434.6008 95.4802,423.6831 95.3467,412.7655 95.2139,401.8479 95.0819,390.9302 94.9506,380.0125 94.82,369.0948 94.6902,358.1769 94.5611,347.259 94.4327,336.3409 94.305,325.4226 94.178,314.5041 94.0518,303.5854 93.9263,292.6665 93.8015,281.7473 93.6775,270.8278 93.5541,259.9079 93.4315,248.9878 93.3096,238.0672 93.1885,227.1463 93.068,216.2249 92.9483,205.303 92.8293,194.3807 92.711,183.4579 92.5934,172.5345 92.4766,161.6106 92.3605,150.6861 92.2451,139.761 92.1304,128.8353 92.0164,117.9089 91.9032,106.9818 91.7907,96.054 91.6789,85.1254 91.5678,74.1961" stroke="silver" stroke-opacity="0.5" stroke-width="1" /><polyline fill="none" points="723.2896,729.822 722.0227,729.8028 711.4652,729.6456 700.9084,729.4937 690.3521,729.347 679.7965,729.2056 669.2414,729.0694 658.6868,728.9385 648.1328,728.8128 637.5793,728.6924 627.0262,728.5771 616.4736,728.4672 605.9215,728.3624 595.3697,728.263 584.8184,728.1687 574.2674,728.0797 563.7168,727.9959 553.1665,727.9173 542.6165,727.844 532.0668,727.7759 521.5173,727.7131 510.9681,727.6554 500.4191,727.603 489.8704,727.5559 479.3218,727.5139 468.7733,727.4772 458.225,727.4458 447.6769,727.4195 437.1288,727.3985 426.5808,727.3827 416.0328,727.3721 405.4849,727.3668 394.937,727.3667 384.3891,727.3718 373.8411,727.3822 363.2931,727.3978 352.7451,727.4186 342.1969,727.4446 331.6486,727.4759 321.1002,727.5124 310.5516,727.5541 300.0028,727.6011 289.4539,727.6532 278.9047,727.7107 268.3552,727.7733 257.8055,727.8412 247.2556,727.9143 236.7053,727.9926 226.1546,728.0762 215.6037,728.165 205.0523,728.2591 194.5006,728.3584 183.9485,728.4629 173.3959,728.5726 162.8428,728.6876 152.2893,728.8079 141.7353,728.9334 131.1808,729.0641 120.6257,729.2001 110.0701,729.3413 99.5139,729.4877 88.9571,729.6394 78.3996,729.7964 76.7104,729.822" stroke="silver" stroke-opacity="0.5" stroke-width="1" /><polyline fill="none" points="724.5929,642.4016 723.3208,642.3831 712.7207,642.2312 702.1212,642.0845 691.5223,641.9428 680.9241,641.8061 670.3264,641.6746 659.7292,641.5481 649.1326,641.4266 638.5365,641.3102 627.9409,641.1989 617.3457,641.0927 606.751,640.9915 596.1567,640.8954 585.5629,640.8043 574.9693,640.7183 564.3762,640.6373 553.7834,640.5614 543.1909,640.4906 532.5987,640.4248 522.0067,640.3641 511.415,640.3084 500.8235,640.2578 490.2323,640.2122 479.6412,640.1717 469.0503,640.1362 458.4595,640.1058 447.8689,640.0805 437.2783,640.0601 426.6878,640.0449 416.0974,640.0347 405.507,640.0295 394.9166,640.0294 384.3262,640.0344 373.7358,640.0444 363.1453,640.0594 352.5548,640.0795 341.9641,640.1047 331.3733,640.1349 320.7824,640.1702 310.1914,640.2105 299.6001,640.2559 289.0086,640.3063 278.417,640.3617 267.825,640.4223 257.2328,640.4879 246.6403,640.5585 236.0475,640.6342 225.4544,640.7149 214.8609,640.8008 204.267,640.8916 193.6727,640.9876 183.0781,641.0885 172.4829,641.1946 161.8873,641.3057 151.2912,641.4219 140.6946,641.5431 130.0975,641.6694 119.4998,641.8008 108.9016,641.9372 98.3028,642.0787 87.7033,642.2253 77.1032,642.3769 75.4071,642.4016" stroke="silver" stroke-opacity="0.5" stroke-width="1" /><polyline fill="none" points="725.8455,555.0169 724.5685,554.9989 713.9274,554.8525 703.2869,554.7109 692.6471,554.5742 682.0079,554.4424 671.3692,554.3155 660.7312,554.1935 650.0936,554.0764 639.4566,553.9641 628.8201,553.8568 618.184,553.7543 607.5484,553.6567 596.9132,553.564 586.2784,553.4761 575.644,553.3932 565.01,553.3151 554.3763,553.2419 543.743,553.1735 533.1099,553.1101 522.4771,553.0515 511.8446,552.9978 501.2123,552.949 490.5802,552.905 479.9482,552.866 469.3165,552.8317 458.6849,552.8024 448.0534,552.778 437.422,552.7584 426.7907,552.7437 416.1594,552.7338 405.5282,552.7288 394.897,552.7287 384.2658,552.7335 373.6345,552.7432 363.0032,552.7577 352.3719,552.7771 341.7404,552.8013 331.1088,552.8305 320.477,552.8645 309.8451,552.9034 299.213,552.9471 288.5807,552.9958 277.9482,553.0493 267.3154,553.1077 256.6824,553.1709 246.049,553.2391 235.4153,553.3121 224.7813,553.39 214.1469,553.4727 203.5122,553.5604 192.877,553.6529 182.2414,553.7503 171.6054,553.8526 160.9689,553.9598 150.3319,554.0718 139.6943,554.1887 129.0563,554.3106 118.4177,554.4373 107.7785,554.5689 97.1387,554.7054 86.4982,554.8467 75.8572,554.993 74.1545,555.0169" stroke="silver" stroke-opacity="0.5" stroke-width="1" /><polyline fill="none" points="727.0478,467.6543 725.7661,467.6371 715.0856,467.496 704.4058,467.3597 693.7267,467.2281 683.0481,467.1013 672.3702,466.9791 661.6928,466.8616 651.016,466.7488 640.3397,466.6407 629.6639,466.5374 618.9886,466.4387 608.3137,466.3447 597.6393,466.2555 586.9653,466.1709 576.2916,466.091 565.6184,466.0158 554.9455,465.9454 544.2729,465.8796 533.6006,465.8185 522.9286,465.7621 512.2569,465.7104 501.5853,465.6634 490.914,465.6211 480.2429,465.5834 469.572,465.5505 458.9012,465.5223 448.2305,465.4987 437.5599,465.4798 426.8894,465.4657 416.219,465.4562 405.5486,465.4514 394.8782,465.4513 384.2078,465.4559 373.5374,465.4652 362.8669,465.4792 352.1963,465.4979 341.5256,465.5212 330.8548,465.5493 320.1839,465.582 309.5128,465.6195 298.8415,465.6616 288.17,465.7084 277.4983,465.7599 266.8263,465.8161 256.154,465.877 245.4814,465.9426 234.8085,466.0129 224.1353,466.0879 213.4617,466.1676 202.7877,466.252 192.1133,466.3411 181.4384,466.4349 170.7631,466.5333 160.0874,466.6365 149.4111,466.7444 138.7343,466.857 128.0569,466.9743 117.379,467.0963 106.7005,467.223 96.0213,467.3544 85.3416,467.4905 74.6612,467.6313 72.9522,467.6543" stroke="silver" stroke-opacity="0.5" stroke-width="1" /><polyline fill="none" points="728.1999,380.3007 726.9137,380.2841 716.1955,380.1486 705.4781,380.0177 694.7612,379.8912 684.045,379.7693 673.3294,379.6519 662.6144,379.539 651.8999,379.4306 641.186,379.3268 630.4725,379.2275 619.7596,379.1326 609.0471,379.0423 598.3351,378.9566 587.6234,378.8753 576.9122,378.7986 566.2014,378.7263 555.4909,378.6586 544.7807,378.5954 534.0708,378.5367 523.3613,378.4825 512.6519,378.4328 501.9429,378.3876 491.234,378.347 480.5253,378.3108 469.8168,378.2792 459.1085,378.252 448.4002,378.2294 437.6921,378.2113 426.9841,378.1977 416.2761,378.1886 405.5681,378.184 394.8602,378.1839 384.1522,378.1883 373.4442,378.1972 362.7362,378.2106 352.0281,378.2286 341.3199,378.251 330.6115,378.278 319.903,378.3095 309.1943,378.3454 298.4855,378.3859 287.7764,378.4309 277.0671,378.4804 266.3575,378.5344 255.6477,378.5929 244.9375,378.656 234.2271,378.7235 223.5162,378.7956 212.805,378.8721 202.0934,378.9532 191.3814,379.0388 180.6689,379.1289 169.956,379.2236 159.2426,379.3227 148.5287,379.4264 137.8142,379.5346 127.0992,379.6473 116.3836,379.7645 105.6674,379.8862 94.9506,380.0125 84.2332,380.1433 73.515,380.2786 71.8001,380.3007" stroke="silver" stroke-opacity="0.5" stroke-width="1" /><polyline fill="none" points="729.3021,292.9428 728.0116,292.9269 717.2574,292.797 706.5038,292.6714 695.7509,292.5502 684.9987,292.4333 674.247,292.3207 663.496,292.2125 652.7455,292.1085 641.9955,292.009 631.2461,291.9137 620.4972,291.8228 609.7487,291.7362 599.0007,291.654 588.2531,291.5761 577.5059,291.5025 566.7591,291.4332 556.0126,291.3683 545.2665,291.3077 534.5207,291.2514 523.7752,291.1994 513.0299,291.1518 502.2849,291.1085 491.5401,291.0695 480.7955,291.0348 470.0511,291.0045 459.3068,290.9784 448.5626,290.9567 437.8186,290.9394 427.0746,290.9263 416.3307,290.9176 405.5868,290.9132 394.8429,290.9131 384.0991,290.9173 373.3552,290.9259 362.6112,290.9388 351.8671,290.956 341.123,290.9775 330.3787,291.0033 319.6343,291.0335 308.8897,291.068 298.1449,291.1068 287.3999,291.15 276.6546,291.1974 265.9091,291.2492 255.1633,291.3053 244.4172,291.3658 233.6708,291.4305 222.924,291.4996 212.1768,291.573 201.4292,291.6508 190.6812,291.7329 179.9328,291.8193 169.1839,291.91 158.4344,292.0051 147.6845,292.1045 136.934,292.2082 126.183,292.3163 115.4314,292.4287 104.6792,292.5454 93.9263,292.6665 83.1728,292.7919 72.4186,292.9216 70.6979,292.9428" stroke="silver" stroke-opacity="0.5" stroke-width="1" /><polyline fill="none" points="730.3545,205.5674 729.0598,205.5522 718.2712,205.4279 707.4832,205.3077 696.6959,205.1918 685.9093,205.0799 675.1232,204.9722 664.3378,204.8687 653.5529,204.7693 642.7685,204.674 631.9847,204.5829 621.2014,204.496 610.4186,204.4131 599.6362,204.3345 588.8543,204.2599 578.0727,204.1895 567.2916,204.1233 556.5108,204.0611 545.7304,204.0032 534.9502,203.9493 524.1704,203.8996 513.3908,203.854 502.6115,203.8126 491.8323,203.7753 481.0534,203.7421 470.2747,203.7131 459.4961,203.6882 448.7177,203.6675 437.9393,203.6508 427.161,203.6384 416.3828,203.63 405.6046,203.6258 394.8265,203.6257 384.0483,203.6298 373.2701,203.6379 362.4918,203.6503 351.7135,203.6667 340.935,203.6873 330.1564,203.712 319.3777,203.7409 308.5988,203.7739 297.8197,203.811 287.0404,203.8523 276.2608,203.8977 265.481,203.9472 254.7009,204.0009 243.9204,204.0587 233.1396,204.1207 222.3585,204.1868 211.577,204.257 200.7951,204.3314 190.0127,204.4099 179.2299,204.4926 168.4466,204.5794 157.6628,204.6703 146.8785,204.7654 136.0937,204.8646 125.3082,204.968 114.5222,205.0755 103.7356,205.1872 92.9483,205.303 82.1603,205.423 71.3717,205.5471 69.6455,205.5674" stroke="silver" stroke-opacity="0.5" stroke-width="1" /><polyline fill="none" points="731.3573,118.1611 730.0586,118.1466 719.2372,118.028 708.4164,117.9134 697.5963,117.8027 686.7768,117.696 675.958,117.5932 665.1398,117.4944 654.3221,117.3996 643.505,117.3087 632.6885,117.2218 621.8724,117.1388 611.0569,117.0597 600.2418,116.9847 589.4271,116.9135 578.6128,116.8464 567.799,116.7831 556.9855,116.7239 546.1723,116.6685 535.3595,116.6172 524.5469,116.5697 513.7346,116.5262 502.9226,116.4867 492.1108,116.4511 481.2992,116.4195 470.4878,116.3918 459.6765,116.368 448.8654,116.3482 438.0543,116.3324 427.2434,116.3205 416.4325,116.3125 405.6216,116.3085 394.8108,116.3084 383.9999,116.3122 373.1891,116.3201 362.3781,116.3318 351.5671,116.3475 340.7559,116.3672 329.9447,116.3908 319.1333,116.4183 308.3217,116.4498 297.5099,116.4852 286.6978,116.5246 275.8856,116.5679 265.073,116.6152 254.2602,116.6664 243.4471,116.7216 232.6336,116.7807 221.8197,116.8438 211.0055,116.9108 200.1908,116.9817 189.3757,117.0567 178.5602,117.1355 167.7442,117.2184 156.9276,117.3051 146.1106,117.3959 135.2929,117.4905 124.4747,117.5892 113.6559,117.6918 102.8365,117.7983 92.0164,117.9089 81.1957,118.0233 70.3742,118.1418 68.6427,118.1611" stroke="silver" stroke-opacity="0.5" stroke-width="1" /><circle cx="727.1653" cy="426.7669" fill="black" r="0.738" stroke="none" /><circle cx="725.3584" cy="547.2325" fill="black" r="0.936" stroke="none" /><circle cx="726.5039" cy="126.4133" fill="black" r="0.738" stroke="none" /><circle cx="719.14" cy="528.5345" fill="black" r="0.738" stroke="none" /><circle cx="712.4077" cy="469.7329" fill="black" r="0.738" stroke="none" /><circle cx="706.3989" cy="564.0139" fill="black" r="0.738" stroke="none" /><circle cx="700.9863" cy="308.8576" fill="black" r="0.738" stroke="none" /><circle cx="690.7143" cy="182.5847" fill="black" r="0.738" stroke="none" /><circle cx="681.9249" cy="504.5606" fill="black" r="0.738" stroke="none" /><circle cx="663.8213" cy="639.6739" fill="black" r="0.738" stroke="none" /><circle cx="661.9457" cy="704.151" fill="black" r="0.738" stroke="none" /><circle cx="666.7686" cy="203.3191" fill="black" r="0.738" stroke="none" /><circle cx="663.1829" cy="431.5074" fill="black" r="0.738" stroke="none" /><circle cx="650.5078" cy="381.5127" fill="black" r="0.738" stroke="none" /><circle cx="647.8334" cy="558.5068" fill="black" r="0.738" stroke="none" /><circle cx="650.6245" cy="213.8281" fill="black" r="0.738" stroke="none" /><circle cx="646.8358" cy="457.7985" fill="black" r="0.738" stroke="none" /><circle cx="646.999" cy="398.5065" fill="black" r="0.738" stroke="none" /><circle cx="642.4354" cy="610.0749" fill="black" r="0.738" stroke="none" /><circle cx="639.6366" cy="276.8793" fill="black" r="0.738" stroke="none" /><circle cx="625.928" cy="280.0793" fill="black" r="0.738" stroke="none" /><circle cx="621.9478" cy="569.4232" fill="black" r="0.738" stroke="none" /><circle cx="617.5137" cy="299.1333" fill="black" r="0.738" stroke="none" /><circle cx="609.4434" cy="643.1134" fill="black" r="0.738" stroke="none" /><circle cx="605.8036" cy="651.728" fill="black" r="0.738" stroke="none" /><circle cx="606.5205" cy="134.6768" fill="black" r="0.738" stroke="none" /><circle cx="602.0216" cy="421.4158" fill="black" r="0.738" stroke="none" /><circle cx="596.6072" cy="519.0701" fill="black" r="0.738" stroke="none" /><circle cx="592.4731" cy="503.4945" fill="black" r="0.738" stroke="none" /><circle cx="588.98" cy="627.6435" fill="black" r="0.738" stroke="none" /><circle cx="584.5992" cy="474.0974" fill="black" r="0.738" stroke="none" /><circle cx="577.0789" cy="303.9842" fill="black" r="0.738" stroke="none" /><circle cx="576.3836" cy="292.1935" fill="black" r="0.738" stroke="none" /><circle cx="574.4969" cy="139.7973" fill="black" r="0.738" stroke="none" /><circle cx="573.9721" cy="81.6947" fill="black" r="1.17" stroke="none" /><circle cx="571.8475" cy="149.3028" fill="black" r="1.476" stroke="none" /><circle cx="564.0105" cy="562.3013" fill="black" r="0.738" stroke="none" /><circle cx="554.8215" cy="588.1708" fill="black" r="0.738" stroke="none" /><circle cx="554.4555" cy="232.5153" fill="black" r="0.738" stroke="none" /><circle cx="550.0942" cy="127.9569" fill="black" r="0.936" stroke="none" /><circle cx="547.6829" cy="320.4773" fill="black" r="0.738" stroke="none" /><circle cx="534.3488" cy="602.8848" fill="black" r="0.738" stroke="none" /><circle cx="529.8165" cy="157.1193" fill="black" r="0.738" stroke="none" /><circle cx="526.3896" cy="688.5146" fill="black" r="1.17" stroke="none" /><circle cx="527.4171" cy="389.7618" fill="black" r="0.738" stroke="none" /><circle cx="517.0358" cy="698.3332" fill="black" r="0.738" stroke="none" /><circle cx="516.7611" cy="452.2029" fill="black" r="0.738" stroke="none" /><circle cx="516.2438" cy="523.6007" fill="black" r="0.738" stroke="none" /><circle cx="514.4104" cy="329.6507" fill="black" r="0.738" stroke="none" /><circle cx="513.8953" cy="74.1575" fill="black" r="0.936" stroke="none" /><circle cx="510.4968" cy="687.9911" fill="black" r="0.738" stroke="none" /><circle cx="507.7996" cy="563.1054" fill="black" r="0.738" stroke="none" /><circle cx="506.3855" cy="360.7757" fill="black" r="0.738" stroke="none" /><circle cx="506.4588" cy="212.5578" fill="black" r="0.738" stroke="none" /><circle cx="501.0682" cy="76.3837" fill="black" r="0.738" stroke="none" /><circle cx="496.3714" cy="109.5643" fill="black" r="0.738" stroke="none" /><circle cx="480.531" cy="264.4992" fill="black" r="0.738" stroke="none" /><circle cx="477.2192" cy="503.2779" fill="black" r="0.738" stroke="none" /><circle cx="460.7407" cy="340.031" fill="black" r="0.936" stroke="none" /><circle cx="459.5409" cy="517.192" fill="black" r="0.738" stroke="none" /><circle cx="454.3882" cy="535.2472" fill="black" r="0.738" stroke="none" /><circle cx="448.0068" cy="654.5762" fill="black" r="0.738" stroke="none" /><circle cx="447.7063" cy="514.3721" fill="black" r="0.738" stroke="none" /><circle cx="444.5011" cy="251.9342" fill="black" r="0.738" stroke="none" /><circle cx="440.3382" cy="680.8474" fill="black" r="0.738" stroke="none" /><circle cx="435.1607" cy="350.1071" fill="black" r="0.738" stroke="none" /><circle cx="425.8482" cy="129.332" fill="black" r="0.738" stroke="none" /><circle cx="409.1205" cy="262.2863" fill="black" r="0.738" stroke="none" /><circle cx="387.2394" cy="546.9708" fill="black" r="0.738" stroke="none" /><circle cx="386.9015" cy="696.0983" fill="black" r="0.738" stroke="none" /><circle cx="383.5235" cy="190.8839" fill="black" r="0.738" stroke="none" /><circle cx="382.7392" cy="440.7597" fill="black" r="0.738" stroke="none" /><circle cx="381.2936" cy="660.5573" fill="black" r="0.738" stroke="none" /><circle cx="378.9657" cy="615.6787" fill="black" r="0.738" stroke="none" /><circle cx="376.113" cy="95.53" fill="black" r="0.738" stroke="none" /><circle cx="374.6408" cy="193.7715" fill="black" r="0.738" stroke="none" /><circle cx="369.9736" cy="340.4137" fill="black" r="2.322" stroke="none" /><circle cx="367.9995" cy="407.9617" fill="black" r="0.738" stroke="none" /><circle cx="362.8496" cy="454.134" fill="black" r="0.738" stroke="none" /><circle cx="359.8358" cy="274.2723" fill="black" r="0.738" stroke="none" /><circle cx="352.7581" cy="695.0105" fill="black" r="0.738" stroke="none" /><circle cx="349.4963" cy="598.7009" fill="black" r="0.738" stroke="none" /><circle cx="346.3464" cy="699.5675" fill="black" r="0.738" stroke="none" /><circle cx="334.4774" cy="170.4365" fill="black" r="0.936" stroke="none" /><circle cx="334.4278" cy="329.308" fill="black" r="0.738" stroke="none" /><circle cx="326.6758" cy="494.8867" fill="black" r="0.738" stroke="none" /><circle cx="317.1128" cy="73.7951" fill="black" r="0.738" stroke="none" /><circle cx="316.2476" cy="252.201" fill="black" r="0.936" stroke="none" /><circle cx="308.8108" cy="695.2386" fill="black" r="0.738" stroke="none" /><circle cx="288.0985" cy="143.5952" fill="black" r="0.936" stroke="none" /><circle cx="285.2865" cy="451.6695" fill="black" r="0.738" stroke="none" /><circle cx="280.849" cy="587.5198" fill="black" r="0.738" stroke="none" /><circle cx="273.6141" cy="584.7648" fill="black" r="0.738" stroke="none" /><circle cx="269.1032" cy="108.5605" fill="black" r="0.738" stroke="none" /><circle cx="253.7653" cy="393.8789" fill="black" r="0.738" stroke="none" /><circle cx="243.4654" cy="199.7824" fill="black" r="0.738" stroke="none" /><circle cx="238.3657" cy="182.8695" fill="black" r="0.738" stroke="none" /><circle cx="238.2553" cy="281.7991" fill="black" r="0.738" stroke="none" /><circle cx="240.0525" cy="643.662" fill="black" r="0.738" stroke="none" /><circle cx="231.6542" cy="127.0947" fill="black" r="0.738" stroke="none" /><circle cx="229.8886" cy="644.2617" fill="black" r="0.738" stroke="none" /><circle cx="212.9328" cy="486.0772" fill="black" r="0.738" stroke="none" /><circle cx="210.5984" cy="647.825" fill="black" r="0.738" stroke="none" /><circle cx="199.6731" cy="251.9341" fill="black" r="0.738" stroke="none" /><circle cx="199.223" cy="509.6751" fill="black" r="0.738" stroke="none" /><circle cx="189.2698" cy="372.4208" fill="black" r="0.738" stroke="none" /><circle cx="182.5849" cy="157.995" fill="black" r="0.738" stroke="none" /><circle cx="171.0589" cy="207.5278" fill="black" r="0.738" stroke="none" /><circle cx="165.8652" cy="583.5193" fill="black" r="0.738" stroke="none" /><circle cx="160.2616" cy="432.0549" fill="black" r="0.738" stroke="none" /><circle cx="155.8525" cy="102.282" fill="black" r="0.738" stroke="none" /><circle cx="153.9141" cy="625.5783" fill="black" r="0.738" stroke="none" /><circle cx="146.9185" cy="337.6995" fill="black" r="0.738" stroke="none" /><circle cx="132.1786" cy="721.0955" fill="black" r="0.936" stroke="none" /><circle cx="116.2193" cy="285.6068" fill="black" r="0.738" stroke="none" /><circle cx="114.5465" cy="198.959" fill="black" r="0.738" stroke="none" /><circle cx="114.4919" cy="674.1163" fill="black" r="0.738" stroke="none" /><circle cx="107.935" cy="210.648" fill="black" r="0.738" stroke="none" /><circle cx="98.328" cy="361.0167" fill="black" r="1.476" stroke="none" /><circle cx="97.7406" cy="561.6875" fill="black" r="0.738" stroke="none" /><circle cx="94.5724" cy="501.2687" fill="black" r="0.738" stroke="none" /><circle cx="85.0065" cy="407.7395" fill="black" r="0.738" stroke="none" /><circle cx="71.836" cy="171.0165" fill="black" r="0.738" stroke="none" /><circle cx="13.77" cy="786.23" fill="black" r="4.59" stroke="none" /><circle cx="13.77" cy="786.23" fill="black" r="4.59" stroke="none" /><text fill="black" font-family="monospace" font-size="12" x="10.77" y="775.64">1</text><circle cx="37.77" cy="786.23" fill="black" r="3.654" stroke="none" /><circle cx="37.77" cy="786.23" fill="black" r="3.654" stroke="none" /><text fill="black" font-family="monospace" font-size="12" x="34.769999999999996" y="775.64">2</text><circle cx="61.77" cy="786.23" fill="black" r="2.916" stroke="none" /><circle cx="61.77" cy="786.23" fill="black" r="2.916" stroke="none" /><text fill="black" font-family="monospace" font-size="12" x="58.769999999999996" y="775.64">3</text><circle cx="85.77" cy="786.23" fill="black" r="2.322" stroke="none" /><circle cx="85.77" cy="786.23" fill="black" r="2.322" stroke="none" /><text fill="black" font-family="monospace" font-size="12" x="82.77" y="775.64">4</text><circle cx="109.77" cy="786.23" fill="black" r="1.854" stroke="none" /><circle cx="109.77" cy="786.23" fill="black" r="1.854" stroke="none" /><text fill="black" font-family="monospace" font-size="12" x="106.77" y="775.64">5</text><circle cx="133.77" cy="786.23" fill="black" r="1.476" stroke="none" /><circle cx="133.77" cy="786.23" fill="black" r="1.476" stroke="none" /><text fill="black" font-family="monospace" font-size="12" x="130.77" y="775.64">6</text><circle cx="157.77" cy="786.23" fill="black" r="1.17" stroke="none" /><circle cx="157.77" cy="786.23" fill="black" r="1.17" stroke="none" /><text fill="black" font-family="monospace" font-size="12" x="154.77" y="775.64">7</text><circle cx="181.77" cy="786.23" fill="black" r="0.936" stroke="none" /><circle cx="181.77" cy="786.23" fill="black" r="0.936" stroke="none" /><text fill="black" font-family="monospace" font-size="12" x="178.77" y="775.64">8</text><circle cx="205.77" cy="786.23" fill="black" r="0.738" stroke="none" /><circle cx="205.77" cy="786.23" fill="black" r="0.738" stroke="none" /><text fill="black" font-family="monospace" font-size="12" x="202.77" y="775.64">9</text><text fill="gray" fill-opacity="0.5" font-family="monospace" font-size="12" x="633.027309553411" y="73.52561454615875">16h25m</text><text fill="gray" fill-opacity="0.5" font-family="monospace" font-size="12" x="524.7281978426449" y="72.88936532304751">16h30m</text><text fill="gray" fill-opacity="0.5" font-family="monospace" font-size="12" x="416.4564094055585" y="72.63834298219217">16h35m</text><text fill="gray" fill-opacity="0.5" font-family="monospace" font-size="12" x="308.1882254693668" y="72.77231802684452">16h40m</text><text fill="gray" fill-opacity="0.5" font-family="monospace" font-size="12" x="199.89993026722718" y="73.29141293725849">16h45m</text><text fill="gray" fill-opacity="0.5" font-family="monospace" font-size="12" x="91.56779125916091" y="74.19610240512895">16h50m</text><text fill="gray" fill-opacity="0.5" font-family="monospace" font-size="12" x="76.71035069797495" y="729.8219665440616">-15°</text><text fill="gray" fill-opacity="0.5" font-family="monospace" font-size="12" x="75.40714312416856" y="642.4016498613714">-14°</text><text fill="gray" fill-opacity="0.5" font-family="monospace" font-size="12" x="74.15451755678691" y="555.0168519113298">-13°</text><text fill="gray" fill-opacity="0.5" font-family="monospace" font-size="12" x="72.95223276131458" y="467.65429096855854">-12°</text><text fill="gray" fill-opacity="0.5" font-family="monospace" font-size="12" x="71.80007815861342" y="380.30069879479095">-11°</text><text fill="gray" fill-opacity="0.5" font-family="monospace" font-size="12" x="70.69787367159438" y="292.9428125892501">-10°</text><text fill="gray" fill-opacity="0.5" font-family="monospace" font-size="12" x="69.64546961131464" y="205.56736694601938">-9°</text><text fill="gray" fill-opacity="0.5" font-family="monospace" font-size="12" x="68.64274660234406" y="118.16108580806116">-8°</text><text fill="black" font-family="monospace" font-size="12" x="12" y="48">&gt;&gt; No.346 16h20m 16h51m -15.0°-7.5°</text><a target="_self" xlink:href="hip020.svg"><text fill="black" font-family="monospace" font-size="12" x="12" y="36">&gt; No.20 16h00m 18h40m -22.5°+0.0°</text></a><a target="_self" xlink:href="hip001.svg"><text fill="black" font-family="monospace" font-size="12" x="12" y="24">No.1 00h 24h -90.0°+0.0°</text></a><polyline fill="none" points="731.84,74.4422 730.5395,74.4281 719.7022,74.3124 708.8657,74.2005 698.0298,74.0925 687.1945,73.9884 676.3599,73.8881 665.5259,73.7917 654.6925,73.6991 643.8596,73.6104 633.0273,73.5256 622.1955,73.4446 611.3642,73.3675 600.5333,73.2943 589.7029,73.2249 578.8729,73.1593 568.0432,73.0976 557.214,73.0398 546.3851,72.9858 535.5565,72.9356 524.7282,72.8894 513.9002,72.8469 503.0724,72.8084 492.2449,72.7736 481.4175,72.7427 470.5904,72.7157 459.7634,72.6925 448.9365,72.6732 438.1097,72.6577 427.283,72.6461 416.4564,72.6383 405.6298,72.6344 394.8032,72.6343 383.9767,72.6381 373.15,72.6457 362.3233,72.6572 351.4966,72.6725 340.6697,72.6917 329.8427,72.7147 319.0156,72.7416 308.1882,72.7723 297.3607,72.8069 286.5329,72.8453 275.7049,72.8876 264.8766,72.9337 254.0481,72.9837 243.2192,73.0375 232.3899,73.0952 221.5603,73.1568 210.7303,73.2222 199.8999,73.2914 189.0691,73.3645 178.2378,73.4415 167.406,73.5223 156.5737,73.607 145.7408,73.6955 134.9074,73.7879 124.0734,73.8842 113.2389,73.9843 102.4037,74.0883 91.5678,74.1961 80.7313,74.3078 69.894,74.4234 68.16,74.4422" stroke="black" stroke-opacity="0.5" stroke-width="1" /><polyline fill="none" points="723.2896,729.822 723.4553,718.892 723.6202,707.9628 723.7843,697.0343 723.9476,686.1065 724.1101,675.1794 724.2718,664.2529 724.4327,653.327 724.5929,642.4016 724.7522,631.4769 724.9107,620.5526 725.0685,609.6289 725.2255,598.7056 725.3817,587.7828 725.5371,576.8604 725.6917,565.9385 725.8455,555.0169 725.9985,544.0956 726.1508,533.1746 726.3022,522.254 726.4529,511.3336 726.6028,500.4135 726.7519,489.4936 726.9002,478.5738 727.0478,467.6543 727.1945,456.7349 727.3405,445.8156 727.4857,434.8964 727.6301,423.9772 727.7737,413.0581 727.9166,402.139 728.0586,391.2199 728.1999,380.3007 728.3404,369.3815 728.4801,358.4621 728.6191,347.5427 728.7573,336.6231 728.8946,325.7034 729.0312,314.7834 729.1671,303.8632 729.3021,292.9428 729.4364,282.0221 729.5699,271.1011 729.7026,260.1798 729.8345,249.2581 729.9657,238.3361 730.0961,227.4136 730.2257,216.4907 730.3545,205.5674 730.4826,194.6435 730.6099,183.7192 730.7364,172.7943 730.8621,161.8689 730.987,150.9429 731.1112,140.0163 731.2346,129.089 731.3573,118.1611 731.4791,107.2325 731.6002,96.3031 731.7205,85.3731 731.84,74.4422" stroke="black" stroke-opacity="0.5" stroke-width="1" /><polyline fill="none" points="723.2896,729.822 722.0227,729.8028 711.4652,729.6456 700.9084,729.4937 690.3521,729.347 679.7965,729.2056 669.2414,729.0694 658.6868,728.9385 648.1328,728.8128 637.5793,728.6924 627.0262,728.5771 616.4736,728.4672 605.9215,728.3624 595.3697,728.263 584.8184,728.1687 574.2674,728.0797 563.7168,727.9959 553.1665,727.9173 542.6165,727.844 532.0668,727.7759 521.5173,727.7131 510.9681,727.6554 500.4191,727.603 489.8704,727.5559 479.3218,727.5139 468.7733,727.4772 458.225,727.4458 447.6769,727.4195 437.1288,727.3985 426.5808,727.3827 416.0328,727.3721 405.4849,727.3668 394.937,727.3667 384.3891,727.3718 373.8411,727.3822 363.2931,727.3978 352.7451,727.4186 342.1969,727.4446 331.6486,727.4759 321.1002,727.5124 310.5516,727.5541 300.0028,727.6011 289.4539,727.6532 278.9047,727.7107 268.3552,727.7733 257.8055,727.8412 247.2556,727.9143 236.7053,727.9926 226.1546,728.0762 215.6037,728.165 205.0523,728.2591 194.5006,728.3584 183.9485,728.4629 173.3959,728.5726 162.8428,728.6876 152.2893,728.8079 141.7353,728.9334 131.1808,729.0641 120.6257,729.2001 110.0701,729.3413 99.5139,729.4877 88.9571,729.6394 78.3996,729.7964 76.7104,729.822" stroke="black" stroke-opacity="0.5" stroke-width="1" /><polyline fill="none" points="76.7104,729.822 76.5447,718.892 76.3798,707.9628 76.2157,697.0343 76.0524,686.1065 75.8899,675.1794 75.7282,664.2529 75.5673,653.327 75.4071,642.4016 75.2478,631.4769 75.0893,620.5526 74.9315,609.6289 74.7745,598.7056 74.6183,587.7828 74.4629,576.8604 74.3083,565.9385 74.1545,555.0169 74.0015,544.0956 73.8492,533.1746 73.6978,522.254 73.5471,511.3336 73.3972,500.4135 73.2481,489.4936 73.0998,478.5738 72.9522,467.6543 72.8055,456.7349 72.6595,445.8156 72.5143,434.8964 72.3699,423.9772 72.2263,413.0581 72.0834,402.139 71.9414,391.2199 71.8001,380.3007 71.6596,369.3815 71.5199,358.4621 71.3809,347.5427 71.2427,336.6231 71.1054,325.7034 70.9688,314.7834 70.8329,303.8632 70.6979,292.9428 70.5636,282.0221 70.4301,271.1011 70.2974,260.1798 70.1655,249.2581 70.0343,238.3361 69.9039,227.4136 69.7743,216.4907 69.6455,205.5674 69.5174,194.6435 69.3901,183.7192 69.2636,172.7943 69.1379,161.8689 69.013,150.9429 68.8888,140.0163 68.7654,129.089 68.6427,118.1611 68.5209,107.2325 68.3998,96.3031 68.2795,85.3731 68.16,74.4422" stroke="black" stroke-opacity="0.5" stroke-width="1" /></svg>