<?xml version="1.0" encoding="utf-8" ?>
<svg baseProfile="tiny" height="800" version="1.2" width="800" xmlns="http://www.w3.org/2000/svg" xmlns:ev="http://www.w3.org/2001/xml-events" xmlns:xlink="http://www.w3.org/1999/xlink"><defs /><rect fill="none" height="800" stroke="black" stroke-width="2" width="800" x="0" y="0" /><polyline fill="none" points="709.7761,729.6209 709.9348,718.6918 710.0928,707.7635 710.25,696.8359 710.4065,685.9089 710.5622,674.9826 710.7171,664.0569 710.8713,653.1319 711.0247,642.2074 711.1774,631.2835 711.3293,620.3601 711.4804,609.4372 711.6308,598.5148 711.7805,587.5929 711.9294,576.6714 712.0775,565.7503 712.2249,554.8295 712.3715,543.9091 712.5174,532.989 712.6625,522.0693 712.8069,511.1498 712.9505,500.2305 713.0933,489.3114 713.2355,478.3926 713.3768,467.4739 713.5174,456.5554 713.6573,445.637 713.7964,434.7186 713.9348,423.8003 714.0724,412.8821 714.2092,401.9639 714.3453,391.0457 714.4807,380.1274 714.6153,369.209 714.7492,358.2906 714.8823,347.372 715.0147,336.4534 715.1463,325.5345 715.2772,314.6154 715.4074,303.6961 715.5367,292.7766 715.6654,281.8568 715.7933,270.9367 715.9205,260.0163 716.0469,249.0955 716.1725,238.1744 716.2975,227.2528 716.4216,216.3308 716.5451,205.4084 716.6678,194.4855 716.7897,183.562 716.9109,172.6381 717.0314,161.7136 717.1511,150.7885 717.2701,139.8627 717.3883,128.9364 717.5058,118.0094 717.6225,107.0817 717.7385,96.1533 717.8538,85.2241 717.9683,74.2942" stroke="silver" stroke-opacity="0.5" stroke-width="1" /><polyline fill="none" points="604.2332,728.3462 604.3378,717.4224 604.4419,706.4995 604.5454,695.5772 604.6485,684.6556 604.7511,673.7347 604.8532,662.8145 604.9548,651.8948 605.0559,640.9758 605.1565,630.0573 605.2566,619.1393 605.3562,608.2219 605.4553,597.305 605.5539,586.3885 605.652,575.4724 605.7496,564.5568 605.8467,553.6415 605.9433,542.7266 606.0395,531.8121 606.1351,520.8978 606.2302,509.9838 606.3248,499.0701 606.419,488.1566 606.5126,477.2433 606.6058,466.3301 606.6984,455.4172 606.7906,444.5043 606.8822,433.5915 606.9734,422.6789 607.0641,411.7662 607.1543,400.8536 607.244,389.941 607.3331,379.0283 607.4218,368.1156 607.5101,357.2028 607.5978,346.2899 607.685,335.3769 607.7717,324.4636 607.858,313.5502 607.9437,302.6366 608.029,291.7228 608.1138,280.8087 608.198,269.8943 608.2818,258.9796 608.3651,248.0645 608.4479,237.1491 608.5302,226.2332 608.6121,215.317 608.6934,204.4003 608.7742,193.4831 608.8546,182.5654 608.9344,171.6472 609.0138,160.7285 609.0927,149.8092 609.1711,138.8892 609.249,127.9687 609.3264,117.0475 609.4033,106.1256 609.4798,95.203 609.5557,84.2796 609.6312,73.3555" stroke="silver" stroke-opacity="0.5" stroke-width="1" /><polyline fill="none" points="498.7313,727.5951 498.7819,716.6746 498.8322,705.7547 498.8822,694.8356 498.9321,683.9172 498.9816,672.9995 499.031,662.0825 499.0801,651.166 499.1289,640.2501 499.1775,629.3349 499.2259,618.4201 499.2741,607.5059 499.3219,596.5922 499.3696,585.6789 499.417,574.7661 499.4642,563.8537 499.5111,552.9416 499.5578,542.03 499.6042,531.1186 499.6505,520.2076 499.6964,509.2969 499.7422,498.3864 499.7877,487.4762 499.8329,476.5661 499.8779,465.6563 499.9227,454.7466 499.9672,443.837 500.0115,432.9275 500.0556,422.0181 500.0994,411.1088 500.143,400.1995 500.1863,389.2902 500.2294,378.3808 500.2723,367.4714 500.3149,356.5619 500.3573,345.6523 500.3995,334.7426 500.4414,323.8328 500.4831,312.9227 500.5245,302.0124 500.5657,291.1019 500.6067,280.1912 500.6474,269.2801 500.6879,258.3688 500.7281,247.4571 500.7682,236.545 500.8079,225.6325 500.8475,214.7197 500.8868,203.8063 500.9259,192.8926 500.9647,181.9783 501.0033,171.0635 501.0416,160.1481 501.0798,149.2322 501.1176,138.3157 501.1553,127.3985 501.1927,116.4808 501.2299,105.5623 501.2668,94.6431 501.3035,83.7232 501.34,72.8025" stroke="silver" stroke-opacity="0.5" stroke-width="1" /><polyline fill="none" points="393.2493,727.3672 393.2459,716.4476 393.2424,705.5287 393.239,694.6106 393.2356,683.6931 393.2322,672.7764 393.2289,661.8603 393.2255,650.9448 393.2222,640.0299 393.2188,629.1156 393.2155,618.2018 393.2122,607.2886 393.209,596.3758 393.2057,585.4635 393.2025,574.5517 393.1992,563.6402 393.196,552.7292 393.1928,541.8185 393.1897,530.9082 393.1865,519.9981 393.1834,509.0884 393.1802,498.1789 393.1771,487.2696 393.174,476.3606 393.1709,465.4517 393.1679,454.543 393.1648,443.6345 393.1618,432.726 393.1588,421.8176 393.1558,410.9092 393.1528,400.0009 393.1499,389.0926 393.1469,378.1843 393.144,367.2759 393.1411,356.3674 393.1382,345.4588 393.1353,334.5501 393.1324,323.6413 393.1296,312.7322 393.1267,301.823 393.1239,290.9135 393.1211,280.0037 393.1183,269.0937 393.1156,258.1834 393.1128,247.2727 393.1101,236.3616 393.1074,225.4502 393.1047,214.5384 393.102,203.6261 393.0993,192.7133 393.0966,181.8001 393.094,170.8863 393.0914,159.972 393.0888,149.0571 393.0862,138.1416 393.0836,127.2255 393.0811,116.3087 393.0785,105.3913 393.076,94.4732 393.0735,83.5543 393.071,72.6347" stroke="silver" stroke-opacity="0.5" stroke-width="1" /><polyline fill="none" points="287.766,727.6621 287.7085,716.7412 287.6513,705.8211 287.5944,694.9017 287.5378,683.9831 287.4814,673.065 287.4253,662.1477 287.3695,651.231 287.314,640.3148 287.2587,629.3992 287.2037,618.4842 287.149,607.5697 287.0946,596.6557 287.0404,585.7421 286.9865,574.829 286.9329,563.9163 286.8795,553.004 286.8265,542.0921 286.7737,531.1804 286.7211,520.2691 286.6689,509.3581 286.6169,498.4473 286.5652,487.5368 286.5137,476.6265 286.4625,465.7163 286.4116,454.8063 286.361,443.8965 286.3107,432.9867 286.2606,422.077 286.2108,411.1674 286.1612,400.2578 286.1119,389.3482 286.0629,378.4385 286.0142,367.5288 285.9658,356.619 285.9176,345.7092 285.8696,334.7992 285.822,323.889 285.7746,312.9786 285.7275,302.0681 285.6807,291.1573 285.6341,280.2462 285.5878,269.3349 285.5418,258.4232 285.496,247.5112 285.4505,236.5988 285.4053,225.6861 285.3604,214.7729 285.3157,203.8593 285.2713,192.9452 285.2271,182.0306 285.1832,171.1155 285.1396,160.1999 285.0963,149.2836 285.0532,138.3668 285.0104,127.4494 284.9679,116.5313 284.9256,105.6125 284.8836,94.693 284.8419,83.7728 284.8005,72.8518" stroke="silver" stroke-opacity="0.5" stroke-width="1" /><polyline fill="none" points="182.2601,728.4801 182.1486,717.5558 182.0376,706.6323 181.9271,695.7094 181.8172,684.7873 181.7078,673.8658 181.599,662.945 181.4906,652.0248 181.3829,641.1052 181.2756,630.1861 181.1689,619.2676 181.0627,608.3496 180.957,597.4321 180.8519,586.515 180.7473,575.5984 180.6432,564.6822 180.5397,553.7663 180.4367,542.8509 180.3342,531.9357 180.2323,521.0209 180.1308,510.1063 180.0299,499.192 179.9296,488.2779 179.8297,477.364 179.7304,466.4503 179.6316,455.5367 179.5334,444.6233 179.4356,433.71 179.3384,422.7967 179.2418,411.8835 179.1456,400.9702 179.05,390.057 178.9549,379.1438 178.8603,368.2305 178.7663,357.3171 178.6727,346.4036 178.5797,335.4899 178.4873,324.5761 178.3953,313.6622 178.3039,302.7479 178.213,291.8335 178.1226,280.9188 178.0327,270.0038 177.9434,259.0885 177.8546,248.1728 177.7663,237.2568 177.6786,226.3403 177.5913,215.4235 177.5046,204.5062 177.4184,193.5884 177.3327,182.6701 177.2476,171.7513 177.163,160.832 177.0789,149.912 176.9953,138.9915 176.9122,128.0703 176.8297,117.1485 176.7476,106.226 176.6661,95.3028 176.5852,84.3789 176.5047,73.4542" stroke="silver" stroke-opacity="0.5" stroke-width="1" /><polyline fill="none" points="723.2896,729.822 720.3335,729.7773 709.7761,729.6209 699.2194,729.4699 688.6632,729.324 678.1076,729.1835 667.5526,729.0481 656.9982,728.918 646.4442,728.7932 635.8908,728.6736 625.3378,728.5592 614.7853,728.4501 604.2332,728.3462 593.6815,728.2475 583.1302,728.1541 572.5793,728.0659 562.0287,727.983 551.4784,727.9052 540.9285,727.8328 530.3788,727.7655 519.8294,727.7035 509.2803,727.6467 498.7313,727.5951 488.1826,727.5488 477.634,727.5077 467.0856,727.4718 456.5373,727.4412 445.9892,727.4158 435.4411,727.3956 424.8931,727.3807 414.3452,727.3709 403.7972,727.3664 393.2493,727.3672 382.7014,727.3731 372.1535,727.3843 361.6054,727.4007 351.0574,727.4224 340.5092,727.4493 329.9609,727.4814 319.4124,727.5187 308.8638,727.5613 298.315,727.6091 287.766,727.6621 277.2168,727.7203 266.6673,727.7838 256.1176,727.8525 245.5675,727.9265 235.0172,728.0057 224.4665,728.0901 213.9155,728.1797 203.3641,728.2746 192.8123,728.3747 182.2601,728.4801 171.7074,728.5907 161.1543,728.7065 150.6007,728.8276 140.0466,728.9539 129.492,729.0855 118.9369,729.2223 108.3811,729.3643 97.8248,729.5116 87.2679,729.6642 76.7104,729.822" stroke="silver" stroke-opacity="0.5" stroke-width="1" /><polyline fill="none" points="724.5929,642.4016 721.6247,642.3585 711.0247,642.2074 700.4253,642.0615 689.8266,641.9206 679.2284,641.7847 668.6308,641.654 658.0337,641.5283 647.4372,641.4077 636.8412,641.2921 626.2456,641.1816 615.6506,641.0762 605.0559,640.9758 594.4617,640.8805 583.8679,640.7902 573.2744,640.705 562.6813,640.6248 552.0885,640.5498 541.4961,640.4797 530.9039,640.4147 520.312,640.3548 509.7204,640.3 499.1289,640.2501 488.5377,640.2054 477.9466,640.1657 467.3558,640.131 456.765,640.1014 446.1744,640.0769 435.5838,640.0574 424.9933,640.0429 414.4029,640.0335 403.8125,640.0292 393.2222,640.0299 382.6318,640.0356 372.0413,640.0465 361.4508,640.0623 350.8603,640.0832 340.2696,640.1092 329.6788,640.1402 319.0879,640.1763 308.4968,640.2174 297.9055,640.2636 287.314,640.3148 276.7223,640.3711 266.1303,640.4324 255.5381,640.4988 244.9455,640.5703 234.3527,640.6468 223.7595,640.7283 213.1659,640.815 202.572,640.9066 191.9776,641.0034 181.3829,641.1052 170.7877,641.212 160.192,641.3239 149.5958,641.4409 138.9991,641.563 128.4019,641.6901 117.8042,641.8223 107.2058,641.9595 96.6069,642.1018 86.0073,642.2492 75.4071,642.4016" stroke="silver" stroke-opacity="0.5" stroke-width="1" /><polyline fill="none" points="725.8455,555.0169 722.8659,554.9752 712.2249,554.8295 701.5845,554.6887 690.9448,554.5528 680.3057,554.4218 669.6671,554.2957 659.0291,554.1745 648.3917,554.0581 637.7547,553.9466 627.1183,553.84 616.4823,553.7383 605.8467,553.6415 595.2116,553.5496 584.5769,553.4625 573.9426,553.3803 563.3086,553.303 552.675,553.2306 542.0417,553.1631 531.4086,553.1004 520.7759,553.0426 510.1434,552.9897 499.5111,552.9416 488.879,552.8985 478.2471,552.8602 467.6154,552.8267 456.9838,552.7982 446.3524,552.7745 435.721,552.7557 425.0897,552.7418 414.4585,552.7327 403.8272,552.7285 393.196,552.7292 382.5648,552.7347 371.9335,552.7452 361.3022,552.7605 350.6708,552.7806 340.0393,552.8057 329.4077,552.8356 318.7759,552.8704 308.144,552.9101 297.5119,552.9546 286.8795,553.004 276.247,553.0583 265.6141,553.1175 254.981,553.1815 244.3476,553.2504 233.7139,553.3242 223.0798,553.4029 212.4454,553.4864 201.8106,553.5748 191.1754,553.6681 180.5397,553.7663 169.9036,553.8694 159.267,553.9774 148.6299,554.0902 137.9923,554.2079 127.3541,554.3305 116.7154,554.458 106.0761,554.5904 95.4362,554.7276 84.7957,554.8698 74.1545,555.0169" stroke="silver" stroke-opacity="0.5" stroke-width="1" /><polyline fill="none" points="727.0478,467.6543 724.0572,467.6142 713.3768,467.4739 702.6971,467.3384 692.0181,467.2075 681.3396,467.0814 670.6618,466.96 659.9845,466.8432 649.3077,466.7312 638.6315,466.6239 627.9558,466.5213 617.2806,466.4234 606.6058,466.3301 595.9314,466.2416 585.2575,466.1578 574.5839,466.0787 563.9107,466.0042 553.2378,465.9345 542.5653,465.8695 531.8931,465.8091 521.2211,465.7535 510.5494,465.7025 499.8779,465.6563 489.2067,465.6147 478.5356,465.5778 467.8647,465.5457 457.1939,465.5182 446.5232,465.4954 435.8527,465.4773 425.1822,465.4638 414.5117,465.4551 403.8413,465.4511 393.1709,465.4517 382.5005,465.4571 371.8301,465.4671 361.1596,465.4819 350.489,465.5013 339.8183,465.5254 329.1475,465.5542 318.4765,465.5877 307.8054,465.6259 297.1341,465.6688 286.4625,465.7163 275.7908,465.7686 265.1187,465.8256 254.4464,465.8872 243.7738,465.9536 233.1008,466.0246 222.4275,466.1004 211.7539,466.1808 201.0798,466.2659 190.4053,466.3558 179.7304,466.4503 169.055,466.5495 158.3792,466.6535 147.7028,466.7621 137.0259,466.8754 126.3485,466.9935 115.6705,467.1162 104.9919,467.2437 94.3126,467.3758 83.6328,467.5127 72.9522,467.6543" stroke="silver" stroke-opacity="0.5" stroke-width="1" /><polyline fill="none" points="728.1999,380.3007 725.1987,380.2622 714.4807,380.1274 703.7633,379.9971 693.0466,379.8714 682.3305,379.7502 671.615,379.6335 660.9,379.5214 650.1856,379.4137 639.4718,379.3106 628.7584,379.212 618.0456,379.1179 607.3331,379.0283 596.6212,378.9433 585.9096,378.8627 575.1985,378.7867 564.4877,378.7152 553.7772,378.6482 543.0671,378.5857 532.3573,378.5277 521.6478,378.4742 510.9385,378.4253 500.2294,378.3808 489.5206,378.3409 478.812,378.3054 468.1035,378.2745 457.3952,378.2481 446.6869,378.2262 435.9788,378.2088 425.2708,378.1959 414.5628,378.1875 403.8549,378.1836 393.1469,378.1843 382.439,378.1894 371.731,378.1991 361.0229,378.2132 350.3148,378.2319 339.6065,378.255 328.8982,378.2827 318.1896,378.3149 307.4809,378.3516 296.7721,378.3928 286.0629,378.4385 275.3536,378.4887 264.644,378.5435 253.9341,378.6027 243.2239,378.6665 232.5133,378.7347 221.8025,378.8075 211.0912,378.8848 200.3795,378.9666 189.6674,379.0529 178.9549,379.1438 168.2419,379.2391 157.5284,379.339 146.8144,379.4434 136.0998,379.5523 125.3847,379.6657 114.6691,379.7837 103.9528,379.9061 93.2359,380.0331 82.5183,380.1647 71.8001,380.3007" stroke="silver" stroke-opacity="0.5" stroke-width="1" /><polyline fill="none" points="729.3021,292.9428 726.2909,292.9059 715.5367,292.7766 704.7833,292.6517 694.0305,292.5312 683.2784,292.415 672.5268,292.3031 661.7759,292.1955 651.0255,292.0923 640.2756,291.9934 629.5262,291.8989 618.7774,291.8087 608.029,291.7228 597.281,291.6412 586.5335,291.564 575.7864,291.4911 565.0396,291.4225 554.2932,291.3583 543.5472,291.2984 532.8014,291.2428 522.0559,291.1915 511.3107,291.1446 500.5657,291.1019 489.8209,291.0636 479.0764,291.0297 468.332,291.0 457.5877,290.9747 446.8436,290.9537 436.0995,290.937 425.3556,290.9246 414.6117,290.9166 403.8678,290.9129 393.1239,290.9135 382.38,290.9184 371.6361,290.9277 360.8921,290.9412 350.1481,290.9591 339.4039,290.9813 328.6596,291.0079 317.9152,291.0387 307.1705,291.0739 296.4257,291.1134 285.6807,291.1573 274.9354,291.2054 264.1898,291.2579 253.444,291.3147 242.6978,291.3758 231.9513,291.4413 221.2045,291.5111 210.4572,291.5852 199.7096,291.6636 188.9615,291.7464 178.213,291.8335 167.464,291.9249 156.7145,292.0207 145.9645,292.1208 135.2139,292.2252 124.4628,292.334 113.7111,292.4471 102.9588,292.5645 92.2058,292.6863 81.4522,292.8124 70.6979,292.9428" stroke="silver" stroke-opacity="0.5" stroke-width="1" /><polyline fill="none" points="730.3545,205.5674 727.3336,205.532 716.5451,205.4084 705.7572,205.2889 694.97,205.1736 684.1834,205.0624 673.3975,204.9554 662.6121,204.8525 651.8273,204.7538 641.0431,204.6592 630.2594,204.5687 619.4761,204.4824 608.6934,204.4003 597.9111,204.3223 587.1292,204.2484 576.3477,204.1786 565.5666,204.113 554.7859,204.0516 544.0055,203.9943 533.2254,203.9411 522.4456,203.892 511.6661,203.8471 500.8868,203.8063 490.1077,203.7697 479.3288,203.7372 468.5501,203.7088 457.7716,203.6846 446.9931,203.6645 436.2148,203.6486 425.4365,203.6367 414.6583,203.629 403.8801,203.6255 393.102,203.6261 382.3238,203.6308 371.5456,203.6396 360.7673,203.6526 349.9889,203.6697 339.2105,203.691 328.4319,203.7164 317.6531,203.7459 306.8742,203.7796 296.095,203.8173 285.3157,203.8593 274.5361,203.9053 263.7562,203.9555 252.976,204.0099 242.1955,204.0684 231.4147,204.131 220.6335,204.1977 209.8519,204.2686 199.0699,204.3437 188.2875,204.4229 177.5046,204.5062 166.7212,204.5936 155.9374,204.6852 145.153,204.781 134.368,204.8809 123.5825,204.9849 112.7964,205.0931 102.0096,205.2055 91.2223,205.3219 80.4342,205.4426 69.6455,205.5674" stroke="silver" stroke-opacity="0.5" stroke-width="1" /><polyline fill="none" points="731.3573,118.1611 728.3271,118.1273 717.5058,118.0094 706.6851,117.8954 695.8651,117.7853 685.0458,117.6793 674.2271,117.5771 663.4089,117.479 652.5914,117.3848 641.7744,117.2945 630.9579,117.2082 620.1419,117.1259 609.3264,117.0475 598.5114,116.973 587.6968,116.9025 576.8826,116.836 566.0688,116.7734 555.2553,116.7147 544.4422,116.6601 533.6294,116.6093 522.8169,116.5625 512.0047,116.5197 501.1927,116.4808 490.3809,116.4458 479.5694,116.4148 468.758,116.3877 457.9467,116.3646 447.1356,116.3454 436.3246,116.3302 425.5136,116.3189 414.7028,116.3116 403.8919,116.3082 393.0811,116.3087 382.2702,116.3132 371.4593,116.3217 360.6483,116.3341 349.8373,116.3504 339.0261,116.3707 328.2149,116.3949 317.4034,116.4231 306.5918,116.4552 295.78,116.4912 284.9679,116.5313 274.1556,116.5752 263.343,116.6231 252.5301,116.675 241.7169,116.7308 230.9034,116.7905 220.0895,116.8542 209.2752,116.9219 198.4604,116.9935 187.6453,117.069 176.8297,117.1485 166.0136,117.232 155.1969,117.3194 144.3798,117.4107 133.5621,117.5061 122.7438,117.6053 111.9249,117.7086 101.1053,117.8158 90.2852,117.9269 79.4643,118.042 68.6427,118.1611" stroke="silver" stroke-opacity="0.5" stroke-width="1" /><circle cx="721.1186" cy="582.5661" fill="black" r="0.738" stroke="none" /><circle cx="713.1357" cy="544.0941" fill="black" r="0.738" stroke="none" /><circle cx="709.9124" cy="332.1115" fill="black" r="0.738" stroke="none" /><circle cx="705.709" cy="640.2106" fill="black" r="0.738" stroke="none" /><circle cx="695.7107" cy="581.175" fill="black" r="0.738" stroke="none" /><circle cx="696.9751" cy="306.1916" fill="black" r="0.738" stroke="none" /><circle cx="685.6658" cy="484.1649" fill="black" r="0.738" stroke="none" /><circle cx="673.0033" cy="712.2437" fill="black" r="0.738" stroke="none" /><circle cx="678.8871" cy="146.3756" fill="black" r="0.738" stroke="none" /><circle cx="675.4283" cy="367.8838" fill="black" r="0.738" stroke="none" /><circle cx="673.8735" cy="462.4543" fill="black" r="0.738" stroke="none" /><circle cx="668.9732" cy="723.558" fill="black" r="0.738" stroke="none" /><circle cx="672.9055" cy="379.2106" fill="black" r="0.738" stroke="none" /><circle cx="666.566" cy="427.1769" fill="black" r="0.936" stroke="none" /><circle cx="661.2899" cy="579.9698" fill="black" r="0.738" stroke="none" /><circle cx="662.3581" cy="379.449" fill="black" r="0.738" stroke="none" /><circle cx="653.1683" cy="218.6556" fill="black" r="0.738" stroke="none" /><circle cx="649.6602" cy="465.6869" fill="black" r="0.738" stroke="none" /><circle cx="643.8116" cy="519.8598" fill="black" r="0.738" stroke="none" /><circle cx="640.2677" cy="524.7141" fill="black" r="0.738" stroke="none" /><circle cx="623.6697" cy="661.1631" fill="black" r="0.738" stroke="none" /><circle cx="622.8739" cy="605.1561" fill="black" r="0.738" stroke="none" /><circle cx="622.7713" cy="266.43" fill="black" r="0.738" stroke="none" /><circle cx="615.4886" cy="494.8725" fill="black" r="0.738" stroke="none" /><circle cx="607.9653" cy="88.813" fill="black" r="0.738" stroke="none" /><circle cx="602.6404" cy="429.453" fill="black" r="0.738" stroke="none" /><circle cx="602.4716" cy="264.6116" fill="black" r="0.738" stroke="none" /><circle cx="597.7767" cy="340.1016" fill="black" r="0.738" stroke="none" /><circle cx="589.6084" cy="593.237" fill="black" r="0.738" stroke="none" /><circle cx="587.0509" cy="351.6334" fill="black" r="0.738" stroke="none" /><circle cx="587.1782" cy="183.8121" fill="black" r="0.738" stroke="none" /><circle cx="561.6852" cy="602.4524" fill="black" r="0.738" stroke="none" /><circle cx="555.6229" cy="582.7624" fill="black" r="0.738" stroke="none" /><circle cx="549.2385" cy="558.4468" fill="black" r="1.17" stroke="none" /><circle cx="549.2014" cy="483.5424" fill="black" r="0.738" stroke="none" /><circle cx="550.093" cy="289.1519" fill="black" r="0.738" stroke="none" /><circle cx="539.6808" cy="171.4879" fill="black" r="0.738" stroke="none" /><circle cx="532.0585" cy="231.788" fill="black" r="0.738" stroke="none" /><circle cx="529.8637" cy="615.2582" fill="black" r="0.738" stroke="none" /><circle cx="516.56" cy="289.8576" fill="black" r="0.738" stroke="none" /><circle cx="503.6135" cy="659.6582" fill="black" r="1.17" stroke="none" /><circle cx="490.1831" cy="310.9653" fill="black" r="0.738" stroke="none" /><circle cx="489.0662" cy="548.4472" fill="black" r="0.738" stroke="none" /><circle cx="483.6557" cy="108.9144" fill="black" r="0.738" stroke="none" /><circle cx="478.8543" cy="419.4109" fill="black" r="0.738" stroke="none" /><circle cx="475.4628" cy="437.7276" fill="black" r="0.936" stroke="none" /><circle cx="471.5689" cy="594.2177" fill="black" r="0.738" stroke="none" /><circle cx="468.5579" cy="461.8821" fill="black" r="0.738" stroke="none" /><circle cx="466.4303" cy="188.4251" fill="black" r="0.738" stroke="none" /><circle cx="449.7787" cy="188.7402" fill="black" r="0.738" stroke="none" /><circle cx="441.34" cy="687.6617" fill="black" r="1.476" stroke="none" /><circle cx="440.302" cy="406.8392" fill="black" r="0.738" stroke="none" /><circle cx="432.3271" cy="484.585" fill="black" r="0.738" stroke="none" /><circle cx="427.3299" cy="207.3051" fill="black" r="0.738" stroke="none" /><circle cx="423.7893" cy="109.5924" fill="black" r="0.738" stroke="none" /><circle cx="423.0592" cy="262.4692" fill="black" r="0.738" stroke="none" /><circle cx="413.9995" cy="140.0653" fill="black" r="0.738" stroke="none" /><circle cx="410.6236" cy="569.3156" fill="black" r="0.738" stroke="none" /><circle cx="408.9951" cy="376.8759" fill="black" r="0.738" stroke="none" /><circle cx="404.3137" cy="676.7057" fill="black" r="0.738" stroke="none" /><circle cx="400.6901" cy="190.4426" fill="black" r="0.738" stroke="none" /><circle cx="399.5682" cy="156.7404" fill="black" r="0.738" stroke="none" /><circle cx="385.4943" cy="612.2686" fill="black" r="0.738" stroke="none" /><circle cx="374.8286" cy="705.9791" fill="black" r="0.738" stroke="none" /><circle cx="372.2366" cy="592.376" fill="black" r="0.738" stroke="none" /><circle cx="371.857" cy="336.7462" fill="black" r="0.738" stroke="none" /><circle cx="365.3475" cy="584.5285" fill="black" r="0.738" stroke="none" /><circle cx="359.3011" cy="203.3928" fill="black" r="0.738" stroke="none" /><circle cx="359.5646" cy="531.6403" fill="black" r="0.738" stroke="none" /><circle cx="353.2506" cy="194.6718" fill="black" r="0.738" stroke="none" /><circle cx="344.8373" cy="457.7462" fill="black" r="1.17" stroke="none" /><circle cx="343.2787" cy="123.9606" fill="black" r="0.738" stroke="none" /><circle cx="343.1506" cy="274.3023" fill="black" r="0.738" stroke="none" /><circle cx="336.2091" cy="284.8791" fill="black" r="0.738" stroke="none" /><circle cx="331.012" cy="632.8885" fill="black" r="0.738" stroke="none" /><circle cx="320.3033" cy="551.8176" fill="black" r="0.738" stroke="none" /><circle cx="319.0183" cy="422.7341" fill="black" r="0.738" stroke="none" /><circle cx="317.5079" cy="715.1204" fill="black" r="0.738" stroke="none" /><circle cx="315.7461" cy="630.3214" fill="black" r="0.738" stroke="none" /><circle cx="311.6466" cy="129.1914" fill="black" r="0.738" stroke="none" /><circle cx="310.8781" cy="418.311" fill="black" r="0.738" stroke="none" /><circle cx="302.6425" cy="579.4716" fill="black" r="0.738" stroke="none" /><circle cx="300.4355" cy="520.3818" fill="black" r="0.738" stroke="none" /><circle cx="288.564" cy="669.6531" fill="black" r="0.738" stroke="none" /><circle cx="283.9622" cy="387.4378" fill="black" r="0.936" stroke="none" /><circle cx="281.8163" cy="252.7648" fill="black" r="0.738" stroke="none" /><circle cx="280.4268" cy="288.9107" fill="black" r="0.936" stroke="none" /><circle cx="278.1053" cy="690.9348" fill="black" r="0.936" stroke="none" /><circle cx="278.0527" cy="726.3175" fill="black" r="0.738" stroke="none" /><circle cx="276.0437" cy="562.75" fill="black" r="0.738" stroke="none" /><circle cx="275.7339" cy="675.3997" fill="black" r="1.17" stroke="none" /><circle cx="271.3428" cy="431.6636" fill="black" r="0.738" stroke="none" /><circle cx="267.2264" cy="537.4812" fill="black" r="0.738" stroke="none" /><circle cx="252.6482" cy="639.2078" fill="black" r="0.738" stroke="none" /><circle cx="239.9428" cy="441.6237" fill="black" r="0.738" stroke="none" /><circle cx="233.6891" cy="252.4916" fill="black" r="0.738" stroke="none" /><circle cx="231.8023" cy="239.6681" fill="black" r="0.738" stroke="none" /><circle cx="234.517" cy="662.5699" fill="black" r="0.936" stroke="none" /><circle cx="226.0106" cy="194.9943" fill="black" r="0.738" stroke="none" /><circle cx="226.1164" cy="253.15" fill="black" r="0.738" stroke="none" /><circle cx="226.8783" cy="467.5523" fill="black" r="0.738" stroke="none" /><circle cx="227.3766" cy="648.1244" fill="black" r="0.738" stroke="none" /><circle cx="223.9956" cy="203.9145" fill="black" r="0.936" stroke="none" /><circle cx="216.9276" cy="380.1516" fill="black" r="0.738" stroke="none" /><circle cx="198.2182" cy="229.6765" fill="black" r="0.738" stroke="none" /><circle cx="180.6769" cy="550.2717" fill="black" r="0.738" stroke="none" /><circle cx="176.4488" cy="244.7782" fill="black" r="0.936" stroke="none" /><circle cx="174.6179" cy="155.7846" fill="black" r="0.738" stroke="none" /><circle cx="169.7856" cy="462.5259" fill="black" r="0.738" stroke="none" /><circle cx="171.478" cy="715.045" fill="black" r="0.738" stroke="none" /><circle cx="170.2266" cy="619.639" fill="black" r="0.738" stroke="none" /><circle cx="165.2461" cy="361.0169" fill="black" r="0.738" stroke="none" /><circle cx="161.5911" cy="210.0525" fill="black" r="0.738" stroke="none" /><circle cx="164.5088" cy="567.2869" fill="black" r="0.936" stroke="none" /><circle cx="164.1454" cy="638.3984" fill="black" r="0.738" stroke="none" /><circle cx="158.7034" cy="367.6267" fill="black" r="0.738" stroke="none" /><circle cx="158.2954" cy="509.1834" fill="black" r="0.738" stroke="none" /><circle cx="154.2995" cy="598.666" fill="black" r="0.738" stroke="none" /><circle cx="148.6542" cy="248.3379" fill="black" r="0.738" stroke="none" /><circle cx="122.8565" cy="261.6029" fill="black" r="0.738" stroke="none" /><circle cx="109.3886" cy="419.9353" fill="black" r="0.738" stroke="none" /><circle cx="104.128" cy="508.0496" fill="black" r="0.738" stroke="none" /><circle cx="105.8248" cy="652.9031" fill="black" r="0.738" stroke="none" /><circle cx="100.9862" cy="440.1257" fill="black" r="0.738" stroke="none" /><circle cx="95.1987" cy="189.8982" fill="black" r="0.738" stroke="none" /><circle cx="93.219" cy="461.9734" fill="black" r="0.738" stroke="none" /><circle cx="87.8842" cy="160.6111" fill="black" r="0.738" stroke="none" /><circle cx="77.4674" cy="101.5383" fill="black" r="0.738" stroke="none" /><circle cx="13.77" cy="786.23" fill="black" r="4.59" stroke="none" /><circle cx="13.77" cy="786.23" fill="black" r="4.59" stroke="none" /><text fill="black" font-family="monospace" font-size="12" x="10.77" y="775.64">1</text><circle cx="37.77" cy="786.23" fill="black" r="3.654" stroke="none" /><circle cx="37.77" cy="786.23" fill="black" r="3.654" stroke="none" /><text fill="black" font-family="monospace" font-size="12" x="34.769999999999996" y="775.64">2</text><circle cx="61.77" cy="786.23" fill="black" r="2.916" stroke="none" /><circle cx="61.77" cy="786.23" fill="black" r="2.916" stroke="none" /><text fill="black" font-family="monospace" font-size="12" x="58.769999999999996" y="775.64">3</text><circle cx="85.77" cy="786.23" fill="black" r="2.322" stroke="none" /><circle cx="85.77" cy="786.23" fill="black" r="2.322" stroke="none" /><text fill="black" font-family="monospace" font-size="12" x="82.77" y="775.64">4</text><circle cx="109.77" cy="786.23" fill="black" r="1.854" stroke="none" /><circle cx="109.77" cy="786.23" fill="black" r="1.854" stroke="none" /><text fill="black" font-family="monospace" font-size="12" x="106.77" y="775.64">5</text><circle cx="133.77" cy="786.23" fill="black" r="1.476" stroke="none" /><circle cx="133.77" cy="786.23" fill="black" r="1.476" stroke="none" /><text fill="black" font-family="monospace" font-size="12" x="130.77" y="775.64">6</text><circle cx="157.77" cy="786.23" fill="black" r="1.17" stroke="none" /><circle cx="157.77" cy="786.23" fill="black" r="1.17" stroke="none" /><text fill="black" font-family="monospace" font-size="12" x="154.77" y="775.64">7</text><circle cx="181.77" cy="786.23" fill="black" r="0.936" stroke="none" /><circle cx="181.77" cy="786.23" fill="black" r="0.936" stroke="none" /><text fill="black" font-family="monospace" font-size="12" x="178.77" y="775.64">8</text><circle cx="205.77" cy="786.23" fill="black" r="0.738" stroke="none" /><circle cx="205.77" cy="786.23" fill="black" r="0.738" stroke="none" /><text fill="black" font-family="monospace" font-size="12" x="202.77" y="775.64">9</text><text fill="gray" fill-opacity="0.5" font-family="monospace" font-size="12" x="717.9683274544554" y="74.29419915377383">23h30m</text><text fill="gray" fill-opacity="0.5" font-family="monospace" font-size="12" x="609.6311929992121" y="73.3555428848963">23h35m</text><text fill="gray" fill-opacity="0.5" font-family="monospace" font-size="12" x="501.339992275953" y="72.80253983256114">23h40m</text><text fill="gray" fill-opacity="0.5" font-family="monospace" font-size="12" x="393.0709903211254" y="72.6346842767856">23h45m</text><text fill="gray" fill-opacity="0.5" font-family="monospace" font-size="12" x="284.8004706857221" y="72.85182276192137">23h50m</text><text fill="gray" fill-opacity="0.5" font-family="monospace" font-size="12" x="176.50471565507252" y="73.45415380292008">23h55m</text><text fill="gray" fill-opacity="0.5" font-family="monospace" font-size="12" x="76.71035069797495" y="729.8219665440616">-15°</text><text fill="gray" fill-opacity="0.5" font-family="monospace" font-size="12" x="75.40714312416856" y="642.4016498613714">-14°</text><text fill="gray" fill-opacity="0.5" font-family="monospace" font-size="12" x="74.15451755678691" y="555.0168519113298">-13°</text><text fill="gray" fill-opacity="0.5" font-family="monospace" font-size="12" x="72.95223276131458" y="467.65429096855854">-12°</text><text fill="gray" fill-opacity="0.5" font-family="monospace" font-size="12" x="71.80007815861342" y="380.30069879479095">-11°</text><text fill="gray" fill-opacity="0.5" font-family="monospace" font-size="12" x="70.69787367159438" y="292.9428125892501">-10°</text><text fill="gray" fill-opacity="0.5" font-family="monospace" font-size="12" x="69.64546961131464" y="205.56736694601938">-9°</text><text fill="gray" fill-opacity="0.5" font-family="monospace" font-size="12" x="68.64274660234406" y="118.16108580806116">-8°</text><text fill="black" font-family="monospace" font-size="12" x="12" y="48">&gt;&gt; No.360 23h29m 24h00m -15.0°-7.5°</text><a target="_self" xlink:href="hip022.svg"><text fill="black" font-family="monospace" font-size="12" x="12" y="36">&gt; No.22 21h20m 24h00m -22.5°+0.0°</text></a><a target="_self" xlink:href="hip001.svg"><text fill="black" font-family="monospace" font-size="12" x="12" y="24">No.1 00h 24h -90.0°+0.0°</text></a><polyline fill="none" points="731.84,74.4422 728.8055,74.4093 717.9683,74.2942 707.1319,74.183 696.2961,74.0756 685.461,73.9721 674.6264,73.8724 663.7925,73.7766 652.9592,73.6847 642.1264,73.5966 631.2942,73.5124 620.4624,73.432 609.6312,73.3555 598.8004,73.2829 587.97,73.2141 577.1401,73.1492 566.3105,73.0881 555.4813,73.0309 544.6525,72.9775 533.8239,72.928 522.9957,72.8823 512.1677,72.8405 501.34,72.8025 490.5125,72.7684 479.6852,72.7382 468.858,72.7118 458.0311,72.6892 447.2042,72.6705 436.3774,72.6556 425.5508,72.6446 414.7242,72.6375 403.8976,72.6341 393.071,72.6347 382.2444,72.6391 371.4178,72.6473 360.5911,72.6594 349.7643,72.6753 338.9374,72.6951 328.1104,72.7188 317.2832,72.7463 306.4558,72.7776 295.6283,72.8128 284.8005,72.8518 273.9724,72.8947 263.1441,72.9415 252.3155,72.9921 241.4865,73.0465 230.6572,73.1048 219.8276,73.167 208.9975,73.233 198.167,73.3029 187.3361,73.3766 176.5047,73.4542 165.6728,73.5356 154.8404,73.6209 144.0075,73.71 133.174,73.8031 122.34,73.8999 111.5053,74.0007 100.67,74.1053 89.834,74.2137 78.9973,74.326 68.16,74.4422" stroke="black" stroke-opacity="0.5" stroke-width="1" /><polyline fill="none" points="723.2896,729.822 723.4553,718.892 723.6202,707.9628 723.7843,697.0343 723.9476,686.1065 724.1101,675.1794 724.2718,664.2529 724.4327,653.327 724.5929,642.4016 724.7522,631.4769 724.9107,620.5526 725.0685,609.6289 725.2255,598.7056 725.3817,587.7828 725.5371,576.8604 725.6917,565.9385 725.8455,555.0169 725.9985,544.0956 726.1508,533.1746 726.3022,522.254 726.4529,511.3336 726.6028,500.4135 726.7519,489.4936 726.9002,478.5738 727.0478,467.6543 727.1945,456.7349 727.3405,445.8156 727.4857,434.8964 727.6301,423.9772 727.7737,413.0581 727.9166,402.139 728.0586,391.2199 728.1999,380.3007 728.3404,369.3815 728.4801,358.4621 728.6191,347.5427 728.7573,336.6231 728.8946,325.7034 729.0312,314.7834 729.1671,303.8632 729.3021,292.9428 729.4364,282.0221 729.5699,271.1011 729.7026,260.1798 729.8345,249.2581 729.9657,238.3361 730.0961,227.4136 730.2257,216.4907 730.3545,205.5674 730.4826,194.6435 730.6099,183.7192 730.7364,172.7943 730.8621,161.8689 730.987,150.9429 731.1112,140.0163 731.2346,129.089 731.3573,118.1611 731.4791,107.2325 731.6002,96.3031 731.7205,85.3731 731.84,74.4422" stroke="black" stroke-opacity="0.5" stroke-width="1" /><polyline fill="none" points="723.2896,729.822 720.3335,729.7773 709.7761,729.6209 699.2194,729.4699 688.6632,729.324 678.1076,729.1835 667.5526,729.0481 656.9982,728.918 646.4442,728.7932 635.8908,728.6736 625.3378,728.5592 614.7853,728.4501 604.2332,728.3462 593.6815,728.2475 583.1302,728.1541 572.5793,728.0659 562.0287,727.983 551.4784,727.9052 540.9285,727.8328 530.3788,727.7655 519.8294,727.7035 509.2803,727.6467 498.7313,727.5951 488.1826,727.5488 477.634,727.5077 467.0856,727.4718 456.5373,727.4412 445.9892,727.4158 435.4411,727.3956 424.8931,727.3807 414.3452,727.3709 403.7972,727.3664 393.2493,727.3672 382.7014,727.3731 372.1535,727.3843 361.6054,727.4007 351.0574,727.4224 340.5092,727.4493 329.9609,727.4814 319.4124,727.5187 308.8638,727.5613 298.315,727.6091 287.766,727.6621 277.2168,727.7203 266.6673,727.7838 256.1176,727.8525 245.5675,727.9265 235.0172,728.0057 224.4665,728.0901 213.9155,728.1797 203.3641,728.2746 192.8123,728.3747 182.2601,728.4801 171.7074,728.5907 161.1543,728.7065 150.6007,728.8276 140.0466,728.9539 129.492,729.0855 118.9369,729.2223 108.3811,729.3643 97.8248,729.5116 87.2679,729.6642 76.7104,729.822" stroke="black" stroke-opacity="0.5" stroke-width="1" /><polyline fill="none" points="76.7104,729.822 76.5447,718.892 76.3798,707.9628 76.2157,697.0343 76.0524,686.1065 75.8899,675.1794 75.7282,664.2529 75.5673,653.327 75.4071,642.4016 75.2478,631.4769 75.0893,620.5526 74.9315,609.6289 74.7745,598.7056 74.6183,587.7828 74.4629,576.8604 74.3083,565.9385 74.1545,555.0169 74.0015,544.0956 73.8492,533.1746 73.6978,522.254 73.5471,511.3336 73.3972,500.4135 73.2481,489.4936 73.0998,478.5738 72.9522,467.6543 72.8055,456.7349 72.6595,445.8156 72.5143,434.8964 72.3699,423.9772 72.2263,413.0581 72.0834,402.139 71.9414,391.2199 71.8001,380.3007 71.6596,369.3815 71.5199,358.4621 71.3809,347.5427 71.2427,336.6231 71.1054,325.7034 70.9688,314.7834 70.8329,303.8632 70.6979,292.9428 70.5636,282.0221 70.4301,271.1011 70.2974,260.1798 70.1655,249.2581 70.0343,238.3361 69.9039,227.4136 69.7743,216.4907 69.6455,205.5674 69.5174,194.6435 69.3901,183.7192 69.2636,172.7943 69.1379,161.8689 69.013,150.9429 68.8888,140.0163 68.7654,129.089 68.6427,118.1611 68.5209,107.2325 68.3998,96.3031 68.2795,85.3731 68.16,74.4422" stroke="black" stroke-opacity="0.5" stroke-width="1" /></svg>