<?xml version="1.0" encoding="utf-8" ?>
<svg baseProfile="tiny" height="800" version="1.2" width="800" xmlns="http://www.w3.org/2000/svg" xmlns:ev="http://www.w3.org/2001/xml-events" xmlns:xlink="http://www.w3.org/1999/xlink"><defs /><rect fill="none" height="800" stroke="black" stroke-width="2" width="800" x="0" y="0" /><polyline fill="none" points="654.043,728.8825 654.1731,717.9566 654.3027,707.0313 654.4315,696.1068 654.5598,685.1829 654.6875,674.2598 654.8145,663.3372 654.9409,652.4153 655.0667,641.494 655.1918,630.5732 655.3164,619.653 655.4403,608.7333 655.5636,597.814 655.6863,586.8952 655.8083,575.9769 655.9298,565.0589 656.0506,554.1414 656.1708,543.2242 656.2904,532.3073 656.4093,521.3907 656.5277,510.4744 656.6454,499.5583 656.7626,488.6425 656.8791,477.7269 656.995,466.8114 657.1102,455.8961 657.2249,444.9809 657.3389,434.0658 657.4524,423.1507 657.5652,412.2357 657.6774,401.3208 657.789,390.4058 657.8999,379.4908 658.0103,368.5757 658.1201,357.6605 658.2292,346.7452 658.3377,335.8298 658.4456,324.9142 658.5529,313.9984 658.6596,303.0824 658.7657,292.1662 658.8712,281.2497 658.976,270.3329 659.0803,259.4158 659.1839,248.4983 659.2869,237.5805 659.3893,226.6622 659.4911,215.7436 659.5923,204.8244 659.6929,193.9049 659.7929,182.9848 659.8923,172.0641 659.991,161.143 660.0892,150.2212 660.1867,139.2988 660.2836,128.3759 660.38,117.4522 660.4757,106.5279 660.5708,95.6028 660.6653,84.677 660.7591,73.7505" stroke="silver" stroke-opacity="0.5" stroke-width="1" /><polyline fill="none" points="548.5244,727.8844 548.6005,716.9626 548.6762,706.0416 548.7515,695.1213 548.8264,684.2017 548.901,673.2827 548.9753,662.3644 549.0491,651.4467 549.1226,640.5296 549.1958,629.6131 549.2685,618.6971 549.341,607.7817 549.413,596.8667 549.4847,585.9522 549.556,575.0381 549.627,564.1245 549.6976,553.2112 549.7679,542.2983 549.8378,531.3857 549.9073,520.4735 549.9764,509.5615 550.0452,498.6497 550.1137,487.7382 550.1818,476.827 550.2495,465.9158 550.3169,455.0049 550.3839,444.094 550.4505,433.1833 550.5168,422.2726 550.5827,411.362 550.6483,400.4514 550.7135,389.5408 550.7784,378.6302 550.8429,367.7195 550.907,356.8088 550.9708,345.8979 551.0342,334.9869 551.0973,324.0758 551.16,313.1644 551.2223,302.2529 551.2843,291.3411 551.3459,280.429 551.4072,269.5167 551.4681,258.604 551.5287,247.691 551.5889,236.7777 551.6487,225.8639 551.7082,214.9497 551.7674,204.0351 551.8261,193.12 551.8846,182.2044 551.9426,171.2883 552.0003,160.3717 552.0577,149.4544 552.1147,138.5366 552.1713,127.6181 552.2276,116.699 552.2836,105.7792 552.3391,94.8587 552.3944,83.9375 552.4492,73.0155" stroke="silver" stroke-opacity="0.5" stroke-width="1" /><polyline fill="none" points="443.0357,727.4096 443.0577,716.4898 443.0797,705.5708 443.1015,694.6525 443.1232,683.7349 443.1448,672.8179 443.1663,661.9016 443.1877,650.986 443.209,640.0709 443.2302,629.1564 443.2513,618.2424 443.2723,607.329 443.2931,596.4161 443.3139,585.5036 443.3346,574.5916 443.3551,563.68 443.3756,552.7687 443.3959,541.8579 443.4162,530.9473 443.4363,520.0371 443.4563,509.1272 443.4763,498.2175 443.4961,487.3081 443.5158,476.3989 443.5355,465.4898 443.555,454.5809 443.5744,443.6722 443.5937,432.7635 443.6129,421.8549 443.632,410.9464 443.651,400.0379 443.6699,389.1294 443.6887,378.2209 443.7073,367.3123 443.7259,356.4036 443.7444,345.4949 443.7628,334.586 443.781,323.6769 443.7992,312.7677 443.8173,301.8582 443.8352,290.9486 443.8531,280.0386 443.8708,269.1284 443.8885,258.2179 443.906,247.307 443.9235,236.3958 443.9408,225.4842 443.958,214.5721 443.9752,203.6596 443.9922,192.7467 444.0091,181.8332 444.0259,170.9193 444.0427,160.0048 444.0593,149.0897 444.0758,138.174 444.0922,127.2577 444.1085,116.3408 444.1247,105.4231 444.1408,94.5048 444.1568,83.5857 444.1727,72.6659" stroke="silver" stroke-opacity="0.5" stroke-width="1" /><polyline fill="none" points="337.5556,727.4577 337.5237,716.5377 337.4919,705.6185 337.4602,694.7 337.4287,683.7821 337.3973,672.865 337.3661,661.9485 337.3351,651.0326 337.3042,640.1174 337.2734,629.2027 337.2429,618.2885 337.2124,607.3749 337.1821,596.4617 337.152,585.5491 337.122,574.6368 337.0922,563.725 337.0625,552.8136 337.033,541.9025 337.0036,530.9918 336.9744,520.0813 336.9453,509.1712 336.9164,498.2613 336.8876,487.3517 336.859,476.4422 336.8305,465.533 336.8022,454.6239 336.774,443.7149 336.746,432.806 336.7181,421.8973 336.6904,410.9885 336.6629,400.0798 336.6355,389.1711 336.6082,378.2623 336.5811,367.3535 336.5541,356.4447 336.5273,345.5357 336.5007,334.6266 336.4742,323.7173 336.4478,312.8079 336.4216,301.8982 336.3955,290.9883 336.3696,280.0782 336.3439,269.1677 336.3183,258.257 336.2928,247.3459 336.2675,236.4345 336.2423,225.5226 336.2173,214.6104 336.1925,203.6977 336.1678,192.7845 336.1432,181.8708 336.1188,170.9567 336.0945,160.0419 336.0704,149.1266 336.0465,138.2107 336.0227,127.2942 335.999,116.3771 335.9755,105.4592 335.9521,94.5407 335.9289,83.6214 335.9059,72.7014" stroke="silver" stroke-opacity="0.5" stroke-width="1" /><polyline fill="none" points="232.063,728.0288 231.977,717.1064 231.8915,706.1847 231.8063,695.2638 231.7215,684.3436 231.6372,673.424 231.5532,662.5051 231.4697,651.5868 231.3866,640.6691 231.3039,629.752 231.2216,618.8354 231.1397,607.9193 231.0582,597.0037 230.9772,586.0886 230.8965,575.1739 230.8162,564.2596 230.7364,553.3457 230.657,542.4322 230.578,531.519 230.4993,520.6061 230.4211,509.6935 230.3433,498.7811 230.2659,487.869 230.1889,476.9571 230.1124,466.0453 230.0362,455.1338 229.9604,444.2223 229.8851,433.3109 229.8101,422.3996 229.7355,411.4884 229.6614,400.5772 229.5877,389.6659 229.5143,378.7547 229.4414,367.8434 229.3689,356.932 229.2968,346.0205 229.225,335.1088 229.1537,324.197 229.0828,313.285 229.0123,302.3728 228.9422,291.4604 228.8725,280.5477 228.8033,269.6347 228.7344,258.7214 228.6659,247.8078 228.5978,236.8938 228.5301,225.9794 228.4629,215.0645 228.396,204.1493 228.3295,193.2335 228.2635,182.3173 228.1978,171.4005 228.1325,160.4832 228.0677,149.5653 228.0032,138.6468 227.9392,127.7277 227.8755,116.808 227.8123,105.8875 227.7494,94.9664 227.687,84.0445 227.625,73.1218" stroke="silver" stroke-opacity="0.5" stroke-width="1" /><polyline fill="none" points="126.5366,729.1233 126.3965,718.1963 126.2571,707.27 126.1183,696.3445 125.9803,685.4196 125.8428,674.4954 125.7061,663.5719 125.57,652.6489 125.4346,641.7266 125.2999,630.8048 125.1658,619.8835 125.0324,608.9628 124.8997,598.0425 124.7676,587.1227 124.6362,576.2033 124.5054,565.2843 124.3754,554.3657 124.246,543.4475 124.1172,532.5295 123.9891,521.6119 123.8617,510.6946 123.735,499.7775 123.6089,488.8606 123.4835,477.9439 123.3587,467.0274 123.2346,456.111 123.1112,445.1948 122.9884,434.2786 122.8663,423.3625 122.7448,412.4465 122.624,401.5304 122.5039,390.6144 122.3844,379.6983 122.2656,368.7822 122.1474,357.8659 122.03,346.9496 121.9131,336.0331 121.7969,325.1164 121.6814,314.1996 121.5666,303.2825 121.4524,292.3652 121.3388,281.4476 121.2259,270.5297 121.1137,259.6115 121.0022,248.693 120.8912,237.7741 120.781,226.8548 120.6714,215.935 120.5624,205.0148 120.4542,194.0941 120.3465,183.173 120.2396,172.2512 120.1332,161.329 120.0276,150.4061 119.9226,139.4827 119.8182,128.5586 119.7145,117.6338 119.6115,106.7084 119.5091,95.7823 119.4074,84.8554 119.3063,73.9277" stroke="silver" stroke-opacity="0.5" stroke-width="1" /><polyline fill="none" points="723.2896,729.822 717.3773,729.733 706.8201,729.5781 696.2636,729.4285 685.7076,729.2841 675.1522,729.145 664.5973,729.0112 654.043,728.8825 643.4892,728.7592 632.9359,728.641 622.383,728.5281 611.8306,728.4205 601.2787,728.318 590.7271,728.2208 580.1759,728.1289 569.6251,728.0422 559.0746,727.9607 548.5244,727.8844 537.9746,727.8134 527.425,727.7476 516.8756,727.6871 506.3265,727.6317 495.7777,727.5816 485.229,727.5368 474.6804,727.4971 464.1321,727.4627 453.5838,727.4336 443.0357,727.4096 432.4877,727.3909 421.9397,727.3774 411.3917,727.3692 400.8438,727.3661 390.2959,727.3683 379.748,727.3757 369.2,727.3884 358.652,727.4063 348.1039,727.4294 337.5556,727.4577 327.0073,727.4913 316.4588,727.5301 305.9101,727.5741 295.3613,727.6234 284.8122,727.6779 274.2629,727.7376 263.7134,727.8025 253.1636,727.8727 242.6135,727.9481 232.063,728.0288 221.5123,728.1147 210.9611,728.2058 200.4096,728.3021 189.8577,728.4037 179.3054,728.5105 168.7526,728.6226 158.1994,728.7399 147.6456,728.8625 137.0914,728.9902 126.5366,729.1233 115.9813,729.2615 105.4254,729.4051 94.8689,729.5538 84.3119,729.7078 76.7104,729.822" stroke="silver" stroke-opacity="0.5" stroke-width="1" /><polyline fill="none" points="724.5929,642.4016 718.6567,642.3157 708.0568,642.166 697.4576,642.0215 686.859,641.882 676.261,641.7476 665.6636,641.6183 655.0667,641.494 644.4703,641.3748 633.8744,641.2606 623.279,641.1516 612.684,641.0475 602.0895,640.9486 591.4954,640.8547 580.9017,640.7658 570.3083,640.682 559.7153,640.6033 549.1226,640.5296 538.5303,640.461 527.9382,640.3975 517.3463,640.339 506.7547,640.2855 496.1634,640.2371 485.5722,640.1938 474.9812,640.1555 464.3903,640.1222 453.7996,640.094 443.209,640.0709 432.6185,640.0528 422.028,640.0398 411.4376,640.0318 400.8472,640.0289 390.2568,640.031 379.6664,640.0382 369.076,640.0504 358.4855,640.0677 347.8949,640.09 337.3042,640.1174 326.7134,640.1498 316.1224,640.1873 305.5312,640.2298 294.9399,640.2774 284.3483,640.3301 273.7565,640.3878 263.1645,640.4505 252.5722,640.5183 241.9795,640.5912 231.3866,640.6691 220.7933,640.7521 210.1996,640.8401 199.6056,640.9332 189.0111,641.0314 178.4162,641.1346 167.8209,641.2428 157.2251,641.3562 146.6288,641.4746 136.032,641.598 125.4346,641.7266 114.8367,641.8602 104.2382,641.9988 93.6391,642.1426 83.0393,642.2914 75.4071,642.4016" stroke="silver" stroke-opacity="0.5" stroke-width="1" /><polyline fill="none" points="725.8455,555.0169 719.8863,554.9339 709.2455,554.7896 698.6053,554.6502 687.9658,554.5156 677.3268,554.386 666.6884,554.2612 656.0506,554.1414 645.4133,554.0264 634.7765,553.9163 624.1401,553.8111 613.5043,553.7107 602.8689,553.6153 592.2339,553.5247 581.5993,553.439 570.965,553.3582 560.3312,553.2823 549.6976,553.2112 539.0644,553.145 528.4314,553.0837 517.7988,553.0273 507.1663,552.9757 496.5341,552.929 485.9021,552.8872 475.2702,552.8503 464.6386,552.8182 454.007,552.7911 443.3756,552.7687 432.7442,552.7513 422.1129,552.7387 411.4817,552.731 400.8505,552.7282 390.2193,552.7302 379.5881,552.7372 368.9568,552.749 358.3254,552.7656 347.694,552.7872 337.0625,552.8136 326.4308,552.8448 315.799,552.881 305.167,552.922 294.5348,552.9679 283.9024,553.0187 273.2698,553.0744 262.6369,553.1349 252.0037,553.2003 241.3702,553.2706 230.7364,553.3457 220.1022,553.4258 209.4677,553.5107 198.8328,553.6005 188.1974,553.6951 177.5616,553.7947 166.9254,553.8991 156.2887,554.0085 145.6514,554.1227 135.0137,554.2417 124.3754,554.3657 113.7365,554.4946 103.097,554.6283 92.457,554.767 81.8162,554.9105 74.1545,555.0169" stroke="silver" stroke-opacity="0.5" stroke-width="1" /><polyline fill="none" points="727.0478,467.6543 721.0666,467.5744 710.3864,467.4355 699.7069,467.3013 689.028,467.1717 678.3498,467.0469 667.6721,466.9268 656.995,466.8114 646.3184,466.7007 635.6423,466.5947 624.9667,466.4934 614.2916,466.3968 603.6169,466.3049 592.9427,466.2177 582.2688,466.1352 571.5954,466.0574 560.9223,465.9843 550.2495,465.9158 539.577,465.8521 528.9049,465.7931 518.233,465.7388 507.5614,465.6891 496.8899,465.6442 486.2187,465.6039 475.5477,465.5684 464.8768,465.5375 454.2061,465.5113 443.5355,465.4898 432.8649,465.473 422.1944,465.4609 411.524,465.4535 400.8536,465.4508 390.1832,465.4528 379.5128,465.4594 368.8424,465.4708 358.1718,465.4868 347.5012,465.5076 336.8305,465.533 326.1597,465.5631 315.4886,465.5979 304.8175,465.6374 294.1461,465.6816 283.4745,465.7305 272.8026,465.7841 262.1305,465.8424 251.4581,465.9053 240.7854,465.973 230.1124,466.0453 219.439,466.1224 208.7652,466.2042 198.091,466.2906 187.4164,466.3818 176.7414,466.4776 166.0659,466.5782 155.3899,466.6834 144.7133,466.7934 134.0363,466.908 123.3587,467.0274 112.6805,467.1514 102.0017,467.2802 91.3223,467.4137 80.6423,467.5519 72.9522,467.6543" stroke="silver" stroke-opacity="0.5" stroke-width="1" /><polyline fill="none" points="728.1999,380.3007 722.1976,380.224 711.4798,380.0904 700.7626,379.9615 690.046,379.837 679.3301,379.7171 668.6147,379.6017 657.8999,379.4908 647.1857,379.3844 636.472,379.2825 625.7588,379.1852 615.046,379.0924 604.3338,379.0041 593.6219,378.9203 582.9105,378.841 572.1994,378.7662 561.4887,378.696 550.7784,378.6302 540.0683,378.569 529.3586,378.5123 518.6491,378.4601 507.9399,378.4124 497.2309,378.3692 486.5222,378.3305 475.8136,378.2963 465.1051,378.2667 454.3968,378.2415 443.6887,378.2209 432.9806,378.2047 422.2726,378.1931 411.5646,378.186 400.8566,378.1834 390.1487,378.1853 379.4407,378.1917 368.7327,378.2026 358.0246,378.218 347.3165,378.2379 336.6082,378.2623 325.8998,378.2913 315.1912,378.3247 304.4825,378.3627 293.7735,378.4052 283.0644,378.4521 272.3549,378.5036 261.6452,378.5596 250.9353,378.6201 240.225,378.6851 229.5143,378.7547 218.8033,378.8287 208.092,378.9073 197.3802,378.9903 186.668,379.0779 175.9553,379.17 165.2422,379.2666 154.5285,379.3678 143.8144,379.4734 133.0997,379.5836 122.3844,379.6983 111.6686,379.8175 100.9521,379.9412 90.235,380.0695 79.5173,380.2023 71.8001,380.3007" stroke="silver" stroke-opacity="0.5" stroke-width="1" /><polyline fill="none" points="729.3021,292.9428 723.2796,292.8692 712.5257,292.7412 701.7725,292.6175 691.0199,292.4982 680.2679,292.3832 669.5165,292.2725 658.7657,292.1662 648.0155,292.0642 637.2657,291.9665 626.5165,291.8732 615.7678,291.7842 605.0195,291.6995 594.2717,291.6192 583.5243,291.5432 572.7773,291.4715 562.0306,291.4041 551.2843,291.3411 540.5383,291.2824 529.7926,291.228 519.0472,291.1779 508.3021,291.1322 497.5572,291.0908 486.8124,291.0537 476.0679,291.0209 465.3236,290.9925 454.5793,290.9684 443.8352,290.9486 433.0912,290.9331 422.3473,290.9219 411.6034,290.9151 400.8595,290.9126 390.1156,290.9144 379.3718,290.9206 368.6278,290.931 357.8838,290.9458 347.1397,290.9649 336.3955,290.9883 325.6512,291.0161 314.9067,291.0482 304.162,291.0845 293.4171,291.1253 282.672,291.1703 271.9267,291.2197 261.181,291.2734 250.4351,291.3314 239.6888,291.3937 228.9422,291.4604 218.1953,291.5314 207.4479,291.6067 196.7002,291.6864 185.952,291.7704 175.2033,291.8587 164.4542,291.9513 153.7045,292.0483 142.9544,292.1496 132.2037,292.2552 121.4524,292.3652 110.7005,292.4795 99.948,292.5982 89.1948,292.7211 78.441,292.8485 70.6979,292.9428" stroke="silver" stroke-opacity="0.5" stroke-width="1" /><polyline fill="none" points="730.3545,205.5674 724.3127,205.497 713.5244,205.3745 702.7367,205.2562 691.9497,205.142 681.1633,205.032 670.3775,204.9262 659.5923,204.8244 648.8077,204.7269 638.0236,204.6334 627.24,204.5442 616.4569,204.459 605.6743,204.378 594.8921,204.3011 584.1104,204.2284 573.329,204.1599 562.548,204.0954 551.7674,204.0351 540.9871,203.9789 530.207,203.9269 519.4273,203.879 508.6479,203.8353 497.8686,203.7957 487.0896,203.7602 476.3108,203.7289 465.5321,203.7016 454.7536,203.6786 443.9752,203.6596 433.1969,203.6448 422.4186,203.6342 411.6404,203.6276 400.8623,203.6252 390.0841,203.627 379.3059,203.6328 368.5277,203.6428 357.7494,203.657 346.971,203.6753 336.1925,203.6977 325.4138,203.7242 314.635,203.7549 303.856,203.7897 293.0768,203.8287 282.2974,203.8718 271.5177,203.919 260.7378,203.9703 249.9575,204.0258 239.1769,204.0855 228.396,204.1493 217.6147,204.2172 206.833,204.2892 196.0509,204.3654 185.2683,204.4458 174.4853,204.5303 163.7018,204.6189 152.9178,204.7116 142.1332,204.8086 131.3481,204.9096 120.5624,205.0148 109.7762,205.1242 98.9892,205.2377 88.2017,205.3553 77.4134,205.4771 69.6455,205.5674" stroke="silver" stroke-opacity="0.5" stroke-width="1" /><polyline fill="none" points="731.3573,118.1611 725.2971,118.0939 714.4759,117.9771 703.6555,117.8642 692.8356,117.7552 682.0165,117.6503 671.1979,117.5493 660.38,117.4522 649.5626,117.3591 638.7457,117.2699 627.9294,117.1848 617.1135,117.1035 606.2982,117.0262 595.4833,116.9529 584.6688,116.8835 573.8547,116.8181 563.041,116.7566 552.2276,116.699 541.4146,116.6454 530.6019,116.5958 519.7895,116.5501 508.9773,116.5084 498.1654,116.4706 487.3537,116.4367 476.5422,116.4068 465.7308,116.3808 454.9196,116.3588 444.1085,116.3408 433.2975,116.3266 422.4866,116.3165 411.6757,116.3102 400.8649,116.3079 390.054,116.3096 379.2432,116.3152 368.4322,116.3247 357.6213,116.3382 346.8102,116.3557 335.999,116.3771 325.1877,116.4024 314.3762,116.4317 303.5645,116.4649 292.7526,116.5021 281.9405,116.5432 271.1281,116.5882 260.3154,116.6372 249.5025,116.6902 238.6892,116.7471 227.8755,116.808 217.0615,116.8728 206.2471,116.9415 195.4322,117.0142 184.617,117.0909 173.8012,117.1715 162.9849,117.2561 152.1682,117.3446 141.3509,117.437 130.533,117.5335 119.7145,117.6338 108.8955,117.7382 98.0758,117.8465 87.2554,117.9587 76.4343,118.075 68.6427,118.1611" stroke="silver" stroke-opacity="0.5" stroke-width="1" /><circle cx="717.7224" cy="267.9886" fill="black" r="0.738" stroke="none" /><circle cx="709.2196" cy="643.9304" fill="black" r="0.738" stroke="none" /><circle cx="702.3093" cy="726.0156" fill="black" r="0.738" stroke="none" /><circle cx="704.3481" cy="532.0953" fill="black" r="0.738" stroke="none" /><circle cx="704.3605" cy="351.352" fill="black" r="0.738" stroke="none" /><circle cx="687.8368" cy="618.6483" fill="black" r="0.738" stroke="none" /><circle cx="681.6233" cy="236.3145" fill="black" r="0.738" stroke="none" /><circle cx="677.6202" cy="441.0107" fill="black" r="0.738" stroke="none" /><circle cx="661.9709" cy="579.8903" fill="black" r="0.738" stroke="none" /><circle cx="664.1334" cy="133.2168" fill="black" r="0.738" stroke="none" /><circle cx="658.8168" cy="223.3374" fill="black" r="0.738" stroke="none" /><circle cx="652.9166" cy="695.4772" fill="black" r="0.738" stroke="none" /><circle cx="650.2342" cy="189.8009" fill="black" r="0.738" stroke="none" /><circle cx="630.3067" cy="378.6147" fill="black" r="0.738" stroke="none" /><circle cx="623.9222" cy="567.5209" fill="black" r="0.738" stroke="none" /><circle cx="613.1246" cy="511.1799" fill="black" r="0.936" stroke="none" /><circle cx="608.7358" cy="582.2252" fill="black" r="0.738" stroke="none" /><circle cx="597.0791" cy="482.5775" fill="black" r="0.738" stroke="none" /><circle cx="591.9682" cy="664.4453" fill="black" r="0.738" stroke="none" /><circle cx="594.4981" cy="135.1187" fill="black" r="0.936" stroke="none" /><circle cx="584.2508" cy="247.9789" fill="black" r="0.738" stroke="none" /><circle cx="567.6277" cy="647.7366" fill="black" r="0.738" stroke="none" /><circle cx="566.85" cy="290.6481" fill="black" r="0.738" stroke="none" /><circle cx="558.0152" cy="118.3018" fill="black" r="0.738" stroke="none" /><circle cx="543.442" cy="432.7925" fill="black" r="0.738" stroke="none" /><circle cx="543.8896" cy="192.9039" fill="black" r="0.738" stroke="none" /><circle cx="540.7519" cy="299.6638" fill="black" r="0.738" stroke="none" /><circle cx="537.3423" cy="707.9757" fill="black" r="0.738" stroke="none" /><circle cx="534.1242" cy="583.412" fill="black" r="0.738" stroke="none" /><circle cx="529.5321" cy="394.835" fill="black" r="0.738" stroke="none" /><circle cx="530.5358" cy="111.9658" fill="black" r="0.738" stroke="none" /><circle cx="523.0308" cy="375.9497" fill="black" r="0.738" stroke="none" /><circle cx="513.7247" cy="289.4962" fill="black" r="0.738" stroke="none" /><circle cx="507.2712" cy="511.4248" fill="black" r="0.738" stroke="none" /><circle cx="489.2711" cy="709.3819" fill="black" r="0.738" stroke="none" /><circle cx="489.0558" cy="594.978" fill="black" r="0.738" stroke="none" /><circle cx="470.5048" cy="109.2297" fill="black" r="0.738" stroke="none" /><circle cx="467.6554" cy="596.9122" fill="black" r="0.738" stroke="none" /><circle cx="466.2109" cy="381.324" fill="black" r="0.738" stroke="none" /><circle cx="448.531" cy="399.3487" fill="black" r="1.17" stroke="none" /><circle cx="440.6399" cy="608.4591" fill="black" r="0.936" stroke="none" /><circle cx="437.5126" cy="495.851" fill="black" r="0.738" stroke="none" /><circle cx="427.6334" cy="696.2867" fill="black" r="0.738" stroke="none" /><circle cx="418.95" cy="466.3309" fill="black" r="0.738" stroke="none" /><circle cx="414.3634" cy="272.937" fill="black" r="0.738" stroke="none" /><circle cx="407.6686" cy="223.53" fill="black" r="0.738" stroke="none" /><circle cx="407.1378" cy="276.2508" fill="black" r="0.738" stroke="none" /><circle cx="396.1875" cy="640.1165" fill="black" r="0.738" stroke="none" /><circle cx="392.217" cy="119.5404" fill="black" r="0.738" stroke="none" /><circle cx="384.2491" cy="650.7747" fill="black" r="0.738" stroke="none" /><circle cx="382.6223" cy="126.7058" fill="black" r="1.476" stroke="none" /><circle cx="378.8767" cy="206.2522" fill="black" r="0.738" stroke="none" /><circle cx="376.0081" cy="371.7369" fill="black" r="1.17" stroke="none" /><circle cx="374.7537" cy="125.5762" fill="black" r="0.738" stroke="none" /><circle cx="367.946" cy="497.5013" fill="black" r="0.738" stroke="none" /><circle cx="365.579" cy="189.765" fill="black" r="0.738" stroke="none" /><circle cx="359.7222" cy="368.2666" fill="black" r="0.738" stroke="none" /><circle cx="348.0497" cy="401.5373" fill="black" r="0.738" stroke="none" /><circle cx="347.7388" cy="609.5307" fill="black" r="0.738" stroke="none" /><circle cx="338.8488" cy="418.9247" fill="black" r="0.738" stroke="none" /><circle cx="335.7833" cy="175.3232" fill="black" r="0.738" stroke="none" /><circle cx="320.2039" cy="96.3254" fill="black" r="0.738" stroke="none" /><circle cx="318.1547" cy="545.54" fill="black" r="0.738" stroke="none" /><circle cx="318.4933" cy="662.7091" fill="black" r="0.738" stroke="none" /><circle cx="306.9096" cy="542.0033" fill="black" r="1.476" stroke="none" /><circle cx="296.3369" cy="268.0694" fill="black" r="0.738" stroke="none" /><circle cx="287.5867" cy="122.8102" fill="black" r="0.738" stroke="none" /><circle cx="284.0496" cy="210.5001" fill="black" r="0.738" stroke="none" /><circle cx="274.066" cy="360.6022" fill="black" r="0.738" stroke="none" /><circle cx="263.2426" cy="204.7439" fill="black" r="0.738" stroke="none" /><circle cx="256.3655" cy="597.6153" fill="black" r="0.936" stroke="none" /><circle cx="243.3576" cy="467.6148" fill="black" r="0.738" stroke="none" /><circle cx="238.1487" cy="320.7354" fill="black" r="0.738" stroke="none" /><circle cx="236.4759" cy="184.4522" fill="black" r="0.738" stroke="none" /><circle cx="226.0864" cy="275.3271" fill="black" r="0.738" stroke="none" /><circle cx="211.0219" cy="322.488" fill="black" r="0.738" stroke="none" /><circle cx="212.068" cy="580.2108" fill="black" r="0.738" stroke="none" /><circle cx="203.3136" cy="648.0632" fill="black" r="0.738" stroke="none" /><circle cx="194.8181" cy="115.7952" fill="black" r="0.738" stroke="none" /><circle cx="198.9447" cy="707.1666" fill="black" r="0.738" stroke="none" /><circle cx="180.6568" cy="165.7847" fill="black" r="0.738" stroke="none" /><circle cx="175.1088" cy="185.3082" fill="black" r="0.738" stroke="none" /><circle cx="176.6919" cy="704.5896" fill="black" r="0.936" stroke="none" /><circle cx="169.1468" cy="257.415" fill="black" r="0.738" stroke="none" /><circle cx="150.7475" cy="316.0049" fill="black" r="0.738" stroke="none" /><circle cx="142.4899" cy="409.266" fill="black" r="0.738" stroke="none" /><circle cx="131.3156" cy="98.7338" fill="black" r="0.738" stroke="none" /><circle cx="131.7189" cy="189.4417" fill="black" r="0.738" stroke="none" /><circle cx="126.9565" cy="333.7962" fill="black" r="0.738" stroke="none" /><circle cx="125.5922" cy="520.1956" fill="black" r="0.738" stroke="none" /><circle cx="122.5524" cy="662.0383" fill="black" r="0.738" stroke="none" /><circle cx="88.0184" cy="509.042" fill="black" r="0.738" stroke="none" /><circle cx="80.8241" cy="408.9281" fill="black" r="0.738" stroke="none" /><circle cx="78.0738" cy="290.9307" fill="black" r="0.738" stroke="none" /><circle cx="70.0377" cy="79.6693" fill="black" r="0.738" stroke="none" /><circle cx="76.1594" cy="612.3208" fill="black" r="0.738" stroke="none" /><circle cx="13.77" cy="786.23" fill="black" r="4.59" stroke="none" /><circle cx="13.77" cy="786.23" fill="black" r="4.59" stroke="none" /><text fill="black" font-family="monospace" font-size="12" x="10.77" y="775.64">1</text><circle cx="37.77" cy="786.23" fill="black" r="3.654" stroke="none" /><circle cx="37.77" cy="786.23" fill="black" r="3.654" stroke="none" /><text fill="black" font-family="monospace" font-size="12" x="34.769999999999996" y="775.64">2</text><circle cx="61.77" cy="786.23" fill="black" r="2.916" stroke="none" /><circle cx="61.77" cy="786.23" fill="black" r="2.916" stroke="none" /><text fill="black" font-family="monospace" font-size="12" x="58.769999999999996" y="775.64">3</text><circle cx="85.77" cy="786.23" fill="black" r="2.322" stroke="none" /><circle cx="85.77" cy="786.23" fill="black" r="2.322" stroke="none" /><text fill="black" font-family="monospace" font-size="12" x="82.77" y="775.64">4</text><circle cx="109.77" cy="786.23" fill="black" r="1.854" stroke="none" /><circle cx="109.77" cy="786.23" fill="black" r="1.854" stroke="none" /><text fill="black" font-family="monospace" font-size="12" x="106.77" y="775.64">5</text><circle cx="133.77" cy="786.23" fill="black" r="1.476" stroke="none" /><circle cx="133.77" cy="786.23" fill="black" r="1.476" stroke="none" /><text fill="black" font-family="monospace" font-size="12" x="130.77" y="775.64">6</text><circle cx="157.77" cy="786.23" fill="black" r="1.17" stroke="none" /><circle cx="157.77" cy="786.23" fill="black" r="1.17" stroke="none" /><text fill="black" font-family="monospace" font-size="12" x="154.77" y="775.64">7</text><circle cx="181.77" cy="786.23" fill="black" r="0.936" stroke="none" /><circle cx="181.77" cy="786.23" fill="black" r="0.936" stroke="none" /><text fill="black" font-family="monospace" font-size="12" x="178.77" y="775.64">8</text><circle cx="205.77" cy="786.23" fill="black" r="0.738" stroke="none" /><circle cx="205.77" cy="786.23" fill="black" r="0.738" stroke="none" /><text fill="black" font-family="monospace" font-size="12" x="202.77" y="775.64">9</text><text fill="gray" fill-opacity="0.5" font-family="monospace" font-size="12" x="660.7591443533746" y="73.75048891633293">17h25m</text><text fill="gray" fill-opacity="0.5" font-family="monospace" font-size="12" x="552.4492223549332" y="73.0155421291214">17h30m</text><text fill="gray" fill-opacity="0.5" font-family="monospace" font-size="12" x="444.17269851050605" y="72.66593759992094">17h35m</text><text fill="gray" fill-opacity="0.5" font-family="monospace" font-size="12" x="335.9058500980897" y="72.70135568212186">17h40m</text><text fill="gray" fill-opacity="0.5" font-family="monospace" font-size="12" x="227.62496246454683" y="73.1218287543984">17h45m</text><text fill="gray" fill-opacity="0.5" font-family="monospace" font-size="12" x="119.30630924839738" y="73.92774128268235">17h50m</text><text fill="gray" fill-opacity="0.5" font-family="monospace" font-size="12" x="76.71035069797921" y="729.8219665440616">-15°</text><text fill="gray" fill-opacity="0.5" font-family="monospace" font-size="12" x="75.40714312417288" y="642.4016498613714">-14°</text><text fill="gray" fill-opacity="0.5" font-family="monospace" font-size="12" x="74.15451755679123" y="555.0168519113298">-13°</text><text fill="gray" fill-opacity="0.5" font-family="monospace" font-size="12" x="72.95223276131895" y="467.65429096855854">-12°</text><text fill="gray" fill-opacity="0.5" font-family="monospace" font-size="12" x="71.80007815861774" y="380.30069879479095">-11°</text><text fill="gray" fill-opacity="0.5" font-family="monospace" font-size="12" x="70.69787367159876" y="292.9428125892501">-10°</text><text fill="gray" fill-opacity="0.5" font-family="monospace" font-size="12" x="69.64546961131902" y="205.56736694601938">-9°</text><text fill="gray" fill-opacity="0.5" font-family="monospace" font-size="12" x="68.64274660234844" y="118.16108580806116">-8°</text><text fill="black" font-family="monospace" font-size="12" x="12" y="48">&gt;&gt; No.348 17h22m 17h52m -15.0°-7.5°</text><a target="_self" xlink:href="hip020.svg"><text fill="black" font-family="monospace" font-size="12" x="12" y="36">&gt; No.20 16h00m 18h40m -22.5°+0.0°</text></a><a target="_self" xlink:href="hip001.svg"><text fill="black" font-family="monospace" font-size="12" x="12" y="24">No.1 00h 24h -90.0°+0.0°</text></a><polyline fill="none" points="731.84,74.4422 725.771,74.3767 714.9341,74.2627 704.0978,74.1525 693.2622,74.0462 682.4272,73.9438 671.5929,73.8452 660.7591,73.7505 649.926,73.6596 639.0933,73.5726 628.2612,73.4895 617.4296,73.4102 606.5985,73.3348 595.7679,73.2633 584.9376,73.1955 574.1078,73.1317 563.2783,73.0717 552.4492,73.0155 541.6205,72.9632 530.792,72.9148 519.9638,72.8702 509.1359,72.8295 498.3083,72.7926 487.4808,72.7596 476.6536,72.7304 465.8265,72.7051 454.9995,72.6836 444.1727,72.6659 433.346,72.6522 422.5193,72.6422 411.6927,72.6361 400.8661,72.6339 390.0395,72.6355 379.2129,72.641 368.3863,72.6503 357.5596,72.6635 346.7328,72.6805 335.9059,72.7014 325.0788,72.7261 314.2516,72.7546 303.4241,72.7871 292.5965,72.8233 281.7686,72.8634 270.9405,72.9074 260.1121,72.9552 249.2834,73.0069 238.4544,73.0624 227.625,73.1218 216.7952,73.1851 205.965,73.2522 195.1344,73.3231 184.3034,73.3979 173.4718,73.4766 162.6398,73.5591 151.8073,73.6455 140.9742,73.7357 130.1406,73.8298 119.3063,73.9277 108.4715,74.0296 97.636,74.1352 86.7998,74.2448 75.963,74.3582 68.16,74.4422" stroke="black" stroke-opacity="0.5" stroke-width="1" /><polyline fill="none" points="723.2896,729.822 723.4553,718.892 723.6202,707.9628 723.7843,697.0343 723.9476,686.1065 724.1101,675.1794 724.2718,664.2529 724.4327,653.327 724.5929,642.4016 724.7522,631.4769 724.9107,620.5526 725.0685,609.6289 725.2255,598.7056 725.3817,587.7828 725.5371,576.8604 725.6917,565.9385 725.8455,555.0169 725.9985,544.0956 726.1508,533.1746 726.3022,522.254 726.4529,511.3336 726.6028,500.4135 726.7519,489.4936 726.9002,478.5738 727.0478,467.6543 727.1945,456.7349 727.3405,445.8156 727.4857,434.8964 727.6301,423.9772 727.7737,413.0581 727.9166,402.139 728.0586,391.2199 728.1999,380.3007 728.3404,369.3815 728.4801,358.4621 728.6191,347.5427 728.7573,336.6231 728.8946,325.7034 729.0312,314.7834 729.1671,303.8632 729.3021,292.9428 729.4364,282.0221 729.5699,271.1011 729.7026,260.1798 729.8345,249.2581 729.9657,238.3361 730.0961,227.4136 730.2257,216.4907 730.3545,205.5674 730.4826,194.6435 730.6099,183.7192 730.7364,172.7943 730.8621,161.8689 730.987,150.9429 731.1112,140.0163 731.2346,129.089 731.3573,118.1611 731.4791,107.2325 731.6002,96.3031 731.7205,85.3731 731.84,74.4422" stroke="black" stroke-opacity="0.5" stroke-width="1" /><polyline fill="none" points="723.2896,729.822 717.3773,729.733 706.8201,729.5781 696.2636,729.4285 685.7076,729.2841 675.1522,729.145 664.5973,729.0112 654.043,728.8825 643.4892,728.7592 632.9359,728.641 622.383,728.5281 611.8306,728.4205 601.2787,728.318 590.7271,728.2208 580.1759,728.1289 569.6251,728.0422 559.0746,727.9607 548.5244,727.8844 537.9746,727.8134 527.425,727.7476 516.8756,727.6871 506.3265,727.6317 495.7777,727.5816 485.229,727.5368 474.6804,727.4971 464.1321,727.4627 453.5838,727.4336 443.0357,727.4096 432.4877,727.3909 421.9397,727.3774 411.3917,727.3692 400.8438,727.3661 390.2959,727.3683 379.748,727.3757 369.2,727.3884 358.652,727.4063 348.1039,727.4294 337.5556,727.4577 327.0073,727.4913 316.4588,727.5301 305.9101,727.5741 295.3613,727.6234 284.8122,727.6779 274.2629,727.7376 263.7134,727.8025 253.1636,727.8727 242.6135,727.9481 232.063,728.0288 221.5123,728.1147 210.9611,728.2058 200.4096,728.3021 189.8577,728.4037 179.3054,728.5105 168.7526,728.6226 158.1994,728.7399 147.6456,728.8625 137.0914,728.9902 126.5366,729.1233 115.9813,729.2615 105.4254,729.4051 94.8689,729.5538 84.3119,729.7078 76.7104,729.822" stroke="black" stroke-opacity="0.5" stroke-width="1" /><polyline fill="none" points="76.7104,729.822 76.5447,718.892 76.3798,707.9628 76.2157,697.0343 76.0524,686.1065 75.8899,675.1794 75.7282,664.2529 75.5673,653.327 75.4071,642.4016 75.2478,631.4769 75.0893,620.5526 74.9315,609.6289 74.7745,598.7056 74.6183,587.7828 74.4629,576.8604 74.3083,565.9385 74.1545,555.0169 74.0015,544.0956 73.8492,533.1746 73.6978,522.254 73.5471,511.3336 73.3972,500.4135 73.2481,489.4936 73.0998,478.5738 72.9522,467.6543 72.8055,456.7349 72.6595,445.8156 72.5143,434.8964 72.3699,423.9772 72.2263,413.0581 72.0834,402.139 71.9414,391.2199 71.8001,380.3007 71.6596,369.3815 71.5199,358.4621 71.3809,347.5427 71.2427,336.6231 71.1054,325.7034 70.9688,314.7834 70.8329,303.8632 70.6979,292.9428 70.5636,282.0221 70.4301,271.1011 70.2974,260.1798 70.1655,249.2581 70.0343,238.3361 69.9039,227.4136 69.7743,216.4907 69.6455,205.5674 69.5174,194.6435 69.3901,183.7192 69.2636,172.7943 69.1379,161.8689 69.013,150.9429 68.8888,140.0163 68.7654,129.089 68.6427,118.1611 68.5209,107.2325 68.3998,96.3031 68.2795,85.3731 68.16,74.4422" stroke="black" stroke-opacity="0.5" stroke-width="1" /></svg>