<?xml version="1.0" encoding="utf-8" ?>
<svg baseProfile="tiny" height="800" version="1.2" width="800" xmlns="http://www.w3.org/2000/svg" xmlns:ev="http://www.w3.org/2001/xml-events" xmlns:xlink="http://www.w3.org/1999/xlink"><defs /><rect fill="none" height="800" stroke="black" stroke-width="2" width="800" x="0" y="0" /><polyline fill="none" points="716.5327,729.7204 716.6949,718.7909 716.8564,707.8621 717.017,696.934 717.1769,686.0067 717.336,675.0799 717.4943,664.1539 717.6519,653.2284 717.8087,642.3035 717.9647,631.3792 718.1199,620.4554 718.2743,609.532 718.428,598.6092 718.5809,587.6868 718.7331,576.7649 718.8844,565.8434 719.035,554.9222 719.1849,544.0014 719.3339,533.0808 719.4822,522.1606 719.6297,511.2407 719.7765,500.321 719.9225,489.4015 720.0677,478.4823 720.2122,467.5631 720.3558,456.6442 720.4988,445.7253 720.6409,434.8065 720.7823,423.8878 720.9229,412.9692 721.0628,402.0505 721.2019,391.1318 721.3402,380.2131 721.4777,369.2943 721.6145,358.3755 721.7506,347.4565 721.8858,336.5373 722.0203,325.618 722.1541,314.6985 722.2871,303.7788 722.4193,292.8588 722.5508,281.9386 722.6815,271.018 722.8114,260.0972 722.9406,249.1759 723.069,238.2543 723.1966,227.3323 723.3235,216.4099 723.4497,205.487 723.575,194.5637 723.6996,183.6398 723.8235,172.7154 723.9466,161.7904 724.0689,150.8649 724.1905,139.9387 724.3113,129.0119 724.4314,118.0844 724.5507,107.1563 724.6692,96.2274 724.787,85.2978 724.904,74.3674" stroke="silver" stroke-opacity="0.5" stroke-width="1" /><polyline fill="none" points="610.9865,728.4121 611.0945,717.4881 611.2021,706.5648 611.3091,695.6422 611.4156,684.7204 611.5216,673.7992 611.627,662.8787 611.732,651.9588 611.8364,641.0394 611.9404,630.1207 612.0438,619.2024 612.1467,608.2847 612.249,597.3675 612.3509,586.4507 612.4523,575.5344 612.5531,564.6185 612.6534,553.7029 612.7532,542.7877 612.8525,531.8729 612.9513,520.9583 613.0496,510.0441 613.1474,499.1301 613.2446,488.2163 613.3414,477.3027 613.4376,466.3893 613.5333,455.476 613.6285,444.5628 613.7232,433.6498 613.8174,422.7368 613.9111,411.8239 614.0042,400.911 614.0969,389.9981 614.189,379.0851 614.2807,368.1721 614.3718,357.259 614.4624,346.3458 614.5525,335.4325 614.6421,324.519 614.7312,313.6053 614.8198,302.6914 614.9079,291.7773 614.9955,280.8629 615.0825,269.9482 615.1691,259.0331 615.2552,248.1178 615.3407,237.202 615.4257,226.2859 615.5103,215.3694 615.5943,204.4524 615.6778,193.5349 615.7608,182.6169 615.8433,171.6984 615.9253,160.7794 616.0068,149.8598 616.0878,138.9395 616.1683,128.0187 616.2483,117.0972 616.3278,106.175 616.4067,95.2521 616.4852,84.3285 616.5631,73.4041" stroke="silver" stroke-opacity="0.5" stroke-width="1" /><polyline fill="none" points="505.4826,727.6275 505.5366,716.7068 505.5904,705.7869 505.6439,694.8676 505.6971,683.9491 505.7501,673.0312 505.8028,662.114 505.8552,651.1974 505.9074,640.2814 505.9594,629.366 506.011,618.4511 506.0625,607.5368 506.1136,596.6229 506.1645,585.7095 506.2152,574.7965 506.2656,563.884 506.3157,552.9718 506.3656,542.06 506.4152,531.1485 506.4646,520.2374 506.5137,509.3265 506.5626,498.4159 506.6112,487.5055 506.6595,476.5953 506.7076,465.6853 506.7555,454.7755 506.8031,443.8658 506.8504,432.9562 506.8975,422.0466 506.9443,411.1372 506.9908,400.2277 507.0371,389.3182 507.0832,378.4087 507.129,367.4992 507.1745,356.5896 507.2198,345.6798 507.2649,334.77 507.3096,323.86 507.3542,312.9498 507.3985,302.0394 507.4425,291.1287 507.4862,280.2178 507.5298,269.3066 507.573,258.3951 507.616,247.4833 507.6588,236.571 507.7013,225.6584 507.7435,214.7454 507.7855,203.832 507.8273,192.918 507.8687,182.0036 507.91,171.0887 507.951,160.1732 507.9917,149.2571 508.0322,138.3404 508.0724,127.4231 508.1124,116.5052 508.1521,105.5866 508.1915,94.6673 508.2308,83.7472 508.2697,72.8264" stroke="silver" stroke-opacity="0.5" stroke-width="1" /><polyline fill="none" points="400.0,727.3661 400.0,716.4465 400.0,705.5276 400.0,694.6095 400.0,683.6921 400.0,672.7753 400.0,661.8592 400.0,650.9437 400.0,640.0289 400.0,629.1145 400.0,618.2008 400.0,607.2875 400.0,596.3748 400.0,585.4625 400.0,574.5506 400.0,563.6392 400.0,552.7282 400.0,541.8175 400.0,530.9072 400.0,519.9971 400.0,509.0874 400.0,498.1779 400.0,487.2687 400.0,476.3596 400.0,465.4508 400.0,454.5421 400.0,443.6335 400.0,432.725 400.0,421.8167 400.0,410.9083 400.0,400.0 400.0,389.0917 400.0,378.1833 400.0,367.275 400.0,356.3665 400.0,345.4579 400.0,334.5492 400.0,323.6404 400.0,312.7313 400.0,301.8221 400.0,290.9126 400.0,280.0029 400.0,269.0928 400.0,258.1825 400.0,247.2718 400.0,236.3608 400.0,225.4494 400.0,214.5375 400.0,203.6252 400.0,192.7125 400.0,181.7992 400.0,170.8855 400.0,159.9711 400.0,149.0563 400.0,138.1408 400.0,127.2247 400.0,116.3079 400.0,105.3905 400.0,94.4724 400.0,83.5535 400.0,72.6339" stroke="silver" stroke-opacity="0.5" stroke-width="1" /><polyline fill="none" points="294.5174,727.6275 294.4634,716.7068 294.4096,705.7869 294.3561,694.8676 294.3029,683.9491 294.2499,673.0312 294.1972,662.114 294.1448,651.1974 294.0926,640.2814 294.0406,629.366 293.989,618.4511 293.9375,607.5368 293.8864,596.6229 293.8355,585.7095 293.7848,574.7965 293.7344,563.884 293.6843,552.9718 293.6344,542.06 293.5848,531.1485 293.5354,520.2374 293.4863,509.3265 293.4374,498.4159 293.3888,487.5055 293.3405,476.5953 293.2924,465.6853 293.2445,454.7755 293.1969,443.8658 293.1496,432.9562 293.1025,422.0466 293.0557,411.1372 293.0092,400.2277 292.9629,389.3182 292.9168,378.4087 292.871,367.4992 292.8255,356.5896 292.7802,345.6798 292.7351,334.77 292.6904,323.86 292.6458,312.9498 292.6015,302.0394 292.5575,291.1287 292.5138,280.2178 292.4702,269.3066 292.427,258.3951 292.384,247.4833 292.3412,236.571 292.2987,225.6584 292.2565,214.7454 292.2145,203.832 292.1727,192.918 292.1313,182.0036 292.09,171.0887 292.049,160.1732 292.0083,149.2571 291.9678,138.3404 291.9276,127.4231 291.8876,116.5052 291.8479,105.5866 291.8085,94.6673 291.7692,83.7472 291.7303,72.8264" stroke="silver" stroke-opacity="0.5" stroke-width="1" /><polyline fill="none" points="189.0135,728.4121 188.9055,717.4881 188.7979,706.5648 188.6909,695.6422 188.5844,684.7204 188.4784,673.7992 188.373,662.8787 188.268,651.9588 188.1636,641.0394 188.0596,630.1207 187.9562,619.2024 187.8533,608.2847 187.751,597.3675 187.6491,586.4507 187.5477,575.5344 187.4469,564.6185 187.3466,553.7029 187.2468,542.7877 187.1475,531.8729 187.0487,520.9583 186.9504,510.0441 186.8526,499.1301 186.7554,488.2163 186.6586,477.3027 186.5624,466.3893 186.4667,455.476 186.3715,444.5628 186.2768,433.6498 186.1826,422.7368 186.0889,411.8239 185.9958,400.911 185.9031,389.9981 185.811,379.0851 185.7193,368.1721 185.6282,357.259 185.5376,346.3458 185.4475,335.4325 185.3579,324.519 185.2688,313.6053 185.1802,302.6914 185.0921,291.7773 185.0045,280.8629 184.9175,269.9482 184.8309,259.0331 184.7448,248.1178 184.6593,237.202 184.5743,226.2859 184.4897,215.3694 184.4057,204.4524 184.3222,193.5349 184.2392,182.6169 184.1567,171.6984 184.0747,160.7794 183.9932,149.8598 183.9122,138.9395 183.8317,128.0187 183.7517,117.0972 183.6722,106.175 183.5933,95.2521 183.5148,84.3285 183.4369,73.4041" stroke="silver" stroke-opacity="0.5" stroke-width="1" /><polyline fill="none" points="83.4673,729.7204 83.3051,718.7909 83.1436,707.8621 82.983,696.934 82.8231,686.0067 82.664,675.0799 82.5057,664.1539 82.3481,653.2284 82.1913,642.3035 82.0353,631.3792 81.8801,620.4554 81.7257,609.532 81.572,598.6092 81.4191,587.6868 81.2669,576.7649 81.1156,565.8434 80.965,554.9222 80.8151,544.0014 80.6661,533.0808 80.5178,522.1606 80.3703,511.2407 80.2235,500.321 80.0775,489.4015 79.9323,478.4823 79.7878,467.5631 79.6442,456.6442 79.5012,445.7253 79.3591,434.8065 79.2177,423.8878 79.0771,412.9692 78.9372,402.0505 78.7981,391.1318 78.6598,380.2131 78.5223,369.2943 78.3855,358.3755 78.2494,347.4565 78.1142,336.5373 77.9797,325.618 77.8459,314.6985 77.7129,303.7788 77.5807,292.8588 77.4492,281.9386 77.3185,271.018 77.1886,260.0972 77.0594,249.1759 76.931,238.2543 76.8034,227.3323 76.6765,216.4099 76.5503,205.487 76.425,194.5637 76.3004,183.6398 76.1765,172.7154 76.0534,161.7904 75.9311,150.8649 75.8095,139.9387 75.6887,129.0119 75.5686,118.0844 75.4493,107.1563 75.3308,96.2274 75.213,85.2978 75.096,74.3674" stroke="silver" stroke-opacity="0.5" stroke-width="1" /><polyline fill="none" points="723.2896,729.822 716.5327,729.7204 705.9756,729.5659 695.4191,729.4168 684.8631,729.2728 674.3078,729.1341 663.753,729.0007 653.1987,728.8725 642.6449,728.7495 632.0916,728.6318 621.5388,728.5193 610.9865,728.4121 600.4345,728.3101 589.883,728.2133 579.3318,728.1217 568.781,728.0354 558.2306,727.9544 547.6804,727.8785 537.1306,727.8079 526.581,727.7426 516.0317,727.6824 505.4826,727.6275 494.9338,727.5779 484.3851,727.5334 473.8366,727.4942 463.2882,727.4602 452.74,727.4315 442.1919,727.4079 431.6438,727.3896 421.0958,727.3766 410.5479,727.3687 400.0,727.3661 389.4521,727.3687 378.9042,727.3766 368.3562,727.3896 357.8081,727.4079 347.26,727.4315 336.7118,727.4602 326.1634,727.4942 315.6149,727.5334 305.0662,727.5779 294.5174,727.6275 283.9683,727.6824 273.419,727.7426 262.8694,727.8079 252.3196,727.8785 241.7694,727.9544 231.219,728.0354 220.6682,728.1217 210.117,728.2133 199.5655,728.3101 189.0135,728.4121 178.4612,728.5193 167.9084,728.6318 157.3551,728.7495 146.8013,728.8725 136.247,729.0007 125.6922,729.1341 115.1369,729.2728 104.5809,729.4168 94.0244,729.5659 83.4673,729.7204 76.7104,729.822" stroke="silver" stroke-opacity="0.5" stroke-width="1" /><polyline fill="none" points="724.5929,642.4016 717.8087,642.3035 707.2089,642.1543 696.6097,642.0101 686.0112,641.8711 675.4132,641.7371 664.8158,641.6081 654.2189,641.4843 643.6226,641.3655 633.0267,641.2517 622.4314,641.1431 611.8364,641.0394 601.242,640.9409 590.6479,640.8474 580.0542,640.7589 569.4609,640.6756 558.8679,640.5972 548.2752,640.524 537.6829,640.4558 527.0908,640.3926 516.499,640.3345 505.9074,640.2814 495.3161,640.2334 484.7249,640.1905 474.1339,640.1526 463.5431,640.1198 452.9524,640.092 442.3618,640.0693 431.7712,640.0516 421.1808,640.039 410.5904,640.0314 400.0,640.0289 389.4096,640.0314 378.8192,640.039 368.2288,640.0516 357.6382,640.0693 347.0476,640.092 336.4569,640.1198 325.8661,640.1526 315.2751,640.1905 304.6839,640.2334 294.0926,640.2814 283.501,640.3345 272.9092,640.3926 262.3171,640.4558 251.7248,640.524 241.1321,640.5972 230.5391,640.6756 219.9458,640.7589 209.3521,640.8474 198.758,640.9409 188.1636,641.0394 177.5686,641.1431 166.9733,641.2517 156.3774,641.3655 145.7811,641.4843 135.1842,641.6081 124.5868,641.7371 113.9888,641.8711 103.3903,642.0101 92.7911,642.1543 82.1913,642.3035 75.4071,642.4016" stroke="silver" stroke-opacity="0.5" stroke-width="1" /><polyline fill="none" points="725.8455,555.0169 719.035,554.9222 708.3943,554.7783 697.7542,554.6392 687.1146,554.5051 676.4757,554.3758 665.8374,554.2515 655.1996,554.132 644.5623,554.0174 633.9255,553.9077 623.2893,553.8029 612.6534,553.7029 602.018,553.6079 591.3831,553.5177 580.7485,553.4324 570.1143,553.352 559.4805,553.2764 548.8469,553.2057 538.2137,553.1399 527.5808,553.079 516.9482,553.023 506.3157,552.9718 495.6835,552.9255 485.0515,552.8841 474.4197,552.8476 463.788,552.8159 453.1565,552.7891 442.5251,552.7672 431.8937,552.7501 421.2624,552.7379 410.6312,552.7306 400.0,552.7282 389.3688,552.7306 378.7376,552.7379 368.1063,552.7501 357.4749,552.7672 346.8435,552.7891 336.212,552.8159 325.5803,552.8476 314.9485,552.8841 304.3165,552.9255 293.6843,552.9718 283.0518,553.023 272.4192,553.079 261.7863,553.1399 251.1531,553.2057 240.5195,553.2764 229.8857,553.352 219.2515,553.4324 208.6169,553.5177 197.982,553.6079 187.3466,553.7029 176.7107,553.8029 166.0745,553.9077 155.4377,554.0174 144.8004,554.132 134.1626,554.2515 123.5243,554.3758 112.8854,554.5051 102.2458,554.6392 91.6057,554.7783 80.965,554.9222 74.1545,555.0169" stroke="silver" stroke-opacity="0.5" stroke-width="1" /><polyline fill="none" points="727.0478,467.6543 720.2122,467.5631 709.532,467.4246 698.8526,467.2907 688.1738,467.1616 677.4955,467.0371 666.8179,466.9174 656.1408,466.8024 645.4643,466.692 634.7882,466.5864 624.1127,466.4855 613.4376,466.3893 602.7629,466.2977 592.0887,466.2109 581.4149,466.1288 570.7415,466.0513 560.0684,465.9786 549.3957,465.9106 538.7233,465.8472 528.0511,465.7886 517.3793,465.7346 506.7076,465.6853 496.0362,465.6408 485.365,465.6009 474.694,465.5657 464.0232,465.5352 453.3524,465.5094 442.6818,465.4883 432.0113,465.4719 421.3408,465.4602 410.6704,465.4531 400.0,465.4508 389.3296,465.4531 378.6592,465.4602 367.9887,465.4719 357.3182,465.4883 346.6476,465.5094 335.9768,465.5352 325.306,465.5657 314.635,465.6009 303.9638,465.6408 293.2924,465.6853 282.6207,465.7346 271.9489,465.7886 261.2767,465.8472 250.6043,465.9106 239.9316,465.9786 229.2585,466.0513 218.5851,466.1288 207.9113,466.2109 197.2371,466.2977 186.5624,466.3893 175.8873,466.4855 165.2118,466.5864 154.5357,466.692 143.8592,466.8024 133.1821,466.9174 122.5045,467.0371 111.8262,467.1616 101.1474,467.2907 90.468,467.4246 79.7878,467.5631 72.9522,467.6543" stroke="silver" stroke-opacity="0.5" stroke-width="1" /><polyline fill="none" points="728.1999,380.3007 721.3402,380.2131 710.6224,380.08 699.9052,379.9513 689.1887,379.8272 678.4728,379.7077 667.7575,379.5926 657.0428,379.4821 646.3286,379.3761 635.6149,379.2746 624.9017,379.1776 614.189,379.0851 603.4768,378.9972 592.765,378.9137 582.0536,378.8348 571.3425,378.7604 560.6319,378.6905 549.9215,378.6252 539.2115,378.5643 528.5018,378.5079 517.7924,378.4561 507.0832,378.4087 496.3742,378.3659 485.6655,378.3276 474.9569,378.2938 464.2485,378.2645 453.5402,378.2397 442.832,378.2194 432.1239,378.2036 421.4159,378.1924 410.7079,378.1856 400.0,378.1833 389.2921,378.1856 378.5841,378.1924 367.8761,378.2036 357.168,378.2194 346.4598,378.2397 335.7515,378.2645 325.0431,378.2938 314.3345,378.3276 303.6258,378.3659 292.9168,378.4087 282.2076,378.4561 271.4982,378.5079 260.7885,378.5643 250.0785,378.6252 239.3681,378.6905 228.6575,378.7604 217.9464,378.8348 207.235,378.9137 196.5232,378.9972 185.811,379.0851 175.0983,379.1776 164.3851,379.2746 153.6714,379.3761 142.9572,379.4821 132.2425,379.5926 121.5272,379.7077 110.8113,379.8272 100.0948,379.9513 89.3776,380.08 78.6598,380.2131 71.8001,380.3007" stroke="silver" stroke-opacity="0.5" stroke-width="1" /><polyline fill="none" points="729.3021,292.9428 722.4193,292.8588 711.6654,292.7312 700.9122,292.6078 690.1597,292.4888 679.4078,292.3742 668.6564,292.2639 657.9057,292.1579 647.1555,292.0562 636.4058,291.9589 625.6566,291.8659 614.9079,291.7773 604.1597,291.6929 593.4119,291.6129 582.6645,291.5373 571.9175,291.4659 561.1709,291.3989 550.4246,291.3362 539.6786,291.2779 528.933,291.2238 518.1876,291.1741 507.4425,291.1287 496.6976,291.0876 485.9529,291.0509 475.2084,291.0185 464.464,290.9904 453.7198,290.9666 442.9757,290.9472 432.2317,290.932 421.4878,290.9212 410.7439,290.9148 400.0,290.9126 389.2561,290.9148 378.5122,290.9212 367.7683,290.932 357.0243,290.9472 346.2802,290.9666 335.536,290.9904 324.7916,291.0185 314.0471,291.0509 303.3024,291.0876 292.5575,291.1287 281.8124,291.1741 271.067,291.2238 260.3214,291.2779 249.5754,291.3362 238.8291,291.3989 228.0825,291.4659 217.3355,291.5373 206.5881,291.6129 195.8403,291.6929 185.0921,291.7773 174.3434,291.8659 163.5942,291.9589 152.8445,292.0562 142.0943,292.1579 131.3436,292.2639 120.5922,292.3742 109.8403,292.4888 99.0878,292.6078 88.3346,292.7312 77.5807,292.8588 70.6979,292.9428" stroke="silver" stroke-opacity="0.5" stroke-width="1" /><polyline fill="none" points="730.3545,205.5674 723.4497,205.487 712.6614,205.3649 701.8737,205.2469 691.0868,205.1331 680.3004,205.0234 669.5147,204.9179 658.7295,204.8165 647.945,204.7192 637.1609,204.6261 626.3774,204.5372 615.5943,204.4524 604.8117,204.3717 594.0296,204.2952 583.2478,204.2228 572.4665,204.1545 561.6855,204.0904 550.9049,204.0305 540.1246,203.9746 529.3447,203.9229 518.565,203.8754 507.7855,203.832 497.0063,203.7927 486.2273,203.7575 475.4485,203.7265 464.6698,203.6996 453.8913,203.6769 443.1129,203.6583 432.3346,203.6438 421.5564,203.6335 410.7782,203.6273 400.0,203.6252 389.2218,203.6273 378.4436,203.6335 367.6654,203.6438 356.8871,203.6583 346.1087,203.6769 335.3302,203.6996 324.5515,203.7265 313.7727,203.7575 302.9937,203.7927 292.2145,203.832 281.435,203.8754 270.6553,203.9229 259.8754,203.9746 249.0951,204.0305 238.3145,204.0904 227.5335,204.1545 216.7522,204.2228 205.9704,204.2952 195.1883,204.3717 184.4057,204.4524 173.6226,204.5372 162.8391,204.6261 152.055,204.7192 141.2705,204.8165 130.4853,204.9179 119.6996,205.0234 108.9132,205.1331 98.1263,205.2469 87.3386,205.3649 76.5503,205.487 69.6455,205.5674" stroke="silver" stroke-opacity="0.5" stroke-width="1" /><polyline fill="none" points="731.3573,118.1611 724.4314,118.0844 713.6103,117.9679 702.7899,117.8553 691.9701,117.7467 681.151,117.642 670.3325,117.5413 659.5145,117.4446 648.6972,117.3518 637.8804,117.263 627.0641,117.1781 616.2483,117.0972 605.433,117.0202 594.6181,116.9472 583.8036,116.8781 572.9896,116.813 562.1759,116.7518 551.3626,116.6946 540.5496,116.6413 529.7369,116.592 518.9245,116.5466 508.1124,116.5052 497.3004,116.4677 486.4888,116.4342 475.6772,116.4046 464.8659,116.3789 454.0547,116.3572 443.2436,116.3395 432.4326,116.3257 421.6217,116.3158 410.8108,116.3099 400.0,116.3079 389.1892,116.3099 378.3783,116.3158 367.5674,116.3257 356.7564,116.3395 345.9453,116.3572 335.1341,116.3789 324.3228,116.4046 313.5112,116.4342 302.6996,116.4677 291.8876,116.5052 281.0755,116.5466 270.2631,116.592 259.4504,116.6413 248.6374,116.6946 237.8241,116.7518 227.0104,116.813 216.1964,116.8781 205.3819,116.9472 194.567,117.0202 183.7517,117.0972 172.9359,117.1781 162.1196,117.263 151.3028,117.3518 140.4855,117.4446 129.6675,117.5413 118.849,117.642 108.0299,117.7467 97.2101,117.8553 86.3897,117.9679 75.5686,118.0844 68.6427,118.1611" stroke="silver" stroke-opacity="0.5" stroke-width="1" /><circle cx="726.2082" cy="421.4248" fill="black" r="0.738" stroke="none" /><circle cx="722.2383" cy="617.4548" fill="black" r="0.738" stroke="none" /><circle cx="699.7035" cy="97.629" fill="black" r="0.738" stroke="none" /><circle cx="693.5294" cy="469.4096" fill="black" r="0.738" stroke="none" /><circle cx="681.4173" cy="643.0359" fill="black" r="0.738" stroke="none" /><circle cx="681.9123" cy="315.7226" fill="black" r="0.738" stroke="none" /><circle cx="678.9502" cy="375.2586" fill="black" r="0.738" stroke="none" /><circle cx="676.303" cy="451.6514" fill="black" r="0.738" stroke="none" /><circle cx="659.1141" cy="172.1445" fill="black" r="0.738" stroke="none" /><circle cx="658.9397" cy="172.3176" fill="black" r="0.738" stroke="none" /><circle cx="652.6162" cy="193.7534" fill="black" r="0.738" stroke="none" /><circle cx="649.2203" cy="319.4104" fill="black" r="0.936" stroke="none" /><circle cx="647.3078" cy="237.5577" fill="black" r="0.738" stroke="none" /><circle cx="639.2263" cy="671.4634" fill="black" r="0.738" stroke="none" /><circle cx="637.4353" cy="330.4789" fill="black" r="0.738" stroke="none" /><circle cx="635.9526" cy="214.9232" fill="black" r="0.738" stroke="none" /><circle cx="632.5576" cy="520.2702" fill="black" r="0.738" stroke="none" /><circle cx="624.8959" cy="537.2251" fill="black" r="0.738" stroke="none" /><circle cx="616.8774" cy="610.6881" fill="black" r="0.738" stroke="none" /><circle cx="611.3283" cy="382.9901" fill="black" r="0.738" stroke="none" /><circle cx="598.5437" cy="541.9639" fill="black" r="0.738" stroke="none" /><circle cx="599.8951" cy="287.033" fill="black" r="0.738" stroke="none" /><circle cx="599.4737" cy="239.0038" fill="black" r="0.738" stroke="none" /><circle cx="589.9142" cy="705.6672" fill="black" r="0.738" stroke="none" /><circle cx="593.1744" cy="228.1306" fill="black" r="0.738" stroke="none" /><circle cx="590.2141" cy="581.7142" fill="black" r="0.738" stroke="none" /><circle cx="590.3147" cy="397.0538" fill="black" r="0.738" stroke="none" /><circle cx="590.6428" cy="116.2224" fill="black" r="0.738" stroke="none" /><circle cx="585.9456" cy="289.5518" fill="black" r="0.738" stroke="none" /><circle cx="584.193" cy="482.5627" fill="black" r="0.936" stroke="none" /><circle cx="567.564" cy="405.7961" fill="black" r="0.738" stroke="none" /><circle cx="559.8047" cy="651.6966" fill="black" r="0.738" stroke="none" /><circle cx="556.9103" cy="81.5141" fill="black" r="0.738" stroke="none" /><circle cx="552.7588" cy="714.1085" fill="black" r="0.738" stroke="none" /><circle cx="541.245" cy="692.5375" fill="black" r="0.738" stroke="none" /><circle cx="516.4897" cy="266.3757" fill="black" r="0.738" stroke="none" /><circle cx="513.6605" cy="382.8012" fill="black" r="0.738" stroke="none" /><circle cx="511.4045" cy="642.4042" fill="black" r="0.738" stroke="none" /><circle cx="510.077" cy="530.9909" fill="black" r="0.738" stroke="none" /><circle cx="510.4896" cy="239.4632" fill="black" r="0.738" stroke="none" /><circle cx="492.7467" cy="134.2705" fill="black" r="0.738" stroke="none" /><circle cx="471.2669" cy="498.5462" fill="black" r="0.738" stroke="none" /><circle cx="469.4536" cy="354.2784" fill="black" r="0.738" stroke="none" /><circle cx="465.5342" cy="474.9649" fill="black" r="0.738" stroke="none" /><circle cx="464.9609" cy="618.7313" fill="black" r="0.936" stroke="none" /><circle cx="455.7818" cy="448.4095" fill="black" r="0.738" stroke="none" /><circle cx="448.4398" cy="164.2904" fill="black" r="0.936" stroke="none" /><circle cx="448.2206" cy="140.3638" fill="black" r="0.738" stroke="none" /><circle cx="447.4206" cy="304.7446" fill="black" r="0.738" stroke="none" /><circle cx="442.3432" cy="649.7618" fill="black" r="0.738" stroke="none" /><circle cx="431.2047" cy="428.4686" fill="black" r="0.738" stroke="none" /><circle cx="428.2806" cy="117.0201" fill="black" r="0.738" stroke="none" /><circle cx="425.6666" cy="715.6757" fill="black" r="0.738" stroke="none" /><circle cx="423.258" cy="231.0458" fill="black" r="0.738" stroke="none" /><circle cx="418.1071" cy="332.461" fill="black" r="0.936" stroke="none" /><circle cx="401.8181" cy="85.0386" fill="black" r="0.738" stroke="none" /><circle cx="384.1225" cy="329.8414" fill="black" r="1.17" stroke="none" /><circle cx="383.1077" cy="479.2455" fill="black" r="0.738" stroke="none" /><circle cx="368.9658" cy="130.2103" fill="black" r="0.738" stroke="none" /><circle cx="362.6235" cy="681.8901" fill="black" r="0.738" stroke="none" /><circle cx="347.8303" cy="459.7469" fill="black" r="0.738" stroke="none" /><circle cx="346.6428" cy="463.3276" fill="black" r="0.738" stroke="none" /><circle cx="343.0634" cy="353.2877" fill="black" r="0.738" stroke="none" /><circle cx="340.9924" cy="347.6197" fill="black" r="0.738" stroke="none" /><circle cx="338.1041" cy="88.7709" fill="black" r="0.936" stroke="none" /><circle cx="336.9102" cy="559.3608" fill="black" r="0.738" stroke="none" /><circle cx="335.7829" cy="356.6211" fill="black" r="0.738" stroke="none" /><circle cx="314.045" cy="316.8862" fill="black" r="0.936" stroke="none" /><circle cx="307.2371" cy="235.0328" fill="black" r="0.738" stroke="none" /><circle cx="299.3489" cy="422.806" fill="black" r="0.738" stroke="none" /><circle cx="297.5894" cy="114.476" fill="black" r="0.738" stroke="none" /><circle cx="292.7533" cy="297.0634" fill="black" r="0.738" stroke="none" /><circle cx="293.5551" cy="686.6605" fill="black" r="0.738" stroke="none" /><circle cx="290.165" cy="230.8177" fill="black" r="0.738" stroke="none" /><circle cx="272.3175" cy="580.7557" fill="black" r="0.738" stroke="none" /><circle cx="255.2324" cy="239.7968" fill="black" r="0.738" stroke="none" /><circle cx="255.3073" cy="438.2116" fill="black" r="0.738" stroke="none" /><circle cx="255.2557" cy="486.9196" fill="black" r="0.936" stroke="none" /><circle cx="242.0552" cy="355.8908" fill="black" r="0.738" stroke="none" /><circle cx="239.483" cy="715.738" fill="black" r="0.738" stroke="none" /><circle cx="231.9262" cy="159.2381" fill="black" r="0.738" stroke="none" /><circle cx="207.9739" cy="292.9999" fill="black" r="0.738" stroke="none" /><circle cx="200.7447" cy="548.3445" fill="black" r="0.738" stroke="none" /><circle cx="197.6457" cy="453.8092" fill="black" r="0.936" stroke="none" /><circle cx="191.5425" cy="165.9658" fill="black" r="0.738" stroke="none" /><circle cx="188.3775" cy="591.6844" fill="black" r="0.738" stroke="none" /><circle cx="179.5893" cy="656.7616" fill="black" r="0.738" stroke="none" /><circle cx="173.8245" cy="97.4215" fill="black" r="0.936" stroke="none" /><circle cx="169.8589" cy="239.6798" fill="black" r="0.738" stroke="none" /><circle cx="167.3566" cy="239.2641" fill="black" r="0.738" stroke="none" /><circle cx="165.0969" cy="325.5659" fill="black" r="0.738" stroke="none" /><circle cx="160.7179" cy="353.7237" fill="black" r="0.738" stroke="none" /><circle cx="160.1712" cy="475.1062" fill="black" r="0.738" stroke="none" /><circle cx="149.6211" cy="341.9524" fill="black" r="0.738" stroke="none" /><circle cx="134.7386" cy="437.119" fill="black" r="0.738" stroke="none" /><circle cx="124.4139" cy="536.0202" fill="black" r="0.738" stroke="none" /><circle cx="112.3503" cy="212.0877" fill="black" r="0.738" stroke="none" /><circle cx="106.7987" cy="249.9771" fill="black" r="0.738" stroke="none" /><circle cx="101.0003" cy="672.1113" fill="black" r="0.738" stroke="none" /><circle cx="92.9839" cy="555.9833" fill="black" r="0.738" stroke="none" /><circle cx="84.5671" cy="204.522" fill="black" r="0.738" stroke="none" /><circle cx="80.9277" cy="327.7661" fill="black" r="0.738" stroke="none" /><circle cx="77.2969" cy="172.4405" fill="black" r="0.738" stroke="none" /><circle cx="74.1305" cy="320.1612" fill="black" r="0.936" stroke="none" /><circle cx="13.77" cy="786.23" fill="black" r="4.59" stroke="none" /><circle cx="13.77" cy="786.23" fill="black" r="4.59" stroke="none" /><text fill="black" font-family="monospace" font-size="12" x="10.77" y="775.64">1</text><circle cx="37.77" cy="786.23" fill="black" r="3.654" stroke="none" /><circle cx="37.77" cy="786.23" fill="black" r="3.654" stroke="none" /><text fill="black" font-family="monospace" font-size="12" x="34.769999999999996" y="775.64">2</text><circle cx="61.77" cy="786.23" fill="black" r="2.916" stroke="none" /><circle cx="61.77" cy="786.23" fill="black" r="2.916" stroke="none" /><text fill="black" font-family="monospace" font-size="12" x="58.769999999999996" y="775.64">3</text><circle cx="85.77" cy="786.23" fill="black" r="2.322" stroke="none" /><circle cx="85.77" cy="786.23" fill="black" r="2.322" stroke="none" /><text fill="black" font-family="monospace" font-size="12" x="82.77" y="775.64">4</text><circle cx="109.77" cy="786.23" fill="black" r="1.854" stroke="none" /><circle cx="109.77" cy="786.23" fill="black" r="1.854" stroke="none" /><text fill="black" font-family="monospace" font-size="12" x="106.77" y="775.64">5</text><circle cx="133.77" cy="786.23" fill="black" r="1.476" stroke="none" /><circle cx="133.77" cy="786.23" fill="black" r="1.476" stroke="none" /><text fill="black" font-family="monospace" font-size="12" x="130.77" y="775.64">6</text><circle cx="157.77" cy="786.23" fill="black" r="1.17" stroke="none" /><circle cx="157.77" cy="786.23" fill="black" r="1.17" stroke="none" /><text fill="black" font-family="monospace" font-size="12" x="154.77" y="775.64">7</text><circle cx="181.77" cy="786.23" fill="black" r="0.936" stroke="none" /><circle cx="181.77" cy="786.23" fill="black" r="0.936" stroke="none" /><text fill="black" font-family="monospace" font-size="12" x="178.77" y="775.64">8</text><circle cx="205.77" cy="786.23" fill="black" r="0.738" stroke="none" /><circle cx="205.77" cy="786.23" fill="black" r="0.738" stroke="none" /><text fill="black" font-family="monospace" font-size="12" x="202.77" y="775.64">9</text><text fill="gray" fill-opacity="0.5" font-family="monospace" font-size="12" x="724.9040246244149" y="74.36742205566514">11h45m</text><text fill="gray" fill-opacity="0.5" font-family="monospace" font-size="12" x="616.5631414932851" y="73.4040584952698">11h50m</text><text fill="gray" fill-opacity="0.5" font-family="monospace" font-size="12" x="508.2697122259762" y="72.8263925303703">11h55m</text><text fill="gray" fill-opacity="0.5" font-family="monospace" font-size="12" x="400.0" y="72.6338958702741">12h00m</text><text fill="gray" fill-opacity="0.5" font-family="monospace" font-size="12" x="291.7302877740238" y="72.8263925303703">12h05m</text><text fill="gray" fill-opacity="0.5" font-family="monospace" font-size="12" x="183.4368585067149" y="73.4040584952698">12h10m</text><text fill="gray" fill-opacity="0.5" font-family="monospace" font-size="12" x="75.09597537558511" y="74.36742205566514">12h15m</text><text fill="gray" fill-opacity="0.5" font-family="monospace" font-size="12" x="76.71035069797495" y="729.8219665440616">-15°</text><text fill="gray" fill-opacity="0.5" font-family="monospace" font-size="12" x="75.40714312416856" y="642.4016498613714">-14°</text><text fill="gray" fill-opacity="0.5" font-family="monospace" font-size="12" x="74.15451755678691" y="555.0168519113298">-13°</text><text fill="gray" fill-opacity="0.5" font-family="monospace" font-size="12" x="72.95223276131458" y="467.65429096855854">-12°</text><text fill="gray" fill-opacity="0.5" font-family="monospace" font-size="12" x="71.80007815861342" y="380.30069879479095">-11°</text><text fill="gray" fill-opacity="0.5" font-family="monospace" font-size="12" x="70.69787367159438" y="292.9428125892501">-10°</text><text fill="gray" fill-opacity="0.5" font-family="monospace" font-size="12" x="69.64546961131464" y="205.56736694601938">-9°</text><text fill="gray" fill-opacity="0.5" font-family="monospace" font-size="12" x="68.64274660234406" y="118.16108580806116">-8°</text><text fill="black" font-family="monospace" font-size="12" x="12" y="48">&gt;&gt; No.337 11h45m 12h15m -15.0°-7.5°</text><a target="_self" xlink:href="hip018.svg"><text fill="black" font-family="monospace" font-size="12" x="12" y="36">&gt; No.18 10h40m 13h20m -22.5°+0.0°</text></a><a target="_self" xlink:href="hip001.svg"><text fill="black" font-family="monospace" font-size="12" x="12" y="24">No.1 00h 24h -90.0°+0.0°</text></a><polyline fill="none" points="731.84,74.4422 724.904,74.3674 714.0671,74.2537 703.2309,74.1439 692.3954,74.0379 681.5605,73.9357 670.7262,73.8375 659.8925,73.7431 649.0593,73.6525 638.2268,73.5659 627.3947,73.483 616.5631,73.4041 605.7321,73.3289 594.9014,73.2577 584.0712,73.1903 573.2414,73.1267 562.412,73.0671 551.5829,73.0112 540.7542,72.9592 529.9257,72.9111 519.0976,72.8668 508.2697,72.8264 497.4421,72.7898 486.6146,72.7571 475.7874,72.7282 464.9603,72.7032 454.1334,72.682 443.3066,72.6647 432.4798,72.6512 421.6532,72.6416 410.8266,72.6358 400.0,72.6339 389.1734,72.6358 378.3468,72.6416 367.5202,72.6512 356.6934,72.6647 345.8666,72.682 335.0397,72.7032 324.2126,72.7282 313.3854,72.7571 302.5579,72.7898 291.7303,72.8264 280.9024,72.8668 270.0743,72.9111 259.2458,72.9592 248.4171,73.0112 237.588,73.0671 226.7586,73.1267 215.9288,73.1903 205.0986,73.2577 194.2679,73.3289 183.4369,73.4041 172.6053,73.483 161.7732,73.5659 150.9407,73.6525 140.1075,73.7431 129.2738,73.8375 118.4395,73.9357 107.6046,74.0379 96.7691,74.1439 85.9329,74.2537 75.096,74.3674 68.16,74.4422" stroke="black" stroke-opacity="0.5" stroke-width="1" /><polyline fill="none" points="723.2896,729.822 723.4553,718.892 723.6202,707.9628 723.7843,697.0343 723.9476,686.1065 724.1101,675.1794 724.2718,664.2529 724.4327,653.327 724.5929,642.4016 724.7522,631.4769 724.9107,620.5526 725.0685,609.6289 725.2255,598.7056 725.3817,587.7828 725.5371,576.8604 725.6917,565.9385 725.8455,555.0169 725.9985,544.0956 726.1508,533.1746 726.3022,522.254 726.4529,511.3336 726.6028,500.4135 726.7519,489.4936 726.9002,478.5738 727.0478,467.6543 727.1945,456.7349 727.3405,445.8156 727.4857,434.8964 727.6301,423.9772 727.7737,413.0581 727.9166,402.139 728.0586,391.2199 728.1999,380.3007 728.3404,369.3815 728.4801,358.4621 728.6191,347.5427 728.7573,336.6231 728.8946,325.7034 729.0312,314.7834 729.1671,303.8632 729.3021,292.9428 729.4364,282.0221 729.5699,271.1011 729.7026,260.1798 729.8345,249.2581 729.9657,238.3361 730.0961,227.4136 730.2257,216.4907 730.3545,205.5674 730.4826,194.6435 730.6099,183.7192 730.7364,172.7943 730.8621,161.8689 730.987,150.9429 731.1112,140.0163 731.2346,129.089 731.3573,118.1611 731.4791,107.2325 731.6002,96.3031 731.7205,85.3731 731.84,74.4422" stroke="black" stroke-opacity="0.5" stroke-width="1" /><polyline fill="none" points="723.2896,729.822 716.5327,729.7204 705.9756,729.5659 695.4191,729.4168 684.8631,729.2728 674.3078,729.1341 663.753,729.0007 653.1987,728.8725 642.6449,728.7495 632.0916,728.6318 621.5388,728.5193 610.9865,728.4121 600.4345,728.3101 589.883,728.2133 579.3318,728.1217 568.781,728.0354 558.2306,727.9544 547.6804,727.8785 537.1306,727.8079 526.581,727.7426 516.0317,727.6824 505.4826,727.6275 494.9338,727.5779 484.3851,727.5334 473.8366,727.4942 463.2882,727.4602 452.74,727.4315 442.1919,727.4079 431.6438,727.3896 421.0958,727.3766 410.5479,727.3687 400.0,727.3661 389.4521,727.3687 378.9042,727.3766 368.3562,727.3896 357.8081,727.4079 347.26,727.4315 336.7118,727.4602 326.1634,727.4942 315.6149,727.5334 305.0662,727.5779 294.5174,727.6275 283.9683,727.6824 273.419,727.7426 262.8694,727.8079 252.3196,727.8785 241.7694,727.9544 231.219,728.0354 220.6682,728.1217 210.117,728.2133 199.5655,728.3101 189.0135,728.4121 178.4612,728.5193 167.9084,728.6318 157.3551,728.7495 146.8013,728.8725 136.247,729.0007 125.6922,729.1341 115.1369,729.2728 104.5809,729.4168 94.0244,729.5659 83.4673,729.7204 76.7104,729.822" stroke="black" stroke-opacity="0.5" stroke-width="1" /><polyline fill="none" points="76.7104,729.822 76.5447,718.892 76.3798,707.9628 76.2157,697.0343 76.0524,686.1065 75.8899,675.1794 75.7282,664.2529 75.5673,653.327 75.4071,642.4016 75.2478,631.4769 75.0893,620.5526 74.9315,609.6289 74.7745,598.7056 74.6183,587.7828 74.4629,576.8604 74.3083,565.9385 74.1545,555.0169 74.0015,544.0956 73.8492,533.1746 73.6978,522.254 73.5471,511.3336 73.3972,500.4135 73.2481,489.4936 73.0998,478.5738 72.9522,467.6543 72.8055,456.7349 72.6595,445.8156 72.5143,434.8964 72.3699,423.9772 72.2263,413.0581 72.0834,402.139 71.9414,391.2199 71.8001,380.3007 71.6596,369.3815 71.5199,358.4621 71.3809,347.5427 71.2427,336.6231 71.1054,325.7034 70.9688,314.7834 70.8329,303.8632 70.6979,292.9428 70.5636,282.0221 70.4301,271.1011 70.2974,260.1798 70.1655,249.2581 70.0343,238.3361 69.9039,227.4136 69.7743,216.4907 69.6455,205.5674 69.5174,194.6435 69.3901,183.7192 69.2636,172.7943 69.1379,161.8689 69.013,150.9429 68.8888,140.0163 68.7654,129.089 68.6427,118.1611 68.5209,107.2325 68.3998,96.3031 68.2795,85.3731 68.16,74.4422" stroke="black" stroke-opacity="0.5" stroke-width="1" /></svg>