<?xml version="1.0" encoding="utf-8" ?>
<svg baseProfile="tiny" height="800" version="1.2" width="800" xmlns="http://www.w3.org/2000/svg" xmlns:ev="http://www.w3.org/2001/xml-events" xmlns:xlink="http://www.w3.org/1999/xlink"><defs /><rect fill="none" height="800" stroke="black" stroke-width="2" width="800" x="0" y="0" /><polyline fill="none" points="644.7556,728.7737 644.881,717.8482 645.0058,706.9234 645.1299,695.9993 645.2535,685.0759 645.3765,674.1532 645.4989,663.2312 645.6206,652.3097 645.7418,641.3888 645.8624,630.4685 645.9824,619.5488 646.1018,608.6295 646.2205,597.7107 646.3387,586.7924 646.4563,575.8745 646.5733,564.957 646.6897,554.0399 646.8055,543.1232 646.9207,532.2068 647.0353,521.2907 647.1494,510.3748 647.2628,499.4592 647.3756,488.5439 647.4879,477.6287 647.5995,466.7137 647.7106,455.7989 647.821,444.8842 647.9309,433.9695 648.0402,423.055 648.1489,412.1405 648.257,401.226 648.3645,390.3114 648.4714,379.3969 648.5777,368.4823 648.6834,357.5676 648.7886,346.6528 648.8931,335.7379 648.9971,324.8228 649.1005,313.9075 649.2033,302.992 649.3055,292.0762 649.4071,281.1602 649.5081,270.2439 649.6085,259.3272 649.7083,248.4103 649.8076,237.4929 649.9063,226.5752 650.0043,215.657 650.1018,204.7384 650.1987,193.8193 650.295,182.8997 650.3908,171.9795 650.4859,161.0588 650.5805,150.1376 650.6744,139.2157 650.7678,128.2932 650.8606,117.3701 650.9528,106.4462 651.0444,95.5217 651.1355,84.5964 651.2259,73.6703" stroke="silver" stroke-opacity="0.5" stroke-width="1" /><polyline fill="none" points="539.2405,727.8216 539.3118,716.9001 539.3828,705.9793 539.4534,695.0593 539.5237,684.1399 539.5936,673.2213 539.6632,662.3032 539.7324,651.3858 539.8013,640.469 539.8699,629.5527 539.9381,618.637 540.006,607.7218 540.0736,596.8071 540.1408,585.8929 540.2076,574.9791 540.2742,564.0657 540.3404,553.1527 540.4062,542.2401 540.4717,531.3278 540.5369,520.4158 540.6017,509.5041 540.6662,498.5926 540.7304,487.6814 540.7942,476.7704 540.8577,465.8595 540.9209,454.9488 540.9837,444.0383 541.0462,433.1278 541.1083,422.2174 541.1701,411.3071 541.2316,400.3968 541.2927,389.4864 541.3535,378.5761 541.414,367.6657 541.4741,356.7552 541.5339,345.8446 541.5933,334.9339 541.6525,324.023 541.7113,313.112 541.7697,302.2007 541.8278,291.2892 541.8856,280.3774 541.943,269.4653 542.0001,258.553 542.0569,247.6403 542.1134,236.7272 542.1695,225.8137 542.2252,214.8998 542.2807,203.9855 542.3358,193.0707 542.3905,182.1554 542.445,171.2395 542.4991,160.3232 542.5529,149.4062 542.6063,138.4887 542.6594,127.5705 542.7122,116.6517 542.7646,105.7322 542.8167,94.812 542.8685,83.891 542.9199,72.9693" stroke="silver" stroke-opacity="0.5" stroke-width="1" /><polyline fill="none" points="433.7534,727.3929 433.7707,716.4731 433.7879,705.5542 433.805,694.6359 433.822,683.7184 433.839,672.8015 433.8559,661.8853 433.8726,650.9697 433.8893,640.0547 433.906,629.1403 433.9225,618.2264 433.9389,607.3131 433.9553,596.4002 433.9716,585.4878 433.9878,574.5758 434.0039,563.6643 434.02,552.7531 434.0359,541.8423 434.0518,530.9319 434.0676,520.0217 434.0833,509.1119 434.099,498.2023 434.1145,487.2929 434.13,476.3838 434.1454,465.4748 434.1607,454.566 434.1759,443.6573 434.191,432.7487 434.2061,421.8402 434.2211,410.9317 434.236,400.0233 434.2508,389.1149 434.2655,378.2064 434.2802,367.2979 434.2948,356.3893 434.3093,345.4806 434.3237,334.5718 434.338,323.6628 434.3522,312.7537 434.3664,301.8443 434.3805,290.9347 434.3945,280.0249 434.4084,269.1147 434.4223,258.2043 434.436,247.2935 434.4497,236.3823 434.4633,225.4708 434.4768,214.5588 434.4902,203.6464 434.5036,192.7335 434.5169,181.8202 434.5301,170.9063 434.5432,159.9918 434.5562,149.0768 434.5692,138.1612 434.582,127.245 434.5948,116.3281 434.6075,105.4106 434.6202,94.4923 434.6327,83.5733 434.6452,72.6536" stroke="silver" stroke-opacity="0.5" stroke-width="1" /><polyline fill="none" points="328.2731,727.487 328.2364,716.5669 328.1998,705.6475 328.1635,694.7289 328.1273,683.8109 328.0913,672.8937 328.0554,661.977 328.0198,651.061 327.9843,640.1456 327.949,629.2308 327.9138,618.3165 327.8788,607.4028 327.8441,596.4895 327.8094,585.5767 327.775,574.6643 327.7407,563.7524 327.7066,552.8408 327.6727,541.9296 327.639,531.0188 327.6054,520.1082 327.572,509.198 327.5388,498.288 327.5057,487.3782 327.4729,476.4686 327.4402,465.5592 327.4076,454.65 327.3753,443.7409 327.3431,432.8319 327.3111,421.923 327.2793,411.0141 327.2476,400.1053 327.2161,389.1964 327.1848,378.2876 327.1537,367.3786 327.1227,356.4696 327.0919,345.5605 327.0613,334.6513 327.0308,323.7419 327.0006,312.8323 326.9704,301.9225 326.9405,291.0125 326.9108,280.1022 326.8812,269.1917 326.8518,258.2808 326.8225,247.3696 326.7934,236.458 326.7645,225.546 326.7358,214.6336 326.7073,203.7208 326.6789,192.8075 326.6507,181.8937 326.6226,170.9794 326.5948,160.0646 326.5671,149.1491 326.5396,138.2331 326.5122,127.3164 326.485,116.3991 326.458,105.4812 326.4312,94.5625 326.4045,83.6431 326.378,72.7229" stroke="silver" stroke-opacity="0.5" stroke-width="1" /><polyline fill="none" points="222.7784,728.1041 222.6876,717.1814 222.5973,706.2594 222.5074,695.3381 222.418,684.4176 222.329,673.4977 222.2404,662.5785 222.1522,651.6599 222.0645,640.7419 221.9772,629.8244 221.8904,618.9075 221.804,607.9911 221.718,597.0752 221.6324,586.1597 221.5473,575.2447 221.4626,564.3301 221.3784,553.4159 221.2945,542.502 221.2111,531.5885 221.1282,520.6753 221.0456,509.7624 220.9635,498.8497 220.8819,487.9372 220.8006,477.025 220.7198,466.1129 220.6394,455.201 220.5594,444.2892 220.4799,433.3775 220.4008,422.4659 220.3221,411.5543 220.2439,400.6427 220.1661,389.7312 220.0887,378.8196 220.0117,367.9079 219.9352,356.9962 219.8591,346.0844 219.7834,335.1724 219.7081,324.2603 219.6333,313.3479 219.5589,302.4354 219.4849,291.5226 219.4114,280.6096 219.3383,269.6963 219.2656,258.7827 219.1933,247.8687 219.1214,236.9543 219.05,226.0396 218.979,215.1244 218.9085,204.2088 218.8383,193.2927 218.7686,182.3762 218.6993,171.4591 218.6304,160.5414 218.562,149.6232 218.494,138.7043 218.4264,127.7849 218.3592,116.8648 218.2925,105.944 218.2262,95.0225 218.1603,84.1003 218.0948,73.1773" stroke="silver" stroke-opacity="0.5" stroke-width="1" /><polyline fill="none" points="117.248,729.2447 117.1031,718.3172 116.9589,707.3904 116.8155,696.4643 116.6727,685.539 116.5306,674.6143 116.3892,663.6902 116.2485,652.7667 116.1085,641.8439 115.9691,630.9216 115.8305,619.9998 115.6926,609.0785 115.5553,598.1577 115.4188,587.2374 115.2829,576.3175 115.1477,565.398 115.0132,554.4789 114.8794,543.5601 114.7463,532.6416 114.6138,521.7235 114.4821,510.8056 114.351,499.888 114.2206,488.9706 114.0909,478.0534 113.9619,467.1363 113.8336,456.2194 113.706,445.3026 113.579,434.3859 113.4527,423.4693 113.3272,412.5527 113.2023,401.6362 113.078,390.7196 112.9545,379.803 112.8316,368.8863 112.7095,357.9695 112.588,347.0526 112.4672,336.1356 112.347,325.2184 112.2276,314.301 112.1088,303.3834 111.9907,292.4656 111.8733,281.5474 111.7566,270.629 111.6406,259.7103 111.5252,248.7912 111.4105,237.8717 111.2965,226.9519 111.1832,216.0316 111.0705,205.1108 110.9586,194.1896 110.8473,183.2679 110.7367,172.3456 110.6267,161.4228 110.5175,150.4994 110.4089,139.5754 110.301,128.6508 110.1938,117.7255 110.0872,106.7995 109.9814,95.8728 109.8762,84.9453 109.7717,74.0171" stroke="silver" stroke-opacity="0.5" stroke-width="1" /><polyline fill="none" points="723.2896,729.822 718.6442,729.7519 708.087,729.5964 697.5303,729.4462 686.9743,729.3012 676.4188,729.1615 665.8639,729.027 655.3095,728.8977 644.7556,728.7737 634.2023,728.6549 623.6493,728.5414 613.0969,728.4331 602.5449,728.33 591.9932,728.2322 581.442,728.1396 570.8911,728.0523 560.3406,727.9702 549.7904,727.8933 539.2405,727.8216 528.6909,727.7552 518.1415,727.6941 507.5924,727.6381 497.0435,727.5874 486.4948,727.5419 475.9463,727.5016 465.3979,727.4666 454.8496,727.4368 444.3015,727.4122 433.7534,727.3929 423.2054,727.3788 412.6575,727.3699 402.1096,727.3662 391.5617,727.3678 381.0137,727.3746 370.4658,727.3866 359.9178,727.4039 349.3696,727.4263 338.8214,727.454 328.2731,727.487 317.7246,727.5252 307.176,727.5686 296.6272,727.6172 286.0781,727.671 275.5289,727.7301 264.9794,727.7945 254.4296,727.864 243.8795,727.9388 233.3291,728.0188 222.7784,728.1041 212.2273,728.1946 201.6758,728.2903 191.124,728.3912 180.5717,728.4974 170.019,728.6089 159.4658,728.7256 148.9121,728.8475 138.3579,728.9746 127.8032,729.107 117.248,729.2447 106.6922,729.3876 96.1358,729.5357 85.5787,729.6891 76.7104,729.822" stroke="silver" stroke-opacity="0.5" stroke-width="1" /><polyline fill="none" points="724.5929,642.4016 719.9287,642.3339 709.3288,642.1837 698.7295,642.0386 688.1308,641.8985 677.5327,641.7635 666.9352,641.6335 656.3383,641.5086 645.7418,641.3888 635.1459,641.2741 624.5504,641.1644 613.9554,641.0598 603.3608,640.9602 592.7667,640.8657 582.1729,640.7762 571.5795,640.6918 560.9865,640.6125 550.3937,640.5382 539.8013,640.469 529.2092,640.4048 518.6173,640.3457 508.0257,640.2916 497.4343,640.2426 486.8431,640.1987 476.2521,640.1598 465.6612,640.1259 455.0705,640.0971 444.4799,640.0734 433.8893,640.0547 423.2989,640.0411 412.7085,640.0325 402.1181,640.029 391.5277,640.0305 380.9373,640.037 370.3469,640.0487 359.7563,640.0653 349.1658,640.087 338.5751,640.1138 327.9843,640.1456 317.3933,640.1825 306.8022,640.2245 296.2109,640.2714 285.6193,640.3235 275.0276,640.3806 264.4356,640.4427 253.8433,640.5099 243.2507,640.5822 232.6578,640.6595 222.0645,640.7419 211.4709,640.8293 200.8769,640.9218 190.2825,641.0193 179.6877,641.1219 169.0924,641.2296 158.4966,641.3423 147.9004,641.4601 137.3036,641.583 126.7063,641.7109 116.1085,641.8439 105.51,641.9819 94.911,642.1251 84.3114,642.2732 75.4071,642.4016" stroke="silver" stroke-opacity="0.5" stroke-width="1" /><polyline fill="none" points="725.8455,555.0169 721.1633,554.9515 710.5224,554.8067 699.8821,554.6666 689.2425,554.5315 678.6035,554.4013 667.965,554.276 657.3271,554.1555 646.6897,554.0399 636.0528,553.9293 625.4165,553.8234 614.7806,553.7225 604.1451,553.6265 593.51,553.5353 582.8754,553.4491 572.2411,553.3676 561.6072,553.2911 550.9736,553.2195 540.3404,553.1527 529.7074,553.0908 519.0747,553.0338 508.4422,552.9817 497.81,552.9344 487.1779,552.892 476.5461,552.8545 465.9144,552.8218 455.2828,552.7941 444.6513,552.7712 434.02,552.7531 423.3887,552.74 412.7575,552.7317 402.1262,552.7283 391.495,552.7297 380.8638,552.7361 370.2325,552.7473 359.6012,552.7634 348.9698,552.7843 338.3383,552.8101 327.7066,552.8408 317.0748,552.8764 306.4429,552.9168 295.8107,552.9622 285.1783,553.0124 274.5457,553.0674 263.9129,553.1274 253.2797,553.1922 242.6463,553.2619 232.0125,553.3365 221.3784,553.4159 210.7439,553.5002 200.109,553.5894 189.4737,553.6835 178.8379,553.7825 168.2018,553.8863 157.5651,553.9951 146.9279,554.1087 136.2902,554.2272 125.652,554.3506 115.0132,554.4789 104.3738,554.612 93.7338,554.7501 83.0932,554.893 74.1545,555.0169" stroke="silver" stroke-opacity="0.5" stroke-width="1" /><polyline fill="none" points="727.0478,467.6543 722.3483,467.5914 711.668,467.4519 700.9884,467.3171 690.3095,467.187 679.6311,467.0616 668.9534,466.941 658.2762,466.825 647.5995,466.7137 636.9234,466.6072 626.2477,466.5053 615.5726,466.4081 604.8978,466.3157 594.2235,466.2279 583.5497,466.1448 572.8762,466.0665 562.203,465.9928 551.5302,465.9238 540.8577,465.8595 530.1855,465.7999 519.5136,465.745 508.8419,465.6948 498.1705,465.6493 487.4993,465.6085 476.8282,465.5724 466.1573,465.5409 455.4866,465.5142 444.8159,465.4922 434.1454,465.4748 423.4749,465.4621 412.8045,465.4542 402.1341,465.4509 391.4637,465.4523 380.7933,465.4584 370.1228,465.4692 359.4523,465.4847 348.7817,465.5048 338.111,465.5297 327.4402,465.5592 316.7692,465.5935 306.098,465.6324 295.4267,465.6761 284.7551,465.7244 274.0833,465.7774 263.4112,465.8351 252.7388,465.8975 242.0661,465.9646 231.3931,466.0364 220.7198,466.1129 210.0461,466.1941 199.3719,466.28 188.6974,466.3706 178.0224,466.4659 167.3469,466.5658 156.671,466.6705 145.9945,466.7799 135.3176,466.894 124.64,467.0128 113.9619,467.1363 103.2832,467.2645 92.6039,467.3974 81.9239,467.535 72.9522,467.6543" stroke="silver" stroke-opacity="0.5" stroke-width="1" /><polyline fill="none" points="728.1999,380.3007 723.4838,380.2403 712.7659,380.1062 702.0486,379.9767 691.332,379.8517 680.616,379.7312 669.9005,379.6153 659.1857,379.5038 648.4714,379.3969 637.7576,379.2945 627.0443,379.1966 616.3315,379.1033 605.6192,379.0144 594.9073,378.9301 584.1958,378.8503 573.4847,378.7749 562.774,378.7042 552.0636,378.6379 541.3535,378.5761 530.6437,378.5188 519.9343,378.4661 509.225,378.4179 498.516,378.3741 487.8072,378.3349 477.0986,378.3002 466.3901,378.27 455.6818,378.2443 444.9736,378.2231 434.2655,378.2064 423.5575,378.1943 412.8495,378.1866 402.1416,378.1834 391.4336,378.1848 380.7257,378.1907 370.0177,378.201 359.3096,378.2159 348.6015,378.2353 337.8932,378.2592 327.1848,378.2876 316.4763,378.3205 305.7675,378.3579 295.0586,378.3998 284.3495,378.4463 273.6401,378.4972 262.9304,378.5527 252.2205,378.6126 241.5102,378.6771 230.7996,378.7461 220.0887,378.8196 209.3773,378.8976 198.6656,378.9801 187.9534,379.0672 177.2408,379.1587 166.5278,379.2548 155.8142,379.3554 145.1001,379.4605 134.3855,379.5701 123.6703,379.6843 112.9545,379.803 102.2381,379.9262 91.5211,380.0539 80.8034,380.1861 71.8001,380.3007" stroke="silver" stroke-opacity="0.5" stroke-width="1" /><polyline fill="none" points="729.3021,292.9428 724.5701,292.8849 713.8162,292.7563 703.0628,292.6322 692.3101,292.5123 681.5581,292.3968 670.8066,292.2856 660.0558,292.1787 649.3055,292.0762 638.5557,291.978 627.8064,291.8842 617.0576,291.7946 606.3093,291.7095 595.5614,291.6286 584.8139,291.5521 574.0669,291.4798 563.3202,291.412 552.5738,291.3484 541.8278,291.2892 531.0821,291.2343 520.3367,291.1837 509.5915,291.1374 498.8465,291.0955 488.1018,291.0579 477.3573,291.0246 466.6129,290.9957 455.8686,290.971 445.1245,290.9507 434.3805,290.9347 423.6365,290.9231 412.8926,290.9157 402.1488,290.9127 391.4049,290.914 380.661,290.9196 369.9171,290.9295 359.1731,290.9438 348.429,290.9624 337.6848,290.9853 326.9405,291.0125 316.196,291.0441 305.4514,291.08 294.7065,291.1202 283.9614,291.1647 273.2161,291.2135 262.4705,291.2667 251.7246,291.3242 240.9784,291.386 230.2318,291.4522 219.4849,291.5226 208.7376,291.5975 197.9899,291.6766 187.2418,291.76 176.4932,291.8478 165.7441,291.94 154.9945,292.0364 144.2444,292.1372 133.4938,292.2423 122.7426,292.3518 111.9907,292.4656 101.2383,292.5837 90.4853,292.7061 79.7315,292.8329 70.6979,292.9428" stroke="silver" stroke-opacity="0.5" stroke-width="1" /><polyline fill="none" points="730.3545,205.5674 725.6074,205.5119 714.819,205.389 704.0312,205.2702 693.2441,205.1555 682.4577,205.045 671.6718,204.9386 660.8865,204.8364 650.1018,204.7384 639.3177,204.6444 628.534,204.5546 617.7509,204.469 606.9682,204.3875 596.186,204.3102 585.4041,204.2369 574.6227,204.1679 563.8417,204.1029 553.061,204.0421 542.2807,203.9855 531.5006,203.9329 520.7209,203.8846 509.9414,203.8403 499.1621,203.8002 488.3831,203.7642 477.6042,203.7324 466.8255,203.7047 456.047,203.6811 445.2686,203.6617 434.4902,203.6464 423.712,203.6352 412.9338,203.6282 402.1556,203.6253 391.3775,203.6265 380.5993,203.6319 369.8211,203.6414 359.0428,203.6551 348.2644,203.6729 337.4859,203.6948 326.7073,203.7208 315.9285,203.751 305.1495,203.7853 294.3703,203.8238 283.591,203.8664 272.8113,203.9131 262.0314,203.964 251.2512,204.019 240.4706,204.0781 229.6897,204.1414 218.9085,204.2088 208.1268,204.2804 197.3448,204.3561 186.5623,204.4359 175.7793,204.5199 164.9959,204.608 154.2119,204.7003 143.4274,204.7967 132.6424,204.8973 121.8568,205.002 111.0705,205.1108 100.2837,205.2238 89.4962,205.341 78.7081,205.4623 69.6455,205.5674" stroke="silver" stroke-opacity="0.5" stroke-width="1" /><polyline fill="none" points="731.3573,118.1611 726.5957,118.1082 715.7744,117.9909 704.9539,117.8775 694.134,117.7681 683.3147,117.6627 672.4961,117.5612 661.6781,117.4636 650.8606,117.3701 640.0437,117.2804 629.2273,117.1948 618.4114,117.1131 607.596,117.0353 596.781,116.9615 585.9665,116.8916 575.1524,116.8257 564.3386,116.7637 553.5252,116.7057 542.7122,116.6517 531.8994,116.6016 521.087,116.5554 510.2748,116.5132 499.4628,116.4749 488.6511,116.4406 477.8395,116.4102 467.0282,116.3838 456.2169,116.3613 445.4058,116.3427 434.5948,116.3281 423.7839,116.3175 412.973,116.3108 402.1622,116.308 391.3513,116.3092 380.5405,116.3143 369.7296,116.3234 358.9186,116.3364 348.1075,116.3534 337.2963,116.3743 326.485,116.3991 315.6736,116.4279 304.8619,116.4607 294.05,116.4974 283.238,116.538 272.4256,116.5826 261.613,116.6311 250.8,116.6836 239.9868,116.7401 229.1732,116.8004 218.3592,116.8648 207.5448,116.9331 196.7301,117.0053 185.9148,117.0815 175.0991,117.1616 164.2829,117.2457 153.4662,117.3337 142.649,117.4257 131.8312,117.5217 121.0128,117.6216 110.1938,117.7255 99.3742,117.8333 88.5539,117.9451 77.7329,118.0608 68.6427,118.1611" stroke="silver" stroke-opacity="0.5" stroke-width="1" /><line fill="none" stroke="green" stroke-opacity="0.5" stroke-width="1.5" x1="572.0295" x2="239.5696" y1="307.375" y2="132.7574" /><circle cx="725.7707" cy="243.0925" fill="black" r="0.738" stroke="none" /><circle cx="720.9346" cy="503.0451" fill="black" r="0.738" stroke="none" /><circle cx="712.6926" cy="726.6027" fill="black" r="0.738" stroke="none" /><circle cx="711.3724" cy="653.6634" fill="black" r="0.738" stroke="none" /><circle cx="714.9666" cy="282.7223" fill="black" r="0.738" stroke="none" /><circle cx="706.8579" cy="350.6827" fill="black" r="0.738" stroke="none" /><circle cx="705.8169" cy="329.7046" fill="black" r="0.738" stroke="none" /><circle cx="705.796" cy="120.1592" fill="black" r="0.738" stroke="none" /><circle cx="693.3892" cy="280.3814" fill="black" r="0.738" stroke="none" /><circle cx="687.9149" cy="332.6459" fill="black" r="0.738" stroke="none" /><circle cx="677.058" cy="686.07" fill="black" r="0.738" stroke="none" /><circle cx="674.0587" cy="438.2632" fill="black" r="0.738" stroke="none" /><circle cx="674.7538" cy="216.2391" fill="black" r="0.738" stroke="none" /><circle cx="662.3341" cy="693.0545" fill="black" r="0.738" stroke="none" /><circle cx="657.3486" cy="634.7921" fill="black" r="0.738" stroke="none" /><circle cx="658.9824" cy="88.9459" fill="black" r="0.738" stroke="none" /><circle cx="654.9805" cy="495.6977" fill="black" r="0.738" stroke="none" /><circle cx="644.6152" cy="620.4075" fill="black" r="0.738" stroke="none" /><circle cx="641.2182" cy="720.5163" fill="black" r="0.738" stroke="none" /><circle cx="643.0442" cy="503.2585" fill="black" r="0.738" stroke="none" /><circle cx="637.7562" cy="545.4747" fill="black" r="0.738" stroke="none" /><circle cx="636.078" cy="290.1221" fill="black" r="0.936" stroke="none" /><circle cx="628.3157" cy="718.539" fill="black" r="0.738" stroke="none" /><circle cx="627.255" cy="557.2475" fill="black" r="0.738" stroke="none" /><circle cx="629.5508" cy="174.8626" fill="black" r="0.738" stroke="none" /><circle cx="626.1191" cy="277.8104" fill="black" r="1.17" stroke="none" /><circle cx="624.8276" cy="377.8672" fill="black" r="0.738" stroke="none" /><circle cx="615.0593" cy="666.9311" fill="black" r="0.738" stroke="none" /><circle cx="618.3408" cy="271.4588" fill="black" r="0.738" stroke="none" /><circle cx="613.3783" cy="177.9694" fill="black" r="0.738" stroke="none" /><circle cx="597.337" cy="341.4952" fill="black" r="0.738" stroke="none" /><circle cx="589.0809" cy="655.5969" fill="black" r="0.738" stroke="none" /><circle cx="589.8468" cy="272.9025" fill="black" r="1.17" stroke="none" /><circle cx="589.9008" cy="137.3599" fill="black" r="0.738" stroke="none" /><circle cx="579.6835" cy="480.7826" fill="black" r="0.738" stroke="none" /><circle cx="578.7893" cy="575.684" fill="black" r="0.738" stroke="none" /><circle cx="572.0726" cy="307.3561" fill="black" r="1.854" stroke="none" /><circle cx="561.7219" cy="474.108" fill="black" r="0.738" stroke="none" /><circle cx="562.3213" cy="300.1359" fill="black" r="0.738" stroke="none" /><circle cx="549.567" cy="437.8915" fill="black" r="0.738" stroke="none" /><circle cx="543.0859" cy="507.4238" fill="black" r="0.738" stroke="none" /><circle cx="540.8467" cy="662.5728" fill="black" r="0.738" stroke="none" /><circle cx="538.6855" cy="642.7327" fill="black" r="0.738" stroke="none" /><circle cx="537.1146" cy="677.2237" fill="black" r="0.738" stroke="none" /><circle cx="538.0088" cy="195.7562" fill="black" r="0.936" stroke="none" /><circle cx="535.9098" cy="322.0723" fill="black" r="0.738" stroke="none" /><circle cx="524.5382" cy="468.2143" fill="black" r="0.738" stroke="none" /><circle cx="519.3471" cy="411.9788" fill="black" r="0.738" stroke="none" /><circle cx="512.7343" cy="596.9168" fill="black" r="0.738" stroke="none" /><circle cx="507.7401" cy="539.2729" fill="black" r="0.738" stroke="none" /><circle cx="505.9721" cy="110.2957" fill="black" r="0.738" stroke="none" /><circle cx="499.2483" cy="688.7228" fill="black" r="0.738" stroke="none" /><circle cx="495.7946" cy="607.5782" fill="black" r="0.738" stroke="none" /><circle cx="492.8808" cy="373.1164" fill="black" r="0.738" stroke="none" /><circle cx="488.3212" cy="223.3202" fill="black" r="0.738" stroke="none" /><circle cx="461.734" cy="459.3329" fill="black" r="0.738" stroke="none" /><circle cx="461.6079" cy="143.9694" fill="black" r="0.738" stroke="none" /><circle cx="457.4136" cy="715.3879" fill="black" r="0.738" stroke="none" /><circle cx="458.0115" cy="82.9103" fill="black" r="0.738" stroke="none" /><circle cx="457.9241" cy="83.3469" fill="black" r="0.738" stroke="none" /><circle cx="454.7585" cy="594.2583" fill="black" r="0.738" stroke="none" /><circle cx="454.1533" cy="450.8495" fill="black" r="0.738" stroke="none" /><circle cx="452.8943" cy="273.6833" fill="black" r="0.738" stroke="none" /><circle cx="447.5788" cy="109.6209" fill="black" r="1.17" stroke="none" /><circle cx="443.9239" cy="663.999" fill="black" r="0.738" stroke="none" /><circle cx="441.8624" cy="288.327" fill="black" r="0.738" stroke="none" /><circle cx="437.4847" cy="618.0575" fill="black" r="0.738" stroke="none" /><circle cx="417.5461" cy="272.3279" fill="black" r="0.738" stroke="none" /><circle cx="404.1813" cy="473.9164" fill="black" r="0.738" stroke="none" /><circle cx="396.1583" cy="463.2693" fill="black" r="0.738" stroke="none" /><circle cx="388.368" cy="417.5433" fill="black" r="0.738" stroke="none" /><circle cx="385.8958" cy="575.6898" fill="black" r="0.738" stroke="none" /><circle cx="382.1523" cy="675.6646" fill="black" r="0.738" stroke="none" /><circle cx="376.0193" cy="86.6204" fill="black" r="0.936" stroke="none" /><circle cx="364.5208" cy="544.0266" fill="black" r="0.738" stroke="none" /><circle cx="364.087" cy="424.1988" fill="black" r="0.738" stroke="none" /><circle cx="355.1611" cy="587.4271" fill="black" r="0.738" stroke="none" /><circle cx="349.3612" cy="90.5843" fill="black" r="0.738" stroke="none" /><circle cx="349.2823" cy="375.9649" fill="black" r="0.738" stroke="none" /><circle cx="348.2546" cy="198.3474" fill="black" r="0.738" stroke="none" /><circle cx="347.9019" cy="713.8019" fill="black" r="0.738" stroke="none" /><circle cx="344.967" cy="236.7649" fill="black" r="0.738" stroke="none" /><circle cx="337.4816" cy="349.9843" fill="black" r="0.738" stroke="none" /><circle cx="331.7933" cy="719.9622" fill="black" r="0.738" stroke="none" /><circle cx="325.881" cy="280.8906" fill="black" r="0.936" stroke="none" /><circle cx="317.3155" cy="399.176" fill="black" r="0.936" stroke="none" /><circle cx="315.7565" cy="419.1667" fill="black" r="0.738" stroke="none" /><circle cx="313.1863" cy="152.6792" fill="black" r="0.738" stroke="none" /><circle cx="313.628" cy="630.5914" fill="black" r="0.738" stroke="none" /><circle cx="306.1826" cy="530.4838" fill="black" r="0.738" stroke="none" /><circle cx="295.7803" cy="116.5786" fill="black" r="0.738" stroke="none" /><circle cx="293.4754" cy="429.2018" fill="black" r="0.738" stroke="none" /><circle cx="282.4042" cy="559.4865" fill="black" r="0.738" stroke="none" /><circle cx="279.0674" cy="489.2319" fill="black" r="0.738" stroke="none" /><circle cx="274.3287" cy="344.1044" fill="black" r="0.738" stroke="none" /><circle cx="262.9596" cy="550.1646" fill="black" r="0.738" stroke="none" /><circle cx="260.261" cy="650.3378" fill="black" r="0.738" stroke="none" /><circle cx="255.4021" cy="658.5793" fill="black" r="0.738" stroke="none" /><circle cx="252.6722" cy="440.6713" fill="black" r="0.738" stroke="none" /><circle cx="253.7149" cy="633.8732" fill="black" r="0.738" stroke="none" /><circle cx="249.5157" cy="355.7588" fill="black" r="0.738" stroke="none" /><circle cx="245.8192" cy="354.2968" fill="black" r="0.738" stroke="none" /><circle cx="239.5548" cy="132.7286" fill="black" r="1.854" stroke="none" /><circle cx="239.0385" cy="117.3567" fill="black" r="0.936" stroke="none" /><circle cx="239.6768" cy="274.981" fill="black" r="0.738" stroke="none" /><circle cx="231.6578" cy="515.796" fill="black" r="0.738" stroke="none" /><circle cx="227.5744" cy="345.0716" fill="black" r="0.738" stroke="none" /><circle cx="223.7763" cy="329.0341" fill="black" r="0.738" stroke="none" /><circle cx="215.6318" cy="610.9228" fill="black" r="0.738" stroke="none" /><circle cx="216.3588" cy="727.6341" fill="black" r="0.738" stroke="none" /><circle cx="213.2179" cy="478.8286" fill="black" r="0.738" stroke="none" /><circle cx="209.384" cy="693.1781" fill="black" r="1.17" stroke="none" /><circle cx="208.2198" cy="587.4912" fill="black" r="0.738" stroke="none" /><circle cx="198.7638" cy="161.0226" fill="black" r="0.936" stroke="none" /><circle cx="194.9435" cy="631.7161" fill="black" r="0.738" stroke="none" /><circle cx="180.0722" cy="168.4099" fill="black" r="0.738" stroke="none" /><circle cx="181.862" cy="558.6445" fill="black" r="1.17" stroke="none" /><circle cx="165.8177" cy="230.5431" fill="black" r="0.738" stroke="none" /><circle cx="160.5336" cy="370.7531" fill="black" r="0.936" stroke="none" /><circle cx="153.3912" cy="295.3698" fill="black" r="0.738" stroke="none" /><circle cx="151.1701" cy="488.2096" fill="black" r="0.738" stroke="none" /><circle cx="143.262" cy="426.0252" fill="black" r="0.738" stroke="none" /><circle cx="142.3624" cy="609.6319" fill="black" r="0.738" stroke="none" /><circle cx="138.7788" cy="644.4492" fill="black" r="0.738" stroke="none" /><circle cx="130.3369" cy="433.4986" fill="black" r="0.738" stroke="none" /><circle cx="125.0471" cy="567.8987" fill="black" r="0.738" stroke="none" /><circle cx="121.5093" cy="247.7269" fill="black" r="0.738" stroke="none" /><circle cx="118.1299" cy="186.0784" fill="black" r="0.738" stroke="none" /><circle cx="121.9728" cy="573.9639" fill="black" r="0.738" stroke="none" /><circle cx="113.9894" cy="341.7964" fill="black" r="0.738" stroke="none" /><circle cx="105.4252" cy="648.3634" fill="black" r="0.738" stroke="none" /><circle cx="100.0184" cy="366.1507" fill="black" r="0.738" stroke="none" /><circle cx="102.3041" cy="552.5416" fill="black" r="0.738" stroke="none" /><circle cx="94.0698" cy="123.9196" fill="black" r="0.738" stroke="none" /><circle cx="85.8337" cy="232.6464" fill="black" r="0.738" stroke="none" /><circle cx="86.4365" cy="371.0307" fill="black" r="0.738" stroke="none" /><circle cx="79.077" cy="266.803" fill="black" r="0.738" stroke="none" /><circle cx="82.1455" cy="615.2073" fill="black" r="0.738" stroke="none" /><circle cx="79.7454" cy="490.1049" fill="black" r="0.738" stroke="none" /><circle cx="73.6413" cy="315.3618" fill="black" r="0.738" stroke="none" /><circle cx="13.77" cy="786.23" fill="black" r="4.59" stroke="none" /><circle cx="13.77" cy="786.23" fill="black" r="4.59" stroke="none" /><text fill="black" font-family="monospace" font-size="12" x="10.77" y="775.64">1</text><circle cx="37.77" cy="786.23" fill="black" r="3.654" stroke="none" /><circle cx="37.77" cy="786.23" fill="black" r="3.654" stroke="none" /><text fill="black" font-family="monospace" font-size="12" x="34.769999999999996" y="775.64">2</text><circle cx="61.77" cy="786.23" fill="black" r="2.916" stroke="none" /><circle cx="61.77" cy="786.23" fill="black" r="2.916" stroke="none" /><text fill="black" font-family="monospace" font-size="12" x="58.769999999999996" y="775.64">3</text><circle cx="85.77" cy="786.23" fill="black" r="2.322" stroke="none" /><circle cx="85.77" cy="786.23" fill="black" r="2.322" stroke="none" /><text fill="black" font-family="monospace" font-size="12" x="82.77" y="775.64">4</text><circle cx="109.77" cy="786.23" fill="black" r="1.854" stroke="none" /><circle cx="109.77" cy="786.23" fill="black" r="1.854" stroke="none" /><text fill="black" font-family="monospace" font-size="12" x="106.77" y="775.64">5</text><circle cx="133.77" cy="786.23" fill="black" r="1.476" stroke="none" /><circle cx="133.77" cy="786.23" fill="black" r="1.476" stroke="none" /><text fill="black" font-family="monospace" font-size="12" x="130.77" y="775.64">6</text><circle cx="157.77" cy="786.23" fill="black" r="1.17" stroke="none" /><circle cx="157.77" cy="786.23" fill="black" r="1.17" stroke="none" /><text fill="black" font-family="monospace" font-size="12" x="154.77" y="775.64">7</text><circle cx="181.77" cy="786.23" fill="black" r="0.936" stroke="none" /><circle cx="181.77" cy="786.23" fill="black" r="0.936" stroke="none" /><text fill="black" font-family="monospace" font-size="12" x="178.77" y="775.64">8</text><circle cx="205.77" cy="786.23" fill="black" r="0.738" stroke="none" /><circle cx="205.77" cy="786.23" fill="black" r="0.738" stroke="none" /><text fill="black" font-family="monospace" font-size="12" x="202.77" y="775.64">9</text><text fill="gray" fill-opacity="0.5" font-family="monospace" font-size="12" x="651.2259238714325" y="73.67033584866817">01h05m</text><text fill="gray" fill-opacity="0.5" font-family="monospace" font-size="12" x="542.9198934306254" y="72.96932101861591">01h10m</text><text fill="gray" fill-opacity="0.5" font-family="monospace" font-size="12" x="434.64517271458897" y="72.65360618064534">01h15m</text><text fill="gray" fill-opacity="0.5" font-family="monospace" font-size="12" x="326.3780405051217" y="72.7229026811122">01h20m</text><text fill="gray" fill-opacity="0.5" font-family="monospace" font-size="12" x="218.09478191242093" y="73.17727387008034">01h25m</text><text fill="gray" fill-opacity="0.5" font-family="monospace" font-size="12" x="109.77166859749684" y="74.01713522257575">01h30m</text><text fill="gray" fill-opacity="0.5" font-family="monospace" font-size="12" x="76.71035069797597" y="729.8219665440616">-15°</text><text fill="gray" fill-opacity="0.5" font-family="monospace" font-size="12" x="75.40714312416964" y="642.4016498613714">-14°</text><text fill="gray" fill-opacity="0.5" font-family="monospace" font-size="12" x="74.154517556788" y="555.0168519113298">-13°</text><text fill="gray" fill-opacity="0.5" font-family="monospace" font-size="12" x="72.95223276131571" y="467.65429096855854">-12°</text><text fill="gray" fill-opacity="0.5" font-family="monospace" font-size="12" x="71.8000781586145" y="380.30069879479095">-11°</text><text fill="gray" fill-opacity="0.5" font-family="monospace" font-size="12" x="70.69787367159552" y="292.9428125892501">-10°</text><text fill="gray" fill-opacity="0.5" font-family="monospace" font-size="12" x="69.64546961131572" y="205.56736694601938">-9°</text><text fill="gray" fill-opacity="0.5" font-family="monospace" font-size="12" x="68.64274660234514" y="118.16108580806116">-8°</text><text fill="black" font-family="monospace" font-size="12" x="12" y="48">&gt;&gt; No.316 01h01m 01h32m -15.0°-7.5°</text><a target="_self" xlink:href="hip014.svg"><text fill="black" font-family="monospace" font-size="12" x="12" y="36">&gt; No.14 00h00m 02h40m -22.5°+0.0°</text></a><a target="_self" xlink:href="hip001.svg"><text fill="black" font-family="monospace" font-size="12" x="12" y="24">No.1 00h 24h -90.0°+0.0°</text></a><polyline fill="none" points="731.84,74.4422 727.0715,74.3906 716.2344,74.2761 705.3981,74.1655 694.5624,74.0588 683.7274,73.9559 672.893,73.8568 662.0592,73.7617 651.2259,73.6703 640.3932,73.5829 629.5611,73.4993 618.7294,73.4195 607.8982,73.3437 597.0675,73.2716 586.2372,73.2035 575.4073,73.1391 564.5778,73.0787 553.7487,73.0221 542.9199,72.9693 532.0914,72.9204 521.2632,72.8754 510.4353,72.8342 499.6076,72.7968 488.7801,72.7633 477.9528,72.7337 467.1257,72.7079 456.2988,72.6859 445.4719,72.6679 434.6452,72.6536 423.8185,72.6432 412.9919,72.6367 402.1653,72.634 391.3387,72.6351 380.5121,72.6401 369.6855,72.649 358.8588,72.6617 348.032,72.6782 337.2051,72.6986 326.378,72.7229 315.5508,72.751 304.7234,72.783 293.8958,72.8188 283.068,72.8584 272.2399,72.9019 261.4115,72.9493 250.5829,73.0005 239.7539,73.0556 228.9245,73.1145 218.0948,73.1773 207.2647,73.2439 196.4341,73.3144 185.6031,73.3887 174.7716,73.4669 163.9397,73.549 153.1072,73.6349 142.2742,73.7247 131.4406,73.8183 120.6065,73.9158 109.7717,74.0171 98.9363,74.1223 88.1002,74.2314 77.2634,74.3444 68.16,74.4422" stroke="black" stroke-opacity="0.5" stroke-width="1" /><polyline fill="none" points="723.2896,729.822 723.4553,718.892 723.6202,707.9628 723.7843,697.0343 723.9476,686.1065 724.1101,675.1794 724.2718,664.2529 724.4327,653.327 724.5929,642.4016 724.7522,631.4769 724.9107,620.5526 725.0685,609.6289 725.2255,598.7056 725.3817,587.7828 725.5371,576.8604 725.6917,565.9385 725.8455,555.0169 725.9985,544.0956 726.1508,533.1746 726.3022,522.254 726.4529,511.3336 726.6028,500.4135 726.7519,489.4936 726.9002,478.5738 727.0478,467.6543 727.1945,456.7349 727.3405,445.8156 727.4857,434.8964 727.6301,423.9772 727.7737,413.0581 727.9166,402.139 728.0586,391.2199 728.1999,380.3007 728.3404,369.3815 728.4801,358.4621 728.6191,347.5427 728.7573,336.6231 728.8946,325.7034 729.0312,314.7834 729.1671,303.8632 729.3021,292.9428 729.4364,282.0221 729.5699,271.1011 729.7026,260.1798 729.8345,249.2581 729.9657,238.3361 730.0961,227.4136 730.2257,216.4907 730.3545,205.5674 730.4826,194.6435 730.6099,183.7192 730.7364,172.7943 730.8621,161.8689 730.987,150.9429 731.1112,140.0163 731.2346,129.089 731.3573,118.1611 731.4791,107.2325 731.6002,96.3031 731.7205,85.3731 731.84,74.4422" stroke="black" stroke-opacity="0.5" stroke-width="1" /><polyline fill="none" points="723.2896,729.822 718.6442,729.7519 708.087,729.5964 697.5303,729.4462 686.9743,729.3012 676.4188,729.1615 665.8639,729.027 655.3095,728.8977 644.7556,728.7737 634.2023,728.6549 623.6493,728.5414 613.0969,728.4331 602.5449,728.33 591.9932,728.2322 581.442,728.1396 570.8911,728.0523 560.3406,727.9702 549.7904,727.8933 539.2405,727.8216 528.6909,727.7552 518.1415,727.6941 507.5924,727.6381 497.0435,727.5874 486.4948,727.5419 475.9463,727.5016 465.3979,727.4666 454.8496,727.4368 444.3015,727.4122 433.7534,727.3929 423.2054,727.3788 412.6575,727.3699 402.1096,727.3662 391.5617,727.3678 381.0137,727.3746 370.4658,727.3866 359.9178,727.4039 349.3696,727.4263 338.8214,727.454 328.2731,727.487 317.7246,727.5252 307.176,727.5686 296.6272,727.6172 286.0781,727.671 275.5289,727.7301 264.9794,727.7945 254.4296,727.864 243.8795,727.9388 233.3291,728.0188 222.7784,728.1041 212.2273,728.1946 201.6758,728.2903 191.124,728.3912 180.5717,728.4974 170.019,728.6089 159.4658,728.7256 148.9121,728.8475 138.3579,728.9746 127.8032,729.107 117.248,729.2447 106.6922,729.3876 96.1358,729.5357 85.5787,729.6891 76.7104,729.822" stroke="black" stroke-opacity="0.5" stroke-width="1" /><polyline fill="none" points="76.7104,729.822 76.5447,718.892 76.3798,707.9628 76.2157,697.0343 76.0524,686.1065 75.8899,675.1794 75.7282,664.2529 75.5673,653.327 75.4071,642.4016 75.2478,631.4769 75.0893,620.5526 74.9315,609.6289 74.7745,598.7056 74.6183,587.7828 74.4629,576.8604 74.3083,565.9385 74.1545,555.0169 74.0015,544.0956 73.8492,533.1746 73.6978,522.254 73.5471,511.3336 73.3972,500.4135 73.2481,489.4936 73.0998,478.5738 72.9522,467.6543 72.8055,456.7349 72.6595,445.8156 72.5143,434.8964 72.3699,423.9772 72.2263,413.0581 72.0834,402.139 71.9414,391.2199 71.8001,380.3007 71.6596,369.3815 71.5199,358.4621 71.3809,347.5427 71.2427,336.6231 71.1054,325.7034 70.9688,314.7834 70.8329,303.8632 70.6979,292.9428 70.5636,282.0221 70.4301,271.1011 70.2974,260.1798 70.1655,249.2581 70.0343,238.3361 69.9039,227.4136 69.7743,216.4907 69.6455,205.5674 69.5174,194.6435 69.3901,183.7192 69.2636,172.7943 69.1379,161.8689 69.013,150.9429 68.8888,140.0163 68.7654,129.089 68.6427,118.1611 68.5209,107.2325 68.3998,96.3031 68.2795,85.3731 68.16,74.4422" stroke="black" stroke-opacity="0.5" stroke-width="1" /></svg>