<?xml version="1.0" encoding="utf-8" ?>
<svg baseProfile="tiny" height="800" version="1.2" width="800" xmlns="http://www.w3.org/2000/svg" xmlns:ev="http://www.w3.org/2001/xml-events" xmlns:xlink="http://www.w3.org/1999/xlink"><defs /><rect fill="none" height="800" stroke="black" stroke-width="2" width="800" x="0" y="0" /><polyline fill="none" points="620.2725,728.5062 620.3853,717.5818 620.4976,706.6581 620.6093,695.7352 620.7205,684.8129 620.8312,673.8913 620.9413,662.9704 621.0509,652.0501 621.1599,641.1303 621.2684,630.2112 621.3764,619.2926 621.4838,608.3744 621.5907,597.4568 621.6971,586.5396 621.8029,575.6229 621.9082,564.7066 622.0129,553.7906 622.1171,542.875 622.2208,531.9598 622.324,521.0448 622.4266,510.1301 622.5286,499.2157 622.6302,488.3015 622.7312,477.3875 622.8316,466.4737 622.9316,455.56 623.031,444.6465 623.1298,433.733 623.2282,422.8196 623.326,411.9063 623.4232,400.9929 623.52,390.0796 623.6162,379.1663 623.7119,368.2528 623.807,357.3393 623.9016,346.4257 623.9957,335.512 624.0893,324.598 624.1823,313.6839 624.2748,302.7696 624.3667,291.8551 624.4582,280.9402 624.5491,270.0251 624.6394,259.1097 624.7293,248.1939 624.8186,237.2777 624.9074,226.3612 624.9956,215.4442 625.0834,204.5268 625.1706,193.6089 625.2572,182.6905 625.3434,171.7716 625.429,160.8521 625.5141,149.9321 625.5986,139.0114 625.6827,128.0901 625.7662,117.1682 625.8491,106.2456 625.9316,95.3222 626.0135,84.3982 626.0949,73.4733" stroke="silver" stroke-opacity="0.5" stroke-width="1" /><polyline fill="none" points="514.7658,727.6756 514.8246,716.7547 514.883,705.8345 514.9412,694.9151 514.9991,683.9963 515.0568,673.0783 515.1141,662.1609 515.1712,651.2441 515.228,640.3279 515.2845,629.4122 515.3407,618.4971 515.3967,607.5826 515.4524,596.6685 515.5078,585.7549 515.5629,574.8417 515.6177,563.929 515.6723,553.0166 515.7265,542.1046 515.7805,531.1929 515.8342,520.2815 515.8877,509.3705 515.9408,498.4596 515.9937,487.549 516.0463,476.6387 516.0987,465.7285 516.1507,454.8184 516.2025,443.9085 516.254,432.9987 516.3052,422.0889 516.3561,411.1792 516.4068,400.2695 516.4572,389.3599 516.5073,378.4502 516.5571,367.5404 516.6067,356.6306 516.6559,345.7206 516.7049,334.8106 516.7537,323.9003 516.8021,312.9899 516.8503,302.0793 516.8982,291.1684 516.9458,280.2573 516.9931,269.3459 517.0402,258.4342 517.087,247.5221 517.1335,236.6097 517.1798,225.6969 517.2257,214.7836 517.2714,203.87 517.3168,192.9558 517.362,182.0412 517.4068,171.126 517.4514,160.2103 517.4957,149.294 517.5398,138.3771 517.5835,127.4596 517.627,116.5414 517.6702,105.6226 517.7132,94.7031 517.7558,83.7828 517.7982,72.8618" stroke="silver" stroke-opacity="0.5" stroke-width="1" /><polyline fill="none" points="409.2822,727.3681 409.2869,716.4485 409.2916,705.5296 409.2963,694.6115 409.301,683.6941 409.3057,672.7773 409.3103,661.8612 409.3149,650.9457 409.3195,640.0308 409.3241,629.1165 409.3287,618.2027 409.3332,607.2895 409.3377,596.3767 409.3422,585.4644 409.3466,574.5526 409.3511,563.6411 409.3555,552.7301 409.3599,541.8194 409.3642,530.909 409.3686,519.999 409.3729,509.0893 409.3772,498.1798 409.3815,487.2705 409.3857,476.3615 409.3899,465.4526 409.3942,454.5439 409.3983,443.6353 409.4025,432.7268 409.4066,421.8184 409.4108,410.9101 409.4149,400.0018 409.4189,389.0934 409.423,378.1851 409.427,367.2767 409.431,356.3682 409.435,345.4596 409.439,334.5509 409.4429,323.6421 409.4468,312.733 409.4507,301.8238 409.4546,290.9143 409.4585,280.0045 409.4623,269.0945 409.4661,258.1841 409.4699,247.2735 409.4736,236.3624 409.4774,225.451 409.4811,214.5391 409.4848,203.6268 409.4885,192.7141 409.4921,181.8008 409.4957,170.887 409.4993,159.9727 409.5029,149.0578 409.5065,138.1423 409.51,127.2262 409.5135,116.3095 409.517,105.392 409.5205,94.4739 409.524,83.555 409.5274,72.6354" stroke="silver" stroke-opacity="0.5" stroke-width="1" /><polyline fill="none" points="303.8004,727.5835 303.7511,716.663 303.7021,705.7432 303.6533,694.8242 303.6048,683.9058 303.5565,672.9882 303.5084,662.0712 303.4606,651.1547 303.413,640.2389 303.3656,629.3237 303.3185,618.409 303.2716,607.4948 303.2249,596.5812 303.1785,585.6679 303.1323,574.7552 303.0863,563.8428 303.0406,552.9308 302.9951,542.0192 302.9499,531.1079 302.9048,520.197 302.86,509.2863 302.8155,498.3759 302.7712,487.4657 302.7271,476.5557 302.6832,465.6459 302.6396,454.7362 302.5962,443.8267 302.553,432.9173 302.5101,422.0079 302.4674,411.0987 302.4249,400.1894 302.3827,389.2801 302.3407,378.3708 302.2989,367.4615 302.2574,356.552 302.2161,345.6425 302.175,334.7328 302.1342,323.823 302.0936,312.913 302.0532,302.0028 302.0131,291.0923 301.9731,280.1816 301.9335,269.2706 301.894,258.3593 301.8548,247.4477 301.8158,236.5357 301.777,225.6233 301.7385,214.7104 301.7002,203.7972 301.6621,192.8834 301.6243,181.9692 301.5867,171.0545 301.5493,160.1392 301.5122,149.2233 301.4753,138.3068 301.4386,127.3897 301.4021,116.472 301.3659,105.5536 301.3299,94.6345 301.2942,83.7146 301.2586,72.794" stroke="silver" stroke-opacity="0.5" stroke-width="1" /><polyline fill="none" points="198.2993,728.322 198.196,717.3984 198.0932,706.4755 197.9909,695.5533 197.8891,684.6319 197.7877,673.7111 197.6869,662.7909 197.5866,651.8714 197.4867,640.9524 197.3874,630.0341 197.2885,619.1162 197.1902,608.1989 197.0923,597.282 196.9949,586.3657 196.898,575.4497 196.8016,564.5342 196.7057,553.619 196.6103,542.7042 196.5154,531.7898 196.421,520.8756 196.327,509.9617 196.2336,499.0481 196.1406,488.1347 196.0481,477.2215 195.9561,466.3085 195.8646,455.3956 195.7736,444.4828 195.6831,433.5702 195.593,422.6576 195.5035,411.7451 195.4144,400.8326 195.3259,389.92 195.2378,379.0075 195.1502,368.0949 195.063,357.1822 194.9764,346.2694 194.8903,335.3565 194.8046,324.4434 194.7194,313.5301 194.6348,302.6166 194.5506,291.7028 194.4668,280.7888 194.3836,269.8745 194.3009,258.9599 194.2186,248.045 194.1368,237.1296 194.0555,226.2139 193.9747,215.2978 193.8944,204.3812 193.8146,193.4641 193.7352,182.5465 193.6563,171.6285 193.5779,160.7098 193.5,149.7906 193.4226,138.8708 193.3457,127.9503 193.2692,117.0292 193.1933,106.1075 193.1178,95.185 193.0428,84.2617 192.9682,73.3378" stroke="silver" stroke-opacity="0.5" stroke-width="1" /><polyline fill="none" points="92.7576,729.5842 92.6001,718.6553 92.4435,707.7271 92.2875,696.7996 92.1324,685.8728 91.9779,674.9466 91.8243,664.0211 91.6714,653.0962 91.5192,642.1719 91.3678,631.2482 91.2171,620.3249 91.0672,609.4022 90.918,598.48 90.7696,587.5582 90.6219,576.6368 90.475,565.7159 90.3289,554.7953 90.1834,543.875 90.0388,532.9551 89.8948,522.0355 89.7516,511.1162 89.6092,500.197 89.4675,489.2782 89.3266,478.3595 89.1864,467.441 89.0469,456.5226 88.9082,445.6043 88.7702,434.6861 88.633,423.768 88.4965,412.85 88.3608,401.9319 88.2258,391.0138 88.0915,380.0957 87.958,369.1775 87.8252,358.2593 87.6932,347.3409 87.5619,336.4223 87.4314,325.5036 87.3015,314.5847 87.1725,303.6656 87.0441,292.7463 86.9165,281.8266 86.7897,270.9067 86.6636,259.9864 86.5382,249.0658 86.4136,238.1448 86.2897,227.2234 86.1665,216.3016 86.0441,205.3793 85.9224,194.4566 85.8014,183.5333 85.6812,172.6095 85.5618,161.6852 85.443,150.7602 85.325,139.8347 85.2078,128.9085 85.0912,117.9817 84.9754,107.0541 84.8604,96.1259 84.7461,85.1969 84.6325,74.2671" stroke="silver" stroke-opacity="0.5" stroke-width="1" /><polyline fill="none" points="723.2896,729.822 715.2659,729.7016 704.7088,729.5478 694.1523,729.3992 683.5965,729.2559 673.0412,729.1178 662.4864,728.985 651.9322,728.8574 641.3785,728.7351 630.8253,728.618 620.2725,728.5062 609.7202,728.3995 599.1683,728.2982 588.6168,728.202 578.0657,728.1111 567.5149,728.0254 556.9645,727.945 546.4144,727.8698 535.8646,727.7998 525.3151,727.7351 514.7658,727.6756 504.2167,727.6213 493.6679,727.5723 483.1192,727.5284 472.5708,727.4898 462.0224,727.4565 451.4742,727.4284 440.9261,727.4055 430.3781,727.3878 419.8301,727.3753 409.2822,727.3681 398.7343,727.3661 388.1863,727.3694 377.6384,727.3779 367.0904,727.3916 356.5424,727.4105 345.9942,727.4346 335.446,727.464 324.8976,727.4986 314.3491,727.5385 303.8004,727.5835 293.2515,727.6338 282.7024,727.6894 272.1531,727.7501 261.6035,727.8161 251.0536,727.8874 240.5034,727.9638 229.9529,728.0455 219.4021,728.1325 208.8509,728.2246 198.2993,728.322 187.7473,728.4247 177.1949,728.5325 166.642,728.6456 156.0887,728.764 145.5348,728.8876 134.9805,729.0164 124.4256,729.1505 113.8702,729.2898 103.3142,729.4344 92.7576,729.5842 82.2004,729.7393 76.7104,729.822" stroke="silver" stroke-opacity="0.5" stroke-width="1" /><polyline fill="none" points="724.5929,642.4016 716.5366,642.2853 705.9369,642.1367 695.3379,641.9932 684.7394,641.8547 674.1415,641.7213 663.5441,641.593 652.9473,641.4698 642.3511,641.3516 631.7553,641.2384 621.1599,641.1303 610.5651,641.0273 599.9706,640.9294 589.3766,640.8365 578.783,640.7487 568.1897,640.6659 557.5967,640.5882 547.0041,640.5155 536.4118,640.4479 525.8198,640.3854 515.228,640.3279 504.6364,640.2754 494.0451,640.228 483.454,640.1857 472.863,640.1484 462.2722,640.1162 451.6815,640.089 441.0909,640.0669 430.5004,640.0498 419.9099,640.0378 409.3195,640.0308 398.7292,640.0289 388.1388,640.032 377.5484,640.0402 366.9579,640.0534 356.3674,640.0717 345.7768,640.0951 335.186,640.1235 324.5952,640.1569 314.0042,640.1954 303.413,640.2389 292.8216,640.2875 282.23,640.3412 271.6382,640.3999 261.0461,640.4637 250.4537,640.5325 239.861,640.6064 229.268,640.6853 218.6746,640.7693 208.0809,640.8583 197.4867,640.9524 186.8922,641.0516 176.2972,641.1558 165.7018,641.2651 155.1059,641.3795 144.5095,641.4989 133.9125,641.6234 123.3151,641.7529 112.717,641.8875 102.1184,642.0272 91.5192,642.1719 80.9193,642.3217 75.4071,642.4016" stroke="silver" stroke-opacity="0.5" stroke-width="1" /><polyline fill="none" points="725.8455,555.0169 717.7581,554.9046 707.1174,554.7613 696.4774,554.6229 685.8379,554.4893 675.1991,554.3607 664.5608,554.2369 653.9231,554.118 643.2859,554.004 632.6492,553.8949 622.0129,553.7906 611.3772,553.6913 600.7418,553.5968 590.1069,553.5072 579.4724,553.4225 568.8382,553.3426 558.2044,553.2677 547.5709,553.1976 536.9378,553.1324 526.3049,553.072 515.6723,553.0166 505.0399,552.966 494.4077,552.9203 483.7757,552.8795 473.1439,552.8435 462.5122,552.8124 451.8807,552.7862 441.2493,552.7649 430.618,552.7484 419.9867,552.7368 409.3555,552.7301 398.7243,552.7282 388.093,552.7312 377.4618,552.7391 366.8305,552.7519 356.1992,552.7695 345.5677,552.792 334.9362,552.8194 324.3045,552.8517 313.6726,552.8888 303.0406,552.9308 292.4084,552.9777 281.7759,553.0295 271.1432,553.0861 260.5103,553.1476 249.877,553.214 239.2435,553.2852 228.6096,553.3613 217.9754,553.4424 207.3407,553.5282 196.7057,553.619 186.0703,553.7147 175.4344,553.8152 164.7981,553.9206 154.1613,554.0309 143.5239,554.1461 132.8861,554.2661 122.2476,554.3911 111.6086,554.5209 100.9691,554.6557 90.3289,554.7953 79.688,554.9398 74.1545,555.0169" stroke="silver" stroke-opacity="0.5" stroke-width="1" /><polyline fill="none" points="727.0478,467.6543 718.9305,467.5463 708.2505,467.4083 697.5711,467.275 686.8923,467.1464 676.2142,467.0225 665.5366,466.9033 654.8596,466.7889 644.1831,466.6791 633.5071,466.574 622.8316,466.4737 612.1566,466.378 601.482,466.2871 590.8079,466.2008 580.1341,466.1192 569.4607,466.0424 558.7877,465.9702 548.115,465.9027 537.4426,465.8399 526.7705,465.7818 516.0987,465.7285 505.4271,465.6798 494.7557,465.6357 484.0845,465.5964 473.4135,465.5618 462.7427,465.5319 452.0719,465.5066 441.4013,465.4861 430.7308,465.4702 420.0604,465.4591 409.3899,465.4526 398.7196,465.4508 388.0492,465.4537 377.3787,465.4613 366.7083,465.4736 356.0377,465.4906 345.3671,465.5123 334.6963,465.5386 324.0255,465.5697 313.3544,465.6054 302.6832,465.6459 292.0118,465.691 281.3401,465.7408 270.6682,465.7954 259.9961,465.8546 249.3236,465.9185 238.6508,465.9871 227.9777,466.0604 217.3042,466.1384 206.6304,466.2211 195.9561,466.3085 185.2814,466.4006 174.6063,466.4973 163.9307,466.5988 153.2546,466.705 142.578,466.8159 131.9008,466.9315 121.2231,467.0518 110.5448,467.1768 99.8659,467.3065 89.1864,467.441 78.5062,467.5801 72.9522,467.6543" stroke="silver" stroke-opacity="0.5" stroke-width="1" /><polyline fill="none" points="728.1999,380.3007 720.054,380.1969 709.3363,380.0643 698.6192,379.9362 687.9028,379.8127 677.187,379.6936 666.4717,379.5791 655.7571,379.4691 645.0429,379.3636 634.3293,379.2627 623.6162,379.1663 612.9035,379.0743 602.1913,378.9869 591.4796,378.904 580.7682,378.8257 570.0572,378.7518 559.3466,378.6824 548.6363,378.6176 537.9264,378.5573 527.2167,378.5015 516.5073,378.4502 505.7981,378.4034 495.0892,378.3611 484.3804,378.3233 473.6719,378.29 462.9635,378.2613 452.2552,378.237 441.547,378.2173 430.839,378.202 420.131,378.1913 409.423,378.1851 398.715,378.1834 388.0071,378.1862 377.2991,378.1935 366.5911,378.2053 355.883,378.2216 345.1748,378.2424 334.4665,378.2678 323.7581,378.2976 313.0495,378.332 302.3407,378.3708 291.6317,378.4142 280.9225,378.4621 270.213,378.5145 259.5033,378.5714 248.7932,378.6328 238.0829,378.6987 227.3722,378.7691 216.6611,378.8441 205.9496,378.9235 195.2378,379.0075 184.5255,379.096 173.8127,379.189 163.0995,379.2865 152.3857,379.3885 141.6715,379.4951 130.9567,379.6062 120.2413,379.7218 109.5253,379.8419 98.8087,379.9665 88.0915,380.0957 77.3736,380.2294 71.8001,380.3007" stroke="silver" stroke-opacity="0.5" stroke-width="1" /><polyline fill="none" points="729.3021,292.9428 721.1288,292.8433 710.375,292.7161 699.6219,292.5933 688.8694,292.4749 678.1176,292.3607 667.3663,292.2509 656.6156,292.1455 645.8655,292.0443 635.1158,291.9475 624.3667,291.8551 613.6181,291.7669 602.8699,291.6831 592.1222,291.6036 581.3748,291.5285 570.6279,291.4577 559.8813,291.3912 549.1351,291.329 538.3892,291.2711 527.6435,291.2176 516.8982,291.1684 506.1531,291.1236 495.4082,291.083 484.6635,291.0468 473.919,291.0149 463.1747,290.9873 452.4305,290.9641 441.6864,290.9451 430.9424,290.9305 420.1985,290.9202 409.4546,290.9143 398.7107,290.9126 387.9669,290.9153 377.223,290.9223 366.479,290.9336 355.735,290.9493 344.9909,290.9692 334.2467,290.9935 323.5023,291.0222 312.7578,291.0551 302.0131,291.0923 291.2681,291.1339 280.523,291.1798 269.7775,291.2301 259.0319,291.2846 248.2859,291.3435 237.5395,291.4067 226.7929,291.4743 216.0458,291.5461 205.2984,291.6223 194.5506,291.7028 183.8023,291.7877 173.0535,291.8768 162.3043,291.9704 151.5546,292.0682 140.8043,292.1704 130.0535,292.2769 119.302,292.3877 108.55,292.5029 97.7974,292.6224 87.0441,292.7463 76.2902,292.8744 70.6979,292.9428" stroke="silver" stroke-opacity="0.5" stroke-width="1" /><polyline fill="none" points="730.3545,205.5674 722.155,205.4722 711.3668,205.3505 700.5793,205.233 689.7924,205.1197 679.0061,205.0105 668.2204,204.9055 657.4354,204.8046 646.6508,204.7079 635.8668,204.6153 625.0834,204.5268 614.3004,204.4425 603.5178,204.3623 592.7357,204.2863 581.9541,204.2144 571.1728,204.1466 560.3918,204.083 549.6113,204.0235 538.831,203.9682 528.0511,203.917 517.2714,203.87 506.492,203.827 495.7128,203.7882 484.9338,203.7536 474.155,203.7231 463.3764,203.6967 452.5979,203.6745 441.8195,203.6563 431.0412,203.6424 420.263,203.6325 409.4848,203.6268 398.7066,203.6253 387.9285,203.6278 377.1503,203.6345 366.372,203.6453 355.5937,203.6603 344.8153,203.6794 334.0368,203.7027 323.2581,203.73 312.4792,203.7615 301.7002,203.7972 290.921,203.837 280.1415,203.8809 269.3618,203.9289 258.5817,203.9811 247.8014,204.0374 237.0208,204.0979 226.2398,204.1625 215.4584,204.2313 204.6766,204.3041 193.8944,204.3812 183.1118,204.4623 172.3286,204.5476 161.545,204.6371 150.7609,204.7307 139.9763,204.8284 129.191,204.9303 118.4052,205.0363 107.6188,205.1465 96.8318,205.2609 86.0441,205.3793 75.2557,205.502 69.6455,205.5674" stroke="silver" stroke-opacity="0.5" stroke-width="1" /><polyline fill="none" points="731.3573,118.1611 723.1328,118.0702 712.3118,117.9542 701.4914,117.8421 690.6718,117.7339 679.8527,117.6298 669.0343,117.5295 658.2164,117.4333 647.3991,117.341 636.5824,117.2526 625.7662,117.1682 614.9504,117.0877 604.1351,117.0112 593.3203,116.9387 582.5059,116.8701 571.6919,116.8054 560.8783,116.7447 550.065,116.688 539.252,116.6352 528.4394,116.5863 517.627,116.5414 506.8149,116.5005 496.003,116.4635 485.1914,116.4304 474.3799,116.4013 463.5686,116.3761 452.7574,116.3549 441.9463,116.3376 431.1353,116.3243 420.3244,116.3149 409.5135,116.3095 398.7027,116.308 387.8919,116.3104 377.081,116.3168 366.2701,116.3271 355.4591,116.3414 344.648,116.3596 333.8367,116.3818 323.0254,116.4079 312.2139,116.438 301.4021,116.472 290.5902,116.51 279.778,116.5519 268.9656,116.5977 258.1529,116.6475 247.3398,116.7013 236.5265,116.759 225.7128,116.8206 214.8987,116.8862 204.0842,116.9557 193.2692,117.0292 182.4538,117.1067 171.638,117.1881 160.8216,117.2734 150.0048,117.3627 139.1873,117.456 128.3694,117.5532 117.5508,117.6544 106.7316,117.7595 95.9117,117.8686 85.0912,117.9817 74.27,118.0987 68.6427,118.1611" stroke="silver" stroke-opacity="0.5" stroke-width="1" /><circle cx="723.2532" cy="82.8328" fill="black" r="0.738" stroke="none" /><circle cx="714.7353" cy="434.9053" fill="black" r="0.738" stroke="none" /><circle cx="712.221" cy="318.5978" fill="black" r="0.738" stroke="none" /><circle cx="712.8009" cy="192.7819" fill="black" r="0.936" stroke="none" /><circle cx="704.9643" cy="705.6791" fill="black" r="0.738" stroke="none" /><circle cx="705.9731" cy="102.9382" fill="black" r="0.738" stroke="none" /><circle cx="695.3052" cy="573.0437" fill="black" r="0.738" stroke="none" /><circle cx="696.8114" cy="160.974" fill="black" r="0.738" stroke="none" /><circle cx="688.6974" cy="292.473" fill="black" r="0.738" stroke="none" /><circle cx="683.4152" cy="271.2768" fill="black" r="0.738" stroke="none" /><circle cx="667.8589" cy="480.9031" fill="black" r="0.738" stroke="none" /><circle cx="663.1713" cy="480.1528" fill="black" r="0.738" stroke="none" /><circle cx="651.7382" cy="175.923" fill="black" r="0.738" stroke="none" /><circle cx="640.5554" cy="579.1311" fill="black" r="0.738" stroke="none" /><circle cx="640.0939" cy="111.0761" fill="black" r="0.738" stroke="none" /><circle cx="634.8787" cy="466.0633" fill="black" r="0.738" stroke="none" /><circle cx="632.3779" cy="702.2384" fill="black" r="0.738" stroke="none" /><circle cx="632.7617" cy="107.8718" fill="black" r="0.738" stroke="none" /><circle cx="627.6607" cy="515.5067" fill="black" r="0.738" stroke="none" /><circle cx="626.8342" cy="264.3677" fill="black" r="0.738" stroke="none" /><circle cx="607.6095" cy="407.9292" fill="black" r="0.738" stroke="none" /><circle cx="608.0329" cy="188.6737" fill="black" r="1.17" stroke="none" /><circle cx="600.5293" cy="672.6471" fill="black" r="0.738" stroke="none" /><circle cx="583.426" cy="190.0759" fill="black" r="0.936" stroke="none" /><circle cx="582.7675" cy="130.5005" fill="black" r="0.738" stroke="none" /><circle cx="577.451" cy="572.8792" fill="black" r="0.738" stroke="none" /><circle cx="577.9175" cy="332.4503" fill="black" r="0.738" stroke="none" /><circle cx="575.0477" cy="609.0145" fill="black" r="0.738" stroke="none" /><circle cx="573.3089" cy="547.0889" fill="black" r="0.738" stroke="none" /><circle cx="569.3641" cy="340.8612" fill="black" r="0.738" stroke="none" /><circle cx="560.5639" cy="389.4269" fill="black" r="0.738" stroke="none" /><circle cx="555.2794" cy="668.7847" fill="black" r="0.738" stroke="none" /><circle cx="553.3511" cy="245.1692" fill="black" r="0.738" stroke="none" /><circle cx="550.4302" cy="491.6685" fill="black" r="0.738" stroke="none" /><circle cx="549.1165" cy="325.1119" fill="black" r="0.738" stroke="none" /><circle cx="529.7693" cy="313.5742" fill="black" r="1.17" stroke="none" /><circle cx="520.9679" cy="340.8526" fill="black" r="0.738" stroke="none" /><circle cx="515.3814" cy="675.7003" fill="black" r="0.738" stroke="none" /><circle cx="511.8585" cy="86.2066" fill="black" r="1.476" stroke="none" /><circle cx="501.9492" cy="172.1147" fill="black" r="0.738" stroke="none" /><circle cx="497.9997" cy="287.6009" fill="black" r="0.738" stroke="none" /><circle cx="492.3442" cy="721.4508" fill="black" r="0.738" stroke="none" /><circle cx="490.7596" cy="133.915" fill="black" r="0.738" stroke="none" /><circle cx="484.0575" cy="568.9429" fill="black" r="0.738" stroke="none" /><circle cx="482.4914" cy="298.5463" fill="black" r="0.738" stroke="none" /><circle cx="479.7395" cy="514.1966" fill="black" r="0.738" stroke="none" /><circle cx="477.763" cy="715.2774" fill="black" r="0.738" stroke="none" /><circle cx="463.8417" cy="594.6312" fill="black" r="0.738" stroke="none" /><circle cx="446.5639" cy="695.8825" fill="black" r="0.738" stroke="none" /><circle cx="442.0518" cy="331.3541" fill="black" r="0.738" stroke="none" /><circle cx="435.2028" cy="442.5242" fill="black" r="0.738" stroke="none" /><circle cx="427.6917" cy="581.4637" fill="black" r="0.738" stroke="none" /><circle cx="419.9714" cy="126.7948" fill="black" r="0.738" stroke="none" /><circle cx="411.6643" cy="691.643" fill="black" r="0.738" stroke="none" /><circle cx="411.6778" cy="500.2754" fill="black" r="0.936" stroke="none" /><circle cx="405.5747" cy="706.4892" fill="black" r="0.738" stroke="none" /><circle cx="404.8911" cy="334.7242" fill="black" r="0.738" stroke="none" /><circle cx="404.397" cy="206.8557" fill="black" r="0.738" stroke="none" /><circle cx="395.4322" cy="216.633" fill="black" r="0.738" stroke="none" /><circle cx="394.0253" cy="80.6714" fill="black" r="1.17" stroke="none" /><circle cx="386.4564" cy="190.7077" fill="black" r="0.738" stroke="none" /><circle cx="377.3187" cy="663.8795" fill="black" r="0.738" stroke="none" /><circle cx="375.1863" cy="125.8378" fill="black" r="0.738" stroke="none" /><circle cx="370.3331" cy="629.7454" fill="black" r="0.738" stroke="none" /><circle cx="365.1843" cy="286.7459" fill="black" r="0.738" stroke="none" /><circle cx="362.0426" cy="314.0677" fill="black" r="0.738" stroke="none" /><circle cx="337.5019" cy="90.6065" fill="black" r="0.738" stroke="none" /><circle cx="327.6496" cy="641.4566" fill="black" r="0.738" stroke="none" /><circle cx="326.5668" cy="514.7871" fill="black" r="0.738" stroke="none" /><circle cx="314.2978" cy="693.5565" fill="black" r="0.738" stroke="none" /><circle cx="311.4868" cy="491.7087" fill="black" r="0.738" stroke="none" /><circle cx="308.0976" cy="182.2095" fill="black" r="0.738" stroke="none" /><circle cx="306.8529" cy="223.2486" fill="black" r="0.738" stroke="none" /><circle cx="288.2194" cy="342.3825" fill="black" r="0.738" stroke="none" /><circle cx="286.8572" cy="284.7801" fill="black" r="0.936" stroke="none" /><circle cx="281.4764" cy="577.476" fill="black" r="0.738" stroke="none" /><circle cx="271.3022" cy="339.3186" fill="black" r="0.738" stroke="none" /><circle cx="266.1232" cy="694.6746" fill="black" r="0.738" stroke="none" /><circle cx="261.0156" cy="81.077" fill="black" r="0.738" stroke="none" /><circle cx="255.5181" cy="195.1773" fill="black" r="0.738" stroke="none" /><circle cx="249.765" cy="151.0171" fill="black" r="0.738" stroke="none" /><circle cx="246.8215" cy="133.4759" fill="black" r="0.738" stroke="none" /><circle cx="242.6056" cy="389.4943" fill="black" r="0.738" stroke="none" /><circle cx="240.8007" cy="593.7896" fill="black" r="0.738" stroke="none" /><circle cx="239.8537" cy="467.1139" fill="black" r="0.738" stroke="none" /><circle cx="237.2005" cy="466.1714" fill="black" r="0.738" stroke="none" /><circle cx="234.9669" cy="489.1457" fill="black" r="0.738" stroke="none" /><circle cx="224.9654" cy="77.6811" fill="black" r="0.738" stroke="none" /><circle cx="224.7066" cy="462.4172" fill="black" r="0.738" stroke="none" /><circle cx="222.6787" cy="726.2697" fill="black" r="0.738" stroke="none" /><circle cx="218.0358" cy="293.3659" fill="black" r="0.738" stroke="none" /><circle cx="218.5824" cy="383.8936" fill="black" r="0.738" stroke="none" /><circle cx="218.8587" cy="611.1586" fill="black" r="0.738" stroke="none" /><circle cx="215.5415" cy="557.6529" fill="black" r="1.17" stroke="none" /><circle cx="210.7477" cy="645.4651" fill="black" r="0.738" stroke="none" /><circle cx="190.7929" cy="121.6775" fill="black" r="0.738" stroke="none" /><circle cx="193.5989" cy="605.3491" fill="black" r="0.936" stroke="none" /><circle cx="190.163" cy="428.0287" fill="black" r="0.738" stroke="none" /><circle cx="183.7423" cy="284.3659" fill="black" r="0.738" stroke="none" /><circle cx="172.6474" cy="598.8241" fill="black" r="0.738" stroke="none" /><circle cx="166.8189" cy="610.1521" fill="black" r="0.936" stroke="none" /><circle cx="154.8467" cy="521.9697" fill="black" r="0.738" stroke="none" /><circle cx="148.4069" cy="230.6959" fill="black" r="0.738" stroke="none" /><circle cx="148.428" cy="605.37" fill="black" r="0.738" stroke="none" /><circle cx="130.2142" cy="514.3774" fill="black" r="0.936" stroke="none" /><circle cx="122.8668" cy="360.9151" fill="black" r="0.936" stroke="none" /><circle cx="117.8501" cy="103.5781" fill="black" r="0.738" stroke="none" /><circle cx="114.7385" cy="140.0572" fill="black" r="0.936" stroke="none" /><circle cx="115.7033" cy="548.2676" fill="black" r="0.738" stroke="none" /><circle cx="102.7807" cy="137.9912" fill="black" r="1.17" stroke="none" /><circle cx="103.3627" cy="202.5697" fill="black" r="1.17" stroke="none" /><circle cx="96.054" cy="435.5563" fill="black" r="0.738" stroke="none" /><circle cx="90.4083" cy="547.9787" fill="black" r="0.738" stroke="none" /><circle cx="83.2423" cy="178.6672" fill="black" r="0.738" stroke="none" /><circle cx="82.0408" cy="269.8262" fill="black" r="0.738" stroke="none" /><circle cx="81.6954" cy="269.7429" fill="black" r="0.936" stroke="none" /><circle cx="77.7532" cy="143.5889" fill="black" r="0.738" stroke="none" /><circle cx="72.7591" cy="220.8253" fill="black" r="0.738" stroke="none" /><circle cx="13.77" cy="786.23" fill="black" r="4.59" stroke="none" /><circle cx="13.77" cy="786.23" fill="black" r="4.59" stroke="none" /><text fill="black" font-family="monospace" font-size="12" x="10.77" y="775.64">1</text><circle cx="37.77" cy="786.23" fill="black" r="3.654" stroke="none" /><circle cx="37.77" cy="786.23" fill="black" r="3.654" stroke="none" /><text fill="black" font-family="monospace" font-size="12" x="34.769999999999996" y="775.64">2</text><circle cx="61.77" cy="786.23" fill="black" r="2.916" stroke="none" /><circle cx="61.77" cy="786.23" fill="black" r="2.916" stroke="none" /><text fill="black" font-family="monospace" font-size="12" x="58.769999999999996" y="775.64">3</text><circle cx="85.77" cy="786.23" fill="black" r="2.322" stroke="none" /><circle cx="85.77" cy="786.23" fill="black" r="2.322" stroke="none" /><text fill="black" font-family="monospace" font-size="12" x="82.77" y="775.64">4</text><circle cx="109.77" cy="786.23" fill="black" r="1.854" stroke="none" /><circle cx="109.77" cy="786.23" fill="black" r="1.854" stroke="none" /><text fill="black" font-family="monospace" font-size="12" x="106.77" y="775.64">5</text><circle cx="133.77" cy="786.23" fill="black" r="1.476" stroke="none" /><circle cx="133.77" cy="786.23" fill="black" r="1.476" stroke="none" /><text fill="black" font-family="monospace" font-size="12" x="130.77" y="775.64">6</text><circle cx="157.77" cy="786.23" fill="black" r="1.17" stroke="none" /><circle cx="157.77" cy="786.23" fill="black" r="1.17" stroke="none" /><text fill="black" font-family="monospace" font-size="12" x="154.77" y="775.64">7</text><circle cx="181.77" cy="786.23" fill="black" r="0.936" stroke="none" /><circle cx="181.77" cy="786.23" fill="black" r="0.936" stroke="none" /><text fill="black" font-family="monospace" font-size="12" x="178.77" y="775.64">8</text><circle cx="205.77" cy="786.23" fill="black" r="0.738" stroke="none" /><circle cx="205.77" cy="786.23" fill="black" r="0.738" stroke="none" /><text fill="black" font-family="monospace" font-size="12" x="202.77" y="775.64">9</text><text fill="gray" fill-opacity="0.5" font-family="monospace" font-size="12" x="626.0948892929541" y="73.47334684710842">04h10m</text><text fill="gray" fill-opacity="0.5" font-family="monospace" font-size="12" x="517.7982370350954" y="72.86176582591713">04h15m</text><text fill="gray" fill-opacity="0.5" font-family="monospace" font-size="12" x="409.5273895771392" y="72.63538645174918">04h20m</text><text fill="gray" fill-opacity="0.5" font-family="monospace" font-size="12" x="301.2586289310387" y="72.7940017603832">04h25m</text><text fill="gray" fill-opacity="0.5" font-family="monospace" font-size="12" x="192.96823884901124" y="73.33775675942655">04h30m</text><text fill="gray" fill-opacity="0.5" font-family="monospace" font-size="12" x="84.63248504369909" y="74.26714870587716">04h35m</text><text fill="gray" fill-opacity="0.5" font-family="monospace" font-size="12" x="76.71035069797597" y="729.8219665440616">-15°</text><text fill="gray" fill-opacity="0.5" font-family="monospace" font-size="12" x="75.40714312416964" y="642.4016498613714">-14°</text><text fill="gray" fill-opacity="0.5" font-family="monospace" font-size="12" x="74.154517556788" y="555.0168519113298">-13°</text><text fill="gray" fill-opacity="0.5" font-family="monospace" font-size="12" x="72.95223276131571" y="467.65429096855854">-12°</text><text fill="gray" fill-opacity="0.5" font-family="monospace" font-size="12" x="71.8000781586145" y="380.30069879479095">-11°</text><text fill="gray" fill-opacity="0.5" font-family="monospace" font-size="12" x="70.69787367159552" y="292.9428125892501">-10°</text><text fill="gray" fill-opacity="0.5" font-family="monospace" font-size="12" x="69.64546961131572" y="205.56736694601938">-9°</text><text fill="gray" fill-opacity="0.5" font-family="monospace" font-size="12" x="68.64274660234514" y="118.16108580806116">-8°</text><text fill="black" font-family="monospace" font-size="12" x="12" y="48">&gt;&gt; No.322 04h05m 04h36m -15.0°-7.5°</text><a target="_self" xlink:href="hip015.svg"><text fill="black" font-family="monospace" font-size="12" x="12" y="36">&gt; No.15 02h40m 05h20m -22.5°+0.0°</text></a><a target="_self" xlink:href="hip001.svg"><text fill="black" font-family="monospace" font-size="12" x="12" y="24">No.1 00h 24h -90.0°+0.0°</text></a><polyline fill="none" points="731.84,74.4422 723.6036,74.3536 712.7667,74.2403 701.9306,74.1309 691.0951,74.0254 680.2603,73.9237 669.4261,73.8259 658.5925,73.732 647.7594,73.6419 636.9269,73.5557 626.0949,73.4733 615.2634,73.3948 604.4324,73.3202 593.6018,73.2494 582.7716,73.1825 571.9419,73.1194 561.1125,73.0602 550.2834,73.0048 539.4547,72.9533 528.6263,72.9056 517.7982,72.8618 506.9704,72.8218 496.1428,72.7857 485.3154,72.7534 474.4881,72.725 463.6611,72.7004 452.8342,72.6797 442.0073,72.6629 431.1806,72.6499 420.354,72.6407 409.5274,72.6354 398.7008,72.6339 387.8742,72.6363 377.0476,72.6425 366.221,72.6526 355.3942,72.6666 344.5674,72.6844 333.7404,72.706 322.9134,72.7315 312.0861,72.7608 301.2586,72.794 290.431,72.831 279.603,72.8719 268.7749,72.9167 257.9464,72.9653 247.1176,73.0177 236.2885,73.074 225.459,73.1342 214.6292,73.1982 203.7989,73.266 192.9682,73.3378 182.1371,73.4133 171.3055,73.4928 160.4734,73.5761 149.6407,73.6632 138.8075,73.7542 127.9738,73.8491 117.1394,73.9478 106.3044,74.0504 95.4688,74.1568 84.6325,74.2671 73.7955,74.3813 68.16,74.4422" stroke="black" stroke-opacity="0.5" stroke-width="1" /><polyline fill="none" points="723.2896,729.822 723.4553,718.892 723.6202,707.9628 723.7843,697.0343 723.9476,686.1065 724.1101,675.1794 724.2718,664.2529 724.4327,653.327 724.5929,642.4016 724.7522,631.4769 724.9107,620.5526 725.0685,609.6289 725.2255,598.7056 725.3817,587.7828 725.5371,576.8604 725.6917,565.9385 725.8455,555.0169 725.9985,544.0956 726.1508,533.1746 726.3022,522.254 726.4529,511.3336 726.6028,500.4135 726.7519,489.4936 726.9002,478.5738 727.0478,467.6543 727.1945,456.7349 727.3405,445.8156 727.4857,434.8964 727.6301,423.9772 727.7737,413.0581 727.9166,402.139 728.0586,391.2199 728.1999,380.3007 728.3404,369.3815 728.4801,358.4621 728.6191,347.5427 728.7573,336.6231 728.8946,325.7034 729.0312,314.7834 729.1671,303.8632 729.3021,292.9428 729.4364,282.0221 729.5699,271.1011 729.7026,260.1798 729.8345,249.2581 729.9657,238.3361 730.0961,227.4136 730.2257,216.4907 730.3545,205.5674 730.4826,194.6435 730.6099,183.7192 730.7364,172.7943 730.8621,161.8689 730.987,150.9429 731.1112,140.0163 731.2346,129.089 731.3573,118.1611 731.4791,107.2325 731.6002,96.3031 731.7205,85.3731 731.84,74.4422" stroke="black" stroke-opacity="0.5" stroke-width="1" /><polyline fill="none" points="723.2896,729.822 715.2659,729.7016 704.7088,729.5478 694.1523,729.3992 683.5965,729.2559 673.0412,729.1178 662.4864,728.985 651.9322,728.8574 641.3785,728.7351 630.8253,728.618 620.2725,728.5062 609.7202,728.3995 599.1683,728.2982 588.6168,728.202 578.0657,728.1111 567.5149,728.0254 556.9645,727.945 546.4144,727.8698 535.8646,727.7998 525.3151,727.7351 514.7658,727.6756 504.2167,727.6213 493.6679,727.5723 483.1192,727.5284 472.5708,727.4898 462.0224,727.4565 451.4742,727.4284 440.9261,727.4055 430.3781,727.3878 419.8301,727.3753 409.2822,727.3681 398.7343,727.3661 388.1863,727.3694 377.6384,727.3779 367.0904,727.3916 356.5424,727.4105 345.9942,727.4346 335.446,727.464 324.8976,727.4986 314.3491,727.5385 303.8004,727.5835 293.2515,727.6338 282.7024,727.6894 272.1531,727.7501 261.6035,727.8161 251.0536,727.8874 240.5034,727.9638 229.9529,728.0455 219.4021,728.1325 208.8509,728.2246 198.2993,728.322 187.7473,728.4247 177.1949,728.5325 166.642,728.6456 156.0887,728.764 145.5348,728.8876 134.9805,729.0164 124.4256,729.1505 113.8702,729.2898 103.3142,729.4344 92.7576,729.5842 82.2004,729.7393 76.7104,729.822" stroke="black" stroke-opacity="0.5" stroke-width="1" /><polyline fill="none" points="76.7104,729.822 76.5447,718.892 76.3798,707.9628 76.2157,697.0343 76.0524,686.1065 75.8899,675.1794 75.7282,664.2529 75.5673,653.327 75.4071,642.4016 75.2478,631.4769 75.0893,620.5526 74.9315,609.6289 74.7745,598.7056 74.6183,587.7828 74.4629,576.8604 74.3083,565.9385 74.1545,555.0169 74.0015,544.0956 73.8492,533.1746 73.6978,522.254 73.5471,511.3336 73.3972,500.4135 73.2481,489.4936 73.0998,478.5738 72.9522,467.6543 72.8055,456.7349 72.6595,445.8156 72.5143,434.8964 72.3699,423.9772 72.2263,413.0581 72.0834,402.139 71.9414,391.2199 71.8001,380.3007 71.6596,369.3815 71.5199,358.4621 71.3809,347.5427 71.2427,336.6231 71.1054,325.7034 70.9688,314.7834 70.8329,303.8632 70.6979,292.9428 70.5636,282.0221 70.4301,271.1011 70.2974,260.1798 70.1655,249.2581 70.0343,238.3361 69.9039,227.4136 69.7743,216.4907 69.6455,205.5674 69.5174,194.6435 69.3901,183.7192 69.2636,172.7943 69.1379,161.8689 69.013,150.9429 68.8888,140.0163 68.7654,129.089 68.6427,118.1611 68.5209,107.2325 68.3998,96.3031 68.2795,85.3731 68.16,74.4422" stroke="black" stroke-opacity="0.5" stroke-width="1" /></svg>