<?xml version="1.0" encoding="utf-8" ?>
<svg baseProfile="tiny" height="800" version="1.2" width="800" xmlns="http://www.w3.org/2000/svg" xmlns:ev="http://www.w3.org/2001/xml-events" xmlns:xlink="http://www.w3.org/1999/xlink"><defs /><rect fill="none" height="800" stroke="black" stroke-width="2" width="800" x="0" y="0" /><polyline fill="none" points="641.6931,726.4068 641.6061,715.4813 641.5185,704.5565 641.4304,693.6324 641.3417,682.709 641.2524,671.7863 641.1626,660.8643 641.0722,649.9429 640.9812,639.0221 640.8897,628.1019 640.7976,617.1823 640.705,606.2631 640.6117,595.3445 640.518,584.4264 640.4236,573.5087 640.3287,562.5914 640.2332,551.6745 640.1372,540.758 640.0405,529.8418 639.9434,518.926 639.8456,508.0104 639.7473,497.0951 639.6484,486.1801 639.549,475.2653 639.449,464.3506 639.3484,453.4361 639.2472,442.5218 639.1455,431.6076 639.0432,420.6934 638.9404,409.7794 638.837,398.8653 638.733,387.9513 638.6284,377.0372 638.5233,366.1231 638.4176,355.209 638.3113,344.2947 638.2045,333.3803 638.0971,322.4658 637.9891,311.5511 637.8806,300.6362 637.7714,289.721 637.6617,278.8056 637.5515,267.89 637.4407,256.974 637.3292,246.0577 637.2173,235.1411 637.1047,224.224 636.9916,213.3066 636.8779,202.3887 636.7636,191.4704 636.6488,180.5516 636.5334,169.6323 636.4174,158.7124 636.3008,147.792 636.1836,136.871 636.0659,125.9494 635.9476,115.0271 635.8287,104.1042 635.7093,93.1805 635.5892,82.2562 635.4686,71.3311" stroke="silver" stroke-opacity="0.5" stroke-width="1" /><polyline fill="none" points="533.3908,727.0739 533.3428,716.1525 533.2945,705.2318 533.2459,694.3119 533.1969,683.3926 533.1477,672.4741 533.0981,661.5562 533.0482,650.6389 532.9981,639.7222 532.9476,628.8061 532.8968,617.8905 532.8457,606.9755 532.7942,596.061 532.7425,585.1469 532.6904,574.2333 532.6381,563.3201 532.5854,552.4072 532.5324,541.4948 532.4791,530.5827 532.4255,519.6709 532.3716,508.7594 532.3173,497.8481 532.2628,486.9371 532.2079,476.0263 532.1527,465.1157 532.0973,454.2052 532.0414,443.2949 531.9853,432.3847 531.9289,421.4745 531.8722,410.5644 531.8151,399.6544 531.7577,388.7443 531.7001,377.8342 531.6421,366.9241 531.5837,356.0139 531.5251,345.1036 531.4662,334.1932 531.4069,323.2826 531.3474,312.3718 531.2875,301.4609 531.2273,290.5496 531.1668,279.6382 531.1059,268.7264 531.0448,257.8144 530.9833,246.902 530.9215,235.9893 530.8595,225.0761 530.797,214.1626 530.7343,203.2486 530.6713,192.3341 530.6079,181.4192 530.5442,170.5037 530.4802,159.5877 530.4159,148.6712 530.3513,137.754 530.2864,126.8362 530.2211,115.9178 530.1555,104.9987 530.0896,94.0789 530.0234,83.1584 529.9568,72.2371" stroke="silver" stroke-opacity="0.5" stroke-width="1" /><polyline fill="none" points="425.1177,727.3557 425.1087,716.4361 425.0996,705.5171 425.0904,694.5989 425.0812,683.6815 425.0719,672.7646 425.0626,661.8485 425.0532,650.9329 425.0438,640.018 425.0343,629.1036 425.0247,618.1898 425.0151,607.2765 425.0054,596.3637 424.9956,585.4513 424.9858,574.5394 424.976,563.6279 424.9661,552.7168 424.9561,541.8061 424.9461,530.8957 424.936,519.9856 424.9258,509.0758 424.9156,498.1662 424.9053,487.2569 424.895,476.3478 424.8846,465.4389 424.8742,454.5301 424.8637,443.6215 424.8531,432.713 424.8425,421.8045 424.8318,410.8961 424.821,399.9877 424.8102,389.0794 424.7994,378.171 424.7885,367.2625 424.7775,356.354 424.7665,345.4454 424.7554,334.5366 424.7442,323.6277 424.733,312.7186 424.7217,301.8093 424.7104,290.8997 424.699,279.9899 424.6875,269.0798 424.676,258.1694 424.6644,247.2587 424.6528,236.3476 424.6411,225.4361 424.6294,214.5242 424.6176,203.6119 424.6057,192.6991 424.5938,181.7857 424.5818,170.8719 424.5697,159.9576 424.5576,149.0426 424.5455,138.1271 424.5332,127.2109 424.5209,116.2941 424.5086,105.3766 424.4962,94.4584 424.4837,83.5395 424.4712,72.6198" stroke="silver" stroke-opacity="0.5" stroke-width="1" /><polyline fill="none" points="316.8501,727.2526 316.88,716.3323 316.9101,705.4127 316.9404,694.4939 316.9709,683.5757 317.0016,672.6583 317.0325,661.7415 317.0636,650.8253 317.0949,639.9097 317.1264,628.9947 317.158,618.0802 317.1899,607.1663 317.2219,596.2528 317.2542,585.3399 317.2866,574.4273 317.3193,563.5152 317.3521,552.6035 317.3851,541.6921 317.4184,530.7811 317.4518,519.8704 317.4854,508.9599 317.5192,498.0498 317.5532,487.1398 317.5874,476.2301 317.6218,465.3206 317.6564,454.4112 317.6911,443.5019 317.7261,432.5928 317.7613,421.6837 317.7967,410.7747 317.8322,399.8657 317.868,388.9567 317.9039,378.0477 317.9401,367.1386 317.9764,356.2295 318.013,345.3202 318.0497,334.4109 318.0866,323.5013 318.1238,312.5916 318.1611,301.6817 318.1986,290.7716 318.2363,279.8612 318.2742,268.9505 318.3124,258.0395 318.3507,247.1281 318.3892,236.2164 318.4279,225.3043 318.4668,214.3918 318.5059,203.4789 318.5452,192.5655 318.5847,181.6516 318.6243,170.7371 318.6642,159.8222 318.7043,148.9066 318.7446,137.9905 318.7851,127.0737 318.8258,116.1563 318.8666,105.2383 318.9077,94.3195 318.949,83.4 318.9905,72.4797" stroke="silver" stroke-opacity="0.5" stroke-width="1" /><polyline fill="none" points="208.5643,726.7643 208.6332,715.8409 208.7025,704.9184 208.7723,693.9965 208.8426,683.0753 208.9133,672.1549 208.9844,661.2351 209.056,650.3159 209.128,639.3973 209.2005,628.4793 209.2734,617.5618 209.3468,606.6449 209.4206,595.7284 209.4949,584.8125 209.5696,573.8969 209.6448,562.9819 209.7204,552.0671 209.7965,541.1528 209.873,530.2388 209.9499,519.3251 210.0273,508.4118 210.1052,497.4986 210.1835,486.5857 210.2622,475.6731 210.3414,464.7606 210.4211,453.8483 210.5012,442.9361 210.5817,432.024 210.6627,421.112 210.7442,410.2001 210.8261,399.2881 210.9084,388.3762 210.9912,377.4643 211.0745,366.5523 211.1582,355.6403 211.2423,344.7282 211.3269,333.8159 211.412,322.9035 211.4975,311.9909 211.5834,301.0781 211.6699,290.1651 211.7567,279.2518 211.844,268.3382 211.9318,257.4243 212.02,246.5101 212.1087,235.5956 212.1978,224.6806 212.2874,213.7653 212.3775,202.8495 212.4679,191.9333 212.5589,181.0165 212.6503,170.0993 212.7422,159.1815 212.8345,148.2631 212.9272,137.3442 213.0205,126.4246 213.1141,115.5044 213.2083,104.5835 213.3029,93.6619 213.3979,82.7396 213.4934,71.8166" stroke="silver" stroke-opacity="0.5" stroke-width="1" /><polyline fill="none" points="100.2365,725.8905 100.3445,714.9617 100.4531,704.0337 100.5625,693.1064 100.6725,682.1799 100.7833,671.254 100.8947,660.3288 101.0069,649.4042 101.1197,638.4803 101.2333,627.5569 101.3476,616.634 101.4625,605.7117 101.5782,594.79 101.6945,583.8686 101.8116,572.9478 101.9293,562.0274 102.0478,551.1073 102.167,540.1877 102.2868,529.2684 102.4074,518.3494 102.5286,507.4307 102.6506,496.5123 102.7733,485.5941 102.8967,474.6762 103.0208,463.7584 103.1455,452.8409 103.271,441.9234 103.3972,431.0061 103.5241,420.0889 103.6517,409.1717 103.78,398.2546 103.909,387.3374 104.0388,376.4203 104.1692,365.5031 104.3003,354.5859 104.4322,343.6686 104.5647,332.7511 104.6979,321.8335 104.8319,310.9158 104.9666,299.9978 105.102,289.0796 105.238,278.1612 105.3748,267.2425 105.5123,256.3235 105.6506,245.4042 105.7895,234.4846 105.9291,223.5645 106.0695,212.6441 106.2105,201.7232 106.3523,190.8019 106.4948,179.8801 106.638,168.9577 106.7819,158.0349 106.9265,147.1115 107.0718,136.1875 107.2179,125.2629 107.3647,114.3377 107.5121,103.4118 107.6603,92.4852 107.8093,81.5579 107.9589,70.6299" stroke="silver" stroke-opacity="0.5" stroke-width="1" /><polyline fill="none" points="731.3573,681.8389 727.8943,681.8774 717.0729,681.9952 706.2523,682.1091 695.4323,682.219 684.613,682.3249 673.7943,682.4269 662.9762,682.5249 652.1587,682.6189 641.3417,682.709 630.5252,682.7952 619.7093,682.8774 608.8938,682.9556 598.0788,683.0299 587.2642,683.1002 576.45,683.1666 565.6362,683.229 554.8228,683.2875 544.0097,683.3421 533.1969,683.3926 522.3844,683.4393 511.5722,683.482 500.7602,683.5207 489.9485,683.5555 479.1369,683.5864 468.3255,683.6133 457.5143,683.6362 446.7032,683.6553 435.8921,683.6703 425.0812,683.6815 414.2703,683.6886 403.4595,683.6919 392.6486,683.6912 381.8378,683.6865 371.0269,683.6779 360.2159,683.6654 349.4049,683.6489 338.5937,683.6284 327.7824,683.6041 316.9709,683.5757 306.1593,683.5434 295.3475,683.5072 284.5354,683.4671 273.7231,683.4229 262.9105,683.3749 252.0976,683.3229 241.2844,683.2669 230.4708,683.207 219.6569,683.1432 208.8426,683.0753 198.0279,683.0036 187.2127,682.9279 176.397,682.8482 165.5809,682.7646 154.7643,682.677 143.9471,682.5855 133.1293,682.49 122.311,682.3906 111.4921,682.2872 100.6725,682.1799 89.8523,682.0686 79.0315,681.9533 68.6427,681.8389" stroke="silver" stroke-opacity="0.5" stroke-width="1" /><polyline fill="none" points="730.3545,594.4326 726.9021,594.473 716.1135,594.5965 705.3257,594.7158 694.5385,594.8309 683.752,594.9419 672.9661,595.0488 662.1807,595.1515 651.396,595.2501 640.6117,595.3445 629.828,595.4348 619.0448,595.5209 608.2621,595.6029 597.4798,595.6808 586.6979,595.7545 575.9165,595.8241 565.1354,595.8895 554.3547,595.9508 543.5743,596.0079 532.7942,596.061 522.0144,596.1098 511.2349,596.1546 500.4556,596.1952 489.6766,596.2317 478.8977,596.264 468.119,596.2922 457.3404,596.3163 446.562,596.3362 435.7836,596.352 425.0054,596.3637 414.2272,596.3712 403.449,596.3746 392.6708,596.3738 381.8927,596.3689 371.1144,596.3599 360.3362,596.3468 349.5578,596.3295 338.7793,596.3081 328.0007,596.2825 317.2219,596.2528 306.443,596.219 295.6639,596.1811 284.8845,596.139 274.1049,596.0927 263.325,596.0424 252.5448,595.9879 241.7643,595.9292 230.9834,595.8664 220.2022,595.7995 209.4206,595.7284 198.6386,595.6532 187.8562,595.5739 177.0733,595.4904 166.2899,595.4028 155.506,595.311 144.7216,595.2151 133.9366,595.115 123.1511,595.0108 112.3649,594.9025 101.5782,594.79 90.7908,594.6733 80.0027,594.5525 69.6455,594.4326" stroke="silver" stroke-opacity="0.5" stroke-width="1" /><polyline fill="none" points="729.3021,507.0572 725.8607,507.0994 715.1066,507.2285 704.3532,507.3532 693.6004,507.4736 682.8483,507.5896 672.0968,507.7013 661.3458,507.8087 650.5955,507.9117 639.8456,508.0104 629.0963,508.1048 618.3474,508.1948 607.5991,508.2806 596.8511,508.3619 586.1036,508.439 575.3565,508.5117 564.6098,508.5801 553.8634,508.6442 543.1173,508.7039 532.3716,508.7594 521.6261,508.8105 510.8809,508.8572 500.1359,508.8997 489.3912,508.9378 478.6466,508.9716 467.9022,509.0011 457.1579,509.0262 446.4138,509.0471 435.6698,509.0636 424.9258,509.0758 414.1819,509.0836 403.438,509.0872 392.6942,509.0864 381.9503,509.0813 371.2064,509.0719 360.4624,509.0581 349.7183,509.0401 338.9741,509.0177 328.2298,508.991 317.4854,508.9599 306.7408,508.9246 295.9959,508.8849 285.2509,508.8409 274.5056,508.7926 263.76,508.7399 253.0141,508.6829 242.268,508.6216 231.5215,508.556 220.7746,508.486 210.0273,508.4118 199.2797,508.3331 188.5316,508.2502 177.783,508.1629 167.034,508.0713 156.2845,507.9754 145.5345,507.8751 134.7839,507.7705 124.0327,507.6616 113.281,507.5483 102.5286,507.4307 91.7757,507.3088 81.022,507.1825 70.6979,507.0572" stroke="silver" stroke-opacity="0.5" stroke-width="1" /><polyline fill="none" points="728.1999,419.6993 724.77,419.7433 714.052,419.8779 703.3346,420.008 692.6179,420.1335 681.9019,420.2546 671.1864,420.3711 660.4714,420.483 649.7571,420.5905 639.0432,420.6934 628.3299,420.7919 617.6171,420.8858 606.9047,420.9752 596.1927,421.06 585.4812,421.1404 574.77,421.2163 564.0592,421.2876 553.3488,421.3544 542.6387,421.4167 531.9289,421.4745 521.2194,421.5278 510.5101,421.5766 499.8011,421.6209 489.0923,421.6606 478.3836,421.6959 467.6751,421.7266 456.9668,421.7529 446.2586,421.7746 435.5505,421.7918 424.8425,421.8045 414.1345,421.8127 403.4265,421.8164 392.7186,421.8156 382.0106,421.8103 371.3026,421.8005 360.5946,421.7861 349.8864,421.7673 339.1782,421.7439 328.4698,421.7161 317.7613,421.6837 307.0526,421.6468 296.3437,421.6055 285.6346,421.5596 274.9252,421.5092 264.2156,421.4542 253.5057,421.3948 242.7955,421.3309 232.0849,421.2624 221.374,421.1895 210.6627,421.112 199.951,421.03 189.2389,420.9435 178.5264,420.8525 167.8134,420.757 157.0998,420.6569 146.3858,420.5523 135.6713,420.4432 124.9561,420.3296 114.2404,420.2115 103.5241,420.0889 92.8072,419.9617 82.0896,419.83 71.8001,419.6993" stroke="silver" stroke-opacity="0.5" stroke-width="1" /><polyline fill="none" points="727.0478,332.3457 723.6299,332.3915 712.9496,332.5316 702.27,332.667 691.5909,332.7976 680.9125,332.9236 670.2347,333.0448 659.5574,333.1613 648.8807,333.2732 638.2045,333.3803 627.5288,333.4827 616.8536,333.5805 606.1788,333.6735 595.5044,333.7618 584.8305,333.8455 574.157,333.9244 563.4838,333.9986 552.8109,334.0682 542.1384,334.133 531.4662,334.1932 520.7942,334.2486 510.1225,334.2994 499.4511,334.3455 488.7798,334.3868 478.1087,334.4235 467.4378,334.4555 456.767,334.4828 446.0964,334.5054 435.4258,334.5234 424.7554,334.5366 414.0849,334.5451 403.4145,334.549 392.7441,334.5481 382.0737,334.5426 371.4033,334.5324 360.7328,334.5175 350.0622,334.4978 339.3915,334.4735 328.7207,334.4446 318.0497,334.4109 307.3786,334.3725 296.7072,334.3294 286.0357,334.2817 275.3639,334.2292 264.6918,334.1721 254.0195,334.1102 243.3469,334.0437 232.6739,333.9724 222.0006,333.8965 211.3269,333.8159 200.6528,333.7306 189.9783,333.6405 179.3034,333.5458 168.628,333.4464 157.9521,333.3423 147.2758,333.2335 136.5988,333.1199 125.9214,333.0017 115.2433,332.8788 104.5647,332.7511 93.8854,332.6188 83.2056,332.4817 72.9522,332.3457" stroke="silver" stroke-opacity="0.5" stroke-width="1" /><polyline fill="none" points="725.8455,244.9831 722.4402,245.0307 711.7993,245.1762 701.1589,245.3168 690.5192,245.4525 679.8801,245.5833 669.2416,245.7093 658.6036,245.8303 647.9662,245.9465 637.3292,246.0577 626.6928,246.1641 616.0568,246.2656 605.4213,246.3622 594.7862,246.454 584.1515,246.5409 573.5172,246.6228 562.8833,246.6999 552.2496,246.7722 541.6163,246.8395 530.9833,246.902 520.3506,246.9596 509.7181,247.0123 499.0858,247.0602 488.4538,247.1032 477.8219,247.1413 467.1902,247.1745 456.5586,247.2029 445.9271,247.2264 435.2957,247.245 424.6644,247.2587 414.0332,247.2676 403.402,247.2716 392.7708,247.2707 382.1396,247.2649 371.5083,247.2543 360.877,247.2388 350.2456,247.2185 339.6141,247.1932 328.9824,247.1631 318.3507,247.1281 307.7187,247.0883 297.0866,247.0435 286.4542,246.9939 275.8217,246.9394 265.1888,246.8801 254.5557,246.8158 243.9223,246.7467 233.2886,246.6728 222.6545,246.5939 212.02,246.5101 201.3852,246.4215 190.7499,246.328 180.1143,246.2296 169.4781,246.1264 158.8415,246.0182 148.2044,245.9052 137.5668,245.7873 126.9286,245.6645 116.2899,245.5368 105.6506,245.4042 95.0106,245.2668 84.3701,245.1244 74.1545,244.9831" stroke="silver" stroke-opacity="0.5" stroke-width="1" /><polyline fill="none" points="724.5929,157.5984 721.2007,157.6477 710.6007,157.7985 700.0014,157.9443 689.4026,158.085 678.8045,158.2206 668.2069,158.3511 657.6099,158.4766 647.0134,158.5971 636.4174,158.7124 625.8218,158.8227 615.2268,158.928 604.6321,159.0281 594.0379,159.1233 583.4441,159.2133 572.8507,159.2983 562.2576,159.3783 551.6648,159.4531 541.0724,159.523 530.4802,159.5877 519.8883,159.6475 509.2967,159.7021 498.7053,159.7517 488.1141,159.7963 477.523,159.8358 466.9321,159.8703 456.3414,159.8997 445.7507,159.924 435.1602,159.9433 424.5697,159.9576 413.9793,159.9667 403.3889,159.9709 392.7985,159.97 382.2081,159.964 371.6177,159.953 361.0272,159.9369 350.4366,159.9158 339.846,159.8897 329.2552,159.8584 318.6642,159.8222 308.0731,159.7808 297.4818,159.7345 286.8903,159.683 276.2986,159.6265 265.7066,159.565 255.1144,159.4984 244.5218,159.4268 233.9289,159.3501 223.3357,159.2683 212.7422,159.1815 202.1482,159.0896 191.5538,158.9927 180.9591,158.8907 170.3638,158.7836 159.7681,158.6715 149.172,158.5543 138.5753,158.432 127.978,158.3047 117.3802,158.1724 106.7819,158.0349 96.1829,157.8924 85.5833,157.7448 75.4071,157.5984" stroke="silver" stroke-opacity="0.5" stroke-width="1" /><polyline fill="none" points="723.2896,70.178 719.9112,70.2291 709.3538,70.3852 698.7971,70.5361 688.241,70.6817 677.6854,70.8221 667.1304,70.9572 656.576,71.0871 646.0221,71.2117 635.4686,71.3311 624.9157,71.4453 614.3632,71.5542 603.8111,71.6579 593.2594,71.7563 582.7081,71.8495 572.1572,71.9375 561.6067,72.0202 551.0564,72.0978 540.5065,72.17 529.9568,72.2371 519.4074,72.2989 508.8583,72.3555 498.3094,72.4068 487.7606,72.4529 477.2121,72.4938 466.6637,72.5295 456.1154,72.5599 445.5672,72.5851 435.0192,72.6051 424.4712,72.6198 413.9232,72.6293 403.3753,72.6336 392.8274,72.6327 382.2795,72.6265 371.7315,72.6151 361.1835,72.5985 350.6354,72.5766 340.0872,72.5496 329.5389,72.5172 318.9905,72.4797 308.4418,72.4369 297.893,72.3889 287.344,72.3357 276.7948,72.2772 266.2453,72.2135 255.6956,72.1446 245.1455,72.0705 234.5952,71.9911 224.0445,71.9064 213.4934,71.8166 202.942,71.7215 192.3902,71.6211 181.838,71.5156 171.2853,71.4048 160.7322,71.2887 150.1786,71.1674 139.6245,71.0409 129.0698,70.9091 118.5146,70.7721 107.9589,70.6299 97.4026,70.4824 86.8456,70.3296 76.7104,70.178" stroke="silver" stroke-opacity="0.5" stroke-width="1" /><circle cx="728.8884" cy="522.441" fill="black" r="0.738" stroke="none" /><circle cx="716.3269" cy="227.6378" fill="black" r="0.738" stroke="none" /><circle cx="718.7141" cy="415.5392" fill="black" r="0.738" stroke="none" /><circle cx="714.003" cy="99.4375" fill="black" r="0.738" stroke="none" /><circle cx="708.7376" cy="317.2099" fill="black" r="0.738" stroke="none" /><circle cx="708.5634" cy="316.95" fill="black" r="0.738" stroke="none" /><circle cx="710.4318" cy="659.7736" fill="black" r="0.738" stroke="none" /><circle cx="700.1332" cy="469.1383" fill="black" r="0.738" stroke="none" /><circle cx="688.853" cy="546.2251" fill="black" r="0.738" stroke="none" /><circle cx="686.014" cy="546.6044" fill="black" r="0.738" stroke="none" /><circle cx="675.8684" cy="273.498" fill="black" r="1.17" stroke="none" /><circle cx="674.1095" cy="148.8407" fill="black" r="0.738" stroke="none" /><circle cx="677.5862" cy="635.1976" fill="black" r="0.738" stroke="none" /><circle cx="668.5379" cy="565.3884" fill="black" r="0.738" stroke="none" /><circle cx="665.9737" cy="397.5448" fill="black" r="0.738" stroke="none" /><circle cx="660.5352" cy="191.2958" fill="black" r="0.738" stroke="none" /><circle cx="655.9113" cy="180.4276" fill="black" r="0.738" stroke="none" /><circle cx="647.6063" cy="120.9276" fill="black" r="0.738" stroke="none" /><circle cx="645.1116" cy="500.8014" fill="black" r="1.17" stroke="none" /><circle cx="645.0741" cy="715.803" fill="black" r="0.738" stroke="none" /><circle cx="632.4672" cy="296.5852" fill="black" r="0.738" stroke="none" /><circle cx="616.0968" cy="223.2962" fill="black" r="0.738" stroke="none" /><circle cx="617.3496" cy="512.3944" fill="black" r="0.738" stroke="none" /><circle cx="616.9781" cy="699.9374" fill="black" r="0.738" stroke="none" /><circle cx="611.1068" cy="153.5511" fill="black" r="0.738" stroke="none" /><circle cx="609.1656" cy="456.5787" fill="black" r="0.738" stroke="none" /><circle cx="607.7318" cy="641.2026" fill="black" r="0.738" stroke="none" /><circle cx="596.878" cy="324.1469" fill="black" r="0.936" stroke="none" /><circle cx="593.0835" cy="384.4171" fill="black" r="0.738" stroke="none" /><circle cx="593.6235" cy="562.1732" fill="black" r="0.738" stroke="none" /><circle cx="592.2285" cy="406.8602" fill="black" r="0.738" stroke="none" /><circle cx="592.1455" cy="407.21" fill="black" r="0.738" stroke="none" /><circle cx="592.7615" cy="717.2303" fill="black" r="0.738" stroke="none" /><circle cx="582.1418" cy="145.1604" fill="black" r="0.738" stroke="none" /><circle cx="561.8848" cy="470.7967" fill="black" r="0.738" stroke="none" /><circle cx="559.7499" cy="286.2716" fill="black" r="0.936" stroke="none" /><circle cx="557.8466" cy="282.0065" fill="black" r="0.738" stroke="none" /><circle cx="543.9795" cy="607.7942" fill="black" r="0.738" stroke="none" /><circle cx="535.4194" cy="163.5755" fill="black" r="0.738" stroke="none" /><circle cx="537.4473" cy="723.7356" fill="black" r="0.738" stroke="none" /><circle cx="531.4814" cy="86.819" fill="black" r="0.738" stroke="none" /><circle cx="531.2291" cy="86.9953" fill="black" r="0.738" stroke="none" /><circle cx="532.3971" cy="659.4632" fill="black" r="0.738" stroke="none" /><circle cx="525.0692" cy="385.8984" fill="black" r="0.738" stroke="none" /><circle cx="522.6029" cy="715.6737" fill="black" r="0.738" stroke="none" /><circle cx="520.0811" cy="628.339" fill="black" r="0.738" stroke="none" /><circle cx="518.0198" cy="695.2496" fill="black" r="0.738" stroke="none" /><circle cx="512.9567" cy="248.3063" fill="black" r="0.738" stroke="none" /><circle cx="506.0318" cy="355.6139" fill="black" r="0.738" stroke="none" /><circle cx="499.5265" cy="352.8482" fill="black" r="0.738" stroke="none" /><circle cx="492.5713" cy="343.6241" fill="black" r="0.738" stroke="none" /><circle cx="490.335" cy="409.7869" fill="black" r="0.738" stroke="none" /><circle cx="484.0513" cy="678.0703" fill="black" r="0.936" stroke="none" /><circle cx="479.8778" cy="226.7944" fill="black" r="0.738" stroke="none" /><circle cx="477.4156" cy="590.4187" fill="black" r="0.738" stroke="none" /><circle cx="467.4764" cy="580.143" fill="black" r="0.738" stroke="none" /><circle cx="464.7764" cy="496.0915" fill="black" r="0.738" stroke="none" /><circle cx="462.5716" cy="703.104" fill="black" r="0.738" stroke="none" /><circle cx="451.4285" cy="124.1948" fill="black" r="0.738" stroke="none" /><circle cx="450.7831" cy="174.6695" fill="black" r="0.738" stroke="none" /><circle cx="447.4569" cy="87.5192" fill="black" r="0.738" stroke="none" /><circle cx="447.422" cy="646.8882" fill="black" r="0.738" stroke="none" /><circle cx="436.0572" cy="138.5478" fill="black" r="0.738" stroke="none" /><circle cx="434.374" cy="438.7235" fill="black" r="0.738" stroke="none" /><circle cx="429.5342" cy="198.2806" fill="black" r="0.738" stroke="none" /><circle cx="429.2813" cy="408.1861" fill="black" r="0.738" stroke="none" /><circle cx="428.1263" cy="92.8817" fill="black" r="0.738" stroke="none" /><circle cx="424.4984" cy="96.3801" fill="black" r="0.738" stroke="none" /><circle cx="410.6675" cy="144.1636" fill="black" r="0.738" stroke="none" /><circle cx="405.0431" cy="367.1872" fill="black" r="1.17" stroke="none" /><circle cx="391.6475" cy="296.8459" fill="black" r="0.738" stroke="none" /><circle cx="380.3417" cy="365.3472" fill="black" r="0.738" stroke="none" /><circle cx="379.7667" cy="442.9274" fill="black" r="0.738" stroke="none" /><circle cx="367.5305" cy="294.6433" fill="black" r="0.738" stroke="none" /><circle cx="366.8435" cy="562.4845" fill="black" r="0.936" stroke="none" /><circle cx="363.7411" cy="438.0227" fill="black" r="0.738" stroke="none" /><circle cx="354.8311" cy="435.3033" fill="black" r="0.738" stroke="none" /><circle cx="350.293" cy="346.8909" fill="black" r="1.476" stroke="none" /><circle cx="347.1332" cy="556.4306" fill="black" r="0.738" stroke="none" /><circle cx="344.2931" cy="513.917" fill="black" r="0.738" stroke="none" /><circle cx="343.9068" cy="664.076" fill="black" r="0.738" stroke="none" /><circle cx="344.8102" cy="139.818" fill="black" r="0.738" stroke="none" /><circle cx="340.628" cy="249.8145" fill="black" r="0.738" stroke="none" /><circle cx="331.791" cy="597.8635" fill="black" r="0.738" stroke="none" /><circle cx="330.1076" cy="240.7069" fill="black" r="0.936" stroke="none" /><circle cx="325.7147" cy="340.3702" fill="black" r="0.738" stroke="none" /><circle cx="314.1211" cy="173.4272" fill="black" r="0.738" stroke="none" /><circle cx="300.2452" cy="284.3309" fill="black" r="0.738" stroke="none" /><circle cx="297.4048" cy="591.7347" fill="black" r="0.738" stroke="none" /><circle cx="288.103" cy="444.8741" fill="black" r="0.738" stroke="none" /><circle cx="275.7482" cy="107.3047" fill="black" r="0.738" stroke="none" /><circle cx="269.0494" cy="499.5134" fill="black" r="0.738" stroke="none" /><circle cx="266.7299" cy="642.5156" fill="black" r="0.738" stroke="none" /><circle cx="263.9858" cy="481.506" fill="black" r="0.738" stroke="none" /><circle cx="260.5172" cy="641.0889" fill="black" r="0.738" stroke="none" /><circle cx="248.6147" cy="143.384" fill="black" r="0.738" stroke="none" /><circle cx="237.9989" cy="517.9374" fill="black" r="0.738" stroke="none" /><circle cx="232.9441" cy="407.9123" fill="black" r="0.738" stroke="none" /><circle cx="222.2268" cy="314.7792" fill="black" r="0.738" stroke="none" /><circle cx="219.2248" cy="434.269" fill="black" r="0.738" stroke="none" /><circle cx="211.8943" cy="371.1855" fill="black" r="0.738" stroke="none" /><circle cx="212.9449" cy="216.4779" fill="black" r="0.738" stroke="none" /><circle cx="207.3354" cy="137.7326" fill="black" r="0.738" stroke="none" /><circle cx="201.1211" cy="610.6059" fill="black" r="0.738" stroke="none" /><circle cx="168.4861" cy="519.1746" fill="black" r="0.738" stroke="none" /><circle cx="166.1561" cy="654.0212" fill="black" r="0.738" stroke="none" /><circle cx="162.9975" cy="536.768" fill="black" r="0.738" stroke="none" /><circle cx="151.5049" cy="449.595" fill="black" r="1.17" stroke="none" /><circle cx="146.925" cy="154.8588" fill="black" r="0.738" stroke="none" /><circle cx="146.925" cy="96.3922" fill="black" r="0.738" stroke="none" /><circle cx="142.7862" cy="337.7276" fill="black" r="0.738" stroke="none" /><circle cx="138.9766" cy="226.4977" fill="black" r="0.738" stroke="none" /><circle cx="129.5407" cy="715.6741" fill="black" r="0.738" stroke="none" /><circle cx="121.2236" cy="724.9533" fill="black" r="0.738" stroke="none" /><circle cx="121.1003" cy="435.8342" fill="black" r="0.738" stroke="none" /><circle cx="116.3341" cy="214.3467" fill="black" r="0.738" stroke="none" /><circle cx="107.982" cy="528.1074" fill="black" r="0.738" stroke="none" /><circle cx="108.9826" cy="370.8885" fill="black" r="0.936" stroke="none" /><circle cx="106.7047" cy="464.5863" fill="black" r="0.738" stroke="none" /><circle cx="109.5146" cy="118.1255" fill="black" r="0.738" stroke="none" /><circle cx="99.0428" cy="723.8675" fill="black" r="0.738" stroke="none" /><circle cx="98.0943" cy="337.7382" fill="black" r="0.738" stroke="none" /><circle cx="92.0894" cy="135.1958" fill="black" r="0.738" stroke="none" /><circle cx="76.9676" cy="618.4655" fill="black" r="0.738" stroke="none" /><circle cx="75.2134" cy="254.5232" fill="black" r="0.738" stroke="none" /><circle cx="70.3114" cy="596.5381" fill="black" r="0.738" stroke="none" /><circle cx="13.77" cy="786.23" fill="black" r="4.59" stroke="none" /><circle cx="13.77" cy="786.23" fill="black" r="4.59" stroke="none" /><text fill="black" font-family="monospace" font-size="12" x="10.77" y="775.64">1</text><circle cx="37.77" cy="786.23" fill="black" r="3.654" stroke="none" /><circle cx="37.77" cy="786.23" fill="black" r="3.654" stroke="none" /><text fill="black" font-family="monospace" font-size="12" x="34.769999999999996" y="775.64">2</text><circle cx="61.77" cy="786.23" fill="black" r="2.916" stroke="none" /><circle cx="61.77" cy="786.23" fill="black" r="2.916" stroke="none" /><text fill="black" font-family="monospace" font-size="12" x="58.769999999999996" y="775.64">3</text><circle cx="85.77" cy="786.23" fill="black" r="2.322" stroke="none" /><circle cx="85.77" cy="786.23" fill="black" r="2.322" stroke="none" /><text fill="black" font-family="monospace" font-size="12" x="82.77" y="775.64">4</text><circle cx="109.77" cy="786.23" fill="black" r="1.854" stroke="none" /><circle cx="109.77" cy="786.23" fill="black" r="1.854" stroke="none" /><text fill="black" font-family="monospace" font-size="12" x="106.77" y="775.64">5</text><circle cx="133.77" cy="786.23" fill="black" r="1.476" stroke="none" /><circle cx="133.77" cy="786.23" fill="black" r="1.476" stroke="none" /><text fill="black" font-family="monospace" font-size="12" x="130.77" y="775.64">6</text><circle cx="157.77" cy="786.23" fill="black" r="1.17" stroke="none" /><circle cx="157.77" cy="786.23" fill="black" r="1.17" stroke="none" /><text fill="black" font-family="monospace" font-size="12" x="154.77" y="775.64">7</text><circle cx="181.77" cy="786.23" fill="black" r="0.936" stroke="none" /><circle cx="181.77" cy="786.23" fill="black" r="0.936" stroke="none" /><text fill="black" font-family="monospace" font-size="12" x="178.77" y="775.64">8</text><circle cx="205.77" cy="786.23" fill="black" r="0.738" stroke="none" /><circle cx="205.77" cy="786.23" fill="black" r="0.738" stroke="none" /><text fill="black" font-family="monospace" font-size="12" x="202.77" y="775.64">9</text><text fill="gray" fill-opacity="0.5" font-family="monospace" font-size="12" x="641.6931297219478" y="726.4068287168111">08h45m</text><text fill="gray" fill-opacity="0.5" font-family="monospace" font-size="12" x="533.3908069521087" y="727.0739165544478">08h50m</text><text fill="gray" fill-opacity="0.5" font-family="monospace" font-size="12" x="425.1177056800203" y="727.3557439361686">08h55m</text><text fill="gray" fill-opacity="0.5" font-family="monospace" font-size="12" x="316.85010603805483" y="727.2525685269303">09h00m</text><text fill="gray" fill-opacity="0.5" font-family="monospace" font-size="12" x="208.56429274661303" y="726.7642960043413">09h05m</text><text fill="gray" fill-opacity="0.5" font-family="monospace" font-size="12" x="100.2365353358897" y="725.8904798781225">09h10m</text><text fill="gray" fill-opacity="0.5" font-family="monospace" font-size="12" x="68.64274660234844" y="681.8389141919388">+8°</text><text fill="gray" fill-opacity="0.5" font-family="monospace" font-size="12" x="69.64546961131902" y="594.4326330539807">+9°</text><text fill="gray" fill-opacity="0.5" font-family="monospace" font-size="12" x="70.69787367159876" y="507.0571874107499">+10°</text><text fill="gray" fill-opacity="0.5" font-family="monospace" font-size="12" x="71.80007815861774" y="419.69930120520905">+11°</text><text fill="gray" fill-opacity="0.5" font-family="monospace" font-size="12" x="72.95223276131895" y="332.34570903144146">+12°</text><text fill="gray" fill-opacity="0.5" font-family="monospace" font-size="12" x="74.15451755679123" y="244.9831480886702">+13°</text><text fill="gray" fill-opacity="0.5" font-family="monospace" font-size="12" x="75.40714312417288" y="157.5983501386286">+14°</text><text fill="gray" fill-opacity="0.5" font-family="monospace" font-size="12" x="76.71035069797921" y="70.17803345593836">+15°</text><text fill="black" font-family="monospace" font-size="12" x="12" y="48">&gt;&gt; No.474 08h41m 09h11m +7.5°+15.0°</text><a target="_self" xlink:href="hip026.svg"><text fill="black" font-family="monospace" font-size="12" x="12" y="36">&gt; No.26 08h00m 10h40m +0.0°+22.5°</text></a><a target="_self" xlink:href="hip002.svg"><text fill="black" font-family="monospace" font-size="12" x="12" y="24">No.2 00h 24h +0.0°+90.0°</text></a><polyline fill="none" points="723.2896,70.178 719.9112,70.2291 709.3538,70.3852 698.7971,70.5361 688.241,70.6817 677.6854,70.8221 667.1304,70.9572 656.576,71.0871 646.0221,71.2117 635.4686,71.3311 624.9157,71.4453 614.3632,71.5542 603.8111,71.6579 593.2594,71.7563 582.7081,71.8495 572.1572,71.9375 561.6067,72.0202 551.0564,72.0978 540.5065,72.17 529.9568,72.2371 519.4074,72.2989 508.8583,72.3555 498.3094,72.4068 487.7606,72.4529 477.2121,72.4938 466.6637,72.5295 456.1154,72.5599 445.5672,72.5851 435.0192,72.6051 424.4712,72.6198 413.9232,72.6293 403.3753,72.6336 392.8274,72.6327 382.2795,72.6265 371.7315,72.6151 361.1835,72.5985 350.6354,72.5766 340.0872,72.5496 329.5389,72.5172 318.9905,72.4797 308.4418,72.4369 297.893,72.3889 287.344,72.3357 276.7948,72.2772 266.2453,72.2135 255.6956,72.1446 245.1455,72.0705 234.5952,71.9911 224.0445,71.9064 213.4934,71.8166 202.942,71.7215 192.3902,71.6211 181.838,71.5156 171.2853,71.4048 160.7322,71.2887 150.1786,71.1674 139.6245,71.0409 129.0698,70.9091 118.5146,70.7721 107.9589,70.6299 97.4026,70.4824 86.8456,70.3296 76.7104,70.178" stroke="black" stroke-opacity="0.5" stroke-width="1" /><polyline fill="none" points="731.84,725.5578 731.7205,714.6269 731.6002,703.6969 731.4791,692.7675 731.3573,681.8389 731.2346,670.911 731.1112,659.9837 730.987,649.0571 730.8621,638.1311 730.7364,627.2057 730.6099,616.2808 730.4826,605.3565 730.3545,594.4326 730.2257,583.5093 730.0961,572.5864 729.9657,561.6639 729.8345,550.7419 729.7026,539.8202 729.5699,528.8989 729.4364,517.9779 729.3021,507.0572 729.1671,496.1368 729.0312,485.2166 728.8946,474.2966 728.7573,463.3769 728.6191,452.4573 728.4801,441.5379 728.3404,430.6185 728.1999,419.6993 728.0586,408.7801 727.9166,397.861 727.7737,386.9419 727.6301,376.0228 727.4857,365.1036 727.3405,354.1844 727.1945,343.2651 727.0478,332.3457 726.9002,321.4262 726.7519,310.5064 726.6028,299.5865 726.4529,288.6664 726.3022,277.746 726.1508,266.8254 725.9985,255.9044 725.8455,244.9831 725.6917,234.0615 725.5371,223.1396 725.3817,212.2172 725.2255,201.2944 725.0685,190.3711 724.9107,179.4474 724.7522,168.5231 724.5929,157.5984 724.4327,146.673 724.2718,135.7471 724.1101,124.8206 723.9476,113.8935 723.7843,102.9657 723.6202,92.0372 723.4553,81.108 723.2896,70.178" stroke="black" stroke-opacity="0.5" stroke-width="1" /><polyline fill="none" points="731.84,725.5578 728.372,725.5954 717.5349,725.7103 706.6984,725.8214 695.8627,725.9286 685.0276,726.032 674.1931,726.1315 663.3592,726.2271 652.5259,726.3189 641.6931,726.4068 630.8609,726.4909 620.0292,726.5711 609.198,726.6474 598.3672,726.7199 587.5368,726.7886 576.7069,726.8533 565.8774,726.9143 555.0482,726.9713 544.2193,727.0246 533.3908,727.0739 522.5626,727.1194 511.7346,727.1611 500.9069,727.1989 490.0794,727.2329 479.2521,727.263 468.425,727.2892 457.598,727.3116 446.7711,727.3302 435.9444,727.3449 425.1177,727.3557 414.2911,727.3628 403.4645,727.3659 392.6379,727.3652 381.8113,727.3607 370.9847,727.3523 360.158,727.34 349.3312,727.3239 338.5043,727.304 327.6773,727.2802 316.8501,727.2526 306.0227,727.2211 295.1952,727.1857 284.3674,727.1465 273.5393,727.1035 262.711,727.0566 251.8823,727.0058 241.0534,726.9512 230.2241,726.8928 219.3944,726.8305 208.5643,726.7643 197.7338,726.6943 186.9029,726.6204 176.0715,726.5427 165.2396,726.4611 154.4071,726.3756 143.5742,726.2863 132.7407,726.1931 121.9066,726.0961 111.0719,725.9952 100.2365,725.8905 89.4005,725.7819 78.5639,725.6694 68.16,725.5578" stroke="black" stroke-opacity="0.5" stroke-width="1" /><polyline fill="none" points="68.16,725.5578 68.2795,714.6269 68.3998,703.6969 68.5209,692.7675 68.6427,681.8389 68.7654,670.911 68.8888,659.9837 69.013,649.0571 69.1379,638.1311 69.2636,627.2057 69.3901,616.2808 69.5174,605.3565 69.6455,594.4326 69.7743,583.5093 69.9039,572.5864 70.0343,561.6639 70.1655,550.7419 70.2974,539.8202 70.4301,528.8989 70.5636,517.9779 70.6979,507.0572 70.8329,496.1368 70.9688,485.2166 71.1054,474.2966 71.2427,463.3769 71.3809,452.4573 71.5199,441.5379 71.6596,430.6185 71.8001,419.6993 71.9414,408.7801 72.0834,397.861 72.2263,386.9419 72.3699,376.0228 72.5143,365.1036 72.6595,354.1844 72.8055,343.2651 72.9522,332.3457 73.0998,321.4262 73.2481,310.5064 73.3972,299.5865 73.5471,288.6664 73.6978,277.746 73.8492,266.8254 74.0015,255.9044 74.1545,244.9831 74.3083,234.0615 74.4629,223.1396 74.6183,212.2172 74.7745,201.2944 74.9315,190.3711 75.0893,179.4474 75.2478,168.5231 75.4071,157.5984 75.5673,146.673 75.7282,135.7471 75.8899,124.8206 76.0524,113.8935 76.2157,102.9657 76.3798,92.0372 76.5447,81.108 76.7104,70.178" stroke="black" stroke-opacity="0.5" stroke-width="1" /></svg>