<?xml version="1.0" encoding="utf-8" ?>
<svg baseProfile="tiny" height="800" version="1.2" width="800" xmlns="http://www.w3.org/2000/svg" xmlns:ev="http://www.w3.org/2001/xml-events" xmlns:xlink="http://www.w3.org/1999/xlink"><defs /><rect fill="none" height="800" stroke="black" stroke-width="2" width="800" x="0" y="0" /><polyline fill="none" points="669.4261,726.1741 669.3291,715.247 669.2314,704.3208 669.1332,693.3953 669.0343,682.4705 668.9348,671.5464 668.8346,660.6229 668.7338,649.7001 668.6324,638.7778 668.5304,627.8562 668.4277,616.9351 668.3244,606.0146 668.2204,595.0945 668.1159,584.1749 668.0107,573.2558 667.9049,562.3371 667.7984,551.4188 667.6913,540.5009 667.5836,529.5833 667.4753,518.666 667.3663,507.7491 667.2567,496.8324 667.1465,485.9159 667.0356,474.9997 666.9241,464.0837 666.8119,453.1678 666.6992,442.252 666.5858,431.3364 666.4717,420.4209 666.3571,409.5054 666.2418,398.59 666.1258,387.6745 666.0092,376.7591 665.892,365.8436 665.7742,354.9281 665.6557,344.0124 665.5366,333.0967 665.4169,322.1807 665.2965,311.2647 665.1755,300.3484 665.0538,289.4319 664.9315,278.5151 664.8086,267.5981 664.685,256.6808 664.5608,245.7631 664.436,234.8451 664.3105,223.9267 664.1844,213.0079 664.0576,202.0887 663.9302,191.169 663.8022,180.2489 663.6735,169.3282 663.5441,158.407 663.4142,147.4852 663.2836,136.5629 663.1523,125.6399 663.0204,114.7163 662.8879,103.792 662.7547,92.8671 662.6209,81.9414 662.4864,71.015" stroke="silver" stroke-opacity="0.5" stroke-width="1" /><polyline fill="none" points="561.1125,726.9398 561.0545,716.0176 560.9961,705.0961 560.9374,694.1753 560.8783,683.2553 560.8188,672.3359 560.7589,661.4171 560.6987,650.499 560.6381,639.5815 560.5771,628.6646 560.5157,617.7482 560.454,606.8323 560.3918,595.917 560.3294,585.0021 560.2665,574.0876 560.2032,563.1736 560.1396,552.26 560.0756,541.3467 560.0112,530.4338 559.9464,519.5212 559.8813,508.6088 559.8158,497.6968 559.7499,486.785 559.6836,475.8734 559.617,464.9619 559.55,454.0507 559.4826,443.1395 559.4148,432.2285 559.3466,421.3176 559.2781,410.4067 559.2092,399.4958 559.1399,388.5849 559.0702,377.6741 559.0001,366.7631 558.9297,355.8521 558.8589,344.941 558.7877,334.0298 558.7161,323.1184 558.6442,312.2069 558.5718,301.2951 558.4991,290.3831 558.426,279.4709 558.3525,268.5583 558.2787,257.6455 558.2044,246.7323 558.1298,235.8188 558.0548,224.9049 557.9794,213.9906 557.9036,203.0758 557.8275,192.1606 557.751,181.2448 557.674,170.3286 557.5967,159.4118 557.5191,148.4945 557.441,137.5765 557.3625,126.658 557.2837,115.7388 557.2045,104.8189 557.1249,93.8983 557.0449,82.977 556.9645,72.055" stroke="silver" stroke-opacity="0.5" stroke-width="1" /><polyline fill="none" points="452.8342,727.3203 452.8151,716.4004 452.796,705.4812 452.7767,694.5628 452.7574,683.6451 452.7379,672.7281 452.7182,661.8117 452.6985,650.8959 452.6786,639.9807 452.6586,629.0662 452.6385,618.1521 452.6183,607.2386 452.5979,596.3255 452.5774,585.413 452.5568,574.5009 452.536,563.5891 452.5152,552.6778 452.4942,541.7669 452.4731,530.8563 452.4519,519.946 452.4305,509.0359 452.409,498.1262 452.3874,487.2167 452.3657,476.3073 452.3438,465.3982 452.3219,454.4892 452.2998,443.5804 452.2775,432.6716 452.2552,421.763 452.2327,410.8544 452.2101,399.9458 452.1874,389.0372 452.1646,378.1286 452.1416,367.2199 452.1185,356.3112 452.0953,345.4023 452.0719,334.4934 452.0485,323.5842 452.0249,312.6749 452.0012,301.7654 451.9773,290.8557 451.9534,279.9456 451.9293,269.0354 451.9051,258.1247 451.8807,247.2138 451.8563,236.3025 451.8317,225.3908 451.8069,214.4787 451.7821,203.5661 451.7571,192.6531 451.732,181.7396 451.7068,170.8256 451.6815,159.911 451.656,148.9959 451.6304,138.0801 451.6047,127.1637 451.5789,116.2467 451.5529,105.329 451.5268,94.4106 451.5006,83.4915 451.4742,72.5716" stroke="silver" stroke-opacity="0.5" stroke-width="1" /><polyline fill="none" points="344.5674,727.3156 344.5873,716.3957 344.6074,705.4765 344.6276,694.5581 344.648,683.6404 344.6684,672.7233 344.689,661.8069 344.7097,650.8911 344.7306,639.9759 344.7516,629.0613 344.7727,618.1472 344.7939,607.2336 344.8153,596.3206 344.8368,585.408 344.8584,574.4958 344.8802,563.5841 344.9021,552.6728 344.9241,541.7618 344.9462,530.8511 344.9685,519.9408 344.9909,509.0308 345.0134,498.121 345.0361,487.2114 345.0589,476.3021 345.0818,465.3929 345.1049,454.4839 345.1281,443.575 345.1514,432.6663 345.1748,421.7576 345.1984,410.8489 345.2221,399.9403 345.2459,389.0317 345.2699,378.1231 345.294,367.2144 345.3182,356.3056 345.3426,345.3967 345.3671,334.4877 345.3917,323.5786 345.4165,312.6692 345.4413,301.7597 345.4664,290.8499 345.4915,279.9399 345.5168,269.0296 345.5422,258.1189 345.5677,247.208 345.5934,236.2966 345.6192,225.3849 345.6451,214.4728 345.6712,203.5602 345.6974,192.6471 345.7237,181.7336 345.7502,170.8195 345.7768,159.9049 345.8035,148.9898 345.8303,138.074 345.8573,127.1576 345.8844,116.2406 345.9117,105.3228 345.9391,94.4044 345.9666,83.4853 345.9942,72.5654" stroke="silver" stroke-opacity="0.5" stroke-width="1" /><polyline fill="none" points="236.2885,726.926 236.3474,716.0036 236.4067,705.0821 236.4664,694.1612 236.5265,683.241 236.5869,672.3216 236.6478,661.4028 236.709,650.4846 236.7706,639.567 236.8325,628.65 236.8949,617.7335 236.9576,606.8175 237.0208,595.9021 237.0843,584.9871 237.1482,574.0726 237.2124,563.1585 237.2771,552.2447 237.3421,541.3314 237.4075,530.4184 237.4734,519.5057 237.5395,508.5933 237.6061,497.6811 237.6731,486.7692 237.7404,475.8575 237.8081,464.946 237.8762,454.0347 237.9447,443.1235 238.0136,432.2123 238.0829,421.3013 238.1525,410.3903 238.2225,399.4794 238.293,388.5685 238.3638,377.6575 238.4349,366.7465 238.5065,355.8354 238.5785,344.9242 238.6508,334.0129 238.7236,323.1015 238.7967,312.1898 238.8702,301.278 238.9441,290.3659 239.0183,279.4536 239.093,268.541 239.1681,257.628 239.2435,246.7148 239.3193,235.8012 239.3955,224.8872 239.4721,213.9728 239.5491,203.0579 239.6265,192.1426 239.7043,181.2268 239.7824,170.3105 239.861,159.3936 239.9399,148.4762 240.0192,137.5582 240.099,126.6396 240.1791,115.7203 240.2596,104.8003 240.3405,93.8797 240.4217,82.9583 240.5034,72.0362" stroke="silver" stroke-opacity="0.5" stroke-width="1" /><polyline fill="none" points="127.9738,726.1509 128.0717,715.2238 128.1703,704.2974 128.2695,693.3717 128.3694,682.4468 128.4698,671.5225 128.571,660.5989 128.6727,649.6759 128.7751,638.7536 128.8781,627.8318 128.9818,616.9106 129.0861,605.9899 129.191,595.0697 129.2966,584.15 129.4028,573.2307 129.5097,562.3119 129.6172,551.3934 129.7253,540.4753 129.834,529.5576 129.9434,518.6402 130.0535,507.7231 130.1641,496.8063 130.2754,485.8897 130.3874,474.9733 130.5,464.0571 130.6132,453.1411 130.727,442.2253 130.8415,431.3095 130.9567,420.3938 131.0724,409.4782 131.1889,398.5626 131.3059,387.6471 131.4236,376.7315 131.542,365.8159 131.6609,354.9002 131.7806,343.9844 131.9008,333.0685 132.0217,322.1524 132.1433,311.2362 132.2655,300.3198 132.3883,289.4032 132.5118,278.4863 132.6359,267.5691 132.7606,256.6516 132.8861,245.7339 133.0121,234.8157 133.1388,223.8972 133.2661,212.9783 133.3941,202.0589 133.5228,191.1391 133.652,180.2188 133.782,169.298 133.9125,158.3766 134.0438,147.4547 134.1756,136.5323 134.3082,125.6092 134.4413,114.6854 134.5751,103.761 134.7096,92.8359 134.8447,81.9101 134.9805,70.9836" stroke="silver" stroke-opacity="0.5" stroke-width="1" /><polyline fill="none" points="731.3573,681.8389 723.1328,681.9298 712.3118,682.0458 701.4914,682.1579 690.6718,682.2661 679.8527,682.3702 669.0343,682.4705 658.2164,682.5667 647.3991,682.659 636.5824,682.7474 625.7662,682.8318 614.9504,682.9123 604.1351,682.9888 593.3203,683.0613 582.5059,683.1299 571.6919,683.1946 560.8783,683.2553 550.065,683.312 539.252,683.3648 528.4394,683.4137 517.627,683.4586 506.8149,683.4995 496.003,683.5365 485.1914,683.5696 474.3799,683.5987 463.5686,683.6239 452.7574,683.6451 441.9463,683.6624 431.1353,683.6757 420.3244,683.6851 409.5135,683.6905 398.7027,683.692 387.8919,683.6896 377.081,683.6832 366.2701,683.6729 355.4591,683.6586 344.648,683.6404 333.8367,683.6182 323.0254,683.5921 312.2139,683.562 301.4021,683.528 290.5902,683.49 279.778,683.4481 268.9656,683.4023 258.1529,683.3525 247.3398,683.2987 236.5265,683.241 225.7128,683.1794 214.8987,683.1138 204.0842,683.0443 193.2692,682.9708 182.4538,682.8933 171.638,682.8119 160.8216,682.7266 150.0048,682.6373 139.1873,682.544 128.3694,682.4468 117.5508,682.3456 106.7316,682.2405 95.9117,682.1314 85.0912,682.0183 74.27,681.9013 68.6427,681.8389" stroke="silver" stroke-opacity="0.5" stroke-width="1" /><polyline fill="none" points="730.3545,594.4326 722.155,594.5278 711.3668,594.6495 700.5793,594.767 689.7924,594.8803 679.0061,594.9895 668.2204,595.0945 657.4354,595.1954 646.6508,595.2921 635.8668,595.3847 625.0834,595.4732 614.3004,595.5575 603.5178,595.6377 592.7357,595.7137 581.9541,595.7856 571.1728,595.8534 560.3918,595.917 549.6113,595.9765 538.831,596.0318 528.0511,596.083 517.2714,596.13 506.492,596.173 495.7128,596.2118 484.9338,596.2464 474.155,596.2769 463.3764,596.3033 452.5979,596.3255 441.8195,596.3437 431.0412,596.3576 420.263,596.3675 409.4848,596.3732 398.7066,596.3747 387.9285,596.3722 377.1503,596.3655 366.372,596.3547 355.5937,596.3397 344.8153,596.3206 334.0368,596.2973 323.2581,596.27 312.4792,596.2385 301.7002,596.2028 290.921,596.163 280.1415,596.1191 269.3618,596.0711 258.5817,596.0189 247.8014,595.9626 237.0208,595.9021 226.2398,595.8375 215.4584,595.7687 204.6766,595.6959 193.8944,595.6188 183.1118,595.5377 172.3286,595.4524 161.545,595.3629 150.7609,595.2693 139.9763,595.1716 129.191,595.0697 118.4052,594.9637 107.6188,594.8535 96.8318,594.7391 86.0441,594.6207 75.2557,594.498 69.6455,594.4326" stroke="silver" stroke-opacity="0.5" stroke-width="1" /><polyline fill="none" points="729.3021,507.0572 721.1288,507.1567 710.375,507.2839 699.6219,507.4067 688.8694,507.5251 678.1176,507.6393 667.3663,507.7491 656.6156,507.8545 645.8655,507.9557 635.1158,508.0525 624.3667,508.1449 613.6181,508.2331 602.8699,508.3169 592.1222,508.3964 581.3748,508.4715 570.6279,508.5423 559.8813,508.6088 549.1351,508.671 538.3892,508.7289 527.6435,508.7824 516.8982,508.8316 506.1531,508.8764 495.4082,508.917 484.6635,508.9532 473.919,508.9851 463.1747,509.0127 452.4305,509.0359 441.6864,509.0549 430.9424,509.0695 420.1985,509.0798 409.4546,509.0857 398.7107,509.0874 387.9669,509.0847 377.223,509.0777 366.479,509.0664 355.735,509.0507 344.9909,509.0308 334.2467,509.0065 323.5023,508.9778 312.7578,508.9449 302.0131,508.9077 291.2681,508.8661 280.523,508.8202 269.7775,508.7699 259.0319,508.7154 248.2859,508.6565 237.5395,508.5933 226.7929,508.5257 216.0458,508.4539 205.2984,508.3777 194.5506,508.2972 183.8023,508.2123 173.0535,508.1232 162.3043,508.0296 151.5546,507.9318 140.8043,507.8296 130.0535,507.7231 119.302,507.6123 108.55,507.4971 97.7974,507.3776 87.0441,507.2537 76.2902,507.1256 70.6979,507.0572" stroke="silver" stroke-opacity="0.5" stroke-width="1" /><polyline fill="none" points="728.1999,419.6993 720.054,419.8031 709.3363,419.9357 698.6192,420.0638 687.9028,420.1873 677.187,420.3064 666.4717,420.4209 655.7571,420.5309 645.0429,420.6364 634.3293,420.7373 623.6162,420.8337 612.9035,420.9257 602.1913,421.0131 591.4796,421.096 580.7682,421.1743 570.0572,421.2482 559.3466,421.3176 548.6363,421.3824 537.9264,421.4427 527.2167,421.4985 516.5073,421.5498 505.7981,421.5966 495.0892,421.6389 484.3804,421.6767 473.6719,421.71 462.9635,421.7387 452.2552,421.763 441.547,421.7827 430.839,421.798 420.131,421.8087 409.423,421.8149 398.715,421.8166 388.0071,421.8138 377.2991,421.8065 366.5911,421.7947 355.883,421.7784 345.1748,421.7576 334.4665,421.7322 323.7581,421.7024 313.0495,421.668 302.3407,421.6292 291.6317,421.5858 280.9225,421.5379 270.213,421.4855 259.5033,421.4286 248.7932,421.3672 238.0829,421.3013 227.3722,421.2309 216.6611,421.1559 205.9496,421.0765 195.2378,420.9925 184.5255,420.904 173.8127,420.811 163.0995,420.7135 152.3857,420.6115 141.6715,420.5049 130.9567,420.3938 120.2413,420.2782 109.5253,420.1581 98.8087,420.0335 88.0915,419.9043 77.3736,419.7706 71.8001,419.6993" stroke="silver" stroke-opacity="0.5" stroke-width="1" /><polyline fill="none" points="727.0478,332.3457 718.9305,332.4537 708.2505,332.5917 697.5711,332.725 686.8923,332.8536 676.2142,332.9775 665.5366,333.0967 654.8596,333.2111 644.1831,333.3209 633.5071,333.426 622.8316,333.5263 612.1566,333.622 601.482,333.7129 590.8079,333.7992 580.1341,333.8808 569.4607,333.9576 558.7877,334.0298 548.115,334.0973 537.4426,334.1601 526.7705,334.2182 516.0987,334.2715 505.4271,334.3202 494.7557,334.3643 484.0845,334.4036 473.4135,334.4382 462.7427,334.4681 452.0719,334.4934 441.4013,334.5139 430.7308,334.5298 420.0604,334.5409 409.3899,334.5474 398.7196,334.5492 388.0492,334.5463 377.3787,334.5387 366.7083,334.5264 356.0377,334.5094 345.3671,334.4877 334.6963,334.4614 324.0255,334.4303 313.3544,334.3946 302.6832,334.3541 292.0118,334.309 281.3401,334.2592 270.6682,334.2046 259.9961,334.1454 249.3236,334.0815 238.6508,334.0129 227.9777,333.9396 217.3042,333.8616 206.6304,333.7789 195.9561,333.6915 185.2814,333.5994 174.6063,333.5027 163.9307,333.4012 153.2546,333.295 142.578,333.1841 131.9008,333.0685 121.2231,332.9482 110.5448,332.8232 99.8659,332.6935 89.1864,332.559 78.5062,332.4199 72.9522,332.3457" stroke="silver" stroke-opacity="0.5" stroke-width="1" /><polyline fill="none" points="725.8455,244.9831 717.7581,245.0954 707.1174,245.2387 696.4774,245.3771 685.8379,245.5107 675.1991,245.6393 664.5608,245.7631 653.9231,245.882 643.2859,245.996 632.6492,246.1051 622.0129,246.2094 611.3772,246.3087 600.7418,246.4032 590.1069,246.4928 579.4724,246.5775 568.8382,246.6574 558.2044,246.7323 547.5709,246.8024 536.9378,246.8676 526.3049,246.928 515.6723,246.9834 505.0399,247.034 494.4077,247.0797 483.7757,247.1205 473.1439,247.1565 462.5122,247.1876 451.8807,247.2138 441.2493,247.2351 430.618,247.2516 419.9867,247.2632 409.3555,247.2699 398.7243,247.2718 388.093,247.2688 377.4618,247.2609 366.8305,247.2481 356.1992,247.2305 345.5677,247.208 334.9362,247.1806 324.3045,247.1483 313.6726,247.1112 303.0406,247.0692 292.4084,247.0223 281.7759,246.9705 271.1432,246.9139 260.5103,246.8524 249.877,246.786 239.2435,246.7148 228.6096,246.6387 217.9754,246.5576 207.3407,246.4718 196.7057,246.381 186.0703,246.2853 175.4344,246.1848 164.7981,246.0794 154.1613,245.9691 143.5239,245.8539 132.8861,245.7339 122.2476,245.6089 111.6086,245.4791 100.9691,245.3443 90.3289,245.2047 79.688,245.0602 74.1545,244.9831" stroke="silver" stroke-opacity="0.5" stroke-width="1" /><polyline fill="none" points="724.5929,157.5984 716.5366,157.7147 705.9369,157.8633 695.3379,158.0068 684.7394,158.1453 674.1415,158.2787 663.5441,158.407 652.9473,158.5302 642.3511,158.6484 631.7553,158.7616 621.1599,158.8697 610.5651,158.9727 599.9706,159.0706 589.3766,159.1635 578.783,159.2513 568.1897,159.3341 557.5967,159.4118 547.0041,159.4845 536.4118,159.5521 525.8198,159.6146 515.228,159.6721 504.6364,159.7246 494.0451,159.772 483.454,159.8143 472.863,159.8516 462.2722,159.8838 451.6815,159.911 441.0909,159.9331 430.5004,159.9502 419.9099,159.9622 409.3195,159.9692 398.7292,159.9711 388.1388,159.968 377.5484,159.9598 366.9579,159.9466 356.3674,159.9283 345.7768,159.9049 335.186,159.8765 324.5952,159.8431 314.0042,159.8046 303.413,159.7611 292.8216,159.7125 282.23,159.6588 271.6382,159.6001 261.0461,159.5363 250.4537,159.4675 239.861,159.3936 229.268,159.3147 218.6746,159.2307 208.0809,159.1417 197.4867,159.0476 186.8922,158.9484 176.2972,158.8442 165.7018,158.7349 155.1059,158.6205 144.5095,158.5011 133.9125,158.3766 123.3151,158.2471 112.717,158.1125 102.1184,157.9728 91.5192,157.8281 80.9193,157.6783 75.4071,157.5984" stroke="silver" stroke-opacity="0.5" stroke-width="1" /><polyline fill="none" points="723.2896,70.178 715.2659,70.2984 704.7088,70.4522 694.1523,70.6008 683.5965,70.7441 673.0412,70.8822 662.4864,71.015 651.9322,71.1426 641.3785,71.2649 630.8253,71.382 620.2725,71.4938 609.7202,71.6005 599.1683,71.7018 588.6168,71.798 578.0657,71.8889 567.5149,71.9746 556.9645,72.055 546.4144,72.1302 535.8646,72.2002 525.3151,72.2649 514.7658,72.3244 504.2167,72.3787 493.6679,72.4277 483.1192,72.4716 472.5708,72.5102 462.0224,72.5435 451.4742,72.5716 440.9261,72.5945 430.3781,72.6122 419.8301,72.6247 409.2822,72.6319 398.7343,72.6339 388.1863,72.6306 377.6384,72.6221 367.0904,72.6084 356.5424,72.5895 345.9942,72.5654 335.446,72.536 324.8976,72.5014 314.3491,72.4615 303.8004,72.4165 293.2515,72.3662 282.7024,72.3106 272.1531,72.2499 261.6035,72.1839 251.0536,72.1126 240.5034,72.0362 229.9529,71.9545 219.4021,71.8675 208.8509,71.7754 198.2993,71.678 187.7473,71.5753 177.1949,71.4675 166.642,71.3544 156.0887,71.236 145.5348,71.1124 134.9805,70.9836 124.4256,70.8495 113.8702,70.7102 103.3142,70.5656 92.7576,70.4158 82.2004,70.2607 76.7104,70.178" stroke="silver" stroke-opacity="0.5" stroke-width="1" /><circle cx="730.8006" cy="717.6979" fill="black" r="0.738" stroke="none" /><circle cx="723.32" cy="198.787" fill="black" r="0.738" stroke="none" /><circle cx="719.7128" cy="90.8713" fill="black" r="0.738" stroke="none" /><circle cx="711.4646" cy="611.3403" fill="black" r="0.738" stroke="none" /><circle cx="706.512" cy="463.6481" fill="black" r="0.738" stroke="none" /><circle cx="699.7346" cy="280.37" fill="black" r="0.738" stroke="none" /><circle cx="697.2179" cy="462.096" fill="black" r="0.738" stroke="none" /><circle cx="693.6851" cy="206.7927" fill="black" r="0.738" stroke="none" /><circle cx="697.1917" cy="544.563" fill="black" r="0.738" stroke="none" /><circle cx="692.7032" cy="318.8078" fill="black" r="0.738" stroke="none" /><circle cx="696.5987" cy="686.316" fill="black" r="0.738" stroke="none" /><circle cx="690.3949" cy="156.1492" fill="black" r="1.17" stroke="none" /><circle cx="687.1248" cy="442.5564" fill="black" r="0.738" stroke="none" /><circle cx="678.4483" cy="297.2273" fill="black" r="0.738" stroke="none" /><circle cx="663.1814" cy="619.2558" fill="black" r="0.738" stroke="none" /><circle cx="662.2758" cy="605.3724" fill="black" r="0.738" stroke="none" /><circle cx="656.8911" cy="222.0018" fill="black" r="0.738" stroke="none" /><circle cx="656.944" cy="488.4627" fill="black" r="0.738" stroke="none" /><circle cx="649.9371" cy="81.0444" fill="black" r="0.738" stroke="none" /><circle cx="653.8879" cy="682.4294" fill="black" r="0.738" stroke="none" /><circle cx="641.8505" cy="206.7041" fill="black" r="0.738" stroke="none" /><circle cx="636.0591" cy="349.9925" fill="black" r="1.17" stroke="none" /><circle cx="627.6756" cy="349.1987" fill="black" r="0.738" stroke="none" /><circle cx="620.9601" cy="147.3392" fill="black" r="0.738" stroke="none" /><circle cx="619.421" cy="633.079" fill="black" r="0.738" stroke="none" /><circle cx="613.9373" cy="371.325" fill="black" r="0.936" stroke="none" /><circle cx="613.2744" cy="434.5429" fill="black" r="0.738" stroke="none" /><circle cx="611.3035" cy="383.4836" fill="black" r="0.738" stroke="none" /><circle cx="609.3106" cy="474.651" fill="black" r="0.738" stroke="none" /><circle cx="607.8919" cy="501.7295" fill="black" r="0.738" stroke="none" /><circle cx="603.6043" cy="204.6332" fill="black" r="0.738" stroke="none" /><circle cx="582.7751" cy="288.2877" fill="black" r="0.738" stroke="none" /><circle cx="584.9352" cy="656.7316" fill="black" r="0.738" stroke="none" /><circle cx="584.4703" cy="598.0398" fill="black" r="0.738" stroke="none" /><circle cx="580.3194" cy="181.5989" fill="black" r="0.738" stroke="none" /><circle cx="580.0718" cy="325.5003" fill="black" r="0.738" stroke="none" /><circle cx="581.4776" cy="698.9503" fill="black" r="0.738" stroke="none" /><circle cx="576.069" cy="106.3336" fill="black" r="0.738" stroke="none" /><circle cx="573.6221" cy="75.5959" fill="black" r="0.738" stroke="none" /><circle cx="563.3999" cy="412.0389" fill="black" r="0.738" stroke="none" /><circle cx="556.6049" cy="536.5651" fill="black" r="0.738" stroke="none" /><circle cx="541.3646" cy="347.9291" fill="black" r="0.936" stroke="none" /><circle cx="539.7346" cy="148.9635" fill="black" r="0.738" stroke="none" /><circle cx="540.9291" cy="672.2631" fill="black" r="0.738" stroke="none" /><circle cx="539.0959" cy="431.6487" fill="black" r="0.738" stroke="none" /><circle cx="536.2234" cy="241.1097" fill="black" r="0.936" stroke="none" /><circle cx="525.2758" cy="277.1387" fill="black" r="0.738" stroke="none" /><circle cx="525.1776" cy="648.8399" fill="black" r="0.738" stroke="none" /><circle cx="521.8714" cy="524.9584" fill="black" r="0.738" stroke="none" /><circle cx="511.1168" cy="117.5088" fill="black" r="0.738" stroke="none" /><circle cx="513.3511" cy="673.6925" fill="black" r="0.738" stroke="none" /><circle cx="487.4986" cy="406.7423" fill="black" r="0.738" stroke="none" /><circle cx="486.4813" cy="622.9591" fill="black" r="0.738" stroke="none" /><circle cx="476.7031" cy="95.2965" fill="black" r="0.738" stroke="none" /><circle cx="474.4573" cy="486.3781" fill="black" r="0.738" stroke="none" /><circle cx="471.9424" cy="677.1416" fill="black" r="0.738" stroke="none" /><circle cx="462.7444" cy="177.1713" fill="black" r="0.738" stroke="none" /><circle cx="453.5638" cy="516.9762" fill="black" r="0.738" stroke="none" /><circle cx="445.2796" cy="401.2682" fill="black" r="0.738" stroke="none" /><circle cx="444.5071" cy="499.6243" fill="black" r="0.738" stroke="none" /><circle cx="444.1628" cy="499.2758" fill="black" r="0.738" stroke="none" /><circle cx="440.947" cy="711.789" fill="black" r="0.738" stroke="none" /><circle cx="432.9827" cy="711.8861" fill="black" r="0.738" stroke="none" /><circle cx="422.8983" cy="451.0412" fill="black" r="0.738" stroke="none" /><circle cx="421.7333" cy="602.2156" fill="black" r="0.936" stroke="none" /><circle cx="420.6713" cy="158.7391" fill="black" r="0.738" stroke="none" /><circle cx="417.2336" cy="96.7365" fill="black" r="0.738" stroke="none" /><circle cx="417.1252" cy="174.4587" fill="black" r="0.738" stroke="none" /><circle cx="396.606" cy="193.3233" fill="black" r="0.738" stroke="none" /><circle cx="394.1549" cy="510.9196" fill="black" r="0.738" stroke="none" /><circle cx="393.4368" cy="298.6793" fill="black" r="0.738" stroke="none" /><circle cx="390.751" cy="194.282" fill="black" r="0.738" stroke="none" /><circle cx="387.6968" cy="535.7049" fill="black" r="0.738" stroke="none" /><circle cx="385.1382" cy="656.2666" fill="black" r="0.936" stroke="none" /><circle cx="383.7656" cy="638.5399" fill="black" r="0.738" stroke="none" /><circle cx="383.2958" cy="295.7069" fill="black" r="1.17" stroke="none" /><circle cx="373.9547" cy="425.294" fill="black" r="0.738" stroke="none" /><circle cx="371.6791" cy="469.0135" fill="black" r="0.738" stroke="none" /><circle cx="352.215" cy="368.7123" fill="black" r="0.738" stroke="none" /><circle cx="349.3121" cy="207.7591" fill="black" r="0.738" stroke="none" /><circle cx="348.0779" cy="83.2284" fill="black" r="0.738" stroke="none" /><circle cx="345.8331" cy="136.9387" fill="black" r="0.738" stroke="none" /><circle cx="340.0718" cy="679.7885" fill="black" r="1.476" stroke="none" /><circle cx="322.9872" cy="600.7219" fill="black" r="0.738" stroke="none" /><circle cx="308.8814" cy="211.2999" fill="black" r="0.738" stroke="none" /><circle cx="306.8069" cy="490.0716" fill="black" r="0.738" stroke="none" /><circle cx="304.2197" cy="312.8893" fill="black" r="0.738" stroke="none" /><circle cx="294.3495" cy="624.903" fill="black" r="0.738" stroke="none" /><circle cx="292.3642" cy="514.1951" fill="black" r="0.738" stroke="none" /><circle cx="293.2281" cy="111.0668" fill="black" r="0.738" stroke="none" /><circle cx="290.9346" cy="130.0968" fill="black" r="0.738" stroke="none" /><circle cx="288.4398" cy="88.7666" fill="black" r="0.738" stroke="none" /><circle cx="277.3679" cy="260.2172" fill="black" r="0.738" stroke="none" /><circle cx="273.4627" cy="663.5068" fill="black" r="0.738" stroke="none" /><circle cx="272.3335" cy="442.9678" fill="black" r="0.738" stroke="none" /><circle cx="268.6168" cy="517.5809" fill="black" r="0.738" stroke="none" /><circle cx="264.8367" cy="323.5237" fill="black" r="0.738" stroke="none" /><circle cx="256.8185" cy="366.5108" fill="black" r="0.738" stroke="none" /><circle cx="255.4436" cy="160.9853" fill="black" r="0.738" stroke="none" /><circle cx="251.4904" cy="194.8435" fill="black" r="0.738" stroke="none" /><circle cx="240.191" cy="454.3109" fill="black" r="0.738" stroke="none" /><circle cx="241.1946" cy="259.9992" fill="black" r="0.738" stroke="none" /><circle cx="234.8784" cy="684.0182" fill="black" r="0.738" stroke="none" /><circle cx="228.7411" cy="286.8895" fill="black" r="0.738" stroke="none" /><circle cx="209.9268" cy="610.2296" fill="black" r="0.738" stroke="none" /><circle cx="208.2054" cy="687.964" fill="black" r="0.738" stroke="none" /><circle cx="204.6289" cy="265.485" fill="black" r="0.738" stroke="none" /><circle cx="201.0158" cy="405.4983" fill="black" r="0.738" stroke="none" /><circle cx="196.766" cy="145.2381" fill="black" r="0.738" stroke="none" /><circle cx="190.8986" cy="615.7731" fill="black" r="0.738" stroke="none" /><circle cx="189.1202" cy="165.3468" fill="black" r="0.738" stroke="none" /><circle cx="184.3071" cy="243.7364" fill="black" r="0.738" stroke="none" /><circle cx="175.1159" cy="508.3152" fill="black" r="1.476" stroke="none" /><circle cx="170.1851" cy="260.7184" fill="black" r="0.738" stroke="none" /><circle cx="165.6896" cy="679.9691" fill="black" r="0.738" stroke="none" /><circle cx="163.7293" cy="720.0685" fill="black" r="0.738" stroke="none" /><circle cx="166.636" cy="336.3089" fill="black" r="2.916" stroke="none" /><circle cx="159.1946" cy="244.7991" fill="black" r="0.738" stroke="none" /><circle cx="145.5969" cy="448.2275" fill="black" r="0.738" stroke="none" /><circle cx="139.9458" cy="543.37" fill="black" r="0.738" stroke="none" /><circle cx="129.407" cy="152.3797" fill="black" r="0.738" stroke="none" /><circle cx="108.4623" cy="708.921" fill="black" r="0.738" stroke="none" /><circle cx="114.5378" cy="115.9192" fill="black" r="0.738" stroke="none" /><circle cx="102.3003" cy="599.9532" fill="black" r="0.738" stroke="none" /><circle cx="98.0255" cy="329.5258" fill="black" r="0.738" stroke="none" /><circle cx="98.4816" cy="214.2927" fill="black" r="0.936" stroke="none" /><circle cx="95.3016" cy="210.4929" fill="black" r="0.738" stroke="none" /><circle cx="91.5887" cy="81.1553" fill="black" r="0.738" stroke="none" /><circle cx="75.1457" cy="481.1619" fill="black" r="0.738" stroke="none" /><circle cx="71.7091" cy="710.1169" fill="black" r="0.738" stroke="none" /><circle cx="13.77" cy="786.23" fill="black" r="4.59" stroke="none" /><circle cx="13.77" cy="786.23" fill="black" r="4.59" stroke="none" /><text fill="black" font-family="monospace" font-size="12" x="10.77" y="775.64">1</text><circle cx="37.77" cy="786.23" fill="black" r="3.654" stroke="none" /><circle cx="37.77" cy="786.23" fill="black" r="3.654" stroke="none" /><text fill="black" font-family="monospace" font-size="12" x="34.769999999999996" y="775.64">2</text><circle cx="61.77" cy="786.23" fill="black" r="2.916" stroke="none" /><circle cx="61.77" cy="786.23" fill="black" r="2.916" stroke="none" /><text fill="black" font-family="monospace" font-size="12" x="58.769999999999996" y="775.64">3</text><circle cx="85.77" cy="786.23" fill="black" r="2.322" stroke="none" /><circle cx="85.77" cy="786.23" fill="black" r="2.322" stroke="none" /><text fill="black" font-family="monospace" font-size="12" x="82.77" y="775.64">4</text><circle cx="109.77" cy="786.23" fill="black" r="1.854" stroke="none" /><circle cx="109.77" cy="786.23" fill="black" r="1.854" stroke="none" /><text fill="black" font-family="monospace" font-size="12" x="106.77" y="775.64">5</text><circle cx="133.77" cy="786.23" fill="black" r="1.476" stroke="none" /><circle cx="133.77" cy="786.23" fill="black" r="1.476" stroke="none" /><text fill="black" font-family="monospace" font-size="12" x="130.77" y="775.64">6</text><circle cx="157.77" cy="786.23" fill="black" r="1.17" stroke="none" /><circle cx="157.77" cy="786.23" fill="black" r="1.17" stroke="none" /><text fill="black" font-family="monospace" font-size="12" x="154.77" y="775.64">7</text><circle cx="181.77" cy="786.23" fill="black" r="0.936" stroke="none" /><circle cx="181.77" cy="786.23" fill="black" r="0.936" stroke="none" /><text fill="black" font-family="monospace" font-size="12" x="178.77" y="775.64">8</text><circle cx="205.77" cy="786.23" fill="black" r="0.738" stroke="none" /><circle cx="205.77" cy="786.23" fill="black" r="0.738" stroke="none" /><text fill="black" font-family="monospace" font-size="12" x="202.77" y="775.64">9</text><text fill="gray" fill-opacity="0.5" font-family="monospace" font-size="12" x="669.4260920149042" y="726.1740508527471">09h45m</text><text fill="gray" fill-opacity="0.5" font-family="monospace" font-size="12" x="561.1124726445963" y="726.9398493844436">09h50m</text><text fill="gray" fill-opacity="0.5" font-family="monospace" font-size="12" x="452.8341501871683" y="727.3202648652273">09h55m</text><text fill="gray" fill-opacity="0.5" font-family="monospace" font-size="12" x="344.56740042056754" y="727.3156451212303">10h00m</text><text fill="gray" fill-opacity="0.5" font-family="monospace" font-size="12" x="236.2885087739136" y="726.9259859291587">10h05m</text><text fill="gray" fill-opacity="0.5" font-family="monospace" font-size="12" x="127.97375055043904" y="726.1509310082083">10h10m</text><text fill="gray" fill-opacity="0.5" font-family="monospace" font-size="12" x="68.64274660234628" y="681.8389141919388">+8°</text><text fill="gray" fill-opacity="0.5" font-family="monospace" font-size="12" x="69.6454696113168" y="594.4326330539807">+9°</text><text fill="gray" fill-opacity="0.5" font-family="monospace" font-size="12" x="70.6978736715966" y="507.0571874107499">+10°</text><text fill="gray" fill-opacity="0.5" font-family="monospace" font-size="12" x="71.80007815861558" y="419.69930120520905">+11°</text><text fill="gray" fill-opacity="0.5" font-family="monospace" font-size="12" x="72.9522327613168" y="332.34570903144146">+12°</text><text fill="gray" fill-opacity="0.5" font-family="monospace" font-size="12" x="74.15451755678907" y="244.9831480886702">+13°</text><text fill="gray" fill-opacity="0.5" font-family="monospace" font-size="12" x="75.40714312417072" y="157.5983501386286">+14°</text><text fill="gray" fill-opacity="0.5" font-family="monospace" font-size="12" x="76.71035069797705" y="70.17803345593836">+15°</text><text fill="black" font-family="monospace" font-size="12" x="12" y="48">&gt;&gt; No.476 09h42m 10h13m +7.5°+15.0°</text><a target="_self" xlink:href="hip026.svg"><text fill="black" font-family="monospace" font-size="12" x="12" y="36">&gt; No.26 08h00m 10h40m +0.0°+22.5°</text></a><a target="_self" xlink:href="hip002.svg"><text fill="black" font-family="monospace" font-size="12" x="12" y="24">No.2 00h 24h +0.0°+90.0°</text></a><polyline fill="none" points="723.2896,70.178 715.2659,70.2984 704.7088,70.4522 694.1523,70.6008 683.5965,70.7441 673.0412,70.8822 662.4864,71.015 651.9322,71.1426 641.3785,71.2649 630.8253,71.382 620.2725,71.4938 609.7202,71.6005 599.1683,71.7018 588.6168,71.798 578.0657,71.8889 567.5149,71.9746 556.9645,72.055 546.4144,72.1302 535.8646,72.2002 525.3151,72.2649 514.7658,72.3244 504.2167,72.3787 493.6679,72.4277 483.1192,72.4716 472.5708,72.5102 462.0224,72.5435 451.4742,72.5716 440.9261,72.5945 430.3781,72.6122 419.8301,72.6247 409.2822,72.6319 398.7343,72.6339 388.1863,72.6306 377.6384,72.6221 367.0904,72.6084 356.5424,72.5895 345.9942,72.5654 335.446,72.536 324.8976,72.5014 314.3491,72.4615 303.8004,72.4165 293.2515,72.3662 282.7024,72.3106 272.1531,72.2499 261.6035,72.1839 251.0536,72.1126 240.5034,72.0362 229.9529,71.9545 219.4021,71.8675 208.8509,71.7754 198.2993,71.678 187.7473,71.5753 177.1949,71.4675 166.642,71.3544 156.0887,71.236 145.5348,71.1124 134.9805,70.9836 124.4256,70.8495 113.8702,70.7102 103.3142,70.5656 92.7576,70.4158 82.2004,70.2607 76.7104,70.178" stroke="black" stroke-opacity="0.5" stroke-width="1" /><polyline fill="none" points="731.84,725.5578 731.7205,714.6269 731.6002,703.6969 731.4791,692.7675 731.3573,681.8389 731.2346,670.911 731.1112,659.9837 730.987,649.0571 730.8621,638.1311 730.7364,627.2057 730.6099,616.2808 730.4826,605.3565 730.3545,594.4326 730.2257,583.5093 730.0961,572.5864 729.9657,561.6639 729.8345,550.7419 729.7026,539.8202 729.5699,528.8989 729.4364,517.9779 729.3021,507.0572 729.1671,496.1368 729.0312,485.2166 728.8946,474.2966 728.7573,463.3769 728.6191,452.4573 728.4801,441.5379 728.3404,430.6185 728.1999,419.6993 728.0586,408.7801 727.9166,397.861 727.7737,386.9419 727.6301,376.0228 727.4857,365.1036 727.3405,354.1844 727.1945,343.2651 727.0478,332.3457 726.9002,321.4262 726.7519,310.5064 726.6028,299.5865 726.4529,288.6664 726.3022,277.746 726.1508,266.8254 725.9985,255.9044 725.8455,244.9831 725.6917,234.0615 725.5371,223.1396 725.3817,212.2172 725.2255,201.2944 725.0685,190.3711 724.9107,179.4474 724.7522,168.5231 724.5929,157.5984 724.4327,146.673 724.2718,135.7471 724.1101,124.8206 723.9476,113.8935 723.7843,102.9657 723.6202,92.0372 723.4553,81.108 723.2896,70.178" stroke="black" stroke-opacity="0.5" stroke-width="1" /><polyline fill="none" points="731.84,725.5578 723.6036,725.6464 712.7667,725.7597 701.9306,725.8691 691.0951,725.9746 680.2603,726.0763 669.4261,726.1741 658.5925,726.268 647.7594,726.3581 636.9269,726.4443 626.0949,726.5267 615.2634,726.6052 604.4324,726.6798 593.6018,726.7506 582.7716,726.8175 571.9419,726.8806 561.1125,726.9398 550.2834,726.9952 539.4547,727.0467 528.6263,727.0944 517.7982,727.1382 506.9704,727.1782 496.1428,727.2143 485.3154,727.2466 474.4881,727.275 463.6611,727.2996 452.8342,727.3203 442.0073,727.3371 431.1806,727.3501 420.354,727.3593 409.5274,727.3646 398.7008,727.3661 387.8742,727.3637 377.0476,727.3575 366.221,727.3474 355.3942,727.3334 344.5674,727.3156 333.7404,727.294 322.9134,727.2685 312.0861,727.2392 301.2586,727.206 290.431,727.169 279.603,727.1281 268.7749,727.0833 257.9464,727.0347 247.1176,726.9823 236.2885,726.926 225.459,726.8658 214.6292,726.8018 203.7989,726.734 192.9682,726.6622 182.1371,726.5867 171.3055,726.5072 160.4734,726.4239 149.6407,726.3368 138.8075,726.2458 127.9738,726.1509 117.1394,726.0522 106.3044,725.9496 95.4688,725.8432 84.6325,725.7329 73.7955,725.6187 68.16,725.5578" stroke="black" stroke-opacity="0.5" stroke-width="1" /><polyline fill="none" points="68.16,725.5578 68.2795,714.6269 68.3998,703.6969 68.5209,692.7675 68.6427,681.8389 68.7654,670.911 68.8888,659.9837 69.013,649.0571 69.1379,638.1311 69.2636,627.2057 69.3901,616.2808 69.5174,605.3565 69.6455,594.4326 69.7743,583.5093 69.9039,572.5864 70.0343,561.6639 70.1655,550.7419 70.2974,539.8202 70.4301,528.8989 70.5636,517.9779 70.6979,507.0572 70.8329,496.1368 70.9688,485.2166 71.1054,474.2966 71.2427,463.3769 71.3809,452.4573 71.5199,441.5379 71.6596,430.6185 71.8001,419.6993 71.9414,408.7801 72.0834,397.861 72.2263,386.9419 72.3699,376.0228 72.5143,365.1036 72.6595,354.1844 72.8055,343.2651 72.9522,332.3457 73.0998,321.4262 73.2481,310.5064 73.3972,299.5865 73.5471,288.6664 73.6978,277.746 73.8492,266.8254 74.0015,255.9044 74.1545,244.9831 74.3083,234.0615 74.4629,223.1396 74.6183,212.2172 74.7745,201.2944 74.9315,190.3711 75.0893,179.4474 75.2478,168.5231 75.4071,157.5984 75.5673,146.673 75.7282,135.7471 75.8899,124.8206 76.0524,113.8935 76.2157,102.9657 76.3798,92.0372 76.5447,81.108 76.7104,70.178" stroke="black" stroke-opacity="0.5" stroke-width="1" /></svg>