<?xml version="1.0" encoding="utf-8" ?>
<svg baseProfile="tiny" height="800" version="1.2" width="800" xmlns="http://www.w3.org/2000/svg" xmlns:ev="http://www.w3.org/2001/xml-events" xmlns:xlink="http://www.w3.org/1999/xlink"><defs /><rect fill="none" height="800" stroke="black" stroke-width="2" width="800" x="0" y="0" /><polyline fill="none" points="646.8928,726.3651 646.8039,715.4393 646.7144,704.5142 646.6244,693.5899 646.5338,682.6663 646.4426,671.7433 646.3508,660.821 646.2585,649.8994 646.1656,638.9784 646.0721,628.0579 645.978,617.138 645.8833,606.2186 645.7881,595.2997 645.6923,584.3813 645.5959,573.4633 645.499,562.5458 645.4014,551.6287 645.3033,540.7119 645.2046,529.7955 645.1053,518.8794 645.0055,507.9636 644.905,497.048 644.804,486.1327 644.7024,475.2177 644.6003,464.3028 644.4975,453.388 644.3942,442.4735 644.2903,431.559 644.1858,420.6446 644.0807,409.7303 643.9751,398.816 643.8689,387.9017 643.7621,376.9874 643.6547,366.073 643.5467,355.1586 643.4381,344.2441 643.329,333.3295 643.2193,322.4147 643.109,311.4997 642.9981,300.5846 642.8866,289.6692 642.7746,278.7536 642.6619,267.8377 642.5487,256.9215 642.4349,246.0049 642.3205,235.088 642.2055,224.1708 642.09,213.2531 641.9738,202.335 641.8571,191.4164 641.7398,180.4973 641.6219,169.5778 641.5034,158.6577 641.3843,147.737 641.2646,136.8158 641.1444,125.8939 641.0235,114.9714 640.9021,104.0482 640.78,93.1244 640.6574,82.1998 640.5342,71.2744" stroke="silver" stroke-opacity="0.5" stroke-width="1" /><polyline fill="none" points="538.5885,727.0507 538.5386,716.1291 538.4884,705.2083 538.4379,694.2882 538.387,683.3689 538.3359,672.4502 538.2844,661.5321 538.2326,650.6147 538.1804,639.6979 538.128,628.7816 538.0752,617.8659 538.0221,606.9507 537.9686,596.036 537.9149,585.1218 537.8608,574.2081 537.8064,563.2947 537.7517,552.3817 537.6966,541.4691 537.6412,530.5569 537.5855,519.645 537.5295,508.7333 537.4731,497.8219 537.4165,486.9108 537.3595,475.9998 537.3021,465.0891 537.2445,454.1785 537.1865,443.268 537.1282,432.3576 537.0696,421.4473 537.0106,410.5371 536.9513,399.6269 536.8917,388.7167 536.8318,377.8065 536.7715,366.8962 536.711,355.9859 536.6501,345.0755 536.5888,334.1649 536.5273,323.2542 536.4654,312.3433 536.4031,301.4322 536.3406,290.5208 536.2777,279.6092 536.2145,268.6973 536.151,257.7852 536.0871,246.8726 536.0229,235.9597 535.9584,225.0465 535.8936,214.1328 535.8284,203.2187 535.7629,192.3041 535.6971,181.389 535.6309,170.4734 535.5644,159.5573 535.4976,148.6406 535.4305,137.7233 535.363,126.8054 535.2952,115.8868 535.227,104.9676 535.1586,94.0476 535.0898,83.127 535.0206,72.2055" stroke="silver" stroke-opacity="0.5" stroke-width="1" /><polyline fill="none" points="430.3145,727.351 430.3036,716.4313 430.2926,705.5124 430.2816,694.5941 430.2704,683.6766 430.2593,672.7598 430.248,661.8436 430.2367,650.928 430.2253,640.013 430.2138,629.0986 430.2022,618.1848 430.1906,607.2714 430.1789,596.3586 430.1672,585.4462 430.1554,574.5343 430.1435,563.6227 430.1315,552.7116 430.1195,541.8008 430.1073,530.8904 430.0952,519.9803 430.0829,509.0705 430.0706,498.1609 430.0582,487.2516 430.0457,476.3424 430.0332,465.4335 430.0206,454.5247 430.0079,443.616 429.9951,432.7075 429.9823,421.799 429.9694,410.8906 429.9565,399.9821 429.9434,389.0737 429.9303,378.1653 429.9171,367.2568 429.9039,356.3483 429.8906,345.4396 429.8772,334.5308 429.8637,323.6219 429.8502,312.7128 429.8366,301.8034 429.8229,290.8938 429.8091,279.984 429.7953,269.0739 429.7814,258.1635 429.7675,247.2527 429.7534,236.3416 429.7393,225.4301 429.7251,214.5181 429.7109,203.6058 429.6966,192.6929 429.6822,181.7796 429.6677,170.8657 429.6531,159.9513 429.6385,149.0364 429.6239,138.1208 429.6091,127.2046 429.5943,116.2878 429.5794,105.3703 429.5644,94.452 429.5493,83.5331 429.5342,72.6134" stroke="silver" stroke-opacity="0.5" stroke-width="1" /><polyline fill="none" points="322.0472,727.2663 322.0752,716.3461 322.1035,705.4266 322.1319,694.5079 322.1605,683.5898 322.1892,672.6724 322.2182,661.7557 322.2473,650.8396 322.2767,639.9241 322.3062,629.0092 322.3359,618.0948 322.3657,607.181 322.3958,596.2676 322.426,585.3547 322.4564,574.4423 322.487,563.5302 322.5178,552.6186 322.5488,541.7073 322.5799,530.7963 322.6112,519.8857 322.6427,508.9754 322.6744,498.0653 322.7063,487.1554 322.7384,476.2458 322.7706,465.3363 322.803,454.427 322.8356,443.5179 322.8684,432.6088 322.9014,421.6998 322.9346,410.7909 322.9679,399.882 323.0014,388.9731 323.0351,378.0641 323.069,367.1551 323.1031,356.2461 323.1373,345.3369 323.1718,334.4276 323.2064,323.5182 323.2412,312.6085 323.2762,301.6987 323.3114,290.7886 323.3468,279.8783 323.3823,268.9677 323.418,258.0568 323.4539,247.1455 323.49,236.2339 323.5263,225.3219 323.5628,214.4095 323.5994,203.4966 323.6363,192.5833 323.6733,181.6694 323.7105,170.7551 323.7479,159.8402 323.7855,148.9248 323.8232,138.0087 323.8612,127.092 323.8993,116.1747 323.9377,105.2567 323.9762,94.338 324.0149,83.4186 324.0537,72.4984" stroke="silver" stroke-opacity="0.5" stroke-width="1" /><polyline fill="none" points="213.7628,726.7965 213.8298,715.8734 213.8973,704.951 213.9652,694.0293 214.0335,683.1084 214.1023,672.1881 214.1715,661.2685 214.2411,650.3495 214.3112,639.4311 214.3817,628.5133 214.4527,617.596 214.524,606.6793 214.5959,595.7631 214.6681,584.8473 214.7408,573.932 214.8139,563.0171 214.8875,552.1026 214.9615,541.1884 215.0359,530.2746 215.1108,519.3611 215.1861,508.4479 215.2618,497.535 215.338,486.6223 215.4146,475.7099 215.4916,464.7976 215.5691,453.8854 215.647,442.9734 215.7254,432.0616 215.8042,421.1497 215.8834,410.238 215.9631,399.3263 216.0432,388.4146 216.1238,377.5028 216.2047,366.5911 216.2862,355.6792 216.368,344.7673 216.4503,333.8552 216.5331,322.9429 216.6163,312.0305 216.6999,301.1179 216.784,290.2051 216.8685,279.292 216.9534,268.3786 217.0388,257.465 217.1246,246.5509 217.2109,235.6366 217.2976,224.7218 217.3847,213.8067 217.4723,202.8911 217.5604,191.975 217.6488,181.0585 217.7377,170.1414 217.8271,159.2238 217.9169,148.3056 218.0072,137.3868 218.0979,126.4675 218.189,115.5474 218.2806,104.6267 218.3726,93.7053 218.4651,82.7832 218.558,71.8604" stroke="silver" stroke-opacity="0.5" stroke-width="1" /><polyline fill="none" points="105.4376,725.9412 105.5437,715.0128 105.6504,704.0851 105.7579,693.1581 105.866,682.2319 105.9748,671.3063 106.0843,660.3814 106.1946,649.4572 106.3054,638.5335 106.417,627.6105 106.5293,616.6879 106.6422,605.766 106.7559,594.8445 106.8702,583.9235 106.9852,573.0029 107.101,562.0828 107.2174,551.1631 107.3344,540.2437 107.4522,529.3248 107.5707,518.4061 107.6899,507.4877 107.8097,496.5696 107.9302,485.6517 108.0515,474.7341 108.1734,463.8167 108.296,452.8994 108.4193,441.9822 108.5433,431.0652 108.668,420.1483 108.7934,409.2314 108.9195,398.3146 109.0463,387.3978 109.1737,376.481 109.3019,365.5641 109.4307,354.6471 109.5603,343.7301 109.6905,332.813 109.8215,321.8957 109.9531,310.9782 110.0854,300.0606 110.2184,289.1427 110.3522,278.2246 110.4866,267.3062 110.6217,256.3875 110.7575,245.4685 110.894,234.5491 111.0312,223.6294 111.1691,212.7092 111.3077,201.7886 111.447,190.8676 111.5871,179.9461 111.7278,169.0241 111.8692,158.1015 112.0113,147.1784 112.1541,136.2547 112.2976,125.3304 112.4418,114.4055 112.5867,103.4799 112.7324,92.5536 112.8787,81.6266 113.0257,70.6988" stroke="silver" stroke-opacity="0.5" stroke-width="1" /><polyline fill="none" points="731.3573,681.8389 722.2671,681.9392 711.4461,682.0549 700.6258,682.1667 689.8062,682.2745 678.9872,682.3784 668.1688,682.4783 657.351,682.5743 646.5338,682.6663 635.7171,682.7543 624.9009,682.8384 614.0852,682.9185 603.2699,682.9947 592.4552,683.0669 581.6408,683.1352 570.8268,683.1996 560.0132,683.2599 549.2,683.3164 538.387,683.3689 527.5744,683.4174 516.762,683.462 505.95,683.5026 495.1381,683.5393 484.3264,683.5721 473.515,683.6009 462.7037,683.6257 451.8925,683.6466 441.0814,683.6636 430.2704,683.6766 419.4595,683.6857 408.6487,683.6908 397.8378,683.692 387.027,683.6892 376.2161,683.6825 365.4052,683.6719 354.5942,683.6573 343.7831,683.6387 332.9718,683.6162 322.1605,683.5898 311.3489,683.5594 300.5372,683.5251 289.7252,683.4868 278.913,683.4446 268.1006,683.3984 257.2878,683.3483 246.4748,683.2943 235.6614,683.2363 224.8476,683.1743 214.0335,683.1084 203.219,683.0385 192.404,682.9647 181.5886,682.8869 170.7727,682.8052 159.9563,682.7196 149.1394,682.6299 138.3219,682.5364 127.5039,682.4388 116.6853,682.3373 105.866,682.2319 95.0461,682.1225 84.2256,682.0091 73.4043,681.8918 68.6427,681.8389" stroke="silver" stroke-opacity="0.5" stroke-width="1" /><polyline fill="none" points="730.3545,594.4326 721.2919,594.5377 710.5038,594.659 699.7163,594.7762 688.9295,594.8892 678.1432,594.998 667.3576,595.1027 656.5726,595.2033 645.7881,595.2997 635.0041,595.392 624.2207,595.4801 613.4377,595.5641 602.6552,595.6439 591.8732,595.7196 581.0915,595.7912 570.3103,595.8586 559.5294,595.9219 548.7488,595.981 537.9686,596.036 527.1887,596.0869 516.409,596.1336 505.6297,596.1762 494.8505,596.2147 484.0715,596.249 473.2927,596.2792 462.5141,596.3052 451.7356,596.3271 440.9572,596.3449 430.1789,596.3586 419.4007,596.3681 408.6225,596.3735 397.8444,596.3747 387.0662,596.3718 376.288,596.3648 365.5098,596.3536 354.7314,596.3383 343.953,596.3189 333.1745,596.2953 322.3958,596.2676 311.6169,596.2358 300.8379,596.1998 290.0586,596.1597 279.2791,596.1154 268.4994,596.0671 257.7193,596.0145 246.939,595.9579 236.1583,595.8971 225.3773,595.8321 214.5959,595.7631 203.814,595.6898 193.0318,595.6125 182.2491,595.531 171.466,595.4454 160.6823,595.3556 149.8982,595.2616 139.1135,595.1636 128.3282,595.0614 117.5423,594.955 106.7559,594.8445 95.9688,594.7298 85.181,594.611 74.3926,594.4881 69.6455,594.4326" stroke="silver" stroke-opacity="0.5" stroke-width="1" /><polyline fill="none" points="729.3021,507.0572 720.2685,507.1671 709.5147,507.2939 698.7617,507.4163 688.0093,507.5344 677.2574,507.6482 666.5062,507.7577 655.7556,507.8628 645.0055,507.9636 634.2559,508.06 623.5068,508.1522 612.7582,508.24 602.0101,508.3234 591.2624,508.4025 580.5151,508.4774 569.7682,508.5478 559.0216,508.614 548.2754,508.6758 537.5295,508.7333 526.7839,508.7865 516.0386,508.8353 505.2935,508.8798 494.5486,508.92 483.804,508.9559 473.0595,508.9875 462.3152,509.0147 451.571,509.0376 440.8269,509.0562 430.0829,509.0705 419.339,509.0804 408.5951,509.086 397.8512,509.0873 387.1074,509.0843 376.3635,509.0769 365.6195,509.0653 354.8755,509.0493 344.1314,509.029 333.3871,509.0043 322.6427,508.9754 311.8982,508.9421 301.1535,508.9045 290.4085,508.8626 279.6633,508.8163 268.9179,508.7657 258.1722,508.7108 247.4262,508.6516 236.6798,508.588 225.9331,508.5202 215.1861,508.4479 204.4386,508.3714 193.6907,508.2905 182.9424,508.2054 172.1936,508.1158 161.4443,508.022 150.6945,507.9238 139.9442,507.8213 129.1934,507.7144 118.4419,507.6032 107.6899,507.4877 96.9372,507.3678 86.1838,507.2437 75.4299,507.1151 70.6979,507.0572" stroke="silver" stroke-opacity="0.5" stroke-width="1" /><polyline fill="none" points="728.1999,419.6993 719.1966,419.8139 708.4789,419.9461 697.7619,420.0738 687.0455,420.197 676.3297,420.3157 665.6145,420.4299 654.8999,420.5395 644.1858,420.6446 633.4722,420.7452 622.7592,420.8413 612.0466,420.9328 601.3344,421.0199 590.6227,421.1024 579.9113,421.1804 569.2004,421.2539 558.4898,421.3229 547.7795,421.3874 537.0696,421.4473 526.3599,421.5028 515.6505,421.5537 504.9414,421.6002 494.2325,421.6421 483.5237,421.6795 472.8152,421.7124 462.1068,421.7408 451.3985,421.7647 440.6904,421.7841 429.9823,421.799 419.2743,421.8093 408.5664,421.8152 397.8584,421.8166 387.1505,421.8134 376.4425,421.8057 365.7345,421.7936 355.0264,421.7769 344.3182,421.7557 333.6099,421.73 322.9014,421.6998 312.1928,421.6651 301.484,421.6259 290.775,421.5821 280.0657,421.5339 269.3563,421.4812 258.6465,421.4239 247.9364,421.3621 237.226,421.2958 226.5153,421.2251 215.8042,421.1497 205.0927,421.0699 194.3808,420.9856 183.6685,420.8967 172.9557,420.8034 162.2424,420.7055 151.5286,420.6031 140.8143,420.4962 130.0995,420.3847 119.384,420.2688 108.668,420.1483 97.9514,420.0233 87.2341,419.8938 76.5162,419.7597 71.8001,419.6993" stroke="silver" stroke-opacity="0.5" stroke-width="1" /><polyline fill="none" points="727.0478,332.3457 718.0761,332.465 707.3961,332.6026 696.7168,332.7355 686.0381,332.8637 675.36,332.9872 664.6824,333.106 654.0055,333.2201 643.329,333.3295 632.6531,333.4342 621.9776,333.5341 611.3026,333.6294 600.6281,333.72 589.9539,333.8059 579.2802,333.8871 568.6069,333.9636 557.9339,334.0354 547.2612,334.1025 536.5888,334.1649 525.9167,334.2226 515.2449,334.2756 504.5733,334.3239 493.902,334.3676 483.2308,334.4065 472.5598,334.4408 461.889,334.4703 451.2183,334.4952 440.5477,334.5153 429.8772,334.5308 419.2067,334.5416 408.5363,334.5477 397.8659,334.5491 387.1955,334.5458 376.5251,334.5379 365.8546,334.5252 355.1841,334.5078 344.5134,334.4858 333.8427,334.4591 323.1718,334.4276 312.5007,334.3915 301.8295,334.3507 291.1581,334.3052 280.4864,334.255 269.8145,334.2001 259.1423,334.1405 248.4698,334.0762 237.797,334.0072 227.1238,333.9335 216.4503,333.8552 205.7765,333.7721 195.1022,333.6843 184.4274,333.5919 173.7523,333.4947 163.0766,333.3928 152.4005,333.2863 141.7238,333.175 131.0466,333.059 120.3689,332.9384 109.6905,332.813 99.0116,332.6829 88.332,332.5481 77.6517,332.4086 72.9522,332.3457" stroke="silver" stroke-opacity="0.5" stroke-width="1" /><polyline fill="none" points="725.8455,244.9831 716.9068,245.107 706.2662,245.2499 695.6262,245.388 684.9868,245.5211 674.348,245.6494 663.7098,245.7728 653.0721,245.8913 642.4349,246.0049 631.7982,246.1137 621.1621,246.2175 610.5263,246.3165 599.891,246.4106 589.2561,246.4998 578.6216,246.5841 567.9875,246.6635 557.3537,246.7381 546.7203,246.8078 536.0871,246.8726 525.4543,246.9326 514.8217,246.9876 504.1893,247.0378 493.5571,247.0832 482.9252,247.1236 472.2934,247.1592 461.6617,247.1899 451.0302,247.2157 440.3988,247.2366 429.7675,247.2527 419.1362,247.2639 408.505,247.2703 397.8738,247.2717 387.2425,247.2683 376.6113,247.26 365.98,247.2469 355.3487,247.2288 344.7172,247.2059 334.0856,247.1782 323.4539,247.1455 312.8221,247.108 302.19,247.0656 291.5578,247.0183 280.9253,246.9662 270.2926,246.9092 259.6596,246.8473 249.0264,246.7805 238.3928,246.7089 227.7589,246.6324 217.1246,246.5509 206.49,246.4647 195.8549,246.3735 185.2194,246.2775 174.5835,246.1766 163.9472,246.0707 153.3103,245.9601 142.6729,245.8445 132.035,245.724 121.3965,245.5987 110.7575,245.4685 100.1179,245.3334 89.4776,245.1933 78.8367,245.0485 74.1545,244.9831" stroke="silver" stroke-opacity="0.5" stroke-width="1" /><polyline fill="none" points="724.5929,157.5984 715.6886,157.7268 705.089,157.8749 694.49,158.0181 683.8915,158.1561 673.2937,158.2891 662.6964,158.417 652.0996,158.5399 641.5034,158.6577 630.9076,158.7704 620.3123,158.8781 609.7175,158.9807 599.1231,159.0782 588.5291,159.1707 577.9355,159.2581 567.3422,159.3405 556.7493,159.4178 546.1567,159.4901 535.5644,159.5573 524.9724,159.6194 514.3807,159.6765 503.7891,159.7286 493.1978,159.7755 482.6067,159.8175 472.0157,159.8544 461.4249,159.8862 450.8342,159.913 440.2437,159.9347 429.6531,159.9513 419.0627,159.963 408.4723,159.9695 397.8819,159.971 387.2915,159.9675 376.7011,159.9589 366.1107,159.9453 355.5201,159.9266 344.9295,159.9029 334.3388,159.8741 323.7479,159.8402 313.1569,159.8013 302.5657,159.7574 291.9743,159.7084 281.3827,159.6543 270.7908,159.5952 260.1987,159.531 249.6063,159.4618 239.0135,159.3875 228.4205,159.3082 217.8271,159.2238 207.2333,159.1343 196.6392,159.0398 186.0446,158.9402 175.4496,158.8356 164.8541,158.7259 154.2582,158.6112 143.6617,158.4914 133.0648,158.3665 122.4673,158.2365 111.8692,158.1015 101.2705,157.9614 90.6712,157.8163 80.0713,157.6661 75.4071,157.5984" stroke="silver" stroke-opacity="0.5" stroke-width="1" /><polyline fill="none" points="723.2896,70.178 714.4213,70.3109 703.8642,70.4643 693.3078,70.6124 682.752,70.7553 672.1968,70.893 661.6421,71.0254 651.0879,71.1525 640.5342,71.2744 629.981,71.3911 619.4283,71.5026 608.876,71.6088 598.3242,71.7097 587.7727,71.8054 577.2216,71.8959 566.6709,71.9812 556.1205,72.0612 545.5704,72.136 535.0206,72.2055 524.4711,72.2699 513.9219,72.329 503.3728,72.3828 492.824,72.4314 482.2754,72.4748 471.7269,72.513 461.1786,72.546 450.6304,72.5737 440.0822,72.5961 429.5342,72.6134 418.9863,72.6254 408.4383,72.6322 397.8904,72.6338 387.3425,72.6301 376.7946,72.6212 366.2466,72.6071 355.6985,72.5878 345.1504,72.5632 334.6021,72.5334 324.0537,72.4984 313.5052,72.4581 302.9565,72.4126 292.4076,72.3619 281.8585,72.3059 271.3091,72.2448 260.7595,72.1784 250.2096,72.1067 239.6594,72.0298 229.1089,71.9477 218.558,71.8604 208.0068,71.7678 197.4551,71.67 186.9031,71.5669 176.3507,71.4586 165.7977,71.3451 155.2444,71.2263 144.6905,71.1023 134.1361,70.973 123.5812,70.8385 113.0257,70.6988 102.4697,70.5538 91.913,70.4036 81.3558,70.2481 76.7104,70.178" stroke="silver" stroke-opacity="0.5" stroke-width="1" /><circle cx="728.9871" cy="559.1413" fill="black" r="0.936" stroke="none" /><circle cx="725.4282" cy="288.5931" fill="black" r="0.738" stroke="none" /><circle cx="706.0484" cy="75.5051" fill="black" r="0.738" stroke="none" /><circle cx="702.2074" cy="72.7616" fill="black" r="0.936" stroke="none" /><circle cx="701.1966" cy="398.8942" fill="black" r="0.738" stroke="none" /><circle cx="695.4607" cy="225.8185" fill="black" r="0.738" stroke="none" /><circle cx="696.6913" cy="468.6535" fill="black" r="0.738" stroke="none" /><circle cx="687.6889" cy="393.8991" fill="black" r="0.738" stroke="none" /><circle cx="681.6181" cy="80.8254" fill="black" r="0.738" stroke="none" /><circle cx="682.3665" cy="431.2545" fill="black" r="0.738" stroke="none" /><circle cx="682.9392" cy="725.1771" fill="black" r="0.738" stroke="none" /><circle cx="678.6569" cy="629.7693" fill="black" r="0.738" stroke="none" /><circle cx="670.5162" cy="335.3125" fill="black" r="0.738" stroke="none" /><circle cx="666.19" cy="493.3495" fill="black" r="1.476" stroke="none" /><circle cx="666.6124" cy="644.6513" fill="black" r="0.738" stroke="none" /><circle cx="660.4911" cy="340.5747" fill="black" r="0.738" stroke="none" /><circle cx="643.3316" cy="109.5271" fill="black" r="0.738" stroke="none" /><circle cx="639.9149" cy="265.7698" fill="black" r="0.738" stroke="none" /><circle cx="636.174" cy="191.9134" fill="black" r="0.936" stroke="none" /><circle cx="635.8541" cy="543.3282" fill="black" r="0.738" stroke="none" /><circle cx="633.8379" cy="664.0694" fill="black" r="0.738" stroke="none" /><circle cx="614.4996" cy="367.1293" fill="black" r="0.738" stroke="none" /><circle cx="611.3882" cy="487.3822" fill="black" r="0.738" stroke="none" /><circle cx="606.2133" cy="146.783" fill="black" r="0.738" stroke="none" /><circle cx="599.4075" cy="249.5584" fill="black" r="0.738" stroke="none" /><circle cx="596.2213" cy="100.2183" fill="black" r="0.738" stroke="none" /><circle cx="596.6795" cy="462.3513" fill="black" r="0.738" stroke="none" /><circle cx="595.3371" cy="421.2412" fill="black" r="0.738" stroke="none" /><circle cx="588.1775" cy="157.6887" fill="black" r="0.738" stroke="none" /><circle cx="587.9366" cy="169.3082" fill="black" r="0.936" stroke="none" /><circle cx="588.0291" cy="562.9978" fill="black" r="1.854" stroke="none" /><circle cx="583.353" cy="221.0489" fill="black" r="0.738" stroke="none" /><circle cx="578.6582" cy="592.9249" fill="black" r="0.738" stroke="none" /><circle cx="556.2404" cy="376.5573" fill="black" r="0.738" stroke="none" /><circle cx="552.5495" cy="152.5472" fill="black" r="0.738" stroke="none" /><circle cx="548.59" cy="534.5149" fill="black" r="0.738" stroke="none" /><circle cx="547.2851" cy="680.9673" fill="black" r="0.738" stroke="none" /><circle cx="541.4799" cy="428.7552" fill="black" r="0.738" stroke="none" /><circle cx="537.3618" cy="526.368" fill="black" r="0.738" stroke="none" /><circle cx="533.6932" cy="320.0403" fill="black" r="0.738" stroke="none" /><circle cx="531.3229" cy="436.9268" fill="black" r="0.738" stroke="none" /><circle cx="517.4607" cy="600.1457" fill="black" r="0.738" stroke="none" /><circle cx="512.8614" cy="391.8043" fill="black" r="0.738" stroke="none" /><circle cx="505.9111" cy="407.6318" fill="black" r="0.738" stroke="none" /><circle cx="502.2967" cy="76.7565" fill="black" r="0.936" stroke="none" /><circle cx="503.0758" cy="283.9675" fill="black" r="0.738" stroke="none" /><circle cx="496.8779" cy="713.321" fill="black" r="0.738" stroke="none" /><circle cx="495.3557" cy="644.1502" fill="black" r="0.936" stroke="none" /><circle cx="482.735" cy="524.6705" fill="black" r="0.738" stroke="none" /><circle cx="480.8227" cy="461.8344" fill="black" r="0.738" stroke="none" /><circle cx="478.4344" cy="252.2022" fill="black" r="0.738" stroke="none" /><circle cx="473.8536" cy="101.9451" fill="black" r="0.738" stroke="none" /><circle cx="469.1947" cy="151.8296" fill="black" r="1.17" stroke="none" /><circle cx="469.8418" cy="561.2811" fill="black" r="0.738" stroke="none" /><circle cx="468.2337" cy="115.2401" fill="black" r="0.936" stroke="none" /><circle cx="464.1475" cy="594.119" fill="black" r="0.738" stroke="none" /><circle cx="458.2102" cy="194.3835" fill="black" r="0.936" stroke="none" /><circle cx="451.5988" cy="197.6299" fill="black" r="0.936" stroke="none" /><circle cx="446.6313" cy="391.6662" fill="black" r="0.738" stroke="none" /><circle cx="439.1894" cy="91.9035" fill="black" r="0.738" stroke="none" /><circle cx="428.3099" cy="169.6451" fill="black" r="0.738" stroke="none" /><circle cx="426.8704" cy="395.4477" fill="black" r="0.738" stroke="none" /><circle cx="421.7087" cy="269.8683" fill="black" r="1.17" stroke="none" /><circle cx="422.1153" cy="650.1494" fill="black" r="0.738" stroke="none" /><circle cx="421.3603" cy="83.8923" fill="black" r="0.738" stroke="none" /><circle cx="420.4642" cy="307.4862" fill="black" r="0.738" stroke="none" /><circle cx="419.7689" cy="291.6026" fill="black" r="0.738" stroke="none" /><circle cx="418.6176" cy="461.3424" fill="black" r="0.738" stroke="none" /><circle cx="418.2467" cy="422.2464" fill="black" r="0.738" stroke="none" /><circle cx="408.6016" cy="278.7794" fill="black" r="0.738" stroke="none" /><circle cx="408.4793" cy="696.3552" fill="black" r="0.738" stroke="none" /><circle cx="406.0428" cy="629.2885" fill="black" r="0.738" stroke="none" /><circle cx="405.1615" cy="532.3032" fill="black" r="0.936" stroke="none" /><circle cx="403.9478" cy="469.4649" fill="black" r="0.936" stroke="none" /><circle cx="402.1294" cy="281.5738" fill="black" r="0.738" stroke="none" /><circle cx="397.5377" cy="208.863" fill="black" r="0.738" stroke="none" /><circle cx="394.5479" cy="702.6447" fill="black" r="0.738" stroke="none" /><circle cx="383.9625" cy="595.5845" fill="black" r="0.738" stroke="none" /><circle cx="383.2764" cy="323.5473" fill="black" r="0.738" stroke="none" /><circle cx="378.0507" cy="346.6698" fill="black" r="0.738" stroke="none" /><circle cx="376.9633" cy="152.2751" fill="black" r="0.738" stroke="none" /><circle cx="376.7373" cy="125.7276" fill="black" r="0.738" stroke="none" /><circle cx="376.4305" cy="257.8214" fill="black" r="0.738" stroke="none" /><circle cx="373.2631" cy="201.165" fill="black" r="0.738" stroke="none" /><circle cx="365.8554" cy="459.7558" fill="black" r="0.738" stroke="none" /><circle cx="364.7094" cy="482.5323" fill="black" r="0.738" stroke="none" /><circle cx="349.07" cy="580.0909" fill="black" r="0.738" stroke="none" /><circle cx="346.0953" cy="276.6245" fill="black" r="0.738" stroke="none" /><circle cx="344.4664" cy="75.9686" fill="black" r="0.738" stroke="none" /><circle cx="329.4422" cy="505.5902" fill="black" r="0.738" stroke="none" /><circle cx="326.5325" cy="699.4105" fill="black" r="0.738" stroke="none" /><circle cx="318.3323" cy="541.5204" fill="black" r="0.738" stroke="none" /><circle cx="308.6273" cy="211.1243" fill="black" r="0.738" stroke="none" /><circle cx="307.0243" cy="293.6108" fill="black" r="0.936" stroke="none" /><circle cx="303.9381" cy="79.3191" fill="black" r="0.738" stroke="none" /><circle cx="301.948" cy="368.7386" fill="black" r="0.738" stroke="none" /><circle cx="298.8029" cy="427.9865" fill="black" r="0.738" stroke="none" /><circle cx="288.5503" cy="628.8978" fill="black" r="0.738" stroke="none" /><circle cx="284.2402" cy="692.6378" fill="black" r="0.936" stroke="none" /><circle cx="282.3624" cy="425.1231" fill="black" r="0.738" stroke="none" /><circle cx="281.8662" cy="117.0351" fill="black" r="0.738" stroke="none" /><circle cx="272.9652" cy="225.0103" fill="black" r="0.738" stroke="none" /><circle cx="270.257" cy="684.8056" fill="black" r="0.738" stroke="none" /><circle cx="269.9441" cy="457.707" fill="black" r="1.17" stroke="none" /><circle cx="267.233" cy="369.4493" fill="black" r="0.738" stroke="none" /><circle cx="264.3844" cy="608.8834" fill="black" r="0.738" stroke="none" /><circle cx="261.5069" cy="323.7667" fill="black" r="0.738" stroke="none" /><circle cx="257.4426" cy="705.2766" fill="black" r="0.738" stroke="none" /><circle cx="234.064" cy="330.4901" fill="black" r="0.738" stroke="none" /><circle cx="232.2648" cy="111.0303" fill="black" r="0.738" stroke="none" /><circle cx="225.555" cy="125.2179" fill="black" r="1.854" stroke="none" /><circle cx="223.0441" cy="415.1777" fill="black" r="0.738" stroke="none" /><circle cx="218.7936" cy="508.9965" fill="black" r="0.738" stroke="none" /><circle cx="218.1893" cy="509.3416" fill="black" r="0.738" stroke="none" /><circle cx="217.2944" cy="279.2953" fill="black" r="0.738" stroke="none" /><circle cx="209.4567" cy="79.5588" fill="black" r="0.738" stroke="none" /><circle cx="205.428" cy="433.2949" fill="black" r="0.738" stroke="none" /><circle cx="201.1925" cy="576.1961" fill="black" r="0.738" stroke="none" /><circle cx="202.7323" cy="309.2138" fill="black" r="0.738" stroke="none" /><circle cx="194.1647" cy="415.9201" fill="black" r="0.738" stroke="none" /><circle cx="182.2078" cy="472.137" fill="black" r="0.738" stroke="none" /><circle cx="185.5207" cy="100.0445" fill="black" r="0.738" stroke="none" /><circle cx="177.6465" cy="677.7895" fill="black" r="0.738" stroke="none" /><circle cx="170.258" cy="638.2402" fill="black" r="0.738" stroke="none" /><circle cx="174.4533" cy="99.3199" fill="black" r="0.738" stroke="none" /><circle cx="171.1256" cy="234.4393" fill="black" r="0.936" stroke="none" /><circle cx="169.8217" cy="170.2229" fill="black" r="0.738" stroke="none" /><circle cx="166.3492" cy="219.0187" fill="black" r="0.738" stroke="none" /><circle cx="160.0544" cy="471.6813" fill="black" r="0.738" stroke="none" /><circle cx="149.0667" cy="383.8147" fill="black" r="0.738" stroke="none" /><circle cx="144.621" cy="549.9652" fill="black" r="0.738" stroke="none" /><circle cx="138.2067" cy="432.3466" fill="black" r="1.17" stroke="none" /><circle cx="140.1733" cy="81.451" fill="black" r="0.738" stroke="none" /><circle cx="130.0466" cy="300.3821" fill="black" r="0.738" stroke="none" /><circle cx="124.1768" cy="405.299" fill="black" r="0.738" stroke="none" /><circle cx="105.84" cy="684.8541" fill="black" r="0.738" stroke="none" /><circle cx="103.0448" cy="554.5256" fill="black" r="0.738" stroke="none" /><circle cx="86.403" cy="349.6463" fill="black" r="0.738" stroke="none" /><circle cx="84.6155" cy="130.5436" fill="black" r="0.738" stroke="none" /><circle cx="80.3417" cy="415.6147" fill="black" r="0.738" stroke="none" /><circle cx="82.8371" cy="189.9592" fill="black" r="0.738" stroke="none" /><circle cx="79.3901" cy="117.1781" fill="black" r="0.738" stroke="none" /><circle cx="13.77" cy="786.23" fill="black" r="4.59" stroke="none" /><circle cx="13.77" cy="786.23" fill="black" r="4.59" stroke="none" /><text fill="black" font-family="monospace" font-size="12" x="10.77" y="775.64">1</text><circle cx="37.77" cy="786.23" fill="black" r="3.654" stroke="none" /><circle cx="37.77" cy="786.23" fill="black" r="3.654" stroke="none" /><text fill="black" font-family="monospace" font-size="12" x="34.769999999999996" y="775.64">2</text><circle cx="61.77" cy="786.23" fill="black" r="2.916" stroke="none" /><circle cx="61.77" cy="786.23" fill="black" r="2.916" stroke="none" /><text fill="black" font-family="monospace" font-size="12" x="58.769999999999996" y="775.64">3</text><circle cx="85.77" cy="786.23" fill="black" r="2.322" stroke="none" /><circle cx="85.77" cy="786.23" fill="black" r="2.322" stroke="none" /><text fill="black" font-family="monospace" font-size="12" x="82.77" y="775.64">4</text><circle cx="109.77" cy="786.23" fill="black" r="1.854" stroke="none" /><circle cx="109.77" cy="786.23" fill="black" r="1.854" stroke="none" /><text fill="black" font-family="monospace" font-size="12" x="106.77" y="775.64">5</text><circle cx="133.77" cy="786.23" fill="black" r="1.476" stroke="none" /><circle cx="133.77" cy="786.23" fill="black" r="1.476" stroke="none" /><text fill="black" font-family="monospace" font-size="12" x="130.77" y="775.64">6</text><circle cx="157.77" cy="786.23" fill="black" r="1.17" stroke="none" /><circle cx="157.77" cy="786.23" fill="black" r="1.17" stroke="none" /><text fill="black" font-family="monospace" font-size="12" x="154.77" y="775.64">7</text><circle cx="181.77" cy="786.23" fill="black" r="0.936" stroke="none" /><circle cx="181.77" cy="786.23" fill="black" r="0.936" stroke="none" /><text fill="black" font-family="monospace" font-size="12" x="178.77" y="775.64">8</text><circle cx="205.77" cy="786.23" fill="black" r="0.738" stroke="none" /><circle cx="205.77" cy="786.23" fill="black" r="0.738" stroke="none" /><text fill="black" font-family="monospace" font-size="12" x="202.77" y="775.64">9</text><text fill="gray" fill-opacity="0.5" font-family="monospace" font-size="12" x="646.8927837439475" y="726.3651093959512">16h55m</text><text fill="gray" fill-opacity="0.5" font-family="monospace" font-size="12" x="538.5884614025238" y="727.0507022648089">17h00m</text><text fill="gray" fill-opacity="0.5" font-family="monospace" font-size="12" x="430.31449956751817" y="727.3510134509338">17h05m</text><text fill="gray" fill-opacity="0.5" font-family="monospace" font-size="12" x="322.0471776536098" y="727.2663175217001">17h10m</text><text fill="gray" fill-opacity="0.5" font-family="monospace" font-size="12" x="213.76278061280908" y="726.7965370488572">17h15m</text><text fill="gray" fill-opacity="0.5" font-family="monospace" font-size="12" x="105.43757915657147" y="725.941242460328">17h20m</text><text fill="gray" fill-opacity="0.5" font-family="monospace" font-size="12" x="68.64274660234406" y="681.8389141919388">+8°</text><text fill="gray" fill-opacity="0.5" font-family="monospace" font-size="12" x="69.64546961131464" y="594.4326330539807">+9°</text><text fill="gray" fill-opacity="0.5" font-family="monospace" font-size="12" x="70.69787367159438" y="507.0571874107499">+10°</text><text fill="gray" fill-opacity="0.5" font-family="monospace" font-size="12" x="71.80007815861342" y="419.69930120520905">+11°</text><text fill="gray" fill-opacity="0.5" font-family="monospace" font-size="12" x="72.95223276131458" y="332.34570903144146">+12°</text><text fill="gray" fill-opacity="0.5" font-family="monospace" font-size="12" x="74.15451755678691" y="244.9831480886702">+13°</text><text fill="gray" fill-opacity="0.5" font-family="monospace" font-size="12" x="75.40714312416856" y="157.5983501386286">+14°</text><text fill="gray" fill-opacity="0.5" font-family="monospace" font-size="12" x="76.71035069797495" y="70.17803345593836">+15°</text><text fill="black" font-family="monospace" font-size="12" x="12" y="48">&gt;&gt; No.490 16h51m 17h22m +7.5°+15.0°</text><a target="_self" xlink:href="hip029.svg"><text fill="black" font-family="monospace" font-size="12" x="12" y="36">&gt; No.29 16h00m 18h40m +0.0°+22.5°</text></a><a target="_self" xlink:href="hip002.svg"><text fill="black" font-family="monospace" font-size="12" x="12" y="24">No.2 00h 24h +0.0°+90.0°</text></a><polyline fill="none" points="723.2896,70.178 714.4213,70.3109 703.8642,70.4643 693.3078,70.6124 682.752,70.7553 672.1968,70.893 661.6421,71.0254 651.0879,71.1525 640.5342,71.2744 629.981,71.3911 619.4283,71.5026 608.876,71.6088 598.3242,71.7097 587.7727,71.8054 577.2216,71.8959 566.6709,71.9812 556.1205,72.0612 545.5704,72.136 535.0206,72.2055 524.4711,72.2699 513.9219,72.329 503.3728,72.3828 492.824,72.4314 482.2754,72.4748 471.7269,72.513 461.1786,72.546 450.6304,72.5737 440.0822,72.5961 429.5342,72.6134 418.9863,72.6254 408.4383,72.6322 397.8904,72.6338 387.3425,72.6301 376.7946,72.6212 366.2466,72.6071 355.6985,72.5878 345.1504,72.5632 334.6021,72.5334 324.0537,72.4984 313.5052,72.4581 302.9565,72.4126 292.4076,72.3619 281.8585,72.3059 271.3091,72.2448 260.7595,72.1784 250.2096,72.1067 239.6594,72.0298 229.1089,71.9477 218.558,71.8604 208.0068,71.7678 197.4551,71.67 186.9031,71.5669 176.3507,71.4586 165.7977,71.3451 155.2444,71.2263 144.6905,71.1023 134.1361,70.973 123.5812,70.8385 113.0257,70.6988 102.4697,70.5538 91.913,70.4036 81.3558,70.2481 76.7104,70.178" stroke="black" stroke-opacity="0.5" stroke-width="1" /><polyline fill="none" points="731.84,725.5578 731.7205,714.6269 731.6002,703.6969 731.4791,692.7675 731.3573,681.8389 731.2346,670.911 731.1112,659.9837 730.987,649.0571 730.8621,638.1311 730.7364,627.2057 730.6099,616.2808 730.4826,605.3565 730.3545,594.4326 730.2257,583.5093 730.0961,572.5864 729.9657,561.6639 729.8345,550.7419 729.7026,539.8202 729.5699,528.8989 729.4364,517.9779 729.3021,507.0572 729.1671,496.1368 729.0312,485.2166 728.8946,474.2966 728.7573,463.3769 728.6191,452.4573 728.4801,441.5379 728.3404,430.6185 728.1999,419.6993 728.0586,408.7801 727.9166,397.861 727.7737,386.9419 727.6301,376.0228 727.4857,365.1036 727.3405,354.1844 727.1945,343.2651 727.0478,332.3457 726.9002,321.4262 726.7519,310.5064 726.6028,299.5865 726.4529,288.6664 726.3022,277.746 726.1508,266.8254 725.9985,255.9044 725.8455,244.9831 725.6917,234.0615 725.5371,223.1396 725.3817,212.2172 725.2255,201.2944 725.0685,190.3711 724.9107,179.4474 724.7522,168.5231 724.5929,157.5984 724.4327,146.673 724.2718,135.7471 724.1101,124.8206 723.9476,113.8935 723.7843,102.9657 723.6202,92.0372 723.4553,81.108 723.2896,70.178" stroke="black" stroke-opacity="0.5" stroke-width="1" /><polyline fill="none" points="731.84,725.5578 722.7366,725.6556 711.8998,725.7686 701.0637,725.8777 690.2283,725.9829 679.3935,726.0842 668.5594,726.1817 657.7258,726.2753 646.8928,726.3651 636.0603,726.451 625.2284,726.5331 614.3969,726.6113 603.5659,726.6856 592.7353,726.7561 581.9052,726.8227 571.0755,726.8855 560.2461,726.9444 549.4171,726.9995 538.5885,727.0507 527.7601,727.0981 516.932,727.1416 506.1042,727.1812 495.2766,727.217 484.4492,727.249 473.622,727.2771 462.7949,727.3014 451.968,727.3218 441.1412,727.3383 430.3145,727.351 419.4879,727.3599 408.6613,727.3649 397.8347,727.366 387.0081,727.3633 376.1815,727.3568 365.3548,727.3464 354.5281,727.3321 343.7012,727.3141 332.8743,727.2921 322.0472,727.2663 311.2199,727.2367 300.3924,727.2032 289.5647,727.1658 278.7368,727.1246 267.9086,727.0796 257.0801,727.0307 246.2513,726.9779 235.4222,726.9213 224.5927,726.8609 213.7628,726.7965 202.9325,726.7284 192.1018,726.6563 181.2706,726.5805 170.4389,726.5007 159.6068,726.4171 148.7741,726.3297 137.9408,726.2383 127.107,726.1432 116.2726,726.0441 105.4376,725.9412 94.6019,725.8345 83.7656,725.7239 72.9285,725.6094 68.16,725.5578" stroke="black" stroke-opacity="0.5" stroke-width="1" /><polyline fill="none" points="68.16,725.5578 68.2795,714.6269 68.3998,703.6969 68.5209,692.7675 68.6427,681.8389 68.7654,670.911 68.8888,659.9837 69.013,649.0571 69.1379,638.1311 69.2636,627.2057 69.3901,616.2808 69.5174,605.3565 69.6455,594.4326 69.7743,583.5093 69.9039,572.5864 70.0343,561.6639 70.1655,550.7419 70.2974,539.8202 70.4301,528.8989 70.5636,517.9779 70.6979,507.0572 70.8329,496.1368 70.9688,485.2166 71.1054,474.2966 71.2427,463.3769 71.3809,452.4573 71.5199,441.5379 71.6596,430.6185 71.8001,419.6993 71.9414,408.7801 72.0834,397.861 72.2263,386.9419 72.3699,376.0228 72.5143,365.1036 72.6595,354.1844 72.8055,343.2651 72.9522,332.3457 73.0998,321.4262 73.2481,310.5064 73.3972,299.5865 73.5471,288.6664 73.6978,277.746 73.8492,266.8254 74.0015,255.9044 74.1545,244.9831 74.3083,234.0615 74.4629,223.1396 74.6183,212.2172 74.7745,201.2944 74.9315,190.3711 75.0893,179.4474 75.2478,168.5231 75.4071,157.5984 75.5673,146.673 75.7282,135.7471 75.8899,124.8206 76.0524,113.8935 76.2157,102.9657 76.3798,92.0372 76.5447,81.108 76.7104,70.178" stroke="black" stroke-opacity="0.5" stroke-width="1" /></svg>