<?xml version="1.0" encoding="utf-8" ?>
<svg baseProfile="tiny" height="800" version="1.2" width="800" xmlns="http://www.w3.org/2000/svg" xmlns:ev="http://www.w3.org/2001/xml-events" xmlns:xlink="http://www.w3.org/1999/xlink"><defs /><rect fill="none" height="800" stroke="black" stroke-width="2" width="800" x="0" y="0" /><polyline fill="none" points="683.294,726.0482 683.192,715.1204 683.0893,704.1933 682.986,693.2671 682.882,682.3415 682.7773,671.4166 682.672,660.4923 682.566,649.5687 682.4594,638.6457 682.3521,627.7233 682.2441,616.8015 682.1355,605.8801 682.0262,594.9593 681.9163,584.039 681.8056,573.1191 681.6944,562.1996 681.5824,551.2805 681.4698,540.3619 681.3565,529.4435 681.2426,518.5255 681.128,507.6078 681.0128,496.6903 680.8968,485.7731 680.7803,474.8561 680.663,463.9393 680.5451,453.0227 680.4265,442.1062 680.3072,431.1898 680.1873,420.2735 680.0668,409.3573 679.9455,398.4411 679.8236,387.5249 679.701,376.6087 679.5778,365.6925 679.4539,354.7762 679.3293,343.8598 679.204,332.9433 679.0781,322.0266 678.9515,311.1098 678.8242,300.1928 678.6963,289.2755 678.5677,278.358 678.4385,267.4403 678.3085,256.5222 678.1779,245.6038 678.0466,234.6851 677.9147,223.7659 677.7821,212.8464 677.6488,201.9265 677.5148,191.006 677.3801,180.0852 677.2448,169.1638 677.1088,158.2418 676.9722,147.3193 676.8348,136.3962 676.6968,125.4726 676.5581,114.5482 676.4188,103.6232 676.2787,92.6976 676.138,81.7712 675.9966,70.844" stroke="silver" stroke-opacity="0.5" stroke-width="1" /><polyline fill="none" points="574.9741,726.8633 574.9112,715.9406 574.8478,705.0186 574.784,694.0974 574.7198,683.1769 574.6552,672.257 574.5902,661.3378 574.5247,650.4192 574.4589,639.5012 574.3927,628.5838 574.326,617.667 574.259,606.7506 574.1915,595.8348 574.1236,584.9195 574.0553,574.0045 573.9866,563.09 573.9175,552.1759 573.848,541.2622 573.7781,530.3488 573.7077,519.4357 573.637,508.523 573.5658,497.6104 573.4943,486.6981 573.4223,475.7861 573.3499,464.8742 573.2771,453.9625 573.2039,443.0509 573.1303,432.1394 573.0563,421.228 572.9818,410.3166 572.907,399.4053 572.8317,388.494 572.756,377.5827 572.68,366.6713 572.6035,355.7598 572.5265,344.8483 572.4492,333.9366 572.3715,323.0248 572.2933,312.1127 572.2148,301.2005 572.1358,290.2881 572.0564,279.3754 571.9766,268.4624 571.8964,257.5491 571.8158,246.6355 571.7347,235.7215 571.6533,224.8072 571.5714,213.8924 571.4891,202.9772 571.4064,192.0615 571.3233,181.1453 571.2397,170.2287 571.1558,159.3114 571.0714,148.3937 570.9866,137.4753 570.9014,126.5563 570.8158,115.6366 570.7297,104.7163 570.6433,93.7953 570.5564,82.8736 570.4691,71.9511" stroke="silver" stroke-opacity="0.5" stroke-width="1" /><polyline fill="none" points="466.6926,727.2931 466.6686,716.373 466.6445,705.4537 466.6202,694.5351 466.5957,683.6172 466.5711,672.7 466.5463,661.7835 466.5214,650.8675 466.4963,639.9522 466.4711,629.0374 466.4457,618.1232 466.4201,607.2095 466.3944,596.2963 466.3685,585.3836 466.3425,574.4713 466.3163,563.5594 466.29,552.648 466.2635,541.7368 466.2369,530.8261 466.2101,519.9156 466.1831,509.0054 466.156,498.0955 466.1287,487.1858 466.1013,476.2763 466.0737,465.367 466.046,454.4579 466.0181,443.5489 465.99,432.64 465.9618,421.7311 465.9334,410.8224 465.9049,399.9136 465.8762,389.0049 465.8474,378.0961 465.8184,367.1873 465.7893,356.2784 465.7599,345.3693 465.7305,334.4602 465.7009,323.5509 465.6711,312.6415 465.6411,301.7318 465.6111,290.8219 465.5808,279.9117 465.5504,269.0012 465.5198,258.0905 465.4891,247.1794 465.4582,236.2679 465.4272,225.3561 465.396,214.4438 465.3646,203.5311 465.3331,192.6179 465.3014,181.7042 465.2696,170.79 465.2376,159.8753 465.2054,148.96 465.1731,138.0441 465.1407,127.1276 465.108,116.2104 465.0753,105.2926 465.0423,94.374 465.0092,83.4547 464.9759,72.5347" stroke="silver" stroke-opacity="0.5" stroke-width="1" /><polyline fill="none" points="358.4257,727.3377 358.4407,716.4179 358.4557,705.4989 358.4709,694.5806 358.4861,683.663 358.5015,672.7461 358.5169,661.8298 358.5325,650.9141 358.5481,639.9991 358.5638,629.0846 358.5797,618.1706 358.5956,607.2572 358.6116,596.3443 358.6278,585.4318 358.644,574.5198 358.6603,563.6082 358.6767,552.697 358.6932,541.7862 358.7098,530.8756 358.7265,519.9655 358.7433,509.0555 358.7602,498.1459 358.7772,487.2365 358.7943,476.3273 358.8115,465.4182 358.8288,454.5094 358.8462,443.6006 358.8637,432.692 358.8813,421.7834 358.899,410.8749 358.9167,399.9664 358.9346,389.0579 358.9526,378.1494 358.9707,367.2409 358.9888,356.3322 359.0071,345.4235 359.0255,334.5146 359.0439,323.6056 359.0625,312.6964 359.0812,301.787 359.0999,290.8773 359.1188,279.9674 359.1377,269.0572 359.1568,258.1467 359.176,247.2359 359.1952,236.3247 359.2146,225.4131 359.234,214.5011 359.2536,203.5886 359.2732,192.6757 359.2929,181.7623 359.3128,170.8484 359.3327,159.9339 359.3528,149.0189 359.3729,138.1032 359.3931,127.1869 359.4135,116.27 359.4339,105.3524 359.4545,94.4341 359.4751,83.5151 359.4958,72.5953" stroke="silver" stroke-opacity="0.5" stroke-width="1" /><polyline fill="none" points="250.1497,726.9974 250.2036,716.0755 250.2579,705.1543 250.3125,694.2339 250.3675,683.3142 250.4229,672.3952 250.4785,661.4768 250.5346,650.559 250.5909,639.6419 250.6477,628.7253 250.7047,617.8093 250.7622,606.8938 250.8199,595.9787 250.8781,585.0642 250.9365,574.1501 250.9954,563.2364 251.0545,552.3231 251.1141,541.4102 251.174,530.4977 251.2342,519.5854 251.2948,508.6734 251.3557,497.7617 251.417,486.8502 251.4786,475.939 251.5406,465.0279 251.6029,454.117 251.6656,443.2062 251.7287,432.2955 251.7921,421.3849 251.8558,410.4743 251.9199,399.5638 251.9844,388.6533 252.0492,377.7428 252.1143,366.8322 252.1798,355.9215 252.2457,345.0108 252.3119,334.0999 252.3785,323.1888 252.4454,312.2776 252.5127,301.3662 252.5803,290.4546 252.6483,279.5426 252.7166,268.6305 252.7853,257.718 252.8544,246.8051 252.9238,235.8919 252.9935,224.9783 253.0637,214.0643 253.1341,203.1499 253.205,192.235 253.2761,181.3196 253.3477,170.4037 253.4196,159.4873 253.4918,148.5703 253.5644,137.6527 253.6374,126.7344 253.7107,115.8156 253.7844,104.896 253.8584,93.9758 253.9328,83.0548 254.0076,72.1331" stroke="silver" stroke-opacity="0.5" stroke-width="1" /><polyline fill="none" points="141.8409,726.2717 141.9338,715.3453 142.0274,704.4196 142.1215,693.4947 142.2163,682.5705 142.3116,671.647 142.4076,660.7241 142.5042,649.8019 142.6013,638.8803 142.6991,627.9592 142.7975,617.0388 142.8964,606.1188 142.996,595.1994 143.0962,584.2804 143.197,573.3618 143.2984,562.4437 143.4004,551.526 143.503,540.6087 143.6062,529.6917 143.71,518.775 143.8144,507.8587 143.9194,496.9426 144.0251,486.0267 144.1313,475.1111 144.2381,464.1956 144.3456,453.2803 144.4536,442.3652 144.5623,431.4501 144.6715,420.5352 144.7814,409.6203 144.8919,398.7054 145.0029,387.7906 145.1146,376.8757 145.2269,365.9608 145.3398,355.0459 145.4534,344.1308 145.5675,333.2156 145.6822,322.3003 145.7976,311.3848 145.9135,300.4691 146.0301,289.5531 146.1472,278.637 146.265,267.7205 146.3834,256.8037 146.5024,245.8867 146.622,234.9692 146.7423,224.0514 146.8631,213.1332 146.9846,202.2145 147.1066,191.2954 147.2293,180.3758 147.3526,169.4557 147.4765,158.5351 147.601,147.6139 147.7262,136.6921 147.8519,125.7697 147.9783,114.8466 148.1053,103.9229 148.2329,92.9985 148.3611,82.0734 148.49,71.1475" stroke="silver" stroke-opacity="0.5" stroke-width="1" /><polyline fill="none" points="731.3573,681.8389 726.1628,681.8966 715.3416,682.0137 704.5211,682.1269 693.7012,682.2362 682.882,682.3415 672.0634,682.4428 661.2454,682.5402 650.4279,682.6336 639.611,682.7231 628.7947,682.8086 617.9788,682.8901 607.1634,682.9677 596.3484,683.0414 585.5339,683.1111 574.7198,683.1769 563.9061,683.2387 553.0927,683.2965 542.2796,683.3504 531.4669,683.4004 520.6545,683.4464 509.8423,683.4884 499.0303,683.5266 488.2186,683.5607 477.4071,683.5909 466.5957,683.6172 455.7845,683.6396 444.9734,683.6579 434.1624,683.6724 423.3515,683.6829 412.5406,683.6894 401.7297,683.692 390.9189,683.6907 380.108,683.6854 369.2971,683.6762 358.4861,683.663 347.6751,683.6459 336.8639,683.6248 326.0526,683.5998 315.2411,683.5708 304.4294,683.5379 293.6176,683.5011 282.8055,683.4603 271.9931,683.4155 261.1805,683.3668 250.3675,683.3142 239.5543,683.2576 228.7406,683.1971 217.9266,683.1326 207.1123,683.0641 196.2975,682.9917 185.4822,682.9154 174.6665,682.8351 163.8503,682.7509 153.0335,682.6627 142.2163,682.5705 131.3984,682.4744 120.58,682.3743 109.761,682.2703 98.9414,682.1623 88.121,682.0504 77.3,681.9345 68.6427,681.8389" stroke="silver" stroke-opacity="0.5" stroke-width="1" /><polyline fill="none" points="730.3545,594.4326 725.1758,594.493 714.3874,594.6158 703.5997,594.7345 692.8126,594.849 682.0262,594.9593 671.2404,595.0655 660.4551,595.1676 649.6705,595.2655 638.8863,595.3592 628.1027,595.4489 617.3196,595.5343 606.5369,595.6157 595.7547,595.6929 584.9729,595.7659 574.1915,595.8348 563.4105,595.8996 552.6298,595.9602 541.8495,596.0167 531.0694,596.0691 520.2897,596.1173 509.5102,596.1614 498.731,596.2013 487.9519,596.2371 477.1731,596.2688 466.3944,596.2963 455.6159,596.3197 444.8374,596.339 434.0591,596.3541 423.2809,596.3651 412.5027,596.372 401.7245,596.3747 390.9463,596.3733 380.1682,596.3678 369.3899,596.3581 358.6116,596.3443 347.8333,596.3264 337.0548,596.3043 326.2761,596.2781 315.4973,596.2477 304.7184,596.2132 293.9392,596.1746 283.1598,596.1318 272.3801,596.0849 261.6002,596.0339 250.8199,595.9787 240.0394,595.9194 229.2585,595.856 218.4772,595.7884 207.6955,595.7167 196.9135,595.6408 186.1309,595.5608 175.348,595.4767 164.5645,595.3884 153.7805,595.2959 142.996,595.1994 132.211,595.0986 121.4253,594.9938 110.6391,594.8847 99.8522,594.7716 89.0647,594.6543 78.2765,594.5328 69.6455,594.4326" stroke="silver" stroke-opacity="0.5" stroke-width="1" /><polyline fill="none" points="729.3021,507.0572 724.14,507.1203 713.386,507.2487 702.6327,507.3727 691.8801,507.4924 681.128,507.6078 670.3766,507.7188 659.6257,507.8255 648.8755,507.9278 638.1257,508.0258 627.3764,508.1195 616.6277,508.2088 605.8794,508.2939 595.1315,508.3746 584.3841,508.4509 573.637,508.523 562.8903,508.5907 552.144,508.654 541.398,508.7131 530.6523,508.7678 519.9068,508.8182 509.1617,508.8643 498.4167,508.9061 487.672,508.9435 476.9275,508.9766 466.1831,509.0054 455.4389,509.0299 444.6948,509.05 433.9507,509.0658 423.2068,509.0773 412.4629,509.0845 401.719,509.0873 390.9752,509.0859 380.2313,509.0801 369.4873,509.07 358.7433,509.0555 347.9993,509.0368 337.2551,509.0137 326.5107,508.9863 315.7663,508.9546 305.0216,508.9185 294.2767,508.8781 283.5316,508.8335 272.7863,508.7844 262.0407,508.7311 251.2948,508.6734 240.5485,508.6114 229.802,508.5451 219.055,508.4744 208.3077,508.3995 197.56,508.3202 186.8118,508.2365 176.0632,508.1486 165.3141,508.0563 154.5645,507.9596 143.8144,507.8587 133.0637,507.7534 122.3125,507.6438 111.5607,507.5298 100.8082,507.4115 90.0551,507.2889 79.3014,507.1619 70.6979,507.0572" stroke="silver" stroke-opacity="0.5" stroke-width="1" /><polyline fill="none" points="728.1999,419.6993 723.0551,419.7652 712.3372,419.899 701.6199,420.0284 690.9033,420.1532 680.1873,420.2735 669.4719,420.3893 658.7571,420.5005 648.0428,420.6073 637.3291,420.7095 626.6158,420.8072 615.903,420.9004 605.1907,420.9891 594.4788,421.0732 583.7674,421.1528 573.0563,421.228 562.3456,421.2986 551.6352,421.3647 540.9251,421.4263 530.2154,421.4834 519.5059,421.5359 508.7967,421.584 498.0877,421.6275 487.3789,421.6666 476.6703,421.7011 465.9618,421.7311 455.2535,421.7566 444.5453,421.7776 433.8372,421.7941 423.1292,421.8061 412.4212,421.8136 401.7133,421.8166 391.0053,421.8151 380.2974,421.809 369.5894,421.7985 358.8813,421.7834 348.1731,421.7639 337.4649,421.7398 326.7565,421.7112 316.0479,421.6781 305.3392,421.6405 294.6303,421.5984 283.9211,421.5518 273.2117,421.5007 262.502,421.445 251.7921,421.3849 241.0818,421.3202 230.3712,421.2511 219.6602,421.1774 208.9489,421.0992 198.2371,421.0165 187.525,420.9292 176.8123,420.8375 166.0992,420.7413 155.3856,420.6405 144.6715,420.5352 133.9569,420.4254 123.2417,420.311 112.5259,420.1922 101.8094,420.0688 91.0924,419.9409 80.3747,419.8085 71.8001,419.6993" stroke="silver" stroke-opacity="0.5" stroke-width="1" /><polyline fill="none" points="727.0478,332.3457 721.921,332.4143 711.2408,332.5536 700.5613,332.6882 689.8823,332.8181 679.204,332.9433 668.5263,333.0638 657.8491,333.1795 647.1725,333.2906 636.4963,333.397 625.8207,333.4987 615.1456,333.5957 604.4709,333.6879 593.7966,333.7755 583.1227,333.8584 572.4492,333.9366 561.7761,334.0101 551.1033,334.0789 540.4308,334.143 529.7587,334.2024 519.0867,334.2571 508.4151,334.3071 497.7436,334.3524 487.0724,334.393 476.4014,334.429 465.7305,334.4602 455.0597,334.4868 444.3891,334.5086 433.7186,334.5258 423.0481,334.5383 412.3777,334.5461 401.7073,334.5492 391.0369,334.5476 380.3665,334.5413 369.696,334.5303 359.0255,334.5146 348.3549,334.4943 337.6842,334.4692 327.0133,334.4395 316.3423,334.405 305.6712,334.3659 294.9998,334.3221 284.3282,334.2736 273.6564,334.2204 262.9843,334.1625 252.3119,334.0999 241.6392,334.0326 230.9662,333.9606 220.2928,333.8839 209.6191,333.8026 198.945,333.7165 188.2704,333.6257 177.5954,333.5302 166.9199,333.4301 156.2439,333.3252 145.5675,333.2156 134.8905,333.1013 124.2129,332.9823 113.5348,332.8587 102.8561,332.7303 92.1767,332.5972 81.4967,332.4593 72.9522,332.3457" stroke="silver" stroke-opacity="0.5" stroke-width="1" /><polyline fill="none" points="725.8455,244.9831 720.7376,245.0543 710.0968,245.199 699.4565,245.3389 688.8169,245.4738 678.1779,245.6038 667.5395,245.729 656.9016,245.8492 646.2642,245.9646 635.6274,246.0751 624.991,246.1807 614.3551,246.2814 603.7197,246.3773 593.0846,246.4682 582.45,246.5543 571.8158,246.6355 561.1819,246.7118 550.5483,246.7833 539.915,246.8499 529.2821,246.9116 518.6494,246.9684 508.0169,247.0203 497.3847,247.0674 486.7526,247.1096 476.1208,247.1469 465.4891,247.1794 454.8575,247.207 444.2261,247.2297 433.5947,247.2475 422.9634,247.2605 412.3322,247.2685 401.701,247.2718 391.0698,247.2701 380.4386,247.2636 369.8073,247.2522 359.176,247.2359 348.5445,247.2147 337.913,247.1887 327.2814,247.1578 316.6496,247.1221 306.0176,247.0814 295.3854,247.0359 284.753,246.9855 274.1204,246.9303 263.4875,246.8701 252.8544,246.8051 242.2209,246.7352 231.5871,246.6605 220.953,246.5808 210.3185,246.4963 199.6836,246.4069 189.0483,246.3126 178.4125,246.2134 167.7763,246.1094 157.1396,246.0005 146.5024,245.8867 135.8647,245.768 125.2265,245.6444 114.5876,245.5159 103.9482,245.3826 93.3082,245.2443 82.6675,245.1012 74.1545,244.9831" stroke="silver" stroke-opacity="0.5" stroke-width="1" /><polyline fill="none" points="724.5929,157.5984 719.5047,157.6722 708.9048,157.8222 698.3055,157.9671 687.7069,158.107 677.1088,158.2418 666.5113,158.3716 655.9144,158.4962 645.318,158.6159 634.722,158.7304 624.1266,158.8399 613.5316,158.9443 602.937,159.0437 592.3429,159.138 581.7491,159.2273 571.1558,159.3114 560.5627,159.3906 549.97,159.4647 539.3776,159.5337 528.7855,159.5976 518.1937,159.6566 507.6021,159.7104 497.0107,159.7592 486.4195,159.803 475.8285,159.8417 465.2376,159.8753 454.6469,159.9039 444.0563,159.9274 433.4657,159.9459 422.8753,159.9594 412.2848,159.9677 401.6945,159.9711 391.1041,159.9694 380.5137,159.9626 369.9232,159.9508 359.3327,159.9339 348.7421,159.912 338.1514,159.885 327.5606,159.853 316.9697,159.8159 306.3785,159.7738 295.7872,159.7266 285.1957,159.6743 274.6039,159.617 264.0119,159.5547 253.4196,159.4873 242.827,159.4148 232.234,159.3373 221.6408,159.2547 211.0471,159.1671 200.4531,159.0744 189.8587,158.9767 179.2639,158.8739 168.6686,158.766 158.0728,158.6531 147.4765,158.5351 136.8797,158.412 126.2824,158.2839 115.6845,158.1507 105.0861,158.0124 94.487,157.8691 83.8874,157.7207 75.4071,157.5984" stroke="silver" stroke-opacity="0.5" stroke-width="1" /><polyline fill="none" points="723.2896,70.178 718.2219,70.2544 707.6647,70.4097 697.1081,70.5597 686.552,70.7045 675.9966,70.844 665.4417,70.9783 654.8873,71.1074 644.3335,71.2312 633.7801,71.3497 623.2272,71.463 612.6748,71.5711 602.1228,71.674 591.5712,71.7716 581.02,71.864 570.4691,71.9511 559.9186,72.033 549.3684,72.1097 538.8185,72.1811 528.2689,72.2473 517.7196,72.3083 507.1705,72.364 496.6216,72.4145 486.0729,72.4598 475.5243,72.4999 464.9759,72.5347 454.4277,72.5643 443.8796,72.5887 433.3315,72.6078 422.7835,72.6217 412.2356,72.6304 401.6877,72.6338 391.1398,72.6321 380.5918,72.625 370.0439,72.6128 359.4958,72.5953 348.9477,72.5727 338.3995,72.5447 327.8512,72.5116 317.3027,72.4732 306.754,72.4296 296.2052,72.3808 285.6562,72.3267 275.1069,72.2674 264.5574,72.2029 254.0076,72.1331 243.4575,72.0581 232.9071,71.9779 222.3563,71.8924 211.8052,71.8017 201.2538,71.7058 190.7019,71.6046 180.1496,71.4982 169.5968,71.3866 159.0436,71.2697 148.49,71.1475 137.9358,71.0202 127.381,70.8876 116.8258,70.7497 106.2699,70.6066 95.7135,70.4583 85.1564,70.3047 76.7104,70.178" stroke="silver" stroke-opacity="0.5" stroke-width="1" /><circle cx="718.9967" cy="267.1859" fill="black" r="0.738" stroke="none" /><circle cx="721.1185" cy="542.4569" fill="black" r="0.738" stroke="none" /><circle cx="713.297" cy="319.7719" fill="black" r="0.738" stroke="none" /><circle cx="714.2048" cy="578.3636" fill="black" r="0.738" stroke="none" /><circle cx="709.6491" cy="275.6989" fill="black" r="0.738" stroke="none" /><circle cx="712.0174" cy="646.2952" fill="black" r="0.738" stroke="none" /><circle cx="705.2143" cy="433.7875" fill="black" r="0.738" stroke="none" /><circle cx="699.5583" cy="169.1377" fill="black" r="0.738" stroke="none" /><circle cx="697.7442" cy="463.0509" fill="black" r="0.738" stroke="none" /><circle cx="693.0102" cy="322.9971" fill="black" r="0.738" stroke="none" /><circle cx="693.7602" cy="628.0456" fill="black" r="0.738" stroke="none" /><circle cx="682.7025" cy="576.5173" fill="black" r="0.738" stroke="none" /><circle cx="675.565" cy="343.5532" fill="black" r="0.738" stroke="none" /><circle cx="661.8223" cy="313.5736" fill="black" r="0.738" stroke="none" /><circle cx="654.4777" cy="362.2087" fill="black" r="0.738" stroke="none" /><circle cx="643.6419" cy="207.3838" fill="black" r="0.738" stroke="none" /><circle cx="641.7605" cy="182.4191" fill="black" r="1.17" stroke="none" /><circle cx="640.9933" cy="661.3026" fill="black" r="0.738" stroke="none" /><circle cx="636.8952" cy="253.5734" fill="black" r="0.738" stroke="none" /><circle cx="637.0051" cy="498.0804" fill="black" r="0.738" stroke="none" /><circle cx="626.8626" cy="308.0786" fill="black" r="0.738" stroke="none" /><circle cx="620.8283" cy="396.0614" fill="black" r="0.738" stroke="none" /><circle cx="614.2113" cy="724.8646" fill="black" r="0.738" stroke="none" /><circle cx="608.9518" cy="348.318" fill="black" r="0.738" stroke="none" /><circle cx="610.625" cy="623.3613" fill="black" r="0.738" stroke="none" /><circle cx="607.0754" cy="279.4433" fill="black" r="0.738" stroke="none" /><circle cx="604.3461" cy="164.7963" fill="black" r="0.738" stroke="none" /><circle cx="601.8387" cy="497.0612" fill="black" r="0.738" stroke="none" /><circle cx="585.914" cy="100.8339" fill="black" r="0.738" stroke="none" /><circle cx="587.6943" cy="577.1467" fill="black" r="0.738" stroke="none" /><circle cx="586.6088" cy="595.3184" fill="black" r="0.738" stroke="none" /><circle cx="585.928" cy="532.8001" fill="black" r="0.738" stroke="none" /><circle cx="585.1202" cy="515.4306" fill="black" r="0.738" stroke="none" /><circle cx="569.3053" cy="629.8371" fill="black" r="0.738" stroke="none" /><circle cx="566.7045" cy="432.7058" fill="black" r="0.738" stroke="none" /><circle cx="568.0382" cy="710.3874" fill="black" r="0.738" stroke="none" /><circle cx="563.4311" cy="390.4777" fill="black" r="0.738" stroke="none" /><circle cx="541.1443" cy="414.6168" fill="black" r="0.738" stroke="none" /><circle cx="538.4922" cy="353.6192" fill="black" r="0.738" stroke="none" /><circle cx="531.6577" cy="74.3237" fill="black" r="0.936" stroke="none" /><circle cx="530.2358" cy="640.0841" fill="black" r="0.738" stroke="none" /><circle cx="526.7381" cy="394.4436" fill="black" r="0.738" stroke="none" /><circle cx="525.9954" cy="599.2356" fill="black" r="0.936" stroke="none" /><circle cx="522.4372" cy="321.4968" fill="black" r="0.738" stroke="none" /><circle cx="521.4499" cy="526.8808" fill="black" r="0.738" stroke="none" /><circle cx="509.649" cy="400.8082" fill="black" r="0.738" stroke="none" /><circle cx="508.7431" cy="690.3931" fill="black" r="0.738" stroke="none" /><circle cx="498.6573" cy="168.0478" fill="black" r="0.738" stroke="none" /><circle cx="490.6114" cy="87.9917" fill="black" r="0.738" stroke="none" /><circle cx="480.5523" cy="457.646" fill="black" r="0.738" stroke="none" /><circle cx="466.0661" cy="270.7455" fill="black" r="0.738" stroke="none" /><circle cx="465.4993" cy="510.5781" fill="black" r="0.738" stroke="none" /><circle cx="462.825" cy="543.4035" fill="black" r="0.738" stroke="none" /><circle cx="461.0025" cy="615.0795" fill="black" r="1.17" stroke="none" /><circle cx="453.8422" cy="615.7925" fill="black" r="0.738" stroke="none" /><circle cx="443.4986" cy="680.6033" fill="black" r="0.738" stroke="none" /><circle cx="442.1605" cy="233.8781" fill="black" r="0.738" stroke="none" /><circle cx="439.8454" cy="81.3325" fill="black" r="0.738" stroke="none" /><circle cx="435.0956" cy="465.1653" fill="black" r="0.738" stroke="none" /><circle cx="430.3354" cy="291.8533" fill="black" r="0.738" stroke="none" /><circle cx="428.1692" cy="192.6076" fill="black" r="0.738" stroke="none" /><circle cx="421.1128" cy="470.1549" fill="black" r="0.738" stroke="none" /><circle cx="418.7398" cy="394.1461" fill="black" r="0.936" stroke="none" /><circle cx="417.0451" cy="295.7067" fill="black" r="0.738" stroke="none" /><circle cx="410.632" cy="249.0151" fill="black" r="0.738" stroke="none" /><circle cx="409.2039" cy="529.8582" fill="black" r="0.936" stroke="none" /><circle cx="403.0242" cy="656.2703" fill="black" r="0.738" stroke="none" /><circle cx="400.0" cy="385.4265" fill="black" r="0.738" stroke="none" /><circle cx="392.8202" cy="94.2091" fill="black" r="0.738" stroke="none" /><circle cx="386.6618" cy="222.041" fill="black" r="0.738" stroke="none" /><circle cx="385.3456" cy="432.11" fill="black" r="0.738" stroke="none" /><circle cx="384.6014" cy="129.9265" fill="black" r="0.738" stroke="none" /><circle cx="381.6667" cy="547.0484" fill="black" r="0.738" stroke="none" /><circle cx="374.4797" cy="691.4543" fill="black" r="0.738" stroke="none" /><circle cx="372.9725" cy="463.1677" fill="black" r="0.738" stroke="none" /><circle cx="371.252" cy="318.2123" fill="black" r="0.738" stroke="none" /><circle cx="363.5896" cy="147.3671" fill="black" r="0.738" stroke="none" /><circle cx="361.8641" cy="679.8247" fill="black" r="0.738" stroke="none" /><circle cx="355.7051" cy="692.6551" fill="black" r="0.738" stroke="none" /><circle cx="329.4448" cy="504.6302" fill="black" r="0.738" stroke="none" /><circle cx="325.9427" cy="407.0472" fill="black" r="0.738" stroke="none" /><circle cx="315.1114" cy="638.9434" fill="black" r="0.738" stroke="none" /><circle cx="312.5952" cy="559.3977" fill="black" r="0.738" stroke="none" /><circle cx="312.8651" cy="147.8364" fill="black" r="1.17" stroke="none" /><circle cx="310.6685" cy="254.1706" fill="black" r="0.738" stroke="none" /><circle cx="298.0899" cy="569.4745" fill="black" r="1.854" stroke="none" /><circle cx="298.4142" cy="483.4945" fill="black" r="0.738" stroke="none" /><circle cx="299.9329" cy="105.5083" fill="black" r="0.738" stroke="none" /><circle cx="286.3728" cy="507.7982" fill="black" r="0.738" stroke="none" /><circle cx="285.3546" cy="81.3242" fill="black" r="0.738" stroke="none" /><circle cx="278.435" cy="632.1751" fill="black" r="0.738" stroke="none" /><circle cx="271.7544" cy="473.4274" fill="black" r="0.738" stroke="none" /><circle cx="271.2699" cy="301.5621" fill="black" r="0.738" stroke="none" /><circle cx="261.9385" cy="511.8732" fill="black" r="0.738" stroke="none" /><circle cx="254.8471" cy="324.2513" fill="black" r="0.738" stroke="none" /><circle cx="252.8175" cy="677.7357" fill="black" r="0.738" stroke="none" /><circle cx="254.3874" cy="193.1159" fill="black" r="0.738" stroke="none" /><circle cx="249.8825" cy="626.4506" fill="black" r="1.17" stroke="none" /><circle cx="237.6471" cy="293.0634" fill="black" r="0.738" stroke="none" /><circle cx="228.34" cy="367.5513" fill="black" r="0.738" stroke="none" /><circle cx="225.6255" cy="542.8305" fill="black" r="0.738" stroke="none" /><circle cx="227.2771" cy="175.6323" fill="black" r="0.738" stroke="none" /><circle cx="225.0782" cy="90.0036" fill="black" r="0.738" stroke="none" /><circle cx="220.3551" cy="667.9463" fill="black" r="0.738" stroke="none" /><circle cx="215.0469" cy="419.2237" fill="black" r="0.738" stroke="none" /><circle cx="216.08" cy="155.2786" fill="black" r="0.738" stroke="none" /><circle cx="209.6272" cy="258.1915" fill="black" r="0.738" stroke="none" /><circle cx="203.5285" cy="562.8516" fill="black" r="0.738" stroke="none" /><circle cx="203.4186" cy="340.2138" fill="black" r="0.738" stroke="none" /><circle cx="200.6753" cy="438.0601" fill="black" r="0.738" stroke="none" /><circle cx="180.6596" cy="578.225" fill="black" r="0.738" stroke="none" /><circle cx="182.7153" cy="135.4934" fill="black" r="0.738" stroke="none" /><circle cx="180.5778" cy="163.1677" fill="black" r="0.738" stroke="none" /><circle cx="174.5341" cy="157.1664" fill="black" r="0.738" stroke="none" /><circle cx="171.9119" cy="267.0233" fill="black" r="0.738" stroke="none" /><circle cx="167.0821" cy="502.5701" fill="black" r="0.738" stroke="none" /><circle cx="165.7958" cy="94.6828" fill="black" r="0.738" stroke="none" /><circle cx="149.2587" cy="608.9715" fill="black" r="0.738" stroke="none" /><circle cx="147.0139" cy="479.069" fill="black" r="0.738" stroke="none" /><circle cx="138.2221" cy="405.8853" fill="black" r="0.738" stroke="none" /><circle cx="137.2159" cy="403.7789" fill="black" r="0.738" stroke="none" /><circle cx="139.5849" cy="74.2752" fill="black" r="0.738" stroke="none" /><circle cx="135.3313" cy="196.2279" fill="black" r="0.738" stroke="none" /><circle cx="132.3187" cy="326.1733" fill="black" r="0.738" stroke="none" /><circle cx="119.0225" cy="251.8601" fill="black" r="0.738" stroke="none" /><circle cx="112.583" cy="633.0911" fill="black" r="0.738" stroke="none" /><circle cx="113.1173" cy="159.953" fill="black" r="0.738" stroke="none" /><circle cx="110.2908" cy="255.5971" fill="black" r="0.738" stroke="none" /><circle cx="107.072" cy="323.2601" fill="black" r="0.738" stroke="none" /><circle cx="101.042" cy="645.9959" fill="black" r="0.738" stroke="none" /><circle cx="96.6911" cy="724.9809" fill="black" r="0.738" stroke="none" /><circle cx="97.7623" cy="296.1511" fill="black" r="0.738" stroke="none" /><circle cx="95.2308" cy="476.248" fill="black" r="0.738" stroke="none" /><circle cx="88.8625" cy="652.9479" fill="black" r="0.738" stroke="none" /><circle cx="13.77" cy="786.23" fill="black" r="4.59" stroke="none" /><circle cx="13.77" cy="786.23" fill="black" r="4.59" stroke="none" /><text fill="black" font-family="monospace" font-size="12" x="10.77" y="775.64">1</text><circle cx="37.77" cy="786.23" fill="black" r="3.654" stroke="none" /><circle cx="37.77" cy="786.23" fill="black" r="3.654" stroke="none" /><text fill="black" font-family="monospace" font-size="12" x="34.769999999999996" y="775.64">2</text><circle cx="61.77" cy="786.23" fill="black" r="2.916" stroke="none" /><circle cx="61.77" cy="786.23" fill="black" r="2.916" stroke="none" /><text fill="black" font-family="monospace" font-size="12" x="58.769999999999996" y="775.64">3</text><circle cx="85.77" cy="786.23" fill="black" r="2.322" stroke="none" /><circle cx="85.77" cy="786.23" fill="black" r="2.322" stroke="none" /><text fill="black" font-family="monospace" font-size="12" x="82.77" y="775.64">4</text><circle cx="109.77" cy="786.23" fill="black" r="1.854" stroke="none" /><circle cx="109.77" cy="786.23" fill="black" r="1.854" stroke="none" /><text fill="black" font-family="monospace" font-size="12" x="106.77" y="775.64">5</text><circle cx="133.77" cy="786.23" fill="black" r="1.476" stroke="none" /><circle cx="133.77" cy="786.23" fill="black" r="1.476" stroke="none" /><text fill="black" font-family="monospace" font-size="12" x="130.77" y="775.64">6</text><circle cx="157.77" cy="786.23" fill="black" r="1.17" stroke="none" /><circle cx="157.77" cy="786.23" fill="black" r="1.17" stroke="none" /><text fill="black" font-family="monospace" font-size="12" x="154.77" y="775.64">7</text><circle cx="181.77" cy="786.23" fill="black" r="0.936" stroke="none" /><circle cx="181.77" cy="786.23" fill="black" r="0.936" stroke="none" /><text fill="black" font-family="monospace" font-size="12" x="178.77" y="775.64">8</text><circle cx="205.77" cy="786.23" fill="black" r="0.738" stroke="none" /><circle cx="205.77" cy="786.23" fill="black" r="0.738" stroke="none" /><text fill="black" font-family="monospace" font-size="12" x="202.77" y="775.64">9</text><text fill="gray" fill-opacity="0.5" font-family="monospace" font-size="12" x="683.2939993642183" y="726.0481751394091">10h15m</text><text fill="gray" fill-opacity="0.5" font-family="monospace" font-size="12" x="574.9741480034643" y="726.8633458616522">10h20m</text><text fill="gray" fill-opacity="0.5" font-family="monospace" font-size="12" x="466.69263196590964" y="727.2930635695205">10h25m</text><text fill="gray" fill-opacity="0.5" font-family="monospace" font-size="12" x="358.42572436595265" y="727.3377211853873">10h30m</text><text fill="gray" fill-opacity="0.5" font-family="monospace" font-size="12" x="250.14971050109492" y="726.9973595346021">10h35m</text><text fill="gray" fill-opacity="0.5" font-family="monospace" font-size="12" x="141.8408680746631" y="726.2716674236331">10h40m</text><text fill="gray" fill-opacity="0.5" font-family="monospace" font-size="12" x="68.64274660234406" y="681.8389141919388">+8°</text><text fill="gray" fill-opacity="0.5" font-family="monospace" font-size="12" x="69.64546961131464" y="594.4326330539807">+9°</text><text fill="gray" fill-opacity="0.5" font-family="monospace" font-size="12" x="70.69787367159438" y="507.0571874107499">+10°</text><text fill="gray" fill-opacity="0.5" font-family="monospace" font-size="12" x="71.80007815861342" y="419.69930120520905">+11°</text><text fill="gray" fill-opacity="0.5" font-family="monospace" font-size="12" x="72.95223276131458" y="332.34570903144146">+12°</text><text fill="gray" fill-opacity="0.5" font-family="monospace" font-size="12" x="74.15451755678691" y="244.9831480886702">+13°</text><text fill="gray" fill-opacity="0.5" font-family="monospace" font-size="12" x="75.40714312416856" y="157.5983501386286">+14°</text><text fill="gray" fill-opacity="0.5" font-family="monospace" font-size="12" x="76.71035069797495" y="70.17803345593836">+15°</text><text fill="black" font-family="monospace" font-size="12" x="12" y="48">&gt;&gt; No.477 10h13m 10h43m +7.5°+15.0°</text><a target="_self" xlink:href="hip026.svg"><text fill="black" font-family="monospace" font-size="12" x="12" y="36">&gt; No.26 08h00m 10h40m +0.0°+22.5°</text></a><a target="_self" xlink:href="hip002.svg"><text fill="black" font-family="monospace" font-size="12" x="12" y="24">No.2 00h 24h +0.0°+90.0°</text></a><polyline fill="none" points="723.2896,70.178 718.2219,70.2544 707.6647,70.4097 697.1081,70.5597 686.552,70.7045 675.9966,70.844 665.4417,70.9783 654.8873,71.1074 644.3335,71.2312 633.7801,71.3497 623.2272,71.463 612.6748,71.5711 602.1228,71.674 591.5712,71.7716 581.02,71.864 570.4691,71.9511 559.9186,72.033 549.3684,72.1097 538.8185,72.1811 528.2689,72.2473 517.7196,72.3083 507.1705,72.364 496.6216,72.4145 486.0729,72.4598 475.5243,72.4999 464.9759,72.5347 454.4277,72.5643 443.8796,72.5887 433.3315,72.6078 422.7835,72.6217 412.2356,72.6304 401.6877,72.6338 391.1398,72.6321 380.5918,72.625 370.0439,72.6128 359.4958,72.5953 348.9477,72.5727 338.3995,72.5447 327.8512,72.5116 317.3027,72.4732 306.754,72.4296 296.2052,72.3808 285.6562,72.3267 275.1069,72.2674 264.5574,72.2029 254.0076,72.1331 243.4575,72.0581 232.9071,71.9779 222.3563,71.8924 211.8052,71.8017 201.2538,71.7058 190.7019,71.6046 180.1496,71.4982 169.5968,71.3866 159.0436,71.2697 148.49,71.1475 137.9358,71.0202 127.381,70.8876 116.8258,70.7497 106.2699,70.6066 95.7135,70.4583 85.1564,70.3047 76.7104,70.178" stroke="black" stroke-opacity="0.5" stroke-width="1" /><polyline fill="none" points="731.84,725.5578 731.7205,714.6269 731.6002,703.6969 731.4791,692.7675 731.3573,681.8389 731.2346,670.911 731.1112,659.9837 730.987,649.0571 730.8621,638.1311 730.7364,627.2057 730.6099,616.2808 730.4826,605.3565 730.3545,594.4326 730.2257,583.5093 730.0961,572.5864 729.9657,561.6639 729.8345,550.7419 729.7026,539.8202 729.5699,528.8989 729.4364,517.9779 729.3021,507.0572 729.1671,496.1368 729.0312,485.2166 728.8946,474.2966 728.7573,463.3769 728.6191,452.4573 728.4801,441.5379 728.3404,430.6185 728.1999,419.6993 728.0586,408.7801 727.9166,397.861 727.7737,386.9419 727.6301,376.0228 727.4857,365.1036 727.3405,354.1844 727.1945,343.2651 727.0478,332.3457 726.9002,321.4262 726.7519,310.5064 726.6028,299.5865 726.4529,288.6664 726.3022,277.746 726.1508,266.8254 725.9985,255.9044 725.8455,244.9831 725.6917,234.0615 725.5371,223.1396 725.3817,212.2172 725.2255,201.2944 725.0685,190.3711 724.9107,179.4474 724.7522,168.5231 724.5929,157.5984 724.4327,146.673 724.2718,135.7471 724.1101,124.8206 723.9476,113.8935 723.7843,102.9657 723.6202,92.0372 723.4553,81.108 723.2896,70.178" stroke="black" stroke-opacity="0.5" stroke-width="1" /><polyline fill="none" points="731.84,725.5578 726.638,725.614 715.801,725.7284 704.9647,725.8388 694.129,725.9454 683.294,726.0482 672.4596,726.1471 661.6258,726.2421 650.7926,726.3332 639.9599,726.4205 629.1278,726.504 618.2962,726.5836 607.465,726.6593 596.6343,726.7312 585.804,726.7992 574.9741,726.8633 564.1447,726.9237 553.3155,726.9801 542.4867,727.0327 531.6583,727.0815 520.8301,727.1264 510.0022,727.1674 499.1745,727.2046 488.347,727.2379 477.5197,727.2674 466.6926,727.2931 455.8657,727.3149 445.0388,727.3328 434.2121,727.3469 423.3854,727.3571 412.5588,727.3635 401.7323,727.3661 390.9057,727.3647 380.0791,727.3596 369.2524,727.3506 358.4257,727.3377 347.5989,727.321 336.772,727.3005 325.945,727.276 315.1177,727.2478 304.2903,727.2157 293.4627,727.1797 282.6349,727.1399 271.8068,727.0962 260.9784,727.0487 250.1497,726.9974 239.3207,726.9421 228.4913,726.8831 217.6616,726.8201 206.8314,726.7534 196.0009,726.6827 185.1699,726.6082 174.3384,726.5299 163.5064,726.4477 152.6739,726.3616 141.8409,726.2717 131.0073,726.1779 120.1731,726.0802 109.3383,725.9787 98.5028,725.8734 87.6667,725.7641 76.8299,725.651 68.16,725.5578" stroke="black" stroke-opacity="0.5" stroke-width="1" /><polyline fill="none" points="68.16,725.5578 68.2795,714.6269 68.3998,703.6969 68.5209,692.7675 68.6427,681.8389 68.7654,670.911 68.8888,659.9837 69.013,649.0571 69.1379,638.1311 69.2636,627.2057 69.3901,616.2808 69.5174,605.3565 69.6455,594.4326 69.7743,583.5093 69.9039,572.5864 70.0343,561.6639 70.1655,550.7419 70.2974,539.8202 70.4301,528.8989 70.5636,517.9779 70.6979,507.0572 70.8329,496.1368 70.9688,485.2166 71.1054,474.2966 71.2427,463.3769 71.3809,452.4573 71.5199,441.5379 71.6596,430.6185 71.8001,419.6993 71.9414,408.7801 72.0834,397.861 72.2263,386.9419 72.3699,376.0228 72.5143,365.1036 72.6595,354.1844 72.8055,343.2651 72.9522,332.3457 73.0998,321.4262 73.2481,310.5064 73.3972,299.5865 73.5471,288.6664 73.6978,277.746 73.8492,266.8254 74.0015,255.9044 74.1545,244.9831 74.3083,234.0615 74.4629,223.1396 74.6183,212.2172 74.7745,201.2944 74.9315,190.3711 75.0893,179.4474 75.2478,168.5231 75.4071,157.5984 75.5673,146.673 75.7282,135.7471 75.8899,124.8206 76.0524,113.8935 76.2157,102.9657 76.3798,92.0372 76.5447,81.108 76.7104,70.178" stroke="black" stroke-opacity="0.5" stroke-width="1" /></svg>