<?xml version="1.0" encoding="utf-8" ?>
<svg baseProfile="tiny" height="800" version="1.2" width="800" xmlns="http://www.w3.org/2000/svg" xmlns:ev="http://www.w3.org/2001/xml-events" xmlns:xlink="http://www.w3.org/1999/xlink"><defs /><rect fill="none" height="800" stroke="black" stroke-width="2" width="800" x="0" y="0" /><polyline fill="none" points="667.2593,726.1931 667.1631,715.2663 667.0662,704.3401 666.9688,693.4147 666.8707,682.49 666.7719,671.566 666.6726,660.6427 666.5726,649.72 666.472,638.7979 666.3708,627.8764 666.269,616.9554 666.1665,606.035 666.0634,595.115 665.9597,584.1956 665.8553,573.2766 665.7504,562.358 665.6448,551.4398 665.5385,540.522 665.4317,529.6045 665.3242,518.6874 665.2161,507.7705 665.1074,496.8539 664.998,485.9376 664.8881,475.0215 664.7775,464.1056 664.6662,453.1898 664.5544,442.2742 664.4419,431.3587 664.3287,420.4432 664.215,409.5279 664.1006,398.6126 663.9856,387.6973 663.87,376.7819 663.7537,365.8666 663.6368,354.9511 663.5193,344.0356 663.4012,333.1199 663.2824,322.2041 663.163,311.2882 663.0429,300.372 662.9222,289.4556 662.8009,278.539 662.679,267.622 662.5564,256.7048 662.4332,245.7873 662.3094,234.8694 662.1849,223.9511 662.0598,213.0324 661.9341,202.1133 661.8077,191.1938 661.6807,180.2737 661.553,169.3531 661.4247,158.432 661.2958,147.5104 661.1663,136.5881 661.0361,125.6653 660.9052,114.7418 660.7738,103.8176 660.6417,92.8928 660.5089,81.9672 660.3755,71.0409" stroke="silver" stroke-opacity="0.5" stroke-width="1" /><polyline fill="none" points="558.9466,726.9512 558.8894,716.029 558.8319,705.1076 558.7739,694.1869 558.7156,683.2669 558.6569,672.3476 558.5979,661.4289 558.5384,650.5109 558.4786,639.5935 558.4185,628.6766 558.3579,617.7603 558.297,606.8445 558.2357,595.9292 558.1741,585.0144 558.112,574.1 558.0496,563.186 557.9868,552.2725 557.9237,541.3593 557.8602,530.4464 557.7963,519.5339 557.732,508.6216 557.6674,497.7096 557.6024,486.7979 557.537,475.8863 557.4713,464.975 557.4051,454.0638 557.3386,443.1527 557.2718,432.2418 557.2045,421.3309 557.1369,410.4201 557.0689,399.5093 557.0006,388.5985 556.9318,377.6877 556.8627,366.7768 556.7932,355.8659 556.7234,344.9548 556.6531,334.0437 556.5825,323.1324 556.5115,312.2209 556.4402,301.3092 556.3684,290.3973 556.2963,279.4851 556.2238,268.5726 556.1509,257.6598 556.0777,246.7467 556.0041,235.8333 555.9301,224.9194 555.8557,214.0052 555.781,203.0905 555.7058,192.1753 555.6303,181.2596 555.5545,170.3435 555.4782,159.4268 555.4016,148.5095 555.3245,137.5916 555.2471,126.6731 555.1694,115.754 555.0912,104.8342 555.0127,93.9137 554.9338,82.9924 554.8545,72.0705" stroke="silver" stroke-opacity="0.5" stroke-width="1" /><polyline fill="none" points="450.6688,727.3239 450.6505,716.4041 450.6322,705.485 450.6137,694.5666 450.5951,683.6489 450.5764,672.7319 450.5576,661.8155 450.5387,650.8998 450.5196,639.9846 450.5004,629.07 450.4811,618.156 450.4617,607.2425 450.4422,596.3295 450.4226,585.417 450.4028,574.5049 450.3829,563.5932 450.3629,552.6819 450.3428,541.7709 450.3225,530.8603 450.3022,519.9501 450.2817,509.0401 450.2611,498.1303 450.2404,487.2208 450.2195,476.3115 450.1986,465.4024 450.1775,454.4935 450.1563,443.5847 450.135,432.6759 450.1136,421.7673 450.092,410.8587 450.0703,399.9501 450.0485,389.0416 450.0266,378.133 450.0046,367.2243 449.9825,356.3156 449.9602,345.4068 449.9378,334.4978 449.9153,323.5887 449.8927,312.6795 449.8699,301.77 449.8471,290.8602 449.8241,279.9502 449.801,269.04 449.7778,258.1294 449.7544,247.2185 449.731,236.3072 449.7074,225.3955 449.6837,214.4834 449.6599,203.5709 449.6359,192.6579 449.6118,181.7444 449.5877,170.8304 449.5634,159.9158 449.5389,149.0007 449.5144,138.085 449.4897,127.1686 449.4649,116.2516 449.44,105.334 449.415,94.4156 449.3898,83.4965 449.3646,72.5766" stroke="silver" stroke-opacity="0.5" stroke-width="1" /><polyline fill="none" points="342.402,727.3116 342.4227,716.3917 342.4436,705.4725 342.4646,694.554 342.4857,683.6362 342.507,672.7192 342.5284,661.8027 342.5499,650.8869 342.5716,639.9717 342.5934,629.057 342.6153,618.1429 342.6374,607.2294 342.6596,596.3163 342.6819,585.4036 342.7044,574.4915 342.727,563.5797 342.7497,552.6683 342.7726,541.7573 342.7956,530.8467 342.8188,519.9363 342.8421,509.0262 342.8655,498.1164 342.889,487.2069 342.9127,476.2975 342.9365,465.3883 342.9605,454.4793 342.9846,443.5704 343.0088,432.6616 343.0332,421.7529 343.0577,410.8442 343.0823,399.9356 343.1071,389.0269 343.132,378.1183 343.157,367.2095 343.1822,356.3008 343.2075,345.3919 343.233,334.4828 343.2585,323.5737 343.2843,312.6643 343.3101,301.7547 343.3361,290.8449 343.3622,279.9349 343.3885,269.0245 343.4149,258.1139 343.4414,247.2029 343.4681,236.2915 343.4949,225.3798 343.5218,214.4676 343.5489,203.555 343.5761,192.6419 343.6035,181.7284 343.631,170.8143 343.6586,159.8997 343.6864,148.9845 343.7143,138.0687 343.7423,127.1523 343.7705,116.2352 343.7988,105.3174 343.8273,94.399 343.8559,83.4798 343.8846,72.5599" stroke="silver" stroke-opacity="0.5" stroke-width="1" /><polyline fill="none" points="234.1226,726.9143 234.1823,715.9918 234.2424,705.0702 234.3029,694.1493 234.3638,683.229 234.425,672.3095 234.4866,661.3906 234.5487,650.4723 234.6111,639.5547 234.6739,628.6376 234.7371,617.721 234.8006,606.805 234.8646,595.8895 234.9289,584.9745 234.9937,574.0598 235.0588,563.1457 235.1243,552.2319 235.1902,541.3184 235.2565,530.4054 235.3232,519.4926 235.3902,508.5801 235.4577,497.6679 235.5255,486.7559 235.5938,475.8442 235.6624,464.9326 235.7314,454.0212 235.8008,443.1099 235.8706,432.1987 235.9408,421.2876 236.0113,410.3765 236.0823,399.4655 236.1536,388.5545 236.2254,377.6435 236.2975,366.7324 236.37,355.8213 236.4429,344.91 236.5162,333.9986 236.5899,323.0871 236.664,312.1754 236.7385,301.2635 236.8133,290.3513 236.8886,279.4389 236.9643,268.5263 237.0403,257.6133 237.1167,246.6999 237.1936,235.7863 237.2708,224.8722 237.3484,213.9577 237.4264,203.0428 237.5048,192.1274 237.5836,181.2116 237.6628,170.2952 237.7424,159.3783 237.8224,148.4608 237.9028,137.5427 237.9835,126.624 238.0647,115.7046 238.1463,104.7846 238.2282,93.8639 238.3106,82.9424 238.3933,72.0202" stroke="silver" stroke-opacity="0.5" stroke-width="1" /><polyline fill="none" points="125.8069,726.1315 125.9057,715.2042 126.005,704.2777 126.105,693.3519 126.2057,682.4269 126.307,671.5025 126.4089,660.5788 126.5115,649.6557 126.6147,638.7332 126.7185,627.8113 126.823,616.8899 126.9282,605.9691 127.0339,595.0488 127.1403,584.129 127.2474,573.2096 127.3551,562.2906 127.4634,551.3721 127.5724,540.4539 127.682,529.536 127.7923,518.6185 127.9032,507.7013 128.0148,496.7844 128.127,485.8676 128.2398,474.9512 128.3533,464.0349 128.4674,453.1187 128.5822,442.2027 128.6976,431.2868 128.8136,420.3711 128.9303,409.4553 129.0477,398.5396 129.1657,387.624 129.2843,376.7083 129.4036,365.7925 129.5235,354.8767 129.6441,343.9608 129.7653,333.0448 129.8872,322.1286 130.0097,311.2123 130.1329,300.2958 130.2567,289.379 130.3811,278.462 130.5063,267.5447 130.632,256.6272 130.7584,245.7093 130.8855,234.791 131.0132,223.8724 131.1415,212.9533 131.2705,202.0339 131.4002,191.1139 131.5305,180.1935 131.6615,169.2726 131.7931,158.3511 131.9254,147.4291 132.0583,136.5065 132.1919,125.5833 132.3261,114.6595 132.461,103.735 132.5965,92.8098 132.7327,81.8838 132.8696,70.9572" stroke="silver" stroke-opacity="0.5" stroke-width="1" /><polyline fill="none" points="730.9244,681.8438 720.9685,681.9533 710.1477,682.0686 699.3275,682.1799 688.5079,682.2872 677.689,682.3906 666.8707,682.49 656.0529,682.5855 645.2357,682.677 634.4191,682.7646 623.603,682.8482 612.7873,682.9279 601.9721,683.0036 591.1574,683.0753 580.3431,683.1432 569.5292,683.207 558.7156,683.2669 547.9024,683.3229 537.0895,683.3749 526.2769,683.4229 515.4646,683.4671 504.6525,683.5072 493.8407,683.5434 483.0291,683.5757 472.2176,683.6041 461.4063,683.6284 450.5951,683.6489 439.7841,683.6654 428.9731,683.6779 418.1622,683.6865 407.3514,683.6912 396.5405,683.6919 385.7297,683.6886 374.9188,683.6815 364.1079,683.6703 353.2968,683.6553 342.4857,683.6362 331.6745,683.6133 320.8631,683.5864 310.0515,683.5555 299.2398,683.5207 288.4278,683.482 277.6156,683.4393 266.8031,683.3926 255.9903,683.3421 245.1772,683.2875 234.3638,683.229 223.55,683.1666 212.7358,683.1002 201.9212,683.0299 191.1062,682.9556 180.2907,682.8774 169.4748,682.7952 158.6583,682.709 147.8413,682.6189 137.0238,682.5249 126.2057,682.4269 115.387,682.3249 104.5677,682.219 93.7477,682.1091 82.9271,681.9952 72.1057,681.8774 69.0756,681.8438" stroke="silver" stroke-opacity="0.5" stroke-width="1" /><polyline fill="none" points="729.923,594.4377 719.9973,594.5525 709.2092,594.6733 698.4218,594.79 687.6351,594.9025 676.8489,595.0108 666.0634,595.115 655.2784,595.2151 644.494,595.311 633.7101,595.4028 622.9267,595.4904 612.1438,595.5739 601.3614,595.6532 590.5794,595.7284 579.7978,595.7995 569.0166,595.8664 558.2357,595.9292 547.4552,595.9879 536.675,596.0424 525.8951,596.0927 515.1155,596.139 504.3361,596.1811 493.557,596.219 482.7781,596.2528 471.9993,596.2825 461.2207,596.3081 450.4422,596.3295 439.6638,596.3468 428.8856,596.3599 418.1073,596.3689 407.3292,596.3738 396.551,596.3746 385.7728,596.3712 374.9946,596.3637 364.2164,596.352 353.438,596.3362 342.6596,596.3163 331.881,596.2922 321.1023,596.264 310.3234,596.2317 299.5444,596.1952 288.7651,596.1546 277.9856,596.1098 267.2058,596.061 256.4257,596.0079 245.6453,595.9508 234.8646,595.8895 224.0835,595.8241 213.3021,595.7545 202.5202,595.6808 191.7379,595.6029 180.9552,595.5209 170.172,595.4348 159.3883,595.3445 148.604,595.2501 137.8193,595.1515 127.0339,595.0488 116.248,594.9419 105.4615,594.8309 94.6743,594.7158 83.8865,594.5965 73.0979,594.473 70.077,594.4377" stroke="silver" stroke-opacity="0.5" stroke-width="1" /><polyline fill="none" points="728.8719,507.0625 718.978,507.1825 708.2243,507.3088 697.4714,507.4307 686.719,507.5483 675.9673,507.6616 665.2161,507.7705 654.4655,507.8751 643.7155,507.9754 632.966,508.0713 622.217,508.1629 611.4684,508.2502 600.7203,508.3331 589.9727,508.4118 579.2254,508.486 568.4785,508.556 557.732,508.6216 546.9859,508.6829 536.24,508.7399 525.4944,508.7926 514.7491,508.8409 504.0041,508.8849 493.2592,508.9246 482.5146,508.9599 471.7702,508.991 461.0259,509.0177 450.2817,509.0401 439.5376,509.0581 428.7936,509.0719 418.0497,509.0813 407.3058,509.0864 396.562,509.0872 385.8181,509.0836 375.0742,509.0758 364.3302,509.0636 353.5862,509.0471 342.8421,509.0262 332.0978,509.0011 321.3534,508.9716 310.6088,508.9378 299.8641,508.8997 289.1191,508.8572 278.3739,508.8105 267.6284,508.7594 256.8827,508.7039 246.1366,508.6442 235.3902,508.5801 224.6435,508.5117 213.8964,508.439 203.1489,508.3619 192.4009,508.2806 181.6526,508.1948 170.9037,508.1048 160.1544,508.0104 149.4045,507.9117 138.6542,507.8087 127.9032,507.7013 117.1517,507.5896 106.3996,507.4736 95.6468,507.3532 84.8934,507.2285 74.1393,507.0994 71.1281,507.0625" stroke="silver" stroke-opacity="0.5" stroke-width="1" /><polyline fill="none" points="727.7712,419.7048 717.9104,419.83 707.1928,419.9617 696.4759,420.0889 685.7596,420.2115 675.0439,420.3296 664.3287,420.4432 653.6142,420.5523 642.9002,420.6569 632.1866,420.757 621.4736,420.8525 610.7611,420.9435 600.049,421.03 589.3373,421.112 578.626,421.1895 567.9151,421.2624 557.2045,421.3309 546.4943,421.3948 535.7844,421.4542 525.0748,421.5092 514.3654,421.5596 503.6563,421.6055 492.9474,421.6468 482.2387,421.6837 471.5302,421.7161 460.8218,421.7439 450.1136,421.7673 439.4054,421.7861 428.6974,421.8005 417.9894,421.8103 407.2814,421.8156 396.5735,421.8164 385.8655,421.8127 375.1575,421.8045 364.4495,421.7918 353.7414,421.7746 343.0332,421.7529 332.3249,421.7266 321.6164,421.6959 310.9077,421.6606 300.1989,421.6209 289.4899,421.5766 278.7806,421.5278 268.0711,421.4745 257.3613,421.4167 246.6512,421.3544 235.9408,421.2876 225.23,421.2163 214.5188,421.1404 203.8073,421.06 193.0953,420.9752 182.3829,420.8858 171.6701,420.7919 160.9568,420.6934 150.2429,420.5905 139.5286,420.483 128.8136,420.3711 118.0981,420.2546 107.3821,420.1335 96.6654,420.008 85.948,419.8779 75.23,419.7433 72.2288,419.7048" stroke="silver" stroke-opacity="0.5" stroke-width="1" /><polyline fill="none" points="726.6205,332.3515 716.7944,332.4817 706.1146,332.6188 695.4353,332.7511 684.7567,332.8788 674.0786,333.0017 663.4012,333.1199 652.7242,333.2335 642.0479,333.3423 631.372,333.4464 620.6966,333.5458 610.0217,333.6405 599.3472,333.7306 588.6731,333.8159 577.9994,333.8965 567.3261,333.9724 556.6531,334.0437 545.9805,334.1102 535.3082,334.1721 524.6361,334.2292 513.9643,334.2817 503.2928,334.3294 492.6214,334.3725 481.9503,334.4109 471.2793,334.4446 460.6085,334.4735 449.9378,334.4978 439.2672,334.5175 428.5967,334.5324 417.9263,334.5426 407.2559,334.5481 396.5855,334.549 385.9151,334.5451 375.2446,334.5366 364.5742,334.5234 353.9036,334.5054 343.233,334.4828 332.5622,334.4555 321.8913,334.4235 311.2202,334.3868 300.5489,334.3455 289.8775,334.2994 279.2058,334.2486 268.5338,334.1932 257.8616,334.133 247.1891,334.0682 236.5162,333.9986 225.843,333.9244 215.1695,333.8455 204.4956,333.7618 193.8212,333.6735 183.1464,333.5805 172.4712,333.4827 161.7955,333.3803 151.1193,333.2732 140.4426,333.1613 129.7653,333.0448 119.0875,332.9236 108.4091,332.7976 97.73,332.667 87.0504,332.5316 76.3701,332.3915 73.3795,332.3515" stroke="silver" stroke-opacity="0.5" stroke-width="1" /><polyline fill="none" points="725.4198,244.9891 715.6299,245.1244 704.9894,245.2668 694.3494,245.4042 683.7101,245.5368 673.0714,245.6645 662.4332,245.7873 651.7956,245.9052 641.1585,246.0182 630.5219,246.1264 619.8857,246.2296 609.2501,246.328 598.6148,246.4215 587.98,246.5101 577.3455,246.5939 566.7114,246.6728 556.0777,246.7467 545.4443,246.8158 534.8112,246.8801 524.1783,246.9394 513.5458,246.9939 502.9134,247.0435 492.2813,247.0883 481.6493,247.1281 471.0176,247.1631 460.3859,247.1932 449.7544,247.2185 439.123,247.2388 428.4917,247.2543 417.8604,247.2649 407.2292,247.2707 396.598,247.2716 385.9668,247.2676 375.3356,247.2587 364.7043,247.245 354.0729,247.2264 343.4414,247.2029 332.8098,247.1745 322.1781,247.1413 311.5462,247.1032 300.9142,247.0602 290.2819,247.0123 279.6494,246.9596 269.0167,246.902 258.3837,246.8395 247.7504,246.7722 237.1167,246.6999 226.4828,246.6228 215.8485,246.5409 205.2138,246.454 194.5787,246.3622 183.9432,246.2656 173.3072,246.1641 162.6708,246.0577 152.0338,245.9465 141.3964,245.8303 130.7584,245.7093 120.1199,245.5833 109.4808,245.4525 98.8411,245.3168 88.2007,245.1762 77.5598,245.0307 74.5802,244.9891" stroke="silver" stroke-opacity="0.5" stroke-width="1" /><polyline fill="none" points="724.1688,157.6045 714.4167,157.7448 703.8171,157.8924 693.2181,158.0349 682.6198,158.1724 672.022,158.3047 661.4247,158.432 650.828,158.5543 640.2319,158.6715 629.6362,158.7836 619.0409,158.8907 608.4462,158.9927 597.8518,159.0896 587.2578,159.1815 576.6643,159.2683 566.0711,159.3501 555.4782,159.4268 544.8856,159.4984 534.2934,159.565 523.7014,159.6265 513.1097,159.683 502.5182,159.7345 491.9269,159.7808 481.3358,159.8222 470.7448,159.8584 460.154,159.8897 449.5634,159.9158 438.9728,159.9369 428.3823,159.953 417.7919,159.964 407.2015,159.97 396.6111,159.9709 386.0207,159.9667 375.4303,159.9576 364.8398,159.9433 354.2493,159.924 343.6586,159.8997 333.0679,159.8703 322.477,159.8358 311.8859,159.7963 301.2947,159.7517 290.7033,159.7021 280.1117,159.6475 269.5198,159.5877 258.9276,159.523 248.3352,159.4531 237.7424,159.3783 227.1493,159.2983 216.5559,159.2133 205.9621,159.1233 195.3679,159.0281 184.7732,158.928 174.1782,158.8227 163.5826,158.7124 152.9866,158.5971 142.3901,158.4766 131.7931,158.3511 121.1955,158.2206 110.5974,158.085 99.9986,157.9443 89.3993,157.7985 78.7993,157.6477 75.8312,157.6045" stroke="silver" stroke-opacity="0.5" stroke-width="1" /><polyline fill="none" points="722.8673,70.1844 713.1544,70.3296 702.5974,70.4824 692.0411,70.6299 681.4854,70.7721 670.9302,70.9091 660.3755,71.0409 649.8214,71.1674 639.2678,71.2887 628.7147,71.4048 618.162,71.5156 607.6098,71.6211 597.058,71.7215 586.5066,71.8166 575.9555,71.9064 565.4048,71.9911 554.8545,72.0705 544.3044,72.1446 533.7547,72.2135 523.2052,72.2772 512.656,72.3357 502.107,72.3889 491.5582,72.4369 481.0095,72.4797 470.4611,72.5172 459.9128,72.5496 449.3646,72.5766 438.8165,72.5985 428.2685,72.6151 417.7205,72.6265 407.1726,72.6327 396.6247,72.6336 386.0768,72.6293 375.5288,72.6198 364.9808,72.6051 354.4328,72.5851 343.8846,72.5599 333.3363,72.5295 322.7879,72.4938 312.2394,72.4529 301.6906,72.4068 291.1417,72.3555 280.5926,72.2989 270.0432,72.2371 259.4935,72.17 248.9436,72.0978 238.3933,72.0202 227.8428,71.9375 217.2919,71.8495 206.7406,71.7563 196.1889,71.6579 185.6368,71.5542 175.0843,71.4453 164.5314,71.3311 153.9779,71.2117 143.424,71.0871 132.8696,70.9572 122.3146,70.8221 111.759,70.6817 101.2029,70.5361 90.6462,70.3852 80.0888,70.2291 77.1327,70.1844" stroke="silver" stroke-opacity="0.5" stroke-width="1" /><line fill="none" stroke="green" stroke-opacity="0.5" stroke-width="1.5" x1="78.2706" x2="183.9141" y1="90.4626" y2="538.9947" /><circle cx="727.0458" cy="416.6563" fill="black" r="0.936" stroke="none" /><circle cx="723.9295" cy="598.7025" fill="black" r="0.936" stroke="none" /><circle cx="724.3123" cy="710.8596" fill="black" r="0.738" stroke="none" /><circle cx="710.1294" cy="722.2013" fill="black" r="1.17" stroke="none" /><circle cx="701.9172" cy="639.5848" fill="black" r="0.936" stroke="none" /><circle cx="692.8893" cy="678.9225" fill="black" r="0.738" stroke="none" /><circle cx="679.3709" cy="109.5296" fill="black" r="0.738" stroke="none" /><circle cx="682.6631" cy="514.4924" fill="black" r="0.738" stroke="none" /><circle cx="680.286" cy="484.9061" fill="black" r="0.738" stroke="none" /><circle cx="676.3776" cy="347.387" fill="black" r="0.738" stroke="none" /><circle cx="675.4193" cy="376.3945" fill="black" r="0.738" stroke="none" /><circle cx="673.1351" cy="332.663" fill="black" r="0.738" stroke="none" /><circle cx="674.4689" cy="520.954" fill="black" r="0.738" stroke="none" /><circle cx="669.4731" cy="478.119" fill="black" r="0.738" stroke="none" /><circle cx="664.8995" cy="88.5573" fill="black" r="0.738" stroke="none" /><circle cx="664.2826" cy="243.7571" fill="black" r="0.738" stroke="none" /><circle cx="662.5408" cy="405.0914" fill="black" r="0.738" stroke="none" /><circle cx="659.732" cy="317.6138" fill="black" r="0.738" stroke="none" /><circle cx="660.7846" cy="485.7176" fill="black" r="0.738" stroke="none" /><circle cx="649.2048" cy="572.1209" fill="black" r="0.738" stroke="none" /><circle cx="635.0312" cy="578.0968" fill="black" r="0.738" stroke="none" /><circle cx="630.7332" cy="233.198" fill="black" r="0.738" stroke="none" /><circle cx="616.9796" cy="290.8808" fill="black" r="0.738" stroke="none" /><circle cx="615.6544" cy="194.5645" fill="black" r="0.738" stroke="none" /><circle cx="618.1682" cy="650.2114" fill="black" r="0.738" stroke="none" /><circle cx="611.0918" cy="461.2779" fill="black" r="0.738" stroke="none" /><circle cx="598.3895" cy="143.4477" fill="black" r="0.936" stroke="none" /><circle cx="597.8102" cy="668.7905" fill="black" r="0.738" stroke="none" /><circle cx="589.8587" cy="616.8689" fill="black" r="0.738" stroke="none" /><circle cx="585.8559" cy="246.8765" fill="black" r="0.738" stroke="none" /><circle cx="587.2951" cy="506.6845" fill="black" r="0.738" stroke="none" /><circle cx="584.4352" cy="515.8718" fill="black" r="0.738" stroke="none" /><circle cx="581.5409" cy="385.726" fill="black" r="0.738" stroke="none" /><circle cx="578.7107" cy="98.6229" fill="black" r="0.738" stroke="none" /><circle cx="562.9818" cy="297.7734" fill="black" r="0.738" stroke="none" /><circle cx="560.533" cy="109.0754" fill="black" r="0.738" stroke="none" /><circle cx="559.2363" cy="574.7921" fill="black" r="0.738" stroke="none" /><circle cx="555.7178" cy="256.5277" fill="black" r="0.936" stroke="none" /><circle cx="554.6319" cy="196.4617" fill="black" r="0.738" stroke="none" /><circle cx="553.7394" cy="318.9605" fill="black" r="0.738" stroke="none" /><circle cx="549.6323" cy="184.9683" fill="black" r="0.738" stroke="none" /><circle cx="548.1984" cy="265.2199" fill="black" r="0.738" stroke="none" /><circle cx="540.8539" cy="99.3404" fill="black" r="0.738" stroke="none" /><circle cx="533.9601" cy="499.8476" fill="black" r="0.738" stroke="none" /><circle cx="521.419" cy="427.462" fill="black" r="0.738" stroke="none" /><circle cx="519.828" cy="417.1704" fill="black" r="0.738" stroke="none" /><circle cx="520.207" cy="617.2484" fill="black" r="0.738" stroke="none" /><circle cx="518.5749" cy="538.2419" fill="black" r="0.738" stroke="none" /><circle cx="517.7675" cy="550.5544" fill="black" r="0.936" stroke="none" /><circle cx="514.392" cy="719.7248" fill="black" r="0.738" stroke="none" /><circle cx="512.3389" cy="549.4423" fill="black" r="0.738" stroke="none" /><circle cx="509.6462" cy="304.7124" fill="black" r="0.738" stroke="none" /><circle cx="508.2392" cy="117.0866" fill="black" r="1.17" stroke="none" /><circle cx="507.1581" cy="635.6381" fill="black" r="0.738" stroke="none" /><circle cx="497.9811" cy="168.4874" fill="black" r="1.17" stroke="none" /><circle cx="495.0969" cy="208.1406" fill="black" r="0.738" stroke="none" /><circle cx="495.6683" cy="687.0314" fill="black" r="0.738" stroke="none" /><circle cx="491.7138" cy="297.8926" fill="black" r="0.936" stroke="none" /><circle cx="482.8779" cy="722.7977" fill="black" r="0.738" stroke="none" /><circle cx="481.9323" cy="693.6235" fill="black" r="0.738" stroke="none" /><circle cx="475.8046" cy="334.6927" fill="black" r="0.936" stroke="none" /><circle cx="469.8175" cy="518.3354" fill="black" r="0.738" stroke="none" /><circle cx="461.698" cy="166.6963" fill="black" r="0.738" stroke="none" /><circle cx="459.4427" cy="277.6586" fill="black" r="1.476" stroke="none" /><circle cx="458.9069" cy="445.8352" fill="black" r="0.738" stroke="none" /><circle cx="450.7572" cy="359.1067" fill="black" r="0.738" stroke="none" /><circle cx="450.0642" cy="83.0581" fill="black" r="0.738" stroke="none" /><circle cx="449.3569" cy="520.3009" fill="black" r="0.936" stroke="none" /><circle cx="439.2642" cy="133.3026" fill="black" r="1.17" stroke="none" /><circle cx="439.1511" cy="213.8055" fill="black" r="0.738" stroke="none" /><circle cx="437.3218" cy="461.7587" fill="black" r="0.738" stroke="none" /><circle cx="432.3074" cy="121.2621" fill="black" r="0.936" stroke="none" /><circle cx="431.4264" cy="155.7576" fill="black" r="0.936" stroke="none" /><circle cx="427.4505" cy="378.2555" fill="black" r="0.738" stroke="none" /><circle cx="426.4566" cy="674.3354" fill="black" r="0.738" stroke="none" /><circle cx="424.7545" cy="605.1814" fill="black" r="0.738" stroke="none" /><circle cx="420.9857" cy="641.069" fill="black" r="0.738" stroke="none" /><circle cx="419.0653" cy="487.0" fill="black" r="0.738" stroke="none" /><circle cx="401.7869" cy="257.9206" fill="black" r="0.738" stroke="none" /><circle cx="400.7755" cy="579.0899" fill="black" r="0.738" stroke="none" /><circle cx="399.3227" cy="144.9521" fill="black" r="1.17" stroke="none" /><circle cx="381.3784" cy="350.7742" fill="black" r="0.738" stroke="none" /><circle cx="379.3423" cy="547.5705" fill="black" r="0.738" stroke="none" /><circle cx="373.1889" cy="122.1429" fill="black" r="0.738" stroke="none" /><circle cx="365.0543" cy="297.869" fill="black" r="0.738" stroke="none" /><circle cx="364.311" cy="226.5564" fill="black" r="0.738" stroke="none" /><circle cx="360.9235" cy="487.7634" fill="black" r="0.738" stroke="none" /><circle cx="359.5955" cy="457.9141" fill="black" r="0.936" stroke="none" /><circle cx="353.7367" cy="678.9397" fill="black" r="0.738" stroke="none" /><circle cx="353.0956" cy="355.1872" fill="black" r="0.936" stroke="none" /><circle cx="351.4246" cy="379.4449" fill="black" r="0.738" stroke="none" /><circle cx="349.0521" cy="172.5736" fill="black" r="0.738" stroke="none" /><circle cx="348.2025" cy="173.3575" fill="black" r="0.738" stroke="none" /><circle cx="345.4006" cy="140.6928" fill="black" r="0.936" stroke="none" /><circle cx="337.8035" cy="256.3538" fill="black" r="0.738" stroke="none" /><circle cx="332.9675" cy="647.7227" fill="black" r="0.738" stroke="none" /><circle cx="329.5783" cy="246.9903" fill="black" r="0.738" stroke="none" /><circle cx="325.608" cy="186.4781" fill="black" r="0.738" stroke="none" /><circle cx="321.9972" cy="250.3705" fill="black" r="0.738" stroke="none" /><circle cx="321.2676" cy="166.3807" fill="black" r="0.936" stroke="none" /><circle cx="321.0743" cy="376.138" fill="black" r="0.738" stroke="none" /><circle cx="311.1558" cy="551.7984" fill="black" r="0.936" stroke="none" /><circle cx="308.1982" cy="460.7506" fill="black" r="0.738" stroke="none" /><circle cx="307.3671" cy="551.9605" fill="black" r="0.738" stroke="none" /><circle cx="304.2279" cy="467.1076" fill="black" r="0.738" stroke="none" /><circle cx="304.1421" cy="376.1656" fill="black" r="0.936" stroke="none" /><circle cx="302.7292" cy="301.8856" fill="black" r="0.738" stroke="none" /><circle cx="296.8472" cy="488.8999" fill="black" r="0.738" stroke="none" /><circle cx="296.1614" cy="488.5481" fill="black" r="0.738" stroke="none" /><circle cx="294.8117" cy="318.6979" fill="black" r="0.738" stroke="none" /><circle cx="287.7637" cy="545.4271" fill="black" r="0.738" stroke="none" /><circle cx="289.2212" cy="185.1932" fill="black" r="0.738" stroke="none" /><circle cx="284.3257" cy="99.927" fill="black" r="0.738" stroke="none" /><circle cx="272.9153" cy="412.2473" fill="black" r="0.738" stroke="none" /><circle cx="271.7334" cy="247.8775" fill="black" r="0.738" stroke="none" /><circle cx="267.614" cy="695.5387" fill="black" r="0.738" stroke="none" /><circle cx="260.6653" cy="263.6156" fill="black" r="1.17" stroke="none" /><circle cx="259.8859" cy="128.7845" fill="black" r="0.738" stroke="none" /><circle cx="250.4776" cy="354.7765" fill="black" r="0.738" stroke="none" /><circle cx="250.8076" cy="182.6133" fill="black" r="0.738" stroke="none" /><circle cx="246.2326" cy="647.0429" fill="black" r="0.738" stroke="none" /><circle cx="237.6391" cy="549.2783" fill="black" r="0.738" stroke="none" /><circle cx="229.2352" cy="599.6983" fill="black" r="0.738" stroke="none" /><circle cx="230.7461" cy="280.618" fill="black" r="0.936" stroke="none" /><circle cx="225.3705" cy="489.4843" fill="black" r="0.738" stroke="none" /><circle cx="223.8446" cy="75.6625" fill="black" r="0.738" stroke="none" /><circle cx="213.7133" cy="473.4279" fill="black" r="0.738" stroke="none" /><circle cx="207.1356" cy="589.3375" fill="black" r="0.738" stroke="none" /><circle cx="205.651" cy="234.9308" fill="black" r="0.738" stroke="none" /><circle cx="200.2329" cy="428.8023" fill="black" r="0.738" stroke="none" /><circle cx="191.8587" cy="363.604" fill="black" r="0.738" stroke="none" /><circle cx="183.8991" cy="539.0383" fill="black" r="1.476" stroke="none" /><circle cx="183.9255" cy="220.9382" fill="black" r="0.738" stroke="none" /><circle cx="182.7724" cy="244.0714" fill="black" r="0.738" stroke="none" /><circle cx="178.0187" cy="709.1643" fill="black" r="0.738" stroke="none" /><circle cx="171.4578" cy="126.9032" fill="black" r="0.738" stroke="none" /><circle cx="165.5853" cy="715.3631" fill="black" r="0.936" stroke="none" /><circle cx="167.6154" cy="279.4695" fill="black" r="0.738" stroke="none" /><circle cx="165.4377" cy="408.8599" fill="black" r="0.738" stroke="none" /><circle cx="163.4051" cy="361.2517" fill="black" r="0.936" stroke="none" /><circle cx="158.3064" cy="631.2404" fill="black" r="0.738" stroke="none" /><circle cx="156.6463" cy="496.6257" fill="black" r="0.738" stroke="none" /><circle cx="156.3048" cy="236.3837" fill="black" r="0.738" stroke="none" /><circle cx="134.1692" cy="663.1847" fill="black" r="0.738" stroke="none" /><circle cx="135.489" cy="463.2349" fill="black" r="0.738" stroke="none" /><circle cx="132.7994" cy="124.3671" fill="black" r="0.936" stroke="none" /><circle cx="119.0831" cy="570.5071" fill="black" r="0.738" stroke="none" /><circle cx="121.0254" cy="357.7512" fill="black" r="0.738" stroke="none" /><circle cx="106.191" cy="518.6531" fill="black" r="0.738" stroke="none" /><circle cx="108.5757" cy="290.9571" fill="black" r="0.738" stroke="none" /><circle cx="107.8663" cy="198.5114" fill="black" r="0.738" stroke="none" /><circle cx="97.6057" cy="442.0322" fill="black" r="0.738" stroke="none" /><circle cx="97.0929" cy="441.8515" fill="black" r="0.738" stroke="none" /><circle cx="99.5421" cy="224.1808" fill="black" r="0.738" stroke="none" /><circle cx="91.2502" cy="331.5371" fill="black" r="0.738" stroke="none" /><circle cx="86.8212" cy="118.5103" fill="black" r="0.738" stroke="none" /><circle cx="80.6861" cy="580.0533" fill="black" r="0.738" stroke="none" /><circle cx="77.0284" cy="406.4868" fill="black" r="0.738" stroke="none" /><circle cx="73.3213" cy="658.1977" fill="black" r="0.738" stroke="none" /><circle cx="78.2634" cy="90.4913" fill="black" r="1.476" stroke="none" /><circle cx="72.4829" cy="467.2368" fill="black" r="0.936" stroke="none" /><circle cx="13.77" cy="786.23" fill="black" r="4.59" stroke="none" /><circle cx="13.77" cy="786.23" fill="black" r="4.59" stroke="none" /><text fill="black" font-family="monospace" font-size="12" x="10.77" y="775.64">1</text><circle cx="37.77" cy="786.23" fill="black" r="3.654" stroke="none" /><circle cx="37.77" cy="786.23" fill="black" r="3.654" stroke="none" /><text fill="black" font-family="monospace" font-size="12" x="34.769999999999996" y="775.64">2</text><circle cx="61.77" cy="786.23" fill="black" r="2.916" stroke="none" /><circle cx="61.77" cy="786.23" fill="black" r="2.916" stroke="none" /><text fill="black" font-family="monospace" font-size="12" x="58.769999999999996" y="775.64">3</text><circle cx="85.77" cy="786.23" fill="black" r="2.322" stroke="none" /><circle cx="85.77" cy="786.23" fill="black" r="2.322" stroke="none" /><text fill="black" font-family="monospace" font-size="12" x="82.77" y="775.64">4</text><circle cx="109.77" cy="786.23" fill="black" r="1.854" stroke="none" /><circle cx="109.77" cy="786.23" fill="black" r="1.854" stroke="none" /><text fill="black" font-family="monospace" font-size="12" x="106.77" y="775.64">5</text><circle cx="133.77" cy="786.23" fill="black" r="1.476" stroke="none" /><circle cx="133.77" cy="786.23" fill="black" r="1.476" stroke="none" /><text fill="black" font-family="monospace" font-size="12" x="130.77" y="775.64">6</text><circle cx="157.77" cy="786.23" fill="black" r="1.17" stroke="none" /><circle cx="157.77" cy="786.23" fill="black" r="1.17" stroke="none" /><text fill="black" font-family="monospace" font-size="12" x="154.77" y="775.64">7</text><circle cx="181.77" cy="786.23" fill="black" r="0.936" stroke="none" /><circle cx="181.77" cy="786.23" fill="black" r="0.936" stroke="none" /><text fill="black" font-family="monospace" font-size="12" x="178.77" y="775.64">8</text><circle cx="205.77" cy="786.23" fill="black" r="0.738" stroke="none" /><circle cx="205.77" cy="786.23" fill="black" r="0.738" stroke="none" /><text fill="black" font-family="monospace" font-size="12" x="202.77" y="775.64">9</text><text fill="gray" fill-opacity="0.5" font-family="monospace" font-size="12" x="667.2593201470831" y="726.1931475255399">05h40m</text><text fill="gray" fill-opacity="0.5" font-family="monospace" font-size="12" x="558.9466393701717" y="726.9512327079211">05h45m</text><text fill="gray" fill-opacity="0.5" font-family="monospace" font-size="12" x="450.6687807991547" y="727.3239452491905">05h50m</text><text fill="gray" fill-opacity="0.5" font-family="monospace" font-size="12" x="342.4020205988675" y="727.311625930214">05h55m</text><text fill="gray" fill-opacity="0.5" font-family="monospace" font-size="12" x="234.1226441897291" y="726.9142634888703">06h00m</text><text fill="gray" fill-opacity="0.5" font-family="monospace" font-size="12" x="125.80692647066809" y="726.1314945984966">06h05m</text><text fill="gray" fill-opacity="0.5" font-family="monospace" font-size="12" x="69.07562254133444" y="681.8437530108927">+8°</text><text fill="gray" fill-opacity="0.5" font-family="monospace" font-size="12" x="70.07703279110092" y="594.4377042090786">+9°</text><text fill="gray" fill-opacity="0.5" font-family="monospace" font-size="12" x="71.12805906850485" y="507.06248851605994">+10°</text><text fill="gray" fill-opacity="0.5" font-family="monospace" font-size="12" x="72.22882059537574" y="419.70482979950214">+11°</text><text fill="gray" fill-opacity="0.5" font-family="monospace" font-size="12" x="73.37946686750757" y="332.351462576827">+12°</text><text fill="gray" fill-opacity="0.5" font-family="monospace" font-size="12" x="74.58017772919862" y="244.98912396908324">+13°</text><text fill="gray" fill-opacity="0.5" font-family="monospace" font-size="12" x="75.83116348700958" y="157.60454565816772">+14°</text><text fill="gray" fill-opacity="0.5" font-family="monospace" font-size="12" x="77.13266506289585" y="70.1844458370499">+15°</text><text fill="black" font-family="monospace" font-size="12" x="12" y="48">&gt;&gt; No.468 05h37m 06h08m +7.5°+15.0°</text><a target="_self" xlink:href="hip025.svg"><text fill="black" font-family="monospace" font-size="12" x="12" y="36">&gt; No.25 05h20m 08h00m +0.0°+22.5°</text></a><a target="_self" xlink:href="hip002.svg"><text fill="black" font-family="monospace" font-size="12" x="12" y="24">No.2 00h 24h +0.0°+90.0°</text></a><polyline fill="none" points="722.8673,70.1844 713.1544,70.3296 702.5974,70.4824 692.0411,70.6299 681.4854,70.7721 670.9302,70.9091 660.3755,71.0409 649.8214,71.1674 639.2678,71.2887 628.7147,71.4048 618.162,71.5156 607.6098,71.6211 597.058,71.7215 586.5066,71.8166 575.9555,71.9064 565.4048,71.9911 554.8545,72.0705 544.3044,72.1446 533.7547,72.2135 523.2052,72.2772 512.656,72.3357 502.107,72.3889 491.5582,72.4369 481.0095,72.4797 470.4611,72.5172 459.9128,72.5496 449.3646,72.5766 438.8165,72.5985 428.2685,72.6151 417.7205,72.6265 407.1726,72.6327 396.6247,72.6336 386.0768,72.6293 375.5288,72.6198 364.9808,72.6051 354.4328,72.5851 343.8846,72.5599 333.3363,72.5295 322.7879,72.4938 312.2394,72.4529 301.6906,72.4068 291.1417,72.3555 280.5926,72.2989 270.0432,72.2371 259.4935,72.17 248.9436,72.0978 238.3933,72.0202 227.8428,71.9375 217.2919,71.8495 206.7406,71.7563 196.1889,71.6579 185.6368,71.5542 175.0843,71.4453 164.5314,71.3311 153.9779,71.2117 143.424,71.0871 132.8696,70.9572 122.3146,70.8221 111.759,70.6817 101.2029,70.5361 90.6462,70.3852 80.0888,70.2291 77.1327,70.1844" stroke="black" stroke-opacity="0.5" stroke-width="1" /><polyline fill="none" points="731.4065,725.5625 731.2871,714.6317 731.167,703.7016 731.0461,692.7723 730.9244,681.8438 730.8019,670.9159 730.6787,659.9886 730.5547,649.062 730.4299,638.136 730.3043,627.2106 730.178,616.2858 730.0509,605.3615 729.923,594.4377 729.7943,583.5144 729.6649,572.5915 729.5347,561.6691 729.4037,550.7471 729.2719,539.8254 729.1394,528.9041 729.006,517.9832 728.8719,507.0625 728.7371,496.1421 728.6014,485.2219 728.465,474.302 728.3278,463.3823 728.1898,452.4627 728.051,441.5433 727.9115,430.624 727.7712,419.7048 727.6301,408.7857 727.4882,397.8666 727.3455,386.9475 727.2021,376.0284 727.0579,365.1093 726.9129,354.1901 726.7671,343.2709 726.6205,332.3515 726.4732,321.4319 726.3251,310.5122 726.1761,299.5923 726.0264,288.6722 725.876,277.7519 725.7247,266.8313 725.5727,255.9104 725.4198,244.9891 725.2662,234.0675 725.1118,223.1456 724.9566,212.2232 724.8006,201.3004 724.6439,190.3772 724.4863,179.4535 724.328,168.5293 724.1688,157.6045 724.0089,146.6792 723.8482,135.7534 723.6867,124.8269 723.5244,113.8998 723.3613,102.972 723.1975,92.0435 723.0328,81.1144 722.8673,70.1844" stroke="black" stroke-opacity="0.5" stroke-width="1" /><polyline fill="none" points="731.4065,725.5625 721.4361,725.6694 710.5995,725.7819 699.7635,725.8905 688.9281,725.9952 678.0934,726.0961 667.2593,726.1931 656.4258,726.2863 645.5929,726.3756 634.7604,726.4611 623.9285,726.5427 613.0971,726.6204 602.2662,726.6943 591.4357,726.7643 580.6056,726.8305 569.7759,726.8928 558.9466,726.9512 548.1177,727.0058 537.289,727.0566 526.4607,727.1035 515.6326,727.1465 504.8048,727.1857 493.9773,727.2211 483.1499,727.2526 472.3227,727.2802 461.4957,727.304 450.6688,727.3239 439.842,727.34 429.0153,727.3523 418.1887,727.3607 407.3621,727.3652 396.5355,727.3659 385.7089,727.3628 374.8823,727.3557 364.0556,727.3449 353.2289,727.3302 342.402,727.3116 331.575,727.2892 320.7479,727.263 309.9206,727.2329 299.0931,727.1989 288.2654,727.1611 277.4374,727.1194 266.6092,727.0739 255.7807,727.0246 244.9518,726.9713 234.1226,726.9143 223.2931,726.8533 212.4632,726.7886 201.6328,726.7199 190.802,726.6474 179.9708,726.5711 169.1391,726.4909 158.3069,726.4068 147.4741,726.3189 136.6408,726.2271 125.8069,726.1315 114.9724,726.032 104.1373,725.9286 93.3016,725.8214 82.4651,725.7103 71.628,725.5954 68.5935,725.5625" stroke="black" stroke-opacity="0.5" stroke-width="1" /><polyline fill="none" points="68.5935,725.5625 68.7129,714.6317 68.833,703.7016 68.9539,692.7723 69.0756,681.8438 69.1981,670.9159 69.3213,659.9886 69.4453,649.062 69.5701,638.136 69.6957,627.2106 69.822,616.2858 69.9491,605.3615 70.077,594.4377 70.2057,583.5144 70.3351,572.5915 70.4653,561.6691 70.5963,550.7471 70.7281,539.8254 70.8606,528.9041 70.994,517.9832 71.1281,507.0625 71.2629,496.1421 71.3986,485.2219 71.535,474.302 71.6722,463.3823 71.8102,452.4627 71.949,441.5433 72.0885,430.624 72.2288,419.7048 72.3699,408.7857 72.5118,397.8666 72.6545,386.9475 72.7979,376.0284 72.9421,365.1093 73.0871,354.1901 73.2329,343.2709 73.3795,332.3515 73.5268,321.4319 73.6749,310.5122 73.8239,299.5923 73.9736,288.6722 74.124,277.7519 74.2753,266.8313 74.4273,255.9104 74.5802,244.9891 74.7338,234.0675 74.8882,223.1456 75.0434,212.2232 75.1994,201.3004 75.3561,190.3772 75.5137,179.4535 75.672,168.5293 75.8312,157.6045 75.9911,146.6792 76.1518,135.7534 76.3133,124.8269 76.4756,113.8998 76.6387,102.972 76.8025,92.0435 76.9672,81.1144 77.1327,70.1844" stroke="black" stroke-opacity="0.5" stroke-width="1" /></svg>