<?xml version="1.0" encoding="utf-8" ?>
<svg baseProfile="tiny" height="800" version="1.2" width="800" xmlns="http://www.w3.org/2000/svg" xmlns:ev="http://www.w3.org/2001/xml-events" xmlns:xlink="http://www.w3.org/1999/xlink"><defs /><rect fill="none" height="800" stroke="black" stroke-width="2" width="800" x="0" y="0" /><polyline fill="none" points="706.6984,725.8214 706.588,714.8922 706.4768,703.9638 706.3649,693.0361 706.2523,682.1091 706.139,671.1828 706.025,660.2572 705.9102,649.3322 705.7947,638.4078 705.6786,627.484 705.5617,616.5607 705.444,605.638 705.3257,594.7158 705.2067,583.794 705.0869,572.8728 704.9664,561.9519 704.8452,551.0315 704.7233,540.1114 704.6006,529.1917 704.4773,518.2723 704.3532,507.3532 704.2284,496.4343 704.1029,485.5158 703.9766,474.5974 703.8497,463.6792 703.722,452.7612 703.5936,441.8434 703.4645,430.9256 703.3346,420.008 703.2041,409.0904 703.0728,398.1729 702.9408,387.2553 702.8081,376.3378 702.6746,365.4202 702.5405,354.5026 702.4056,343.5848 702.27,332.667 702.1336,321.749 701.9965,310.8308 701.8588,299.9124 701.7202,288.9939 701.581,278.075 701.441,267.1559 701.3003,256.2365 701.1589,245.3168 701.0168,234.3967 700.8739,223.4763 700.7303,212.5554 700.586,201.6342 700.4409,190.7124 700.2951,179.7902 700.1486,168.8675 700.0014,157.9443 699.8534,147.0205 699.7047,136.0961 699.5553,125.1711 699.4051,114.2455 699.2542,103.3192 699.1026,92.3922 698.9502,81.4645 698.7971,70.5361" stroke="silver" stroke-opacity="0.5" stroke-width="1" /><polyline fill="none" points="598.3672,726.7199 598.2958,715.7963 598.2239,704.8734 598.1516,693.9513 598.0788,683.0299 598.0055,672.1091 597.9318,661.189 597.8576,650.2696 597.783,639.3507 597.7079,628.4324 597.6323,617.5147 597.5563,606.5975 597.4798,595.6808 597.4028,584.7645 597.3254,573.8488 597.2475,562.9334 597.1692,552.0184 597.0904,541.1038 597.0111,530.1895 596.9313,519.2756 596.8511,508.3619 596.7705,497.4485 596.6893,486.5354 596.6077,475.6225 596.5256,464.7097 596.4431,453.7971 596.3601,442.8847 596.2766,431.9723 596.1927,421.06 596.1083,410.1478 596.0234,399.2357 595.9381,388.3235 595.8523,377.4113 595.766,366.4991 595.6793,355.5868 595.5921,344.6744 595.5044,333.7618 595.4163,322.8491 595.3277,311.9363 595.2386,301.0232 595.1491,290.1099 595.0591,279.1964 594.9686,268.2826 594.8776,257.3684 594.7862,246.454 594.6943,235.5392 594.602,224.624 594.5091,213.7084 594.4158,202.7923 594.3221,191.8758 594.2278,180.9588 594.1331,170.0413 594.0379,159.1233 593.9423,148.2046 593.8461,137.2854 593.7495,126.3656 593.6525,115.4451 593.5549,104.524 593.4569,93.6022 593.3584,82.6796 593.2594,71.7563" stroke="silver" stroke-opacity="0.5" stroke-width="1" /><polyline fill="none" points="490.0794,727.2329 490.047,716.3124 490.0144,705.3927 489.9815,694.4738 489.9485,683.5555 489.9152,672.6379 489.8818,661.721 489.8481,650.8047 489.8142,639.889 489.7801,628.9739 489.7458,618.0593 489.7113,607.1452 489.6766,596.2317 489.6416,585.3186 489.6065,574.4059 489.5711,563.4937 489.5355,552.5818 489.4998,541.6703 489.4638,530.7592 489.4276,519.8484 489.3912,508.9378 489.3545,498.0275 489.3177,487.1175 489.2807,476.2076 489.2434,465.298 489.2059,454.3885 489.1682,443.4791 489.1304,432.5698 489.0923,421.6606 489.0539,410.7515 489.0154,399.8424 488.9767,388.9333 488.9377,378.0241 488.8986,367.115 488.8592,356.2057 488.8196,345.2963 488.7798,334.3868 488.7398,323.4772 488.6996,312.5674 488.6591,301.6573 488.6185,290.7471 488.5776,279.8366 488.5365,268.9257 488.4953,258.0146 488.4538,247.1032 488.412,236.1914 488.3701,225.2791 488.328,214.3665 488.2856,203.4535 488.243,192.5399 488.2003,181.6259 488.1573,170.7114 488.1141,159.7963 488.0706,148.8807 488.027,137.9644 487.9831,127.0475 487.9391,116.13 487.8948,105.2118 487.8503,94.2929 487.8056,83.3733 487.7606,72.4529" stroke="silver" stroke-opacity="0.5" stroke-width="1" /><polyline fill="none" points="381.8113,727.3607 381.8179,716.441 381.8245,705.5221 381.8311,694.604 381.8378,683.6865 381.8445,672.7697 381.8512,661.8536 381.858,650.9381 381.8649,640.0232 381.8718,629.1088 381.8787,618.195 381.8857,607.2817 381.8927,596.3689 381.8997,585.4566 381.9068,574.5447 381.914,563.6333 381.9211,552.7222 381.9284,541.8115 381.9356,530.9011 381.9429,519.9911 381.9503,509.0813 381.9577,498.1718 381.9651,487.2625 381.9726,476.3534 381.9801,465.4446 381.9877,454.5358 381.9953,443.6272 382.0029,432.7187 382.0106,421.8103 382.0184,410.9019 382.0262,399.9936 382.034,389.0852 382.0418,378.1769 382.0497,367.2684 382.0577,356.3599 382.0657,345.4513 382.0737,334.5426 382.0818,323.6337 382.0899,312.7246 382.0981,301.8154 382.1063,290.9058 382.1145,279.9961 382.1228,269.086 382.1312,258.1756 382.1396,247.2649 382.148,236.3539 382.1564,225.4424 382.1649,214.5305 382.1735,203.6182 382.1821,192.7054 382.1907,181.7922 382.1994,170.8784 382.2081,159.964 382.2169,149.0491 382.2257,138.1336 382.2346,127.2175 382.2435,116.3007 382.2524,105.3832 382.2614,94.4651 382.2704,83.5462 382.2795,72.6265" stroke="silver" stroke-opacity="0.5" stroke-width="1" /><polyline fill="none" points="273.5393,727.1035 273.5848,716.1822 273.6306,705.2618 273.6767,694.342 273.7231,683.4229 273.7698,672.5046 273.8168,661.5868 273.864,650.6697 273.9116,639.7532 273.9595,628.8373 274.0077,617.9219 274.0561,607.0071 274.1049,596.0927 274.1539,585.1788 274.2033,574.2654 274.2529,563.3524 274.3029,552.4397 274.3531,541.5274 274.4036,530.6155 274.4544,519.7039 274.5056,508.7926 274.557,497.8815 274.6087,486.9707 274.6607,476.06 274.713,465.1496 274.7656,454.2393 274.8185,443.3292 274.8717,432.4191 274.9252,421.5092 274.979,410.5992 275.0331,399.6894 275.0875,388.7795 275.1422,377.8696 275.1972,366.9596 275.2524,356.0496 275.308,345.1395 275.3639,334.2292 275.4201,323.3188 275.4765,312.4082 275.5333,301.4974 275.5904,290.5864 275.6478,279.6751 275.7054,268.7635 275.7634,257.8517 275.8217,246.9394 275.8802,236.0269 275.9391,225.1139 275.9983,214.2005 276.0577,203.2867 276.1175,192.3724 276.1776,181.4577 276.2379,170.5424 276.2986,159.6265 276.3596,148.7102 276.4208,137.7932 276.4824,126.8755 276.5443,115.9573 276.6065,105.0383 276.6689,94.1187 276.7317,83.1983 276.7948,72.2772" stroke="silver" stroke-opacity="0.5" stroke-width="1" /><polyline fill="none" points="165.2396,726.4611 165.3241,715.5358 165.4091,704.6114 165.4947,693.6876 165.5809,682.7646 165.6676,671.8423 165.7549,660.9206 165.8427,649.9995 165.931,639.0791 166.0199,628.1592 166.1094,617.2399 166.1993,606.3211 166.2899,595.4028 166.381,584.485 166.4726,573.5676 166.5648,562.6506 166.6576,551.7341 166.7508,540.8179 166.8447,529.9021 166.9391,518.9865 167.034,508.0713 167.1295,497.1564 167.2255,486.2416 167.3221,475.3271 167.4193,464.4128 167.517,453.4987 167.6152,442.5847 167.714,431.6708 167.8134,420.757 167.9133,409.8432 168.0137,398.9295 168.1147,388.0158 168.2163,377.102 168.3184,366.1883 168.421,355.2744 168.5242,344.3605 168.628,333.4464 168.7323,322.5322 168.8372,311.6178 168.9426,300.7032 169.0486,289.7884 169.1552,278.8733 169.2623,267.958 169.3699,257.0423 169.4781,246.1264 169.5869,235.21 169.6962,224.2933 169.8061,213.3762 169.9165,202.4587 170.0275,191.5406 170.1391,180.6222 170.2512,169.7031 170.3638,158.7836 170.4771,147.8635 170.5908,136.9428 170.7052,126.0215 170.8201,115.0995 170.9356,104.1769 171.0516,93.2536 171.1682,82.3296 171.2853,71.4048" stroke="silver" stroke-opacity="0.5" stroke-width="1" /><polyline fill="none" points="731.3573,681.8389 727.8943,681.8774 717.0729,681.9952 706.2523,682.1091 695.4323,682.219 684.613,682.3249 673.7943,682.4269 662.9762,682.5249 652.1587,682.6189 641.3417,682.709 630.5252,682.7952 619.7093,682.8774 608.8938,682.9556 598.0788,683.0299 587.2642,683.1002 576.45,683.1666 565.6362,683.229 554.8228,683.2875 544.0097,683.3421 533.1969,683.3926 522.3844,683.4393 511.5722,683.482 500.7602,683.5207 489.9485,683.5555 479.1369,683.5864 468.3255,683.6133 457.5143,683.6362 446.7032,683.6553 435.8921,683.6703 425.0812,683.6815 414.2703,683.6886 403.4595,683.6919 392.6486,683.6912 381.8378,683.6865 371.0269,683.6779 360.2159,683.6654 349.4049,683.6489 338.5937,683.6284 327.7824,683.6041 316.9709,683.5757 306.1593,683.5434 295.3475,683.5072 284.5354,683.4671 273.7231,683.4229 262.9105,683.3749 252.0976,683.3229 241.2844,683.2669 230.4708,683.207 219.6569,683.1432 208.8426,683.0753 198.0279,683.0036 187.2127,682.9279 176.397,682.8482 165.5809,682.7646 154.7643,682.677 143.9471,682.5855 133.1293,682.49 122.311,682.3906 111.4921,682.2872 100.6725,682.1799 89.8523,682.0686 79.0315,681.9533 68.6427,681.8389" stroke="silver" stroke-opacity="0.5" stroke-width="1" /><polyline fill="none" points="730.3545,594.4326 726.9021,594.473 716.1135,594.5965 705.3257,594.7158 694.5385,594.8309 683.752,594.9419 672.9661,595.0488 662.1807,595.1515 651.396,595.2501 640.6117,595.3445 629.828,595.4348 619.0448,595.5209 608.2621,595.6029 597.4798,595.6808 586.6979,595.7545 575.9165,595.8241 565.1354,595.8895 554.3547,595.9508 543.5743,596.0079 532.7942,596.061 522.0144,596.1098 511.2349,596.1546 500.4556,596.1952 489.6766,596.2317 478.8977,596.264 468.119,596.2922 457.3404,596.3163 446.562,596.3362 435.7836,596.352 425.0054,596.3637 414.2272,596.3712 403.449,596.3746 392.6708,596.3738 381.8927,596.3689 371.1144,596.3599 360.3362,596.3468 349.5578,596.3295 338.7793,596.3081 328.0007,596.2825 317.2219,596.2528 306.443,596.219 295.6639,596.1811 284.8845,596.139 274.1049,596.0927 263.325,596.0424 252.5448,595.9879 241.7643,595.9292 230.9834,595.8664 220.2022,595.7995 209.4206,595.7284 198.6386,595.6532 187.8562,595.5739 177.0733,595.4904 166.2899,595.4028 155.506,595.311 144.7216,595.2151 133.9366,595.115 123.1511,595.0108 112.3649,594.9025 101.5782,594.79 90.7908,594.6733 80.0027,594.5525 69.6455,594.4326" stroke="silver" stroke-opacity="0.5" stroke-width="1" /><polyline fill="none" points="729.3021,507.0572 725.8607,507.0994 715.1066,507.2285 704.3532,507.3532 693.6004,507.4736 682.8483,507.5896 672.0968,507.7013 661.3458,507.8087 650.5955,507.9117 639.8456,508.0104 629.0963,508.1048 618.3474,508.1948 607.5991,508.2806 596.8511,508.3619 586.1036,508.439 575.3565,508.5117 564.6098,508.5801 553.8634,508.6442 543.1173,508.7039 532.3716,508.7594 521.6261,508.8105 510.8809,508.8572 500.1359,508.8997 489.3912,508.9378 478.6466,508.9716 467.9022,509.0011 457.1579,509.0262 446.4138,509.0471 435.6698,509.0636 424.9258,509.0758 414.1819,509.0836 403.438,509.0872 392.6942,509.0864 381.9503,509.0813 371.2064,509.0719 360.4624,509.0581 349.7183,509.0401 338.9741,509.0177 328.2298,508.991 317.4854,508.9599 306.7408,508.9246 295.9959,508.8849 285.2509,508.8409 274.5056,508.7926 263.76,508.7399 253.0141,508.6829 242.268,508.6216 231.5215,508.556 220.7746,508.486 210.0273,508.4118 199.2797,508.3331 188.5316,508.2502 177.783,508.1629 167.034,508.0713 156.2845,507.9754 145.5345,507.8751 134.7839,507.7705 124.0327,507.6616 113.281,507.5483 102.5286,507.4307 91.7757,507.3088 81.022,507.1825 70.6979,507.0572" stroke="silver" stroke-opacity="0.5" stroke-width="1" /><polyline fill="none" points="728.1999,419.6993 724.77,419.7433 714.052,419.8779 703.3346,420.008 692.6179,420.1335 681.9019,420.2546 671.1864,420.3711 660.4714,420.483 649.7571,420.5905 639.0432,420.6934 628.3299,420.7919 617.6171,420.8858 606.9047,420.9752 596.1927,421.06 585.4812,421.1404 574.77,421.2163 564.0592,421.2876 553.3488,421.3544 542.6387,421.4167 531.9289,421.4745 521.2194,421.5278 510.5101,421.5766 499.8011,421.6209 489.0923,421.6606 478.3836,421.6959 467.6751,421.7266 456.9668,421.7529 446.2586,421.7746 435.5505,421.7918 424.8425,421.8045 414.1345,421.8127 403.4265,421.8164 392.7186,421.8156 382.0106,421.8103 371.3026,421.8005 360.5946,421.7861 349.8864,421.7673 339.1782,421.7439 328.4698,421.7161 317.7613,421.6837 307.0526,421.6468 296.3437,421.6055 285.6346,421.5596 274.9252,421.5092 264.2156,421.4542 253.5057,421.3948 242.7955,421.3309 232.0849,421.2624 221.374,421.1895 210.6627,421.112 199.951,421.03 189.2389,420.9435 178.5264,420.8525 167.8134,420.757 157.0998,420.6569 146.3858,420.5523 135.6713,420.4432 124.9561,420.3296 114.2404,420.2115 103.5241,420.0889 92.8072,419.9617 82.0896,419.83 71.8001,419.6993" stroke="silver" stroke-opacity="0.5" stroke-width="1" /><polyline fill="none" points="727.0478,332.3457 723.6299,332.3915 712.9496,332.5316 702.27,332.667 691.5909,332.7976 680.9125,332.9236 670.2347,333.0448 659.5574,333.1613 648.8807,333.2732 638.2045,333.3803 627.5288,333.4827 616.8536,333.5805 606.1788,333.6735 595.5044,333.7618 584.8305,333.8455 574.157,333.9244 563.4838,333.9986 552.8109,334.0682 542.1384,334.133 531.4662,334.1932 520.7942,334.2486 510.1225,334.2994 499.4511,334.3455 488.7798,334.3868 478.1087,334.4235 467.4378,334.4555 456.767,334.4828 446.0964,334.5054 435.4258,334.5234 424.7554,334.5366 414.0849,334.5451 403.4145,334.549 392.7441,334.5481 382.0737,334.5426 371.4033,334.5324 360.7328,334.5175 350.0622,334.4978 339.3915,334.4735 328.7207,334.4446 318.0497,334.4109 307.3786,334.3725 296.7072,334.3294 286.0357,334.2817 275.3639,334.2292 264.6918,334.1721 254.0195,334.1102 243.3469,334.0437 232.6739,333.9724 222.0006,333.8965 211.3269,333.8159 200.6528,333.7306 189.9783,333.6405 179.3034,333.5458 168.628,333.4464 157.9521,333.3423 147.2758,333.2335 136.5988,333.1199 125.9214,333.0017 115.2433,332.8788 104.5647,332.7511 93.8854,332.6188 83.2056,332.4817 72.9522,332.3457" stroke="silver" stroke-opacity="0.5" stroke-width="1" /><polyline fill="none" points="725.8455,244.9831 722.4402,245.0307 711.7993,245.1762 701.1589,245.3168 690.5192,245.4525 679.8801,245.5833 669.2416,245.7093 658.6036,245.8303 647.9662,245.9465 637.3292,246.0577 626.6928,246.1641 616.0568,246.2656 605.4213,246.3622 594.7862,246.454 584.1515,246.5409 573.5172,246.6228 562.8833,246.6999 552.2496,246.7722 541.6163,246.8395 530.9833,246.902 520.3506,246.9596 509.7181,247.0123 499.0858,247.0602 488.4538,247.1032 477.8219,247.1413 467.1902,247.1745 456.5586,247.2029 445.9271,247.2264 435.2957,247.245 424.6644,247.2587 414.0332,247.2676 403.402,247.2716 392.7708,247.2707 382.1396,247.2649 371.5083,247.2543 360.877,247.2388 350.2456,247.2185 339.6141,247.1932 328.9824,247.1631 318.3507,247.1281 307.7187,247.0883 297.0866,247.0435 286.4542,246.9939 275.8217,246.9394 265.1888,246.8801 254.5557,246.8158 243.9223,246.7467 233.2886,246.6728 222.6545,246.5939 212.02,246.5101 201.3852,246.4215 190.7499,246.328 180.1143,246.2296 169.4781,246.1264 158.8415,246.0182 148.2044,245.9052 137.5668,245.7873 126.9286,245.6645 116.2899,245.5368 105.6506,245.4042 95.0106,245.2668 84.3701,245.1244 74.1545,244.9831" stroke="silver" stroke-opacity="0.5" stroke-width="1" /><polyline fill="none" points="724.5929,157.5984 721.2007,157.6477 710.6007,157.7985 700.0014,157.9443 689.4026,158.085 678.8045,158.2206 668.2069,158.3511 657.6099,158.4766 647.0134,158.5971 636.4174,158.7124 625.8218,158.8227 615.2268,158.928 604.6321,159.0281 594.0379,159.1233 583.4441,159.2133 572.8507,159.2983 562.2576,159.3783 551.6648,159.4531 541.0724,159.523 530.4802,159.5877 519.8883,159.6475 509.2967,159.7021 498.7053,159.7517 488.1141,159.7963 477.523,159.8358 466.9321,159.8703 456.3414,159.8997 445.7507,159.924 435.1602,159.9433 424.5697,159.9576 413.9793,159.9667 403.3889,159.9709 392.7985,159.97 382.2081,159.964 371.6177,159.953 361.0272,159.9369 350.4366,159.9158 339.846,159.8897 329.2552,159.8584 318.6642,159.8222 308.0731,159.7808 297.4818,159.7345 286.8903,159.683 276.2986,159.6265 265.7066,159.565 255.1144,159.4984 244.5218,159.4268 233.9289,159.3501 223.3357,159.2683 212.7422,159.1815 202.1482,159.0896 191.5538,158.9927 180.9591,158.8907 170.3638,158.7836 159.7681,158.6715 149.172,158.5543 138.5753,158.432 127.978,158.3047 117.3802,158.1724 106.7819,158.0349 96.1829,157.8924 85.5833,157.7448 75.4071,157.5984" stroke="silver" stroke-opacity="0.5" stroke-width="1" /><polyline fill="none" points="723.2896,70.178 719.9112,70.2291 709.3538,70.3852 698.7971,70.5361 688.241,70.6817 677.6854,70.8221 667.1304,70.9572 656.576,71.0871 646.0221,71.2117 635.4686,71.3311 624.9157,71.4453 614.3632,71.5542 603.8111,71.6579 593.2594,71.7563 582.7081,71.8495 572.1572,71.9375 561.6067,72.0202 551.0564,72.0978 540.5065,72.17 529.9568,72.2371 519.4074,72.2989 508.8583,72.3555 498.3094,72.4068 487.7606,72.4529 477.2121,72.4938 466.6637,72.5295 456.1154,72.5599 445.5672,72.5851 435.0192,72.6051 424.4712,72.6198 413.9232,72.6293 403.3753,72.6336 392.8274,72.6327 382.2795,72.6265 371.7315,72.6151 361.1835,72.5985 350.6354,72.5766 340.0872,72.5496 329.5389,72.5172 318.9905,72.4797 308.4418,72.4369 297.893,72.3889 287.344,72.3357 276.7948,72.2772 266.2453,72.2135 255.6956,72.1446 245.1455,72.0705 234.5952,71.9911 224.0445,71.9064 213.4934,71.8166 202.942,71.7215 192.3902,71.6211 181.838,71.5156 171.2853,71.4048 160.7322,71.2887 150.1786,71.1674 139.6245,71.0409 129.0698,70.9091 118.5146,70.7721 107.9589,70.6299 97.4026,70.4824 86.8456,70.3296 76.7104,70.178" stroke="silver" stroke-opacity="0.5" stroke-width="1" /><circle cx="725.8705" cy="536.3711" fill="black" r="0.738" stroke="none" /><circle cx="717.4187" cy="407.955" fill="black" r="0.738" stroke="none" /><circle cx="712.1163" cy="592.1943" fill="black" r="0.738" stroke="none" /><circle cx="703.888" cy="175.5468" fill="black" r="0.738" stroke="none" /><circle cx="709.6969" cy="672.1072" fill="black" r="0.738" stroke="none" /><circle cx="702.3089" cy="275.0079" fill="black" r="0.738" stroke="none" /><circle cx="697.7711" cy="480.5214" fill="black" r="0.738" stroke="none" /><circle cx="682.8282" cy="134.7466" fill="black" r="0.738" stroke="none" /><circle cx="675.1764" cy="362.2484" fill="black" r="0.738" stroke="none" /><circle cx="674.54" cy="437.2787" fill="black" r="0.738" stroke="none" /><circle cx="671.2625" cy="229.3494" fill="black" r="1.17" stroke="none" /><circle cx="655.6644" cy="647.9831" fill="black" r="0.738" stroke="none" /><circle cx="632.6698" cy="231.257" fill="black" r="0.738" stroke="none" /><circle cx="630.2044" cy="438.5876" fill="black" r="0.738" stroke="none" /><circle cx="631.5454" cy="713.9867" fill="black" r="0.738" stroke="none" /><circle cx="628.4153" cy="469.1649" fill="black" r="0.738" stroke="none" /><circle cx="628.8857" cy="606.8854" fill="black" r="0.738" stroke="none" /><circle cx="624.2319" cy="300.5064" fill="black" r="0.738" stroke="none" /><circle cx="627.0041" cy="641.6691" fill="black" r="0.936" stroke="none" /><circle cx="618.4656" cy="533.3431" fill="black" r="0.738" stroke="none" /><circle cx="615.8299" cy="258.4939" fill="black" r="0.738" stroke="none" /><circle cx="614.2842" cy="323.1255" fill="black" r="0.738" stroke="none" /><circle cx="597.5226" cy="179.3578" fill="black" r="0.738" stroke="none" /><circle cx="593.3421" cy="246.728" fill="black" r="0.738" stroke="none" /><circle cx="594.6461" cy="524.4438" fill="black" r="0.738" stroke="none" /><circle cx="590.0898" cy="329.3523" fill="black" r="0.738" stroke="none" /><circle cx="581.7539" cy="344.9559" fill="black" r="0.936" stroke="none" /><circle cx="579.2219" cy="507.9622" fill="black" r="0.738" stroke="none" /><circle cx="574.9323" cy="509.3876" fill="black" r="0.738" stroke="none" /><circle cx="572.1024" cy="578.7321" fill="black" r="0.738" stroke="none" /><circle cx="565.7457" cy="242.4886" fill="black" r="0.936" stroke="none" /><circle cx="561.254" cy="672.8576" fill="black" r="0.738" stroke="none" /><circle cx="559.44" cy="408.9217" fill="black" r="0.738" stroke="none" /><circle cx="554.8245" cy="424.4879" fill="black" r="0.738" stroke="none" /><circle cx="546.3032" cy="155.9956" fill="black" r="0.738" stroke="none" /><circle cx="545.5399" cy="480.233" fill="black" r="0.738" stroke="none" /><circle cx="530.6936" cy="398.0019" fill="black" r="0.738" stroke="none" /><circle cx="525.0051" cy="373.1556" fill="black" r="0.738" stroke="none" /><circle cx="521.1584" cy="701.0026" fill="black" r="0.738" stroke="none" /><circle cx="520.1512" cy="708.8691" fill="black" r="0.738" stroke="none" /><circle cx="510.5433" cy="469.3186" fill="black" r="0.738" stroke="none" /><circle cx="504.8107" cy="584.7419" fill="black" r="0.738" stroke="none" /><circle cx="502.7191" cy="578.551" fill="black" r="0.738" stroke="none" /><circle cx="499.9936" cy="240.5963" fill="black" r="0.738" stroke="none" /><circle cx="498.5315" cy="277.0038" fill="black" r="0.738" stroke="none" /><circle cx="494.2524" cy="597.8756" fill="black" r="0.738" stroke="none" /><circle cx="490.1066" cy="234.7007" fill="black" r="0.738" stroke="none" /><circle cx="490.1749" cy="296.6765" fill="black" r="0.738" stroke="none" /><circle cx="484.9272" cy="81.463" fill="black" r="0.738" stroke="none" /><circle cx="481.4075" cy="133.3612" fill="black" r="0.738" stroke="none" /><circle cx="466.4161" cy="366.9238" fill="black" r="0.738" stroke="none" /><circle cx="457.9848" cy="172.8184" fill="black" r="0.738" stroke="none" /><circle cx="440.8938" cy="496.6627" fill="black" r="0.738" stroke="none" /><circle cx="438.5302" cy="587.0946" fill="black" r="0.738" stroke="none" /><circle cx="437.2268" cy="713.7156" fill="black" r="0.738" stroke="none" /><circle cx="434.8859" cy="710.7484" fill="black" r="0.738" stroke="none" /><circle cx="427.2973" cy="173.3135" fill="black" r="0.738" stroke="none" /><circle cx="422.3107" cy="679.8409" fill="black" r="0.738" stroke="none" /><circle cx="419.5582" cy="574.9802" fill="black" r="0.738" stroke="none" /><circle cx="419.319" cy="262.626" fill="black" r="0.738" stroke="none" /><circle cx="412.2784" cy="481.8549" fill="black" r="0.738" stroke="none" /><circle cx="397.0065" cy="382.0229" fill="black" r="0.738" stroke="none" /><circle cx="393.1862" cy="280.8747" fill="black" r="0.738" stroke="none" /><circle cx="389.9273" cy="334.198" fill="black" r="0.738" stroke="none" /><circle cx="384.9677" cy="214.358" fill="black" r="0.738" stroke="none" /><circle cx="383.3431" cy="622.5614" fill="black" r="0.738" stroke="none" /><circle cx="379.7369" cy="271.7898" fill="black" r="0.738" stroke="none" /><circle cx="379.3965" cy="87.1251" fill="black" r="0.738" stroke="none" /><circle cx="373.0766" cy="144.6737" fill="black" r="0.738" stroke="none" /><circle cx="371.3252" cy="644.0312" fill="black" r="0.738" stroke="none" /><circle cx="370.1604" cy="304.2471" fill="black" r="0.738" stroke="none" /><circle cx="368.6171" cy="593.4763" fill="black" r="0.738" stroke="none" /><circle cx="360.0103" cy="644.2798" fill="black" r="0.738" stroke="none" /><circle cx="356.5849" cy="178.7887" fill="black" r="0.738" stroke="none" /><circle cx="354.2234" cy="538.724" fill="black" r="0.738" stroke="none" /><circle cx="354.112" cy="454.0651" fill="black" r="0.738" stroke="none" /><circle cx="349.9554" cy="716.4924" fill="black" r="0.738" stroke="none" /><circle cx="345.6573" cy="436.5945" fill="black" r="0.738" stroke="none" /><circle cx="345.5721" cy="209.4965" fill="black" r="0.738" stroke="none" /><circle cx="342.3238" cy="394.7849" fill="black" r="0.738" stroke="none" /><circle cx="302.8591" cy="610.264" fill="black" r="0.738" stroke="none" /><circle cx="300.1294" cy="173.9803" fill="black" r="0.738" stroke="none" /><circle cx="296.3263" cy="468.5612" fill="black" r="0.738" stroke="none" /><circle cx="295.8323" cy="242.2365" fill="black" r="0.738" stroke="none" /><circle cx="293.367" cy="279.3254" fill="black" r="0.936" stroke="none" /><circle cx="291.1892" cy="346.4373" fill="black" r="0.738" stroke="none" /><circle cx="282.1835" cy="74.5794" fill="black" r="0.738" stroke="none" /><circle cx="279.3301" cy="525.5749" fill="black" r="0.738" stroke="none" /><circle cx="278.169" cy="593.5786" fill="black" r="1.854" stroke="none" /><circle cx="278.8915" cy="311.8147" fill="black" r="0.738" stroke="none" /><circle cx="279.3562" cy="158.3334" fill="black" r="0.738" stroke="none" /><circle cx="274.7675" cy="507.9209" fill="black" r="0.738" stroke="none" /><circle cx="273.2874" cy="423.5085" fill="black" r="0.738" stroke="none" /><circle cx="271.8336" cy="291.8758" fill="black" r="0.738" stroke="none" /><circle cx="269.733" cy="535.744" fill="black" r="0.738" stroke="none" /><circle cx="264.2081" cy="646.0847" fill="black" r="0.738" stroke="none" /><circle cx="261.3496" cy="192.6358" fill="black" r="0.738" stroke="none" /><circle cx="251.6976" cy="659.7361" fill="black" r="0.738" stroke="none" /><circle cx="252.1488" cy="134.1493" fill="black" r="0.738" stroke="none" /><circle cx="251.1216" cy="292.0168" fill="black" r="0.738" stroke="none" /><circle cx="227.7613" cy="531.8429" fill="black" r="1.854" stroke="none" /><circle cx="226.481" cy="269.7607" fill="black" r="0.936" stroke="none" /><circle cx="223.5349" cy="573.4654" fill="black" r="0.738" stroke="none" /><circle cx="216.7543" cy="704.9686" fill="black" r="0.738" stroke="none" /><circle cx="216.5328" cy="616.2994" fill="black" r="0.738" stroke="none" /><circle cx="197.996" cy="386.9656" fill="black" r="0.936" stroke="none" /><circle cx="192.8942" cy="71.8883" fill="black" r="0.738" stroke="none" /><circle cx="189.4396" cy="356.5114" fill="black" r="0.738" stroke="none" /><circle cx="180.1652" cy="429.5979" fill="black" r="0.738" stroke="none" /><circle cx="178.1627" cy="535.1496" fill="black" r="0.738" stroke="none" /><circle cx="173.7493" cy="209.9218" fill="black" r="0.738" stroke="none" /><circle cx="165.9855" cy="386.8608" fill="black" r="0.738" stroke="none" /><circle cx="166.529" cy="136.6379" fill="black" r="0.738" stroke="none" /><circle cx="163.9454" cy="254.63" fill="black" r="0.738" stroke="none" /><circle cx="159.352" cy="391.2511" fill="black" r="1.17" stroke="none" /><circle cx="157.9422" cy="467.9069" fill="black" r="0.738" stroke="none" /><circle cx="155.444" cy="344.9315" fill="black" r="0.738" stroke="none" /><circle cx="152.5947" cy="632.4149" fill="black" r="0.738" stroke="none" /><circle cx="154.6308" cy="132.7505" fill="black" r="0.738" stroke="none" /><circle cx="150.8686" cy="251.4367" fill="black" r="1.476" stroke="none" /><circle cx="146.5616" cy="650.4493" fill="black" r="0.738" stroke="none" /><circle cx="145.4454" cy="195.5577" fill="black" r="0.738" stroke="none" /><circle cx="132.8125" cy="130.2231" fill="black" r="0.738" stroke="none" /><circle cx="120.4862" cy="720.3128" fill="black" r="0.738" stroke="none" /><circle cx="121.196" cy="372.9505" fill="black" r="0.936" stroke="none" /><circle cx="117.1538" cy="301.1936" fill="black" r="0.738" stroke="none" /><circle cx="115.0145" cy="443.1042" fill="black" r="0.738" stroke="none" /><circle cx="110.5468" cy="562.294" fill="black" r="1.17" stroke="none" /><circle cx="109.1257" cy="380.5857" fill="black" r="0.738" stroke="none" /><circle cx="107.3253" cy="247.6096" fill="black" r="0.738" stroke="none" /><circle cx="99.0634" cy="176.985" fill="black" r="0.738" stroke="none" /><circle cx="94.8905" cy="98.6033" fill="black" r="0.738" stroke="none" /><circle cx="86.3785" cy="534.8552" fill="black" r="0.738" stroke="none" /><circle cx="84.1528" cy="656.5686" fill="black" r="0.738" stroke="none" /><circle cx="85.2219" cy="486.7884" fill="black" r="0.738" stroke="none" /><circle cx="71.8077" cy="623.9133" fill="black" r="0.738" stroke="none" /><circle cx="13.77" cy="786.23" fill="black" r="4.59" stroke="none" /><circle cx="13.77" cy="786.23" fill="black" r="4.59" stroke="none" /><text fill="black" font-family="monospace" font-size="12" x="10.77" y="775.64">1</text><circle cx="37.77" cy="786.23" fill="black" r="3.654" stroke="none" /><circle cx="37.77" cy="786.23" fill="black" r="3.654" stroke="none" /><text fill="black" font-family="monospace" font-size="12" x="34.769999999999996" y="775.64">2</text><circle cx="61.77" cy="786.23" fill="black" r="2.916" stroke="none" /><circle cx="61.77" cy="786.23" fill="black" r="2.916" stroke="none" /><text fill="black" font-family="monospace" font-size="12" x="58.769999999999996" y="775.64">3</text><circle cx="85.77" cy="786.23" fill="black" r="2.322" stroke="none" /><circle cx="85.77" cy="786.23" fill="black" r="2.322" stroke="none" /><text fill="black" font-family="monospace" font-size="12" x="82.77" y="775.64">4</text><circle cx="109.77" cy="786.23" fill="black" r="1.854" stroke="none" /><circle cx="109.77" cy="786.23" fill="black" r="1.854" stroke="none" /><text fill="black" font-family="monospace" font-size="12" x="106.77" y="775.64">5</text><circle cx="133.77" cy="786.23" fill="black" r="1.476" stroke="none" /><circle cx="133.77" cy="786.23" fill="black" r="1.476" stroke="none" /><text fill="black" font-family="monospace" font-size="12" x="130.77" y="775.64">6</text><circle cx="157.77" cy="786.23" fill="black" r="1.17" stroke="none" /><circle cx="157.77" cy="786.23" fill="black" r="1.17" stroke="none" /><text fill="black" font-family="monospace" font-size="12" x="154.77" y="775.64">7</text><circle cx="181.77" cy="786.23" fill="black" r="0.936" stroke="none" /><circle cx="181.77" cy="786.23" fill="black" r="0.936" stroke="none" /><text fill="black" font-family="monospace" font-size="12" x="178.77" y="775.64">8</text><circle cx="205.77" cy="786.23" fill="black" r="0.738" stroke="none" /><circle cx="205.77" cy="786.23" fill="black" r="0.738" stroke="none" /><text fill="black" font-family="monospace" font-size="12" x="202.77" y="775.64">9</text><text fill="gray" fill-opacity="0.5" font-family="monospace" font-size="12" x="706.6984256998769" y="725.8214118683036">03h05m</text><text fill="gray" fill-opacity="0.5" font-family="monospace" font-size="12" x="598.3671751794673" y="726.7199262498668">03h10m</text><text fill="gray" fill-opacity="0.5" font-family="monospace" font-size="12" x="490.07938850925086" y="727.2328564454874">03h15m</text><text fill="gray" fill-opacity="0.5" font-family="monospace" font-size="12" x="381.81133357342907" y="727.3606715061229">03h20m</text><text fill="gray" fill-opacity="0.5" font-family="monospace" font-size="12" x="273.5392947127261" y="727.1034882803458">03h25m</text><text fill="gray" fill-opacity="0.5" font-family="monospace" font-size="12" x="165.23955294552357" y="726.4610716380022">03h30m</text><text fill="gray" fill-opacity="0.5" font-family="monospace" font-size="12" x="68.64274660234571" y="681.8389141919388">+8°</text><text fill="gray" fill-opacity="0.5" font-family="monospace" font-size="12" x="69.64546961131629" y="594.4326330539807">+9°</text><text fill="gray" fill-opacity="0.5" font-family="monospace" font-size="12" x="70.69787367159603" y="507.0571874107499">+10°</text><text fill="gray" fill-opacity="0.5" font-family="monospace" font-size="12" x="71.80007815861501" y="419.69930120520905">+11°</text><text fill="gray" fill-opacity="0.5" font-family="monospace" font-size="12" x="72.95223276131622" y="332.34570903144146">+12°</text><text fill="gray" fill-opacity="0.5" font-family="monospace" font-size="12" x="74.15451755678856" y="244.9831480886702">+13°</text><text fill="gray" fill-opacity="0.5" font-family="monospace" font-size="12" x="75.4071431241702" y="157.5983501386286">+14°</text><text fill="gray" fill-opacity="0.5" font-family="monospace" font-size="12" x="76.71035069797654" y="70.17803345593836">+15°</text><text fill="black" font-family="monospace" font-size="12" x="12" y="48">&gt;&gt; No.463 03h04m 03h34m +7.5°+15.0°</text><a target="_self" xlink:href="hip024.svg"><text fill="black" font-family="monospace" font-size="12" x="12" y="36">&gt; No.24 02h40m 05h20m +0.0°+22.5°</text></a><a target="_self" xlink:href="hip002.svg"><text fill="black" font-family="monospace" font-size="12" x="12" y="24">No.2 00h 24h +0.0°+90.0°</text></a><polyline fill="none" points="723.2896,70.178 719.9112,70.2291 709.3538,70.3852 698.7971,70.5361 688.241,70.6817 677.6854,70.8221 667.1304,70.9572 656.576,71.0871 646.0221,71.2117 635.4686,71.3311 624.9157,71.4453 614.3632,71.5542 603.8111,71.6579 593.2594,71.7563 582.7081,71.8495 572.1572,71.9375 561.6067,72.0202 551.0564,72.0978 540.5065,72.17 529.9568,72.2371 519.4074,72.2989 508.8583,72.3555 498.3094,72.4068 487.7606,72.4529 477.2121,72.4938 466.6637,72.5295 456.1154,72.5599 445.5672,72.5851 435.0192,72.6051 424.4712,72.6198 413.9232,72.6293 403.3753,72.6336 392.8274,72.6327 382.2795,72.6265 371.7315,72.6151 361.1835,72.5985 350.6354,72.5766 340.0872,72.5496 329.5389,72.5172 318.9905,72.4797 308.4418,72.4369 297.893,72.3889 287.344,72.3357 276.7948,72.2772 266.2453,72.2135 255.6956,72.1446 245.1455,72.0705 234.5952,71.9911 224.0445,71.9064 213.4934,71.8166 202.942,71.7215 192.3902,71.6211 181.838,71.5156 171.2853,71.4048 160.7322,71.2887 150.1786,71.1674 139.6245,71.0409 129.0698,70.9091 118.5146,70.7721 107.9589,70.6299 97.4026,70.4824 86.8456,70.3296 76.7104,70.178" stroke="black" stroke-opacity="0.5" stroke-width="1" /><polyline fill="none" points="731.84,725.5578 731.7205,714.6269 731.6002,703.6969 731.4791,692.7675 731.3573,681.8389 731.2346,670.911 731.1112,659.9837 730.987,649.0571 730.8621,638.1311 730.7364,627.2057 730.6099,616.2808 730.4826,605.3565 730.3545,594.4326 730.2257,583.5093 730.0961,572.5864 729.9657,561.6639 729.8345,550.7419 729.7026,539.8202 729.5699,528.8989 729.4364,517.9779 729.3021,507.0572 729.1671,496.1368 729.0312,485.2166 728.8946,474.2966 728.7573,463.3769 728.6191,452.4573 728.4801,441.5379 728.3404,430.6185 728.1999,419.6993 728.0586,408.7801 727.9166,397.861 727.7737,386.9419 727.6301,376.0228 727.4857,365.1036 727.3405,354.1844 727.1945,343.2651 727.0478,332.3457 726.9002,321.4262 726.7519,310.5064 726.6028,299.5865 726.4529,288.6664 726.3022,277.746 726.1508,266.8254 725.9985,255.9044 725.8455,244.9831 725.6917,234.0615 725.5371,223.1396 725.3817,212.2172 725.2255,201.2944 725.0685,190.3711 724.9107,179.4474 724.7522,168.5231 724.5929,157.5984 724.4327,146.673 724.2718,135.7471 724.1101,124.8206 723.9476,113.8935 723.7843,102.9657 723.6202,92.0372 723.4553,81.108 723.2896,70.178" stroke="black" stroke-opacity="0.5" stroke-width="1" /><polyline fill="none" points="731.84,725.5578 728.372,725.5954 717.5349,725.7103 706.6984,725.8214 695.8627,725.9286 685.0276,726.032 674.1931,726.1315 663.3592,726.2271 652.5259,726.3189 641.6931,726.4068 630.8609,726.4909 620.0292,726.5711 609.198,726.6474 598.3672,726.7199 587.5368,726.7886 576.7069,726.8533 565.8774,726.9143 555.0482,726.9713 544.2193,727.0246 533.3908,727.0739 522.5626,727.1194 511.7346,727.1611 500.9069,727.1989 490.0794,727.2329 479.2521,727.263 468.425,727.2892 457.598,727.3116 446.7711,727.3302 435.9444,727.3449 425.1177,727.3557 414.2911,727.3628 403.4645,727.3659 392.6379,727.3652 381.8113,727.3607 370.9847,727.3523 360.158,727.34 349.3312,727.3239 338.5043,727.304 327.6773,727.2802 316.8501,727.2526 306.0227,727.2211 295.1952,727.1857 284.3674,727.1465 273.5393,727.1035 262.711,727.0566 251.8823,727.0058 241.0534,726.9512 230.2241,726.8928 219.3944,726.8305 208.5643,726.7643 197.7338,726.6943 186.9029,726.6204 176.0715,726.5427 165.2396,726.4611 154.4071,726.3756 143.5742,726.2863 132.7407,726.1931 121.9066,726.0961 111.0719,725.9952 100.2365,725.8905 89.4005,725.7819 78.5639,725.6694 68.16,725.5578" stroke="black" stroke-opacity="0.5" stroke-width="1" /><polyline fill="none" points="68.16,725.5578 68.2795,714.6269 68.3998,703.6969 68.5209,692.7675 68.6427,681.8389 68.7654,670.911 68.8888,659.9837 69.013,649.0571 69.1379,638.1311 69.2636,627.2057 69.3901,616.2808 69.5174,605.3565 69.6455,594.4326 69.7743,583.5093 69.9039,572.5864 70.0343,561.6639 70.1655,550.7419 70.2974,539.8202 70.4301,528.8989 70.5636,517.9779 70.6979,507.0572 70.8329,496.1368 70.9688,485.2166 71.1054,474.2966 71.2427,463.3769 71.3809,452.4573 71.5199,441.5379 71.6596,430.6185 71.8001,419.6993 71.9414,408.7801 72.0834,397.861 72.2263,386.9419 72.3699,376.0228 72.5143,365.1036 72.6595,354.1844 72.8055,343.2651 72.9522,332.3457 73.0998,321.4262 73.2481,310.5064 73.3972,299.5865 73.5471,288.6664 73.6978,277.746 73.8492,266.8254 74.0015,255.9044 74.1545,244.9831 74.3083,234.0615 74.4629,223.1396 74.6183,212.2172 74.7745,201.2944 74.9315,190.3711 75.0893,179.4474 75.2478,168.5231 75.4071,157.5984 75.5673,146.673 75.7282,135.7471 75.8899,124.8206 76.0524,113.8935 76.2157,102.9657 76.3798,92.0372 76.5447,81.108 76.7104,70.178" stroke="black" stroke-opacity="0.5" stroke-width="1" /></svg>