<?xml version="1.0" encoding="utf-8" ?>
<svg baseProfile="tiny" height="800" version="1.2" width="800" xmlns="http://www.w3.org/2000/svg" xmlns:ev="http://www.w3.org/2001/xml-events" xmlns:xlink="http://www.w3.org/1999/xlink"><defs /><rect fill="none" height="800" stroke="black" stroke-width="2" width="800" x="0" y="0" /><polyline fill="none" points="697.1629,725.916 697.0559,714.9874 696.9482,704.0595 696.8398,693.1324 696.7307,682.206 696.6209,671.2803 696.5104,660.3552 696.3993,649.4308 696.2874,638.507 696.1748,627.5838 696.0616,616.6611 695.9476,605.739 695.833,594.8173 695.7176,583.8962 695.6016,572.9755 695.4848,562.0552 695.3674,551.1353 695.2493,540.2158 695.1305,529.2967 695.0109,518.3779 694.8907,507.4593 694.7698,496.5411 694.6482,485.6231 694.5259,474.7053 694.4029,463.7877 694.2792,452.8703 694.1548,441.953 694.0297,431.0358 693.9039,420.1187 693.7774,409.2017 693.6502,398.2847 693.5223,387.3677 693.3937,376.4508 693.2645,365.5337 693.1345,354.6167 693.0038,343.6995 692.8724,332.7822 692.7403,321.8647 692.6075,310.9471 692.474,300.0293 692.3398,289.1113 692.2049,278.193 692.0693,267.2745 691.933,256.3557 691.796,245.4365 691.6582,234.517 691.5198,223.5971 691.3807,212.6768 691.2409,201.7561 691.1003,190.8349 690.9591,179.9132 690.8171,168.9911 690.6745,158.0684 690.5311,147.1451 690.387,136.2213 690.2422,125.2968 690.0967,114.3717 689.9505,103.446 689.8036,92.5195 689.656,81.5924 689.5077,70.6645" stroke="silver" stroke-opacity="0.5" stroke-width="1" /><polyline fill="none" points="588.8365,726.7805 588.7685,715.8573 588.7001,704.9348 588.6312,694.013 588.5619,683.092 588.4922,672.1716 588.422,661.2519 588.3514,650.3328 588.2804,639.4143 588.2089,628.4964 588.1369,617.579 588.0646,606.6622 587.9917,595.7459 587.9185,584.83 587.8448,573.9146 587.7706,562.9996 587.6961,552.085 587.621,541.1707 587.5456,530.2568 587.4697,519.3433 587.3933,508.43 587.3165,497.5169 587.2393,486.6042 587.1616,475.6916 587.0835,464.7792 587.0049,453.867 586.9259,442.9549 586.8464,432.0429 586.7665,421.131 586.6862,410.2192 586.6054,399.3073 586.5242,388.3955 586.4425,377.4837 586.3604,366.5718 586.2778,355.6599 586.1948,344.7478 586.1114,333.8357 586.0275,322.9233 585.9431,312.0108 585.8583,301.0981 585.7731,290.1852 585.6874,279.272 585.6013,268.3586 585.5147,257.4448 585.4277,246.5307 585.3402,235.6162 585.2523,224.7014 585.1639,213.7861 585.0751,202.8704 584.9858,191.9543 584.8961,181.0376 584.806,170.1205 584.7154,159.2028 584.6243,148.2845 584.5328,137.3657 584.4408,126.4462 584.3484,115.5261 584.2556,104.6053 584.1623,93.6838 584.0685,82.7616 583.9743,71.8386" stroke="silver" stroke-opacity="0.5" stroke-width="1" /><polyline fill="none" points="480.5514,727.2596 480.5224,716.3393 480.4932,705.4198 480.4638,694.501 480.4343,683.5829 480.4046,672.6655 480.3746,661.7487 480.3445,650.8326 480.3142,639.917 480.2837,629.0021 480.253,618.0876 480.2222,607.1737 480.1911,596.2603 480.1599,585.3474 480.1285,574.4349 480.0968,563.5228 480.065,552.6111 480.033,541.6998 480.0009,530.7888 479.9685,519.8782 479.9359,508.9678 479.9032,498.0577 479.8702,487.1478 479.8371,476.2381 479.8038,465.3286 479.7703,454.4192 479.7366,443.51 479.7027,432.6009 479.6686,421.6919 479.6344,410.7829 479.5999,399.874 479.5653,388.965 479.5305,378.056 479.4954,367.147 479.4602,356.2379 479.4248,345.3287 479.3892,334.4194 479.3535,323.5099 479.3175,312.6002 479.2813,301.6903 479.245,290.7802 479.2085,279.8699 479.1717,268.9592 479.1348,258.0483 479.0977,247.137 479.0604,236.2253 479.0229,225.3133 478.9852,214.4008 478.9473,203.4879 478.9093,192.5745 478.871,181.6606 478.8326,170.7463 478.7939,159.8313 478.7551,148.9158 478.7161,137.9997 478.6769,127.083 478.6374,116.1657 478.5978,105.2476 478.5581,94.3289 478.5181,83.4094 478.4779,72.4892" stroke="silver" stroke-opacity="0.5" stroke-width="1" /><polyline fill="none" points="372.2839,727.3535 372.2939,716.4338 372.3039,705.5149 372.314,694.5967 372.3242,683.6791 372.3344,672.7623 372.3447,661.8461 372.3551,650.9306 372.3655,640.0156 372.376,629.1012 372.3865,618.1874 372.3972,607.2741 372.4078,596.3612 372.4186,585.4489 372.4294,574.5369 372.4403,563.6254 372.4512,552.7143 372.4622,541.8036 372.4733,530.8932 372.4844,519.9831 372.4956,509.0732 372.5069,498.1637 372.5182,487.2544 372.5296,476.3452 372.5411,465.4363 372.5526,454.5275 372.5642,443.6189 372.5759,432.7103 372.5876,421.8019 372.5994,410.8935 372.6112,399.9851 372.6232,389.0767 372.6351,378.1683 372.6472,367.2598 372.6593,356.3513 372.6715,345.4426 372.6837,334.5338 372.696,323.6249 372.7084,312.7158 372.7209,301.8065 372.7334,290.8969 372.7459,279.9871 372.7586,269.077 372.7713,258.1666 372.784,247.2559 372.7969,236.3447 372.8098,225.4332 372.8227,214.5213 372.8358,203.609 372.8489,192.6961 372.862,181.7828 372.8753,170.869 372.8886,159.9546 372.9019,149.0396 372.9153,138.1241 372.9288,127.2079 372.9424,116.2911 372.956,105.3736 372.9697,94.4554 372.9835,83.5364 372.9973,72.6168" stroke="silver" stroke-opacity="0.5" stroke-width="1" /><polyline fill="none" points="264.0104,727.0624 264.0593,716.1409 264.1086,705.2202 264.1581,694.3002 264.208,683.3809 264.2582,672.4622 264.3088,661.5443 264.3596,650.6269 264.4108,639.7101 264.4622,628.794 264.514,617.8783 264.5662,606.9632 264.6186,596.0486 264.6713,585.1345 264.7244,574.2208 264.7778,563.3075 264.8315,552.3946 264.8855,541.4821 264.9398,530.5699 264.9945,519.658 265.0495,508.7465 265.1048,497.8351 265.1604,486.9241 265.2163,476.0132 265.2726,465.1025 265.3291,454.192 265.386,443.2816 265.4432,432.3713 265.5008,421.4611 265.5586,410.5509 265.6168,399.6408 265.6753,388.7307 265.7341,377.8205 265.7932,366.9103 265.8527,356.0 265.9124,345.0897 265.9725,334.1792 266.0329,323.2685 266.0936,312.3577 266.1547,301.4466 266.2161,290.5354 266.2778,279.6238 266.3398,268.712 266.4021,257.7999 266.4648,246.8875 266.5278,235.9746 266.5911,225.0614 266.6547,214.1478 266.7186,203.2338 266.7829,192.3193 266.8475,181.4043 266.9124,170.4887 266.9777,159.5727 267.0432,148.656 267.1091,137.7388 267.1753,126.8209 267.2419,115.9024 267.3087,104.9833 267.3759,94.0634 267.4434,83.1428 267.5113,72.2215" stroke="silver" stroke-opacity="0.5" stroke-width="1" /><polyline fill="none" points="155.7071,726.3861 155.795,715.4604 155.8835,704.5354 155.9726,693.6112 156.0623,682.6878 156.1525,671.7649 156.2433,660.8428 156.3347,649.9213 156.4266,639.0004 156.5191,628.08 156.6122,617.1602 156.7059,606.241 156.8001,595.3222 156.8949,584.404 156.9903,573.4861 157.0862,562.5687 157.1827,551.6517 157.2798,540.7351 157.3774,529.8188 157.4757,518.9028 157.5745,507.9871 157.6738,497.0717 157.7738,486.1565 157.8743,475.2416 157.9754,464.3268 158.0771,453.4122 158.1793,442.4978 158.2821,431.5834 158.3855,420.6691 158.4894,409.7549 158.594,398.8408 158.6991,387.9266 158.8048,377.0124 158.911,366.0982 159.0179,355.1839 159.1253,344.2695 159.2333,333.355 159.3418,322.4404 159.451,311.5255 159.5607,300.6105 159.671,289.6953 159.7819,278.7797 159.8933,267.864 160.0053,256.9479 160.1179,246.0315 160.2311,235.1147 160.3449,224.1975 160.4592,213.28 160.5742,202.362 160.6897,191.4436 160.8057,180.5246 160.9224,169.6052 161.0396,158.6852 161.1575,147.7647 161.2759,136.8435 161.3949,125.9218 161.5145,114.9994 161.6346,104.0763 161.7554,93.1526 161.8767,82.2281 161.9986,71.3029" stroke="silver" stroke-opacity="0.5" stroke-width="1" /><polyline fill="none" points="731.3573,681.8389 729.1929,681.863 718.3715,681.9813 707.5508,682.0956 696.7307,682.206 685.9113,682.3124 675.0925,682.4148 664.2744,682.5133 653.4568,682.6078 642.6397,682.6984 631.8232,682.785 621.0072,682.8677 610.1916,682.9464 599.3766,683.0212 588.5619,683.092 577.7477,683.1588 566.9339,683.2217 556.1204,683.2807 545.3073,683.3357 534.4944,683.3868 523.6819,683.4339 512.8697,683.4771 502.0577,683.5163 491.2459,683.5516 480.4343,683.5829 469.6229,683.6103 458.8116,683.6337 448.0005,683.6532 437.1895,683.6687 426.3785,683.6803 415.5676,683.688 404.7568,683.6917 393.9459,683.6915 383.1351,683.6873 372.3242,683.6791 361.5132,683.6671 350.7022,683.6511 339.891,683.6311 329.0798,683.6072 318.2683,683.5793 307.4567,683.5475 296.6449,683.5118 285.8329,683.4721 275.0206,683.4284 264.208,683.3809 253.3952,683.3293 242.582,683.2738 231.7685,683.2144 220.9546,683.151 210.1403,683.0837 199.3256,683.0124 188.5105,682.9372 177.6949,682.858 166.8789,682.7748 156.0623,682.6878 145.2452,682.5967 134.4275,682.5017 123.6093,682.4027 112.7904,682.2998 101.9709,682.193 91.1508,682.0821 80.33,681.9673 69.5085,681.8486 68.6427,681.8389" stroke="silver" stroke-opacity="0.5" stroke-width="1" /><polyline fill="none" points="730.3545,594.4326 728.1967,594.4579 717.4081,594.5819 706.6202,594.7017 695.833,594.8173 685.0463,594.9288 674.2603,595.0362 663.4749,595.1394 652.6901,595.2385 641.9058,595.3334 631.1221,595.4242 620.3388,595.5108 609.556,595.5933 598.7737,595.6717 587.9917,595.7459 577.2102,595.8159 566.4291,595.8819 555.6484,595.9437 544.8679,596.0013 534.0878,596.0548 523.308,596.1042 512.5284,596.1494 501.7491,596.1905 490.97,596.2275 480.1911,596.2603 469.4124,596.289 458.6338,596.3136 447.8554,596.334 437.077,596.3503 426.2988,596.3625 415.5206,596.3705 404.7424,596.3744 393.9642,596.3741 383.1861,596.3697 372.4078,596.3612 361.6296,596.3486 350.8512,596.3318 340.0727,596.3109 329.2942,596.2858 318.5154,596.2566 307.7365,596.2233 296.9574,596.1858 286.178,596.1442 275.3984,596.0985 264.6186,596.0486 253.8384,595.9946 243.058,595.9365 232.2772,595.8742 221.496,595.8077 210.7144,595.7372 199.9325,595.6625 189.1501,595.5836 178.3672,595.5006 167.5839,595.4135 156.8001,595.3222 146.0157,595.2268 135.2308,595.1272 124.4454,595.0235 113.6593,594.9157 102.8726,594.8037 92.0853,594.6875 81.2973,594.5672 70.5086,594.4428 69.6455,594.4326" stroke="silver" stroke-opacity="0.5" stroke-width="1" /><polyline fill="none" points="729.3021,507.0572 727.1512,507.0836 716.397,507.2132 705.6436,507.3384 694.8907,507.4593 684.1385,507.5759 673.3869,507.6881 662.6359,507.796 651.8855,507.8996 641.1356,507.9988 630.3862,508.0937 619.6373,508.1843 608.8888,508.2705 598.1409,508.3524 587.3933,508.43 576.6461,508.5032 565.8994,508.5721 555.1529,508.6367 544.4068,508.697 533.661,508.7529 522.9155,508.8046 512.1703,508.8518 501.4253,508.8948 490.6805,508.9335 479.9359,508.9678 469.1915,508.9978 458.4472,509.0235 447.7031,509.0448 436.959,509.0618 426.2151,509.0745 415.4712,509.0829 404.7273,509.087 393.9834,509.0867 383.2396,509.0821 372.4956,509.0732 361.7517,509.06 351.0076,509.0425 340.2635,509.0206 329.5192,508.9944 318.7747,508.9639 308.0301,508.9291 297.2853,508.8899 286.5403,508.8464 275.795,508.7986 265.0495,508.7465 254.3037,508.69 243.5575,508.6292 232.8111,508.5641 222.0642,508.4947 211.317,508.4209 200.5694,508.3428 189.8214,508.2604 179.0729,508.1736 168.3239,508.0825 157.5745,507.9871 146.8245,507.8874 136.074,507.7833 125.3229,507.6749 114.5712,507.5621 103.819,507.4451 93.0661,507.3236 82.3125,507.1979 71.5582,507.0678 70.6979,507.0572" stroke="silver" stroke-opacity="0.5" stroke-width="1" /><polyline fill="none" points="728.1999,419.6993 726.0562,419.7269 715.3381,419.862 704.6207,419.9926 693.9039,420.1187 683.1878,420.2403 672.4722,420.3573 661.7572,420.4698 651.0428,420.5778 640.3289,420.6813 629.6155,420.7803 618.9026,420.8747 608.1901,420.9647 597.4781,421.0501 586.7665,421.131 576.0553,421.2074 565.3445,421.2793 554.634,421.3466 543.9239,421.4095 533.2141,421.4678 522.5045,421.5217 511.7952,421.571 501.0862,421.6158 490.3773,421.6561 479.6686,421.6919 468.9602,421.7232 458.2518,421.75 447.5436,421.7722 436.8355,421.79 426.1274,421.8032 415.4194,421.812 404.7115,421.8162 394.0036,421.8159 383.2956,421.8112 372.5876,421.8019 361.8796,421.7881 351.1714,421.7698 340.4632,421.747 329.7548,421.7197 319.0463,421.6878 308.3376,421.6515 297.6288,421.6107 286.9197,421.5653 276.2104,421.5154 265.5008,421.4611 254.7909,421.4022 244.0807,421.3388 233.3702,421.2709 222.6593,421.1985 211.9481,421.1215 201.2365,421.0401 190.5244,420.9541 179.8119,420.8636 169.0989,420.7687 158.3855,420.6691 147.6715,420.5651 136.957,420.4566 126.242,420.3435 115.5263,420.2259 104.8101,420.1038 94.0932,419.9772 83.3757,419.846 72.6576,419.7104 71.8001,419.6993" stroke="silver" stroke-opacity="0.5" stroke-width="1" /><polyline fill="none" points="727.0478,332.3457 724.9116,332.3744 714.2312,332.515 703.5515,332.651 692.8724,332.7822 682.1939,332.9087 671.516,333.0305 660.8387,333.1476 650.1619,333.26 639.4856,333.3677 628.8098,333.4707 618.1346,333.569 607.4597,333.6626 596.7853,333.7515 586.1114,333.8357 575.4378,333.9152 564.7645,333.99 554.0917,334.0601 543.4191,334.1255 532.7468,334.1862 522.0749,334.2422 511.4031,334.2936 500.7316,334.3402 490.0603,334.3821 479.3892,334.4194 468.7183,334.4519 458.0475,334.4798 447.3769,334.503 436.7063,334.5215 426.0358,334.5353 415.3654,334.5444 404.695,334.5488 394.0246,334.5485 383.3542,334.5435 372.6837,334.5338 362.0132,334.5195 351.3427,334.5004 340.672,334.4767 330.0012,334.4483 319.3302,334.4152 308.6591,334.3773 297.9878,334.3348 287.3163,334.2876 276.6445,334.2358 265.9725,334.1792 255.3002,334.1179 244.6276,334.0519 233.9547,333.9812 223.2814,333.9059 212.6078,333.8258 201.9338,333.7411 191.2593,333.6516 180.5844,333.5574 169.9091,333.4586 159.2333,333.355 148.5569,333.2468 137.8801,333.1338 127.2027,333.0161 116.5247,332.8938 105.8462,332.7667 95.167,332.6349 84.4872,332.4984 73.8067,332.3572 72.9522,332.3457" stroke="silver" stroke-opacity="0.5" stroke-width="1" /><polyline fill="none" points="725.8455,244.9831 723.7172,245.0129 713.0761,245.159 702.4357,245.3002 691.796,245.4365 681.1568,245.5679 670.5182,245.6944 659.8801,245.816 649.2426,245.9328 638.6057,246.0446 627.9692,246.1516 617.3331,246.2537 606.6976,246.3509 596.0624,246.4432 585.4277,246.5307 574.7933,246.6133 564.1593,246.691 553.5257,246.7638 542.8923,246.8317 532.2593,246.8948 521.6265,246.953 510.994,247.0063 500.3617,247.0547 489.7296,247.0983 479.0977,247.137 468.466,247.1708 457.8344,247.1997 447.2029,247.2238 436.5715,247.243 425.9402,247.2573 415.309,247.2668 404.6777,247.2713 394.0465,247.2711 383.4153,247.2659 372.784,247.2559 362.1527,247.2409 351.5213,247.2212 340.8899,247.1965 330.2582,247.167 319.6265,247.1326 308.9946,247.0933 298.3625,247.0492 287.7301,247.0001 277.0976,246.9462 266.4648,246.8875 255.8317,246.8238 245.1983,246.7553 234.5646,246.6819 223.9306,246.6036 213.2962,246.5205 202.6614,246.4324 192.0262,246.3395 181.3906,246.2417 170.7545,246.139 160.1179,246.0315 149.4809,245.919 138.8433,245.8017 128.2052,245.6795 117.5666,245.5524 106.9273,245.4204 96.2875,245.2835 85.647,245.1417 75.0058,244.9951 74.1545,244.9831" stroke="silver" stroke-opacity="0.5" stroke-width="1" /><polyline fill="none" points="724.5929,157.5984 722.4728,157.6292 711.8727,157.7807 701.2733,157.9271 690.6745,158.0684 680.0762,158.2046 669.4786,158.3357 658.8815,158.4618 648.2849,158.5829 637.6888,158.6988 627.0933,158.8098 616.4981,158.9156 605.9035,159.0164 595.3092,159.1121 584.7154,159.2028 574.1219,159.2884 563.5288,159.3689 552.936,159.4444 542.3435,159.5149 531.7513,159.5802 521.1594,159.6406 510.5677,159.6958 499.9762,159.7461 489.385,159.7912 478.7939,159.8313 468.203,159.8664 457.6123,159.8964 447.0216,159.9214 436.4311,159.9413 425.8406,159.9561 415.2502,159.9659 404.6598,159.9707 394.0694,159.9704 383.479,159.965 372.8886,159.9546 362.2981,159.9391 351.7075,159.9186 341.1169,159.8931 330.5261,159.8625 319.9352,159.8268 309.3441,159.7861 298.7528,159.7403 288.1613,159.6895 277.5696,159.6336 266.9777,159.5727 256.3854,159.5067 245.7929,159.4356 235.2001,159.3595 224.6069,159.2784 214.0134,159.1922 203.4195,159.1009 192.8252,159.0046 182.2305,158.9032 171.6353,158.7967 161.0396,158.6852 150.4435,158.5686 139.8469,158.447 129.2497,158.3203 118.652,158.1885 108.0537,158.0517 97.4548,157.9098 86.8553,157.7628 76.2552,157.6107 75.4071,157.5984" stroke="silver" stroke-opacity="0.5" stroke-width="1" /><polyline fill="none" points="723.2896,70.178 721.1781,70.21 710.6207,70.3668 700.0639,70.5182 689.5077,70.6645 678.9521,70.8055 668.397,70.9412 657.8425,71.0718 647.2885,71.197 636.735,71.3171 626.182,71.4318 615.6294,71.5414 605.0773,71.6457 594.5256,71.7448 583.9743,71.8386 573.4233,71.9272 562.8727,72.0106 552.3224,72.0887 541.7725,72.1616 531.2228,72.2293 520.6734,72.2917 510.1242,72.3489 499.5752,72.4009 489.0265,72.4477 478.4779,72.4892 467.9295,72.5255 457.3812,72.5565 446.833,72.5824 436.2849,72.603 425.7369,72.6183 415.189,72.6285 404.6411,72.6334 394.0932,72.6331 383.5452,72.6275 372.9973,72.6168 362.4493,72.6008 351.9012,72.5795 341.353,72.5531 330.8047,72.5214 320.2563,72.4845 309.7077,72.4423 299.1589,72.395 288.6099,72.3424 278.0607,72.2845 267.5113,72.2215 256.9615,72.1532 246.4115,72.0796 235.8612,72.0009 225.3106,71.9169 214.7596,71.8276 204.2082,71.7332 193.6565,71.6335 183.1043,71.5285 172.5517,71.4183 161.9986,71.3029 151.445,71.1823 140.891,71.0564 130.3364,70.9252 119.7813,70.7888 109.2256,70.6472 98.6693,70.5003 88.1125,70.3482 77.555,70.1908 76.7104,70.178" stroke="silver" stroke-opacity="0.5" stroke-width="1" /><circle cx="715.8547" cy="98.7984" fill="black" r="0.738" stroke="none" /><circle cx="706.4388" cy="245.4224" fill="black" r="0.738" stroke="none" /><circle cx="707.2639" cy="390.6094" fill="black" r="0.738" stroke="none" /><circle cx="708.698" cy="603.1557" fill="black" r="0.738" stroke="none" /><circle cx="706.726" cy="474.5654" fill="black" r="0.738" stroke="none" /><circle cx="702.1859" cy="544.3334" fill="black" r="0.738" stroke="none" /><circle cx="687.3903" cy="683.0848" fill="black" r="0.738" stroke="none" /><circle cx="684.9294" cy="724.8088" fill="black" r="0.738" stroke="none" /><circle cx="678.7302" cy="292.1577" fill="black" r="0.738" stroke="none" /><circle cx="679.3886" cy="505.7917" fill="black" r="0.738" stroke="none" /><circle cx="663.9587" cy="267.7824" fill="black" r="0.738" stroke="none" /><circle cx="660.3762" cy="141.404" fill="black" r="1.17" stroke="none" /><circle cx="659.1926" cy="404.4274" fill="black" r="0.738" stroke="none" /><circle cx="649.1294" cy="243.3136" fill="black" r="0.738" stroke="none" /><circle cx="648.5253" cy="242.534" fill="black" r="0.738" stroke="none" /><circle cx="640.1319" cy="212.9244" fill="black" r="0.738" stroke="none" /><circle cx="634.8577" cy="469.3698" fill="black" r="0.738" stroke="none" /><circle cx="625.6327" cy="140.3022" fill="black" r="0.738" stroke="none" /><circle cx="624.7976" cy="342.9385" fill="black" r="0.738" stroke="none" /><circle cx="626.4951" cy="610.1367" fill="black" r="0.738" stroke="none" /><circle cx="615.7607" cy="663.5966" fill="black" r="0.738" stroke="none" /><circle cx="607.6633" cy="494.4842" fill="black" r="0.738" stroke="none" /><circle cx="602.7068" cy="97.7115" fill="black" r="0.738" stroke="none" /><circle cx="603.0189" cy="460.731" fill="black" r="1.17" stroke="none" /><circle cx="599.8385" cy="260.1208" fill="black" r="0.738" stroke="none" /><circle cx="593.9872" cy="252.6606" fill="black" r="0.738" stroke="none" /><circle cx="593.5617" cy="252.6641" fill="black" r="0.738" stroke="none" /><circle cx="588.2749" cy="523.7906" fill="black" r="0.738" stroke="none" /><circle cx="576.1965" cy="479.6961" fill="black" r="0.738" stroke="none" /><circle cx="569.7236" cy="310.6469" fill="black" r="0.738" stroke="none" /><circle cx="561.9333" cy="370.7595" fill="black" r="0.738" stroke="none" /><circle cx="561.3138" cy="576.3518" fill="black" r="0.738" stroke="none" /><circle cx="559.4553" cy="582.9114" fill="black" r="0.738" stroke="none" /><circle cx="556.7559" cy="688.9558" fill="black" r="0.738" stroke="none" /><circle cx="552.4562" cy="188.5297" fill="black" r="0.738" stroke="none" /><circle cx="547.8471" cy="197.3803" fill="black" r="0.738" stroke="none" /><circle cx="544.0885" cy="390.2474" fill="black" r="0.738" stroke="none" /><circle cx="544.8404" cy="590.675" fill="black" r="0.738" stroke="none" /><circle cx="543.3808" cy="608.8452" fill="black" r="0.738" stroke="none" /><circle cx="536.0516" cy="664.687" fill="black" r="0.738" stroke="none" /><circle cx="530.6722" cy="495.3248" fill="black" r="0.738" stroke="none" /><circle cx="525.8067" cy="396.4558" fill="black" r="0.738" stroke="none" /><circle cx="523.3361" cy="94.9923" fill="black" r="0.738" stroke="none" /><circle cx="513.6648" cy="236.6046" fill="black" r="0.738" stroke="none" /><circle cx="513.7389" cy="269.1663" fill="black" r="0.738" stroke="none" /><circle cx="514.5023" cy="531.625" fill="black" r="0.738" stroke="none" /><circle cx="508.0613" cy="184.5952" fill="black" r="0.738" stroke="none" /><circle cx="494.3725" cy="301.9846" fill="black" r="0.738" stroke="none" /><circle cx="494.9869" cy="717.6951" fill="black" r="0.738" stroke="none" /><circle cx="474.6247" cy="231.6134" fill="black" r="0.738" stroke="none" /><circle cx="462.8558" cy="633.848" fill="black" r="0.738" stroke="none" /><circle cx="462.2045" cy="498.4541" fill="black" r="0.738" stroke="none" /><circle cx="459.9921" cy="711.5824" fill="black" r="0.738" stroke="none" /><circle cx="442.0102" cy="198.4355" fill="black" r="0.738" stroke="none" /><circle cx="420.4977" cy="452.0032" fill="black" r="0.738" stroke="none" /><circle cx="419.3996" cy="594.7094" fill="black" r="0.738" stroke="none" /><circle cx="417.0365" cy="537.7971" fill="black" r="0.738" stroke="none" /><circle cx="417.0299" cy="669.8011" fill="black" r="0.738" stroke="none" /><circle cx="416.6599" cy="119.6203" fill="black" r="0.738" stroke="none" /><circle cx="411.2705" cy="535.0944" fill="black" r="0.738" stroke="none" /><circle cx="409.687" cy="440.4028" fill="black" r="0.738" stroke="none" /><circle cx="408.6657" cy="222.4797" fill="black" r="0.738" stroke="none" /><circle cx="408.6659" cy="223.0035" fill="black" r="0.738" stroke="none" /><circle cx="403.2143" cy="124.6918" fill="black" r="0.738" stroke="none" /><circle cx="384.7143" cy="343.6205" fill="black" r="0.738" stroke="none" /><circle cx="382.1182" cy="515.1036" fill="black" r="0.738" stroke="none" /><circle cx="379.4058" cy="360.1977" fill="black" r="0.936" stroke="none" /><circle cx="355.6061" cy="337.1268" fill="black" r="0.738" stroke="none" /><circle cx="351.946" cy="717.0198" fill="black" r="0.738" stroke="none" /><circle cx="349.3023" cy="330.4817" fill="black" r="0.738" stroke="none" /><circle cx="344.9635" cy="440.3457" fill="black" r="0.738" stroke="none" /><circle cx="328.0675" cy="186.6607" fill="black" r="0.738" stroke="none" /><circle cx="325.8837" cy="518.1493" fill="black" r="0.738" stroke="none" /><circle cx="325.6257" cy="518.1486" fill="black" r="0.738" stroke="none" /><circle cx="323.7448" cy="607.6213" fill="black" r="0.738" stroke="none" /><circle cx="321.6978" cy="630.492" fill="black" r="0.738" stroke="none" /><circle cx="317.5252" cy="581.1502" fill="black" r="0.738" stroke="none" /><circle cx="302.166" cy="232.6613" fill="black" r="0.738" stroke="none" /><circle cx="294.0377" cy="379.2665" fill="black" r="0.738" stroke="none" /><circle cx="292.4486" cy="720.0119" fill="black" r="0.738" stroke="none" /><circle cx="284.482" cy="182.9864" fill="black" r="0.738" stroke="none" /><circle cx="281.1347" cy="668.7795" fill="black" r="0.738" stroke="none" /><circle cx="283.2771" cy="137.918" fill="black" r="0.738" stroke="none" /><circle cx="281.0499" cy="96.3274" fill="black" r="0.738" stroke="none" /><circle cx="275.7523" cy="276.0093" fill="black" r="0.936" stroke="none" /><circle cx="263.9889" cy="399.8939" fill="black" r="0.738" stroke="none" /><circle cx="251.5057" cy="326.326" fill="black" r="0.738" stroke="none" /><circle cx="249.6921" cy="488.0626" fill="black" r="0.738" stroke="none" /><circle cx="248.5263" cy="284.6673" fill="black" r="0.738" stroke="none" /><circle cx="246.8179" cy="298.5368" fill="black" r="0.738" stroke="none" /><circle cx="234.7789" cy="136.3838" fill="black" r="0.738" stroke="none" /><circle cx="233.6995" cy="272.6068" fill="black" r="0.738" stroke="none" /><circle cx="223.9523" cy="673.7338" fill="black" r="0.738" stroke="none" /><circle cx="220.209" cy="541.7475" fill="black" r="0.738" stroke="none" /><circle cx="218.4922" cy="428.764" fill="black" r="0.738" stroke="none" /><circle cx="217.4627" cy="489.9547" fill="black" r="0.738" stroke="none" /><circle cx="214.5814" cy="245.3956" fill="black" r="0.738" stroke="none" /><circle cx="211.7058" cy="171.4889" fill="black" r="0.738" stroke="none" /><circle cx="210.3387" cy="202.9199" fill="black" r="0.738" stroke="none" /><circle cx="197.7049" cy="593.5504" fill="black" r="0.738" stroke="none" /><circle cx="189.2353" cy="715.1876" fill="black" r="0.738" stroke="none" /><circle cx="177.1028" cy="163.0458" fill="black" r="0.738" stroke="none" /><circle cx="161.911" cy="494.3156" fill="black" r="0.738" stroke="none" /><circle cx="162.6474" cy="96.5711" fill="black" r="0.738" stroke="none" /><circle cx="149.6157" cy="406.001" fill="black" r="0.738" stroke="none" /><circle cx="144.9045" cy="692.0328" fill="black" r="0.738" stroke="none" /><circle cx="147.0248" cy="365.8047" fill="black" r="0.738" stroke="none" /><circle cx="145.5374" cy="394.171" fill="black" r="0.738" stroke="none" /><circle cx="145.9358" cy="235.4858" fill="black" r="0.738" stroke="none" /><circle cx="141.6953" cy="401.38" fill="black" r="0.738" stroke="none" /><circle cx="124.8545" cy="123.307" fill="black" r="0.936" stroke="none" /><circle cx="117.0452" cy="131.4236" fill="black" r="0.738" stroke="none" /><circle cx="112.0259" cy="411.3647" fill="black" r="0.738" stroke="none" /><circle cx="111.4245" cy="226.1681" fill="black" r="0.738" stroke="none" /><circle cx="99.0423" cy="519.0982" fill="black" r="0.738" stroke="none" /><circle cx="91.613" cy="630.2517" fill="black" r="0.738" stroke="none" /><circle cx="87.077" cy="468.202" fill="black" r="0.738" stroke="none" /><circle cx="68.8756" cy="676.5079" fill="black" r="0.936" stroke="none" /><circle cx="13.77" cy="786.23" fill="black" r="4.59" stroke="none" /><circle cx="13.77" cy="786.23" fill="black" r="4.59" stroke="none" /><text fill="black" font-family="monospace" font-size="12" x="10.77" y="775.64">1</text><circle cx="37.77" cy="786.23" fill="black" r="3.654" stroke="none" /><circle cx="37.77" cy="786.23" fill="black" r="3.654" stroke="none" /><text fill="black" font-family="monospace" font-size="12" x="34.769999999999996" y="775.64">2</text><circle cx="61.77" cy="786.23" fill="black" r="2.916" stroke="none" /><circle cx="61.77" cy="786.23" fill="black" r="2.916" stroke="none" /><text fill="black" font-family="monospace" font-size="12" x="58.769999999999996" y="775.64">3</text><circle cx="85.77" cy="786.23" fill="black" r="2.322" stroke="none" /><circle cx="85.77" cy="786.23" fill="black" r="2.322" stroke="none" /><text fill="black" font-family="monospace" font-size="12" x="82.77" y="775.64">4</text><circle cx="109.77" cy="786.23" fill="black" r="1.854" stroke="none" /><circle cx="109.77" cy="786.23" fill="black" r="1.854" stroke="none" /><text fill="black" font-family="monospace" font-size="12" x="106.77" y="775.64">5</text><circle cx="133.77" cy="786.23" fill="black" r="1.476" stroke="none" /><circle cx="133.77" cy="786.23" fill="black" r="1.476" stroke="none" /><text fill="black" font-family="monospace" font-size="12" x="130.77" y="775.64">6</text><circle cx="157.77" cy="786.23" fill="black" r="1.17" stroke="none" /><circle cx="157.77" cy="786.23" fill="black" r="1.17" stroke="none" /><text fill="black" font-family="monospace" font-size="12" x="154.77" y="775.64">7</text><circle cx="181.77" cy="786.23" fill="black" r="0.936" stroke="none" /><circle cx="181.77" cy="786.23" fill="black" r="0.936" stroke="none" /><text fill="black" font-family="monospace" font-size="12" x="178.77" y="775.64">8</text><circle cx="205.77" cy="786.23" fill="black" r="0.738" stroke="none" /><circle cx="205.77" cy="786.23" fill="black" r="0.738" stroke="none" /><text fill="black" font-family="monospace" font-size="12" x="202.77" y="775.64">9</text><text fill="gray" fill-opacity="0.5" font-family="monospace" font-size="12" x="697.1629239951459" y="725.9159724208216">10h45m</text><text fill="gray" fill-opacity="0.5" font-family="monospace" font-size="12" x="588.836451405335" y="726.7805275504168">10h50m</text><text fill="gray" fill-opacity="0.5" font-family="monospace" font-size="12" x="480.5513530729413" y="727.2595539219998">10h55m</text><text fill="gray" fill-opacity="0.5" font-family="monospace" font-size="12" x="372.2838991244967" y="727.3534895665077">11h00m</text><text fill="gray" fill-opacity="0.5" font-family="monospace" font-size="12" x="264.01037440189543" y="727.0624203592141">11h05m</text><text fill="gray" fill-opacity="0.5" font-family="monospace" font-size="12" x="155.70705868436977" y="726.3860801841001">11h10m</text><text fill="gray" fill-opacity="0.5" font-family="monospace" font-size="12" x="68.64274660234628" y="681.8389141919388">+8°</text><text fill="gray" fill-opacity="0.5" font-family="monospace" font-size="12" x="69.6454696113168" y="594.4326330539807">+9°</text><text fill="gray" fill-opacity="0.5" font-family="monospace" font-size="12" x="70.6978736715966" y="507.0571874107499">+10°</text><text fill="gray" fill-opacity="0.5" font-family="monospace" font-size="12" x="71.80007815861558" y="419.69930120520905">+11°</text><text fill="gray" fill-opacity="0.5" font-family="monospace" font-size="12" x="72.9522327613168" y="332.34570903144146">+12°</text><text fill="gray" fill-opacity="0.5" font-family="monospace" font-size="12" x="74.15451755678907" y="244.9831480886702">+13°</text><text fill="gray" fill-opacity="0.5" font-family="monospace" font-size="12" x="75.40714312417072" y="157.5983501386286">+14°</text><text fill="gray" fill-opacity="0.5" font-family="monospace" font-size="12" x="76.71035069797705" y="70.17803345593836">+15°</text><text fill="black" font-family="monospace" font-size="12" x="12" y="48">&gt;&gt; No.478 10h43m 11h14m +7.5°+15.0°</text><a target="_self" xlink:href="hip027.svg"><text fill="black" font-family="monospace" font-size="12" x="12" y="36">&gt; No.27 10h40m 13h20m +0.0°+22.5°</text></a><a target="_self" xlink:href="hip002.svg"><text fill="black" font-family="monospace" font-size="12" x="12" y="24">No.2 00h 24h +0.0°+90.0°</text></a><polyline fill="none" points="723.2896,70.178 721.1781,70.21 710.6207,70.3668 700.0639,70.5182 689.5077,70.6645 678.9521,70.8055 668.397,70.9412 657.8425,71.0718 647.2885,71.197 636.735,71.3171 626.182,71.4318 615.6294,71.5414 605.0773,71.6457 594.5256,71.7448 583.9743,71.8386 573.4233,71.9272 562.8727,72.0106 552.3224,72.0887 541.7725,72.1616 531.2228,72.2293 520.6734,72.2917 510.1242,72.3489 499.5752,72.4009 489.0265,72.4477 478.4779,72.4892 467.9295,72.5255 457.3812,72.5565 446.833,72.5824 436.2849,72.603 425.7369,72.6183 415.189,72.6285 404.6411,72.6334 394.0932,72.6331 383.5452,72.6275 372.9973,72.6168 362.4493,72.6008 351.9012,72.5795 341.353,72.5531 330.8047,72.5214 320.2563,72.4845 309.7077,72.4423 299.1589,72.395 288.6099,72.3424 278.0607,72.2845 267.5113,72.2215 256.9615,72.1532 246.4115,72.0796 235.8612,72.0009 225.3106,71.9169 214.7596,71.8276 204.2082,71.7332 193.6565,71.6335 183.1043,71.5285 172.5517,71.4183 161.9986,71.3029 151.445,71.1823 140.891,71.0564 130.3364,70.9252 119.7813,70.7888 109.2256,70.6472 98.6693,70.5003 88.1125,70.3482 77.555,70.1908 76.7104,70.178" stroke="black" stroke-opacity="0.5" stroke-width="1" /><polyline fill="none" points="731.84,725.5578 731.7205,714.6269 731.6002,703.6969 731.4791,692.7675 731.3573,681.8389 731.2346,670.911 731.1112,659.9837 730.987,649.0571 730.8621,638.1311 730.7364,627.2057 730.6099,616.2808 730.4826,605.3565 730.3545,594.4326 730.2257,583.5093 730.0961,572.5864 729.9657,561.6639 729.8345,550.7419 729.7026,539.8202 729.5699,528.8989 729.4364,517.9779 729.3021,507.0572 729.1671,496.1368 729.0312,485.2166 728.8946,474.2966 728.7573,463.3769 728.6191,452.4573 728.4801,441.5379 728.3404,430.6185 728.1999,419.6993 728.0586,408.7801 727.9166,397.861 727.7737,386.9419 727.6301,376.0228 727.4857,365.1036 727.3405,354.1844 727.1945,343.2651 727.0478,332.3457 726.9002,321.4262 726.7519,310.5064 726.6028,299.5865 726.4529,288.6664 726.3022,277.746 726.1508,266.8254 725.9985,255.9044 725.8455,244.9831 725.6917,234.0615 725.5371,223.1396 725.3817,212.2172 725.2255,201.2944 725.0685,190.3711 724.9107,179.4474 724.7522,168.5231 724.5929,157.5984 724.4327,146.673 724.2718,135.7471 724.1101,124.8206 723.9476,113.8935 723.7843,102.9657 723.6202,92.0372 723.4553,81.108 723.2896,70.178" stroke="black" stroke-opacity="0.5" stroke-width="1" /><polyline fill="none" points="731.84,725.5578 729.6725,725.5813 718.8353,725.6967 707.9988,725.8083 697.1629,725.916 686.3277,726.0198 675.4932,726.1198 664.6592,726.2159 653.8259,726.3081 642.993,726.3965 632.1607,726.481 621.329,726.5617 610.4977,726.6385 599.6668,726.7114 588.8365,726.7805 578.0065,726.8458 567.1769,726.9072 556.3477,726.9647 545.5188,727.0184 534.6902,727.0682 523.8619,727.1142 513.034,727.1563 502.2062,727.1946 491.3787,727.229 480.5514,727.2596 469.7242,727.2863 458.8972,727.3091 448.0703,727.3282 437.2436,727.3433 426.4169,727.3546 415.5903,727.3621 404.7637,727.3657 393.9371,727.3655 383.1105,727.3614 372.2839,727.3535 361.4572,727.3417 350.6304,727.3261 339.8036,727.3066 328.9765,727.2833 318.1494,727.2561 307.322,727.2251 296.4945,727.1902 285.6667,727.1514 274.8387,727.1089 264.0104,727.0624 253.1818,727.0121 242.3529,726.958 231.5236,726.9 220.694,726.8381 209.8639,726.7724 199.0335,726.7029 188.2026,726.6295 177.3712,726.5522 166.5394,726.4711 155.7071,726.3861 144.8742,726.2972 134.0407,726.2045 123.2067,726.108 112.3721,726.0075 101.5368,725.9033 90.7009,725.7951 79.8643,725.6831 69.027,725.5672 68.16,725.5578" stroke="black" stroke-opacity="0.5" stroke-width="1" /><polyline fill="none" points="68.16,725.5578 68.2795,714.6269 68.3998,703.6969 68.5209,692.7675 68.6427,681.8389 68.7654,670.911 68.8888,659.9837 69.013,649.0571 69.1379,638.1311 69.2636,627.2057 69.3901,616.2808 69.5174,605.3565 69.6455,594.4326 69.7743,583.5093 69.9039,572.5864 70.0343,561.6639 70.1655,550.7419 70.2974,539.8202 70.4301,528.8989 70.5636,517.9779 70.6979,507.0572 70.8329,496.1368 70.9688,485.2166 71.1054,474.2966 71.2427,463.3769 71.3809,452.4573 71.5199,441.5379 71.6596,430.6185 71.8001,419.6993 71.9414,408.7801 72.0834,397.861 72.2263,386.9419 72.3699,376.0228 72.5143,365.1036 72.6595,354.1844 72.8055,343.2651 72.9522,332.3457 73.0998,321.4262 73.2481,310.5064 73.3972,299.5865 73.5471,288.6664 73.6978,277.746 73.8492,266.8254 74.0015,255.9044 74.1545,244.9831 74.3083,234.0615 74.4629,223.1396 74.6183,212.2172 74.7745,201.2944 74.9315,190.3711 75.0893,179.4474 75.2478,168.5231 75.4071,157.5984 75.5673,146.673 75.7282,135.7471 75.8899,124.8206 76.0524,113.8935 76.2157,102.9657 76.3798,92.0372 76.5447,81.108 76.7104,70.178" stroke="black" stroke-opacity="0.5" stroke-width="1" /></svg>