<?xml version="1.0" encoding="utf-8" ?>
<svg baseProfile="tiny" height="800" version="1.2" width="800" xmlns="http://www.w3.org/2000/svg" xmlns:ev="http://www.w3.org/2001/xml-events" xmlns:xlink="http://www.w3.org/1999/xlink"><defs /><rect fill="none" height="800" stroke="black" stroke-width="2" width="800" x="0" y="0" /><polyline fill="none" points="655.5592,726.2936 655.4671,715.3673 655.3745,704.4418 655.2813,693.517 655.1875,682.593 655.0931,671.6696 654.9981,660.7469 654.9025,649.8248 654.8064,638.9033 654.7096,627.9824 654.6122,617.0621 654.5142,606.1422 654.4156,595.2229 654.3165,584.3041 654.2167,573.3857 654.1163,562.4677 654.0154,551.5501 653.9138,540.6329 653.8116,529.7161 653.7089,518.7995 653.6055,507.8833 653.5016,496.9673 653.397,486.0516 653.2918,475.1361 653.1861,464.2208 653.0797,453.3056 652.9728,442.3906 652.8652,431.4757 652.757,420.5609 652.6483,409.6461 652.5389,398.7314 652.429,387.8167 652.3184,376.9019 652.2072,365.9872 652.0955,355.0723 651.9831,344.1574 651.8701,333.2423 651.7565,322.3271 651.6424,311.4118 651.5276,300.4962 651.4122,289.5804 651.2962,278.6643 651.1796,267.748 651.0624,256.8314 650.9446,245.9144 650.8262,234.9971 650.7072,224.0794 650.5876,213.1613 650.4673,202.2428 650.3465,191.3238 650.225,180.4043 650.103,169.4844 649.9803,158.5639 649.8571,147.6428 649.7332,136.7211 649.6087,125.7988 649.4836,114.8759 649.3579,103.9523 649.2316,93.0281 649.1047,82.1031 648.9771,71.1773" stroke="silver" stroke-opacity="0.5" stroke-width="1" /><polyline fill="none" points="547.2514,727.01 547.1984,716.0882 547.145,705.1671 547.0914,694.2468 547.0373,683.3272 546.983,672.4082 546.9283,661.4899 546.8732,650.5723 546.8178,639.6552 546.7621,628.7387 546.706,617.8227 546.6496,606.9073 546.5928,595.9924 546.5357,585.0779 546.4782,574.1639 546.4204,563.2503 546.3622,552.3371 546.3037,541.4242 546.2449,530.5117 546.1857,519.5995 546.1262,508.6876 546.0663,497.776 546.0061,486.8646 545.9455,475.9534 545.8846,465.0424 545.8234,454.1316 545.7618,443.2209 545.6998,432.3103 545.6375,421.3997 545.5749,410.4893 545.5119,399.5788 545.4485,388.6684 545.3849,377.7579 545.3208,366.8474 545.2565,355.9368 545.1918,345.0261 545.1267,334.1153 545.0613,323.2044 544.9955,312.2932 544.9294,301.3819 544.8629,290.4703 544.7961,279.5585 544.729,268.6464 544.6615,257.7339 544.5936,246.8212 544.5254,235.908 544.4569,224.9945 544.388,214.0806 544.3187,203.1663 544.2491,192.2514 544.1792,181.3361 544.1089,170.4203 544.0383,159.5039 543.9673,148.587 543.8959,137.6695 543.8242,126.7513 543.7522,115.8325 543.6798,104.913 543.607,93.9929 543.5339,83.072 543.4604,72.1503" stroke="silver" stroke-opacity="0.5" stroke-width="1" /><polyline fill="none" points="438.9759,727.3412 438.9618,716.4214 438.9477,705.5024 438.9335,694.5841 438.9192,683.6665 438.9048,672.7496 438.8904,661.8333 438.8758,650.9177 438.8611,640.0027 438.8464,629.0882 438.8315,618.1743 438.8166,607.2609 438.8016,596.348 438.7865,585.4355 438.7712,574.5236 438.7559,563.612 438.7406,552.7008 438.7251,541.79 438.7095,530.8795 438.6938,519.9693 438.6781,509.0594 438.6622,498.1498 438.6463,487.2404 438.6303,476.3312 438.6142,465.4222 438.598,454.5133 438.5816,443.6046 438.5653,432.696 438.5488,421.7874 438.5322,410.879 438.5155,399.9705 438.4988,389.062 438.4819,378.1535 438.465,367.245 438.4479,356.3364 438.4308,345.4277 438.4136,334.5188 438.3963,323.6098 438.3789,312.7006 438.3614,301.7912 438.3438,290.8816 438.3261,279.9717 438.3083,269.0615 438.2905,258.1511 438.2725,247.2402 438.2545,236.3291 438.2363,225.4175 438.2181,214.5055 438.1998,203.5931 438.1814,192.6802 438.1628,181.7668 438.1442,170.8529 438.1255,159.9384 438.1068,149.0234 438.0879,138.1078 438.0689,127.1915 438.0498,116.2746 438.0307,105.357 438.0114,94.4388 437.9921,83.5198 437.9726,72.6" stroke="silver" stroke-opacity="0.5" stroke-width="1" /><polyline fill="none" points="330.7089,727.2873 330.7338,716.3672 330.7589,705.4478 330.7842,694.5292 330.8096,683.6113 330.8352,672.694 330.8609,661.7774 330.8868,650.8615 330.9129,639.9461 330.9391,629.0313 330.9655,618.1171 330.992,607.2033 331.0187,596.2901 331.0456,585.3773 331.0726,574.465 331.0998,563.5531 331.1272,552.6416 331.1547,541.7304 331.1824,530.8196 331.2103,519.9091 331.2383,508.9989 331.2664,498.0889 331.2948,487.1792 331.3233,476.2697 331.3519,465.3604 331.3807,454.4512 331.4097,443.5421 331.4389,432.6332 331.4682,421.7243 331.4977,410.8155 331.5273,399.9067 331.5571,388.998 331.587,378.0891 331.6172,367.1803 331.6475,356.2714 331.6779,345.3623 331.7085,334.4531 331.7393,323.5438 331.7702,312.6343 331.8013,301.7246 331.8326,290.8147 331.864,279.9045 331.8956,268.994 331.9274,258.0832 331.9593,247.172 331.9914,236.2605 332.0236,225.3486 332.0561,214.4363 332.0886,203.5236 332.1214,192.6104 332.1543,181.6967 332.1874,170.7825 332.2206,159.8677 332.254,148.9524 332.2876,138.0364 332.3213,127.1199 332.3552,116.2027 332.3893,105.2848 332.4235,94.3662 332.4579,83.4469 332.4925,72.5268" stroke="silver" stroke-opacity="0.5" stroke-width="1" /><polyline fill="none" points="222.4267,726.8483 222.4906,715.9255 222.555,705.0034 222.6197,694.0821 222.6849,683.1614 222.7504,672.2415 222.8164,661.3222 222.8828,650.4035 222.9496,639.4854 223.0168,628.5679 223.0845,617.651 223.1525,606.7346 223.221,595.8187 223.2899,584.9032 223.3592,573.9882 223.4289,563.0736 223.4991,552.1594 223.5696,541.2456 223.6406,530.3321 223.7119,519.4189 223.7837,508.5061 223.856,497.5934 223.9286,486.6811 224.0016,475.7689 224.0751,464.8569 224.149,453.9451 224.2233,443.0334 224.298,432.1218 224.3731,421.2104 224.4486,410.2989 224.5246,399.3875 224.601,388.4761 224.6778,377.5647 224.755,366.6532 224.8326,355.7417 224.9107,344.83 224.9892,333.9182 225.0681,323.0063 225.1474,312.0942 225.2271,301.1819 225.3073,290.2694 225.3878,279.3566 225.4688,268.4435 225.5502,257.5302 225.6321,246.6165 225.7143,235.7024 225.797,224.7879 225.8801,213.8731 225.9636,202.9578 226.0475,192.042 226.1319,181.1258 226.2167,170.209 226.3019,159.2917 226.3875,148.3738 226.4735,137.4554 226.56,126.5363 226.6469,115.6165 226.7342,104.6961 226.822,93.775 226.9101,82.8532 226.9987,71.9307" stroke="silver" stroke-opacity="0.5" stroke-width="1" /><polyline fill="none" points="114.1057,726.0239 114.2086,715.0959 114.3122,704.1687 114.4165,693.2423 114.5215,682.3166 114.6271,671.3915 114.7334,660.4671 114.8403,649.5434 114.9479,638.6202 115.0562,627.6977 115.1652,616.7757 115.2748,605.8542 115.3851,594.9332 115.4961,584.0127 115.6077,573.0927 115.72,562.1731 115.833,551.2539 115.9466,540.335 116.0609,529.4165 116.1759,518.4983 116.2915,507.5805 116.4079,496.6629 116.5249,485.7455 116.6425,474.8284 116.7608,463.9114 116.8798,452.9946 116.9995,442.078 117.1199,431.1615 117.2409,420.245 117.3626,409.3287 117.4849,398.4123 117.608,387.496 117.7317,376.5797 117.8561,365.6633 117.9811,354.7468 118.1068,343.8303 118.2332,332.9137 118.3603,321.9969 118.4881,311.0799 118.6165,300.1627 118.7456,289.2453 118.8754,278.3277 119.0058,267.4098 119.137,256.4916 119.2688,245.573 119.4013,234.6542 119.5344,223.7349 119.6683,212.8152 119.8028,201.8951 119.938,190.9746 120.0739,180.0535 120.2104,169.132 120.3477,158.2099 120.4856,147.2873 120.6242,136.3641 120.7635,125.4402 120.9035,114.5158 121.0441,103.5906 121.1854,92.6648 121.3275,81.7383 121.4701,70.811" stroke="silver" stroke-opacity="0.5" stroke-width="1" /><polyline fill="none" points="731.3573,681.8389 730.9244,681.8438 720.1029,681.9627 709.282,682.0776 698.4619,682.1886 687.6424,682.2956 676.8235,682.3987 666.0052,682.4978 655.1875,682.593 644.3704,682.6842 633.5538,682.7714 622.7377,682.8547 611.9221,682.9341 601.107,683.0095 590.2922,683.0809 579.478,683.1484 568.6641,683.2119 557.8505,683.2715 547.0373,683.3272 536.2245,683.3789 525.4119,683.4266 514.5996,683.4704 503.7876,683.5103 492.9757,683.5462 482.1641,683.5781 471.3527,683.6061 460.5414,683.6302 449.7303,683.6503 438.9192,683.6665 428.1083,683.6787 417.2974,683.687 406.4865,683.6914 395.6757,683.6918 384.8648,683.6882 374.0539,683.6807 363.243,683.6693 352.432,683.6539 341.6208,683.6346 330.8096,683.6113 319.9982,683.5841 309.1866,683.5529 298.3748,683.5178 287.5628,683.4787 276.7506,683.4357 265.9381,683.3887 255.1253,683.3378 244.3121,683.283 233.4987,683.2242 222.6849,683.1614 211.8706,683.0947 201.056,683.0241 190.241,682.9495 179.4255,682.8709 168.6095,682.7884 157.793,682.702 146.9759,682.6115 136.1584,682.5172 125.3402,682.4188 114.5215,682.3166 103.7021,682.2103 92.8821,682.1001 82.0614,681.986 71.24,681.8679 68.6427,681.8389" stroke="silver" stroke-opacity="0.5" stroke-width="1" /><polyline fill="none" points="730.3545,594.4326 729.923,594.4377 719.1343,594.5623 708.3462,594.6828 697.5589,594.7991 686.7722,594.9113 675.9861,595.0193 665.2006,595.1232 654.4156,595.2229 643.6313,595.3185 632.8474,595.4099 622.0641,595.4972 611.2812,595.5804 600.4988,595.6594 589.7168,595.7343 578.9353,595.805 568.1541,595.8716 557.3733,595.934 546.5928,595.9924 535.8126,596.0465 525.0327,596.0966 514.2531,596.1425 503.4738,596.1842 492.6947,596.2219 481.9157,596.2554 471.137,596.2847 460.3584,596.3099 449.5799,596.331 438.8016,596.348 428.0233,596.3608 417.2451,596.3695 406.4669,596.374 395.6887,596.3744 384.9106,596.3707 374.1324,596.3629 363.3541,596.3509 352.5758,596.3348 341.7973,596.3145 331.0187,596.2901 320.24,596.2616 309.4611,596.2289 298.682,596.1921 287.9027,596.1512 277.1232,596.1061 266.3434,596.0569 255.5633,596.0035 244.7829,595.946 234.0021,595.8844 223.221,595.8187 212.4395,595.7488 201.6576,595.6747 190.8753,595.5965 180.0925,595.5142 169.3093,595.4277 158.5255,595.3371 147.7413,595.2424 136.9565,595.1435 126.1711,595.0404 115.3851,594.9332 104.5985,594.8219 93.8113,594.7064 83.0234,594.5868 72.2348,594.463 69.6455,594.4326" stroke="silver" stroke-opacity="0.5" stroke-width="1" /><polyline fill="none" points="729.3021,507.0572 728.8719,507.0625 718.1177,507.1928 707.3641,507.3187 696.6111,507.4403 685.8588,507.5575 675.1072,507.6705 664.356,507.779 653.6055,507.8833 642.8555,507.9832 632.106,508.0788 621.3571,508.1701 610.6086,508.257 599.8605,508.3396 589.1129,508.4179 578.3657,508.4918 567.6188,508.5614 556.8723,508.6267 546.1262,508.6876 535.3803,508.7443 524.6348,508.7966 513.8895,508.8446 503.1445,508.8882 492.3997,508.9276 481.6551,508.9626 470.9106,508.9933 460.1663,509.0196 449.4221,509.0417 438.6781,509.0594 427.9341,509.0728 417.1902,509.0819 406.4463,509.0866 395.7025,509.0871 384.9586,509.0832 374.2147,509.075 363.4707,509.0624 352.7267,509.0456 341.9825,509.0244 331.2383,508.9989 320.4939,508.9691 309.7493,508.9349 299.0045,508.8964 288.2595,508.8537 277.5143,508.8065 266.7688,508.7551 256.023,508.6993 245.2769,508.6392 234.5305,508.5748 223.7837,508.5061 213.0366,508.433 202.2891,508.3556 191.5411,508.2739 180.7927,508.1878 170.0438,508.0974 159.2944,508.0027 148.5445,507.9036 137.7941,507.8002 127.0431,507.6925 116.2915,507.5805 105.5394,507.4641 94.7866,507.3434 84.0331,507.2183 73.279,507.0889 70.6979,507.0572" stroke="silver" stroke-opacity="0.5" stroke-width="1" /><polyline fill="none" points="728.1999,419.6993 727.7712,419.7048 717.053,419.8407 706.3354,419.972 695.6186,420.0988 684.9023,420.2211 674.1866,420.3389 663.4716,420.4521 652.757,420.5609 642.0431,420.6651 631.3296,420.7648 620.6166,420.8599 609.9041,420.9506 599.192,421.0367 588.4804,421.1184 577.7691,421.1955 567.0582,421.2681 556.3477,421.3362 545.6375,421.3997 534.9276,421.4588 524.218,421.5134 513.5087,421.5634 502.7996,421.6089 492.0907,421.65 481.382,421.6865 470.6735,421.7185 459.9651,421.746 449.2569,421.769 438.5488,421.7874 427.8407,421.8014 417.1327,421.8109 406.4248,421.8158 395.7168,421.8163 385.0089,421.8122 374.3009,421.8037 363.5928,421.7906 352.8847,421.773 342.1765,421.7509 331.4682,421.7243 320.7597,421.6932 310.051,421.6576 299.3422,421.6175 288.6332,421.5729 277.9239,421.5237 267.2143,421.4701 256.5045,421.4119 245.7944,421.3492 235.0839,421.2821 224.3731,421.2104 213.6619,421.1341 202.9504,421.0534 192.2384,420.9682 181.5259,420.8784 170.8131,420.7842 160.0997,420.6854 149.3858,420.5821 138.6714,420.4742 127.9564,420.3619 117.2409,420.245 106.5247,420.1237 95.808,419.9978 85.0906,419.8673 74.3725,419.7324 71.8001,419.6993" stroke="silver" stroke-opacity="0.5" stroke-width="1" /><polyline fill="none" points="727.0478,332.3457 726.6205,332.3515 715.94,332.4929 705.2602,332.6295 694.581,332.7615 683.9024,332.8888 673.2244,333.0113 662.547,333.1292 651.8701,333.2423 641.1938,333.3508 630.5179,333.4545 619.8426,333.5536 609.1677,333.6479 598.4932,333.7376 587.8192,333.8225 577.1455,333.9028 566.4722,333.9783 555.7993,334.0492 545.1267,334.1153 534.4544,334.1768 523.7824,334.2336 513.1106,334.2857 502.4391,334.333 491.7677,334.3757 481.0966,334.4137 470.4257,334.447 459.7548,334.4757 449.0842,334.4996 438.4136,334.5188 427.7431,334.5334 417.0726,334.5432 406.4022,334.5484 395.7318,334.5488 385.0614,334.5446 374.391,334.5357 363.7205,334.5221 353.05,334.5038 342.3793,334.4808 331.7085,334.4531 321.0376,334.4208 310.3665,334.3837 299.6952,334.342 289.0237,334.2955 278.352,334.2444 267.68,334.1885 257.0078,334.128 246.3353,334.0628 235.6624,333.9929 224.9892,333.9182 214.3156,333.8389 203.6416,333.7549 192.9673,333.6662 182.2924,333.5728 171.6172,333.4747 160.9414,333.3719 150.2652,333.2644 139.5884,333.1522 128.9111,333.0353 118.2332,332.9137 107.5548,332.7873 96.8757,332.6563 86.196,332.5206 75.5156,332.3801 72.9522,332.3457" stroke="silver" stroke-opacity="0.5" stroke-width="1" /><polyline fill="none" points="725.8455,244.9831 725.4198,244.9891 714.7787,245.136 704.1382,245.2779 693.4983,245.415 682.859,245.5472 672.2203,245.6745 661.5822,245.7969 650.9446,245.9144 640.3075,246.0271 629.671,246.1348 619.0349,246.2377 608.3992,246.3357 597.764,246.4288 587.1292,246.517 576.4948,246.6004 565.8607,246.6788 555.227,246.7524 544.5936,246.8212 533.9605,246.885 523.3277,246.944 512.6952,246.9981 502.0628,247.0473 491.4307,247.0916 480.7988,247.1311 470.167,247.1657 459.5354,247.1954 448.9039,247.2203 438.2725,247.2402 427.6412,247.2553 417.0099,247.2656 406.3787,247.2709 395.7475,247.2714 385.1163,247.267 374.4851,247.2578 363.8537,247.2437 353.2224,247.2247 342.5909,247.2008 331.9593,247.172 321.3276,247.1384 310.6957,247.0999 300.0636,247.0565 289.4313,247.0083 278.7988,246.9552 268.166,246.8972 257.533,246.8343 246.8997,246.7666 236.266,246.694 225.6321,246.6165 214.9977,246.5341 204.363,246.4468 193.7279,246.3547 183.0923,246.2577 172.4563,246.1558 161.8198,246.049 151.1829,245.9373 140.5454,245.8208 129.9074,245.6994 119.2688,245.573 108.6296,245.4418 97.9899,245.3057 87.3495,245.1648 76.7085,245.0189 74.1545,244.9831" stroke="silver" stroke-opacity="0.5" stroke-width="1" /><polyline fill="none" points="724.5929,157.5984 724.1688,157.6045 713.5687,157.7568 702.9691,157.904 692.3702,158.0461 681.7719,158.1831 671.1742,158.3151 660.577,158.442 649.9803,158.5639 639.3842,158.6806 628.7885,158.7923 618.1933,158.899 607.5986,159.0006 597.0043,159.0971 586.4104,159.1886 575.8168,159.275 565.2236,159.3564 554.6308,159.4327 544.0383,159.5039 533.446,159.5701 522.8541,159.6313 512.2623,159.6873 501.6709,159.7384 491.0796,159.7843 480.4885,159.8253 469.8976,159.8611 459.3068,159.8919 448.7161,159.9177 438.1255,159.9384 427.5351,159.9541 416.9446,159.9647 406.3542,159.9702 395.7638,159.9707 385.1735,159.9662 374.583,159.9566 363.9926,159.9419 353.402,159.9222 342.8114,159.8975 332.2206,159.8677 321.6297,159.8328 311.0387,159.7929 300.4474,159.748 289.856,159.6979 279.2643,159.6429 268.6724,159.5828 258.0802,159.5176 247.4877,159.4473 236.895,159.372 226.3019,159.2917 215.7084,159.2063 205.1145,159.1158 194.5203,159.0203 183.9256,158.9197 173.3305,158.8141 162.735,158.7034 152.1389,158.5876 141.5424,158.4668 130.9453,158.3409 120.3477,158.2099 109.7495,158.0739 99.1507,157.9328 88.5513,157.7866 77.9512,157.6354 75.4071,157.5984" stroke="silver" stroke-opacity="0.5" stroke-width="1" /><polyline fill="none" points="723.2896,70.178 722.8673,70.1844 712.3098,70.342 701.7529,70.4944 691.1966,70.6414 680.6409,70.7833 670.0858,70.9199 659.5312,71.0512 648.9771,71.1773 638.4235,71.2982 627.8705,71.4138 617.3178,71.5242 606.7656,71.6294 596.2138,71.7293 585.6625,71.824 575.1115,71.9134 564.5608,71.9976 554.0105,72.0766 543.4604,72.1503 532.9107,72.2188 522.3613,72.2821 511.812,72.3401 501.263,72.393 490.7143,72.4405 480.1657,72.4829 469.6172,72.52 459.0689,72.5519 448.5207,72.5786 437.9726,72.6 427.4246,72.6162 416.8767,72.6272 406.3287,72.633 395.7808,72.6335 385.2329,72.6288 374.685,72.6188 364.137,72.6037 353.5889,72.5833 343.0407,72.5577 332.4925,72.5268 321.944,72.4907 311.3955,72.4494 300.8467,72.4029 290.2978,72.3511 279.7486,72.2941 269.1992,72.2319 258.6495,72.1644 248.0996,72.0917 237.5493,72.0138 226.9987,71.9307 216.4478,71.8423 205.8965,71.7486 195.3448,71.6498 184.7927,71.5457 174.2401,71.4363 163.6871,71.3217 153.1336,71.2019 142.5797,71.0769 132.0252,70.9466 121.4701,70.811 110.9146,70.6702 100.3584,70.5242 89.8016,70.3729 79.2442,70.2164 76.7104,70.178" stroke="silver" stroke-opacity="0.5" stroke-width="1" /><circle cx="706.1495" cy="70.7814" fill="black" r="0.936" stroke="none" /><circle cx="704.8265" cy="518.7051" fill="black" r="0.738" stroke="none" /><circle cx="705.1702" cy="572.6097" fill="black" r="0.738" stroke="none" /><circle cx="696.2788" cy="310.9894" fill="black" r="0.738" stroke="none" /><circle cx="697.2395" cy="448.993" fill="black" r="0.738" stroke="none" /><circle cx="695.5705" cy="661.501" fill="black" r="0.738" stroke="none" /><circle cx="687.719" cy="480.808" fill="black" r="0.738" stroke="none" /><circle cx="682.9509" cy="717.1335" fill="black" r="0.738" stroke="none" /><circle cx="674.4211" cy="139.8351" fill="black" r="0.738" stroke="none" /><circle cx="673.4446" cy="234.0412" fill="black" r="0.738" stroke="none" /><circle cx="664.4614" cy="368.0423" fill="black" r="0.738" stroke="none" /><circle cx="659.0809" cy="377.0943" fill="black" r="0.738" stroke="none" /><circle cx="649.0705" cy="528.9741" fill="black" r="0.738" stroke="none" /><circle cx="644.1393" cy="76.391" fill="black" r="1.17" stroke="none" /><circle cx="635.513" cy="475.3892" fill="black" r="0.738" stroke="none" /><circle cx="628.1477" cy="81.5502" fill="black" r="0.738" stroke="none" /><circle cx="625.9638" cy="147.8128" fill="black" r="0.738" stroke="none" /><circle cx="611.2216" cy="295.2987" fill="black" r="0.738" stroke="none" /><circle cx="600.5947" cy="239.2437" fill="black" r="0.738" stroke="none" /><circle cx="600.6226" cy="650.1632" fill="black" r="0.738" stroke="none" /><circle cx="594.2018" cy="608.1928" fill="black" r="0.738" stroke="none" /><circle cx="590.6466" cy="188.8503" fill="black" r="0.738" stroke="none" /><circle cx="593.6107" cy="687.7775" fill="black" r="0.738" stroke="none" /><circle cx="591.2322" cy="377.36" fill="black" r="0.936" stroke="none" /><circle cx="587.3908" cy="662.2195" fill="black" r="0.738" stroke="none" /><circle cx="569.436" cy="189.6311" fill="black" r="0.738" stroke="none" /><circle cx="569.7925" cy="445.9543" fill="black" r="0.738" stroke="none" /><circle cx="567.901" cy="306.2075" fill="black" r="0.738" stroke="none" /><circle cx="567.4297" cy="425.6303" fill="black" r="0.738" stroke="none" /><circle cx="563.8014" cy="588.9987" fill="black" r="0.738" stroke="none" /><circle cx="556.8074" cy="526.9604" fill="black" r="0.738" stroke="none" /><circle cx="547.3904" cy="667.4272" fill="black" r="0.738" stroke="none" /><circle cx="542.8159" cy="153.9222" fill="black" r="0.738" stroke="none" /><circle cx="535.3669" cy="375.807" fill="black" r="0.738" stroke="none" /><circle cx="527.8171" cy="659.6582" fill="black" r="0.738" stroke="none" /><circle cx="524.9106" cy="337.8065" fill="black" r="0.738" stroke="none" /><circle cx="516.7291" cy="237.2877" fill="black" r="0.936" stroke="none" /><circle cx="514.7548" cy="303.1173" fill="black" r="0.738" stroke="none" /><circle cx="511.0275" cy="587.3371" fill="black" r="0.738" stroke="none" /><circle cx="510.2055" cy="664.9703" fill="black" r="0.738" stroke="none" /><circle cx="497.6336" cy="286.4347" fill="black" r="0.738" stroke="none" /><circle cx="486.013" cy="397.9328" fill="black" r="0.738" stroke="none" /><circle cx="478.0643" cy="145.1632" fill="black" r="0.738" stroke="none" /><circle cx="474.2145" cy="652.4208" fill="black" r="0.738" stroke="none" /><circle cx="470.7008" cy="172.6945" fill="black" r="0.738" stroke="none" /><circle cx="471.5855" cy="708.587" fill="black" r="0.936" stroke="none" /><circle cx="466.7186" cy="416.3184" fill="black" r="0.738" stroke="none" /><circle cx="459.4478" cy="213.3252" fill="black" r="0.738" stroke="none" /><circle cx="456.7113" cy="461.2872" fill="black" r="0.738" stroke="none" /><circle cx="455.3408" cy="345.4825" fill="black" r="0.738" stroke="none" /><circle cx="452.4847" cy="289.1089" fill="black" r="0.738" stroke="none" /><circle cx="442.6113" cy="550.5128" fill="black" r="0.738" stroke="none" /><circle cx="437.8526" cy="472.8414" fill="black" r="0.738" stroke="none" /><circle cx="435.2993" cy="554.5385" fill="black" r="0.738" stroke="none" /><circle cx="417.8597" cy="613.9171" fill="black" r="0.738" stroke="none" /><circle cx="404.9344" cy="711.8164" fill="black" r="0.738" stroke="none" /><circle cx="399.9154" cy="116.8319" fill="black" r="0.738" stroke="none" /><circle cx="399.4936" cy="78.9237" fill="black" r="0.738" stroke="none" /><circle cx="396.9536" cy="133.5122" fill="black" r="0.738" stroke="none" /><circle cx="382.8669" cy="299.634" fill="black" r="0.738" stroke="none" /><circle cx="381.0958" cy="385.2448" fill="black" r="0.738" stroke="none" /><circle cx="376.1694" cy="181.8739" fill="black" r="0.738" stroke="none" /><circle cx="375.6319" cy="658.094" fill="black" r="0.738" stroke="none" /><circle cx="371.6564" cy="490.0462" fill="black" r="0.738" stroke="none" /><circle cx="364.9168" cy="275.6127" fill="black" r="0.738" stroke="none" /><circle cx="364.3089" cy="591.376" fill="black" r="1.17" stroke="none" /><circle cx="363.5228" cy="667.2508" fill="black" r="1.17" stroke="none" /><circle cx="363.2459" cy="366.3749" fill="black" r="0.738" stroke="none" /><circle cx="362.5777" cy="300.92" fill="black" r="0.738" stroke="none" /><circle cx="355.7905" cy="283.5399" fill="black" r="0.738" stroke="none" /><circle cx="346.911" cy="628.3668" fill="black" r="0.738" stroke="none" /><circle cx="345.6327" cy="115.4539" fill="black" r="0.738" stroke="none" /><circle cx="342.8636" cy="712.1994" fill="black" r="0.738" stroke="none" /><circle cx="334.9843" cy="523.8463" fill="black" r="0.738" stroke="none" /><circle cx="334.4312" cy="215.4909" fill="black" r="0.738" stroke="none" /><circle cx="320.4766" cy="402.7542" fill="black" r="0.738" stroke="none" /><circle cx="318.8504" cy="456.5968" fill="black" r="0.738" stroke="none" /><circle cx="318.5936" cy="456.4215" fill="black" r="0.738" stroke="none" /><circle cx="317.3161" cy="203.8238" fill="black" r="0.738" stroke="none" /><circle cx="310.4361" cy="204.6708" fill="black" r="0.738" stroke="none" /><circle cx="309.3656" cy="495.4047" fill="black" r="0.738" stroke="none" /><circle cx="308.5275" cy="346.683" fill="black" r="0.738" stroke="none" /><circle cx="307.0894" cy="320.7558" fill="black" r="0.738" stroke="none" /><circle cx="303.4999" cy="259.3796" fill="black" r="0.738" stroke="none" /><circle cx="290.2959" cy="579.6593" fill="black" r="0.738" stroke="none" /><circle cx="289.9467" cy="395.3952" fill="black" r="1.17" stroke="none" /><circle cx="289.0169" cy="533.6474" fill="black" r="1.17" stroke="none" /><circle cx="281.2605" cy="441.0031" fill="black" r="0.738" stroke="none" /><circle cx="274.3192" cy="388.4265" fill="black" r="0.738" stroke="none" /><circle cx="269.3856" cy="518.6322" fill="black" r="0.738" stroke="none" /><circle cx="266.9582" cy="668.1946" fill="black" r="0.738" stroke="none" /><circle cx="269.6462" cy="123.9533" fill="black" r="0.738" stroke="none" /><circle cx="260.5522" cy="581.3597" fill="black" r="0.738" stroke="none" /><circle cx="253.041" cy="326.51" fill="black" r="0.738" stroke="none" /><circle cx="239.8149" cy="107.7675" fill="black" r="0.738" stroke="none" /><circle cx="229.4413" cy="666.7775" fill="black" r="0.738" stroke="none" /><circle cx="226.181" cy="536.7222" fill="black" r="0.738" stroke="none" /><circle cx="225.4918" cy="276.8254" fill="black" r="0.936" stroke="none" /><circle cx="223.0497" cy="152.6275" fill="black" r="0.738" stroke="none" /><circle cx="222.2081" cy="151.922" fill="black" r="0.738" stroke="none" /><circle cx="211.4765" cy="485.9839" fill="black" r="0.738" stroke="none" /><circle cx="206.3329" cy="519.9105" fill="black" r="0.738" stroke="none" /><circle cx="207.946" cy="126.0311" fill="black" r="0.936" stroke="none" /><circle cx="200.2172" cy="273.5685" fill="black" r="0.738" stroke="none" /><circle cx="194.8864" cy="613.4439" fill="black" r="0.738" stroke="none" /><circle cx="194.9364" cy="458.7942" fill="black" r="0.738" stroke="none" /><circle cx="195.3731" cy="383.2774" fill="black" r="0.738" stroke="none" /><circle cx="194.9946" cy="218.7693" fill="black" r="0.738" stroke="none" /><circle cx="192.4719" cy="434.4155" fill="black" r="0.738" stroke="none" /><circle cx="170.929" cy="608.4562" fill="black" r="0.738" stroke="none" /><circle cx="167.3626" cy="442.0585" fill="black" r="0.738" stroke="none" /><circle cx="162.6379" cy="128.3821" fill="black" r="0.936" stroke="none" /><circle cx="155.8774" cy="269.0452" fill="black" r="0.936" stroke="none" /><circle cx="149.4453" cy="708.0661" fill="black" r="0.738" stroke="none" /><circle cx="146.1731" cy="540.5464" fill="black" r="0.738" stroke="none" /><circle cx="143.6201" cy="439.9117" fill="black" r="0.936" stroke="none" /><circle cx="143.3948" cy="328.6514" fill="black" r="0.738" stroke="none" /><circle cx="140.3441" cy="271.5863" fill="black" r="0.738" stroke="none" /><circle cx="140.6211" cy="121.5773" fill="black" r="0.738" stroke="none" /><circle cx="133.51" cy="430.3767" fill="black" r="0.738" stroke="none" /><circle cx="134.733" cy="218.4119" fill="black" r="0.738" stroke="none" /><circle cx="116.7045" cy="550.3019" fill="black" r="0.738" stroke="none" /><circle cx="111.0385" cy="657.9836" fill="black" r="0.738" stroke="none" /><circle cx="111.0957" cy="617.7833" fill="black" r="0.738" stroke="none" /><circle cx="104.4777" cy="557.5116" fill="black" r="0.738" stroke="none" /><circle cx="106.8168" cy="240.701" fill="black" r="0.738" stroke="none" /><circle cx="97.351" cy="146.8949" fill="black" r="0.738" stroke="none" /><circle cx="91.4089" cy="516.7401" fill="black" r="1.854" stroke="none" /><circle cx="94.5725" cy="226.9114" fill="black" r="0.738" stroke="none" /><circle cx="92.2896" cy="371.2982" fill="black" r="0.738" stroke="none" /><circle cx="88.542" cy="595.0854" fill="black" r="0.936" stroke="none" /><circle cx="84.1651" cy="253.9471" fill="black" r="0.738" stroke="none" /><circle cx="13.77" cy="786.23" fill="black" r="4.59" stroke="none" /><circle cx="13.77" cy="786.23" fill="black" r="4.59" stroke="none" /><text fill="black" font-family="monospace" font-size="12" x="10.77" y="775.64">1</text><circle cx="37.77" cy="786.23" fill="black" r="3.654" stroke="none" /><circle cx="37.77" cy="786.23" fill="black" r="3.654" stroke="none" /><text fill="black" font-family="monospace" font-size="12" x="34.769999999999996" y="775.64">2</text><circle cx="61.77" cy="786.23" fill="black" r="2.916" stroke="none" /><circle cx="61.77" cy="786.23" fill="black" r="2.916" stroke="none" /><text fill="black" font-family="monospace" font-size="12" x="58.769999999999996" y="775.64">3</text><circle cx="85.77" cy="786.23" fill="black" r="2.322" stroke="none" /><circle cx="85.77" cy="786.23" fill="black" r="2.322" stroke="none" /><text fill="black" font-family="monospace" font-size="12" x="82.77" y="775.64">4</text><circle cx="109.77" cy="786.23" fill="black" r="1.854" stroke="none" /><circle cx="109.77" cy="786.23" fill="black" r="1.854" stroke="none" /><text fill="black" font-family="monospace" font-size="12" x="106.77" y="775.64">5</text><circle cx="133.77" cy="786.23" fill="black" r="1.476" stroke="none" /><circle cx="133.77" cy="786.23" fill="black" r="1.476" stroke="none" /><text fill="black" font-family="monospace" font-size="12" x="130.77" y="775.64">6</text><circle cx="157.77" cy="786.23" fill="black" r="1.17" stroke="none" /><circle cx="157.77" cy="786.23" fill="black" r="1.17" stroke="none" /><text fill="black" font-family="monospace" font-size="12" x="154.77" y="775.64">7</text><circle cx="181.77" cy="786.23" fill="black" r="0.936" stroke="none" /><circle cx="181.77" cy="786.23" fill="black" r="0.936" stroke="none" /><text fill="black" font-family="monospace" font-size="12" x="178.77" y="775.64">8</text><circle cx="205.77" cy="786.23" fill="black" r="0.738" stroke="none" /><circle cx="205.77" cy="786.23" fill="black" r="0.738" stroke="none" /><text fill="black" font-family="monospace" font-size="12" x="202.77" y="775.64">9</text><text fill="gray" fill-opacity="0.5" font-family="monospace" font-size="12" x="655.5591520840998" y="726.2936014478728">09h15m</text><text fill="gray" fill-opacity="0.5" font-family="monospace" font-size="12" x="547.2513755508106" y="727.010039264892">09h20m</text><text fill="gray" fill-opacity="0.5" font-family="monospace" font-size="12" x="438.97585800243075" y="727.3411582164806">09h25m</text><text fill="gray" fill-opacity="0.5" font-family="monospace" font-size="12" x="330.70887755621095" y="727.2872610434366">09h30m</text><text fill="gray" fill-opacity="0.5" font-family="monospace" font-size="12" x="222.42671944890336" y="726.8482984736893">09h35m</text><text fill="gray" fill-opacity="0.5" font-family="monospace" font-size="12" x="114.10565625939233" y="726.023869127991">09h40m</text><text fill="gray" fill-opacity="0.5" font-family="monospace" font-size="12" x="68.64274660234406" y="681.8389141919388">+8°</text><text fill="gray" fill-opacity="0.5" font-family="monospace" font-size="12" x="69.64546961131464" y="594.4326330539807">+9°</text><text fill="gray" fill-opacity="0.5" font-family="monospace" font-size="12" x="70.69787367159438" y="507.0571874107499">+10°</text><text fill="gray" fill-opacity="0.5" font-family="monospace" font-size="12" x="71.80007815861342" y="419.69930120520905">+11°</text><text fill="gray" fill-opacity="0.5" font-family="monospace" font-size="12" x="72.95223276131458" y="332.34570903144146">+12°</text><text fill="gray" fill-opacity="0.5" font-family="monospace" font-size="12" x="74.15451755678691" y="244.9831480886702">+13°</text><text fill="gray" fill-opacity="0.5" font-family="monospace" font-size="12" x="75.40714312416856" y="157.5983501386286">+14°</text><text fill="gray" fill-opacity="0.5" font-family="monospace" font-size="12" x="76.71035069797495" y="70.17803345593836">+15°</text><text fill="black" font-family="monospace" font-size="12" x="12" y="48">&gt;&gt; No.475 09h11m 09h42m +7.5°+15.0°</text><a target="_self" xlink:href="hip026.svg"><text fill="black" font-family="monospace" font-size="12" x="12" y="36">&gt; No.26 08h00m 10h40m +0.0°+22.5°</text></a><a target="_self" xlink:href="hip002.svg"><text fill="black" font-family="monospace" font-size="12" x="12" y="24">No.2 00h 24h +0.0°+90.0°</text></a><polyline fill="none" points="723.2896,70.178 722.8673,70.1844 712.3098,70.342 701.7529,70.4944 691.1966,70.6414 680.6409,70.7833 670.0858,70.9199 659.5312,71.0512 648.9771,71.1773 638.4235,71.2982 627.8705,71.4138 617.3178,71.5242 606.7656,71.6294 596.2138,71.7293 585.6625,71.824 575.1115,71.9134 564.5608,71.9976 554.0105,72.0766 543.4604,72.1503 532.9107,72.2188 522.3613,72.2821 511.812,72.3401 501.263,72.393 490.7143,72.4405 480.1657,72.4829 469.6172,72.52 459.0689,72.5519 448.5207,72.5786 437.9726,72.6 427.4246,72.6162 416.8767,72.6272 406.3287,72.633 395.7808,72.6335 385.2329,72.6288 374.685,72.6188 364.137,72.6037 353.5889,72.5833 343.0407,72.5577 332.4925,72.5268 321.944,72.4907 311.3955,72.4494 300.8467,72.4029 290.2978,72.3511 279.7486,72.2941 269.1992,72.2319 258.6495,72.1644 248.0996,72.0917 237.5493,72.0138 226.9987,71.9307 216.4478,71.8423 205.8965,71.7486 195.3448,71.6498 184.7927,71.5457 174.2401,71.4363 163.6871,71.3217 153.1336,71.2019 142.5797,71.0769 132.0252,70.9466 121.4701,70.811 110.9146,70.6702 100.3584,70.5242 89.8016,70.3729 79.2442,70.2164 76.7104,70.178" stroke="black" stroke-opacity="0.5" stroke-width="1" /><polyline fill="none" points="731.84,725.5578 731.7205,714.6269 731.6002,703.6969 731.4791,692.7675 731.3573,681.8389 731.2346,670.911 731.1112,659.9837 730.987,649.0571 730.8621,638.1311 730.7364,627.2057 730.6099,616.2808 730.4826,605.3565 730.3545,594.4326 730.2257,583.5093 730.0961,572.5864 729.9657,561.6639 729.8345,550.7419 729.7026,539.8202 729.5699,528.8989 729.4364,517.9779 729.3021,507.0572 729.1671,496.1368 729.0312,485.2166 728.8946,474.2966 728.7573,463.3769 728.6191,452.4573 728.4801,441.5379 728.3404,430.6185 728.1999,419.6993 728.0586,408.7801 727.9166,397.861 727.7737,386.9419 727.6301,376.0228 727.4857,365.1036 727.3405,354.1844 727.1945,343.2651 727.0478,332.3457 726.9002,321.4262 726.7519,310.5064 726.6028,299.5865 726.4529,288.6664 726.3022,277.746 726.1508,266.8254 725.9985,255.9044 725.8455,244.9831 725.6917,234.0615 725.5371,223.1396 725.3817,212.2172 725.2255,201.2944 725.0685,190.3711 724.9107,179.4474 724.7522,168.5231 724.5929,157.5984 724.4327,146.673 724.2718,135.7471 724.1101,124.8206 723.9476,113.8935 723.7843,102.9657 723.6202,92.0372 723.4553,81.108 723.2896,70.178" stroke="black" stroke-opacity="0.5" stroke-width="1" /><polyline fill="none" points="731.84,725.5578 731.4065,725.5625 720.5692,725.6785 709.7326,725.7907 698.8966,725.899 688.0613,726.0034 677.2267,726.104 666.3926,726.2007 655.5592,726.2936 644.7262,726.3826 633.8939,726.4677 623.062,726.549 612.2307,726.6264 601.3997,726.7 590.5693,726.7697 579.7392,726.8356 568.9096,726.8976 558.0803,726.9557 547.2514,727.01 536.4228,727.0605 525.5945,727.1071 514.7664,727.1498 503.9386,727.1887 493.1111,727.2237 482.2837,727.2549 471.4565,727.2823 460.6295,727.3057 449.8026,727.3254 438.9759,727.3412 428.1492,727.3531 417.3225,727.3612 406.4959,727.3654 395.6694,727.3658 384.8428,727.3623 374.0162,727.355 363.1895,727.3439 352.3627,727.3288 341.5359,727.31 330.7089,727.2873 319.8817,727.2607 309.0544,727.2303 298.2269,727.196 287.3992,727.1579 276.5712,727.1159 265.7429,727.0701 254.9144,727.0204 244.0855,726.9669 233.2563,726.9095 222.4267,726.8483 211.5968,726.7832 200.7664,726.7143 189.9356,726.6415 179.1043,726.5648 168.2725,726.4843 157.4403,726.3999 146.6075,726.3117 135.7741,726.2196 124.9402,726.1237 114.1057,726.0239 103.2705,725.9202 92.4347,725.8127 81.5982,725.7013 70.761,725.586 68.16,725.5578" stroke="black" stroke-opacity="0.5" stroke-width="1" /><polyline fill="none" points="68.16,725.5578 68.2795,714.6269 68.3998,703.6969 68.5209,692.7675 68.6427,681.8389 68.7654,670.911 68.8888,659.9837 69.013,649.0571 69.1379,638.1311 69.2636,627.2057 69.3901,616.2808 69.5174,605.3565 69.6455,594.4326 69.7743,583.5093 69.9039,572.5864 70.0343,561.6639 70.1655,550.7419 70.2974,539.8202 70.4301,528.8989 70.5636,517.9779 70.6979,507.0572 70.8329,496.1368 70.9688,485.2166 71.1054,474.2966 71.2427,463.3769 71.3809,452.4573 71.5199,441.5379 71.6596,430.6185 71.8001,419.6993 71.9414,408.7801 72.0834,397.861 72.2263,386.9419 72.3699,376.0228 72.5143,365.1036 72.6595,354.1844 72.8055,343.2651 72.9522,332.3457 73.0998,321.4262 73.2481,310.5064 73.3972,299.5865 73.5471,288.6664 73.6978,277.746 73.8492,266.8254 74.0015,255.9044 74.1545,244.9831 74.3083,234.0615 74.4629,223.1396 74.6183,212.2172 74.7745,201.2944 74.9315,190.3711 75.0893,179.4474 75.2478,168.5231 75.4071,157.5984 75.5673,146.673 75.7282,135.7471 75.8899,124.8206 76.0524,113.8935 76.2157,102.9657 76.3798,92.0372 76.5447,81.108 76.7104,70.178" stroke="black" stroke-opacity="0.5" stroke-width="1" /></svg>