<?xml version="1.0" encoding="utf-8" ?>
<svg baseProfile="tiny" height="800" version="1.2" width="800" xmlns="http://www.w3.org/2000/svg" xmlns:ev="http://www.w3.org/2001/xml-events" xmlns:xlink="http://www.w3.org/1999/xlink"><defs /><rect fill="none" height="800" stroke="black" stroke-width="2" width="800" x="0" y="0" /><polyline fill="none" points="637.3602,726.4409 637.2747,715.5156 637.1887,704.591 637.1022,693.6671 637.0151,682.7439 636.9274,671.8215 636.8392,660.8997 636.7504,649.9785 636.6611,639.0579 636.5712,628.1379 636.4807,617.2185 636.3897,606.2995 636.2982,595.3811 636.2061,584.4632 636.1134,573.5457 636.0202,562.6286 635.9265,551.7119 635.8321,540.7956 635.7372,529.8797 635.6418,518.964 635.5458,508.0487 635.4493,497.1336 635.3522,486.2188 635.2545,475.3041 635.1563,464.3897 635.0575,453.4754 634.9582,442.5613 634.8583,431.6473 634.7578,420.7334 634.6568,409.8195 634.5553,398.9056 634.4531,387.9918 634.3505,377.0779 634.2472,366.1641 634.1434,355.2501 634.0391,344.336 633.9341,333.4218 633.8287,322.5075 633.7226,311.593 633.616,300.6783 633.5089,289.7634 633.4011,278.8482 633.2929,267.9327 633.184,257.017 633.0746,246.1009 632.9646,235.1844 632.8541,224.2676 632.743,213.3504 632.6314,202.4327 632.5191,191.5146 632.4064,180.5959 632.293,169.6768 632.1791,158.7572 632.0646,147.8369 631.9496,136.9161 631.834,125.9947 631.7178,115.0726 631.601,104.1499 631.4837,93.2264 631.3658,82.3023 631.2474,71.3774" stroke="silver" stroke-opacity="0.5" stroke-width="1" /><polyline fill="none" points="529.0595,727.0926 529.013,716.1713 528.9663,705.2507 528.9192,694.3309 528.8719,683.4118 528.8242,672.4933 528.7763,661.5755 528.728,650.6584 528.6795,639.7418 528.6306,628.8258 528.5815,617.9104 528.532,606.9954 528.4823,596.081 528.4322,585.1671 528.3819,574.2535 528.3312,563.3404 528.2802,552.4277 528.229,541.5154 528.1774,530.6034 528.1255,519.6917 528.0733,508.7803 528.0209,497.8692 527.9681,486.9583 527.915,476.0476 527.8616,465.1371 527.8079,454.2267 527.754,443.3165 527.6997,432.4064 527.6451,421.4964 527.5902,410.5864 527.535,399.6765 527.4795,388.7665 527.4236,377.8566 527.3675,366.9465 527.3111,356.0364 527.2544,345.1262 527.1974,334.2159 527.14,323.3054 527.0824,312.3948 527.0245,301.4839 526.9662,290.5728 526.9077,279.6615 526.8488,268.7499 526.7897,257.8379 526.7302,246.9256 526.6704,236.013 526.6103,225.1 526.55,214.1865 526.4893,203.2727 526.4283,192.3583 526.367,181.4435 526.3054,170.5281 526.2435,159.6122 526.1812,148.6958 526.1187,137.7787 526.0559,126.861 525.9927,115.9427 525.9293,105.0237 525.8655,94.104 525.8014,83.1836 525.7371,72.2624" stroke="silver" stroke-opacity="0.5" stroke-width="1" /><polyline fill="none" points="420.7871,727.359 420.7796,716.4394 420.772,705.5204 420.7645,694.6023 420.7568,683.6848 420.7492,672.768 420.7415,661.8519 420.7337,650.9363 420.7259,640.0214 420.718,629.1071 420.7101,618.1932 420.7021,607.28 420.6941,596.3672 420.686,585.4548 420.6779,574.5429 420.6698,563.6315 420.6616,552.7204 420.6533,541.8097 420.645,530.8993 420.6366,519.9892 420.6282,509.0794 420.6198,498.1699 420.6113,487.2606 420.6027,476.3515 420.5942,465.4426 420.5855,454.5339 420.5768,443.6253 420.5681,432.7168 420.5593,421.8083 420.5504,410.9 420.5415,399.9916 420.5326,389.0833 420.5236,378.1749 420.5146,367.2664 420.5055,356.3579 420.4964,345.4493 420.4872,334.5406 420.4779,323.6317 420.4687,312.7226 420.4593,301.8133 420.45,290.9038 420.4405,279.994 420.431,269.0839 420.4215,258.1736 420.4119,247.2628 420.4023,236.3518 420.3926,225.4403 420.3829,214.5284 420.3731,203.6161 420.3633,192.7033 420.3535,181.79 420.3435,170.8762 420.3336,159.9618 420.3235,149.0469 420.3135,138.1314 420.3034,127.2152 420.2932,116.2985 420.283,105.381 420.2727,94.4628 420.2624,83.5439 420.252,72.6243" stroke="silver" stroke-opacity="0.5" stroke-width="1" /><polyline fill="none" points="312.5192,727.2404 312.5507,716.32 312.5823,705.4004 312.6142,694.4815 312.6463,683.5633 312.6786,672.6458 312.7111,661.7289 312.7438,650.8126 312.7767,639.897 312.8098,628.9819 312.8432,618.0673 312.8767,607.1533 312.9104,596.2398 312.9443,585.3268 312.9785,574.4141 313.0128,563.5019 313.0473,552.5901 313.0821,541.6787 313.117,530.7676 313.1522,519.8568 313.1876,508.9463 313.2231,498.0361 313.2589,487.1261 313.2949,476.2163 313.3311,465.3067 313.3674,454.3972 313.404,443.4879 313.4408,432.5786 313.4778,421.6695 313.515,410.7604 313.5525,399.8513 313.5901,388.9423 313.6279,378.0332 313.6659,367.1241 313.7042,356.2148 313.7426,345.3055 313.7813,334.3961 313.8201,323.4865 313.8592,312.5767 313.8985,301.6667 313.9379,290.7565 313.9776,279.846 314.0175,268.9352 314.0576,258.0242 314.0979,247.1128 314.1384,236.201 314.1791,225.2888 314.2201,214.3763 314.2612,203.4632 314.3025,192.5498 314.3441,181.6358 314.3858,170.7213 314.4278,159.8062 314.47,148.8906 314.5124,137.9744 314.555,127.0576 314.5978,116.1401 314.6408,105.222 314.684,94.3031 314.7274,83.3836 314.771,72.4632" stroke="silver" stroke-opacity="0.5" stroke-width="1" /><polyline fill="none" points="204.2321,726.7367 204.3026,715.8132 204.3735,704.8905 204.4449,693.9684 204.5167,683.0471 204.589,672.1265 204.6618,661.2065 204.735,650.2871 204.8087,639.3684 204.8828,628.4502 204.9574,617.5326 205.0324,606.6155 205.1079,595.6989 205.1838,584.7827 205.2602,573.867 205.3371,562.9518 205.4144,552.0369 205.4922,541.1224 205.5705,530.2082 205.6492,519.2944 205.7283,508.3808 205.8079,497.4675 205.888,486.5545 205.9685,475.6416 206.0495,464.729 206.131,453.8165 206.2129,442.9042 206.2953,431.9919 206.3781,421.0797 206.4614,410.1676 206.5451,399.2556 206.6294,388.3435 206.714,377.4314 206.7992,366.5193 206.8848,355.6071 206.9708,344.6948 207.0573,333.7823 207.1443,322.8697 207.2318,311.957 207.3197,301.044 207.408,290.1308 207.4969,279.2174 207.5862,268.3037 207.6759,257.3896 207.7661,246.4753 207.8568,235.5606 207.948,224.6455 208.0396,213.7299 208.1317,202.814 208.2242,191.8976 208.3172,180.9807 208.4107,170.0633 208.5046,159.1453 208.599,148.2268 208.6939,137.3077 208.7892,126.388 208.885,115.4676 208.9813,104.5466 209.078,93.6248 209.1752,82.7024 209.2729,71.7792" stroke="silver" stroke-opacity="0.5" stroke-width="1" /><polyline fill="none" points="95.9022,725.8475 96.0117,714.9185 96.122,703.9902 96.2329,693.0626 96.3445,682.1358 96.4569,671.2097 96.57,660.2842 96.6837,649.3594 96.7982,638.4351 96.9134,627.5115 97.0293,616.5884 97.1459,605.6658 97.2633,594.7438 97.3813,583.8222 97.5001,572.9011 97.6195,561.9804 97.7397,551.0601 97.8606,540.1402 97.9822,529.2206 98.1045,518.3014 98.2275,507.3825 98.3513,496.4638 98.4757,485.5454 98.6009,474.6272 98.7268,463.7092 98.8534,452.7913 98.9807,441.8736 99.1087,430.956 99.2374,420.0385 99.3669,409.1211 99.497,398.2037 99.6279,387.2863 99.7595,376.369 99.8918,365.4515 100.0249,354.534 100.1586,343.6164 100.2931,332.6987 100.4283,321.7809 100.5642,310.8629 100.7008,299.9447 100.8381,289.0263 100.9762,278.1076 101.1149,267.1886 101.2544,256.2694 101.3947,245.3498 101.5356,234.4299 101.6773,223.5096 101.8196,212.5889 101.9627,201.6678 102.1066,190.7462 102.2511,179.8242 102.3964,168.9016 102.5424,157.9785 102.6891,147.0549 102.8365,136.1306 102.9847,125.2058 103.1336,114.2803 103.2832,103.3542 103.4336,92.4273 103.5846,81.4998 103.7364,70.5715" stroke="silver" stroke-opacity="0.5" stroke-width="1" /><polyline fill="none" points="731.3573,681.8389 723.5657,681.925 712.7446,682.0413 701.9242,682.1535 691.1045,682.2618 680.2855,682.3662 669.467,682.4665 658.6491,682.563 647.8318,682.6554 637.0151,682.7439 626.1988,682.8285 615.383,682.9091 604.5678,682.9858 593.7529,683.0585 582.9385,683.1272 572.1245,683.192 561.3108,683.2529 550.4975,683.3098 539.6846,683.3628 528.8719,683.4118 518.0595,683.4568 507.2474,683.4979 496.4355,683.5351 485.6238,683.5683 474.8123,683.5976 464.001,683.6229 453.1898,683.6443 442.3787,683.6618 431.5678,683.6753 420.7568,683.6848 409.946,683.6904 399.1351,683.6921 388.3243,683.6898 377.5134,683.6835 366.7025,683.6734 355.8915,683.6592 345.0804,683.6412 334.2692,683.6192 323.4578,683.5932 312.6463,683.5633 301.8346,683.5294 291.0227,683.4916 280.2105,683.4499 269.3981,683.4042 258.5854,683.3546 247.7724,683.301 236.959,683.2434 226.1453,683.1819 215.3312,683.1165 204.5167,683.0471 193.7018,682.9738 182.8865,682.8965 172.0706,682.8152 161.2543,682.7301 150.4374,682.6409 139.62,682.5478 128.8021,682.4507 117.9835,682.3497 107.1644,682.2448 96.3445,682.1358 85.5241,682.0229 74.7029,681.9061 68.6427,681.8389" stroke="silver" stroke-opacity="0.5" stroke-width="1" /><polyline fill="none" points="730.3545,594.4326 722.5866,594.5229 711.7983,594.6447 701.0108,594.7623 690.2238,594.8758 679.4376,594.9852 668.6519,595.0904 657.8668,595.1914 647.0822,595.2884 636.2982,595.3811 625.5147,595.4697 614.7317,595.5542 603.9491,595.6346 593.167,595.7108 582.3853,595.7828 571.604,595.8507 560.8231,595.9145 550.0425,595.9742 539.2622,596.0297 528.4823,596.081 517.7026,596.1282 506.9232,596.1713 496.144,596.2103 485.365,596.2451 474.5862,596.2758 463.8075,596.3023 453.029,596.3247 442.2506,596.343 431.4723,596.3572 420.6941,596.3672 409.9159,596.373 399.1377,596.3748 388.3596,596.3724 377.5814,596.3658 366.8031,596.3552 356.0248,596.3404 345.2464,596.3214 334.4679,596.2984 323.6892,596.2711 312.9104,596.2398 302.1314,596.2043 291.3521,596.1647 280.5727,596.121 269.793,596.0731 259.0129,596.0211 248.2326,595.9649 237.452,595.9046 226.671,595.8401 215.8896,595.7716 205.1079,595.6989 194.3257,595.622 183.5431,595.541 172.76,595.4558 161.9764,595.3666 151.1923,595.2731 140.4077,595.1756 129.6225,595.0738 118.8367,594.968 108.0503,594.858 97.2633,594.7438 86.4756,594.6255 75.6873,594.503 69.6455,594.4326" stroke="silver" stroke-opacity="0.5" stroke-width="1" /><polyline fill="none" points="729.3021,507.0572 721.559,507.1515 710.8052,507.2789 700.052,507.4018 689.2995,507.5205 678.5476,507.6348 667.7963,507.7448 657.0456,507.8504 646.2955,507.9517 635.5458,508.0487 624.7967,508.1413 614.048,508.2296 603.2998,508.3136 592.5521,508.3933 581.8047,508.4686 571.0578,508.5396 560.3112,508.6063 549.5649,508.6686 538.819,508.7266 528.0733,508.7803 517.328,508.8297 506.5829,508.8747 495.838,508.9155 485.0933,508.9518 474.3488,508.9839 463.6045,509.0117 452.8603,509.0351 442.1162,509.0542 431.3722,509.069 420.6282,509.0794 409.8844,509.0856 399.1405,509.0874 388.3966,509.0849 377.6527,509.0781 366.9088,509.0669 356.1648,509.0514 345.4207,509.0316 334.6764,509.0075 323.9321,508.9791 313.1876,508.9463 302.4428,508.9092 291.6979,508.8678 280.9528,508.8221 270.2074,508.772 259.4617,508.7176 248.7157,508.6589 237.9694,508.5959 227.2227,508.5285 216.4757,508.4568 205.7283,508.3808 194.9805,508.3005 184.2322,508.2158 173.4835,508.1268 162.7343,508.0335 151.9845,507.9358 141.2343,507.8338 130.4835,507.7275 119.7321,507.6168 108.9801,507.5018 98.2275,507.3825 87.4743,507.2588 76.7204,507.1308 70.6979,507.0572" stroke="silver" stroke-opacity="0.5" stroke-width="1" /><polyline fill="none" points="728.1999,419.6993 720.4827,419.7977 709.765,419.9305 699.0479,420.0588 688.3314,420.1825 677.6156,420.3017 666.9003,420.4164 656.1856,420.5266 645.4715,420.6322 634.7578,420.7334 624.0447,420.83 613.332,420.9221 602.6198,421.0097 591.908,421.0927 581.1967,421.1713 570.4857,421.2453 559.775,421.3149 549.0647,421.3799 538.3548,421.4404 527.6451,421.4964 516.9356,421.5479 506.2265,421.5948 495.5175,421.6373 484.8088,421.6753 474.1002,421.7087 463.3918,421.7377 452.6835,421.7621 441.9754,421.782 431.2673,421.7974 420.5593,421.8083 409.8513,421.8147 399.1434,421.8166 388.4354,421.814 377.7274,421.8069 367.0194,421.7953 356.3113,421.7791 345.6032,421.7585 334.8949,421.7333 324.1864,421.7037 313.4778,421.6695 302.7691,421.6308 292.0601,421.5876 281.3509,421.5399 270.6414,421.4877 259.9317,421.431 249.2216,421.3698 238.5113,421.304 227.8006,421.2338 217.0895,421.159 206.3781,421.0797 195.6662,420.9959 184.954,420.9076 174.2412,420.8148 163.528,420.7175 152.8143,420.6156 142.1001,420.5092 131.3853,420.3983 120.6699,420.2829 109.954,420.163 99.2374,420.0385 88.5202,419.9096 77.8024,419.776 71.8001,419.6993" stroke="silver" stroke-opacity="0.5" stroke-width="1" /><polyline fill="none" points="727.0478,332.3457 719.3577,332.4481 708.6777,332.5863 697.9983,332.7198 687.3195,332.8486 676.6413,332.9726 665.9637,333.092 655.2867,333.2066 644.6101,333.3166 633.9341,333.4218 623.2586,333.5224 612.5836,333.6182 601.909,333.7094 591.2348,333.7958 580.561,333.8776 569.8876,333.9547 559.2146,334.027 548.5419,334.0947 537.8695,334.1576 527.1974,334.2159 516.5255,334.2695 505.8539,334.3184 495.1825,334.3626 484.5114,334.4021 473.8403,334.4369 463.1695,334.467 452.4988,334.4924 441.8282,334.5132 431.1576,334.5292 420.4872,334.5406 409.8168,334.5472 399.1464,334.5492 388.476,334.5465 377.8056,334.5391 367.1351,334.527 356.4645,334.5102 345.7939,334.4887 335.1232,334.4625 324.4523,334.4316 313.7813,334.3961 303.1101,334.3558 292.4386,334.3109 281.767,334.2612 271.0951,334.2069 260.423,334.1479 249.7505,334.0842 239.0777,334.0157 228.4046,333.9426 217.7312,333.8648 207.0573,333.7823 196.3831,333.6951 185.7084,333.6032 175.0333,333.5066 164.3577,333.4053 153.6816,333.2993 143.005,333.1886 132.3279,333.0732 121.6502,332.9531 110.972,332.8283 100.2931,332.6987 89.6136,332.5645 78.9334,332.4256 72.9522,332.3457" stroke="silver" stroke-opacity="0.5" stroke-width="1" /><polyline fill="none" points="725.8455,244.9831 718.1838,245.0895 707.543,245.233 696.903,245.3717 686.2635,245.5054 675.6246,245.6343 664.9863,245.7583 654.3486,245.8773 643.7113,245.9915 633.0746,246.1009 622.4384,246.2053 611.8026,246.3049 601.1672,246.3995 590.5323,246.4893 579.8978,246.5742 569.2636,246.6543 558.6298,246.7294 547.9963,246.7997 537.3631,246.8651 526.7302,246.9256 516.0976,246.9813 505.4652,247.0321 494.833,247.078 484.201,247.119 473.5692,247.1552 462.9375,247.1864 452.306,247.2128 441.6746,247.2344 431.0432,247.251 420.4119,247.2628 409.7807,247.2698 399.1495,247.2718 388.5183,247.269 377.8871,247.2613 367.2558,247.2487 356.6244,247.2313 345.993,247.2089 335.3614,247.1818 324.7298,247.1497 314.0979,247.1128 303.4659,247.071 292.8337,247.0243 282.2012,246.9727 271.5686,246.9163 260.9356,246.855 250.3024,246.7888 239.6688,246.7177 229.035,246.6418 218.4007,246.561 207.7661,246.4753 197.1311,246.3847 186.4957,246.2893 175.8599,246.1889 165.2235,246.0837 154.5867,245.9736 143.9494,245.8586 133.3116,245.7388 122.6732,245.614 112.0342,245.4844 101.3947,245.3498 90.7545,245.2104 80.1137,245.0661 74.1545,244.9831" stroke="silver" stroke-opacity="0.5" stroke-width="1" /><polyline fill="none" points="724.5929,157.5984 716.9607,157.7086 706.3609,157.8574 695.7618,158.0012 685.1633,158.1398 674.5654,158.2734 663.968,158.402 653.3712,158.5254 642.7749,158.6438 632.1791,158.7572 621.5838,158.8654 610.9889,158.9686 600.3944,159.0668 589.8004,159.1599 579.2067,159.2479 568.6134,159.3309 558.0205,159.4088 547.4278,159.4817 536.8355,159.5495 526.2435,159.6122 515.6517,159.6699 505.0601,159.7226 494.4688,159.7702 483.8776,159.8127 473.2866,159.8502 462.6958,159.8826 452.1051,159.91 441.5145,159.9323 430.924,159.9496 420.3336,159.9618 409.7432,159.969 399.1528,159.9711 388.5624,159.9682 377.972,159.9602 367.3815,159.9472 356.791,159.9291 346.2004,159.906 335.6097,159.8778 325.0188,159.8445 314.4278,159.8062 303.8366,159.7629 293.2453,159.7145 282.6537,159.661 272.0618,159.6025 261.4697,159.539 250.8774,159.4704 240.2847,159.3967 229.6917,159.318 219.0983,159.2342 208.5046,159.1453 197.9105,159.0514 187.316,158.9525 176.721,158.8484 166.1256,158.7394 155.5297,158.6252 144.9333,158.506 134.3364,158.3817 123.739,158.2524 113.141,158.118 102.5424,157.9785 91.9432,157.834 81.3433,157.6843 75.4071,157.5984" stroke="silver" stroke-opacity="0.5" stroke-width="1" /><polyline fill="none" points="723.2896,70.178 715.6881,70.2922 705.1311,70.4462 694.5746,70.5949 684.0187,70.7385 673.4634,70.8767 662.9086,71.0098 652.3544,71.1375 641.8006,71.2601 631.2474,71.3774 620.6946,71.4895 610.1423,71.5963 599.5904,71.6979 589.0389,71.7942 578.4877,71.8853 567.937,71.9712 557.3865,72.0519 546.8364,72.1273 536.2866,72.1975 525.7371,72.2624 515.1878,72.3221 504.6387,72.3766 494.0899,72.4259 483.5412,72.4699 472.9927,72.5087 462.4444,72.5423 451.8961,72.5706 441.348,72.5937 430.8,72.6116 420.252,72.6243 409.7041,72.6317 399.1562,72.6339 388.6083,72.6308 378.0603,72.6226 367.5123,72.6091 356.9643,72.5904 346.4162,72.5664 335.8679,72.5373 325.3196,72.5029 314.771,72.4632 304.2223,72.4184 293.6735,72.3683 283.1244,72.3129 272.575,72.2524 262.0254,72.1866 251.4756,72.1156 240.9254,72.0393 230.3749,71.9578 219.8241,71.8711 209.2729,71.7792 198.7213,71.682 188.1694,71.5795 177.617,71.4719 167.0641,71.359 156.5108,71.2408 145.957,71.1175 135.4027,70.9888 124.8478,70.855 114.2924,70.7159 103.7364,70.5715 93.1799,70.4219 82.6227,70.267 76.7104,70.178" stroke="silver" stroke-opacity="0.5" stroke-width="1" /><circle cx="728.0973" cy="514.0622" fill="black" r="0.738" stroke="none" /><circle cx="723.4198" cy="187.9474" fill="black" r="0.738" stroke="none" /><circle cx="720.8987" cy="567.888" fill="black" r="0.738" stroke="none" /><circle cx="709.1068" cy="373.4648" fill="black" r="0.738" stroke="none" /><circle cx="708.9676" cy="580.6068" fill="black" r="0.738" stroke="none" /><circle cx="703.5553" cy="252.7998" fill="black" r="0.738" stroke="none" /><circle cx="687.9716" cy="198.5647" fill="black" r="0.738" stroke="none" /><circle cx="688.4041" cy="464.9903" fill="black" r="0.738" stroke="none" /><circle cx="679.26" cy="352.7695" fill="black" r="0.738" stroke="none" /><circle cx="682.2142" cy="657.8748" fill="black" r="0.738" stroke="none" /><circle cx="677.5913" cy="718.5819" fill="black" r="0.738" stroke="none" /><circle cx="668.2045" cy="172.2452" fill="black" r="0.738" stroke="none" /><circle cx="669.2135" cy="581.7182" fill="black" r="0.738" stroke="none" /><circle cx="668.4262" cy="527.7406" fill="black" r="0.738" stroke="none" /><circle cx="663.0642" cy="226.4745" fill="black" r="0.738" stroke="none" /><circle cx="659.209" cy="414.3828" fill="black" r="0.738" stroke="none" /><circle cx="652.9263" cy="481.7768" fill="black" r="0.738" stroke="none" /><circle cx="648.4524" cy="113.4894" fill="black" r="0.738" stroke="none" /><circle cx="641.3309" cy="408.8834" fill="black" r="0.738" stroke="none" /><circle cx="634.3611" cy="213.6832" fill="black" r="0.936" stroke="none" /><circle cx="634.4361" cy="706.9723" fill="black" r="0.738" stroke="none" /><circle cx="628.1381" cy="334.6995" fill="black" r="0.738" stroke="none" /><circle cx="623.8994" cy="347.4872" fill="black" r="0.738" stroke="none" /><circle cx="624.1741" cy="495.4848" fill="black" r="0.738" stroke="none" /><circle cx="613.7876" cy="159.1166" fill="black" r="0.738" stroke="none" /><circle cx="614.6776" cy="281.471" fill="black" r="0.738" stroke="none" /><circle cx="613.5072" cy="228.2113" fill="black" r="0.936" stroke="none" /><circle cx="616.5818" cy="717.0692" fill="black" r="0.738" stroke="none" /><circle cx="606.0998" cy="606.6239" fill="black" r="0.738" stroke="none" /><circle cx="599.8544" cy="222.5702" fill="black" r="0.738" stroke="none" /><circle cx="585.2859" cy="382.9922" fill="black" r="0.738" stroke="none" /><circle cx="579.1752" cy="539.7433" fill="black" r="0.738" stroke="none" /><circle cx="568.5724" cy="523.4845" fill="black" r="0.738" stroke="none" /><circle cx="563.0911" cy="630.3971" fill="black" r="0.738" stroke="none" /><circle cx="557.7273" cy="328.5372" fill="black" r="0.738" stroke="none" /><circle cx="553.5617" cy="531.0823" fill="black" r="0.738" stroke="none" /><circle cx="551.487" cy="690.7303" fill="black" r="0.738" stroke="none" /><circle cx="535.4083" cy="161.7416" fill="black" r="0.738" stroke="none" /><circle cx="534.2508" cy="375.0275" fill="black" r="0.738" stroke="none" /><circle cx="534.143" cy="451.6634" fill="black" r="0.738" stroke="none" /><circle cx="531.0545" cy="142.1169" fill="black" r="0.738" stroke="none" /><circle cx="527.102" cy="485.4786" fill="black" r="0.738" stroke="none" /><circle cx="524.105" cy="701.9515" fill="black" r="0.738" stroke="none" /><circle cx="509.3794" cy="562.8984" fill="black" r="0.738" stroke="none" /><circle cx="502.5834" cy="565.1943" fill="black" r="0.936" stroke="none" /><circle cx="499.3416" cy="76.5957" fill="black" r="0.738" stroke="none" /><circle cx="494.2521" cy="250.6594" fill="black" r="0.738" stroke="none" /><circle cx="481.4542" cy="339.2127" fill="black" r="0.738" stroke="none" /><circle cx="480.7466" cy="437.485" fill="black" r="0.738" stroke="none" /><circle cx="476.3386" cy="160.3638" fill="black" r="0.738" stroke="none" /><circle cx="471.246" cy="412.0297" fill="black" r="0.738" stroke="none" /><circle cx="467.2378" cy="263.672" fill="black" r="0.738" stroke="none" /><circle cx="467.8337" cy="621.1759" fill="black" r="0.738" stroke="none" /><circle cx="463.2864" cy="594.6447" fill="black" r="0.738" stroke="none" /><circle cx="450.2687" cy="502.1451" fill="black" r="0.738" stroke="none" /><circle cx="436.9537" cy="220.4438" fill="black" r="0.738" stroke="none" /><circle cx="435.3104" cy="703.6726" fill="black" r="0.738" stroke="none" /><circle cx="433.4756" cy="282.9466" fill="black" r="0.738" stroke="none" /><circle cx="412.944" cy="128.2688" fill="black" r="0.738" stroke="none" /><circle cx="406.2299" cy="697.2291" fill="black" r="0.738" stroke="none" /><circle cx="405.6566" cy="434.6443" fill="black" r="0.738" stroke="none" /><circle cx="397.6108" cy="325.2111" fill="black" r="0.738" stroke="none" /><circle cx="388.6949" cy="234.0012" fill="black" r="0.738" stroke="none" /><circle cx="387.1387" cy="131.5001" fill="black" r="0.738" stroke="none" /><circle cx="385.5972" cy="159.7045" fill="black" r="0.738" stroke="none" /><circle cx="379.7806" cy="656.7873" fill="black" r="0.738" stroke="none" /><circle cx="377.2912" cy="336.8076" fill="black" r="1.17" stroke="none" /><circle cx="367.1647" cy="510.6382" fill="black" r="0.738" stroke="none" /><circle cx="367.264" cy="365.7697" fill="black" r="0.738" stroke="none" /><circle cx="363.2417" cy="257.8044" fill="black" r="0.738" stroke="none" /><circle cx="362.3898" cy="258.414" fill="black" r="0.738" stroke="none" /><circle cx="352.1778" cy="576.9537" fill="black" r="0.738" stroke="none" /><circle cx="350.0186" cy="486.5231" fill="black" r="0.738" stroke="none" /><circle cx="341.0306" cy="719.8833" fill="black" r="1.476" stroke="none" /><circle cx="338.943" cy="522.7208" fill="black" r="0.738" stroke="none" /><circle cx="336.4385" cy="257.6595" fill="black" r="0.738" stroke="none" /><circle cx="334.2132" cy="89.2179" fill="black" r="0.738" stroke="none" /><circle cx="325.8309" cy="415.9486" fill="black" r="0.738" stroke="none" /><circle cx="321.7176" cy="687.5191" fill="black" r="0.738" stroke="none" /><circle cx="311.0032" cy="712.559" fill="black" r="0.738" stroke="none" /><circle cx="309.4577" cy="349.2175" fill="black" r="0.738" stroke="none" /><circle cx="301.3733" cy="473.032" fill="black" r="0.738" stroke="none" /><circle cx="294.9187" cy="477.1092" fill="black" r="0.738" stroke="none" /><circle cx="292.5942" cy="679.4794" fill="black" r="0.738" stroke="none" /><circle cx="290.7859" cy="654.1443" fill="black" r="0.738" stroke="none" /><circle cx="290.6543" cy="576.1685" fill="black" r="0.738" stroke="none" /><circle cx="288.538" cy="152.181" fill="black" r="0.738" stroke="none" /><circle cx="285.5608" cy="138.2794" fill="black" r="0.738" stroke="none" /><circle cx="280.4038" cy="265.7326" fill="black" r="0.936" stroke="none" /><circle cx="279.2556" cy="341.4061" fill="black" r="0.738" stroke="none" /><circle cx="267.7205" cy="456.2991" fill="black" r="0.738" stroke="none" /><circle cx="261.7041" cy="190.193" fill="black" r="0.738" stroke="none" /><circle cx="257.8314" cy="625.2686" fill="black" r="0.738" stroke="none" /><circle cx="253.4405" cy="709.3637" fill="black" r="0.738" stroke="none" /><circle cx="253.264" cy="525.8821" fill="black" r="0.738" stroke="none" /><circle cx="243.6001" cy="516.05" fill="black" r="0.738" stroke="none" /><circle cx="231.2995" cy="410.5201" fill="black" r="0.738" stroke="none" /><circle cx="210.711" cy="558.2738" fill="black" r="0.738" stroke="none" /><circle cx="207.3153" cy="259.8316" fill="black" r="0.738" stroke="none" /><circle cx="205.4518" cy="198.4243" fill="black" r="0.738" stroke="none" /><circle cx="184.0544" cy="163.1143" fill="black" r="0.936" stroke="none" /><circle cx="174.0185" cy="654.6075" fill="black" r="0.738" stroke="none" /><circle cx="171.8882" cy="575.4468" fill="black" r="0.738" stroke="none" /><circle cx="172.9348" cy="91.0012" fill="black" r="0.738" stroke="none" /><circle cx="168.708" cy="493.5899" fill="black" r="0.738" stroke="none" /><circle cx="162.6733" cy="722.1581" fill="black" r="0.738" stroke="none" /><circle cx="159.7088" cy="380.8633" fill="black" r="0.738" stroke="none" /><circle cx="157.0509" cy="295.7818" fill="black" r="0.738" stroke="none" /><circle cx="152.0303" cy="549.8587" fill="black" r="0.738" stroke="none" /><circle cx="146.5281" cy="664.2556" fill="black" r="0.738" stroke="none" /><circle cx="145.6032" cy="329.81" fill="black" r="0.738" stroke="none" /><circle cx="146.5821" cy="185.0865" fill="black" r="0.936" stroke="none" /><circle cx="139.8448" cy="716.4638" fill="black" r="0.738" stroke="none" /><circle cx="133.218" cy="322.0784" fill="black" r="0.738" stroke="none" /><circle cx="118.1845" cy="706.9154" fill="black" r="0.738" stroke="none" /><circle cx="114.8892" cy="147.4779" fill="black" r="0.738" stroke="none" /><circle cx="106.5093" cy="466.6806" fill="black" r="0.738" stroke="none" /><circle cx="95.5231" cy="338.3176" fill="black" r="0.738" stroke="none" /><circle cx="88.9235" cy="84.2648" fill="black" r="0.738" stroke="none" /><circle cx="82.7336" cy="552.0263" fill="black" r="0.738" stroke="none" /><circle cx="73.469" cy="614.6672" fill="black" r="0.738" stroke="none" /><circle cx="70.4939" cy="678.8868" fill="black" r="0.738" stroke="none" /><circle cx="73.0321" cy="403.9891" fill="black" r="0.738" stroke="none" /><circle cx="13.77" cy="786.23" fill="black" r="4.59" stroke="none" /><circle cx="13.77" cy="786.23" fill="black" r="4.59" stroke="none" /><text fill="black" font-family="monospace" font-size="12" x="10.77" y="775.64">1</text><circle cx="37.77" cy="786.23" fill="black" r="3.654" stroke="none" /><circle cx="37.77" cy="786.23" fill="black" r="3.654" stroke="none" /><text fill="black" font-family="monospace" font-size="12" x="34.769999999999996" y="775.64">2</text><circle cx="61.77" cy="786.23" fill="black" r="2.916" stroke="none" /><circle cx="61.77" cy="786.23" fill="black" r="2.916" stroke="none" /><text fill="black" font-family="monospace" font-size="12" x="58.769999999999996" y="775.64">3</text><circle cx="85.77" cy="786.23" fill="black" r="2.322" stroke="none" /><circle cx="85.77" cy="786.23" fill="black" r="2.322" stroke="none" /><text fill="black" font-family="monospace" font-size="12" x="82.77" y="775.64">4</text><circle cx="109.77" cy="786.23" fill="black" r="1.854" stroke="none" /><circle cx="109.77" cy="786.23" fill="black" r="1.854" stroke="none" /><text fill="black" font-family="monospace" font-size="12" x="106.77" y="775.64">5</text><circle cx="133.77" cy="786.23" fill="black" r="1.476" stroke="none" /><circle cx="133.77" cy="786.23" fill="black" r="1.476" stroke="none" /><text fill="black" font-family="monospace" font-size="12" x="130.77" y="775.64">6</text><circle cx="157.77" cy="786.23" fill="black" r="1.17" stroke="none" /><circle cx="157.77" cy="786.23" fill="black" r="1.17" stroke="none" /><text fill="black" font-family="monospace" font-size="12" x="154.77" y="775.64">7</text><circle cx="181.77" cy="786.23" fill="black" r="0.936" stroke="none" /><circle cx="181.77" cy="786.23" fill="black" r="0.936" stroke="none" /><text fill="black" font-family="monospace" font-size="12" x="178.77" y="775.64">8</text><circle cx="205.77" cy="786.23" fill="black" r="0.738" stroke="none" /><circle cx="205.77" cy="786.23" fill="black" r="0.738" stroke="none" /><text fill="black" font-family="monospace" font-size="12" x="202.77" y="775.64">9</text><text fill="gray" fill-opacity="0.5" font-family="monospace" font-size="12" x="637.3601780283648" y="726.4409157333297">00h35m</text><text fill="gray" fill-opacity="0.5" font-family="monospace" font-size="12" x="529.059479781053" y="727.092583786957">00h40m</text><text fill="gray" fill-opacity="0.5" font-family="monospace" font-size="12" x="420.7870539005912" y="727.3590084534117">00h45m</text><text fill="gray" fill-opacity="0.5" font-family="monospace" font-size="12" x="312.5191810826034" y="727.2404333131735">00h50m</text><text fill="gray" fill-opacity="0.5" font-family="monospace" font-size="12" x="204.23214581968472" y="726.7367499650856">00h55m</text><text fill="gray" fill-opacity="0.5" font-family="monospace" font-size="12" x="95.90221662278981" y="725.8474978188661">01h00m</text><text fill="gray" fill-opacity="0.5" font-family="monospace" font-size="12" x="68.64274660234543" y="681.8389141919388">+8°</text><text fill="gray" fill-opacity="0.5" font-family="monospace" font-size="12" x="69.645469611316" y="594.4326330539807">+9°</text><text fill="gray" fill-opacity="0.5" font-family="monospace" font-size="12" x="70.69787367159574" y="507.0571874107499">+10°</text><text fill="gray" fill-opacity="0.5" font-family="monospace" font-size="12" x="71.80007815861478" y="419.69930120520905">+11°</text><text fill="gray" fill-opacity="0.5" font-family="monospace" font-size="12" x="72.95223276131594" y="332.34570903144146">+12°</text><text fill="gray" fill-opacity="0.5" font-family="monospace" font-size="12" x="74.15451755678828" y="244.9831480886702">+13°</text><text fill="gray" fill-opacity="0.5" font-family="monospace" font-size="12" x="75.40714312416992" y="157.5983501386286">+14°</text><text fill="gray" fill-opacity="0.5" font-family="monospace" font-size="12" x="76.71035069797625" y="70.17803345593836">+15°</text><text fill="black" font-family="monospace" font-size="12" x="12" y="48">&gt;&gt; No.458 00h31m 01h01m +7.5°+15.0°</text><a target="_self" xlink:href="hip023.svg"><text fill="black" font-family="monospace" font-size="12" x="12" y="36">&gt; No.23 00h00m 02h40m +0.0°+22.5°</text></a><a target="_self" xlink:href="hip002.svg"><text fill="black" font-family="monospace" font-size="12" x="12" y="24">No.2 00h 24h +0.0°+90.0°</text></a><polyline fill="none" points="723.2896,70.178 715.6881,70.2922 705.1311,70.4462 694.5746,70.5949 684.0187,70.7385 673.4634,70.8767 662.9086,71.0098 652.3544,71.1375 641.8006,71.2601 631.2474,71.3774 620.6946,71.4895 610.1423,71.5963 599.5904,71.6979 589.0389,71.7942 578.4877,71.8853 567.937,71.9712 557.3865,72.0519 546.8364,72.1273 536.2866,72.1975 525.7371,72.2624 515.1878,72.3221 504.6387,72.3766 494.0899,72.4259 483.5412,72.4699 472.9927,72.5087 462.4444,72.5423 451.8961,72.5706 441.348,72.5937 430.8,72.6116 420.252,72.6243 409.7041,72.6317 399.1562,72.6339 388.6083,72.6308 378.0603,72.6226 367.5123,72.6091 356.9643,72.5904 346.4162,72.5664 335.8679,72.5373 325.3196,72.5029 314.771,72.4632 304.2223,72.4184 293.6735,72.3683 283.1244,72.3129 272.575,72.2524 262.0254,72.1866 251.4756,72.1156 240.9254,72.0393 230.3749,71.9578 219.8241,71.8711 209.2729,71.7792 198.7213,71.682 188.1694,71.5795 177.617,71.4719 167.0641,71.359 156.5108,71.2408 145.957,71.1175 135.4027,70.9888 124.8478,70.855 114.2924,70.7159 103.7364,70.5715 93.1799,70.4219 82.6227,70.267 76.7104,70.178" stroke="black" stroke-opacity="0.5" stroke-width="1" /><polyline fill="none" points="731.84,725.5578 731.7205,714.6269 731.6002,703.6969 731.4791,692.7675 731.3573,681.8389 731.2346,670.911 731.1112,659.9837 730.987,649.0571 730.8621,638.1311 730.7364,627.2057 730.6099,616.2808 730.4826,605.3565 730.3545,594.4326 730.2257,583.5093 730.0961,572.5864 729.9657,561.6639 729.8345,550.7419 729.7026,539.8202 729.5699,528.8989 729.4364,517.9779 729.3021,507.0572 729.1671,496.1368 729.0312,485.2166 728.8946,474.2966 728.7573,463.3769 728.6191,452.4573 728.4801,441.5379 728.3404,430.6185 728.1999,419.6993 728.0586,408.7801 727.9166,397.861 727.7737,386.9419 727.6301,376.0228 727.4857,365.1036 727.3405,354.1844 727.1945,343.2651 727.0478,332.3457 726.9002,321.4262 726.7519,310.5064 726.6028,299.5865 726.4529,288.6664 726.3022,277.746 726.1508,266.8254 725.9985,255.9044 725.8455,244.9831 725.6917,234.0615 725.5371,223.1396 725.3817,212.2172 725.2255,201.2944 725.0685,190.3711 724.9107,179.4474 724.7522,168.5231 724.5929,157.5984 724.4327,146.673 724.2718,135.7471 724.1101,124.8206 723.9476,113.8935 723.7843,102.9657 723.6202,92.0372 723.4553,81.108 723.2896,70.178" stroke="black" stroke-opacity="0.5" stroke-width="1" /><polyline fill="none" points="731.84,725.5578 724.037,725.6418 713.2002,725.7552 702.364,725.8648 691.5285,725.9704 680.6937,726.0723 669.8594,726.1702 659.0258,726.2643 648.1927,726.3545 637.3602,726.4409 626.5282,726.5234 615.6966,726.6021 604.8656,726.6769 594.035,726.7478 583.2048,726.8149 572.375,726.8782 561.5456,726.9376 550.7166,726.9931 539.8879,727.0448 529.0595,727.0926 518.2314,727.1366 507.4035,727.1767 496.5759,727.2129 485.7484,727.2454 474.9212,727.2739 464.0941,727.2986 453.2672,727.3195 442.4404,727.3365 431.6137,727.3497 420.7871,727.359 409.9605,727.3645 399.1339,727.3661 388.3073,727.3639 377.4807,727.3578 366.654,727.3478 355.8273,727.3341 345.0005,727.3164 334.1735,727.2949 323.3464,727.2696 312.5192,727.2404 301.6917,727.2074 290.8641,727.1705 280.0362,727.1298 269.208,727.0852 258.3795,727.0368 247.5508,726.9845 236.7217,726.9283 225.8922,726.8683 215.0624,726.8045 204.2321,726.7367 193.4015,726.6652 182.5704,726.5898 171.7388,726.5105 160.9067,726.4274 150.074,726.3404 139.2409,726.2495 128.4071,726.1548 117.5728,726.0562 106.7378,725.9538 95.9022,725.8475 85.0659,725.7373 74.229,725.6233 68.16,725.5578" stroke="black" stroke-opacity="0.5" stroke-width="1" /><polyline fill="none" points="68.16,725.5578 68.2795,714.6269 68.3998,703.6969 68.5209,692.7675 68.6427,681.8389 68.7654,670.911 68.8888,659.9837 69.013,649.0571 69.1379,638.1311 69.2636,627.2057 69.3901,616.2808 69.5174,605.3565 69.6455,594.4326 69.7743,583.5093 69.9039,572.5864 70.0343,561.6639 70.1655,550.7419 70.2974,539.8202 70.4301,528.8989 70.5636,517.9779 70.6979,507.0572 70.8329,496.1368 70.9688,485.2166 71.1054,474.2966 71.2427,463.3769 71.3809,452.4573 71.5199,441.5379 71.6596,430.6185 71.8001,419.6993 71.9414,408.7801 72.0834,397.861 72.2263,386.9419 72.3699,376.0228 72.5143,365.1036 72.6595,354.1844 72.8055,343.2651 72.9522,332.3457 73.0998,321.4262 73.2481,310.5064 73.3972,299.5865 73.5471,288.6664 73.6978,277.746 73.8492,266.8254 74.0015,255.9044 74.1545,244.9831 74.3083,234.0615 74.4629,223.1396 74.6183,212.2172 74.7745,201.2944 74.9315,190.3711 75.0893,179.4474 75.2478,168.5231 75.4071,157.5984 75.5673,146.673 75.7282,135.7471 75.8899,124.8206 76.0524,113.8935 76.2157,102.9657 76.3798,92.0372 76.5447,81.108 76.7104,70.178" stroke="black" stroke-opacity="0.5" stroke-width="1" /></svg>