<?xml version="1.0" encoding="utf-8" ?>
<svg baseProfile="tiny" height="800" version="1.2" width="800" xmlns="http://www.w3.org/2000/svg" xmlns:ev="http://www.w3.org/2001/xml-events" xmlns:xlink="http://www.w3.org/1999/xlink"><defs /><rect fill="none" height="800" stroke="black" stroke-width="2" width="800" x="0" y="0" /><polyline fill="none" points="727.7166,727.0149 727.6927,716.0836 727.6681,705.1531 727.6428,694.2233 727.6166,683.2942 727.5897,672.3658 727.562,661.4381 727.5335,650.511 727.5042,639.5844 727.4742,628.6585 727.4434,617.7331 727.4118,606.8082 727.3794,595.8838 727.3462,584.9599 727.3123,574.0365 727.2776,563.1134 727.2421,552.1908 727.2059,541.2685 727.1688,530.3466 727.131,519.425 727.0924,508.5036 727.053,497.5826 727.0129,486.6617 726.972,475.7411 726.9303,464.8207 726.8878,453.9004 726.8445,442.9803 726.8005,432.0603 726.7557,421.1403 726.7101,410.2204 726.6637,399.3006 726.6165,388.3807 726.5686,377.4609 726.5199,366.541 726.4704,355.621 726.4202,344.7009 726.3691,333.7807 726.3173,322.8603 726.2647,311.9398 726.2113,301.019 726.1572,290.098 726.1022,279.1768 726.0465,268.2553 725.99,257.3335 725.9327,246.4114 725.8747,235.4889 725.8158,224.566 725.7562,213.6427 725.6958,202.719 725.6346,191.7948 725.5726,180.8701 725.5099,169.9449 725.4464,159.0192 725.382,148.0929 725.317,137.166 725.2511,126.2385 725.1844,115.3103 725.117,104.3815 725.0487,93.452 724.9797,82.5218 724.9099,71.5908" stroke="silver" stroke-opacity="0.5" stroke-width="1" /><polyline fill="none" points="618.4345,727.2101 618.4186,716.2853 618.4023,705.3612 618.3854,694.4379 618.3679,683.5153 618.35,672.5934 618.3315,661.6721 618.3126,650.7515 618.2931,639.8314 618.273,628.9119 618.2525,617.993 618.2315,607.0746 618.2099,596.1567 618.1878,585.2392 618.1652,574.3222 618.1421,563.4056 618.1185,552.4894 618.0943,541.5736 618.0696,530.6581 618.0444,519.7429 618.0187,508.8281 617.9925,497.9134 617.9658,486.999 617.9385,476.0849 617.9107,465.1709 617.8824,454.257 617.8536,443.3433 617.8243,432.4297 617.7944,421.5162 617.764,410.6027 617.7331,399.6893 617.7017,388.7758 617.6698,377.8624 617.6374,366.9489 617.6044,356.0353 617.5709,345.1216 617.5369,334.2078 617.5024,323.2938 617.4674,312.3797 617.4318,301.4653 617.3957,290.5507 617.3591,279.6359 617.322,268.7207 617.2844,257.8053 617.2462,246.8895 617.2075,235.9734 617.1683,225.0569 617.1286,214.14 617.0884,203.2226 617.0476,192.3048 617.0064,181.3864 616.9646,170.4676 616.9222,159.5482 616.8794,148.6283 616.836,137.7077 616.7921,126.7865 616.7477,115.8647 616.7028,104.9422 616.6574,94.019 616.6114,83.0951 616.5649,72.1705" stroke="silver" stroke-opacity="0.5" stroke-width="1" /><polyline fill="none" points="509.2043,727.3271 509.1964,716.4062 509.1882,705.486 509.1797,694.5666 509.171,683.6479 509.1621,672.7298 509.1528,661.8125 509.1434,650.8957 509.1336,639.9795 509.1236,629.0639 509.1133,618.1488 509.1028,607.2343 509.092,596.3203 509.081,585.4067 509.0697,574.4936 509.0582,563.5808 509.0463,552.6685 509.0343,541.7565 509.0219,530.8449 509.0094,519.9336 508.9965,509.0226 508.9834,498.1118 508.97,487.2013 508.9564,476.291 508.9425,465.3808 508.9284,454.4708 508.914,443.561 508.8993,432.6512 508.8844,421.7416 508.8692,410.8319 508.8538,399.9223 508.8381,389.0127 508.8221,378.1031 508.8059,367.1935 508.7894,356.2837 508.7727,345.3739 508.7557,334.4639 508.7385,323.5537 508.721,312.6434 508.7032,301.7329 508.6852,290.8221 508.6669,279.9111 508.6483,268.9998 508.6295,258.0882 508.6104,247.1763 508.5911,236.264 508.5715,225.3513 508.5517,214.4381 508.5316,203.5246 508.5112,192.6106 508.4906,181.6961 508.4697,170.781 508.4485,159.8654 508.4271,148.9493 508.4054,138.0325 508.3835,127.1152 508.3613,116.1972 508.3389,105.2785 508.3161,94.3591 508.2932,83.4389 508.2699,72.5181" stroke="silver" stroke-opacity="0.5" stroke-width="1" /><polyline fill="none" points="400.0,727.3661 400.0,716.4465 400.0,705.5276 400.0,694.6095 400.0,683.6921 400.0,672.7753 400.0,661.8592 400.0,650.9437 400.0,640.0289 400.0,629.1145 400.0,618.2008 400.0,607.2875 400.0,596.3748 400.0,585.4625 400.0,574.5506 400.0,563.6392 400.0,552.7282 400.0,541.8175 400.0,530.9072 400.0,519.9971 400.0,509.0874 400.0,498.1779 400.0,487.2687 400.0,476.3596 400.0,465.4508 400.0,454.5421 400.0,443.6335 400.0,432.725 400.0,421.8167 400.0,410.9083 400.0,400.0 400.0,389.0917 400.0,378.1833 400.0,367.275 400.0,356.3665 400.0,345.4579 400.0,334.5492 400.0,323.6404 400.0,312.7313 400.0,301.8221 400.0,290.9126 400.0,280.0029 400.0,269.0928 400.0,258.1825 400.0,247.2718 400.0,236.3608 400.0,225.4494 400.0,214.5375 400.0,203.6252 400.0,192.7125 400.0,181.7992 400.0,170.8855 400.0,159.9711 400.0,149.0563 400.0,138.1408 400.0,127.2247 400.0,116.3079 400.0,105.3905 400.0,94.4724 400.0,83.5535 400.0,72.6339" stroke="silver" stroke-opacity="0.5" stroke-width="1" /><polyline fill="none" points="290.7957,727.3271 290.8036,716.4062 290.8118,705.486 290.8203,694.5666 290.829,683.6479 290.8379,672.7298 290.8472,661.8125 290.8566,650.8957 290.8664,639.9795 290.8764,629.0639 290.8867,618.1488 290.8972,607.2343 290.908,596.3203 290.919,585.4067 290.9303,574.4936 290.9418,563.5808 290.9537,552.6685 290.9657,541.7565 290.9781,530.8449 290.9906,519.9336 291.0035,509.0226 291.0166,498.1118 291.03,487.2013 291.0436,476.291 291.0575,465.3808 291.0716,454.4708 291.086,443.561 291.1007,432.6512 291.1156,421.7416 291.1308,410.8319 291.1462,399.9223 291.1619,389.0127 291.1779,378.1031 291.1941,367.1935 291.2106,356.2837 291.2273,345.3739 291.2443,334.4639 291.2615,323.5537 291.279,312.6434 291.2968,301.7329 291.3148,290.8221 291.3331,279.9111 291.3517,268.9998 291.3705,258.0882 291.3896,247.1763 291.4089,236.264 291.4285,225.3513 291.4483,214.4381 291.4684,203.5246 291.4888,192.6106 291.5094,181.6961 291.5303,170.781 291.5515,159.8654 291.5729,148.9493 291.5946,138.0325 291.6165,127.1152 291.6387,116.1972 291.6611,105.2785 291.6839,94.3591 291.7068,83.4389 291.7301,72.5181" stroke="silver" stroke-opacity="0.5" stroke-width="1" /><polyline fill="none" points="181.5655,727.2101 181.5814,716.2853 181.5977,705.3612 181.6146,694.4379 181.6321,683.5153 181.65,672.5934 181.6685,661.6721 181.6874,650.7515 181.7069,639.8314 181.727,628.9119 181.7475,617.993 181.7685,607.0746 181.7901,596.1567 181.8122,585.2392 181.8348,574.3222 181.8579,563.4056 181.8815,552.4894 181.9057,541.5736 181.9304,530.6581 181.9556,519.7429 181.9813,508.8281 182.0075,497.9134 182.0342,486.999 182.0615,476.0849 182.0893,465.1709 182.1176,454.257 182.1464,443.3433 182.1757,432.4297 182.2056,421.5162 182.236,410.6027 182.2669,399.6893 182.2983,388.7758 182.3302,377.8624 182.3626,366.9489 182.3956,356.0353 182.4291,345.1216 182.4631,334.2078 182.4976,323.2938 182.5326,312.3797 182.5682,301.4653 182.6043,290.5507 182.6409,279.6359 182.678,268.7207 182.7156,257.8053 182.7538,246.8895 182.7925,235.9734 182.8317,225.0569 182.8714,214.14 182.9116,203.2226 182.9524,192.3048 182.9936,181.3864 183.0354,170.4676 183.0778,159.5482 183.1206,148.6283 183.164,137.7077 183.2079,126.7865 183.2523,115.8647 183.2972,104.9422 183.3426,94.019 183.3886,83.0951 183.4351,72.1705" stroke="silver" stroke-opacity="0.5" stroke-width="1" /><polyline fill="none" points="72.2834,727.0149 72.3073,716.0836 72.3319,705.1531 72.3572,694.2233 72.3834,683.2942 72.4103,672.3658 72.438,661.4381 72.4665,650.511 72.4958,639.5844 72.5258,628.6585 72.5566,617.7331 72.5882,606.8082 72.6206,595.8838 72.6538,584.9599 72.6877,574.0365 72.7224,563.1134 72.7579,552.1908 72.7941,541.2685 72.8312,530.3466 72.869,519.425 72.9076,508.5036 72.947,497.5826 72.9871,486.6617 73.028,475.7411 73.0697,464.8207 73.1122,453.9004 73.1555,442.9803 73.1995,432.0603 73.2443,421.1403 73.2899,410.2204 73.3363,399.3006 73.3835,388.3807 73.4314,377.4609 73.4801,366.541 73.5296,355.621 73.5798,344.7009 73.6309,333.7807 73.6827,322.8603 73.7353,311.9398 73.7887,301.019 73.8428,290.098 73.8978,279.1768 73.9535,268.2553 74.01,257.3335 74.0673,246.4114 74.1253,235.4889 74.1842,224.566 74.2438,213.6427 74.3042,202.719 74.3654,191.7948 74.4274,180.8701 74.4901,169.9449 74.5536,159.0192 74.618,148.0929 74.683,137.166 74.7489,126.2385 74.8156,115.3103 74.883,104.3815 74.9513,93.452 75.0203,82.5218 75.0901,71.5908" stroke="silver" stroke-opacity="0.5" stroke-width="1" /><polyline fill="none" points="727.7166,727.0149 716.7853,727.0379 705.8548,727.0602 694.925,727.0817 683.9959,727.1024 673.0674,727.1223 662.1397,727.1414 651.2125,727.1597 640.2859,727.1773 629.36,727.1941 618.4345,727.2101 607.5096,727.2253 596.5851,727.2397 585.6612,727.2534 574.7377,727.2663 563.8145,727.2783 552.8918,727.2897 541.9695,727.3002 531.0474,727.3099 520.1257,727.3189 509.2043,727.3271 498.2831,727.3345 487.3622,727.3411 476.4415,727.347 465.5209,727.3521 454.6005,727.3564 443.6803,727.3599 432.7601,727.3626 421.84,727.3645 410.92,727.3657 400.0,727.3661 389.08,727.3657 378.16,727.3645 367.2399,727.3626 356.3197,727.3599 345.3995,727.3564 334.4791,727.3521 323.5585,727.347 312.6378,727.3411 301.7169,727.3345 290.7957,727.3271 279.8743,727.3189 268.9526,727.3099 258.0305,727.3002 247.1082,727.2897 236.1855,727.2783 225.2623,727.2663 214.3388,727.2534 203.4149,727.2397 192.4904,727.2253 181.5655,727.2101 170.64,727.1941 159.7141,727.1773 148.7875,727.1597 137.8603,727.1414 126.9326,727.1223 116.0041,727.1024 105.075,727.0817 94.1452,727.0602 83.2147,727.0379 72.2834,727.0149" stroke="silver" stroke-opacity="0.5" stroke-width="1" /><polyline fill="none" points="727.5042,639.5844 716.58,639.6136 705.6566,639.6418 694.7339,639.6689 683.8119,639.6951 672.8906,639.7203 661.9699,639.7445 651.0498,639.7677 640.1303,639.7899 629.2114,639.8112 618.2931,639.8314 607.3752,639.8507 596.4579,639.8689 585.541,639.8862 574.6245,639.9025 563.7085,639.9178 552.7928,639.9321 541.8776,639.9454 530.9626,639.9578 520.048,639.9691 509.1336,639.9795 498.2195,639.9889 487.3056,639.9973 476.392,640.0047 465.4785,640.0111 454.5652,640.0165 443.652,640.021 432.7389,640.0244 421.8259,640.0269 410.9129,640.0284 400.0,640.0289 389.0871,640.0284 378.1741,640.0269 367.2611,640.0244 356.348,640.021 345.4348,640.0165 334.5215,640.0111 323.608,640.0047 312.6944,639.9973 301.7805,639.9889 290.8664,639.9795 279.952,639.9691 269.0374,639.9578 258.1224,639.9454 247.2072,639.9321 236.2915,639.9178 225.3755,639.9025 214.459,639.8862 203.5421,639.8689 192.6248,639.8507 181.7069,639.8314 170.7886,639.8112 159.8697,639.7899 148.9502,639.7677 138.0301,639.7445 127.1094,639.7203 116.1881,639.6951 105.2661,639.6689 94.3434,639.6418 83.42,639.6136 72.4958,639.5844" stroke="silver" stroke-opacity="0.5" stroke-width="1" /><polyline fill="none" points="727.2421,552.1908 716.3267,552.226 705.412,552.2601 694.4981,552.293 683.5848,552.3246 672.6722,552.3551 661.7603,552.3843 650.849,552.4124 639.9382,552.4393 629.0281,552.465 618.1185,552.4894 607.2094,552.5127 596.3007,552.5348 585.3926,552.5557 574.4849,552.5754 563.5776,552.5939 552.6707,552.6112 541.7641,552.6273 530.8579,552.6423 519.952,552.656 509.0463,552.6685 498.141,552.6798 487.2358,552.69 476.3309,552.6989 465.4262,552.7067 454.5216,552.7133 443.6171,552.7186 432.7127,552.7228 421.8084,552.7258 410.9042,552.7276 400.0,552.7282 389.0958,552.7276 378.1916,552.7258 367.2873,552.7228 356.3829,552.7186 345.4784,552.7133 334.5738,552.7067 323.6691,552.6989 312.7642,552.69 301.859,552.6798 290.9537,552.6685 280.048,552.656 269.1421,552.6423 258.2359,552.6273 247.3293,552.6112 236.4224,552.5939 225.5151,552.5754 214.6074,552.5557 203.6993,552.5348 192.7906,552.5127 181.8815,552.4894 170.9719,552.465 160.0618,552.4393 149.151,552.4124 138.2397,552.3843 127.3278,552.3551 116.4152,552.3246 105.5019,552.293 94.588,552.2601 83.6733,552.226 72.7579,552.1908" stroke="silver" stroke-opacity="0.5" stroke-width="1" /><polyline fill="none" points="726.9303,464.8207 716.0253,464.862 705.121,464.902 694.2175,464.9405 683.3146,464.9776 672.4125,465.0133 661.5109,465.0476 650.61,465.0805 639.7097,465.112 628.8099,465.1422 617.9107,465.1709 607.012,465.1982 596.1138,465.2241 585.216,465.2486 574.3187,465.2716 563.4218,465.2933 552.5253,465.3136 541.6291,465.3325 530.7333,465.35 519.8378,465.3661 508.9425,465.3808 498.0475,465.3941 487.1528,465.406 476.2582,465.4165 465.3639,465.4256 454.4697,465.4333 443.5756,465.4396 432.6816,465.4445 421.7877,465.448 410.8938,465.4501 400.0,465.4508 389.1062,465.4501 378.2123,465.448 367.3184,465.4445 356.4244,465.4396 345.5303,465.4333 334.6361,465.4256 323.7418,465.4165 312.8472,465.406 301.9525,465.3941 291.0575,465.3808 280.1622,465.3661 269.2667,465.35 258.3709,465.3325 247.4747,465.3136 236.5782,465.2933 225.6813,465.2716 214.784,465.2486 203.8862,465.2241 192.988,465.1982 182.0893,465.1709 171.1901,465.1422 160.2903,465.112 149.39,465.0805 138.4891,465.0476 127.5875,465.0133 116.6854,464.9776 105.7825,464.9405 94.879,464.902 83.9747,464.862 73.0697,464.8207" stroke="silver" stroke-opacity="0.5" stroke-width="1" /><polyline fill="none" points="726.5686,377.4609 715.6757,377.5083 704.7835,377.554 693.8921,377.5982 683.0013,377.6408 672.1112,377.6817 661.2218,377.7211 650.3329,377.7588 639.4447,377.7949 628.557,377.8295 617.6698,377.8624 606.7832,377.8937 595.897,377.9234 585.0113,377.9515 574.126,377.9779 563.2412,378.0028 552.3567,378.0261 541.4726,378.0478 530.5888,378.0678 519.7053,378.0863 508.8221,378.1031 497.9392,378.1184 487.0565,378.132 476.174,378.144 465.2916,378.1545 454.4095,378.1633 443.5274,378.1705 432.6455,378.1761 421.7636,378.1801 410.8818,378.1825 400.0,378.1833 389.1182,378.1825 378.2364,378.1801 367.3545,378.1761 356.4726,378.1705 345.5905,378.1633 334.7084,378.1545 323.826,378.144 312.9435,378.132 302.0608,378.1184 291.1779,378.1031 280.2947,378.0863 269.4112,378.0678 258.5274,378.0478 247.6433,378.0261 236.7588,378.0028 225.874,377.9779 214.9887,377.9515 204.103,377.9234 193.2168,377.8937 182.3302,377.8624 171.443,377.8295 160.5553,377.7949 149.6671,377.7588 138.7782,377.7211 127.8888,377.6817 116.9987,377.6408 106.1079,377.5982 95.2165,377.554 84.3243,377.5083 73.4314,377.4609" stroke="silver" stroke-opacity="0.5" stroke-width="1" /><polyline fill="none" points="726.1572,290.098 715.278,290.1515 704.3996,290.2031 693.5219,290.2529 682.6448,290.3009 671.7685,290.3471 660.8928,290.3914 650.0177,290.434 639.1431,290.4747 628.2692,290.5136 617.3957,290.5507 606.5228,290.586 595.6504,290.6195 584.7784,290.6512 573.9068,290.681 563.0357,290.7091 552.1649,290.7353 541.2945,290.7597 530.4244,290.7823 519.5546,290.8031 508.6852,290.8221 497.8159,290.8393 486.9469,290.8547 476.0781,290.8683 465.2095,290.88 454.341,290.89 443.4726,290.8981 432.6044,290.9045 421.7362,290.909 410.8681,290.9117 400.0,290.9126 389.1319,290.9117 378.2638,290.909 367.3956,290.9045 356.5274,290.8981 345.659,290.89 334.7905,290.88 323.9219,290.8683 313.0531,290.8547 302.1841,290.8393 291.3148,290.8221 280.4454,290.8031 269.5756,290.7823 258.7055,290.7597 247.8351,290.7353 236.9643,290.7091 226.0932,290.681 215.2216,290.6512 204.3496,290.6195 193.4772,290.586 182.6043,290.5507 171.7308,290.5136 160.8569,290.4747 149.9823,290.434 139.1072,290.3914 128.2315,290.3471 117.3552,290.3009 106.4781,290.2529 95.6004,290.2031 84.722,290.1515 73.8428,290.098" stroke="silver" stroke-opacity="0.5" stroke-width="1" /><polyline fill="none" points="725.6958,202.719 714.832,202.7784 703.969,202.8358 693.1068,202.8912 682.2451,202.9446 671.3842,202.996 660.5239,203.0454 649.6641,203.0927 638.805,203.138 627.9464,203.1813 617.0884,203.2226 606.2308,203.2619 595.3738,203.2991 584.5172,203.3343 573.661,203.3676 562.8052,203.3988 551.9498,203.428 541.0948,203.4551 530.2401,203.4803 519.3857,203.5035 508.5316,203.5246 497.6777,203.5437 486.824,203.5608 475.9706,203.5759 465.1173,203.589 454.2642,203.6001 443.4112,203.6091 432.5583,203.6162 421.7055,203.6212 410.8527,203.6242 400.0,203.6252 389.1473,203.6242 378.2945,203.6212 367.4417,203.6162 356.5888,203.6091 345.7358,203.6001 334.8827,203.589 324.0294,203.5759 313.176,203.5608 302.3223,203.5437 291.4684,203.5246 280.6143,203.5035 269.7599,203.4803 258.9052,203.4551 248.0502,203.428 237.1948,203.3988 226.339,203.3676 215.4828,203.3343 204.6262,203.2991 193.7692,203.2619 182.9116,203.2226 172.0536,203.1813 161.195,203.138 150.3359,203.0927 139.4761,203.0454 128.6158,202.996 117.7549,202.9446 106.8932,202.8912 96.031,202.8358 85.168,202.7784 74.3042,202.719" stroke="silver" stroke-opacity="0.5" stroke-width="1" /><polyline fill="none" points="725.1844,115.3103 714.3378,115.3758 703.4918,115.439 692.6466,115.5 681.8021,115.5587 670.9582,115.6153 660.115,115.6696 649.2723,115.7217 638.4302,115.7716 627.5887,115.8193 616.7477,115.8647 605.9072,115.9079 595.0672,115.949 584.2277,115.9877 573.3885,116.0243 562.5498,116.0587 551.7115,116.0908 540.8735,116.1207 530.0358,116.1484 519.1984,116.1739 508.3613,116.1972 497.5245,116.2182 486.6878,116.237 475.8514,116.2536 465.0152,116.268 454.1791,116.2802 443.3431,116.2902 432.5073,116.298 421.6715,116.3035 410.8357,116.3068 400.0,116.3079 389.1643,116.3068 378.3285,116.3035 367.4927,116.298 356.6569,116.2902 345.8209,116.2802 334.9848,116.268 324.1486,116.2536 313.3122,116.237 302.4755,116.2182 291.6387,116.1972 280.8016,116.1739 269.9642,116.1484 259.1265,116.1207 248.2885,116.0908 237.4502,116.0587 226.6115,116.0243 215.7723,115.9877 204.9328,115.949 194.0928,115.9079 183.2523,115.8647 172.4113,115.8193 161.5698,115.7716 150.7277,115.7217 139.885,115.6696 129.0418,115.6153 118.1979,115.5587 107.3534,115.5 96.5082,115.439 85.6622,115.3758 74.8156,115.3103" stroke="silver" stroke-opacity="0.5" stroke-width="1" /><circle cx="722.7161" cy="719.6798" fill="black" r="0.738" stroke="none" /><circle cx="721.3279" cy="507.4756" fill="black" r="0.738" stroke="none" /><circle cx="718.1793" cy="558.1617" fill="black" r="0.936" stroke="none" /><circle cx="700.4316" cy="726.1091" fill="black" r="0.738" stroke="none" /><circle cx="690.6861" cy="121.8917" fill="black" r="0.738" stroke="none" /><circle cx="690.4061" cy="167.253" fill="black" r="0.738" stroke="none" /><circle cx="689.4147" cy="306.1688" fill="black" r="0.936" stroke="none" /><circle cx="688.069" cy="629.6355" fill="black" r="0.738" stroke="none" /><circle cx="684.1665" cy="241.6383" fill="black" r="0.936" stroke="none" /><circle cx="685.1574" cy="654.7232" fill="black" r="0.738" stroke="none" /><circle cx="673.3714" cy="112.5438" fill="black" r="0.738" stroke="none" /><circle cx="672.616" cy="421.4332" fill="black" r="0.738" stroke="none" /><circle cx="658.5721" cy="445.4079" fill="black" r="0.738" stroke="none" /><circle cx="653.5206" cy="697.0877" fill="black" r="0.738" stroke="none" /><circle cx="649.0914" cy="514.2508" fill="black" r="0.738" stroke="none" /><circle cx="646.8282" cy="718.8628" fill="black" r="0.738" stroke="none" /><circle cx="641.6347" cy="215.268" fill="black" r="0.738" stroke="none" /><circle cx="639.1739" cy="561.3496" fill="black" r="0.738" stroke="none" /><circle cx="638.2308" cy="278.9507" fill="black" r="0.738" stroke="none" /><circle cx="637.3976" cy="724.7344" fill="black" r="0.738" stroke="none" /><circle cx="635.3345" cy="271.8877" fill="black" r="0.738" stroke="none" /><circle cx="634.0998" cy="595.5123" fill="black" r="0.738" stroke="none" /><circle cx="632.2957" cy="375.7222" fill="black" r="0.738" stroke="none" /><circle cx="632.7063" cy="597.1749" fill="black" r="0.936" stroke="none" /><circle cx="631.0948" cy="327.877" fill="black" r="0.738" stroke="none" /><circle cx="626.3384" cy="453.9725" fill="black" r="0.738" stroke="none" /><circle cx="621.1207" cy="145.903" fill="black" r="0.738" stroke="none" /><circle cx="620.5558" cy="590.4747" fill="black" r="0.738" stroke="none" /><circle cx="616.7433" cy="605.1559" fill="black" r="0.738" stroke="none" /><circle cx="611.1239" cy="97.6248" fill="black" r="0.738" stroke="none" /><circle cx="610.0832" cy="97.5416" fill="black" r="0.738" stroke="none" /><circle cx="610.4478" cy="648.9305" fill="black" r="0.738" stroke="none" /><circle cx="609.8657" cy="529.716" fill="black" r="0.738" stroke="none" /><circle cx="603.7472" cy="382.3546" fill="black" r="0.738" stroke="none" /><circle cx="594.642" cy="245.4805" fill="black" r="0.738" stroke="none" /><circle cx="593.4281" cy="192.8254" fill="black" r="0.738" stroke="none" /><circle cx="583.3493" cy="191.0242" fill="black" r="0.738" stroke="none" /><circle cx="579.2399" cy="693.2707" fill="black" r="0.738" stroke="none" /><circle cx="571.5789" cy="298.4571" fill="black" r="0.936" stroke="none" /><circle cx="570.8376" cy="426.2583" fill="black" r="0.738" stroke="none" /><circle cx="555.4031" cy="74.9293" fill="black" r="1.17" stroke="none" /><circle cx="552.7478" cy="492.7231" fill="black" r="0.738" stroke="none" /><circle cx="552.2291" cy="358.6485" fill="black" r="0.738" stroke="none" /><circle cx="540.0081" cy="687.1136" fill="black" r="0.738" stroke="none" /><circle cx="538.9183" cy="362.6906" fill="black" r="0.738" stroke="none" /><circle cx="527.9497" cy="530.5595" fill="black" r="0.738" stroke="none" /><circle cx="519.9208" cy="210.4" fill="black" r="0.738" stroke="none" /><circle cx="520.0476" cy="559.6399" fill="black" r="0.738" stroke="none" /><circle cx="516.5401" cy="129.631" fill="black" r="0.738" stroke="none" /><circle cx="505.1823" cy="87.4641" fill="black" r="0.738" stroke="none" /><circle cx="501.3394" cy="264.4728" fill="black" r="0.738" stroke="none" /><circle cx="500.8012" cy="704.4439" fill="black" r="0.738" stroke="none" /><circle cx="499.567" cy="583.8445" fill="black" r="0.738" stroke="none" /><circle cx="496.2274" cy="219.4357" fill="black" r="0.738" stroke="none" /><circle cx="494.087" cy="511.1339" fill="black" r="0.738" stroke="none" /><circle cx="482.9526" cy="448.6533" fill="black" r="0.936" stroke="none" /><circle cx="477.8773" cy="523.0197" fill="black" r="0.738" stroke="none" /><circle cx="471.0406" cy="296.0235" fill="black" r="0.738" stroke="none" /><circle cx="468.2775" cy="233.7037" fill="black" r="0.936" stroke="none" /><circle cx="463.5198" cy="172.2467" fill="black" r="0.738" stroke="none" /><circle cx="462.4734" cy="249.5097" fill="black" r="0.936" stroke="none" /><circle cx="449.8063" cy="543.7251" fill="black" r="0.738" stroke="none" /><circle cx="445.844" cy="665.6061" fill="black" r="0.738" stroke="none" /><circle cx="444.9337" cy="400.5104" fill="black" r="0.738" stroke="none" /><circle cx="444.7995" cy="472.5953" fill="black" r="0.738" stroke="none" /><circle cx="424.8719" cy="595.7608" fill="black" r="0.738" stroke="none" /><circle cx="420.5303" cy="327.739" fill="black" r="0.738" stroke="none" /><circle cx="416.6373" cy="96.304" fill="black" r="0.738" stroke="none" /><circle cx="416.6233" cy="360.1171" fill="black" r="0.738" stroke="none" /><circle cx="415.2832" cy="213.3134" fill="black" r="0.738" stroke="none" /><circle cx="414.4653" cy="455.7626" fill="black" r="1.17" stroke="none" /><circle cx="409.4735" cy="267.2592" fill="black" r="0.738" stroke="none" /><circle cx="407.8443" cy="474.003" fill="black" r="0.738" stroke="none" /><circle cx="403.2062" cy="96.656" fill="black" r="0.738" stroke="none" /><circle cx="394.6156" cy="219.4258" fill="black" r="0.738" stroke="none" /><circle cx="391.8006" cy="546.1814" fill="black" r="0.738" stroke="none" /><circle cx="389.2601" cy="658.1038" fill="black" r="0.738" stroke="none" /><circle cx="388.8107" cy="149.4044" fill="black" r="0.738" stroke="none" /><circle cx="386.0027" cy="286.9836" fill="black" r="0.738" stroke="none" /><circle cx="371.5719" cy="284.2733" fill="black" r="0.738" stroke="none" /><circle cx="368.4064" cy="185.9813" fill="black" r="0.738" stroke="none" /><circle cx="364.9283" cy="563.284" fill="black" r="0.738" stroke="none" /><circle cx="362.5325" cy="448.9484" fill="black" r="0.738" stroke="none" /><circle cx="360.8873" cy="641.8562" fill="black" r="0.738" stroke="none" /><circle cx="357.984" cy="324.9365" fill="black" r="0.738" stroke="none" /><circle cx="350.2162" cy="144.1435" fill="black" r="0.936" stroke="none" /><circle cx="349.3923" cy="576.4589" fill="black" r="0.738" stroke="none" /><circle cx="348.6526" cy="670.6693" fill="black" r="0.738" stroke="none" /><circle cx="342.6973" cy="711.5435" fill="black" r="0.738" stroke="none" /><circle cx="323.4824" cy="373.6928" fill="black" r="0.738" stroke="none" /><circle cx="321.3874" cy="702.9728" fill="black" r="0.738" stroke="none" /><circle cx="321.3835" cy="382.7669" fill="black" r="0.738" stroke="none" /><circle cx="316.7572" cy="477.8033" fill="black" r="0.738" stroke="none" /><circle cx="316.1471" cy="477.8027" fill="black" r="0.738" stroke="none" /><circle cx="314.3017" cy="720.4403" fill="black" r="0.936" stroke="none" /><circle cx="308.7963" cy="172.9073" fill="black" r="0.738" stroke="none" /><circle cx="304.7166" cy="488.0027" fill="black" r="0.936" stroke="none" /><circle cx="296.1715" cy="103.7153" fill="black" r="0.936" stroke="none" /><circle cx="291.1738" cy="512.5143" fill="black" r="0.738" stroke="none" /><circle cx="290.1916" cy="397.5645" fill="black" r="0.738" stroke="none" /><circle cx="290.4939" cy="83.4364" fill="black" r="0.738" stroke="none" /><circle cx="279.5541" cy="692.024" fill="black" r="0.936" stroke="none" /><circle cx="275.2719" cy="414.5611" fill="black" r="0.936" stroke="none" /><circle cx="270.6748" cy="182.7005" fill="black" r="0.738" stroke="none" /><circle cx="254.9406" cy="433.2051" fill="black" r="0.738" stroke="none" /><circle cx="249.2787" cy="592.1667" fill="black" r="0.738" stroke="none" /><circle cx="245.8134" cy="711.8227" fill="black" r="0.936" stroke="none" /><circle cx="243.0738" cy="540.1197" fill="black" r="0.738" stroke="none" /><circle cx="241.5054" cy="319.3535" fill="black" r="0.738" stroke="none" /><circle cx="236.8686" cy="666.0349" fill="black" r="0.936" stroke="none" /><circle cx="233.6141" cy="618.866" fill="black" r="0.738" stroke="none" /><circle cx="230.9148" cy="72.7883" fill="black" r="0.738" stroke="none" /><circle cx="228.6943" cy="170.7996" fill="black" r="0.738" stroke="none" /><circle cx="222.6192" cy="257.5819" fill="black" r="0.738" stroke="none" /><circle cx="217.0224" cy="679.1124" fill="black" r="0.738" stroke="none" /><circle cx="208.4848" cy="726.2849" fill="black" r="0.738" stroke="none" /><circle cx="203.1734" cy="553.6689" fill="black" r="0.738" stroke="none" /><circle cx="197.2978" cy="449.6682" fill="black" r="0.738" stroke="none" /><circle cx="194.4235" cy="190.1632" fill="black" r="0.738" stroke="none" /><circle cx="189.1113" cy="559.1418" fill="black" r="0.738" stroke="none" /><circle cx="184.082" cy="585.2438" fill="black" r="0.738" stroke="none" /><circle cx="183.2285" cy="368.6103" fill="black" r="0.738" stroke="none" /><circle cx="181.9253" cy="461.1541" fill="black" r="0.738" stroke="none" /><circle cx="172.4537" cy="685.7721" fill="black" r="0.738" stroke="none" /><circle cx="172.8168" cy="303.5283" fill="black" r="0.738" stroke="none" /><circle cx="172.2098" cy="328.7612" fill="black" r="0.738" stroke="none" /><circle cx="165.9957" cy="338.8693" fill="black" r="0.738" stroke="none" /><circle cx="163.9749" cy="140.8605" fill="black" r="0.738" stroke="none" /><circle cx="159.397" cy="239.8158" fill="black" r="0.738" stroke="none" /><circle cx="137.5467" cy="706.7733" fill="black" r="0.738" stroke="none" /><circle cx="136.6498" cy="86.3726" fill="black" r="0.738" stroke="none" /><circle cx="132.4172" cy="511.7536" fill="black" r="0.738" stroke="none" /><circle cx="131.2207" cy="600.15" fill="black" r="0.738" stroke="none" /><circle cx="130.3153" cy="270.6161" fill="black" r="0.738" stroke="none" /><circle cx="119.9799" cy="210.1195" fill="black" r="0.738" stroke="none" /><circle cx="117.3902" cy="120.624" fill="black" r="1.17" stroke="none" /><circle cx="111.0886" cy="373.9496" fill="black" r="0.738" stroke="none" /><circle cx="107.4745" cy="430.6202" fill="black" r="0.738" stroke="none" /><circle cx="107.7297" cy="364.2413" fill="black" r="0.738" stroke="none" /><circle cx="101.2127" cy="527.4694" fill="black" r="0.738" stroke="none" /><circle cx="93.4039" cy="394.5797" fill="black" r="0.738" stroke="none" /><circle cx="92.1019" cy="595.7658" fill="black" r="0.738" stroke="none" /><circle cx="88.4619" cy="431.6842" fill="black" r="0.738" stroke="none" /><circle cx="89.5306" cy="151.9376" fill="black" r="0.936" stroke="none" /><circle cx="84.6211" cy="145.0044" fill="black" r="0.738" stroke="none" /><circle cx="76.7705" cy="676.7478" fill="black" r="0.738" stroke="none" /><circle cx="13.77" cy="786.23" fill="black" r="4.59" stroke="none" /><circle cx="13.77" cy="786.23" fill="black" r="4.59" stroke="none" /><text fill="black" font-family="monospace" font-size="12" x="10.77" y="775.64">1</text><circle cx="37.77" cy="786.23" fill="black" r="3.654" stroke="none" /><circle cx="37.77" cy="786.23" fill="black" r="3.654" stroke="none" /><text fill="black" font-family="monospace" font-size="12" x="34.769999999999996" y="775.64">2</text><circle cx="61.77" cy="786.23" fill="black" r="2.916" stroke="none" /><circle cx="61.77" cy="786.23" fill="black" r="2.916" stroke="none" /><text fill="black" font-family="monospace" font-size="12" x="58.769999999999996" y="775.64">3</text><circle cx="85.77" cy="786.23" fill="black" r="2.322" stroke="none" /><circle cx="85.77" cy="786.23" fill="black" r="2.322" stroke="none" /><text fill="black" font-family="monospace" font-size="12" x="82.77" y="775.64">4</text><circle cx="109.77" cy="786.23" fill="black" r="1.854" stroke="none" /><circle cx="109.77" cy="786.23" fill="black" r="1.854" stroke="none" /><text fill="black" font-family="monospace" font-size="12" x="106.77" y="775.64">5</text><circle cx="133.77" cy="786.23" fill="black" r="1.476" stroke="none" /><circle cx="133.77" cy="786.23" fill="black" r="1.476" stroke="none" /><text fill="black" font-family="monospace" font-size="12" x="130.77" y="775.64">6</text><circle cx="157.77" cy="786.23" fill="black" r="1.17" stroke="none" /><circle cx="157.77" cy="786.23" fill="black" r="1.17" stroke="none" /><text fill="black" font-family="monospace" font-size="12" x="154.77" y="775.64">7</text><circle cx="181.77" cy="786.23" fill="black" r="0.936" stroke="none" /><circle cx="181.77" cy="786.23" fill="black" r="0.936" stroke="none" /><text fill="black" font-family="monospace" font-size="12" x="178.77" y="775.64">8</text><circle cx="205.77" cy="786.23" fill="black" r="0.738" stroke="none" /><circle cx="205.77" cy="786.23" fill="black" r="0.738" stroke="none" /><text fill="black" font-family="monospace" font-size="12" x="202.77" y="775.64">9</text><text fill="gray" fill-opacity="0.5" font-family="monospace" font-size="12" x="727.7165613037279" y="727.014894989996">07h00m</text><text fill="gray" fill-opacity="0.5" font-family="monospace" font-size="12" x="618.4345074092276" y="727.2100730014959">07h05m</text><text fill="gray" fill-opacity="0.5" font-family="monospace" font-size="12" x="509.2042985778862" y="727.3271056160911">07h10m</text><text fill="gray" fill-opacity="0.5" font-family="monospace" font-size="12" x="400.0" y="727.3661041297258">07h15m</text><text fill="gray" fill-opacity="0.5" font-family="monospace" font-size="12" x="290.7957014221138" y="727.3271056160911">07h20m</text><text fill="gray" fill-opacity="0.5" font-family="monospace" font-size="12" x="181.56549259077238" y="727.2100730014959">07h25m</text><text fill="gray" fill-opacity="0.5" font-family="monospace" font-size="12" x="72.28343869627213" y="727.014894989996">07h30m</text><text fill="gray" fill-opacity="0.5" font-family="monospace" font-size="12" x="72.28343869627213" y="727.014894989996">+0°</text><text fill="gray" fill-opacity="0.5" font-family="monospace" font-size="12" x="72.49577889261138" y="639.5844341803415">+1°</text><text fill="gray" fill-opacity="0.5" font-family="monospace" font-size="12" x="72.75788636760626" y="552.1907967757902">+2°</text><text fill="gray" fill-opacity="0.5" font-family="monospace" font-size="12" x="73.0697495747778" y="464.82069805414153">+3°</text><text fill="gray" fill-opacity="0.5" font-family="monospace" font-size="12" x="73.43138726925088" y="377.4608675726698">+4°</text><text fill="gray" fill-opacity="0.5" font-family="monospace" font-size="12" x="73.84284849298393" y="290.0980411161963">+5°</text><text fill="gray" fill-opacity="0.5" font-family="monospace" font-size="12" x="74.30421259914868" y="202.71895265317676">+6°</text><text fill="gray" fill-opacity="0.5" font-family="monospace" font-size="12" x="74.81558931567969" y="115.31032628945246">+7°</text><text fill="black" font-family="monospace" font-size="12" x="12" y="48">&gt;&gt; No.423 07h00m 07h30m +0.0°+7.5°</text><a target="_self" xlink:href="hip025.svg"><text fill="black" font-family="monospace" font-size="12" x="12" y="36">&gt; No.25 05h20m 08h00m +0.0°+22.5°</text></a><a target="_self" xlink:href="hip002.svg"><text fill="black" font-family="monospace" font-size="12" x="12" y="24">No.2 00h 24h +0.0°+90.0°</text></a><polyline fill="none" points="724.9099,71.5908 714.0725,71.6592 703.2357,71.7253 692.3997,71.7891 681.5643,71.8505 670.7296,71.9097 659.8955,71.9665 649.062,72.021 638.2291,72.0731 627.3967,72.123 616.5649,72.1705 605.7336,72.2157 594.9027,72.2585 584.0723,72.2991 573.2423,72.3373 562.4127,72.3733 551.5835,72.4069 540.7547,72.4381 529.9261,72.4671 519.0979,72.4937 508.2699,72.5181 497.4422,72.5401 486.6147,72.5598 475.7875,72.5771 464.9604,72.5922 454.1334,72.6049 443.3066,72.6154 432.4798,72.6235 421.6532,72.6293 410.8266,72.6327 400.0,72.6339 389.1734,72.6327 378.3468,72.6293 367.5202,72.6235 356.6934,72.6154 345.8666,72.6049 335.0396,72.5922 324.2125,72.5771 313.3853,72.5598 302.5578,72.5401 291.7301,72.5181 280.9021,72.4937 270.0739,72.4671 259.2453,72.4381 248.4165,72.4069 237.5873,72.3733 226.7577,72.3373 215.9277,72.2991 205.0973,72.2585 194.2664,72.2157 183.4351,72.1705 172.6033,72.123 161.7709,72.0731 150.938,72.021 140.1045,71.9665 129.2704,71.9097 118.4357,71.8505 107.6003,71.7891 96.7643,71.7253 85.9275,71.6592 75.0901,71.5908" stroke="black" stroke-opacity="0.5" stroke-width="1" /><polyline fill="none" points="727.7166,727.0149 727.6927,716.0836 727.6681,705.1531 727.6428,694.2233 727.6166,683.2942 727.5897,672.3658 727.562,661.4381 727.5335,650.511 727.5042,639.5844 727.4742,628.6585 727.4434,617.7331 727.4118,606.8082 727.3794,595.8838 727.3462,584.9599 727.3123,574.0365 727.2776,563.1134 727.2421,552.1908 727.2059,541.2685 727.1688,530.3466 727.131,519.425 727.0924,508.5036 727.053,497.5826 727.0129,486.6617 726.972,475.7411 726.9303,464.8207 726.8878,453.9004 726.8445,442.9803 726.8005,432.0603 726.7557,421.1403 726.7101,410.2204 726.6637,399.3006 726.6165,388.3807 726.5686,377.4609 726.5199,366.541 726.4704,355.621 726.4202,344.7009 726.3691,333.7807 726.3173,322.8603 726.2647,311.9398 726.2113,301.019 726.1572,290.098 726.1022,279.1768 726.0465,268.2553 725.99,257.3335 725.9327,246.4114 725.8747,235.4889 725.8158,224.566 725.7562,213.6427 725.6958,202.719 725.6346,191.7948 725.5726,180.8701 725.5099,169.9449 725.4464,159.0192 725.382,148.0929 725.317,137.166 725.2511,126.2385 725.1844,115.3103 725.117,104.3815 725.0487,93.452 724.9797,82.5218 724.9099,71.5908" stroke="black" stroke-opacity="0.5" stroke-width="1" /><polyline fill="none" points="727.7166,727.0149 716.7853,727.0379 705.8548,727.0602 694.925,727.0817 683.9959,727.1024 673.0674,727.1223 662.1397,727.1414 651.2125,727.1597 640.2859,727.1773 629.36,727.1941 618.4345,727.2101 607.5096,727.2253 596.5851,727.2397 585.6612,727.2534 574.7377,727.2663 563.8145,727.2783 552.8918,727.2897 541.9695,727.3002 531.0474,727.3099 520.1257,727.3189 509.2043,727.3271 498.2831,727.3345 487.3622,727.3411 476.4415,727.347 465.5209,727.3521 454.6005,727.3564 443.6803,727.3599 432.7601,727.3626 421.84,727.3645 410.92,727.3657 400.0,727.3661 389.08,727.3657 378.16,727.3645 367.2399,727.3626 356.3197,727.3599 345.3995,727.3564 334.4791,727.3521 323.5585,727.347 312.6378,727.3411 301.7169,727.3345 290.7957,727.3271 279.8743,727.3189 268.9526,727.3099 258.0305,727.3002 247.1082,727.2897 236.1855,727.2783 225.2623,727.2663 214.3388,727.2534 203.4149,727.2397 192.4904,727.2253 181.5655,727.2101 170.64,727.1941 159.7141,727.1773 148.7875,727.1597 137.8603,727.1414 126.9326,727.1223 116.0041,727.1024 105.075,727.0817 94.1452,727.0602 83.2147,727.0379 72.2834,727.0149" stroke="black" stroke-opacity="0.5" stroke-width="1" /><polyline fill="none" points="72.2834,727.0149 72.3073,716.0836 72.3319,705.1531 72.3572,694.2233 72.3834,683.2942 72.4103,672.3658 72.438,661.4381 72.4665,650.511 72.4958,639.5844 72.5258,628.6585 72.5566,617.7331 72.5882,606.8082 72.6206,595.8838 72.6538,584.9599 72.6877,574.0365 72.7224,563.1134 72.7579,552.1908 72.7941,541.2685 72.8312,530.3466 72.869,519.425 72.9076,508.5036 72.947,497.5826 72.9871,486.6617 73.028,475.7411 73.0697,464.8207 73.1122,453.9004 73.1555,442.9803 73.1995,432.0603 73.2443,421.1403 73.2899,410.2204 73.3363,399.3006 73.3835,388.3807 73.4314,377.4609 73.4801,366.541 73.5296,355.621 73.5798,344.7009 73.6309,333.7807 73.6827,322.8603 73.7353,311.9398 73.7887,301.019 73.8428,290.098 73.8978,279.1768 73.9535,268.2553 74.01,257.3335 74.0673,246.4114 74.1253,235.4889 74.1842,224.566 74.2438,213.6427 74.3042,202.719 74.3654,191.7948 74.4274,180.8701 74.4901,169.9449 74.5536,159.0192 74.618,148.0929 74.683,137.166 74.7489,126.2385 74.8156,115.3103 74.883,104.3815 74.9513,93.452 75.0203,82.5218 75.0901,71.5908" stroke="black" stroke-opacity="0.5" stroke-width="1" /></svg>