<?xml version="1.0" encoding="utf-8" ?>
<svg baseProfile="tiny" height="800" version="1.2" width="800" xmlns="http://www.w3.org/2000/svg" xmlns:ev="http://www.w3.org/2001/xml-events" xmlns:xlink="http://www.w3.org/1999/xlink"><defs /><rect fill="none" height="800" stroke="black" stroke-width="2" width="800" x="0" y="0" /><polyline fill="none" points="724.9099,728.4092 724.9797,717.4782 725.0487,706.548 725.117,695.6185 725.1844,684.6897 725.2511,673.7615 725.317,662.834 725.382,651.9071 725.4464,640.9808 725.5099,630.0551 725.5726,619.1299 725.6346,608.2052 725.6958,597.281 725.7562,586.3573 725.8158,575.434 725.8747,564.5111 725.9327,553.5886 725.99,542.6665 726.0465,531.7447 726.1022,520.8232 726.1572,509.902 726.2113,498.981 726.2647,488.0602 726.3173,477.1397 726.3691,466.2193 726.4202,455.2991 726.4704,444.379 726.5199,433.459 726.5686,422.5391 726.6165,411.6193 726.6637,400.6994 726.7101,389.7796 726.7557,378.8597 726.8005,367.9397 726.8445,357.0197 726.8878,346.0996 726.9303,335.1793 726.972,324.2589 727.0129,313.3383 727.053,302.4174 727.0924,291.4964 727.131,280.575 727.1688,269.6534 727.2059,258.7315 727.2421,247.8092 727.2776,236.8866 727.3123,225.9635 727.3462,215.0401 727.3794,204.1162 727.4118,193.1918 727.4434,182.2669 727.4742,171.3415 727.5042,160.4156 727.5335,149.489 727.562,138.5619 727.5897,127.6342 727.6166,116.7058 727.6428,105.7767 727.6681,94.8469 727.6927,83.9164 727.7166,72.9851" stroke="silver" stroke-opacity="0.5" stroke-width="1" /><polyline fill="none" points="616.5649,727.8295 616.6114,716.9049 616.6574,705.981 616.7028,695.0578 616.7477,684.1353 616.7921,673.2135 616.836,662.2923 616.8794,651.3717 616.9222,640.4518 616.9646,629.5324 617.0064,618.6136 617.0476,607.6952 617.0884,596.7774 617.1286,585.86 617.1683,574.9431 617.2075,564.0266 617.2462,553.1105 617.2844,542.1947 617.322,531.2793 617.3591,520.3641 617.3957,509.4493 617.4318,498.5347 617.4674,487.6203 617.5024,476.7062 617.5369,465.7922 617.5709,454.8784 617.6044,443.9647 617.6374,433.0511 617.6698,422.1376 617.7017,411.2242 617.7331,400.3107 617.764,389.3973 617.7944,378.4838 617.8243,367.5703 617.8536,356.6567 617.8824,345.743 617.9107,334.8291 617.9385,323.9151 617.9658,313.001 617.9925,302.0866 618.0187,291.1719 618.0444,280.2571 618.0696,269.3419 618.0943,258.4264 618.1185,247.5106 618.1421,236.5944 618.1652,225.6778 618.1878,214.7608 618.2099,203.8433 618.2315,192.9254 618.2525,182.007 618.273,171.0881 618.2931,160.1686 618.3126,149.2485 618.3315,138.3279 618.35,127.4066 618.3679,116.4847 618.3854,105.5621 618.4023,94.6388 618.4186,83.7147 618.4345,72.7899" stroke="silver" stroke-opacity="0.5" stroke-width="1" /><polyline fill="none" points="508.2699,727.4819 508.2932,716.5611 508.3161,705.6409 508.3389,694.7215 508.3613,683.8028 508.3835,672.8848 508.4054,661.9675 508.4271,651.0507 508.4485,640.1346 508.4697,629.219 508.4906,618.3039 508.5112,607.3894 508.5316,596.4754 508.5517,585.5619 508.5715,574.6487 508.5911,563.736 508.6104,552.8237 508.6295,541.9118 508.6483,531.0002 508.6669,520.0889 508.6852,509.1779 508.7032,498.2671 508.721,487.3566 508.7385,476.4463 508.7557,465.5361 508.7727,454.6261 508.7894,443.7163 508.8059,432.8065 508.8221,421.8969 508.8381,410.9873 508.8538,400.0777 508.8692,389.1681 508.8844,378.2584 508.8993,367.3488 508.914,356.439 508.9284,345.5292 508.9425,334.6192 508.9564,323.709 508.97,312.7987 508.9834,301.8882 508.9965,290.9774 509.0094,280.0664 509.0219,269.1551 509.0343,258.2435 509.0463,247.3315 509.0582,236.4192 509.0697,225.5064 509.081,214.5933 509.092,203.6797 509.1028,192.7657 509.1133,181.8512 509.1236,170.9361 509.1336,160.0205 509.1434,149.1043 509.1528,138.1875 509.1621,127.2702 509.171,116.3521 509.1797,105.4334 509.1882,94.514 509.1964,83.5938 509.2043,72.6729" stroke="silver" stroke-opacity="0.5" stroke-width="1" /><polyline fill="none" points="400.0,727.3661 400.0,716.4465 400.0,705.5276 400.0,694.6095 400.0,683.6921 400.0,672.7753 400.0,661.8592 400.0,650.9437 400.0,640.0289 400.0,629.1145 400.0,618.2008 400.0,607.2875 400.0,596.3748 400.0,585.4625 400.0,574.5506 400.0,563.6392 400.0,552.7282 400.0,541.8175 400.0,530.9072 400.0,519.9971 400.0,509.0874 400.0,498.1779 400.0,487.2687 400.0,476.3596 400.0,465.4508 400.0,454.5421 400.0,443.6335 400.0,432.725 400.0,421.8167 400.0,410.9083 400.0,400.0 400.0,389.0917 400.0,378.1833 400.0,367.275 400.0,356.3665 400.0,345.4579 400.0,334.5492 400.0,323.6404 400.0,312.7313 400.0,301.8221 400.0,290.9126 400.0,280.0029 400.0,269.0928 400.0,258.1825 400.0,247.2718 400.0,236.3608 400.0,225.4494 400.0,214.5375 400.0,203.6252 400.0,192.7125 400.0,181.7992 400.0,170.8855 400.0,159.9711 400.0,149.0563 400.0,138.1408 400.0,127.2247 400.0,116.3079 400.0,105.3905 400.0,94.4724 400.0,83.5535 400.0,72.6339" stroke="silver" stroke-opacity="0.5" stroke-width="1" /><polyline fill="none" points="291.7301,727.4819 291.7068,716.5611 291.6839,705.6409 291.6611,694.7215 291.6387,683.8028 291.6165,672.8848 291.5946,661.9675 291.5729,651.0507 291.5515,640.1346 291.5303,629.219 291.5094,618.3039 291.4888,607.3894 291.4684,596.4754 291.4483,585.5619 291.4285,574.6487 291.4089,563.736 291.3896,552.8237 291.3705,541.9118 291.3517,531.0002 291.3331,520.0889 291.3148,509.1779 291.2968,498.2671 291.279,487.3566 291.2615,476.4463 291.2443,465.5361 291.2273,454.6261 291.2106,443.7163 291.1941,432.8065 291.1779,421.8969 291.1619,410.9873 291.1462,400.0777 291.1308,389.1681 291.1156,378.2584 291.1007,367.3488 291.086,356.439 291.0716,345.5292 291.0575,334.6192 291.0436,323.709 291.03,312.7987 291.0166,301.8882 291.0035,290.9774 290.9906,280.0664 290.9781,269.1551 290.9657,258.2435 290.9537,247.3315 290.9418,236.4192 290.9303,225.5064 290.919,214.5933 290.908,203.6797 290.8972,192.7657 290.8867,181.8512 290.8764,170.9361 290.8664,160.0205 290.8566,149.1043 290.8472,138.1875 290.8379,127.2702 290.829,116.3521 290.8203,105.4334 290.8118,94.514 290.8036,83.5938 290.7957,72.6729" stroke="silver" stroke-opacity="0.5" stroke-width="1" /><polyline fill="none" points="183.4351,727.8295 183.3886,716.9049 183.3426,705.981 183.2972,695.0578 183.2523,684.1353 183.2079,673.2135 183.164,662.2923 183.1206,651.3717 183.0778,640.4518 183.0354,629.5324 182.9936,618.6136 182.9524,607.6952 182.9116,596.7774 182.8714,585.86 182.8317,574.9431 182.7925,564.0266 182.7538,553.1105 182.7156,542.1947 182.678,531.2793 182.6409,520.3641 182.6043,509.4493 182.5682,498.5347 182.5326,487.6203 182.4976,476.7062 182.4631,465.7922 182.4291,454.8784 182.3956,443.9647 182.3626,433.0511 182.3302,422.1376 182.2983,411.2242 182.2669,400.3107 182.236,389.3973 182.2056,378.4838 182.1757,367.5703 182.1464,356.6567 182.1176,345.743 182.0893,334.8291 182.0615,323.9151 182.0342,313.001 182.0075,302.0866 181.9813,291.1719 181.9556,280.2571 181.9304,269.3419 181.9057,258.4264 181.8815,247.5106 181.8579,236.5944 181.8348,225.6778 181.8122,214.7608 181.7901,203.8433 181.7685,192.9254 181.7475,182.007 181.727,171.0881 181.7069,160.1686 181.6874,149.2485 181.6685,138.3279 181.65,127.4066 181.6321,116.4847 181.6146,105.5621 181.5977,94.6388 181.5814,83.7147 181.5655,72.7899" stroke="silver" stroke-opacity="0.5" stroke-width="1" /><polyline fill="none" points="75.0901,728.4092 75.0203,717.4782 74.9513,706.548 74.883,695.6185 74.8156,684.6897 74.7489,673.7615 74.683,662.834 74.618,651.9071 74.5536,640.9808 74.4901,630.0551 74.4274,619.1299 74.3654,608.2052 74.3042,597.281 74.2438,586.3573 74.1842,575.434 74.1253,564.5111 74.0673,553.5886 74.01,542.6665 73.9535,531.7447 73.8978,520.8232 73.8428,509.902 73.7887,498.981 73.7353,488.0602 73.6827,477.1397 73.6309,466.2193 73.5798,455.2991 73.5296,444.379 73.4801,433.459 73.4314,422.5391 73.3835,411.6193 73.3363,400.6994 73.2899,389.7796 73.2443,378.8597 73.1995,367.9397 73.1555,357.0197 73.1122,346.0996 73.0697,335.1793 73.028,324.2589 72.9871,313.3383 72.947,302.4174 72.9076,291.4964 72.869,280.575 72.8312,269.6534 72.7941,258.7315 72.7579,247.8092 72.7224,236.8866 72.6877,225.9635 72.6538,215.0401 72.6206,204.1162 72.5882,193.1918 72.5566,182.2669 72.5258,171.3415 72.4958,160.4156 72.4665,149.489 72.438,138.5619 72.4103,127.6342 72.3834,116.7058 72.3572,105.7767 72.3319,94.8469 72.3073,83.9164 72.2834,72.9851" stroke="silver" stroke-opacity="0.5" stroke-width="1" /><polyline fill="none" points="725.1844,684.6897 714.3378,684.6242 703.4918,684.561 692.6466,684.5 681.8021,684.4413 670.9582,684.3847 660.115,684.3304 649.2723,684.2783 638.4302,684.2284 627.5887,684.1807 616.7477,684.1353 605.9072,684.0921 595.0672,684.051 584.2277,684.0123 573.3885,683.9757 562.5498,683.9413 551.7115,683.9092 540.8735,683.8793 530.0358,683.8516 519.1984,683.8261 508.3613,683.8028 497.5245,683.7818 486.6878,683.763 475.8514,683.7464 465.0152,683.732 454.1791,683.7198 443.3431,683.7098 432.5073,683.702 421.6715,683.6965 410.8357,683.6932 400.0,683.6921 389.1643,683.6932 378.3285,683.6965 367.4927,683.702 356.6569,683.7098 345.8209,683.7198 334.9848,683.732 324.1486,683.7464 313.3122,683.763 302.4755,683.7818 291.6387,683.8028 280.8016,683.8261 269.9642,683.8516 259.1265,683.8793 248.2885,683.9092 237.4502,683.9413 226.6115,683.9757 215.7723,684.0123 204.9328,684.051 194.0928,684.0921 183.2523,684.1353 172.4113,684.1807 161.5698,684.2284 150.7277,684.2783 139.885,684.3304 129.0418,684.3847 118.1979,684.4413 107.3534,684.5 96.5082,684.561 85.6622,684.6242 74.8156,684.6897" stroke="silver" stroke-opacity="0.5" stroke-width="1" /><polyline fill="none" points="725.6958,597.281 714.832,597.2216 703.969,597.1642 693.1068,597.1088 682.2451,597.0554 671.3842,597.004 660.5239,596.9546 649.6641,596.9073 638.805,596.862 627.9464,596.8187 617.0884,596.7774 606.2308,596.7381 595.3738,596.7009 584.5172,596.6657 573.661,596.6324 562.8052,596.6012 551.9498,596.572 541.0948,596.5449 530.2401,596.5197 519.3857,596.4965 508.5316,596.4754 497.6777,596.4563 486.824,596.4392 475.9706,596.4241 465.1173,596.411 454.2642,596.3999 443.4112,596.3909 432.5583,596.3838 421.7055,596.3788 410.8527,596.3758 400.0,596.3748 389.1473,596.3758 378.2945,596.3788 367.4417,596.3838 356.5888,596.3909 345.7358,596.3999 334.8827,596.411 324.0294,596.4241 313.176,596.4392 302.3223,596.4563 291.4684,596.4754 280.6143,596.4965 269.7599,596.5197 258.9052,596.5449 248.0502,596.572 237.1948,596.6012 226.339,596.6324 215.4828,596.6657 204.6262,596.7009 193.7692,596.7381 182.9116,596.7774 172.0536,596.8187 161.195,596.862 150.3359,596.9073 139.4761,596.9546 128.6158,597.004 117.7549,597.0554 106.8932,597.1088 96.031,597.1642 85.168,597.2216 74.3042,597.281" stroke="silver" stroke-opacity="0.5" stroke-width="1" /><polyline fill="none" points="726.1572,509.902 715.278,509.8485 704.3996,509.7969 693.5219,509.7471 682.6448,509.6991 671.7685,509.6529 660.8928,509.6086 650.0177,509.566 639.1431,509.5253 628.2692,509.4864 617.3957,509.4493 606.5228,509.414 595.6504,509.3805 584.7784,509.3488 573.9068,509.319 563.0357,509.2909 552.1649,509.2647 541.2945,509.2403 530.4244,509.2177 519.5546,509.1969 508.6852,509.1779 497.8159,509.1607 486.9469,509.1453 476.0781,509.1317 465.2095,509.12 454.341,509.11 443.4726,509.1019 432.6044,509.0955 421.7362,509.091 410.8681,509.0883 400.0,509.0874 389.1319,509.0883 378.2638,509.091 367.3956,509.0955 356.5274,509.1019 345.659,509.11 334.7905,509.12 323.9219,509.1317 313.0531,509.1453 302.1841,509.1607 291.3148,509.1779 280.4454,509.1969 269.5756,509.2177 258.7055,509.2403 247.8351,509.2647 236.9643,509.2909 226.0932,509.319 215.2216,509.3488 204.3496,509.3805 193.4772,509.414 182.6043,509.4493 171.7308,509.4864 160.8569,509.5253 149.9823,509.566 139.1072,509.6086 128.2315,509.6529 117.3552,509.6991 106.4781,509.7471 95.6004,509.7969 84.722,509.8485 73.8428,509.902" stroke="silver" stroke-opacity="0.5" stroke-width="1" /><polyline fill="none" points="726.5686,422.5391 715.6757,422.4917 704.7835,422.446 693.8921,422.4018 683.0013,422.3592 672.1112,422.3183 661.2218,422.2789 650.3329,422.2412 639.4447,422.2051 628.557,422.1705 617.6698,422.1376 606.7832,422.1063 595.897,422.0766 585.0113,422.0485 574.126,422.0221 563.2412,421.9972 552.3567,421.9739 541.4726,421.9522 530.5888,421.9322 519.7053,421.9137 508.8221,421.8969 497.9392,421.8816 487.0565,421.868 476.174,421.856 465.2916,421.8455 454.4095,421.8367 443.5274,421.8295 432.6455,421.8239 421.7636,421.8199 410.8818,421.8175 400.0,421.8167 389.1182,421.8175 378.2364,421.8199 367.3545,421.8239 356.4726,421.8295 345.5905,421.8367 334.7084,421.8455 323.826,421.856 312.9435,421.868 302.0608,421.8816 291.1779,421.8969 280.2947,421.9137 269.4112,421.9322 258.5274,421.9522 247.6433,421.9739 236.7588,421.9972 225.874,422.0221 214.9887,422.0485 204.103,422.0766 193.2168,422.1063 182.3302,422.1376 171.443,422.1705 160.5553,422.2051 149.6671,422.2412 138.7782,422.2789 127.8888,422.3183 116.9987,422.3592 106.1079,422.4018 95.2165,422.446 84.3243,422.4917 73.4314,422.5391" stroke="silver" stroke-opacity="0.5" stroke-width="1" /><polyline fill="none" points="726.9303,335.1793 716.0253,335.138 705.121,335.098 694.2175,335.0595 683.3146,335.0224 672.4125,334.9867 661.5109,334.9524 650.61,334.9195 639.7097,334.888 628.8099,334.8578 617.9107,334.8291 607.012,334.8018 596.1138,334.7759 585.216,334.7514 574.3187,334.7284 563.4218,334.7067 552.5253,334.6864 541.6291,334.6675 530.7333,334.65 519.8378,334.6339 508.9425,334.6192 498.0475,334.6059 487.1528,334.594 476.2582,334.5835 465.3639,334.5744 454.4697,334.5667 443.5756,334.5604 432.6816,334.5555 421.7877,334.552 410.8938,334.5499 400.0,334.5492 389.1062,334.5499 378.2123,334.552 367.3184,334.5555 356.4244,334.5604 345.5303,334.5667 334.6361,334.5744 323.7418,334.5835 312.8472,334.594 301.9525,334.6059 291.0575,334.6192 280.1622,334.6339 269.2667,334.65 258.3709,334.6675 247.4747,334.6864 236.5782,334.7067 225.6813,334.7284 214.784,334.7514 203.8862,334.7759 192.988,334.8018 182.0893,334.8291 171.1901,334.8578 160.2903,334.888 149.39,334.9195 138.4891,334.9524 127.5875,334.9867 116.6854,335.0224 105.7825,335.0595 94.879,335.098 83.9747,335.138 73.0697,335.1793" stroke="silver" stroke-opacity="0.5" stroke-width="1" /><polyline fill="none" points="727.2421,247.8092 716.3267,247.774 705.412,247.7399 694.4981,247.707 683.5848,247.6754 672.6722,247.6449 661.7603,247.6157 650.849,247.5876 639.9382,247.5607 629.0281,247.535 618.1185,247.5106 607.2094,247.4873 596.3007,247.4652 585.3926,247.4443 574.4849,247.4246 563.5776,247.4061 552.6707,247.3888 541.7641,247.3727 530.8579,247.3577 519.952,247.344 509.0463,247.3315 498.141,247.3202 487.2358,247.31 476.3309,247.3011 465.4262,247.2933 454.5216,247.2867 443.6171,247.2814 432.7127,247.2772 421.8084,247.2742 410.9042,247.2724 400.0,247.2718 389.0958,247.2724 378.1916,247.2742 367.2873,247.2772 356.3829,247.2814 345.4784,247.2867 334.5738,247.2933 323.6691,247.3011 312.7642,247.31 301.859,247.3202 290.9537,247.3315 280.048,247.344 269.1421,247.3577 258.2359,247.3727 247.3293,247.3888 236.4224,247.4061 225.5151,247.4246 214.6074,247.4443 203.6993,247.4652 192.7906,247.4873 181.8815,247.5106 170.9719,247.535 160.0618,247.5607 149.151,247.5876 138.2397,247.6157 127.3278,247.6449 116.4152,247.6754 105.5019,247.707 94.588,247.7399 83.6733,247.774 72.7579,247.8092" stroke="silver" stroke-opacity="0.5" stroke-width="1" /><polyline fill="none" points="727.5042,160.4156 716.58,160.3864 705.6566,160.3582 694.7339,160.3311 683.8119,160.3049 672.8906,160.2797 661.9699,160.2555 651.0498,160.2323 640.1303,160.2101 629.2114,160.1888 618.2931,160.1686 607.3752,160.1493 596.4579,160.1311 585.541,160.1138 574.6245,160.0975 563.7085,160.0822 552.7928,160.0679 541.8776,160.0546 530.9626,160.0422 520.048,160.0309 509.1336,160.0205 498.2195,160.0111 487.3056,160.0027 476.392,159.9953 465.4785,159.9889 454.5652,159.9835 443.652,159.979 432.7389,159.9756 421.8259,159.9731 410.9129,159.9716 400.0,159.9711 389.0871,159.9716 378.1741,159.9731 367.2611,159.9756 356.348,159.979 345.4348,159.9835 334.5215,159.9889 323.608,159.9953 312.6944,160.0027 301.7805,160.0111 290.8664,160.0205 279.952,160.0309 269.0374,160.0422 258.1224,160.0546 247.2072,160.0679 236.2915,160.0822 225.3755,160.0975 214.459,160.1138 203.5421,160.1311 192.6248,160.1493 181.7069,160.1686 170.7886,160.1888 159.8697,160.2101 148.9502,160.2323 138.0301,160.2555 127.1094,160.2797 116.1881,160.3049 105.2661,160.3311 94.3434,160.3582 83.42,160.3864 72.4958,160.4156" stroke="silver" stroke-opacity="0.5" stroke-width="1" /><polyline fill="none" points="727.7166,72.9851 716.7853,72.9621 705.8548,72.9398 694.925,72.9183 683.9959,72.8976 673.0674,72.8777 662.1397,72.8586 651.2125,72.8403 640.2859,72.8227 629.36,72.8059 618.4345,72.7899 607.5096,72.7747 596.5851,72.7603 585.6612,72.7466 574.7377,72.7337 563.8145,72.7217 552.8918,72.7103 541.9695,72.6998 531.0474,72.6901 520.1257,72.6811 509.2043,72.6729 498.2831,72.6655 487.3622,72.6589 476.4415,72.653 465.5209,72.6479 454.6005,72.6436 443.6803,72.6401 432.7601,72.6374 421.84,72.6355 410.92,72.6343 400.0,72.6339 389.08,72.6343 378.16,72.6355 367.2399,72.6374 356.3197,72.6401 345.3995,72.6436 334.4791,72.6479 323.5585,72.653 312.6378,72.6589 301.7169,72.6655 290.7957,72.6729 279.8743,72.6811 268.9526,72.6901 258.0305,72.6998 247.1082,72.7103 236.1855,72.7217 225.2623,72.7337 214.3388,72.7466 203.4149,72.7603 192.4904,72.7747 181.5655,72.7899 170.64,72.8059 159.7141,72.8227 148.7875,72.8403 137.8603,72.8586 126.9326,72.8777 116.0041,72.8976 105.075,72.9183 94.1452,72.9398 83.2147,72.9621 72.2834,72.9851" stroke="silver" stroke-opacity="0.5" stroke-width="1" /><circle cx="725.7848" cy="460.8001" fill="black" r="0.738" stroke="none" /><circle cx="722.0446" cy="175.5218" fill="black" r="0.738" stroke="none" /><circle cx="719.5588" cy="488.4649" fill="black" r="0.738" stroke="none" /><circle cx="713.5446" cy="543.8261" fill="black" r="0.738" stroke="none" /><circle cx="711.5229" cy="581.9991" fill="black" r="0.738" stroke="none" /><circle cx="708.9168" cy="112.99" fill="black" r="0.738" stroke="none" /><circle cx="706.6808" cy="202.221" fill="black" r="0.738" stroke="none" /><circle cx="702.9761" cy="299.5376" fill="black" r="0.738" stroke="none" /><circle cx="685.9811" cy="86.3652" fill="black" r="0.738" stroke="none" /><circle cx="684.8379" cy="373.6317" fill="black" r="0.738" stroke="none" /><circle cx="680.7254" cy="530.8292" fill="black" r="0.936" stroke="none" /><circle cx="673.352" cy="723.9954" fill="black" r="0.738" stroke="none" /><circle cx="663.529" cy="524.5543" fill="black" r="0.738" stroke="none" /><circle cx="660.5075" cy="259.2292" fill="black" r="0.738" stroke="none" /><circle cx="652.2589" cy="366.0992" fill="black" r="0.738" stroke="none" /><circle cx="651.1449" cy="616.0454" fill="black" r="0.738" stroke="none" /><circle cx="645.3604" cy="566.0551" fill="black" r="0.738" stroke="none" /><circle cx="631.8272" cy="114.6721" fill="black" r="0.738" stroke="none" /><circle cx="631.8284" cy="113.973" fill="black" r="0.738" stroke="none" /><circle cx="626.8696" cy="583.1889" fill="black" r="0.738" stroke="none" /><circle cx="627.7782" cy="131.7914" fill="black" r="0.738" stroke="none" /><circle cx="623.9085" cy="308.2134" fill="black" r="0.738" stroke="none" /><circle cx="621.172" cy="704.427" fill="black" r="0.738" stroke="none" /><circle cx="609.0671" cy="555.5273" fill="black" r="0.738" stroke="none" /><circle cx="608.3343" cy="252.0305" fill="black" r="0.738" stroke="none" /><circle cx="603.0311" cy="485.0432" fill="black" r="0.738" stroke="none" /><circle cx="602.3229" cy="362.7281" fill="black" r="0.738" stroke="none" /><circle cx="601.3043" cy="72.8538" fill="black" r="0.738" stroke="none" /><circle cx="580.3275" cy="295.4553" fill="black" r="1.17" stroke="none" /><circle cx="579.449" cy="202.3755" fill="black" r="0.738" stroke="none" /><circle cx="571.887" cy="117.9026" fill="black" r="0.738" stroke="none" /><circle cx="570.655" cy="187.2535" fill="black" r="0.738" stroke="none" /><circle cx="549.153" cy="455.3112" fill="black" r="0.738" stroke="none" /><circle cx="545.3592" cy="169.2287" fill="black" r="1.476" stroke="none" /><circle cx="544.6037" cy="466.6491" fill="black" r="0.738" stroke="none" /><circle cx="544.7388" cy="351.0828" fill="black" r="0.738" stroke="none" /><circle cx="539.5164" cy="79.7749" fill="black" r="0.738" stroke="none" /><circle cx="528.3495" cy="503.0159" fill="black" r="0.936" stroke="none" /><circle cx="526.012" cy="283.4049" fill="black" r="0.936" stroke="none" /><circle cx="523.7786" cy="613.1832" fill="black" r="0.738" stroke="none" /><circle cx="505.8254" cy="148.7521" fill="black" r="0.738" stroke="none" /><circle cx="504.4463" cy="304.5013" fill="black" r="0.936" stroke="none" /><circle cx="491.7464" cy="666.0415" fill="black" r="0.738" stroke="none" /><circle cx="477.9678" cy="596.2521" fill="black" r="0.738" stroke="none" /><circle cx="476.9533" cy="700.8678" fill="black" r="0.738" stroke="none" /><circle cx="472.1165" cy="552.1593" fill="black" r="0.738" stroke="none" /><circle cx="472.3309" cy="229.0536" fill="black" r="0.738" stroke="none" /><circle cx="469.5177" cy="369.6614" fill="black" r="0.738" stroke="none" /><circle cx="468.9143" cy="249.216" fill="black" r="0.738" stroke="none" /><circle cx="455.4648" cy="275.8298" fill="black" r="0.738" stroke="none" /><circle cx="454.5795" cy="535.3822" fill="black" r="0.738" stroke="none" /><circle cx="436.1856" cy="290.8325" fill="black" r="0.738" stroke="none" /><circle cx="428.6512" cy="88.186" fill="black" r="0.738" stroke="none" /><circle cx="427.9906" cy="286.553" fill="black" r="0.738" stroke="none" /><circle cx="423.9645" cy="592.3639" fill="black" r="0.738" stroke="none" /><circle cx="422.8479" cy="560.5884" fill="black" r="0.738" stroke="none" /><circle cx="418.8883" cy="431.4185" fill="black" r="0.738" stroke="none" /><circle cx="417.1514" cy="414.4882" fill="black" r="0.738" stroke="none" /><circle cx="408.4734" cy="81.4572" fill="black" r="0.738" stroke="none" /><circle cx="401.0452" cy="383.3321" fill="black" r="0.738" stroke="none" /><circle cx="395.5477" cy="163.7258" fill="black" r="0.738" stroke="none" /><circle cx="394.2711" cy="610.1689" fill="black" r="0.738" stroke="none" /><circle cx="387.0833" cy="197.5149" fill="black" r="0.738" stroke="none" /><circle cx="383.2737" cy="367.1894" fill="black" r="0.738" stroke="none" /><circle cx="378.5207" cy="144.692" fill="black" r="0.738" stroke="none" /><circle cx="378.1306" cy="621.9593" fill="black" r="0.738" stroke="none" /><circle cx="377.7277" cy="102.3353" fill="black" r="0.738" stroke="none" /><circle cx="359.9862" cy="309.6858" fill="black" r="0.738" stroke="none" /><circle cx="355.0943" cy="289.789" fill="black" r="0.936" stroke="none" /><circle cx="354.7136" cy="220.5706" fill="black" r="0.738" stroke="none" /><circle cx="351.316" cy="516.3498" fill="black" r="0.738" stroke="none" /><circle cx="345.4136" cy="110.1178" fill="black" r="0.738" stroke="none" /><circle cx="342.364" cy="693.4184" fill="black" r="0.738" stroke="none" /><circle cx="340.5313" cy="511.5583" fill="black" r="1.476" stroke="none" /><circle cx="330.9779" cy="598.4235" fill="black" r="0.738" stroke="none" /><circle cx="329.2498" cy="98.77" fill="black" r="0.738" stroke="none" /><circle cx="329.1055" cy="477.7056" fill="black" r="0.738" stroke="none" /><circle cx="325.9737" cy="392.4433" fill="black" r="0.738" stroke="none" /><circle cx="306.3798" cy="121.843" fill="black" r="0.936" stroke="none" /><circle cx="299.4358" cy="412.1976" fill="black" r="0.738" stroke="none" /><circle cx="297.9118" cy="307.9899" fill="black" r="0.738" stroke="none" /><circle cx="295.662" cy="657.3307" fill="black" r="0.738" stroke="none" /><circle cx="294.4856" cy="100.9755" fill="black" r="0.738" stroke="none" /><circle cx="292.6404" cy="522.007" fill="black" r="0.738" stroke="none" /><circle cx="275.9763" cy="490.9618" fill="black" r="0.738" stroke="none" /><circle cx="273.1497" cy="365.7168" fill="black" r="0.738" stroke="none" /><circle cx="270.0836" cy="233.126" fill="black" r="0.738" stroke="none" /><circle cx="265.0309" cy="169.0417" fill="black" r="0.738" stroke="none" /><circle cx="262.3191" cy="446.9956" fill="black" r="0.738" stroke="none" /><circle cx="260.3921" cy="563.9739" fill="black" r="0.936" stroke="none" /><circle cx="247.5139" cy="590.723" fill="black" r="0.738" stroke="none" /><circle cx="246.6672" cy="270.1763" fill="black" r="0.738" stroke="none" /><circle cx="244.8127" cy="553.5344" fill="black" r="1.17" stroke="none" /><circle cx="241.352" cy="83.1143" fill="black" r="0.738" stroke="none" /><circle cx="240.9897" cy="483.3538" fill="black" r="0.738" stroke="none" /><circle cx="239.6663" cy="353.9922" fill="black" r="0.738" stroke="none" /><circle cx="225.1172" cy="268.8165" fill="black" r="0.738" stroke="none" /><circle cx="204.9734" cy="314.3441" fill="black" r="0.738" stroke="none" /><circle cx="205.5044" cy="674.3511" fill="black" r="0.936" stroke="none" /><circle cx="202.4924" cy="469.3991" fill="black" r="0.936" stroke="none" /><circle cx="186.3339" cy="105.9916" fill="black" r="0.738" stroke="none" /><circle cx="183.8644" cy="193.0087" fill="black" r="0.738" stroke="none" /><circle cx="183.3214" cy="134.2188" fill="black" r="0.738" stroke="none" /><circle cx="182.103" cy="699.7816" fill="black" r="0.738" stroke="none" /><circle cx="178.7993" cy="192.7566" fill="black" r="0.936" stroke="none" /><circle cx="176.2906" cy="245.165" fill="black" r="0.738" stroke="none" /><circle cx="171.3928" cy="405.7559" fill="black" r="0.738" stroke="none" /><circle cx="153.8114" cy="383.9811" fill="black" r="0.936" stroke="none" /><circle cx="153.4334" cy="501.8679" fill="black" r="0.738" stroke="none" /><circle cx="147.4767" cy="165.7398" fill="black" r="0.738" stroke="none" /><circle cx="147.4137" cy="680.5361" fill="black" r="0.738" stroke="none" /><circle cx="144.2569" cy="393.7921" fill="black" r="0.738" stroke="none" /><circle cx="143.2313" cy="496.2302" fill="black" r="0.738" stroke="none" /><circle cx="140.2327" cy="79.8479" fill="black" r="0.738" stroke="none" /><circle cx="138.8824" cy="638.1078" fill="black" r="0.738" stroke="none" /><circle cx="127.9168" cy="355.6838" fill="black" r="0.738" stroke="none" /><circle cx="115.8313" cy="612.3552" fill="black" r="0.738" stroke="none" /><circle cx="100.5633" cy="408.6235" fill="black" r="0.738" stroke="none" /><circle cx="98.8181" cy="362.8608" fill="black" r="0.738" stroke="none" /><circle cx="94.9227" cy="109.9216" fill="black" r="0.738" stroke="none" /><circle cx="94.032" cy="676.4454" fill="black" r="0.738" stroke="none" /><circle cx="83.0084" cy="201.2891" fill="black" r="0.738" stroke="none" /><circle cx="78.468" cy="438.2415" fill="black" r="0.738" stroke="none" /><circle cx="13.77" cy="786.23" fill="black" r="4.59" stroke="none" /><circle cx="13.77" cy="786.23" fill="black" r="4.59" stroke="none" /><text fill="black" font-family="monospace" font-size="12" x="10.77" y="775.64">1</text><circle cx="37.77" cy="786.23" fill="black" r="3.654" stroke="none" /><circle cx="37.77" cy="786.23" fill="black" r="3.654" stroke="none" /><text fill="black" font-family="monospace" font-size="12" x="34.769999999999996" y="775.64">2</text><circle cx="61.77" cy="786.23" fill="black" r="2.916" stroke="none" /><circle cx="61.77" cy="786.23" fill="black" r="2.916" stroke="none" /><text fill="black" font-family="monospace" font-size="12" x="58.769999999999996" y="775.64">3</text><circle cx="85.77" cy="786.23" fill="black" r="2.322" stroke="none" /><circle cx="85.77" cy="786.23" fill="black" r="2.322" stroke="none" /><text fill="black" font-family="monospace" font-size="12" x="82.77" y="775.64">4</text><circle cx="109.77" cy="786.23" fill="black" r="1.854" stroke="none" /><circle cx="109.77" cy="786.23" fill="black" r="1.854" stroke="none" /><text fill="black" font-family="monospace" font-size="12" x="106.77" y="775.64">5</text><circle cx="133.77" cy="786.23" fill="black" r="1.476" stroke="none" /><circle cx="133.77" cy="786.23" fill="black" r="1.476" stroke="none" /><text fill="black" font-family="monospace" font-size="12" x="130.77" y="775.64">6</text><circle cx="157.77" cy="786.23" fill="black" r="1.17" stroke="none" /><circle cx="157.77" cy="786.23" fill="black" r="1.17" stroke="none" /><text fill="black" font-family="monospace" font-size="12" x="154.77" y="775.64">7</text><circle cx="181.77" cy="786.23" fill="black" r="0.936" stroke="none" /><circle cx="181.77" cy="786.23" fill="black" r="0.936" stroke="none" /><text fill="black" font-family="monospace" font-size="12" x="178.77" y="775.64">8</text><circle cx="205.77" cy="786.23" fill="black" r="0.738" stroke="none" /><circle cx="205.77" cy="786.23" fill="black" r="0.738" stroke="none" /><text fill="black" font-family="monospace" font-size="12" x="202.77" y="775.64">9</text><text fill="gray" fill-opacity="0.5" font-family="monospace" font-size="12" x="727.71656130373" y="72.98510501000396">20h30m</text><text fill="gray" fill-opacity="0.5" font-family="monospace" font-size="12" x="618.4345074092321" y="72.78992699850426">20h35m</text><text fill="gray" fill-opacity="0.5" font-family="monospace" font-size="12" x="509.2042985778884" y="72.6728943839089">20h40m</text><text fill="gray" fill-opacity="0.5" font-family="monospace" font-size="12" x="400.0" y="72.63389587027416">20h45m</text><text fill="gray" fill-opacity="0.5" font-family="monospace" font-size="12" x="290.79570142211605" y="72.6728943839089">20h50m</text><text fill="gray" fill-opacity="0.5" font-family="monospace" font-size="12" x="181.56549259077238" y="72.7899269985042">20h55m</text><text fill="gray" fill-opacity="0.5" font-family="monospace" font-size="12" x="72.28343869627435" y="72.9851050100039">21h00m</text><text fill="gray" fill-opacity="0.5" font-family="monospace" font-size="12" x="74.8155893156819" y="684.6896737105475">-7°</text><text fill="gray" fill-opacity="0.5" font-family="monospace" font-size="12" x="74.30421259915096" y="597.2810473468231">-6°</text><text fill="gray" fill-opacity="0.5" font-family="monospace" font-size="12" x="73.8428484929862" y="509.9019588838037">-5°</text><text fill="gray" fill-opacity="0.5" font-family="monospace" font-size="12" x="73.4313872692531" y="422.5391324273302">-4°</text><text fill="gray" fill-opacity="0.5" font-family="monospace" font-size="12" x="73.06974957478008" y="335.17930194585847">-3°</text><text fill="gray" fill-opacity="0.5" font-family="monospace" font-size="12" x="72.75788636760848" y="247.8092032242098">-2°</text><text fill="gray" fill-opacity="0.5" font-family="monospace" font-size="12" x="72.4957788926136" y="160.4155658196585">-1°</text><text fill="gray" fill-opacity="0.5" font-family="monospace" font-size="12" x="72.28343869627435" y="72.9851050100039">+0°</text><text fill="black" font-family="monospace" font-size="12" x="12" y="48">&gt;&gt; No.402 20h30m 21h00m -7.5°+0.0°</text><a target="_self" xlink:href="hip021.svg"><text fill="black" font-family="monospace" font-size="12" x="12" y="36">&gt; No.21 18h40m 21h20m -22.5°+0.0°</text></a><a target="_self" xlink:href="hip001.svg"><text fill="black" font-family="monospace" font-size="12" x="12" y="24">No.1 00h 24h -90.0°+0.0°</text></a><polyline fill="none" points="727.7166,72.9851 716.7853,72.9621 705.8548,72.9398 694.925,72.9183 683.9959,72.8976 673.0674,72.8777 662.1397,72.8586 651.2125,72.8403 640.2859,72.8227 629.36,72.8059 618.4345,72.7899 607.5096,72.7747 596.5851,72.7603 585.6612,72.7466 574.7377,72.7337 563.8145,72.7217 552.8918,72.7103 541.9695,72.6998 531.0474,72.6901 520.1257,72.6811 509.2043,72.6729 498.2831,72.6655 487.3622,72.6589 476.4415,72.653 465.5209,72.6479 454.6005,72.6436 443.6803,72.6401 432.7601,72.6374 421.84,72.6355 410.92,72.6343 400.0,72.6339 389.08,72.6343 378.16,72.6355 367.2399,72.6374 356.3197,72.6401 345.3995,72.6436 334.4791,72.6479 323.5585,72.653 312.6378,72.6589 301.7169,72.6655 290.7957,72.6729 279.8743,72.6811 268.9526,72.6901 258.0305,72.6998 247.1082,72.7103 236.1855,72.7217 225.2623,72.7337 214.3388,72.7466 203.4149,72.7603 192.4904,72.7747 181.5655,72.7899 170.64,72.8059 159.7141,72.8227 148.7875,72.8403 137.8603,72.8586 126.9326,72.8777 116.0041,72.8976 105.075,72.9183 94.1452,72.9398 83.2147,72.9621 72.2834,72.9851" stroke="black" stroke-opacity="0.5" stroke-width="1" /><polyline fill="none" points="724.9099,728.4092 724.9797,717.4782 725.0487,706.548 725.117,695.6185 725.1844,684.6897 725.2511,673.7615 725.317,662.834 725.382,651.9071 725.4464,640.9808 725.5099,630.0551 725.5726,619.1299 725.6346,608.2052 725.6958,597.281 725.7562,586.3573 725.8158,575.434 725.8747,564.5111 725.9327,553.5886 725.99,542.6665 726.0465,531.7447 726.1022,520.8232 726.1572,509.902 726.2113,498.981 726.2647,488.0602 726.3173,477.1397 726.3691,466.2193 726.4202,455.2991 726.4704,444.379 726.5199,433.459 726.5686,422.5391 726.6165,411.6193 726.6637,400.6994 726.7101,389.7796 726.7557,378.8597 726.8005,367.9397 726.8445,357.0197 726.8878,346.0996 726.9303,335.1793 726.972,324.2589 727.0129,313.3383 727.053,302.4174 727.0924,291.4964 727.131,280.575 727.1688,269.6534 727.2059,258.7315 727.2421,247.8092 727.2776,236.8866 727.3123,225.9635 727.3462,215.0401 727.3794,204.1162 727.4118,193.1918 727.4434,182.2669 727.4742,171.3415 727.5042,160.4156 727.5335,149.489 727.562,138.5619 727.5897,127.6342 727.6166,116.7058 727.6428,105.7767 727.6681,94.8469 727.6927,83.9164 727.7166,72.9851" stroke="black" stroke-opacity="0.5" stroke-width="1" /><polyline fill="none" points="724.9099,728.4092 714.0725,728.3408 703.2357,728.2747 692.3997,728.2109 681.5643,728.1495 670.7296,728.0903 659.8955,728.0335 649.062,727.979 638.2291,727.9269 627.3967,727.877 616.5649,727.8295 605.7336,727.7843 594.9027,727.7415 584.0723,727.7009 573.2423,727.6627 562.4127,727.6267 551.5835,727.5931 540.7547,727.5619 529.9261,727.5329 519.0979,727.5063 508.2699,727.4819 497.4422,727.4599 486.6147,727.4402 475.7875,727.4229 464.9604,727.4078 454.1334,727.3951 443.3066,727.3846 432.4798,727.3765 421.6532,727.3707 410.8266,727.3673 400.0,727.3661 389.1734,727.3673 378.3468,727.3707 367.5202,727.3765 356.6934,727.3846 345.8666,727.3951 335.0396,727.4078 324.2125,727.4229 313.3853,727.4402 302.5578,727.4599 291.7301,727.4819 280.9021,727.5063 270.0739,727.5329 259.2453,727.5619 248.4165,727.5931 237.5873,727.6267 226.7577,727.6627 215.9277,727.7009 205.0973,727.7415 194.2664,727.7843 183.4351,727.8295 172.6033,727.877 161.7709,727.9269 150.938,727.979 140.1045,728.0335 129.2704,728.0903 118.4357,728.1495 107.6003,728.2109 96.7643,728.2747 85.9275,728.3408 75.0901,728.4092" stroke="black" stroke-opacity="0.5" stroke-width="1" /><polyline fill="none" points="75.0901,728.4092 75.0203,717.4782 74.9513,706.548 74.883,695.6185 74.8156,684.6897 74.7489,673.7615 74.683,662.834 74.618,651.9071 74.5536,640.9808 74.4901,630.0551 74.4274,619.1299 74.3654,608.2052 74.3042,597.281 74.2438,586.3573 74.1842,575.434 74.1253,564.5111 74.0673,553.5886 74.01,542.6665 73.9535,531.7447 73.8978,520.8232 73.8428,509.902 73.7887,498.981 73.7353,488.0602 73.6827,477.1397 73.6309,466.2193 73.5798,455.2991 73.5296,444.379 73.4801,433.459 73.4314,422.5391 73.3835,411.6193 73.3363,400.6994 73.2899,389.7796 73.2443,378.8597 73.1995,367.9397 73.1555,357.0197 73.1122,346.0996 73.0697,335.1793 73.028,324.2589 72.9871,313.3383 72.947,302.4174 72.9076,291.4964 72.869,280.575 72.8312,269.6534 72.7941,258.7315 72.7579,247.8092 72.7224,236.8866 72.6877,225.9635 72.6538,215.0401 72.6206,204.1162 72.5882,193.1918 72.5566,182.2669 72.5258,171.3415 72.4958,160.4156 72.4665,149.489 72.438,138.5619 72.4103,127.6342 72.3834,116.7058 72.3572,105.7767 72.3319,94.8469 72.3073,83.9164 72.2834,72.9851" stroke="black" stroke-opacity="0.5" stroke-width="1" /></svg>