<?xml version="1.0" encoding="utf-8" ?>
<svg baseProfile="tiny" height="800" version="1.2" width="800" xmlns="http://www.w3.org/2000/svg" xmlns:ev="http://www.w3.org/2001/xml-events" xmlns:xlink="http://www.w3.org/1999/xlink"><defs /><rect fill="none" height="800" stroke="black" stroke-width="2" width="800" x="0" y="0" /><polyline fill="none" points="662.4925,726.2346 662.398,715.308 662.3029,704.3821 662.2071,693.457 662.1108,682.5325 662.0138,671.6088 661.9163,660.6857 661.8181,649.7633 661.7193,638.8414 661.6199,627.9201 661.5198,616.9994 661.4192,606.0792 661.3179,595.1596 661.2161,584.2404 661.1136,573.3216 661.0105,562.4033 660.9068,551.4853 660.8025,540.5678 660.6975,529.6506 660.592,518.7337 660.4858,507.8171 660.379,496.9008 660.2716,485.9847 660.1636,475.0688 660.055,464.1531 659.9457,453.2376 659.8359,442.3222 659.7254,431.407 659.6143,420.4918 659.5026,409.5767 659.3902,398.6616 659.2773,387.7466 659.1637,376.8315 659.0495,365.9163 658.9347,355.0012 658.8193,344.0859 658.7033,333.1705 658.5866,322.2549 658.4693,311.3392 658.3514,300.4233 658.2329,289.5071 658.1137,278.5907 657.994,267.674 657.8736,256.7571 657.7526,245.8398 657.631,234.9221 657.5087,224.0041 657.3858,213.0856 657.2624,202.1668 657.1382,191.2474 657.0135,180.3276 656.8881,169.4073 656.7621,158.4865 656.6355,147.565 656.5083,136.643 656.3804,125.7204 656.2519,114.7972 656.1228,103.8732 655.993,92.9486 655.8627,82.0233 655.7317,71.0972" stroke="silver" stroke-opacity="0.5" stroke-width="1" /><polyline fill="none" points="554.1819,726.9757 554.1264,716.0537 554.0705,705.1324 554.0143,694.2119 553.9577,683.292 553.9008,672.3729 553.8435,661.4543 553.7859,650.5365 553.7279,639.6192 553.6695,628.7025 553.6108,617.7863 553.5517,606.8707 553.4922,595.9555 553.4324,585.0408 553.3723,574.1266 553.3117,563.2128 553.2508,552.2994 553.1896,541.3863 553.128,530.4736 553.066,519.5612 553.0037,508.6491 552.941,497.7373 552.8779,486.8257 552.8145,475.9143 552.7507,465.0031 552.6866,454.092 552.6221,443.1811 552.5572,432.2703 552.492,421.3596 552.4264,410.4489 552.3605,399.5382 552.2941,388.6276 552.2275,377.7169 552.1604,366.8062 552.093,355.8954 552.0252,344.9845 551.9571,334.0735 551.8886,323.1624 551.8198,312.251 551.7505,301.3395 551.681,290.4277 551.611,279.5157 551.5407,268.6033 551.47,257.6907 551.399,246.7777 551.3276,235.8644 551.2558,224.9507 551.1836,214.0366 551.1111,203.122 551.0383,192.207 550.965,181.2915 550.8914,170.3755 550.8174,159.4589 550.7431,148.5418 550.6684,137.624 550.5933,126.7057 550.5179,115.7867 550.4421,104.867 550.3659,93.9467 550.2893,83.0256 550.2124,72.1037" stroke="silver" stroke-opacity="0.5" stroke-width="1" /><polyline fill="none" points="445.905,727.3315 445.8885,716.4117 445.8718,705.4926 445.8551,694.5743 445.8383,683.6566 445.8213,672.7396 445.8043,661.8233 445.7871,650.9076 445.7698,639.9925 445.7525,629.078 445.735,618.164 445.7174,607.2506 445.6997,596.3376 445.6819,585.4251 445.664,574.5131 445.646,563.6014 445.6279,552.6902 445.6096,541.7793 445.5913,530.8687 445.5728,519.9585 445.5543,509.0486 445.5356,498.1389 445.5168,487.2294 445.498,476.3202 445.479,465.4111 445.4599,454.5022 445.4407,443.5934 445.4214,432.6847 445.402,421.7761 445.3824,410.8676 445.3628,399.9591 445.3431,389.0505 445.3232,378.142 445.3033,367.2334 445.2832,356.3247 445.263,345.416 445.2427,334.5071 445.2224,323.598 445.2019,312.6887 445.1813,301.7793 445.1605,290.8696 445.1397,279.9597 445.1188,269.0494 445.0977,258.1389 445.0766,247.228 445.0553,236.3168 445.034,225.4051 445.0125,214.4931 444.9909,203.5806 444.9692,192.6677 444.9474,181.7542 444.9255,170.8403 444.9035,159.9257 444.8814,149.0107 444.8591,138.095 444.8368,127.1787 444.8143,116.2617 444.7918,105.3441 444.7691,94.4258 444.7463,83.5067 444.7234,72.5869" stroke="silver" stroke-opacity="0.5" stroke-width="1" /><polyline fill="none" points="337.6382,727.3022 337.6606,716.3822 337.6832,705.463 337.7059,694.5445 337.7288,683.6266 337.7518,672.7095 337.775,661.793 337.7983,650.8771 337.8218,639.9618 337.8454,629.0471 337.8691,618.133 337.893,607.2193 337.917,596.3062 337.9412,585.3935 337.9656,574.4813 337.99,563.5695 338.0147,552.658 338.0394,541.747 338.0643,530.8362 338.0894,519.9258 338.1146,509.0157 338.14,498.1058 338.1655,487.1962 338.1911,476.2868 338.2169,465.3775 338.2428,454.4685 338.2689,443.5595 338.2952,432.6506 338.3215,421.7419 338.3481,410.8332 338.3747,399.9245 338.4015,389.0158 338.4285,378.107 338.4556,367.1983 338.4829,356.2894 338.5103,345.3805 338.5378,334.4714 338.5655,323.5622 338.5934,312.6527 338.6214,301.7431 338.6495,290.8333 338.6778,279.9232 338.7062,269.0128 338.7348,258.102 338.7635,247.191 338.7924,236.2796 338.8214,225.3678 338.8506,214.4556 338.8799,203.5429 338.9094,192.6298 338.939,181.7162 338.9688,170.802 338.9987,159.8873 339.0288,148.9721 339.059,138.0562 339.0893,127.1398 339.1199,116.2227 339.1505,105.3049 339.1813,94.3864 339.2123,83.4671 339.2434,72.5472" stroke="silver" stroke-opacity="0.5" stroke-width="1" /><polyline fill="none" points="229.3577,726.8879 229.4191,715.9654 229.4809,705.0435 229.5431,694.1224 229.6057,683.202 229.6688,672.2823 229.7322,661.3633 229.796,650.4449 229.8602,639.527 229.9248,628.6098 229.9898,617.6931 230.0552,606.7769 230.121,595.8612 230.1872,584.946 230.2538,574.0312 230.3208,563.1169 230.3881,552.2029 230.4559,541.2894 230.5241,530.3761 230.5927,519.4632 230.6617,508.5506 230.7311,497.6382 230.8009,486.726 230.8711,475.8141 230.9417,464.9024 231.0127,453.9908 231.0841,443.0794 231.1559,432.168 231.2281,421.2568 231.3007,410.3456 231.3737,399.4344 231.447,388.5232 231.5208,377.612 231.5951,366.7008 231.6697,355.7895 231.7447,344.8781 231.8201,333.9665 231.8959,323.0549 231.9721,312.143 232.0487,301.2309 232.1257,290.3186 232.2032,279.4061 232.281,268.4932 232.3592,257.5801 232.4378,246.6666 232.5169,235.7528 232.5963,224.8386 232.6762,213.9239 232.7564,203.0089 232.8371,192.0933 232.9181,181.1773 232.9996,170.2608 233.0815,159.3437 233.1638,148.4261 233.2465,137.5078 233.3295,126.589 233.413,115.6695 233.497,104.7493 233.5813,93.8284 233.666,82.9068 233.7511,71.9845" stroke="silver" stroke-opacity="0.5" stroke-width="1" /><polyline fill="none" points="121.0398,726.0882 121.1403,715.1606 121.2414,704.2339 121.3431,693.3078 121.4455,682.3825 121.5486,671.4578 121.6523,660.5338 121.7566,649.6105 121.8617,638.6877 121.9673,627.7656 122.0736,616.844 122.1806,605.9229 122.2882,595.0023 122.3965,584.0822 122.5054,573.1626 122.615,562.2433 122.7252,551.3245 122.8361,540.4061 122.9476,529.488 123.0598,518.5702 123.1726,507.6527 123.2861,496.7355 123.4003,485.8185 123.5151,474.9018 123.6305,463.9852 123.7466,453.0688 123.8634,442.1525 123.9808,431.2364 124.0989,420.3204 124.2176,409.4044 124.337,398.4884 124.4571,387.5725 124.5778,376.6565 124.6991,365.7405 124.8211,354.8245 124.9438,343.9083 125.0671,332.992 125.1911,322.0756 125.3158,311.159 125.4411,300.2422 125.5671,289.3252 125.6937,278.408 125.821,267.4904 125.9489,256.5726 126.0775,245.6544 126.2068,234.7359 126.3367,223.8171 126.4673,212.8978 126.5986,201.978 126.7305,191.0579 126.8631,180.1372 126.9963,169.216 127.1302,158.2943 127.2648,147.3721 127.4,136.4492 127.5359,125.5258 127.6725,114.6017 127.8097,103.6769 127.9476,92.7514 128.0862,81.8253 128.2254,70.8984" stroke="silver" stroke-opacity="0.5" stroke-width="1" /><polyline fill="none" points="731.3573,681.8389 727.0285,681.887 716.2073,682.0045 705.3867,682.118 694.5668,682.2276 683.7475,682.3332 672.9288,682.4348 662.1108,682.5325 651.2933,682.6263 640.4764,682.7161 629.6599,682.8019 618.844,682.8838 608.0286,682.9617 597.2136,683.0356 586.3991,683.1057 575.5849,683.1717 564.7711,683.2339 553.9577,683.292 543.1447,683.3462 532.3319,683.3965 521.5194,683.4428 510.7072,683.4852 499.8953,683.5237 489.0835,683.5581 478.272,683.5887 467.4606,683.6153 456.6494,683.6379 445.8383,683.6566 435.0273,683.6714 424.2163,683.6822 413.4055,683.689 402.5946,683.692 391.7838,683.6909 380.9729,683.686 370.162,683.677 359.351,683.6642 348.54,683.6474 337.7288,683.6266 326.9175,683.6019 316.106,683.5733 305.2944,683.5407 294.4825,683.5042 283.6704,683.4637 272.8581,683.4192 262.0455,683.3709 251.2326,683.3185 240.4193,683.2623 229.6057,683.202 218.7918,683.1379 207.9774,683.0698 197.1627,682.9977 186.3474,682.9217 175.5318,682.8417 164.7156,682.7577 153.8989,682.6699 143.0817,682.578 132.2639,682.4822 121.4455,682.3825 110.6266,682.2788 99.807,682.1711 88.9867,682.0595 78.1658,681.9439 68.6427,681.8389" stroke="silver" stroke-opacity="0.5" stroke-width="1" /><polyline fill="none" points="730.3545,594.4326 726.0389,594.483 715.2505,594.6062 704.4627,594.7251 693.6756,594.84 682.8891,594.9506 672.1032,595.0572 661.3179,595.1596 650.5332,595.2578 639.749,595.3519 628.9654,595.4418 618.1822,595.5276 607.3995,595.6093 596.6172,595.6868 585.8354,595.7602 575.054,595.8295 564.2729,595.8946 553.4922,595.9555 542.7119,596.0123 531.9318,596.065 521.1521,596.1136 510.3726,596.158 499.5933,596.1983 488.8142,596.2344 478.0354,596.2664 467.2567,596.2943 456.4781,596.318 445.6997,596.3376 434.9214,596.3531 424.1431,596.3644 413.3649,596.3716 402.5868,596.3747 391.8086,596.3736 381.0304,596.3684 370.2522,596.359 359.4739,596.3456 348.6955,596.3279 337.917,596.3062 327.1384,596.2803 316.3596,596.2503 305.5807,596.2161 294.8015,596.1778 284.0221,596.1354 273.2425,596.0889 262.4626,596.0381 251.6824,595.9833 240.9018,595.9243 230.121,595.8612 219.3397,595.794 208.5581,595.7226 197.776,595.647 186.9936,595.5674 176.2106,595.4835 165.4272,595.3956 154.6433,595.3035 143.8588,595.2072 133.0738,595.1068 122.2882,595.0023 111.502,594.8936 100.7152,594.7808 89.9277,594.6638 79.1396,594.5427 69.6455,594.4326" stroke="silver" stroke-opacity="0.5" stroke-width="1" /><polyline fill="none" points="729.3021,507.0572 725.0003,507.1099 714.2463,507.2386 703.4929,507.363 692.7402,507.483 681.9882,507.5987 671.2367,507.7101 660.4858,507.8171 649.7355,507.9198 638.9857,508.0181 628.2364,508.1122 617.4876,508.2019 606.7392,508.2872 595.9913,508.3683 585.2438,508.445 574.4968,508.5174 563.75,508.5854 553.0037,508.6491 542.2576,508.7085 531.5119,508.7636 520.7665,508.8144 510.0213,508.8608 499.2763,508.9029 488.5316,508.9407 477.787,508.9741 467.0426,509.0033 456.2984,509.0281 445.5543,509.0486 434.8103,509.0647 424.0663,509.0766 413.3224,509.0841 402.5785,509.0873 391.8347,509.0862 381.0908,509.0807 370.3469,509.0709 359.6029,509.0569 348.8588,509.0384 338.1146,509.0157 327.3703,508.9886 316.6258,508.9573 305.8812,508.9216 295.1363,508.8815 284.3913,508.8372 273.6459,508.7885 262.9003,508.7355 252.1545,508.6782 241.4083,508.6165 230.6617,508.5506 219.9148,508.4803 209.1675,508.4056 198.4198,508.3267 187.6717,508.2434 176.9231,508.1558 166.1741,508.0638 155.4245,507.9675 144.6744,507.8669 133.9238,507.762 123.1726,507.6527 112.4208,507.5391 101.6684,507.4211 90.9154,507.2988 80.1617,507.1722 70.6979,507.0572" stroke="silver" stroke-opacity="0.5" stroke-width="1" /><polyline fill="none" points="728.1999,419.6993 723.9125,419.7543 713.1946,419.8885 702.4773,420.0182 691.7606,420.1434 681.0446,420.264 670.3291,420.3802 659.6143,420.4918 648.8999,420.5989 638.1862,420.7015 627.4729,420.7995 616.76,420.8931 606.0477,420.9821 595.3358,421.0666 584.6243,421.1466 573.9131,421.2221 563.2024,421.2931 552.492,421.3596 541.7819,421.4215 531.0721,421.479 520.3626,421.5319 509.6534,421.5803 498.9444,421.6242 488.2356,421.6636 477.5269,421.6985 466.8185,421.7289 456.1102,421.7548 445.402,421.7761 434.6939,421.793 423.9858,421.8053 413.2779,421.8132 402.5699,421.8165 391.862,421.8153 381.154,421.8097 370.446,421.7995 359.7379,421.7848 349.0298,421.7656 338.3215,421.7419 327.6131,421.7137 316.9046,421.6809 306.1959,421.6437 295.487,421.6019 284.7778,421.5557 274.0685,421.5049 263.3588,421.4497 252.6489,421.3899 241.9386,421.3256 231.2281,421.2568 220.5171,421.1834 209.8058,421.1056 199.0941,421.0233 188.3819,420.9364 177.6694,420.845 166.9563,420.7491 156.2427,420.6487 145.5287,420.5438 134.8141,420.4343 124.0989,420.3204 113.3831,420.2019 102.6668,420.0789 91.9498,419.9513 81.2322,419.8193 71.8001,419.6993" stroke="silver" stroke-opacity="0.5" stroke-width="1" /><polyline fill="none" points="727.0478,332.3457 722.7755,332.4029 712.0952,332.5426 701.4156,332.6776 690.7366,332.8079 680.0583,332.9334 669.3805,333.0543 658.7033,333.1705 648.0266,333.2819 637.3504,333.3887 626.6748,333.4907 615.9996,333.5881 605.3248,333.6807 594.6505,333.7687 583.9766,333.8519 573.3031,333.9305 562.6299,334.0044 551.9571,334.0735 541.2846,334.138 530.6124,334.1978 519.9405,334.2529 509.2688,334.3033 498.5974,334.349 487.9261,334.39 477.2551,334.4263 466.5842,334.4579 455.9134,334.4848 445.2427,334.5071 434.5722,334.5246 423.9017,334.5374 413.2313,334.5456 402.5609,334.5491 391.8905,334.5479 381.2201,334.542 370.5496,334.5314 359.8791,334.5161 349.2085,334.4961 338.5378,334.4714 327.867,334.442 317.196,334.408 306.5249,334.3692 295.8535,334.3258 285.1819,334.2776 274.5101,334.2248 263.8381,334.1673 253.1657,334.1051 242.4931,334.0382 231.8201,333.9665 221.1467,333.8902 210.473,333.8092 199.7989,333.7235 189.1244,333.6331 178.4494,333.538 167.774,333.4382 157.098,333.3337 146.4216,333.2245 135.7447,333.1106 125.0671,332.992 114.3891,332.8687 103.7104,332.7407 93.0311,332.608 82.3511,332.4705 72.9522,332.3457" stroke="silver" stroke-opacity="0.5" stroke-width="1" /><polyline fill="none" points="725.8455,244.9831 721.5889,245.0426 710.948,245.1876 700.3077,245.3278 689.6681,245.4632 679.029,245.5936 668.3905,245.7191 657.7526,245.8398 647.1152,245.9555 636.4783,246.0664 625.8419,246.1724 615.206,246.2735 604.5705,246.3698 593.9354,246.4611 583.3008,246.5476 572.6665,246.6292 562.0326,246.7059 551.399,246.7777 540.7657,246.8447 530.1327,246.9068 519.5,246.964 508.8675,247.0163 498.2352,247.0638 487.6032,247.1064 476.9713,247.1441 466.3396,247.177 455.7081,247.2049 445.0766,247.228 434.4452,247.2462 423.8139,247.2596 413.1827,247.2681 402.5515,247.2717 391.9203,247.2704 381.2891,247.2643 370.6578,247.2533 360.0265,247.2374 349.3951,247.2166 338.7635,247.191 328.1319,247.1605 317.5001,247.1251 306.8682,247.0849 296.236,247.0397 285.6036,246.9897 274.971,246.9349 264.3382,246.8751 253.705,246.8105 243.0716,246.741 232.4378,246.6666 221.8037,246.5874 211.1693,246.5032 200.5344,246.4142 189.8991,246.3203 179.2634,246.2216 168.6272,246.1179 157.9906,246.0094 147.3534,245.8959 136.7157,245.7776 126.0775,245.6544 115.4388,245.5264 104.7994,245.3934 94.1594,245.2556 83.5188,245.1128 74.1545,244.9831" stroke="silver" stroke-opacity="0.5" stroke-width="1" /><polyline fill="none" points="724.5929,157.5984 720.3527,157.6599 709.7528,157.8104 699.1535,157.9557 688.5548,158.096 677.9567,158.2312 667.3591,158.3614 656.7621,158.4865 646.1657,158.6065 635.5697,158.7214 624.9742,158.8313 614.3792,158.9362 603.7846,159.0359 593.1904,159.1306 582.5966,159.2203 572.0032,159.3049 561.4102,159.3844 550.8174,159.4589 540.225,159.5283 529.6329,159.5927 519.041,159.652 508.4494,159.7063 497.858,159.7555 487.2668,159.7996 476.6757,159.8388 466.0849,159.8728 455.4941,159.9018 444.9035,159.9257 434.313,159.9446 423.7225,159.9585 413.1321,159.9673 402.5417,159.971 391.9513,159.9697 381.3609,159.9633 370.7705,159.9519 360.18,159.9354 349.5894,159.9139 338.9987,159.8873 328.4079,159.8557 317.817,159.819 307.2258,159.7773 296.6345,159.7305 286.043,159.6787 275.4512,159.6218 264.8592,159.5599 254.267,159.4929 243.6744,159.4208 233.0815,159.3437 222.4882,159.2615 211.8946,159.1743 201.3007,159.082 190.7063,158.9847 180.1115,158.8823 169.5162,158.7748 158.9205,158.6623 148.3242,158.5447 137.7275,158.422 127.1302,158.2943 116.5324,158.1615 105.934,158.0237 95.335,157.8808 84.7353,157.7328 75.4071,157.5984" stroke="silver" stroke-opacity="0.5" stroke-width="1" /><polyline fill="none" points="723.2896,70.178 719.0666,70.2418 708.5093,70.3975 697.9526,70.5479 687.3965,70.6931 676.841,70.8331 666.2861,70.9678 655.7317,71.0972 645.1778,71.2214 634.6244,71.3404 624.0715,71.4542 613.519,71.5627 602.9669,71.6659 592.4153,71.764 581.8641,71.8568 571.3132,71.9443 560.7626,72.0266 550.2124,72.1037 539.6625,72.1756 529.1129,72.2422 518.5635,72.3036 508.0144,72.3598 497.4655,72.4107 486.9167,72.4564 476.3682,72.4969 465.8198,72.5321 455.2715,72.5621 444.7234,72.5869 434.1753,72.6065 423.6274,72.6208 413.0794,72.6299 402.5315,72.6337 391.9836,72.6324 381.4357,72.6258 370.8877,72.614 360.3397,72.5969 349.7916,72.5747 339.2434,72.5472 328.695,72.5144 318.1466,72.4765 307.5979,72.4333 297.0491,72.3849 286.5001,72.3312 275.9508,72.2723 265.4013,72.2082 254.8516,72.1389 244.3015,72.0643 233.7511,71.9845 223.2004,71.8994 212.6493,71.8092 202.0979,71.7136 191.546,71.6129 180.9938,71.5069 170.4411,71.3957 159.8879,71.2792 149.3343,71.1575 138.7801,71.0306 128.2254,70.8984 117.6702,70.7609 107.1144,70.6183 96.558,70.4703 86.001,70.3172 76.7104,70.178" stroke="silver" stroke-opacity="0.5" stroke-width="1" /><circle cx="730.3962" cy="688.8447" fill="black" r="0.738" stroke="none" /><circle cx="726.1677" cy="448.7314" fill="black" r="0.738" stroke="none" /><circle cx="718.7608" cy="332.5433" fill="black" r="0.738" stroke="none" /><circle cx="716.2921" cy="313.7045" fill="black" r="0.738" stroke="none" /><circle cx="713.3972" cy="457.6256" fill="black" r="0.738" stroke="none" /><circle cx="711.5889" cy="646.6495" fill="black" r="0.738" stroke="none" /><circle cx="698.6713" cy="454.0429" fill="black" r="0.738" stroke="none" /><circle cx="696.2122" cy="665.0783" fill="black" r="0.936" stroke="none" /><circle cx="683.5335" cy="412.8123" fill="black" r="0.936" stroke="none" /><circle cx="686.5481" cy="703.5486" fill="black" r="0.738" stroke="none" /><circle cx="679.5626" cy="240.4328" fill="black" r="0.738" stroke="none" /><circle cx="677.3975" cy="316.98" fill="black" r="0.738" stroke="none" /><circle cx="675.8337" cy="337.0869" fill="black" r="0.738" stroke="none" /><circle cx="668.0542" cy="360.1434" fill="black" r="0.738" stroke="none" /><circle cx="663.9579" cy="164.6936" fill="black" r="0.738" stroke="none" /><circle cx="655.463" cy="309.5373" fill="black" r="0.738" stroke="none" /><circle cx="648.3515" cy="82.7237" fill="black" r="0.738" stroke="none" /><circle cx="654.0739" cy="673.8632" fill="black" r="0.738" stroke="none" /><circle cx="641.0973" cy="494.2884" fill="black" r="0.738" stroke="none" /><circle cx="638.1494" cy="284.914" fill="black" r="0.738" stroke="none" /><circle cx="637.1931" cy="388.0533" fill="black" r="0.738" stroke="none" /><circle cx="633.8185" cy="321.4597" fill="black" r="0.936" stroke="none" /><circle cx="629.7323" cy="201.3267" fill="black" r="0.738" stroke="none" /><circle cx="623.878" cy="254.3135" fill="black" r="0.738" stroke="none" /><circle cx="624.372" cy="343.117" fill="black" r="0.738" stroke="none" /><circle cx="620.667" cy="118.2461" fill="black" r="0.738" stroke="none" /><circle cx="616.136" cy="644.2859" fill="black" r="0.738" stroke="none" /><circle cx="610.3435" cy="126.9111" fill="black" r="0.738" stroke="none" /><circle cx="612.6255" cy="428.6985" fill="black" r="0.738" stroke="none" /><circle cx="604.5801" cy="346.6961" fill="black" r="0.738" stroke="none" /><circle cx="594.609" cy="286.6218" fill="black" r="0.738" stroke="none" /><circle cx="595.2218" cy="520.7724" fill="black" r="0.738" stroke="none" /><circle cx="579.8003" cy="429.7363" fill="black" r="0.738" stroke="none" /><circle cx="576.5035" cy="448.9647" fill="black" r="0.738" stroke="none" /><circle cx="563.8344" cy="166.354" fill="black" r="0.738" stroke="none" /><circle cx="564.782" cy="311.5544" fill="black" r="0.738" stroke="none" /><circle cx="564.8884" cy="470.6033" fill="black" r="0.738" stroke="none" /><circle cx="564.1007" cy="552.2365" fill="black" r="0.738" stroke="none" /><circle cx="561.9621" cy="428.3717" fill="black" r="0.738" stroke="none" /><circle cx="526.7347" cy="629.6202" fill="black" r="0.738" stroke="none" /><circle cx="525.4962" cy="527.5606" fill="black" r="0.738" stroke="none" /><circle cx="523.2918" cy="693.6558" fill="black" r="0.738" stroke="none" /><circle cx="515.2986" cy="345.622" fill="black" r="0.738" stroke="none" /><circle cx="507.0712" cy="358.8387" fill="black" r="0.738" stroke="none" /><circle cx="501.2847" cy="205.6692" fill="black" r="0.738" stroke="none" /><circle cx="501.156" cy="723.9654" fill="black" r="0.738" stroke="none" /><circle cx="497.4251" cy="405.3095" fill="black" r="0.738" stroke="none" /><circle cx="479.9733" cy="492.8206" fill="black" r="0.738" stroke="none" /><circle cx="480.0345" cy="632.4955" fill="black" r="0.738" stroke="none" /><circle cx="476.8553" cy="187.4303" fill="black" r="0.738" stroke="none" /><circle cx="466.7232" cy="518.7796" fill="black" r="0.738" stroke="none" /><circle cx="465.3852" cy="365.0066" fill="black" r="0.738" stroke="none" /><circle cx="464.7478" cy="669.2107" fill="black" r="0.738" stroke="none" /><circle cx="444.9839" cy="580.1884" fill="black" r="0.738" stroke="none" /><circle cx="443.4357" cy="326.4813" fill="black" r="0.738" stroke="none" /><circle cx="436.7315" cy="188.1427" fill="black" r="0.738" stroke="none" /><circle cx="436.0677" cy="144.9226" fill="black" r="0.738" stroke="none" /><circle cx="433.5388" cy="455.6549" fill="black" r="0.738" stroke="none" /><circle cx="433.2015" cy="528.792" fill="black" r="0.738" stroke="none" /><circle cx="423.4505" cy="398.8546" fill="black" r="0.738" stroke="none" /><circle cx="415.4081" cy="268.5641" fill="black" r="0.738" stroke="none" /><circle cx="410.3936" cy="102.4183" fill="black" r="0.738" stroke="none" /><circle cx="401.6142" cy="222.0448" fill="black" r="0.738" stroke="none" /><circle cx="398.5402" cy="484.6505" fill="black" r="0.738" stroke="none" /><circle cx="398.5315" cy="647.4509" fill="black" r="0.738" stroke="none" /><circle cx="395.1311" cy="350.3445" fill="black" r="0.738" stroke="none" /><circle cx="392.3243" cy="602.3975" fill="black" r="0.738" stroke="none" /><circle cx="390.8285" cy="437.174" fill="black" r="0.936" stroke="none" /><circle cx="389.4702" cy="211.4797" fill="black" r="0.738" stroke="none" /><circle cx="389.3494" cy="490.932" fill="black" r="0.738" stroke="none" /><circle cx="374.6948" cy="289.3281" fill="black" r="0.738" stroke="none" /><circle cx="366.5702" cy="724.8143" fill="black" r="0.936" stroke="none" /><circle cx="364.6331" cy="412.978" fill="black" r="0.738" stroke="none" /><circle cx="355.631" cy="519.9605" fill="black" r="2.322" stroke="none" /><circle cx="349.238" cy="92.4907" fill="black" r="0.936" stroke="none" /><circle cx="340.9887" cy="241.7847" fill="black" r="0.738" stroke="none" /><circle cx="337.0768" cy="273.46" fill="black" r="0.738" stroke="none" /><circle cx="332.9155" cy="632.9653" fill="black" r="0.738" stroke="none" /><circle cx="334.4119" cy="79.5218" fill="black" r="0.738" stroke="none" /><circle cx="321.1198" cy="684.6352" fill="black" r="0.738" stroke="none" /><circle cx="319.2946" cy="345.15" fill="black" r="0.738" stroke="none" /><circle cx="311.178" cy="104.5966" fill="black" r="0.738" stroke="none" /><circle cx="309.472" cy="566.3714" fill="black" r="0.738" stroke="none" /><circle cx="301.3563" cy="184.202" fill="black" r="0.936" stroke="none" /><circle cx="284.947" cy="479.8604" fill="black" r="0.738" stroke="none" /><circle cx="274.1487" cy="354.6474" fill="black" r="0.738" stroke="none" /><circle cx="269.0939" cy="405.9435" fill="black" r="0.738" stroke="none" /><circle cx="252.2306" cy="573.8951" fill="black" r="0.738" stroke="none" /><circle cx="235.0996" cy="659.9964" fill="black" r="0.738" stroke="none" /><circle cx="237.0888" cy="156.0544" fill="black" r="0.738" stroke="none" /><circle cx="229.3162" cy="438.0919" fill="black" r="0.738" stroke="none" /><circle cx="220.5629" cy="426.8581" fill="black" r="0.738" stroke="none" /><circle cx="210.2239" cy="279.1522" fill="black" r="0.738" stroke="none" /><circle cx="206.7369" cy="476.2585" fill="black" r="0.738" stroke="none" /><circle cx="202.6022" cy="671.7637" fill="black" r="0.738" stroke="none" /><circle cx="201.6071" cy="652.7119" fill="black" r="0.738" stroke="none" /><circle cx="193.3176" cy="591.9464" fill="black" r="0.738" stroke="none" /><circle cx="195.2995" cy="330.5428" fill="black" r="0.738" stroke="none" /><circle cx="191.361" cy="413.016" fill="black" r="0.936" stroke="none" /><circle cx="187.7509" cy="692.3688" fill="black" r="0.738" stroke="none" /><circle cx="188.2533" cy="588.677" fill="black" r="0.738" stroke="none" /><circle cx="190.5306" cy="106.4729" fill="black" r="0.738" stroke="none" /><circle cx="172.909" cy="183.6205" fill="black" r="0.738" stroke="none" /><circle cx="172.6246" cy="203.4468" fill="black" r="0.738" stroke="none" /><circle cx="158.5766" cy="365.309" fill="black" r="0.738" stroke="none" /><circle cx="145.63" cy="480.0163" fill="black" r="0.738" stroke="none" /><circle cx="139.2812" cy="267.5566" fill="black" r="0.936" stroke="none" /><circle cx="137.0166" cy="111.6576" fill="black" r="0.738" stroke="none" /><circle cx="130.9162" cy="613.2592" fill="black" r="0.738" stroke="none" /><circle cx="133.5728" cy="109.6052" fill="black" r="0.738" stroke="none" /><circle cx="120.176" cy="556.2781" fill="black" r="0.738" stroke="none" /><circle cx="119.3757" cy="250.816" fill="black" r="0.738" stroke="none" /><circle cx="112.7508" cy="430.6761" fill="black" r="0.738" stroke="none" /><circle cx="109.4813" cy="172.1411" fill="black" r="0.738" stroke="none" /><circle cx="102.1073" cy="498.9522" fill="black" r="0.738" stroke="none" /><circle cx="92.6558" cy="721.0929" fill="black" r="0.738" stroke="none" /><circle cx="93.6841" cy="275.0435" fill="black" r="0.738" stroke="none" /><circle cx="83.7194" cy="325.8486" fill="black" r="1.17" stroke="none" /><circle cx="77.0392" cy="379.0544" fill="black" r="0.738" stroke="none" /><circle cx="68.8637" cy="669.8629" fill="black" r="0.738" stroke="none" /><circle cx="13.77" cy="786.23" fill="black" r="4.59" stroke="none" /><circle cx="13.77" cy="786.23" fill="black" r="4.59" stroke="none" /><text fill="black" font-family="monospace" font-size="12" x="10.77" y="775.64">1</text><circle cx="37.77" cy="786.23" fill="black" r="3.654" stroke="none" /><circle cx="37.77" cy="786.23" fill="black" r="3.654" stroke="none" /><text fill="black" font-family="monospace" font-size="12" x="34.769999999999996" y="775.64">2</text><circle cx="61.77" cy="786.23" fill="black" r="2.916" stroke="none" /><circle cx="61.77" cy="786.23" fill="black" r="2.916" stroke="none" /><text fill="black" font-family="monospace" font-size="12" x="58.769999999999996" y="775.64">3</text><circle cx="85.77" cy="786.23" fill="black" r="2.322" stroke="none" /><circle cx="85.77" cy="786.23" fill="black" r="2.322" stroke="none" /><text fill="black" font-family="monospace" font-size="12" x="82.77" y="775.64">4</text><circle cx="109.77" cy="786.23" fill="black" r="1.854" stroke="none" /><circle cx="109.77" cy="786.23" fill="black" r="1.854" stroke="none" /><text fill="black" font-family="monospace" font-size="12" x="106.77" y="775.64">5</text><circle cx="133.77" cy="786.23" fill="black" r="1.476" stroke="none" /><circle cx="133.77" cy="786.23" fill="black" r="1.476" stroke="none" /><text fill="black" font-family="monospace" font-size="12" x="130.77" y="775.64">6</text><circle cx="157.77" cy="786.23" fill="black" r="1.17" stroke="none" /><circle cx="157.77" cy="786.23" fill="black" r="1.17" stroke="none" /><text fill="black" font-family="monospace" font-size="12" x="154.77" y="775.64">7</text><circle cx="181.77" cy="786.23" fill="black" r="0.936" stroke="none" /><circle cx="181.77" cy="786.23" fill="black" r="0.936" stroke="none" /><text fill="black" font-family="monospace" font-size="12" x="178.77" y="775.64">8</text><circle cx="205.77" cy="786.23" fill="black" r="0.738" stroke="none" /><circle cx="205.77" cy="786.23" fill="black" r="0.738" stroke="none" /><text fill="black" font-family="monospace" font-size="12" x="202.77" y="775.64">9</text><text fill="gray" fill-opacity="0.5" font-family="monospace" font-size="12" x="662.492504238103" y="726.2346166758588">21h30m</text><text fill="gray" fill-opacity="0.5" font-family="monospace" font-size="12" x="554.1818549253649" y="726.9757334620272">21h35m</text><text fill="gray" fill-opacity="0.5" font-family="monospace" font-size="12" x="445.9049835038283" y="727.3315000121411">21h40m</text><text fill="gray" fill-opacity="0.5" font-family="monospace" font-size="12" x="337.63816696161024" y="727.302241608391">21h45m</text><text fill="gray" fill-opacity="0.5" font-family="monospace" font-size="12" x="229.35769067215458" y="726.8879315031991">21h50m</text><text fill="gray" fill-opacity="0.5" font-family="monospace" font-size="12" x="121.03982861704526" y="726.0881908680246">21h55m</text><text fill="gray" fill-opacity="0.5" font-family="monospace" font-size="12" x="68.64274660233957" y="681.8389141919388">+8°</text><text fill="gray" fill-opacity="0.5" font-family="monospace" font-size="12" x="69.6454696113102" y="594.4326330539807">+9°</text><text fill="gray" fill-opacity="0.5" font-family="monospace" font-size="12" x="70.69787367158995" y="507.0571874107499">+10°</text><text fill="gray" fill-opacity="0.5" font-family="monospace" font-size="12" x="71.80007815860904" y="419.69930120520894">+11°</text><text fill="gray" fill-opacity="0.5" font-family="monospace" font-size="12" x="72.9522327613102" y="332.3457090314413">+12°</text><text fill="gray" fill-opacity="0.5" font-family="monospace" font-size="12" x="74.1545175567826" y="244.98314808867005">+13°</text><text fill="gray" fill-opacity="0.5" font-family="monospace" font-size="12" x="75.40714312416429" y="157.59835013862846">+14°</text><text fill="gray" fill-opacity="0.5" font-family="monospace" font-size="12" x="76.71035069797057" y="70.17803345593819">+15°</text><text fill="black" font-family="monospace" font-size="12" x="12" y="48">&gt;&gt; No.499 21h27m 21h57m +7.5°+15.0°</text><a target="_self" xlink:href="hip031.svg"><text fill="black" font-family="monospace" font-size="12" x="12" y="36">&gt; No.31 21h20m 24h00m +0.0°+22.5°</text></a><a target="_self" xlink:href="hip002.svg"><text fill="black" font-family="monospace" font-size="12" x="12" y="24">No.2 00h 24h +0.0°+90.0°</text></a><polyline fill="none" points="723.2896,70.178 719.0666,70.2418 708.5093,70.3975 697.9526,70.5479 687.3965,70.6931 676.841,70.8331 666.2861,70.9678 655.7317,71.0972 645.1778,71.2214 634.6244,71.3404 624.0715,71.4542 613.519,71.5627 602.9669,71.6659 592.4153,71.764 581.8641,71.8568 571.3132,71.9443 560.7626,72.0266 550.2124,72.1037 539.6625,72.1756 529.1129,72.2422 518.5635,72.3036 508.0144,72.3598 497.4655,72.4107 486.9167,72.4564 476.3682,72.4969 465.8198,72.5321 455.2715,72.5621 444.7234,72.5869 434.1753,72.6065 423.6274,72.6208 413.0794,72.6299 402.5315,72.6337 391.9836,72.6324 381.4357,72.6258 370.8877,72.614 360.3397,72.5969 349.7916,72.5747 339.2434,72.5472 328.695,72.5144 318.1466,72.4765 307.5979,72.4333 297.0491,72.3849 286.5001,72.3312 275.9508,72.2723 265.4013,72.2082 254.8516,72.1389 244.3015,72.0643 233.7511,71.9845 223.2004,71.8994 212.6493,71.8092 202.0979,71.7136 191.546,71.6129 180.9938,71.5069 170.4411,71.3957 159.8879,71.2792 149.3343,71.1575 138.7801,71.0306 128.2254,70.8984 117.6702,70.7609 107.1144,70.6183 96.558,70.4703 86.001,70.3172 76.7104,70.178" stroke="black" stroke-opacity="0.5" stroke-width="1" /><polyline fill="none" points="731.84,725.5578 731.7205,714.6269 731.6002,703.6969 731.4791,692.7675 731.3573,681.8389 731.2346,670.911 731.1112,659.9837 730.987,649.0571 730.8621,638.1311 730.7364,627.2057 730.6099,616.2808 730.4826,605.3565 730.3545,594.4326 730.2257,583.5093 730.0961,572.5864 729.9657,561.6639 729.8345,550.7419 729.7026,539.8202 729.5699,528.8989 729.4364,517.9779 729.3021,507.0572 729.1671,496.1368 729.0312,485.2166 728.8946,474.2966 728.7573,463.3769 728.6191,452.4573 728.4801,441.5379 728.3404,430.6185 728.1999,419.6993 728.0586,408.7801 727.9166,397.861 727.7737,386.9419 727.6301,376.0228 727.4857,365.1036 727.3405,354.1844 727.1945,343.2651 727.0478,332.3457 726.9002,321.4262 726.7519,310.5064 726.6028,299.5865 726.4529,288.6664 726.3022,277.746 726.1508,266.8254 725.9985,255.9044 725.8455,244.9831 725.6917,234.0615 725.5371,223.1396 725.3817,212.2172 725.2255,201.2944 725.0685,190.3711 724.9107,179.4474 724.7522,168.5231 724.5929,157.5984 724.4327,146.673 724.2718,135.7471 724.1101,124.8206 723.9476,113.8935 723.7843,102.9657 723.6202,92.0372 723.4553,81.108 723.2896,70.178" stroke="black" stroke-opacity="0.5" stroke-width="1" /><polyline fill="none" points="731.84,725.5578 727.505,725.6047 716.6679,725.7194 705.8315,725.8301 694.9958,725.937 684.1608,726.0401 673.3263,726.1393 662.4925,726.2346 651.6592,726.3261 640.8265,726.4137 629.9944,726.4974 619.1627,726.5773 608.3315,726.6534 597.5007,726.7256 586.6704,726.7939 575.8405,726.8584 565.011,726.919 554.1819,726.9757 543.353,727.0286 532.5245,727.0777 521.6963,727.1229 510.8684,727.1643 500.0407,727.2018 489.2132,727.2354 478.3859,727.2652 467.5588,727.2912 456.7318,727.3133 445.905,727.3315 435.0782,727.3459 424.2516,727.3564 413.425,727.3631 402.5984,727.366 391.7718,727.365 380.9452,727.3601 370.1186,727.3514 359.2919,727.3389 348.4651,727.3225 337.6382,727.3022 326.8111,727.2781 315.9839,727.2502 305.1565,727.2184 294.3289,727.1827 283.5011,727.1432 272.673,727.0999 261.8447,727.0527 251.016,727.0016 240.187,726.9467 229.3577,726.8879 218.528,726.8253 207.6979,726.7588 196.8673,726.6885 186.0364,726.6143 175.2049,726.5363 164.373,726.4544 153.5405,726.3686 142.7075,726.279 131.874,726.1855 121.0398,726.0882 110.2051,725.987 99.3697,725.8819 88.5336,725.773 77.6969,725.6602 68.16,725.5578" stroke="black" stroke-opacity="0.5" stroke-width="1" /><polyline fill="none" points="68.16,725.5578 68.2795,714.6269 68.3998,703.6969 68.5209,692.7675 68.6427,681.8389 68.7654,670.911 68.8888,659.9837 69.013,649.0571 69.1379,638.1311 69.2636,627.2057 69.3901,616.2808 69.5174,605.3565 69.6455,594.4326 69.7743,583.5093 69.9039,572.5864 70.0343,561.6639 70.1655,550.7419 70.2974,539.8202 70.4301,528.8989 70.5636,517.9779 70.6979,507.0572 70.8329,496.1368 70.9688,485.2166 71.1054,474.2966 71.2427,463.3769 71.3809,452.4573 71.5199,441.5379 71.6596,430.6185 71.8001,419.6993 71.9414,408.7801 72.0834,397.861 72.2263,386.9419 72.3699,376.0228 72.5143,365.1036 72.6595,354.1844 72.8055,343.2651 72.9522,332.3457 73.0998,321.4262 73.2481,310.5064 73.3972,299.5865 73.5471,288.6664 73.6978,277.746 73.8492,266.8254 74.0015,255.9044 74.1545,244.9831 74.3083,234.0615 74.4629,223.1396 74.6183,212.2172 74.7745,201.2944 74.9315,190.3711 75.0893,179.4474 75.2478,168.5231 75.4071,157.5984 75.5673,146.673 75.7282,135.7471 75.8899,124.8206 76.0524,113.8935 76.2157,102.9657 76.3798,92.0372 76.5447,81.108 76.7104,70.178" stroke="black" stroke-opacity="0.5" stroke-width="1" /></svg>