<?xml version="1.0" encoding="utf-8" ?>
<svg baseProfile="tiny" height="800" version="1.2" width="800" xmlns="http://www.w3.org/2000/svg" xmlns:ev="http://www.w3.org/2001/xml-events" xmlns:xlink="http://www.w3.org/1999/xlink"><defs /><rect fill="none" height="800" stroke="black" stroke-width="2" width="800" x="0" y="0" /><polyline fill="none" points="708.4322,725.8039 708.3211,714.8746 708.2093,703.946 708.0968,693.0182 707.9836,682.0911 707.8696,671.1647 707.7549,660.239 707.6395,649.3139 707.5234,638.3894 707.4066,627.4655 707.289,616.5421 707.1707,605.6193 707.0517,594.697 706.932,583.7751 706.8115,572.8537 706.6904,561.9328 706.5685,551.0122 706.4459,540.0921 706.3225,529.1722 706.1985,518.2527 706.0737,507.3335 705.9482,496.4146 705.822,485.4959 705.695,474.5774 705.5673,463.6591 705.4389,452.741 705.3098,441.8231 705.18,430.9052 705.0494,419.9875 704.9181,409.0698 704.7861,398.1521 704.6533,387.2345 704.5198,376.3169 704.3856,365.3992 704.2507,354.4814 704.115,343.5636 703.9787,332.6456 703.8415,321.7275 703.7037,310.8092 703.5651,299.8908 703.4258,288.9721 703.2858,278.0532 703.145,267.134 703.0036,256.2145 702.8613,245.2946 702.7184,234.3745 702.5747,223.4539 702.4303,212.533 702.2851,201.6116 702.1393,190.6898 701.9927,179.7675 701.8453,168.8446 701.6972,157.9213 701.5484,146.9974 701.3989,136.0729 701.2486,125.1478 701.0976,114.2221 700.9458,103.2957 700.7933,92.3686 700.6401,81.4408 700.4861,70.5123" stroke="silver" stroke-opacity="0.5" stroke-width="1" /><polyline fill="none" points="600.1001,726.7086 600.028,715.7849 599.9556,704.862 599.8826,693.9398 599.8092,683.0183 599.7353,672.0974 599.6609,661.1773 599.5861,650.2577 599.5108,639.3388 599.435,628.4205 599.3588,617.5027 599.2821,606.5854 599.2049,595.6686 599.1273,584.7523 599.0492,573.8364 598.9706,562.921 598.8916,552.006 598.8121,541.0913 598.7321,530.1769 598.6517,519.2629 598.5708,508.3492 598.4894,497.4357 598.4075,486.5225 598.3252,475.6095 598.2424,464.6967 598.1592,453.784 598.0755,442.8715 597.9913,431.9591 597.9066,421.0468 597.8215,410.1345 597.7358,399.2223 597.6498,388.31 597.5632,377.3978 597.4762,366.4855 597.3887,355.5731 597.3007,344.6606 597.2123,333.748 597.1234,322.8353 597.034,311.9223 596.9442,301.0092 596.8538,290.0959 596.763,279.1822 596.6718,268.2684 596.58,257.3542 596.4878,246.4396 596.3951,235.5248 596.302,224.6095 596.2083,213.6938 596.1142,202.7777 596.0196,191.8611 595.9245,180.9441 595.829,170.0265 595.733,159.1084 595.6365,148.1897 595.5395,137.2704 595.4421,126.3505 595.3441,115.43 595.2457,104.5088 595.1469,93.5869 595.0475,82.6643 594.9477,71.7409" stroke="silver" stroke-opacity="0.5" stroke-width="1" /><polyline fill="none" points="491.8118,727.2277 491.7787,716.3072 491.7455,705.3875 491.712,694.4685 491.6783,683.5502 491.6444,672.6326 491.6103,661.7157 491.576,650.7993 491.5415,639.8836 491.5067,628.9684 491.4718,618.0538 491.4366,607.1397 491.4012,596.2261 491.3656,585.313 491.3298,574.4003 491.2937,563.488 491.2575,552.5761 491.221,541.6646 491.1843,530.7534 491.1474,519.8426 491.1103,508.932 491.073,498.0217 491.0354,487.1116 490.9977,476.2017 490.9597,465.292 490.9215,454.3825 490.8831,443.4731 490.8445,432.5638 490.8057,421.6546 490.7666,410.7454 490.7273,399.8363 490.6879,388.9271 490.6482,378.018 490.6082,367.1088 490.5681,356.1995 490.5278,345.2901 490.4872,334.3805 490.4464,323.4709 490.4054,312.561 490.3642,301.6509 490.3228,290.7407 490.2811,279.8301 490.2393,268.9193 490.1972,258.0081 490.1549,247.0966 490.1124,236.1848 490.0696,225.2725 490.0267,214.3599 489.9835,203.4468 489.9401,192.5332 489.8965,181.6192 489.8527,170.7046 489.8086,159.7895 489.7644,148.8738 489.7199,137.9576 489.6752,127.0407 489.6303,116.1231 489.5851,105.2049 489.5398,94.286 489.4942,83.3663 489.4484,72.4459" stroke="silver" stroke-opacity="0.5" stroke-width="1" /><polyline fill="none" points="383.5436,727.3617 383.5495,716.442 383.5555,705.5231 383.5615,694.605 383.5675,683.6875 383.5736,672.7707 383.5797,661.8546 383.5858,650.9391 383.592,640.0242 383.5983,629.1098 383.6045,618.1961 383.6108,607.2828 383.6172,596.37 383.6236,585.4577 383.63,574.5458 383.6364,563.6344 383.6429,552.7233 383.6495,541.8126 383.656,530.9022 383.6627,519.9922 383.6693,509.0824 383.676,498.1729 383.6827,487.2636 383.6895,476.3546 383.6963,465.4457 383.7031,454.537 383.71,443.6284 383.717,432.7199 383.7239,421.8114 383.7309,410.9031 383.738,399.9947 383.745,389.0864 383.7521,378.178 383.7593,367.2696 383.7665,356.3611 383.7737,345.4525 383.781,334.5438 383.7883,323.6349 383.7956,312.7259 383.803,301.8166 383.8105,290.9071 383.8179,279.9973 383.8254,269.0873 383.833,258.1769 383.8406,247.2662 383.8482,236.3551 383.8558,225.4437 383.8635,214.5318 383.8713,203.6195 383.879,192.7067 383.8869,181.7934 383.8947,170.8796 383.9026,159.9653 383.9105,149.0504 383.9185,138.1349 383.9265,127.2188 383.9346,116.302 383.9427,105.3845 383.9508,94.4664 383.959,83.5475 383.9672,72.6279" stroke="silver" stroke-opacity="0.5" stroke-width="1" /><polyline fill="none" points="275.2718,727.1106 275.3167,716.1894 275.3619,705.269 275.4073,694.3493 275.4531,683.4303 275.4991,672.5119 275.5455,661.5943 275.5921,650.6772 275.639,639.7607 275.6862,628.8449 275.7337,617.9295 275.7815,607.0147 275.8296,596.1004 275.878,585.1866 275.9267,574.2732 275.9756,563.3602 276.0249,552.4476 276.0744,541.5353 276.1243,530.6235 276.1744,519.7119 276.2248,508.8006 276.2755,497.8896 276.3266,486.9788 276.3778,476.0682 276.4294,465.1578 276.4813,454.2476 276.5335,443.3374 276.586,432.4274 276.6387,421.5175 276.6918,410.6077 276.7451,399.6978 276.7988,388.788 276.8527,377.8781 276.9069,366.9682 276.9615,356.0582 277.0163,345.1481 277.0714,334.2379 277.1268,323.3275 277.1825,312.417 277.2385,301.5062 277.2948,290.5953 277.3514,279.684 277.4082,268.7725 277.4654,257.8607 277.5229,246.9485 277.5807,236.036 277.6387,225.123 277.6971,214.2097 277.7557,203.2959 277.8147,192.3817 277.8739,181.467 277.9335,170.5517 277.9933,159.6359 278.0534,148.7196 278.1139,137.8026 278.1746,126.885 278.2356,115.9668 278.2969,105.0479 278.3586,94.1283 278.4205,83.208 278.4827,72.2869" stroke="silver" stroke-opacity="0.5" stroke-width="1" /><polyline fill="none" points="166.9727,726.4744 167.0566,715.5492 167.141,704.6248 167.226,693.7012 167.3115,682.7782 167.3976,671.856 167.4842,660.9344 167.5713,650.0134 167.659,639.093 167.7473,628.1732 167.8361,617.254 167.9254,606.3353 168.0153,595.4171 168.1057,584.4993 168.1967,573.582 168.2882,562.6652 168.3802,551.7487 168.4728,540.8326 168.566,529.9168 168.6597,519.0014 168.7539,508.0863 168.8487,497.1714 168.944,486.2568 169.0399,475.3423 169.1363,464.4281 169.2333,453.514 169.3308,442.6001 169.4289,431.6863 169.5275,420.7725 169.6266,409.8589 169.7263,398.9452 169.8266,388.0316 169.9274,377.1179 170.0288,366.2042 170.1307,355.2905 170.2331,344.3766 170.3361,333.4626 170.4397,322.5485 170.5438,311.6342 170.6484,300.7197 170.7536,289.8049 170.8594,278.89 170.9657,267.9747 171.0725,257.0591 171.1799,246.1432 171.2879,235.227 171.3964,224.3103 171.5055,213.3933 171.6151,202.4758 171.7253,191.5579 171.836,180.6395 171.9473,169.7205 172.0591,158.8011 172.1715,147.881 172.2844,136.9604 172.3979,126.0392 172.512,115.1173 172.6266,104.1948 172.7418,93.2715 172.8575,82.3476 172.9738,71.4229" stroke="silver" stroke-opacity="0.5" stroke-width="1" /><polyline fill="none" points="731.3573,681.8389 729.6258,681.8582 718.8043,681.9767 707.9836,682.0911 697.1635,682.2017 686.3441,682.3082 675.5253,682.4108 664.7071,682.5095 653.8894,682.6041 643.0724,682.6949 632.2558,682.7816 621.4398,682.8645 610.6243,682.9433 599.8092,683.0183 588.9945,683.0892 578.1803,683.1562 567.3664,683.2193 556.5529,683.2784 545.7398,683.3336 534.927,683.3848 524.1144,683.4321 513.3022,683.4754 502.4901,683.5148 491.6783,683.5502 480.8667,683.5817 470.0553,683.6092 459.2441,683.6328 448.4329,683.6525 437.6219,683.6682 426.8109,683.6799 416.0001,683.6878 405.1892,683.6916 394.3784,683.6915 383.5675,683.6875 372.7566,683.6795 361.9457,683.6676 351.1346,683.6518 340.3235,683.632 329.5122,683.6082 318.7008,683.5805 307.8892,683.5489 297.0774,683.5133 286.2654,683.4738 275.4531,683.4303 264.6405,683.3828 253.8277,683.3315 243.0145,683.2761 232.201,683.2169 221.3872,683.1536 210.5729,683.0865 199.7582,683.0153 188.9431,682.9403 178.1276,682.8612 167.3115,682.7782 156.495,682.6913 145.6779,682.6004 134.8602,682.5056 124.042,682.4068 113.2232,682.304 102.4037,682.1973 91.5836,682.0866 80.7628,681.972 69.9414,681.8534 68.6427,681.8389" stroke="silver" stroke-opacity="0.5" stroke-width="1" /><polyline fill="none" points="730.3545,594.4326 728.6283,594.4529 717.8397,594.577 707.0517,594.697 696.2644,594.8128 685.4778,594.9245 674.6918,595.032 663.9063,595.1354 653.1215,595.2346 642.3372,595.3297 631.5534,595.4206 620.7701,595.5074 609.9873,595.5901 599.2049,595.6686 588.423,595.743 577.6415,595.8132 566.8604,595.8793 556.0796,595.9413 545.2991,595.9991 534.519,596.0528 523.7392,596.1023 512.9596,596.1477 502.1803,596.189 491.4012,596.2261 480.6223,596.2591 469.8436,596.288 459.065,596.3127 448.2865,596.3333 437.5082,596.3497 426.7299,596.3621 415.9517,596.3702 405.1735,596.3743 394.3954,596.3742 383.6172,596.37 372.839,596.3616 362.0607,596.3492 351.2823,596.3325 340.5039,596.3118 329.7253,596.2869 318.9466,596.2579 308.1677,596.2247 297.3885,596.1874 286.6092,596.146 275.8296,596.1004 265.0498,596.0507 254.2696,595.9968 243.4892,595.9389 232.7084,595.8767 221.9273,595.8105 211.1457,595.7401 200.3638,595.6655 189.5814,595.5869 178.7986,595.504 168.0153,595.4171 157.2315,595.326 146.4471,595.2307 135.6622,595.1313 124.8768,595.0278 114.0907,594.9201 103.3041,594.8082 92.5168,594.6923 81.7288,594.5721 70.9402,594.4478 69.6455,594.4326" stroke="silver" stroke-opacity="0.5" stroke-width="1" /><polyline fill="none" points="729.3021,507.0572 727.5814,507.0784 716.8272,507.2081 706.0737,507.3335 695.3208,507.4546 684.5686,507.5713 673.817,507.6837 663.066,507.7918 652.3155,507.8955 641.5656,507.9949 630.8161,508.09 620.0672,508.1807 609.3188,508.2671 598.5708,508.3492 587.8232,508.427 577.076,508.5004 566.3292,508.5695 555.5828,508.6342 544.8367,508.6947 534.0909,508.7508 523.3454,508.8026 512.6001,508.85 501.8551,508.8932 491.1103,508.932 480.3657,508.9665 469.6213,508.9967 458.877,509.0225 448.1329,509.044 437.3888,509.0612 426.6448,509.0741 415.9009,509.0827 405.1571,509.0869 394.4132,509.0868 383.6693,509.0824 372.9254,509.0737 362.1814,509.0606 351.4374,509.0433 340.6932,509.0216 329.9489,508.9955 319.2045,508.9652 308.4599,508.9305 297.7151,508.8915 286.9701,508.8482 276.2248,508.8006 265.4793,508.7486 254.7335,508.6923 243.9874,508.6317 233.2409,508.5668 222.4941,508.4975 211.7469,508.4239 200.9993,508.346 190.2513,508.2638 179.5028,508.1772 168.7539,508.0863 158.0045,507.991 147.2545,507.8915 136.504,507.7875 125.753,507.6793 115.0013,507.5667 104.2491,507.4498 93.4962,507.3286 82.7426,507.203 71.9884,507.0731 70.6979,507.0572" stroke="silver" stroke-opacity="0.5" stroke-width="1" /><polyline fill="none" points="728.1999,419.6993 726.485,419.7214 715.7668,419.8567 705.0494,419.9875 694.3326,420.1138 683.6164,420.2355 672.9008,420.3527 662.1858,420.4654 651.4713,420.5736 640.7574,420.6773 630.044,420.7764 619.3311,420.8711 608.6186,420.9612 597.9066,421.0468 587.195,421.1279 576.4838,421.2044 565.7729,421.2765 555.0625,421.344 544.3523,421.4071 533.6425,421.4656 522.9329,421.5196 512.2236,421.5691 501.5145,421.6141 490.8057,421.6546 480.097,421.6905 469.3885,421.722 458.6801,421.749 447.9719,421.7714 437.2638,421.7894 426.5558,421.8028 415.8478,421.8117 405.1398,421.8161 394.4319,421.816 383.7239,421.8114 373.0159,421.8023 362.3079,421.7887 351.5998,421.7706 340.8915,421.748 330.1832,421.7208 319.4747,421.6892 308.766,421.653 298.0571,421.6124 287.3481,421.5672 276.6387,421.5175 265.9292,421.4633 255.2193,421.4046 244.5091,421.3414 233.7986,421.2737 223.0878,421.2014 212.3766,421.1247 201.6649,421.0434 190.9529,420.9577 180.2404,420.8674 169.5275,420.7725 158.814,420.6732 148.1001,420.5694 137.3856,420.461 126.6706,420.3481 115.955,420.2307 105.2388,420.1088 94.5219,419.9823 83.8045,419.8514 73.0863,419.7159 71.8001,419.6993" stroke="silver" stroke-opacity="0.5" stroke-width="1" /><polyline fill="none" points="727.0478,332.3457 725.3388,332.3687 714.6584,332.5095 703.9787,332.6456 693.2995,332.777 682.621,332.9037 671.9431,333.0257 661.2657,333.143 650.5889,333.2556 639.9126,333.3635 629.2369,333.4667 618.5616,333.5651 607.8867,333.6589 597.2123,333.748 586.5383,333.8324 575.8647,333.9121 565.1915,333.9871 554.5186,334.0574 543.846,334.123 533.1737,334.1839 522.5017,334.2401 511.83,334.2916 501.1585,334.3384 490.4872,334.3805 479.8161,334.418 469.1452,334.4507 458.4744,334.4788 447.8037,334.5021 437.1331,334.5208 426.4626,334.5348 415.7922,334.5441 405.1218,334.5487 394.4514,334.5486 383.781,334.5438 373.1106,334.5343 362.4401,334.5202 351.7695,334.5013 341.0988,334.4777 330.428,334.4495 319.7571,334.4166 309.086,334.3789 298.4147,334.3366 287.7431,334.2896 277.0714,334.2379 266.3994,334.1815 255.7271,334.1204 245.0545,334.0546 234.3816,333.9842 223.7084,333.909 213.0347,333.8291 202.3607,333.7445 191.6863,333.6553 181.0114,333.5613 170.3361,333.4626 159.6603,333.3593 148.984,333.2512 138.3072,333.1384 127.6298,333.0209 116.9519,332.8987 106.2733,332.7719 95.5942,332.6403 84.9144,332.504 74.2339,332.3629 72.9522,332.3457" stroke="silver" stroke-opacity="0.5" stroke-width="1" /><polyline fill="none" points="725.8455,244.9831 724.1428,245.007 713.5018,245.1533 702.8613,245.2946 692.2215,245.4311 681.5823,245.5627 670.9437,245.6894 660.3057,245.8113 649.6681,245.9282 639.0311,246.0402 628.3946,246.1474 617.7586,246.2497 607.123,246.3471 596.4878,246.4396 585.8531,246.5273 575.2187,246.61 564.5847,246.6879 553.951,246.7609 543.3176,246.8291 532.6846,246.8923 522.0518,246.9507 511.4193,247.0042 500.787,247.0529 490.1549,247.0966 479.523,247.1355 468.8912,247.1695 458.2596,247.1987 447.6281,247.2229 436.9968,247.2423 426.3655,247.2568 415.7342,247.2665 405.103,247.2713 394.4718,247.2712 383.8406,247.2662 373.2093,247.2563 362.578,247.2416 351.9466,247.222 341.3151,247.1976 330.6835,247.1683 320.0518,247.134 309.4198,247.095 298.7877,247.051 288.1554,247.0022 277.5229,246.9485 266.8901,246.8899 256.257,246.8265 245.6237,246.7581 234.99,246.6849 224.356,246.6068 213.7216,246.5239 203.0868,246.436 192.4516,246.3433 181.816,246.2457 171.1799,246.1432 160.5434,246.0359 149.9064,245.9236 139.2688,245.8065 128.6308,245.6845 117.9921,245.5576 107.3529,245.4258 96.7131,245.2891 86.0726,245.1475 75.4315,245.0011 74.1545,244.9831" stroke="silver" stroke-opacity="0.5" stroke-width="1" /><polyline fill="none" points="724.5929,157.5984 722.8968,157.6231 712.2967,157.7747 701.6972,157.9213 691.0984,158.0628 680.5002,158.1992 669.9025,158.3306 659.3054,158.4569 648.7088,158.5781 638.1127,158.6943 627.5171,158.8054 616.9219,158.9115 606.3273,159.0124 595.733,159.1084 585.1391,159.1992 574.5456,159.2851 563.9525,159.3658 553.3597,159.4415 542.7672,159.5121 532.175,159.5777 521.583,159.6383 510.9914,159.6937 500.3999,159.7441 489.8086,159.7895 479.2176,159.8298 468.6267,159.8651 458.0359,159.8953 447.4452,159.9205 436.8547,159.9406 426.2642,159.9556 415.6738,159.9656 405.0834,159.9706 394.493,159.9705 383.9026,159.9653 373.3122,159.9551 362.7217,159.9399 352.1311,159.9195 341.5405,159.8942 330.9497,159.8638 320.3588,159.8283 309.7677,159.7878 299.1765,159.7422 288.585,159.6916 277.9933,159.6359 267.4013,159.5752 256.8091,159.5094 246.2166,159.4386 235.6238,159.3627 225.0307,159.2817 214.4371,159.1957 203.8433,159.1046 193.249,159.0085 182.6543,158.9073 172.0591,158.8011 161.4635,158.6898 150.8674,158.5734 140.2708,158.4519 129.6736,158.3254 119.0759,158.1939 108.4777,158.0572 97.8788,157.9155 87.2793,157.7688 76.6792,157.6169 75.4071,157.5984" stroke="silver" stroke-opacity="0.5" stroke-width="1" /><polyline fill="none" points="723.2896,70.178 721.6004,70.2036 711.0429,70.3606 700.4861,70.5123 689.9299,70.6587 679.3743,70.7999 668.8192,70.9359 658.2647,71.0666 647.7107,71.1921 637.1572,71.3124 626.6041,71.4274 616.0515,71.5371 605.4994,71.6416 594.9477,71.7409 584.3963,71.835 573.8454,71.9238 563.2947,72.0074 552.7444,72.0857 542.1945,72.1588 531.6448,72.2267 521.0953,72.2893 510.5461,72.3468 499.9972,72.3989 489.4484,72.4459 478.8998,72.4876 468.3514,72.5241 457.8031,72.5554 447.2549,72.5814 436.7069,72.6022 426.1589,72.6178 415.6109,72.6282 405.063,72.6333 394.5151,72.6332 383.9672,72.6279 373.4192,72.6173 362.8712,72.6015 352.3231,72.5805 341.775,72.5542 331.2267,72.5228 320.6782,72.4861 310.1296,72.4441 299.5809,72.397 289.0319,72.3446 278.4827,72.2869 267.9332,72.2241 257.3835,72.156 246.8335,72.0827 236.2832,72.0041 225.7326,71.9203 215.1816,71.8313 204.6303,71.737 194.0785,71.6376 183.5264,71.5328 172.9738,71.4229 162.4207,71.3076 151.8672,71.1872 141.3132,71.0615 130.7586,70.9306 120.2035,70.7944 109.6479,70.653 99.0916,70.5063 88.5348,70.3544 77.9773,70.1972 76.7104,70.178" stroke="silver" stroke-opacity="0.5" stroke-width="1" /><circle cx="723.0153" cy="108.1363" fill="black" r="0.738" stroke="none" /><circle cx="723.2639" cy="317.8056" fill="black" r="0.738" stroke="none" /><circle cx="715.509" cy="338.7887" fill="black" r="0.738" stroke="none" /><circle cx="712.1248" cy="188.0193" fill="black" r="0.738" stroke="none" /><circle cx="709.9445" cy="567.6634" fill="black" r="0.936" stroke="none" /><circle cx="704.82" cy="232.4244" fill="black" r="0.738" stroke="none" /><circle cx="709.0114" cy="706.1237" fill="black" r="0.936" stroke="none" /><circle cx="701.8374" cy="284.7989" fill="black" r="0.738" stroke="none" /><circle cx="697.5931" cy="442.4376" fill="black" r="0.738" stroke="none" /><circle cx="693.8709" cy="613.6253" fill="black" r="0.738" stroke="none" /><circle cx="688.7591" cy="561.8644" fill="black" r="0.738" stroke="none" /><circle cx="665.7971" cy="463.0471" fill="black" r="0.738" stroke="none" /><circle cx="651.5881" cy="99.3814" fill="black" r="0.738" stroke="none" /><circle cx="650.9554" cy="286.7031" fill="black" r="0.738" stroke="none" /><circle cx="652.2373" cy="490.604" fill="black" r="0.738" stroke="none" /><circle cx="641.4328" cy="106.1399" fill="black" r="0.738" stroke="none" /><circle cx="636.2746" cy="634.0812" fill="black" r="0.738" stroke="none" /><circle cx="629.9341" cy="179.4857" fill="black" r="0.936" stroke="none" /><circle cx="623.2512" cy="447.8171" fill="black" r="0.738" stroke="none" /><circle cx="617.1137" cy="161.181" fill="black" r="0.738" stroke="none" /><circle cx="618.3233" cy="345.0928" fill="black" r="0.738" stroke="none" /><circle cx="606.8608" cy="323.5396" fill="black" r="1.17" stroke="none" /><circle cx="609.306" cy="680.0693" fill="black" r="0.738" stroke="none" /><circle cx="596.9172" cy="158.8358" fill="black" r="0.738" stroke="none" /><circle cx="597.2979" cy="419.9166" fill="black" r="0.738" stroke="none" /><circle cx="597.2939" cy="419.3928" fill="black" r="0.738" stroke="none" /><circle cx="588.0423" cy="552.3446" fill="black" r="0.738" stroke="none" /><circle cx="585.6325" cy="685.0326" fill="black" r="1.17" stroke="none" /><circle cx="581.083" cy="171.1118" fill="black" r="0.738" stroke="none" /><circle cx="576.6843" cy="88.5911" fill="black" r="0.738" stroke="none" /><circle cx="563.4031" cy="609.5227" fill="black" r="0.738" stroke="none" /><circle cx="559.5206" cy="564.3126" fill="black" r="0.738" stroke="none" /><circle cx="556.6769" cy="324.5285" fill="black" r="0.738" stroke="none" /><circle cx="555.7664" cy="555.5157" fill="black" r="0.738" stroke="none" /><circle cx="549.3706" cy="171.1717" fill="black" r="0.738" stroke="none" /><circle cx="550.6273" cy="410.3724" fill="black" r="0.738" stroke="none" /><circle cx="542.0645" cy="570.5198" fill="black" r="0.936" stroke="none" /><circle cx="540.5471" cy="701.18" fill="black" r="0.738" stroke="none" /><circle cx="519.9911" cy="415.424" fill="black" r="0.738" stroke="none" /><circle cx="517.7699" cy="127.9554" fill="black" r="0.738" stroke="none" /><circle cx="518.0606" cy="640.9225" fill="black" r="0.738" stroke="none" /><circle cx="510.4224" cy="481.3641" fill="black" r="0.738" stroke="none" /><circle cx="504.1325" cy="658.7916" fill="black" r="0.738" stroke="none" /><circle cx="502.7358" cy="470.136" fill="black" r="0.738" stroke="none" /><circle cx="500.0041" cy="474.0742" fill="black" r="0.738" stroke="none" /><circle cx="497.8795" cy="164.6456" fill="black" r="0.738" stroke="none" /><circle cx="493.5762" cy="576.2261" fill="black" r="0.738" stroke="none" /><circle cx="476.1465" cy="81.3213" fill="black" r="0.738" stroke="none" /><circle cx="473.4856" cy="539.1869" fill="black" r="0.738" stroke="none" /><circle cx="469.3188" cy="491.8906" fill="black" r="0.738" stroke="none" /><circle cx="468.2755" cy="240.2753" fill="black" r="0.738" stroke="none" /><circle cx="461.4533" cy="232.7872" fill="black" r="0.738" stroke="none" /><circle cx="459.5344" cy="420.6997" fill="black" r="0.738" stroke="none" /><circle cx="442.1097" cy="161.0664" fill="black" r="0.738" stroke="none" /><circle cx="438.7271" cy="604.9038" fill="black" r="0.738" stroke="none" /><circle cx="437.0114" cy="612.0651" fill="black" r="0.738" stroke="none" /><circle cx="436.0443" cy="348.6603" fill="black" r="0.738" stroke="none" /><circle cx="434.9144" cy="165.27" fill="black" r="0.738" stroke="none" /><circle cx="431.5658" cy="134.7996" fill="black" r="0.738" stroke="none" /><circle cx="430.7859" cy="522.5106" fill="black" r="0.738" stroke="none" /><circle cx="429.2896" cy="342.8222" fill="black" r="0.738" stroke="none" /><circle cx="424.4229" cy="724.9976" fill="black" r="0.738" stroke="none" /><circle cx="423.0397" cy="238.4442" fill="black" r="0.738" stroke="none" /><circle cx="409.6969" cy="250.3248" fill="black" r="0.738" stroke="none" /><circle cx="409.5182" cy="447.4716" fill="black" r="0.738" stroke="none" /><circle cx="409.2611" cy="447.908" fill="black" r="0.738" stroke="none" /><circle cx="405.1415" cy="430.0192" fill="black" r="0.738" stroke="none" /><circle cx="400.1725" cy="605.2795" fill="black" r="0.738" stroke="none" /><circle cx="396.393" cy="487.6175" fill="black" r="0.738" stroke="none" /><circle cx="387.4932" cy="103.64" fill="black" r="0.738" stroke="none" /><circle cx="384.4456" cy="363.343" fill="black" r="1.17" stroke="none" /><circle cx="381.7009" cy="496.7752" fill="black" r="0.738" stroke="none" /><circle cx="378.5991" cy="618.8039" fill="black" r="0.738" stroke="none" /><circle cx="378.4914" cy="430.098" fill="black" r="0.738" stroke="none" /><circle cx="374.3231" cy="318.1285" fill="black" r="0.738" stroke="none" /><circle cx="369.6748" cy="572.2644" fill="black" r="1.17" stroke="none" /><circle cx="369.5176" cy="722.0219" fill="black" r="0.738" stroke="none" /><circle cx="367.6751" cy="378.2496" fill="black" r="0.738" stroke="none" /><circle cx="361.9742" cy="151.2066" fill="black" r="0.738" stroke="none" /><circle cx="361.8899" cy="150.9445" fill="black" r="0.738" stroke="none" /><circle cx="358.6249" cy="86.5709" fill="black" r="0.738" stroke="none" /><circle cx="352.3072" cy="455.9818" fill="black" r="0.936" stroke="none" /><circle cx="347.5751" cy="420.9772" fill="black" r="0.936" stroke="none" /><circle cx="343.5646" cy="197.2691" fill="black" r="0.738" stroke="none" /><circle cx="337.0909" cy="658.3857" fill="black" r="2.322" stroke="none" /><circle cx="337.8449" cy="338.3969" fill="black" r="0.936" stroke="none" /><circle cx="332.2607" cy="617.7709" fill="black" r="0.738" stroke="none" /><circle cx="327.5868" cy="100.8144" fill="black" r="0.738" stroke="none" /><circle cx="319.8913" cy="319.6672" fill="black" r="0.738" stroke="none" /><circle cx="315.3917" cy="602.7082" fill="black" r="1.476" stroke="none" /><circle cx="314.7687" cy="552.7701" fill="black" r="0.738" stroke="none" /><circle cx="301.8138" cy="689.8184" fill="black" r="0.738" stroke="none" /><circle cx="294.6955" cy="267.9835" fill="black" r="0.936" stroke="none" /><circle cx="293.646" cy="370.8862" fill="black" r="0.738" stroke="none" /><circle cx="294.5812" cy="128.4552" fill="black" r="0.738" stroke="none" /><circle cx="291.555" cy="419.4908" fill="black" r="0.738" stroke="none" /><circle cx="292.0173" cy="295.1185" fill="black" r="0.738" stroke="none" /><circle cx="284.2219" cy="697.3549" fill="black" r="0.738" stroke="none" /><circle cx="281.4285" cy="333.6486" fill="black" r="1.476" stroke="none" /><circle cx="274.0096" cy="504.6002" fill="black" r="0.738" stroke="none" /><circle cx="268.6876" cy="171.3725" fill="black" r="0.738" stroke="none" /><circle cx="265.3949" cy="707.9343" fill="black" r="0.738" stroke="none" /><circle cx="266.6419" cy="173.1943" fill="black" r="0.738" stroke="none" /><circle cx="257.9894" cy="543.4549" fill="black" r="0.738" stroke="none" /><circle cx="255.278" cy="635.1243" fill="black" r="0.738" stroke="none" /><circle cx="254.4542" cy="105.8615" fill="black" r="0.738" stroke="none" /><circle cx="252.1526" cy="403.6677" fill="black" r="0.936" stroke="none" /><circle cx="239.9855" cy="502.1478" fill="black" r="0.738" stroke="none" /><circle cx="236.0645" cy="612.0522" fill="black" r="0.738" stroke="none" /><circle cx="235.0364" cy="276.2831" fill="black" r="0.936" stroke="none" /><circle cx="216.8887" cy="655.3455" fill="black" r="0.738" stroke="none" /><circle cx="212.8316" cy="230.362" fill="black" r="0.738" stroke="none" /><circle cx="204.1867" cy="567.2226" fill="black" r="0.738" stroke="none" /><circle cx="202.53" cy="420.0025" fill="black" r="0.936" stroke="none" /><circle cx="200.8683" cy="380.9647" fill="black" r="0.738" stroke="none" /><circle cx="197.2754" cy="210.7547" fill="black" r="0.738" stroke="none" /><circle cx="188.8436" cy="458.6581" fill="black" r="0.936" stroke="none" /><circle cx="185.9393" cy="436.2826" fill="black" r="0.738" stroke="none" /><circle cx="186.9415" cy="93.1547" fill="black" r="0.738" stroke="none" /><circle cx="184.3506" cy="150.1001" fill="black" r="0.738" stroke="none" /><circle cx="180.5708" cy="306.9254" fill="black" r="0.738" stroke="none" /><circle cx="164.632" cy="497.6583" fill="black" r="0.738" stroke="none" /><circle cx="160.1536" cy="637.6337" fill="black" r="0.738" stroke="none" /><circle cx="157.9293" cy="719.4109" fill="black" r="0.936" stroke="none" /><circle cx="147.1069" cy="551.2985" fill="black" r="0.738" stroke="none" /><circle cx="134.3162" cy="637.6692" fill="black" r="0.738" stroke="none" /><circle cx="131.587" cy="570.2817" fill="black" r="0.738" stroke="none" /><circle cx="133.4318" cy="257.5328" fill="black" r="0.738" stroke="none" /><circle cx="130.6108" cy="326.1544" fill="black" r="0.738" stroke="none" /><circle cx="130.2137" cy="80.6283" fill="black" r="0.738" stroke="none" /><circle cx="119.3244" cy="481.1461" fill="black" r="0.738" stroke="none" /><circle cx="112.2585" cy="128.3019" fill="black" r="0.936" stroke="none" /><circle cx="111.7473" cy="154.4292" fill="black" r="0.936" stroke="none" /><circle cx="106.7937" cy="262.8047" fill="black" r="0.738" stroke="none" /><circle cx="99.7871" cy="409.8249" fill="black" r="0.738" stroke="none" /><circle cx="84.0217" cy="684.8921" fill="black" r="0.738" stroke="none" /><circle cx="83.2298" cy="343.7521" fill="black" r="0.738" stroke="none" /><circle cx="79.4975" cy="601.014" fill="black" r="0.738" stroke="none" /><circle cx="77.1398" cy="696.7094" fill="black" r="0.738" stroke="none" /><circle cx="80.6598" cy="117.1968" fill="black" r="0.738" stroke="none" /><circle cx="13.77" cy="786.23" fill="black" r="4.59" stroke="none" /><circle cx="13.77" cy="786.23" fill="black" r="4.59" stroke="none" /><text fill="black" font-family="monospace" font-size="12" x="10.77" y="775.64">1</text><circle cx="37.77" cy="786.23" fill="black" r="3.654" stroke="none" /><circle cx="37.77" cy="786.23" fill="black" r="3.654" stroke="none" /><text fill="black" font-family="monospace" font-size="12" x="34.769999999999996" y="775.64">2</text><circle cx="61.77" cy="786.23" fill="black" r="2.916" stroke="none" /><circle cx="61.77" cy="786.23" fill="black" r="2.916" stroke="none" /><text fill="black" font-family="monospace" font-size="12" x="58.769999999999996" y="775.64">3</text><circle cx="85.77" cy="786.23" fill="black" r="2.322" stroke="none" /><circle cx="85.77" cy="786.23" fill="black" r="2.322" stroke="none" /><text fill="black" font-family="monospace" font-size="12" x="82.77" y="775.64">4</text><circle cx="109.77" cy="786.23" fill="black" r="1.854" stroke="none" /><circle cx="109.77" cy="786.23" fill="black" r="1.854" stroke="none" /><text fill="black" font-family="monospace" font-size="12" x="106.77" y="775.64">5</text><circle cx="133.77" cy="786.23" fill="black" r="1.476" stroke="none" /><circle cx="133.77" cy="786.23" fill="black" r="1.476" stroke="none" /><text fill="black" font-family="monospace" font-size="12" x="130.77" y="775.64">6</text><circle cx="157.77" cy="786.23" fill="black" r="1.17" stroke="none" /><circle cx="157.77" cy="786.23" fill="black" r="1.17" stroke="none" /><text fill="black" font-family="monospace" font-size="12" x="154.77" y="775.64">7</text><circle cx="181.77" cy="786.23" fill="black" r="0.936" stroke="none" /><circle cx="181.77" cy="786.23" fill="black" r="0.936" stroke="none" /><text fill="black" font-family="monospace" font-size="12" x="178.77" y="775.64">8</text><circle cx="205.77" cy="786.23" fill="black" r="0.738" stroke="none" /><circle cx="205.77" cy="786.23" fill="black" r="0.738" stroke="none" /><text fill="black" font-family="monospace" font-size="12" x="202.77" y="775.64">9</text><text fill="gray" fill-opacity="0.5" font-family="monospace" font-size="12" x="708.4322087408358" y="725.8038975948712">07h10m</text><text fill="gray" fill-opacity="0.5" font-family="monospace" font-size="12" x="600.1000697327718" y="726.7085870627416">07h15m</text><text fill="gray" fill-opacity="0.5" font-family="monospace" font-size="12" x="491.8117745306299" y="727.2276819731555">07h20m</text><text fill="gray" fill-opacity="0.5" font-family="monospace" font-size="12" x="383.54359059444045" y="727.3616570178078">07h25m</text><text fill="gray" fill-opacity="0.5" font-family="monospace" font-size="12" x="275.2718021573517" y="727.1106346769525">07h30m</text><text fill="gray" fill-opacity="0.5" font-family="monospace" font-size="12" x="166.97269044658796" y="726.4743854538413">07h35m</text><text fill="gray" fill-opacity="0.5" font-family="monospace" font-size="12" x="68.64274660234514" y="681.8389141919388">+8°</text><text fill="gray" fill-opacity="0.5" font-family="monospace" font-size="12" x="69.64546961131572" y="594.4326330539807">+9°</text><text fill="gray" fill-opacity="0.5" font-family="monospace" font-size="12" x="70.69787367159552" y="507.0571874107499">+10°</text><text fill="gray" fill-opacity="0.5" font-family="monospace" font-size="12" x="71.8000781586145" y="419.69930120520905">+11°</text><text fill="gray" fill-opacity="0.5" font-family="monospace" font-size="12" x="72.95223276131571" y="332.34570903144146">+12°</text><text fill="gray" fill-opacity="0.5" font-family="monospace" font-size="12" x="74.154517556788" y="244.9831480886702">+13°</text><text fill="gray" fill-opacity="0.5" font-family="monospace" font-size="12" x="75.40714312416964" y="157.5983501386286">+14°</text><text fill="gray" fill-opacity="0.5" font-family="monospace" font-size="12" x="76.71035069797597" y="70.17803345593836">+15°</text><text fill="black" font-family="monospace" font-size="12" x="12" y="48">&gt;&gt; No.471 07h09m 07h40m +7.5°+15.0°</text><a target="_self" xlink:href="hip025.svg"><text fill="black" font-family="monospace" font-size="12" x="12" y="36">&gt; No.25 05h20m 08h00m +0.0°+22.5°</text></a><a target="_self" xlink:href="hip002.svg"><text fill="black" font-family="monospace" font-size="12" x="12" y="24">No.2 00h 24h +0.0°+90.0°</text></a><polyline fill="none" points="723.2896,70.178 721.6004,70.2036 711.0429,70.3606 700.4861,70.5123 689.9299,70.6587 679.3743,70.7999 668.8192,70.9359 658.2647,71.0666 647.7107,71.1921 637.1572,71.3124 626.6041,71.4274 616.0515,71.5371 605.4994,71.6416 594.9477,71.7409 584.3963,71.835 573.8454,71.9238 563.2947,72.0074 552.7444,72.0857 542.1945,72.1588 531.6448,72.2267 521.0953,72.2893 510.5461,72.3468 499.9972,72.3989 489.4484,72.4459 478.8998,72.4876 468.3514,72.5241 457.8031,72.5554 447.2549,72.5814 436.7069,72.6022 426.1589,72.6178 415.6109,72.6282 405.063,72.6333 394.5151,72.6332 383.9672,72.6279 373.4192,72.6173 362.8712,72.6015 352.3231,72.5805 341.775,72.5542 331.2267,72.5228 320.6782,72.4861 310.1296,72.4441 299.5809,72.397 289.0319,72.3446 278.4827,72.2869 267.9332,72.2241 257.3835,72.156 246.8335,72.0827 236.2832,72.0041 225.7326,71.9203 215.1816,71.8313 204.6303,71.737 194.0785,71.6376 183.5264,71.5328 172.9738,71.4229 162.4207,71.3076 151.8672,71.1872 141.3132,71.0615 130.7586,70.9306 120.2035,70.7944 109.6479,70.653 99.0916,70.5063 88.5348,70.3544 77.9773,70.1972 76.7104,70.178" stroke="black" stroke-opacity="0.5" stroke-width="1" /><polyline fill="none" points="731.84,725.5578 731.7205,714.6269 731.6002,703.6969 731.4791,692.7675 731.3573,681.8389 731.2346,670.911 731.1112,659.9837 730.987,649.0571 730.8621,638.1311 730.7364,627.2057 730.6099,616.2808 730.4826,605.3565 730.3545,594.4326 730.2257,583.5093 730.0961,572.5864 729.9657,561.6639 729.8345,550.7419 729.7026,539.8202 729.5699,528.8989 729.4364,517.9779 729.3021,507.0572 729.1671,496.1368 729.0312,485.2166 728.8946,474.2966 728.7573,463.3769 728.6191,452.4573 728.4801,441.5379 728.3404,430.6185 728.1999,419.6993 728.0586,408.7801 727.9166,397.861 727.7737,386.9419 727.6301,376.0228 727.4857,365.1036 727.3405,354.1844 727.1945,343.2651 727.0478,332.3457 726.9002,321.4262 726.7519,310.5064 726.6028,299.5865 726.4529,288.6664 726.3022,277.746 726.1508,266.8254 725.9985,255.9044 725.8455,244.9831 725.6917,234.0615 725.5371,223.1396 725.3817,212.2172 725.2255,201.2944 725.0685,190.3711 724.9107,179.4474 724.7522,168.5231 724.5929,157.5984 724.4327,146.673 724.2718,135.7471 724.1101,124.8206 723.9476,113.8935 723.7843,102.9657 723.6202,92.0372 723.4553,81.108 723.2896,70.178" stroke="black" stroke-opacity="0.5" stroke-width="1" /><polyline fill="none" points="731.84,725.5578 730.106,725.5766 719.2687,725.6922 708.4322,725.8039 697.5963,725.9117 686.7611,726.0157 675.9266,726.1158 665.0926,726.2121 654.2592,726.3045 643.4263,726.393 632.594,726.4777 621.7622,726.5585 610.9309,726.6355 600.1001,726.7086 589.2697,726.7778 578.4397,726.8432 567.6101,726.9048 556.7808,726.9625 545.9519,727.0163 535.1234,727.0663 524.2951,727.1124 513.4671,727.1547 502.6393,727.1931 491.8118,727.2277 480.9844,727.2584 470.1573,727.2853 459.3303,727.3083 448.5034,727.3275 437.6767,727.3428 426.85,727.3543 416.0233,727.3619 405.1968,727.3657 394.3702,727.3656 383.5436,727.3617 372.717,727.3539 361.8903,727.3423 351.0635,727.3268 340.2366,727.3075 329.4096,727.2843 318.5825,727.2573 307.7551,727.2264 296.9276,727.1916 286.0998,727.1531 275.2718,727.1106 264.4435,727.0644 253.6149,727.0142 242.786,726.9602 231.9568,726.9024 221.1271,726.8407 210.2971,726.7751 199.4667,726.7057 188.6358,726.6325 177.8045,726.5554 166.9727,726.4744 156.1404,726.3896 145.3075,726.3009 134.4741,726.2083 123.6401,726.1119 112.8055,726.0116 101.9702,725.9075 91.1343,725.7995 80.2978,725.6876 69.4605,725.5719 68.16,725.5578" stroke="black" stroke-opacity="0.5" stroke-width="1" /><polyline fill="none" points="68.16,725.5578 68.2795,714.6269 68.3998,703.6969 68.5209,692.7675 68.6427,681.8389 68.7654,670.911 68.8888,659.9837 69.013,649.0571 69.1379,638.1311 69.2636,627.2057 69.3901,616.2808 69.5174,605.3565 69.6455,594.4326 69.7743,583.5093 69.9039,572.5864 70.0343,561.6639 70.1655,550.7419 70.2974,539.8202 70.4301,528.8989 70.5636,517.9779 70.6979,507.0572 70.8329,496.1368 70.9688,485.2166 71.1054,474.2966 71.2427,463.3769 71.3809,452.4573 71.5199,441.5379 71.6596,430.6185 71.8001,419.6993 71.9414,408.7801 72.0834,397.861 72.2263,386.9419 72.3699,376.0228 72.5143,365.1036 72.6595,354.1844 72.8055,343.2651 72.9522,332.3457 73.0998,321.4262 73.2481,310.5064 73.3972,299.5865 73.5471,288.6664 73.6978,277.746 73.8492,266.8254 74.0015,255.9044 74.1545,244.9831 74.3083,234.0615 74.4629,223.1396 74.6183,212.2172 74.7745,201.2944 74.9315,190.3711 75.0893,179.4474 75.2478,168.5231 75.4071,157.5984 75.5673,146.673 75.7282,135.7471 75.8899,124.8206 76.0524,113.8935 76.2157,102.9657 76.3798,92.0372 76.5447,81.108 76.7104,70.178" stroke="black" stroke-opacity="0.5" stroke-width="1" /></svg>