<?xml version="1.0" encoding="utf-8" ?>
<svg baseProfile="tiny" height="800" version="1.2" width="800" xmlns="http://www.w3.org/2000/svg" xmlns:ev="http://www.w3.org/2001/xml-events" xmlns:xlink="http://www.w3.org/1999/xlink"><defs /><rect fill="none" height="800" stroke="black" stroke-width="2" width="800" x="0" y="0" /><polyline fill="none" points="699.7635,725.8905 699.6555,714.9617 699.5469,704.0337 699.4375,693.1064 699.3275,682.1799 699.2167,671.254 699.1053,660.3288 698.9931,649.4042 698.8803,638.4803 698.7667,627.5569 698.6524,616.634 698.5375,605.7117 698.4218,594.79 698.3055,583.8686 698.1884,572.9478 698.0707,562.0274 697.9522,551.1073 697.833,540.1877 697.7132,529.2684 697.5926,518.3494 697.4714,507.4307 697.3494,496.5123 697.2267,485.5941 697.1033,474.6762 696.9792,463.7584 696.8545,452.8409 696.729,441.9234 696.6028,431.0061 696.4759,420.0889 696.3483,409.1717 696.22,398.2546 696.091,387.3374 695.9612,376.4203 695.8308,365.5031 695.6997,354.5859 695.5678,343.6686 695.4353,332.7511 695.3021,321.8335 695.1681,310.9158 695.0334,299.9978 694.898,289.0796 694.762,278.1612 694.6252,267.2425 694.4877,256.3235 694.3494,245.4042 694.2105,234.4846 694.0709,223.5645 693.9305,212.6441 693.7895,201.7232 693.6477,190.8019 693.5052,179.8801 693.362,168.9577 693.2181,158.0349 693.0735,147.1115 692.9282,136.1875 692.7821,125.2629 692.6353,114.3377 692.4879,103.4118 692.3397,92.4852 692.1907,81.5579 692.0411,70.6299" stroke="silver" stroke-opacity="0.5" stroke-width="1" /><polyline fill="none" points="591.4357,726.7643 591.3668,715.8409 591.2975,704.9184 591.2277,693.9965 591.1574,683.0753 591.0867,672.1549 591.0156,661.2351 590.944,650.3159 590.872,639.3973 590.7995,628.4793 590.7266,617.5618 590.6532,606.6449 590.5794,595.7284 590.5051,584.8125 590.4304,573.8969 590.3552,562.9819 590.2796,552.0671 590.2035,541.1528 590.127,530.2388 590.0501,519.3251 589.9727,508.4118 589.8948,497.4986 589.8165,486.5857 589.7378,475.6731 589.6586,464.7606 589.5789,453.8483 589.4988,442.9361 589.4183,432.024 589.3373,421.112 589.2558,410.2001 589.1739,399.2881 589.0916,388.3762 589.0088,377.4643 588.9255,366.5523 588.8418,355.6403 588.7577,344.7282 588.6731,333.8159 588.588,322.9035 588.5025,311.9909 588.4166,301.0781 588.3301,290.1651 588.2433,279.2518 588.156,268.3382 588.0682,257.4243 587.98,246.5101 587.8913,235.5956 587.8022,224.6806 587.7126,213.7653 587.6225,202.8495 587.5321,191.9333 587.4411,181.0165 587.3497,170.0993 587.2578,159.1815 587.1655,148.2631 587.0728,137.3442 586.9795,126.4246 586.8859,115.5044 586.7917,104.5835 586.6971,93.6619 586.6021,82.7396 586.5066,71.8166" stroke="silver" stroke-opacity="0.5" stroke-width="1" /><polyline fill="none" points="483.1499,727.2526 483.12,716.3323 483.0899,705.4127 483.0596,694.4939 483.0291,683.5757 482.9984,672.6583 482.9675,661.7415 482.9364,650.8253 482.9051,639.9097 482.8736,628.9947 482.842,618.0802 482.8101,607.1663 482.7781,596.2528 482.7458,585.3399 482.7134,574.4273 482.6807,563.5152 482.6479,552.6035 482.6149,541.6921 482.5816,530.7811 482.5482,519.8704 482.5146,508.9599 482.4808,498.0498 482.4468,487.1398 482.4126,476.2301 482.3782,465.3206 482.3436,454.4112 482.3089,443.5019 482.2739,432.5928 482.2387,421.6837 482.2033,410.7747 482.1678,399.8657 482.132,388.9567 482.0961,378.0477 482.0599,367.1386 482.0236,356.2295 481.987,345.3202 481.9503,334.4109 481.9134,323.5013 481.8762,312.5916 481.8389,301.6817 481.8014,290.7716 481.7637,279.8612 481.7258,268.9505 481.6876,258.0395 481.6493,247.1281 481.6108,236.2164 481.5721,225.3043 481.5332,214.3918 481.4941,203.4789 481.4548,192.5655 481.4153,181.6516 481.3757,170.7371 481.3358,159.8222 481.2957,148.9066 481.2554,137.9905 481.2149,127.0737 481.1742,116.1563 481.1334,105.2383 481.0923,94.3195 481.051,83.4 481.0095,72.4797" stroke="silver" stroke-opacity="0.5" stroke-width="1" /><polyline fill="none" points="374.8823,727.3557 374.8913,716.4361 374.9004,705.5171 374.9096,694.5989 374.9188,683.6815 374.9281,672.7646 374.9374,661.8485 374.9468,650.9329 374.9562,640.018 374.9657,629.1036 374.9753,618.1898 374.9849,607.2765 374.9946,596.3637 375.0044,585.4513 375.0142,574.5394 375.024,563.6279 375.0339,552.7168 375.0439,541.8061 375.0539,530.8957 375.064,519.9856 375.0742,509.0758 375.0844,498.1662 375.0947,487.2569 375.105,476.3478 375.1154,465.4389 375.1258,454.5301 375.1363,443.6215 375.1469,432.713 375.1575,421.8045 375.1682,410.8961 375.179,399.9877 375.1898,389.0794 375.2006,378.171 375.2115,367.2625 375.2225,356.354 375.2335,345.4454 375.2446,334.5366 375.2558,323.6277 375.267,312.7186 375.2783,301.8093 375.2896,290.8997 375.301,279.9899 375.3125,269.0798 375.324,258.1694 375.3356,247.2587 375.3472,236.3476 375.3589,225.4361 375.3706,214.5242 375.3824,203.6119 375.3943,192.6991 375.4062,181.7857 375.4182,170.8719 375.4303,159.9576 375.4424,149.0426 375.4545,138.1271 375.4668,127.2109 375.4791,116.2941 375.4914,105.3766 375.5038,94.4584 375.5163,83.5395 375.5288,72.6198" stroke="silver" stroke-opacity="0.5" stroke-width="1" /><polyline fill="none" points="266.6092,727.0739 266.6572,716.1525 266.7055,705.2318 266.7541,694.3119 266.8031,683.3926 266.8523,672.4741 266.9019,661.5562 266.9518,650.6389 267.0019,639.7222 267.0524,628.8061 267.1032,617.8905 267.1543,606.9755 267.2058,596.061 267.2575,585.1469 267.3096,574.2333 267.3619,563.3201 267.4146,552.4072 267.4676,541.4948 267.5209,530.5827 267.5745,519.6709 267.6284,508.7594 267.6827,497.8481 267.7372,486.9371 267.7921,476.0263 267.8473,465.1157 267.9027,454.2052 267.9586,443.2949 268.0147,432.3847 268.0711,421.4745 268.1278,410.5644 268.1849,399.6544 268.2423,388.7443 268.2999,377.8342 268.3579,366.9241 268.4163,356.0139 268.4749,345.1036 268.5338,334.1932 268.5931,323.2826 268.6526,312.3718 268.7125,301.4609 268.7727,290.5496 268.8332,279.6382 268.8941,268.7264 268.9552,257.8144 269.0167,246.902 269.0785,235.9893 269.1405,225.0761 269.203,214.1626 269.2657,203.2486 269.3287,192.3341 269.3921,181.4192 269.4558,170.5037 269.5198,159.5877 269.5841,148.6712 269.6487,137.754 269.7136,126.8362 269.7789,115.9178 269.8445,104.9987 269.9104,94.0789 269.9766,83.1584 270.0432,72.2371" stroke="silver" stroke-opacity="0.5" stroke-width="1" /><polyline fill="none" points="158.3069,726.4068 158.3939,715.4813 158.4815,704.5565 158.5696,693.6324 158.6583,682.709 158.7476,671.7863 158.8374,660.8643 158.9278,649.9429 159.0188,639.0221 159.1103,628.1019 159.2024,617.1823 159.295,606.2631 159.3883,595.3445 159.482,584.4264 159.5764,573.5087 159.6713,562.5914 159.7668,551.6745 159.8628,540.758 159.9595,529.8418 160.0566,518.926 160.1544,508.0104 160.2527,497.0951 160.3516,486.1801 160.451,475.2653 160.551,464.3506 160.6516,453.4361 160.7528,442.5218 160.8545,431.6076 160.9568,420.6934 161.0596,409.7794 161.163,398.8653 161.267,387.9513 161.3716,377.0372 161.4767,366.1231 161.5824,355.209 161.6887,344.2947 161.7955,333.3803 161.9029,322.4658 162.0109,311.5511 162.1194,300.6362 162.2286,289.721 162.3383,278.8056 162.4485,267.89 162.5593,256.974 162.6708,246.0577 162.7827,235.1411 162.8953,224.224 163.0084,213.3066 163.1221,202.3887 163.2364,191.4704 163.3512,180.5516 163.4666,169.6323 163.5826,158.7124 163.6992,147.792 163.8164,136.871 163.9341,125.9494 164.0524,115.0271 164.1713,104.1042 164.2907,93.1805 164.4108,82.2562 164.5314,71.3311" stroke="silver" stroke-opacity="0.5" stroke-width="1" /><polyline fill="none" points="731.3573,681.8389 720.9685,681.9533 710.1477,682.0686 699.3275,682.1799 688.5079,682.2872 677.689,682.3906 666.8707,682.49 656.0529,682.5855 645.2357,682.677 634.4191,682.7646 623.603,682.8482 612.7873,682.9279 601.9721,683.0036 591.1574,683.0753 580.3431,683.1432 569.5292,683.207 558.7156,683.2669 547.9024,683.3229 537.0895,683.3749 526.2769,683.4229 515.4646,683.4671 504.6525,683.5072 493.8407,683.5434 483.0291,683.5757 472.2176,683.6041 461.4063,683.6284 450.5951,683.6489 439.7841,683.6654 428.9731,683.6779 418.1622,683.6865 407.3514,683.6912 396.5405,683.6919 385.7297,683.6886 374.9188,683.6815 364.1079,683.6703 353.2968,683.6553 342.4857,683.6362 331.6745,683.6133 320.8631,683.5864 310.0515,683.5555 299.2398,683.5207 288.4278,683.482 277.6156,683.4393 266.8031,683.3926 255.9903,683.3421 245.1772,683.2875 234.3638,683.229 223.55,683.1666 212.7358,683.1002 201.9212,683.0299 191.1062,682.9556 180.2907,682.8774 169.4748,682.7952 158.6583,682.709 147.8413,682.6189 137.0238,682.5249 126.2057,682.4269 115.387,682.3249 104.5677,682.219 93.7477,682.1091 82.9271,681.9952 72.1057,681.8774 68.6427,681.8389" stroke="silver" stroke-opacity="0.5" stroke-width="1" /><polyline fill="none" points="730.3545,594.4326 719.9973,594.5525 709.2092,594.6733 698.4218,594.79 687.6351,594.9025 676.8489,595.0108 666.0634,595.115 655.2784,595.2151 644.494,595.311 633.7101,595.4028 622.9267,595.4904 612.1438,595.5739 601.3614,595.6532 590.5794,595.7284 579.7978,595.7995 569.0166,595.8664 558.2357,595.9292 547.4552,595.9879 536.675,596.0424 525.8951,596.0927 515.1155,596.139 504.3361,596.1811 493.557,596.219 482.7781,596.2528 471.9993,596.2825 461.2207,596.3081 450.4422,596.3295 439.6638,596.3468 428.8856,596.3599 418.1073,596.3689 407.3292,596.3738 396.551,596.3746 385.7728,596.3712 374.9946,596.3637 364.2164,596.352 353.438,596.3362 342.6596,596.3163 331.881,596.2922 321.1023,596.264 310.3234,596.2317 299.5444,596.1952 288.7651,596.1546 277.9856,596.1098 267.2058,596.061 256.4257,596.0079 245.6453,595.9508 234.8646,595.8895 224.0835,595.8241 213.3021,595.7545 202.5202,595.6808 191.7379,595.6029 180.9552,595.5209 170.172,595.4348 159.3883,595.3445 148.604,595.2501 137.8193,595.1515 127.0339,595.0488 116.248,594.9419 105.4615,594.8309 94.6743,594.7158 83.8865,594.5965 73.0979,594.473 69.6455,594.4326" stroke="silver" stroke-opacity="0.5" stroke-width="1" /><polyline fill="none" points="729.3021,507.0572 718.978,507.1825 708.2243,507.3088 697.4714,507.4307 686.719,507.5483 675.9673,507.6616 665.2161,507.7705 654.4655,507.8751 643.7155,507.9754 632.966,508.0713 622.217,508.1629 611.4684,508.2502 600.7203,508.3331 589.9727,508.4118 579.2254,508.486 568.4785,508.556 557.732,508.6216 546.9859,508.6829 536.24,508.7399 525.4944,508.7926 514.7491,508.8409 504.0041,508.8849 493.2592,508.9246 482.5146,508.9599 471.7702,508.991 461.0259,509.0177 450.2817,509.0401 439.5376,509.0581 428.7936,509.0719 418.0497,509.0813 407.3058,509.0864 396.562,509.0872 385.8181,509.0836 375.0742,509.0758 364.3302,509.0636 353.5862,509.0471 342.8421,509.0262 332.0978,509.0011 321.3534,508.9716 310.6088,508.9378 299.8641,508.8997 289.1191,508.8572 278.3739,508.8105 267.6284,508.7594 256.8827,508.7039 246.1366,508.6442 235.3902,508.5801 224.6435,508.5117 213.8964,508.439 203.1489,508.3619 192.4009,508.2806 181.6526,508.1948 170.9037,508.1048 160.1544,508.0104 149.4045,507.9117 138.6542,507.8087 127.9032,507.7013 117.1517,507.5896 106.3996,507.4736 95.6468,507.3532 84.8934,507.2285 74.1393,507.0994 70.6979,507.0572" stroke="silver" stroke-opacity="0.5" stroke-width="1" /><polyline fill="none" points="728.1999,419.6993 717.9104,419.83 707.1928,419.9617 696.4759,420.0889 685.7596,420.2115 675.0439,420.3296 664.3287,420.4432 653.6142,420.5523 642.9002,420.6569 632.1866,420.757 621.4736,420.8525 610.7611,420.9435 600.049,421.03 589.3373,421.112 578.626,421.1895 567.9151,421.2624 557.2045,421.3309 546.4943,421.3948 535.7844,421.4542 525.0748,421.5092 514.3654,421.5596 503.6563,421.6055 492.9474,421.6468 482.2387,421.6837 471.5302,421.7161 460.8218,421.7439 450.1136,421.7673 439.4054,421.7861 428.6974,421.8005 417.9894,421.8103 407.2814,421.8156 396.5735,421.8164 385.8655,421.8127 375.1575,421.8045 364.4495,421.7918 353.7414,421.7746 343.0332,421.7529 332.3249,421.7266 321.6164,421.6959 310.9077,421.6606 300.1989,421.6209 289.4899,421.5766 278.7806,421.5278 268.0711,421.4745 257.3613,421.4167 246.6512,421.3544 235.9408,421.2876 225.23,421.2163 214.5188,421.1404 203.8073,421.06 193.0953,420.9752 182.3829,420.8858 171.6701,420.7919 160.9568,420.6934 150.2429,420.5905 139.5286,420.483 128.8136,420.3711 118.0981,420.2546 107.3821,420.1335 96.6654,420.008 85.948,419.8779 75.23,419.7433 71.8001,419.6993" stroke="silver" stroke-opacity="0.5" stroke-width="1" /><polyline fill="none" points="727.0478,332.3457 716.7944,332.4817 706.1146,332.6188 695.4353,332.7511 684.7567,332.8788 674.0786,333.0017 663.4012,333.1199 652.7242,333.2335 642.0479,333.3423 631.372,333.4464 620.6966,333.5458 610.0217,333.6405 599.3472,333.7306 588.6731,333.8159 577.9994,333.8965 567.3261,333.9724 556.6531,334.0437 545.9805,334.1102 535.3082,334.1721 524.6361,334.2292 513.9643,334.2817 503.2928,334.3294 492.6214,334.3725 481.9503,334.4109 471.2793,334.4446 460.6085,334.4735 449.9378,334.4978 439.2672,334.5175 428.5967,334.5324 417.9263,334.5426 407.2559,334.5481 396.5855,334.549 385.9151,334.5451 375.2446,334.5366 364.5742,334.5234 353.9036,334.5054 343.233,334.4828 332.5622,334.4555 321.8913,334.4235 311.2202,334.3868 300.5489,334.3455 289.8775,334.2994 279.2058,334.2486 268.5338,334.1932 257.8616,334.133 247.1891,334.0682 236.5162,333.9986 225.843,333.9244 215.1695,333.8455 204.4956,333.7618 193.8212,333.6735 183.1464,333.5805 172.4712,333.4827 161.7955,333.3803 151.1193,333.2732 140.4426,333.1613 129.7653,333.0448 119.0875,332.9236 108.4091,332.7976 97.73,332.667 87.0504,332.5316 76.3701,332.3915 72.9522,332.3457" stroke="silver" stroke-opacity="0.5" stroke-width="1" /><polyline fill="none" points="725.8455,244.9831 715.6299,245.1244 704.9894,245.2668 694.3494,245.4042 683.7101,245.5368 673.0714,245.6645 662.4332,245.7873 651.7956,245.9052 641.1585,246.0182 630.5219,246.1264 619.8857,246.2296 609.2501,246.328 598.6148,246.4215 587.98,246.5101 577.3455,246.5939 566.7114,246.6728 556.0777,246.7467 545.4443,246.8158 534.8112,246.8801 524.1783,246.9394 513.5458,246.9939 502.9134,247.0435 492.2813,247.0883 481.6493,247.1281 471.0176,247.1631 460.3859,247.1932 449.7544,247.2185 439.123,247.2388 428.4917,247.2543 417.8604,247.2649 407.2292,247.2707 396.598,247.2716 385.9668,247.2676 375.3356,247.2587 364.7043,247.245 354.0729,247.2264 343.4414,247.2029 332.8098,247.1745 322.1781,247.1413 311.5462,247.1032 300.9142,247.0602 290.2819,247.0123 279.6494,246.9596 269.0167,246.902 258.3837,246.8395 247.7504,246.7722 237.1167,246.6999 226.4828,246.6228 215.8485,246.5409 205.2138,246.454 194.5787,246.3622 183.9432,246.2656 173.3072,246.1641 162.6708,246.0577 152.0338,245.9465 141.3964,245.8303 130.7584,245.7093 120.1199,245.5833 109.4808,245.4525 98.8411,245.3168 88.2007,245.1762 77.5598,245.0307 74.1545,244.9831" stroke="silver" stroke-opacity="0.5" stroke-width="1" /><polyline fill="none" points="724.5929,157.5984 714.4167,157.7448 703.8171,157.8924 693.2181,158.0349 682.6198,158.1724 672.022,158.3047 661.4247,158.432 650.828,158.5543 640.2319,158.6715 629.6362,158.7836 619.0409,158.8907 608.4462,158.9927 597.8518,159.0896 587.2578,159.1815 576.6643,159.2683 566.0711,159.3501 555.4782,159.4268 544.8856,159.4984 534.2934,159.565 523.7014,159.6265 513.1097,159.683 502.5182,159.7345 491.9269,159.7808 481.3358,159.8222 470.7448,159.8584 460.154,159.8897 449.5634,159.9158 438.9728,159.9369 428.3823,159.953 417.7919,159.964 407.2015,159.97 396.6111,159.9709 386.0207,159.9667 375.4303,159.9576 364.8398,159.9433 354.2493,159.924 343.6586,159.8997 333.0679,159.8703 322.477,159.8358 311.8859,159.7963 301.2947,159.7517 290.7033,159.7021 280.1117,159.6475 269.5198,159.5877 258.9276,159.523 248.3352,159.4531 237.7424,159.3783 227.1493,159.2983 216.5559,159.2133 205.9621,159.1233 195.3679,159.0281 184.7732,158.928 174.1782,158.8227 163.5826,158.7124 152.9866,158.5971 142.3901,158.4766 131.7931,158.3511 121.1955,158.2206 110.5974,158.085 99.9986,157.9443 89.3993,157.7985 78.7993,157.6477 75.4071,157.5984" stroke="silver" stroke-opacity="0.5" stroke-width="1" /><polyline fill="none" points="723.2896,70.178 713.1544,70.3296 702.5974,70.4824 692.0411,70.6299 681.4854,70.7721 670.9302,70.9091 660.3755,71.0409 649.8214,71.1674 639.2678,71.2887 628.7147,71.4048 618.162,71.5156 607.6098,71.6211 597.058,71.7215 586.5066,71.8166 575.9555,71.9064 565.4048,71.9911 554.8545,72.0705 544.3044,72.1446 533.7547,72.2135 523.2052,72.2772 512.656,72.3357 502.107,72.3889 491.5582,72.4369 481.0095,72.4797 470.4611,72.5172 459.9128,72.5496 449.3646,72.5766 438.8165,72.5985 428.2685,72.6151 417.7205,72.6265 407.1726,72.6327 396.6247,72.6336 386.0768,72.6293 375.5288,72.6198 364.9808,72.6051 354.4328,72.5851 343.8846,72.5599 333.3363,72.5295 322.7879,72.4938 312.2394,72.4529 301.6906,72.4068 291.1417,72.3555 280.5926,72.2989 270.0432,72.2371 259.4935,72.17 248.9436,72.0978 238.3933,72.0202 227.8428,71.9375 217.2919,71.8495 206.7406,71.7563 196.1889,71.6579 185.6368,71.5542 175.0843,71.4453 164.5314,71.3311 153.9779,71.2117 143.424,71.0871 132.8696,70.9572 122.3146,70.8221 111.759,70.6817 101.2029,70.5361 90.6462,70.3852 80.0888,70.2291 76.7104,70.178" stroke="silver" stroke-opacity="0.5" stroke-width="1" /><circle cx="730.0589" cy="705.3753" fill="black" r="0.738" stroke="none" /><circle cx="719.1195" cy="687.1317" fill="black" r="0.738" stroke="none" /><circle cx="715.4007" cy="459.9601" fill="black" r="0.738" stroke="none" /><circle cx="713.8533" cy="488.5467" fill="black" r="0.738" stroke="none" /><circle cx="709.5562" cy="503.4493" fill="black" r="0.936" stroke="none" /><circle cx="705.7447" cy="683.2508" fill="black" r="0.738" stroke="none" /><circle cx="701.2803" cy="464.3206" fill="black" r="0.738" stroke="none" /><circle cx="699.4802" cy="434.9908" fill="black" r="0.738" stroke="none" /><circle cx="694.8195" cy="303.4074" fill="black" r="0.738" stroke="none" /><circle cx="688.2998" cy="559.1609" fill="black" r="0.738" stroke="none" /><circle cx="682.1511" cy="264.4257" fill="black" r="0.738" stroke="none" /><circle cx="677.6601" cy="161.6432" fill="black" r="0.738" stroke="none" /><circle cx="675.3539" cy="531.7765" fill="black" r="0.738" stroke="none" /><circle cx="672.8919" cy="318.691" fill="black" r="0.738" stroke="none" /><circle cx="669.2412" cy="367.03" fill="black" r="0.738" stroke="none" /><circle cx="664.4548" cy="185.2215" fill="black" r="0.738" stroke="none" /><circle cx="661.1068" cy="204.0449" fill="black" r="0.738" stroke="none" /><circle cx="665.6836" cy="704.702" fill="black" r="0.738" stroke="none" /><circle cx="660.3232" cy="254.9829" fill="black" r="0.738" stroke="none" /><circle cx="656.8842" cy="610.4891" fill="black" r="0.738" stroke="none" /><circle cx="655.7113" cy="663.1875" fill="black" r="0.738" stroke="none" /><circle cx="642.5892" cy="469.6484" fill="black" r="0.738" stroke="none" /><circle cx="637.4454" cy="151.799" fill="black" r="0.738" stroke="none" /><circle cx="640.9951" cy="640.6821" fill="black" r="0.738" stroke="none" /><circle cx="636.0094" cy="398.7174" fill="black" r="0.738" stroke="none" /><circle cx="618.2824" cy="99.919" fill="black" r="0.738" stroke="none" /><circle cx="622.5067" cy="709.947" fill="black" r="0.738" stroke="none" /><circle cx="614.8811" cy="97.9431" fill="black" r="0.738" stroke="none" /><circle cx="613.7743" cy="443.0952" fill="black" r="0.738" stroke="none" /><circle cx="605.194" cy="711.2059" fill="black" r="0.738" stroke="none" /><circle cx="595.394" cy="462.6229" fill="black" r="0.738" stroke="none" /><circle cx="593.4659" cy="626.8892" fill="black" r="0.738" stroke="none" /><circle cx="592.3293" cy="513.2843" fill="black" r="0.738" stroke="none" /><circle cx="586.185" cy="73.6547" fill="black" r="0.738" stroke="none" /><circle cx="584.3029" cy="435.9898" fill="black" r="0.738" stroke="none" /><circle cx="581.7675" cy="703.929" fill="black" r="0.738" stroke="none" /><circle cx="578.2325" cy="296.2672" fill="black" r="0.936" stroke="none" /><circle cx="575.9822" cy="448.008" fill="black" r="0.738" stroke="none" /><circle cx="573.0738" cy="582.4809" fill="black" r="0.738" stroke="none" /><circle cx="569.5117" cy="188.4079" fill="black" r="0.738" stroke="none" /><circle cx="564.1025" cy="524.0359" fill="black" r="0.738" stroke="none" /><circle cx="561.1245" cy="120.4281" fill="black" r="1.17" stroke="none" /><circle cx="563.0388" cy="606.2063" fill="black" r="0.738" stroke="none" /><circle cx="551.0587" cy="233.7707" fill="black" r="0.738" stroke="none" /><circle cx="551.782" cy="630.9832" fill="black" r="0.738" stroke="none" /><circle cx="549.1905" cy="221.0351" fill="black" r="0.738" stroke="none" /><circle cx="533.7096" cy="323.0081" fill="black" r="0.738" stroke="none" /><circle cx="531.7325" cy="320.4003" fill="black" r="0.738" stroke="none" /><circle cx="531.7692" cy="712.752" fill="black" r="0.738" stroke="none" /><circle cx="524.3587" cy="561.0888" fill="black" r="0.738" stroke="none" /><circle cx="518.0065" cy="156.339" fill="black" r="0.738" stroke="none" /><circle cx="518.176" cy="506.2073" fill="black" r="0.738" stroke="none" /><circle cx="514.5047" cy="552.6634" fill="black" r="0.738" stroke="none" /><circle cx="512.9635" cy="249.703" fill="black" r="0.738" stroke="none" /><circle cx="512.8956" cy="667.6676" fill="black" r="0.738" stroke="none" /><circle cx="510.7231" cy="641.9995" fill="black" r="0.738" stroke="none" /><circle cx="505.9088" cy="327.3356" fill="black" r="0.738" stroke="none" /><circle cx="506.1148" cy="477.8905" fill="black" r="0.738" stroke="none" /><circle cx="505.709" cy="594.3424" fill="black" r="0.738" stroke="none" /><circle cx="489.0881" cy="372.2635" fill="black" r="0.738" stroke="none" /><circle cx="485.329" cy="641.8238" fill="black" r="0.738" stroke="none" /><circle cx="481.9094" cy="87.0658" fill="black" r="0.738" stroke="none" /><circle cx="482.1139" cy="332.3157" fill="black" r="0.738" stroke="none" /><circle cx="480.9689" cy="129.1707" fill="black" r="0.738" stroke="none" /><circle cx="477.0914" cy="419.3435" fill="black" r="0.738" stroke="none" /><circle cx="476.3611" cy="714.3408" fill="black" r="0.738" stroke="none" /><circle cx="474.9239" cy="219.1287" fill="black" r="0.738" stroke="none" /><circle cx="474.8702" cy="706.6573" fill="black" r="0.738" stroke="none" /><circle cx="473.2866" cy="292.8942" fill="black" r="0.738" stroke="none" /><circle cx="470.994" cy="540.6774" fill="black" r="0.738" stroke="none" /><circle cx="470.2749" cy="631.2113" fill="black" r="0.738" stroke="none" /><circle cx="452.1102" cy="477.3551" fill="black" r="0.738" stroke="none" /><circle cx="442.8223" cy="224.1" fill="black" r="0.738" stroke="none" /><circle cx="438.9513" cy="580.0229" fill="black" r="0.738" stroke="none" /><circle cx="436.5986" cy="319.7726" fill="black" r="0.738" stroke="none" /><circle cx="422.0599" cy="691.3697" fill="black" r="0.738" stroke="none" /><circle cx="420.4968" cy="450.8687" fill="black" r="0.738" stroke="none" /><circle cx="418.9796" cy="161.7967" fill="black" r="0.738" stroke="none" /><circle cx="417.866" cy="623.9576" fill="black" r="0.738" stroke="none" /><circle cx="414.8034" cy="712.3373" fill="black" r="0.738" stroke="none" /><circle cx="414.7167" cy="712.0753" fill="black" r="0.738" stroke="none" /><circle cx="402.7111" cy="159.4471" fill="black" r="0.738" stroke="none" /><circle cx="402.2155" cy="291.4362" fill="black" r="0.738" stroke="none" /><circle cx="402.051" cy="361.9516" fill="black" r="0.738" stroke="none" /><circle cx="397.5346" cy="237.9319" fill="black" r="0.738" stroke="none" /><circle cx="397.3347" cy="516.855" fill="black" r="0.738" stroke="none" /><circle cx="395.1985" cy="444.9421" fill="black" r="0.738" stroke="none" /><circle cx="392.8203" cy="93.7724" fill="black" r="0.738" stroke="none" /><circle cx="389.4799" cy="190.7893" fill="black" r="0.738" stroke="none" /><circle cx="376.515" cy="634.7803" fill="black" r="0.738" stroke="none" /><circle cx="369.8291" cy="510.9032" fill="black" r="0.738" stroke="none" /><circle cx="367.4204" cy="191.4667" fill="black" r="0.738" stroke="none" /><circle cx="364.6414" cy="347.0032" fill="black" r="0.738" stroke="none" /><circle cx="363.3309" cy="366.7241" fill="black" r="0.738" stroke="none" /><circle cx="354.3962" cy="699.9901" fill="black" r="0.738" stroke="none" /><circle cx="348.8197" cy="126.5534" fill="black" r="0.738" stroke="none" /><circle cx="346.7359" cy="583.9276" fill="black" r="0.738" stroke="none" /><circle cx="345.0442" cy="442.7021" fill="black" r="0.738" stroke="none" /><circle cx="338.8229" cy="256.9675" fill="black" r="0.738" stroke="none" /><circle cx="337.315" cy="716.0321" fill="black" r="0.738" stroke="none" /><circle cx="334.1438" cy="349.3836" fill="black" r="0.738" stroke="none" /><circle cx="334.4488" cy="151.3168" fill="black" r="0.738" stroke="none" /><circle cx="327.441" cy="483.1541" fill="black" r="0.738" stroke="none" /><circle cx="324.9729" cy="599.9415" fill="black" r="0.738" stroke="none" /><circle cx="324.58" cy="462.8107" fill="black" r="0.738" stroke="none" /><circle cx="324.9059" cy="219.2155" fill="black" r="0.738" stroke="none" /><circle cx="322.1697" cy="523.8996" fill="black" r="0.738" stroke="none" /><circle cx="320.8276" cy="541.7023" fill="black" r="0.738" stroke="none" /><circle cx="320.124" cy="576.5308" fill="black" r="0.936" stroke="none" /><circle cx="318.0412" cy="336.9419" fill="black" r="0.738" stroke="none" /><circle cx="315.1209" cy="606.7236" fill="black" r="0.738" stroke="none" /><circle cx="313.8279" cy="76.1288" fill="black" r="0.738" stroke="none" /><circle cx="300.9564" cy="237.1957" fill="black" r="0.738" stroke="none" /><circle cx="296.7171" cy="500.2464" fill="black" r="0.738" stroke="none" /><circle cx="295.442" cy="291.6423" fill="black" r="0.738" stroke="none" /><circle cx="292.674" cy="226.5079" fill="black" r="0.936" stroke="none" /><circle cx="286.1953" cy="114.0009" fill="black" r="0.738" stroke="none" /><circle cx="280.3896" cy="462.4705" fill="black" r="0.738" stroke="none" /><circle cx="276.7558" cy="703.0907" fill="black" r="0.738" stroke="none" /><circle cx="269.6666" cy="207.3547" fill="black" r="0.738" stroke="none" /><circle cx="267.5891" cy="304.1607" fill="black" r="0.738" stroke="none" /><circle cx="257.1832" cy="362.585" fill="black" r="0.738" stroke="none" /><circle cx="248.1422" cy="678.673" fill="black" r="0.738" stroke="none" /><circle cx="248.7402" cy="137.4453" fill="black" r="0.738" stroke="none" /><circle cx="233.0648" cy="638.0609" fill="black" r="0.738" stroke="none" /><circle cx="232.4499" cy="497.6491" fill="black" r="0.738" stroke="none" /><circle cx="229.1501" cy="489.5963" fill="black" r="0.738" stroke="none" /><circle cx="229.1108" cy="379.7779" fill="black" r="0.738" stroke="none" /><circle cx="226.6673" cy="527.9943" fill="black" r="0.738" stroke="none" /><circle cx="209.4685" cy="601.4055" fill="black" r="0.738" stroke="none" /><circle cx="208.1543" cy="447.1092" fill="black" r="0.936" stroke="none" /><circle cx="207.2614" cy="88.8898" fill="black" r="0.738" stroke="none" /><circle cx="201.6746" cy="545.1989" fill="black" r="0.738" stroke="none" /><circle cx="201.0526" cy="608.0725" fill="black" r="0.738" stroke="none" /><circle cx="198.5967" cy="293.8122" fill="black" r="0.738" stroke="none" /><circle cx="195.0622" cy="661.5776" fill="black" r="0.738" stroke="none" /><circle cx="197.5958" cy="222.5478" fill="black" r="0.738" stroke="none" /><circle cx="192.4574" cy="236.2131" fill="black" r="0.738" stroke="none" /><circle cx="186.153" cy="710.0971" fill="black" r="0.738" stroke="none" /><circle cx="188.6355" cy="311.4511" fill="black" r="0.738" stroke="none" /><circle cx="188.2163" cy="330.0454" fill="black" r="0.738" stroke="none" /><circle cx="189.7248" cy="119.8344" fill="black" r="0.738" stroke="none" /><circle cx="181.295" cy="509.851" fill="black" r="0.738" stroke="none" /><circle cx="172.8074" cy="437.4794" fill="black" r="0.738" stroke="none" /><circle cx="168.5715" cy="375.7083" fill="black" r="0.738" stroke="none" /><circle cx="159.8199" cy="667.6007" fill="black" r="0.738" stroke="none" /><circle cx="162.9353" cy="179.761" fill="black" r="0.738" stroke="none" /><circle cx="147.6168" cy="496.8907" fill="black" r="0.738" stroke="none" /><circle cx="142.0003" cy="717.706" fill="black" r="0.738" stroke="none" /><circle cx="139.31" cy="204.7486" fill="black" r="0.738" stroke="none" /><circle cx="135.3424" cy="435.6358" fill="black" r="0.738" stroke="none" /><circle cx="125.5834" cy="532.7468" fill="black" r="0.936" stroke="none" /><circle cx="122.9682" cy="138.5788" fill="black" r="0.738" stroke="none" /><circle cx="111.8016" cy="408.4798" fill="black" r="0.738" stroke="none" /><circle cx="109.088" cy="561.667" fill="black" r="0.738" stroke="none" /><circle cx="106.0101" cy="711.6075" fill="black" r="0.738" stroke="none" /><circle cx="102.0084" cy="695.7436" fill="black" r="0.738" stroke="none" /><circle cx="103.1222" cy="230.169" fill="black" r="0.738" stroke="none" /><circle cx="85.2104" cy="615.2366" fill="black" r="0.738" stroke="none" /><circle cx="84.7718" cy="615.8435" fill="black" r="0.738" stroke="none" /><circle cx="81.0435" cy="469.789" fill="black" r="0.738" stroke="none" /><circle cx="81.0392" cy="470.1384" fill="black" r="0.738" stroke="none" /><circle cx="13.77" cy="786.23" fill="black" r="4.59" stroke="none" /><circle cx="13.77" cy="786.23" fill="black" r="4.59" stroke="none" /><text fill="black" font-family="monospace" font-size="12" x="10.77" y="775.64">1</text><circle cx="37.77" cy="786.23" fill="black" r="3.654" stroke="none" /><circle cx="37.77" cy="786.23" fill="black" r="3.654" stroke="none" /><text fill="black" font-family="monospace" font-size="12" x="34.769999999999996" y="775.64">2</text><circle cx="61.77" cy="786.23" fill="black" r="2.916" stroke="none" /><circle cx="61.77" cy="786.23" fill="black" r="2.916" stroke="none" /><text fill="black" font-family="monospace" font-size="12" x="58.769999999999996" y="775.64">3</text><circle cx="85.77" cy="786.23" fill="black" r="2.322" stroke="none" /><circle cx="85.77" cy="786.23" fill="black" r="2.322" stroke="none" /><text fill="black" font-family="monospace" font-size="12" x="82.77" y="775.64">4</text><circle cx="109.77" cy="786.23" fill="black" r="1.854" stroke="none" /><circle cx="109.77" cy="786.23" fill="black" r="1.854" stroke="none" /><text fill="black" font-family="monospace" font-size="12" x="106.77" y="775.64">5</text><circle cx="133.77" cy="786.23" fill="black" r="1.476" stroke="none" /><circle cx="133.77" cy="786.23" fill="black" r="1.476" stroke="none" /><text fill="black" font-family="monospace" font-size="12" x="130.77" y="775.64">6</text><circle cx="157.77" cy="786.23" fill="black" r="1.17" stroke="none" /><circle cx="157.77" cy="786.23" fill="black" r="1.17" stroke="none" /><text fill="black" font-family="monospace" font-size="12" x="154.77" y="775.64">7</text><circle cx="181.77" cy="786.23" fill="black" r="0.936" stroke="none" /><circle cx="181.77" cy="786.23" fill="black" r="0.936" stroke="none" /><text fill="black" font-family="monospace" font-size="12" x="178.77" y="775.64">8</text><circle cx="205.77" cy="786.23" fill="black" r="0.738" stroke="none" /><circle cx="205.77" cy="786.23" fill="black" r="0.738" stroke="none" /><text fill="black" font-family="monospace" font-size="12" x="202.77" y="775.64">9</text><text fill="gray" fill-opacity="0.5" font-family="monospace" font-size="12" x="699.7634646641125" y="725.8904798781225">14h50m</text><text fill="gray" fill-opacity="0.5" font-family="monospace" font-size="12" x="591.4357072533892" y="726.7642960043413">14h55m</text><text fill="gray" fill-opacity="0.5" font-family="monospace" font-size="12" x="483.1498939619474" y="727.2525685269302">15h00m</text><text fill="gray" fill-opacity="0.5" font-family="monospace" font-size="12" x="374.8822943199819" y="727.3557439361686">15h05m</text><text fill="gray" fill-opacity="0.5" font-family="monospace" font-size="12" x="266.6091930478935" y="727.0739165544478">15h10m</text><text fill="gray" fill-opacity="0.5" font-family="monospace" font-size="12" x="158.30687027805433" y="726.4068287168111">15h15m</text><text fill="gray" fill-opacity="0.5" font-family="monospace" font-size="12" x="68.64274660234406" y="681.8389141919388">+8°</text><text fill="gray" fill-opacity="0.5" font-family="monospace" font-size="12" x="69.64546961131464" y="594.4326330539807">+9°</text><text fill="gray" fill-opacity="0.5" font-family="monospace" font-size="12" x="70.69787367159438" y="507.0571874107499">+10°</text><text fill="gray" fill-opacity="0.5" font-family="monospace" font-size="12" x="71.80007815861342" y="419.69930120520905">+11°</text><text fill="gray" fill-opacity="0.5" font-family="monospace" font-size="12" x="72.95223276131458" y="332.34570903144146">+12°</text><text fill="gray" fill-opacity="0.5" font-family="monospace" font-size="12" x="74.15451755678691" y="244.9831480886702">+13°</text><text fill="gray" fill-opacity="0.5" font-family="monospace" font-size="12" x="75.40714312416856" y="157.5983501386286">+14°</text><text fill="gray" fill-opacity="0.5" font-family="monospace" font-size="12" x="76.71035069797495" y="70.17803345593836">+15°</text><text fill="black" font-family="monospace" font-size="12" x="12" y="48">&gt;&gt; No.486 14h49m 15h19m +7.5°+15.0°</text><a target="_self" xlink:href="hip028.svg"><text fill="black" font-family="monospace" font-size="12" x="12" y="36">&gt; No.28 13h20m 16h00m +0.0°+22.5°</text></a><a target="_self" xlink:href="hip002.svg"><text fill="black" font-family="monospace" font-size="12" x="12" y="24">No.2 00h 24h +0.0°+90.0°</text></a><polyline fill="none" points="723.2896,70.178 713.1544,70.3296 702.5974,70.4824 692.0411,70.6299 681.4854,70.7721 670.9302,70.9091 660.3755,71.0409 649.8214,71.1674 639.2678,71.2887 628.7147,71.4048 618.162,71.5156 607.6098,71.6211 597.058,71.7215 586.5066,71.8166 575.9555,71.9064 565.4048,71.9911 554.8545,72.0705 544.3044,72.1446 533.7547,72.2135 523.2052,72.2772 512.656,72.3357 502.107,72.3889 491.5582,72.4369 481.0095,72.4797 470.4611,72.5172 459.9128,72.5496 449.3646,72.5766 438.8165,72.5985 428.2685,72.6151 417.7205,72.6265 407.1726,72.6327 396.6247,72.6336 386.0768,72.6293 375.5288,72.6198 364.9808,72.6051 354.4328,72.5851 343.8846,72.5599 333.3363,72.5295 322.7879,72.4938 312.2394,72.4529 301.6906,72.4068 291.1417,72.3555 280.5926,72.2989 270.0432,72.2371 259.4935,72.17 248.9436,72.0978 238.3933,72.0202 227.8428,71.9375 217.2919,71.8495 206.7406,71.7563 196.1889,71.6579 185.6368,71.5542 175.0843,71.4453 164.5314,71.3311 153.9779,71.2117 143.424,71.0871 132.8696,70.9572 122.3146,70.8221 111.759,70.6817 101.2029,70.5361 90.6462,70.3852 80.0888,70.2291 76.7104,70.178" stroke="black" stroke-opacity="0.5" stroke-width="1" /><polyline fill="none" points="731.84,725.5578 731.7205,714.6269 731.6002,703.6969 731.4791,692.7675 731.3573,681.8389 731.2346,670.911 731.1112,659.9837 730.987,649.0571 730.8621,638.1311 730.7364,627.2057 730.6099,616.2808 730.4826,605.3565 730.3545,594.4326 730.2257,583.5093 730.0961,572.5864 729.9657,561.6639 729.8345,550.7419 729.7026,539.8202 729.5699,528.8989 729.4364,517.9779 729.3021,507.0572 729.1671,496.1368 729.0312,485.2166 728.8946,474.2966 728.7573,463.3769 728.6191,452.4573 728.4801,441.5379 728.3404,430.6185 728.1999,419.6993 728.0586,408.7801 727.9166,397.861 727.7737,386.9419 727.6301,376.0228 727.4857,365.1036 727.3405,354.1844 727.1945,343.2651 727.0478,332.3457 726.9002,321.4262 726.7519,310.5064 726.6028,299.5865 726.4529,288.6664 726.3022,277.746 726.1508,266.8254 725.9985,255.9044 725.8455,244.9831 725.6917,234.0615 725.5371,223.1396 725.3817,212.2172 725.2255,201.2944 725.0685,190.3711 724.9107,179.4474 724.7522,168.5231 724.5929,157.5984 724.4327,146.673 724.2718,135.7471 724.1101,124.8206 723.9476,113.8935 723.7843,102.9657 723.6202,92.0372 723.4553,81.108 723.2896,70.178" stroke="black" stroke-opacity="0.5" stroke-width="1" /><polyline fill="none" points="731.84,725.5578 721.4361,725.6694 710.5995,725.7819 699.7635,725.8905 688.9281,725.9952 678.0934,726.0961 667.2593,726.1931 656.4258,726.2863 645.5929,726.3756 634.7604,726.4611 623.9285,726.5427 613.0971,726.6204 602.2662,726.6943 591.4357,726.7643 580.6056,726.8305 569.7759,726.8928 558.9466,726.9512 548.1177,727.0058 537.289,727.0566 526.4607,727.1035 515.6326,727.1465 504.8048,727.1857 493.9773,727.2211 483.1499,727.2526 472.3227,727.2802 461.4957,727.304 450.6688,727.3239 439.842,727.34 429.0153,727.3523 418.1887,727.3607 407.3621,727.3652 396.5355,727.3659 385.7089,727.3628 374.8823,727.3557 364.0556,727.3449 353.2289,727.3302 342.402,727.3116 331.575,727.2892 320.7479,727.263 309.9206,727.2329 299.0931,727.1989 288.2654,727.1611 277.4374,727.1194 266.6092,727.0739 255.7807,727.0246 244.9518,726.9713 234.1226,726.9143 223.2931,726.8533 212.4632,726.7886 201.6328,726.7199 190.802,726.6474 179.9708,726.5711 169.1391,726.4909 158.3069,726.4068 147.4741,726.3189 136.6408,726.2271 125.8069,726.1315 114.9724,726.032 104.1373,725.9286 93.3016,725.8214 82.4651,725.7103 71.628,725.5954 68.16,725.5578" stroke="black" stroke-opacity="0.5" stroke-width="1" /><polyline fill="none" points="68.16,725.5578 68.2795,714.6269 68.3998,703.6969 68.5209,692.7675 68.6427,681.8389 68.7654,670.911 68.8888,659.9837 69.013,649.0571 69.1379,638.1311 69.2636,627.2057 69.3901,616.2808 69.5174,605.3565 69.6455,594.4326 69.7743,583.5093 69.9039,572.5864 70.0343,561.6639 70.1655,550.7419 70.2974,539.8202 70.4301,528.8989 70.5636,517.9779 70.6979,507.0572 70.8329,496.1368 70.9688,485.2166 71.1054,474.2966 71.2427,463.3769 71.3809,452.4573 71.5199,441.5379 71.6596,430.6185 71.8001,419.6993 71.9414,408.7801 72.0834,397.861 72.2263,386.9419 72.3699,376.0228 72.5143,365.1036 72.6595,354.1844 72.8055,343.2651 72.9522,332.3457 73.0998,321.4262 73.2481,310.5064 73.3972,299.5865 73.5471,288.6664 73.6978,277.746 73.8492,266.8254 74.0015,255.9044 74.1545,244.9831 74.3083,234.0615 74.4629,223.1396 74.6183,212.2172 74.7745,201.2944 74.9315,190.3711 75.0893,179.4474 75.2478,168.5231 75.4071,157.5984 75.5673,146.673 75.7282,135.7471 75.8899,124.8206 76.0524,113.8935 76.2157,102.9657 76.3798,92.0372 76.5447,81.108 76.7104,70.178" stroke="black" stroke-opacity="0.5" stroke-width="1" /></svg>