<?xml version="1.0" encoding="utf-8" ?>
<svg baseProfile="tiny" height="800" version="1.2" width="800" xmlns="http://www.w3.org/2000/svg" xmlns:ev="http://www.w3.org/2001/xml-events" xmlns:xlink="http://www.w3.org/1999/xlink"><defs /><rect fill="none" height="800" stroke="black" stroke-width="2" width="800" x="0" y="0" /><polyline fill="none" points="722.3031,725.6602 722.187,714.73 722.0702,703.8006 721.9526,692.8719 721.8342,681.9439 721.7152,671.0166 721.5953,660.09 721.4747,649.164 721.3533,638.2386 721.2312,627.3138 721.1084,616.3896 720.9848,605.4659 720.8604,594.5427 720.7353,583.6199 720.6094,572.6977 720.4828,561.7758 720.3554,550.8544 720.2273,539.9334 720.0984,529.0127 719.9687,518.0923 719.8383,507.1722 719.7071,496.2524 719.5752,485.3328 719.4426,474.4135 719.3091,463.4944 719.1749,452.5754 719.04,441.6566 718.9043,430.7379 718.7678,419.8193 718.6306,408.9007 718.4927,397.9822 718.3539,387.0637 718.2144,376.1452 718.0742,365.2267 717.9332,354.3081 717.7914,343.3894 717.6489,332.4705 717.5056,321.5516 717.3615,310.6325 717.2167,299.7132 717.0711,288.7936 716.9248,277.8739 716.7777,266.9538 716.6298,256.0335 716.4812,245.1128 716.3318,234.1918 716.1817,223.2704 716.0307,212.3486 715.8791,201.4264 715.7266,190.5037 715.5734,179.5806 715.4194,168.657 715.2647,157.7328 715.1091,146.808 714.9528,135.8827 714.7958,124.9568 714.638,114.0302 714.4794,103.103 714.32,92.1751 714.1599,81.2465 713.999,70.3172" stroke="silver" stroke-opacity="0.5" stroke-width="1" /><polyline fill="none" points="613.9636,726.6143 613.8866,715.69 613.8091,704.7665 613.7311,693.8437 613.6526,682.9217 613.5735,672.0003 613.494,661.0795 613.414,650.1594 613.3335,639.2399 613.2525,628.321 613.171,617.4026 613.089,606.4847 613.0064,595.5674 612.9234,584.6505 612.8399,573.734 612.7559,562.818 612.6714,551.9024 612.5864,540.9872 612.5008,530.0723 612.4148,519.1577 612.3283,508.2434 612.2413,497.3293 612.1537,486.4156 612.0657,475.502 611.9772,464.5886 611.8882,453.6754 611.7986,442.7623 611.7086,431.8493 611.6181,420.9364 611.527,410.0236 611.4355,399.1107 611.3434,388.1979 611.2509,377.2851 611.1578,366.3723 611.0643,355.4593 610.9702,344.5463 610.8756,333.6331 610.7806,322.7198 610.685,311.8064 610.5889,300.8927 610.4923,289.9788 610.3952,279.0646 610.2976,268.1502 610.1995,257.2354 610.1009,246.3203 610.0018,235.4049 609.9022,224.4891 609.802,213.5729 609.7014,202.6562 609.6002,191.7391 609.4986,180.8215 609.3964,169.9033 609.2937,158.9847 609.1905,148.0655 609.0868,137.1456 608.9826,126.2252 608.8779,115.3041 608.7727,104.3824 608.667,93.46 608.5607,82.5368 608.454,71.6129" stroke="silver" stroke-opacity="0.5" stroke-width="1" /><polyline fill="none" points="505.6711,727.1827 505.633,716.262 505.5948,705.342 505.5562,694.4227 505.5175,683.5042 505.4785,672.5863 505.4392,661.669 505.3997,650.7524 505.36,639.8364 505.32,628.921 505.2797,618.0061 505.2392,607.0917 505.1985,596.1778 505.1575,585.2644 505.1163,574.3515 505.0748,563.4389 505.0331,552.5268 504.9911,541.615 504.9489,530.7035 504.9064,519.7924 504.8637,508.8815 504.8207,497.9709 504.7775,487.0606 504.734,476.1504 504.6903,465.2405 504.6464,454.3307 504.6022,443.421 504.5577,432.5114 504.513,421.6019 504.4681,410.6925 504.4229,399.7831 504.3774,388.8737 504.3317,377.9643 504.2858,367.0548 504.2396,356.1452 504.1932,345.2356 504.1465,334.3258 504.0995,323.4158 504.0524,312.5057 504.0049,301.5954 503.9572,290.6848 503.9093,279.774 503.8611,268.8629 503.8127,257.9515 503.764,247.0397 503.7151,236.1276 503.6659,225.2151 503.6164,214.3022 503.5667,203.3889 503.5168,192.475 503.4666,181.5607 503.4162,170.6459 503.3655,159.7305 503.3145,148.8146 503.2633,137.8981 503.2119,126.9809 503.1602,116.0631 503.1082,105.1446 503.056,94.2254 503.0036,83.3055 502.9509,72.3849" stroke="silver" stroke-opacity="0.5" stroke-width="1" /><polyline fill="none" points="397.4016,727.366 397.4026,716.4464 397.4035,705.5275 397.4044,694.6094 397.4054,683.692 397.4064,672.7752 397.4073,661.8591 397.4083,650.9436 397.4093,640.0287 397.4103,629.1144 397.4112,618.2007 397.4122,607.2874 397.4132,596.3747 397.4142,585.4624 397.4153,574.5505 397.4163,563.6391 397.4173,552.7281 397.4183,541.8174 397.4194,530.907 397.4204,519.997 397.4215,509.0873 397.4225,498.1778 397.4236,487.2686 397.4247,476.3595 397.4257,465.4507 397.4268,454.542 397.4279,443.6334 397.429,432.7249 397.4301,421.8165 397.4312,410.9082 397.4323,399.9999 397.4334,389.0916 397.4346,378.1832 397.4357,367.2748 397.4368,356.3664 397.438,345.4578 397.4391,334.5491 397.4403,323.6402 397.4414,312.7312 397.4426,301.8219 397.4438,290.9125 397.4449,280.0027 397.4461,269.0927 397.4473,258.1824 397.4485,247.2717 397.4497,236.3606 397.4509,225.4492 397.4521,214.5374 397.4534,203.6251 397.4546,192.7123 397.4558,181.7991 397.4571,170.8853 397.4583,159.971 397.4596,149.0561 397.4608,138.1406 397.4621,127.2245 397.4634,116.3078 397.4646,105.3903 397.4659,94.4722 397.4672,83.5534 397.4685,72.6337" stroke="silver" stroke-opacity="0.5" stroke-width="1" /><polyline fill="none" points="289.1316,727.1643 289.1715,716.2434 289.2117,705.3233 289.2521,694.4039 289.2928,683.4852 289.3337,672.5672 289.3749,661.6499 289.4163,650.7331 289.458,639.817 289.5,628.9015 289.5422,617.9865 289.5847,607.072 289.6274,596.158 289.6704,585.2445 289.7137,574.3314 289.7572,563.4187 289.801,552.5065 289.845,541.5946 289.8893,530.683 289.9339,519.7718 289.9787,508.8608 290.0238,497.9501 290.0691,487.0396 290.1147,476.1294 290.1606,465.2193 290.2067,454.3094 290.2531,443.3996 290.2997,432.4899 290.3466,421.5803 290.3938,410.6708 290.4412,399.7612 290.4889,388.8517 290.5368,377.9422 290.585,367.0326 290.6335,356.1229 290.6822,345.2132 290.7312,334.3033 290.7804,323.3932 290.8299,312.483 290.8797,301.5725 290.9298,290.6619 290.98,279.7509 291.0306,268.8397 291.0814,257.9282 291.1325,247.0163 291.1838,236.1041 291.2355,225.1915 291.2873,214.2785 291.3395,203.365 291.3919,192.4511 291.4445,181.5367 291.4974,170.6218 291.5506,159.7063 291.6041,148.7902 291.6578,137.8736 291.7118,126.9563 291.766,116.0384 291.8205,105.1198 291.8753,94.2005 291.9303,83.2805 291.9856,72.3598" stroke="silver" stroke-opacity="0.5" stroke-width="1" /><polyline fill="none" points="180.8373,726.5773 180.9162,715.6528 180.9956,704.7291 181.0755,693.8061 181.156,682.8838 181.2369,671.9621 181.3184,661.0412 181.4003,650.1208 181.4828,639.2011 181.5658,628.2819 181.6493,617.3633 181.7333,606.4452 181.8178,595.5276 181.9028,584.6105 181.9884,573.6939 182.0745,562.7776 182.161,551.8618 182.2481,540.9463 182.3357,530.0312 182.4238,519.1164 182.5124,508.2019 182.6016,497.2876 182.6912,486.3736 182.7814,475.4598 182.8721,464.5462 182.9633,453.6327 183.055,442.7194 183.1472,431.8062 183.24,420.8931 183.3332,409.98 183.427,399.067 183.5213,388.154 183.6161,377.2409 183.7114,366.3279 183.8072,355.4147 183.9036,344.5015 184.0004,333.5881 184.0978,322.6746 184.1957,311.7609 184.2941,300.847 184.3931,289.9328 184.4925,279.0184 184.5925,268.1038 184.693,257.1888 184.794,246.2735 184.8955,235.3579 184.9976,224.4418 185.1002,213.5254 185.2033,202.6085 185.3069,191.6912 185.411,180.7734 185.5156,169.855 185.6208,158.9362 185.7265,148.0167 185.8327,137.0967 185.9395,126.1761 186.0467,115.2548 186.1545,104.3328 186.2628,93.4102 186.3717,82.4868 186.481,71.5627" stroke="silver" stroke-opacity="0.5" stroke-width="1" /><polyline fill="none" points="72.495,725.6047 72.613,714.6742 72.7317,703.7444 72.8512,692.8153 72.9715,681.887 73.0925,670.9594 73.2143,660.0324 73.3368,649.1061 73.4601,638.1803 73.5842,627.2552 73.7091,616.3306 73.8347,605.4066 73.9611,594.483 74.0882,583.56 74.2161,572.6374 74.3448,561.7152 74.4742,550.7934 74.6044,539.8721 74.7354,528.951 74.8672,518.0303 74.9997,507.1099 75.133,496.1897 75.267,485.2699 75.4018,474.3502 75.5374,463.4307 75.6738,452.5114 75.8109,441.5922 75.9488,430.6732 76.0875,419.7543 76.2269,408.8354 76.3671,397.9165 76.5081,386.9977 76.6498,376.0789 76.7923,365.16 76.9356,354.2411 77.0797,343.322 77.2245,332.4029 77.3701,321.4836 77.5165,310.5642 77.6637,299.6445 77.8116,288.7247 77.9603,277.8046 78.1098,266.8842 78.26,255.9635 78.4111,245.0426 78.5629,234.1212 78.7155,223.1995 78.8688,212.2774 79.023,201.3549 79.1779,190.4319 79.3336,179.5084 79.49,168.5844 79.6473,157.6599 79.8053,146.7349 79.9641,135.8093 80.1237,124.883 80.2841,113.9561 80.4453,103.0286 80.6072,92.1004 80.7699,81.1714 80.9334,70.2418" stroke="silver" stroke-opacity="0.5" stroke-width="1" /><polyline fill="none" points="731.3573,681.8389 721.8342,681.9439 711.0133,682.0595 700.193,682.1711 689.3734,682.2788 678.5545,682.3825 667.7361,682.4822 656.9183,682.578 646.1011,682.6699 635.2844,682.7577 624.4682,682.8417 613.6526,682.9217 602.8373,682.9977 592.0226,683.0698 581.2082,683.1379 570.3943,683.202 559.5807,683.2623 548.7674,683.3185 537.9545,683.3709 527.1419,683.4192 516.3296,683.4637 505.5175,683.5042 494.7056,683.5407 483.894,683.5733 473.0825,683.6019 462.2712,683.6266 451.46,683.6474 440.649,683.6642 429.838,683.677 419.0271,683.686 408.2162,683.6909 397.4054,683.692 386.5945,683.689 375.7837,683.6822 364.9727,683.6714 354.1617,683.6566 343.3506,683.6379 332.5394,683.6153 321.728,683.5887 310.9165,683.5581 300.1047,683.5237 289.2928,683.4852 278.4806,683.4428 267.6681,683.3965 256.8553,683.3462 246.0423,683.292 235.2289,683.2339 224.4151,683.1717 213.6009,683.1057 202.7864,683.0356 191.9714,682.9617 181.156,682.8838 170.3401,682.8019 159.5236,682.7161 148.7067,682.6263 137.8892,682.5325 127.0712,682.4348 116.2525,682.3332 105.4332,682.2276 94.6133,682.118 83.7927,682.0045 72.9715,681.887 68.6427,681.8389" stroke="silver" stroke-opacity="0.5" stroke-width="1" /><polyline fill="none" points="730.3545,594.4326 720.8604,594.5427 710.0723,594.6638 699.2848,594.7808 688.498,594.8936 677.7118,595.0023 666.9262,595.1068 656.1412,595.2072 645.3567,595.3035 634.5728,595.3956 623.7894,595.4835 613.0064,595.5674 602.224,595.647 591.4419,595.7226 580.6603,595.794 569.879,595.8612 559.0982,595.9243 548.3176,595.9833 537.5374,596.0381 526.7575,596.0889 515.9779,596.1354 505.1985,596.1778 494.4193,596.2161 483.6404,596.2503 472.8616,596.2803 462.083,596.3062 451.3045,596.3279 440.5261,596.3456 429.7478,596.359 418.9696,596.3684 408.1914,596.3736 397.4132,596.3747 386.6351,596.3716 375.8569,596.3644 365.0786,596.3531 354.3003,596.3376 343.5219,596.318 332.7433,596.2943 321.9646,596.2664 311.1858,596.2344 300.4067,596.1983 289.6274,596.158 278.8479,596.1136 268.0682,596.065 257.2881,596.0123 246.5078,595.9555 235.7271,595.8946 224.946,595.8295 214.1646,595.7602 203.3828,595.6868 192.6005,595.6093 181.8178,595.5276 171.0346,595.4418 160.251,595.3519 149.4668,595.2578 138.6821,595.1596 127.8968,595.0572 117.1109,594.9506 106.3244,594.84 95.5373,594.7251 84.7495,594.6062 73.9611,594.483 69.6455,594.4326" stroke="silver" stroke-opacity="0.5" stroke-width="1" /><polyline fill="none" points="729.3021,507.0572 719.8383,507.1722 709.0846,507.2988 698.3316,507.4211 687.5792,507.5391 676.8274,507.6527 666.0762,507.762 655.3256,507.8669 644.5755,507.9675 633.8259,508.0638 623.0769,508.1558 612.3283,508.2434 601.5802,508.3267 590.8325,508.4056 580.0852,508.4803 569.3383,508.5506 558.5917,508.6165 547.8455,508.6782 537.0997,508.7355 526.3541,508.7885 515.6087,508.8372 504.8637,508.8815 494.1188,508.9216 483.3742,508.9573 472.6297,508.9886 461.8854,509.0157 451.1412,509.0384 440.3971,509.0569 429.6531,509.0709 418.9092,509.0807 408.1653,509.0862 397.4215,509.0873 386.6776,509.0841 375.9337,509.0766 365.1897,509.0647 354.4457,509.0486 343.7016,509.0281 332.9574,509.0033 322.213,508.9741 311.4684,508.9407 300.7237,508.9029 289.9787,508.8608 279.2335,508.8144 268.4881,508.7636 257.7424,508.7085 246.9963,508.6491 236.25,508.5854 225.5032,508.5174 214.7562,508.445 204.0087,508.3683 193.2608,508.2872 182.5124,508.2019 171.7636,508.1122 161.0143,508.0181 150.2645,507.9198 139.5142,507.8171 128.7633,507.7101 118.0118,507.5987 107.2598,507.483 96.5071,507.363 85.7537,507.2386 74.9997,507.1099 70.6979,507.0572" stroke="silver" stroke-opacity="0.5" stroke-width="1" /><polyline fill="none" points="728.1999,419.6993 718.7678,419.8193 708.0502,419.9513 697.3332,420.0789 686.6169,420.2019 675.9011,420.3204 665.1859,420.4343 654.4713,420.5438 643.7573,420.6487 633.0437,420.7491 622.3306,420.845 611.6181,420.9364 600.9059,421.0233 590.1942,421.1056 579.4829,421.1834 568.7719,421.2568 558.0614,421.3256 547.3511,421.3899 536.6412,421.4497 525.9315,421.5049 515.2222,421.5557 504.513,421.6019 493.8041,421.6437 483.0954,421.6809 472.3869,421.7137 461.6785,421.7419 450.9702,421.7656 440.2621,421.7848 429.554,421.7995 418.846,421.8097 408.138,421.8153 397.4301,421.8165 386.7221,421.8132 376.0142,421.8053 365.3061,421.793 354.598,421.7761 343.8898,421.7548 333.1815,421.7289 322.4731,421.6985 311.7644,421.6636 301.0556,421.6242 290.3466,421.5803 279.6374,421.5319 268.9279,421.479 258.2181,421.4215 247.508,421.3596 236.7976,421.2931 226.0869,421.2221 215.3757,421.1466 204.6642,421.0666 193.9523,420.9821 183.24,420.8931 172.5271,420.7995 161.8138,420.7015 151.1001,420.5989 140.3857,420.4918 129.6709,420.3802 118.9554,420.264 108.2394,420.1434 97.5227,420.0182 86.8054,419.8885 76.0875,419.7543 71.8001,419.6993" stroke="silver" stroke-opacity="0.5" stroke-width="1" /><polyline fill="none" points="727.0478,332.3457 717.6489,332.4705 706.9689,332.608 696.2896,332.7407 685.6109,332.8687 674.9329,332.992 664.2553,333.1106 653.5784,333.2245 642.902,333.3337 632.226,333.4382 621.5506,333.538 610.8756,333.6331 600.2011,333.7235 589.527,333.8092 578.8533,333.8902 568.1799,333.9665 557.5069,334.0382 546.8343,334.1051 536.1619,334.1673 525.4899,334.2248 514.8181,334.2776 504.1465,334.3258 493.4751,334.3692 482.804,334.408 472.133,334.442 461.4622,334.4714 450.7915,334.4961 440.1209,334.5161 429.4504,334.5314 418.7799,334.542 408.1095,334.5479 397.4391,334.5491 386.7687,334.5456 376.0983,334.5374 365.4278,334.5246 354.7573,334.5071 344.0866,334.4848 333.4158,334.4579 322.7449,334.4263 312.0739,334.39 301.4026,334.349 290.7312,334.3033 280.0595,334.2529 269.3876,334.1978 258.7154,334.138 248.0429,334.0735 237.3701,334.0044 226.6969,333.9305 216.0234,333.8519 205.3495,333.7687 194.6752,333.6807 184.0004,333.5881 173.3252,333.4907 162.6496,333.3887 151.9734,333.2819 141.2967,333.1705 130.6195,333.0543 119.9417,332.9334 109.2634,332.8079 98.5844,332.6776 87.9048,332.5426 77.2245,332.4029 72.9522,332.3457" stroke="silver" stroke-opacity="0.5" stroke-width="1" /><polyline fill="none" points="725.8455,244.9831 716.4812,245.1128 705.8406,245.2556 695.2006,245.3934 684.5612,245.5264 673.9225,245.6544 663.2843,245.7776 652.6466,245.8959 642.0094,246.0094 631.3728,246.1179 620.7366,246.2216 610.1009,246.3203 599.4656,246.4142 588.8307,246.5032 578.1963,246.5874 567.5622,246.6666 556.9284,246.741 546.295,246.8105 535.6618,246.8751 525.029,246.9349 514.3964,246.9897 503.764,247.0397 493.1318,247.0849 482.4999,247.1251 471.8681,247.1605 461.2365,247.191 450.6049,247.2166 439.9735,247.2374 429.3422,247.2533 418.7109,247.2643 408.0797,247.2704 397.4485,247.2717 386.8173,247.2681 376.1861,247.2596 365.5548,247.2462 354.9234,247.228 344.2919,247.2049 333.6604,247.177 323.0287,247.1441 312.3968,247.1064 301.7648,247.0638 291.1325,247.0163 280.5,246.964 269.8673,246.9068 259.2343,246.8447 248.601,246.7777 237.9674,246.7059 227.3335,246.6292 216.6992,246.5476 206.0646,246.4611 195.4295,246.3698 184.794,246.2735 174.1581,246.1724 163.5217,246.0664 152.8848,245.9555 142.2474,245.8398 131.6095,245.7191 120.971,245.5936 110.3319,245.4632 99.6923,245.3278 89.052,245.1876 78.4111,245.0426 74.1545,244.9831" stroke="silver" stroke-opacity="0.5" stroke-width="1" /><polyline fill="none" points="724.5929,157.5984 715.2647,157.7328 704.665,157.8808 694.066,158.0237 683.4676,158.1615 672.8698,158.2943 662.2725,158.422 651.6758,158.5447 641.0795,158.6623 630.4838,158.7748 619.8885,158.8823 609.2937,158.9847 598.6993,159.082 588.1054,159.1743 577.5118,159.2615 566.9185,159.3437 556.3256,159.4208 545.733,159.4929 535.1408,159.5599 524.5488,159.6218 513.957,159.6787 503.3655,159.7305 492.7742,159.7773 482.183,159.819 471.5921,159.8557 461.0013,159.8873 450.4106,159.9139 439.82,159.9354 429.2295,159.9519 418.6391,159.9633 408.0487,159.9697 397.4583,159.971 386.8679,159.9673 376.2775,159.9585 365.687,159.9446 355.0965,159.9257 344.5059,159.9018 333.9151,159.8728 323.3243,159.8388 312.7332,159.7996 302.142,159.7555 291.5506,159.7063 280.959,159.652 270.3671,159.5927 259.775,159.5283 249.1826,159.4589 238.5898,159.3844 227.9968,159.3049 217.4034,159.2203 206.8096,159.1306 196.2154,159.0359 185.6208,158.9362 175.0258,158.8313 164.4303,158.7214 153.8343,158.6065 143.2379,158.4865 132.6409,158.3614 122.0433,158.2312 111.4452,158.096 100.8465,157.9557 90.2472,157.8104 79.6473,157.6599 75.4071,157.5984" stroke="silver" stroke-opacity="0.5" stroke-width="1" /><polyline fill="none" points="723.2896,70.178 713.999,70.3172 703.442,70.4703 692.8856,70.6183 682.3298,70.7609 671.7746,70.8984 661.2199,71.0306 650.6657,71.1575 640.1121,71.2792 629.5589,71.3957 619.0062,71.5069 608.454,71.6129 597.9021,71.7136 587.3507,71.8092 576.7996,71.8994 566.2489,71.9845 555.6985,72.0643 545.1484,72.1389 534.5987,72.2082 524.0492,72.2723 513.4999,72.3312 502.9509,72.3849 492.4021,72.4333 481.8534,72.4765 471.305,72.5144 460.7566,72.5472 450.2084,72.5747 439.6603,72.5969 429.1123,72.614 418.5643,72.6258 408.0164,72.6324 397.4685,72.6337 386.9206,72.6299 376.3726,72.6208 365.8247,72.6065 355.2766,72.5869 344.7285,72.5621 334.1802,72.5321 323.6318,72.4969 313.0833,72.4564 302.5345,72.4107 291.9856,72.3598 281.4365,72.3036 270.8871,72.2422 260.3375,72.1756 249.7876,72.1037 239.2374,72.0266 228.6868,71.9443 218.1359,71.8568 207.5847,71.764 197.0331,71.6659 186.481,71.5627 175.9285,71.4542 165.3756,71.3404 154.8222,71.2214 144.2683,71.0972 133.7139,70.9678 123.159,70.8331 112.6035,70.6931 102.0474,70.5479 91.4907,70.3975 80.9334,70.2418 76.7104,70.178" stroke="silver" stroke-opacity="0.5" stroke-width="1" /><circle cx="726.7483" cy="695.7927" fill="black" r="0.738" stroke="none" /><circle cx="723.5712" cy="627.8993" fill="black" r="0.738" stroke="none" /><circle cx="720.5928" cy="586.2433" fill="black" r="0.738" stroke="none" /><circle cx="717.8988" cy="412.0549" fill="black" r="0.738" stroke="none" /><circle cx="709.9925" cy="321.824" fill="black" r="0.738" stroke="none" /><circle cx="698.8278" cy="177.9745" fill="black" r="0.936" stroke="none" /><circle cx="702.5248" cy="583.1242" fill="black" r="0.738" stroke="none" /><circle cx="696.4006" cy="496.2608" fill="black" r="0.738" stroke="none" /><circle cx="692.5906" cy="649.0324" fill="black" r="0.738" stroke="none" /><circle cx="683.4637" cy="533.3525" fill="black" r="0.738" stroke="none" /><circle cx="681.3268" cy="430.3052" fill="black" r="0.738" stroke="none" /><circle cx="676.3109" cy="203.6903" fill="black" r="1.17" stroke="none" /><circle cx="675.7618" cy="447.2223" fill="black" r="0.738" stroke="none" /><circle cx="671.5432" cy="140.0456" fill="black" r="1.17" stroke="none" /><circle cx="643.0482" cy="658.839" fill="black" r="0.738" stroke="none" /><circle cx="636.9779" cy="187.6244" fill="black" r="0.738" stroke="none" /><circle cx="637.7423" cy="542.6131" fill="black" r="0.738" stroke="none" /><circle cx="626.9382" cy="143.6963" fill="black" r="0.738" stroke="none" /><circle cx="626.4714" cy="258.3931" fill="black" r="0.936" stroke="none" /><circle cx="619.6439" cy="339.9294" fill="black" r="0.738" stroke="none" /><circle cx="600.1694" cy="106.6483" fill="black" r="0.738" stroke="none" /><circle cx="603.7569" cy="703.613" fill="black" r="0.738" stroke="none" /><circle cx="598.8459" cy="356.0852" fill="black" r="0.738" stroke="none" /><circle cx="595.4777" cy="473.7975" fill="black" r="0.738" stroke="none" /><circle cx="582.7903" cy="182.889" fill="black" r="0.738" stroke="none" /><circle cx="584.5132" cy="441.4009" fill="black" r="1.17" stroke="none" /><circle cx="568.0093" cy="169.1178" fill="black" r="0.738" stroke="none" /><circle cx="568.8324" cy="305.2406" fill="black" r="0.738" stroke="none" /><circle cx="564.9398" cy="651.6981" fill="black" r="0.738" stroke="none" /><circle cx="557.8341" cy="540.7487" fill="black" r="0.738" stroke="none" /><circle cx="557.9907" cy="598.3756" fill="black" r="0.738" stroke="none" /><circle cx="553.0356" cy="672.29" fill="black" r="0.738" stroke="none" /><circle cx="547.3815" cy="411.8754" fill="black" r="0.738" stroke="none" /><circle cx="543.8512" cy="533.4055" fill="black" r="0.738" stroke="none" /><circle cx="537.9944" cy="210.3656" fill="black" r="0.738" stroke="none" /><circle cx="532.2921" cy="408.9912" fill="black" r="0.738" stroke="none" /><circle cx="524.173" cy="214.4615" fill="black" r="0.936" stroke="none" /><circle cx="523.5288" cy="438.4493" fill="black" r="0.738" stroke="none" /><circle cx="513.6249" cy="263.2308" fill="black" r="0.936" stroke="none" /><circle cx="511.6115" cy="148.2502" fill="black" r="0.738" stroke="none" /><circle cx="511.1726" cy="321.2895" fill="black" r="0.738" stroke="none" /><circle cx="510.2049" cy="172.0106" fill="black" r="0.738" stroke="none" /><circle cx="512.0311" cy="667.6709" fill="black" r="0.738" stroke="none" /><circle cx="503.7647" cy="604.9143" fill="black" r="0.738" stroke="none" /><circle cx="496.9649" cy="464.7467" fill="black" r="0.738" stroke="none" /><circle cx="494.5345" cy="529.3453" fill="black" r="0.738" stroke="none" /><circle cx="491.8707" cy="86.2392" fill="black" r="0.738" stroke="none" /><circle cx="473.5762" cy="145.004" fill="black" r="0.738" stroke="none" /><circle cx="474.0579" cy="407.2217" fill="black" r="0.738" stroke="none" /><circle cx="470.4485" cy="596.8103" fill="black" r="0.738" stroke="none" /><circle cx="468.4671" cy="562.5939" fill="black" r="0.738" stroke="none" /><circle cx="449.5919" cy="332.3167" fill="black" r="0.738" stroke="none" /><circle cx="449.5076" cy="332.8405" fill="black" r="0.738" stroke="none" /><circle cx="445.0662" cy="331.3656" fill="black" r="0.738" stroke="none" /><circle cx="445.4908" cy="682.6964" fill="black" r="0.738" stroke="none" /><circle cx="432.6675" cy="79.8596" fill="black" r="0.738" stroke="none" /><circle cx="427.0986" cy="449.1172" fill="black" r="0.738" stroke="none" /><circle cx="414.5961" cy="196.4618" fill="black" r="0.738" stroke="none" /><circle cx="414.5203" cy="210.5172" fill="black" r="0.738" stroke="none" /><circle cx="396.7629" cy="284.8902" fill="black" r="0.738" stroke="none" /><circle cx="396.0513" cy="475.4866" fill="black" r="0.738" stroke="none" /><circle cx="393.4541" cy="565.8207" fill="black" r="0.738" stroke="none" /><circle cx="386.3647" cy="620.6422" fill="black" r="0.738" stroke="none" /><circle cx="386.1118" cy="608.3318" fill="black" r="0.936" stroke="none" /><circle cx="381.3975" cy="218.2837" fill="black" r="0.738" stroke="none" /><circle cx="380.4318" cy="470.4179" fill="black" r="0.738" stroke="none" /><circle cx="375.8016" cy="130.4425" fill="black" r="0.738" stroke="none" /><circle cx="372.7488" cy="277.5433" fill="black" r="0.738" stroke="none" /><circle cx="368.804" cy="433.5787" fill="black" r="0.738" stroke="none" /><circle cx="366.1657" cy="356.4304" fill="black" r="0.738" stroke="none" /><circle cx="364.1125" cy="417.777" fill="black" r="0.738" stroke="none" /><circle cx="361.5876" cy="130.0729" fill="black" r="0.738" stroke="none" /><circle cx="358.9627" cy="592.1544" fill="black" r="0.738" stroke="none" /><circle cx="357.8023" cy="75.5623" fill="black" r="0.738" stroke="none" /><circle cx="355.8178" cy="361.7375" fill="black" r="0.738" stroke="none" /><circle cx="348.5525" cy="627.6713" fill="black" r="0.936" stroke="none" /><circle cx="348.427" cy="223.7328" fill="black" r="0.738" stroke="none" /><circle cx="333.6314" cy="698.1169" fill="black" r="0.738" stroke="none" /><circle cx="329.8355" cy="218.4454" fill="black" r="0.738" stroke="none" /><circle cx="317.0615" cy="323.847" fill="black" r="0.738" stroke="none" /><circle cx="314.943" cy="497.6052" fill="black" r="0.738" stroke="none" /><circle cx="313.5417" cy="644.0035" fill="black" r="0.738" stroke="none" /><circle cx="312.9182" cy="361.0122" fill="black" r="0.738" stroke="none" /><circle cx="307.2725" cy="687.1281" fill="black" r="0.738" stroke="none" /><circle cx="306.2514" cy="383.7666" fill="black" r="0.738" stroke="none" /><circle cx="302.3365" cy="514.4952" fill="black" r="0.738" stroke="none" /><circle cx="300.0701" cy="225.9301" fill="black" r="0.936" stroke="none" /><circle cx="299.802" cy="248.5395" fill="black" r="0.738" stroke="none" /><circle cx="292.3502" cy="517.6866" fill="black" r="0.738" stroke="none" /><circle cx="285.9524" cy="177.4054" fill="black" r="0.738" stroke="none" /><circle cx="282.8054" cy="598.4005" fill="black" r="0.738" stroke="none" /><circle cx="283.138" cy="315.589" fill="black" r="0.738" stroke="none" /><circle cx="278.0405" cy="278.2036" fill="black" r="0.936" stroke="none" /><circle cx="275.0961" cy="103.1078" fill="black" r="0.738" stroke="none" /><circle cx="271.9618" cy="690.6657" fill="black" r="0.738" stroke="none" /><circle cx="273.5431" cy="275.0373" fill="black" r="0.936" stroke="none" /><circle cx="264.2193" cy="420.756" fill="black" r="0.738" stroke="none" /><circle cx="262.9775" cy="650.5331" fill="black" r="0.738" stroke="none" /><circle cx="257.9337" cy="155.9358" fill="black" r="0.738" stroke="none" /><circle cx="253.5251" cy="541.2487" fill="black" r="0.738" stroke="none" /><circle cx="249.8312" cy="603.4832" fill="black" r="0.936" stroke="none" /><circle cx="236.6993" cy="294.541" fill="black" r="0.738" stroke="none" /><circle cx="234.7294" cy="76.4488" fill="black" r="0.738" stroke="none" /><circle cx="231.8776" cy="439.7674" fill="black" r="0.738" stroke="none" /><circle cx="220.2253" cy="513.4589" fill="black" r="0.738" stroke="none" /><circle cx="217.4084" cy="655.174" fill="black" r="0.738" stroke="none" /><circle cx="219.1076" cy="390.7067" fill="black" r="0.738" stroke="none" /><circle cx="219.034" cy="188.1441" fill="black" r="0.738" stroke="none" /><circle cx="216.5703" cy="318.0542" fill="black" r="0.936" stroke="none" /><circle cx="216.1126" cy="151.348" fill="black" r="0.738" stroke="none" /><circle cx="202.4258" cy="659.4442" fill="black" r="0.738" stroke="none" /><circle cx="204.4518" cy="186.45" fill="black" r="0.936" stroke="none" /><circle cx="198.7386" cy="433.5051" fill="black" r="0.738" stroke="none" /><circle cx="196.6095" cy="486.4846" fill="black" r="0.738" stroke="none" /><circle cx="197.3646" cy="308.3832" fill="black" r="0.738" stroke="none" /><circle cx="192.8606" cy="572.2052" fill="black" r="0.738" stroke="none" /><circle cx="196.035" cy="178.7761" fill="black" r="0.738" stroke="none" /><circle cx="189.2874" cy="554.7994" fill="black" r="0.738" stroke="none" /><circle cx="186.2737" cy="317.9789" fill="black" r="0.738" stroke="none" /><circle cx="182.5287" cy="464.5433" fill="black" r="0.738" stroke="none" /><circle cx="183.2739" cy="235.954" fill="black" r="1.17" stroke="none" /><circle cx="181.197" cy="92.9222" fill="black" r="0.738" stroke="none" /><circle cx="172.4652" cy="665.3423" fill="black" r="0.738" stroke="none" /><circle cx="173.487" cy="202.1452" fill="black" r="0.738" stroke="none" /><circle cx="161.1029" cy="566.4469" fill="black" r="0.738" stroke="none" /><circle cx="143.5342" cy="528.2062" fill="black" r="0.738" stroke="none" /><circle cx="137.1749" cy="509.541" fill="black" r="0.738" stroke="none" /><circle cx="133.3713" cy="427.2313" fill="black" r="0.738" stroke="none" /><circle cx="134.4942" cy="314.7559" fill="black" r="0.738" stroke="none" /><circle cx="123.9752" cy="361.6275" fill="black" r="0.738" stroke="none" /><circle cx="121.0742" cy="127.6294" fill="black" r="0.738" stroke="none" /><circle cx="113.3837" cy="579.7099" fill="black" r="0.738" stroke="none" /><circle cx="115.0498" cy="83.5791" fill="black" r="0.738" stroke="none" /><circle cx="112.8812" cy="232.1276" fill="black" r="0.738" stroke="none" /><circle cx="106.6252" cy="189.4072" fill="black" r="0.936" stroke="none" /><circle cx="103.6405" cy="249.485" fill="black" r="0.738" stroke="none" /><circle cx="94.2166" cy="678.6171" fill="black" r="0.738" stroke="none" /><circle cx="95.3876" cy="462.7968" fill="black" r="0.738" stroke="none" /><circle cx="87.262" cy="633.0016" fill="black" r="0.738" stroke="none" /><circle cx="81.105" cy="272.2552" fill="black" r="0.738" stroke="none" /><circle cx="78.0094" cy="113.223" fill="black" r="0.738" stroke="none" /><circle cx="13.77" cy="786.23" fill="black" r="4.59" stroke="none" /><circle cx="13.77" cy="786.23" fill="black" r="4.59" stroke="none" /><text fill="black" font-family="monospace" font-size="12" x="10.77" y="775.64">1</text><circle cx="37.77" cy="786.23" fill="black" r="3.654" stroke="none" /><circle cx="37.77" cy="786.23" fill="black" r="3.654" stroke="none" /><text fill="black" font-family="monospace" font-size="12" x="34.769999999999996" y="775.64">2</text><circle cx="61.77" cy="786.23" fill="black" r="2.916" stroke="none" /><circle cx="61.77" cy="786.23" fill="black" r="2.916" stroke="none" /><text fill="black" font-family="monospace" font-size="12" x="58.769999999999996" y="775.64">3</text><circle cx="85.77" cy="786.23" fill="black" r="2.322" stroke="none" /><circle cx="85.77" cy="786.23" fill="black" r="2.322" stroke="none" /><text fill="black" font-family="monospace" font-size="12" x="82.77" y="775.64">4</text><circle cx="109.77" cy="786.23" fill="black" r="1.854" stroke="none" /><circle cx="109.77" cy="786.23" fill="black" r="1.854" stroke="none" /><text fill="black" font-family="monospace" font-size="12" x="106.77" y="775.64">5</text><circle cx="133.77" cy="786.23" fill="black" r="1.476" stroke="none" /><circle cx="133.77" cy="786.23" fill="black" r="1.476" stroke="none" /><text fill="black" font-family="monospace" font-size="12" x="130.77" y="775.64">6</text><circle cx="157.77" cy="786.23" fill="black" r="1.17" stroke="none" /><circle cx="157.77" cy="786.23" fill="black" r="1.17" stroke="none" /><text fill="black" font-family="monospace" font-size="12" x="154.77" y="775.64">7</text><circle cx="181.77" cy="786.23" fill="black" r="0.936" stroke="none" /><circle cx="181.77" cy="786.23" fill="black" r="0.936" stroke="none" /><text fill="black" font-family="monospace" font-size="12" x="178.77" y="775.64">8</text><circle cx="205.77" cy="786.23" fill="black" r="0.738" stroke="none" /><circle cx="205.77" cy="786.23" fill="black" r="0.738" stroke="none" /><text fill="black" font-family="monospace" font-size="12" x="202.77" y="775.64">9</text><text fill="gray" fill-opacity="0.5" font-family="monospace" font-size="12" x="722.3031043326303" y="725.6602220615482">07h40m</text><text fill="gray" fill-opacity="0.5" font-family="monospace" font-size="12" x="613.9636383661518" y="726.6143199695038">07h45m</text><text fill="gray" fill-opacity="0.5" font-family="monospace" font-size="12" x="505.67105619533027" y="727.1827370936174">07h50m</text><text fill="gray" fill-opacity="0.5" font-family="monospace" font-size="12" x="397.4016217042901" y="727.3659932600899">07h55m</text><text fill="gray" fill-opacity="0.5" font-family="monospace" font-size="12" x="289.13161808331074" y="727.1642560050188">08h00m</text><text fill="gray" fill-opacity="0.5" font-family="monospace" font-size="12" x="180.83732804805513" y="726.5773408950866">08h05m</text><text fill="gray" fill-opacity="0.5" font-family="monospace" font-size="12" x="72.49501405800856" y="725.6047111745261">08h10m</text><text fill="gray" fill-opacity="0.5" font-family="monospace" font-size="12" x="68.64274660234406" y="681.8389141919388">+8°</text><text fill="gray" fill-opacity="0.5" font-family="monospace" font-size="12" x="69.64546961131464" y="594.4326330539807">+9°</text><text fill="gray" fill-opacity="0.5" font-family="monospace" font-size="12" x="70.69787367159438" y="507.0571874107499">+10°</text><text fill="gray" fill-opacity="0.5" font-family="monospace" font-size="12" x="71.80007815861342" y="419.69930120520905">+11°</text><text fill="gray" fill-opacity="0.5" font-family="monospace" font-size="12" x="72.95223276131458" y="332.34570903144146">+12°</text><text fill="gray" fill-opacity="0.5" font-family="monospace" font-size="12" x="74.15451755678691" y="244.9831480886702">+13°</text><text fill="gray" fill-opacity="0.5" font-family="monospace" font-size="12" x="75.40714312416856" y="157.5983501386286">+14°</text><text fill="gray" fill-opacity="0.5" font-family="monospace" font-size="12" x="76.71035069797495" y="70.17803345593836">+15°</text><text fill="black" font-family="monospace" font-size="12" x="12" y="48">&gt;&gt; No.472 07h40m 08h10m +7.5°+15.0°</text><a target="_self" xlink:href="hip025.svg"><text fill="black" font-family="monospace" font-size="12" x="12" y="36">&gt; No.25 05h20m 08h00m +0.0°+22.5°</text></a><a target="_self" xlink:href="hip002.svg"><text fill="black" font-family="monospace" font-size="12" x="12" y="24">No.2 00h 24h +0.0°+90.0°</text></a><polyline fill="none" points="723.2896,70.178 713.999,70.3172 703.442,70.4703 692.8856,70.6183 682.3298,70.7609 671.7746,70.8984 661.2199,71.0306 650.6657,71.1575 640.1121,71.2792 629.5589,71.3957 619.0062,71.5069 608.454,71.6129 597.9021,71.7136 587.3507,71.8092 576.7996,71.8994 566.2489,71.9845 555.6985,72.0643 545.1484,72.1389 534.5987,72.2082 524.0492,72.2723 513.4999,72.3312 502.9509,72.3849 492.4021,72.4333 481.8534,72.4765 471.305,72.5144 460.7566,72.5472 450.2084,72.5747 439.6603,72.5969 429.1123,72.614 418.5643,72.6258 408.0164,72.6324 397.4685,72.6337 386.9206,72.6299 376.3726,72.6208 365.8247,72.6065 355.2766,72.5869 344.7285,72.5621 334.1802,72.5321 323.6318,72.4969 313.0833,72.4564 302.5345,72.4107 291.9856,72.3598 281.4365,72.3036 270.8871,72.2422 260.3375,72.1756 249.7876,72.1037 239.2374,72.0266 228.6868,71.9443 218.1359,71.8568 207.5847,71.764 197.0331,71.6659 186.481,71.5627 175.9285,71.4542 165.3756,71.3404 154.8222,71.2214 144.2683,71.0972 133.7139,70.9678 123.159,70.8331 112.6035,70.6931 102.0474,70.5479 91.4907,70.3975 80.9334,70.2418 76.7104,70.178" stroke="black" stroke-opacity="0.5" stroke-width="1" /><polyline fill="none" points="731.84,725.5578 731.7205,714.6269 731.6002,703.6969 731.4791,692.7675 731.3573,681.8389 731.2346,670.911 731.1112,659.9837 730.987,649.0571 730.8621,638.1311 730.7364,627.2057 730.6099,616.2808 730.4826,605.3565 730.3545,594.4326 730.2257,583.5093 730.0961,572.5864 729.9657,561.6639 729.8345,550.7419 729.7026,539.8202 729.5699,528.8989 729.4364,517.9779 729.3021,507.0572 729.1671,496.1368 729.0312,485.2166 728.8946,474.2966 728.7573,463.3769 728.6191,452.4573 728.4801,441.5379 728.3404,430.6185 728.1999,419.6993 728.0586,408.7801 727.9166,397.861 727.7737,386.9419 727.6301,376.0228 727.4857,365.1036 727.3405,354.1844 727.1945,343.2651 727.0478,332.3457 726.9002,321.4262 726.7519,310.5064 726.6028,299.5865 726.4529,288.6664 726.3022,277.746 726.1508,266.8254 725.9985,255.9044 725.8455,244.9831 725.6917,234.0615 725.5371,223.1396 725.3817,212.2172 725.2255,201.2944 725.0685,190.3711 724.9107,179.4474 724.7522,168.5231 724.5929,157.5984 724.4327,146.673 724.2718,135.7471 724.1101,124.8206 723.9476,113.8935 723.7843,102.9657 723.6202,92.0372 723.4553,81.108 723.2896,70.178" stroke="black" stroke-opacity="0.5" stroke-width="1" /><polyline fill="none" points="731.84,725.5578 722.3031,725.6602 711.4664,725.773 700.6303,725.8819 689.7949,725.987 678.9602,726.0882 668.126,726.1855 657.2925,726.279 646.4595,726.3686 635.627,726.4544 624.7951,726.5363 613.9636,726.6143 603.1327,726.6885 592.3021,726.7588 581.472,726.8253 570.6423,726.8879 559.813,726.9467 548.984,727.0016 538.1553,727.0527 527.327,727.0999 516.4989,727.1432 505.6711,727.1827 494.8435,727.2184 484.0161,727.2502 473.1889,727.2781 462.3618,727.3022 451.5349,727.3225 440.7081,727.3389 429.8814,727.3514 419.0548,727.3601 408.2282,727.365 397.4016,727.366 386.575,727.3631 375.7484,727.3564 364.9218,727.3459 354.095,727.3315 343.2682,727.3133 332.4412,727.2912 321.6141,727.2652 310.7868,727.2354 299.9593,727.2018 289.1316,727.1643 278.3037,727.1229 267.4755,727.0777 256.647,727.0286 245.8181,726.9757 234.989,726.919 224.1595,726.8584 213.3296,726.7939 202.4993,726.7256 191.6685,726.6534 180.8373,726.5773 170.0056,726.4974 159.1735,726.4137 148.3408,726.3261 137.5075,726.2346 126.6737,726.1393 115.8392,726.0401 105.0042,725.937 94.1685,725.8301 83.3321,725.7194 72.495,725.6047 68.16,725.5578" stroke="black" stroke-opacity="0.5" stroke-width="1" /><polyline fill="none" points="68.16,725.5578 68.2795,714.6269 68.3998,703.6969 68.5209,692.7675 68.6427,681.8389 68.7654,670.911 68.8888,659.9837 69.013,649.0571 69.1379,638.1311 69.2636,627.2057 69.3901,616.2808 69.5174,605.3565 69.6455,594.4326 69.7743,583.5093 69.9039,572.5864 70.0343,561.6639 70.1655,550.7419 70.2974,539.8202 70.4301,528.8989 70.5636,517.9779 70.6979,507.0572 70.8329,496.1368 70.9688,485.2166 71.1054,474.2966 71.2427,463.3769 71.3809,452.4573 71.5199,441.5379 71.6596,430.6185 71.8001,419.6993 71.9414,408.7801 72.0834,397.861 72.2263,386.9419 72.3699,376.0228 72.5143,365.1036 72.6595,354.1844 72.8055,343.2651 72.9522,332.3457 73.0998,321.4262 73.2481,310.5064 73.3972,299.5865 73.5471,288.6664 73.6978,277.746 73.8492,266.8254 74.0015,255.9044 74.1545,244.9831 74.3083,234.0615 74.4629,223.1396 74.6183,212.2172 74.7745,201.2944 74.9315,190.3711 75.0893,179.4474 75.2478,168.5231 75.4071,157.5984 75.5673,146.673 75.7282,135.7471 75.8899,124.8206 76.0524,113.8935 76.2157,102.9657 76.3798,92.0372 76.5447,81.108 76.7104,70.178" stroke="black" stroke-opacity="0.5" stroke-width="1" /></svg>