<?xml version="1.0" encoding="utf-8" ?>
<svg baseProfile="tiny" height="800" version="1.2" width="800" xmlns="http://www.w3.org/2000/svg" xmlns:ev="http://www.w3.org/2001/xml-events" xmlns:xlink="http://www.w3.org/1999/xlink"><defs /><rect fill="none" height="800" stroke="black" stroke-width="2" width="800" x="0" y="0" /><polyline fill="none" points="678.9602,726.0882 678.8597,715.1606 678.7586,704.2339 678.6569,693.3078 678.5545,682.3825 678.4514,671.4578 678.3477,660.5338 678.2434,649.6105 678.1383,638.6877 678.0327,627.7656 677.9264,616.844 677.8194,605.9229 677.7118,595.0023 677.6035,584.0822 677.4946,573.1626 677.385,562.2433 677.2748,551.3245 677.1639,540.4061 677.0524,529.488 676.9402,518.5702 676.8274,507.6527 676.7139,496.7355 676.5997,485.8185 676.4849,474.9018 676.3695,463.9852 676.2534,453.0688 676.1366,442.1525 676.0192,431.2364 675.9011,420.3204 675.7824,409.4044 675.663,398.4884 675.5429,387.5725 675.4222,376.6565 675.3009,365.7405 675.1789,354.8245 675.0562,343.9083 674.9329,332.992 674.8089,322.0756 674.6842,311.159 674.5589,300.2422 674.4329,289.3252 674.3063,278.408 674.179,267.4904 674.0511,256.5726 673.9225,245.6544 673.7932,234.7359 673.6633,223.8171 673.5327,212.8978 673.4014,201.978 673.2695,191.0579 673.1369,180.1372 673.0037,169.216 672.8698,158.2943 672.7352,147.3721 672.6,136.4492 672.4641,125.5258 672.3275,114.6017 672.1903,103.6769 672.0524,92.7514 671.9138,81.8253 671.7746,70.8984" stroke="silver" stroke-opacity="0.5" stroke-width="1" /><polyline fill="none" points="570.6423,726.8879 570.5809,715.9654 570.5191,705.0435 570.4569,694.1224 570.3943,683.202 570.3312,672.2823 570.2678,661.3633 570.204,650.4449 570.1398,639.527 570.0752,628.6098 570.0102,617.6931 569.9448,606.7769 569.879,595.8612 569.8128,584.946 569.7462,574.0312 569.6792,563.1169 569.6119,552.2029 569.5441,541.2894 569.4759,530.3761 569.4073,519.4632 569.3383,508.5506 569.2689,497.6382 569.1991,486.726 569.1289,475.8141 569.0583,464.9024 568.9873,453.9908 568.9159,443.0794 568.8441,432.168 568.7719,421.2568 568.6993,410.3456 568.6263,399.4344 568.553,388.5232 568.4792,377.612 568.4049,366.7008 568.3303,355.7895 568.2553,344.8781 568.1799,333.9665 568.1041,323.0549 568.0279,312.143 567.9513,301.2309 567.8743,290.3186 567.7968,279.4061 567.719,268.4932 567.6408,257.5801 567.5622,246.6666 567.4831,235.7528 567.4037,224.8386 567.3238,213.9239 567.2436,203.0089 567.1629,192.0933 567.0819,181.1773 567.0004,170.2608 566.9185,159.3437 566.8362,148.4261 566.7535,137.5078 566.6705,126.589 566.587,115.6695 566.503,104.7493 566.4187,93.8284 566.334,82.9068 566.2489,71.9845" stroke="silver" stroke-opacity="0.5" stroke-width="1" /><polyline fill="none" points="462.3618,727.3022 462.3394,716.3822 462.3168,705.463 462.2941,694.5445 462.2712,683.6266 462.2482,672.7095 462.225,661.793 462.2017,650.8771 462.1782,639.9618 462.1546,629.0471 462.1309,618.133 462.107,607.2193 462.083,596.3062 462.0588,585.3935 462.0344,574.4813 462.01,563.5695 461.9853,552.658 461.9606,541.747 461.9357,530.8362 461.9106,519.9258 461.8854,509.0157 461.86,498.1058 461.8345,487.1962 461.8089,476.2868 461.7831,465.3775 461.7572,454.4685 461.7311,443.5595 461.7048,432.6506 461.6785,421.7419 461.6519,410.8332 461.6253,399.9245 461.5985,389.0158 461.5715,378.107 461.5444,367.1983 461.5171,356.2894 461.4897,345.3805 461.4622,334.4714 461.4345,323.5622 461.4066,312.6527 461.3786,301.7431 461.3505,290.8333 461.3222,279.9232 461.2938,269.0128 461.2652,258.102 461.2365,247.191 461.2076,236.2796 461.1786,225.3678 461.1494,214.4556 461.1201,203.5429 461.0906,192.6298 461.061,181.7162 461.0312,170.802 461.0013,159.8873 460.9712,148.9721 460.941,138.0562 460.9107,127.1398 460.8801,116.2227 460.8495,105.3049 460.8187,94.3864 460.7877,83.4671 460.7566,72.5472" stroke="silver" stroke-opacity="0.5" stroke-width="1" /><polyline fill="none" points="354.095,727.3315 354.1115,716.4117 354.1282,705.4926 354.1449,694.5743 354.1617,683.6566 354.1787,672.7396 354.1957,661.8233 354.2129,650.9076 354.2302,639.9925 354.2475,629.078 354.265,618.164 354.2826,607.2506 354.3003,596.3376 354.3181,585.4251 354.336,574.5131 354.354,563.6014 354.3721,552.6902 354.3904,541.7793 354.4087,530.8687 354.4272,519.9585 354.4457,509.0486 354.4644,498.1389 354.4832,487.2294 354.502,476.3202 354.521,465.4111 354.5401,454.5022 354.5593,443.5934 354.5786,432.6847 354.598,421.7761 354.6176,410.8676 354.6372,399.9591 354.6569,389.0505 354.6768,378.142 354.6967,367.2334 354.7168,356.3247 354.737,345.416 354.7573,334.5071 354.7776,323.598 354.7981,312.6887 354.8187,301.7793 354.8395,290.8696 354.8603,279.9597 354.8812,269.0494 354.9023,258.1389 354.9234,247.228 354.9447,236.3168 354.966,225.4051 354.9875,214.4931 355.0091,203.5806 355.0308,192.6677 355.0526,181.7542 355.0745,170.8403 355.0965,159.9257 355.1186,149.0107 355.1409,138.095 355.1632,127.1787 355.1857,116.2617 355.2082,105.3441 355.2309,94.4258 355.2537,83.5067 355.2766,72.5869" stroke="silver" stroke-opacity="0.5" stroke-width="1" /><polyline fill="none" points="245.8181,726.9757 245.8736,716.0537 245.9295,705.1324 245.9857,694.2119 246.0423,683.292 246.0992,672.3729 246.1565,661.4543 246.2141,650.5365 246.2721,639.6192 246.3305,628.7025 246.3892,617.7863 246.4483,606.8707 246.5078,595.9555 246.5676,585.0408 246.6277,574.1266 246.6883,563.2128 246.7492,552.2994 246.8104,541.3863 246.872,530.4736 246.934,519.5612 246.9963,508.6491 247.059,497.7373 247.1221,486.8257 247.1855,475.9143 247.2493,465.0031 247.3134,454.092 247.3779,443.1811 247.4428,432.2703 247.508,421.3596 247.5736,410.4489 247.6395,399.5382 247.7059,388.6276 247.7725,377.7169 247.8396,366.8062 247.907,355.8954 247.9748,344.9845 248.0429,334.0735 248.1114,323.1624 248.1802,312.251 248.2495,301.3395 248.319,290.4277 248.389,279.5157 248.4593,268.6033 248.53,257.6907 248.601,246.7777 248.6724,235.8644 248.7442,224.9507 248.8164,214.0366 248.8889,203.122 248.9617,192.207 249.035,181.2915 249.1086,170.3755 249.1826,159.4589 249.2569,148.5418 249.3316,137.624 249.4067,126.7057 249.4821,115.7867 249.5579,104.867 249.6341,93.9467 249.7107,83.0256 249.7876,72.1037" stroke="silver" stroke-opacity="0.5" stroke-width="1" /><polyline fill="none" points="137.5075,726.2346 137.602,715.308 137.6971,704.3821 137.7929,693.457 137.8892,682.5325 137.9862,671.6088 138.0837,660.6857 138.1819,649.7633 138.2807,638.8414 138.3801,627.9201 138.4802,616.9994 138.5808,606.0792 138.6821,595.1596 138.7839,584.2404 138.8864,573.3216 138.9895,562.4033 139.0932,551.4853 139.1975,540.5678 139.3025,529.6506 139.408,518.7337 139.5142,507.8171 139.621,496.9008 139.7284,485.9847 139.8364,475.0688 139.945,464.1531 140.0543,453.2376 140.1641,442.3222 140.2746,431.407 140.3857,420.4918 140.4974,409.5767 140.6098,398.6616 140.7227,387.7466 140.8363,376.8315 140.9505,365.9163 141.0653,355.0012 141.1807,344.0859 141.2967,333.1705 141.4134,322.2549 141.5307,311.3392 141.6486,300.4233 141.7671,289.5071 141.8863,278.5907 142.006,267.674 142.1264,256.7571 142.2474,245.8398 142.369,234.9221 142.4913,224.0041 142.6142,213.0856 142.7376,202.1668 142.8618,191.2474 142.9865,180.3276 143.1119,169.4073 143.2379,158.4865 143.3645,147.565 143.4917,136.643 143.6196,125.7204 143.7481,114.7972 143.8772,103.8732 144.007,92.9486 144.1373,82.0233 144.2683,71.0972" stroke="silver" stroke-opacity="0.5" stroke-width="1" /><polyline fill="none" points="731.3573,681.8389 721.8342,681.9439 711.0133,682.0595 700.193,682.1711 689.3734,682.2788 678.5545,682.3825 667.7361,682.4822 656.9183,682.578 646.1011,682.6699 635.2844,682.7577 624.4682,682.8417 613.6526,682.9217 602.8373,682.9977 592.0226,683.0698 581.2082,683.1379 570.3943,683.202 559.5807,683.2623 548.7674,683.3185 537.9545,683.3709 527.1419,683.4192 516.3296,683.4637 505.5175,683.5042 494.7056,683.5407 483.894,683.5733 473.0825,683.6019 462.2712,683.6266 451.46,683.6474 440.649,683.6642 429.838,683.677 419.0271,683.686 408.2162,683.6909 397.4054,683.692 386.5945,683.689 375.7837,683.6822 364.9727,683.6714 354.1617,683.6566 343.3506,683.6379 332.5394,683.6153 321.728,683.5887 310.9165,683.5581 300.1047,683.5237 289.2928,683.4852 278.4806,683.4428 267.6681,683.3965 256.8553,683.3462 246.0423,683.292 235.2289,683.2339 224.4151,683.1717 213.6009,683.1057 202.7864,683.0356 191.9714,682.9617 181.156,682.8838 170.3401,682.8019 159.5236,682.7161 148.7067,682.6263 137.8892,682.5325 127.0712,682.4348 116.2525,682.3332 105.4332,682.2276 94.6133,682.118 83.7927,682.0045 72.9715,681.887 68.6427,681.8389" stroke="silver" stroke-opacity="0.5" stroke-width="1" /><polyline fill="none" points="730.3545,594.4326 720.8604,594.5427 710.0723,594.6638 699.2848,594.7808 688.498,594.8936 677.7118,595.0023 666.9262,595.1068 656.1412,595.2072 645.3567,595.3035 634.5728,595.3956 623.7894,595.4835 613.0064,595.5674 602.224,595.647 591.4419,595.7226 580.6603,595.794 569.879,595.8612 559.0982,595.9243 548.3176,595.9833 537.5374,596.0381 526.7575,596.0889 515.9779,596.1354 505.1985,596.1778 494.4193,596.2161 483.6404,596.2503 472.8616,596.2803 462.083,596.3062 451.3045,596.3279 440.5261,596.3456 429.7478,596.359 418.9696,596.3684 408.1914,596.3736 397.4132,596.3747 386.6351,596.3716 375.8569,596.3644 365.0786,596.3531 354.3003,596.3376 343.5219,596.318 332.7433,596.2943 321.9646,596.2664 311.1858,596.2344 300.4067,596.1983 289.6274,596.158 278.8479,596.1136 268.0682,596.065 257.2881,596.0123 246.5078,595.9555 235.7271,595.8946 224.946,595.8295 214.1646,595.7602 203.3828,595.6868 192.6005,595.6093 181.8178,595.5276 171.0346,595.4418 160.251,595.3519 149.4668,595.2578 138.6821,595.1596 127.8968,595.0572 117.1109,594.9506 106.3244,594.84 95.5373,594.7251 84.7495,594.6062 73.9611,594.483 69.6455,594.4326" stroke="silver" stroke-opacity="0.5" stroke-width="1" /><polyline fill="none" points="729.3021,507.0572 719.8383,507.1722 709.0846,507.2988 698.3316,507.4211 687.5792,507.5391 676.8274,507.6527 666.0762,507.762 655.3256,507.8669 644.5755,507.9675 633.8259,508.0638 623.0769,508.1558 612.3283,508.2434 601.5802,508.3267 590.8325,508.4056 580.0852,508.4803 569.3383,508.5506 558.5917,508.6165 547.8455,508.6782 537.0997,508.7355 526.3541,508.7885 515.6087,508.8372 504.8637,508.8815 494.1188,508.9216 483.3742,508.9573 472.6297,508.9886 461.8854,509.0157 451.1412,509.0384 440.3971,509.0569 429.6531,509.0709 418.9092,509.0807 408.1653,509.0862 397.4215,509.0873 386.6776,509.0841 375.9337,509.0766 365.1897,509.0647 354.4457,509.0486 343.7016,509.0281 332.9574,509.0033 322.213,508.9741 311.4684,508.9407 300.7237,508.9029 289.9787,508.8608 279.2335,508.8144 268.4881,508.7636 257.7424,508.7085 246.9963,508.6491 236.25,508.5854 225.5032,508.5174 214.7562,508.445 204.0087,508.3683 193.2608,508.2872 182.5124,508.2019 171.7636,508.1122 161.0143,508.0181 150.2645,507.9198 139.5142,507.8171 128.7633,507.7101 118.0118,507.5987 107.2598,507.483 96.5071,507.363 85.7537,507.2386 74.9997,507.1099 70.6979,507.0572" stroke="silver" stroke-opacity="0.5" stroke-width="1" /><polyline fill="none" points="728.1999,419.6993 718.7678,419.8193 708.0502,419.9513 697.3332,420.0789 686.6169,420.2019 675.9011,420.3204 665.1859,420.4343 654.4713,420.5438 643.7573,420.6487 633.0437,420.7491 622.3306,420.845 611.6181,420.9364 600.9059,421.0233 590.1942,421.1056 579.4829,421.1834 568.7719,421.2568 558.0614,421.3256 547.3511,421.3899 536.6412,421.4497 525.9315,421.5049 515.2222,421.5557 504.513,421.6019 493.8041,421.6437 483.0954,421.6809 472.3869,421.7137 461.6785,421.7419 450.9702,421.7656 440.2621,421.7848 429.554,421.7995 418.846,421.8097 408.138,421.8153 397.4301,421.8165 386.7221,421.8132 376.0142,421.8053 365.3061,421.793 354.598,421.7761 343.8898,421.7548 333.1815,421.7289 322.4731,421.6985 311.7644,421.6636 301.0556,421.6242 290.3466,421.5803 279.6374,421.5319 268.9279,421.479 258.2181,421.4215 247.508,421.3596 236.7976,421.2931 226.0869,421.2221 215.3757,421.1466 204.6642,421.0666 193.9523,420.9821 183.24,420.8931 172.5271,420.7995 161.8138,420.7015 151.1001,420.5989 140.3857,420.4918 129.6709,420.3802 118.9554,420.264 108.2394,420.1434 97.5227,420.0182 86.8054,419.8885 76.0875,419.7543 71.8001,419.6993" stroke="silver" stroke-opacity="0.5" stroke-width="1" /><polyline fill="none" points="727.0478,332.3457 717.6489,332.4705 706.9689,332.608 696.2896,332.7407 685.6109,332.8687 674.9329,332.992 664.2553,333.1106 653.5784,333.2245 642.902,333.3337 632.226,333.4382 621.5506,333.538 610.8756,333.6331 600.2011,333.7235 589.527,333.8092 578.8533,333.8902 568.1799,333.9665 557.5069,334.0382 546.8343,334.1051 536.1619,334.1673 525.4899,334.2248 514.8181,334.2776 504.1465,334.3258 493.4751,334.3692 482.804,334.408 472.133,334.442 461.4622,334.4714 450.7915,334.4961 440.1209,334.5161 429.4504,334.5314 418.7799,334.542 408.1095,334.5479 397.4391,334.5491 386.7687,334.5456 376.0983,334.5374 365.4278,334.5246 354.7573,334.5071 344.0866,334.4848 333.4158,334.4579 322.7449,334.4263 312.0739,334.39 301.4026,334.349 290.7312,334.3033 280.0595,334.2529 269.3876,334.1978 258.7154,334.138 248.0429,334.0735 237.3701,334.0044 226.6969,333.9305 216.0234,333.8519 205.3495,333.7687 194.6752,333.6807 184.0004,333.5881 173.3252,333.4907 162.6496,333.3887 151.9734,333.2819 141.2967,333.1705 130.6195,333.0543 119.9417,332.9334 109.2634,332.8079 98.5844,332.6776 87.9048,332.5426 77.2245,332.4029 72.9522,332.3457" stroke="silver" stroke-opacity="0.5" stroke-width="1" /><polyline fill="none" points="725.8455,244.9831 716.4812,245.1128 705.8406,245.2556 695.2006,245.3934 684.5612,245.5264 673.9225,245.6544 663.2843,245.7776 652.6466,245.8959 642.0094,246.0094 631.3728,246.1179 620.7366,246.2216 610.1009,246.3203 599.4656,246.4142 588.8307,246.5032 578.1963,246.5874 567.5622,246.6666 556.9284,246.741 546.295,246.8105 535.6618,246.8751 525.029,246.9349 514.3964,246.9897 503.764,247.0397 493.1318,247.0849 482.4999,247.1251 471.8681,247.1605 461.2365,247.191 450.6049,247.2166 439.9735,247.2374 429.3422,247.2533 418.7109,247.2643 408.0797,247.2704 397.4485,247.2717 386.8173,247.2681 376.1861,247.2596 365.5548,247.2462 354.9234,247.228 344.2919,247.2049 333.6604,247.177 323.0287,247.1441 312.3968,247.1064 301.7648,247.0638 291.1325,247.0163 280.5,246.964 269.8673,246.9068 259.2343,246.8447 248.601,246.7777 237.9674,246.7059 227.3335,246.6292 216.6992,246.5476 206.0646,246.4611 195.4295,246.3698 184.794,246.2735 174.1581,246.1724 163.5217,246.0664 152.8848,245.9555 142.2474,245.8398 131.6095,245.7191 120.971,245.5936 110.3319,245.4632 99.6923,245.3278 89.052,245.1876 78.4111,245.0426 74.1545,244.9831" stroke="silver" stroke-opacity="0.5" stroke-width="1" /><polyline fill="none" points="724.5929,157.5984 715.2647,157.7328 704.665,157.8808 694.066,158.0237 683.4676,158.1615 672.8698,158.2943 662.2725,158.422 651.6758,158.5447 641.0795,158.6623 630.4838,158.7748 619.8885,158.8823 609.2937,158.9847 598.6993,159.082 588.1054,159.1743 577.5118,159.2615 566.9185,159.3437 556.3256,159.4208 545.733,159.4929 535.1408,159.5599 524.5488,159.6218 513.957,159.6787 503.3655,159.7305 492.7742,159.7773 482.183,159.819 471.5921,159.8557 461.0013,159.8873 450.4106,159.9139 439.82,159.9354 429.2295,159.9519 418.6391,159.9633 408.0487,159.9697 397.4583,159.971 386.8679,159.9673 376.2775,159.9585 365.687,159.9446 355.0965,159.9257 344.5059,159.9018 333.9151,159.8728 323.3243,159.8388 312.7332,159.7996 302.142,159.7555 291.5506,159.7063 280.959,159.652 270.3671,159.5927 259.775,159.5283 249.1826,159.4589 238.5898,159.3844 227.9968,159.3049 217.4034,159.2203 206.8096,159.1306 196.2154,159.0359 185.6208,158.9362 175.0258,158.8313 164.4303,158.7214 153.8343,158.6065 143.2379,158.4865 132.6409,158.3614 122.0433,158.2312 111.4452,158.096 100.8465,157.9557 90.2472,157.8104 79.6473,157.6599 75.4071,157.5984" stroke="silver" stroke-opacity="0.5" stroke-width="1" /><polyline fill="none" points="723.2896,70.178 713.999,70.3172 703.442,70.4703 692.8856,70.6183 682.3298,70.7609 671.7746,70.8984 661.2199,71.0306 650.6657,71.1575 640.1121,71.2792 629.5589,71.3957 619.0062,71.5069 608.454,71.6129 597.9021,71.7136 587.3507,71.8092 576.7996,71.8994 566.2489,71.9845 555.6985,72.0643 545.1484,72.1389 534.5987,72.2082 524.0492,72.2723 513.4999,72.3312 502.9509,72.3849 492.4021,72.4333 481.8534,72.4765 471.305,72.5144 460.7566,72.5472 450.2084,72.5747 439.6603,72.5969 429.1123,72.614 418.5643,72.6258 408.0164,72.6324 397.4685,72.6337 386.9206,72.6299 376.3726,72.6208 365.8247,72.6065 355.2766,72.5869 344.7285,72.5621 334.1802,72.5321 323.6318,72.4969 313.0833,72.4564 302.5345,72.4107 291.9856,72.3598 281.4365,72.3036 270.8871,72.2422 260.3375,72.1756 249.7876,72.1037 239.2374,72.0266 228.6868,71.9443 218.1359,71.8568 207.5847,71.764 197.0331,71.6659 186.481,71.5627 175.9285,71.4542 165.3756,71.3404 154.8222,71.2214 144.2683,71.0972 133.7139,70.9678 123.159,70.8331 112.6035,70.6931 102.0474,70.5479 91.4907,70.3975 80.9334,70.2418 76.7104,70.178" stroke="silver" stroke-opacity="0.5" stroke-width="1" /><line fill="none" stroke="green" stroke-opacity="0.5" stroke-width="1.5" x1="505.2484" x2="178.0364" y1="609.5653" y2="642.6693" /><circle cx="724.7444" cy="203.3115" fill="black" r="0.936" stroke="none" /><circle cx="729.5798" cy="587.275" fill="black" r="0.738" stroke="none" /><circle cx="728.442" cy="700.1463" fill="black" r="0.738" stroke="none" /><circle cx="721.4401" cy="387.2863" fill="black" r="0.738" stroke="none" /><circle cx="720.8474" cy="387.8181" fill="black" r="0.738" stroke="none" /><circle cx="719.6044" cy="418.1489" fill="black" r="0.936" stroke="none" /><circle cx="709.801" cy="517.163" fill="black" r="0.738" stroke="none" /><circle cx="705.2063" cy="281.5231" fill="black" r="0.738" stroke="none" /><circle cx="695.0385" cy="141.9283" fill="black" r="0.738" stroke="none" /><circle cx="700.1087" cy="673.8673" fill="black" r="0.738" stroke="none" /><circle cx="683.089" cy="77.0463" fill="black" r="0.738" stroke="none" /><circle cx="682.0614" cy="705.4269" fill="black" r="0.936" stroke="none" /><circle cx="677.8253" cy="384.927" fill="black" r="0.738" stroke="none" /><circle cx="676.5501" cy="497.5233" fill="black" r="0.738" stroke="none" /><circle cx="668.4167" cy="501.0131" fill="black" r="0.738" stroke="none" /><circle cx="663.4965" cy="318.3589" fill="black" r="0.738" stroke="none" /><circle cx="656.9074" cy="215.8865" fill="black" r="0.738" stroke="none" /><circle cx="652.3189" cy="660.9449" fill="black" r="0.936" stroke="none" /><circle cx="651.1354" cy="556.9048" fill="black" r="0.738" stroke="none" /><circle cx="641.7544" cy="205.6568" fill="black" r="0.738" stroke="none" /><circle cx="643.5948" cy="621.1772" fill="black" r="0.738" stroke="none" /><circle cx="640.7545" cy="466.2597" fill="black" r="0.738" stroke="none" /><circle cx="636.4598" cy="107.6805" fill="black" r="0.738" stroke="none" /><circle cx="623.1209" cy="482.745" fill="black" r="0.738" stroke="none" /><circle cx="621.2206" cy="608.9554" fill="black" r="0.738" stroke="none" /><circle cx="620.0826" cy="686.5446" fill="black" r="0.738" stroke="none" /><circle cx="608.9102" cy="404.3703" fill="black" r="0.738" stroke="none" /><circle cx="605.0144" cy="420.3793" fill="black" r="0.738" stroke="none" /><circle cx="606.115" cy="608.72" fill="black" r="0.738" stroke="none" /><circle cx="574.2646" cy="123.8215" fill="black" r="0.738" stroke="none" /><circle cx="572.2116" cy="231.2647" fill="black" r="0.738" stroke="none" /><circle cx="567.361" cy="84.6464" fill="black" r="0.738" stroke="none" /><circle cx="566.8617" cy="303.9449" fill="black" r="0.738" stroke="none" /><circle cx="569.3759" cy="701.9046" fill="black" r="0.738" stroke="none" /><circle cx="565.2943" cy="324.0345" fill="black" r="0.738" stroke="none" /><circle cx="553.0373" cy="560.3331" fill="black" r="0.738" stroke="none" /><circle cx="552.4925" cy="651.0673" fill="black" r="0.738" stroke="none" /><circle cx="548.7135" cy="187.1575" fill="black" r="0.738" stroke="none" /><circle cx="543.762" cy="305.7537" fill="black" r="0.738" stroke="none" /><circle cx="540.9144" cy="633.5713" fill="black" r="1.17" stroke="none" /><circle cx="515.4835" cy="480.1204" fill="black" r="0.738" stroke="none" /><circle cx="509.5014" cy="166.8619" fill="black" r="0.738" stroke="none" /><circle cx="507.5311" cy="346.7921" fill="black" r="0.738" stroke="none" /><circle cx="505.2483" cy="609.5365" fill="black" r="1.476" stroke="none" /><circle cx="502.3838" cy="242.681" fill="black" r="0.738" stroke="none" /><circle cx="493.3375" cy="112.963" fill="black" r="0.738" stroke="none" /><circle cx="489.6518" cy="339.3585" fill="black" r="0.738" stroke="none" /><circle cx="480.1663" cy="680.4393" fill="black" r="0.738" stroke="none" /><circle cx="479.638" cy="583.6902" fill="black" r="0.738" stroke="none" /><circle cx="478.2843" cy="309.6361" fill="black" r="0.738" stroke="none" /><circle cx="461.4089" cy="313.5255" fill="black" r="0.738" stroke="none" /><circle cx="460.3663" cy="272.5065" fill="black" r="0.738" stroke="none" /><circle cx="446.8952" cy="441.9327" fill="black" r="0.738" stroke="none" /><circle cx="446.6377" cy="441.7586" fill="black" r="0.738" stroke="none" /><circle cx="442.7787" cy="390.3641" fill="black" r="0.738" stroke="none" /><circle cx="430.177" cy="301.3666" fill="black" r="0.738" stroke="none" /><circle cx="426.4071" cy="529.585" fill="black" r="0.738" stroke="none" /><circle cx="421.5888" cy="527.8437" fill="black" r="0.738" stroke="none" /><circle cx="412.6004" cy="119.2737" fill="black" r="0.738" stroke="none" /><circle cx="396.11" cy="119.1897" fill="black" r="0.738" stroke="none" /><circle cx="395.3299" cy="209.7357" fill="black" r="0.738" stroke="none" /><circle cx="393.1021" cy="595.6755" fill="black" r="0.738" stroke="none" /><circle cx="390.8261" cy="443.7191" fill="black" r="0.738" stroke="none" /><circle cx="386.0691" cy="522.2628" fill="black" r="0.738" stroke="none" /><circle cx="385.4248" cy="164.3322" fill="black" r="0.738" stroke="none" /><circle cx="382.4526" cy="667.8796" fill="black" r="0.738" stroke="none" /><circle cx="380.7834" cy="709.3649" fill="black" r="0.738" stroke="none" /><circle cx="378.9921" cy="247.9606" fill="black" r="0.738" stroke="none" /><circle cx="376.7975" cy="317.5201" fill="black" r="0.738" stroke="none" /><circle cx="368.7542" cy="336.7109" fill="black" r="0.738" stroke="none" /><circle cx="368.7665" cy="80.5606" fill="black" r="0.738" stroke="none" /><circle cx="350.3258" cy="133.8928" fill="black" r="0.738" stroke="none" /><circle cx="341.1258" cy="188.7068" fill="black" r="0.738" stroke="none" /><circle cx="335.5375" cy="508.3986" fill="black" r="0.738" stroke="none" /><circle cx="335.2378" cy="455.5957" fill="black" r="0.738" stroke="none" /><circle cx="325.4154" cy="532.0263" fill="black" r="0.738" stroke="none" /><circle cx="324.7825" cy="606.6636" fill="black" r="0.738" stroke="none" /><circle cx="314.8002" cy="311.7945" fill="black" r="0.738" stroke="none" /><circle cx="308.2918" cy="231.2898" fill="black" r="0.738" stroke="none" /><circle cx="297.6841" cy="285.542" fill="black" r="0.738" stroke="none" /><circle cx="290.6824" cy="635.8047" fill="black" r="0.738" stroke="none" /><circle cx="285.228" cy="435.7843" fill="black" r="0.738" stroke="none" /><circle cx="264.913" cy="484.9151" fill="black" r="0.738" stroke="none" /><circle cx="261.2057" cy="571.3222" fill="black" r="0.738" stroke="none" /><circle cx="261.1165" cy="377.6206" fill="black" r="0.738" stroke="none" /><circle cx="257.4377" cy="533.7615" fill="black" r="0.738" stroke="none" /><circle cx="254.1053" cy="391.8081" fill="black" r="0.738" stroke="none" /><circle cx="251.2528" cy="455.337" fill="black" r="1.17" stroke="none" /><circle cx="250.4114" cy="191.1688" fill="black" r="0.738" stroke="none" /><circle cx="245.6043" cy="211.6575" fill="black" r="0.738" stroke="none" /><circle cx="242.6411" cy="260.0963" fill="black" r="0.738" stroke="none" /><circle cx="239.6994" cy="111.9601" fill="black" r="0.738" stroke="none" /><circle cx="235.9868" cy="336.5266" fill="black" r="0.738" stroke="none" /><circle cx="232.8238" cy="620.1552" fill="black" r="0.738" stroke="none" /><circle cx="232.49" cy="464.3886" fill="black" r="0.738" stroke="none" /><circle cx="227.1891" cy="667.4632" fill="black" r="0.738" stroke="none" /><circle cx="217.7361" cy="255.3748" fill="black" r="0.738" stroke="none" /><circle cx="209.5246" cy="459.0799" fill="black" r="0.936" stroke="none" /><circle cx="200.0042" cy="161.8657" fill="black" r="0.738" stroke="none" /><circle cx="195.8012" cy="491.0186" fill="black" r="0.936" stroke="none" /><circle cx="190.5837" cy="708.1182" fill="black" r="0.738" stroke="none" /><circle cx="188.164" cy="249.9724" fill="black" r="0.738" stroke="none" /><circle cx="178.0001" cy="642.669" fill="black" r="1.476" stroke="none" /><circle cx="175.1113" cy="458.5428" fill="black" r="0.738" stroke="none" /><circle cx="177.0671" cy="91.831" fill="black" r="0.738" stroke="none" /><circle cx="172.8411" cy="267.8183" fill="black" r="0.738" stroke="none" /><circle cx="173.3898" cy="169.6479" fill="black" r="0.738" stroke="none" /><circle cx="161.9798" cy="615.4584" fill="black" r="0.738" stroke="none" /><circle cx="164.6041" cy="325.6359" fill="black" r="0.738" stroke="none" /><circle cx="159.9679" cy="649.602" fill="black" r="0.738" stroke="none" /><circle cx="147.5734" cy="594.7167" fill="black" r="0.738" stroke="none" /><circle cx="148.019" cy="545.8042" fill="black" r="0.936" stroke="none" /><circle cx="143.8103" cy="638.9784" fill="black" r="0.738" stroke="none" /><circle cx="130.157" cy="414.9706" fill="black" r="0.738" stroke="none" /><circle cx="131.3925" cy="135.537" fill="black" r="0.738" stroke="none" /><circle cx="125.7603" cy="208.0839" fill="black" r="0.738" stroke="none" /><circle cx="123.5259" cy="161.7453" fill="black" r="0.738" stroke="none" /><circle cx="115.365" cy="648.9368" fill="black" r="0.738" stroke="none" /><circle cx="106.4301" cy="651.8194" fill="black" r="0.738" stroke="none" /><circle cx="91.6672" cy="593.4595" fill="black" r="0.738" stroke="none" /><circle cx="95.1647" cy="272.6164" fill="black" r="0.738" stroke="none" /><circle cx="71.1605" cy="696.9065" fill="black" r="0.738" stroke="none" /><circle cx="73.3399" cy="495.1192" fill="black" r="0.738" stroke="none" /><circle cx="13.77" cy="786.23" fill="black" r="4.59" stroke="none" /><circle cx="13.77" cy="786.23" fill="black" r="4.59" stroke="none" /><text fill="black" font-family="monospace" font-size="12" x="10.77" y="775.64">1</text><circle cx="37.77" cy="786.23" fill="black" r="3.654" stroke="none" /><circle cx="37.77" cy="786.23" fill="black" r="3.654" stroke="none" /><text fill="black" font-family="monospace" font-size="12" x="34.769999999999996" y="775.64">2</text><circle cx="61.77" cy="786.23" fill="black" r="2.916" stroke="none" /><circle cx="61.77" cy="786.23" fill="black" r="2.916" stroke="none" /><text fill="black" font-family="monospace" font-size="12" x="58.769999999999996" y="775.64">3</text><circle cx="85.77" cy="786.23" fill="black" r="2.322" stroke="none" /><circle cx="85.77" cy="786.23" fill="black" r="2.322" stroke="none" /><text fill="black" font-family="monospace" font-size="12" x="82.77" y="775.64">4</text><circle cx="109.77" cy="786.23" fill="black" r="1.854" stroke="none" /><circle cx="109.77" cy="786.23" fill="black" r="1.854" stroke="none" /><text fill="black" font-family="monospace" font-size="12" x="106.77" y="775.64">5</text><circle cx="133.77" cy="786.23" fill="black" r="1.476" stroke="none" /><circle cx="133.77" cy="786.23" fill="black" r="1.476" stroke="none" /><text fill="black" font-family="monospace" font-size="12" x="130.77" y="775.64">6</text><circle cx="157.77" cy="786.23" fill="black" r="1.17" stroke="none" /><circle cx="157.77" cy="786.23" fill="black" r="1.17" stroke="none" /><text fill="black" font-family="monospace" font-size="12" x="154.77" y="775.64">7</text><circle cx="181.77" cy="786.23" fill="black" r="0.936" stroke="none" /><circle cx="181.77" cy="786.23" fill="black" r="0.936" stroke="none" /><text fill="black" font-family="monospace" font-size="12" x="178.77" y="775.64">8</text><circle cx="205.77" cy="786.23" fill="black" r="0.738" stroke="none" /><circle cx="205.77" cy="786.23" fill="black" r="0.738" stroke="none" /><text fill="black" font-family="monospace" font-size="12" x="202.77" y="775.64">9</text><text fill="gray" fill-opacity="0.5" font-family="monospace" font-size="12" x="678.9601713829497" y="726.0881908680246">02h05m</text><text fill="gray" fill-opacity="0.5" font-family="monospace" font-size="12" x="570.6423093278427" y="726.8879315031991">02h10m</text><text fill="gray" fill-opacity="0.5" font-family="monospace" font-size="12" x="462.3618330383848" y="727.302241608391">02h15m</text><text fill="gray" fill-opacity="0.5" font-family="monospace" font-size="12" x="354.09501649616897" y="727.3315000121411">02h20m</text><text fill="gray" fill-opacity="0.5" font-family="monospace" font-size="12" x="245.81814507462968" y="726.975733462027">02h25m</text><text fill="gray" fill-opacity="0.5" font-family="monospace" font-size="12" x="137.50749576189367" y="726.2346166758588">02h30m</text><text fill="gray" fill-opacity="0.5" font-family="monospace" font-size="12" x="68.64274660234571" y="681.8389141919388">+8°</text><text fill="gray" fill-opacity="0.5" font-family="monospace" font-size="12" x="69.64546961131629" y="594.4326330539807">+9°</text><text fill="gray" fill-opacity="0.5" font-family="monospace" font-size="12" x="70.69787367159603" y="507.0571874107499">+10°</text><text fill="gray" fill-opacity="0.5" font-family="monospace" font-size="12" x="71.80007815861501" y="419.69930120520905">+11°</text><text fill="gray" fill-opacity="0.5" font-family="monospace" font-size="12" x="72.95223276131622" y="332.34570903144146">+12°</text><text fill="gray" fill-opacity="0.5" font-family="monospace" font-size="12" x="74.15451755678856" y="244.9831480886702">+13°</text><text fill="gray" fill-opacity="0.5" font-family="monospace" font-size="12" x="75.4071431241702" y="157.5983501386286">+14°</text><text fill="gray" fill-opacity="0.5" font-family="monospace" font-size="12" x="76.71035069797654" y="70.17803345593836">+15°</text><text fill="black" font-family="monospace" font-size="12" x="12" y="48">&gt;&gt; No.461 02h03m 02h33m +7.5°+15.0°</text><a target="_self" xlink:href="hip023.svg"><text fill="black" font-family="monospace" font-size="12" x="12" y="36">&gt; No.23 00h00m 02h40m +0.0°+22.5°</text></a><a target="_self" xlink:href="hip002.svg"><text fill="black" font-family="monospace" font-size="12" x="12" y="24">No.2 00h 24h +0.0°+90.0°</text></a><polyline fill="none" points="723.2896,70.178 713.999,70.3172 703.442,70.4703 692.8856,70.6183 682.3298,70.7609 671.7746,70.8984 661.2199,71.0306 650.6657,71.1575 640.1121,71.2792 629.5589,71.3957 619.0062,71.5069 608.454,71.6129 597.9021,71.7136 587.3507,71.8092 576.7996,71.8994 566.2489,71.9845 555.6985,72.0643 545.1484,72.1389 534.5987,72.2082 524.0492,72.2723 513.4999,72.3312 502.9509,72.3849 492.4021,72.4333 481.8534,72.4765 471.305,72.5144 460.7566,72.5472 450.2084,72.5747 439.6603,72.5969 429.1123,72.614 418.5643,72.6258 408.0164,72.6324 397.4685,72.6337 386.9206,72.6299 376.3726,72.6208 365.8247,72.6065 355.2766,72.5869 344.7285,72.5621 334.1802,72.5321 323.6318,72.4969 313.0833,72.4564 302.5345,72.4107 291.9856,72.3598 281.4365,72.3036 270.8871,72.2422 260.3375,72.1756 249.7876,72.1037 239.2374,72.0266 228.6868,71.9443 218.1359,71.8568 207.5847,71.764 197.0331,71.6659 186.481,71.5627 175.9285,71.4542 165.3756,71.3404 154.8222,71.2214 144.2683,71.0972 133.7139,70.9678 123.159,70.8331 112.6035,70.6931 102.0474,70.5479 91.4907,70.3975 80.9334,70.2418 76.7104,70.178" stroke="black" stroke-opacity="0.5" stroke-width="1" /><polyline fill="none" points="731.84,725.5578 731.7205,714.6269 731.6002,703.6969 731.4791,692.7675 731.3573,681.8389 731.2346,670.911 731.1112,659.9837 730.987,649.0571 730.8621,638.1311 730.7364,627.2057 730.6099,616.2808 730.4826,605.3565 730.3545,594.4326 730.2257,583.5093 730.0961,572.5864 729.9657,561.6639 729.8345,550.7419 729.7026,539.8202 729.5699,528.8989 729.4364,517.9779 729.3021,507.0572 729.1671,496.1368 729.0312,485.2166 728.8946,474.2966 728.7573,463.3769 728.6191,452.4573 728.4801,441.5379 728.3404,430.6185 728.1999,419.6993 728.0586,408.7801 727.9166,397.861 727.7737,386.9419 727.6301,376.0228 727.4857,365.1036 727.3405,354.1844 727.1945,343.2651 727.0478,332.3457 726.9002,321.4262 726.7519,310.5064 726.6028,299.5865 726.4529,288.6664 726.3022,277.746 726.1508,266.8254 725.9985,255.9044 725.8455,244.9831 725.6917,234.0615 725.5371,223.1396 725.3817,212.2172 725.2255,201.2944 725.0685,190.3711 724.9107,179.4474 724.7522,168.5231 724.5929,157.5984 724.4327,146.673 724.2718,135.7471 724.1101,124.8206 723.9476,113.8935 723.7843,102.9657 723.6202,92.0372 723.4553,81.108 723.2896,70.178" stroke="black" stroke-opacity="0.5" stroke-width="1" /><polyline fill="none" points="731.84,725.5578 722.3031,725.6602 711.4664,725.773 700.6303,725.8819 689.7949,725.987 678.9602,726.0882 668.126,726.1855 657.2925,726.279 646.4595,726.3686 635.627,726.4544 624.7951,726.5363 613.9636,726.6143 603.1327,726.6885 592.3021,726.7588 581.472,726.8253 570.6423,726.8879 559.813,726.9467 548.984,727.0016 538.1553,727.0527 527.327,727.0999 516.4989,727.1432 505.6711,727.1827 494.8435,727.2184 484.0161,727.2502 473.1889,727.2781 462.3618,727.3022 451.5349,727.3225 440.7081,727.3389 429.8814,727.3514 419.0548,727.3601 408.2282,727.365 397.4016,727.366 386.575,727.3631 375.7484,727.3564 364.9218,727.3459 354.095,727.3315 343.2682,727.3133 332.4412,727.2912 321.6141,727.2652 310.7868,727.2354 299.9593,727.2018 289.1316,727.1643 278.3037,727.1229 267.4755,727.0777 256.647,727.0286 245.8181,726.9757 234.989,726.919 224.1595,726.8584 213.3296,726.7939 202.4993,726.7256 191.6685,726.6534 180.8373,726.5773 170.0056,726.4974 159.1735,726.4137 148.3408,726.3261 137.5075,726.2346 126.6737,726.1393 115.8392,726.0401 105.0042,725.937 94.1685,725.8301 83.3321,725.7194 72.495,725.6047 68.16,725.5578" stroke="black" stroke-opacity="0.5" stroke-width="1" /><polyline fill="none" points="68.16,725.5578 68.2795,714.6269 68.3998,703.6969 68.5209,692.7675 68.6427,681.8389 68.7654,670.911 68.8888,659.9837 69.013,649.0571 69.1379,638.1311 69.2636,627.2057 69.3901,616.2808 69.5174,605.3565 69.6455,594.4326 69.7743,583.5093 69.9039,572.5864 70.0343,561.6639 70.1655,550.7419 70.2974,539.8202 70.4301,528.8989 70.5636,517.9779 70.6979,507.0572 70.8329,496.1368 70.9688,485.2166 71.1054,474.2966 71.2427,463.3769 71.3809,452.4573 71.5199,441.5379 71.6596,430.6185 71.8001,419.6993 71.9414,408.7801 72.0834,397.861 72.2263,386.9419 72.3699,376.0228 72.5143,365.1036 72.6595,354.1844 72.8055,343.2651 72.9522,332.3457 73.0998,321.4262 73.2481,310.5064 73.3972,299.5865 73.5471,288.6664 73.6978,277.746 73.8492,266.8254 74.0015,255.9044 74.1545,244.9831 74.3083,234.0615 74.4629,223.1396 74.6183,212.2172 74.7745,201.2944 74.9315,190.3711 75.0893,179.4474 75.2478,168.5231 75.4071,157.5984 75.5673,146.673 75.7282,135.7471 75.8899,124.8206 76.0524,113.8935 76.2157,102.9657 76.3798,92.0372 76.5447,81.108 76.7104,70.178" stroke="black" stroke-opacity="0.5" stroke-width="1" /></svg>