<?xml version="1.0" encoding="utf-8" ?>
<svg baseProfile="tiny" height="800" version="1.2" width="800" xmlns="http://www.w3.org/2000/svg" xmlns:ev="http://www.w3.org/2001/xml-events" xmlns:xlink="http://www.w3.org/1999/xlink"><defs /><rect fill="none" height="800" stroke="black" stroke-width="2" width="800" x="0" y="0" /><polyline fill="none" points="695.41,724.7447 695.2158,713.8175 695.0208,702.8911 694.8251,691.9654 694.6288,681.0404 694.4318,670.1161 694.2341,659.1925 694.0358,648.2695 693.8367,637.3472 693.637,626.4254 693.4366,615.5042 693.2356,604.5836 693.0338,593.6634 692.8314,582.7438 692.6283,571.8246 692.4245,560.9058 692.22,549.9875 692.0148,539.0695 691.809,528.1519 691.6024,517.2346 691.3952,506.3176 691.1873,495.4009 690.9788,484.4845 690.7695,473.5683 690.5595,462.6523 690.3489,451.7364 690.1376,440.8207 689.9256,429.9052 689.7129,418.9897 689.4995,408.0743 689.2854,397.159 689.0707,386.2436 688.8552,375.3283 688.6391,364.4129 688.4222,353.4975 688.2047,342.582 687.9865,331.6664 687.7676,320.7507 687.548,309.8348 687.3277,298.9187 687.1067,288.0023 686.885,277.0858 686.6627,266.169 686.4396,255.2519 686.2158,244.3345 685.9914,233.4167 685.7662,222.4986 685.5404,211.58 685.3138,200.6611 685.0866,189.7417 684.8586,178.8218 684.63,167.9015 684.4006,156.9806 684.1706,146.0592 683.9398,135.1371 683.7083,124.2145 683.4762,113.2913 683.2433,102.3674 683.0097,91.4428 682.7755,80.5175 682.5405,69.5915" stroke="silver" stroke-opacity="0.5" stroke-width="1" /><polyline fill="none" points="589.8806,726.2831 589.7558,715.3604 589.6305,704.4384 589.5048,693.5171 589.3787,682.5966 589.2521,671.6767 589.1251,660.7575 588.9977,649.8389 588.8698,638.921 588.7415,628.0036 588.6128,617.0867 588.4836,606.1704 588.354,595.2546 588.2239,584.3393 588.0934,573.4244 587.9625,562.5099 587.8311,551.5959 587.6993,540.6822 587.5671,529.7689 587.4344,518.8558 587.3013,507.9431 587.1677,497.0306 587.0337,486.1184 586.8992,475.2064 586.7644,464.2946 586.629,453.383 586.4933,442.4714 586.3571,431.56 586.2204,420.6487 586.0833,409.7375 585.9458,398.8263 585.8078,387.9151 585.6694,377.0038 585.5305,366.0926 585.3912,355.1812 585.2515,344.2698 585.1113,333.3582 584.9706,322.4465 584.8296,311.5346 584.688,300.6226 584.5461,289.7103 584.4036,278.7977 584.2608,267.8849 584.1175,256.9717 583.9737,246.0583 583.8295,235.1445 583.6848,224.2303 583.5397,213.3157 583.3942,202.4006 583.2482,191.4851 583.1017,180.5691 582.9548,169.6527 582.8075,158.7356 582.6597,147.818 582.5114,136.8999 582.3627,125.9811 582.2135,115.0616 582.0639,104.1415 581.9139,93.2207 581.7633,82.2992 581.6124,71.377" stroke="silver" stroke-opacity="0.5" stroke-width="1" /><polyline fill="none" points="484.3849,727.1522 484.3294,716.232 484.2738,705.3125 484.2179,694.3938 484.1619,683.4757 484.1056,672.5583 484.0492,661.6416 483.9926,650.7255 483.9358,639.81 483.8788,628.8951 483.8216,617.9808 483.7642,607.0669 483.7066,596.1536 483.6488,585.2407 483.5909,574.3282 483.5327,563.4162 483.4743,552.5046 483.4158,541.5933 483.357,530.6824 483.2981,519.7717 483.2389,508.8614 483.1796,497.9513 483.12,487.0415 483.0603,476.1319 483.0004,465.2224 482.9402,454.3132 482.8799,443.404 482.8194,432.495 482.7587,421.586 482.6978,410.6771 482.6367,399.7682 482.5754,388.8593 482.5139,377.9504 482.4522,367.0414 482.3903,356.1324 482.3282,345.2233 482.2659,334.314 482.2034,323.4046 482.1408,312.495 482.0779,301.5852 482.0148,290.6751 481.9515,279.7648 481.8881,268.8543 481.8244,257.9434 481.7605,247.0321 481.6964,236.1206 481.6322,225.2086 481.5677,214.2962 481.503,203.3834 481.4382,192.4701 481.3731,181.5563 481.3078,170.642 481.2424,159.7271 481.1767,148.8117 481.1108,137.8957 481.0448,126.9791 480.9785,116.0618 480.912,105.1438 480.8453,94.2252 480.7785,83.3058 480.7114,72.3857" stroke="silver" stroke-opacity="0.5" stroke-width="1" /><polyline fill="none" points="378.9042,727.3527 378.918,716.4331 378.9319,705.5142 378.9459,694.596 378.9599,683.6786 378.974,672.7618 378.9881,661.8456 379.0022,650.9301 379.0164,640.0152 379.0307,629.1008 379.045,618.187 379.0593,607.2737 379.0737,596.361 379.0882,585.4486 379.1026,574.5367 379.1172,563.6253 379.1318,552.7142 379.1464,541.8035 379.1611,530.8931 379.1758,519.9831 379.1906,509.0733 379.2055,498.1638 379.2203,487.2545 379.2353,476.3454 379.2503,465.4365 379.2653,454.5278 379.2804,443.6192 379.2955,432.7107 379.3107,421.8022 379.3259,410.8939 379.3412,399.9855 379.3565,389.0772 379.3719,378.1688 379.3873,367.2604 379.4028,356.3519 379.4183,345.4433 379.4338,334.5345 379.4495,323.6256 379.4651,312.7166 379.4809,301.8073 379.4966,290.8978 379.5124,279.988 379.5283,269.0779 379.5442,258.1675 379.5602,247.2568 379.5762,236.3458 379.5923,225.4343 379.6084,214.5224 379.6246,203.6101 379.6408,192.6973 379.657,181.784 379.6734,170.8702 379.6897,159.9559 379.7061,149.041 379.7226,138.1255 379.7391,127.2093 379.7557,116.2925 379.7723,105.3751 379.789,94.4569 379.8057,83.538 379.8225,72.6184" stroke="silver" stroke-opacity="0.5" stroke-width="1" /><polyline fill="none" points="273.4197,726.8848 273.5029,715.9638 273.5864,705.0436 273.6702,694.1241 273.7542,683.2052 273.8386,672.2871 273.9232,661.3696 274.0082,650.4528 274.0934,639.5365 274.1789,628.6208 274.2647,617.7057 274.3508,606.7911 274.4372,595.877 274.5239,584.9634 274.6108,574.0502 274.6981,563.1374 274.7857,552.225 274.8735,541.313 274.9617,530.4013 275.0501,519.49 275.1388,508.5789 275.2278,497.6681 275.3172,486.7575 275.4068,475.8472 275.4967,464.937 275.5869,454.027 275.6774,443.1171 275.7681,432.2073 275.8592,421.2976 275.9506,410.388 276.0423,399.4784 276.1342,388.5688 276.2265,377.6592 276.319,366.7495 276.4119,355.8398 276.505,344.9299 276.5985,334.0199 276.6922,323.1098 276.7862,312.1995 276.8806,301.289 276.9752,290.3783 277.0701,279.4673 277.1653,268.556 277.2608,257.6444 277.3567,246.7325 277.4528,235.8203 277.5492,224.9076 277.6459,213.9945 277.7429,203.081 277.8402,192.167 277.9378,181.2526 278.0358,170.3376 278.134,159.4221 278.2325,148.506 278.3313,137.5893 278.4304,126.672 278.5298,115.7541 278.6295,104.8355 278.7296,93.9161 278.8299,82.9961 278.9305,72.0753" stroke="silver" stroke-opacity="0.5" stroke-width="1" /><polyline fill="none" points="167.9127,725.7481 168.0653,714.8238 168.2185,703.9003 168.3721,692.9775 168.5263,682.0554 168.681,671.134 168.8363,660.2133 168.9921,649.2932 169.1484,638.3737 169.3052,627.4548 169.4626,616.5364 169.6206,605.6186 169.779,594.7013 169.938,583.7844 170.0975,572.8681 170.2576,561.9521 170.4182,551.0365 170.5793,540.1214 170.741,529.2065 170.9032,518.292 171.0659,507.3778 171.2292,496.4639 171.393,485.5502 171.5574,474.6367 171.7223,463.7235 171.8877,452.8104 172.0537,441.8974 172.2202,430.9846 172.3873,420.0718 172.5548,409.1591 172.723,398.2464 172.8916,387.3338 173.0609,376.4212 173.2306,365.5085 173.4009,354.5957 173.5718,343.6828 173.7431,332.7699 173.9151,321.8568 174.0875,310.9435 174.2606,300.03 174.4341,289.1163 174.6082,278.2024 174.7829,267.2882 174.9581,256.3736 175.1338,245.4588 175.3101,234.5436 175.487,223.6281 175.6643,212.7121 175.8423,201.7957 176.0208,190.8788 176.1998,179.9615 176.3794,169.0437 176.5595,158.1253 176.7402,147.2064 176.9214,136.2869 177.1032,125.3667 177.2856,114.446 177.4685,103.5246 177.6519,92.6024 177.8359,81.6796 178.0205,70.756" stroke="silver" stroke-opacity="0.5" stroke-width="1" /><polyline fill="none" points="62.3645,723.9417 62.5866,713.0121 62.8095,702.0834 63.0332,691.1554 63.2576,680.2281 63.4829,669.3015 63.7089,658.3756 63.9356,647.4503 64.1632,636.5257 64.3915,625.6016 64.6206,614.6782 64.8505,603.7552 65.0811,592.8328 65.3125,581.9109 65.5447,570.9895 65.7777,560.0685 66.0115,549.1479 66.2461,538.2277 66.4814,527.3078 66.7175,516.3883 66.9544,505.4691 67.1921,494.5502 67.4305,483.6316 67.6697,472.7132 67.9098,461.795 68.1506,450.877 68.3922,439.9591 68.6345,429.0413 68.8777,418.1237 69.1216,407.2062 69.3664,396.2887 69.6119,385.3712 69.8582,374.4537 70.1053,363.5362 70.3532,352.6187 70.6019,341.701 70.8513,330.7833 71.1016,319.8655 71.3526,308.9474 71.6045,298.0293 71.8571,287.1108 72.1105,276.1922 72.3647,265.2733 72.6198,254.3542 72.8756,243.4347 73.1322,232.5148 73.3896,221.5947 73.6478,210.6741 73.9068,199.7531 74.1666,188.8317 74.4272,177.9098 74.6886,166.9874 74.9508,156.0645 75.2138,145.1411 75.4776,134.217 75.7422,123.2924 76.0076,112.3672 76.2738,101.4413 76.5409,90.5148 76.8087,79.5875 77.0773,68.6595" stroke="silver" stroke-opacity="0.5" stroke-width="1" /><polyline fill="none" points="737.6355,723.9417 727.0783,724.1525 716.5216,724.3566 705.9656,724.554 695.41,724.7447 684.855,724.9287 674.3005,725.106 663.7465,725.2766 653.193,725.4405 642.6399,725.5976 632.0873,725.7481 621.535,725.8919 610.9832,726.029 600.4317,726.1594 589.8806,726.2831 579.3298,726.4001 568.7793,726.5105 558.2292,726.6141 547.6793,726.711 537.1297,726.8013 526.5803,726.8848 516.0311,726.9617 505.4822,727.0319 494.9335,727.0954 484.3849,727.1522 473.8364,727.2024 463.2881,727.2458 452.7399,727.2826 442.1918,727.3126 431.6438,727.336 421.0958,727.3527 410.5479,727.3628 400.0,727.3661 389.4521,727.3628 378.9042,727.3527 368.3562,727.336 357.8082,727.3126 347.2601,727.2826 336.7119,727.2458 326.1636,727.2024 315.6151,727.1522 305.0665,727.0954 294.5178,727.0319 283.9689,726.9617 273.4197,726.8848 262.8703,726.8013 252.3207,726.711 241.7708,726.6141 231.2207,726.5105 220.6702,726.4001 210.1194,726.2831 199.5683,726.1594 189.0168,726.029 178.465,725.8919 167.9127,725.7481 157.3601,725.5976 146.807,725.4405 136.2535,725.2766 125.6995,725.106 115.145,724.9287 104.59,724.7447 94.0344,724.554 83.4784,724.3566 72.9217,724.1525 62.3645,723.9417" stroke="silver" stroke-opacity="0.5" stroke-width="1" /><polyline fill="none" points="735.8368,636.5257 725.336,636.7413 714.8357,636.9501 704.336,637.1521 693.8367,637.3472 683.338,637.5354 672.8398,637.7168 662.3421,637.8913 651.8448,638.0589 641.348,638.2197 630.8516,638.3737 620.3556,638.5208 609.86,638.661 599.3647,638.7944 588.8698,638.921 578.3752,639.0407 567.881,639.1535 557.387,639.2595 546.8933,639.3587 536.3998,639.451 525.9066,639.5365 515.4136,639.6152 504.9208,639.687 494.4282,639.7519 483.9358,639.81 473.4435,639.8613 462.9513,639.9058 452.4593,639.9434 441.9673,639.9742 431.4754,639.9981 420.9836,640.0152 410.4918,640.0254 400.0,640.0289 389.5082,640.0254 379.0164,640.0152 368.5246,639.9981 358.0327,639.9742 347.5407,639.9434 337.0487,639.9058 326.5565,639.8613 316.0642,639.81 305.5718,639.7519 295.0792,639.687 284.5864,639.6152 274.0934,639.5365 263.6002,639.451 253.1067,639.3587 242.613,639.2595 232.119,639.1535 221.6248,639.0407 211.1302,638.921 200.6353,638.7944 190.14,638.661 179.6444,638.5208 169.1484,638.3737 158.652,638.2197 148.1552,638.0589 137.6579,637.8913 127.1602,637.7168 116.662,637.5354 106.1633,637.3472 95.664,637.1521 85.1643,636.9501 74.664,636.7413 64.1632,636.5257" stroke="silver" stroke-opacity="0.5" stroke-width="1" /><polyline fill="none" points="733.9885,549.1479 723.5456,549.3683 713.1032,549.5817 702.6613,549.7881 692.22,549.9875 681.7791,550.1798 671.3388,550.3652 660.8989,550.5435 650.4594,550.7149 640.0204,550.8792 629.5818,551.0365 619.1436,551.1869 608.7057,551.3302 598.2683,551.4666 587.8311,551.5959 577.3943,551.7182 566.9578,551.8336 556.5215,551.9419 546.0855,552.0433 535.6498,552.1376 525.2143,552.225 514.7791,552.3054 504.344,552.3788 493.9091,552.4452 483.4743,552.5046 473.0397,552.557 462.6052,552.6024 452.1709,552.6408 441.7366,552.6723 431.3024,552.6967 420.8682,552.7142 410.4341,552.7247 400.0,552.7282 389.5659,552.7247 379.1318,552.7142 368.6976,552.6967 358.2634,552.6723 347.8291,552.6408 337.3948,552.6024 326.9603,552.557 316.5257,552.5046 306.0909,552.4452 295.656,552.3788 285.2209,552.3054 274.7857,552.225 264.3502,552.1376 253.9145,552.0433 243.4785,551.9419 233.0422,551.8336 222.6057,551.7182 212.1689,551.5959 201.7317,551.4666 191.2943,551.3302 180.8564,551.1869 170.4182,551.0365 159.9796,550.8792 149.5406,550.7149 139.1011,550.5435 128.6612,550.3652 118.2209,550.1798 107.78,549.9875 97.3387,549.7881 86.8968,549.5817 76.4544,549.3683 66.0115,549.1479" stroke="silver" stroke-opacity="0.5" stroke-width="1" /><polyline fill="none" points="732.0902,461.795 721.7068,462.02 711.3238,462.2379 700.9414,462.4487 690.5595,462.6523 680.1781,462.8487 669.7972,463.0379 659.4167,463.2201 649.0366,463.395 638.657,463.5628 628.2777,463.7235 617.8988,463.877 607.5203,464.0233 597.1422,464.1625 586.7644,464.2946 576.3868,464.4195 566.0096,464.5373 555.6327,464.6479 545.256,464.7514 534.8795,464.8478 524.5033,464.937 514.1273,465.0191 503.7515,465.094 493.3759,465.1618 483.0004,465.2224 472.625,465.276 462.2498,465.3223 451.8747,465.3616 441.4996,465.3937 431.1247,465.4187 420.7497,465.4365 410.3749,465.4472 400.0,465.4508 389.6251,465.4472 379.2503,465.4365 368.8753,465.4187 358.5004,465.3937 348.1253,465.3616 337.7502,465.3223 327.375,465.276 316.9996,465.2224 306.6241,465.1618 296.2485,465.094 285.8727,465.0191 275.4967,464.937 265.1205,464.8478 254.744,464.7514 244.3673,464.6479 233.9904,464.5373 223.6132,464.4195 213.2356,464.2946 202.8578,464.1625 192.4797,464.0233 182.1012,463.877 171.7223,463.7235 161.343,463.5628 150.9634,463.395 140.5833,463.2201 130.2028,463.0379 119.8219,462.8487 109.4405,462.6523 99.0586,462.4487 88.6762,462.2379 78.2932,462.02 67.9098,461.795" stroke="silver" stroke-opacity="0.5" stroke-width="1" /><polyline fill="none" points="730.1418,374.4537 719.8194,374.6833 709.4975,374.9056 699.1761,375.1206 688.8552,375.3283 678.5348,375.5287 668.2148,375.7218 657.8953,375.9076 647.5762,376.0861 637.2575,376.2573 626.9391,376.4212 616.6212,376.5778 606.3036,376.7271 595.9863,376.8691 585.6694,377.0038 575.3528,377.1313 565.0364,377.2514 554.7203,377.3643 544.4045,377.4699 534.0889,377.5682 523.7735,377.6592 513.4584,377.7429 503.1434,377.8194 492.8286,377.8885 482.5139,377.9504 472.1994,378.005 461.8849,378.0523 451.5706,378.0924 441.2564,378.1251 430.9422,378.1506 420.6281,378.1688 410.3141,378.1797 400.0,378.1833 389.6859,378.1797 379.3719,378.1688 369.0578,378.1506 358.7436,378.1251 348.4294,378.0924 338.1151,378.0523 327.8006,378.005 317.4861,377.9504 307.1714,377.8885 296.8566,377.8194 286.5416,377.7429 276.2265,377.6592 265.9111,377.5682 255.5955,377.4699 245.2797,377.3643 234.9636,377.2514 224.6472,377.1313 214.3306,377.0038 204.0137,376.8691 193.6964,376.7271 183.3788,376.5778 173.0609,376.4212 162.7425,376.2573 152.4238,376.0861 142.1047,375.9076 131.7852,375.7218 121.4652,375.5287 111.1448,375.3283 100.8239,375.1206 90.5025,374.9056 80.1806,374.6833 69.8582,374.4537" stroke="silver" stroke-opacity="0.5" stroke-width="1" /><polyline fill="none" points="728.1429,287.1108 717.8831,287.3449 707.6238,287.5715 697.365,287.7906 687.1067,288.0023 676.8489,288.2066 666.5915,288.4034 656.3345,288.5928 646.0779,288.7747 635.8217,288.9493 625.5659,289.1163 615.3104,289.276 605.0553,289.4282 594.8005,289.5729 584.5461,289.7103 574.2919,289.8402 564.038,289.9626 553.7843,290.0777 543.5309,290.1853 533.2778,290.2855 523.0248,290.3783 512.7721,290.4636 502.5195,290.5416 492.2671,290.6121 482.0148,290.6751 471.7627,290.7308 461.5106,290.779 451.2587,290.8198 441.0069,290.8532 430.7551,290.8792 420.5034,290.8978 410.2517,290.9089 400.0,290.9126 389.7483,290.9089 379.4966,290.8978 369.2449,290.8792 358.9931,290.8532 348.7413,290.8198 338.4894,290.779 328.2373,290.7308 317.9852,290.6751 307.7329,290.6121 297.4805,290.5416 287.2279,290.4636 276.9752,290.3783 266.7222,290.2855 256.4691,290.1853 246.2157,290.0777 235.962,289.9626 225.7081,289.8402 215.4539,289.7103 205.1995,289.5729 194.9447,289.4282 184.6896,289.276 174.4341,289.1163 164.1783,288.9493 153.9221,288.7747 143.6655,288.5928 133.4085,288.4034 123.1511,288.2066 112.8933,288.0023 102.635,287.7906 92.3762,287.5715 82.1169,287.3449 71.8571,287.1108" stroke="silver" stroke-opacity="0.5" stroke-width="1" /><polyline fill="none" points="726.0932,199.7531 715.8976,199.9915 705.7026,200.2223 695.508,200.4455 685.3138,200.6611 675.1201,200.8691 664.9268,201.0696 654.734,201.2625 644.5415,201.4478 634.3494,201.6255 624.1577,201.7957 613.9664,201.9583 603.7753,202.1133 593.5846,202.2607 583.3942,202.4006 573.204,202.5329 563.0142,202.6577 552.8246,202.7749 542.6352,202.8845 532.446,202.9865 522.2571,203.081 512.0683,203.1679 501.8797,203.2473 491.6913,203.3191 481.503,203.3834 471.3149,203.4401 461.1268,203.4892 450.9389,203.5307 440.751,203.5648 430.5632,203.5912 420.3754,203.6101 410.1877,203.6214 400.0,203.6252 389.8123,203.6214 379.6246,203.6101 369.4368,203.5912 359.249,203.5648 349.0611,203.5307 338.8732,203.4892 328.6851,203.4401 318.497,203.3834 308.3087,203.3191 298.1203,203.2473 287.9317,203.1679 277.7429,203.081 267.554,202.9865 257.3648,202.8845 247.1754,202.7749 236.9858,202.6577 226.796,202.5329 216.6058,202.4006 206.4154,202.2607 196.2247,202.1133 186.0336,201.9583 175.8423,201.7957 165.6506,201.6255 155.4585,201.4478 145.266,201.2625 135.0732,201.0696 124.8799,200.8691 114.6862,200.6611 104.492,200.4455 94.2974,200.2223 84.1024,199.9915 73.9068,199.7531" stroke="silver" stroke-opacity="0.5" stroke-width="1" /><polyline fill="none" points="723.9924,112.3672 713.8626,112.6098 703.7334,112.8447 693.6045,113.0718 683.4762,113.2913 673.3482,113.503 663.2207,113.707 653.0936,113.9033 642.9668,114.0919 632.8404,114.2728 622.7144,114.446 612.5887,114.6114 602.4634,114.7692 592.3383,114.9193 582.2135,115.0616 572.089,115.1963 561.9648,115.3232 551.8408,115.4425 541.7171,115.5541 531.5935,115.6579 521.4702,115.7541 511.347,115.8425 501.224,115.9233 491.1012,115.9964 480.9785,116.0618 470.8559,116.1195 460.7334,116.1695 450.6111,116.2118 440.4888,116.2464 430.3665,116.2733 420.2443,116.2925 410.1221,116.3041 400.0,116.3079 389.8779,116.3041 379.7557,116.2925 369.6335,116.2733 359.5112,116.2464 349.3889,116.2118 339.2666,116.1695 329.1441,116.1195 319.0215,116.0618 308.8988,115.9964 298.776,115.9233 288.653,115.8425 278.5298,115.7541 268.4065,115.6579 258.2829,115.5541 248.1592,115.4425 238.0352,115.3232 227.911,115.1963 217.7865,115.0616 207.6617,114.9193 197.5366,114.7692 187.4113,114.6114 177.2856,114.446 167.1596,114.2728 157.0332,114.0919 146.9064,113.9033 136.7793,113.707 126.6518,113.503 116.5238,113.2913 106.3955,113.0718 96.2666,112.8447 86.1374,112.6098 76.0076,112.3672" stroke="silver" stroke-opacity="0.5" stroke-width="1" /><circle cx="722.9016" cy="97.5256" fill="black" r="0.738" stroke="none" /><circle cx="724.2873" cy="412.5076" fill="black" r="0.738" stroke="none" /><circle cx="720.272" cy="581.4237" fill="black" r="0.738" stroke="none" /><circle cx="716.1549" cy="400.189" fill="black" r="0.738" stroke="none" /><circle cx="711.5374" cy="191.2627" fill="black" r="0.738" stroke="none" /><circle cx="710.5389" cy="172.4912" fill="black" r="0.738" stroke="none" /><circle cx="708.1976" cy="85.1947" fill="black" r="0.738" stroke="none" /><circle cx="712.0148" cy="256.016" fill="black" r="0.738" stroke="none" /><circle cx="712.9963" cy="311.5712" fill="black" r="0.738" stroke="none" /><circle cx="714.2288" cy="648.9386" fill="black" r="0.738" stroke="none" /><circle cx="708.9173" cy="406.2834" fill="black" r="0.738" stroke="none" /><circle cx="703.7626" cy="646.8658" fill="black" r="0.738" stroke="none" /><circle cx="699.5361" cy="645.6336" fill="black" r="0.936" stroke="none" /><circle cx="688.3512" cy="117.5581" fill="black" r="0.738" stroke="none" /><circle cx="686.4" cy="488.7647" fill="black" r="0.738" stroke="none" /><circle cx="681.9866" cy="294.7449" fill="black" r="0.738" stroke="none" /><circle cx="683.5433" cy="532.412" fill="black" r="0.738" stroke="none" /><circle cx="683.3788" cy="717.609" fill="black" r="0.738" stroke="none" /><circle cx="680.9588" cy="655.3196" fill="black" r="0.738" stroke="none" /><circle cx="676.5531" cy="619.2137" fill="black" r="0.738" stroke="none" /><circle cx="660.703" cy="389.8321" fill="black" r="1.17" stroke="none" /><circle cx="665.5018" cy="687.3953" fill="black" r="0.738" stroke="none" /><circle cx="663.7704" cy="648.18" fill="black" r="0.738" stroke="none" /><circle cx="645.9984" cy="356.0262" fill="black" r="0.738" stroke="none" /><circle cx="639.4906" cy="376.4828" fill="black" r="0.738" stroke="none" /><circle cx="633.8649" cy="279.8112" fill="black" r="0.738" stroke="none" /><circle cx="637.2351" cy="521.7496" fill="black" r="0.738" stroke="none" /><circle cx="631.7179" cy="288.9297" fill="black" r="0.738" stroke="none" /><circle cx="620.7525" cy="93.9402" fill="black" r="0.738" stroke="none" /><circle cx="618.693" cy="566.7395" fill="black" r="0.738" stroke="none" /><circle cx="614.629" cy="370.233" fill="black" r="0.738" stroke="none" /><circle cx="611.4492" cy="644.581" fill="black" r="0.738" stroke="none" /><circle cx="607.5888" cy="548.9872" fill="black" r="0.738" stroke="none" /><circle cx="601.6027" cy="443.8471" fill="black" r="0.738" stroke="none" /><circle cx="600.8313" cy="498.2541" fill="black" r="0.738" stroke="none" /><circle cx="588.573" cy="193.5963" fill="black" r="0.738" stroke="none" /><circle cx="585.598" cy="102.1702" fill="black" r="0.738" stroke="none" /><circle cx="590.3143" cy="605.1005" fill="black" r="0.738" stroke="none" /><circle cx="585.7042" cy="334.6602" fill="black" r="0.936" stroke="none" /><circle cx="581.4676" cy="143.7282" fill="black" r="0.738" stroke="none" /><circle cx="580.3393" cy="262.3474" fill="black" r="0.738" stroke="none" /><circle cx="581.9263" cy="709.1564" fill="black" r="0.738" stroke="none" /><circle cx="570.2702" cy="289.7145" fill="black" r="0.738" stroke="none" /><circle cx="572.2037" cy="722.9798" fill="black" r="1.17" stroke="none" /><circle cx="563.3727" cy="91.5405" fill="black" r="0.738" stroke="none" /><circle cx="557.6252" cy="152.7637" fill="black" r="0.738" stroke="none" /><circle cx="556.9571" cy="655.51" fill="black" r="0.738" stroke="none" /><circle cx="551.0583" cy="153.8869" fill="black" r="0.738" stroke="none" /><circle cx="550.6503" cy="575.2252" fill="black" r="0.738" stroke="none" /><circle cx="542.7703" cy="509.5574" fill="black" r="0.738" stroke="none" /><circle cx="538.2017" cy="538.6702" fill="black" r="1.17" stroke="none" /><circle cx="532.8513" cy="517.9397" fill="black" r="0.738" stroke="none" /><circle cx="521.5579" cy="262.98" fill="black" r="0.738" stroke="none" /><circle cx="522.0098" cy="657.121" fill="black" r="0.738" stroke="none" /><circle cx="516.434" cy="378.3305" fill="black" r="0.738" stroke="none" /><circle cx="509.649" cy="409.1926" fill="black" r="0.738" stroke="none" /><circle cx="508.9891" cy="466.1917" fill="black" r="0.738" stroke="none" /><circle cx="500.5057" cy="138.8999" fill="black" r="0.738" stroke="none" /><circle cx="499.4757" cy="312.7338" fill="black" r="0.738" stroke="none" /><circle cx="493.6311" cy="273.6692" fill="black" r="0.738" stroke="none" /><circle cx="489.432" cy="647.0286" fill="black" r="0.936" stroke="none" /><circle cx="485.8937" cy="567.4191" fill="black" r="0.738" stroke="none" /><circle cx="476.8108" cy="209.6964" fill="black" r="0.738" stroke="none" /><circle cx="455.7259" cy="662.2875" fill="black" r="0.738" stroke="none" /><circle cx="454.1526" cy="296.9186" fill="black" r="0.738" stroke="none" /><circle cx="454.2734" cy="705.9625" fill="black" r="0.738" stroke="none" /><circle cx="446.1799" cy="218.3886" fill="black" r="0.738" stroke="none" /><circle cx="446.1031" cy="397.4843" fill="black" r="0.738" stroke="none" /><circle cx="443.3124" cy="293.8138" fill="black" r="0.738" stroke="none" /><circle cx="441.0852" cy="623.2993" fill="black" r="0.738" stroke="none" /><circle cx="438.7968" cy="175.5449" fill="black" r="0.738" stroke="none" /><circle cx="418.3498" cy="152.1" fill="black" r="1.476" stroke="none" /><circle cx="416.1673" cy="527.4075" fill="black" r="0.738" stroke="none" /><circle cx="398.0815" cy="541.8174" fill="black" r="0.738" stroke="none" /><circle cx="396.7014" cy="369.8926" fill="black" r="0.738" stroke="none" /><circle cx="393.4405" cy="287.5073" fill="black" r="0.738" stroke="none" /><circle cx="392.6779" cy="179.3526" fill="black" r="0.936" stroke="none" /><circle cx="392.5327" cy="147.4824" fill="black" r="0.738" stroke="none" /><circle cx="388.0431" cy="692.0722" fill="black" r="1.476" stroke="none" /><circle cx="382.6788" cy="443.2744" fill="black" r="0.738" stroke="none" /><circle cx="381.385" cy="484.3773" fill="black" r="0.738" stroke="none" /><circle cx="379.4329" cy="642.5479" fill="black" r="0.738" stroke="none" /><circle cx="378.8225" cy="92.1843" fill="black" r="0.738" stroke="none" /><circle cx="373.1157" cy="706.3792" fill="black" r="0.738" stroke="none" /><circle cx="368.4694" cy="307.7218" fill="black" r="0.936" stroke="none" /><circle cx="364.4089" cy="718.5922" fill="black" r="0.738" stroke="none" /><circle cx="362.6843" cy="519.4282" fill="black" r="0.738" stroke="none" /><circle cx="352.2247" cy="481.4335" fill="black" r="0.738" stroke="none" /><circle cx="336.8329" cy="567.7018" fill="black" r="0.738" stroke="none" /><circle cx="336.4965" cy="568.2242" fill="black" r="0.738" stroke="none" /><circle cx="328.6405" cy="408.9907" fill="black" r="1.17" stroke="none" /><circle cx="324.1931" cy="642.6447" fill="black" r="0.738" stroke="none" /><circle cx="322.1242" cy="254.2124" fill="black" r="1.17" stroke="none" /><circle cx="320.407" cy="141.8348" fill="black" r="1.17" stroke="none" /><circle cx="313.9822" cy="652.4615" fill="black" r="0.738" stroke="none" /><circle cx="314.2198" cy="132.3645" fill="black" r="0.738" stroke="none" /><circle cx="300.8169" cy="717.9844" fill="black" r="0.738" stroke="none" /><circle cx="302.9934" cy="159.9726" fill="black" r="0.738" stroke="none" /><circle cx="300.6758" cy="302.7844" fill="black" r="0.936" stroke="none" /><circle cx="296.664" cy="245.4922" fill="black" r="0.738" stroke="none" /><circle cx="292.7863" cy="381.4558" fill="black" r="0.738" stroke="none" /><circle cx="283.9011" cy="473.1215" fill="black" r="0.738" stroke="none" /><circle cx="280.1292" cy="674.7803" fill="black" r="1.476" stroke="none" /><circle cx="274.2698" cy="103.7465" fill="black" r="0.738" stroke="none" /><circle cx="261.2722" cy="513.6975" fill="black" r="0.738" stroke="none" /><circle cx="259.6168" cy="702.397" fill="black" r="0.738" stroke="none" /><circle cx="261.2263" cy="240.557" fill="black" r="0.738" stroke="none" /><circle cx="256.5494" cy="601.925" fill="black" r="0.738" stroke="none" /><circle cx="258.738" cy="133.8161" fill="black" r="0.738" stroke="none" /><circle cx="252.2436" cy="517.1927" fill="black" r="0.738" stroke="none" /><circle cx="252.4032" cy="105.2686" fill="black" r="0.738" stroke="none" /><circle cx="251.8349" cy="83.7686" fill="black" r="0.738" stroke="none" /><circle cx="238.6237" cy="635.2023" fill="black" r="1.17" stroke="none" /><circle cx="226.6561" cy="459.7405" fill="black" r="0.738" stroke="none" /><circle cx="222.8181" cy="533.1221" fill="black" r="0.738" stroke="none" /><circle cx="221.1585" cy="318.9448" fill="black" r="0.738" stroke="none" /><circle cx="223.2598" cy="129.988" fill="black" r="0.738" stroke="none" /><circle cx="215.6369" cy="612.1579" fill="black" r="0.738" stroke="none" /><circle cx="216.3896" cy="450.801" fill="black" r="0.738" stroke="none" /><circle cx="217.3575" cy="314.0075" fill="black" r="0.738" stroke="none" /><circle cx="212.1229" cy="420.7152" fill="black" r="0.738" stroke="none" /><circle cx="193.9096" cy="511.8061" fill="black" r="0.738" stroke="none" /><circle cx="194.5619" cy="182.5219" fill="black" r="0.738" stroke="none" /><circle cx="182.066" cy="409.477" fill="black" r="0.738" stroke="none" /><circle cx="175.419" cy="707.6706" fill="black" r="0.738" stroke="none" /><circle cx="179.18" cy="212.3321" fill="black" r="0.738" stroke="none" /><circle cx="164.7827" cy="720.1971" fill="black" r="0.738" stroke="none" /><circle cx="170.5752" cy="284.1636" fill="black" r="0.738" stroke="none" /><circle cx="159.6844" cy="670.5669" fill="black" r="0.738" stroke="none" /><circle cx="168.405" cy="89.3843" fill="black" r="0.936" stroke="none" /><circle cx="154.3734" cy="632.3881" fill="black" r="0.738" stroke="none" /><circle cx="155.6136" cy="407.7535" fill="black" r="0.738" stroke="none" /><circle cx="157.2174" cy="292.8493" fill="black" r="0.738" stroke="none" /><circle cx="158.1289" cy="129.6689" fill="black" r="0.738" stroke="none" /><circle cx="146.3681" cy="555.7301" fill="black" r="0.738" stroke="none" /><circle cx="146.8462" cy="350.2261" fill="black" r="0.738" stroke="none" /><circle cx="143.119" cy="180.9509" fill="black" r="0.738" stroke="none" /><circle cx="134.7879" cy="548.7235" fill="black" r="0.738" stroke="none" /><circle cx="136.4438" cy="424.7176" fill="black" r="0.738" stroke="none" /><circle cx="136.5563" cy="349.4311" fill="black" r="0.738" stroke="none" /><circle cx="137.2107" cy="278.1668" fill="black" r="0.738" stroke="none" /><circle cx="125.756" cy="606.9323" fill="black" r="0.738" stroke="none" /><circle cx="122.9669" cy="276.6712" fill="black" r="0.936" stroke="none" /><circle cx="105.4277" cy="131.2361" fill="black" r="0.738" stroke="none" /><circle cx="99.4567" cy="214.3199" fill="black" r="0.738" stroke="none" /><circle cx="91.5063" cy="540.4982" fill="black" r="0.738" stroke="none" /><circle cx="88.1266" cy="715.2615" fill="black" r="0.738" stroke="none" /><circle cx="87.6305" cy="275.6706" fill="black" r="0.936" stroke="none" /><circle cx="90.8704" cy="104.3255" fill="black" r="1.17" stroke="none" /><circle cx="83.857" cy="268.3331" fill="black" r="0.738" stroke="none" /><circle cx="71.1753" cy="655.3809" fill="black" r="0.738" stroke="none" /><circle cx="72.0625" cy="481.1106" fill="black" r="0.738" stroke="none" /><circle cx="66.0114" cy="572.6602" fill="black" r="0.738" stroke="none" /><circle cx="13.77" cy="786.23" fill="black" r="4.59" stroke="none" /><circle cx="13.77" cy="786.23" fill="black" r="4.59" stroke="none" /><text fill="black" font-family="monospace" font-size="12" x="10.77" y="775.64">1</text><circle cx="37.77" cy="786.23" fill="black" r="3.654" stroke="none" /><circle cx="37.77" cy="786.23" fill="black" r="3.654" stroke="none" /><text fill="black" font-family="monospace" font-size="12" x="34.769999999999996" y="775.64">2</text><circle cx="61.77" cy="786.23" fill="black" r="2.916" stroke="none" /><circle cx="61.77" cy="786.23" fill="black" r="2.916" stroke="none" /><text fill="black" font-family="monospace" font-size="12" x="58.769999999999996" y="775.64">3</text><circle cx="85.77" cy="786.23" fill="black" r="2.322" stroke="none" /><circle cx="85.77" cy="786.23" fill="black" r="2.322" stroke="none" /><text fill="black" font-family="monospace" font-size="12" x="82.77" y="775.64">4</text><circle cx="109.77" cy="786.23" fill="black" r="1.854" stroke="none" /><circle cx="109.77" cy="786.23" fill="black" r="1.854" stroke="none" /><text fill="black" font-family="monospace" font-size="12" x="106.77" y="775.64">5</text><circle cx="133.77" cy="786.23" fill="black" r="1.476" stroke="none" /><circle cx="133.77" cy="786.23" fill="black" r="1.476" stroke="none" /><text fill="black" font-family="monospace" font-size="12" x="130.77" y="775.64">6</text><circle cx="157.77" cy="786.23" fill="black" r="1.17" stroke="none" /><circle cx="157.77" cy="786.23" fill="black" r="1.17" stroke="none" /><text fill="black" font-family="monospace" font-size="12" x="154.77" y="775.64">7</text><circle cx="181.77" cy="786.23" fill="black" r="0.936" stroke="none" /><circle cx="181.77" cy="786.23" fill="black" r="0.936" stroke="none" /><text fill="black" font-family="monospace" font-size="12" x="178.77" y="775.64">8</text><circle cx="205.77" cy="786.23" fill="black" r="0.738" stroke="none" /><circle cx="205.77" cy="786.23" fill="black" r="0.738" stroke="none" /><text fill="black" font-family="monospace" font-size="12" x="202.77" y="775.64">9</text><text fill="gray" fill-opacity="0.5" font-family="monospace" font-size="12" x="695.4100424334827" y="724.7447092212744">04h50m</text><text fill="gray" fill-opacity="0.5" font-family="monospace" font-size="12" x="589.8805736541268" y="726.283117879879">04h55m</text><text fill="gray" fill-opacity="0.5" font-family="monospace" font-size="12" x="484.3848655155238" y="727.1522194586139">05h00m</text><text fill="gray" fill-opacity="0.5" font-family="monospace" font-size="12" x="378.90415862085166" y="727.3527368935295">05h05m</text><text fill="gray" fill-opacity="0.5" font-family="monospace" font-size="12" x="273.4197016162618" y="726.8848369417349">05h10m</text><text fill="gray" fill-opacity="0.5" font-family="monospace" font-size="12" x="167.91274113722224" y="725.7481304599826">05h15m</text><text fill="gray" fill-opacity="0.5" font-family="monospace" font-size="12" x="62.364511754261" y="723.9416717545168">05h20m</text><text fill="gray" fill-opacity="0.5" font-family="monospace" font-size="12" x="62.364511754261" y="723.9416717545168">+15°</text><text fill="gray" fill-opacity="0.5" font-family="monospace" font-size="12" x="64.16316315295421" y="636.525672511731">+16°</text><text fill="gray" fill-opacity="0.5" font-family="monospace" font-size="12" x="66.01150449154107" y="549.147866663511">+17°</text><text fill="gray" fill-opacity="0.5" font-family="monospace" font-size="12" x="67.90976392210979" y="461.7949714987251">+18°</text><text fill="gray" fill-opacity="0.5" font-family="monospace" font-size="12" x="69.85819999837986" y="374.4537194186854">+19°</text><text fill="gray" fill-opacity="0.5" font-family="monospace" font-size="12" x="71.85710180537671" y="287.11084988715885">+20°</text><text fill="gray" fill-opacity="0.5" font-family="monospace" font-size="12" x="73.90678912857283" y="199.75310138946912">+21°</text><text fill="gray" fill-opacity="0.5" font-family="monospace" font-size="12" x="76.00761266269745" y="112.3672033903477">+22°</text><text fill="black" font-family="monospace" font-size="12" x="12" y="48">&gt;&gt; No.513 04h48m 05h20m +15.0°+22.5°</text><a target="_self" xlink:href="hip024.svg"><text fill="black" font-family="monospace" font-size="12" x="12" y="36">&gt; No.24 02h40m 05h20m +0.0°+22.5°</text></a><a target="_self" xlink:href="hip002.svg"><text fill="black" font-family="monospace" font-size="12" x="12" y="24">No.2 00h 24h +0.0°+90.0°</text></a><polyline fill="none" points="722.9227,68.6595 712.8264,68.9042 702.7307,69.1411 692.6354,69.3702 682.5405,69.5915 672.446,69.805 662.352,70.0108 652.2583,70.2088 642.165,70.399 632.0721,70.5814 621.9795,70.756 611.8873,70.9229 601.7953,71.082 591.7037,71.2334 581.6124,71.377 571.5213,71.5128 561.4305,71.6408 551.3399,71.7611 541.2496,71.8736 531.1594,71.9783 521.0695,72.0753 510.9797,72.1645 500.8901,72.246 490.8007,72.3197 480.7114,72.3857 470.6222,72.4438 460.5331,72.4943 450.4441,72.5369 440.3552,72.5718 430.2664,72.599 420.1775,72.6184 410.0888,72.63 400.0,72.6339 389.9112,72.63 379.8225,72.6184 369.7336,72.599 359.6448,72.5718 349.5559,72.5369 339.4669,72.4943 329.3778,72.4438 319.2886,72.3857 309.1993,72.3197 299.1099,72.246 289.0203,72.1645 278.9305,72.0753 268.8406,71.9783 258.7504,71.8736 248.6601,71.7611 238.5695,71.6408 228.4787,71.5128 218.3876,71.377 208.2963,71.2334 198.2047,71.082 188.1127,70.9229 178.0205,70.756 167.9279,70.5814 157.835,70.399 147.7417,70.2088 137.648,70.0108 127.554,69.805 117.4595,69.5915 107.3646,69.3702 97.2693,69.1411 87.1736,68.9042 77.0773,68.6595" stroke="black" stroke-opacity="0.5" stroke-width="1" /><polyline fill="none" points="737.6355,723.9417 737.4134,713.0121 737.1905,702.0834 736.9668,691.1554 736.7424,680.2281 736.5171,669.3015 736.2911,658.3756 736.0644,647.4503 735.8368,636.5257 735.6085,625.6016 735.3794,614.6782 735.1495,603.7552 734.9189,592.8328 734.6875,581.9109 734.4553,570.9895 734.2223,560.0685 733.9885,549.1479 733.7539,538.2277 733.5186,527.3078 733.2825,516.3883 733.0456,505.4691 732.8079,494.5502 732.5695,483.6316 732.3303,472.7132 732.0902,461.795 731.8494,450.877 731.6078,439.9591 731.3655,429.0413 731.1223,418.1237 730.8784,407.2062 730.6336,396.2887 730.3881,385.3712 730.1418,374.4537 729.8947,363.5362 729.6468,352.6187 729.3981,341.701 729.1487,330.7833 728.8984,319.8655 728.6474,308.9474 728.3955,298.0293 728.1429,287.1108 727.8895,276.1922 727.6353,265.2733 727.3802,254.3542 727.1244,243.4347 726.8678,232.5148 726.6104,221.5947 726.3522,210.6741 726.0932,199.7531 725.8334,188.8317 725.5728,177.9098 725.3114,166.9874 725.0492,156.0645 724.7862,145.1411 724.5224,134.217 724.2578,123.2924 723.9924,112.3672 723.7262,101.4413 723.4591,90.5148 723.1913,79.5875 722.9227,68.6595" stroke="black" stroke-opacity="0.5" stroke-width="1" /><polyline fill="none" points="737.6355,723.9417 727.0783,724.1525 716.5216,724.3566 705.9656,724.554 695.41,724.7447 684.855,724.9287 674.3005,725.106 663.7465,725.2766 653.193,725.4405 642.6399,725.5976 632.0873,725.7481 621.535,725.8919 610.9832,726.029 600.4317,726.1594 589.8806,726.2831 579.3298,726.4001 568.7793,726.5105 558.2292,726.6141 547.6793,726.711 537.1297,726.8013 526.5803,726.8848 516.0311,726.9617 505.4822,727.0319 494.9335,727.0954 484.3849,727.1522 473.8364,727.2024 463.2881,727.2458 452.7399,727.2826 442.1918,727.3126 431.6438,727.336 421.0958,727.3527 410.5479,727.3628 400.0,727.3661 389.4521,727.3628 378.9042,727.3527 368.3562,727.336 357.8082,727.3126 347.2601,727.2826 336.7119,727.2458 326.1636,727.2024 315.6151,727.1522 305.0665,727.0954 294.5178,727.0319 283.9689,726.9617 273.4197,726.8848 262.8703,726.8013 252.3207,726.711 241.7708,726.6141 231.2207,726.5105 220.6702,726.4001 210.1194,726.2831 199.5683,726.1594 189.0168,726.029 178.465,725.8919 167.9127,725.7481 157.3601,725.5976 146.807,725.4405 136.2535,725.2766 125.6995,725.106 115.145,724.9287 104.59,724.7447 94.0344,724.554 83.4784,724.3566 72.9217,724.1525 62.3645,723.9417" stroke="black" stroke-opacity="0.5" stroke-width="1" /><polyline fill="none" points="62.3645,723.9417 62.5866,713.0121 62.8095,702.0834 63.0332,691.1554 63.2576,680.2281 63.4829,669.3015 63.7089,658.3756 63.9356,647.4503 64.1632,636.5257 64.3915,625.6016 64.6206,614.6782 64.8505,603.7552 65.0811,592.8328 65.3125,581.9109 65.5447,570.9895 65.7777,560.0685 66.0115,549.1479 66.2461,538.2277 66.4814,527.3078 66.7175,516.3883 66.9544,505.4691 67.1921,494.5502 67.4305,483.6316 67.6697,472.7132 67.9098,461.795 68.1506,450.877 68.3922,439.9591 68.6345,429.0413 68.8777,418.1237 69.1216,407.2062 69.3664,396.2887 69.6119,385.3712 69.8582,374.4537 70.1053,363.5362 70.3532,352.6187 70.6019,341.701 70.8513,330.7833 71.1016,319.8655 71.3526,308.9474 71.6045,298.0293 71.8571,287.1108 72.1105,276.1922 72.3647,265.2733 72.6198,254.3542 72.8756,243.4347 73.1322,232.5148 73.3896,221.5947 73.6478,210.6741 73.9068,199.7531 74.1666,188.8317 74.4272,177.9098 74.6886,166.9874 74.9508,156.0645 75.2138,145.1411 75.4776,134.217 75.7422,123.2924 76.0076,112.3672 76.2738,101.4413 76.5409,90.5148 76.8087,79.5875 77.0773,68.6595" stroke="black" stroke-opacity="0.5" stroke-width="1" /></svg>