<?xml version="1.0" encoding="utf-8" ?>
<svg baseProfile="tiny" height="800" version="1.2" width="800" xmlns="http://www.w3.org/2000/svg" xmlns:ev="http://www.w3.org/2001/xml-events" xmlns:xlink="http://www.w3.org/1999/xlink"><defs /><rect fill="none" height="800" stroke="black" stroke-width="2" width="800" x="0" y="0" /><polyline fill="none" points="716.5216,724.3566 716.3134,713.4283 716.1045,702.5007 715.8949,691.5739 715.6845,680.6478 715.4734,669.7224 715.2615,658.7977 715.049,647.8736 714.8357,636.9501 714.6217,626.0273 714.4069,615.105 714.1915,604.1832 713.9753,593.262 713.7583,582.3413 713.5407,571.421 713.3223,560.5011 713.1032,549.5817 712.8833,538.6626 712.6627,527.744 712.4414,516.8256 712.2194,505.9076 711.9966,494.9898 711.7731,484.0723 711.5488,473.155 711.3238,462.2379 711.0981,451.321 710.8717,440.4043 710.6445,429.4877 710.4166,418.5712 710.1879,407.6547 709.9585,396.7384 709.7284,385.822 709.4975,374.9056 709.2659,363.9892 709.0335,353.0728 708.8004,342.1563 708.5666,331.2396 708.332,320.3228 708.0967,309.4059 707.8606,298.4888 707.6238,287.5715 707.3863,276.6539 707.148,265.7361 706.909,254.818 706.6692,243.8996 706.4286,232.9808 706.1874,222.0617 705.9453,211.1422 705.7026,200.2223 705.459,189.3019 705.2148,178.381 704.9697,167.4597 704.724,156.5378 704.4775,145.6154 704.2302,134.6925 703.9821,123.7689 703.7334,112.8447 703.4838,101.9198 703.2335,90.9943 702.9825,80.0681 702.7307,69.1411" stroke="silver" stroke-opacity="0.5" stroke-width="1" /><polyline fill="none" points="610.9832,726.029 610.8445,715.1055 610.7053,704.1828 610.5656,693.2608 610.4254,682.3395 610.2848,671.4189 610.1437,660.499 610.0021,649.5797 609.86,638.661 609.7174,627.7429 609.5743,616.8253 609.4308,605.9083 609.2868,594.9918 609.1422,584.0757 608.9972,573.1602 608.8517,562.245 608.7057,551.3302 608.5593,540.4158 608.4123,529.5018 608.2649,518.588 608.117,507.6746 607.9685,496.7615 607.8196,485.8485 607.6702,474.9358 607.5203,464.0233 607.37,453.111 607.2191,442.1988 607.0677,431.2867 606.9159,420.3747 606.7636,409.4628 606.6107,398.5509 606.4574,387.639 606.3036,376.7271 606.1493,365.8151 605.9945,354.9031 605.8392,343.991 605.6834,333.0788 605.5271,322.1664 605.3703,311.2539 605.2131,300.3411 605.0553,289.4282 604.8971,278.5149 604.7383,267.6015 604.579,256.6877 604.4193,245.7735 604.259,234.8591 604.0983,223.9442 603.9371,213.029 603.7753,202.1133 603.6131,191.1972 603.4503,180.2805 603.2871,169.3634 603.1233,158.4457 602.9591,147.5275 602.7944,136.6087 602.6291,125.6893 602.4634,114.7692 602.2971,103.8485 602.1304,92.9271 601.9631,82.0049 601.7953,71.082" stroke="silver" stroke-opacity="0.5" stroke-width="1" /><polyline fill="none" points="505.4822,727.0319 505.4129,716.1113 505.3433,705.1915 505.2735,694.2724 505.2035,683.354 505.1332,672.4363 505.0626,661.5192 504.9919,650.6028 504.9208,639.687 504.8496,628.7717 504.7781,617.857 504.7063,606.9428 504.6343,596.0291 504.5621,585.1159 504.4896,574.2031 504.4169,563.2907 504.344,552.3788 504.2708,541.4672 504.1973,530.5559 504.1236,519.6449 504.0497,508.7343 503.9755,497.8239 503.9011,486.9137 503.8264,476.0038 503.7515,465.094 503.6763,454.1844 503.6009,443.2749 503.5253,432.3655 503.4494,421.4562 503.3733,410.547 503.2969,399.6378 503.2203,388.7286 503.1434,377.8194 503.0663,366.9101 502.9889,356.0007 502.9113,345.0913 502.8334,334.1817 502.7553,323.2719 502.6769,312.362 502.5983,301.4519 502.5195,290.5416 502.4404,279.6309 502.361,268.7201 502.2814,257.8089 502.2016,246.8973 502.1215,235.9854 502.0412,225.0731 501.9606,214.1604 501.8797,203.2473 501.7986,192.3337 501.7173,181.4196 501.6357,170.505 501.5539,159.5899 501.4718,148.6742 501.3895,137.7578 501.3069,126.8409 501.224,115.9233 501.1409,105.0051 501.0576,94.0861 500.974,83.1664 500.8901,72.246" stroke="silver" stroke-opacity="0.5" stroke-width="1" /><polyline fill="none" points="400.0,727.3661 400.0,716.4465 400.0,705.5276 400.0,694.6095 400.0,683.6921 400.0,672.7753 400.0,661.8592 400.0,650.9437 400.0,640.0289 400.0,629.1145 400.0,618.2008 400.0,607.2875 400.0,596.3748 400.0,585.4625 400.0,574.5506 400.0,563.6392 400.0,552.7282 400.0,541.8175 400.0,530.9072 400.0,519.9971 400.0,509.0874 400.0,498.1779 400.0,487.2687 400.0,476.3596 400.0,465.4508 400.0,454.5421 400.0,443.6335 400.0,432.725 400.0,421.8167 400.0,410.9083 400.0,400.0 400.0,389.0917 400.0,378.1833 400.0,367.275 400.0,356.3665 400.0,345.4579 400.0,334.5492 400.0,323.6404 400.0,312.7313 400.0,301.8221 400.0,290.9126 400.0,280.0029 400.0,269.0928 400.0,258.1825 400.0,247.2718 400.0,236.3608 400.0,225.4494 400.0,214.5375 400.0,203.6252 400.0,192.7125 400.0,181.7992 400.0,170.8855 400.0,159.9711 400.0,149.0563 400.0,138.1408 400.0,127.2247 400.0,116.3079 400.0,105.3905 400.0,94.4724 400.0,83.5535 400.0,72.6339" stroke="silver" stroke-opacity="0.5" stroke-width="1" /><polyline fill="none" points="294.5178,727.0319 294.5871,716.1113 294.6567,705.1915 294.7265,694.2724 294.7965,683.354 294.8668,672.4363 294.9374,661.5192 295.0081,650.6028 295.0792,639.687 295.1504,628.7717 295.2219,617.857 295.2937,606.9428 295.3657,596.0291 295.4379,585.1159 295.5104,574.2031 295.5831,563.2907 295.656,552.3788 295.7292,541.4672 295.8027,530.5559 295.8764,519.6449 295.9503,508.7343 296.0245,497.8239 296.0989,486.9137 296.1736,476.0038 296.2485,465.094 296.3237,454.1844 296.3991,443.2749 296.4747,432.3655 296.5506,421.4562 296.6267,410.547 296.7031,399.6378 296.7797,388.7286 296.8566,377.8194 296.9337,366.9101 297.0111,356.0007 297.0887,345.0913 297.1666,334.1817 297.2447,323.2719 297.3231,312.362 297.4017,301.4519 297.4805,290.5416 297.5596,279.6309 297.639,268.7201 297.7186,257.8089 297.7984,246.8973 297.8785,235.9854 297.9588,225.0731 298.0394,214.1604 298.1203,203.2473 298.2014,192.3337 298.2827,181.4196 298.3643,170.505 298.4461,159.5899 298.5282,148.6742 298.6105,137.7578 298.6931,126.8409 298.776,115.9233 298.8591,105.0051 298.9424,94.0861 299.026,83.1664 299.1099,72.246" stroke="silver" stroke-opacity="0.5" stroke-width="1" /><polyline fill="none" points="189.0168,726.029 189.1555,715.1055 189.2947,704.1828 189.4344,693.2608 189.5746,682.3395 189.7152,671.4189 189.8563,660.499 189.9979,649.5797 190.14,638.661 190.2826,627.7429 190.4257,616.8253 190.5692,605.9083 190.7132,594.9918 190.8578,584.0757 191.0028,573.1602 191.1483,562.245 191.2943,551.3302 191.4407,540.4158 191.5877,529.5018 191.7351,518.588 191.883,507.6746 192.0315,496.7615 192.1804,485.8485 192.3298,474.9358 192.4797,464.0233 192.63,453.111 192.7809,442.1988 192.9323,431.2867 193.0841,420.3747 193.2364,409.4628 193.3893,398.5509 193.5426,387.639 193.6964,376.7271 193.8507,365.8151 194.0055,354.9031 194.1608,343.991 194.3166,333.0788 194.4729,322.1664 194.6297,311.2539 194.7869,300.3411 194.9447,289.4282 195.1029,278.5149 195.2617,267.6015 195.421,256.6877 195.5807,245.7735 195.741,234.8591 195.9017,223.9442 196.0629,213.029 196.2247,202.1133 196.3869,191.1972 196.5497,180.2805 196.7129,169.3634 196.8767,158.4457 197.0409,147.5275 197.2056,136.6087 197.3709,125.6893 197.5366,114.7692 197.7029,103.8485 197.8696,92.9271 198.0369,82.0049 198.2047,71.082" stroke="silver" stroke-opacity="0.5" stroke-width="1" /><polyline fill="none" points="83.4784,724.3566 83.6866,713.4283 83.8955,702.5007 84.1051,691.5739 84.3155,680.6478 84.5266,669.7224 84.7385,658.7977 84.951,647.8736 85.1643,636.9501 85.3783,626.0273 85.5931,615.105 85.8085,604.1832 86.0247,593.262 86.2417,582.3413 86.4593,571.421 86.6777,560.5011 86.8968,549.5817 87.1167,538.6626 87.3373,527.744 87.5586,516.8256 87.7806,505.9076 88.0034,494.9898 88.2269,484.0723 88.4512,473.155 88.6762,462.2379 88.9019,451.321 89.1283,440.4043 89.3555,429.4877 89.5834,418.5712 89.8121,407.6547 90.0415,396.7384 90.2716,385.822 90.5025,374.9056 90.7341,363.9892 90.9665,353.0728 91.1996,342.1563 91.4334,331.2396 91.668,320.3228 91.9033,309.4059 92.1394,298.4888 92.3762,287.5715 92.6137,276.6539 92.852,265.7361 93.091,254.818 93.3308,243.8996 93.5714,232.9808 93.8126,222.0617 94.0547,211.1422 94.2974,200.2223 94.541,189.3019 94.7852,178.381 95.0303,167.4597 95.276,156.5378 95.5225,145.6154 95.7698,134.6925 96.0179,123.7689 96.2666,112.8447 96.5162,101.9198 96.7665,90.9943 97.0175,80.0681 97.2693,69.1411" stroke="silver" stroke-opacity="0.5" stroke-width="1" /><polyline fill="none" points="737.6355,723.9417 727.0783,724.1525 716.5216,724.3566 705.9656,724.554 695.41,724.7447 684.855,724.9287 674.3005,725.106 663.7465,725.2766 653.193,725.4405 642.6399,725.5976 632.0873,725.7481 621.535,725.8919 610.9832,726.029 600.4317,726.1594 589.8806,726.2831 579.3298,726.4001 568.7793,726.5105 558.2292,726.6141 547.6793,726.711 537.1297,726.8013 526.5803,726.8848 516.0311,726.9617 505.4822,727.0319 494.9335,727.0954 484.3849,727.1522 473.8364,727.2024 463.2881,727.2458 452.7399,727.2826 442.1918,727.3126 431.6438,727.336 421.0958,727.3527 410.5479,727.3628 400.0,727.3661 389.4521,727.3628 378.9042,727.3527 368.3562,727.336 357.8082,727.3126 347.2601,727.2826 336.7119,727.2458 326.1636,727.2024 315.6151,727.1522 305.0665,727.0954 294.5178,727.0319 283.9689,726.9617 273.4197,726.8848 262.8703,726.8013 252.3207,726.711 241.7708,726.6141 231.2207,726.5105 220.6702,726.4001 210.1194,726.2831 199.5683,726.1594 189.0168,726.029 178.465,725.8919 167.9127,725.7481 157.3601,725.5976 146.807,725.4405 136.2535,725.2766 125.6995,725.106 115.145,724.9287 104.59,724.7447 94.0344,724.554 83.4784,724.3566 72.9217,724.1525 62.3645,723.9417" stroke="silver" stroke-opacity="0.5" stroke-width="1" /><polyline fill="none" points="735.8368,636.5257 725.336,636.7413 714.8357,636.9501 704.336,637.1521 693.8367,637.3472 683.338,637.5354 672.8398,637.7168 662.3421,637.8913 651.8448,638.0589 641.348,638.2197 630.8516,638.3737 620.3556,638.5208 609.86,638.661 599.3647,638.7944 588.8698,638.921 578.3752,639.0407 567.881,639.1535 557.387,639.2595 546.8933,639.3587 536.3998,639.451 525.9066,639.5365 515.4136,639.6152 504.9208,639.687 494.4282,639.7519 483.9358,639.81 473.4435,639.8613 462.9513,639.9058 452.4593,639.9434 441.9673,639.9742 431.4754,639.9981 420.9836,640.0152 410.4918,640.0254 400.0,640.0289 389.5082,640.0254 379.0164,640.0152 368.5246,639.9981 358.0327,639.9742 347.5407,639.9434 337.0487,639.9058 326.5565,639.8613 316.0642,639.81 305.5718,639.7519 295.0792,639.687 284.5864,639.6152 274.0934,639.5365 263.6002,639.451 253.1067,639.3587 242.613,639.2595 232.119,639.1535 221.6248,639.0407 211.1302,638.921 200.6353,638.7944 190.14,638.661 179.6444,638.5208 169.1484,638.3737 158.652,638.2197 148.1552,638.0589 137.6579,637.8913 127.1602,637.7168 116.662,637.5354 106.1633,637.3472 95.664,637.1521 85.1643,636.9501 74.664,636.7413 64.1632,636.5257" stroke="silver" stroke-opacity="0.5" stroke-width="1" /><polyline fill="none" points="733.9885,549.1479 723.5456,549.3683 713.1032,549.5817 702.6613,549.7881 692.22,549.9875 681.7791,550.1798 671.3388,550.3652 660.8989,550.5435 650.4594,550.7149 640.0204,550.8792 629.5818,551.0365 619.1436,551.1869 608.7057,551.3302 598.2683,551.4666 587.8311,551.5959 577.3943,551.7182 566.9578,551.8336 556.5215,551.9419 546.0855,552.0433 535.6498,552.1376 525.2143,552.225 514.7791,552.3054 504.344,552.3788 493.9091,552.4452 483.4743,552.5046 473.0397,552.557 462.6052,552.6024 452.1709,552.6408 441.7366,552.6723 431.3024,552.6967 420.8682,552.7142 410.4341,552.7247 400.0,552.7282 389.5659,552.7247 379.1318,552.7142 368.6976,552.6967 358.2634,552.6723 347.8291,552.6408 337.3948,552.6024 326.9603,552.557 316.5257,552.5046 306.0909,552.4452 295.656,552.3788 285.2209,552.3054 274.7857,552.225 264.3502,552.1376 253.9145,552.0433 243.4785,551.9419 233.0422,551.8336 222.6057,551.7182 212.1689,551.5959 201.7317,551.4666 191.2943,551.3302 180.8564,551.1869 170.4182,551.0365 159.9796,550.8792 149.5406,550.7149 139.1011,550.5435 128.6612,550.3652 118.2209,550.1798 107.78,549.9875 97.3387,549.7881 86.8968,549.5817 76.4544,549.3683 66.0115,549.1479" stroke="silver" stroke-opacity="0.5" stroke-width="1" /><polyline fill="none" points="732.0902,461.795 721.7068,462.02 711.3238,462.2379 700.9414,462.4487 690.5595,462.6523 680.1781,462.8487 669.7972,463.0379 659.4167,463.2201 649.0366,463.395 638.657,463.5628 628.2777,463.7235 617.8988,463.877 607.5203,464.0233 597.1422,464.1625 586.7644,464.2946 576.3868,464.4195 566.0096,464.5373 555.6327,464.6479 545.256,464.7514 534.8795,464.8478 524.5033,464.937 514.1273,465.0191 503.7515,465.094 493.3759,465.1618 483.0004,465.2224 472.625,465.276 462.2498,465.3223 451.8747,465.3616 441.4996,465.3937 431.1247,465.4187 420.7497,465.4365 410.3749,465.4472 400.0,465.4508 389.6251,465.4472 379.2503,465.4365 368.8753,465.4187 358.5004,465.3937 348.1253,465.3616 337.7502,465.3223 327.375,465.276 316.9996,465.2224 306.6241,465.1618 296.2485,465.094 285.8727,465.0191 275.4967,464.937 265.1205,464.8478 254.744,464.7514 244.3673,464.6479 233.9904,464.5373 223.6132,464.4195 213.2356,464.2946 202.8578,464.1625 192.4797,464.0233 182.1012,463.877 171.7223,463.7235 161.343,463.5628 150.9634,463.395 140.5833,463.2201 130.2028,463.0379 119.8219,462.8487 109.4405,462.6523 99.0586,462.4487 88.6762,462.2379 78.2932,462.02 67.9098,461.795" stroke="silver" stroke-opacity="0.5" stroke-width="1" /><polyline fill="none" points="730.1418,374.4537 719.8194,374.6833 709.4975,374.9056 699.1761,375.1206 688.8552,375.3283 678.5348,375.5287 668.2148,375.7218 657.8953,375.9076 647.5762,376.0861 637.2575,376.2573 626.9391,376.4212 616.6212,376.5778 606.3036,376.7271 595.9863,376.8691 585.6694,377.0038 575.3528,377.1313 565.0364,377.2514 554.7203,377.3643 544.4045,377.4699 534.0889,377.5682 523.7735,377.6592 513.4584,377.7429 503.1434,377.8194 492.8286,377.8885 482.5139,377.9504 472.1994,378.005 461.8849,378.0523 451.5706,378.0924 441.2564,378.1251 430.9422,378.1506 420.6281,378.1688 410.3141,378.1797 400.0,378.1833 389.6859,378.1797 379.3719,378.1688 369.0578,378.1506 358.7436,378.1251 348.4294,378.0924 338.1151,378.0523 327.8006,378.005 317.4861,377.9504 307.1714,377.8885 296.8566,377.8194 286.5416,377.7429 276.2265,377.6592 265.9111,377.5682 255.5955,377.4699 245.2797,377.3643 234.9636,377.2514 224.6472,377.1313 214.3306,377.0038 204.0137,376.8691 193.6964,376.7271 183.3788,376.5778 173.0609,376.4212 162.7425,376.2573 152.4238,376.0861 142.1047,375.9076 131.7852,375.7218 121.4652,375.5287 111.1448,375.3283 100.8239,375.1206 90.5025,374.9056 80.1806,374.6833 69.8582,374.4537" stroke="silver" stroke-opacity="0.5" stroke-width="1" /><polyline fill="none" points="728.1429,287.1108 717.8831,287.3449 707.6238,287.5715 697.365,287.7906 687.1067,288.0023 676.8489,288.2066 666.5915,288.4034 656.3345,288.5928 646.0779,288.7747 635.8217,288.9493 625.5659,289.1163 615.3104,289.276 605.0553,289.4282 594.8005,289.5729 584.5461,289.7103 574.2919,289.8402 564.038,289.9626 553.7843,290.0777 543.5309,290.1853 533.2778,290.2855 523.0248,290.3783 512.7721,290.4636 502.5195,290.5416 492.2671,290.6121 482.0148,290.6751 471.7627,290.7308 461.5106,290.779 451.2587,290.8198 441.0069,290.8532 430.7551,290.8792 420.5034,290.8978 410.2517,290.9089 400.0,290.9126 389.7483,290.9089 379.4966,290.8978 369.2449,290.8792 358.9931,290.8532 348.7413,290.8198 338.4894,290.779 328.2373,290.7308 317.9852,290.6751 307.7329,290.6121 297.4805,290.5416 287.2279,290.4636 276.9752,290.3783 266.7222,290.2855 256.4691,290.1853 246.2157,290.0777 235.962,289.9626 225.7081,289.8402 215.4539,289.7103 205.1995,289.5729 194.9447,289.4282 184.6896,289.276 174.4341,289.1163 164.1783,288.9493 153.9221,288.7747 143.6655,288.5928 133.4085,288.4034 123.1511,288.2066 112.8933,288.0023 102.635,287.7906 92.3762,287.5715 82.1169,287.3449 71.8571,287.1108" stroke="silver" stroke-opacity="0.5" stroke-width="1" /><polyline fill="none" points="726.0932,199.7531 715.8976,199.9915 705.7026,200.2223 695.508,200.4455 685.3138,200.6611 675.1201,200.8691 664.9268,201.0696 654.734,201.2625 644.5415,201.4478 634.3494,201.6255 624.1577,201.7957 613.9664,201.9583 603.7753,202.1133 593.5846,202.2607 583.3942,202.4006 573.204,202.5329 563.0142,202.6577 552.8246,202.7749 542.6352,202.8845 532.446,202.9865 522.2571,203.081 512.0683,203.1679 501.8797,203.2473 491.6913,203.3191 481.503,203.3834 471.3149,203.4401 461.1268,203.4892 450.9389,203.5307 440.751,203.5648 430.5632,203.5912 420.3754,203.6101 410.1877,203.6214 400.0,203.6252 389.8123,203.6214 379.6246,203.6101 369.4368,203.5912 359.249,203.5648 349.0611,203.5307 338.8732,203.4892 328.6851,203.4401 318.497,203.3834 308.3087,203.3191 298.1203,203.2473 287.9317,203.1679 277.7429,203.081 267.554,202.9865 257.3648,202.8845 247.1754,202.7749 236.9858,202.6577 226.796,202.5329 216.6058,202.4006 206.4154,202.2607 196.2247,202.1133 186.0336,201.9583 175.8423,201.7957 165.6506,201.6255 155.4585,201.4478 145.266,201.2625 135.0732,201.0696 124.8799,200.8691 114.6862,200.6611 104.492,200.4455 94.2974,200.2223 84.1024,199.9915 73.9068,199.7531" stroke="silver" stroke-opacity="0.5" stroke-width="1" /><polyline fill="none" points="723.9924,112.3672 713.8626,112.6098 703.7334,112.8447 693.6045,113.0718 683.4762,113.2913 673.3482,113.503 663.2207,113.707 653.0936,113.9033 642.9668,114.0919 632.8404,114.2728 622.7144,114.446 612.5887,114.6114 602.4634,114.7692 592.3383,114.9193 582.2135,115.0616 572.089,115.1963 561.9648,115.3232 551.8408,115.4425 541.7171,115.5541 531.5935,115.6579 521.4702,115.7541 511.347,115.8425 501.224,115.9233 491.1012,115.9964 480.9785,116.0618 470.8559,116.1195 460.7334,116.1695 450.6111,116.2118 440.4888,116.2464 430.3665,116.2733 420.2443,116.2925 410.1221,116.3041 400.0,116.3079 389.8779,116.3041 379.7557,116.2925 369.6335,116.2733 359.5112,116.2464 349.3889,116.2118 339.2666,116.1695 329.1441,116.1195 319.0215,116.0618 308.8988,115.9964 298.776,115.9233 288.653,115.8425 278.5298,115.7541 268.4065,115.6579 258.2829,115.5541 248.1592,115.4425 238.0352,115.3232 227.911,115.1963 217.7865,115.0616 207.6617,114.9193 197.5366,114.7692 187.4113,114.6114 177.2856,114.446 167.1596,114.2728 157.0332,114.0919 146.9064,113.9033 136.7793,113.707 126.6518,113.503 116.5238,113.2913 106.3955,113.0718 96.2666,112.8447 86.1374,112.6098 76.0076,112.3672" stroke="silver" stroke-opacity="0.5" stroke-width="1" /><circle cx="732.9662" cy="513.3363" fill="black" r="0.738" stroke="none" /><circle cx="715.7852" cy="166.9501" fill="black" r="0.738" stroke="none" /><circle cx="711.4638" cy="79.6078" fill="black" r="0.738" stroke="none" /><circle cx="711.7852" cy="205.767" fill="black" r="0.738" stroke="none" /><circle cx="708.0726" cy="331.2502" fill="black" r="0.738" stroke="none" /><circle cx="711.4862" cy="535.6323" fill="black" r="0.738" stroke="none" /><circle cx="714.4429" cy="695.012" fill="black" r="0.738" stroke="none" /><circle cx="701.7075" cy="152.5842" fill="black" r="0.738" stroke="none" /><circle cx="700.607" cy="297.4208" fill="black" r="0.738" stroke="none" /><circle cx="707.558" cy="660.7814" fill="black" r="0.738" stroke="none" /><circle cx="707.2987" cy="655.978" fill="black" r="0.738" stroke="none" /><circle cx="683.2636" cy="260.2093" fill="black" r="0.738" stroke="none" /><circle cx="683.0358" cy="403.3951" fill="black" r="0.738" stroke="none" /><circle cx="677.5906" cy="724.8766" fill="black" r="0.738" stroke="none" /><circle cx="663.9318" cy="349.0728" fill="black" r="0.738" stroke="none" /><circle cx="664.3684" cy="475.6244" fill="black" r="0.738" stroke="none" /><circle cx="656.855" cy="285.6135" fill="black" r="0.738" stroke="none" /><circle cx="646.0724" cy="269.6462" fill="black" r="1.476" stroke="none" /><circle cx="630.1534" cy="391.8272" fill="black" r="0.738" stroke="none" /><circle cx="627.6399" cy="244.9771" fill="black" r="0.738" stroke="none" /><circle cx="630.0147" cy="626.853" fill="black" r="0.738" stroke="none" /><circle cx="630.0342" cy="705.5854" fill="black" r="0.738" stroke="none" /><circle cx="625.347" cy="617.222" fill="black" r="0.936" stroke="none" /><circle cx="621.4621" cy="561.5475" fill="black" r="0.738" stroke="none" /><circle cx="618.5966" cy="443.3467" fill="black" r="0.738" stroke="none" /><circle cx="617.8784" cy="586.4032" fill="black" r="0.738" stroke="none" /><circle cx="613.7326" cy="382.2958" fill="black" r="0.738" stroke="none" /><circle cx="607.6881" cy="106.9113" fill="black" r="0.738" stroke="none" /><circle cx="605.6643" cy="474.0901" fill="black" r="0.738" stroke="none" /><circle cx="600.8838" cy="188.4423" fill="black" r="0.738" stroke="none" /><circle cx="601.9068" cy="264.4113" fill="black" r="0.738" stroke="none" /><circle cx="596.8532" cy="163.2559" fill="black" r="0.738" stroke="none" /><circle cx="596.2934" cy="662.5071" fill="black" r="0.738" stroke="none" /><circle cx="589.97" cy="409.6008" fill="black" r="0.738" stroke="none" /><circle cx="590.5688" cy="605.3595" fill="black" r="0.738" stroke="none" /><circle cx="584.6723" cy="389.5882" fill="black" r="0.738" stroke="none" /><circle cx="570.7451" cy="105.1657" fill="black" r="0.738" stroke="none" /><circle cx="562.3844" cy="398.6684" fill="black" r="0.738" stroke="none" /><circle cx="557.4342" cy="652.7102" fill="black" r="0.738" stroke="none" /><circle cx="553.0664" cy="254.2898" fill="black" r="0.738" stroke="none" /><circle cx="552.1389" cy="688.5762" fill="black" r="0.936" stroke="none" /><circle cx="542.6485" cy="383.5973" fill="black" r="0.738" stroke="none" /><circle cx="539.7733" cy="202.0407" fill="black" r="0.738" stroke="none" /><circle cx="542.4488" cy="565.2607" fill="black" r="0.738" stroke="none" /><circle cx="538.0915" cy="640.9213" fill="black" r="0.738" stroke="none" /><circle cx="525.4701" cy="261.025" fill="black" r="0.738" stroke="none" /><circle cx="527.3132" cy="647.5603" fill="black" r="0.738" stroke="none" /><circle cx="523.0599" cy="247.6019" fill="black" r="0.738" stroke="none" /><circle cx="521.7276" cy="450.2085" fill="black" r="0.738" stroke="none" /><circle cx="518.096" cy="410.6113" fill="black" r="0.738" stroke="none" /><circle cx="517.3936" cy="704.8481" fill="black" r="0.738" stroke="none" /><circle cx="512.4375" cy="341.8781" fill="black" r="0.738" stroke="none" /><circle cx="512.8768" cy="475.4153" fill="black" r="0.738" stroke="none" /><circle cx="511.4383" cy="340.402" fill="black" r="0.738" stroke="none" /><circle cx="497.3239" cy="717.3839" fill="black" r="0.738" stroke="none" /><circle cx="490.9078" cy="670.6004" fill="black" r="1.17" stroke="none" /><circle cx="487.5212" cy="175.8425" fill="black" r="0.738" stroke="none" /><circle cx="480.6641" cy="117.6359" fill="black" r="0.738" stroke="none" /><circle cx="480.4206" cy="117.55" fill="black" r="0.738" stroke="none" /><circle cx="479.7716" cy="663.4972" fill="black" r="0.738" stroke="none" /><circle cx="478.2403" cy="540.9219" fill="black" r="0.738" stroke="none" /><circle cx="461.1192" cy="711.1798" fill="black" r="0.738" stroke="none" /><circle cx="453.0033" cy="432.4563" fill="black" r="0.738" stroke="none" /><circle cx="451.6739" cy="292.2148" fill="black" r="0.738" stroke="none" /><circle cx="449.5726" cy="602.3211" fill="black" r="0.738" stroke="none" /><circle cx="447.704" cy="511.8061" fill="black" r="0.936" stroke="none" /><circle cx="434.3036" cy="135.8264" fill="black" r="0.738" stroke="none" /><circle cx="422.6673" cy="704.1145" fill="black" r="0.738" stroke="none" /><circle cx="419.244" cy="521.9925" fill="black" r="0.738" stroke="none" /><circle cx="412.2531" cy="329.4823" fill="black" r="0.738" stroke="none" /><circle cx="411.2564" cy="214.8821" fill="black" r="0.738" stroke="none" /><circle cx="409.2052" cy="452.8811" fill="black" r="0.738" stroke="none" /><circle cx="409.1227" cy="453.6666" fill="black" r="0.738" stroke="none" /><circle cx="398.3539" cy="341.618" fill="black" r="0.936" stroke="none" /><circle cx="398.0071" cy="472.4323" fill="black" r="0.738" stroke="none" /><circle cx="394.8969" cy="587.2949" fill="black" r="0.738" stroke="none" /><circle cx="393.6266" cy="238.978" fill="black" r="0.738" stroke="none" /><circle cx="386.9117" cy="436.21" fill="black" r="0.738" stroke="none" /><circle cx="380.316" cy="120.7475" fill="black" r="0.738" stroke="none" /><circle cx="375.687" cy="264.795" fill="black" r="0.738" stroke="none" /><circle cx="369.9376" cy="558.984" fill="black" r="0.738" stroke="none" /><circle cx="370.163" cy="362.2701" fill="black" r="0.738" stroke="none" /><circle cx="364.4553" cy="620.344" fill="black" r="0.738" stroke="none" /><circle cx="364.8775" cy="108.0516" fill="black" r="0.936" stroke="none" /><circle cx="351.0678" cy="354.1894" fill="black" r="0.738" stroke="none" /><circle cx="349.6297" cy="138.3083" fill="black" r="0.738" stroke="none" /><circle cx="339.2715" cy="719.5675" fill="black" r="0.738" stroke="none" /><circle cx="321.134" cy="344.4571" fill="black" r="0.738" stroke="none" /><circle cx="317.0647" cy="394.0937" fill="black" r="0.738" stroke="none" /><circle cx="314.4064" cy="651.6778" fill="black" r="0.738" stroke="none" /><circle cx="312.1737" cy="396.9454" fill="black" r="0.738" stroke="none" /><circle cx="313.1287" cy="163.2725" fill="black" r="0.936" stroke="none" /><circle cx="301.3515" cy="616.237" fill="black" r="0.738" stroke="none" /><circle cx="297.019" cy="510.7491" fill="black" r="0.738" stroke="none" /><circle cx="296.1481" cy="270.9787" fill="black" r="0.738" stroke="none" /><circle cx="294.8152" cy="329.4514" fill="black" r="0.738" stroke="none" /><circle cx="287.0744" cy="527.0901" fill="black" r="0.738" stroke="none" /><circle cx="287.3611" cy="203.1633" fill="black" r="0.738" stroke="none" /><circle cx="284.5065" cy="155.3734" fill="black" r="0.738" stroke="none" /><circle cx="274.7105" cy="572.0428" fill="black" r="0.738" stroke="none" /><circle cx="274.1922" cy="120.5183" fill="black" r="0.738" stroke="none" /><circle cx="267.931" cy="447.3278" fill="black" r="0.738" stroke="none" /><circle cx="258.3798" cy="247.1639" fill="black" r="0.738" stroke="none" /><circle cx="249.5074" cy="498.9203" fill="black" r="0.738" stroke="none" /><circle cx="247.9956" cy="346.5785" fill="black" r="0.738" stroke="none" /><circle cx="243.6271" cy="488.1233" fill="black" r="0.738" stroke="none" /><circle cx="238.0504" cy="381.738" fill="black" r="0.738" stroke="none" /><circle cx="235.3819" cy="94.1465" fill="black" r="0.738" stroke="none" /><circle cx="229.0874" cy="546.9883" fill="black" r="0.738" stroke="none" /><circle cx="222.3054" cy="715.5814" fill="black" r="0.738" stroke="none" /><circle cx="219.3193" cy="133.5174" fill="black" r="0.738" stroke="none" /><circle cx="215.0573" cy="437.7763" fill="black" r="0.738" stroke="none" /><circle cx="212.9211" cy="436.2655" fill="black" r="0.738" stroke="none" /><circle cx="207.8611" cy="535.3012" fill="black" r="0.738" stroke="none" /><circle cx="210.3261" cy="336.0927" fill="black" r="0.738" stroke="none" /><circle cx="200.5819" cy="602.718" fill="black" r="0.738" stroke="none" /><circle cx="192.1822" cy="378.7138" fill="black" r="0.738" stroke="none" /><circle cx="187.8647" cy="601.3303" fill="black" r="0.738" stroke="none" /><circle cx="189.3933" cy="276.5096" fill="black" r="0.738" stroke="none" /><circle cx="184.614" cy="606.2655" fill="black" r="0.738" stroke="none" /><circle cx="180.0372" cy="567.8572" fill="black" r="0.936" stroke="none" /><circle cx="171.8103" cy="409.1476" fill="black" r="0.738" stroke="none" /><circle cx="165.2172" cy="465.4575" fill="black" r="0.738" stroke="none" /><circle cx="151.5609" cy="241.3898" fill="black" r="1.17" stroke="none" /><circle cx="145.1592" cy="306.0017" fill="black" r="0.738" stroke="none" /><circle cx="137.8416" cy="631.7772" fill="black" r="0.738" stroke="none" /><circle cx="135.596" cy="416.4925" fill="black" r="0.738" stroke="none" /><circle cx="132.6213" cy="519.4216" fill="black" r="0.738" stroke="none" /><circle cx="136.8174" cy="182.491" fill="black" r="0.738" stroke="none" /><circle cx="132.6534" cy="377.9213" fill="black" r="0.738" stroke="none" /><circle cx="130.9126" cy="111.2294" fill="black" r="0.738" stroke="none" /><circle cx="121.0861" cy="576.9671" fill="black" r="0.738" stroke="none" /><circle cx="120.7586" cy="175.0053" fill="black" r="0.738" stroke="none" /><circle cx="109.272" cy="684.3448" fill="black" r="0.738" stroke="none" /><circle cx="93.0092" cy="353.9899" fill="black" r="0.738" stroke="none" /><circle cx="81.9696" cy="557.6095" fill="black" r="0.738" stroke="none" /><circle cx="83.1789" cy="498.7352" fill="black" r="0.738" stroke="none" /><circle cx="91.9832" cy="91.321" fill="black" r="0.738" stroke="none" /><circle cx="73.0052" cy="294.3037" fill="black" r="0.738" stroke="none" /><circle cx="13.77" cy="786.23" fill="black" r="4.59" stroke="none" /><circle cx="13.77" cy="786.23" fill="black" r="4.59" stroke="none" /><text fill="black" font-family="monospace" font-size="12" x="10.77" y="775.64">1</text><circle cx="37.77" cy="786.23" fill="black" r="3.654" stroke="none" /><circle cx="37.77" cy="786.23" fill="black" r="3.654" stroke="none" /><text fill="black" font-family="monospace" font-size="12" x="34.769999999999996" y="775.64">2</text><circle cx="61.77" cy="786.23" fill="black" r="2.916" stroke="none" /><circle cx="61.77" cy="786.23" fill="black" r="2.916" stroke="none" /><text fill="black" font-family="monospace" font-size="12" x="58.769999999999996" y="775.64">3</text><circle cx="85.77" cy="786.23" fill="black" r="2.322" stroke="none" /><circle cx="85.77" cy="786.23" fill="black" r="2.322" stroke="none" /><text fill="black" font-family="monospace" font-size="12" x="82.77" y="775.64">4</text><circle cx="109.77" cy="786.23" fill="black" r="1.854" stroke="none" /><circle cx="109.77" cy="786.23" fill="black" r="1.854" stroke="none" /><text fill="black" font-family="monospace" font-size="12" x="106.77" y="775.64">5</text><circle cx="133.77" cy="786.23" fill="black" r="1.476" stroke="none" /><circle cx="133.77" cy="786.23" fill="black" r="1.476" stroke="none" /><text fill="black" font-family="monospace" font-size="12" x="130.77" y="775.64">6</text><circle cx="157.77" cy="786.23" fill="black" r="1.17" stroke="none" /><circle cx="157.77" cy="786.23" fill="black" r="1.17" stroke="none" /><text fill="black" font-family="monospace" font-size="12" x="154.77" y="775.64">7</text><circle cx="181.77" cy="786.23" fill="black" r="0.936" stroke="none" /><circle cx="181.77" cy="786.23" fill="black" r="0.936" stroke="none" /><text fill="black" font-family="monospace" font-size="12" x="178.77" y="775.64">8</text><circle cx="205.77" cy="786.23" fill="black" r="0.738" stroke="none" /><circle cx="205.77" cy="786.23" fill="black" r="0.738" stroke="none" /><text fill="black" font-family="monospace" font-size="12" x="202.77" y="775.64">9</text><text fill="gray" fill-opacity="0.5" font-family="monospace" font-size="12" x="716.5216394540281" y="724.3566078025028">11h45m</text><text fill="gray" fill-opacity="0.5" font-family="monospace" font-size="12" x="610.9831660032257" y="726.0290136477129">11h50m</text><text fill="gray" fill-opacity="0.5" font-family="monospace" font-size="12" x="505.48220692255427" y="727.0319009944462">11h55m</text><text fill="gray" fill-opacity="0.5" font-family="monospace" font-size="12" x="400.0" y="727.366104129726">12h00m</text><text fill="gray" fill-opacity="0.5" font-family="monospace" font-size="12" x="294.51779307744573" y="727.0319009944462">12h05m</text><text fill="gray" fill-opacity="0.5" font-family="monospace" font-size="12" x="189.01683399677427" y="726.0290136477129">12h10m</text><text fill="gray" fill-opacity="0.5" font-family="monospace" font-size="12" x="83.4783605459719" y="724.3566078025028">12h15m</text><text fill="gray" fill-opacity="0.5" font-family="monospace" font-size="12" x="62.36451175425992" y="723.9416717545166">+15°</text><text fill="gray" fill-opacity="0.5" font-family="monospace" font-size="12" x="64.16316315295313" y="636.525672511731">+16°</text><text fill="gray" fill-opacity="0.5" font-family="monospace" font-size="12" x="66.01150449154" y="549.1478666635106">+17°</text><text fill="gray" fill-opacity="0.5" font-family="monospace" font-size="12" x="67.90976392210877" y="461.7949714987248">+18°</text><text fill="gray" fill-opacity="0.5" font-family="monospace" font-size="12" x="69.85819999837872" y="374.4537194186851">+19°</text><text fill="gray" fill-opacity="0.5" font-family="monospace" font-size="12" x="71.85710180537563" y="287.11084988715857">+20°</text><text fill="gray" fill-opacity="0.5" font-family="monospace" font-size="12" x="73.9067891285718" y="199.75310138946912">+21°</text><text fill="gray" fill-opacity="0.5" font-family="monospace" font-size="12" x="76.00761266269632" y="112.36720339034736">+22°</text><text fill="black" font-family="monospace" font-size="12" x="12" y="48">&gt;&gt; No.526 11h44m 12h16m +15.0°+22.5°</text><a target="_self" xlink:href="hip027.svg"><text fill="black" font-family="monospace" font-size="12" x="12" y="36">&gt; No.27 10h40m 13h20m +0.0°+22.5°</text></a><a target="_self" xlink:href="hip002.svg"><text fill="black" font-family="monospace" font-size="12" x="12" y="24">No.2 00h 24h +0.0°+90.0°</text></a><polyline fill="none" points="722.9227,68.6595 712.8264,68.9042 702.7307,69.1411 692.6354,69.3702 682.5405,69.5915 672.446,69.805 662.352,70.0108 652.2583,70.2088 642.165,70.399 632.0721,70.5814 621.9795,70.756 611.8873,70.9229 601.7953,71.082 591.7037,71.2334 581.6124,71.377 571.5213,71.5128 561.4305,71.6408 551.3399,71.7611 541.2496,71.8736 531.1594,71.9783 521.0695,72.0753 510.9797,72.1645 500.8901,72.246 490.8007,72.3197 480.7114,72.3857 470.6222,72.4438 460.5331,72.4943 450.4441,72.5369 440.3552,72.5718 430.2664,72.599 420.1775,72.6184 410.0888,72.63 400.0,72.6339 389.9112,72.63 379.8225,72.6184 369.7336,72.599 359.6448,72.5718 349.5559,72.5369 339.4669,72.4943 329.3778,72.4438 319.2886,72.3857 309.1993,72.3197 299.1099,72.246 289.0203,72.1645 278.9305,72.0753 268.8406,71.9783 258.7504,71.8736 248.6601,71.7611 238.5695,71.6408 228.4787,71.5128 218.3876,71.377 208.2963,71.2334 198.2047,71.082 188.1127,70.9229 178.0205,70.756 167.9279,70.5814 157.835,70.399 147.7417,70.2088 137.648,70.0108 127.554,69.805 117.4595,69.5915 107.3646,69.3702 97.2693,69.1411 87.1736,68.9042 77.0773,68.6595" stroke="black" stroke-opacity="0.5" stroke-width="1" /><polyline fill="none" points="737.6355,723.9417 737.4134,713.0121 737.1905,702.0834 736.9668,691.1554 736.7424,680.2281 736.5171,669.3015 736.2911,658.3756 736.0644,647.4503 735.8368,636.5257 735.6085,625.6016 735.3794,614.6782 735.1495,603.7552 734.9189,592.8328 734.6875,581.9109 734.4553,570.9895 734.2223,560.0685 733.9885,549.1479 733.7539,538.2277 733.5186,527.3078 733.2825,516.3883 733.0456,505.4691 732.8079,494.5502 732.5695,483.6316 732.3303,472.7132 732.0902,461.795 731.8494,450.877 731.6078,439.9591 731.3655,429.0413 731.1223,418.1237 730.8784,407.2062 730.6336,396.2887 730.3881,385.3712 730.1418,374.4537 729.8947,363.5362 729.6468,352.6187 729.3981,341.701 729.1487,330.7833 728.8984,319.8655 728.6474,308.9474 728.3955,298.0293 728.1429,287.1108 727.8895,276.1922 727.6353,265.2733 727.3802,254.3542 727.1244,243.4347 726.8678,232.5148 726.6104,221.5947 726.3522,210.6741 726.0932,199.7531 725.8334,188.8317 725.5728,177.9098 725.3114,166.9874 725.0492,156.0645 724.7862,145.1411 724.5224,134.217 724.2578,123.2924 723.9924,112.3672 723.7262,101.4413 723.4591,90.5148 723.1913,79.5875 722.9227,68.6595" stroke="black" stroke-opacity="0.5" stroke-width="1" /><polyline fill="none" points="737.6355,723.9417 727.0783,724.1525 716.5216,724.3566 705.9656,724.554 695.41,724.7447 684.855,724.9287 674.3005,725.106 663.7465,725.2766 653.193,725.4405 642.6399,725.5976 632.0873,725.7481 621.535,725.8919 610.9832,726.029 600.4317,726.1594 589.8806,726.2831 579.3298,726.4001 568.7793,726.5105 558.2292,726.6141 547.6793,726.711 537.1297,726.8013 526.5803,726.8848 516.0311,726.9617 505.4822,727.0319 494.9335,727.0954 484.3849,727.1522 473.8364,727.2024 463.2881,727.2458 452.7399,727.2826 442.1918,727.3126 431.6438,727.336 421.0958,727.3527 410.5479,727.3628 400.0,727.3661 389.4521,727.3628 378.9042,727.3527 368.3562,727.336 357.8082,727.3126 347.2601,727.2826 336.7119,727.2458 326.1636,727.2024 315.6151,727.1522 305.0665,727.0954 294.5178,727.0319 283.9689,726.9617 273.4197,726.8848 262.8703,726.8013 252.3207,726.711 241.7708,726.6141 231.2207,726.5105 220.6702,726.4001 210.1194,726.2831 199.5683,726.1594 189.0168,726.029 178.465,725.8919 167.9127,725.7481 157.3601,725.5976 146.807,725.4405 136.2535,725.2766 125.6995,725.106 115.145,724.9287 104.59,724.7447 94.0344,724.554 83.4784,724.3566 72.9217,724.1525 62.3645,723.9417" stroke="black" stroke-opacity="0.5" stroke-width="1" /><polyline fill="none" points="62.3645,723.9417 62.5866,713.0121 62.8095,702.0834 63.0332,691.1554 63.2576,680.2281 63.4829,669.3015 63.7089,658.3756 63.9356,647.4503 64.1632,636.5257 64.3915,625.6016 64.6206,614.6782 64.8505,603.7552 65.0811,592.8328 65.3125,581.9109 65.5447,570.9895 65.7777,560.0685 66.0115,549.1479 66.2461,538.2277 66.4814,527.3078 66.7175,516.3883 66.9544,505.4691 67.1921,494.5502 67.4305,483.6316 67.6697,472.7132 67.9098,461.795 68.1506,450.877 68.3922,439.9591 68.6345,429.0413 68.8777,418.1237 69.1216,407.2062 69.3664,396.2887 69.6119,385.3712 69.8582,374.4537 70.1053,363.5362 70.3532,352.6187 70.6019,341.701 70.8513,330.7833 71.1016,319.8655 71.3526,308.9474 71.6045,298.0293 71.8571,287.1108 72.1105,276.1922 72.3647,265.2733 72.6198,254.3542 72.8756,243.4347 73.1322,232.5148 73.3896,221.5947 73.6478,210.6741 73.9068,199.7531 74.1666,188.8317 74.4272,177.9098 74.6886,166.9874 74.9508,156.0645 75.2138,145.1411 75.4776,134.217 75.7422,123.2924 76.0076,112.3672 76.2738,101.4413 76.5409,90.5148 76.8087,79.5875 77.0773,68.6595" stroke="black" stroke-opacity="0.5" stroke-width="1" /></svg>