<?xml version="1.0" encoding="utf-8" ?>
<svg baseProfile="tiny" height="800" version="1.2" width="800" xmlns="http://www.w3.org/2000/svg" xmlns:ev="http://www.w3.org/2001/xml-events" xmlns:xlink="http://www.w3.org/1999/xlink"><defs /><rect fill="none" height="800" stroke="black" stroke-width="2" width="800" x="0" y="0" /><polyline fill="none" points="683.7395,723.7711 683.4623,712.8465 683.1844,701.9226 682.9059,690.9995 682.6268,680.0772 682.3471,669.1555 682.0667,658.2345 681.7856,647.3142 681.5039,636.3945 681.2216,625.4754 680.9387,614.5568 680.6551,603.6388 680.3708,592.7214 680.0859,581.8044 679.8004,570.8879 679.5142,559.9718 679.2274,549.0561 678.9399,538.1409 678.6518,527.2259 678.3631,516.3114 678.0737,505.3971 677.7836,494.4831 677.4929,483.5694 677.2015,472.656 676.9095,461.7427 676.6169,450.8296 676.3236,439.9167 676.0296,429.0039 675.735,418.0912 675.4398,407.1786 675.1438,396.266 674.8473,385.3535 674.55,374.4409 674.2522,363.5284 673.9536,352.6157 673.6544,341.7031 673.3546,330.7903 673.054,319.8773 672.7529,308.9643 672.451,298.051 672.1485,287.1375 671.8454,276.2238 671.5415,265.3099 671.2371,254.3957 670.9319,243.4811 670.6261,232.5662 670.3196,221.651 670.0125,210.7353 669.7046,199.8193 669.3962,188.9028 669.087,177.9858 668.7772,167.0684 668.4667,156.1504 668.1555,145.2319 667.8437,134.3128 667.5312,123.3932 667.218,112.4729 666.9041,101.5519 666.5896,90.6303 666.2743,79.708 665.9585,68.7849" stroke="silver" stroke-opacity="0.5" stroke-width="1" /><polyline fill="none" points="582.82,725.8738 582.6415,714.9521 582.4625,704.0311 582.2832,693.1109 582.1034,682.1915 581.9233,671.2727 581.7427,660.3546 581.5617,649.4371 581.3803,638.5202 581.1984,627.6039 581.0162,616.6881 580.8336,605.7729 580.6505,594.8582 580.467,583.9439 580.2831,573.0302 580.0988,562.1168 579.9141,551.2038 579.7289,540.2913 579.5434,529.379 579.3574,518.4671 579.171,507.5555 578.9842,496.6442 578.797,485.7331 578.6094,474.8222 578.4213,463.9115 578.2328,453.001 578.0439,442.0906 577.8546,431.1803 577.6648,420.2701 577.4747,409.36 577.2841,398.4499 577.0931,387.5399 576.9017,376.6298 576.7098,365.7197 576.5175,354.8095 576.3248,343.8992 576.1317,332.9888 575.9382,322.0783 575.7442,311.1675 575.5498,300.2566 575.355,289.3455 575.1597,278.4341 574.964,267.5224 574.7679,256.6105 574.5714,245.6982 574.3744,234.7856 574.177,223.8726 573.9792,212.9591 573.781,202.0453 573.5823,191.131 573.3832,180.2162 573.1836,169.3009 572.9836,158.3851 572.7832,147.4687 572.5824,136.5517 572.3811,125.6341 572.1794,114.7159 571.9772,103.797 571.7747,92.8774 571.5716,81.9571 571.3682,71.0361" stroke="silver" stroke-opacity="0.5" stroke-width="1" /><polyline fill="none" points="481.9218,727.0665 481.8418,716.1464 481.7617,705.2272 481.6813,694.3086 481.6008,683.3908 481.5201,672.4736 481.4392,661.5571 481.3581,650.6412 481.2768,639.7259 481.1954,628.8112 481.1137,617.8971 481.0319,606.9834 480.9499,596.0703 480.8677,585.1576 480.7853,574.2454 480.7027,563.3335 480.62,552.4221 480.537,541.5111 480.4539,530.6003 480.3706,519.6899 480.2871,508.7798 480.2034,497.87 480.1195,486.9603 480.0355,476.0509 479.9512,465.1417 479.8668,454.2326 479.7822,443.3237 479.6973,432.4149 479.6123,421.5061 479.5272,410.5974 479.4418,399.6888 479.3562,388.7801 479.2704,377.8714 479.1845,366.9627 479.0984,356.0539 479.012,345.145 478.9255,334.2359 478.8388,323.3267 478.7519,312.4173 478.6648,301.5078 478.5775,290.5979 478.4901,279.6879 478.4024,268.7775 478.3145,257.8669 478.2265,246.9559 478.1383,236.0445 478.0498,225.1328 477.9612,214.2206 477.8724,203.308 477.7834,192.3949 477.6942,181.4814 477.6048,170.5673 477.5152,159.6527 477.4254,148.7375 477.3354,137.8217 477.2453,126.9053 477.1549,115.9883 477.0643,105.0705 476.9736,94.1521 476.8826,83.233 476.7915,72.3131" stroke="silver" stroke-opacity="0.5" stroke-width="1" /><polyline fill="none" points="381.0331,727.35 381.0516,716.4304 381.0702,705.5115 381.0888,694.5934 381.1074,683.6759 381.1261,672.7591 381.1448,661.843 381.1636,650.9275 381.1824,640.0126 381.2013,629.0983 381.2202,618.1845 381.2391,607.2712 381.2581,596.3585 381.2772,585.4461 381.2962,574.5343 381.3153,563.6228 381.3345,552.7118 381.3537,541.8011 381.3729,530.8907 381.3922,519.9807 381.4116,509.0709 381.4309,498.1614 381.4504,487.2522 381.4698,476.3431 381.4893,465.4342 381.5089,454.5255 381.5285,443.6169 381.5481,432.7084 381.5678,421.8 381.5875,410.8916 381.6073,399.9833 381.6271,389.075 381.6469,378.1666 381.6668,367.2582 381.6868,356.3497 381.7068,345.4411 381.7268,334.5324 381.7469,323.6235 381.767,312.7145 381.7871,301.8052 381.8073,290.8957 381.8276,279.986 381.8479,269.0759 381.8682,258.1656 381.8886,247.2549 381.909,236.3438 381.9295,225.4324 381.95,214.5205 381.9706,203.6082 381.9912,192.6954 382.0119,181.7822 382.0325,170.8684 382.0533,159.9541 382.0741,149.0392 382.0949,138.1237 382.1158,127.2076 382.1367,116.2908 382.1577,105.3733 382.1787,94.4552 382.1997,83.5363 382.2208,72.6167" stroke="silver" stroke-opacity="0.5" stroke-width="1" /><polyline fill="none" points="280.1422,726.7247 280.2592,715.8042 280.3765,704.8844 280.4941,693.9654 280.6119,683.0471 280.73,672.1295 280.8484,661.2125 280.967,650.2962 281.086,639.3804 281.2051,628.4652 281.3246,617.5506 281.4443,606.6365 281.5643,595.7229 281.6846,584.8098 281.8051,573.8971 281.9259,562.9849 282.047,552.073 282.1684,541.1615 282.29,530.2504 282.4119,519.3395 282.5341,508.429 282.6565,497.5187 282.7793,486.6087 282.9023,475.6988 283.0255,464.7892 283.1491,453.8797 283.2729,442.9704 283.397,432.0611 283.5214,421.152 283.646,410.2428 283.7709,399.3338 283.8962,388.4247 284.0216,377.5156 284.1474,366.6065 284.2734,355.6973 284.3997,344.788 284.5263,333.8785 284.6532,322.969 284.7803,312.0592 284.9078,301.1492 285.0355,290.239 285.1635,279.3286 285.2917,268.4179 285.4203,257.5068 285.5491,246.5955 285.6782,235.6837 285.8076,224.7716 285.9373,213.8591 286.0672,202.9462 286.1975,192.0327 286.328,181.1188 286.4588,170.2044 286.5899,159.2894 286.7212,148.3739 286.8529,137.4578 286.9848,126.541 287.1171,115.6237 287.2496,104.7056 287.3824,93.7869 287.5154,82.8674 287.6488,71.9472" stroke="silver" stroke-opacity="0.5" stroke-width="1" /><polyline fill="none" points="179.2374,725.19 179.453,714.2673 179.6691,703.3454 179.8857,692.4243 180.1028,681.5039 180.3204,670.5842 180.5385,659.6651 180.7571,648.7467 180.9762,637.8289 181.1958,626.9117 181.4159,615.995 181.6365,605.0789 181.8576,594.1633 182.0792,583.2482 182.3012,572.3335 182.5238,561.4192 182.7469,550.5054 182.9705,539.5919 183.1946,528.6788 183.4192,517.7661 183.6443,506.8536 183.8699,495.9414 184.0961,485.0294 184.3227,474.1177 184.5498,463.2062 184.7774,452.2948 185.0056,441.3836 185.2342,430.4725 185.4634,419.5615 185.693,408.6506 185.9232,397.7397 186.1539,386.8288 186.3851,375.918 186.6168,365.0071 186.849,354.0961 187.0817,343.185 187.315,332.2738 187.5487,321.3625 187.783,310.451 188.0177,299.5393 188.253,288.6275 188.4888,277.7153 188.7252,266.8029 188.962,255.8902 189.1994,244.9772 189.4372,234.0638 189.6756,223.1501 189.9145,212.2359 190.154,201.3214 190.3939,190.4064 190.6344,179.4909 190.8754,168.5749 191.1169,157.6584 191.3589,146.7413 191.6015,135.8236 191.8446,124.9054 192.0882,113.9865 192.3323,103.0669 192.577,92.1467 192.8222,81.2257 193.0679,70.304" stroke="silver" stroke-opacity="0.5" stroke-width="1" /><polyline fill="none" points="78.3069,722.7448 78.6213,711.8187 78.9364,700.8935 79.2522,689.969 79.5687,679.0452 79.8859,668.1221 80.2039,657.1998 80.5226,646.2781 80.842,635.357 81.1622,624.4365 81.4831,613.5166 81.8047,602.5972 82.127,591.6784 82.4501,580.7601 82.7739,569.8422 83.0984,558.9248 83.4236,548.0079 83.7496,537.0913 84.0764,526.1751 84.4038,515.2592 84.732,504.3437 85.0609,493.4284 85.3906,482.5134 85.721,471.5987 86.0521,460.6841 86.384,449.7698 86.7166,438.8556 87.0499,427.9416 87.384,417.0277 87.7189,406.1138 88.0544,395.2001 88.3907,384.2863 88.7278,373.3726 89.0656,362.4588 89.4041,351.545 89.7434,340.6312 90.0835,329.7172 90.4243,318.8031 90.7658,307.8889 91.1081,296.9745 91.4511,286.0599 91.7949,275.1451 92.1394,264.23 92.4847,253.3146 92.8307,242.399 93.1775,231.483 93.5251,220.5667 93.8734,209.65 94.2224,198.7328 94.5723,187.8153 94.9228,176.8973 95.2742,165.9788 95.6263,155.0598 95.9791,144.1402 96.3328,133.2201 96.6871,122.2994 97.0423,111.3781 97.3982,100.4562 97.7549,89.5336 98.1123,78.6103 98.4706,67.6862" stroke="silver" stroke-opacity="0.5" stroke-width="1" /><polyline fill="none" points="736.5199,678.5667 732.8999,678.6764 722.8445,678.9749 712.7896,679.2642 702.735,679.5444 692.6807,679.8154 682.6268,680.0772 672.5732,680.3298 662.5199,680.5733 652.4669,680.8076 642.4142,681.0328 632.3618,681.2488 622.3097,681.4556 612.2577,681.6533 602.2061,681.8419 592.1546,682.0212 582.1034,682.1915 572.0524,682.3526 562.0016,682.5045 551.951,682.6473 541.9005,682.7809 531.8502,682.9054 521.8001,683.0208 511.7501,683.127 501.7002,683.2241 491.6504,683.312 481.6008,683.3908 471.5512,683.4604 461.5017,683.5209 451.4523,683.5723 441.403,683.6145 431.3537,683.6476 421.3044,683.6715 411.2551,683.6863 401.2059,683.692 391.1567,683.6885 381.1074,683.6759 371.0582,683.6542 361.0089,683.6233 350.9595,683.5833 340.9101,683.5341 330.8607,683.4758 320.8111,683.4083 310.7615,683.3317 300.7118,683.246 290.6619,683.1511 280.6119,683.0471 270.5618,682.934 260.5116,682.8116 250.4611,682.6802 240.4106,682.5396 230.3598,682.3899 220.3088,682.231 210.2577,682.0629 200.2063,681.8857 190.1547,681.6994 180.1028,681.5039 170.0507,681.2993 159.9984,681.0854 149.9457,680.8625 139.8928,680.6304 129.8396,680.3891 119.7861,680.1386 109.7322,679.879 99.6781,679.6103 89.6235,679.3323 79.5687,679.0452 69.5134,678.7489 63.4801,678.5667" stroke="silver" stroke-opacity="0.5" stroke-width="1" /><polyline fill="none" points="733.8328,591.1949 730.2418,591.3057 720.2669,591.6074 710.2924,591.8998 700.3182,592.1829 690.3444,592.4568 680.3708,592.7214 670.3976,592.9767 660.4247,593.2228 650.452,593.4596 640.4796,593.6871 630.5075,593.9054 620.5356,594.1145 610.564,594.3143 600.5926,594.5048 590.6215,594.6861 580.6505,594.8582 570.6797,595.021 560.7091,595.1745 550.7387,595.3189 540.7685,595.4539 530.7984,595.5798 520.8285,595.6963 510.8586,595.8037 500.8889,595.9018 490.9194,595.9906 480.9499,596.0703 470.9805,596.1407 461.0112,596.2018 451.0419,596.2537 441.0727,596.2964 431.1036,596.3298 421.1345,596.354 411.1654,596.369 401.1963,596.3747 391.2272,596.3712 381.2581,596.3585 371.289,596.3365 361.3199,596.3053 351.3507,596.2648 341.3815,596.2151 331.4122,596.1562 321.4428,596.088 311.4733,596.0106 301.5038,595.924 291.5341,595.8281 281.5643,595.7229 271.5944,595.6086 261.6243,595.485 251.6541,595.3521 241.6838,595.21 231.7132,595.0587 221.7425,594.8981 211.7716,594.7283 201.8005,594.5492 191.8291,594.3609 181.8576,594.1633 171.8858,593.9565 161.9137,593.7404 151.9414,593.515 141.9688,593.2804 131.9959,593.0366 122.0228,592.7835 112.0493,592.5211 102.0755,592.2495 92.1014,591.9686 82.127,591.6784 72.1522,591.379 66.1672,591.1949" stroke="silver" stroke-opacity="0.5" stroke-width="1" /><polyline fill="none" points="731.0968,503.8552 727.5352,503.9672 717.6423,504.2719 707.7496,504.5673 697.8573,504.8532 687.9653,505.1299 678.0737,505.3971 668.1823,505.655 658.2911,505.9036 648.4003,506.1428 638.5097,506.3726 628.6194,506.5931 618.7293,506.8043 608.8394,507.0061 598.9497,507.1986 589.0603,507.3817 579.171,507.5555 569.282,507.7199 559.3931,507.8751 549.5044,508.0208 539.6158,508.1573 529.7274,508.2844 519.8391,508.4021 509.9509,508.5105 500.0629,508.6096 490.1749,508.6994 480.2871,508.7798 470.3993,508.8509 460.5117,508.9127 450.624,508.9651 440.7365,509.0082 430.8489,509.042 420.9614,509.0664 411.074,509.0816 401.1865,509.0873 391.299,509.0838 381.4116,509.0709 371.5241,509.0487 361.6366,509.0172 351.749,508.9763 341.8614,508.9261 331.9737,508.8666 322.086,508.7977 312.1981,508.7195 302.3102,508.632 292.4222,508.5352 282.5341,508.429 272.6458,508.3135 262.7574,508.1886 252.8689,508.0544 242.9802,507.9109 233.0914,507.758 223.2024,507.5958 213.3132,507.4243 203.4238,507.2434 193.5342,507.0532 183.6443,506.8536 173.7543,506.6447 163.864,506.4264 153.9735,506.1988 144.0827,505.9618 134.1916,505.7155 124.3003,505.4599 114.4087,505.1949 104.5168,504.9205 94.6245,504.6367 84.732,504.3437 74.8391,504.0412 68.9032,503.8552" stroke="silver" stroke-opacity="0.5" stroke-width="1" /><polyline fill="none" points="728.3113,416.5346 724.7798,416.6477 714.9702,416.9553 705.161,417.2534 695.352,417.5421 685.5434,417.8214 675.735,418.0912 665.9269,418.3515 656.1191,418.6025 646.3115,418.844 636.5042,419.076 626.6971,419.2986 616.8902,419.5118 607.0836,419.7155 597.2771,419.9098 587.4709,420.0947 577.6648,420.2701 567.859,420.4362 558.0532,420.5927 548.2477,420.7399 538.4423,420.8776 528.637,421.0059 518.8318,421.1248 509.0268,421.2343 499.2219,421.3343 489.4171,421.4249 479.6123,421.5061 469.8077,421.5779 460.0031,421.6403 450.1986,421.6932 440.3941,421.7367 430.5897,421.7708 420.7853,421.7955 410.9809,421.8107 401.1765,421.8166 391.3722,421.813 381.5678,421.8 371.7634,421.7776 361.959,421.7458 352.1545,421.7045 342.35,421.6538 332.5454,421.5937 322.7408,421.5242 312.9361,421.4453 303.1313,421.3569 293.3264,421.2592 283.5214,421.152 273.7163,421.0353 263.911,420.9093 254.1056,420.7738 244.3001,420.6289 234.4944,420.4746 224.6886,420.3108 214.8826,420.1377 205.0764,419.955 195.27,419.763 185.4634,419.5615 175.6566,419.3506 165.8495,419.1303 156.0423,418.9005 146.2347,418.6613 136.427,418.4126 126.6189,418.1545 116.8107,417.887 107.0021,417.61 97.1932,417.3236 87.384,417.0277 77.5745,416.7223 71.6887,416.5346" stroke="silver" stroke-opacity="0.5" stroke-width="1" /><polyline fill="none" points="725.4761,329.2197 721.9751,329.3338 712.2504,329.6441 702.526,329.945 692.8019,330.2363 683.0781,330.518 673.3546,330.7903 663.6313,331.053 653.9082,331.3061 644.1854,331.5498 634.4628,331.7839 624.7405,332.0085 615.0183,332.2236 605.2964,332.4292 595.5746,332.6252 585.8531,332.8118 576.1317,332.9888 566.4105,333.1563 556.6894,333.3143 546.9685,333.4628 537.2477,333.6018 527.5271,333.7312 517.8066,333.8512 508.0862,333.9616 498.3659,334.0626 488.6456,334.154 478.9255,334.2359 469.2055,334.3083 459.4855,334.3712 449.7655,334.4247 440.0456,334.4686 430.3258,334.503 420.606,334.5279 410.8862,334.5433 401.1664,334.5492 391.4466,334.5455 381.7268,334.5324 372.007,334.5098 362.2871,334.4777 352.5672,334.4361 342.8473,334.3849 333.1273,334.3243 323.4073,334.2542 313.6872,334.1745 303.967,334.0854 294.2467,333.9867 284.5263,333.8785 274.8058,333.7609 265.0852,333.6337 255.3645,333.497 245.6436,333.3508 235.9226,333.1951 226.2014,333.0299 216.4801,332.8551 206.7585,332.6709 197.0368,332.4771 187.315,332.2738 177.5929,332.061 167.8706,331.8387 158.148,331.6069 148.4253,331.3655 138.7023,331.1146 128.9791,330.8542 119.2556,330.5842 109.5318,330.3048 99.8078,330.0158 90.0835,329.7172 80.3589,329.4091 74.5239,329.2197" stroke="silver" stroke-opacity="0.5" stroke-width="1" /><polyline fill="none" points="722.5906,241.8973 719.1207,242.0123 709.4824,242.3253 699.8444,242.6287 690.2066,242.9224 680.5691,243.2066 670.9319,243.4811 661.2949,243.746 651.6581,244.0013 642.0216,244.2471 632.3853,244.4832 622.7492,244.7097 613.1132,244.9266 603.4775,245.1339 593.842,245.3316 584.2066,245.5197 574.5714,245.6982 564.9363,245.8671 555.3014,246.0265 545.6667,246.1762 536.032,246.3163 526.3975,246.4469 516.7631,246.5679 507.1288,246.6792 497.4946,246.781 487.8605,246.8732 478.2265,246.9559 468.5925,247.0289 458.9586,247.0923 449.3248,247.1462 439.691,247.1905 430.0572,247.2252 420.4235,247.2503 410.7898,247.2658 401.156,247.2717 391.5223,247.2681 381.8886,247.2549 372.2549,247.2321 362.6211,247.1997 352.9873,247.1577 343.3535,247.1061 333.7196,247.045 324.0857,246.9743 314.4516,246.8939 304.8176,246.804 295.1834,246.7045 285.5491,246.5955 275.9147,246.4768 266.2803,246.3485 256.6456,246.2107 247.0109,246.0633 237.376,245.9062 227.741,245.7396 218.1059,245.5634 208.4705,245.3776 198.835,245.1822 189.1994,244.9772 179.5635,244.7626 169.9274,244.5384 160.2911,244.3046 150.6547,244.0612 141.0179,243.8082 131.381,243.5456 121.7438,243.2733 112.1064,242.9915 102.4687,242.7001 92.8307,242.399 83.1925,242.0883 77.4094,241.8973" stroke="silver" stroke-opacity="0.5" stroke-width="1" /><polyline fill="none" points="719.6544,154.5541 716.2162,154.67 706.6658,154.9855 697.1156,155.2913 687.5657,155.5873 678.0161,155.8737 668.4667,156.1504 658.9175,156.4174 649.3685,156.6748 639.8198,156.9224 630.2712,157.1604 620.7228,157.3887 611.1747,157.6073 601.6267,157.8163 592.0788,158.0155 582.5312,158.2051 572.9836,158.3851 563.4363,158.5553 553.889,158.7159 544.3419,158.8668 534.795,159.0081 525.2481,159.1397 515.7013,159.2616 506.1547,159.3739 496.6081,159.4765 487.0616,159.5694 477.5152,159.6527 467.9688,159.7263 458.4225,159.7902 448.8763,159.8445 439.3301,159.8892 429.7839,159.9241 420.2378,159.9494 410.6917,159.9651 401.1455,159.9711 391.5994,159.9674 382.0533,159.9541 372.5071,159.9311 362.961,159.8984 353.4148,159.8561 343.8686,159.8042 334.3223,159.7425 324.7759,159.6712 315.2295,159.5903 305.6831,159.4997 296.1365,159.3994 286.5899,159.2894 277.0431,159.1698 267.4963,159.0406 257.9493,158.9016 248.4023,158.753 238.8551,158.5948 229.3077,158.4268 219.7603,158.2492 210.2126,158.0619 200.6648,157.865 191.1169,157.6584 181.5687,157.4421 172.0204,157.2161 162.4719,156.9804 152.9232,156.7351 143.3743,156.4801 133.8251,156.2154 124.2758,155.941 114.7262,155.657 105.1764,155.3632 95.6263,155.0598 86.0759,154.7466 80.3456,154.5541" stroke="silver" stroke-opacity="0.5" stroke-width="1" /><polyline fill="none" points="716.667,67.1768 713.261,67.2936 703.8,67.6114 694.3393,67.9194 684.8788,68.2177 675.4185,68.5062 665.9585,68.7849 656.4986,69.0539 647.039,69.3132 637.5795,69.5627 628.1202,69.8024 618.6612,70.0324 609.2022,70.2526 599.7435,70.4631 590.2849,70.6638 580.8265,70.8548 571.3682,71.0361 561.91,71.2076 552.452,71.3694 542.9941,71.5214 533.5363,71.6637 524.0786,71.7963 514.621,71.9191 505.1635,72.0322 495.7061,72.1356 486.2487,72.2292 476.7915,72.3131 467.3343,72.3872 457.8771,72.4517 448.42,72.5063 438.9629,72.5513 429.5059,72.5865 420.0488,72.612 410.5918,72.6278 401.1348,72.6338 391.6778,72.6301 382.2208,72.6167 372.7638,72.5935 363.3068,72.5606 353.8497,72.518 344.3926,72.4657 334.9355,72.4036 325.4783,72.3318 316.021,72.2502 306.5637,72.1589 297.1063,72.0579 287.6488,71.9472 278.1912,71.8267 268.7336,71.6964 259.2758,71.5565 249.8179,71.4068 240.3599,71.2473 230.9018,71.0782 221.4435,70.8992 211.9851,70.7106 202.5266,70.5122 193.0679,70.304 183.609,70.0861 174.15,69.8585 164.6907,69.6211 155.2313,69.3739 145.7717,69.117 136.3119,68.8504 126.8519,68.574 117.3917,68.2878 107.9312,67.9919 98.4706,67.6862 89.0096,67.3708 83.333,67.1768" stroke="silver" stroke-opacity="0.5" stroke-width="1" /><circle cx="721.026" cy="439.7527" fill="black" r="0.738" stroke="none" /><circle cx="714.6004" cy="283.7698" fill="black" r="0.738" stroke="none" /><circle cx="723.0759" cy="584.092" fill="black" r="0.738" stroke="none" /><circle cx="710.9818" cy="321.4685" fill="black" r="0.738" stroke="none" /><circle cx="710.9787" cy="632.5332" fill="black" r="0.738" stroke="none" /><circle cx="706.3342" cy="491.4122" fill="black" r="0.738" stroke="none" /><circle cx="682.6377" cy="177.5046" fill="black" r="0.738" stroke="none" /><circle cx="687.0572" cy="377.0628" fill="black" r="0.738" stroke="none" /><circle cx="682.0901" cy="597.396" fill="black" r="0.738" stroke="none" /><circle cx="673.9386" cy="562.9129" fill="black" r="0.738" stroke="none" /><circle cx="673.5251" cy="562.3119" fill="black" r="0.738" stroke="none" /><circle cx="660.686" cy="99.3679" fill="black" r="0.738" stroke="none" /><circle cx="648.2296" cy="189.1285" fill="black" r="0.738" stroke="none" /><circle cx="643.0244" cy="253.4827" fill="black" r="1.17" stroke="none" /><circle cx="646.1043" cy="546.9054" fill="black" r="0.936" stroke="none" /><circle cx="638.3398" cy="238.8344" fill="black" r="0.738" stroke="none" /><circle cx="638.797" cy="337.2708" fill="black" r="1.17" stroke="none" /><circle cx="640.9103" cy="649.1649" fill="black" r="0.738" stroke="none" /><circle cx="626.7493" cy="163.2754" fill="black" r="0.738" stroke="none" /><circle cx="632.1049" cy="443.1946" fill="black" r="0.738" stroke="none" /><circle cx="633.5279" cy="667.9395" fill="black" r="0.738" stroke="none" /><circle cx="633.3784" cy="668.467" fill="black" r="0.738" stroke="none" /><circle cx="624.5767" cy="345.462" fill="black" r="0.738" stroke="none" /><circle cx="620.6848" cy="283.0152" fill="black" r="0.738" stroke="none" /><circle cx="608.0849" cy="581.6966" fill="black" r="0.936" stroke="none" /><circle cx="586.07" cy="117.1576" fill="black" r="0.738" stroke="none" /><circle cx="586.7452" cy="564.6224" fill="black" r="0.738" stroke="none" /><circle cx="580.8171" cy="403.3641" fill="black" r="0.936" stroke="none" /><circle cx="571.2088" cy="238.6847" fill="black" r="0.738" stroke="none" /><circle cx="562.3417" cy="161.5442" fill="black" r="0.738" stroke="none" /><circle cx="566.5025" cy="639.9804" fill="black" r="0.738" stroke="none" /><circle cx="559.3554" cy="418.5646" fill="black" r="0.738" stroke="none" /><circle cx="553.215" cy="443.3639" fill="black" r="0.738" stroke="none" /><circle cx="549.7654" cy="509.6759" fill="black" r="0.738" stroke="none" /><circle cx="550.4802" cy="588.249" fill="black" r="1.17" stroke="none" /><circle cx="536.4818" cy="96.8731" fill="black" r="0.738" stroke="none" /><circle cx="528.9131" cy="131.227" fill="black" r="0.738" stroke="none" /><circle cx="532.9845" cy="617.6464" fill="black" r="0.738" stroke="none" /><circle cx="520.6653" cy="588.2762" fill="black" r="0.936" stroke="none" /><circle cx="516.9765" cy="396.2702" fill="black" r="0.738" stroke="none" /><circle cx="505.1219" cy="303.8794" fill="black" r="0.738" stroke="none" /><circle cx="497.7366" cy="488.2937" fill="black" r="0.738" stroke="none" /><circle cx="496.9879" cy="544.1666" fill="black" r="0.738" stroke="none" /><circle cx="493.5709" cy="464.1546" fill="black" r="0.738" stroke="none" /><circle cx="494.6058" cy="597.967" fill="black" r="0.738" stroke="none" /><circle cx="495.395" cy="726.2608" fill="black" r="0.738" stroke="none" /><circle cx="484.6673" cy="208.1395" fill="black" r="0.738" stroke="none" /><circle cx="460.1887" cy="591.7539" fill="black" r="0.738" stroke="none" /><circle cx="457.259" cy="156.8284" fill="black" r="0.738" stroke="none" /><circle cx="451.3819" cy="185.3273" fill="black" r="0.738" stroke="none" /><circle cx="446.0663" cy="427.2107" fill="black" r="0.738" stroke="none" /><circle cx="444.886" cy="554.8156" fill="black" r="0.738" stroke="none" /><circle cx="442.7662" cy="662.0379" fill="black" r="0.738" stroke="none" /><circle cx="436.6998" cy="485.8076" fill="black" r="0.738" stroke="none" /><circle cx="435.482" cy="213.5116" fill="black" r="0.738" stroke="none" /><circle cx="432.5136" cy="221.4661" fill="black" r="0.936" stroke="none" /><circle cx="431.1336" cy="634.5708" fill="black" r="0.738" stroke="none" /><circle cx="425.1263" cy="401.0161" fill="black" r="0.738" stroke="none" /><circle cx="417.9541" cy="417.5248" fill="black" r="0.738" stroke="none" /><circle cx="413.5895" cy="104.6818" fill="black" r="0.738" stroke="none" /><circle cx="405.9966" cy="623.7869" fill="black" r="0.738" stroke="none" /><circle cx="400.3178" cy="557.0053" fill="black" r="0.738" stroke="none" /><circle cx="396.3768" cy="700.5483" fill="black" r="0.738" stroke="none" /><circle cx="388.8912" cy="542.1608" fill="black" r="0.738" stroke="none" /><circle cx="380.1962" cy="135.2381" fill="black" r="0.738" stroke="none" /><circle cx="368.182" cy="197.1992" fill="black" r="0.738" stroke="none" /><circle cx="361.4674" cy="325.3109" fill="black" r="0.738" stroke="none" /><circle cx="350.972" cy="73.0273" fill="black" r="0.738" stroke="none" /><circle cx="341.9251" cy="613.7668" fill="black" r="0.738" stroke="none" /><circle cx="341.5518" cy="565.0502" fill="black" r="0.738" stroke="none" /><circle cx="341.3186" cy="189.3013" fill="black" r="0.738" stroke="none" /><circle cx="338.5606" cy="505.2415" fill="black" r="0.738" stroke="none" /><circle cx="338.3843" cy="252.837" fill="black" r="0.738" stroke="none" /><circle cx="333.5784" cy="505.2983" fill="black" r="0.738" stroke="none" /><circle cx="328.4226" cy="416.6783" fill="black" r="0.738" stroke="none" /><circle cx="320.6539" cy="584.1213" fill="black" r="0.738" stroke="none" /><circle cx="312.3457" cy="596.6289" fill="black" r="0.738" stroke="none" /><circle cx="305.3219" cy="708.357" fill="black" r="0.738" stroke="none" /><circle cx="305.7084" cy="314.5506" fill="black" r="0.738" stroke="none" /><circle cx="293.9839" cy="526.2715" fill="black" r="0.738" stroke="none" /><circle cx="294.293" cy="418.8253" fill="black" r="0.738" stroke="none" /><circle cx="284.1097" cy="100.7356" fill="black" r="0.738" stroke="none" /><circle cx="276.0306" cy="207.6239" fill="black" r="0.738" stroke="none" /><circle cx="276.3585" cy="135.7529" fill="black" r="0.738" stroke="none" /><circle cx="266.6752" cy="212.3008" fill="black" r="0.738" stroke="none" /><circle cx="261.9003" cy="477.361" fill="black" r="0.738" stroke="none" /><circle cx="261.1523" cy="281.6363" fill="black" r="0.738" stroke="none" /><circle cx="259.4872" cy="361.1413" fill="black" r="0.738" stroke="none" /><circle cx="255.8777" cy="607.6354" fill="black" r="0.738" stroke="none" /><circle cx="254.4262" cy="179.3732" fill="black" r="0.936" stroke="none" /><circle cx="253.8837" cy="179.8016" fill="black" r="1.476" stroke="none" /><circle cx="247.2275" cy="466.5921" fill="black" r="0.738" stroke="none" /><circle cx="243.7386" cy="355.6701" fill="black" r="0.738" stroke="none" /><circle cx="244.9257" cy="231.884" fill="black" r="0.936" stroke="none" /><circle cx="243.5239" cy="148.8899" fill="black" r="0.738" stroke="none" /><circle cx="228.4719" cy="674.4974" fill="black" r="0.738" stroke="none" /><circle cx="210.2158" cy="583.4337" fill="black" r="0.738" stroke="none" /><circle cx="211.1724" cy="159.7411" fill="black" r="0.738" stroke="none" /><circle cx="196.6287" cy="118.5438" fill="black" r="0.738" stroke="none" /><circle cx="182.9083" cy="388.5935" fill="black" r="0.738" stroke="none" /><circle cx="176.3704" cy="691.0429" fill="black" r="0.738" stroke="none" /><circle cx="178.128" cy="543.3347" fill="black" r="0.738" stroke="none" /><circle cx="172.0364" cy="347.0446" fill="black" r="0.738" stroke="none" /><circle cx="151.6092" cy="485.7897" fill="black" r="0.738" stroke="none" /><circle cx="146.3534" cy="442.4235" fill="black" r="0.738" stroke="none" /><circle cx="145.4688" cy="443.1878" fill="black" r="0.738" stroke="none" /><circle cx="139.5143" cy="566.2209" fill="black" r="0.738" stroke="none" /><circle cx="151.8606" cy="82.0503" fill="black" r="0.738" stroke="none" /><circle cx="150.0258" cy="144.9463" fill="black" r="0.738" stroke="none" /><circle cx="140.2341" cy="491.9767" fill="black" r="0.738" stroke="none" /><circle cx="142.0858" cy="221.2052" fill="black" r="0.936" stroke="none" /><circle cx="139.9486" cy="214.8558" fill="black" r="0.936" stroke="none" /><circle cx="124.0565" cy="718.8939" fill="black" r="0.738" stroke="none" /><circle cx="120.6846" cy="654.2836" fill="black" r="0.738" stroke="none" /><circle cx="136.2141" cy="72.2584" fill="black" r="0.738" stroke="none" /><circle cx="130.7868" cy="182.44" fill="black" r="0.738" stroke="none" /><circle cx="112.5797" cy="337.9953" fill="black" r="0.738" stroke="none" /><circle cx="102.4099" cy="336.7354" fill="black" r="0.738" stroke="none" /><circle cx="89.2465" cy="399.7811" fill="black" r="0.936" stroke="none" /><circle cx="79.5704" cy="380.9513" fill="black" r="0.738" stroke="none" /><circle cx="79.8976" cy="248.3619" fill="black" r="1.17" stroke="none" /><circle cx="13.77" cy="786.23" fill="black" r="4.59" stroke="none" /><circle cx="13.77" cy="786.23" fill="black" r="4.59" stroke="none" /><text fill="black" font-family="monospace" font-size="12" x="10.77" y="775.64">1</text><circle cx="37.77" cy="786.23" fill="black" r="3.654" stroke="none" /><circle cx="37.77" cy="786.23" fill="black" r="3.654" stroke="none" /><text fill="black" font-family="monospace" font-size="12" x="34.769999999999996" y="775.64">2</text><circle cx="61.77" cy="786.23" fill="black" r="2.916" stroke="none" /><circle cx="61.77" cy="786.23" fill="black" r="2.916" stroke="none" /><text fill="black" font-family="monospace" font-size="12" x="58.769999999999996" y="775.64">3</text><circle cx="85.77" cy="786.23" fill="black" r="2.322" stroke="none" /><circle cx="85.77" cy="786.23" fill="black" r="2.322" stroke="none" /><text fill="black" font-family="monospace" font-size="12" x="82.77" y="775.64">4</text><circle cx="109.77" cy="786.23" fill="black" r="1.854" stroke="none" /><circle cx="109.77" cy="786.23" fill="black" r="1.854" stroke="none" /><text fill="black" font-family="monospace" font-size="12" x="106.77" y="775.64">5</text><circle cx="133.77" cy="786.23" fill="black" r="1.476" stroke="none" /><circle cx="133.77" cy="786.23" fill="black" r="1.476" stroke="none" /><text fill="black" font-family="monospace" font-size="12" x="130.77" y="775.64">6</text><circle cx="157.77" cy="786.23" fill="black" r="1.17" stroke="none" /><circle cx="157.77" cy="786.23" fill="black" r="1.17" stroke="none" /><text fill="black" font-family="monospace" font-size="12" x="154.77" y="775.64">7</text><circle cx="181.77" cy="786.23" fill="black" r="0.936" stroke="none" /><circle cx="181.77" cy="786.23" fill="black" r="0.936" stroke="none" /><text fill="black" font-family="monospace" font-size="12" x="178.77" y="775.64">8</text><circle cx="205.77" cy="786.23" fill="black" r="0.738" stroke="none" /><circle cx="205.77" cy="786.23" fill="black" r="0.738" stroke="none" /><text fill="black" font-family="monospace" font-size="12" x="202.77" y="775.64">9</text><text fill="gray" fill-opacity="0.5" font-family="monospace" font-size="12" x="683.7394689061655" y="723.7710689221212">08h25m</text><text fill="gray" fill-opacity="0.5" font-family="monospace" font-size="12" x="582.8200097178328" y="725.8737553851558">08h30m</text><text fill="gray" fill-opacity="0.5" font-family="monospace" font-size="12" x="481.9217999552497" y="727.0664648714226">08h35m</text><text fill="gray" fill-opacity="0.5" font-family="monospace" font-size="12" x="381.03311305784814" y="727.3500426204108">08h40m</text><text fill="gray" fill-opacity="0.5" font-family="monospace" font-size="12" x="280.14222133193744" y="726.724689563943">08h45m</text><text fill="gray" fill-opacity="0.5" font-family="monospace" font-size="12" x="179.23739734571302" y="725.1899625857278">08h50m</text><text fill="gray" fill-opacity="0.5" font-family="monospace" font-size="12" x="78.3069153287127" y="722.7447739489501">08h55m</text><text fill="gray" fill-opacity="0.5" font-family="monospace" font-size="12" x="63.480125895680146" y="678.5667478452463">+23°</text><text fill="gray" fill-opacity="0.5" font-family="monospace" font-size="12" x="66.16717481135521" y="591.1948569614149">+24°</text><text fill="gray" fill-opacity="0.5" font-family="monospace" font-size="12" x="68.90324031218302" y="503.8552334814606">+25°</text><text fill="gray" fill-opacity="0.5" font-family="monospace" font-size="12" x="71.68869682781576" y="416.5346055115809">+26°</text><text fill="gray" fill-opacity="0.5" font-family="monospace" font-size="12" x="74.52394885402254" y="329.2197126824234">+27°</text><text fill="gray" fill-opacity="0.5" font-family="monospace" font-size="12" x="77.40943118114279" y="241.89729810558998">+28°</text><text fill="gray" fill-opacity="0.5" font-family="monospace" font-size="12" x="80.34560916169113" y="154.5541003346308">+29°</text><text fill="gray" fill-opacity="0.5" font-family="monospace" font-size="12" x="83.33297901746278" y="67.17684532016995">+30°</text><text fill="black" font-family="monospace" font-size="12" x="12" y="48">&gt;&gt; No.564 08h22m 08h56m +22.5°+30.0°</text><a target="_self" xlink:href="hip034.svg"><text fill="black" font-family="monospace" font-size="12" x="12" y="36">&gt; No.34 06h00m 09h00m +22.5°+52.5°</text></a><a target="_self" xlink:href="hip002.svg"><text fill="black" font-family="monospace" font-size="12" x="12" y="24">No.2 00h 24h +0.0°+90.0°</text></a><polyline fill="none" points="716.667,67.1768 713.261,67.2936 703.8,67.6114 694.3393,67.9194 684.8788,68.2177 675.4185,68.5062 665.9585,68.7849 656.4986,69.0539 647.039,69.3132 637.5795,69.5627 628.1202,69.8024 618.6612,70.0324 609.2022,70.2526 599.7435,70.4631 590.2849,70.6638 580.8265,70.8548 571.3682,71.0361 561.91,71.2076 552.452,71.3694 542.9941,71.5214 533.5363,71.6637 524.0786,71.7963 514.621,71.9191 505.1635,72.0322 495.7061,72.1356 486.2487,72.2292 476.7915,72.3131 467.3343,72.3872 457.8771,72.4517 448.42,72.5063 438.9629,72.5513 429.5059,72.5865 420.0488,72.612 410.5918,72.6278 401.1348,72.6338 391.6778,72.6301 382.2208,72.6167 372.7638,72.5935 363.3068,72.5606 353.8497,72.518 344.3926,72.4657 334.9355,72.4036 325.4783,72.3318 316.021,72.2502 306.5637,72.1589 297.1063,72.0579 287.6488,71.9472 278.1912,71.8267 268.7336,71.6964 259.2758,71.5565 249.8179,71.4068 240.3599,71.2473 230.9018,71.0782 221.4435,70.8992 211.9851,70.7106 202.5266,70.5122 193.0679,70.304 183.609,70.0861 174.15,69.8585 164.6907,69.6211 155.2313,69.3739 145.7717,69.117 136.3119,68.8504 126.8519,68.574 117.3917,68.2878 107.9312,67.9919 98.4706,67.6862 89.0096,67.3708 83.333,67.1768" stroke="black" stroke-opacity="0.5" stroke-width="1" /><polyline fill="none" points="737.8451,722.2689 737.515,711.3422 737.184,700.4163 736.8523,689.4912 736.5199,678.5667 736.1867,667.643 735.8527,656.72 735.518,645.7977 735.1825,634.8759 734.8462,623.9548 734.5092,613.0343 734.1714,602.1143 733.8328,591.1949 733.4935,580.2759 733.1534,569.3574 732.8126,558.4394 732.4709,547.5218 732.1286,536.6047 731.7854,525.6878 731.4415,514.7714 731.0968,503.8552 730.7513,492.9394 730.405,482.0238 730.058,471.1085 729.7102,460.1934 729.3617,449.2785 729.0123,438.3637 728.6622,427.4491 728.3113,416.5346 727.9596,405.6202 727.6072,394.7059 727.2539,383.7916 726.8999,372.8773 726.5451,361.963 726.1896,351.0486 725.8332,340.1342 725.4761,329.2197 725.1181,318.3051 724.7594,307.3903 724.3999,296.4754 724.0396,285.5603 723.6785,274.6449 723.3167,263.7293 722.954,252.8135 722.5906,241.8973 722.2263,230.9808 721.8613,220.064 721.4955,209.1467 721.1288,198.2291 720.7614,187.3111 720.3932,176.3926 720.0242,165.4736 719.6544,154.5541 719.2838,143.6341 718.9124,132.7135 718.5402,121.7923 718.1671,110.8706 717.7933,99.9482 717.4187,89.0251 717.0433,78.1013 716.667,67.1768" stroke="black" stroke-opacity="0.5" stroke-width="1" /><polyline fill="none" points="737.8451,722.2689 734.2108,722.378 724.1158,722.6749 714.0212,722.9626 703.9269,723.2412 693.833,723.5107 683.7395,723.7711 673.6462,724.0223 663.5533,724.2645 653.4607,724.4975 643.3684,724.7214 633.2764,724.9362 623.1846,725.1419 613.0931,725.3386 603.0018,725.5261 592.9108,725.7045 582.82,725.8738 572.7294,726.034 562.639,726.1851 552.5488,726.3271 542.4588,726.46 532.369,726.5838 522.2793,726.6985 512.1897,726.8041 502.1003,726.9007 492.011,726.9881 481.9218,727.0665 471.8327,727.1357 461.7437,727.1959 451.6547,727.247 441.5658,727.289 431.477,727.3219 421.3882,727.3457 411.2994,727.3604 401.2107,727.366 391.1219,727.3626 381.0331,727.35 370.9443,727.3284 360.8555,727.2977 350.7666,727.2579 340.6777,727.209 330.5887,727.151 320.4996,727.0839 310.4104,727.0077 300.3211,726.9225 290.2317,726.8281 280.1422,726.7247 270.0526,726.6122 259.9627,726.4905 249.8728,726.3598 239.7826,726.22 229.6923,726.0711 219.6017,725.913 209.511,725.7459 199.42,725.5697 189.3288,725.3844 179.2374,725.19 169.1457,724.9864 159.0537,724.7738 148.9615,724.5521 138.8689,724.3212 128.7761,724.0813 118.6829,723.8322 108.5895,723.574 98.4956,723.3067 88.4015,723.0303 78.3069,722.7448 68.212,722.4501 62.1549,722.2689" stroke="black" stroke-opacity="0.5" stroke-width="1" /><polyline fill="none" points="62.1549,722.2689 62.485,711.3422 62.816,700.4163 63.1477,689.4912 63.4801,678.5667 63.8133,667.643 64.1473,656.72 64.482,645.7977 64.8175,634.8759 65.1538,623.9548 65.4908,613.0343 65.8286,602.1143 66.1672,591.1949 66.5065,580.2759 66.8466,569.3574 67.1874,558.4394 67.5291,547.5218 67.8714,536.6047 68.2146,525.6878 68.5585,514.7714 68.9032,503.8552 69.2487,492.9394 69.595,482.0238 69.942,471.1085 70.2898,460.1934 70.6383,449.2785 70.9877,438.3637 71.3378,427.4491 71.6887,416.5346 72.0404,405.6202 72.3928,394.7059 72.7461,383.7916 73.1001,372.8773 73.4549,361.963 73.8104,351.0486 74.1668,340.1342 74.5239,329.2197 74.8819,318.3051 75.2406,307.3903 75.6001,296.4754 75.9604,285.5603 76.3215,274.6449 76.6833,263.7293 77.046,252.8135 77.4094,241.8973 77.7737,230.9808 78.1387,220.064 78.5045,209.1467 78.8712,198.2291 79.2386,187.3111 79.6068,176.3926 79.9758,165.4736 80.3456,154.5541 80.7162,143.6341 81.0876,132.7135 81.4598,121.7923 81.8329,110.8706 82.2067,99.9482 82.5813,89.0251 82.9567,78.1013 83.333,67.1768" stroke="black" stroke-opacity="0.5" stroke-width="1" /></svg>