<?xml version="1.0" encoding="utf-8" ?>
<svg baseProfile="tiny" height="800" version="1.2" width="800" xmlns="http://www.w3.org/2000/svg" xmlns:ev="http://www.w3.org/2001/xml-events" xmlns:xlink="http://www.w3.org/1999/xlink"><defs /><rect fill="none" height="800" stroke="black" stroke-width="2" width="800" x="0" y="0" /><polyline fill="none" points="674.8574,723.9927 674.5889,713.0683 674.3198,702.1448 674.05,691.222 673.7796,680.3 673.5086,669.3786 673.237,658.4579 672.9648,647.5379 672.692,636.6185 672.4185,625.6997 672.1444,614.7814 671.8697,603.8637 671.5944,592.9465 671.3184,582.0298 671.0418,571.1136 670.7646,560.1978 670.4868,549.2825 670.2083,538.3675 669.9293,527.4528 669.6495,516.5386 669.3692,505.6246 669.0883,494.7109 668.8067,483.7974 668.5244,472.8842 668.2416,461.9712 667.9581,451.0584 667.674,440.1458 667.3893,429.2332 667.1039,418.3208 666.8179,407.4084 666.5312,396.4961 666.244,385.5839 665.956,374.6716 665.6675,363.7593 665.3783,352.8469 665.0885,341.9345 664.798,331.0219 664.5069,320.1093 664.2152,309.1964 663.9228,298.2834 663.6298,287.3702 663.3362,276.4568 663.0419,265.5431 662.7469,254.6291 662.4513,243.7147 662.1551,232.8001 661.8582,221.8851 661.5607,210.9697 661.2625,200.0539 660.9637,189.1376 660.6643,178.2209 660.3641,167.3037 660.0634,156.3859 659.762,145.4676 659.4599,134.5488 659.1572,123.6293 658.8538,112.7092 658.5498,101.7885 658.2451,90.8671 657.9398,79.945 657.6338,69.0222" stroke="silver" stroke-opacity="0.5" stroke-width="1" /><polyline fill="none" points="573.9403,726.0152 573.7704,715.0937 573.6002,704.173 573.4296,693.253 573.2585,682.3337 573.0871,671.4151 572.9153,660.4972 572.7431,649.5799 572.5705,638.6632 572.3975,627.7471 572.2241,616.8315 572.0504,605.9165 571.8762,595.0019 571.7016,584.0879 571.5267,573.1743 571.3513,562.2611 571.1756,551.3483 570.9994,540.4359 570.8229,529.5239 570.646,518.6121 570.4686,507.7007 570.2909,496.7895 570.1128,485.8786 569.9343,474.9679 569.7553,464.0574 569.576,453.147 569.3963,442.2368 569.2162,431.3267 569.0357,420.4167 568.8547,409.5068 568.6734,398.5969 568.4917,387.687 568.3096,376.7771 568.127,365.8671 567.9441,354.9571 567.7608,344.0469 567.577,333.1367 567.3929,322.2263 567.2083,311.3158 567.0234,300.405 566.838,289.494 566.6523,278.5828 566.4661,267.6713 566.2795,256.7595 566.0925,245.8474 565.9051,234.9349 565.7173,224.022 565.5291,213.1087 565.3405,202.195 565.1515,191.2809 564.9621,180.3662 564.7722,169.4511 564.5819,158.5354 564.3913,147.6192 564.2002,136.7023 564.0087,125.7849 563.8168,114.8668 563.6245,103.9481 563.4317,93.0286 563.2386,82.1085 563.045,71.1875" stroke="silver" stroke-opacity="0.5" stroke-width="1" /><polyline fill="none" points="473.0434,727.1279 472.9721,716.2079 472.9006,705.2888 472.829,694.3703 472.7572,683.4525 472.6852,672.5355 472.6131,661.619 472.5408,650.7032 472.4683,639.788 472.3957,628.8734 472.3229,617.9593 472.2499,607.0458 472.1768,596.1327 472.1035,585.2201 472.0301,574.3079 471.9565,563.3962 471.8827,552.4849 471.8087,541.5739 471.7346,530.6632 471.6603,519.7529 471.5859,508.8429 471.5113,497.9331 471.4365,487.0236 471.3615,476.1142 471.2864,465.2051 471.2111,454.2961 471.1357,443.3872 471.06,432.4785 470.9842,421.5698 470.9083,410.6612 470.8322,399.7526 470.7559,388.844 470.6794,377.9354 470.6028,367.0267 470.526,356.118 470.449,345.2091 470.3719,334.3001 470.2945,323.391 470.2171,312.4817 470.1394,301.5722 470.0616,290.6624 469.9836,279.7524 469.9054,268.8422 469.8271,257.9316 469.7486,247.0206 469.6699,236.1093 469.5911,225.1977 469.5121,214.2856 469.4329,203.373 469.3535,192.46 469.274,181.5465 469.1943,170.6325 469.1144,159.718 469.0343,148.8028 468.9541,137.8871 468.8737,126.9708 468.7932,116.0538 468.7124,105.1361 468.6315,94.2178 468.5504,83.2987 468.4691,72.3788" stroke="silver" stroke-opacity="0.5" stroke-width="1" /><polyline fill="none" points="372.155,727.3315 372.1822,716.4118 372.2094,705.4929 372.2367,694.5747 372.2641,683.6573 372.2915,672.7405 372.319,661.8243 372.3466,650.9088 372.3742,639.9939 372.4019,629.0795 372.4296,618.1657 372.4574,607.2524 372.4853,596.3396 372.5132,585.4273 372.5412,574.5154 372.5693,563.6039 372.5974,552.6928 372.6256,541.7821 372.6539,530.8717 372.6822,519.9617 372.7106,509.0519 372.739,498.1423 372.7675,487.2331 372.7961,476.324 372.8247,465.4151 372.8534,454.5063 372.8822,443.5977 372.911,432.6892 372.9399,421.7808 372.9689,410.8724 372.9979,399.964 373.027,389.0557 373.0561,378.1473 373.0853,367.2389 373.1146,356.3304 373.1439,345.4218 373.1733,334.513 373.2028,323.6041 373.2324,312.695 373.262,301.7858 373.2916,290.8762 373.3213,279.9665 373.3511,269.0564 373.381,258.146 373.4109,247.2353 373.4409,236.3242 373.471,225.4128 373.5011,214.5009 373.5313,203.5886 373.5615,192.6758 373.5919,181.7625 373.6222,170.8487 373.6527,159.9344 373.6832,149.0194 373.7138,138.1039 373.7444,127.1878 373.7751,116.271 373.8059,105.3535 373.8368,94.4354 373.8677,83.5165 373.8987,72.5968" stroke="silver" stroke-opacity="0.5" stroke-width="1" /><polyline fill="none" points="271.2633,726.6261 271.389,715.7055 271.515,704.7856 271.6413,693.8665 271.7678,682.948 271.8947,672.0302 272.0218,661.1131 272.1493,650.1967 272.277,639.2808 272.405,628.3655 272.5333,617.4507 272.6619,606.5365 272.7908,595.6228 272.92,584.7095 273.0494,573.7967 273.1792,562.8843 273.3093,551.9724 273.4396,541.0607 273.5703,530.1495 273.7012,519.2385 273.8324,508.3278 273.9639,497.4174 274.0958,486.5073 274.2279,475.5973 274.3603,464.6875 274.493,453.7779 274.626,442.8685 274.7593,431.9591 274.8929,421.0498 275.0268,410.1406 275.1609,399.2314 275.2954,388.3222 275.4302,377.413 275.5653,366.5038 275.7007,355.5945 275.8363,344.685 275.9723,333.7755 276.1086,322.8658 276.2451,311.9559 276.382,301.0459 276.5192,290.1356 276.6566,279.225 276.7944,268.3142 276.9325,257.403 277.0709,246.4916 277.2095,235.5797 277.3485,224.6675 277.4878,213.7549 277.6274,202.8418 277.7673,191.9283 277.9075,181.0143 278.048,170.0998 278.1887,159.1847 278.3299,148.2691 278.4713,137.3528 278.613,126.436 278.755,115.5185 278.8973,104.6004 279.04,93.6815 279.1829,82.762 279.3261,71.8416" stroke="silver" stroke-opacity="0.5" stroke-width="1" /><polyline fill="none" points="170.3567,725.0113 170.581,714.0884 170.8058,703.1663 171.0312,692.245 171.257,681.3243 171.4834,670.4043 171.7102,659.485 171.9376,648.5664 172.1655,637.6483 172.394,626.7309 172.6229,615.814 172.8524,604.8976 173.0824,593.9818 173.3129,583.0664 173.5439,572.1515 173.7755,561.237 174.0076,550.323 174.2402,539.4093 174.4733,528.4959 174.7069,517.5829 174.9411,506.6702 175.1758,495.7578 175.411,484.8456 175.6468,473.9337 175.883,463.022 176.1198,452.1104 176.3572,441.199 176.595,430.2876 176.8334,419.3764 177.0723,408.4653 177.3117,397.5542 177.5517,386.6431 177.7922,375.732 178.0332,364.8209 178.2748,353.9097 178.5169,342.9984 178.7595,332.0871 179.0027,321.1755 179.2464,310.2639 179.4906,299.352 179.7354,288.4399 179.9807,277.5276 180.2265,266.615 180.4729,255.7021 180.7198,244.7889 180.9672,233.8753 181.2152,222.9614 181.4638,212.047 181.7128,201.1323 181.9624,190.2171 182.2126,179.3014 182.4633,168.3852 182.7145,157.4685 182.9663,146.5513 183.2186,135.6334 183.4715,124.715 183.7249,113.7959 183.9789,102.8762 184.2334,91.9558 184.4885,81.0346 184.7441,70.1128" stroke="silver" stroke-opacity="0.5" stroke-width="1" /><polyline fill="none" points="69.4234,722.486 69.7465,711.5596 70.0703,700.6339 70.3948,689.7091 70.7201,678.785 71.0461,667.8615 71.3729,656.9388 71.7004,646.0168 72.0287,635.0953 72.3577,624.1745 72.6874,613.2542 73.018,602.3346 73.3492,591.4154 73.6812,580.4967 74.014,569.5785 74.3475,558.6608 74.6817,547.7435 75.0167,536.8266 75.3525,525.9101 75.689,514.9939 76.0263,504.078 76.3643,493.1624 76.7031,482.2471 77.0426,471.332 77.3829,460.4172 77.724,449.5026 78.0658,438.5881 78.4084,427.6737 78.7517,416.7595 79.0958,405.8453 79.4406,394.9313 79.7863,384.0172 80.1326,373.1032 80.4798,362.1891 80.8277,351.275 81.1764,340.3609 81.5258,329.4466 81.876,318.5322 82.227,307.6177 82.5788,296.703 82.9313,285.7881 83.2846,274.873 83.6387,263.9577 83.9935,253.042 84.3491,242.1261 84.7055,231.2098 85.0627,220.2932 85.4206,209.3762 85.7793,198.4589 86.1388,187.541 86.4991,176.6228 86.8602,165.704 87.222,154.7847 87.5846,143.8649 87.948,132.9446 88.3122,122.0236 88.6772,111.102 89.043,100.1798 89.4095,89.257 89.7768,78.3334 90.145,67.4092" stroke="silver" stroke-opacity="0.5" stroke-width="1" /><polyline fill="none" points="736.5199,678.5667 734.1065,678.64 724.0512,678.9396 713.9962,679.23 703.9415,679.5113 693.8872,679.7833 683.8333,680.0462 673.7796,680.3 663.7263,680.5446 653.6733,680.78 643.6205,681.0062 633.5681,681.2233 623.5159,681.4313 613.464,681.6301 603.4123,681.8197 593.3608,682.0002 583.3096,682.1715 573.2585,682.3337 563.2077,682.4867 553.157,682.6306 543.1066,682.7654 533.0563,682.891 523.0061,683.0074 512.9561,683.1147 502.9062,683.2129 492.8564,683.3019 482.8067,683.3818 472.7572,683.4525 462.7077,683.5141 452.6582,683.5666 442.6089,683.6099 432.5596,683.6441 422.5103,683.6691 412.4611,683.685 402.4118,683.6918 392.3626,683.6894 382.3133,683.6779 372.2641,683.6573 362.2148,683.6275 352.1655,683.5885 342.1161,683.5405 332.0666,683.4833 322.0171,683.4169 311.9674,683.3414 301.9177,683.2568 291.8679,683.163 281.8179,683.0601 271.7678,682.948 261.7176,682.8268 251.6672,682.6965 241.6166,682.557 231.5659,682.4083 221.515,682.2505 211.4638,682.0836 201.4125,681.9075 191.3609,681.7222 181.3091,681.5278 171.257,681.3243 161.2047,681.1116 151.1521,680.8897 141.0992,680.6587 131.046,680.4185 120.9925,680.1692 110.9387,679.9107 100.8846,679.643 90.8301,679.3662 80.7753,679.0801 70.7201,678.785 63.4801,678.5667" stroke="silver" stroke-opacity="0.5" stroke-width="1" /><polyline fill="none" points="733.8328,591.1949 731.4388,591.2689 721.4639,591.5717 711.4893,591.8652 701.5151,592.1494 691.5412,592.4244 681.5676,592.6901 671.5944,592.9465 661.6214,593.1937 651.6487,593.4316 641.6763,593.6603 631.7041,593.8797 621.7323,594.0899 611.7606,594.2908 601.7892,594.4825 591.818,594.6649 581.847,594.838 571.8762,595.0019 561.9056,595.1566 551.9352,595.302 541.9649,595.4382 531.9948,595.5651 522.0248,595.6828 512.055,595.7913 502.0853,595.8905 492.1157,595.9805 482.1462,596.0612 472.1768,596.1327 462.2075,596.195 452.2382,596.248 442.269,596.2918 432.2999,596.3263 422.3308,596.3516 412.3617,596.3677 402.3926,596.3745 392.4235,596.3721 382.4544,596.3605 372.4853,596.3396 362.5162,596.3095 352.547,596.2701 342.5778,596.2216 332.6085,596.1637 322.6391,596.0967 312.6697,596.0204 302.7001,595.9348 292.7305,595.8401 282.7607,595.736 272.7908,595.6228 262.8208,595.5003 252.8506,595.3685 242.8802,595.2276 232.9097,595.0773 222.939,594.9179 212.9681,594.7491 202.997,594.5712 193.0257,594.384 183.0542,594.1875 173.0824,593.9818 163.1104,593.7668 153.1381,593.5426 143.1655,593.3091 133.1927,593.0663 123.2196,592.8143 113.2462,592.5531 103.2724,592.2826 93.2984,592.0028 83.324,591.7137 73.3492,591.4154 66.1672,591.1949" stroke="silver" stroke-opacity="0.5" stroke-width="1" /><polyline fill="none" points="731.0968,503.8552 728.7224,503.93 718.8294,504.2359 708.9367,504.5323 699.0444,504.8194 689.1524,505.0972 679.2606,505.3655 669.3692,505.6246 659.4781,505.8743 649.5872,506.1146 639.6966,506.3456 629.8062,506.5672 619.9161,506.7795 610.0262,506.9824 600.1365,507.176 590.247,507.3602 580.3577,507.5351 570.4686,507.7007 560.5797,507.8569 550.691,508.0038 540.8024,508.1414 530.914,508.2696 521.0257,508.3885 511.1375,508.498 501.2494,508.5982 491.3615,508.6891 481.4736,508.7707 471.5859,508.8429 461.6982,508.9058 451.8105,508.9593 441.923,509.0035 432.0354,509.0384 422.1479,509.064 412.2605,509.0802 402.373,509.0871 392.4855,509.0847 382.5981,509.073 372.7106,509.0519 362.8231,509.0215 352.9355,508.9817 343.0479,508.9326 333.1602,508.8742 323.2725,508.8065 313.3847,508.7294 303.4968,508.643 293.6088,508.5473 283.7207,508.4422 273.8324,508.3278 263.9441,508.2041 254.0555,508.071 244.1669,507.9286 234.2781,507.7769 224.3891,507.6158 214.4999,507.4454 204.6105,507.2656 194.7209,507.0765 184.8311,506.878 174.9411,506.6702 165.0508,506.4531 155.1604,506.2266 145.2696,505.9908 135.3786,505.7456 125.4873,505.491 115.5957,505.2271 105.7038,504.9539 95.8116,504.6713 85.9191,504.3793 76.0263,504.078 68.9032,503.8552" stroke="silver" stroke-opacity="0.5" stroke-width="1" /><polyline fill="none" points="728.3113,416.5346 725.957,416.6101 716.1474,416.9188 706.3381,417.2181 696.5291,417.508 686.7204,417.7884 676.912,418.0593 667.1039,418.3208 657.296,418.5729 647.4884,418.8155 637.6811,419.0487 627.8739,419.2724 618.0671,419.4867 608.2604,419.6916 598.4539,419.887 588.6476,420.073 578.8416,420.2496 569.0357,420.4167 559.2299,420.5744 549.4243,420.7227 539.6189,420.8616 529.8136,420.991 520.0085,421.1111 510.2034,421.2216 500.3985,421.3228 490.5937,421.4146 480.7889,421.4969 470.9842,421.5698 461.1797,421.6333 451.3751,421.6873 441.5706,421.732 431.7662,421.7672 421.9618,421.793 412.1574,421.8094 402.353,421.8164 392.5487,421.8139 382.7443,421.8021 372.9399,421.7808 363.1355,421.7501 353.331,421.7099 343.5265,421.6604 333.722,421.6014 323.9173,421.5331 314.1126,421.4553 304.3078,421.368 294.503,421.2714 284.698,421.1653 274.8929,421.0498 265.0876,420.9249 255.2823,420.7906 245.4768,420.6468 235.6711,420.4936 225.8653,420.331 216.0593,420.1589 206.2531,419.9775 196.4468,419.7866 186.6402,419.5862 176.8334,419.3764 167.0264,419.1572 157.2191,418.9286 147.4117,418.6905 137.6039,418.443 127.7959,418.186 117.9877,417.9196 108.1791,417.6437 98.3703,417.3584 88.5611,417.0637 78.7517,416.7595 71.6887,416.5346" stroke="silver" stroke-opacity="0.5" stroke-width="1" /><polyline fill="none" points="725.4761,329.2197 723.1421,329.2959 713.4174,329.6074 703.6929,329.9094 693.9688,330.2018 684.245,330.4847 674.5214,330.7581 664.798,331.0219 655.075,331.2763 645.3521,331.5211 635.6295,331.7563 625.9071,331.9821 616.185,332.1983 606.463,332.405 596.7412,332.6022 587.0197,332.7899 577.2983,332.9681 567.577,333.1367 557.8559,333.2958 548.135,333.4455 538.4142,333.5856 528.6936,333.7162 518.973,333.8373 509.2526,333.9489 499.5323,334.0509 489.8121,334.1435 480.0919,334.2266 470.3719,334.3001 460.6519,334.3642 450.9319,334.4187 441.212,334.4638 431.4922,334.4993 421.7723,334.5254 412.0525,334.5419 402.3327,334.5489 392.613,334.5465 382.8932,334.5345 373.1733,334.513 363.4535,334.482 353.7336,334.4416 344.0137,334.3916 334.2937,334.3321 324.5737,334.2631 314.8536,334.1846 305.1334,334.0966 295.4132,333.999 285.6928,333.892 275.9723,333.7755 266.2517,333.6495 256.531,333.5139 246.8101,333.3688 237.0891,333.2143 227.368,333.0502 217.6466,332.8766 207.9251,332.6935 198.2035,332.5009 188.4816,332.2987 178.7595,332.0871 169.0372,331.8659 159.3147,331.6352 149.592,331.395 139.8691,331.1452 130.1459,330.8859 120.4224,330.6171 110.6987,330.3388 100.9747,330.0509 91.2504,329.7535 81.5258,329.4466 74.5239,329.2197" stroke="silver" stroke-opacity="0.5" stroke-width="1" /><polyline fill="none" points="722.5906,241.8973 720.2773,241.9741 710.639,242.2883 701.0009,242.5928 691.3632,242.8877 681.7256,243.173 672.0884,243.4487 662.4513,243.7147 652.8145,243.9712 643.178,244.2181 633.5416,244.4553 623.9055,244.683 614.2695,244.901 604.6338,245.1095 594.9982,245.3084 585.3628,245.4976 575.7276,245.6773 566.0925,245.8474 556.4576,246.0078 546.8228,246.1587 537.1882,246.3 527.5537,246.4317 517.9193,246.5539 508.285,246.6664 498.6507,246.7693 489.0166,246.8627 479.3826,246.9465 469.7486,247.0206 460.1147,247.0852 450.4809,247.1402 440.847,247.1857 431.2133,247.2215 421.5795,247.2478 411.9458,247.2644 402.3121,247.2715 392.6784,247.269 383.0447,247.257 373.4109,247.2353 363.7772,247.2041 354.1434,247.1632 344.5096,247.1128 334.8757,247.0528 325.2417,246.9833 315.6077,246.9041 305.9736,246.8153 296.3395,246.717 286.7052,246.6091 277.0709,246.4916 267.4364,246.3644 257.8018,246.2278 248.1671,246.0815 238.5322,245.9256 228.8972,245.7601 219.2621,245.5851 209.6268,245.4004 199.9913,245.2062 190.3556,245.0023 180.7198,244.7889 171.0838,244.5658 161.4475,244.3332 151.811,244.0909 142.1744,243.839 132.5374,243.5776 122.9003,243.3065 113.2629,243.0258 103.6252,242.7355 93.9873,242.4356 84.3491,242.1261 77.4094,241.8973" stroke="silver" stroke-opacity="0.5" stroke-width="1" /><polyline fill="none" points="719.6544,154.5541 717.3622,154.6315 707.8118,154.9482 698.2616,155.2551 688.7117,155.5523 679.162,155.8399 669.6126,156.1177 660.0634,156.3859 650.5144,156.6444 640.9656,156.8932 631.417,157.1324 621.8686,157.3618 612.3204,157.5816 602.7724,157.7917 593.2246,157.9921 583.6769,158.1829 574.1293,158.364 564.5819,158.5354 555.0347,158.6972 545.4876,158.8492 535.9406,158.9917 526.3937,159.1244 516.8469,159.2475 507.3003,159.3609 497.7537,159.4647 488.2072,159.5588 478.6608,159.6432 469.1144,159.718 459.5681,159.7831 450.0219,159.8385 440.4756,159.8843 430.9295,159.9204 421.3833,159.9469 411.8372,159.9637 402.2911,159.9709 392.7449,159.9684 383.1988,159.9562 373.6527,159.9344 364.1065,159.9029 354.5603,159.8617 345.0141,159.8109 335.4678,159.7504 325.9215,159.6803 316.3751,159.6005 306.8286,159.511 297.2821,159.4119 287.7355,159.3031 278.1887,159.1847 268.6419,159.0566 259.095,158.9188 249.5479,158.7714 240.0007,158.6143 230.4534,158.4475 220.906,158.271 211.3584,158.0849 201.8106,157.8891 192.2626,157.6837 182.7145,157.4685 173.1662,157.2437 163.6177,157.0092 154.0691,156.7651 144.5202,156.5112 134.9711,156.2477 125.4217,155.9745 115.8722,155.6916 106.3224,155.399 96.7723,155.0967 87.222,154.7847 80.3456,154.5541" stroke="silver" stroke-opacity="0.5" stroke-width="1" /><polyline fill="none" points="716.667,67.1768 714.3963,67.2548 704.9353,67.5738 695.4746,67.883 686.014,68.1824 676.5537,68.4721 667.0937,68.752 657.6338,69.0222 648.1741,69.2826 638.7146,69.5332 629.2553,69.7741 619.7962,70.0053 610.3373,70.2267 600.8785,70.4384 591.4199,70.6403 581.9615,70.8324 572.5032,71.0149 563.045,71.1875 553.587,71.3505 544.129,71.5037 534.6712,71.6472 525.2135,71.7809 515.7559,71.9049 506.2984,72.0192 496.841,72.1237 487.3836,72.2185 477.9263,72.3035 468.4691,72.3788 459.012,72.4444 449.5548,72.5003 440.0978,72.5464 430.6407,72.5828 421.1837,72.6095 411.7267,72.6264 402.2697,72.6336 392.8127,72.6311 383.3557,72.6188 373.8987,72.5968 364.4416,72.5651 354.9846,72.5237 345.5275,72.4725 336.0703,72.4115 326.6131,72.3409 317.1559,72.2605 307.6986,72.1704 298.2412,72.0705 288.7837,71.961 279.3261,71.8416 269.8685,71.7126 260.4107,71.5738 250.9529,71.4252 241.4949,71.267 232.0368,71.099 222.5785,70.9212 213.1201,70.7337 203.6616,70.5365 194.2029,70.3295 184.7441,70.1128 175.285,69.8863 165.8259,69.6501 156.3665,69.4041 146.9069,69.1484 137.4471,68.8829 127.9871,68.6077 118.5269,68.3227 109.0665,68.0279 99.6059,67.7234 90.145,67.4092 83.333,67.1768" stroke="silver" stroke-opacity="0.5" stroke-width="1" /><circle cx="727.3651" cy="389.6442" fill="black" r="0.738" stroke="none" /><circle cx="723.4899" cy="463.0994" fill="black" r="0.738" stroke="none" /><circle cx="721.8037" cy="472.3293" fill="black" r="0.738" stroke="none" /><circle cx="705.8253" cy="122.2175" fill="black" r="0.738" stroke="none" /><circle cx="715.4711" cy="660.4731" fill="black" r="0.738" stroke="none" /><circle cx="710.9854" cy="579.991" fill="black" r="0.738" stroke="none" /><circle cx="699.0272" cy="335.2942" fill="black" r="0.738" stroke="none" /><circle cx="695.4122" cy="308.1374" fill="black" r="0.738" stroke="none" /><circle cx="687.6909" cy="207.861" fill="black" r="0.738" stroke="none" /><circle cx="691.7253" cy="397.8993" fill="black" r="0.738" stroke="none" /><circle cx="690.1801" cy="493.6217" fill="black" r="1.854" stroke="none" /><circle cx="687.6162" cy="544.6374" fill="black" r="0.738" stroke="none" /><circle cx="679.1682" cy="288.6879" fill="black" r="0.738" stroke="none" /><circle cx="687.6579" cy="602.493" fill="black" r="0.738" stroke="none" /><circle cx="674.2534" cy="211.1393" fill="black" r="0.738" stroke="none" /><circle cx="686.5502" cy="716.7904" fill="black" r="0.738" stroke="none" /><circle cx="672.3712" cy="406.8244" fill="black" r="0.738" stroke="none" /><circle cx="664.7945" cy="158.7892" fill="black" r="1.17" stroke="none" /><circle cx="675.5328" cy="660.3238" fill="black" r="0.738" stroke="none" /><circle cx="675.34" cy="694.5126" fill="black" r="0.936" stroke="none" /><circle cx="664.6112" cy="624.0573" fill="black" r="0.738" stroke="none" /><circle cx="662.3255" cy="534.3721" fill="black" r="0.738" stroke="none" /><circle cx="650.6499" cy="124.5609" fill="black" r="0.738" stroke="none" /><circle cx="651.9343" cy="272.5637" fill="black" r="0.936" stroke="none" /><circle cx="649.4785" cy="648.4484" fill="black" r="0.936" stroke="none" /><circle cx="636.94" cy="260.4471" fill="black" r="0.738" stroke="none" /><circle cx="628.4669" cy="83.7826" fill="black" r="0.738" stroke="none" /><circle cx="635.3437" cy="621.7602" fill="black" r="0.738" stroke="none" /><circle cx="623.2614" cy="370.3815" fill="black" r="0.738" stroke="none" /><circle cx="625.0491" cy="520.9945" fill="black" r="0.738" stroke="none" /><circle cx="618.6882" cy="408.208" fill="black" r="0.738" stroke="none" /><circle cx="615.9473" cy="445.5554" fill="black" r="0.738" stroke="none" /><circle cx="607.145" cy="662.1764" fill="black" r="0.738" stroke="none" /><circle cx="591.9248" cy="394.1669" fill="black" r="0.738" stroke="none" /><circle cx="592.7783" cy="617.184" fill="black" r="0.738" stroke="none" /><circle cx="590.1613" cy="664.4057" fill="black" r="0.936" stroke="none" /><circle cx="583.3685" cy="316.2679" fill="black" r="0.936" stroke="none" /><circle cx="580.5328" cy="255.2825" fill="black" r="0.738" stroke="none" /><circle cx="578.2397" cy="198.2947" fill="black" r="0.738" stroke="none" /><circle cx="571.61" cy="217.98" fill="black" r="0.738" stroke="none" /><circle cx="575.2937" cy="465.3619" fill="black" r="0.738" stroke="none" /><circle cx="566.7949" cy="332.8879" fill="black" r="0.738" stroke="none" /><circle cx="566.3194" cy="581.3782" fill="black" r="0.738" stroke="none" /><circle cx="549.2862" cy="119.2174" fill="black" r="0.738" stroke="none" /><circle cx="549.4799" cy="429.888" fill="black" r="0.738" stroke="none" /><circle cx="549.5732" cy="441.6716" fill="black" r="0.738" stroke="none" /><circle cx="545.4192" cy="650.938" fill="black" r="0.738" stroke="none" /><circle cx="537.8086" cy="363.012" fill="black" r="0.738" stroke="none" /><circle cx="536.3178" cy="504.0103" fill="black" r="0.738" stroke="none" /><circle cx="531.5568" cy="386.0531" fill="black" r="0.738" stroke="none" /><circle cx="530.816" cy="450.3949" fill="black" r="0.936" stroke="none" /><circle cx="532.4196" cy="630.3165" fill="black" r="1.17" stroke="none" /><circle cx="526.3196" cy="288.0916" fill="black" r="0.738" stroke="none" /><circle cx="516.0729" cy="511.2379" fill="black" r="0.738" stroke="none" /><circle cx="512.3117" cy="441.7976" fill="black" r="0.738" stroke="none" /><circle cx="505.5956" cy="184.6177" fill="black" r="0.738" stroke="none" /><circle cx="508.7965" cy="481.2883" fill="black" r="0.738" stroke="none" /><circle cx="500.9134" cy="702.7986" fill="black" r="0.738" stroke="none" /><circle cx="494.7747" cy="114.2533" fill="black" r="0.738" stroke="none" /><circle cx="489.9339" cy="213.0681" fill="black" r="0.738" stroke="none" /><circle cx="488.803" cy="109.77" fill="black" r="0.738" stroke="none" /><circle cx="487.1668" cy="307.5461" fill="black" r="0.738" stroke="none" /><circle cx="480.6979" cy="294.2467" fill="black" r="0.738" stroke="none" /><circle cx="480.7327" cy="375.1543" fill="black" r="0.738" stroke="none" /><circle cx="477.7633" cy="574.617" fill="black" r="0.738" stroke="none" /><circle cx="472.6738" cy="87.4604" fill="black" r="0.738" stroke="none" /><circle cx="471.557" cy="721.8956" fill="black" r="0.738" stroke="none" /><circle cx="465.7346" cy="303.5228" fill="black" r="0.738" stroke="none" /><circle cx="465.2104" cy="476.0674" fill="black" r="1.17" stroke="none" /><circle cx="459.811" cy="595.5101" fill="black" r="0.738" stroke="none" /><circle cx="452.1322" cy="154.7625" fill="black" r="0.738" stroke="none" /><circle cx="452.0447" cy="309.4522" fill="black" r="0.738" stroke="none" /><circle cx="446.2142" cy="425.2028" fill="black" r="0.738" stroke="none" /><circle cx="445.6373" cy="508.2025" fill="black" r="0.738" stroke="none" /><circle cx="443.685" cy="210.2476" fill="black" r="0.738" stroke="none" /><circle cx="439.1133" cy="162.8589" fill="black" r="0.738" stroke="none" /><circle cx="436.359" cy="570.386" fill="black" r="0.738" stroke="none" /><circle cx="432.2097" cy="540.1974" fill="black" r="0.738" stroke="none" /><circle cx="431.651" cy="512.7053" fill="black" r="0.738" stroke="none" /><circle cx="417.0579" cy="693.0242" fill="black" r="0.738" stroke="none" /><circle cx="415.8024" cy="345.5327" fill="black" r="0.738" stroke="none" /><circle cx="414.2834" cy="372.1518" fill="black" r="0.738" stroke="none" /><circle cx="403.0869" cy="516.0692" fill="black" r="0.738" stroke="none" /><circle cx="396.708" cy="414.7475" fill="black" r="0.936" stroke="none" /><circle cx="395.1091" cy="480.8094" fill="black" r="0.738" stroke="none" /><circle cx="385.5529" cy="488.7423" fill="black" r="0.738" stroke="none" /><circle cx="385.0796" cy="488.4798" fill="black" r="0.738" stroke="none" /><circle cx="383.4381" cy="429.3082" fill="black" r="0.936" stroke="none" /><circle cx="381.5487" cy="223.5112" fill="black" r="0.738" stroke="none" /><circle cx="371.7315" cy="294.9739" fill="black" r="0.738" stroke="none" /><circle cx="371.6434" cy="92.5072" fill="black" r="0.738" stroke="none" /><circle cx="368.3185" cy="345.1458" fill="black" r="0.738" stroke="none" /><circle cx="358.9018" cy="645.1906" fill="black" r="0.738" stroke="none" /><circle cx="358.6524" cy="311.0738" fill="black" r="0.738" stroke="none" /><circle cx="355.354" cy="631.2057" fill="black" r="0.738" stroke="none" /><circle cx="355.1162" cy="554.2918" fill="black" r="0.738" stroke="none" /><circle cx="352.8762" cy="401.3741" fill="black" r="0.738" stroke="none" /><circle cx="352.1414" cy="95.5715" fill="black" r="0.738" stroke="none" /><circle cx="350.6123" cy="140.8925" fill="black" r="0.738" stroke="none" /><circle cx="345.6253" cy="395.927" fill="black" r="0.738" stroke="none" /><circle cx="345.9836" cy="301.2375" fill="black" r="0.738" stroke="none" /><circle cx="339.3819" cy="459.4257" fill="black" r="0.738" stroke="none" /><circle cx="331.0337" cy="471.6793" fill="black" r="0.738" stroke="none" /><circle cx="329.0138" cy="268.7471" fill="black" r="0.738" stroke="none" /><circle cx="326.6603" cy="477.0605" fill="black" r="0.738" stroke="none" /><circle cx="328.7676" cy="167.1246" fill="black" r="0.738" stroke="none" /><circle cx="324.5259" cy="577.3397" fill="black" r="1.17" stroke="none" /><circle cx="306.9679" cy="130.0805" fill="black" r="0.936" stroke="none" /><circle cx="302.782" cy="500.4313" fill="black" r="0.738" stroke="none" /><circle cx="302.8834" cy="333.5511" fill="black" r="0.738" stroke="none" /><circle cx="295.7166" cy="471.9077" fill="black" r="0.738" stroke="none" /><circle cx="292.8523" cy="575.6724" fill="black" r="0.738" stroke="none" /><circle cx="266.2364" cy="668.2942" fill="black" r="0.738" stroke="none" /><circle cx="265.2731" cy="714.5848" fill="black" r="0.936" stroke="none" /><circle cx="268.2841" cy="113.9785" fill="black" r="0.738" stroke="none" /><circle cx="262.8575" cy="292.4858" fill="black" r="0.738" stroke="none" /><circle cx="256.5635" cy="658.7382" fill="black" r="0.738" stroke="none" /><circle cx="254.5859" cy="229.415" fill="black" r="0.738" stroke="none" /><circle cx="250.0839" cy="520.2378" fill="black" r="0.738" stroke="none" /><circle cx="245.6554" cy="710.2238" fill="black" r="0.738" stroke="none" /><circle cx="243.6924" cy="227.2359" fill="black" r="0.738" stroke="none" /><circle cx="235.5006" cy="597.8246" fill="black" r="0.738" stroke="none" /><circle cx="227.4823" cy="580.3195" fill="black" r="0.936" stroke="none" /><circle cx="223.9998" cy="708.155" fill="black" r="0.738" stroke="none" /><circle cx="230.7868" cy="230.3363" fill="black" r="0.936" stroke="none" /><circle cx="220.9347" cy="85.398" fill="black" r="0.738" stroke="none" /><circle cx="201.1391" cy="364.8687" fill="black" r="0.738" stroke="none" /><circle cx="194.9401" cy="658.0214" fill="black" r="0.738" stroke="none" /><circle cx="199.6635" cy="352.7891" fill="black" r="0.738" stroke="none" /><circle cx="199.5083" cy="161.9469" fill="black" r="0.738" stroke="none" /><circle cx="195.4299" cy="278.8237" fill="black" r="0.738" stroke="none" /><circle cx="188.8545" cy="484.0791" fill="black" r="0.738" stroke="none" /><circle cx="184.3381" cy="443.2035" fill="black" r="0.738" stroke="none" /><circle cx="184.397" cy="373.8671" fill="black" r="0.738" stroke="none" /><circle cx="181.5184" cy="442.62" fill="black" r="0.738" stroke="none" /><circle cx="175.1867" cy="194.6029" fill="black" r="0.738" stroke="none" /><circle cx="165.8443" cy="563.6864" fill="black" r="0.738" stroke="none" /><circle cx="163.4777" cy="584.3392" fill="black" r="0.738" stroke="none" /><circle cx="167.9996" cy="82.5578" fill="black" r="0.738" stroke="none" /><circle cx="149.3986" cy="535.4429" fill="black" r="0.738" stroke="none" /><circle cx="151.5364" cy="343.9349" fill="black" r="1.17" stroke="none" /><circle cx="148.2922" cy="383.2487" fill="black" r="0.936" stroke="none" /><circle cx="138.8292" cy="661.0244" fill="black" r="0.738" stroke="none" /><circle cx="133.5375" cy="644.1146" fill="black" r="0.738" stroke="none" /><circle cx="136.53" cy="292.9661" fill="black" r="0.738" stroke="none" /><circle cx="140.6746" cy="126.9468" fill="black" r="0.738" stroke="none" /><circle cx="124.7054" cy="581.5789" fill="black" r="0.936" stroke="none" /><circle cx="128.7281" cy="368.8512" fill="black" r="0.738" stroke="none" /><circle cx="130.5999" cy="199.9153" fill="black" r="0.738" stroke="none" /><circle cx="124.4697" cy="311.0715" fill="black" r="0.936" stroke="none" /><circle cx="120.8432" cy="439.9274" fill="black" r="0.738" stroke="none" /><circle cx="120.2732" cy="262.1946" fill="black" r="0.738" stroke="none" /><circle cx="108.0988" cy="199.6914" fill="black" r="0.738" stroke="none" /><circle cx="98.1343" cy="503.7772" fill="black" r="0.738" stroke="none" /><circle cx="105.6614" cy="194.0218" fill="black" r="0.738" stroke="none" /><circle cx="86.275" cy="529.6495" fill="black" r="0.936" stroke="none" /><circle cx="92.3709" cy="203.7443" fill="black" r="0.738" stroke="none" /><circle cx="81.6574" cy="514.3023" fill="black" r="0.936" stroke="none" /><circle cx="94.0633" cy="68.0655" fill="black" r="0.738" stroke="none" /><circle cx="73.5815" cy="669.1615" fill="black" r="0.738" stroke="none" /><circle cx="88.7938" cy="80.4875" fill="black" r="0.738" stroke="none" /><circle cx="77.6861" cy="415.6771" fill="black" r="0.738" stroke="none" /><circle cx="77.5883" cy="416.2858" fill="black" r="0.738" stroke="none" /><circle cx="75.8297" cy="427.1553" fill="black" r="0.738" stroke="none" /><circle cx="67.5678" cy="657.8737" fill="black" r="0.738" stroke="none" /><circle cx="13.77" cy="786.23" fill="black" r="4.59" stroke="none" /><circle cx="13.77" cy="786.23" fill="black" r="4.59" stroke="none" /><text fill="black" font-family="monospace" font-size="12" x="10.77" y="775.64">1</text><circle cx="37.77" cy="786.23" fill="black" r="3.654" stroke="none" /><circle cx="37.77" cy="786.23" fill="black" r="3.654" stroke="none" /><text fill="black" font-family="monospace" font-size="12" x="34.769999999999996" y="775.64">2</text><circle cx="61.77" cy="786.23" fill="black" r="2.916" stroke="none" /><circle cx="61.77" cy="786.23" fill="black" r="2.916" stroke="none" /><text fill="black" font-family="monospace" font-size="12" x="58.769999999999996" y="775.64">3</text><circle cx="85.77" cy="786.23" fill="black" r="2.322" stroke="none" /><circle cx="85.77" cy="786.23" fill="black" r="2.322" stroke="none" /><text fill="black" font-family="monospace" font-size="12" x="82.77" y="775.64">4</text><circle cx="109.77" cy="786.23" fill="black" r="1.854" stroke="none" /><circle cx="109.77" cy="786.23" fill="black" r="1.854" stroke="none" /><text fill="black" font-family="monospace" font-size="12" x="106.77" y="775.64">5</text><circle cx="133.77" cy="786.23" fill="black" r="1.476" stroke="none" /><circle cx="133.77" cy="786.23" fill="black" r="1.476" stroke="none" /><text fill="black" font-family="monospace" font-size="12" x="130.77" y="775.64">6</text><circle cx="157.77" cy="786.23" fill="black" r="1.17" stroke="none" /><circle cx="157.77" cy="786.23" fill="black" r="1.17" stroke="none" /><text fill="black" font-family="monospace" font-size="12" x="154.77" y="775.64">7</text><circle cx="181.77" cy="786.23" fill="black" r="0.936" stroke="none" /><circle cx="181.77" cy="786.23" fill="black" r="0.936" stroke="none" /><text fill="black" font-family="monospace" font-size="12" x="178.77" y="775.64">8</text><circle cx="205.77" cy="786.23" fill="black" r="0.738" stroke="none" /><circle cx="205.77" cy="786.23" fill="black" r="0.738" stroke="none" /><text fill="black" font-family="monospace" font-size="12" x="202.77" y="775.64">9</text><text fill="gray" fill-opacity="0.5" font-family="monospace" font-size="12" x="674.8574039364862" y="723.992654513688">06h45m</text><text fill="gray" fill-opacity="0.5" font-family="monospace" font-size="12" x="573.9402852058722" y="726.0152125899303">06h50m</text><text fill="gray" fill-opacity="0.5" font-family="monospace" font-size="12" x="473.04338404508667" y="727.1278939473891">06h55m</text><text fill="gray" fill-opacity="0.5" font-family="monospace" font-size="12" x="372.1549737375402" y="727.331487094783">07h00m</text><text fill="gray" fill-opacity="0.5" font-family="monospace" font-size="12" x="271.26332655671104" y="726.6261362893915">07h05m</text><text fill="gray" fill-opacity="0.5" font-family="monospace" font-size="12" x="170.3567151605901" y="725.0113417233987">07h10m</text><text fill="gray" fill-opacity="0.5" font-family="monospace" font-size="12" x="69.42341399266485" y="722.4859588782424">07h15m</text><text fill="gray" fill-opacity="0.5" font-family="monospace" font-size="12" x="63.48012589567912" y="678.5667478452463">+23°</text><text fill="gray" fill-opacity="0.5" font-family="monospace" font-size="12" x="66.16717481135419" y="591.1948569614149">+24°</text><text fill="gray" fill-opacity="0.5" font-family="monospace" font-size="12" x="68.90324031218199" y="503.8552334814606">+25°</text><text fill="gray" fill-opacity="0.5" font-family="monospace" font-size="12" x="71.6886968278148" y="416.5346055115809">+26°</text><text fill="gray" fill-opacity="0.5" font-family="monospace" font-size="12" x="74.52394885402157" y="329.2197126824234">+27°</text><text fill="gray" fill-opacity="0.5" font-family="monospace" font-size="12" x="77.40943118114183" y="241.89729810558998">+28°</text><text fill="gray" fill-opacity="0.5" font-family="monospace" font-size="12" x="80.34560916169016" y="154.5541003346308">+29°</text><text fill="gray" fill-opacity="0.5" font-family="monospace" font-size="12" x="83.33297901746181" y="67.17684532016995">+30°</text><text fill="black" font-family="monospace" font-size="12" x="12" y="48">&gt;&gt; No.561 06h42m 07h15m +22.5°+30.0°</text><a target="_self" xlink:href="hip034.svg"><text fill="black" font-family="monospace" font-size="12" x="12" y="36">&gt; No.34 06h00m 09h00m +22.5°+52.5°</text></a><a target="_self" xlink:href="hip002.svg"><text fill="black" font-family="monospace" font-size="12" x="12" y="24">No.2 00h 24h +0.0°+90.0°</text></a><polyline fill="none" points="716.667,67.1768 714.3963,67.2548 704.9353,67.5738 695.4746,67.883 686.014,68.1824 676.5537,68.4721 667.0937,68.752 657.6338,69.0222 648.1741,69.2826 638.7146,69.5332 629.2553,69.7741 619.7962,70.0053 610.3373,70.2267 600.8785,70.4384 591.4199,70.6403 581.9615,70.8324 572.5032,71.0149 563.045,71.1875 553.587,71.3505 544.129,71.5037 534.6712,71.6472 525.2135,71.7809 515.7559,71.9049 506.2984,72.0192 496.841,72.1237 487.3836,72.2185 477.9263,72.3035 468.4691,72.3788 459.012,72.4444 449.5548,72.5003 440.0978,72.5464 430.6407,72.5828 421.1837,72.6095 411.7267,72.6264 402.2697,72.6336 392.8127,72.6311 383.3557,72.6188 373.8987,72.5968 364.4416,72.5651 354.9846,72.5237 345.5275,72.4725 336.0703,72.4115 326.6131,72.3409 317.1559,72.2605 307.6986,72.1704 298.2412,72.0705 288.7837,71.961 279.3261,71.8416 269.8685,71.7126 260.4107,71.5738 250.9529,71.4252 241.4949,71.267 232.0368,71.099 222.5785,70.9212 213.1201,70.7337 203.6616,70.5365 194.2029,70.3295 184.7441,70.1128 175.285,69.8863 165.8259,69.6501 156.3665,69.4041 146.9069,69.1484 137.4471,68.8829 127.9871,68.6077 118.5269,68.3227 109.0665,68.0279 99.6059,67.7234 90.145,67.4092 83.333,67.1768" stroke="black" stroke-opacity="0.5" stroke-width="1" /><polyline fill="none" points="737.8451,722.2689 737.515,711.3422 737.184,700.4163 736.8523,689.4912 736.5199,678.5667 736.1867,667.643 735.8527,656.72 735.518,645.7977 735.1825,634.8759 734.8462,623.9548 734.5092,613.0343 734.1714,602.1143 733.8328,591.1949 733.4935,580.2759 733.1534,569.3574 732.8126,558.4394 732.4709,547.5218 732.1286,536.6047 731.7854,525.6878 731.4415,514.7714 731.0968,503.8552 730.7513,492.9394 730.405,482.0238 730.058,471.1085 729.7102,460.1934 729.3617,449.2785 729.0123,438.3637 728.6622,427.4491 728.3113,416.5346 727.9596,405.6202 727.6072,394.7059 727.2539,383.7916 726.8999,372.8773 726.5451,361.963 726.1896,351.0486 725.8332,340.1342 725.4761,329.2197 725.1181,318.3051 724.7594,307.3903 724.3999,296.4754 724.0396,285.5603 723.6785,274.6449 723.3167,263.7293 722.954,252.8135 722.5906,241.8973 722.2263,230.9808 721.8613,220.064 721.4955,209.1467 721.1288,198.2291 720.7614,187.3111 720.3932,176.3926 720.0242,165.4736 719.6544,154.5541 719.2838,143.6341 718.9124,132.7135 718.5402,121.7923 718.1671,110.8706 717.7933,99.9482 717.4187,89.0251 717.0433,78.1013 716.667,67.1768" stroke="black" stroke-opacity="0.5" stroke-width="1" /><polyline fill="none" points="737.8451,722.2689 735.4223,722.3418 725.3272,722.6397 715.2325,722.9286 705.1382,723.2083 695.0443,723.4788 684.9507,723.7403 674.8574,723.9927 664.7644,724.2359 654.6718,724.47 644.5794,724.695 634.4874,724.9109 624.3956,725.1177 614.304,725.3154 604.2128,725.504 594.1217,725.6835 584.0309,725.8539 573.9403,726.0152 563.8499,726.1674 553.7597,726.3105 543.6696,726.4445 533.5798,726.5694 523.49,726.6852 513.4005,726.7919 503.311,726.8896 493.2217,726.9781 483.1325,727.0575 473.0434,727.1279 462.9544,727.1892 452.8654,727.2413 442.7765,727.2844 432.6877,727.3184 422.5989,727.3433 412.5101,727.3591 402.4213,727.3658 392.3325,727.3635 382.2438,727.352 372.155,727.3315 362.0661,727.3019 351.9773,727.2631 341.8884,727.2153 331.7994,727.1584 321.7103,727.0924 311.6211,727.0174 301.5319,726.9332 291.4425,726.8399 281.353,726.7376 271.2633,726.6261 261.1735,726.5056 251.0836,726.376 240.9934,726.2372 230.9031,726.0894 220.8126,725.9325 210.7219,725.7665 200.631,725.5913 190.5398,725.4071 180.4484,725.2138 170.3567,725.0113 160.2648,724.7998 150.1726,724.5792 140.0801,724.3494 129.9873,724.1105 119.8941,723.8626 109.8007,723.6055 99.7069,723.3393 89.6128,723.064 79.5183,722.7795 69.4234,722.486 62.1549,722.2689" stroke="black" stroke-opacity="0.5" stroke-width="1" /><polyline fill="none" points="62.1549,722.2689 62.485,711.3422 62.816,700.4163 63.1477,689.4912 63.4801,678.5667 63.8133,667.643 64.1473,656.72 64.482,645.7977 64.8175,634.8759 65.1538,623.9548 65.4908,613.0343 65.8286,602.1143 66.1672,591.1949 66.5065,580.2759 66.8466,569.3574 67.1874,558.4394 67.5291,547.5218 67.8714,536.6047 68.2146,525.6878 68.5585,514.7714 68.9032,503.8552 69.2487,492.9394 69.595,482.0238 69.942,471.1085 70.2898,460.1934 70.6383,449.2785 70.9877,438.3637 71.3378,427.4491 71.6887,416.5346 72.0404,405.6202 72.3928,394.7059 72.7461,383.7916 73.1001,372.8773 73.4549,361.963 73.8104,351.0486 74.1668,340.1342 74.5239,329.2197 74.8819,318.3051 75.2406,307.3903 75.6001,296.4754 75.9604,285.5603 76.3215,274.6449 76.6833,263.7293 77.046,252.8135 77.4094,241.8973 77.7737,230.9808 78.1387,220.064 78.5045,209.1467 78.8712,198.2291 79.2386,187.3111 79.6068,176.3926 79.9758,165.4736 80.3456,154.5541 80.7162,143.6341 81.0876,132.7135 81.4598,121.7923 81.8329,110.8706 82.2067,99.9482 82.5813,89.0251 82.9567,78.1013 83.333,67.1768" stroke="black" stroke-opacity="0.5" stroke-width="1" /></svg>