<?xml version="1.0" encoding="utf-8" ?>
<svg baseProfile="tiny" height="800" version="1.2" width="800" xmlns="http://www.w3.org/2000/svg" xmlns:ev="http://www.w3.org/2001/xml-events" xmlns:xlink="http://www.w3.org/1999/xlink"><defs /><rect fill="none" height="800" stroke="black" stroke-width="2" width="800" x="0" y="0" /><polyline fill="none" points="730.5766,722.486 730.2535,711.5596 729.9297,700.6339 729.6052,689.7091 729.2799,678.785 728.9539,667.8615 728.6271,656.9388 728.2996,646.0168 727.9713,635.0953 727.6423,624.1745 727.3126,613.2542 726.982,602.3346 726.6508,591.4154 726.3188,580.4967 725.986,569.5785 725.6525,558.6608 725.3183,547.7435 724.9833,536.8266 724.6475,525.9101 724.311,514.9939 723.9737,504.078 723.6357,493.1624 723.2969,482.2471 722.9574,471.332 722.6171,460.4172 722.276,449.5026 721.9342,438.5881 721.5916,427.6737 721.2483,416.7595 720.9042,405.8453 720.5594,394.9313 720.2137,384.0172 719.8674,373.1032 719.5202,362.1891 719.1723,351.275 718.8236,340.3609 718.4742,329.4466 718.124,318.5322 717.773,307.6177 717.4212,296.703 717.0687,285.7881 716.7154,274.873 716.3613,263.9577 716.0065,253.042 715.6509,242.1261 715.2945,231.2098 714.9373,220.2932 714.5794,209.3762 714.2207,198.4589 713.8612,187.541 713.5009,176.6228 713.1398,165.704 712.778,154.7847 712.4154,143.8649 712.052,132.9446 711.6878,122.0236 711.3228,111.102 710.957,100.1798 710.5905,89.257 710.2232,78.3334 709.855,67.4092" stroke="silver" stroke-opacity="0.5" stroke-width="1" /><polyline fill="none" points="629.6433,725.0113 629.419,714.0884 629.1942,703.1663 628.9688,692.245 628.743,681.3243 628.5166,670.4043 628.2898,659.485 628.0624,648.5664 627.8345,637.6483 627.606,626.7309 627.3771,615.814 627.1476,604.8976 626.9176,593.9818 626.6871,583.0664 626.4561,572.1515 626.2245,561.237 625.9924,550.323 625.7598,539.4093 625.5267,528.4959 625.2931,517.5829 625.0589,506.6702 624.8242,495.7578 624.589,484.8456 624.3532,473.9337 624.117,463.022 623.8802,452.1104 623.6428,441.199 623.405,430.2876 623.1666,419.3764 622.9277,408.4653 622.6883,397.5542 622.4483,386.6431 622.2078,375.732 621.9668,364.8209 621.7252,353.9097 621.4831,342.9984 621.2405,332.0871 620.9973,321.1755 620.7536,310.2639 620.5094,299.352 620.2646,288.4399 620.0193,277.5276 619.7735,266.615 619.5271,255.7021 619.2802,244.7889 619.0328,233.8753 618.7848,222.9614 618.5362,212.047 618.2872,201.1323 618.0376,190.2171 617.7874,179.3014 617.5367,168.3852 617.2855,157.4685 617.0337,146.5513 616.7814,135.6334 616.5285,124.715 616.2751,113.7959 616.0211,102.8762 615.7666,91.9558 615.5115,81.0346 615.2559,70.1128" stroke="silver" stroke-opacity="0.5" stroke-width="1" /><polyline fill="none" points="528.7367,726.6261 528.611,715.7055 528.485,704.7856 528.3587,693.8665 528.2322,682.948 528.1053,672.0302 527.9782,661.1131 527.8507,650.1967 527.723,639.2808 527.595,628.3655 527.4667,617.4507 527.3381,606.5365 527.2092,595.6228 527.08,584.7095 526.9506,573.7967 526.8208,562.8843 526.6907,551.9724 526.5604,541.0607 526.4297,530.1495 526.2988,519.2385 526.1676,508.3278 526.0361,497.4174 525.9042,486.5073 525.7721,475.5973 525.6397,464.6875 525.507,453.7779 525.374,442.8685 525.2407,431.9591 525.1071,421.0498 524.9732,410.1406 524.8391,399.2314 524.7046,388.3222 524.5698,377.413 524.4347,366.5038 524.2993,355.5945 524.1637,344.685 524.0277,333.7755 523.8914,322.8658 523.7549,311.9559 523.618,301.0459 523.4808,290.1356 523.3434,279.225 523.2056,268.3142 523.0675,257.403 522.9291,246.4916 522.7905,235.5797 522.6515,224.6675 522.5122,213.7549 522.3726,202.8418 522.2327,191.9283 522.0925,181.0143 521.952,170.0998 521.8113,159.1847 521.6701,148.2691 521.5287,137.3528 521.387,126.436 521.245,115.5185 521.1027,104.6004 520.96,93.6815 520.8171,82.762 520.6739,71.8416" stroke="silver" stroke-opacity="0.5" stroke-width="1" /><polyline fill="none" points="427.845,727.3315 427.8178,716.4118 427.7906,705.4929 427.7633,694.5747 427.7359,683.6573 427.7085,672.7405 427.681,661.8243 427.6534,650.9088 427.6258,639.9939 427.5981,629.0795 427.5704,618.1657 427.5426,607.2524 427.5147,596.3396 427.4868,585.4273 427.4588,574.5154 427.4307,563.6039 427.4026,552.6928 427.3744,541.7821 427.3461,530.8717 427.3178,519.9617 427.2894,509.0519 427.261,498.1423 427.2325,487.2331 427.2039,476.324 427.1753,465.4151 427.1466,454.5063 427.1178,443.5977 427.089,432.6892 427.0601,421.7808 427.0311,410.8724 427.0021,399.964 426.973,389.0557 426.9439,378.1473 426.9147,367.2389 426.8854,356.3304 426.8561,345.4218 426.8267,334.513 426.7972,323.6041 426.7676,312.695 426.738,301.7858 426.7084,290.8762 426.6787,279.9665 426.6489,269.0564 426.619,258.146 426.5891,247.2353 426.5591,236.3242 426.529,225.4128 426.4989,214.5009 426.4687,203.5886 426.4385,192.6758 426.4081,181.7625 426.3778,170.8487 426.3473,159.9344 426.3168,149.0194 426.2862,138.1039 426.2556,127.1878 426.2249,116.271 426.1941,105.3535 426.1632,94.4354 426.1323,83.5165 426.1013,72.5968" stroke="silver" stroke-opacity="0.5" stroke-width="1" /><polyline fill="none" points="326.9566,727.1279 327.0279,716.2079 327.0994,705.2888 327.171,694.3703 327.2428,683.4525 327.3148,672.5355 327.3869,661.619 327.4592,650.7032 327.5317,639.788 327.6043,628.8734 327.6771,617.9593 327.7501,607.0458 327.8232,596.1327 327.8965,585.2201 327.9699,574.3079 328.0435,563.3962 328.1173,552.4849 328.1913,541.5739 328.2654,530.6632 328.3397,519.7529 328.4141,508.8429 328.4887,497.9331 328.5635,487.0236 328.6385,476.1142 328.7136,465.2051 328.7889,454.2961 328.8643,443.3872 328.94,432.4785 329.0158,421.5698 329.0917,410.6612 329.1678,399.7526 329.2441,388.844 329.3206,377.9354 329.3972,367.0267 329.474,356.118 329.551,345.2091 329.6281,334.3001 329.7055,323.391 329.7829,312.4817 329.8606,301.5722 329.9384,290.6624 330.0164,279.7524 330.0946,268.8422 330.1729,257.9316 330.2514,247.0206 330.3301,236.1093 330.4089,225.1977 330.4879,214.2856 330.5671,203.373 330.6465,192.46 330.726,181.5465 330.8057,170.6325 330.8856,159.718 330.9657,148.8028 331.0459,137.8871 331.1263,126.9708 331.2068,116.0538 331.2876,105.1361 331.3685,94.2178 331.4496,83.2987 331.5309,72.3788" stroke="silver" stroke-opacity="0.5" stroke-width="1" /><polyline fill="none" points="226.0597,726.0152 226.2296,715.0937 226.3998,704.173 226.5704,693.253 226.7415,682.3337 226.9129,671.4151 227.0847,660.4972 227.2569,649.5799 227.4295,638.6632 227.6025,627.7471 227.7759,616.8315 227.9496,605.9165 228.1238,595.0019 228.2984,584.0879 228.4733,573.1743 228.6487,562.2611 228.8244,551.3483 229.0006,540.4359 229.1771,529.5239 229.354,518.6121 229.5314,507.7007 229.7091,496.7895 229.8872,485.8786 230.0657,474.9679 230.2447,464.0574 230.424,453.147 230.6037,442.2368 230.7838,431.3267 230.9643,420.4167 231.1453,409.5068 231.3266,398.5969 231.5083,387.687 231.6904,376.7771 231.873,365.8671 232.0559,354.9571 232.2392,344.0469 232.423,333.1367 232.6071,322.2263 232.7917,311.3158 232.9766,300.405 233.162,289.494 233.3477,278.5828 233.5339,267.6713 233.7205,256.7595 233.9075,245.8474 234.0949,234.9349 234.2827,224.022 234.4709,213.1087 234.6595,202.195 234.8485,191.2809 235.0379,180.3662 235.2278,169.4511 235.4181,158.5354 235.6087,147.6192 235.7998,136.7023 235.9913,125.7849 236.1832,114.8668 236.3755,103.9481 236.5683,93.0286 236.7614,82.1085 236.955,71.1875" stroke="silver" stroke-opacity="0.5" stroke-width="1" /><polyline fill="none" points="125.1426,723.9927 125.4111,713.0683 125.6802,702.1448 125.95,691.222 126.2204,680.3 126.4914,669.3786 126.763,658.4579 127.0352,647.5379 127.308,636.6185 127.5815,625.6997 127.8556,614.7814 128.1303,603.8637 128.4056,592.9465 128.6816,582.0298 128.9582,571.1136 129.2354,560.1978 129.5132,549.2825 129.7917,538.3675 130.0707,527.4528 130.3505,516.5386 130.6308,505.6246 130.9117,494.7109 131.1933,483.7974 131.4756,472.8842 131.7584,461.9712 132.0419,451.0584 132.326,440.1458 132.6107,429.2332 132.8961,418.3208 133.1821,407.4084 133.4688,396.4961 133.756,385.5839 134.044,374.6716 134.3325,363.7593 134.6217,352.8469 134.9115,341.9345 135.202,331.0219 135.4931,320.1093 135.7848,309.1964 136.0772,298.2834 136.3702,287.3702 136.6638,276.4568 136.9581,265.5431 137.2531,254.6291 137.5487,243.7147 137.8449,232.8001 138.1418,221.8851 138.4393,210.9697 138.7375,200.0539 139.0363,189.1376 139.3357,178.2209 139.6359,167.3037 139.9366,156.3859 140.238,145.4676 140.5401,134.5488 140.8428,123.6293 141.1462,112.7092 141.4502,101.7885 141.7549,90.8671 142.0602,79.945 142.3662,69.0222" stroke="silver" stroke-opacity="0.5" stroke-width="1" /><polyline fill="none" points="736.5199,678.5667 729.2799,678.785 719.2247,679.0801 709.1699,679.3662 699.1154,679.643 689.0613,679.9107 679.0075,680.1692 668.954,680.4185 658.9008,680.6587 648.8479,680.8897 638.7953,681.1116 628.743,681.3243 618.6909,681.5278 608.6391,681.7222 598.5875,681.9075 588.5362,682.0836 578.485,682.2505 568.4341,682.4083 558.3834,682.557 548.3328,682.6965 538.2824,682.8268 528.2322,682.948 518.1821,683.0601 508.1321,683.163 498.0823,683.2568 488.0326,683.3414 477.9829,683.4169 467.9334,683.4833 457.8839,683.5405 447.8345,683.5885 437.7852,683.6275 427.7359,683.6573 417.6867,683.6779 407.6374,683.6894 397.5882,683.6918 387.5389,683.685 377.4897,683.6691 367.4404,683.6441 357.3911,683.6099 347.3418,683.5666 337.2923,683.5141 327.2428,683.4525 317.1933,683.3818 307.1436,683.3019 297.0938,683.2129 287.0439,683.1147 276.9939,683.0074 266.9437,682.891 256.8934,682.7654 246.843,682.6306 236.7923,682.4867 226.7415,682.3337 216.6904,682.1715 206.6392,682.0002 196.5877,681.8197 186.536,681.6301 176.4841,681.4313 166.4319,681.2233 156.3795,681.0062 146.3267,680.78 136.2737,680.5446 126.2204,680.3 116.1667,680.0462 106.1128,679.7833 96.0585,679.5113 86.0038,679.23 75.9488,678.9396 65.8935,678.64 63.4801,678.5667" stroke="silver" stroke-opacity="0.5" stroke-width="1" /><polyline fill="none" points="733.8328,591.1949 726.6508,591.4154 716.676,591.7137 706.7016,592.0028 696.7276,592.2826 686.7538,592.5531 676.7804,592.8143 666.8073,593.0663 656.8345,593.3091 646.8619,593.5426 636.8896,593.7668 626.9176,593.9818 616.9458,594.1875 606.9743,594.384 597.003,594.5712 587.0319,594.7491 577.061,594.9179 567.0903,595.0773 557.1198,595.2276 547.1494,595.3685 537.1792,595.5003 527.2092,595.6228 517.2393,595.736 507.2695,595.8401 497.2999,595.9348 487.3303,596.0204 477.3609,596.0967 467.3915,596.1637 457.4222,596.2216 447.453,596.2701 437.4838,596.3095 427.5147,596.3396 417.5456,596.3605 407.5765,596.3721 397.6074,596.3745 387.6383,596.3677 377.6692,596.3516 367.7001,596.3263 357.731,596.2918 347.7618,596.248 337.7925,596.195 327.8232,596.1327 317.8538,596.0612 307.8843,595.9805 297.9147,595.8905 287.945,595.7913 277.9752,595.6828 268.0052,595.5651 258.0351,595.4382 248.0648,595.302 238.0944,595.1566 228.1238,595.0019 218.153,594.838 208.182,594.6649 198.2108,594.4825 188.2394,594.2908 178.2677,594.0899 168.2959,593.8797 158.3237,593.6603 148.3513,593.4316 138.3786,593.1937 128.4056,592.9465 118.4324,592.6901 108.4588,592.4244 98.4849,592.1494 88.5107,591.8652 78.5361,591.5717 68.5612,591.2689 66.1672,591.1949" stroke="silver" stroke-opacity="0.5" stroke-width="1" /><polyline fill="none" points="731.0968,503.8552 723.9737,504.078 714.0809,504.3793 704.1884,504.6713 694.2962,504.9539 684.4043,505.2271 674.5127,505.491 664.6214,505.7456 654.7304,505.9908 644.8396,506.2266 634.9492,506.4531 625.0589,506.6702 615.1689,506.878 605.2791,507.0765 595.3895,507.2656 585.5001,507.4454 575.6109,507.6158 565.7219,507.7769 555.8331,507.9286 545.9445,508.071 536.0559,508.2041 526.1676,508.3278 516.2793,508.4422 506.3912,508.5473 496.5032,508.643 486.6153,508.7294 476.7275,508.8065 466.8398,508.8742 456.9521,508.9326 447.0645,508.9817 437.1769,509.0215 427.2894,509.0519 417.4019,509.073 407.5145,509.0847 397.627,509.0871 387.7395,509.0802 377.8521,509.064 367.9646,509.0384 358.077,509.0035 348.1895,508.9593 338.3018,508.9058 328.4141,508.8429 318.5264,508.7707 308.6385,508.6891 298.7506,508.5982 288.8625,508.498 278.9743,508.3885 269.086,508.2696 259.1976,508.1414 249.309,508.0038 239.4203,507.8569 229.5314,507.7007 219.6423,507.5351 209.753,507.3602 199.8635,507.176 189.9738,506.9824 180.0839,506.7795 170.1938,506.5672 160.3034,506.3456 150.4128,506.1146 140.5219,505.8743 130.6308,505.6246 120.7394,505.3655 110.8476,505.0972 100.9556,504.8194 91.0633,504.5323 81.1706,504.2359 71.2776,503.93 68.9032,503.8552" stroke="silver" stroke-opacity="0.5" stroke-width="1" /><polyline fill="none" points="728.3113,416.5346 721.2483,416.7595 711.4389,417.0637 701.6297,417.3584 691.8209,417.6437 682.0123,417.9196 672.2041,418.186 662.3961,418.443 652.5883,418.6905 642.7809,418.9286 632.9736,419.1572 623.1666,419.3764 613.3598,419.5862 603.5532,419.7866 593.7469,419.9775 583.9407,420.1589 574.1347,420.331 564.3289,420.4936 554.5232,420.6468 544.7177,420.7906 534.9124,420.9249 525.1071,421.0498 515.302,421.1653 505.497,421.2714 495.6922,421.368 485.8874,421.4553 476.0827,421.5331 466.278,421.6014 456.4735,421.6604 446.669,421.7099 436.8645,421.7501 427.0601,421.7808 417.2557,421.8021 407.4513,421.8139 397.647,421.8164 387.8426,421.8094 378.0382,421.793 368.2338,421.7672 358.4294,421.732 348.6249,421.6873 338.8203,421.6333 329.0158,421.5698 319.2111,421.4969 309.4063,421.4146 299.6015,421.3228 289.7966,421.2216 279.9915,421.1111 270.1864,420.991 260.3811,420.8616 250.5757,420.7227 240.7701,420.5744 230.9643,420.4167 221.1584,420.2496 211.3524,420.073 201.5461,419.887 191.7396,419.6916 181.9329,419.4867 172.1261,419.2724 162.3189,419.0487 152.5116,418.8155 142.704,418.5729 132.8961,418.3208 123.088,418.0593 113.2796,417.7884 103.4709,417.508 93.6619,417.2181 83.8526,416.9188 74.043,416.6101 71.6887,416.5346" stroke="silver" stroke-opacity="0.5" stroke-width="1" /><polyline fill="none" points="725.4761,329.2197 718.4742,329.4466 708.7496,329.7535 699.0253,330.0509 689.3013,330.3388 679.5776,330.6171 669.8541,330.8859 660.1309,331.1452 650.408,331.395 640.6853,331.6352 630.9628,331.8659 621.2405,332.0871 611.5184,332.2987 601.7965,332.5009 592.0749,332.6935 582.3534,332.8766 572.632,333.0502 562.9109,333.2143 553.1899,333.3688 543.469,333.5139 533.7483,333.6495 524.0277,333.7755 514.3072,333.892 504.5868,333.999 494.8666,334.0966 485.1464,334.1846 475.4263,334.2631 465.7063,334.3321 455.9863,334.3916 446.2664,334.4416 436.5465,334.482 426.8267,334.513 417.1068,334.5345 407.387,334.5465 397.6673,334.5489 387.9475,334.5419 378.2277,334.5254 368.5078,334.4993 358.788,334.4638 349.0681,334.4187 339.3481,334.3642 329.6281,334.3001 319.9081,334.2266 310.1879,334.1435 300.4677,334.0509 290.7474,333.9489 281.027,333.8373 271.3064,333.7162 261.5858,333.5856 251.865,333.4455 242.1441,333.2958 232.423,333.1367 222.7017,332.9681 212.9803,332.7899 203.2588,332.6022 193.537,332.405 183.815,332.1983 174.0929,331.9821 164.3705,331.7563 154.6479,331.5211 144.925,331.2763 135.202,331.0219 125.4786,330.7581 115.755,330.4847 106.0312,330.2018 96.3071,329.9094 86.5826,329.6074 76.8579,329.2959 74.5239,329.2197" stroke="silver" stroke-opacity="0.5" stroke-width="1" /><polyline fill="none" points="722.5906,241.8973 715.6509,242.1261 706.0127,242.4356 696.3748,242.7355 686.7371,243.0258 677.0997,243.3065 667.4626,243.5776 657.8256,243.839 648.189,244.0909 638.5525,244.3332 628.9162,244.5658 619.2802,244.7889 609.6444,245.0023 600.0087,245.2062 590.3732,245.4004 580.7379,245.5851 571.1028,245.7601 561.4678,245.9256 551.8329,246.0815 542.1982,246.2278 532.5636,246.3644 522.9291,246.4916 513.2948,246.6091 503.6605,246.717 494.0264,246.8153 484.3923,246.9041 474.7583,246.9833 465.1243,247.0528 455.4904,247.1128 445.8566,247.1632 436.2228,247.2041 426.5891,247.2353 416.9553,247.257 407.3216,247.269 397.6879,247.2715 388.0542,247.2644 378.4205,247.2478 368.7867,247.2215 359.153,247.1857 349.5191,247.1402 339.8853,247.0852 330.2514,247.0206 320.6174,246.9465 310.9834,246.8627 301.3493,246.7693 291.715,246.6664 282.0807,246.5539 272.4463,246.4317 262.8118,246.3 253.1772,246.1587 243.5424,246.0078 233.9075,245.8474 224.2724,245.6773 214.6372,245.4976 205.0018,245.3084 195.3662,245.1095 185.7305,244.901 176.0945,244.683 166.4584,244.4553 156.822,244.2181 147.1855,243.9712 137.5487,243.7147 127.9116,243.4487 118.2744,243.173 108.6368,242.8877 98.9991,242.5928 89.361,242.2883 79.7227,241.9741 77.4094,241.8973" stroke="silver" stroke-opacity="0.5" stroke-width="1" /><polyline fill="none" points="719.6544,154.5541 712.778,154.7847 703.2277,155.0967 693.6776,155.399 684.1278,155.6916 674.5783,155.9745 665.0289,156.2477 655.4798,156.5112 645.9309,156.7651 636.3823,157.0092 626.8338,157.2437 617.2855,157.4685 607.7374,157.6837 598.1894,157.8891 588.6416,158.0849 579.094,158.271 569.5466,158.4475 559.9993,158.6143 550.4521,158.7714 540.905,158.9188 531.3581,159.0566 521.8113,159.1847 512.2645,159.3031 502.7179,159.4119 493.1714,159.511 483.6249,159.6005 474.0785,159.6803 464.5322,159.7504 454.9859,159.8109 445.4397,159.8617 435.8935,159.9029 426.3473,159.9344 416.8012,159.9562 407.2551,159.9684 397.7089,159.9709 388.1628,159.9637 378.6167,159.9469 369.0705,159.9204 359.5244,159.8843 349.9781,159.8385 340.4319,159.7831 330.8856,159.718 321.3392,159.6432 311.7928,159.5588 302.2463,159.4647 292.6997,159.3609 283.1531,159.2475 273.6063,159.1244 264.0594,158.9917 254.5124,158.8492 244.9653,158.6972 235.4181,158.5354 225.8707,158.364 216.3231,158.1829 206.7754,157.9921 197.2276,157.7917 187.6796,157.5816 178.1314,157.3618 168.583,157.1324 159.0344,156.8932 149.4856,156.6444 139.9366,156.3859 130.3874,156.1177 120.838,155.8399 111.2883,155.5523 101.7384,155.2551 92.1882,154.9482 82.6378,154.6315 80.3456,154.5541" stroke="silver" stroke-opacity="0.5" stroke-width="1" /><polyline fill="none" points="716.667,67.1768 709.855,67.4092 700.3941,67.7234 690.9335,68.0279 681.4731,68.3227 672.0129,68.6077 662.5529,68.8829 653.0931,69.1484 643.6335,69.4041 634.1741,69.6501 624.715,69.8863 615.2559,70.1128 605.7971,70.3295 596.3384,70.5365 586.8799,70.7337 577.4215,70.9212 567.9632,71.099 558.5051,71.267 549.0471,71.4252 539.5893,71.5738 530.1315,71.7126 520.6739,71.8416 511.2163,71.961 501.7588,72.0705 492.3014,72.1704 482.8441,72.2605 473.3869,72.3409 463.9297,72.4115 454.4725,72.4725 445.0154,72.5237 435.5584,72.5651 426.1013,72.5968 416.6443,72.6188 407.1873,72.6311 397.7303,72.6336 388.2733,72.6264 378.8163,72.6095 369.3593,72.5828 359.9022,72.5464 350.4452,72.5003 340.988,72.4444 331.5309,72.3788 322.0737,72.3035 312.6164,72.2185 303.159,72.1237 293.7016,72.0192 284.2441,71.9049 274.7865,71.7809 265.3288,71.6472 255.871,71.5037 246.413,71.3505 236.955,71.1875 227.4968,71.0149 218.0385,70.8324 208.5801,70.6403 199.1215,70.4384 189.6627,70.2267 180.2038,70.0053 170.7447,69.7741 161.2854,69.5332 151.8259,69.2826 142.3662,69.0222 132.9063,68.752 123.4463,68.4721 113.986,68.1824 104.5254,67.883 95.0647,67.5738 85.6037,67.2548 83.333,67.1768" stroke="silver" stroke-opacity="0.5" stroke-width="1" /><circle cx="726.5972" cy="616.0739" fill="black" r="0.738" stroke="none" /><circle cx="712.9373" cy="210.9163" fill="black" r="0.738" stroke="none" /><circle cx="718.4869" cy="487.8144" fill="black" r="0.738" stroke="none" /><circle cx="718.7425" cy="540.6878" fill="black" r="0.738" stroke="none" /><circle cx="707.5526" cy="318.7788" fill="black" r="0.738" stroke="none" /><circle cx="705.3171" cy="314.3908" fill="black" r="0.738" stroke="none" /><circle cx="708.9865" cy="434.7037" fill="black" r="0.738" stroke="none" /><circle cx="711.2045" cy="519.5854" fill="black" r="0.738" stroke="none" /><circle cx="694.9644" cy="68.5118" fill="black" r="0.738" stroke="none" /><circle cx="700.2765" cy="414.0778" fill="black" r="0.738" stroke="none" /><circle cx="704.1106" cy="676.8832" fill="black" r="0.738" stroke="none" /><circle cx="673.395" cy="136.3382" fill="black" r="0.738" stroke="none" /><circle cx="669.05" cy="179.3854" fill="black" r="0.738" stroke="none" /><circle cx="671.4947" cy="274.7482" fill="black" r="0.738" stroke="none" /><circle cx="680.2963" cy="661.2523" fill="black" r="0.738" stroke="none" /><circle cx="668.1098" cy="208.6913" fill="black" r="0.738" stroke="none" /><circle cx="661.9125" cy="458.0277" fill="black" r="0.738" stroke="none" /><circle cx="655.9388" cy="254.1992" fill="black" r="0.738" stroke="none" /><circle cx="650.5822" cy="366.331" fill="black" r="0.738" stroke="none" /><circle cx="648.1646" cy="570.5336" fill="black" r="0.738" stroke="none" /><circle cx="642.4167" cy="480.3403" fill="black" r="0.738" stroke="none" /><circle cx="629.4073" cy="72.8305" fill="black" r="0.936" stroke="none" /><circle cx="632.2764" cy="416.1163" fill="black" r="0.738" stroke="none" /><circle cx="625.5183" cy="214.7684" fill="black" r="0.738" stroke="none" /><circle cx="623.6632" cy="211.0551" fill="black" r="0.738" stroke="none" /><circle cx="621.4355" cy="401.1622" fill="black" r="0.738" stroke="none" /><circle cx="622.3892" cy="717.6399" fill="black" r="0.738" stroke="none" /><circle cx="607.956" cy="164.1446" fill="black" r="0.738" stroke="none" /><circle cx="603.3692" cy="87.2544" fill="black" r="1.17" stroke="none" /><circle cx="602.6169" cy="323.1404" fill="black" r="0.738" stroke="none" /><circle cx="593.0337" cy="108.1021" fill="black" r="0.738" stroke="none" /><circle cx="591.0106" cy="234.7327" fill="black" r="0.738" stroke="none" /><circle cx="597.1189" cy="627.2394" fill="black" r="0.738" stroke="none" /><circle cx="590.87" cy="537.389" fill="black" r="1.17" stroke="none" /><circle cx="589.2953" cy="472.4498" fill="black" r="0.738" stroke="none" /><circle cx="582.7875" cy="187.3774" fill="black" r="0.936" stroke="none" /><circle cx="587.1718" cy="607.4118" fill="black" r="0.738" stroke="none" /><circle cx="554.2783" cy="135.91" fill="black" r="0.738" stroke="none" /><circle cx="563.1396" cy="710.7102" fill="black" r="0.738" stroke="none" /><circle cx="563.0833" cy="706.8662" fill="black" r="0.738" stroke="none" /><circle cx="557.5308" cy="601.5094" fill="black" r="0.738" stroke="none" /><circle cx="553.5515" cy="392.7264" fill="black" r="0.738" stroke="none" /><circle cx="548.4157" cy="112.3293" fill="black" r="0.738" stroke="none" /><circle cx="546.8694" cy="439.5283" fill="black" r="0.738" stroke="none" /><circle cx="540.9414" cy="281.9556" fill="black" r="0.738" stroke="none" /><circle cx="534.891" cy="320.4525" fill="black" r="0.738" stroke="none" /><circle cx="524.3167" cy="234.5125" fill="black" r="0.738" stroke="none" /><circle cx="521.3092" cy="155.785" fill="black" r="0.738" stroke="none" /><circle cx="524.6867" cy="444.5353" fill="black" r="0.936" stroke="none" /><circle cx="518.1597" cy="651.0917" fill="black" r="0.738" stroke="none" /><circle cx="515.5405" cy="608.4156" fill="black" r="0.738" stroke="none" /><circle cx="506.4308" cy="551.7583" fill="black" r="0.738" stroke="none" /><circle cx="500.982" cy="316.0556" fill="black" r="0.738" stroke="none" /><circle cx="491.7168" cy="415.4697" fill="black" r="0.738" stroke="none" /><circle cx="486.3567" cy="108.1334" fill="black" r="0.738" stroke="none" /><circle cx="486.5289" cy="218.7743" fill="black" r="0.738" stroke="none" /><circle cx="484.6794" cy="149.461" fill="black" r="0.738" stroke="none" /><circle cx="483.7617" cy="703.3778" fill="black" r="0.738" stroke="none" /><circle cx="476.1857" cy="478.0001" fill="black" r="0.936" stroke="none" /><circle cx="473.3872" cy="342.4824" fill="black" r="0.738" stroke="none" /><circle cx="473.066" cy="562.8649" fill="black" r="0.936" stroke="none" /><circle cx="463.5143" cy="443.9608" fill="black" r="0.738" stroke="none" /><circle cx="462.6282" cy="479.3999" fill="black" r="0.738" stroke="none" /><circle cx="458.3036" cy="227.9789" fill="black" r="0.738" stroke="none" /><circle cx="451.9234" cy="613.7108" fill="black" r="0.738" stroke="none" /><circle cx="450.2553" cy="278.1281" fill="black" r="0.738" stroke="none" /><circle cx="444.6397" cy="104.4097" fill="black" r="0.738" stroke="none" /><circle cx="440.4314" cy="553.3495" fill="black" r="0.738" stroke="none" /><circle cx="434.1906" cy="111.9655" fill="black" r="0.738" stroke="none" /><circle cx="434.0773" cy="578.4246" fill="black" r="0.738" stroke="none" /><circle cx="429.0783" cy="306.9284" fill="black" r="0.738" stroke="none" /><circle cx="421.0549" cy="400.5017" fill="black" r="0.738" stroke="none" /><circle cx="414.069" cy="560.4875" fill="black" r="0.738" stroke="none" /><circle cx="408.3046" cy="715.8319" fill="black" r="1.17" stroke="none" /><circle cx="404.2693" cy="317.3559" fill="black" r="0.936" stroke="none" /><circle cx="398.5232" cy="330.7092" fill="black" r="0.738" stroke="none" /><circle cx="395.2791" cy="453.9301" fill="black" r="0.738" stroke="none" /><circle cx="391.1919" cy="187.6447" fill="black" r="0.738" stroke="none" /><circle cx="387.6131" cy="689.2748" fill="black" r="0.738" stroke="none" /><circle cx="387.0318" cy="505.7629" fill="black" r="0.738" stroke="none" /><circle cx="381.6478" cy="464.9109" fill="black" r="0.936" stroke="none" /><circle cx="379.1993" cy="588.7596" fill="black" r="0.738" stroke="none" /><circle cx="378.371" cy="134.0114" fill="black" r="0.738" stroke="none" /><circle cx="374.4053" cy="369.6858" fill="black" r="0.738" stroke="none" /><circle cx="369.7096" cy="453.2758" fill="black" r="0.738" stroke="none" /><circle cx="368.3719" cy="118.0883" fill="black" r="0.738" stroke="none" /><circle cx="364.8356" cy="522.2076" fill="black" r="0.738" stroke="none" /><circle cx="362.8099" cy="258.2859" fill="black" r="0.738" stroke="none" /><circle cx="339.1464" cy="329.2137" fill="black" r="0.738" stroke="none" /><circle cx="334.8521" cy="239.109" fill="black" r="0.738" stroke="none" /><circle cx="335.2662" cy="100.7973" fill="black" r="0.738" stroke="none" /><circle cx="327.0474" cy="652.3597" fill="black" r="0.738" stroke="none" /><circle cx="323.3643" cy="339.8396" fill="black" r="0.738" stroke="none" /><circle cx="320.6034" cy="239.2643" fill="black" r="0.738" stroke="none" /><circle cx="317.6558" cy="381.2505" fill="black" r="0.738" stroke="none" /><circle cx="319.3656" cy="105.2149" fill="black" r="0.738" stroke="none" /><circle cx="315.0124" cy="464.4906" fill="black" r="0.738" stroke="none" /><circle cx="306.2579" cy="655.1708" fill="black" r="0.738" stroke="none" /><circle cx="304.0309" cy="376.1551" fill="black" r="0.738" stroke="none" /><circle cx="303.3977" cy="289.0404" fill="black" r="0.738" stroke="none" /><circle cx="296.3758" cy="598.3206" fill="black" r="0.738" stroke="none" /><circle cx="297.8449" cy="170.9454" fill="black" r="0.738" stroke="none" /><circle cx="292.7526" cy="633.9123" fill="black" r="0.738" stroke="none" /><circle cx="287.9913" cy="479.1592" fill="black" r="0.738" stroke="none" /><circle cx="273.3958" cy="544.727" fill="black" r="0.738" stroke="none" /><circle cx="275.8121" cy="321.7273" fill="black" r="0.738" stroke="none" /><circle cx="271.7314" cy="324.9051" fill="black" r="0.738" stroke="none" /><circle cx="273.9392" cy="145.6783" fill="black" r="0.738" stroke="none" /><circle cx="265.8707" cy="225.9114" fill="black" r="0.738" stroke="none" /><circle cx="257.4058" cy="552.993" fill="black" r="0.936" stroke="none" /><circle cx="259.4763" cy="113.2381" fill="black" r="0.738" stroke="none" /><circle cx="254.6893" cy="279.1852" fill="black" r="0.738" stroke="none" /><circle cx="234.9809" cy="631.9669" fill="black" r="0.738" stroke="none" /><circle cx="232.6406" cy="380.7215" fill="black" r="0.738" stroke="none" /><circle cx="227.2858" cy="143.7133" fill="black" r="0.738" stroke="none" /><circle cx="221.3847" cy="281.2532" fill="black" r="0.738" stroke="none" /><circle cx="216.4005" cy="548.3462" fill="black" r="0.738" stroke="none" /><circle cx="207.5184" cy="573.8655" fill="black" r="0.936" stroke="none" /><circle cx="213.3004" cy="183.6326" fill="black" r="0.738" stroke="none" /><circle cx="202.9249" cy="572.4717" fill="black" r="0.738" stroke="none" /><circle cx="195.0989" cy="705.8254" fill="black" r="0.738" stroke="none" /><circle cx="194.3781" cy="607.1636" fill="black" r="0.738" stroke="none" /><circle cx="196.7537" cy="365.5667" fill="black" r="0.738" stroke="none" /><circle cx="188.2788" cy="485.2027" fill="black" r="0.738" stroke="none" /><circle cx="195.9413" cy="111.712" fill="black" r="0.738" stroke="none" /><circle cx="183.6095" cy="531.6569" fill="black" r="0.738" stroke="none" /><circle cx="184.867" cy="77.8089" fill="black" r="0.738" stroke="none" /><circle cx="168.9455" cy="668.7782" fill="black" r="0.738" stroke="none" /><circle cx="167.4765" cy="507.7301" fill="black" r="0.738" stroke="none" /><circle cx="172.949" cy="250.5499" fill="black" r="0.738" stroke="none" /><circle cx="155.8106" cy="703.1969" fill="black" r="0.738" stroke="none" /><circle cx="154.0544" cy="571.0218" fill="black" r="0.738" stroke="none" /><circle cx="154.0705" cy="403.0438" fill="black" r="0.738" stroke="none" /><circle cx="152.9556" cy="346.416" fill="black" r="0.738" stroke="none" /><circle cx="156.6632" cy="107.0957" fill="black" r="0.738" stroke="none" /><circle cx="141.6421" cy="414.0037" fill="black" r="0.936" stroke="none" /><circle cx="132.6464" cy="586.1492" fill="black" r="0.738" stroke="none" /><circle cx="129.6359" cy="519.6656" fill="black" r="1.854" stroke="none" /><circle cx="129.8976" cy="114.8379" fill="black" r="0.738" stroke="none" /><circle cx="114.0084" cy="615.0364" fill="black" r="0.936" stroke="none" /><circle cx="116.4786" cy="318.7968" fill="black" r="0.936" stroke="none" /><circle cx="104.1501" cy="656.9972" fill="black" r="0.738" stroke="none" /><circle cx="109.1727" cy="207.3292" fill="black" r="0.738" stroke="none" /><circle cx="106.8781" cy="270.5401" fill="black" r="0.738" stroke="none" /><circle cx="102.8293" cy="367.245" fill="black" r="0.738" stroke="none" /><circle cx="102.8422" cy="366.8085" fill="black" r="0.738" stroke="none" /><circle cx="95.0025" cy="354.776" fill="black" r="0.738" stroke="none" /><circle cx="89.7968" cy="428.1126" fill="black" r="0.738" stroke="none" /><circle cx="85.3033" cy="469.7507" fill="black" r="0.738" stroke="none" /><circle cx="84.0803" cy="502.3138" fill="black" r="0.738" stroke="none" /><circle cx="90.4874" cy="162.5004" fill="black" r="0.738" stroke="none" /><circle cx="74.1727" cy="670.9282" fill="black" r="0.936" stroke="none" /><circle cx="89.4822" cy="135.0071" fill="black" r="0.738" stroke="none" /><circle cx="85.6075" cy="178.0798" fill="black" r="0.738" stroke="none" /><circle cx="83.8145" cy="162.8917" fill="black" r="0.738" stroke="none" /><circle cx="72.4706" cy="468.5664" fill="black" r="0.738" stroke="none" /><circle cx="13.77" cy="786.23" fill="black" r="4.59" stroke="none" /><circle cx="13.77" cy="786.23" fill="black" r="4.59" stroke="none" /><text fill="black" font-family="monospace" font-size="12" x="10.77" y="775.64">1</text><circle cx="37.77" cy="786.23" fill="black" r="3.654" stroke="none" /><circle cx="37.77" cy="786.23" fill="black" r="3.654" stroke="none" /><text fill="black" font-family="monospace" font-size="12" x="34.769999999999996" y="775.64">2</text><circle cx="61.77" cy="786.23" fill="black" r="2.916" stroke="none" /><circle cx="61.77" cy="786.23" fill="black" r="2.916" stroke="none" /><text fill="black" font-family="monospace" font-size="12" x="58.769999999999996" y="775.64">3</text><circle cx="85.77" cy="786.23" fill="black" r="2.322" stroke="none" /><circle cx="85.77" cy="786.23" fill="black" r="2.322" stroke="none" /><text fill="black" font-family="monospace" font-size="12" x="82.77" y="775.64">4</text><circle cx="109.77" cy="786.23" fill="black" r="1.854" stroke="none" /><circle cx="109.77" cy="786.23" fill="black" r="1.854" stroke="none" /><text fill="black" font-family="monospace" font-size="12" x="106.77" y="775.64">5</text><circle cx="133.77" cy="786.23" fill="black" r="1.476" stroke="none" /><circle cx="133.77" cy="786.23" fill="black" r="1.476" stroke="none" /><text fill="black" font-family="monospace" font-size="12" x="130.77" y="775.64">6</text><circle cx="157.77" cy="786.23" fill="black" r="1.17" stroke="none" /><circle cx="157.77" cy="786.23" fill="black" r="1.17" stroke="none" /><text fill="black" font-family="monospace" font-size="12" x="154.77" y="775.64">7</text><circle cx="181.77" cy="786.23" fill="black" r="0.936" stroke="none" /><circle cx="181.77" cy="786.23" fill="black" r="0.936" stroke="none" /><text fill="black" font-family="monospace" font-size="12" x="178.77" y="775.64">8</text><circle cx="205.77" cy="786.23" fill="black" r="0.738" stroke="none" /><circle cx="205.77" cy="786.23" fill="black" r="0.738" stroke="none" /><text fill="black" font-family="monospace" font-size="12" x="202.77" y="775.64">9</text><text fill="gray" fill-opacity="0.5" font-family="monospace" font-size="12" x="730.5765860073332" y="722.4859588782424">16h45m</text><text fill="gray" fill-opacity="0.5" font-family="monospace" font-size="12" x="629.6432848394059" y="725.0113417233987">16h50m</text><text fill="gray" fill-opacity="0.5" font-family="monospace" font-size="12" x="528.7366734432869" y="726.6261362893915">16h55m</text><text fill="gray" fill-opacity="0.5" font-family="monospace" font-size="12" x="427.8450262624557" y="727.331487094783">17h00m</text><text fill="gray" fill-opacity="0.5" font-family="monospace" font-size="12" x="326.9566159549123" y="727.1278939473891">17h05m</text><text fill="gray" fill-opacity="0.5" font-family="monospace" font-size="12" x="226.05971479412472" y="726.0152125899303">17h10m</text><text fill="gray" fill-opacity="0.5" font-family="monospace" font-size="12" x="125.14259606351271" y="723.992654513688">17h15m</text><text fill="gray" fill-opacity="0.5" font-family="monospace" font-size="12" x="63.4801258956781" y="678.5667478452463">+23°</text><text fill="gray" fill-opacity="0.5" font-family="monospace" font-size="12" x="66.16717481135316" y="591.1948569614149">+24°</text><text fill="gray" fill-opacity="0.5" font-family="monospace" font-size="12" x="68.90324031218097" y="503.8552334814606">+25°</text><text fill="gray" fill-opacity="0.5" font-family="monospace" font-size="12" x="71.68869682781377" y="416.5346055115809">+26°</text><text fill="gray" fill-opacity="0.5" font-family="monospace" font-size="12" x="74.52394885402055" y="329.2197126824234">+27°</text><text fill="gray" fill-opacity="0.5" font-family="monospace" font-size="12" x="77.4094311811408" y="241.89729810558998">+28°</text><text fill="gray" fill-opacity="0.5" font-family="monospace" font-size="12" x="80.3456091616892" y="154.5541003346308">+29°</text><text fill="gray" fill-opacity="0.5" font-family="monospace" font-size="12" x="83.33297901746084" y="67.17684532016995">+30°</text><text fill="black" font-family="monospace" font-size="12" x="12" y="48">&gt;&gt; No.579 16h45m 17h18m +22.5°+30.0°</text><a target="_self" xlink:href="hip037.svg"><text fill="black" font-family="monospace" font-size="12" x="12" y="36">&gt; No.37 15h00m 18h00m +22.5°+52.5°</text></a><a target="_self" xlink:href="hip002.svg"><text fill="black" font-family="monospace" font-size="12" x="12" y="24">No.2 00h 24h +0.0°+90.0°</text></a><polyline fill="none" points="716.667,67.1768 709.855,67.4092 700.3941,67.7234 690.9335,68.0279 681.4731,68.3227 672.0129,68.6077 662.5529,68.8829 653.0931,69.1484 643.6335,69.4041 634.1741,69.6501 624.715,69.8863 615.2559,70.1128 605.7971,70.3295 596.3384,70.5365 586.8799,70.7337 577.4215,70.9212 567.9632,71.099 558.5051,71.267 549.0471,71.4252 539.5893,71.5738 530.1315,71.7126 520.6739,71.8416 511.2163,71.961 501.7588,72.0705 492.3014,72.1704 482.8441,72.2605 473.3869,72.3409 463.9297,72.4115 454.4725,72.4725 445.0154,72.5237 435.5584,72.5651 426.1013,72.5968 416.6443,72.6188 407.1873,72.6311 397.7303,72.6336 388.2733,72.6264 378.8163,72.6095 369.3593,72.5828 359.9022,72.5464 350.4452,72.5003 340.988,72.4444 331.5309,72.3788 322.0737,72.3035 312.6164,72.2185 303.159,72.1237 293.7016,72.0192 284.2441,71.9049 274.7865,71.7809 265.3288,71.6472 255.871,71.5037 246.413,71.3505 236.955,71.1875 227.4968,71.0149 218.0385,70.8324 208.5801,70.6403 199.1215,70.4384 189.6627,70.2267 180.2038,70.0053 170.7447,69.7741 161.2854,69.5332 151.8259,69.2826 142.3662,69.0222 132.9063,68.752 123.4463,68.4721 113.986,68.1824 104.5254,67.883 95.0647,67.5738 85.6037,67.2548 83.333,67.1768" stroke="black" stroke-opacity="0.5" stroke-width="1" /><polyline fill="none" points="737.8451,722.2689 737.515,711.3422 737.184,700.4163 736.8523,689.4912 736.5199,678.5667 736.1867,667.643 735.8527,656.72 735.518,645.7977 735.1825,634.8759 734.8462,623.9548 734.5092,613.0343 734.1714,602.1143 733.8328,591.1949 733.4935,580.2759 733.1534,569.3574 732.8126,558.4394 732.4709,547.5218 732.1286,536.6047 731.7854,525.6878 731.4415,514.7714 731.0968,503.8552 730.7513,492.9394 730.405,482.0238 730.058,471.1085 729.7102,460.1934 729.3617,449.2785 729.0123,438.3637 728.6622,427.4491 728.3113,416.5346 727.9596,405.6202 727.6072,394.7059 727.2539,383.7916 726.8999,372.8773 726.5451,361.963 726.1896,351.0486 725.8332,340.1342 725.4761,329.2197 725.1181,318.3051 724.7594,307.3903 724.3999,296.4754 724.0396,285.5603 723.6785,274.6449 723.3167,263.7293 722.954,252.8135 722.5906,241.8973 722.2263,230.9808 721.8613,220.064 721.4955,209.1467 721.1288,198.2291 720.7614,187.3111 720.3932,176.3926 720.0242,165.4736 719.6544,154.5541 719.2838,143.6341 718.9124,132.7135 718.5402,121.7923 718.1671,110.8706 717.7933,99.9482 717.4187,89.0251 717.0433,78.1013 716.667,67.1768" stroke="black" stroke-opacity="0.5" stroke-width="1" /><polyline fill="none" points="737.8451,722.2689 730.5766,722.486 720.4817,722.7795 710.3872,723.064 700.2931,723.3393 690.1993,723.6055 680.1059,723.8626 670.0127,724.1105 659.9199,724.3494 649.8274,724.5792 639.7352,724.7998 629.6433,725.0113 619.5516,725.2138 609.4602,725.4071 599.369,725.5913 589.2781,725.7665 579.1874,725.9325 569.0969,726.0894 559.0066,726.2372 548.9164,726.376 538.8265,726.5056 528.7367,726.6261 518.647,726.7376 508.5575,726.8399 498.4681,726.9332 488.3789,727.0174 478.2897,727.0924 468.2006,727.1584 458.1116,727.2153 448.0227,727.2631 437.9339,727.3019 427.845,727.3315 417.7562,727.352 407.6675,727.3635 397.5787,727.3658 387.4899,727.3591 377.4011,727.3433 367.3123,727.3184 357.2235,727.2844 347.1346,727.2413 337.0456,727.1892 326.9566,727.1279 316.8675,727.0575 306.7783,726.9781 296.689,726.8896 286.5995,726.7919 276.51,726.6852 266.4202,726.5694 256.3304,726.4445 246.2403,726.3105 236.1501,726.1674 226.0597,726.0152 215.9691,725.8539 205.8783,725.6835 195.7872,725.504 185.696,725.3154 175.6044,725.1177 165.5126,724.9109 155.4206,724.695 145.3282,724.47 135.2356,724.2359 125.1426,723.9927 115.0493,723.7403 104.9557,723.4788 94.8618,723.2083 84.7675,722.9286 74.6728,722.6397 64.5777,722.3418 62.1549,722.2689" stroke="black" stroke-opacity="0.5" stroke-width="1" /><polyline fill="none" points="62.1549,722.2689 62.485,711.3422 62.816,700.4163 63.1477,689.4912 63.4801,678.5667 63.8133,667.643 64.1473,656.72 64.482,645.7977 64.8175,634.8759 65.1538,623.9548 65.4908,613.0343 65.8286,602.1143 66.1672,591.1949 66.5065,580.2759 66.8466,569.3574 67.1874,558.4394 67.5291,547.5218 67.8714,536.6047 68.2146,525.6878 68.5585,514.7714 68.9032,503.8552 69.2487,492.9394 69.595,482.0238 69.942,471.1085 70.2898,460.1934 70.6383,449.2785 70.9877,438.3637 71.3378,427.4491 71.6887,416.5346 72.0404,405.6202 72.3928,394.7059 72.7461,383.7916 73.1001,372.8773 73.4549,361.963 73.8104,351.0486 74.1668,340.1342 74.5239,329.2197 74.8819,318.3051 75.2406,307.3903 75.6001,296.4754 75.9604,285.5603 76.3215,274.6449 76.6833,263.7293 77.046,252.8135 77.4094,241.8973 77.7737,230.9808 78.1387,220.064 78.5045,209.1467 78.8712,198.2291 79.2386,187.3111 79.6068,176.3926 79.9758,165.4736 80.3456,154.5541 80.7162,143.6341 81.0876,132.7135 81.4598,121.7923 81.8329,110.8706 82.2067,99.9482 82.5813,89.0251 82.9567,78.1013 83.333,67.1768" stroke="black" stroke-opacity="0.5" stroke-width="1" /></svg>