<?xml version="1.0" encoding="utf-8" ?>
<svg baseProfile="tiny" height="800" version="1.2" width="800" xmlns="http://www.w3.org/2000/svg" xmlns:ev="http://www.w3.org/2001/xml-events" xmlns:xlink="http://www.w3.org/1999/xlink"><defs /><rect fill="none" height="800" stroke="black" stroke-width="2" width="800" x="0" y="0" /><polyline fill="none" points="646.5979,724.6508 646.357,713.7274 646.1156,702.8047 645.8736,691.8829 645.6311,680.9617 645.388,670.0413 645.1443,659.1215 644.9001,648.2023 644.6554,637.2838 644.4101,626.3659 644.1642,615.4485 643.9177,604.5316 643.6708,593.6153 643.4232,582.6995 643.1751,571.7841 642.9264,560.8692 642.6772,549.9546 642.4274,539.0405 642.1771,528.1267 641.9261,517.2133 641.6747,506.3001 641.4226,495.3872 641.17,484.4746 640.9168,473.5622 640.6631,462.65 640.4088,451.738 640.154,440.8262 639.8985,429.9144 639.6425,419.0028 639.386,408.0912 639.1288,397.1797 638.8711,386.2682 638.6128,375.3567 638.354,364.4451 638.0946,353.5335 637.8346,342.6218 637.574,331.71 637.3129,320.7981 637.0512,309.886 636.7889,298.9737 636.5261,288.0613 636.2626,277.1485 635.9986,266.2355 635.734,255.3223 635.4689,244.4086 635.2031,233.4947 634.9368,222.5804 634.6699,211.6657 634.4024,200.7506 634.1344,189.835 633.8657,178.9189 633.5965,168.0024 633.3267,157.0853 633.0563,146.1677 632.7854,135.2495 632.5138,124.3307 632.2416,113.4113 631.9689,102.4912 631.6956,91.5704 631.4217,80.6489 631.1472,69.7267" stroke="silver" stroke-opacity="0.5" stroke-width="1" /><polyline fill="none" points="545.6876,726.4184 545.5454,715.4975 545.4028,704.5773 545.2599,693.6579 545.1166,682.7392 544.9731,671.8211 544.8292,660.9037 544.685,649.987 544.5404,639.0708 544.3956,628.1552 544.2503,617.2402 544.1048,606.3257 543.9589,595.4117 543.8128,584.4982 543.6662,573.5851 543.5194,562.6725 543.3722,551.7602 543.2247,540.8483 543.0768,529.9368 542.9286,519.0255 542.7801,508.1146 542.6313,497.2039 542.4821,486.2935 542.3326,475.3833 542.1827,464.4733 542.0325,453.5634 541.882,442.6537 541.7312,431.7441 541.58,420.8346 541.4285,409.9251 541.2766,399.0157 541.1244,388.1063 540.9719,377.1968 540.819,366.2873 540.6658,355.3778 540.5123,344.4681 540.3584,333.5583 540.2042,322.6484 540.0496,311.7383 539.8947,300.828 539.7395,289.9174 539.5839,279.0067 539.428,268.0956 539.2717,257.1842 539.1151,246.2725 538.9582,235.3605 538.8009,224.448 538.6433,213.5352 538.4853,202.6219 538.327,191.7082 538.1683,180.794 538.0093,169.8792 537.85,158.964 537.6903,148.0481 537.5303,137.1317 537.3699,126.2146 537.2092,115.297 537.0481,104.3786 536.8867,93.4595 536.7249,82.5398 536.5628,71.6193" stroke="silver" stroke-opacity="0.5" stroke-width="1" /><polyline fill="none" points="444.7943,727.2765 444.7505,716.3568 444.7067,705.4378 444.6628,694.5195 444.6188,683.602 444.5746,672.6851 444.5304,661.7689 444.4861,650.8533 444.4416,639.9383 444.3971,629.0239 444.3524,618.11 444.3077,607.1966 444.2629,596.2837 444.2179,585.3713 444.1729,574.4594 444.1277,563.5478 444.0825,552.6367 444.0371,541.7259 443.9917,530.8154 443.9461,519.9053 443.9005,508.9954 443.8547,498.0859 443.8089,487.1765 443.7629,476.2673 443.7168,465.3584 443.6707,454.4496 443.6244,443.5409 443.578,432.6323 443.5315,421.7238 443.485,410.8154 443.4383,399.9069 443.3915,388.9985 443.3446,378.0901 443.2976,367.1816 443.2505,356.273 443.2033,345.3643 443.156,334.4555 443.1086,323.5466 443.0611,312.6374 443.0135,301.7281 442.9657,290.8185 442.9179,279.9087 442.87,268.9986 442.8219,258.0881 442.7738,247.1774 442.7256,236.2662 442.6772,225.3547 442.6287,214.4428 442.5802,203.5304 442.5315,192.6175 442.4827,181.7042 442.4339,170.7903 442.3849,159.8759 442.3358,148.961 442.2866,138.0454 442.2373,127.1292 442.1879,116.2124 442.1384,105.2948 442.0887,94.3766 442.039,83.4577 441.9892,72.538" stroke="silver" stroke-opacity="0.5" stroke-width="1" /><polyline fill="none" points="343.9061,727.2256 343.9609,716.3058 344.0158,705.3868 344.0708,694.4684 344.1259,683.5508 344.1812,672.6339 344.2366,661.7176 344.2921,650.8019 344.3478,639.8868 344.4035,628.9723 344.4594,618.0584 344.5155,607.1449 344.5716,596.232 344.6279,585.3195 344.6843,574.4075 344.7408,563.4959 344.7975,552.5847 344.8543,541.6738 344.9112,530.7633 344.9682,519.8531 345.0254,508.9432 345.0827,498.0335 345.1402,487.1241 345.1977,476.2149 345.2554,465.3059 345.3132,454.397 345.3712,443.4883 345.4292,432.5796 345.4874,421.6711 345.5458,410.7626 345.6042,399.8541 345.6628,388.9456 345.7215,378.0371 345.7804,367.1285 345.8394,356.2199 345.8985,345.3112 345.9577,334.4023 346.0171,323.4933 346.0766,312.5841 346.1362,301.6747 346.196,290.7651 346.2559,279.8552 346.3159,268.945 346.376,258.0345 346.4363,247.1237 346.4967,236.2125 346.5573,225.3009 346.618,214.3889 346.6788,203.4765 346.7397,192.5636 346.8008,181.6502 346.862,170.7363 346.9234,159.8218 346.9848,148.9068 347.0464,137.9912 347.1082,127.0749 347.1701,116.1581 347.2321,105.2405 347.2942,94.3222 347.3565,83.4032 347.4189,72.4835" stroke="silver" stroke-opacity="0.5" stroke-width="1" /><polyline fill="none" points="243.0115,726.2657 243.1648,715.3446 243.3184,704.4242 243.4724,693.5045 243.6268,682.5856 243.7815,671.6673 243.9365,660.7497 244.0919,649.8328 244.2477,638.9164 244.4038,628.0006 244.5603,617.0854 244.7171,606.1707 244.8743,595.2565 245.0319,584.3428 245.1897,573.4295 245.348,562.5166 245.5066,551.6042 245.6656,540.6921 245.8249,529.7804 245.9846,518.869 246.1446,507.9578 246.305,497.047 246.4658,486.1364 246.6269,475.226 246.7884,464.3158 246.9502,453.4057 247.1124,442.4958 247.275,431.586 247.4379,420.6763 247.6012,409.7667 247.7648,398.857 247.9288,387.9474 248.0932,377.0378 248.2579,366.1281 248.423,355.2184 248.5885,344.3086 248.7543,333.3986 248.9205,322.4885 249.087,311.5782 249.254,300.6678 249.4212,289.7571 249.5889,278.8461 249.7569,267.9349 249.9253,257.0234 250.094,246.1115 250.2632,235.1993 250.4327,224.2867 250.6025,213.3737 250.7727,202.4602 250.9433,191.5463 251.1143,180.632 251.2856,169.7171 251.4574,158.8016 251.6294,147.8856 251.8019,136.9691 251.9747,126.0519 252.1479,115.134 252.3215,104.2155 252.4954,93.2963 252.6697,82.3764 252.8444,71.4557" stroke="silver" stroke-opacity="0.5" stroke-width="1" /><polyline fill="none" points="142.0986,724.3961 142.3505,713.4723 142.603,702.5494 142.8561,691.6271 143.1098,680.7056 143.364,669.7848 143.6189,658.8647 143.8743,647.9452 144.1303,637.0263 144.3868,626.1081 144.644,615.1903 144.9017,604.2732 145.1601,593.3565 145.419,582.4404 145.6785,571.5246 145.9386,560.6094 146.1992,549.6945 146.4605,538.7801 146.7223,527.8659 146.9847,516.9522 147.2478,506.0387 147.5114,495.1255 147.7756,484.2126 148.0404,473.2999 148.3057,462.3874 148.5717,451.475 148.8383,440.5629 149.1054,429.6508 149.3732,418.7389 149.6415,407.827 149.9105,396.9152 150.18,386.0034 150.4501,375.0916 150.7208,364.1797 150.9922,353.2678 151.2641,342.3558 151.5366,331.4438 151.8097,320.5315 152.0834,309.6192 152.3577,298.7066 152.6327,287.7938 152.9082,276.8808 153.1843,265.9676 153.461,255.054 153.7384,244.1401 154.0163,233.2259 154.2948,222.3113 154.574,211.3963 154.8537,200.4809 155.1341,189.5651 155.4151,178.6488 155.6966,167.732 155.9788,156.8147 156.2616,145.8968 156.545,134.9783 156.829,124.0593 157.1137,113.1396 157.3989,102.2193 157.6848,91.2982 157.9713,80.3765 158.2584,69.4541" stroke="silver" stroke-opacity="0.5" stroke-width="1" /><polyline fill="none" points="736.5199,678.5667 736.1176,678.579 726.0622,678.8804 716.0071,679.1727 705.9524,679.4557 695.8981,679.7296 685.844,679.9944 675.7903,680.25 665.7369,680.4964 655.6839,680.7336 645.6311,680.9617 635.5786,681.1806 625.5263,681.3904 615.4743,681.591 605.4226,681.7825 595.3711,681.9648 585.3198,682.138 575.2687,682.302 565.2178,682.4569 555.1672,682.6026 545.1166,682.7392 535.0663,682.8666 525.0161,682.9849 514.9661,683.094 504.9161,683.194 494.8664,683.2849 484.8167,683.3666 474.7671,683.4391 464.7176,683.5026 454.6681,683.5568 444.6188,683.602 434.5694,683.638 424.5202,683.6649 414.4709,683.6826 404.4217,683.6912 394.3724,683.6906 384.3232,683.681 374.2739,683.6621 364.2246,683.6342 354.1753,683.5971 344.1259,683.5508 334.0765,683.4954 324.027,683.4309 313.9774,683.3572 303.9277,683.2744 293.8779,683.1825 283.8279,683.0814 273.7779,682.9712 263.7277,682.8518 253.6773,682.7233 243.6268,682.5856 233.5761,682.4388 223.5252,682.2828 213.4741,682.1177 203.4228,681.9434 193.3712,681.76 183.3194,681.5675 173.2674,681.3657 163.2152,681.1549 153.1626,680.9348 143.1098,680.7056 133.0567,680.4673 123.0032,680.2198 112.9495,679.9631 102.8954,679.6973 92.841,679.4223 82.7863,679.1381 72.7312,678.8447 63.4801,678.5667" stroke="silver" stroke-opacity="0.5" stroke-width="1" /><polyline fill="none" points="733.8328,591.1949 733.4338,591.2072 723.4588,591.5119 713.4842,591.8072 703.5099,592.0933 693.536,592.3701 683.5623,592.6377 673.589,592.896 663.616,593.145 653.6432,593.3848 643.6708,593.6153 633.6986,593.8366 623.7266,594.0486 613.7549,594.2514 603.7835,594.4449 593.8122,594.6291 583.8412,594.8041 573.8703,594.9699 563.8997,595.1264 553.9292,595.2737 543.9589,595.4117 533.9888,595.5405 524.0188,595.66 514.049,595.7703 504.0792,595.8714 494.1096,595.9632 484.1401,596.0458 474.1707,596.1191 464.2013,596.1832 454.2321,596.2381 444.2629,596.2837 434.2937,596.3201 424.3246,596.3473 414.3555,596.3652 404.3864,596.3739 394.4173,596.3733 384.4482,596.3635 374.4791,596.3445 364.51,596.3162 354.5408,596.2787 344.5716,596.232 334.6023,596.176 324.633,596.1108 314.6636,596.0364 304.694,595.9527 294.7244,595.8598 284.7547,595.7576 274.7848,595.6462 264.8148,595.5255 254.8446,595.3956 244.8743,595.2565 234.9038,595.1081 224.9332,594.9505 214.9623,594.7836 204.9913,594.6075 195.02,594.4221 185.0485,594.2275 175.0768,594.0236 165.1048,593.8105 155.1326,593.5882 145.1601,593.3565 135.1873,593.1156 125.2142,592.8655 115.2409,592.6061 105.2672,592.3374 95.2932,592.0595 85.3189,591.7723 75.3442,591.4758 66.1672,591.1949" stroke="silver" stroke-opacity="0.5" stroke-width="1" /><polyline fill="none" points="731.0968,503.8552 730.701,503.8677 720.808,504.1754 710.9152,504.4738 701.0228,504.7627 691.1308,505.0424 681.239,505.3126 671.3475,505.5735 661.4563,505.8251 651.5653,506.0673 641.6747,506.3001 631.7842,506.5236 621.8941,506.7378 612.0041,506.9426 602.1144,507.138 592.2249,507.3241 582.3356,507.5009 572.4464,507.6683 562.5575,507.8264 552.6687,507.9752 542.7801,508.1146 532.8917,508.2447 523.0033,508.3654 513.1151,508.4769 503.227,508.5789 493.3391,508.6717 483.4512,508.7551 473.5634,508.8292 463.6757,508.8939 453.7881,508.9494 443.9005,508.9954 434.0129,509.0322 424.1254,509.0596 414.2379,509.0777 404.3505,509.0865 394.463,509.0859 384.5756,509.0761 374.6881,509.0568 364.8006,509.0283 354.913,508.9904 345.0254,508.9432 335.1378,508.8867 325.2501,508.8208 315.3623,508.7456 305.4744,508.661 295.5864,508.5672 285.6983,508.464 275.8101,508.3514 265.9217,508.2296 256.0333,508.0984 246.1446,507.9578 236.2558,507.808 226.3669,507.6487 216.4777,507.4802 206.5884,507.3023 196.6989,507.1151 186.8091,506.9185 176.9191,506.7125 167.0289,506.4973 157.1385,506.2727 147.2478,506.0387 137.3568,505.7954 127.4656,505.5427 117.574,505.2807 107.6822,505.0093 97.7901,504.7286 87.8976,504.4385 78.0049,504.139 68.9032,503.8552" stroke="silver" stroke-opacity="0.5" stroke-width="1" /><polyline fill="none" points="728.3113,416.5346 727.9189,416.5472 718.1092,416.8579 708.2999,417.159 698.4909,417.4508 688.6821,417.733 678.8737,418.0059 669.0655,418.2693 659.2576,418.5232 649.4499,418.7677 639.6425,419.0028 629.8354,419.2284 620.0284,419.4446 610.2217,419.6513 600.4152,419.8487 590.6089,420.0366 580.8028,420.215 570.9968,420.3841 561.1911,420.5437 551.3854,420.6938 541.58,420.8346 531.7747,420.9659 521.9695,421.0878 512.1644,421.2003 502.3595,421.3033 492.5546,421.397 482.7499,421.4812 472.9452,421.556 463.1406,421.6213 453.336,421.6773 443.5315,421.7238 433.7271,421.7609 423.9227,421.7886 414.1183,421.8069 404.3139,421.8157 394.5096,421.8152 384.7052,421.8052 374.9008,421.7858 365.0964,421.757 355.2919,421.7187 345.4874,421.6711 335.6829,421.614 325.8783,421.5475 316.0736,421.4716 306.2688,421.3862 296.4639,421.2915 286.659,421.1873 276.8539,421.0737 267.0487,420.9506 257.2434,420.8182 247.4379,420.6763 237.6323,420.525 227.8265,420.3643 218.0205,420.1941 208.2144,420.0145 198.408,419.8255 188.6015,419.627 178.7948,419.4191 168.9878,419.2018 159.1806,418.9751 149.3732,418.7389 139.5655,418.4932 129.7575,418.2381 119.9493,417.9736 110.1408,417.6997 100.3321,417.4163 90.523,417.1234 80.7136,416.8211 71.6887,416.5346" stroke="silver" stroke-opacity="0.5" stroke-width="1" /><polyline fill="none" points="725.4761,329.2197 725.0871,329.2324 715.3623,329.5459 705.6378,329.8497 695.9136,330.1441 686.1897,330.4289 676.4661,330.7042 666.7427,330.9699 657.0196,331.2262 647.2967,331.4729 637.574,331.71 627.8516,331.9377 618.1294,332.1558 608.4074,332.3644 598.6856,332.5635 588.964,332.7531 579.2425,332.9332 569.5213,333.1037 559.8002,333.2648 550.0792,333.4163 540.3584,333.5583 530.6377,333.6908 520.9171,333.8138 511.1967,333.9273 501.4763,334.0313 491.7561,334.1258 482.0359,334.2107 472.3159,334.2862 462.5959,334.3521 452.8759,334.4086 443.156,334.4555 433.4361,334.493 423.7163,334.5209 413.9965,334.5394 404.2767,334.5483 394.5569,334.5477 384.8371,334.5377 375.1173,334.5181 365.3975,334.489 355.6776,334.4504 345.9577,334.4023 336.2377,334.3447 326.5177,334.2776 316.7976,334.201 307.0775,334.1149 297.3572,334.0193 287.6369,333.9142 277.9164,333.7996 268.1958,333.6754 258.4751,333.5418 248.7543,333.3986 239.0333,333.246 229.3122,333.0838 219.5909,332.9121 209.8694,332.7309 200.1478,332.5402 190.426,332.3399 180.704,332.1302 170.9817,331.9109 161.2593,331.6821 151.5366,331.4438 141.8137,331.1959 132.0905,330.9386 122.3671,330.6717 112.6434,330.3952 102.9195,330.1093 93.1953,329.8138 83.4708,329.5088 74.5239,329.2197" stroke="silver" stroke-opacity="0.5" stroke-width="1" /><polyline fill="none" points="722.5906,241.8973 722.205,241.9101 712.5666,242.2262 702.9285,242.5326 693.2907,242.8295 683.6531,243.1167 674.0158,243.3943 664.3787,243.6623 654.7419,243.9207 645.1053,244.1695 635.4689,244.4086 625.8327,244.6382 616.1967,244.8582 606.5609,245.0686 596.9253,245.2694 587.2899,245.4605 577.6546,245.6421 568.0195,245.8141 558.3846,245.9765 548.7498,246.1293 539.1151,246.2725 529.4806,246.4062 519.8461,246.5302 510.2118,246.6446 500.5776,246.7495 490.9434,246.8448 481.3094,246.9305 471.6754,247.0066 462.0415,247.0731 452.4076,247.13 442.7738,247.1774 433.14,247.2151 423.5063,247.2433 413.8725,247.2619 404.2388,247.2709 394.6051,247.2703 384.9714,247.2602 375.3377,247.2404 365.7039,247.2111 356.0701,247.1722 346.4363,247.1237 336.8025,247.0656 327.1685,246.9979 317.5345,246.9207 307.9005,246.8339 298.2663,246.7374 288.6321,246.6314 278.9977,246.5158 269.3633,246.3906 259.7287,246.2559 250.094,246.1115 240.4592,245.9575 230.8243,245.794 221.1891,245.6208 211.5539,245.4381 201.9184,245.2458 192.2828,245.0438 182.647,244.8323 173.011,244.6112 163.3748,244.3805 153.7384,244.1401 144.1017,243.8902 134.4648,243.6306 124.8277,243.3615 115.1904,243.0827 105.5528,242.7944 95.9149,242.4964 86.2768,242.1888 77.4094,241.8973" stroke="silver" stroke-opacity="0.5" stroke-width="1" /><polyline fill="none" points="719.6544,154.5541 719.2724,154.567 709.7219,154.8856 700.1717,155.1945 690.6217,155.4936 681.072,155.7831 671.5225,156.0629 661.9732,156.3331 652.4242,156.5935 642.8753,156.8442 633.3267,157.0853 623.7783,157.3167 614.2301,157.5384 604.682,157.7505 595.1341,157.9528 585.5864,158.1455 576.0388,158.3285 566.4914,158.5019 556.9441,158.6656 547.397,158.8196 537.85,158.964 528.3031,159.0986 518.7563,159.2237 509.2096,159.339 499.663,159.4447 490.1165,159.5407 480.57,159.6271 471.0237,159.7038 461.4774,159.7708 451.9311,159.8282 442.3849,159.8759 432.8387,159.914 423.2925,159.9424 413.7464,159.9611 404.2003,159.9702 394.6542,159.9696 385.1081,159.9594 375.5619,159.9395 366.0158,159.9099 356.4696,159.8707 346.9234,159.8218 337.3771,159.7633 327.8308,159.6951 318.2844,159.6172 308.7379,159.5297 299.1914,159.4325 289.6448,159.3257 280.0981,159.2092 270.5513,159.083 261.0044,158.9471 251.4574,158.8016 241.9102,158.6465 232.3629,158.4816 222.8155,158.3071 213.2679,158.1229 203.7202,157.9291 194.1722,157.7255 184.6242,157.5123 175.0759,157.2894 165.5275,157.0569 155.9788,156.8147 146.43,156.5627 136.8809,156.3011 127.3316,156.0299 117.7821,155.7489 108.2323,155.4583 98.6823,155.1579 89.1321,154.8479 80.3456,154.5541" stroke="silver" stroke-opacity="0.5" stroke-width="1" /><polyline fill="none" points="716.667,67.1768 716.2886,67.1899 706.8275,67.5108 697.3667,67.8219 687.9061,68.1233 678.4458,68.4149 668.9857,68.6968 659.5257,68.9689 650.066,69.2313 640.6065,69.4839 631.1472,69.7267 621.688,69.9598 612.2291,70.1832 602.7703,70.3968 593.3116,70.6007 583.8532,70.7948 574.3948,70.9792 564.9366,71.1538 555.4786,71.3187 546.0206,71.4738 536.5628,71.6193 527.1051,71.7549 517.6474,71.8809 508.1899,71.9971 498.7325,72.1036 489.2751,72.2003 479.8178,72.2873 470.3606,72.3646 460.9034,72.4321 451.4463,72.4899 441.9892,72.538 432.5321,72.5763 423.0751,72.6049 413.6181,72.6238 404.1611,72.633 394.7041,72.6324 385.2471,72.6221 375.7901,72.602 366.333,72.5722 356.876,72.5327 347.4189,72.4835 337.9618,72.4245 328.5046,72.3558 319.0473,72.2774 309.59,72.1892 300.1327,72.0913 290.6752,71.9837 281.2177,71.8663 271.76,71.7392 262.3023,71.6023 252.8444,71.4557 243.3865,71.2994 233.9284,71.1333 224.4702,70.9575 215.0118,70.772 205.5533,70.5767 196.0947,70.3717 186.6359,70.1569 177.1769,69.9324 167.7177,69.6981 158.2584,69.4541 148.7988,69.2003 139.3391,68.9368 129.8791,68.6635 120.419,68.3805 110.9586,68.0877 101.498,67.7851 92.0372,67.4728 83.333,67.1768" stroke="silver" stroke-opacity="0.5" stroke-width="1" /><circle cx="723.5849" cy="676.7667" fill="black" r="0.738" stroke="none" /><circle cx="707.5935" cy="200.2483" fill="black" r="0.738" stroke="none" /><circle cx="712.8222" cy="439.2193" fill="black" r="0.936" stroke="none" /><circle cx="713.4159" cy="575.8115" fill="black" r="0.738" stroke="none" /><circle cx="703.8089" cy="310.854" fill="black" r="0.738" stroke="none" /><circle cx="692.8872" cy="149.6527" fill="black" r="0.738" stroke="none" /><circle cx="687.3525" cy="111.3483" fill="black" r="0.738" stroke="none" /><circle cx="686.131" cy="478.7045" fill="black" r="0.738" stroke="none" /><circle cx="687.118" cy="561.5173" fill="black" r="0.738" stroke="none" /><circle cx="669.2329" cy="257.335" fill="black" r="0.738" stroke="none" /><circle cx="661.317" cy="238.8522" fill="black" r="0.738" stroke="none" /><circle cx="660.9388" cy="239.1245" fill="black" r="0.738" stroke="none" /><circle cx="652.2487" cy="646.8117" fill="black" r="0.738" stroke="none" /><circle cx="648.9174" cy="606.5146" fill="black" r="0.738" stroke="none" /><circle cx="644.0663" cy="436.6287" fill="black" r="0.738" stroke="none" /><circle cx="637.3329" cy="204.348" fill="black" r="0.738" stroke="none" /><circle cx="631.7539" cy="180.2814" fill="black" r="0.738" stroke="none" /><circle cx="626.5254" cy="321.5747" fill="black" r="0.738" stroke="none" /><circle cx="625.2343" cy="503.7842" fill="black" r="0.738" stroke="none" /><circle cx="622.5566" cy="384.4575" fill="black" r="0.738" stroke="none" /><circle cx="613.5229" cy="143.2236" fill="black" r="0.738" stroke="none" /><circle cx="603.8626" cy="109.7062" fill="black" r="0.738" stroke="none" /><circle cx="605.5016" cy="426.9079" fill="black" r="0.738" stroke="none" /><circle cx="599.03" cy="405.2064" fill="black" r="0.738" stroke="none" /><circle cx="599.3955" cy="560.2883" fill="black" r="0.738" stroke="none" /><circle cx="582.712" cy="203.4509" fill="black" r="0.738" stroke="none" /><circle cx="582.4734" cy="203.0188" fill="black" r="0.738" stroke="none" /><circle cx="587.2819" cy="703.0771" fill="black" r="0.738" stroke="none" /><circle cx="566.2483" cy="119.0177" fill="black" r="0.738" stroke="none" /><circle cx="566.7118" cy="596.3932" fill="black" r="0.738" stroke="none" /><circle cx="559.4415" cy="531.9722" fill="black" r="0.738" stroke="none" /><circle cx="551.708" cy="379.3978" fill="black" r="0.936" stroke="none" /><circle cx="553.6298" cy="535.9002" fill="black" r="0.738" stroke="none" /><circle cx="547.5003" cy="185.1078" fill="black" r="0.738" stroke="none" /><circle cx="547.2787" cy="185.6352" fill="black" r="0.738" stroke="none" /><circle cx="543.5377" cy="442.9799" fill="black" r="0.738" stroke="none" /><circle cx="540.094" cy="293.0553" fill="black" r="0.738" stroke="none" /><circle cx="534.746" cy="118.4779" fill="black" r="0.738" stroke="none" /><circle cx="536.5083" cy="330.7312" fill="black" r="0.738" stroke="none" /><circle cx="528.8623" cy="252.0895" fill="black" r="0.738" stroke="none" /><circle cx="522.5959" cy="434.086" fill="black" r="0.738" stroke="none" /><circle cx="518.9161" cy="538.7923" fill="black" r="0.738" stroke="none" /><circle cx="500.554" cy="585.6895" fill="black" r="0.936" stroke="none" /><circle cx="495.1429" cy="687.3879" fill="black" r="0.738" stroke="none" /><circle cx="488.0345" cy="379.7187" fill="black" r="0.738" stroke="none" /><circle cx="478.6169" cy="109.0756" fill="black" r="1.854" stroke="none" /><circle cx="477.3389" cy="175.4594" fill="black" r="0.738" stroke="none" /><circle cx="477.6716" cy="245.0398" fill="black" r="0.738" stroke="none" /><circle cx="477.9351" cy="417.5917" fill="black" r="0.738" stroke="none" /><circle cx="477.5473" cy="644.556" fill="black" r="0.738" stroke="none" /><circle cx="464.5972" cy="441.1613" fill="black" r="0.738" stroke="none" /><circle cx="460.9254" cy="581.099" fill="black" r="0.738" stroke="none" /><circle cx="458.716" cy="527.3396" fill="black" r="0.738" stroke="none" /><circle cx="444.1467" cy="260.9626" fill="black" r="0.738" stroke="none" /><circle cx="441.3201" cy="286.1125" fill="black" r="0.738" stroke="none" /><circle cx="440.0921" cy="177.5237" fill="black" r="0.738" stroke="none" /><circle cx="432.2054" cy="411.8173" fill="black" r="0.738" stroke="none" /><circle cx="427.3687" cy="633.2712" fill="black" r="0.936" stroke="none" /><circle cx="424.7308" cy="97.5838" fill="black" r="0.738" stroke="none" /><circle cx="409.3224" cy="89.1394" fill="black" r="0.738" stroke="none" /><circle cx="408.679" cy="679.2345" fill="black" r="0.738" stroke="none" /><circle cx="402.4575" cy="532.1288" fill="black" r="0.738" stroke="none" /><circle cx="396.9622" cy="351.5663" fill="black" r="0.738" stroke="none" /><circle cx="390.1949" cy="264.3747" fill="black" r="1.17" stroke="none" /><circle cx="389.8167" cy="331.5768" fill="black" r="0.738" stroke="none" /><circle cx="385.8377" cy="631.6374" fill="black" r="1.476" stroke="none" /><circle cx="384.6586" cy="201.8669" fill="black" r="0.738" stroke="none" /><circle cx="376.8988" cy="440.1168" fill="black" r="0.738" stroke="none" /><circle cx="373.1271" cy="500.8489" fill="black" r="0.738" stroke="none" /><circle cx="368.0373" cy="171.8793" fill="black" r="0.738" stroke="none" /><circle cx="365.6106" cy="408.843" fill="black" r="0.738" stroke="none" /><circle cx="363.1671" cy="592.5578" fill="black" r="0.738" stroke="none" /><circle cx="358.4927" cy="523.9302" fill="black" r="0.738" stroke="none" /><circle cx="353.6047" cy="279.3691" fill="black" r="0.738" stroke="none" /><circle cx="336.9054" cy="504.3588" fill="black" r="0.738" stroke="none" /><circle cx="335.5049" cy="256.7464" fill="black" r="0.738" stroke="none" /><circle cx="334.2121" cy="78.3392" fill="black" r="0.738" stroke="none" /><circle cx="328.1425" cy="138.9133" fill="black" r="0.738" stroke="none" /><circle cx="321.4885" cy="557.3264" fill="black" r="0.738" stroke="none" /><circle cx="313.1249" cy="648.8522" fill="black" r="0.936" stroke="none" /><circle cx="311.7095" cy="715.8352" fill="black" r="0.738" stroke="none" /><circle cx="305.6995" cy="211.8911" fill="black" r="0.936" stroke="none" /><circle cx="293.3293" cy="178.0564" fill="black" r="0.738" stroke="none" /><circle cx="277.8125" cy="374.2126" fill="black" r="0.738" stroke="none" /><circle cx="277.506" cy="291.7193" fill="black" r="0.738" stroke="none" /><circle cx="275.0697" cy="490.8836" fill="black" r="0.738" stroke="none" /><circle cx="271.0759" cy="694.0346" fill="black" r="0.738" stroke="none" /><circle cx="273.7257" cy="426.6218" fill="black" r="1.17" stroke="none" /><circle cx="274.4331" cy="326.3364" fill="black" r="0.738" stroke="none" /><circle cx="272.1744" cy="80.0461" fill="black" r="0.738" stroke="none" /><circle cx="263.8444" cy="195.32" fill="black" r="0.738" stroke="none" /><circle cx="260.0501" cy="427.8404" fill="black" r="0.738" stroke="none" /><circle cx="255.1126" cy="471.9433" fill="black" r="0.738" stroke="none" /><circle cx="255.124" cy="398.8776" fill="black" r="0.738" stroke="none" /><circle cx="243.7851" cy="699.8872" fill="black" r="0.738" stroke="none" /><circle cx="246.183" cy="149.6325" fill="black" r="0.738" stroke="none" /><circle cx="231.0018" cy="495.0643" fill="black" r="0.738" stroke="none" /><circle cx="221.6242" cy="498.0516" fill="black" r="0.738" stroke="none" /><circle cx="215.3859" cy="565.6201" fill="black" r="0.738" stroke="none" /><circle cx="218.7894" cy="347.0422" fill="black" r="0.738" stroke="none" /><circle cx="211.6665" cy="712.8474" fill="black" r="1.17" stroke="none" /><circle cx="218.992" cy="260.0767" fill="black" r="0.738" stroke="none" /><circle cx="213.6726" cy="434.8714" fill="black" r="0.738" stroke="none" /><circle cx="217.1626" cy="134.6971" fill="black" r="0.936" stroke="none" /><circle cx="211.2708" cy="445.8289" fill="black" r="0.936" stroke="none" /><circle cx="210.0757" cy="391.8471" fill="black" r="0.738" stroke="none" /><circle cx="200.7004" cy="641.4399" fill="black" r="2.322" stroke="none" /><circle cx="203.5932" cy="311.8261" fill="black" r="0.738" stroke="none" /><circle cx="202.724" cy="93.1553" fill="black" r="0.738" stroke="none" /><circle cx="200.7006" cy="102.5512" fill="black" r="0.738" stroke="none" /><circle cx="195.264" cy="107.939" fill="black" r="0.738" stroke="none" /><circle cx="180.8621" cy="522.6041" fill="black" r="0.738" stroke="none" /><circle cx="185.18" cy="217.722" fill="black" r="0.738" stroke="none" /><circle cx="185.1682" cy="218.2459" fill="black" r="0.738" stroke="none" /><circle cx="160.2707" cy="567.3191" fill="black" r="0.738" stroke="none" /><circle cx="167.9056" cy="210.0683" fill="black" r="0.738" stroke="none" /><circle cx="159.2632" cy="520.6473" fill="black" r="0.738" stroke="none" /><circle cx="160.5485" cy="424.2477" fill="black" r="1.17" stroke="none" /><circle cx="151.905" cy="661.7646" fill="black" r="0.738" stroke="none" /><circle cx="159.9402" cy="299.506" fill="black" r="0.738" stroke="none" /><circle cx="153.3846" cy="376.5614" fill="black" r="0.738" stroke="none" /><circle cx="150.0822" cy="86.112" fill="black" r="0.738" stroke="none" /><circle cx="126.6046" cy="610.4674" fill="black" r="0.738" stroke="none" /><circle cx="120.3483" cy="661.1813" fill="black" r="0.738" stroke="none" /><circle cx="125.6866" cy="423.6334" fill="black" r="0.936" stroke="none" /><circle cx="121.6907" cy="408.8478" fill="black" r="0.738" stroke="none" /><circle cx="104.545" cy="467.6955" fill="black" r="0.738" stroke="none" /><circle cx="100.0583" cy="595.8647" fill="black" r="0.738" stroke="none" /><circle cx="111.0696" cy="137.796" fill="black" r="0.738" stroke="none" /><circle cx="93.1596" cy="577.3132" fill="black" r="0.936" stroke="none" /><circle cx="95.1543" cy="113.2407" fill="black" r="0.738" stroke="none" /><circle cx="81.7081" cy="471.1267" fill="black" r="0.738" stroke="none" /><circle cx="75.9123" cy="451.9804" fill="black" r="0.738" stroke="none" /><circle cx="13.77" cy="786.23" fill="black" r="4.59" stroke="none" /><circle cx="13.77" cy="786.23" fill="black" r="4.59" stroke="none" /><text fill="black" font-family="monospace" font-size="12" x="10.77" y="775.64">1</text><circle cx="37.77" cy="786.23" fill="black" r="3.654" stroke="none" /><circle cx="37.77" cy="786.23" fill="black" r="3.654" stroke="none" /><text fill="black" font-family="monospace" font-size="12" x="34.769999999999996" y="775.64">2</text><circle cx="61.77" cy="786.23" fill="black" r="2.916" stroke="none" /><circle cx="61.77" cy="786.23" fill="black" r="2.916" stroke="none" /><text fill="black" font-family="monospace" font-size="12" x="58.769999999999996" y="775.64">3</text><circle cx="85.77" cy="786.23" fill="black" r="2.322" stroke="none" /><circle cx="85.77" cy="786.23" fill="black" r="2.322" stroke="none" /><text fill="black" font-family="monospace" font-size="12" x="82.77" y="775.64">4</text><circle cx="109.77" cy="786.23" fill="black" r="1.854" stroke="none" /><circle cx="109.77" cy="786.23" fill="black" r="1.854" stroke="none" /><text fill="black" font-family="monospace" font-size="12" x="106.77" y="775.64">5</text><circle cx="133.77" cy="786.23" fill="black" r="1.476" stroke="none" /><circle cx="133.77" cy="786.23" fill="black" r="1.476" stroke="none" /><text fill="black" font-family="monospace" font-size="12" x="130.77" y="775.64">6</text><circle cx="157.77" cy="786.23" fill="black" r="1.17" stroke="none" /><circle cx="157.77" cy="786.23" fill="black" r="1.17" stroke="none" /><text fill="black" font-family="monospace" font-size="12" x="154.77" y="775.64">7</text><circle cx="181.77" cy="786.23" fill="black" r="0.936" stroke="none" /><circle cx="181.77" cy="786.23" fill="black" r="0.936" stroke="none" /><text fill="black" font-family="monospace" font-size="12" x="178.77" y="775.64">8</text><circle cx="205.77" cy="786.23" fill="black" r="0.738" stroke="none" /><circle cx="205.77" cy="786.23" fill="black" r="0.738" stroke="none" /><text fill="black" font-family="monospace" font-size="12" x="202.77" y="775.64">9</text><text fill="gray" fill-opacity="0.5" font-family="monospace" font-size="12" x="646.5978951312247" y="724.6507572605254">01h45m</text><text fill="gray" fill-opacity="0.5" font-family="monospace" font-size="12" x="545.6876192596756" y="726.4184331096001">01h50m</text><text fill="gray" fill-opacity="0.5" font-family="monospace" font-size="12" x="444.79427766013464" y="727.2765180063429">01h55m</text><text fill="gray" fill-opacity="0.5" font-family="monospace" font-size="12" x="343.906143192119" y="727.2256200022063">02h00m</text><text fill="gray" fill-opacity="0.5" font-family="monospace" font-size="12" x="243.0114880963645" y="726.2657030332351">02h05m</text><text fill="gray" fill-opacity="0.5" font-family="monospace" font-size="12" x="142.09858538872334" y="724.3960868734831">02h10m</text><text fill="gray" fill-opacity="0.5" font-family="monospace" font-size="12" x="63.480125895679635" y="678.5667478452463">+23°</text><text fill="gray" fill-opacity="0.5" font-family="monospace" font-size="12" x="66.1671748113547" y="591.1948569614149">+24°</text><text fill="gray" fill-opacity="0.5" font-family="monospace" font-size="12" x="68.9032403121825" y="503.8552334814606">+25°</text><text fill="gray" fill-opacity="0.5" font-family="monospace" font-size="12" x="71.68869682781525" y="416.5346055115809">+26°</text><text fill="gray" fill-opacity="0.5" font-family="monospace" font-size="12" x="74.52394885402202" y="329.2197126824234">+27°</text><text fill="gray" fill-opacity="0.5" font-family="monospace" font-size="12" x="77.40943118114228" y="241.89729810558998">+28°</text><text fill="gray" fill-opacity="0.5" font-family="monospace" font-size="12" x="80.34560916169062" y="154.5541003346308">+29°</text><text fill="gray" fill-opacity="0.5" font-family="monospace" font-size="12" x="83.33297901746232" y="67.17684532016995">+30°</text><text fill="black" font-family="monospace" font-size="12" x="12" y="48">&gt;&gt; No.552 01h40m 02h14m +22.5°+30.0°</text><a target="_self" xlink:href="hip032.svg"><text fill="black" font-family="monospace" font-size="12" x="12" y="36">&gt; No.32 00h00m 03h00m +22.5°+52.5°</text></a><a target="_self" xlink:href="hip002.svg"><text fill="black" font-family="monospace" font-size="12" x="12" y="24">No.2 00h 24h +0.0°+90.0°</text></a><polyline fill="none" points="716.667,67.1768 716.2886,67.1899 706.8275,67.5108 697.3667,67.8219 687.9061,68.1233 678.4458,68.4149 668.9857,68.6968 659.5257,68.9689 650.066,69.2313 640.6065,69.4839 631.1472,69.7267 621.688,69.9598 612.2291,70.1832 602.7703,70.3968 593.3116,70.6007 583.8532,70.7948 574.3948,70.9792 564.9366,71.1538 555.4786,71.3187 546.0206,71.4738 536.5628,71.6193 527.1051,71.7549 517.6474,71.8809 508.1899,71.9971 498.7325,72.1036 489.2751,72.2003 479.8178,72.2873 470.3606,72.3646 460.9034,72.4321 451.4463,72.4899 441.9892,72.538 432.5321,72.5763 423.0751,72.6049 413.6181,72.6238 404.1611,72.633 394.7041,72.6324 385.2471,72.6221 375.7901,72.602 366.333,72.5722 356.876,72.5327 347.4189,72.4835 337.9618,72.4245 328.5046,72.3558 319.0473,72.2774 309.59,72.1892 300.1327,72.0913 290.6752,71.9837 281.2177,71.8663 271.76,71.7392 262.3023,71.6023 252.8444,71.4557 243.3865,71.2994 233.9284,71.1333 224.4702,70.9575 215.0118,70.772 205.5533,70.5767 196.0947,70.3717 186.6359,70.1569 177.1769,69.9324 167.7177,69.6981 158.2584,69.4541 148.7988,69.2003 139.3391,68.9368 129.8791,68.6635 120.419,68.3805 110.9586,68.0877 101.498,67.7851 92.0372,67.4728 83.333,67.1768" stroke="black" stroke-opacity="0.5" stroke-width="1" /><polyline fill="none" points="737.8451,722.2689 737.515,711.3422 737.184,700.4163 736.8523,689.4912 736.5199,678.5667 736.1867,667.643 735.8527,656.72 735.518,645.7977 735.1825,634.8759 734.8462,623.9548 734.5092,613.0343 734.1714,602.1143 733.8328,591.1949 733.4935,580.2759 733.1534,569.3574 732.8126,558.4394 732.4709,547.5218 732.1286,536.6047 731.7854,525.6878 731.4415,514.7714 731.0968,503.8552 730.7513,492.9394 730.405,482.0238 730.058,471.1085 729.7102,460.1934 729.3617,449.2785 729.0123,438.3637 728.6622,427.4491 728.3113,416.5346 727.9596,405.6202 727.6072,394.7059 727.2539,383.7916 726.8999,372.8773 726.5451,361.963 726.1896,351.0486 725.8332,340.1342 725.4761,329.2197 725.1181,318.3051 724.7594,307.3903 724.3999,296.4754 724.0396,285.5603 723.6785,274.6449 723.3167,263.7293 722.954,252.8135 722.5906,241.8973 722.2263,230.9808 721.8613,220.064 721.4955,209.1467 721.1288,198.2291 720.7614,187.3111 720.3932,176.3926 720.0242,165.4736 719.6544,154.5541 719.2838,143.6341 718.9124,132.7135 718.5402,121.7923 718.1671,110.8706 717.7933,99.9482 717.4187,89.0251 717.0433,78.1013 716.667,67.1768" stroke="black" stroke-opacity="0.5" stroke-width="1" /><polyline fill="none" points="737.8451,722.2689 737.4413,722.2811 727.3462,722.5809 717.2514,722.8715 707.1571,723.1531 697.063,723.4255 686.9694,723.6887 676.876,723.9429 666.783,724.188 656.6903,724.4239 646.5979,724.6508 636.5058,724.8685 626.4139,725.0771 616.3223,725.2766 606.231,725.467 596.1399,725.6484 586.049,725.8206 575.9584,725.9837 565.8679,726.1377 555.7777,726.2826 545.6876,726.4184 535.5977,726.5452 525.508,726.6628 515.4184,726.7713 505.3289,726.8708 495.2396,726.9611 485.1503,727.0424 475.0612,727.1146 464.9722,727.1776 454.8832,727.2316 444.7943,727.2765 434.7054,727.3123 424.6166,727.339 414.5278,727.3567 404.4391,727.3652 394.3503,727.3647 384.2615,727.355 374.1727,727.3363 364.0839,727.3085 353.9951,727.2716 343.9061,727.2256 333.8172,727.1705 323.7281,727.1064 313.639,727.0331 303.5497,726.9508 293.4604,726.8593 283.3709,726.7588 273.2813,726.6492 263.1915,726.5304 253.1016,726.4026 243.0115,726.2657 232.9212,726.1197 222.8307,725.9646 212.7401,725.8004 202.6492,725.6271 192.5581,725.4447 182.4667,725.2532 172.3751,725.0526 162.2832,724.8428 152.191,724.624 142.0986,724.3961 132.0058,724.159 121.9128,723.9129 111.8194,723.6576 101.7257,723.3932 91.6316,723.1198 81.5372,722.8371 71.4424,722.5454 62.1549,722.2689" stroke="black" stroke-opacity="0.5" stroke-width="1" /><polyline fill="none" points="62.1549,722.2689 62.485,711.3422 62.816,700.4163 63.1477,689.4912 63.4801,678.5667 63.8133,667.643 64.1473,656.72 64.482,645.7977 64.8175,634.8759 65.1538,623.9548 65.4908,613.0343 65.8286,602.1143 66.1672,591.1949 66.5065,580.2759 66.8466,569.3574 67.1874,558.4394 67.5291,547.5218 67.8714,536.6047 68.2146,525.6878 68.5585,514.7714 68.9032,503.8552 69.2487,492.9394 69.595,482.0238 69.942,471.1085 70.2898,460.1934 70.6383,449.2785 70.9877,438.3637 71.3378,427.4491 71.6887,416.5346 72.0404,405.6202 72.3928,394.7059 72.7461,383.7916 73.1001,372.8773 73.4549,361.963 73.8104,351.0486 74.1668,340.1342 74.5239,329.2197 74.8819,318.3051 75.2406,307.3903 75.6001,296.4754 75.9604,285.5603 76.3215,274.6449 76.6833,263.7293 77.046,252.8135 77.4094,241.8973 77.7737,230.9808 78.1387,220.064 78.5045,209.1467 78.8712,198.2291 79.2386,187.3111 79.6068,176.3926 79.9758,165.4736 80.3456,154.5541 80.7162,143.6341 81.0876,132.7135 81.4598,121.7923 81.8329,110.8706 82.2067,99.9482 82.5813,89.0251 82.9567,78.1013 83.333,67.1768" stroke="black" stroke-opacity="0.5" stroke-width="1" /></svg>