<?xml version="1.0" encoding="utf-8" ?>
<svg baseProfile="tiny" height="800" version="1.2" width="800" xmlns="http://www.w3.org/2000/svg" xmlns:ev="http://www.w3.org/2001/xml-events" xmlns:xlink="http://www.w3.org/1999/xlink"><defs /><rect fill="none" height="800" stroke="black" stroke-width="2" width="800" x="0" y="0" /><polyline fill="none" points="639.3315,724.8084 639.0978,713.8853 638.8635,702.9629 638.6286,692.0412 638.3932,681.1203 638.1573,670.2 637.9209,659.2805 637.6839,648.3615 637.4463,637.4432 637.2082,626.5255 636.9696,615.6083 636.7305,604.6917 636.4907,593.7756 636.2505,582.8599 636.0097,571.9448 635.7684,561.03 635.5265,550.1157 635.2841,539.2018 635.0411,528.2882 634.7976,517.3749 634.5535,506.462 634.3089,495.5493 634.0638,484.6369 633.8181,473.7247 633.5718,462.8127 633.325,451.9009 633.0777,440.9892 632.8298,430.0776 632.5813,419.1662 632.3323,408.2548 632.0828,397.3435 631.8327,386.4321 631.582,375.5208 631.3308,364.6094 631.0791,353.698 630.8267,342.7865 630.5739,331.8749 630.3204,320.9632 630.0664,310.0513 629.8119,299.1392 629.5568,288.2268 629.3011,277.3143 629.0449,266.4015 628.7881,255.4883 628.5308,244.5749 628.2729,233.6611 628.0144,222.747 627.7554,211.8324 627.4958,200.9175 627.2357,190.0021 626.975,179.0862 626.7137,168.1698 626.4518,157.2529 626.1894,146.3354 625.9264,135.4174 625.6629,124.4987 625.3988,113.5795 625.1341,102.6595 624.8688,91.7389 624.603,80.8176 624.3366,69.8956" stroke="silver" stroke-opacity="0.5" stroke-width="1" /><polyline fill="none" points="538.4229,726.5106 538.2877,715.5898 538.1523,704.6697 538.0165,693.7504 537.8804,682.8318 537.744,671.9139 537.6073,660.9966 537.4702,650.08 537.3329,639.164 537.1953,628.2485 537.0573,617.3336 536.919,606.4192 536.7804,595.5054 536.6415,584.592 536.5023,573.679 536.3628,562.7665 536.2229,551.8543 536.0828,540.9426 535.9423,530.0311 535.8015,519.12 535.6604,508.2092 535.519,497.2987 535.3772,486.3884 535.2352,475.4783 535.0928,464.5684 534.9501,453.6586 534.8071,442.749 534.6638,431.8395 534.5201,420.9301 534.3762,410.0207 534.2319,399.1114 534.0873,388.2021 533.9424,377.2927 533.7971,366.3834 533.6516,355.4739 533.5057,344.5644 533.3595,333.6547 533.2129,322.7449 533.0661,311.8349 532.9189,300.9247 532.7714,290.0142 532.6236,279.1035 532.4755,268.1926 532.327,257.2813 532.1782,246.3697 532.0291,235.4578 531.8797,224.5454 531.7299,213.6327 531.5798,202.7195 531.4294,191.8059 531.2787,180.8917 531.1276,169.9771 530.9762,159.0619 530.8245,148.1462 530.6724,137.2298 530.52,126.3129 530.3673,115.3953 530.2143,104.477 530.0609,93.558 529.9072,82.6384 529.7532,71.7179" stroke="silver" stroke-opacity="0.5" stroke-width="1" /><polyline fill="none" points="437.5303,727.3032 437.4937,716.3835 437.4569,705.4646 437.4201,694.5464 437.3832,683.6288 437.3463,672.712 437.3092,661.7958 437.2721,650.8802 437.2348,639.9653 437.1975,629.0509 437.1601,618.137 437.1226,607.2237 437.0851,596.3109 437.0474,585.3985 437.0097,574.4866 436.9718,563.5751 436.9339,552.6639 436.8959,541.7532 436.8579,530.8428 436.8197,519.9327 436.7814,509.0229 436.7431,498.1133 436.7047,487.204 436.6662,476.2949 436.6276,465.3859 436.5889,454.4771 436.5501,443.5685 436.5113,432.6599 436.4723,421.7515 436.4333,410.8431 436.3942,399.9347 436.355,389.0263 436.3157,378.1179 436.2763,367.2094 436.2369,356.3009 436.1973,345.3922 436.1577,334.4835 436.118,323.5745 436.0782,312.6654 436.0383,301.7561 435.9983,290.8466 435.9582,279.9367 435.9181,269.0267 435.8778,258.1162 435.8375,247.2055 435.7971,236.2944 435.7565,225.3829 435.7159,214.471 435.6753,203.5586 435.6345,192.6458 435.5936,181.7325 435.5527,170.8187 435.5116,159.9043 435.4705,148.9894 435.4293,138.0738 435.388,127.1577 435.3466,116.2408 435.3051,105.3233 435.2635,94.4052 435.2218,83.4862 435.1801,72.5666" stroke="silver" stroke-opacity="0.5" stroke-width="1" /><polyline fill="none" points="336.6421,727.1869 336.7039,716.267 336.7659,705.3479 336.8281,694.4295 336.8904,683.5119 336.9528,672.5949 337.0153,661.6785 337.0781,650.7628 337.1409,639.8477 337.2039,628.9331 337.267,618.0191 337.3303,607.1056 337.3937,596.1926 337.4573,585.2801 337.521,574.368 337.5849,563.4564 337.6489,552.5451 337.713,541.6342 337.7773,530.7236 337.8417,519.8134 337.9063,508.9034 337.971,497.9937 338.0359,487.0843 338.1009,476.175 338.1661,465.2659 338.2314,454.357 338.2968,443.4482 338.3624,432.5395 338.4282,421.6309 338.494,410.7224 338.5601,399.8138 338.6263,388.9053 338.6926,377.9968 338.759,367.0882 338.8257,356.1795 338.8924,345.2707 338.9593,334.3618 339.0264,323.4528 339.0936,312.5435 339.161,301.6341 339.2285,290.7244 339.2961,279.8145 339.3639,268.9042 339.4318,257.9937 339.4999,247.0828 339.5682,236.1716 339.6366,225.26 339.7051,214.3479 339.7738,203.4355 339.8426,192.5225 339.9116,181.6091 339.9808,170.6952 340.05,159.7807 340.1195,148.8656 340.1891,137.9499 340.2588,127.0337 340.3287,116.1167 340.3987,105.1991 340.4689,94.2808 340.5393,83.3618 340.6098,72.442" stroke="silver" stroke-opacity="0.5" stroke-width="1" /><polyline fill="none" points="235.7465,726.1615 235.9069,715.2402 236.0677,704.3197 236.2288,693.3999 236.3903,682.4808 236.5521,671.5624 236.7144,660.6447 236.877,649.7276 237.04,638.8111 237.2033,627.8951 237.367,616.9798 237.5311,606.0649 237.6956,595.1506 237.8604,584.2367 238.0256,573.3233 238.1912,562.4103 238.3572,551.4978 238.5235,540.5855 238.6902,529.6737 238.8573,518.7621 239.0247,507.8509 239.1925,496.9399 239.3607,486.0291 239.5293,475.1186 239.6983,464.2083 239.8676,453.2981 240.0373,442.3881 240.2074,431.4781 240.3779,420.5683 240.5487,409.6585 240.7199,398.7488 240.8915,387.8391 241.0635,376.9293 241.2359,366.0195 241.4086,355.1097 241.5817,344.1997 241.7552,333.2897 241.9291,322.3794 242.1034,311.469 242.278,300.5585 242.453,289.6476 242.6284,278.7366 242.8042,267.8252 242.9804,256.9136 243.157,246.0016 243.3339,235.0893 243.5113,224.1766 243.689,213.2635 243.8671,202.3499 244.0456,191.4359 244.2245,180.5214 244.4038,169.6064 244.5834,158.6909 244.7635,147.7748 244.9439,136.8581 245.1247,125.9408 245.3059,115.0229 245.4875,104.1042 245.6695,93.1849 245.8519,82.2649 246.0347,71.3442" stroke="silver" stroke-opacity="0.5" stroke-width="1" /><polyline fill="none" points="134.8318,724.2263 135.0909,713.3024 135.3505,702.3791 135.6107,691.4567 135.8716,680.5349 136.133,669.6139 136.395,658.6935 136.6576,647.7738 136.9208,636.8547 137.1847,625.9362 137.4491,615.0183 137.7141,604.1009 137.9797,593.184 138.2459,582.2676 138.5127,571.3517 138.7801,560.4362 139.0482,549.5211 139.3168,538.6064 139.586,527.6921 139.8559,516.7781 140.1263,505.8644 140.3973,494.951 140.669,484.0379 140.9413,473.125 141.2141,462.2123 141.4876,451.2997 141.7617,440.3874 142.0364,429.4751 142.3117,418.563 142.5876,407.6509 142.8641,396.7389 143.1412,385.8269 143.419,374.9148 143.6973,364.0028 143.9763,353.0907 144.2559,342.1786 144.5361,331.2663 144.8169,320.3539 145.0984,309.4413 145.3804,298.5286 145.6631,287.6156 145.9464,276.7024 146.2303,265.7889 146.5148,254.8752 146.8,243.9611 147.0858,233.0467 147.3722,222.132 147.6592,211.2168 147.9468,200.3012 148.2351,189.3852 148.524,178.4687 148.8135,167.5518 149.1037,156.6343 149.3944,145.7162 149.6858,134.7976 149.9779,123.8784 150.2705,112.9585 150.5638,102.038 150.8578,91.1168 151.1523,80.195 151.4475,69.2724" stroke="silver" stroke-opacity="0.5" stroke-width="1" /><polyline fill="none" points="736.5199,678.5667 728.8777,678.7969 718.8225,679.0918 708.7677,679.3774 698.7132,679.6539 688.6591,679.9212 678.6053,680.1793 668.5519,680.4283 658.4987,680.6681 648.4458,680.8988 638.3932,681.1203 628.3409,681.3326 618.2889,681.5358 608.2371,681.7298 598.1855,681.9147 588.1341,682.0904 578.083,682.257 568.0321,682.4144 557.9813,682.5627 547.9308,682.7018 537.8804,682.8318 527.8302,682.9527 517.7801,683.0644 507.7301,683.1669 497.6803,683.2603 487.6306,683.3446 477.5809,683.4197 467.5314,683.4857 457.482,683.5426 447.4326,683.5903 437.3832,683.6288 427.3339,683.6583 417.2847,683.6786 407.2354,683.6897 397.1862,683.6917 387.137,683.6846 377.0877,683.6683 367.0385,683.6429 356.9891,683.6084 346.9398,683.5647 336.8904,683.5119 326.8409,683.4499 316.7913,683.3788 306.7416,683.2985 296.6918,683.2091 286.6419,683.1106 276.5919,683.0029 266.5417,682.8861 256.4914,682.7602 246.4409,682.6251 236.3903,682.4808 226.3394,682.3274 216.2884,682.1648 206.2371,681.9931 196.1857,681.8123 186.134,681.6223 176.082,681.4231 166.0298,681.2148 155.9773,680.9974 145.9246,680.7707 135.8716,680.5349 125.8182,680.29 115.7646,680.0359 105.7106,679.7726 95.6563,679.5002 85.6016,679.2186 75.5466,678.9278 65.4912,678.6278 63.4801,678.5667" stroke="silver" stroke-opacity="0.5" stroke-width="1" /><polyline fill="none" points="733.8328,591.1949 726.2518,591.4275 716.2771,591.7255 706.3027,592.0141 696.3286,592.2936 686.3549,592.5637 676.3815,592.8246 666.4084,593.0762 656.4356,593.3186 646.463,593.5517 636.4907,593.7756 626.5187,593.9902 616.547,594.1955 606.5754,594.3916 596.6041,594.5785 586.633,594.7561 576.6622,594.9244 566.6915,595.0835 556.721,595.2334 546.7506,595.374 536.7804,595.5054 526.8104,595.6275 516.8405,595.7404 506.8708,595.844 496.9011,595.9384 486.9316,596.0236 476.9621,596.0995 466.9928,596.1662 457.0235,596.2237 447.0542,596.2719 437.0851,596.3109 427.1159,596.3406 417.1468,596.3611 407.1777,596.3724 397.2087,596.3744 387.2396,596.3672 377.2705,596.3508 367.3014,596.3251 357.3322,596.2902 347.363,596.246 337.3937,596.1926 327.4244,596.13 317.455,596.0582 307.4855,595.977 297.5159,595.8867 287.5462,595.7871 277.5764,595.6783 267.6064,595.5602 257.6363,595.4329 247.666,595.2964 237.6956,595.1506 227.725,594.9956 217.7542,594.8313 207.7832,594.6577 197.812,594.475 187.8405,594.2829 177.8689,594.0817 167.897,593.8711 157.9248,593.6513 147.9524,593.4223 137.9797,593.184 128.0067,592.9365 118.0334,592.6796 108.0598,592.4136 98.0859,592.1382 88.1117,591.8536 78.1371,591.5597 68.1622,591.2566 66.1672,591.1949" stroke="silver" stroke-opacity="0.5" stroke-width="1" /><polyline fill="none" points="731.0968,503.8552 723.578,504.0902 713.6852,504.3912 703.7927,504.6828 693.9005,504.965 684.0086,505.2379 674.1171,505.5014 664.2258,505.7556 654.3348,506.0004 644.444,506.2359 634.5535,506.462 624.6633,506.6787 614.7733,506.8862 604.8835,507.0842 594.9939,507.273 585.1046,507.4524 575.2154,507.6224 565.3264,507.7831 555.4376,507.9345 545.5489,508.0765 535.6604,508.2092 525.772,508.3326 515.8838,508.4466 505.9957,508.5513 496.1077,508.6467 486.2198,508.7327 476.332,508.8094 466.4443,508.8767 456.5566,508.9348 446.669,508.9835 436.7814,509.0229 426.8939,509.0529 417.0064,509.0736 407.119,509.085 397.2315,509.087 387.344,509.0798 377.4566,509.0632 367.5691,509.0372 357.6815,509.002 347.794,508.9574 337.9063,508.9034 328.0186,508.8402 318.1308,508.7676 308.243,508.6857 298.355,508.5944 288.467,508.4938 278.5788,508.3839 268.6905,508.2646 258.802,508.1361 248.9135,507.9981 239.0247,507.8509 229.1358,507.6943 219.2467,507.5283 209.3574,507.353 199.4679,507.1684 189.5783,506.9745 179.6883,506.7711 169.7982,506.5585 159.9078,506.3365 150.0172,506.1051 140.1263,505.8644 130.2351,505.6144 120.3437,505.355 110.452,505.0862 100.5599,504.8081 90.6676,504.5206 80.7749,504.2238 70.8819,503.9176 68.9032,503.8552" stroke="silver" stroke-opacity="0.5" stroke-width="1" /><polyline fill="none" points="728.3113,416.5346 720.8559,416.7718 711.0465,417.0757 701.2374,417.37 691.4285,417.655 681.62,417.9304 671.8117,418.1965 662.0038,418.453 652.196,418.7002 642.3886,418.9379 632.5813,419.1662 622.7743,419.385 612.9676,419.5944 603.161,419.7944 593.3546,419.9849 583.5485,420.166 573.7425,420.3377 563.9366,420.4999 554.131,420.6527 544.3255,420.7961 534.5201,420.9301 524.7149,421.0546 514.9098,421.1697 505.1048,421.2754 495.3,421.3717 485.4952,421.4585 475.6905,421.536 465.8859,421.604 456.0813,421.6626 446.2768,421.7117 436.4723,421.7515 426.6679,421.7818 416.8635,421.8027 407.0591,421.8142 397.2548,421.8163 387.4504,421.8089 377.646,421.7922 367.8416,421.766 358.0372,421.7304 348.2327,421.6854 338.4282,421.6309 328.6236,421.5671 318.8189,421.4938 309.0142,421.4111 299.2093,421.3189 289.4044,421.2174 279.5993,421.1064 269.7942,420.986 259.9889,420.8562 250.1834,420.717 240.3779,420.5683 230.5721,420.4102 220.7662,420.2427 210.9601,420.0657 201.1538,419.8794 191.3474,419.6836 181.5407,419.4783 171.7338,419.2636 161.9266,419.0395 152.1193,418.8059 142.3117,418.563 132.5038,418.3105 122.6957,418.0486 112.8873,417.7773 103.0786,417.4966 93.2696,417.2063 83.4603,416.9067 73.6507,416.5976 71.6887,416.5346" stroke="silver" stroke-opacity="0.5" stroke-width="1" /><polyline fill="none" points="725.4761,329.2197 718.0852,329.4591 708.3606,329.7656 698.6364,330.0626 688.9124,330.3501 679.1887,330.6281 669.4652,330.8965 659.742,331.1554 650.0191,331.4047 640.2963,331.6446 630.5739,331.8749 620.8516,332.0957 611.1295,332.307 601.4077,332.5088 591.686,332.701 581.9645,332.8837 572.2432,333.0569 562.522,333.2206 552.801,333.3748 543.0802,333.5195 533.3595,333.6547 523.6389,333.7803 513.9184,333.8965 504.198,334.0031 494.4778,334.1003 484.7576,334.1879 475.0375,334.266 465.3175,334.3346 455.5975,334.3937 445.8776,334.4434 436.1577,334.4835 426.4379,334.5141 416.718,334.5352 406.9982,334.5468 397.2785,334.5488 387.5587,334.5414 377.8389,334.5245 368.119,334.4981 358.3992,334.4622 348.6793,334.4167 338.9593,334.3618 329.2393,334.2974 319.5193,334.2234 309.7991,334.14 300.0789,334.047 290.3586,333.9446 280.6381,333.8326 270.9176,333.7111 261.1969,333.5802 251.4761,333.4397 241.7552,333.2897 232.0341,333.1301 222.3129,332.9611 212.5915,332.7826 202.8699,332.5945 193.1481,332.3969 183.4261,332.1898 173.704,331.9732 163.9816,331.7471 154.259,331.5115 144.5361,331.2663 134.813,331.0116 125.0897,330.7473 115.3661,330.4736 105.6422,330.1903 95.9181,329.8975 86.1937,329.5951 76.4689,329.2832 74.5239,329.2197" stroke="silver" stroke-opacity="0.5" stroke-width="1" /><polyline fill="none" points="722.5906,241.8973 715.2654,242.1387 705.6272,242.4478 695.9893,242.7473 686.3516,243.0372 676.7142,243.3175 667.0771,243.5882 657.4402,243.8493 647.8035,244.1008 638.167,244.3426 628.5308,244.5749 618.8948,244.7976 609.2589,245.0106 599.6233,245.2141 589.9878,245.408 580.3525,245.5922 570.7174,245.7669 561.0824,245.932 551.4475,246.0875 541.8128,246.2334 532.1782,246.3697 522.5438,246.4964 512.9094,246.6136 503.2752,246.7211 493.641,246.8191 484.0069,246.9074 474.3729,246.9862 464.739,247.0554 455.1051,247.115 445.4713,247.1651 435.8375,247.2055 426.2037,247.2364 416.57,247.2576 406.9363,247.2693 397.3026,247.2714 387.6688,247.264 378.0351,247.2469 368.4014,247.2203 358.7676,247.184 349.1338,247.1382 339.4999,247.0828 329.866,247.0178 320.2321,246.9433 310.598,246.8591 300.9639,246.7654 291.3297,246.6621 281.6954,246.5492 272.061,246.4267 262.4264,246.2946 252.7918,246.1529 243.157,246.0016 233.5221,245.8407 223.887,245.6703 214.2518,245.4902 204.6164,245.3006 194.9808,245.1013 185.345,244.8925 175.7091,244.6741 166.0729,244.446 156.4366,244.2084 146.8,243.9611 137.1632,243.7043 127.5262,243.4378 117.8889,243.1618 108.2513,242.8761 98.6135,242.5808 88.9755,242.2759 79.3371,241.9614 77.4094,241.8973" stroke="silver" stroke-opacity="0.5" stroke-width="1" /><polyline fill="none" points="719.6544,154.5541 712.396,154.7974 702.8457,155.109 693.2957,155.4109 683.7459,155.7031 674.1963,155.9856 664.647,156.2584 655.0979,156.5215 645.549,156.775 636.0003,157.0188 626.4518,157.2529 616.9035,157.4773 607.3554,157.6921 597.8075,157.8971 588.2597,158.0925 578.7121,158.2783 569.1647,158.4543 559.6174,158.6207 550.0702,158.7775 540.5231,158.9245 530.9762,159.0619 521.4294,159.1896 511.8827,159.3077 502.336,159.4161 492.7895,159.5148 483.243,159.6039 473.6966,159.6833 464.1503,159.753 454.604,159.8131 445.0578,159.8635 435.5116,159.9043 425.9655,159.9354 416.4193,159.9569 406.8732,159.9686 397.3271,159.9708 387.781,159.9632 378.2348,159.946 368.6887,159.9192 359.1425,159.8827 349.5963,159.8365 340.05,159.7807 330.5037,159.7152 320.9574,159.64 311.411,159.5552 301.8645,159.4607 292.3179,159.3566 282.7712,159.2428 273.2244,159.1193 263.6775,158.9862 254.1305,158.8433 244.5834,158.6909 235.0362,158.5287 225.4888,158.3569 215.9412,158.1755 206.3935,157.9843 196.8457,157.7835 187.2976,157.573 177.7494,157.3528 168.201,157.123 158.6525,156.8835 149.1037,156.6343 139.5547,156.3754 130.0054,156.1068 120.456,155.8286 110.9063,155.5406 101.3564,155.243 91.8062,154.9357 82.2557,154.6187 80.3456,154.5541" stroke="silver" stroke-opacity="0.5" stroke-width="1" /><polyline fill="none" points="716.667,67.1768 709.4766,67.4219 700.0157,67.7358 690.5551,68.0399 681.0947,68.3343 671.6345,68.6189 662.1745,68.8937 652.7147,69.1588 643.2552,69.4141 633.7958,69.6597 624.3366,69.8956 614.8776,70.1216 605.4187,70.338 595.96,70.5446 586.5015,70.7414 577.0431,70.9285 567.5849,71.1059 558.1268,71.2735 548.6688,71.4314 539.211,71.5795 529.7532,71.7179 520.2956,71.8466 510.838,71.9655 501.3805,72.0747 491.9231,72.1742 482.4658,72.2639 473.0086,72.3439 463.5514,72.4142 454.0942,72.4747 444.6372,72.5255 435.1801,72.5666 425.7231,72.5979 416.266,72.6195 406.809,72.6314 397.352,72.6335 387.895,72.6259 378.438,72.6086 368.981,72.5816 359.524,72.5448 350.0669,72.4983 340.6098,72.442 331.1526,72.376 321.6954,72.3003 312.2381,72.2149 302.7807,72.1197 293.3233,72.0148 283.8658,71.9001 274.4082,71.7757 264.9505,71.6416 255.4927,71.4978 246.0347,71.3442 236.5767,71.1808 227.1185,71.0078 217.6602,70.8249 208.2017,70.6324 198.7431,70.4301 189.2843,70.218 179.8254,69.9962 170.3663,69.7647 160.907,69.5234 151.4475,69.2724 141.9878,69.0116 132.5279,68.741 123.0679,68.4607 113.6075,68.1706 104.147,67.8708 94.6862,67.5612 85.2252,67.2419 83.333,67.1768" stroke="silver" stroke-opacity="0.5" stroke-width="1" /><circle cx="734.6863" cy="668.5634" fill="black" r="0.738" stroke="none" /><circle cx="718.1111" cy="234.7893" fill="black" r="0.738" stroke="none" /><circle cx="723.6835" cy="409.3407" fill="black" r="0.738" stroke="none" /><circle cx="730.3637" cy="704.3827" fill="black" r="0.936" stroke="none" /><circle cx="714.5871" cy="268.9103" fill="black" r="0.738" stroke="none" /><circle cx="700.8821" cy="82.6673" fill="black" r="1.17" stroke="none" /><circle cx="705.8198" cy="343.39" fill="black" r="0.738" stroke="none" /><circle cx="704.0161" cy="397.3635" fill="black" r="0.936" stroke="none" /><circle cx="698.5599" cy="226.0605" fill="black" r="0.738" stroke="none" /><circle cx="700.2785" cy="377.1145" fill="black" r="0.738" stroke="none" /><circle cx="703.7882" cy="559.744" fill="black" r="0.738" stroke="none" /><circle cx="696.4795" cy="378.2755" fill="black" r="0.936" stroke="none" /><circle cx="700.7189" cy="635.4442" fill="black" r="0.738" stroke="none" /><circle cx="678.3517" cy="162.0708" fill="black" r="0.738" stroke="none" /><circle cx="682.4021" cy="312.2755" fill="black" r="0.738" stroke="none" /><circle cx="690.8185" cy="707.0601" fill="black" r="0.738" stroke="none" /><circle cx="677.7131" cy="453.5085" fill="black" r="0.738" stroke="none" /><circle cx="679.4881" cy="531.8349" fill="black" r="0.738" stroke="none" /><circle cx="656.9741" cy="158.0439" fill="black" r="0.738" stroke="none" /><circle cx="640.6353" cy="108.4774" fill="black" r="0.738" stroke="none" /><circle cx="633.0099" cy="71.5159" fill="black" r="0.738" stroke="none" /><circle cx="632.353" cy="72.4943" fill="black" r="0.738" stroke="none" /><circle cx="640.4687" cy="414.0922" fill="black" r="0.738" stroke="none" /><circle cx="644.814" cy="605.2978" fill="black" r="1.17" stroke="none" /><circle cx="633.2167" cy="361.771" fill="black" r="0.738" stroke="none" /><circle cx="633.5963" cy="439.58" fill="black" r="0.738" stroke="none" /><circle cx="628.4128" cy="489.9155" fill="black" r="0.738" stroke="none" /><circle cx="627.0823" cy="659.3353" fill="black" r="0.738" stroke="none" /><circle cx="606.6307" cy="201.7409" fill="black" r="0.738" stroke="none" /><circle cx="611.3207" cy="492.7213" fill="black" r="0.738" stroke="none" /><circle cx="603.6163" cy="259.1055" fill="black" r="0.738" stroke="none" /><circle cx="609.1447" cy="682.9361" fill="black" r="0.738" stroke="none" /><circle cx="590.2116" cy="167.7509" fill="black" r="0.738" stroke="none" /><circle cx="590.5641" cy="208.3638" fill="black" r="0.738" stroke="none" /><circle cx="594.0152" cy="501.4404" fill="black" r="0.738" stroke="none" /><circle cx="588.1012" cy="670.732" fill="black" r="0.738" stroke="none" /><circle cx="582.3773" cy="464.8029" fill="black" r="0.738" stroke="none" /><circle cx="581.8502" cy="628.2918" fill="black" r="0.936" stroke="none" /><circle cx="577.4978" cy="383.8659" fill="black" r="0.738" stroke="none" /><circle cx="579.6488" cy="535.5771" fill="black" r="0.738" stroke="none" /><circle cx="580.3624" cy="582.461" fill="black" r="0.738" stroke="none" /><circle cx="551.096" cy="118.2272" fill="black" r="0.738" stroke="none" /><circle cx="548.6606" cy="220.3712" fill="black" r="0.738" stroke="none" /><circle cx="542.8131" cy="94.069" fill="black" r="0.936" stroke="none" /><circle cx="541.0695" cy="180.2273" fill="black" r="0.738" stroke="none" /><circle cx="536.6592" cy="73.016" fill="black" r="0.738" stroke="none" /><circle cx="536.3219" cy="516.4942" fill="black" r="0.738" stroke="none" /><circle cx="525.2132" cy="185.4274" fill="black" r="0.738" stroke="none" /><circle cx="527.0544" cy="630.0311" fill="black" r="1.17" stroke="none" /><circle cx="520.2601" cy="476.361" fill="black" r="0.738" stroke="none" /><circle cx="518.2089" cy="315.4282" fill="black" r="0.738" stroke="none" /><circle cx="516.6427" cy="428.6566" fill="black" r="0.738" stroke="none" /><circle cx="519.4567" cy="704.362" fill="black" r="0.738" stroke="none" /><circle cx="515.9853" cy="446.9066" fill="black" r="0.738" stroke="none" /><circle cx="514.4516" cy="618.7313" fill="black" r="0.738" stroke="none" /><circle cx="505.1309" cy="630.2652" fill="black" r="0.738" stroke="none" /><circle cx="495.3508" cy="240.4295" fill="black" r="0.738" stroke="none" /><circle cx="493.0624" cy="558.1693" fill="black" r="0.738" stroke="none" /><circle cx="488.0843" cy="154.5822" fill="black" r="0.738" stroke="none" /><circle cx="483.1698" cy="108.5119" fill="black" r="0.936" stroke="none" /><circle cx="473.9482" cy="191.9889" fill="black" r="0.936" stroke="none" /><circle cx="468.6268" cy="166.1834" fill="black" r="0.738" stroke="none" /><circle cx="472.2955" cy="723.8129" fill="black" r="0.738" stroke="none" /><circle cx="467.7898" cy="220.5836" fill="black" r="0.738" stroke="none" /><circle cx="466.7039" cy="186.1925" fill="black" r="0.738" stroke="none" /><circle cx="467.5584" cy="485.4784" fill="black" r="0.738" stroke="none" /><circle cx="462.8305" cy="539.6234" fill="black" r="0.738" stroke="none" /><circle cx="458.4167" cy="259.4908" fill="black" r="0.738" stroke="none" /><circle cx="446.6649" cy="114.6189" fill="black" r="0.738" stroke="none" /><circle cx="446.546" cy="214.4245" fill="black" r="0.738" stroke="none" /><circle cx="444.7166" cy="370.4916" fill="black" r="0.738" stroke="none" /><circle cx="444.5957" cy="431.9298" fill="black" r="0.738" stroke="none" /><circle cx="443.696" cy="405.2292" fill="black" r="0.738" stroke="none" /><circle cx="442.3214" cy="609.6492" fill="black" r="0.738" stroke="none" /><circle cx="440.1006" cy="508.2252" fill="black" r="0.738" stroke="none" /><circle cx="435.2067" cy="534.8635" fill="black" r="0.738" stroke="none" /><circle cx="434.0274" cy="325.5019" fill="black" r="0.738" stroke="none" /><circle cx="429.3018" cy="410.3425" fill="black" r="0.936" stroke="none" /><circle cx="417.1104" cy="524.3472" fill="black" r="0.738" stroke="none" /><circle cx="416.1157" cy="299.0161" fill="black" r="0.738" stroke="none" /><circle cx="411.4081" cy="184.1497" fill="black" r="0.738" stroke="none" /><circle cx="410.4114" cy="253.8127" fill="black" r="0.738" stroke="none" /><circle cx="395.7981" cy="163.6375" fill="black" r="0.738" stroke="none" /><circle cx="389.5303" cy="236.3551" fill="black" r="0.738" stroke="none" /><circle cx="380.6316" cy="220.8033" fill="black" r="0.738" stroke="none" /><circle cx="378.0198" cy="89.38" fill="black" r="0.738" stroke="none" /><circle cx="375.8112" cy="468.3024" fill="black" r="0.738" stroke="none" /><circle cx="373.9681" cy="576.8759" fill="black" r="0.738" stroke="none" /><circle cx="369.1618" cy="643.3034" fill="black" r="0.738" stroke="none" /><circle cx="368.9952" cy="673.9543" fill="black" r="0.738" stroke="none" /><circle cx="366.976" cy="496.4675" fill="black" r="0.738" stroke="none" /><circle cx="364.7907" cy="535.649" fill="black" r="0.738" stroke="none" /><circle cx="363.6562" cy="636.9122" fill="black" r="0.738" stroke="none" /><circle cx="364.7374" cy="237.5184" fill="black" r="0.738" stroke="none" /><circle cx="360.3092" cy="589.2302" fill="black" r="0.738" stroke="none" /><circle cx="355.8286" cy="388.5588" fill="black" r="0.738" stroke="none" /><circle cx="353.4234" cy="401.5511" fill="black" r="0.738" stroke="none" /><circle cx="351.9522" cy="238.3362" fill="black" r="0.738" stroke="none" /><circle cx="349.1518" cy="288.0751" fill="black" r="0.738" stroke="none" /><circle cx="348.7607" cy="144.987" fill="black" r="0.738" stroke="none" /><circle cx="343.7478" cy="632.025" fill="black" r="0.936" stroke="none" /><circle cx="341.7435" cy="404.2834" fill="black" r="0.738" stroke="none" /><circle cx="337.8022" cy="721.7769" fill="black" r="0.738" stroke="none" /><circle cx="329.7982" cy="224.5821" fill="black" r="0.738" stroke="none" /><circle cx="327.5798" cy="295.5332" fill="black" r="0.738" stroke="none" /><circle cx="323.3009" cy="615.2225" fill="black" r="0.738" stroke="none" /><circle cx="317.7993" cy="363.7092" fill="black" r="1.17" stroke="none" /><circle cx="306.452" cy="461.6237" fill="black" r="0.738" stroke="none" /><circle cx="305.0703" cy="292.1991" fill="black" r="0.738" stroke="none" /><circle cx="295.5884" cy="160.616" fill="black" r="0.738" stroke="none" /><circle cx="291.0719" cy="539.6855" fill="black" r="0.738" stroke="none" /><circle cx="287.5218" cy="183.7528" fill="black" r="0.738" stroke="none" /><circle cx="287.2134" cy="190.3857" fill="black" r="0.738" stroke="none" /><circle cx="280.4321" cy="526.301" fill="black" r="0.738" stroke="none" /><circle cx="280.5197" cy="73.1679" fill="black" r="0.738" stroke="none" /><circle cx="272.9709" cy="621.0363" fill="black" r="0.738" stroke="none" /><circle cx="271.6518" cy="637.9634" fill="black" r="0.936" stroke="none" /><circle cx="273.5318" cy="416.9305" fill="black" r="0.738" stroke="none" /><circle cx="259.1361" cy="590.5625" fill="black" r="0.936" stroke="none" /><circle cx="257.7528" cy="270.6741" fill="black" r="0.738" stroke="none" /><circle cx="254.1127" cy="503.9686" fill="black" r="0.936" stroke="none" /><circle cx="255.574" cy="129.6026" fill="black" r="0.738" stroke="none" /><circle cx="246.7405" cy="604.2783" fill="black" r="0.738" stroke="none" /><circle cx="244.7764" cy="686.6207" fill="black" r="0.738" stroke="none" /><circle cx="238.2035" cy="707.0597" fill="black" r="0.738" stroke="none" /><circle cx="242.3671" cy="383.4973" fill="black" r="0.738" stroke="none" /><circle cx="244.7032" cy="87.4888" fill="black" r="0.738" stroke="none" /><circle cx="229.7077" cy="585.6823" fill="black" r="0.738" stroke="none" /><circle cx="222.2359" cy="532.0288" fill="black" r="0.738" stroke="none" /><circle cx="226.4743" cy="269.2073" fill="black" r="0.738" stroke="none" /><circle cx="217.6303" cy="221.7993" fill="black" r="0.738" stroke="none" /><circle cx="213.6605" cy="177.0006" fill="black" r="0.936" stroke="none" /><circle cx="208.574" cy="137.2342" fill="black" r="0.738" stroke="none" /><circle cx="201.0708" cy="309.8544" fill="black" r="0.738" stroke="none" /><circle cx="196.3352" cy="417.514" fill="black" r="0.738" stroke="none" /><circle cx="191.0496" cy="564.8217" fill="black" r="0.738" stroke="none" /><circle cx="194.4026" cy="354.6034" fill="black" r="0.738" stroke="none" /><circle cx="193.1658" cy="373.0032" fill="black" r="0.738" stroke="none" /><circle cx="198.6663" cy="112.2958" fill="black" r="0.738" stroke="none" /><circle cx="190.1069" cy="500.3478" fill="black" r="0.738" stroke="none" /><circle cx="190.479" cy="359.4996" fill="black" r="0.738" stroke="none" /><circle cx="178.5737" cy="709.7919" fill="black" r="0.738" stroke="none" /><circle cx="173.7557" cy="473.8053" fill="black" r="0.738" stroke="none" /><circle cx="169.6956" cy="569.6232" fill="black" r="0.738" stroke="none" /><circle cx="161.6398" cy="252.2005" fill="black" r="1.17" stroke="none" /><circle cx="140.2133" cy="711.6741" fill="black" r="1.476" stroke="none" /><circle cx="129.1097" cy="687.1905" fill="black" r="0.738" stroke="none" /><circle cx="137.9314" cy="330.8322" fill="black" r="0.738" stroke="none" /><circle cx="140.5607" cy="136.56" fill="black" r="0.738" stroke="none" /><circle cx="128.1101" cy="444.84" fill="black" r="0.738" stroke="none" /><circle cx="119.2653" cy="631.4318" fill="black" r="0.738" stroke="none" /><circle cx="109.9734" cy="673.7648" fill="black" r="0.738" stroke="none" /><circle cx="115.8565" cy="225.71" fill="black" r="0.738" stroke="none" /><circle cx="111.7699" cy="272.6084" fill="black" r="0.738" stroke="none" /><circle cx="113.259" cy="217.2421" fill="black" r="0.738" stroke="none" /><circle cx="94.3917" cy="696.1689" fill="black" r="0.738" stroke="none" /><circle cx="102.1369" cy="417.4691" fill="black" r="0.738" stroke="none" /><circle cx="97.2645" cy="581.6257" fill="black" r="0.738" stroke="none" /><circle cx="98.7099" cy="511.3095" fill="black" r="0.738" stroke="none" /><circle cx="100.7353" cy="409.0394" fill="black" r="0.738" stroke="none" /><circle cx="101.6246" cy="344.7515" fill="black" r="0.738" stroke="none" /><circle cx="87.888" cy="228.1661" fill="black" r="0.738" stroke="none" /><circle cx="75.877" cy="529.5101" fill="black" r="0.738" stroke="none" /><circle cx="71.6602" cy="604.9164" fill="black" r="0.738" stroke="none" /><circle cx="68.2689" cy="608.5728" fill="black" r="0.738" stroke="none" /><circle cx="71.0138" cy="482.1562" fill="black" r="0.738" stroke="none" /><circle cx="72.8827" cy="411.1539" fill="black" r="0.738" stroke="none" /><circle cx="13.77" cy="786.23" fill="black" r="4.59" stroke="none" /><circle cx="13.77" cy="786.23" fill="black" r="4.59" stroke="none" /><text fill="black" font-family="monospace" font-size="12" x="10.77" y="775.64">1</text><circle cx="37.77" cy="786.23" fill="black" r="3.654" stroke="none" /><circle cx="37.77" cy="786.23" fill="black" r="3.654" stroke="none" /><text fill="black" font-family="monospace" font-size="12" x="34.769999999999996" y="775.64">2</text><circle cx="61.77" cy="786.23" fill="black" r="2.916" stroke="none" /><circle cx="61.77" cy="786.23" fill="black" r="2.916" stroke="none" /><text fill="black" font-family="monospace" font-size="12" x="58.769999999999996" y="775.64">3</text><circle cx="85.77" cy="786.23" fill="black" r="2.322" stroke="none" /><circle cx="85.77" cy="786.23" fill="black" r="2.322" stroke="none" /><text fill="black" font-family="monospace" font-size="12" x="82.77" y="775.64">4</text><circle cx="109.77" cy="786.23" fill="black" r="1.854" stroke="none" /><circle cx="109.77" cy="786.23" fill="black" r="1.854" stroke="none" /><text fill="black" font-family="monospace" font-size="12" x="106.77" y="775.64">5</text><circle cx="133.77" cy="786.23" fill="black" r="1.476" stroke="none" /><circle cx="133.77" cy="786.23" fill="black" r="1.476" stroke="none" /><text fill="black" font-family="monospace" font-size="12" x="130.77" y="775.64">6</text><circle cx="157.77" cy="786.23" fill="black" r="1.17" stroke="none" /><circle cx="157.77" cy="786.23" fill="black" r="1.17" stroke="none" /><text fill="black" font-family="monospace" font-size="12" x="154.77" y="775.64">7</text><circle cx="181.77" cy="786.23" fill="black" r="0.936" stroke="none" /><circle cx="181.77" cy="786.23" fill="black" r="0.936" stroke="none" /><text fill="black" font-family="monospace" font-size="12" x="178.77" y="775.64">8</text><circle cx="205.77" cy="786.23" fill="black" r="0.738" stroke="none" /><circle cx="205.77" cy="786.23" fill="black" r="0.738" stroke="none" /><text fill="black" font-family="monospace" font-size="12" x="202.77" y="775.64">9</text><text fill="gray" fill-opacity="0.5" font-family="monospace" font-size="12" x="639.3315377711724" y="724.8084407220883">18h30m</text><text fill="gray" fill-opacity="0.5" font-family="monospace" font-size="12" x="538.4228729122456" y="726.510591869981">18h35m</text><text fill="gray" fill-opacity="0.5" font-family="monospace" font-size="12" x="437.53029802190105" y="727.3032173759282">18h40m</text><text fill="gray" fill-opacity="0.5" font-family="monospace" font-size="12" x="336.6420858684388" y="727.1868788987684">18h45m</text><text fill="gray" fill-opacity="0.5" font-family="monospace" font-size="12" x="235.74650870182367" y="726.16149400637">18h50m</text><text fill="gray" fill-opacity="0.5" font-family="monospace" font-size="12" x="134.83183964770421" y="724.2263360691505">18h55m</text><text fill="gray" fill-opacity="0.5" font-family="monospace" font-size="12" x="63.4801258956781" y="678.5667478452463">+23°</text><text fill="gray" fill-opacity="0.5" font-family="monospace" font-size="12" x="66.16717481135316" y="591.1948569614149">+24°</text><text fill="gray" fill-opacity="0.5" font-family="monospace" font-size="12" x="68.90324031218097" y="503.8552334814606">+25°</text><text fill="gray" fill-opacity="0.5" font-family="monospace" font-size="12" x="71.68869682781377" y="416.5346055115809">+26°</text><text fill="gray" fill-opacity="0.5" font-family="monospace" font-size="12" x="74.52394885402055" y="329.2197126824234">+27°</text><text fill="gray" fill-opacity="0.5" font-family="monospace" font-size="12" x="77.4094311811408" y="241.89729810558998">+28°</text><text fill="gray" fill-opacity="0.5" font-family="monospace" font-size="12" x="80.3456091616892" y="154.5541003346308">+29°</text><text fill="gray" fill-opacity="0.5" font-family="monospace" font-size="12" x="83.33297901746084" y="67.17684532016995">+30°</text><text fill="black" font-family="monospace" font-size="12" x="12" y="48">&gt;&gt; No.582 18h25m 18h59m +22.5°+30.0°</text><a target="_self" xlink:href="hip038.svg"><text fill="black" font-family="monospace" font-size="12" x="12" y="36">&gt; No.38 18h00m 21h00m +22.5°+52.5°</text></a><a target="_self" xlink:href="hip002.svg"><text fill="black" font-family="monospace" font-size="12" x="12" y="24">No.2 00h 24h +0.0°+90.0°</text></a><polyline fill="none" points="716.667,67.1768 709.4766,67.4219 700.0157,67.7358 690.5551,68.0399 681.0947,68.3343 671.6345,68.6189 662.1745,68.8937 652.7147,69.1588 643.2552,69.4141 633.7958,69.6597 624.3366,69.8956 614.8776,70.1216 605.4187,70.338 595.96,70.5446 586.5015,70.7414 577.0431,70.9285 567.5849,71.1059 558.1268,71.2735 548.6688,71.4314 539.211,71.5795 529.7532,71.7179 520.2956,71.8466 510.838,71.9655 501.3805,72.0747 491.9231,72.1742 482.4658,72.2639 473.0086,72.3439 463.5514,72.4142 454.0942,72.4747 444.6372,72.5255 435.1801,72.5666 425.7231,72.5979 416.266,72.6195 406.809,72.6314 397.352,72.6335 387.895,72.6259 378.438,72.6086 368.981,72.5816 359.524,72.5448 350.0669,72.4983 340.6098,72.442 331.1526,72.376 321.6954,72.3003 312.2381,72.2149 302.7807,72.1197 293.3233,72.0148 283.8658,71.9001 274.4082,71.7757 264.9505,71.6416 255.4927,71.4978 246.0347,71.3442 236.5767,71.1808 227.1185,71.0078 217.6602,70.8249 208.2017,70.6324 198.7431,70.4301 189.2843,70.218 179.8254,69.9962 170.3663,69.7647 160.907,69.5234 151.4475,69.2724 141.9878,69.0116 132.5279,68.741 123.0679,68.4607 113.6075,68.1706 104.147,67.8708 94.6862,67.5612 85.2252,67.2419 83.333,67.1768" stroke="black" stroke-opacity="0.5" stroke-width="1" /><polyline fill="none" points="737.8451,722.2689 737.515,711.3422 737.184,700.4163 736.8523,689.4912 736.5199,678.5667 736.1867,667.643 735.8527,656.72 735.518,645.7977 735.1825,634.8759 734.8462,623.9548 734.5092,613.0343 734.1714,602.1143 733.8328,591.1949 733.4935,580.2759 733.1534,569.3574 732.8126,558.4394 732.4709,547.5218 732.1286,536.6047 731.7854,525.6878 731.4415,514.7714 731.0968,503.8552 730.7513,492.9394 730.405,482.0238 730.058,471.1085 729.7102,460.1934 729.3617,449.2785 729.0123,438.3637 728.6622,427.4491 728.3113,416.5346 727.9596,405.6202 727.6072,394.7059 727.2539,383.7916 726.8999,372.8773 726.5451,361.963 726.1896,351.0486 725.8332,340.1342 725.4761,329.2197 725.1181,318.3051 724.7594,307.3903 724.3999,296.4754 724.0396,285.5603 723.6785,274.6449 723.3167,263.7293 722.954,252.8135 722.5906,241.8973 722.2263,230.9808 721.8613,220.064 721.4955,209.1467 721.1288,198.2291 720.7614,187.3111 720.3932,176.3926 720.0242,165.4736 719.6544,154.5541 719.2838,143.6341 718.9124,132.7135 718.5402,121.7923 718.1671,110.8706 717.7933,99.9482 717.4187,89.0251 717.0433,78.1013 716.667,67.1768" stroke="black" stroke-opacity="0.5" stroke-width="1" /><polyline fill="none" points="737.8451,722.2689 730.1728,722.4979 720.0779,722.7911 709.9835,723.0751 699.8893,723.3501 689.7956,723.6159 679.7021,723.8727 669.609,724.1203 659.5162,724.3588 649.4237,724.5882 639.3315,724.8084 629.2396,725.0196 619.148,725.2217 609.0566,725.4146 598.9654,725.5985 588.8745,725.7733 578.7838,725.9389 568.6932,726.0955 558.6029,726.243 548.5128,726.3813 538.4229,726.5106 528.3331,726.6308 518.2434,726.7419 508.1539,726.8438 498.0646,726.9367 487.9753,727.0205 477.8861,727.0953 467.7971,727.1609 457.7081,727.2174 447.6192,727.2649 437.5303,727.3032 427.4415,727.3325 417.3527,727.3527 407.2639,727.3637 397.1751,727.3657 387.0864,727.3587 376.9976,727.3425 366.9088,727.3172 356.8199,727.2829 346.731,727.2394 336.6421,727.1869 326.5531,727.1253 316.4639,727.0545 306.3747,726.9747 296.2854,726.8858 286.196,726.7878 276.1064,726.6808 266.0167,726.5646 255.9268,726.4393 245.8367,726.305 235.7465,726.1615 225.6561,726.0089 215.5655,725.8473 205.4746,725.6765 195.3836,725.4967 185.2923,725.3077 175.2007,725.1096 165.1089,724.9025 155.0169,724.6862 144.9245,724.4608 134.8318,724.2263 124.7389,723.9827 114.6456,723.73 104.552,723.4682 94.458,723.1973 84.3637,722.9172 74.269,722.628 64.1739,722.3297 62.1549,722.2689" stroke="black" stroke-opacity="0.5" stroke-width="1" /><polyline fill="none" points="62.1549,722.2689 62.485,711.3422 62.816,700.4163 63.1477,689.4912 63.4801,678.5667 63.8133,667.643 64.1473,656.72 64.482,645.7977 64.8175,634.8759 65.1538,623.9548 65.4908,613.0343 65.8286,602.1143 66.1672,591.1949 66.5065,580.2759 66.8466,569.3574 67.1874,558.4394 67.5291,547.5218 67.8714,536.6047 68.2146,525.6878 68.5585,514.7714 68.9032,503.8552 69.2487,492.9394 69.595,482.0238 69.942,471.1085 70.2898,460.1934 70.6383,449.2785 70.9877,438.3637 71.3378,427.4491 71.6887,416.5346 72.0404,405.6202 72.3928,394.7059 72.7461,383.7916 73.1001,372.8773 73.4549,361.963 73.8104,351.0486 74.1668,340.1342 74.5239,329.2197 74.8819,318.3051 75.2406,307.3903 75.6001,296.4754 75.9604,285.5603 76.3215,274.6449 76.6833,263.7293 77.046,252.8135 77.4094,241.8973 77.7737,230.9808 78.1387,220.064 78.5045,209.1467 78.8712,198.2291 79.2386,187.3111 79.6068,176.3926 79.9758,165.4736 80.3456,154.5541 80.7162,143.6341 81.0876,132.7135 81.4598,121.7923 81.8329,110.8706 82.2067,99.9482 82.5813,89.0251 82.9567,78.1013 83.333,67.1768" stroke="black" stroke-opacity="0.5" stroke-width="1" /></svg>