<?xml version="1.0" encoding="utf-8" ?>
<svg baseProfile="tiny" height="800" version="1.2" width="800" xmlns="http://www.w3.org/2000/svg" xmlns:ev="http://www.w3.org/2001/xml-events" xmlns:xlink="http://www.w3.org/1999/xlink"><defs /><rect fill="none" height="800" stroke="black" stroke-width="2" width="800" x="0" y="0" /><polyline fill="none" points="683.7263,722.4587 683.3481,711.5372 682.9692,700.6165 682.5897,689.6965 682.2096,678.7773 681.8289,667.8588 681.4475,656.941 681.0655,646.0238 680.6829,635.1073 680.2996,624.1914 679.9158,613.2761 679.5313,602.3613 679.1461,591.447 678.7604,580.5333 678.374,569.62 677.9869,558.7072 677.5993,547.7948 677.211,536.8827 676.8221,525.9711 676.4325,515.0598 676.0423,504.1489 675.6514,493.2382 675.2599,482.3278 674.8678,471.4176 674.4751,460.5077 674.0816,449.5979 673.6876,438.6883 673.2929,427.7789 672.8976,416.8695 672.5016,405.9603 672.105,395.0511 671.7077,384.1419 671.3098,373.2328 670.9112,362.3236 670.512,351.4144 670.1121,340.5052 669.7116,329.5958 669.3104,318.6863 668.9086,307.7767 668.5061,296.8669 668.1029,285.9569 667.6991,275.0466 667.2947,264.1362 666.8895,253.2254 666.4838,242.3144 666.0773,231.403 665.6702,220.4913 665.2625,209.5791 664.854,198.6666 664.4449,187.7537 664.0352,176.8403 663.6248,165.9264 663.2137,155.012 662.8019,144.0971 662.3895,133.1816 661.9764,122.2655 661.5626,111.3488 661.1481,100.4315 660.733,89.5135 660.3172,78.5948 659.9007,67.6754" stroke="silver" stroke-opacity="0.5" stroke-width="1" /><polyline fill="none" points="589.1448,725.1855 588.8927,714.2651 588.6403,703.3454 588.3874,692.4265 588.1341,681.5082 587.8804,670.5907 587.6263,659.6738 587.3717,648.7576 587.1168,637.842 586.8614,626.927 586.6056,616.0125 586.3494,605.0986 586.0927,594.1852 585.8357,583.2722 585.5782,572.3597 585.3203,561.4477 585.0619,550.536 584.8032,539.6248 584.544,528.7138 584.2844,517.8033 584.0244,506.893 583.764,495.983 583.5031,485.0732 583.2418,474.1637 582.98,463.2543 582.7179,452.3451 582.4553,441.4361 582.1923,430.5272 581.9288,419.6184 581.665,408.7097 581.4007,397.801 581.1359,386.8923 580.8707,375.9836 580.6051,365.0748 580.3391,354.166 580.0726,343.2572 579.8057,332.3482 579.5384,321.439 579.2706,310.5297 579.0024,299.6202 578.7338,288.7105 578.4647,277.8005 578.1951,266.8903 577.9252,255.9798 577.6548,245.069 577.3839,234.1578 577.1126,223.2462 576.8409,212.3342 576.5687,201.4218 576.2961,190.509 576.023,179.5957 575.7495,168.6819 575.4756,157.7675 575.2012,146.8526 574.9263,135.9371 574.651,125.021 574.3753,114.1043 574.0991,103.1869 573.8225,92.2688 573.5454,81.3501 573.2678,70.4305" stroke="silver" stroke-opacity="0.5" stroke-width="1" /><polyline fill="none" points="494.5706,726.821 494.4446,715.9012 494.3184,704.9821 494.192,694.0638 494.0654,683.1462 493.9385,672.2292 493.8115,661.3129 493.6843,650.3973 493.5568,639.4822 493.4292,628.5677 493.3013,617.6538 493.1732,606.7404 493.045,595.8274 492.9165,584.915 492.7877,574.003 492.6588,563.0914 492.5297,552.1802 492.4004,541.2694 492.2708,530.3589 492.141,519.4487 492.0111,508.5389 491.8809,497.6293 491.7505,486.7199 491.6199,475.8107 491.489,464.9017 491.358,453.9929 491.2267,443.0842 491.0952,432.1757 490.9636,421.2672 490.8317,410.3587 490.6995,399.4503 490.5672,388.5419 490.4346,377.6335 490.3019,366.725 490.1689,355.8164 490.0357,344.9078 489.9023,333.999 489.7686,323.0901 489.6348,312.181 489.5007,301.2717 489.3664,290.3621 489.2319,279.4523 489.0972,268.5423 488.9622,257.6319 488.8271,246.7212 488.6917,235.8101 488.556,224.8986 488.4202,213.9868 488.2842,203.0744 488.1479,192.1617 488.0114,181.2484 487.8747,170.3346 487.7377,159.4203 487.6006,148.5054 487.4632,137.5899 487.3256,126.6738 487.1877,115.7571 487.0496,104.8397 486.9114,93.9215 486.7728,83.0027 486.6341,72.0831" stroke="silver" stroke-opacity="0.5" stroke-width="1" /><polyline fill="none" points="400.0,727.3661 400.0,716.4465 400.0,705.5276 400.0,694.6095 400.0,683.6921 400.0,672.7753 400.0,661.8592 400.0,650.9437 400.0,640.0289 400.0,629.1145 400.0,618.2008 400.0,607.2875 400.0,596.3748 400.0,585.4625 400.0,574.5506 400.0,563.6392 400.0,552.7282 400.0,541.8175 400.0,530.9072 400.0,519.9971 400.0,509.0874 400.0,498.1779 400.0,487.2687 400.0,476.3596 400.0,465.4508 400.0,454.5421 400.0,443.6335 400.0,432.725 400.0,421.8167 400.0,410.9083 400.0,400.0 400.0,389.0917 400.0,378.1833 400.0,367.275 400.0,356.3665 400.0,345.4579 400.0,334.5492 400.0,323.6404 400.0,312.7313 400.0,301.8221 400.0,290.9126 400.0,280.0029 400.0,269.0928 400.0,258.1825 400.0,247.2718 400.0,236.3608 400.0,225.4494 400.0,214.5375 400.0,203.6252 400.0,192.7125 400.0,181.7992 400.0,170.8855 400.0,159.9711 400.0,149.0563 400.0,138.1408 400.0,127.2247 400.0,116.3079 400.0,105.3905 400.0,94.4724 400.0,83.5535 400.0,72.6339" stroke="silver" stroke-opacity="0.5" stroke-width="1" /><polyline fill="none" points="305.4294,726.821 305.5554,715.9012 305.6816,704.9821 305.808,694.0638 305.9346,683.1462 306.0615,672.2292 306.1885,661.3129 306.3157,650.3973 306.4432,639.4822 306.5708,628.5677 306.6987,617.6538 306.8268,606.7404 306.955,595.8274 307.0835,584.915 307.2123,574.003 307.3412,563.0914 307.4703,552.1802 307.5996,541.2694 307.7292,530.3589 307.859,519.4487 307.9889,508.5389 308.1191,497.6293 308.2495,486.7199 308.3801,475.8107 308.511,464.9017 308.642,453.9929 308.7733,443.0842 308.9048,432.1757 309.0364,421.2672 309.1683,410.3587 309.3005,399.4503 309.4328,388.5419 309.5654,377.6335 309.6981,366.725 309.8311,355.8164 309.9643,344.9078 310.0977,333.999 310.2314,323.0901 310.3652,312.181 310.4993,301.2717 310.6336,290.3621 310.7681,279.4523 310.9028,268.5423 311.0378,257.6319 311.1729,246.7212 311.3083,235.8101 311.444,224.8986 311.5798,213.9868 311.7158,203.0744 311.8521,192.1617 311.9886,181.2484 312.1253,170.3346 312.2623,159.4203 312.3994,148.5054 312.5368,137.5899 312.6744,126.6738 312.8123,115.7571 312.9504,104.8397 313.0886,93.9215 313.2272,83.0027 313.3659,72.0831" stroke="silver" stroke-opacity="0.5" stroke-width="1" /><polyline fill="none" points="210.8552,725.1855 211.1073,714.2651 211.3597,703.3454 211.6126,692.4265 211.8659,681.5082 212.1196,670.5907 212.3737,659.6738 212.6283,648.7576 212.8832,637.842 213.1386,626.927 213.3944,616.0125 213.6506,605.0986 213.9073,594.1852 214.1643,583.2722 214.4218,572.3597 214.6797,561.4477 214.9381,550.536 215.1968,539.6248 215.456,528.7138 215.7156,517.8033 215.9756,506.893 216.236,495.983 216.4969,485.0732 216.7582,474.1637 217.02,463.2543 217.2821,452.3451 217.5447,441.4361 217.8077,430.5272 218.0712,419.6184 218.335,408.7097 218.5993,397.801 218.8641,386.8923 219.1293,375.9836 219.3949,365.0748 219.6609,354.166 219.9274,343.2572 220.1943,332.3482 220.4616,321.439 220.7294,310.5297 220.9976,299.6202 221.2662,288.7105 221.5353,277.8005 221.8049,266.8903 222.0748,255.9798 222.3452,245.069 222.6161,234.1578 222.8874,223.2462 223.1591,212.3342 223.4313,201.4218 223.7039,190.509 223.977,179.5957 224.2505,168.6819 224.5244,157.7675 224.7988,146.8526 225.0737,135.9371 225.349,125.021 225.6247,114.1043 225.9009,103.1869 226.1775,92.2688 226.4546,81.3501 226.7322,70.4305" stroke="silver" stroke-opacity="0.5" stroke-width="1" /><polyline fill="none" points="116.2737,722.4587 116.6519,711.5372 117.0308,700.6165 117.4103,689.6965 117.7904,678.7773 118.1711,667.8588 118.5525,656.941 118.9345,646.0238 119.3171,635.1073 119.7004,624.1914 120.0842,613.2761 120.4687,602.3613 120.8539,591.447 121.2396,580.5333 121.626,569.62 122.0131,558.7072 122.4007,547.7948 122.789,536.8827 123.1779,525.9711 123.5675,515.0598 123.9577,504.1489 124.3486,493.2382 124.7401,482.3278 125.1322,471.4176 125.5249,460.5077 125.9184,449.5979 126.3124,438.6883 126.7071,427.7789 127.1024,416.8695 127.4984,405.9603 127.895,395.0511 128.2923,384.1419 128.6902,373.2328 129.0888,362.3236 129.488,351.4144 129.8879,340.5052 130.2884,329.5958 130.6896,318.6863 131.0914,307.7767 131.4939,296.8669 131.8971,285.9569 132.3009,275.0466 132.7053,264.1362 133.1105,253.2254 133.5162,242.3144 133.9227,231.403 134.3298,220.4913 134.7375,209.5791 135.146,198.6666 135.5551,187.7537 135.9648,176.8403 136.3752,165.9264 136.7863,155.012 137.1981,144.0971 137.6105,133.1816 138.0236,122.2655 138.4374,111.3488 138.8519,100.4315 139.267,89.5135 139.6828,78.5948 140.0993,67.6754" stroke="silver" stroke-opacity="0.5" stroke-width="1" /><polyline fill="none" points="740.4802,720.2981 731.0209,720.6855 721.5618,721.062 712.1027,721.4276 702.6438,721.7822 693.185,722.1259 683.7263,722.4587 674.2677,722.7805 664.8092,723.0914 655.3509,723.3914 645.8926,723.6804 636.4344,723.9586 626.9763,724.2258 617.5183,724.4821 608.0604,724.7275 598.6026,724.962 589.1448,725.1855 579.6871,725.3982 570.2295,725.5999 560.7719,725.7907 551.3144,725.9706 541.857,726.1396 532.3996,726.2977 522.9423,726.4449 513.485,726.5812 504.0278,726.7066 494.5706,726.821 485.1134,726.9246 475.6563,727.0173 466.1992,727.099 456.7421,727.1699 447.2851,727.2298 437.828,727.2789 428.371,727.317 418.914,727.3443 409.457,727.3607 400.0,727.3661 390.543,727.3607 381.086,727.3443 371.629,727.317 362.172,727.2789 352.7149,727.2298 343.2579,727.1699 333.8008,727.099 324.3437,727.0173 314.8866,726.9246 305.4294,726.821 295.9722,726.7066 286.515,726.5812 277.0577,726.4449 267.6004,726.2977 258.143,726.1396 248.6856,725.9706 239.2281,725.7907 229.7705,725.5999 220.3129,725.3982 210.8552,725.1855 201.3974,724.962 191.9396,724.7275 182.4817,724.4821 173.0237,724.2258 163.5656,723.9586 154.1074,723.6804 144.6491,723.3914 135.1908,723.0914 125.7323,722.7805 116.2737,722.4587 106.815,722.1259 97.3562,721.7822 87.8973,721.4276 78.4382,721.062 68.9791,720.6855 59.5198,720.2981" stroke="silver" stroke-opacity="0.5" stroke-width="1" /><polyline fill="none" points="736.8268,632.9406 727.4692,633.3291 718.1118,633.7067 708.7544,634.0733 699.3971,634.4289 690.04,634.7736 680.6829,635.1073 671.3259,635.4301 661.969,635.7419 652.6122,636.0427 643.2555,636.3326 633.8989,636.6115 624.5423,636.8795 615.1858,637.1366 605.8294,637.3827 596.4731,637.6178 587.1168,637.842 577.7605,638.0553 568.4044,638.2576 559.0483,638.4489 549.6922,638.6294 540.3362,638.7988 530.9803,638.9574 521.6243,639.105 512.2685,639.2417 502.9126,639.3674 493.5568,639.4822 484.2011,639.5861 474.8453,639.679 465.4896,639.761 456.1339,639.8321 446.7782,639.8922 437.4226,639.9414 428.0669,639.9797 418.7113,640.007 409.3556,640.0234 400.0,640.0289 390.6444,640.0234 381.2887,640.007 371.9331,639.9797 362.5774,639.9414 353.2218,639.8922 343.8661,639.8321 334.5104,639.761 325.1547,639.679 315.7989,639.5861 306.4432,639.4822 297.0874,639.3674 287.7315,639.2417 278.3757,639.105 269.0197,638.9574 259.6638,638.7988 250.3078,638.6294 240.9517,638.4489 231.5956,638.2576 222.2395,638.0553 212.8832,637.842 203.5269,637.6178 194.1706,637.3827 184.8142,637.1366 175.4577,636.8795 166.1011,636.6115 156.7445,636.3326 147.3878,636.0427 138.031,635.7419 128.6741,635.4301 119.3171,635.1073 109.96,634.7736 100.6029,634.4289 91.2456,634.0733 81.8882,633.7067 72.5308,633.3291 63.1732,632.9406" stroke="silver" stroke-opacity="0.5" stroke-width="1" /><polyline fill="none" points="733.1252,545.6228 723.8706,546.0123 714.6162,546.3907 705.3619,546.7582 696.1076,547.1147 686.8534,547.4602 677.5993,547.7948 668.3452,548.1183 659.0913,548.4308 649.8374,548.7324 640.5836,549.023 631.3298,549.3026 622.0761,549.5712 612.8225,549.8289 603.5689,550.0756 594.3154,550.3113 585.0619,550.536 575.8085,550.7498 566.5552,550.9526 557.3019,551.1444 548.0486,551.3253 538.7953,551.4952 529.5422,551.6541 520.289,551.8021 511.0359,551.9391 501.7828,552.0651 492.5297,552.1802 483.2767,552.2843 474.0236,552.3775 464.7706,552.4597 455.5177,552.5309 446.2647,552.5912 437.0117,552.6405 427.7588,552.6789 418.5059,552.7063 409.2529,552.7227 400.0,552.7282 390.7471,552.7227 381.4941,552.7063 372.2412,552.6789 362.9883,552.6405 353.7353,552.5912 344.4823,552.5309 335.2294,552.4597 325.9764,552.3775 316.7233,552.2843 307.4703,552.1802 298.2172,552.0651 288.9641,551.9391 279.711,551.8021 270.4578,551.6541 261.2047,551.4952 251.9514,551.3253 242.6981,551.1444 233.4448,550.9526 224.1915,550.7498 214.9381,550.536 205.6846,550.3113 196.4311,550.0756 187.1775,549.8289 177.9239,549.5712 168.6702,549.3026 159.4164,549.023 150.1626,548.7324 140.9087,548.4308 131.6548,548.1183 122.4007,547.7948 113.1466,547.4602 103.8924,547.1147 94.6381,546.7582 85.3838,546.3907 76.1294,546.0123 66.8748,545.6228" stroke="silver" stroke-opacity="0.5" stroke-width="1" /><polyline fill="none" points="729.3748,458.3315 720.2247,458.7217 711.0746,459.1009 701.9246,459.4691 692.7747,459.8263 683.6249,460.1725 674.4751,460.5077 665.3253,460.8318 656.1756,461.145 647.026,461.4472 637.8764,461.7383 628.7269,462.0185 619.5775,462.2876 610.428,462.5458 601.2787,462.793 592.1293,463.0291 582.98,463.2543 573.8308,463.4685 564.6816,463.6717 555.5324,463.8639 546.3833,464.0451 537.2342,464.2154 528.0851,464.3746 518.936,464.5229 509.787,464.6601 500.638,464.7864 491.489,464.9017 482.3401,465.0061 473.1911,465.0994 464.0422,465.1818 454.8933,465.2531 445.7444,465.3135 436.5955,465.3629 427.4466,465.4014 418.2977,465.4288 409.1489,465.4453 400.0,465.4508 390.8511,465.4453 381.7023,465.4288 372.5534,465.4014 363.4045,465.3629 354.2556,465.3135 345.1067,465.2531 335.9578,465.1818 326.8089,465.0994 317.6599,465.0061 308.511,464.9017 299.362,464.7864 290.213,464.6601 281.064,464.5229 271.9149,464.3746 262.7658,464.2154 253.6167,464.0451 244.4676,463.8639 235.3184,463.6717 226.1692,463.4685 217.02,463.2543 207.8707,463.0291 198.7213,462.793 189.572,462.5458 180.4225,462.2876 171.2731,462.0185 162.1236,461.7383 152.974,461.4472 143.8244,461.145 134.6747,460.8318 125.5249,460.5077 116.3751,460.1725 107.2253,459.8263 98.0754,459.4691 88.9254,459.1009 79.7753,458.7217 70.6252,458.3315" stroke="silver" stroke-opacity="0.5" stroke-width="1" /><polyline fill="none" points="725.5752,371.0534 716.5308,371.4442 707.4865,371.8239 698.4422,372.1927 689.398,372.5504 680.3539,372.8971 671.3098,373.2328 662.2657,373.5574 653.2217,373.8711 644.1777,374.1737 635.1337,374.4653 626.0898,374.7459 617.0459,375.0154 608.0021,375.274 598.9583,375.5215 589.9145,375.758 580.8707,375.9836 571.827,376.1981 562.7833,376.4016 553.7397,376.5941 544.696,376.7756 535.6524,376.9461 526.6088,377.1056 517.5653,377.254 508.5217,377.3915 499.4782,377.518 490.4346,377.6335 481.3911,377.738 472.3476,377.8314 463.3042,377.9139 454.2607,377.9854 445.2172,378.0459 436.1738,378.0954 427.1303,378.1339 418.0869,378.1614 409.0434,378.1779 400.0,378.1833 390.9566,378.1779 381.9131,378.1614 372.8697,378.1339 363.8262,378.0954 354.7828,378.0459 345.7393,377.9854 336.6958,377.9139 327.6524,377.8314 318.6089,377.738 309.5654,377.6335 300.5218,377.518 291.4783,377.3915 282.4347,377.254 273.3912,377.1056 264.3476,376.9461 255.304,376.7756 246.2603,376.5941 237.2167,376.4016 228.173,376.1981 219.1293,375.9836 210.0855,375.758 201.0417,375.5215 191.9979,375.274 182.9541,375.0154 173.9102,374.7459 164.8663,374.4653 155.8223,374.1737 146.7783,373.8711 137.7343,373.5574 128.6902,373.2328 119.6461,372.8971 110.602,372.5504 101.5578,372.1927 92.5135,371.8239 83.4692,371.4442 74.4248,371.0534" stroke="silver" stroke-opacity="0.5" stroke-width="1" /><polyline fill="none" points="721.7257,283.7752 712.7885,284.1664 703.8513,284.5466 694.9142,284.9157 685.9771,285.2738 677.04,285.6208 668.1029,285.9569 659.1659,286.2819 650.2289,286.5958 641.2919,286.8987 632.355,287.1906 623.4181,287.4715 614.4811,287.7414 605.5443,288.0002 596.6074,288.248 587.6706,288.4848 578.7338,288.7105 569.7969,288.9252 560.8602,289.129 551.9234,289.3217 542.9866,289.5033 534.0499,289.674 525.1132,289.8337 516.1765,289.9823 507.2398,290.1199 498.3031,290.2465 489.3664,290.3621 480.4297,290.4667 471.4931,290.5603 462.5564,290.6429 453.6198,290.7144 444.6831,290.775 435.7465,290.8245 426.8099,290.8631 417.8733,290.8906 408.9366,290.9071 400.0,290.9126 391.0634,290.9071 382.1267,290.8906 373.1901,290.8631 364.2535,290.8245 355.3169,290.775 346.3802,290.7144 337.4436,290.6429 328.5069,290.5603 319.5703,290.4667 310.6336,290.3621 301.6969,290.2465 292.7602,290.1199 283.8235,289.9823 274.8868,289.8337 265.9501,289.674 257.0134,289.5033 248.0766,289.3217 239.1398,289.129 230.2031,288.9252 221.2662,288.7105 212.3294,288.4848 203.3926,288.248 194.4557,288.0002 185.5189,287.7414 176.5819,287.4715 167.645,287.1906 158.7081,286.8987 149.7711,286.5958 140.8341,286.2819 131.8971,285.9569 122.96,285.6208 114.0229,285.2738 105.0858,284.9157 96.1487,284.5466 87.2115,284.1664 78.2743,283.7752" stroke="silver" stroke-opacity="0.5" stroke-width="1" /><polyline fill="none" points="717.8258,196.4837 708.9971,196.8751 700.1685,197.2555 691.3398,197.6249 682.5112,197.9832 673.6826,198.3304 664.854,198.6666 656.0255,198.9918 647.1969,199.3059 638.3683,199.609 629.5398,199.9011 620.7113,200.1821 611.8827,200.4521 603.0542,200.7111 594.2257,200.959 585.3972,201.196 576.5687,201.4218 567.7402,201.6367 558.9118,201.8405 550.0833,202.0334 541.2548,202.2151 532.4264,202.3859 523.5979,202.5457 514.7695,202.6944 505.941,202.8321 497.1126,202.9588 488.2842,203.0744 479.4557,203.1791 470.6273,203.2727 461.7989,203.3553 452.9705,203.4269 444.1421,203.4875 435.3136,203.5371 426.4852,203.5757 417.6568,203.6032 408.8284,203.6197 400.0,203.6252 391.1716,203.6197 382.3432,203.6032 373.5148,203.5757 364.6864,203.5371 355.8579,203.4875 347.0295,203.4269 338.2011,203.3553 329.3727,203.2727 320.5443,203.1791 311.7158,203.0744 302.8874,202.9588 294.059,202.8321 285.2305,202.6944 276.4021,202.5457 267.5736,202.3859 258.7452,202.2151 249.9167,202.0334 241.0882,201.8405 232.2598,201.6367 223.4313,201.4218 214.6028,201.196 205.7743,200.959 196.9458,200.7111 188.1173,200.4521 179.2887,200.1821 170.4602,199.9011 161.6317,199.609 152.8031,199.3059 143.9745,198.9918 135.146,198.6666 126.3174,198.3304 117.4888,197.9832 108.6602,197.6249 99.8315,197.2555 91.0029,196.8751 82.1742,196.4837" stroke="silver" stroke-opacity="0.5" stroke-width="1" /><polyline fill="none" points="713.8748,109.1656 705.1561,109.5571 696.4374,109.9375 687.7187,110.3069 679.0,110.6652 670.2813,111.0125 661.5626,111.3488 652.8439,111.674 644.1252,111.9882 635.4064,112.2913 626.6877,112.5834 617.969,112.8645 609.2503,113.1345 600.5315,113.3935 591.8128,113.6414 583.094,113.8784 574.3753,114.1043 565.6565,114.3192 556.9378,114.523 548.219,114.7159 539.5003,114.8977 530.7815,115.0685 522.0628,115.2282 513.344,115.377 504.6252,115.5147 495.9065,115.6414 487.1877,115.7571 478.4689,115.8617 469.7502,115.9554 461.0314,116.038 452.3126,116.1096 443.5939,116.1702 434.8751,116.2198 426.1563,116.2584 417.4375,116.2859 408.7188,116.3024 400.0,116.3079 391.2812,116.3024 382.5625,116.2859 373.8437,116.2584 365.1249,116.2198 356.4061,116.1702 347.6874,116.1096 338.9686,116.038 330.2498,115.9554 321.5311,115.8617 312.8123,115.7571 304.0935,115.6414 295.3748,115.5147 286.656,115.377 277.9372,115.2282 269.2185,115.0685 260.4997,114.8977 251.781,114.7159 243.0622,114.523 234.3435,114.3192 225.6247,114.1043 216.906,113.8784 208.1872,113.6414 199.4685,113.3935 190.7497,113.1345 182.031,112.8645 173.3123,112.5834 164.5936,112.2913 155.8748,111.9882 147.1561,111.674 138.4374,111.3488 129.7187,111.0125 121.0,110.6652 112.2813,110.3069 103.5626,109.9375 94.8439,109.5571 86.1252,109.1656" stroke="silver" stroke-opacity="0.5" stroke-width="1" /><circle cx="722.9576" cy="527.5984" fill="black" r="0.738" stroke="none" /><circle cx="709.9657" cy="268.4603" fill="black" r="0.738" stroke="none" /><circle cx="704.0971" cy="173.5585" fill="black" r="0.738" stroke="none" /><circle cx="716.9448" cy="539.8257" fill="black" r="0.738" stroke="none" /><circle cx="716.4974" cy="539.7564" fill="black" r="0.738" stroke="none" /><circle cx="721.4936" cy="715.4639" fill="black" r="0.936" stroke="none" /><circle cx="709.7908" cy="445.6024" fill="black" r="0.738" stroke="none" /><circle cx="702.2902" cy="363.47" fill="black" r="0.936" stroke="none" /><circle cx="698.4736" cy="416.6851" fill="black" r="0.738" stroke="none" /><circle cx="687.2855" cy="329.5409" fill="black" r="0.738" stroke="none" /><circle cx="682.8277" cy="283.4742" fill="black" r="0.738" stroke="none" /><circle cx="678.8924" cy="215.7012" fill="black" r="0.738" stroke="none" /><circle cx="694.3443" cy="674.6718" fill="black" r="0.738" stroke="none" /><circle cx="667.9727" cy="296.0126" fill="black" r="0.738" stroke="none" /><circle cx="682.3293" cy="701.7757" fill="black" r="0.738" stroke="none" /><circle cx="669.4479" cy="349.9677" fill="black" r="0.738" stroke="none" /><circle cx="669.0247" cy="589.7001" fill="black" r="0.738" stroke="none" /><circle cx="656.6479" cy="310.3156" fill="black" r="0.738" stroke="none" /><circle cx="657.0154" cy="519.312" fill="black" r="0.738" stroke="none" /><circle cx="646.3237" cy="266.544" fill="black" r="0.738" stroke="none" /><circle cx="650.063" cy="451.3004" fill="black" r="0.936" stroke="none" /><circle cx="633.7312" cy="172.844" fill="black" r="0.738" stroke="none" /><circle cx="639.5506" cy="506.0675" fill="black" r="0.738" stroke="none" /><circle cx="640.8014" cy="570.5993" fill="black" r="0.738" stroke="none" /><circle cx="633.8441" cy="571.5085" fill="black" r="0.936" stroke="none" /><circle cx="622.3872" cy="249.4988" fill="black" r="0.738" stroke="none" /><circle cx="605.6922" cy="396.5611" fill="black" r="0.738" stroke="none" /><circle cx="594.621" cy="79.8206" fill="black" r="0.936" stroke="none" /><circle cx="601.8314" cy="417.7137" fill="black" r="0.738" stroke="none" /><circle cx="590.5763" cy="220.3651" fill="black" r="0.738" stroke="none" /><circle cx="588.2297" cy="332.4864" fill="black" r="0.738" stroke="none" /><circle cx="586.5783" cy="310.0845" fill="black" r="0.738" stroke="none" /><circle cx="591.8289" cy="524.607" fill="black" r="0.738" stroke="none" /><circle cx="573.9266" cy="146.3603" fill="black" r="0.738" stroke="none" /><circle cx="575.5799" cy="291.4074" fill="black" r="0.738" stroke="none" /><circle cx="581.8875" cy="579.7831" fill="black" r="0.738" stroke="none" /><circle cx="574.2592" cy="278.1651" fill="black" r="0.738" stroke="none" /><circle cx="565.9096" cy="166.0388" fill="black" r="0.738" stroke="none" /><circle cx="558.9773" cy="608.6641" fill="black" r="0.738" stroke="none" /><circle cx="560.3581" cy="670.3976" fill="black" r="0.738" stroke="none" /><circle cx="551.9094" cy="495.3684" fill="black" r="0.738" stroke="none" /><circle cx="543.1227" cy="419.4959" fill="black" r="0.738" stroke="none" /><circle cx="544.9691" cy="577.0561" fill="black" r="0.738" stroke="none" /><circle cx="544.0148" cy="639.345" fill="black" r="0.738" stroke="none" /><circle cx="530.8844" cy="565.5149" fill="black" r="0.738" stroke="none" /><circle cx="524.0115" cy="439.1267" fill="black" r="0.738" stroke="none" /><circle cx="517.5465" cy="157.6723" fill="black" r="0.936" stroke="none" /><circle cx="514.989" cy="355.8211" fill="black" r="0.936" stroke="none" /><circle cx="497.9332" cy="125.7457" fill="black" r="0.738" stroke="none" /><circle cx="497.0959" cy="462.563" fill="black" r="0.738" stroke="none" /><circle cx="493.225" cy="197.4228" fill="black" r="0.738" stroke="none" /><circle cx="486.9615" cy="76.0107" fill="black" r="0.738" stroke="none" /><circle cx="486.0944" cy="226.413" fill="black" r="0.738" stroke="none" /><circle cx="482.355" cy="591.5805" fill="black" r="0.738" stroke="none" /><circle cx="481.0195" cy="591.9435" fill="black" r="0.738" stroke="none" /><circle cx="475.2376" cy="172.0535" fill="black" r="0.738" stroke="none" /><circle cx="469.1948" cy="327.241" fill="black" r="0.936" stroke="none" /><circle cx="453.788" cy="73.1205" fill="black" r="0.738" stroke="none" /><circle cx="453.8528" cy="90.1552" fill="black" r="0.738" stroke="none" /><circle cx="453.1341" cy="322.2257" fill="black" r="0.738" stroke="none" /><circle cx="452.1467" cy="345.0116" fill="black" r="0.936" stroke="none" /><circle cx="447.0264" cy="682.5076" fill="black" r="0.738" stroke="none" /><circle cx="443.8114" cy="631.1772" fill="black" r="0.738" stroke="none" /><circle cx="440.7669" cy="255.7101" fill="black" r="0.738" stroke="none" /><circle cx="442.357" cy="555.4939" fill="black" r="0.738" stroke="none" /><circle cx="431.586" cy="678.565" fill="black" r="0.738" stroke="none" /><circle cx="427.3175" cy="110.0527" fill="black" r="0.738" stroke="none" /><circle cx="423.3441" cy="586.6501" fill="black" r="0.738" stroke="none" /><circle cx="419.7604" cy="223.5015" fill="black" r="0.738" stroke="none" /><circle cx="418.9646" cy="298.1318" fill="black" r="0.738" stroke="none" /><circle cx="413.7352" cy="148.7808" fill="black" r="0.738" stroke="none" /><circle cx="412.325" cy="143.8933" fill="black" r="0.738" stroke="none" /><circle cx="411.0575" cy="370.3211" fill="black" r="0.738" stroke="none" /><circle cx="410.1156" cy="649.1909" fill="black" r="0.738" stroke="none" /><circle cx="402.6942" cy="639.4172" fill="black" r="0.738" stroke="none" /><circle cx="398.1872" cy="714.1751" fill="black" r="0.738" stroke="none" /><circle cx="394.738" cy="454.1912" fill="black" r="0.738" stroke="none" /><circle cx="391.8007" cy="536.3143" fill="black" r="0.738" stroke="none" /><circle cx="384.0439" cy="362.9817" fill="black" r="0.738" stroke="none" /><circle cx="368.6779" cy="195.3494" fill="black" r="0.738" stroke="none" /><circle cx="366.558" cy="672.7061" fill="black" r="0.738" stroke="none" /><circle cx="361.8743" cy="308.268" fill="black" r="0.936" stroke="none" /><circle cx="359.2402" cy="505.314" fill="black" r="0.738" stroke="none" /><circle cx="350.536" cy="217.1588" fill="black" r="0.936" stroke="none" /><circle cx="346.298" cy="390.8184" fill="black" r="0.738" stroke="none" /><circle cx="340.4238" cy="711.1628" fill="black" r="0.738" stroke="none" /><circle cx="336.9112" cy="127.4612" fill="black" r="0.738" stroke="none" /><circle cx="331.8908" cy="693.1013" fill="black" r="0.738" stroke="none" /><circle cx="332.8382" cy="86.718" fill="black" r="0.738" stroke="none" /><circle cx="330.7352" cy="237.509" fill="black" r="0.738" stroke="none" /><circle cx="326.1563" cy="186.6505" fill="black" r="0.738" stroke="none" /><circle cx="325.6611" cy="95.205" fill="black" r="1.17" stroke="none" /><circle cx="320.0497" cy="318.4906" fill="black" r="0.738" stroke="none" /><circle cx="319.3147" cy="320.0536" fill="black" r="0.738" stroke="none" /><circle cx="317.5368" cy="280.6675" fill="black" r="0.738" stroke="none" /><circle cx="309.2194" cy="454.6108" fill="black" r="0.936" stroke="none" /><circle cx="298.1107" cy="659.0313" fill="black" r="0.738" stroke="none" /><circle cx="294.3679" cy="574.0155" fill="black" r="0.738" stroke="none" /><circle cx="294.1679" cy="391.8323" fill="black" r="0.936" stroke="none" /><circle cx="292.3092" cy="155.8224" fill="black" r="0.738" stroke="none" /><circle cx="288.1123" cy="365.4705" fill="black" r="0.738" stroke="none" /><circle cx="285.2958" cy="278.3074" fill="black" r="0.738" stroke="none" /><circle cx="281.4948" cy="236.1634" fill="black" r="0.738" stroke="none" /><circle cx="275.2187" cy="477.2619" fill="black" r="0.738" stroke="none" /><circle cx="275.6473" cy="406.823" fill="black" r="0.738" stroke="none" /><circle cx="268.5243" cy="140.6523" fill="black" r="0.738" stroke="none" /><circle cx="259.3009" cy="461.5331" fill="black" r="0.738" stroke="none" /><circle cx="248.4649" cy="656.9394" fill="black" r="0.738" stroke="none" /><circle cx="254.3226" cy="259.8495" fill="black" r="0.738" stroke="none" /><circle cx="235.3216" cy="581.5591" fill="black" r="0.738" stroke="none" /><circle cx="233.6479" cy="541.4381" fill="black" r="0.738" stroke="none" /><circle cx="239.912" cy="154.3805" fill="black" r="0.738" stroke="none" /><circle cx="233.6392" cy="140.7786" fill="black" r="0.738" stroke="none" /><circle cx="216.9209" cy="717.9809" fill="black" r="0.738" stroke="none" /><circle cx="213.2809" cy="678.9193" fill="black" r="0.738" stroke="none" /><circle cx="215.0617" cy="426.5309" fill="black" r="0.738" stroke="none" /><circle cx="212.8085" cy="345.4375" fill="black" r="0.738" stroke="none" /><circle cx="212.068" cy="346.2046" fill="black" r="0.738" stroke="none" /><circle cx="205.7141" cy="223.8465" fill="black" r="0.738" stroke="none" /><circle cx="196.2478" cy="151.8438" fill="black" r="0.738" stroke="none" /><circle cx="179.7168" cy="720.2991" fill="black" r="0.936" stroke="none" /><circle cx="190.0115" cy="313.117" fill="black" r="0.738" stroke="none" /><circle cx="178.3589" cy="544.6912" fill="black" r="0.738" stroke="none" /><circle cx="185.0857" cy="266.2383" fill="black" r="1.17" stroke="none" /><circle cx="178.076" cy="482.5724" fill="black" r="0.738" stroke="none" /><circle cx="170.686" cy="715.7669" fill="black" r="0.738" stroke="none" /><circle cx="171.9147" cy="624.5442" fill="black" r="0.738" stroke="none" /><circle cx="173.0042" cy="465.3897" fill="black" r="0.738" stroke="none" /><circle cx="158.1631" cy="634.0157" fill="black" r="0.738" stroke="none" /><circle cx="161.0059" cy="104.9976" fill="black" r="0.738" stroke="none" /><circle cx="144.4943" cy="531.7706" fill="black" r="0.936" stroke="none" /><circle cx="144.2373" cy="483.8769" fill="black" r="0.738" stroke="none" /><circle cx="135.4162" cy="503.1522" fill="black" r="0.936" stroke="none" /><circle cx="144.4447" cy="116.9962" fill="black" r="0.738" stroke="none" /><circle cx="128.1845" cy="223.4938" fill="black" r="0.738" stroke="none" /><circle cx="109.4926" cy="681.1079" fill="black" r="0.738" stroke="none" /><circle cx="123.0764" cy="297.6001" fill="black" r="0.738" stroke="none" /><circle cx="114.4482" cy="385.6347" fill="black" r="0.738" stroke="none" /><circle cx="119.2728" cy="181.6149" fill="black" r="0.738" stroke="none" /><circle cx="99.4446" cy="591.7986" fill="black" r="0.738" stroke="none" /><circle cx="105.5938" cy="396.6538" fill="black" r="0.738" stroke="none" /><circle cx="87.6262" cy="651.9515" fill="black" r="0.738" stroke="none" /><circle cx="94.3292" cy="445.0701" fill="black" r="0.738" stroke="none" /><circle cx="13.77" cy="786.23" fill="black" r="4.59" stroke="none" /><circle cx="13.77" cy="786.23" fill="black" r="4.59" stroke="none" /><text fill="black" font-family="monospace" font-size="12" x="10.77" y="775.64">1</text><circle cx="37.77" cy="786.23" fill="black" r="3.654" stroke="none" /><circle cx="37.77" cy="786.23" fill="black" r="3.654" stroke="none" /><text fill="black" font-family="monospace" font-size="12" x="34.769999999999996" y="775.64">2</text><circle cx="61.77" cy="786.23" fill="black" r="2.916" stroke="none" /><circle cx="61.77" cy="786.23" fill="black" r="2.916" stroke="none" /><text fill="black" font-family="monospace" font-size="12" x="58.769999999999996" y="775.64">3</text><circle cx="85.77" cy="786.23" fill="black" r="2.322" stroke="none" /><circle cx="85.77" cy="786.23" fill="black" r="2.322" stroke="none" /><text fill="black" font-family="monospace" font-size="12" x="82.77" y="775.64">4</text><circle cx="109.77" cy="786.23" fill="black" r="1.854" stroke="none" /><circle cx="109.77" cy="786.23" fill="black" r="1.854" stroke="none" /><text fill="black" font-family="monospace" font-size="12" x="106.77" y="775.64">5</text><circle cx="133.77" cy="786.23" fill="black" r="1.476" stroke="none" /><circle cx="133.77" cy="786.23" fill="black" r="1.476" stroke="none" /><text fill="black" font-family="monospace" font-size="12" x="130.77" y="775.64">6</text><circle cx="157.77" cy="786.23" fill="black" r="1.17" stroke="none" /><circle cx="157.77" cy="786.23" fill="black" r="1.17" stroke="none" /><text fill="black" font-family="monospace" font-size="12" x="154.77" y="775.64">7</text><circle cx="181.77" cy="786.23" fill="black" r="0.936" stroke="none" /><circle cx="181.77" cy="786.23" fill="black" r="0.936" stroke="none" /><text fill="black" font-family="monospace" font-size="12" x="178.77" y="775.64">8</text><circle cx="205.77" cy="786.23" fill="black" r="0.738" stroke="none" /><circle cx="205.77" cy="786.23" fill="black" r="0.738" stroke="none" /><text fill="black" font-family="monospace" font-size="12" x="202.77" y="775.64">9</text><text fill="gray" fill-opacity="0.5" font-family="monospace" font-size="12" x="683.7263120590292" y="722.4586568803752">01h15m</text><text fill="gray" fill-opacity="0.5" font-family="monospace" font-size="12" x="589.1447897943262" y="725.1855192777725">01h20m</text><text fill="gray" fill-opacity="0.5" font-family="monospace" font-size="12" x="494.57056723952223" y="726.8210333234375">01h25m</text><text fill="gray" fill-opacity="0.5" font-family="monospace" font-size="12" x="400.0" y="727.3661041297262">01h30m</text><text fill="gray" fill-opacity="0.5" font-family="monospace" font-size="12" x="305.42943276047754" y="726.8210333234375">01h35m</text><text fill="gray" fill-opacity="0.5" font-family="monospace" font-size="12" x="210.8552102056737" y="725.1855192777725">01h40m</text><text fill="gray" fill-opacity="0.5" font-family="monospace" font-size="12" x="116.27368794097066" y="722.4586568803752">01h45m</text><text fill="gray" fill-opacity="0.5" font-family="monospace" font-size="12" x="59.5197625139196" y="720.298089532354">+30°</text><text fill="gray" fill-opacity="0.5" font-family="monospace" font-size="12" x="63.17318490240348" y="632.9405767426096">+31°</text><text fill="gray" fill-opacity="0.5" font-family="monospace" font-size="12" x="66.87482799348498" y="545.6227984718392">+32°</text><text fill="gray" fill-opacity="0.5" font-family="monospace" font-size="12" x="70.62520151171117" y="458.3314783766065">+33°</text><text fill="gray" fill-opacity="0.5" font-family="monospace" font-size="12" x="74.42484486387173" y="371.05335616926925">+34°</text><text fill="gray" fill-opacity="0.5" font-family="monospace" font-size="12" x="78.2743274386603" y="283.7751795705645">+35°</text><text fill="gray" fill-opacity="0.5" font-family="monospace" font-size="12" x="82.1742489450931" y="196.4836962725">+36°</text><text fill="gray" fill-opacity="0.5" font-family="monospace" font-size="12" x="86.12523979011092" y="109.16564590122829">+37°</text><text fill="black" font-family="monospace" font-size="12" x="12" y="48">&gt;&gt; No.594 01h12m 01h48m +30.0°+37.5°</text><a target="_self" xlink:href="hip032.svg"><text fill="black" font-family="monospace" font-size="12" x="12" y="36">&gt; No.32 00h00m 03h00m +22.5°+52.5°</text></a><a target="_self" xlink:href="hip002.svg"><text fill="black" font-family="monospace" font-size="12" x="12" y="24">No.2 00h 24h +0.0°+90.0°</text></a><polyline fill="none" points="711.8799,65.4925 703.2167,65.8839 694.5536,66.2643 685.8904,66.6336 677.2272,66.9919 668.564,67.3392 659.9007,67.6754 651.2375,68.0005 642.5742,68.3147 633.911,68.6178 625.2477,68.9098 616.5844,69.1908 607.9211,69.4608 599.2578,69.7198 590.5945,69.9677 581.9311,70.2046 573.2678,70.4305 564.6045,70.6454 555.9411,70.8492 547.2778,71.042 538.6144,71.2238 529.951,71.3946 521.2877,71.5543 512.6243,71.7031 503.9609,71.8408 495.2975,71.9675 486.6341,72.0831 477.9707,72.1878 469.3073,72.2814 460.6439,72.364 451.9805,72.4356 443.3171,72.4962 434.6537,72.5458 425.9902,72.5843 417.3268,72.6119 408.6634,72.6284 400.0,72.6339 391.3366,72.6284 382.6732,72.6119 374.0098,72.5843 365.3463,72.5458 356.6829,72.4962 348.0195,72.4356 339.3561,72.364 330.6927,72.2814 322.0293,72.1878 313.3659,72.0831 304.7025,71.9675 296.0391,71.8408 287.3757,71.7031 278.7123,71.5543 270.049,71.3946 261.3856,71.2238 252.7222,71.042 244.0589,70.8492 235.3955,70.6454 226.7322,70.4305 218.0689,70.2046 209.4055,69.9677 200.7422,69.7198 192.0789,69.4608 183.4156,69.1908 174.7523,68.9098 166.089,68.6178 157.4258,68.3147 148.7625,68.0005 140.0993,67.6754 131.436,67.3392 122.7728,66.9919 114.1096,66.6336 105.4464,66.2643 96.7833,65.8839 88.1201,65.4925" stroke="black" stroke-opacity="0.5" stroke-width="1" /><polyline fill="none" points="740.4802,720.2981 740.0262,709.3758 739.5714,698.4543 739.1158,687.5335 738.6595,676.6135 738.2025,665.6943 737.7447,654.7757 737.2861,643.8578 736.8268,632.9406 736.3668,622.024 735.9059,611.1079 735.4444,600.1925 734.9821,589.2776 734.519,578.3632 734.0551,567.4492 733.5905,556.5358 733.1252,545.6228 732.6591,534.7102 732.1922,523.798 731.7245,512.8862 731.2561,501.9747 730.7869,491.0635 730.317,480.1526 729.8463,469.2419 729.3748,458.3315 728.9025,447.4213 728.4295,436.5112 727.9557,425.6013 727.4812,414.6916 727.0058,403.7819 726.5297,392.8724 726.0528,381.9629 725.5752,371.0534 725.0967,360.1439 724.6175,349.2343 724.1375,338.3248 723.6567,327.4151 723.1751,316.5053 722.6927,305.5955 722.2096,294.6854 721.7257,283.7752 721.241,272.8647 720.7554,261.9541 720.2691,251.0431 719.7821,240.1319 719.2942,229.2204 718.8055,218.3085 718.316,207.3963 717.8258,196.4837 717.3347,185.5707 716.8428,174.6572 716.3501,163.7433 715.8567,152.8288 715.3624,141.9139 714.8673,130.9984 714.3714,120.0823 713.8748,109.1656 713.3773,98.2484 712.879,87.3304 712.3798,76.4118 711.8799,65.4925" stroke="black" stroke-opacity="0.5" stroke-width="1" /><polyline fill="none" points="740.4802,720.2981 731.0209,720.6855 721.5618,721.062 712.1027,721.4276 702.6438,721.7822 693.185,722.1259 683.7263,722.4587 674.2677,722.7805 664.8092,723.0914 655.3509,723.3914 645.8926,723.6804 636.4344,723.9586 626.9763,724.2258 617.5183,724.4821 608.0604,724.7275 598.6026,724.962 589.1448,725.1855 579.6871,725.3982 570.2295,725.5999 560.7719,725.7907 551.3144,725.9706 541.857,726.1396 532.3996,726.2977 522.9423,726.4449 513.485,726.5812 504.0278,726.7066 494.5706,726.821 485.1134,726.9246 475.6563,727.0173 466.1992,727.099 456.7421,727.1699 447.2851,727.2298 437.828,727.2789 428.371,727.317 418.914,727.3443 409.457,727.3607 400.0,727.3661 390.543,727.3607 381.086,727.3443 371.629,727.317 362.172,727.2789 352.7149,727.2298 343.2579,727.1699 333.8008,727.099 324.3437,727.0173 314.8866,726.9246 305.4294,726.821 295.9722,726.7066 286.515,726.5812 277.0577,726.4449 267.6004,726.2977 258.143,726.1396 248.6856,725.9706 239.2281,725.7907 229.7705,725.5999 220.3129,725.3982 210.8552,725.1855 201.3974,724.962 191.9396,724.7275 182.4817,724.4821 173.0237,724.2258 163.5656,723.9586 154.1074,723.6804 144.6491,723.3914 135.1908,723.0914 125.7323,722.7805 116.2737,722.4587 106.815,722.1259 97.3562,721.7822 87.8973,721.4276 78.4382,721.062 68.9791,720.6855 59.5198,720.2981" stroke="black" stroke-opacity="0.5" stroke-width="1" /><polyline fill="none" points="59.5198,720.2981 59.9738,709.3758 60.4286,698.4543 60.8842,687.5335 61.3405,676.6135 61.7975,665.6943 62.2553,654.7757 62.7139,643.8578 63.1732,632.9406 63.6332,622.024 64.0941,611.1079 64.5556,600.1925 65.0179,589.2776 65.481,578.3632 65.9449,567.4492 66.4095,556.5358 66.8748,545.6228 67.3409,534.7102 67.8078,523.798 68.2755,512.8862 68.7439,501.9747 69.2131,491.0635 69.683,480.1526 70.1537,469.2419 70.6252,458.3315 71.0975,447.4213 71.5705,436.5112 72.0443,425.6013 72.5188,414.6916 72.9942,403.7819 73.4703,392.8724 73.9472,381.9629 74.4248,371.0534 74.9033,360.1439 75.3825,349.2343 75.8625,338.3248 76.3433,327.4151 76.8249,316.5053 77.3073,305.5955 77.7904,294.6854 78.2743,283.7752 78.759,272.8647 79.2446,261.9541 79.7309,251.0431 80.2179,240.1319 80.7058,229.2204 81.1945,218.3085 81.684,207.3963 82.1742,196.4837 82.6653,185.5707 83.1572,174.6572 83.6499,163.7433 84.1433,152.8288 84.6376,141.9139 85.1327,130.9984 85.6286,120.0823 86.1252,109.1656 86.6227,98.2484 87.121,87.3304 87.6202,76.4118 88.1201,65.4925" stroke="black" stroke-opacity="0.5" stroke-width="1" /></svg>