<?xml version="1.0" encoding="utf-8" ?>
<svg baseProfile="tiny" height="800" version="1.2" width="800" xmlns="http://www.w3.org/2000/svg" xmlns:ev="http://www.w3.org/2001/xml-events" xmlns:xlink="http://www.w3.org/1999/xlink"><defs /><rect fill="none" height="800" stroke="black" stroke-width="2" width="800" x="0" y="0" /><polyline fill="none" points="712.0023,723.0191 711.6975,712.0934 711.3919,701.1685 711.0856,690.2444 710.7786,679.321 710.471,668.3983 710.1626,657.4763 709.8535,646.555 709.5437,635.6343 709.2332,624.7141 708.922,613.7946 708.6101,602.8756 708.2975,591.9571 707.9842,581.0392 707.6702,570.1217 707.3555,559.2046 707.04,548.288 706.7239,537.3718 706.407,526.4559 706.0894,515.5404 705.7712,504.6252 705.4522,493.7103 705.1324,482.7957 704.812,471.8812 704.4909,460.9671 704.169,450.0531 703.8465,439.1392 703.5232,428.2255 703.1992,417.3119 702.8744,406.3984 702.549,395.4849 702.2228,384.5715 701.8959,373.6581 701.5683,362.7447 701.24,351.8312 700.911,340.9176 700.5812,330.004 700.2507,319.0902 699.9195,308.1763 699.5875,297.2622 699.2548,286.3479 698.9214,275.4334 698.5873,264.5186 698.2524,253.6036 697.9168,242.6882 697.5805,231.7725 697.2434,220.8565 696.9056,209.94 696.5671,199.0232 696.2278,188.1059 695.8878,177.1882 695.5471,166.27 695.2056,155.3513 694.8634,144.432 694.5205,133.5122 694.1768,122.5917 693.8323,111.6707 693.4872,100.749 693.1413,89.8267 692.7946,78.9036 692.4472,67.9799" stroke="silver" stroke-opacity="0.5" stroke-width="1" /><polyline fill="none" points="611.0748,725.3768 610.8687,714.4544 610.6621,703.5328 610.455,692.6119 610.2474,681.6918 610.0394,670.7723 609.8308,659.8535 609.6218,648.9353 609.4124,638.0178 609.2024,627.1008 608.992,616.1844 608.7811,605.2685 608.5697,594.3531 608.3579,583.4383 608.1455,572.5238 607.9327,561.6098 607.7194,550.6962 607.5056,539.783 607.2914,528.8701 607.0767,517.9576 606.8614,507.0454 606.6457,496.1334 606.4296,485.2217 606.2129,474.3102 605.9957,463.3989 605.7781,452.4878 605.56,441.5768 605.3414,430.6659 605.1223,419.7551 604.9027,408.8444 604.6827,397.9338 604.4621,387.0231 604.2411,376.1124 604.0195,365.2017 603.7975,354.291 603.575,343.3801 603.352,332.4692 603.1285,321.5581 602.9046,310.6468 602.6801,299.7353 602.4552,288.8236 602.2297,277.9117 602.0038,266.9995 601.7773,256.087 601.5504,245.1742 601.323,234.261 601.095,223.3475 600.8666,212.4335 600.6377,201.5192 600.4083,190.6043 600.1784,179.689 599.948,168.7732 599.7171,157.8569 599.4857,146.94 599.2538,136.0225 599.0214,125.1045 598.7884,114.1857 598.555,103.2664 598.3211,92.3463 598.0867,81.4255 597.8518,70.504" stroke="silver" stroke-opacity="0.5" stroke-width="1" /><polyline fill="none" points="510.1718,726.8242 510.0643,715.9038 509.9565,704.9842 509.8484,694.0653 509.7401,683.1471 509.6315,672.2297 509.5227,661.3128 509.4137,650.3966 509.3044,639.481 509.1948,628.566 509.085,617.6515 508.975,606.7375 508.8647,595.824 508.7541,584.911 508.6434,573.9985 508.5323,563.0864 508.421,552.1746 508.3095,541.2633 508.1977,530.3522 508.0856,519.4415 507.9733,508.5311 507.8608,497.6209 507.748,486.711 507.6349,475.8013 507.5216,464.8918 507.408,453.9824 507.2942,443.0732 507.1801,432.1641 507.0658,421.255 506.9513,410.3461 506.8364,399.4371 506.7213,388.5282 506.606,377.6192 506.4904,366.7102 506.3746,355.8011 506.2585,344.8919 506.1421,333.9826 506.0255,323.0731 505.9086,312.1634 505.7915,301.2536 505.6741,290.3435 505.5565,279.4332 505.4386,268.5226 505.3204,257.6116 505.202,246.7004 505.0833,235.7888 504.9644,224.8767 504.8452,213.9643 504.7258,203.0515 504.606,192.1382 504.4861,181.2244 504.3658,170.31 504.2454,159.3952 504.1246,148.4797 504.0036,137.5637 503.8823,126.6471 503.7608,115.7298 503.639,104.8118 503.5169,93.8932 503.3946,82.9738 503.272,72.0537" stroke="silver" stroke-opacity="0.5" stroke-width="1" /><polyline fill="none" points="409.2817,727.3623 409.2726,716.4426 409.2635,705.5238 409.2544,694.6056 409.2453,683.6882 409.2362,672.7714 409.227,661.8553 409.2178,650.9399 409.2086,640.025 409.1994,629.1106 409.1901,618.1969 409.1808,607.2836 409.1716,596.3709 409.1622,585.4586 409.1529,574.5467 409.1436,563.6353 409.1342,552.7243 409.1248,541.8136 409.1154,530.9032 409.1059,519.9932 409.0965,509.0835 409.087,498.174 409.0775,487.2647 409.068,476.3557 409.0584,465.4468 409.0488,454.5381 409.0393,443.6295 409.0297,432.7211 409.02,421.8127 409.0104,410.9043 409.0007,399.996 408.991,389.0877 408.9813,378.1793 408.9715,367.271 408.9618,356.3625 408.952,345.4539 408.9422,334.5452 408.9324,323.6363 408.9225,312.7273 408.9127,301.818 408.9028,290.9086 408.8929,279.9988 408.8829,269.0888 408.873,258.1784 408.863,247.2678 408.853,236.3567 408.843,225.4453 408.833,214.5334 408.8229,203.6212 408.8128,192.7084 408.8027,181.7951 408.7926,170.8814 408.7824,159.9671 408.7723,149.0522 408.7621,138.1367 408.7518,127.2206 408.7416,116.3038 408.7313,105.3864 408.7211,94.4683 408.7108,83.5494 408.7004,72.6298" stroke="silver" stroke-opacity="0.5" stroke-width="1" /><polyline fill="none" points="308.3926,726.9914 308.482,716.0713 308.5716,705.1519 308.6615,694.2333 308.7515,683.3153 308.8418,672.3981 308.9323,661.4814 309.0229,650.5655 309.1138,639.6501 309.2049,628.7353 309.2962,617.821 309.3877,606.9073 309.4794,595.994 309.5713,585.0812 309.6635,574.1689 309.7558,563.257 309.8483,552.3455 309.9411,541.4343 310.034,530.5235 310.1272,519.613 310.2206,508.7028 310.3142,497.7928 310.4079,486.8831 310.5019,475.9736 310.5962,465.0643 310.6906,454.1552 310.7852,443.2461 310.8801,432.3372 310.9751,421.4284 311.0704,410.5196 311.1659,399.6108 311.2615,388.7021 311.3574,377.7933 311.4536,366.8845 311.5499,355.9756 311.6464,345.0666 311.7432,334.1574 311.8401,323.2482 311.9373,312.3387 312.0347,301.429 312.1323,290.5191 312.2301,279.609 312.3281,268.6986 312.4264,257.7878 312.5248,246.8767 312.6235,235.9653 312.7224,225.0535 312.8215,214.1412 312.9208,203.2285 313.0203,192.3154 313.1201,181.4018 313.2201,170.4876 313.3202,159.5729 313.4206,148.6577 313.5213,137.7418 313.6221,126.8253 313.7232,115.9082 313.8244,104.9904 313.9259,94.0719 314.0276,83.1527 314.1295,72.2327" stroke="silver" stroke-opacity="0.5" stroke-width="1" /><polyline fill="none" points="207.4928,725.7114 207.6808,714.7895 207.8693,703.8683 208.0581,692.9479 208.2474,682.0282 208.4371,671.1092 208.6273,660.1909 208.8179,649.2731 209.0089,638.356 209.2004,627.4395 209.3923,616.5236 209.5846,605.6081 209.7774,594.6932 209.9706,583.7787 210.1642,572.8647 210.3583,561.9512 210.5528,551.038 210.7478,540.1252 210.9432,529.2128 211.139,518.3007 211.3353,507.3888 211.532,496.4773 211.7292,485.566 211.9268,474.6549 212.1248,463.744 212.3233,452.8333 212.5222,441.9227 212.7215,431.0123 212.9213,420.1019 213.1216,409.1916 213.3223,398.2813 213.5234,387.3711 213.725,376.4608 213.927,365.5505 214.1295,354.6401 214.3324,343.7296 214.5358,332.819 214.7396,321.9083 214.9438,310.9974 215.1485,300.0863 215.3537,289.175 215.5593,278.2634 215.7654,267.3516 215.9719,256.4395 216.1788,245.527 216.3862,234.6142 216.5941,223.701 216.8024,212.7874 217.0112,201.8734 217.2204,190.9589 217.43,180.044 217.6402,169.1285 217.8507,158.2125 218.0618,147.296 218.2733,136.3788 218.4852,125.4611 218.6976,114.5427 218.9105,103.6237 219.1238,92.7039 219.3376,81.7835 219.5519,70.8623" stroke="silver" stroke-opacity="0.5" stroke-width="1" /><polyline fill="none" points="106.5707,723.5213 106.8574,712.5963 107.1448,701.6721 107.4328,690.7487 107.7214,679.826 108.0108,668.904 108.3007,657.9827 108.5914,647.062 108.8827,636.142 109.1747,625.2225 109.4673,614.3037 109.7606,603.3853 110.0546,592.4675 110.3492,581.5502 110.6445,570.6334 110.9405,559.717 111.2371,548.801 111.5344,537.8854 111.8324,526.9702 112.131,516.0553 112.4303,505.1407 112.7303,494.2264 113.0309,483.3124 113.3323,472.3986 113.6343,461.4851 113.9369,450.5717 114.2403,439.6584 114.5443,428.7453 114.849,417.8323 115.1543,406.9194 115.4604,396.0066 115.7671,385.0937 116.0745,374.1809 116.3825,363.2681 116.6913,352.3552 117.0007,341.4422 117.3108,330.5291 117.6216,319.6159 117.9331,308.7025 118.2453,297.789 118.5581,286.8753 118.8716,275.9613 119.1859,265.0471 119.5008,254.1326 119.8163,243.2177 120.1326,232.3026 120.4496,221.3871 120.7672,210.4712 121.0856,199.5549 121.4046,188.6381 121.7244,177.7209 122.0448,166.8032 122.3659,155.885 122.6877,144.9662 123.0102,134.0469 123.3334,123.127 123.6573,112.2064 123.9819,101.2852 124.3072,90.3634 124.6332,79.4408 124.9599,68.5175" stroke="silver" stroke-opacity="0.5" stroke-width="1" /><polyline fill="none" points="736.5199,678.5667 730.8888,678.7369 720.8335,679.0335 710.7786,679.321 700.7241,679.5993 690.6699,679.8685 680.6161,680.1284 670.5625,680.3792 660.5093,680.6209 650.4564,680.8534 640.4037,681.0767 630.3514,681.2909 620.2993,681.4959 610.2474,681.6918 600.1958,681.8785 590.1444,682.056 580.0932,682.2244 570.0422,682.3837 559.9915,682.5338 549.9409,682.6747 539.8904,682.8066 529.8402,682.9292 519.7901,683.0428 509.7401,683.1471 499.6902,683.2424 489.6405,683.3285 479.5909,683.4054 469.5413,683.4733 459.4918,683.5319 449.4424,683.5815 439.3931,683.6219 429.3438,683.6531 419.2945,683.6752 409.2453,683.6882 399.1961,683.692 389.1468,683.6867 379.0976,683.6723 369.0483,683.6487 358.999,683.616 348.9497,683.5741 338.9002,683.5232 328.8508,683.463 318.8012,683.3937 308.7515,683.3153 298.7018,683.2278 288.6519,683.1311 278.6019,683.0252 268.5518,682.9102 258.5015,682.7861 248.451,682.6528 238.4004,682.5104 228.3496,682.3588 218.2986,682.1981 208.2474,682.0282 198.196,681.8492 188.1443,681.661 178.0924,681.4637 168.0403,681.2572 157.9879,681.0416 147.9352,680.8168 137.8822,680.5828 127.8289,680.3397 117.7753,680.0874 107.7214,679.826 97.6672,679.5554 87.6126,679.2756 77.5577,678.9867 67.5024,678.6886 63.4801,678.5667" stroke="silver" stroke-opacity="0.5" stroke-width="1" /><polyline fill="none" points="733.8328,591.1949 728.2468,591.3668 718.272,591.6666 708.2975,591.9571 698.3234,592.2384 688.3496,592.5104 678.3761,592.7732 668.403,593.0266 658.4301,593.2709 648.4575,593.5058 638.4852,593.7315 628.5131,593.948 618.5413,594.1552 608.5697,594.3531 598.5984,594.5418 588.6272,594.7213 578.6563,594.8915 568.6856,595.0524 558.715,595.2041 548.7447,595.3466 538.7745,595.4798 528.8044,595.6038 518.8345,595.7185 508.8647,595.824 498.895,595.9203 488.9255,596.0073 478.956,596.0851 468.9866,596.1536 459.0173,596.2129 449.0481,596.263 439.0789,596.3038 429.1098,596.3354 419.1406,596.3578 409.1716,596.3709 399.2025,596.3747 389.2334,596.3694 379.2643,596.3548 369.2952,596.331 359.326,596.2979 349.3568,596.2556 339.3876,596.2041 329.4183,596.1433 319.4489,596.0733 309.4794,595.994 299.5098,595.9055 289.5401,595.8078 279.5703,595.7008 269.6004,595.5846 259.6303,595.4591 249.6601,595.3244 239.6897,595.1805 229.7191,595.0273 219.7483,594.8649 209.7774,594.6932 199.8062,594.5123 189.8348,594.3221 179.8632,594.1227 169.8914,593.914 159.9193,593.696 149.9469,593.4689 139.9743,593.2324 130.0013,592.9867 120.0281,592.7317 110.0546,592.4675 100.0807,592.194 90.1066,591.9113 80.1321,591.6193 70.1572,591.318 66.1672,591.1949" stroke="silver" stroke-opacity="0.5" stroke-width="1" /><polyline fill="none" points="731.0968,503.8552 725.5566,504.0289 715.6637,504.3317 705.7712,504.6252 695.8789,504.9093 685.987,505.1841 676.0954,505.4495 666.204,505.7055 656.3129,505.9522 646.4222,506.1895 636.5316,506.4175 626.6413,506.6361 616.7513,506.8454 606.8614,507.0454 596.9718,507.236 587.0824,507.4172 577.1932,507.5891 567.3042,507.7517 557.4153,507.905 547.5266,508.0489 537.6381,508.1834 527.7497,508.3087 517.8614,508.4245 507.9733,508.5311 498.0853,508.6283 488.1974,508.7162 478.3095,508.7948 468.4218,508.864 458.5341,508.9239 448.6465,508.9745 438.7589,509.0157 428.8714,509.0476 418.9839,509.0702 409.0965,509.0835 399.209,509.0874 389.3215,509.082 379.4341,509.0672 369.5466,509.0432 359.659,509.0098 349.7715,508.967 339.8839,508.915 329.9962,508.8536 320.1084,508.7828 310.2206,508.7028 300.3326,508.6134 290.4446,508.5147 280.5564,508.4066 270.6682,508.2892 260.7797,508.1625 250.8912,508.0265 241.0025,507.8811 231.1136,507.7263 221.2245,507.5623 211.3353,507.3888 201.4459,507.2061 191.5562,507.014 181.6663,506.8126 171.7762,506.6018 161.8859,506.3816 151.9953,506.1522 142.1045,505.9133 132.2134,505.6652 122.322,505.4076 112.4303,505.1407 102.5383,504.8645 92.6461,504.5789 82.7535,504.2839 72.8605,503.9796 68.9032,503.8552" stroke="silver" stroke-opacity="0.5" stroke-width="1" /><polyline fill="none" points="728.3113,416.5346 722.8178,416.7099 713.0083,417.0156 703.1992,417.3119 693.3903,417.5987 683.5817,417.8761 673.7734,418.144 663.9653,418.4025 654.1576,418.6515 644.35,418.8911 634.5428,419.1213 624.7357,419.342 614.9289,419.5533 605.1223,419.7551 595.3159,419.9475 585.5097,420.1305 575.7036,420.3041 565.8978,420.4682 556.0921,420.6229 546.2866,420.7682 536.4812,420.904 526.676,421.0305 516.8708,421.1475 507.0658,421.255 497.2609,421.3532 487.4561,421.4419 477.6514,421.5212 467.8468,421.5911 458.0422,421.6516 448.2377,421.7027 438.4332,421.7443 428.6288,421.7765 418.8244,421.7993 409.02,421.8127 399.2157,421.8166 389.4113,421.8112 379.6069,421.7963 369.8025,421.772 359.9981,421.7383 350.1936,421.6951 340.3891,421.6426 330.5845,421.5806 320.7798,421.5092 310.9751,421.4284 301.1703,421.3381 291.3654,421.2385 281.5604,421.1294 271.7552,421.0109 261.9499,420.8829 252.1445,420.7456 242.339,420.5988 232.5333,420.4426 222.7274,420.277 212.9213,420.1019 203.1151,419.9174 193.3087,419.7235 183.502,419.5201 173.6952,419.3073 163.8881,419.0851 154.0808,418.8534 144.2732,418.6123 134.4654,418.3618 124.6573,418.1018 114.849,417.8323 105.0403,417.5535 95.2314,417.2651 85.4222,416.9674 75.6126,416.6601 71.6887,416.5346" stroke="silver" stroke-opacity="0.5" stroke-width="1" /><polyline fill="none" points="725.4761,329.2197 720.0301,329.3966 710.3055,329.7051 700.5812,330.004 690.8571,330.2934 681.1334,330.5732 671.4099,330.8436 661.6866,331.1044 651.9636,331.3556 642.2409,331.5974 632.5183,331.8296 622.796,332.0523 613.0739,332.2655 603.352,332.4692 593.6303,332.6633 583.9088,332.8479 574.1875,333.0231 564.4663,333.1887 554.7452,333.3448 545.0244,333.4913 535.3036,333.6284 525.583,333.756 515.8625,333.874 506.1421,333.9826 496.4218,334.0816 486.7016,334.1711 476.9815,334.2512 467.2615,334.3217 457.5415,334.3827 447.8215,334.4342 438.1017,334.4762 428.3818,334.5087 418.662,334.5317 408.9422,334.5452 399.2224,334.5492 389.5026,334.5437 379.7828,334.5287 370.063,334.5041 360.3432,334.4701 350.6233,334.4266 340.9033,334.3736 331.1833,334.311 321.4633,334.239 311.7432,334.1574 302.0229,334.0664 292.3026,333.9658 282.5822,333.8558 272.8617,333.7362 263.1411,333.6071 253.4203,333.4685 243.6994,333.3204 233.9784,333.1628 224.2571,332.9957 214.5358,332.819 204.8142,332.6329 195.0925,332.4372 185.3705,332.232 175.6484,332.0173 165.9261,331.7931 156.2035,331.5593 146.4807,331.3161 136.7577,331.0633 127.0344,330.801 117.3108,330.5291 107.587,330.2477 97.8629,329.9568 88.1386,329.6564 78.4139,329.3464 74.5239,329.2197" stroke="silver" stroke-opacity="0.5" stroke-width="1" /><polyline fill="none" points="722.5906,241.8973 717.193,242.0757 707.5548,242.3868 697.9168,242.6882 688.2791,242.98 678.6417,243.2622 669.0045,243.5349 659.3675,243.7979 649.7308,244.0513 640.0943,244.295 630.458,244.5292 620.822,244.7538 611.1861,244.9688 601.5504,245.1742 591.9149,245.37 582.2795,245.5562 572.6444,245.7328 563.0093,245.8998 553.3745,246.0572 543.7397,246.205 534.1051,246.3432 524.4706,246.4719 514.8363,246.5909 505.202,246.7004 495.5678,246.8002 485.9337,246.8905 476.2997,246.9712 466.6658,247.0423 457.0319,247.1039 447.398,247.1558 437.7642,247.1982 428.1305,247.231 418.4967,247.2542 408.863,247.2678 399.2293,247.2718 389.5956,247.2662 379.9619,247.2511 370.3281,247.2264 360.6944,247.192 351.0606,247.1482 341.4267,247.0947 331.7928,247.0316 322.1589,246.959 312.5248,246.8767 302.8907,246.7849 293.2565,246.6835 283.6222,246.5725 273.9878,246.4519 264.3533,246.3217 254.7187,246.182 245.084,246.0326 235.4491,245.8737 225.814,245.7051 216.1788,245.527 206.5434,245.3393 196.9079,245.142 187.2722,244.935 177.6363,244.7185 168.0002,244.4924 158.3639,244.2567 148.7273,244.0114 139.0906,243.7564 129.4536,243.4919 119.8163,243.2177 110.1789,242.934 100.5411,242.6406 90.9031,242.3376 81.2648,242.025 77.4094,241.8973" stroke="silver" stroke-opacity="0.5" stroke-width="1" /><polyline fill="none" points="719.6544,154.5541 714.3061,154.7339 704.7557,155.0474 695.2056,155.3513 685.6558,155.6454 676.1062,155.9298 666.5568,156.2046 657.0077,156.4697 647.4587,156.7251 637.91,156.9708 628.3615,157.2068 618.8132,157.4332 609.265,157.6499 599.7171,157.8569 590.1693,158.0542 580.6216,158.2419 571.0742,158.4199 561.5268,158.5882 551.9796,158.7469 542.4325,158.8959 532.8856,159.0352 523.3387,159.1649 513.792,159.2848 504.2454,159.3952 494.6988,159.4958 485.1523,159.5868 475.6059,159.6682 466.0596,159.7399 456.5133,159.8019 446.9671,159.8542 437.4209,159.8969 427.8747,159.93 418.3286,159.9533 408.7824,159.9671 399.2363,159.9711 389.6902,159.9655 380.1441,159.9503 370.5979,159.9253 361.0517,159.8907 351.5055,159.8465 341.9593,159.7926 332.413,159.729 322.8667,159.6558 313.3202,159.5729 303.7738,159.4804 294.2272,159.3782 284.6805,159.2663 275.1338,159.1448 265.5869,159.0136 256.0399,158.8727 246.4928,158.7221 236.9456,158.5619 227.3983,158.3921 217.8507,158.2125 208.3031,158.0233 198.7553,157.8244 189.2073,157.6159 179.6591,157.3976 170.1107,157.1697 160.5622,156.9321 151.0134,156.6849 141.4645,156.4279 131.9153,156.1613 122.3659,155.885 112.8162,155.599 103.2664,155.3033 93.7162,154.9979 84.1658,154.6828 80.3456,154.5541" stroke="silver" stroke-opacity="0.5" stroke-width="1" /><polyline fill="none" points="716.667,67.1768 711.3688,67.358 701.9079,67.6738 692.4472,67.9799 682.9867,68.2762 673.5265,68.5627 664.0665,68.8395 654.6067,69.1066 645.1471,69.3638 635.6876,69.6114 626.2284,69.8492 616.7694,70.0772 607.3105,70.2955 597.8518,70.504 588.3932,70.7028 578.9348,70.8919 569.4765,71.0712 560.0184,71.2408 550.5604,71.4006 541.1025,71.5507 531.6447,71.691 522.1871,71.8216 512.7295,71.9425 503.272,72.0537 493.8146,72.1551 484.3573,72.2467 474.9,72.3287 465.4428,72.4009 455.9857,72.4634 446.5286,72.5161 437.0715,72.5591 427.6145,72.5924 418.1574,72.616 408.7004,72.6298 399.2434,72.6339 389.7864,72.6282 380.3294,72.6128 370.8724,72.5877 361.4154,72.5529 351.9583,72.5083 342.5012,72.454 333.044,72.39 323.5868,72.3162 314.1295,72.2327 304.6722,72.1395 295.2148,72.0365 285.7573,71.9238 276.2997,71.8014 266.842,71.6692 257.3842,71.5273 247.9263,71.3757 238.4683,71.2143 229.0101,71.0431 219.5519,70.8623 210.0934,70.6717 200.6348,70.4713 191.1761,70.2612 181.7172,70.0414 172.2581,69.8118 162.7989,69.5724 153.3394,69.3233 143.8798,69.0645 134.4199,68.7959 124.9599,68.5175 115.4996,68.2294 106.0391,67.9316 96.5784,67.6239 87.1174,67.3065 83.333,67.1768" stroke="silver" stroke-opacity="0.5" stroke-width="1" /><circle cx="728.3947" cy="456.0397" fill="black" r="0.738" stroke="none" /><circle cx="719.9539" cy="662.6172" fill="black" r="0.738" stroke="none" /><circle cx="713.8817" cy="537.5989" fill="black" r="0.738" stroke="none" /><circle cx="708.9847" cy="514.2321" fill="black" r="0.738" stroke="none" /><circle cx="706.4257" cy="604.7737" fill="black" r="1.17" stroke="none" /><circle cx="695.7369" cy="244.5905" fill="black" r="0.738" stroke="none" /><circle cx="697.7553" cy="411.0934" fill="black" r="0.738" stroke="none" /><circle cx="696.3324" cy="457.0098" fill="black" r="0.738" stroke="none" /><circle cx="691.1178" cy="445.4496" fill="black" r="0.738" stroke="none" /><circle cx="680.7302" cy="631.2571" fill="black" r="0.738" stroke="none" /><circle cx="666.2839" cy="279.5224" fill="black" r="0.738" stroke="none" /><circle cx="670.9535" cy="637.6233" fill="black" r="0.738" stroke="none" /><circle cx="667.5147" cy="684.1253" fill="black" r="0.738" stroke="none" /><circle cx="653.8656" cy="167.5677" fill="black" r="0.738" stroke="none" /><circle cx="657.7736" cy="566.0247" fill="black" r="0.738" stroke="none" /><circle cx="655.186" cy="505.1935" fill="black" r="0.738" stroke="none" /><circle cx="652.1339" cy="390.9248" fill="black" r="0.738" stroke="none" /><circle cx="652.6492" cy="558.1093" fill="black" r="0.738" stroke="none" /><circle cx="644.1344" cy="345.352" fill="black" r="0.738" stroke="none" /><circle cx="637.5892" cy="205.3902" fill="black" r="0.738" stroke="none" /><circle cx="632.5808" cy="301.4325" fill="black" r="0.738" stroke="none" /><circle cx="635.7504" cy="444.3344" fill="black" r="0.738" stroke="none" /><circle cx="626.527" cy="205.3963" fill="black" r="0.738" stroke="none" /><circle cx="636.4849" cy="655.9905" fill="black" r="0.738" stroke="none" /><circle cx="623.4034" cy="219.7102" fill="black" r="0.738" stroke="none" /><circle cx="624.1242" cy="332.2845" fill="black" r="0.738" stroke="none" /><circle cx="617.7008" cy="139.1078" fill="black" r="0.738" stroke="none" /><circle cx="606.0822" cy="273.4644" fill="black" r="0.738" stroke="none" /><circle cx="595.1449" cy="195.6929" fill="black" r="0.738" stroke="none" /><circle cx="594.6943" cy="276.4054" fill="black" r="0.738" stroke="none" /><circle cx="600.7211" cy="724.4309" fill="black" r="0.738" stroke="none" /><circle cx="592.6487" cy="574.2992" fill="black" r="0.738" stroke="none" /><circle cx="590.8894" cy="573.894" fill="black" r="0.738" stroke="none" /><circle cx="584.5759" cy="386.0963" fill="black" r="0.738" stroke="none" /><circle cx="576.5912" cy="649.5184" fill="black" r="0.738" stroke="none" /><circle cx="565.1755" cy="88.7156" fill="black" r="0.738" stroke="none" /><circle cx="568.4743" cy="367.9566" fill="black" r="0.738" stroke="none" /><circle cx="561.0718" cy="194.8443" fill="black" r="0.738" stroke="none" /><circle cx="565.8695" cy="666.9833" fill="black" r="0.738" stroke="none" /><circle cx="560.1961" cy="724.7346" fill="black" r="0.738" stroke="none" /><circle cx="556.6632" cy="726.0955" fill="black" r="0.738" stroke="none" /><circle cx="549.6543" cy="249.7827" fill="black" r="0.738" stroke="none" /><circle cx="552.2218" cy="564.9966" fill="black" r="0.936" stroke="none" /><circle cx="543.6882" cy="431.2804" fill="black" r="0.738" stroke="none" /><circle cx="539.2404" cy="410.3918" fill="black" r="0.738" stroke="none" /><circle cx="534.1089" cy="302.9164" fill="black" r="0.738" stroke="none" /><circle cx="530.7583" cy="94.5967" fill="black" r="0.738" stroke="none" /><circle cx="530.1195" cy="294.4147" fill="black" r="0.738" stroke="none" /><circle cx="534.4228" cy="709.4335" fill="black" r="0.738" stroke="none" /><circle cx="518.0792" cy="203.1578" fill="black" r="0.738" stroke="none" /><circle cx="518.6289" cy="397.0366" fill="black" r="0.738" stroke="none" /><circle cx="518.0211" cy="515.5809" fill="black" r="0.738" stroke="none" /><circle cx="511.2874" cy="173.637" fill="black" r="0.738" stroke="none" /><circle cx="509.1493" cy="289.5198" fill="black" r="0.738" stroke="none" /><circle cx="505.1358" cy="525.4074" fill="black" r="0.738" stroke="none" /><circle cx="506.2975" cy="726.8616" fill="black" r="0.738" stroke="none" /><circle cx="498.9281" cy="147.6625" fill="black" r="0.738" stroke="none" /><circle cx="501.6948" cy="700.1707" fill="black" r="0.738" stroke="none" /><circle cx="494.8937" cy="202.0191" fill="black" r="0.738" stroke="none" /><circle cx="496.1151" cy="358.7851" fill="black" r="0.738" stroke="none" /><circle cx="494.7951" cy="592.2902" fill="black" r="0.738" stroke="none" /><circle cx="486.9781" cy="601.7857" fill="black" r="0.738" stroke="none" /><circle cx="483.7617" cy="401.4868" fill="black" r="0.738" stroke="none" /><circle cx="479.6834" cy="91.7705" fill="black" r="0.738" stroke="none" /><circle cx="472.471" cy="179.1652" fill="black" r="0.738" stroke="none" /><circle cx="473.4138" cy="432.2" fill="black" r="0.738" stroke="none" /><circle cx="474.1113" cy="705.6302" fill="black" r="0.738" stroke="none" /><circle cx="473.7815" cy="704.4968" fill="black" r="0.738" stroke="none" /><circle cx="468.5365" cy="249.9972" fill="black" r="0.738" stroke="none" /><circle cx="468.959" cy="542.6403" fill="black" r="1.17" stroke="none" /><circle cx="460.8686" cy="502.2773" fill="black" r="0.738" stroke="none" /><circle cx="454.8578" cy="398.4553" fill="black" r="0.738" stroke="none" /><circle cx="451.563" cy="218.9384" fill="black" r="0.738" stroke="none" /><circle cx="451.6251" cy="471.6056" fill="black" r="0.738" stroke="none" /><circle cx="450.0838" cy="351.3539" fill="black" r="0.738" stroke="none" /><circle cx="449.3037" cy="724.8988" fill="black" r="0.738" stroke="none" /><circle cx="441.4308" cy="116.9145" fill="black" r="0.738" stroke="none" /><circle cx="442.8947" cy="633.483" fill="black" r="0.738" stroke="none" /><circle cx="440.7977" cy="309.4179" fill="black" r="0.738" stroke="none" /><circle cx="438.9681" cy="127.9294" fill="black" r="0.738" stroke="none" /><circle cx="434.2883" cy="138.602" fill="black" r="0.738" stroke="none" /><circle cx="431.3585" cy="574.4174" fill="black" r="0.738" stroke="none" /><circle cx="430.0345" cy="584.8094" fill="black" r="0.738" stroke="none" /><circle cx="420.195" cy="362.0186" fill="black" r="0.738" stroke="none" /><circle cx="413.738" cy="550.4498" fill="black" r="0.738" stroke="none" /><circle cx="408.8687" cy="428.1833" fill="black" r="0.738" stroke="none" /><circle cx="403.6648" cy="157.5256" fill="black" r="0.738" stroke="none" /><circle cx="396.3028" cy="241.5974" fill="black" r="0.936" stroke="none" /><circle cx="388.7805" cy="424.7776" fill="black" r="0.738" stroke="none" /><circle cx="387.604" cy="424.5144" fill="black" r="0.738" stroke="none" /><circle cx="387.0592" cy="185.1954" fill="black" r="0.738" stroke="none" /><circle cx="385.5065" cy="640.0192" fill="black" r="0.738" stroke="none" /><circle cx="367.1817" cy="716.835" fill="black" r="0.738" stroke="none" /><circle cx="363.7741" cy="578.0684" fill="black" r="0.738" stroke="none" /><circle cx="361.3815" cy="229.562" fill="black" r="0.738" stroke="none" /><circle cx="361.2676" cy="200.6658" fill="black" r="0.738" stroke="none" /><circle cx="357.7394" cy="655.7523" fill="black" r="0.738" stroke="none" /><circle cx="358.7311" cy="310.8123" fill="black" r="0.738" stroke="none" /><circle cx="350.9753" cy="294.8923" fill="black" r="0.738" stroke="none" /><circle cx="350.5979" cy="100.5423" fill="black" r="0.738" stroke="none" /><circle cx="344.0179" cy="564.8888" fill="black" r="0.738" stroke="none" /><circle cx="336.0055" cy="642.2861" fill="black" r="0.738" stroke="none" /><circle cx="333.6789" cy="709.6977" fill="black" r="0.936" stroke="none" /><circle cx="327.0056" cy="484.0452" fill="black" r="0.738" stroke="none" /><circle cx="328.1354" cy="283.1429" fill="black" r="0.738" stroke="none" /><circle cx="323.8866" cy="72.6682" fill="black" r="0.738" stroke="none" /><circle cx="322.7739" cy="161.6635" fill="black" r="0.738" stroke="none" /><circle cx="317.8731" cy="625.0495" fill="black" r="0.738" stroke="none" /><circle cx="313.9322" cy="461.776" fill="black" r="0.738" stroke="none" /><circle cx="312.5704" cy="540.147" fill="black" r="0.738" stroke="none" /><circle cx="314.4848" cy="157.4877" fill="black" r="0.738" stroke="none" /><circle cx="310.2889" cy="230.3566" fill="black" r="0.738" stroke="none" /><circle cx="293.715" cy="725.5511" fill="black" r="0.738" stroke="none" /><circle cx="295.0002" cy="314.268" fill="black" r="0.738" stroke="none" /><circle cx="292.3119" cy="398.5553" fill="black" r="0.738" stroke="none" /><circle cx="291.593" cy="116.463" fill="black" r="0.738" stroke="none" /><circle cx="285.9644" cy="317.0485" fill="black" r="0.738" stroke="none" /><circle cx="282.0202" cy="251.5295" fill="black" r="0.738" stroke="none" /><circle cx="276.8555" cy="447.0852" fill="black" r="0.936" stroke="none" /><circle cx="272.1752" cy="724.5395" fill="black" r="0.738" stroke="none" /><circle cx="270.8674" cy="192.0119" fill="black" r="0.738" stroke="none" /><circle cx="251.8629" cy="375.6972" fill="black" r="0.738" stroke="none" /><circle cx="245.1541" cy="699.9064" fill="black" r="0.738" stroke="none" /><circle cx="240.739" cy="643.3205" fill="black" r="0.738" stroke="none" /><circle cx="246.968" cy="83.5069" fill="black" r="0.738" stroke="none" /><circle cx="238.9606" cy="579.9742" fill="black" r="0.738" stroke="none" /><circle cx="238.6359" cy="492.0421" fill="black" r="0.738" stroke="none" /><circle cx="232.8457" cy="725.769" fill="black" r="0.738" stroke="none" /><circle cx="240.0567" cy="256.342" fill="black" r="0.738" stroke="none" /><circle cx="235.4713" cy="249.105" fill="black" r="0.738" stroke="none" /><circle cx="232.6269" cy="334.8863" fill="black" r="0.738" stroke="none" /><circle cx="220.2647" cy="283.2411" fill="black" r="0.738" stroke="none" /><circle cx="219.2833" cy="151.251" fill="black" r="0.738" stroke="none" /><circle cx="216.9528" cy="133.7319" fill="black" r="0.738" stroke="none" /><circle cx="205.636" cy="394.8189" fill="black" r="0.738" stroke="none" /><circle cx="197.1029" cy="486.339" fill="black" r="0.738" stroke="none" /><circle cx="188.4962" cy="613.7768" fill="black" r="0.738" stroke="none" /><circle cx="188.4723" cy="614.9994" fill="black" r="0.738" stroke="none" /><circle cx="191.4406" cy="321.0959" fill="black" r="0.738" stroke="none" /><circle cx="185.636" cy="533.4451" fill="black" r="0.738" stroke="none" /><circle cx="186.611" cy="391.1175" fill="black" r="0.738" stroke="none" /><circle cx="176.7142" cy="701.9754" fill="black" r="0.738" stroke="none" /><circle cx="174.6749" cy="533.9157" fill="black" r="0.738" stroke="none" /><circle cx="173.8241" cy="503.4146" fill="black" r="0.738" stroke="none" /><circle cx="175.0895" cy="363.7947" fill="black" r="0.738" stroke="none" /><circle cx="165.2656" cy="652.9695" fill="black" r="0.738" stroke="none" /><circle cx="164.3097" cy="441.7156" fill="black" r="0.738" stroke="none" /><circle cx="161.6251" cy="503.93" fill="black" r="0.738" stroke="none" /><circle cx="157.6298" cy="631.8294" fill="black" r="0.738" stroke="none" /><circle cx="152.052" cy="651.7169" fill="black" r="0.738" stroke="none" /><circle cx="160.786" cy="227.4551" fill="black" r="0.738" stroke="none" /><circle cx="156.1319" cy="274.8652" fill="black" r="0.738" stroke="none" /><circle cx="156.245" cy="261.065" fill="black" r="0.738" stroke="none" /><circle cx="156.4886" cy="187.59" fill="black" r="0.936" stroke="none" /><circle cx="150.2499" cy="323.8118" fill="black" r="0.738" stroke="none" /><circle cx="142.6232" cy="579.3154" fill="black" r="0.738" stroke="none" /><circle cx="147.3555" cy="288.0961" fill="black" r="0.738" stroke="none" /><circle cx="140.1919" cy="446.4626" fill="black" r="0.738" stroke="none" /><circle cx="136.8669" cy="215.034" fill="black" r="0.738" stroke="none" /><circle cx="124.3006" cy="487.4614" fill="black" r="0.738" stroke="none" /><circle cx="135.6469" cy="76.1777" fill="black" r="0.738" stroke="none" /><circle cx="101.9745" cy="604.5717" fill="black" r="0.738" stroke="none" /><circle cx="107.4829" cy="349.7308" fill="black" r="0.738" stroke="none" /><circle cx="90.7779" cy="707.2641" fill="black" r="0.738" stroke="none" /><circle cx="92.7205" cy="545.5715" fill="black" r="0.738" stroke="none" /><circle cx="102.3032" cy="142.244" fill="black" r="0.738" stroke="none" /><circle cx="100.8374" cy="183.8176" fill="black" r="0.738" stroke="none" /><circle cx="91.8792" cy="424.243" fill="black" r="0.936" stroke="none" /><circle cx="88.1759" cy="286.6556" fill="black" r="1.17" stroke="none" /><circle cx="88.3125" cy="212.7056" fill="black" r="0.738" stroke="none" /><circle cx="73.7672" cy="630.6003" fill="black" r="0.738" stroke="none" /><circle cx="71.6839" cy="511.1981" fill="black" r="0.738" stroke="none" /><circle cx="13.77" cy="786.23" fill="black" r="4.59" stroke="none" /><circle cx="13.77" cy="786.23" fill="black" r="4.59" stroke="none" /><text fill="black" font-family="monospace" font-size="12" x="10.77" y="775.64">1</text><circle cx="37.77" cy="786.23" fill="black" r="3.654" stroke="none" /><circle cx="37.77" cy="786.23" fill="black" r="3.654" stroke="none" /><text fill="black" font-family="monospace" font-size="12" x="34.769999999999996" y="775.64">2</text><circle cx="61.77" cy="786.23" fill="black" r="2.916" stroke="none" /><circle cx="61.77" cy="786.23" fill="black" r="2.916" stroke="none" /><text fill="black" font-family="monospace" font-size="12" x="58.769999999999996" y="775.64">3</text><circle cx="85.77" cy="786.23" fill="black" r="2.322" stroke="none" /><circle cx="85.77" cy="786.23" fill="black" r="2.322" stroke="none" /><text fill="black" font-family="monospace" font-size="12" x="82.77" y="775.64">4</text><circle cx="109.77" cy="786.23" fill="black" r="1.854" stroke="none" /><circle cx="109.77" cy="786.23" fill="black" r="1.854" stroke="none" /><text fill="black" font-family="monospace" font-size="12" x="106.77" y="775.64">5</text><circle cx="133.77" cy="786.23" fill="black" r="1.476" stroke="none" /><circle cx="133.77" cy="786.23" fill="black" r="1.476" stroke="none" /><text fill="black" font-family="monospace" font-size="12" x="130.77" y="775.64">6</text><circle cx="157.77" cy="786.23" fill="black" r="1.17" stroke="none" /><circle cx="157.77" cy="786.23" fill="black" r="1.17" stroke="none" /><text fill="black" font-family="monospace" font-size="12" x="154.77" y="775.64">7</text><circle cx="181.77" cy="786.23" fill="black" r="0.936" stroke="none" /><circle cx="181.77" cy="786.23" fill="black" r="0.936" stroke="none" /><text fill="black" font-family="monospace" font-size="12" x="178.77" y="775.64">8</text><circle cx="205.77" cy="786.23" fill="black" r="0.738" stroke="none" /><circle cx="205.77" cy="786.23" fill="black" r="0.738" stroke="none" /><text fill="black" font-family="monospace" font-size="12" x="202.77" y="775.64">9</text><text fill="gray" fill-opacity="0.5" font-family="monospace" font-size="12" x="712.0023221784195" y="723.019061673923">13h25m</text><text fill="gray" fill-opacity="0.5" font-family="monospace" font-size="12" x="611.0748120629014" y="725.376781015462">13h30m</text><text fill="gray" fill-opacity="0.5" font-family="monospace" font-size="12" x="510.1718344152825" y="726.8241711249559">13h35m</text><text fill="gray" fill-opacity="0.5" font-family="monospace" font-size="12" x="409.2816632442908" y="727.3622578078862">13h40m</text><text fill="gray" fill-opacity="0.5" font-family="monospace" font-size="12" x="308.39257103250463" y="726.9914223402782">13h45m</text><text fill="gray" fill-opacity="0.5" font-family="monospace" font-size="12" x="207.4928301343547" y="725.7114019612247">13h50m</text><text fill="gray" fill-opacity="0.5" font-family="monospace" font-size="12" x="106.57071417195107" y="723.5212895334612">13h55m</text><text fill="gray" fill-opacity="0.5" font-family="monospace" font-size="12" x="63.480125895680146" y="678.5667478452463">+23°</text><text fill="gray" fill-opacity="0.5" font-family="monospace" font-size="12" x="66.16717481135521" y="591.1948569614149">+24°</text><text fill="gray" fill-opacity="0.5" font-family="monospace" font-size="12" x="68.90324031218302" y="503.8552334814606">+25°</text><text fill="gray" fill-opacity="0.5" font-family="monospace" font-size="12" x="71.68869682781576" y="416.5346055115809">+26°</text><text fill="gray" fill-opacity="0.5" font-family="monospace" font-size="12" x="74.52394885402254" y="329.2197126824234">+27°</text><text fill="gray" fill-opacity="0.5" font-family="monospace" font-size="12" x="77.40943118114279" y="241.89729810558998">+28°</text><text fill="gray" fill-opacity="0.5" font-family="monospace" font-size="12" x="80.34560916169113" y="154.5541003346308">+29°</text><text fill="gray" fill-opacity="0.5" font-family="monospace" font-size="12" x="83.33297901746278" y="67.17684532016995">+30°</text><text fill="black" font-family="monospace" font-size="12" x="12" y="48">&gt;&gt; No.573 13h24m 13h57m +22.5°+30.0°</text><a target="_self" xlink:href="hip036.svg"><text fill="black" font-family="monospace" font-size="12" x="12" y="36">&gt; No.36 12h00m 15h00m +22.5°+52.5°</text></a><a target="_self" xlink:href="hip002.svg"><text fill="black" font-family="monospace" font-size="12" x="12" y="24">No.2 00h 24h +0.0°+90.0°</text></a><polyline fill="none" points="716.667,67.1768 711.3688,67.358 701.9079,67.6738 692.4472,67.9799 682.9867,68.2762 673.5265,68.5627 664.0665,68.8395 654.6067,69.1066 645.1471,69.3638 635.6876,69.6114 626.2284,69.8492 616.7694,70.0772 607.3105,70.2955 597.8518,70.504 588.3932,70.7028 578.9348,70.8919 569.4765,71.0712 560.0184,71.2408 550.5604,71.4006 541.1025,71.5507 531.6447,71.691 522.1871,71.8216 512.7295,71.9425 503.272,72.0537 493.8146,72.1551 484.3573,72.2467 474.9,72.3287 465.4428,72.4009 455.9857,72.4634 446.5286,72.5161 437.0715,72.5591 427.6145,72.5924 418.1574,72.616 408.7004,72.6298 399.2434,72.6339 389.7864,72.6282 380.3294,72.6128 370.8724,72.5877 361.4154,72.5529 351.9583,72.5083 342.5012,72.454 333.044,72.39 323.5868,72.3162 314.1295,72.2327 304.6722,72.1395 295.2148,72.0365 285.7573,71.9238 276.2997,71.8014 266.842,71.6692 257.3842,71.5273 247.9263,71.3757 238.4683,71.2143 229.0101,71.0431 219.5519,70.8623 210.0934,70.6717 200.6348,70.4713 191.1761,70.2612 181.7172,70.0414 172.2581,69.8118 162.7989,69.5724 153.3394,69.3233 143.8798,69.0645 134.4199,68.7959 124.9599,68.5175 115.4996,68.2294 106.0391,67.9316 96.5784,67.6239 87.1174,67.3065 83.333,67.1768" stroke="black" stroke-opacity="0.5" stroke-width="1" /><polyline fill="none" points="737.8451,722.2689 737.515,711.3422 737.184,700.4163 736.8523,689.4912 736.5199,678.5667 736.1867,667.643 735.8527,656.72 735.518,645.7977 735.1825,634.8759 734.8462,623.9548 734.5092,613.0343 734.1714,602.1143 733.8328,591.1949 733.4935,580.2759 733.1534,569.3574 732.8126,558.4394 732.4709,547.5218 732.1286,536.6047 731.7854,525.6878 731.4415,514.7714 731.0968,503.8552 730.7513,492.9394 730.405,482.0238 730.058,471.1085 729.7102,460.1934 729.3617,449.2785 729.0123,438.3637 728.6622,427.4491 728.3113,416.5346 727.9596,405.6202 727.6072,394.7059 727.2539,383.7916 726.8999,372.8773 726.5451,361.963 726.1896,351.0486 725.8332,340.1342 725.4761,329.2197 725.1181,318.3051 724.7594,307.3903 724.3999,296.4754 724.0396,285.5603 723.6785,274.6449 723.3167,263.7293 722.954,252.8135 722.5906,241.8973 722.2263,230.9808 721.8613,220.064 721.4955,209.1467 721.1288,198.2291 720.7614,187.3111 720.3932,176.3926 720.0242,165.4736 719.6544,154.5541 719.2838,143.6341 718.9124,132.7135 718.5402,121.7923 718.1671,110.8706 717.7933,99.9482 717.4187,89.0251 717.0433,78.1013 716.667,67.1768" stroke="black" stroke-opacity="0.5" stroke-width="1" /><polyline fill="none" points="737.8451,722.2689 732.1918,722.4381 722.0969,722.7332 712.0023,723.0191 701.9081,723.2958 691.8143,723.5635 681.7208,723.822 671.6276,724.0715 661.5348,724.3118 651.4422,724.543 641.35,724.7651 631.258,724.9781 621.1663,725.182 611.0748,725.3768 600.9836,725.5625 590.8926,725.739 580.8019,725.9065 570.7113,726.0649 560.621,726.2142 550.5308,726.3544 540.4408,726.4855 530.351,726.6075 520.2614,726.7204 510.1718,726.8242 500.0824,726.9189 489.9932,727.0045 479.904,727.081 469.8149,727.1485 459.7259,727.2068 449.6369,727.2561 439.5481,727.2963 429.4592,727.3274 419.3704,727.3494 409.2817,727.3623 399.1929,727.3661 389.1041,727.3608 379.0154,727.3464 368.9266,727.323 358.8377,727.2905 348.7488,727.2488 338.6599,727.1981 328.5709,727.1383 318.4818,727.0694 308.3926,726.9914 298.3033,726.9043 288.2139,726.8082 278.1243,726.7029 268.0346,726.5886 257.9448,726.4651 247.8548,726.3326 237.7646,726.1909 227.6742,726.0402 217.5836,725.8803 207.4928,725.7114 197.4018,725.5334 187.3106,725.3462 177.2191,725.15 167.1273,724.9446 157.0353,724.7302 146.943,724.5066 136.8504,724.274 126.7575,724.0322 116.6643,723.7813 106.5707,723.5213 96.4768,723.2522 86.3826,722.9739 76.288,722.6866 66.193,722.3901 62.1549,722.2689" stroke="black" stroke-opacity="0.5" stroke-width="1" /><polyline fill="none" points="62.1549,722.2689 62.485,711.3422 62.816,700.4163 63.1477,689.4912 63.4801,678.5667 63.8133,667.643 64.1473,656.72 64.482,645.7977 64.8175,634.8759 65.1538,623.9548 65.4908,613.0343 65.8286,602.1143 66.1672,591.1949 66.5065,580.2759 66.8466,569.3574 67.1874,558.4394 67.5291,547.5218 67.8714,536.6047 68.2146,525.6878 68.5585,514.7714 68.9032,503.8552 69.2487,492.9394 69.595,482.0238 69.942,471.1085 70.2898,460.1934 70.6383,449.2785 70.9877,438.3637 71.3378,427.4491 71.6887,416.5346 72.0404,405.6202 72.3928,394.7059 72.7461,383.7916 73.1001,372.8773 73.4549,361.963 73.8104,351.0486 74.1668,340.1342 74.5239,329.2197 74.8819,318.3051 75.2406,307.3903 75.6001,296.4754 75.9604,285.5603 76.3215,274.6449 76.6833,263.7293 77.046,252.8135 77.4094,241.8973 77.7737,230.9808 78.1387,220.064 78.5045,209.1467 78.8712,198.2291 79.2386,187.3111 79.6068,176.3926 79.9758,165.4736 80.3456,154.5541 80.7162,143.6341 81.0876,132.7135 81.4598,121.7923 81.8329,110.8706 82.2067,99.9482 82.5813,89.0251 82.9567,78.1013 83.333,67.1768" stroke="black" stroke-opacity="0.5" stroke-width="1" /></svg>