<?xml version="1.0" encoding="utf-8" ?>
<svg baseProfile="tiny" height="800" version="1.2" width="800" xmlns="http://www.w3.org/2000/svg" xmlns:ev="http://www.w3.org/2001/xml-events" xmlns:xlink="http://www.w3.org/1999/xlink"><defs /><rect fill="none" height="800" stroke="black" stroke-width="2" width="800" x="0" y="0" /><polyline fill="none" points="721.6931,722.7448 721.3787,711.8187 721.0636,700.8935 720.7478,689.969 720.4313,679.0452 720.1141,668.1221 719.7961,657.1998 719.4774,646.2781 719.158,635.357 718.8378,624.4365 718.5169,613.5166 718.1953,602.5972 717.873,591.6784 717.5499,580.7601 717.2261,569.8422 716.9016,558.9248 716.5764,548.0079 716.2504,537.0913 715.9236,526.1751 715.5962,515.2592 715.268,504.3437 714.9391,493.4284 714.6094,482.5134 714.279,471.5987 713.9479,460.6841 713.616,449.7698 713.2834,438.8556 712.9501,427.9416 712.616,417.0277 712.2811,406.1138 711.9456,395.2001 711.6093,384.2863 711.2722,373.3726 710.9344,362.4588 710.5959,351.545 710.2566,340.6312 709.9165,329.7172 709.5757,318.8031 709.2342,307.8889 708.8919,296.9745 708.5489,286.0599 708.2051,275.1451 707.8606,264.23 707.5153,253.3146 707.1693,242.399 706.8225,231.483 706.4749,220.5667 706.1266,209.65 705.7776,198.7328 705.4277,187.8153 705.0772,176.8973 704.7258,165.9788 704.3737,155.0598 704.0209,144.1402 703.6672,133.2201 703.3129,122.2994 702.9577,111.3781 702.6018,100.4562 702.2451,89.5336 701.8877,78.6103 701.5294,67.6862" stroke="silver" stroke-opacity="0.5" stroke-width="1" /><polyline fill="none" points="620.7626,725.19 620.547,714.2673 620.3309,703.3454 620.1143,692.4243 619.8972,681.5039 619.6796,670.5842 619.4615,659.6651 619.2429,648.7467 619.0238,637.8289 618.8042,626.9117 618.5841,615.995 618.3635,605.0789 618.1424,594.1633 617.9208,583.2482 617.6988,572.3335 617.4762,561.4192 617.2531,550.5054 617.0295,539.5919 616.8054,528.6788 616.5808,517.7661 616.3557,506.8536 616.1301,495.9414 615.9039,485.0294 615.6773,474.1177 615.4502,463.2062 615.2226,452.2948 614.9944,441.3836 614.7658,430.4725 614.5366,419.5615 614.307,408.6506 614.0768,397.7397 613.8461,386.8288 613.6149,375.918 613.3832,365.0071 613.151,354.0961 612.9183,343.185 612.685,332.2738 612.4513,321.3625 612.217,310.451 611.9823,299.5393 611.747,288.6275 611.5112,277.7153 611.2748,266.8029 611.038,255.8902 610.8006,244.9772 610.5628,234.0638 610.3244,223.1501 610.0855,212.2359 609.846,201.3214 609.6061,190.4064 609.3656,179.4909 609.1246,168.5749 608.8831,157.6584 608.6411,146.7413 608.3985,135.8236 608.1554,124.9054 607.9118,113.9865 607.6677,103.0669 607.423,92.1467 607.1778,81.2257 606.9321,70.304" stroke="silver" stroke-opacity="0.5" stroke-width="1" /><polyline fill="none" points="519.8578,726.7247 519.7408,715.8042 519.6235,704.8844 519.5059,693.9654 519.3881,683.0471 519.27,672.1295 519.1516,661.2125 519.033,650.2962 518.914,639.3804 518.7949,628.4652 518.6754,617.5506 518.5557,606.6365 518.4357,595.7229 518.3154,584.8098 518.1949,573.8971 518.0741,562.9849 517.953,552.073 517.8316,541.1615 517.71,530.2504 517.5881,519.3395 517.4659,508.429 517.3435,497.5187 517.2207,486.6087 517.0977,475.6988 516.9745,464.7892 516.8509,453.8797 516.7271,442.9704 516.603,432.0611 516.4786,421.152 516.354,410.2428 516.2291,399.3338 516.1038,388.4247 515.9784,377.5156 515.8526,366.6065 515.7266,355.6973 515.6003,344.788 515.4737,333.8785 515.3468,322.969 515.2197,312.0592 515.0922,301.1492 514.9645,290.239 514.8365,279.3286 514.7083,268.4179 514.5797,257.5068 514.4509,246.5955 514.3218,235.6837 514.1924,224.7716 514.0627,213.8591 513.9328,202.9462 513.8025,192.0327 513.672,181.1188 513.5412,170.2044 513.4101,159.2894 513.2788,148.3739 513.1471,137.4578 513.0152,126.541 512.8829,115.6237 512.7504,104.7056 512.6176,93.7869 512.4846,82.8674 512.3512,71.9472" stroke="silver" stroke-opacity="0.5" stroke-width="1" /><polyline fill="none" points="418.9669,727.35 418.9484,716.4304 418.9298,705.5115 418.9112,694.5934 418.8926,683.6759 418.8739,672.7591 418.8552,661.843 418.8364,650.9275 418.8176,640.0126 418.7987,629.0983 418.7798,618.1845 418.7609,607.2712 418.7419,596.3585 418.7228,585.4461 418.7038,574.5343 418.6847,563.6228 418.6655,552.7118 418.6463,541.8011 418.6271,530.8907 418.6078,519.9807 418.5884,509.0709 418.5691,498.1614 418.5496,487.2522 418.5302,476.3431 418.5107,465.4342 418.4911,454.5255 418.4715,443.6169 418.4519,432.7084 418.4322,421.8 418.4125,410.8916 418.3927,399.9833 418.3729,389.075 418.3531,378.1666 418.3332,367.2582 418.3132,356.3497 418.2932,345.4411 418.2732,334.5324 418.2531,323.6235 418.233,312.7145 418.2129,301.8052 418.1927,290.8957 418.1724,279.986 418.1521,269.0759 418.1318,258.1656 418.1114,247.2549 418.091,236.3438 418.0705,225.4324 418.05,214.5205 418.0294,203.6082 418.0088,192.6954 417.9881,181.7822 417.9675,170.8684 417.9467,159.9541 417.9259,149.0392 417.9051,138.1237 417.8842,127.2076 417.8633,116.2908 417.8423,105.3733 417.8213,94.4552 417.8003,83.5363 417.7792,72.6167" stroke="silver" stroke-opacity="0.5" stroke-width="1" /><polyline fill="none" points="318.0782,727.0665 318.1582,716.1464 318.2383,705.2272 318.3187,694.3086 318.3992,683.3908 318.4799,672.4736 318.5608,661.5571 318.6419,650.6412 318.7232,639.7259 318.8046,628.8112 318.8863,617.8971 318.9681,606.9834 319.0501,596.0703 319.1323,585.1576 319.2147,574.2454 319.2973,563.3335 319.38,552.4221 319.463,541.5111 319.5461,530.6003 319.6294,519.6899 319.7129,508.7798 319.7966,497.87 319.8805,486.9603 319.9645,476.0509 320.0488,465.1417 320.1332,454.2326 320.2178,443.3237 320.3027,432.4149 320.3877,421.5061 320.4728,410.5974 320.5582,399.6888 320.6438,388.7801 320.7296,377.8714 320.8155,366.9627 320.9016,356.0539 320.988,345.145 321.0745,334.2359 321.1612,323.3267 321.2481,312.4173 321.3352,301.5078 321.4225,290.5979 321.5099,279.6879 321.5976,268.7775 321.6855,257.8669 321.7735,246.9559 321.8617,236.0445 321.9502,225.1328 322.0388,214.2206 322.1276,203.308 322.2166,192.3949 322.3058,181.4814 322.3952,170.5673 322.4848,159.6527 322.5746,148.7375 322.6646,137.8217 322.7547,126.9053 322.8451,115.9883 322.9357,105.0705 323.0264,94.1521 323.1174,83.233 323.2085,72.3131" stroke="silver" stroke-opacity="0.5" stroke-width="1" /><polyline fill="none" points="217.18,725.8738 217.3585,714.9521 217.5375,704.0311 217.7168,693.1109 217.8966,682.1915 218.0767,671.2727 218.2573,660.3546 218.4383,649.4371 218.6197,638.5202 218.8016,627.6039 218.9838,616.6881 219.1664,605.7729 219.3495,594.8582 219.533,583.9439 219.7169,573.0302 219.9012,562.1168 220.0859,551.2038 220.2711,540.2913 220.4566,529.379 220.6426,518.4671 220.829,507.5555 221.0158,496.6442 221.203,485.7331 221.3906,474.8222 221.5787,463.9115 221.7672,453.001 221.9561,442.0906 222.1454,431.1803 222.3352,420.2701 222.5253,409.36 222.7159,398.4499 222.9069,387.5399 223.0983,376.6298 223.2902,365.7197 223.4825,354.8095 223.6752,343.8992 223.8683,332.9888 224.0618,322.0783 224.2558,311.1675 224.4502,300.2566 224.645,289.3455 224.8403,278.4341 225.036,267.5224 225.2321,256.6105 225.4286,245.6982 225.6256,234.7856 225.823,223.8726 226.0208,212.9591 226.219,202.0453 226.4177,191.131 226.6168,180.2162 226.8164,169.3009 227.0164,158.3851 227.2168,147.4687 227.4176,136.5517 227.6189,125.6341 227.8206,114.7159 228.0228,103.797 228.2253,92.8774 228.4284,81.9571 228.6318,71.0361" stroke="silver" stroke-opacity="0.5" stroke-width="1" /><polyline fill="none" points="116.2605,723.7711 116.5377,712.8465 116.8156,701.9226 117.0941,690.9995 117.3732,680.0772 117.6529,669.1555 117.9333,658.2345 118.2144,647.3142 118.4961,636.3945 118.7784,625.4754 119.0613,614.5568 119.3449,603.6388 119.6292,592.7214 119.9141,581.8044 120.1996,570.8879 120.4858,559.9718 120.7726,549.0561 121.0601,538.1409 121.3482,527.2259 121.6369,516.3114 121.9263,505.3971 122.2164,494.4831 122.5071,483.5694 122.7985,472.656 123.0905,461.7427 123.3831,450.8296 123.6764,439.9167 123.9704,429.0039 124.265,418.0912 124.5602,407.1786 124.8562,396.266 125.1527,385.3535 125.45,374.4409 125.7478,363.5284 126.0464,352.6157 126.3456,341.7031 126.6454,330.7903 126.946,319.8773 127.2471,308.9643 127.549,298.051 127.8515,287.1375 128.1546,276.2238 128.4585,265.3099 128.7629,254.3957 129.0681,243.4811 129.3739,232.5662 129.6804,221.651 129.9875,210.7353 130.2954,199.8193 130.6038,188.9028 130.913,177.9858 131.2228,167.0684 131.5333,156.1504 131.8445,145.2319 132.1563,134.3128 132.4688,123.3932 132.782,112.4729 133.0959,101.5519 133.4104,90.6303 133.7257,79.708 134.0415,68.7849" stroke="silver" stroke-opacity="0.5" stroke-width="1" /><polyline fill="none" points="736.5199,678.5667 730.4866,678.7489 720.4313,679.0452 710.3765,679.3323 700.3219,679.6103 690.2678,679.879 680.2139,680.1386 670.1604,680.3891 660.1072,680.6304 650.0543,680.8625 640.0016,681.0854 629.9493,681.2993 619.8972,681.5039 609.8453,681.6994 599.7937,681.8857 589.7423,682.0629 579.6912,682.231 569.6402,682.3899 559.5894,682.5396 549.5389,682.6802 539.4884,682.8116 529.4382,682.934 519.3881,683.0471 509.3381,683.1511 499.2882,683.246 489.2385,683.3317 479.1889,683.4083 469.1393,683.4758 459.0899,683.5341 449.0405,683.5833 438.9911,683.6233 428.9418,683.6542 418.8926,683.6759 408.8433,683.6885 398.7941,683.692 388.7449,683.6863 378.6956,683.6715 368.6463,683.6476 358.597,683.6145 348.5477,683.5723 338.4983,683.5209 328.4488,683.4604 318.3992,683.3908 308.3496,683.312 298.2998,683.2241 288.2499,683.127 278.1999,683.0208 268.1498,682.9054 258.0995,682.7809 248.049,682.6473 237.9984,682.5045 227.9476,682.3526 217.8966,682.1915 207.8454,682.0212 197.7939,681.8419 187.7423,681.6533 177.6903,681.4556 167.6382,681.2488 157.5858,681.0328 147.5331,680.8076 137.4801,680.5733 127.4268,680.3298 117.3732,680.0772 107.3193,679.8154 97.265,679.5444 87.2104,679.2642 77.1555,678.9749 67.1001,678.6764 63.4801,678.5667" stroke="silver" stroke-opacity="0.5" stroke-width="1" /><polyline fill="none" points="733.8328,591.1949 727.8478,591.379 717.873,591.6784 707.8986,591.9686 697.9245,592.2495 687.9507,592.5211 677.9772,592.7835 668.0041,593.0366 658.0312,593.2804 648.0586,593.515 638.0863,593.7404 628.1142,593.9565 618.1424,594.1633 608.1709,594.3609 598.1995,594.5492 588.2284,594.7283 578.2575,594.8981 568.2868,595.0587 558.3162,595.21 548.3459,595.3521 538.3757,595.485 528.4056,595.6086 518.4357,595.7229 508.4659,595.8281 498.4962,595.924 488.5267,596.0106 478.5572,596.088 468.5878,596.1562 458.6185,596.2151 448.6493,596.2648 438.6801,596.3053 428.711,596.3365 418.7419,596.3585 408.7728,596.3712 398.8037,596.3747 388.8346,596.369 378.8655,596.354 368.8964,596.3298 358.9273,596.2964 348.9581,596.2537 338.9888,596.2018 329.0195,596.1407 319.0501,596.0703 309.0806,595.9906 299.1111,595.9018 289.1414,595.8037 279.1715,595.6963 269.2016,595.5798 259.2315,595.4539 249.2613,595.3189 239.2909,595.1745 229.3203,595.021 219.3495,594.8582 209.3785,594.6861 199.4074,594.5048 189.436,594.3143 179.4644,594.1145 169.4925,593.9054 159.5204,593.6871 149.548,593.4596 139.5753,593.2228 129.6024,592.9767 119.6292,592.7214 109.6556,592.4568 99.6818,592.1829 89.7076,591.8998 79.7331,591.6074 69.7582,591.3057 66.1672,591.1949" stroke="silver" stroke-opacity="0.5" stroke-width="1" /><polyline fill="none" points="731.0968,503.8552 725.1609,504.0412 715.268,504.3437 705.3755,504.6367 695.4832,504.9205 685.5913,505.1949 675.6997,505.4599 665.8084,505.7155 655.9173,505.9618 646.0265,506.1988 636.136,506.4264 626.2457,506.6447 616.3557,506.8536 606.4658,507.0532 596.5762,507.2434 586.6868,507.4243 576.7976,507.5958 566.9086,507.758 557.0198,507.9109 547.1311,508.0544 537.2426,508.1886 527.3542,508.3135 517.4659,508.429 507.5778,508.5352 497.6898,508.632 487.8019,508.7195 477.914,508.7977 468.0263,508.8666 458.1386,508.9261 448.251,508.9763 438.3634,509.0172 428.4759,509.0487 418.5884,509.0709 408.701,509.0838 398.8135,509.0873 388.926,509.0816 379.0386,509.0664 369.1511,509.042 359.2635,509.0082 349.376,508.9651 339.4883,508.9127 329.6007,508.8509 319.7129,508.7798 309.8251,508.6994 299.9371,508.6096 290.0491,508.5105 280.1609,508.4021 270.2726,508.2844 260.3842,508.1573 250.4956,508.0208 240.6069,507.8751 230.718,507.7199 220.829,507.5555 210.9397,507.3817 201.0503,507.1986 191.1606,507.0061 181.2707,506.8043 171.3806,506.5931 161.4903,506.3726 151.5997,506.1428 141.7089,505.9036 131.8177,505.655 121.9263,505.3971 112.0347,505.1299 102.1427,504.8532 92.2504,504.5673 82.3577,504.2719 72.4648,503.9672 68.9032,503.8552" stroke="silver" stroke-opacity="0.5" stroke-width="1" /><polyline fill="none" points="728.3113,416.5346 722.4255,416.7223 712.616,417.0277 702.8068,417.3236 692.9979,417.61 683.1893,417.887 673.3811,418.1545 663.573,418.4126 653.7653,418.6613 643.9577,418.9005 634.1505,419.1303 624.3434,419.3506 614.5366,419.5615 604.73,419.763 594.9236,419.955 585.1174,420.1377 575.3114,420.3108 565.5056,420.4746 555.6999,420.6289 545.8944,420.7738 536.089,420.9093 526.2837,421.0353 516.4786,421.152 506.6736,421.2592 496.8687,421.3569 487.0639,421.4453 477.2592,421.5242 467.4546,421.5937 457.65,421.6538 447.8455,421.7045 438.041,421.7458 428.2366,421.7776 418.4322,421.8 408.6278,421.813 398.8235,421.8166 389.0191,421.8107 379.2147,421.7955 369.4103,421.7708 359.6059,421.7367 349.8014,421.6932 339.9969,421.6403 330.1923,421.5779 320.3877,421.5061 310.5829,421.4249 300.7781,421.3343 290.9732,421.2343 281.1682,421.1248 271.363,421.0059 261.5577,420.8776 251.7523,420.7399 241.9468,420.5927 232.141,420.4362 222.3352,420.2701 212.5291,420.0947 202.7229,419.9098 192.9164,419.7155 183.1098,419.5118 173.3029,419.2986 163.4958,419.076 153.6885,418.844 143.8809,418.6025 134.0731,418.3515 124.265,418.0912 114.4566,417.8214 104.648,417.5421 94.839,417.2534 85.0298,416.9553 75.2202,416.6477 71.6887,416.5346" stroke="silver" stroke-opacity="0.5" stroke-width="1" /><polyline fill="none" points="725.4761,329.2197 719.6411,329.4091 709.9165,329.7172 700.1922,330.0158 690.4682,330.3048 680.7444,330.5842 671.0209,330.8542 661.2977,331.1146 651.5747,331.3655 641.852,331.6069 632.1294,331.8387 622.4071,332.061 612.685,332.2738 602.9632,332.4771 593.2415,332.6709 583.5199,332.8551 573.7986,333.0299 564.0774,333.1951 554.3564,333.3508 544.6355,333.497 534.9148,333.6337 525.1942,333.7609 515.4737,333.8785 505.7533,333.9867 496.033,334.0854 486.3128,334.1745 476.5927,334.2542 466.8727,334.3243 457.1527,334.3849 447.4328,334.4361 437.7129,334.4777 427.993,334.5098 418.2732,334.5324 408.5534,334.5455 398.8336,334.5492 389.1138,334.5433 379.394,334.5279 369.6742,334.503 359.9544,334.4686 350.2345,334.4247 340.5145,334.3712 330.7945,334.3083 321.0745,334.2359 311.3544,334.154 301.6341,334.0626 291.9138,333.9616 282.1934,333.8512 272.4729,333.7312 262.7523,333.6018 253.0315,333.4628 243.3106,333.3143 233.5895,333.1563 223.8683,332.9888 214.1469,332.8118 204.4254,332.6252 194.7036,332.4292 184.9817,332.2236 175.2595,332.0085 165.5372,331.7839 155.8146,331.5498 146.0918,331.3061 136.3687,331.053 126.6454,330.7903 116.9219,330.518 107.1981,330.2363 97.474,329.945 87.7496,329.6441 78.0249,329.3338 74.5239,329.2197" stroke="silver" stroke-opacity="0.5" stroke-width="1" /><polyline fill="none" points="722.5906,241.8973 716.8075,242.0883 707.1693,242.399 697.5313,242.7001 687.8936,242.9915 678.2562,243.2733 668.619,243.5456 658.9821,243.8082 649.3453,244.0612 639.7089,244.3046 630.0726,244.5384 620.4365,244.7626 610.8006,244.9772 601.165,245.1822 591.5295,245.3776 581.8941,245.5634 572.259,245.7396 562.624,245.9062 552.9891,246.0633 543.3544,246.2107 533.7197,246.3485 524.0853,246.4768 514.4509,246.5955 504.8166,246.7045 495.1824,246.804 485.5484,246.8939 475.9143,246.9743 466.2804,247.045 456.6465,247.1061 447.0127,247.1577 437.3789,247.1997 427.7451,247.2321 418.1114,247.2549 408.4777,247.2681 398.844,247.2717 389.2102,247.2658 379.5765,247.2503 369.9428,247.2252 360.309,247.1905 350.6752,247.1462 341.0414,247.0923 331.4075,247.0289 321.7735,246.9559 312.1395,246.8732 302.5054,246.781 292.8712,246.6792 283.2369,246.5679 273.6025,246.4469 263.968,246.3163 254.3333,246.1762 244.6986,246.0265 235.0637,245.8671 225.4286,245.6982 215.7934,245.5197 206.158,245.3316 196.5225,245.1339 186.8868,244.9266 177.2508,244.7097 167.6147,244.4832 157.9784,244.2471 148.3419,244.0013 138.7051,243.746 129.0681,243.4811 119.4309,243.2066 109.7934,242.9224 100.1556,242.6287 90.5176,242.3253 80.8793,242.0123 77.4094,241.8973" stroke="silver" stroke-opacity="0.5" stroke-width="1" /><polyline fill="none" points="719.6544,154.5541 713.9241,154.7466 704.3737,155.0598 694.8236,155.3632 685.2738,155.657 675.7242,155.941 666.1749,156.2154 656.6257,156.4801 647.0768,156.7351 637.5281,156.9804 627.9796,157.2161 618.4313,157.4421 608.8831,157.6584 599.3352,157.865 589.7874,158.0619 580.2397,158.2492 570.6923,158.4268 561.1449,158.5948 551.5977,158.753 542.0507,158.9016 532.5037,159.0406 522.9569,159.1698 513.4101,159.2894 503.8635,159.3994 494.3169,159.4997 484.7705,159.5903 475.2241,159.6712 465.6777,159.7425 456.1314,159.8042 446.5852,159.8561 437.039,159.8984 427.4929,159.9311 417.9467,159.9541 408.4006,159.9674 398.8545,159.9711 389.3083,159.9651 379.7622,159.9494 370.2161,159.9241 360.6699,159.8892 351.1237,159.8445 341.5775,159.7902 332.0312,159.7263 322.4848,159.6527 312.9384,159.5694 303.3919,159.4765 293.8453,159.3739 284.2987,159.2616 274.7519,159.1397 265.205,159.0081 255.6581,158.8668 246.111,158.7159 236.5637,158.5553 227.0164,158.3851 217.4688,158.2051 207.9212,158.0155 198.3733,157.8163 188.8253,157.6073 179.2772,157.3887 169.7288,157.1604 160.1802,156.9224 150.6315,156.6748 141.0825,156.4174 131.5333,156.1504 121.9839,155.8737 112.4343,155.5873 102.8844,155.2913 93.3342,154.9855 83.7838,154.67 80.3456,154.5541" stroke="silver" stroke-opacity="0.5" stroke-width="1" /><polyline fill="none" points="716.667,67.1768 710.9904,67.3708 701.5294,67.6862 692.0688,67.9919 682.6083,68.2878 673.1481,68.574 663.6881,68.8504 654.2283,69.117 644.7687,69.3739 635.3093,69.6211 625.85,69.8585 616.391,70.0861 606.9321,70.304 597.4734,70.5122 588.0149,70.7106 578.5565,70.8992 569.0982,71.0782 559.6401,71.2473 550.1821,71.4068 540.7242,71.5565 531.2664,71.6964 521.8088,71.8267 512.3512,71.9472 502.8937,72.0579 493.4363,72.1589 483.979,72.2502 474.5217,72.3318 465.0645,72.4036 455.6074,72.4657 446.1503,72.518 436.6932,72.5606 427.2362,72.5935 417.7792,72.6167 408.3222,72.6301 398.8652,72.6338 389.4082,72.6278 379.9512,72.612 370.4941,72.5865 361.0371,72.5513 351.58,72.5063 342.1229,72.4517 332.6657,72.3872 323.2085,72.3131 313.7513,72.2292 304.2939,72.1356 294.8365,72.0322 285.379,71.9191 275.9214,71.7963 266.4637,71.6637 257.0059,71.5214 247.548,71.3694 238.09,71.2076 228.6318,71.0361 219.1735,70.8548 209.7151,70.6638 200.2565,70.4631 190.7978,70.2526 181.3388,70.0324 171.8798,69.8024 162.4205,69.5627 152.961,69.3132 143.5014,69.0539 134.0415,68.7849 124.5815,68.5062 115.1212,68.2177 105.6607,67.9194 96.2,67.6114 86.739,67.2936 83.333,67.1768" stroke="silver" stroke-opacity="0.5" stroke-width="1" /><line fill="none" stroke="green" stroke-opacity="0.5" stroke-width="1.5" x1="268.612" x2="132.0384" y1="149.8127" y2="355.8602" /><circle cx="718.1223" cy="147.6967" fill="black" r="0.738" stroke="none" /><circle cx="733.9027" cy="663.9515" fill="black" r="0.738" stroke="none" /><circle cx="720.8768" cy="333.9144" fill="black" r="1.476" stroke="none" /><circle cx="717.5602" cy="234.4577" fill="black" r="0.738" stroke="none" /><circle cx="717.9121" cy="278.3307" fill="black" r="0.738" stroke="none" /><circle cx="718.9418" cy="464.0273" fill="black" r="0.738" stroke="none" /><circle cx="717.1718" cy="549.3013" fill="black" r="0.738" stroke="none" /><circle cx="703.8002" cy="706.7136" fill="black" r="0.738" stroke="none" /><circle cx="683.7459" cy="155.7031" fill="black" r="0.738" stroke="none" /><circle cx="681.6931" cy="117.9924" fill="black" r="0.738" stroke="none" /><circle cx="689.8535" cy="510.4082" fill="black" r="0.738" stroke="none" /><circle cx="685.0186" cy="379.6545" fill="black" r="0.738" stroke="none" /><circle cx="676.2235" cy="157.3252" fill="black" r="0.738" stroke="none" /><circle cx="667.8958" cy="184.6624" fill="black" r="0.738" stroke="none" /><circle cx="676.0113" cy="718.3675" fill="black" r="0.738" stroke="none" /><circle cx="674.6226" cy="688.3226" fill="black" r="0.738" stroke="none" /><circle cx="670.0591" cy="517.0523" fill="black" r="1.17" stroke="none" /><circle cx="667.2491" cy="426.8782" fill="black" r="0.738" stroke="none" /><circle cx="648.0217" cy="198.8338" fill="black" r="0.738" stroke="none" /><circle cx="647.6889" cy="356.7072" fill="black" r="0.738" stroke="none" /><circle cx="645.3625" cy="392.5761" fill="black" r="1.17" stroke="none" /><circle cx="643.9846" cy="496.7253" fill="black" r="0.936" stroke="none" /><circle cx="639.8704" cy="573.6061" fill="black" r="0.738" stroke="none" /><circle cx="636.6196" cy="592.3748" fill="black" r="0.738" stroke="none" /><circle cx="626.6107" cy="231.7784" fill="black" r="0.738" stroke="none" /><circle cx="627.0135" cy="534.9277" fill="black" r="0.738" stroke="none" /><circle cx="608.5475" cy="441.5165" fill="black" r="0.738" stroke="none" /><circle cx="604.5291" cy="295.4178" fill="black" r="0.738" stroke="none" /><circle cx="607.116" cy="468.1794" fill="black" r="0.738" stroke="none" /><circle cx="605.156" cy="484.7229" fill="black" r="0.738" stroke="none" /><circle cx="607.2004" cy="712.4254" fill="black" r="0.738" stroke="none" /><circle cx="591.4421" cy="138.0203" fill="black" r="0.738" stroke="none" /><circle cx="582.2231" cy="72.5754" fill="black" r="0.738" stroke="none" /><circle cx="582.1223" cy="109.8079" fill="black" r="0.738" stroke="none" /><circle cx="579.2946" cy="148.7446" fill="black" r="0.738" stroke="none" /><circle cx="585.4832" cy="574.4259" fill="black" r="0.738" stroke="none" /><circle cx="585.051" cy="642.3897" fill="black" r="0.738" stroke="none" /><circle cx="583.1799" cy="679.2029" fill="black" r="0.738" stroke="none" /><circle cx="557.6489" cy="252.8868" fill="black" r="0.738" stroke="none" /><circle cx="557.0247" cy="252.4603" fill="black" r="0.738" stroke="none" /><circle cx="557.9062" cy="530.0744" fill="black" r="0.738" stroke="none" /><circle cx="548.9156" cy="684.1738" fill="black" r="0.936" stroke="none" /><circle cx="545.3224" cy="607.794" fill="black" r="0.738" stroke="none" /><circle cx="535.4497" cy="73.1213" fill="black" r="0.738" stroke="none" /><circle cx="535.5148" cy="215.0644" fill="black" r="0.738" stroke="none" /><circle cx="538.1824" cy="454.0522" fill="black" r="0.738" stroke="none" /><circle cx="529.3346" cy="560.3221" fill="black" r="0.738" stroke="none" /><circle cx="523.075" cy="144.8444" fill="black" r="1.17" stroke="none" /><circle cx="523.106" cy="322.1773" fill="black" r="0.738" stroke="none" /><circle cx="510.6945" cy="722.5377" fill="black" r="0.738" stroke="none" /><circle cx="507.018" cy="643.1716" fill="black" r="0.738" stroke="none" /><circle cx="503.2226" cy="452.5414" fill="black" r="0.738" stroke="none" /><circle cx="499.6025" cy="302.4529" fill="black" r="0.738" stroke="none" /><circle cx="495.1209" cy="377.2978" fill="black" r="0.738" stroke="none" /><circle cx="488.8522" cy="635.7372" fill="black" r="0.738" stroke="none" /><circle cx="483.2994" cy="489.7284" fill="black" r="0.738" stroke="none" /><circle cx="479.465" cy="442.9771" fill="black" r="0.738" stroke="none" /><circle cx="475.9654" cy="204.7203" fill="black" r="0.738" stroke="none" /><circle cx="473.7237" cy="172.9559" fill="black" r="0.738" stroke="none" /><circle cx="474.1483" cy="490.9322" fill="black" r="0.738" stroke="none" /><circle cx="467.3298" cy="332.9248" fill="black" r="0.738" stroke="none" /><circle cx="464.6258" cy="107.0871" fill="black" r="0.738" stroke="none" /><circle cx="451.8118" cy="509.2212" fill="black" r="0.738" stroke="none" /><circle cx="450.6919" cy="348.3836" fill="black" r="0.936" stroke="none" /><circle cx="448.1896" cy="190.0587" fill="black" r="0.738" stroke="none" /><circle cx="443.6162" cy="441.621" fill="black" r="0.738" stroke="none" /><circle cx="439.4479" cy="79.8001" fill="black" r="0.738" stroke="none" /><circle cx="438.4555" cy="448.6232" fill="black" r="0.738" stroke="none" /><circle cx="437.4373" cy="515.4792" fill="black" r="0.738" stroke="none" /><circle cx="432.579" cy="663.0335" fill="black" r="0.738" stroke="none" /><circle cx="430.2606" cy="141.9343" fill="black" r="0.738" stroke="none" /><circle cx="425.5244" cy="110.3339" fill="black" r="0.738" stroke="none" /><circle cx="415.1103" cy="106.1643" fill="black" r="1.17" stroke="none" /><circle cx="412.4361" cy="269.0849" fill="black" r="0.738" stroke="none" /><circle cx="411.6036" cy="95.0765" fill="black" r="0.738" stroke="none" /><circle cx="397.2444" cy="460.3888" fill="black" r="0.738" stroke="none" /><circle cx="396.5184" cy="512.7525" fill="black" r="0.936" stroke="none" /><circle cx="395.7489" cy="459.6028" fill="black" r="0.738" stroke="none" /><circle cx="392.213" cy="667.8821" fill="black" r="0.738" stroke="none" /><circle cx="387.3547" cy="566.425" fill="black" r="0.738" stroke="none" /><circle cx="381.2145" cy="237.2154" fill="black" r="0.738" stroke="none" /><circle cx="376.6879" cy="137.0639" fill="black" r="0.738" stroke="none" /><circle cx="374.6607" cy="487.7615" fill="black" r="0.738" stroke="none" /><circle cx="372.3324" cy="562.9923" fill="black" r="0.738" stroke="none" /><circle cx="372.4438" cy="345.2453" fill="black" r="0.738" stroke="none" /><circle cx="370.8073" cy="454.588" fill="black" r="0.738" stroke="none" /><circle cx="364.7972" cy="242.2324" fill="black" r="0.738" stroke="none" /><circle cx="355.719" cy="157.073" fill="black" r="0.738" stroke="none" /><circle cx="342.0246" cy="670.352" fill="black" r="0.738" stroke="none" /><circle cx="342.3154" cy="484.0542" fill="black" r="0.738" stroke="none" /><circle cx="339.9965" cy="503.0678" fill="black" r="0.738" stroke="none" /><circle cx="333.669" cy="592.3289" fill="black" r="0.738" stroke="none" /><circle cx="321.7507" cy="146.8967" fill="black" r="0.738" stroke="none" /><circle cx="315.075" cy="524.7169" fill="black" r="0.738" stroke="none" /><circle cx="315.6723" cy="413.0898" fill="black" r="0.738" stroke="none" /><circle cx="306.853" cy="366.581" fill="black" r="0.738" stroke="none" /><circle cx="297.6725" cy="529.9743" fill="black" r="0.738" stroke="none" /><circle cx="296.9496" cy="358.4543" fill="black" r="0.738" stroke="none" /><circle cx="292.917" cy="235.5922" fill="black" r="0.738" stroke="none" /><circle cx="290.283" cy="298.7665" fill="black" r="0.738" stroke="none" /><circle cx="288.0809" cy="188.3002" fill="black" r="0.738" stroke="none" /><circle cx="284.1873" cy="309.6954" fill="black" r="0.738" stroke="none" /><circle cx="277.0929" cy="603.095" fill="black" r="0.738" stroke="none" /><circle cx="272.6295" cy="643.3898" fill="black" r="0.738" stroke="none" /><circle cx="267.4585" cy="499.3447" fill="black" r="0.936" stroke="none" /><circle cx="268.6183" cy="149.7979" fill="black" r="1.854" stroke="none" /><circle cx="261.4964" cy="396.6098" fill="black" r="0.738" stroke="none" /><circle cx="260.9166" cy="439.2003" fill="black" r="0.738" stroke="none" /><circle cx="252.1544" cy="622.9559" fill="black" r="0.738" stroke="none" /><circle cx="255.6027" cy="376.3626" fill="black" r="0.738" stroke="none" /><circle cx="251.3584" cy="453.3829" fill="black" r="0.738" stroke="none" /><circle cx="249.0155" cy="321.355" fill="black" r="0.738" stroke="none" /><circle cx="243.0042" cy="480.0608" fill="black" r="0.738" stroke="none" /><circle cx="236.2984" cy="324.558" fill="black" r="0.738" stroke="none" /><circle cx="226.126" cy="655.153" fill="black" r="0.738" stroke="none" /><circle cx="230.297" cy="162.8998" fill="black" r="0.738" stroke="none" /><circle cx="221.0788" cy="610.8707" fill="black" r="0.738" stroke="none" /><circle cx="225.0507" cy="314.4996" fill="black" r="0.738" stroke="none" /><circle cx="222.0649" cy="463.1341" fill="black" r="0.738" stroke="none" /><circle cx="215.4759" cy="616.1048" fill="black" r="0.738" stroke="none" /><circle cx="214.959" cy="477.1543" fill="black" r="0.738" stroke="none" /><circle cx="218.3198" cy="275.4334" fill="black" r="0.738" stroke="none" /><circle cx="198.3962" cy="555.0937" fill="black" r="0.738" stroke="none" /><circle cx="201.4424" cy="302.9631" fill="black" r="0.738" stroke="none" /><circle cx="195.9552" cy="428.6834" fill="black" r="0.738" stroke="none" /><circle cx="175.9709" cy="718.9184" fill="black" r="0.738" stroke="none" /><circle cx="174.5263" cy="635.8625" fill="black" r="0.738" stroke="none" /><circle cx="174.7301" cy="184.7189" fill="black" r="0.738" stroke="none" /><circle cx="155.6803" cy="573.0685" fill="black" r="0.738" stroke="none" /><circle cx="161.9998" cy="250.1127" fill="black" r="0.738" stroke="none" /><circle cx="157.4354" cy="132.991" fill="black" r="0.738" stroke="none" /><circle cx="144.4162" cy="641.9273" fill="black" r="0.738" stroke="none" /><circle cx="132.9879" cy="720.2475" fill="black" r="0.738" stroke="none" /><circle cx="134.4115" cy="624.7326" fill="black" r="0.738" stroke="none" /><circle cx="130.7709" cy="662.0536" fill="black" r="0.738" stroke="none" /><circle cx="133.8939" cy="307.3109" fill="black" r="0.738" stroke="none" /><circle cx="132.0453" cy="355.8359" fill="black" r="2.322" stroke="none" /><circle cx="125.4059" cy="505.5763" fill="black" r="0.738" stroke="none" /><circle cx="111.7313" cy="439.3262" fill="black" r="0.738" stroke="none" /><circle cx="106.8944" cy="536.1848" fill="black" r="0.738" stroke="none" /><circle cx="111.8792" cy="232.4967" fill="black" r="0.738" stroke="none" /><circle cx="110.8679" cy="207.2057" fill="black" r="0.738" stroke="none" /><circle cx="100.708" cy="480.3437" fill="black" r="0.738" stroke="none" /><circle cx="96.8524" cy="314.6323" fill="black" r="0.738" stroke="none" /><circle cx="98.2177" cy="68.4653" fill="black" r="0.936" stroke="none" /><circle cx="84.8316" cy="350.528" fill="black" r="0.738" stroke="none" /><circle cx="67.5669" cy="655.2499" fill="black" r="0.738" stroke="none" /><circle cx="65.6909" cy="635.1651" fill="black" r="0.738" stroke="none" /><circle cx="13.77" cy="786.23" fill="black" r="4.59" stroke="none" /><circle cx="13.77" cy="786.23" fill="black" r="4.59" stroke="none" /><text fill="black" font-family="monospace" font-size="12" x="10.77" y="775.64">1</text><circle cx="37.77" cy="786.23" fill="black" r="3.654" stroke="none" /><circle cx="37.77" cy="786.23" fill="black" r="3.654" stroke="none" /><text fill="black" font-family="monospace" font-size="12" x="34.769999999999996" y="775.64">2</text><circle cx="61.77" cy="786.23" fill="black" r="2.916" stroke="none" /><circle cx="61.77" cy="786.23" fill="black" r="2.916" stroke="none" /><text fill="black" font-family="monospace" font-size="12" x="58.769999999999996" y="775.64">3</text><circle cx="85.77" cy="786.23" fill="black" r="2.322" stroke="none" /><circle cx="85.77" cy="786.23" fill="black" r="2.322" stroke="none" /><text fill="black" font-family="monospace" font-size="12" x="82.77" y="775.64">4</text><circle cx="109.77" cy="786.23" fill="black" r="1.854" stroke="none" /><circle cx="109.77" cy="786.23" fill="black" r="1.854" stroke="none" /><text fill="black" font-family="monospace" font-size="12" x="106.77" y="775.64">5</text><circle cx="133.77" cy="786.23" fill="black" r="1.476" stroke="none" /><circle cx="133.77" cy="786.23" fill="black" r="1.476" stroke="none" /><text fill="black" font-family="monospace" font-size="12" x="130.77" y="775.64">6</text><circle cx="157.77" cy="786.23" fill="black" r="1.17" stroke="none" /><circle cx="157.77" cy="786.23" fill="black" r="1.17" stroke="none" /><text fill="black" font-family="monospace" font-size="12" x="154.77" y="775.64">7</text><circle cx="181.77" cy="786.23" fill="black" r="0.936" stroke="none" /><circle cx="181.77" cy="786.23" fill="black" r="0.936" stroke="none" /><text fill="black" font-family="monospace" font-size="12" x="178.77" y="775.64">8</text><circle cx="205.77" cy="786.23" fill="black" r="0.738" stroke="none" /><circle cx="205.77" cy="786.23" fill="black" r="0.738" stroke="none" /><text fill="black" font-family="monospace" font-size="12" x="202.77" y="775.64">9</text><text fill="gray" fill-opacity="0.5" font-family="monospace" font-size="12" x="721.6930846712874" y="722.7447739489501">15h05m</text><text fill="gray" fill-opacity="0.5" font-family="monospace" font-size="12" x="620.762602654287" y="725.1899625857278">15h10m</text><text fill="gray" fill-opacity="0.5" font-family="monospace" font-size="12" x="519.8577786680626" y="726.724689563943">15h15m</text><text fill="gray" fill-opacity="0.5" font-family="monospace" font-size="12" x="418.96688694215186" y="727.3500426204108">15h20m</text><text fill="gray" fill-opacity="0.5" font-family="monospace" font-size="12" x="318.07820004474826" y="727.0664648714226">15h25m</text><text fill="gray" fill-opacity="0.5" font-family="monospace" font-size="12" x="217.17999028216718" y="725.8737553851558">15h30m</text><text fill="gray" fill-opacity="0.5" font-family="monospace" font-size="12" x="116.26053109383253" y="723.771068922121">15h35m</text><text fill="gray" fill-opacity="0.5" font-family="monospace" font-size="12" x="63.480125895682136" y="678.5667478452463">+23°</text><text fill="gray" fill-opacity="0.5" font-family="monospace" font-size="12" x="66.1671748113572" y="591.1948569614149">+24°</text><text fill="gray" fill-opacity="0.5" font-family="monospace" font-size="12" x="68.90324031218495" y="503.8552334814606">+25°</text><text fill="gray" fill-opacity="0.5" font-family="monospace" font-size="12" x="71.6886968278177" y="416.5346055115809">+26°</text><text fill="gray" fill-opacity="0.5" font-family="monospace" font-size="12" x="74.52394885402447" y="329.2197126824234">+27°</text><text fill="gray" fill-opacity="0.5" font-family="monospace" font-size="12" x="77.40943118114467" y="241.89729810558998">+28°</text><text fill="gray" fill-opacity="0.5" font-family="monospace" font-size="12" x="80.345609161693" y="154.5541003346308">+29°</text><text fill="gray" fill-opacity="0.5" font-family="monospace" font-size="12" x="83.33297901746465" y="67.17684532016995">+30°</text><text fill="black" font-family="monospace" font-size="12" x="12" y="48">&gt;&gt; No.576 15h04m 15h38m +22.5°+30.0°</text><a target="_self" xlink:href="hip037.svg"><text fill="black" font-family="monospace" font-size="12" x="12" y="36">&gt; No.37 15h00m 18h00m +22.5°+52.5°</text></a><a target="_self" xlink:href="hip002.svg"><text fill="black" font-family="monospace" font-size="12" x="12" y="24">No.2 00h 24h +0.0°+90.0°</text></a><polyline fill="none" points="716.667,67.1768 710.9904,67.3708 701.5294,67.6862 692.0688,67.9919 682.6083,68.2878 673.1481,68.574 663.6881,68.8504 654.2283,69.117 644.7687,69.3739 635.3093,69.6211 625.85,69.8585 616.391,70.0861 606.9321,70.304 597.4734,70.5122 588.0149,70.7106 578.5565,70.8992 569.0982,71.0782 559.6401,71.2473 550.1821,71.4068 540.7242,71.5565 531.2664,71.6964 521.8088,71.8267 512.3512,71.9472 502.8937,72.0579 493.4363,72.1589 483.979,72.2502 474.5217,72.3318 465.0645,72.4036 455.6074,72.4657 446.1503,72.518 436.6932,72.5606 427.2362,72.5935 417.7792,72.6167 408.3222,72.6301 398.8652,72.6338 389.4082,72.6278 379.9512,72.612 370.4941,72.5865 361.0371,72.5513 351.58,72.5063 342.1229,72.4517 332.6657,72.3872 323.2085,72.3131 313.7513,72.2292 304.2939,72.1356 294.8365,72.0322 285.379,71.9191 275.9214,71.7963 266.4637,71.6637 257.0059,71.5214 247.548,71.3694 238.09,71.2076 228.6318,71.0361 219.1735,70.8548 209.7151,70.6638 200.2565,70.4631 190.7978,70.2526 181.3388,70.0324 171.8798,69.8024 162.4205,69.5627 152.961,69.3132 143.5014,69.0539 134.0415,68.7849 124.5815,68.5062 115.1212,68.2177 105.6607,67.9194 96.2,67.6114 86.739,67.2936 83.333,67.1768" stroke="black" stroke-opacity="0.5" stroke-width="1" /><polyline fill="none" points="737.8451,722.2689 737.515,711.3422 737.184,700.4163 736.8523,689.4912 736.5199,678.5667 736.1867,667.643 735.8527,656.72 735.518,645.7977 735.1825,634.8759 734.8462,623.9548 734.5092,613.0343 734.1714,602.1143 733.8328,591.1949 733.4935,580.2759 733.1534,569.3574 732.8126,558.4394 732.4709,547.5218 732.1286,536.6047 731.7854,525.6878 731.4415,514.7714 731.0968,503.8552 730.7513,492.9394 730.405,482.0238 730.058,471.1085 729.7102,460.1934 729.3617,449.2785 729.0123,438.3637 728.6622,427.4491 728.3113,416.5346 727.9596,405.6202 727.6072,394.7059 727.2539,383.7916 726.8999,372.8773 726.5451,361.963 726.1896,351.0486 725.8332,340.1342 725.4761,329.2197 725.1181,318.3051 724.7594,307.3903 724.3999,296.4754 724.0396,285.5603 723.6785,274.6449 723.3167,263.7293 722.954,252.8135 722.5906,241.8973 722.2263,230.9808 721.8613,220.064 721.4955,209.1467 721.1288,198.2291 720.7614,187.3111 720.3932,176.3926 720.0242,165.4736 719.6544,154.5541 719.2838,143.6341 718.9124,132.7135 718.5402,121.7923 718.1671,110.8706 717.7933,99.9482 717.4187,89.0251 717.0433,78.1013 716.667,67.1768" stroke="black" stroke-opacity="0.5" stroke-width="1" /><polyline fill="none" points="737.8451,722.2689 731.788,722.4501 721.6931,722.7448 711.5985,723.0303 701.5044,723.3067 691.4105,723.574 681.3171,723.8322 671.2239,724.0813 661.1311,724.3212 651.0385,724.5521 640.9463,724.7738 630.8543,724.9864 620.7626,725.19 610.6712,725.3844 600.58,725.5697 590.489,725.7459 580.3983,725.913 570.3077,726.0711 560.2174,726.22 550.1272,726.3598 540.0373,726.4905 529.9474,726.6122 519.8578,726.7247 509.7683,726.8281 499.6789,726.9225 489.5896,727.0077 479.5004,727.0839 469.4113,727.151 459.3223,727.209 449.2334,727.2579 439.1445,727.2977 429.0557,727.3284 418.9669,727.35 408.8781,727.3626 398.7893,727.366 388.7006,727.3604 378.6118,727.3457 368.523,727.3219 358.4342,727.289 348.3453,727.247 338.2563,727.1959 328.1673,727.1357 318.0782,727.0665 307.989,726.9881 297.8997,726.9007 287.8103,726.8041 277.7207,726.6985 267.631,726.5838 257.5412,726.46 247.4512,726.3271 237.361,726.1851 227.2706,726.034 217.18,725.8738 207.0892,725.7045 196.9982,725.5261 186.9069,725.3386 176.8154,725.1419 166.7236,724.9362 156.6316,724.7214 146.5393,724.4975 136.4467,724.2645 126.3538,724.0223 116.2605,723.7711 106.167,723.5107 96.0731,723.2412 85.9788,722.9626 75.8842,722.6749 65.7892,722.378 62.1549,722.2689" stroke="black" stroke-opacity="0.5" stroke-width="1" /><polyline fill="none" points="62.1549,722.2689 62.485,711.3422 62.816,700.4163 63.1477,689.4912 63.4801,678.5667 63.8133,667.643 64.1473,656.72 64.482,645.7977 64.8175,634.8759 65.1538,623.9548 65.4908,613.0343 65.8286,602.1143 66.1672,591.1949 66.5065,580.2759 66.8466,569.3574 67.1874,558.4394 67.5291,547.5218 67.8714,536.6047 68.2146,525.6878 68.5585,514.7714 68.9032,503.8552 69.2487,492.9394 69.595,482.0238 69.942,471.1085 70.2898,460.1934 70.6383,449.2785 70.9877,438.3637 71.3378,427.4491 71.6887,416.5346 72.0404,405.6202 72.3928,394.7059 72.7461,383.7916 73.1001,372.8773 73.4549,361.963 73.8104,351.0486 74.1668,340.1342 74.5239,329.2197 74.8819,318.3051 75.2406,307.3903 75.6001,296.4754 75.9604,285.5603 76.3215,274.6449 76.6833,263.7293 77.046,252.8135 77.4094,241.8973 77.7737,230.9808 78.1387,220.064 78.5045,209.1467 78.8712,198.2291 79.2386,187.3111 79.6068,176.3926 79.9758,165.4736 80.3456,154.5541 80.7162,143.6341 81.0876,132.7135 81.4598,121.7923 81.8329,110.8706 82.2067,99.9482 82.5813,89.0251 82.9567,78.1013 83.333,67.1768" stroke="black" stroke-opacity="0.5" stroke-width="1" /></svg>