<?xml version="1.0" encoding="utf-8" ?>
<svg baseProfile="tiny" height="800" version="1.2" width="800" xmlns="http://www.w3.org/2000/svg" xmlns:ev="http://www.w3.org/2001/xml-events" xmlns:xlink="http://www.w3.org/1999/xlink"><defs /><rect fill="none" height="800" stroke="black" stroke-width="2" width="800" x="0" y="0" /><polyline fill="none" points="700.2931,723.3393 699.9997,712.4141 699.7056,701.4896 699.4109,690.5659 699.1154,679.643 698.8193,668.7207 698.5225,657.7992 698.2251,646.8783 697.9269,635.958 697.6281,625.0383 697.3286,614.1192 697.0284,603.2006 696.7276,592.2826 696.4261,581.365 696.1238,570.4479 695.8209,559.5313 695.5174,548.6151 695.2131,537.6993 694.9081,526.7838 694.6025,515.8687 694.2962,504.9539 693.9892,494.0394 693.6815,483.1251 693.3731,472.2111 693.064,461.2973 692.7543,450.3837 692.4438,439.4703 692.1327,428.5569 691.8209,417.6437 691.5084,406.7306 691.1952,395.8175 690.8813,384.9045 690.5667,373.9914 690.2514,363.0784 689.9354,352.1653 689.6187,341.2521 689.3013,330.3388 688.9832,319.4254 688.6645,308.5118 688.345,297.5981 688.0248,286.6841 687.7039,275.77 687.3824,264.8556 687.0601,253.9408 686.7371,243.0258 686.4134,232.1105 686.089,221.1948 685.7639,210.2787 685.4381,199.3622 685.1116,188.4452 684.7844,177.5278 684.4565,166.61 684.1278,155.6916 683.7985,144.7726 683.4684,133.8531 683.1377,122.933 682.8062,112.0123 682.474,101.0909 682.1411,90.1689 681.8074,79.2461 681.4731,68.3227" stroke="silver" stroke-opacity="0.5" stroke-width="1" /><polyline fill="none" points="599.369,725.5913 599.1743,714.6692 598.9792,703.7479 598.7836,692.8273 598.5875,681.9075 598.391,670.9883 598.1941,660.0698 597.9967,649.1519 597.7989,638.2347 597.6006,627.318 597.4018,616.4018 597.2026,605.4863 597.003,594.5712 596.8029,583.6566 596.6023,572.7424 596.4013,561.8287 596.1999,550.9154 595.998,540.0024 595.7956,529.0898 595.5928,518.1776 595.3895,507.2656 595.1858,496.3539 594.9816,485.4424 594.7769,474.5312 594.5718,463.6202 594.3663,452.7093 594.1603,441.7986 593.9538,430.888 593.7469,419.9775 593.5395,409.067 593.3316,398.1566 593.1233,387.2462 592.9146,376.3358 592.7053,365.4253 592.4956,354.5148 592.2855,343.6042 592.0749,332.6935 591.8638,321.7826 591.6522,310.8716 591.4402,299.9604 591.2278,289.0489 591.0148,278.1372 590.8014,267.2253 590.5876,256.313 590.3732,245.4004 590.1584,234.4875 589.9431,223.5742 589.7274,212.6604 589.5112,201.7463 589.2945,190.8317 589.0774,179.9166 588.8597,169.001 588.6416,158.0849 588.4231,147.1682 588.204,136.251 587.9845,125.3331 587.7645,114.4146 587.5441,103.4954 587.3232,92.5756 587.1017,81.655 586.8799,70.7337" stroke="silver" stroke-opacity="0.5" stroke-width="1" /><polyline fill="none" points="498.4681,726.9332 498.372,716.013 498.2757,705.0935 498.1791,694.1748 498.0823,683.2568 497.9853,672.3394 497.888,661.4227 497.7905,650.5067 497.6929,639.5912 497.595,628.6763 497.4968,617.762 497.3985,606.8482 497.2999,595.9348 497.2011,585.022 497.1021,574.1096 497.0028,563.1976 496.9033,552.286 496.8036,541.3748 496.7037,530.4639 496.6036,519.5533 496.5032,508.643 496.4026,497.733 496.3018,486.8232 496.2008,475.9136 496.0995,465.0043 495.998,454.095 495.8963,443.1859 495.7943,432.2769 495.6922,421.368 495.5898,410.4592 495.4871,399.5504 495.3843,388.6415 495.2812,377.7327 495.1779,366.8238 495.0743,355.9148 494.9706,345.0058 494.8666,334.0966 494.7623,323.1872 494.6579,312.2777 494.5532,301.368 494.4483,290.458 494.3432,279.5478 494.2378,268.6373 494.1322,257.7265 494.0264,246.8153 493.9203,235.9038 493.814,224.9919 493.7075,214.0796 493.6007,203.1669 493.4937,192.2537 493.3865,181.34 493.279,170.4258 493.1714,159.511 493.0634,148.5957 492.9553,137.6798 492.8469,126.7633 492.7383,115.8461 492.6294,104.9282 492.5203,94.0097 492.411,83.0904 492.3014,72.1704" stroke="silver" stroke-opacity="0.5" stroke-width="1" /><polyline fill="none" points="397.5787,727.3658 397.5811,716.4462 397.5834,705.5274 397.5858,694.6092 397.5882,683.6918 397.5906,672.7751 397.593,661.859 397.5954,650.9435 397.5978,640.0286 397.6002,629.1143 397.6026,618.2005 397.605,607.2873 397.6074,596.3745 397.6099,585.4622 397.6123,574.5504 397.6147,563.639 397.6172,552.7279 397.6196,541.8172 397.6221,530.9069 397.6245,519.9969 397.627,509.0871 397.6295,498.1777 397.632,487.2684 397.6344,476.3594 397.6369,465.4505 397.6394,454.5418 397.6419,443.6332 397.6444,432.7248 397.647,421.8164 397.6495,410.908 397.652,399.9997 397.6545,389.0914 397.6571,378.1831 397.6596,367.2747 397.6621,356.3662 397.6647,345.4576 397.6673,334.5489 397.6698,323.6401 397.6724,312.731 397.675,301.8218 397.6775,290.9123 397.6801,280.0026 397.6827,269.0926 397.6853,258.1822 397.6879,247.2715 397.6905,236.3605 397.6931,225.4491 397.6958,214.5372 397.6984,203.6249 397.701,192.7122 397.7036,181.7989 397.7063,170.8852 397.7089,159.9709 397.7116,149.056 397.7142,138.1405 397.7169,127.2244 397.7196,116.3076 397.7223,105.3902 397.7249,94.4721 397.7276,83.5532 397.7303,72.6336" stroke="silver" stroke-opacity="0.5" stroke-width="1" /><polyline fill="none" points="296.689,726.8896 296.7898,715.9693 296.8909,705.0498 296.9923,694.131 297.0938,683.2129 297.1956,672.2955 297.2976,661.3787 297.3999,650.4626 297.5024,639.5471 297.6051,628.6322 297.7081,617.7178 297.8113,606.8039 297.9147,595.8905 298.0184,584.9776 298.1222,574.0651 298.2264,563.1531 298.3307,552.2414 298.4353,541.3301 298.5402,530.4192 298.6452,519.5086 298.7506,508.5982 298.8561,497.6882 298.9619,486.7783 299.0679,475.8687 299.1741,464.9593 299.2806,454.05 299.3874,443.1408 299.4943,432.2318 299.6015,421.3228 299.709,410.4139 299.8166,399.505 299.9245,388.5962 300.0327,377.6873 300.1411,366.7783 300.2497,355.8693 300.3586,344.9602 300.4677,334.0509 300.5771,323.1415 300.6866,312.232 300.7965,301.3222 300.9066,290.4122 301.0169,279.5019 301.1274,268.5914 301.2382,257.6805 301.3493,246.7693 301.4605,235.8578 301.5721,224.9458 301.6838,214.0335 301.7958,203.1207 301.9081,192.2075 302.0206,181.2937 302.1333,170.3795 302.2463,159.4647 302.3595,148.5493 302.473,137.6334 302.5867,126.7168 302.7007,115.7996 302.8149,104.8817 302.9294,93.9631 303.0441,83.0437 303.159,72.1237" stroke="silver" stroke-opacity="0.5" stroke-width="1" /><polyline fill="none" points="195.7872,725.504 195.9867,714.5818 196.1866,703.6604 196.3869,692.7397 196.5877,681.8197 196.789,670.9004 196.9907,659.9818 197.1929,649.0638 197.3956,638.1464 197.5987,627.2296 197.8023,616.3134 198.0063,605.3977 198.2108,594.4825 198.4158,583.5677 198.6212,572.6535 198.8271,561.7396 199.0335,550.8262 199.2403,539.9132 199.4476,529.0004 199.6553,518.0881 199.8635,507.176 200.0722,496.2642 200.2814,485.3526 200.491,474.4413 200.7011,463.5301 200.9116,452.6192 201.1226,441.7083 201.3341,430.7976 201.5461,419.887 201.7585,408.9764 201.9714,398.0659 202.1848,387.1554 202.3986,376.2449 202.613,365.3344 202.8277,354.4237 203.043,343.513 203.2588,332.6022 203.475,321.6913 203.6916,310.7801 203.9088,299.8688 204.1265,288.9573 204.3446,278.0455 204.5632,267.1334 204.7822,256.221 205.0018,245.3084 205.2218,234.3953 205.4423,223.4819 205.6633,212.5681 205.8848,201.6539 206.1067,190.7392 206.3291,179.824 206.5521,168.9083 206.7754,157.9921 206.9993,147.0754 207.2237,136.158 207.4485,125.2401 207.6739,114.3215 207.8997,103.4022 208.126,92.4823 208.3528,81.5617 208.5801,70.6403" stroke="silver" stroke-opacity="0.5" stroke-width="1" /><polyline fill="none" points="94.8618,723.2083 95.1599,712.2829 95.4587,701.3582 95.7583,690.4344 96.0585,679.5113 96.3594,668.5888 96.661,657.6671 96.9632,646.746 97.2662,635.8255 97.5698,624.9057 97.8742,613.9864 98.1792,603.0676 98.4849,592.1494 98.7913,581.2317 99.0984,570.3144 99.4062,559.3976 99.7147,548.4813 100.0239,537.5653 100.3338,526.6497 100.6443,515.7344 100.9556,504.8194 101.2676,493.9047 101.5802,482.9903 101.8936,472.0762 102.2077,461.1622 102.5224,450.2484 102.8379,439.3348 103.154,428.4213 103.4709,417.508 103.7885,406.5947 104.1067,395.6815 104.4257,384.7683 104.7454,373.8551 105.0658,362.9418 105.3869,352.0286 105.7087,341.1152 106.0312,330.2018 106.3544,319.2883 106.6783,308.3745 107.003,297.4607 107.3283,286.5466 107.6544,275.6323 107.9812,264.7177 108.3086,253.8028 108.6368,242.8877 108.9658,231.9722 109.2954,221.0564 109.6257,210.1401 109.9568,199.2235 110.2886,188.3064 110.6211,177.3889 110.9543,166.4709 111.2883,155.5523 111.623,144.6332 111.9583,133.7136 112.2945,122.7934 112.6313,111.8725 112.9689,100.951 113.3072,90.0289 113.6462,79.106 113.986,68.1824" stroke="silver" stroke-opacity="0.5" stroke-width="1" /><polyline fill="none" points="736.9221,678.5545 729.2799,678.785 719.2247,679.0801 709.1699,679.3662 699.1154,679.643 689.0613,679.9107 679.0075,680.1692 668.954,680.4185 658.9008,680.6587 648.8479,680.8897 638.7953,681.1116 628.743,681.3243 618.6909,681.5278 608.6391,681.7222 598.5875,681.9075 588.5362,682.0836 578.485,682.2505 568.4341,682.4083 558.3834,682.557 548.3328,682.6965 538.2824,682.8268 528.2322,682.948 518.1821,683.0601 508.1321,683.163 498.0823,683.2568 488.0326,683.3414 477.9829,683.4169 467.9334,683.4833 457.8839,683.5405 447.8345,683.5885 437.7852,683.6275 427.7359,683.6573 417.6867,683.6779 407.6374,683.6894 397.5882,683.6918 387.5389,683.685 377.4897,683.6691 367.4404,683.6441 357.3911,683.6099 347.3418,683.5666 337.2923,683.5141 327.2428,683.4525 317.1933,683.3818 307.1436,683.3019 297.0938,683.2129 287.0439,683.1147 276.9939,683.0074 266.9437,682.891 256.8934,682.7654 246.843,682.6306 236.7923,682.4867 226.7415,682.3337 216.6904,682.1715 206.6392,682.0002 196.5877,681.8197 186.536,681.6301 176.4841,681.4313 166.4319,681.2233 156.3795,681.0062 146.3267,680.78 136.2737,680.5446 126.2204,680.3 116.1667,680.0462 106.1128,679.7833 96.0585,679.5113 86.0038,679.23 75.9488,678.9396 65.8935,678.64 63.0779,678.5545" stroke="silver" stroke-opacity="0.5" stroke-width="1" /><polyline fill="none" points="734.2318,591.1825 726.6508,591.4154 716.676,591.7137 706.7016,592.0028 696.7276,592.2826 686.7538,592.5531 676.7804,592.8143 666.8073,593.0663 656.8345,593.3091 646.8619,593.5426 636.8896,593.7668 626.9176,593.9818 616.9458,594.1875 606.9743,594.384 597.003,594.5712 587.0319,594.7491 577.061,594.9179 567.0903,595.0773 557.1198,595.2276 547.1494,595.3685 537.1792,595.5003 527.2092,595.6228 517.2393,595.736 507.2695,595.8401 497.2999,595.9348 487.3303,596.0204 477.3609,596.0967 467.3915,596.1637 457.4222,596.2216 447.453,596.2701 437.4838,596.3095 427.5147,596.3396 417.5456,596.3605 407.5765,596.3721 397.6074,596.3745 387.6383,596.3677 377.6692,596.3516 367.7001,596.3263 357.731,596.2918 347.7618,596.248 337.7925,596.195 327.8232,596.1327 317.8538,596.0612 307.8843,595.9805 297.9147,595.8905 287.945,595.7913 277.9752,595.6828 268.0052,595.5651 258.0351,595.4382 248.0648,595.302 238.0944,595.1566 228.1238,595.0019 218.153,594.838 208.182,594.6649 198.2108,594.4825 188.2394,594.2908 178.2677,594.0899 168.2959,593.8797 158.3237,593.6603 148.3513,593.4316 138.3786,593.1937 128.4056,592.9465 118.4324,592.6901 108.4588,592.4244 98.4849,592.1494 88.5107,591.8652 78.5361,591.5717 68.5612,591.2689 65.7682,591.1825" stroke="silver" stroke-opacity="0.5" stroke-width="1" /><polyline fill="none" points="731.4925,503.8427 723.9737,504.078 714.0809,504.3793 704.1884,504.6713 694.2962,504.9539 684.4043,505.2271 674.5127,505.491 664.6214,505.7456 654.7304,505.9908 644.8396,506.2266 634.9492,506.4531 625.0589,506.6702 615.1689,506.878 605.2791,507.0765 595.3895,507.2656 585.5001,507.4454 575.6109,507.6158 565.7219,507.7769 555.8331,507.9286 545.9445,508.071 536.0559,508.2041 526.1676,508.3278 516.2793,508.4422 506.3912,508.5473 496.5032,508.643 486.6153,508.7294 476.7275,508.8065 466.8398,508.8742 456.9521,508.9326 447.0645,508.9817 437.1769,509.0215 427.2894,509.0519 417.4019,509.073 407.5145,509.0847 397.627,509.0871 387.7395,509.0802 377.8521,509.064 367.9646,509.0384 358.077,509.0035 348.1895,508.9593 338.3018,508.9058 328.4141,508.8429 318.5264,508.7707 308.6385,508.6891 298.7506,508.5982 288.8625,508.498 278.9743,508.3885 269.086,508.2696 259.1976,508.1414 249.309,508.0038 239.4203,507.8569 229.5314,507.7007 219.6423,507.5351 209.753,507.3602 199.8635,507.176 189.9738,506.9824 180.0839,506.7795 170.1938,506.5672 160.3034,506.3456 150.4128,506.1146 140.5219,505.8743 130.6308,505.6246 120.7394,505.3655 110.8476,505.0972 100.9556,504.8194 91.0633,504.5323 81.1706,504.2359 71.2776,503.93 68.5075,503.8427" stroke="silver" stroke-opacity="0.5" stroke-width="1" /><polyline fill="none" points="728.7037,416.522 721.2483,416.7595 711.4389,417.0637 701.6297,417.3584 691.8209,417.6437 682.0123,417.9196 672.2041,418.186 662.3961,418.443 652.5883,418.6905 642.7809,418.9286 632.9736,419.1572 623.1666,419.3764 613.3598,419.5862 603.5532,419.7866 593.7469,419.9775 583.9407,420.1589 574.1347,420.331 564.3289,420.4936 554.5232,420.6468 544.7177,420.7906 534.9124,420.9249 525.1071,421.0498 515.302,421.1653 505.497,421.2714 495.6922,421.368 485.8874,421.4553 476.0827,421.5331 466.278,421.6014 456.4735,421.6604 446.669,421.7099 436.8645,421.7501 427.0601,421.7808 417.2557,421.8021 407.4513,421.8139 397.647,421.8164 387.8426,421.8094 378.0382,421.793 368.2338,421.7672 358.4294,421.732 348.6249,421.6873 338.8203,421.6333 329.0158,421.5698 319.2111,421.4969 309.4063,421.4146 299.6015,421.3228 289.7966,421.2216 279.9915,421.1111 270.1864,420.991 260.3811,420.8616 250.5757,420.7227 240.7701,420.5744 230.9643,420.4167 221.1584,420.2496 211.3524,420.073 201.5461,419.887 191.7396,419.6916 181.9329,419.4867 172.1261,419.2724 162.3189,419.0487 152.5116,418.8155 142.704,418.5729 132.8961,418.3208 123.088,418.0593 113.2796,417.7884 103.4709,417.508 93.6619,417.2181 83.8526,416.9188 74.043,416.6101 71.2963,416.522" stroke="silver" stroke-opacity="0.5" stroke-width="1" /><polyline fill="none" points="725.865,329.207 718.4742,329.4466 708.7496,329.7535 699.0253,330.0509 689.3013,330.3388 679.5776,330.6171 669.8541,330.8859 660.1309,331.1452 650.408,331.395 640.6853,331.6352 630.9628,331.8659 621.2405,332.0871 611.5184,332.2987 601.7965,332.5009 592.0749,332.6935 582.3534,332.8766 572.632,333.0502 562.9109,333.2143 553.1899,333.3688 543.469,333.5139 533.7483,333.6495 524.0277,333.7755 514.3072,333.892 504.5868,333.999 494.8666,334.0966 485.1464,334.1846 475.4263,334.2631 465.7063,334.3321 455.9863,334.3916 446.2664,334.4416 436.5465,334.482 426.8267,334.513 417.1068,334.5345 407.387,334.5465 397.6673,334.5489 387.9475,334.5419 378.2277,334.5254 368.5078,334.4993 358.788,334.4638 349.0681,334.4187 339.3481,334.3642 329.6281,334.3001 319.9081,334.2266 310.1879,334.1435 300.4677,334.0509 290.7474,333.9489 281.027,333.8373 271.3064,333.7162 261.5858,333.5856 251.865,333.4455 242.1441,333.2958 232.423,333.1367 222.7017,332.9681 212.9803,332.7899 203.2588,332.6022 193.537,332.405 183.815,332.1983 174.0929,331.9821 164.3705,331.7563 154.6479,331.5211 144.925,331.2763 135.202,331.0219 125.4786,330.7581 115.755,330.4847 106.0312,330.2018 96.3071,329.9094 86.5826,329.6074 76.8579,329.2959 74.135,329.207" stroke="silver" stroke-opacity="0.5" stroke-width="1" /><polyline fill="none" points="722.9761,241.8844 715.6509,242.1261 706.0127,242.4356 696.3748,242.7355 686.7371,243.0258 677.0997,243.3065 667.4626,243.5776 657.8256,243.839 648.189,244.0909 638.5525,244.3332 628.9162,244.5658 619.2802,244.7889 609.6444,245.0023 600.0087,245.2062 590.3732,245.4004 580.7379,245.5851 571.1028,245.7601 561.4678,245.9256 551.8329,246.0815 542.1982,246.2278 532.5636,246.3644 522.9291,246.4916 513.2948,246.6091 503.6605,246.717 494.0264,246.8153 484.3923,246.9041 474.7583,246.9833 465.1243,247.0528 455.4904,247.1128 445.8566,247.1632 436.2228,247.2041 426.5891,247.2353 416.9553,247.257 407.3216,247.269 397.6879,247.2715 388.0542,247.2644 378.4205,247.2478 368.7867,247.2215 359.153,247.1857 349.5191,247.1402 339.8853,247.0852 330.2514,247.0206 320.6174,246.9465 310.9834,246.8627 301.3493,246.7693 291.715,246.6664 282.0807,246.5539 272.4463,246.4317 262.8118,246.3 253.1772,246.1587 243.5424,246.0078 233.9075,245.8474 224.2724,245.6773 214.6372,245.4976 205.0018,245.3084 195.3662,245.1095 185.7305,244.901 176.0945,244.683 166.4584,244.4553 156.822,244.2181 147.1855,243.9712 137.5487,243.7147 127.9116,243.4487 118.2744,243.173 108.6368,242.8877 98.9991,242.5928 89.361,242.2883 79.7227,241.9741 77.0239,241.8844" stroke="silver" stroke-opacity="0.5" stroke-width="1" /><polyline fill="none" points="720.0364,154.5411 712.778,154.7847 703.2277,155.0967 693.6776,155.399 684.1278,155.6916 674.5783,155.9745 665.0289,156.2477 655.4798,156.5112 645.9309,156.7651 636.3823,157.0092 626.8338,157.2437 617.2855,157.4685 607.7374,157.6837 598.1894,157.8891 588.6416,158.0849 579.094,158.271 569.5466,158.4475 559.9993,158.6143 550.4521,158.7714 540.905,158.9188 531.3581,159.0566 521.8113,159.1847 512.2645,159.3031 502.7179,159.4119 493.1714,159.511 483.6249,159.6005 474.0785,159.6803 464.5322,159.7504 454.9859,159.8109 445.4397,159.8617 435.8935,159.9029 426.3473,159.9344 416.8012,159.9562 407.2551,159.9684 397.7089,159.9709 388.1628,159.9637 378.6167,159.9469 369.0705,159.9204 359.5244,159.8843 349.9781,159.8385 340.4319,159.7831 330.8856,159.718 321.3392,159.6432 311.7928,159.5588 302.2463,159.4647 292.6997,159.3609 283.1531,159.2475 273.6063,159.1244 264.0594,158.9917 254.5124,158.8492 244.9653,158.6972 235.4181,158.5354 225.8707,158.364 216.3231,158.1829 206.7754,157.9921 197.2276,157.7917 187.6796,157.5816 178.1314,157.3618 168.583,157.1324 159.0344,156.8932 149.4856,156.6444 139.9366,156.3859 130.3874,156.1177 120.838,155.8399 111.2883,155.5523 101.7384,155.2551 92.1882,154.9482 82.6378,154.6315 79.9636,154.5411" stroke="silver" stroke-opacity="0.5" stroke-width="1" /><polyline fill="none" points="717.0455,67.1638 709.855,67.4092 700.3941,67.7234 690.9335,68.0279 681.4731,68.3227 672.0129,68.6077 662.5529,68.8829 653.0931,69.1484 643.6335,69.4041 634.1741,69.6501 624.715,69.8863 615.2559,70.1128 605.7971,70.3295 596.3384,70.5365 586.8799,70.7337 577.4215,70.9212 567.9632,71.099 558.5051,71.267 549.0471,71.4252 539.5893,71.5738 530.1315,71.7126 520.6739,71.8416 511.2163,71.961 501.7588,72.0705 492.3014,72.1704 482.8441,72.2605 473.3869,72.3409 463.9297,72.4115 454.4725,72.4725 445.0154,72.5237 435.5584,72.5651 426.1013,72.5968 416.6443,72.6188 407.1873,72.6311 397.7303,72.6336 388.2733,72.6264 378.8163,72.6095 369.3593,72.5828 359.9022,72.5464 350.4452,72.5003 340.988,72.4444 331.5309,72.3788 322.0737,72.3035 312.6164,72.2185 303.159,72.1237 293.7016,72.0192 284.2441,71.9049 274.7865,71.7809 265.3288,71.6472 255.871,71.5037 246.413,71.3505 236.955,71.1875 227.4968,71.0149 218.0385,70.8324 208.5801,70.6403 199.1215,70.4384 189.6627,70.2267 180.2038,70.0053 170.7447,69.7741 161.2854,69.5332 151.8259,69.2826 142.3662,69.0222 132.9063,68.752 123.4463,68.4721 113.986,68.1824 104.5254,67.883 95.0647,67.5738 85.6037,67.2548 82.9545,67.1638" stroke="silver" stroke-opacity="0.5" stroke-width="1" /><circle cx="731.1162" cy="640.947" fill="black" r="0.738" stroke="none" /><circle cx="720.4407" cy="334.8899" fill="black" r="0.738" stroke="none" /><circle cx="721.7753" cy="433.5238" fill="black" r="0.936" stroke="none" /><circle cx="707.3975" cy="170.4393" fill="black" r="1.17" stroke="none" /><circle cx="698.2323" cy="240.4059" fill="black" r="0.738" stroke="none" /><circle cx="700.2172" cy="305.1959" fill="black" r="0.936" stroke="none" /><circle cx="699.7769" cy="467.047" fill="black" r="0.738" stroke="none" /><circle cx="698.8807" cy="521.341" fill="black" r="0.738" stroke="none" /><circle cx="692.4393" cy="373.8498" fill="black" r="0.738" stroke="none" /><circle cx="686.141" cy="202.3132" fill="black" r="0.738" stroke="none" /><circle cx="691.7309" cy="450.4127" fill="black" r="0.738" stroke="none" /><circle cx="689.74" cy="458.0707" fill="black" r="1.17" stroke="none" /><circle cx="687.8616" cy="544.8929" fill="black" r="0.738" stroke="none" /><circle cx="671.1504" cy="207.4695" fill="black" r="0.738" stroke="none" /><circle cx="673.3102" cy="287.1052" fill="black" r="0.738" stroke="none" /><circle cx="677.561" cy="549.1872" fill="black" r="1.17" stroke="none" /><circle cx="665.4412" cy="420.8102" fill="black" r="0.738" stroke="none" /><circle cx="655.6684" cy="177.6576" fill="black" r="0.936" stroke="none" /><circle cx="653.22" cy="93.1046" fill="black" r="0.738" stroke="none" /><circle cx="665.0176" cy="687.4201" fill="black" r="0.738" stroke="none" /><circle cx="660.9267" cy="620.6507" fill="black" r="0.738" stroke="none" /><circle cx="657.0446" cy="666.6285" fill="black" r="0.738" stroke="none" /><circle cx="648.3765" cy="371.8887" fill="black" r="0.738" stroke="none" /><circle cx="645.8783" cy="516.7721" fill="black" r="0.738" stroke="none" /><circle cx="635.9076" cy="373.3242" fill="black" r="0.738" stroke="none" /><circle cx="633.0664" cy="256.7843" fill="black" r="0.738" stroke="none" /><circle cx="629.3769" cy="173.8729" fill="black" r="0.738" stroke="none" /><circle cx="626.8683" cy="127.0916" fill="black" r="0.738" stroke="none" /><circle cx="632.3774" cy="469.3027" fill="black" r="0.738" stroke="none" /><circle cx="626.129" cy="594.4352" fill="black" r="0.738" stroke="none" /><circle cx="618.9952" cy="378.9463" fill="black" r="0.738" stroke="none" /><circle cx="618.7414" cy="635.7376" fill="black" r="0.738" stroke="none" /><circle cx="613.2701" cy="456.8765" fill="black" r="0.738" stroke="none" /><circle cx="616.5882" cy="685.065" fill="black" r="1.17" stroke="none" /><circle cx="583.4886" cy="232.0838" fill="black" r="0.738" stroke="none" /><circle cx="584.184" cy="276.9584" fill="black" r="0.738" stroke="none" /><circle cx="577.4337" cy="208.6162" fill="black" r="0.738" stroke="none" /><circle cx="576.9028" cy="306.5191" fill="black" r="0.738" stroke="none" /><circle cx="578.4435" cy="572.537" fill="black" r="0.738" stroke="none" /><circle cx="568.7435" cy="101.4097" fill="black" r="0.738" stroke="none" /><circle cx="572.5039" cy="343.6168" fill="black" r="0.936" stroke="none" /><circle cx="572.0987" cy="453.3671" fill="black" r="0.738" stroke="none" /><circle cx="564.4928" cy="118.6993" fill="black" r="0.738" stroke="none" /><circle cx="570.1862" cy="569.004" fill="black" r="0.738" stroke="none" /><circle cx="570.8393" cy="671.5376" fill="black" r="0.738" stroke="none" /><circle cx="560.7171" cy="313.0824" fill="black" r="0.738" stroke="none" /><circle cx="542.2466" cy="351.4271" fill="black" r="0.738" stroke="none" /><circle cx="541.8035" cy="331.2681" fill="black" r="0.738" stroke="none" /><circle cx="532.0304" cy="275.2702" fill="black" r="0.738" stroke="none" /><circle cx="529.6157" cy="205.0167" fill="black" r="0.738" stroke="none" /><circle cx="526.5115" cy="420.4215" fill="black" r="0.738" stroke="none" /><circle cx="519.1037" cy="357.8398" fill="black" r="0.738" stroke="none" /><circle cx="516.7449" cy="403.3429" fill="black" r="0.738" stroke="none" /><circle cx="511.753" cy="455.5074" fill="black" r="0.738" stroke="none" /><circle cx="508.1733" cy="175.5943" fill="black" r="0.738" stroke="none" /><circle cx="508.863" cy="256.9615" fill="black" r="0.738" stroke="none" /><circle cx="506.4451" cy="124.4345" fill="black" r="0.738" stroke="none" /><circle cx="505.4638" cy="125.1445" fill="black" r="0.738" stroke="none" /><circle cx="504.6343" cy="538.7686" fill="black" r="0.738" stroke="none" /><circle cx="504.235" cy="538.5107" fill="black" r="0.738" stroke="none" /><circle cx="488.0955" cy="115.2798" fill="black" r="0.738" stroke="none" /><circle cx="489.2475" cy="694.425" fill="black" r="0.738" stroke="none" /><circle cx="484.0324" cy="592.467" fill="black" r="0.738" stroke="none" /><circle cx="481.104" cy="411.8068" fill="black" r="1.476" stroke="none" /><circle cx="470.9716" cy="235.1396" fill="black" r="0.738" stroke="none" /><circle cx="458.5875" cy="211.4776" fill="black" r="1.17" stroke="none" /><circle cx="447.7407" cy="176.9644" fill="black" r="0.738" stroke="none" /><circle cx="448.0555" cy="383.3049" fill="black" r="0.936" stroke="none" /><circle cx="447.1703" cy="445.4452" fill="black" r="0.738" stroke="none" /><circle cx="445.7413" cy="460.026" fill="black" r="0.738" stroke="none" /><circle cx="443.7177" cy="619.2476" fill="black" r="0.738" stroke="none" /><circle cx="441.5491" cy="658.4621" fill="black" r="0.738" stroke="none" /><circle cx="434.5551" cy="603.2162" fill="black" r="0.738" stroke="none" /><circle cx="428.3595" cy="93.4681" fill="black" r="0.738" stroke="none" /><circle cx="418.3257" cy="363.1566" fill="black" r="0.738" stroke="none" /><circle cx="417.2739" cy="167.901" fill="black" r="0.738" stroke="none" /><circle cx="417.1677" cy="151.5729" fill="black" r="0.738" stroke="none" /><circle cx="409.8574" cy="93.3316" fill="black" r="0.738" stroke="none" /><circle cx="409.6314" cy="323.6357" fill="black" r="0.738" stroke="none" /><circle cx="406.3847" cy="229.0262" fill="black" r="0.738" stroke="none" /><circle cx="404.8559" cy="248.2308" fill="black" r="0.738" stroke="none" /><circle cx="404.065" cy="387.9564" fill="black" r="0.738" stroke="none" /><circle cx="394.8946" cy="598.9926" fill="black" r="0.738" stroke="none" /><circle cx="394.0355" cy="565.9071" fill="black" r="0.738" stroke="none" /><circle cx="393.1767" cy="667.1841" fill="black" r="0.738" stroke="none" /><circle cx="376.697" cy="425.1935" fill="black" r="0.738" stroke="none" /><circle cx="375.8405" cy="231.0931" fill="black" r="0.936" stroke="none" /><circle cx="372.6884" cy="98.1007" fill="black" r="0.738" stroke="none" /><circle cx="371.4507" cy="285.0234" fill="black" r="0.936" stroke="none" /><circle cx="369.8611" cy="455.2834" fill="black" r="0.738" stroke="none" /><circle cx="359.2464" cy="355.4981" fill="black" r="0.738" stroke="none" /><circle cx="360.3875" cy="82.8569" fill="black" r="0.738" stroke="none" /><circle cx="358.4705" cy="549.7664" fill="black" r="0.738" stroke="none" /><circle cx="355.6433" cy="256.2482" fill="black" r="0.738" stroke="none" /><circle cx="347.5753" cy="569.1843" fill="black" r="1.17" stroke="none" /><circle cx="346.2618" cy="674.2162" fill="black" r="0.738" stroke="none" /><circle cx="341.0504" cy="687.3779" fill="black" r="0.738" stroke="none" /><circle cx="333.8016" cy="146.902" fill="black" r="0.738" stroke="none" /><circle cx="324.9645" cy="375.5475" fill="black" r="0.738" stroke="none" /><circle cx="325.499" cy="164.829" fill="black" r="0.738" stroke="none" /><circle cx="318.2333" cy="329.849" fill="black" r="0.738" stroke="none" /><circle cx="315.6082" cy="355.3124" fill="black" r="0.738" stroke="none" /><circle cx="312.6637" cy="481.4908" fill="black" r="0.738" stroke="none" /><circle cx="310.5611" cy="267.635" fill="black" r="0.738" stroke="none" /><circle cx="306.0986" cy="509.6268" fill="black" r="0.738" stroke="none" /><circle cx="304.6179" cy="559.8075" fill="black" r="0.738" stroke="none" /><circle cx="301.2419" cy="138.7559" fill="black" r="0.738" stroke="none" /><circle cx="301.0161" cy="138.4915" fill="black" r="0.738" stroke="none" /><circle cx="286.533" cy="101.2024" fill="black" r="0.738" stroke="none" /><circle cx="283.0987" cy="383.0039" fill="black" r="0.738" stroke="none" /><circle cx="276.6587" cy="550.8768" fill="black" r="0.936" stroke="none" /><circle cx="276.5843" cy="550.4394" fill="black" r="0.738" stroke="none" /><circle cx="270.8455" cy="227.8131" fill="black" r="0.738" stroke="none" /><circle cx="271.9564" cy="106.7787" fill="black" r="0.738" stroke="none" /><circle cx="263.7433" cy="675.0772" fill="black" r="0.738" stroke="none" /><circle cx="264.2558" cy="545.4869" fill="black" r="0.738" stroke="none" /><circle cx="266.0662" cy="382.5303" fill="black" r="0.738" stroke="none" /><circle cx="261.1878" cy="617.0493" fill="black" r="0.738" stroke="none" /><circle cx="261.8328" cy="277.2807" fill="black" r="0.936" stroke="none" /><circle cx="256.8602" cy="471.0073" fill="black" r="0.738" stroke="none" /><circle cx="250.3783" cy="641.6226" fill="black" r="0.738" stroke="none" /><circle cx="255.3768" cy="269.3295" fill="black" r="0.738" stroke="none" /><circle cx="249.3196" cy="546.0709" fill="black" r="1.17" stroke="none" /><circle cx="250.6361" cy="438.0955" fill="black" r="0.738" stroke="none" /><circle cx="252.9486" cy="122.2233" fill="black" r="0.936" stroke="none" /><circle cx="248.552" cy="372.5053" fill="black" r="0.738" stroke="none" /><circle cx="245.4524" cy="101.6571" fill="black" r="0.738" stroke="none" /><circle cx="235.6474" cy="526.4834" fill="black" r="0.738" stroke="none" /><circle cx="230.4854" cy="700.4786" fill="black" r="0.738" stroke="none" /><circle cx="231.367" cy="566.4088" fill="black" r="1.17" stroke="none" /><circle cx="233.3899" cy="331.1449" fill="black" r="0.738" stroke="none" /><circle cx="232.9952" cy="187.6675" fill="black" r="0.738" stroke="none" /><circle cx="223.2277" cy="716.1827" fill="black" r="0.738" stroke="none" /><circle cx="214.8487" cy="109.2238" fill="black" r="0.738" stroke="none" /><circle cx="205.0933" cy="506.838" fill="black" r="0.738" stroke="none" /><circle cx="197.9784" cy="223.5028" fill="black" r="0.738" stroke="none" /><circle cx="176.3053" cy="269.0588" fill="black" r="1.854" stroke="none" /><circle cx="174.582" cy="310.5078" fill="black" r="0.738" stroke="none" /><circle cx="168.1783" cy="441.1049" fill="black" r="0.738" stroke="none" /><circle cx="172.1281" cy="246.0755" fill="black" r="0.738" stroke="none" /><circle cx="166.5901" cy="487.1845" fill="black" r="0.738" stroke="none" /><circle cx="168.7383" cy="236.2108" fill="black" r="0.738" stroke="none" /><circle cx="171.4411" cy="121.4565" fill="black" r="0.738" stroke="none" /><circle cx="161.8472" cy="382.3548" fill="black" r="0.738" stroke="none" /><circle cx="164.0325" cy="164.8849" fill="black" r="0.738" stroke="none" /><circle cx="150.5291" cy="571.9011" fill="black" r="0.738" stroke="none" /><circle cx="147.5761" cy="700.1281" fill="black" r="0.738" stroke="none" /><circle cx="154.7039" cy="319.8175" fill="black" r="0.738" stroke="none" /><circle cx="145.3505" cy="602.1866" fill="black" r="0.738" stroke="none" /><circle cx="153.4383" cy="262.0426" fill="black" r="0.738" stroke="none" /><circle cx="155.2775" cy="128.0398" fill="black" r="0.738" stroke="none" /><circle cx="126.4427" cy="623.2238" fill="black" r="0.738" stroke="none" /><circle cx="122.581" cy="661.8498" fill="black" r="0.738" stroke="none" /><circle cx="119.9676" cy="682.5039" fill="black" r="0.738" stroke="none" /><circle cx="125.74" cy="451.0673" fill="black" r="1.17" stroke="none" /><circle cx="112.3818" cy="577.1476" fill="black" r="0.738" stroke="none" /><circle cx="105.3539" cy="401.31" fill="black" r="0.738" stroke="none" /><circle cx="99.2382" cy="551.2646" fill="black" r="0.738" stroke="none" /><circle cx="96.7883" cy="479.2688" fill="black" r="0.936" stroke="none" /><circle cx="104.0929" cy="222.4711" fill="black" r="0.738" stroke="none" /><circle cx="104.9157" cy="127.1981" fill="black" r="1.17" stroke="none" /><circle cx="85.5174" cy="656.8287" fill="black" r="0.738" stroke="none" /><circle cx="89.8057" cy="376.4646" fill="black" r="0.738" stroke="none" /><circle cx="95.8856" cy="67.951" fill="black" r="0.936" stroke="none" /><circle cx="88.6814" cy="263.5082" fill="black" r="0.738" stroke="none" /><circle cx="83.8933" cy="323.5788" fill="black" r="0.738" stroke="none" /><circle cx="13.77" cy="786.23" fill="black" r="4.59" stroke="none" /><circle cx="13.77" cy="786.23" fill="black" r="4.59" stroke="none" /><text fill="black" font-family="monospace" font-size="12" x="10.77" y="775.64">1</text><circle cx="37.77" cy="786.23" fill="black" r="3.654" stroke="none" /><circle cx="37.77" cy="786.23" fill="black" r="3.654" stroke="none" /><text fill="black" font-family="monospace" font-size="12" x="34.769999999999996" y="775.64">2</text><circle cx="61.77" cy="786.23" fill="black" r="2.916" stroke="none" /><circle cx="61.77" cy="786.23" fill="black" r="2.916" stroke="none" /><text fill="black" font-family="monospace" font-size="12" x="58.769999999999996" y="775.64">3</text><circle cx="85.77" cy="786.23" fill="black" r="2.322" stroke="none" /><circle cx="85.77" cy="786.23" fill="black" r="2.322" stroke="none" /><text fill="black" font-family="monospace" font-size="12" x="82.77" y="775.64">4</text><circle cx="109.77" cy="786.23" fill="black" r="1.854" stroke="none" /><circle cx="109.77" cy="786.23" fill="black" r="1.854" stroke="none" /><text fill="black" font-family="monospace" font-size="12" x="106.77" y="775.64">5</text><circle cx="133.77" cy="786.23" fill="black" r="1.476" stroke="none" /><circle cx="133.77" cy="786.23" fill="black" r="1.476" stroke="none" /><text fill="black" font-family="monospace" font-size="12" x="130.77" y="775.64">6</text><circle cx="157.77" cy="786.23" fill="black" r="1.17" stroke="none" /><circle cx="157.77" cy="786.23" fill="black" r="1.17" stroke="none" /><text fill="black" font-family="monospace" font-size="12" x="154.77" y="775.64">7</text><circle cx="181.77" cy="786.23" fill="black" r="0.936" stroke="none" /><circle cx="181.77" cy="786.23" fill="black" r="0.936" stroke="none" /><text fill="black" font-family="monospace" font-size="12" x="178.77" y="775.64">8</text><circle cx="205.77" cy="786.23" fill="black" r="0.738" stroke="none" /><circle cx="205.77" cy="786.23" fill="black" r="0.738" stroke="none" /><text fill="black" font-family="monospace" font-size="12" x="202.77" y="775.64">9</text><text fill="gray" fill-opacity="0.5" font-family="monospace" font-size="12" x="700.2930956742557" y="723.3392795317257">17h20m</text><text fill="gray" fill-opacity="0.5" font-family="monospace" font-size="12" x="599.3690324580587" y="725.5913273077176">17h25m</text><text fill="gray" fill-opacity="0.5" font-family="monospace" font-size="12" x="498.468141618509" y="726.9331979265971">17h30m</text><text fill="gray" fill-opacity="0.5" font-family="monospace" font-size="12" x="397.578696915012" y="727.3658423763768">17h35m</text><text fill="gray" fill-opacity="0.5" font-family="monospace" font-size="12" x="296.6889707438483" y="726.8895672154151">17h40m</text><text fill="gray" fill-opacity="0.5" font-family="monospace" font-size="12" x="195.78723553473958" y="725.5040349684186">17h45m</text><text fill="gray" fill-opacity="0.5" font-family="monospace" font-size="12" x="94.86176514794175" y="723.2082636905016">17h50m</text><text fill="gray" fill-opacity="0.5" font-family="monospace" font-size="12" x="63.07789970309858" y="678.5544855573555">+23°</text><text fill="gray" fill-opacity="0.5" font-family="monospace" font-size="12" x="65.76816735382238" y="591.1824641633165">+24°</text><text fill="gray" fill-opacity="0.5" font-family="monospace" font-size="12" x="68.50751018885023" y="503.8427157871879">+25°</text><text fill="gray" fill-opacity="0.5" font-family="monospace" font-size="12" x="71.29630308000293" y="416.5219686139624">+26°</text><text fill="gray" fill-opacity="0.5" font-family="monospace" font-size="12" x="74.13495100104905" y="329.20696235641645">+27°</text><text fill="gray" fill-opacity="0.5" font-family="monospace" font-size="12" x="77.02388925642265" y="241.8844402117585">+28°</text><text fill="gray" fill-opacity="0.5" font-family="monospace" font-size="12" x="79.9635837491382" y="154.5411408227678">+29°</text><text fill="gray" fill-opacity="0.5" font-family="monospace" font-size="12" x="82.95453128825358" y="67.16379023307059">+30°</text><text fill="black" font-family="monospace" font-size="12" x="12" y="48">&gt;&gt; No.580 17h18m 17h52m +22.5°+30.0°</text><a target="_self" xlink:href="hip037.svg"><text fill="black" font-family="monospace" font-size="12" x="12" y="36">&gt; No.37 15h00m 18h00m +22.5°+52.5°</text></a><a target="_self" xlink:href="hip002.svg"><text fill="black" font-family="monospace" font-size="12" x="12" y="24">No.2 00h 24h +0.0°+90.0°</text></a><polyline fill="none" points="717.0455,67.1638 709.855,67.4092 700.3941,67.7234 690.9335,68.0279 681.4731,68.3227 672.0129,68.6077 662.5529,68.8829 653.0931,69.1484 643.6335,69.4041 634.1741,69.6501 624.715,69.8863 615.2559,70.1128 605.7971,70.3295 596.3384,70.5365 586.8799,70.7337 577.4215,70.9212 567.9632,71.099 558.5051,71.267 549.0471,71.4252 539.5893,71.5738 530.1315,71.7126 520.6739,71.8416 511.2163,71.961 501.7588,72.0705 492.3014,72.1704 482.8441,72.2605 473.3869,72.3409 463.9297,72.4115 454.4725,72.4725 445.0154,72.5237 435.5584,72.5651 426.1013,72.5968 416.6443,72.6188 407.1873,72.6311 397.7303,72.6336 388.2733,72.6264 378.8163,72.6095 369.3593,72.5828 359.9022,72.5464 350.4452,72.5003 340.988,72.4444 331.5309,72.3788 322.0737,72.3035 312.6164,72.2185 303.159,72.1237 293.7016,72.0192 284.2441,71.9049 274.7865,71.7809 265.3288,71.6472 255.871,71.5037 246.413,71.3505 236.955,71.1875 227.4968,71.0149 218.0385,70.8324 208.5801,70.6403 199.1215,70.4384 189.6627,70.2267 180.2038,70.0053 170.7447,69.7741 161.2854,69.5332 151.8259,69.2826 142.3662,69.0222 132.9063,68.752 123.4463,68.4721 113.986,68.1824 104.5254,67.883 95.0647,67.5738 85.6037,67.2548 82.9545,67.1638" stroke="black" stroke-opacity="0.5" stroke-width="1" /><polyline fill="none" points="738.2489,722.2568 737.9184,711.33 737.587,700.4041 737.255,689.4789 736.9221,678.5545 736.5885,667.6308 736.2541,656.7077 735.919,645.7854 735.5831,634.8636 735.2464,623.9425 734.909,613.0219 734.5708,602.1019 734.2318,591.1825 733.8921,580.2635 733.5516,569.345 733.2103,558.427 732.8683,547.5094 732.5255,536.5922 732.1819,525.6754 731.8376,514.7589 731.4925,503.8427 731.1466,492.9269 730.7999,482.0113 730.4525,471.0959 730.1043,460.1808 729.7553,449.2659 729.4056,438.3511 729.055,427.4365 728.7037,416.522 728.3516,405.6076 727.9987,394.6932 727.6451,383.7789 727.2906,372.8646 726.9354,361.9503 726.5794,351.0359 726.2226,340.1215 725.865,329.207 725.5067,318.2923 725.1475,307.3776 724.7876,296.4626 724.4269,285.5475 724.0654,274.6321 723.7031,263.7165 723.34,252.8006 722.9761,241.8844 722.6114,230.9679 722.246,220.0511 721.8797,209.1339 721.5126,198.2162 721.1448,187.2982 720.7761,176.3796 720.4067,165.4606 720.0364,154.5411 719.6654,143.6211 719.2935,132.7005 718.9208,121.7793 718.5474,110.8576 718.1731,99.9351 717.798,89.012 717.4222,78.0883 717.0455,67.1638" stroke="black" stroke-opacity="0.5" stroke-width="1" /><polyline fill="none" points="738.2489,722.2568 730.5766,722.486 720.4817,722.7795 710.3872,723.064 700.2931,723.3393 690.1993,723.6055 680.1059,723.8626 670.0127,724.1105 659.9199,724.3494 649.8274,724.5792 639.7352,724.7998 629.6433,725.0113 619.5516,725.2138 609.4602,725.4071 599.369,725.5913 589.2781,725.7665 579.1874,725.9325 569.0969,726.0894 559.0066,726.2372 548.9164,726.376 538.8265,726.5056 528.7367,726.6261 518.647,726.7376 508.5575,726.8399 498.4681,726.9332 488.3789,727.0174 478.2897,727.0924 468.2006,727.1584 458.1116,727.2153 448.0227,727.2631 437.9339,727.3019 427.845,727.3315 417.7562,727.352 407.6675,727.3635 397.5787,727.3658 387.4899,727.3591 377.4011,727.3433 367.3123,727.3184 357.2235,727.2844 347.1346,727.2413 337.0456,727.1892 326.9566,727.1279 316.8675,727.0575 306.7783,726.9781 296.689,726.8896 286.5995,726.7919 276.51,726.6852 266.4202,726.5694 256.3304,726.4445 246.2403,726.3105 236.1501,726.1674 226.0597,726.0152 215.9691,725.8539 205.8783,725.6835 195.7872,725.504 185.696,725.3154 175.6044,725.1177 165.5126,724.9109 155.4206,724.695 145.3282,724.47 135.2356,724.2359 125.1426,723.9927 115.0493,723.7403 104.9557,723.4788 94.8618,723.2083 84.7675,722.9286 74.6728,722.6397 64.5777,722.3418 61.7511,722.2568" stroke="black" stroke-opacity="0.5" stroke-width="1" /><polyline fill="none" points="61.7511,722.2568 62.0816,711.33 62.413,700.4041 62.745,689.4789 63.0779,678.5545 63.4115,667.6308 63.7459,656.7077 64.081,645.7854 64.4169,634.8636 64.7536,623.9425 65.091,613.0219 65.4292,602.1019 65.7682,591.1825 66.1079,580.2635 66.4484,569.345 66.7897,558.427 67.1317,547.5094 67.4745,536.5922 67.8181,525.6754 68.1624,514.7589 68.5075,503.8427 68.8534,492.9269 69.2001,482.0113 69.5475,471.0959 69.8957,460.1808 70.2447,449.2659 70.5944,438.3511 70.945,427.4365 71.2963,416.522 71.6484,405.6076 72.0013,394.6932 72.3549,383.7789 72.7094,372.8646 73.0646,361.9503 73.4206,351.0359 73.7774,340.1215 74.135,329.207 74.4933,318.2923 74.8525,307.3776 75.2124,296.4626 75.5731,285.5475 75.9346,274.6321 76.2969,263.7165 76.66,252.8006 77.0239,241.8844 77.3886,230.9679 77.754,220.0511 78.1203,209.1339 78.4874,198.2162 78.8552,187.2982 79.2239,176.3796 79.5933,165.4606 79.9636,154.5411 80.3346,143.6211 80.7065,132.7005 81.0792,121.7793 81.4526,110.8576 81.8269,99.9351 82.202,89.012 82.5778,78.0883 82.9545,67.1638" stroke="black" stroke-opacity="0.5" stroke-width="1" /></svg>