<?xml version="1.0" encoding="utf-8" ?>
<svg baseProfile="tiny" height="800" version="1.2" width="800" xmlns="http://www.w3.org/2000/svg" xmlns:ev="http://www.w3.org/2001/xml-events" xmlns:xlink="http://www.w3.org/1999/xlink"><defs /><rect fill="none" height="800" stroke="black" stroke-width="2" width="800" x="0" y="0" /><polyline fill="none" points="690.2283,725.9829 690.1238,715.0547 690.0186,704.1272 689.9128,693.2005 689.8062,682.2745 689.699,671.3492 689.5911,660.4246 689.4825,649.5006 689.3733,638.5772 689.2633,627.6544 689.1527,616.7321 689.0414,605.8104 688.9295,594.8892 688.8168,583.9684 688.7035,573.0481 688.5895,562.1283 688.4748,551.2088 688.3594,540.2897 688.2434,529.371 688.1267,518.4526 688.0093,507.5344 687.8912,496.6166 687.7724,485.699 687.653,474.7816 687.5328,463.8644 687.412,452.9474 687.2905,442.0305 687.1684,431.1137 687.0455,420.197 686.922,409.2804 686.7977,398.3638 686.6728,387.4473 686.5473,376.5307 686.421,365.6141 686.294,354.6974 686.1664,343.7806 686.0381,332.8637 685.9091,321.9466 685.7794,311.0294 685.649,300.112 685.5179,289.1944 685.3862,278.2765 685.2537,267.3584 685.1206,256.4399 684.9868,245.5211 684.8523,234.602 684.7171,223.6825 684.5812,212.7626 684.4447,201.8423 684.3074,190.9215 684.1695,180.0002 684.0309,169.0784 683.8915,158.1561 683.7515,147.2333 683.6108,136.3098 683.4694,125.3857 683.3273,114.461 683.1845,103.5357 683.0411,92.6096 682.8969,81.6828 682.752,70.7553" stroke="silver" stroke-opacity="0.5" stroke-width="1" /><polyline fill="none" points="581.9052,726.8227 581.8397,715.8997 581.7738,704.9775 581.7075,694.056 581.6408,683.1352 581.5736,672.2151 581.506,661.2957 581.438,650.3768 581.3696,639.4586 581.3007,628.5409 581.2314,617.6238 581.1617,606.7073 581.0915,595.7912 581.021,584.8756 580.95,573.9604 580.8786,563.0457 580.8067,552.1313 580.7344,541.2173 580.6617,530.3037 580.5886,519.3904 580.5151,508.4774 580.4411,497.5646 580.3667,486.6521 580.2919,475.7397 580.2166,464.8276 580.1409,453.9156 580.0648,443.0038 579.9883,432.0921 579.9113,421.1804 579.8339,410.2688 579.7561,399.3573 579.6779,388.4457 579.5992,377.5341 579.5201,366.6225 579.4406,355.7108 579.3606,344.799 579.2802,333.8871 579.1994,322.975 579.1181,312.0628 579.0365,301.1503 578.9544,290.2376 578.8718,279.3247 578.7889,268.4115 578.7055,257.498 578.6216,246.5841 578.5374,235.6699 578.4527,224.7553 578.3676,213.8403 578.282,202.9248 578.196,192.0089 578.1096,181.0925 578.0228,170.1756 577.9355,159.2581 577.8478,148.3401 577.7596,137.4215 577.671,126.5023 577.582,115.5824 577.4926,104.6619 577.4027,93.7406 577.3124,82.8186 577.2216,71.8959" stroke="silver" stroke-opacity="0.5" stroke-width="1" /><polyline fill="none" points="473.622,727.2771 473.5955,716.3569 473.5688,705.4375 473.542,694.5188 473.515,683.6009 473.4878,672.6836 473.4604,661.7669 473.4329,650.8509 473.4052,639.9354 473.3774,629.0206 473.3493,618.1063 473.3211,607.1925 473.2927,596.2792 473.2642,585.3664 473.2355,574.454 473.2066,563.542 473.1775,552.6304 473.1482,541.7192 473.1188,530.8083 473.0892,519.8978 473.0595,508.9875 473.0296,498.0775 472.9994,487.1677 472.9692,476.2581 472.9387,465.3487 472.9081,454.4395 472.8773,443.5304 472.8463,432.6214 472.8152,421.7124 472.7839,410.8036 472.7524,399.8947 472.7207,388.9859 472.6889,378.077 472.6569,367.1681 472.6247,356.2591 472.5924,345.35 472.5598,334.4408 472.5271,323.5314 472.4943,312.6218 472.4612,301.712 472.428,290.802 472.3946,279.8918 472.361,268.9812 472.3273,258.0704 472.2934,247.1592 472.2593,236.2476 472.225,225.3357 472.1906,214.4233 472.1559,203.5105 472.1212,192.5972 472.0862,181.6835 472.051,170.7692 472.0157,159.8544 471.9802,148.939 471.9446,138.023 471.9087,127.1063 471.8727,116.1891 471.8365,105.2711 471.8002,94.3525 471.7636,83.4331 471.7269,72.513" stroke="silver" stroke-opacity="0.5" stroke-width="1" /><polyline fill="none" points="365.3548,727.3464 365.3673,716.4267 365.3798,705.5077 365.3925,694.5894 365.4052,683.6719 365.418,672.755 365.4308,661.8388 365.4438,650.9232 365.4568,640.0082 365.4699,629.0937 365.4831,618.1798 365.4964,607.2665 365.5098,596.3536 365.5232,585.4412 365.5367,574.5292 365.5503,563.6177 365.564,552.7065 365.5777,541.7957 365.5916,530.8853 365.6055,519.9751 365.6195,509.0653 365.6336,498.1557 365.6478,487.2463 365.662,476.3372 365.6763,465.4282 365.6907,454.5194 365.7052,443.6107 365.7198,432.7021 365.7345,421.7936 365.7492,410.8851 365.764,399.9767 365.7789,389.0683 365.7939,378.1598 365.809,367.2513 365.8241,356.3427 365.8393,345.434 365.8546,334.5252 365.87,323.6162 365.8855,312.7071 365.901,301.7977 365.9167,290.8881 365.9324,279.9783 365.9482,269.0681 365.9641,258.1577 365.98,247.2469 365.9961,236.3357 366.0122,225.4242 366.0284,214.5122 366.0447,203.5998 366.0611,192.6869 366.0775,181.7736 366.094,170.8597 366.1107,159.9453 366.1274,149.0303 366.1441,138.1147 366.161,127.1985 366.178,116.2816 366.195,105.3641 366.2121,94.4458 366.2293,83.5269 366.2466,72.6071" stroke="silver" stroke-opacity="0.5" stroke-width="1" /><polyline fill="none" points="257.0801,727.0307 257.1315,716.109 257.1833,705.188 257.2354,694.2678 257.2878,683.3483 257.3406,672.4295 257.3937,661.5113 257.4471,650.5938 257.5009,639.6768 257.555,628.7605 257.6095,617.8446 257.6642,606.9293 257.7193,596.0145 257.7748,585.1002 257.8305,574.1863 257.8866,563.2728 257.9431,552.3597 257.9999,541.447 258.057,530.5347 258.1144,519.6226 258.1722,508.7108 258.2303,497.7993 258.2887,486.888 258.3475,475.977 258.4067,465.0661 258.4661,454.1554 258.5259,443.2448 258.586,432.3343 258.6465,421.4239 258.7073,410.5136 258.7684,399.6032 258.8299,388.6929 258.8917,377.7826 258.9538,366.8722 259.0163,355.9617 259.0791,345.0512 259.1423,334.1405 259.2058,323.2296 259.2696,312.3186 259.3338,301.4074 259.3983,290.4959 259.4631,279.5842 259.5283,268.6722 259.5938,257.7599 259.6596,246.8473 259.7258,235.9343 259.7924,225.0209 259.8592,214.1071 259.9264,203.1929 259.994,192.2782 260.0619,181.363 260.1301,170.4473 260.1987,159.531 260.2676,148.6142 260.3368,137.6968 260.4064,126.7787 260.4763,115.8601 260.5466,104.9407 260.6172,94.0207 260.6882,83.0999 260.7595,72.1784" stroke="silver" stroke-opacity="0.5" stroke-width="1" /><polyline fill="none" points="148.7741,726.3297 148.8645,715.4036 148.9556,704.4783 149.0472,693.5538 149.1394,682.6299 149.2322,671.7068 149.3256,660.7843 149.4195,649.8624 149.5141,638.9412 149.6092,628.0205 149.705,617.1003 149.8013,606.1807 149.8982,595.2616 149.9957,584.343 150.0937,573.4248 150.1924,562.5071 150.2917,551.5897 150.3915,540.6728 150.4919,529.7561 150.5929,518.8398 150.6945,507.9238 150.7967,497.008 150.8995,486.0925 151.0029,475.1772 151.1069,464.2621 151.2114,453.3472 151.3166,442.4324 151.4223,431.5177 151.5286,420.6031 151.6355,409.6886 151.743,398.774 151.8511,387.8595 151.9598,376.945 152.0691,366.0305 152.179,355.1158 152.2894,344.2011 152.4005,333.2863 152.5121,322.3713 152.6244,311.4561 152.7372,300.5408 152.8506,289.6252 152.9647,278.7093 153.0793,267.7932 153.1945,256.8768 153.3103,245.9601 153.4267,235.043 153.5437,224.1255 153.6613,213.2076 153.7795,202.2893 153.8982,191.3705 154.0176,180.4512 154.1376,169.5315 154.2582,158.6112 154.3794,147.6903 154.5011,136.7688 154.6235,125.8468 154.7465,114.9241 154.8701,104.0007 154.9942,93.0766 155.119,82.1518 155.2444,71.2263" stroke="silver" stroke-opacity="0.5" stroke-width="1" /><polyline fill="none" points="731.3573,681.8389 722.2671,681.9392 711.4461,682.0549 700.6258,682.1667 689.8062,682.2745 678.9872,682.3784 668.1688,682.4783 657.351,682.5743 646.5338,682.6663 635.7171,682.7543 624.9009,682.8384 614.0852,682.9185 603.2699,682.9947 592.4552,683.0669 581.6408,683.1352 570.8268,683.1996 560.0132,683.2599 549.2,683.3164 538.387,683.3689 527.5744,683.4174 516.762,683.462 505.95,683.5026 495.1381,683.5393 484.3264,683.5721 473.515,683.6009 462.7037,683.6257 451.8925,683.6466 441.0814,683.6636 430.2704,683.6766 419.4595,683.6857 408.6487,683.6908 397.8378,683.692 387.027,683.6892 376.2161,683.6825 365.4052,683.6719 354.5942,683.6573 343.7831,683.6387 332.9718,683.6162 322.1605,683.5898 311.3489,683.5594 300.5372,683.5251 289.7252,683.4868 278.913,683.4446 268.1006,683.3984 257.2878,683.3483 246.4748,683.2943 235.6614,683.2363 224.8476,683.1743 214.0335,683.1084 203.219,683.0385 192.404,682.9647 181.5886,682.8869 170.7727,682.8052 159.9563,682.7196 149.1394,682.6299 138.3219,682.5364 127.5039,682.4388 116.6853,682.3373 105.866,682.2319 95.0461,682.1225 84.2256,682.0091 73.4043,681.8918 68.6427,681.8389" stroke="silver" stroke-opacity="0.5" stroke-width="1" /><polyline fill="none" points="730.3545,594.4326 721.2919,594.5377 710.5038,594.659 699.7163,594.7762 688.9295,594.8892 678.1432,594.998 667.3576,595.1027 656.5726,595.2033 645.7881,595.2997 635.0041,595.392 624.2207,595.4801 613.4377,595.5641 602.6552,595.6439 591.8732,595.7196 581.0915,595.7912 570.3103,595.8586 559.5294,595.9219 548.7488,595.981 537.9686,596.036 527.1887,596.0869 516.409,596.1336 505.6297,596.1762 494.8505,596.2147 484.0715,596.249 473.2927,596.2792 462.5141,596.3052 451.7356,596.3271 440.9572,596.3449 430.1789,596.3586 419.4007,596.3681 408.6225,596.3735 397.8444,596.3747 387.0662,596.3718 376.288,596.3648 365.5098,596.3536 354.7314,596.3383 343.953,596.3189 333.1745,596.2953 322.3958,596.2676 311.6169,596.2358 300.8379,596.1998 290.0586,596.1597 279.2791,596.1154 268.4994,596.0671 257.7193,596.0145 246.939,595.9579 236.1583,595.8971 225.3773,595.8321 214.5959,595.7631 203.814,595.6898 193.0318,595.6125 182.2491,595.531 171.466,595.4454 160.6823,595.3556 149.8982,595.2616 139.1135,595.1636 128.3282,595.0614 117.5423,594.955 106.7559,594.8445 95.9688,594.7298 85.181,594.611 74.3926,594.4881 69.6455,594.4326" stroke="silver" stroke-opacity="0.5" stroke-width="1" /><polyline fill="none" points="729.3021,507.0572 720.2685,507.1671 709.5147,507.2939 698.7617,507.4163 688.0093,507.5344 677.2574,507.6482 666.5062,507.7577 655.7556,507.8628 645.0055,507.9636 634.2559,508.06 623.5068,508.1522 612.7582,508.24 602.0101,508.3234 591.2624,508.4025 580.5151,508.4774 569.7682,508.5478 559.0216,508.614 548.2754,508.6758 537.5295,508.7333 526.7839,508.7865 516.0386,508.8353 505.2935,508.8798 494.5486,508.92 483.804,508.9559 473.0595,508.9875 462.3152,509.0147 451.571,509.0376 440.8269,509.0562 430.0829,509.0705 419.339,509.0804 408.5951,509.086 397.8512,509.0873 387.1074,509.0843 376.3635,509.0769 365.6195,509.0653 354.8755,509.0493 344.1314,509.029 333.3871,509.0043 322.6427,508.9754 311.8982,508.9421 301.1535,508.9045 290.4085,508.8626 279.6633,508.8163 268.9179,508.7657 258.1722,508.7108 247.4262,508.6516 236.6798,508.588 225.9331,508.5202 215.1861,508.4479 204.4386,508.3714 193.6907,508.2905 182.9424,508.2054 172.1936,508.1158 161.4443,508.022 150.6945,507.9238 139.9442,507.8213 129.1934,507.7144 118.4419,507.6032 107.6899,507.4877 96.9372,507.3678 86.1838,507.2437 75.4299,507.1151 70.6979,507.0572" stroke="silver" stroke-opacity="0.5" stroke-width="1" /><polyline fill="none" points="728.1999,419.6993 719.1966,419.8139 708.4789,419.9461 697.7619,420.0738 687.0455,420.197 676.3297,420.3157 665.6145,420.4299 654.8999,420.5395 644.1858,420.6446 633.4722,420.7452 622.7592,420.8413 612.0466,420.9328 601.3344,421.0199 590.6227,421.1024 579.9113,421.1804 569.2004,421.2539 558.4898,421.3229 547.7795,421.3874 537.0696,421.4473 526.3599,421.5028 515.6505,421.5537 504.9414,421.6002 494.2325,421.6421 483.5237,421.6795 472.8152,421.7124 462.1068,421.7408 451.3985,421.7647 440.6904,421.7841 429.9823,421.799 419.2743,421.8093 408.5664,421.8152 397.8584,421.8166 387.1505,421.8134 376.4425,421.8057 365.7345,421.7936 355.0264,421.7769 344.3182,421.7557 333.6099,421.73 322.9014,421.6998 312.1928,421.6651 301.484,421.6259 290.775,421.5821 280.0657,421.5339 269.3563,421.4812 258.6465,421.4239 247.9364,421.3621 237.226,421.2958 226.5153,421.2251 215.8042,421.1497 205.0927,421.0699 194.3808,420.9856 183.6685,420.8967 172.9557,420.8034 162.2424,420.7055 151.5286,420.6031 140.8143,420.4962 130.0995,420.3847 119.384,420.2688 108.668,420.1483 97.9514,420.0233 87.2341,419.8938 76.5162,419.7597 71.8001,419.6993" stroke="silver" stroke-opacity="0.5" stroke-width="1" /><polyline fill="none" points="727.0478,332.3457 718.0761,332.465 707.3961,332.6026 696.7168,332.7355 686.0381,332.8637 675.36,332.9872 664.6824,333.106 654.0055,333.2201 643.329,333.3295 632.6531,333.4342 621.9776,333.5341 611.3026,333.6294 600.6281,333.72 589.9539,333.8059 579.2802,333.8871 568.6069,333.9636 557.9339,334.0354 547.2612,334.1025 536.5888,334.1649 525.9167,334.2226 515.2449,334.2756 504.5733,334.3239 493.902,334.3676 483.2308,334.4065 472.5598,334.4408 461.889,334.4703 451.2183,334.4952 440.5477,334.5153 429.8772,334.5308 419.2067,334.5416 408.5363,334.5477 397.8659,334.5491 387.1955,334.5458 376.5251,334.5379 365.8546,334.5252 355.1841,334.5078 344.5134,334.4858 333.8427,334.4591 323.1718,334.4276 312.5007,334.3915 301.8295,334.3507 291.1581,334.3052 280.4864,334.255 269.8145,334.2001 259.1423,334.1405 248.4698,334.0762 237.797,334.0072 227.1238,333.9335 216.4503,333.8552 205.7765,333.7721 195.1022,333.6843 184.4274,333.5919 173.7523,333.4947 163.0766,333.3928 152.4005,333.2863 141.7238,333.175 131.0466,333.059 120.3689,332.9384 109.6905,332.813 99.0116,332.6829 88.332,332.5481 77.6517,332.4086 72.9522,332.3457" stroke="silver" stroke-opacity="0.5" stroke-width="1" /><polyline fill="none" points="725.8455,244.9831 716.9068,245.107 706.2662,245.2499 695.6262,245.388 684.9868,245.5211 674.348,245.6494 663.7098,245.7728 653.0721,245.8913 642.4349,246.0049 631.7982,246.1137 621.1621,246.2175 610.5263,246.3165 599.891,246.4106 589.2561,246.4998 578.6216,246.5841 567.9875,246.6635 557.3537,246.7381 546.7203,246.8078 536.0871,246.8726 525.4543,246.9326 514.8217,246.9876 504.1893,247.0378 493.5571,247.0832 482.9252,247.1236 472.2934,247.1592 461.6617,247.1899 451.0302,247.2157 440.3988,247.2366 429.7675,247.2527 419.1362,247.2639 408.505,247.2703 397.8738,247.2717 387.2425,247.2683 376.6113,247.26 365.98,247.2469 355.3487,247.2288 344.7172,247.2059 334.0856,247.1782 323.4539,247.1455 312.8221,247.108 302.19,247.0656 291.5578,247.0183 280.9253,246.9662 270.2926,246.9092 259.6596,246.8473 249.0264,246.7805 238.3928,246.7089 227.7589,246.6324 217.1246,246.5509 206.49,246.4647 195.8549,246.3735 185.2194,246.2775 174.5835,246.1766 163.9472,246.0707 153.3103,245.9601 142.6729,245.8445 132.035,245.724 121.3965,245.5987 110.7575,245.4685 100.1179,245.3334 89.4776,245.1933 78.8367,245.0485 74.1545,244.9831" stroke="silver" stroke-opacity="0.5" stroke-width="1" /><polyline fill="none" points="724.5929,157.5984 715.6886,157.7268 705.089,157.8749 694.49,158.0181 683.8915,158.1561 673.2937,158.2891 662.6964,158.417 652.0996,158.5399 641.5034,158.6577 630.9076,158.7704 620.3123,158.8781 609.7175,158.9807 599.1231,159.0782 588.5291,159.1707 577.9355,159.2581 567.3422,159.3405 556.7493,159.4178 546.1567,159.4901 535.5644,159.5573 524.9724,159.6194 514.3807,159.6765 503.7891,159.7286 493.1978,159.7755 482.6067,159.8175 472.0157,159.8544 461.4249,159.8862 450.8342,159.913 440.2437,159.9347 429.6531,159.9513 419.0627,159.963 408.4723,159.9695 397.8819,159.971 387.2915,159.9675 376.7011,159.9589 366.1107,159.9453 355.5201,159.9266 344.9295,159.9029 334.3388,159.8741 323.7479,159.8402 313.1569,159.8013 302.5657,159.7574 291.9743,159.7084 281.3827,159.6543 270.7908,159.5952 260.1987,159.531 249.6063,159.4618 239.0135,159.3875 228.4205,159.3082 217.8271,159.2238 207.2333,159.1343 196.6392,159.0398 186.0446,158.9402 175.4496,158.8356 164.8541,158.7259 154.2582,158.6112 143.6617,158.4914 133.0648,158.3665 122.4673,158.2365 111.8692,158.1015 101.2705,157.9614 90.6712,157.8163 80.0713,157.6661 75.4071,157.5984" stroke="silver" stroke-opacity="0.5" stroke-width="1" /><polyline fill="none" points="723.2896,70.178 714.4213,70.3109 703.8642,70.4643 693.3078,70.6124 682.752,70.7553 672.1968,70.893 661.6421,71.0254 651.0879,71.1525 640.5342,71.2744 629.981,71.3911 619.4283,71.5026 608.876,71.6088 598.3242,71.7097 587.7727,71.8054 577.2216,71.8959 566.6709,71.9812 556.1205,72.0612 545.5704,72.136 535.0206,72.2055 524.4711,72.2699 513.9219,72.329 503.3728,72.3828 492.824,72.4314 482.2754,72.4748 471.7269,72.513 461.1786,72.546 450.6304,72.5737 440.0822,72.5961 429.5342,72.6134 418.9863,72.6254 408.4383,72.6322 397.8904,72.6338 387.3425,72.6301 376.7946,72.6212 366.2466,72.6071 355.6985,72.5878 345.1504,72.5632 334.6021,72.5334 324.0537,72.4984 313.5052,72.4581 302.9565,72.4126 292.4076,72.3619 281.8585,72.3059 271.3091,72.2448 260.7595,72.1784 250.2096,72.1067 239.6594,72.0298 229.1089,71.9477 218.558,71.8604 208.0068,71.7678 197.4551,71.67 186.9031,71.5669 176.3507,71.4586 165.7977,71.3451 155.2444,71.2263 144.6905,71.1023 134.1361,70.973 123.5812,70.8385 113.0257,70.6988 102.4697,70.5538 91.913,70.4036 81.3558,70.2481 76.7104,70.178" stroke="silver" stroke-opacity="0.5" stroke-width="1" /><line fill="none" stroke="green" stroke-opacity="0.5" stroke-width="1.5" x1="329.7607" x2="441.535" y1="319.3681" y2="436.4971" /><circle cx="725.814" cy="310.6066" fill="black" r="0.738" stroke="none" /><circle cx="722.9517" cy="126.6738" fill="black" r="0.738" stroke="none" /><circle cx="712.2139" cy="213.0129" fill="black" r="0.738" stroke="none" /><circle cx="707.532" cy="583.419" fill="black" r="1.17" stroke="none" /><circle cx="706.336" cy="715.6817" fill="black" r="0.738" stroke="none" /><circle cx="695.5269" cy="78.3642" fill="black" r="0.738" stroke="none" /><circle cx="699.9289" cy="681.7367" fill="black" r="0.738" stroke="none" /><circle cx="696.335" cy="475.1217" fill="black" r="0.738" stroke="none" /><circle cx="678.0929" cy="448.5074" fill="black" r="0.738" stroke="none" /><circle cx="672.8251" cy="182.4129" fill="black" r="0.738" stroke="none" /><circle cx="672.8474" cy="329.8713" fill="black" r="0.738" stroke="none" /><circle cx="668.8646" cy="645.1547" fill="black" r="0.738" stroke="none" /><circle cx="664.5019" cy="531.3606" fill="black" r="0.738" stroke="none" /><circle cx="659.5351" cy="598.3211" fill="black" r="0.738" stroke="none" /><circle cx="649.8734" cy="441.2856" fill="black" r="0.738" stroke="none" /><circle cx="651.0145" cy="700.895" fill="black" r="0.738" stroke="none" /><circle cx="646.1667" cy="236.7943" fill="black" r="0.738" stroke="none" /><circle cx="636.1204" cy="312.4428" fill="black" r="0.738" stroke="none" /><circle cx="628.4418" cy="242.3041" fill="black" r="0.936" stroke="none" /><circle cx="627.3302" cy="472.7545" fill="black" r="0.738" stroke="none" /><circle cx="623.5252" cy="141.2848" fill="black" r="0.738" stroke="none" /><circle cx="623.1794" cy="562.4736" fill="black" r="0.738" stroke="none" /><circle cx="603.5631" cy="578.1703" fill="black" r="0.738" stroke="none" /><circle cx="599.8847" cy="558.2861" fill="black" r="0.738" stroke="none" /><circle cx="590.7454" cy="210.6835" fill="black" r="0.738" stroke="none" /><circle cx="587.9169" cy="259.7831" fill="black" r="0.738" stroke="none" /><circle cx="577.3066" cy="344.2902" fill="black" r="0.738" stroke="none" /><circle cx="573.2756" cy="105.9193" fill="black" r="0.738" stroke="none" /><circle cx="566.4077" cy="480.0218" fill="black" r="0.738" stroke="none" /><circle cx="563.2511" cy="121.9848" fill="black" r="0.738" stroke="none" /><circle cx="556.2532" cy="659.4326" fill="black" r="0.738" stroke="none" /><circle cx="545.1983" cy="360.5634" fill="black" r="0.936" stroke="none" /><circle cx="543.7438" cy="206.2261" fill="black" r="0.738" stroke="none" /><circle cx="542.4681" cy="233.2142" fill="black" r="0.738" stroke="none" /><circle cx="542.6447" cy="468.9884" fill="black" r="0.738" stroke="none" /><circle cx="540.6394" cy="702.4026" fill="black" r="0.738" stroke="none" /><circle cx="538.5905" cy="386.438" fill="black" r="0.738" stroke="none" /><circle cx="534.5979" cy="283.8091" fill="black" r="0.936" stroke="none" /><circle cx="533.5229" cy="335.5785" fill="black" r="0.738" stroke="none" /><circle cx="522.7158" cy="579.0811" fill="black" r="0.738" stroke="none" /><circle cx="516.6287" cy="73.4501" fill="black" r="0.738" stroke="none" /><circle cx="514.6588" cy="214.3367" fill="black" r="0.738" stroke="none" /><circle cx="507.957" cy="234.1875" fill="black" r="0.738" stroke="none" /><circle cx="507.9951" cy="455.1025" fill="black" r="0.738" stroke="none" /><circle cx="508.0078" cy="521.1767" fill="black" r="0.738" stroke="none" /><circle cx="506.6646" cy="573.6471" fill="black" r="0.738" stroke="none" /><circle cx="503.5424" cy="143.2242" fill="black" r="0.738" stroke="none" /><circle cx="504.7625" cy="461.8363" fill="black" r="0.738" stroke="none" /><circle cx="497.1921" cy="650.8684" fill="black" r="0.738" stroke="none" /><circle cx="481.2824" cy="390.7922" fill="black" r="0.738" stroke="none" /><circle cx="470.9802" cy="101.8674" fill="black" r="0.738" stroke="none" /><circle cx="465.923" cy="692.2657" fill="black" r="0.738" stroke="none" /><circle cx="453.2595" cy="111.963" fill="black" r="1.17" stroke="none" /><circle cx="444.7068" cy="231.9528" fill="black" r="0.738" stroke="none" /><circle cx="441.4853" cy="436.5313" fill="black" r="1.854" stroke="none" /><circle cx="435.1815" cy="284.4279" fill="black" r="0.738" stroke="none" /><circle cx="434.2358" cy="463.8574" fill="black" r="0.738" stroke="none" /><circle cx="433.5284" cy="585.1805" fill="black" r="0.738" stroke="none" /><circle cx="430.5224" cy="114.8891" fill="black" r="0.936" stroke="none" /><circle cx="429.5034" cy="529.2327" fill="black" r="0.738" stroke="none" /><circle cx="427.0618" cy="414.3845" fill="black" r="0.738" stroke="none" /><circle cx="426.6321" cy="677.1299" fill="black" r="0.738" stroke="none" /><circle cx="415.8412" cy="157.084" fill="black" r="0.738" stroke="none" /><circle cx="410.2312" cy="305.4854" fill="black" r="0.738" stroke="none" /><circle cx="409.866" cy="703.4297" fill="black" r="0.738" stroke="none" /><circle cx="407.8554" cy="93.6848" fill="black" r="0.738" stroke="none" /><circle cx="393.3168" cy="427.1391" fill="black" r="0.936" stroke="none" /><circle cx="383.7669" cy="114.3804" fill="black" r="0.738" stroke="none" /><circle cx="376.9818" cy="134.5483" fill="black" r="0.738" stroke="none" /><circle cx="376.4662" cy="589.4683" fill="black" r="0.738" stroke="none" /><circle cx="373.4673" cy="172.0048" fill="black" r="0.738" stroke="none" /><circle cx="371.0335" cy="219.0585" fill="black" r="0.738" stroke="none" /><circle cx="362.1416" cy="361.9225" fill="black" r="0.738" stroke="none" /><circle cx="355.8266" cy="405.0227" fill="black" r="0.738" stroke="none" /><circle cx="351.138" cy="484.9543" fill="black" r="0.738" stroke="none" /><circle cx="346.4967" cy="404.3065" fill="black" r="0.738" stroke="none" /><circle cx="333.4099" cy="720.0422" fill="black" r="0.738" stroke="none" /><circle cx="333.3595" cy="555.1785" fill="black" r="0.738" stroke="none" /><circle cx="329.7889" cy="319.349" fill="black" r="1.476" stroke="none" /><circle cx="329.3687" cy="72.9535" fill="black" r="0.738" stroke="none" /><circle cx="322.4129" cy="82.8013" fill="black" r="0.738" stroke="none" /><circle cx="316.2419" cy="265.8882" fill="black" r="0.738" stroke="none" /><circle cx="316.1631" cy="149.0718" fill="black" r="0.738" stroke="none" /><circle cx="311.6197" cy="708.9792" fill="black" r="0.738" stroke="none" /><circle cx="307.188" cy="479.4247" fill="black" r="0.738" stroke="none" /><circle cx="299.8825" cy="458.8871" fill="black" r="0.738" stroke="none" /><circle cx="299.8118" cy="246.2698" fill="black" r="0.738" stroke="none" /><circle cx="285.8674" cy="697.0118" fill="black" r="0.738" stroke="none" /><circle cx="286.004" cy="134.4387" fill="black" r="0.738" stroke="none" /><circle cx="282.1062" cy="462.391" fill="black" r="0.738" stroke="none" /><circle cx="281.213" cy="567.3119" fill="black" r="0.738" stroke="none" /><circle cx="280.1459" cy="636.0247" fill="black" r="0.738" stroke="none" /><circle cx="278.275" cy="455.9144" fill="black" r="0.738" stroke="none" /><circle cx="268.3529" cy="466.9513" fill="black" r="0.936" stroke="none" /><circle cx="258.6184" cy="712.9706" fill="black" r="0.738" stroke="none" /><circle cx="253.9392" cy="263.7492" fill="black" r="0.738" stroke="none" /><circle cx="249.8148" cy="379.4751" fill="black" r="0.738" stroke="none" /><circle cx="229.6716" cy="161.9381" fill="black" r="0.738" stroke="none" /><circle cx="219.7687" cy="596.146" fill="black" r="0.738" stroke="none" /><circle cx="215.651" cy="304.4275" fill="black" r="0.738" stroke="none" /><circle cx="208.0545" cy="472.2521" fill="black" r="0.738" stroke="none" /><circle cx="206.4848" cy="522.7057" fill="black" r="1.17" stroke="none" /><circle cx="201.5494" cy="712.9988" fill="black" r="0.738" stroke="none" /><circle cx="202.3461" cy="489.1475" fill="black" r="0.738" stroke="none" /><circle cx="204.0586" cy="212.2988" fill="black" r="0.738" stroke="none" /><circle cx="182.4794" cy="644.5377" fill="black" r="0.738" stroke="none" /><circle cx="172.6319" cy="127.964" fill="black" r="0.738" stroke="none" /><circle cx="164.6423" cy="236.2956" fill="black" r="0.738" stroke="none" /><circle cx="159.5872" cy="429.5873" fill="black" r="0.738" stroke="none" /><circle cx="159.4343" cy="313.1846" fill="black" r="0.738" stroke="none" /><circle cx="158.1101" cy="378.0535" fill="black" r="0.738" stroke="none" /><circle cx="147.7615" cy="555.0604" fill="black" r="0.738" stroke="none" /><circle cx="144.8352" cy="611.2909" fill="black" r="1.17" stroke="none" /><circle cx="142.3256" cy="254.1388" fill="black" r="0.738" stroke="none" /><circle cx="129.7457" cy="504.1389" fill="black" r="0.738" stroke="none" /><circle cx="128.8953" cy="166.5303" fill="black" r="0.738" stroke="none" /><circle cx="120.7119" cy="705.278" fill="black" r="0.738" stroke="none" /><circle cx="123.3253" cy="240.9043" fill="black" r="0.738" stroke="none" /><circle cx="112.6093" cy="346.1246" fill="black" r="0.936" stroke="none" /><circle cx="111.4581" cy="257.6209" fill="black" r="0.738" stroke="none" /><circle cx="112.2636" cy="121.4838" fill="black" r="0.738" stroke="none" /><circle cx="109.0024" cy="156.8405" fill="black" r="0.738" stroke="none" /><circle cx="99.64" cy="716.0914" fill="black" r="0.738" stroke="none" /><circle cx="94.2925" cy="389.4055" fill="black" r="0.738" stroke="none" /><circle cx="91.5612" cy="191.7407" fill="black" r="0.738" stroke="none" /><circle cx="82.7009" cy="631.2035" fill="black" r="0.738" stroke="none" /><circle cx="87.1649" cy="94.7326" fill="black" r="0.738" stroke="none" /><circle cx="80.3491" cy="394.7351" fill="black" r="0.738" stroke="none" /><circle cx="75.3319" cy="522.3174" fill="black" r="0.738" stroke="none" /><circle cx="76.4295" cy="327.9365" fill="black" r="0.738" stroke="none" /><circle cx="72.9468" cy="563.2717" fill="black" r="0.936" stroke="none" /><circle cx="75.7204" cy="329.8491" fill="black" r="0.738" stroke="none" /><circle cx="72.1243" cy="611.4177" fill="black" r="0.738" stroke="none" /><circle cx="13.77" cy="786.23" fill="black" r="4.59" stroke="none" /><circle cx="13.77" cy="786.23" fill="black" r="4.59" stroke="none" /><text fill="black" font-family="monospace" font-size="12" x="10.77" y="775.64">1</text><circle cx="37.77" cy="786.23" fill="black" r="3.654" stroke="none" /><circle cx="37.77" cy="786.23" fill="black" r="3.654" stroke="none" /><text fill="black" font-family="monospace" font-size="12" x="34.769999999999996" y="775.64">2</text><circle cx="61.77" cy="786.23" fill="black" r="2.916" stroke="none" /><circle cx="61.77" cy="786.23" fill="black" r="2.916" stroke="none" /><text fill="black" font-family="monospace" font-size="12" x="58.769999999999996" y="775.64">3</text><circle cx="85.77" cy="786.23" fill="black" r="2.322" stroke="none" /><circle cx="85.77" cy="786.23" fill="black" r="2.322" stroke="none" /><text fill="black" font-family="monospace" font-size="12" x="82.77" y="775.64">4</text><circle cx="109.77" cy="786.23" fill="black" r="1.854" stroke="none" /><circle cx="109.77" cy="786.23" fill="black" r="1.854" stroke="none" /><text fill="black" font-family="monospace" font-size="12" x="106.77" y="775.64">5</text><circle cx="133.77" cy="786.23" fill="black" r="1.476" stroke="none" /><circle cx="133.77" cy="786.23" fill="black" r="1.476" stroke="none" /><text fill="black" font-family="monospace" font-size="12" x="130.77" y="775.64">6</text><circle cx="157.77" cy="786.23" fill="black" r="1.17" stroke="none" /><circle cx="157.77" cy="786.23" fill="black" r="1.17" stroke="none" /><text fill="black" font-family="monospace" font-size="12" x="154.77" y="775.64">7</text><circle cx="181.77" cy="786.23" fill="black" r="0.936" stroke="none" /><circle cx="181.77" cy="786.23" fill="black" r="0.936" stroke="none" /><text fill="black" font-family="monospace" font-size="12" x="178.77" y="775.64">8</text><circle cx="205.77" cy="786.23" fill="black" r="0.738" stroke="none" /><circle cx="205.77" cy="786.23" fill="black" r="0.738" stroke="none" /><text fill="black" font-family="monospace" font-size="12" x="202.77" y="775.64">9</text><text fill="gray" fill-opacity="0.5" font-family="monospace" font-size="12" x="690.2283314025026" y="725.9828647774243">22h30m</text><text fill="gray" fill-opacity="0.5" font-family="monospace" font-size="12" x="581.9052180875807" y="726.8227261299196">22h35m</text><text fill="gray" fill-opacity="0.5" font-family="monospace" font-size="12" x="473.621959494878" y="727.2770973188879">22h40m</text><text fill="gray" fill-opacity="0.5" font-family="monospace" font-size="12" x="365.35482728541297" y="727.3463938193547">22h45m</text><text fill="gray" fill-opacity="0.5" font-family="monospace" font-size="12" x="257.0801065693746" y="727.0306789813841">22h50m</text><text fill="gray" fill-opacity="0.5" font-family="monospace" font-size="12" x="148.77407612856965" y="726.3296641513318">22h55m</text><text fill="gray" fill-opacity="0.5" font-family="monospace" font-size="12" x="68.64274660234406" y="681.8389141919388">+8°</text><text fill="gray" fill-opacity="0.5" font-family="monospace" font-size="12" x="69.64546961131464" y="594.4326330539807">+9°</text><text fill="gray" fill-opacity="0.5" font-family="monospace" font-size="12" x="70.69787367159438" y="507.0571874107499">+10°</text><text fill="gray" fill-opacity="0.5" font-family="monospace" font-size="12" x="71.80007815861342" y="419.69930120520905">+11°</text><text fill="gray" fill-opacity="0.5" font-family="monospace" font-size="12" x="72.95223276131458" y="332.34570903144146">+12°</text><text fill="gray" fill-opacity="0.5" font-family="monospace" font-size="12" x="74.15451755678691" y="244.9831480886702">+13°</text><text fill="gray" fill-opacity="0.5" font-family="monospace" font-size="12" x="75.40714312416856" y="157.5983501386286">+14°</text><text fill="gray" fill-opacity="0.5" font-family="monospace" font-size="12" x="76.71035069797495" y="70.17803345593836">+15°</text><text fill="black" font-family="monospace" font-size="12" x="12" y="48">&gt;&gt; No.501 22h28m 22h59m +7.5°+15.0°</text><a target="_self" xlink:href="hip031.svg"><text fill="black" font-family="monospace" font-size="12" x="12" y="36">&gt; No.31 21h20m 24h00m +0.0°+22.5°</text></a><a target="_self" xlink:href="hip002.svg"><text fill="black" font-family="monospace" font-size="12" x="12" y="24">No.2 00h 24h +0.0°+90.0°</text></a><polyline fill="none" points="723.2896,70.178 714.4213,70.3109 703.8642,70.4643 693.3078,70.6124 682.752,70.7553 672.1968,70.893 661.6421,71.0254 651.0879,71.1525 640.5342,71.2744 629.981,71.3911 619.4283,71.5026 608.876,71.6088 598.3242,71.7097 587.7727,71.8054 577.2216,71.8959 566.6709,71.9812 556.1205,72.0612 545.5704,72.136 535.0206,72.2055 524.4711,72.2699 513.9219,72.329 503.3728,72.3828 492.824,72.4314 482.2754,72.4748 471.7269,72.513 461.1786,72.546 450.6304,72.5737 440.0822,72.5961 429.5342,72.6134 418.9863,72.6254 408.4383,72.6322 397.8904,72.6338 387.3425,72.6301 376.7946,72.6212 366.2466,72.6071 355.6985,72.5878 345.1504,72.5632 334.6021,72.5334 324.0537,72.4984 313.5052,72.4581 302.9565,72.4126 292.4076,72.3619 281.8585,72.3059 271.3091,72.2448 260.7595,72.1784 250.2096,72.1067 239.6594,72.0298 229.1089,71.9477 218.558,71.8604 208.0068,71.7678 197.4551,71.67 186.9031,71.5669 176.3507,71.4586 165.7977,71.3451 155.2444,71.2263 144.6905,71.1023 134.1361,70.973 123.5812,70.8385 113.0257,70.6988 102.4697,70.5538 91.913,70.4036 81.3558,70.2481 76.7104,70.178" stroke="black" stroke-opacity="0.5" stroke-width="1" /><polyline fill="none" points="731.84,725.5578 731.7205,714.6269 731.6002,703.6969 731.4791,692.7675 731.3573,681.8389 731.2346,670.911 731.1112,659.9837 730.987,649.0571 730.8621,638.1311 730.7364,627.2057 730.6099,616.2808 730.4826,605.3565 730.3545,594.4326 730.2257,583.5093 730.0961,572.5864 729.9657,561.6639 729.8345,550.7419 729.7026,539.8202 729.5699,528.8989 729.4364,517.9779 729.3021,507.0572 729.1671,496.1368 729.0312,485.2166 728.8946,474.2966 728.7573,463.3769 728.6191,452.4573 728.4801,441.5379 728.3404,430.6185 728.1999,419.6993 728.0586,408.7801 727.9166,397.861 727.7737,386.9419 727.6301,376.0228 727.4857,365.1036 727.3405,354.1844 727.1945,343.2651 727.0478,332.3457 726.9002,321.4262 726.7519,310.5064 726.6028,299.5865 726.4529,288.6664 726.3022,277.746 726.1508,266.8254 725.9985,255.9044 725.8455,244.9831 725.6917,234.0615 725.5371,223.1396 725.3817,212.2172 725.2255,201.2944 725.0685,190.3711 724.9107,179.4474 724.7522,168.5231 724.5929,157.5984 724.4327,146.673 724.2718,135.7471 724.1101,124.8206 723.9476,113.8935 723.7843,102.9657 723.6202,92.0372 723.4553,81.108 723.2896,70.178" stroke="black" stroke-opacity="0.5" stroke-width="1" /><polyline fill="none" points="731.84,725.5578 722.7366,725.6556 711.8998,725.7686 701.0637,725.8777 690.2283,725.9829 679.3935,726.0842 668.5594,726.1817 657.7258,726.2753 646.8928,726.3651 636.0603,726.451 625.2284,726.5331 614.3969,726.6113 603.5659,726.6856 592.7353,726.7561 581.9052,726.8227 571.0755,726.8855 560.2461,726.9444 549.4171,726.9995 538.5885,727.0507 527.7601,727.0981 516.932,727.1416 506.1042,727.1812 495.2766,727.217 484.4492,727.249 473.622,727.2771 462.7949,727.3014 451.968,727.3218 441.1412,727.3383 430.3145,727.351 419.4879,727.3599 408.6613,727.3649 397.8347,727.366 387.0081,727.3633 376.1815,727.3568 365.3548,727.3464 354.5281,727.3321 343.7012,727.3141 332.8743,727.2921 322.0472,727.2663 311.2199,727.2367 300.3924,727.2032 289.5647,727.1658 278.7368,727.1246 267.9086,727.0796 257.0801,727.0307 246.2513,726.9779 235.4222,726.9213 224.5927,726.8609 213.7628,726.7965 202.9325,726.7284 192.1018,726.6563 181.2706,726.5805 170.4389,726.5007 159.6068,726.4171 148.7741,726.3297 137.9408,726.2383 127.107,726.1432 116.2726,726.0441 105.4376,725.9412 94.6019,725.8345 83.7656,725.7239 72.9285,725.6094 68.16,725.5578" stroke="black" stroke-opacity="0.5" stroke-width="1" /><polyline fill="none" points="68.16,725.5578 68.2795,714.6269 68.3998,703.6969 68.5209,692.7675 68.6427,681.8389 68.7654,670.911 68.8888,659.9837 69.013,649.0571 69.1379,638.1311 69.2636,627.2057 69.3901,616.2808 69.5174,605.3565 69.6455,594.4326 69.7743,583.5093 69.9039,572.5864 70.0343,561.6639 70.1655,550.7419 70.2974,539.8202 70.4301,528.8989 70.5636,517.9779 70.6979,507.0572 70.8329,496.1368 70.9688,485.2166 71.1054,474.2966 71.2427,463.3769 71.3809,452.4573 71.5199,441.5379 71.6596,430.6185 71.8001,419.6993 71.9414,408.7801 72.0834,397.861 72.2263,386.9419 72.3699,376.0228 72.5143,365.1036 72.6595,354.1844 72.8055,343.2651 72.9522,332.3457 73.0998,321.4262 73.2481,310.5064 73.3972,299.5865 73.5471,288.6664 73.6978,277.746 73.8492,266.8254 74.0015,255.9044 74.1545,244.9831 74.3083,234.0615 74.4629,223.1396 74.6183,212.2172 74.7745,201.2944 74.9315,190.3711 75.0893,179.4474 75.2478,168.5231 75.4071,157.5984 75.5673,146.673 75.7282,135.7471 75.8899,124.8206 76.0524,113.8935 76.2157,102.9657 76.3798,92.0372 76.5447,81.108 76.7104,70.178" stroke="black" stroke-opacity="0.5" stroke-width="1" /></svg>