<?xml version="1.0" encoding="utf-8" ?>
<svg baseProfile="tiny" height="800" version="1.2" width="800" xmlns="http://www.w3.org/2000/svg" xmlns:ev="http://www.w3.org/2001/xml-events" xmlns:xlink="http://www.w3.org/1999/xlink"><defs /><rect fill="none" height="800" stroke="black" stroke-width="2" width="800" x="0" y="0" /><polyline fill="none" points="705.1382,723.2083 704.8401,712.2829 704.5413,701.3582 704.2417,690.4344 703.9415,679.5113 703.6406,668.5888 703.339,657.6671 703.0368,646.746 702.7338,635.8255 702.4302,624.9057 702.1258,613.9864 701.8208,603.0676 701.5151,592.1494 701.2087,581.2317 700.9016,570.3144 700.5938,559.3976 700.2853,548.4813 699.9761,537.5653 699.6662,526.6497 699.3557,515.7344 699.0444,504.8194 698.7324,493.9047 698.4198,482.9903 698.1064,472.0762 697.7923,461.1622 697.4776,450.2484 697.1621,439.3348 696.846,428.4213 696.5291,417.508 696.2115,406.5947 695.8933,395.6815 695.5743,384.7683 695.2546,373.8551 694.9342,362.9418 694.6131,352.0286 694.2913,341.1152 693.9688,330.2018 693.6456,319.2883 693.3217,308.3745 692.997,297.4607 692.6717,286.5466 692.3456,275.6323 692.0188,264.7177 691.6914,253.8028 691.3632,242.8877 691.0342,231.9722 690.7046,221.0564 690.3743,210.1401 690.0432,199.2235 689.7114,188.3064 689.3789,177.3889 689.0457,166.4709 688.7117,155.5523 688.377,144.6332 688.0417,133.7136 687.7055,122.7934 687.3687,111.8725 687.0311,100.951 686.6928,90.0289 686.3538,79.106 686.014,68.1824" stroke="silver" stroke-opacity="0.5" stroke-width="1" /><polyline fill="none" points="604.2128,725.504 604.0133,714.5818 603.8134,703.6604 603.6131,692.7397 603.4123,681.8197 603.211,670.9004 603.0093,659.9818 602.8071,649.0638 602.6044,638.1464 602.4013,627.2296 602.1977,616.3134 601.9937,605.3977 601.7892,594.4825 601.5842,583.5677 601.3788,572.6535 601.1729,561.7396 600.9665,550.8262 600.7597,539.9132 600.5524,529.0004 600.3447,518.0881 600.1365,507.176 599.9278,496.2642 599.7186,485.3526 599.509,474.4413 599.2989,463.5301 599.0884,452.6192 598.8774,441.7083 598.6659,430.7976 598.4539,419.887 598.2415,408.9764 598.0286,398.0659 597.8152,387.1554 597.6014,376.2449 597.387,365.3344 597.1723,354.4237 596.957,343.513 596.7412,332.6022 596.525,321.6913 596.3084,310.7801 596.0912,299.8688 595.8735,288.9573 595.6554,278.0455 595.4368,267.1334 595.2178,256.221 594.9982,245.3084 594.7782,234.3953 594.5577,223.4819 594.3367,212.5681 594.1152,201.6539 593.8933,190.7392 593.6709,179.824 593.4479,168.9083 593.2246,157.9921 593.0007,147.0754 592.7763,136.158 592.5515,125.2401 592.3261,114.3215 592.1003,103.4022 591.874,92.4823 591.6472,81.5617 591.4199,70.6403" stroke="silver" stroke-opacity="0.5" stroke-width="1" /><polyline fill="none" points="503.311,726.8896 503.2102,715.9693 503.1091,705.0498 503.0077,694.131 502.9062,683.2129 502.8044,672.2955 502.7024,661.3787 502.6001,650.4626 502.4976,639.5471 502.3949,628.6322 502.2919,617.7178 502.1887,606.8039 502.0853,595.8905 501.9816,584.9776 501.8778,574.0651 501.7736,563.1531 501.6693,552.2414 501.5647,541.3301 501.4598,530.4192 501.3548,519.5086 501.2494,508.5982 501.1439,497.6882 501.0381,486.7783 500.9321,475.8687 500.8259,464.9593 500.7194,454.05 500.6126,443.1408 500.5057,432.2318 500.3985,421.3228 500.291,410.4139 500.1834,399.505 500.0755,388.5962 499.9673,377.6873 499.8589,366.7783 499.7503,355.8693 499.6414,344.9602 499.5323,334.0509 499.4229,323.1415 499.3134,312.232 499.2035,301.3222 499.0934,290.4122 498.9831,279.5019 498.8726,268.5914 498.7618,257.6805 498.6507,246.7693 498.5395,235.8578 498.4279,224.9458 498.3162,214.0335 498.2042,203.1207 498.0919,192.2075 497.9794,181.2937 497.8667,170.3795 497.7537,159.4647 497.6405,148.5493 497.527,137.6334 497.4133,126.7168 497.2993,115.7996 497.1851,104.8817 497.0706,93.9631 496.9559,83.0437 496.841,72.1237" stroke="silver" stroke-opacity="0.5" stroke-width="1" /><polyline fill="none" points="402.4213,727.3658 402.4189,716.4462 402.4166,705.5274 402.4142,694.6092 402.4118,683.6918 402.4094,672.7751 402.407,661.859 402.4046,650.9435 402.4022,640.0286 402.3998,629.1143 402.3974,618.2005 402.395,607.2873 402.3926,596.3745 402.3901,585.4622 402.3877,574.5504 402.3853,563.639 402.3828,552.7279 402.3804,541.8172 402.3779,530.9069 402.3755,519.9969 402.373,509.0871 402.3705,498.1777 402.368,487.2684 402.3656,476.3594 402.3631,465.4505 402.3606,454.5418 402.3581,443.6332 402.3556,432.7248 402.353,421.8164 402.3505,410.908 402.348,399.9997 402.3455,389.0914 402.3429,378.1831 402.3404,367.2747 402.3379,356.3662 402.3353,345.4576 402.3327,334.5489 402.3302,323.6401 402.3276,312.731 402.325,301.8218 402.3225,290.9123 402.3199,280.0026 402.3173,269.0926 402.3147,258.1822 402.3121,247.2715 402.3095,236.3605 402.3069,225.4491 402.3042,214.5372 402.3016,203.6249 402.299,192.7122 402.2964,181.7989 402.2937,170.8852 402.2911,159.9709 402.2884,149.056 402.2858,138.1405 402.2831,127.2244 402.2804,116.3076 402.2777,105.3902 402.2751,94.4721 402.2724,83.5532 402.2697,72.6336" stroke="silver" stroke-opacity="0.5" stroke-width="1" /><polyline fill="none" points="301.5319,726.9332 301.628,716.013 301.7243,705.0935 301.8209,694.1748 301.9177,683.2568 302.0147,672.3394 302.112,661.4227 302.2095,650.5067 302.3071,639.5912 302.405,628.6763 302.5032,617.762 302.6015,606.8482 302.7001,595.9348 302.7989,585.022 302.8979,574.1096 302.9972,563.1976 303.0967,552.286 303.1964,541.3748 303.2963,530.4639 303.3964,519.5533 303.4968,508.643 303.5974,497.733 303.6982,486.8232 303.7992,475.9136 303.9005,465.0043 304.002,454.095 304.1037,443.1859 304.2057,432.2769 304.3078,421.368 304.4102,410.4592 304.5129,399.5504 304.6157,388.6415 304.7188,377.7327 304.8221,366.8238 304.9257,355.9148 305.0294,345.0058 305.1334,334.0966 305.2377,323.1872 305.3421,312.2777 305.4468,301.368 305.5517,290.458 305.6568,279.5478 305.7622,268.6373 305.8678,257.7265 305.9736,246.8153 306.0797,235.9038 306.186,224.9919 306.2925,214.0796 306.3993,203.1669 306.5063,192.2537 306.6135,181.34 306.721,170.4258 306.8286,159.511 306.9366,148.5957 307.0447,137.6798 307.1531,126.7633 307.2617,115.8461 307.3706,104.9282 307.4797,94.0097 307.589,83.0904 307.6986,72.1704" stroke="silver" stroke-opacity="0.5" stroke-width="1" /><polyline fill="none" points="200.631,725.5913 200.8257,714.6692 201.0208,703.7479 201.2164,692.8273 201.4125,681.9075 201.609,670.9883 201.8059,660.0698 202.0033,649.1519 202.2011,638.2347 202.3994,627.318 202.5982,616.4018 202.7974,605.4863 202.997,594.5712 203.1971,583.6566 203.3977,572.7424 203.5987,561.8287 203.8001,550.9154 204.002,540.0024 204.2044,529.0898 204.4072,518.1776 204.6105,507.2656 204.8142,496.3539 205.0184,485.4424 205.2231,474.5312 205.4282,463.6202 205.6337,452.7093 205.8397,441.7986 206.0462,430.888 206.2531,419.9775 206.4605,409.067 206.6684,398.1566 206.8767,387.2462 207.0854,376.3358 207.2947,365.4253 207.5044,354.5148 207.7145,343.6042 207.9251,332.6935 208.1362,321.7826 208.3478,310.8716 208.5598,299.9604 208.7722,289.0489 208.9852,278.1372 209.1986,267.2253 209.4124,256.313 209.6268,245.4004 209.8416,234.4875 210.0569,223.5742 210.2726,212.6604 210.4888,201.7463 210.7055,190.8317 210.9226,179.9166 211.1403,169.001 211.3584,158.0849 211.5769,147.1682 211.796,136.251 212.0155,125.3331 212.2355,114.4146 212.4559,103.4954 212.6768,92.5756 212.8983,81.655 213.1201,70.7337" stroke="silver" stroke-opacity="0.5" stroke-width="1" /><polyline fill="none" points="99.7069,723.3393 100.0003,712.4141 100.2944,701.4896 100.5891,690.5659 100.8846,679.643 101.1807,668.7207 101.4775,657.7992 101.7749,646.8783 102.0731,635.958 102.3719,625.0383 102.6714,614.1192 102.9716,603.2006 103.2724,592.2826 103.5739,581.365 103.8762,570.4479 104.1791,559.5313 104.4826,548.6151 104.7869,537.6993 105.0919,526.7838 105.3975,515.8687 105.7038,504.9539 106.0108,494.0394 106.3185,483.1251 106.6269,472.2111 106.936,461.2973 107.2457,450.3837 107.5562,439.4703 107.8673,428.5569 108.1791,417.6437 108.4916,406.7306 108.8048,395.8175 109.1187,384.9045 109.4333,373.9914 109.7486,363.0784 110.0646,352.1653 110.3813,341.2521 110.6987,330.3388 111.0168,319.4254 111.3355,308.5118 111.655,297.5981 111.9752,286.6841 112.2961,275.77 112.6176,264.8556 112.9399,253.9408 113.2629,243.0258 113.5866,232.1105 113.911,221.1948 114.2361,210.2787 114.5619,199.3622 114.8884,188.4452 115.2156,177.5278 115.5435,166.61 115.8722,155.6916 116.2015,144.7726 116.5316,133.8531 116.8623,122.933 117.1938,112.0123 117.526,101.0909 117.8589,90.1689 118.1926,79.2461 118.5269,68.3227" stroke="silver" stroke-opacity="0.5" stroke-width="1" /><polyline fill="none" points="736.9221,678.5545 734.1065,678.64 724.0512,678.9396 713.9962,679.23 703.9415,679.5113 693.8872,679.7833 683.8333,680.0462 673.7796,680.3 663.7263,680.5446 653.6733,680.78 643.6205,681.0062 633.5681,681.2233 623.5159,681.4313 613.464,681.6301 603.4123,681.8197 593.3608,682.0002 583.3096,682.1715 573.2585,682.3337 563.2077,682.4867 553.157,682.6306 543.1066,682.7654 533.0563,682.891 523.0061,683.0074 512.9561,683.1147 502.9062,683.2129 492.8564,683.3019 482.8067,683.3818 472.7572,683.4525 462.7077,683.5141 452.6582,683.5666 442.6089,683.6099 432.5596,683.6441 422.5103,683.6691 412.4611,683.685 402.4118,683.6918 392.3626,683.6894 382.3133,683.6779 372.2641,683.6573 362.2148,683.6275 352.1655,683.5885 342.1161,683.5405 332.0666,683.4833 322.0171,683.4169 311.9674,683.3414 301.9177,683.2568 291.8679,683.163 281.8179,683.0601 271.7678,682.948 261.7176,682.8268 251.6672,682.6965 241.6166,682.557 231.5659,682.4083 221.515,682.2505 211.4638,682.0836 201.4125,681.9075 191.3609,681.7222 181.3091,681.5278 171.257,681.3243 161.2047,681.1116 151.1521,680.8897 141.0992,680.6587 131.046,680.4185 120.9925,680.1692 110.9387,679.9107 100.8846,679.643 90.8301,679.3662 80.7753,679.0801 70.7201,678.785 63.0779,678.5545" stroke="silver" stroke-opacity="0.5" stroke-width="1" /><polyline fill="none" points="734.2318,591.1825 731.4388,591.2689 721.4639,591.5717 711.4893,591.8652 701.5151,592.1494 691.5412,592.4244 681.5676,592.6901 671.5944,592.9465 661.6214,593.1937 651.6487,593.4316 641.6763,593.6603 631.7041,593.8797 621.7323,594.0899 611.7606,594.2908 601.7892,594.4825 591.818,594.6649 581.847,594.838 571.8762,595.0019 561.9056,595.1566 551.9352,595.302 541.9649,595.4382 531.9948,595.5651 522.0248,595.6828 512.055,595.7913 502.0853,595.8905 492.1157,595.9805 482.1462,596.0612 472.1768,596.1327 462.2075,596.195 452.2382,596.248 442.269,596.2918 432.2999,596.3263 422.3308,596.3516 412.3617,596.3677 402.3926,596.3745 392.4235,596.3721 382.4544,596.3605 372.4853,596.3396 362.5162,596.3095 352.547,596.2701 342.5778,596.2216 332.6085,596.1637 322.6391,596.0967 312.6697,596.0204 302.7001,595.9348 292.7305,595.8401 282.7607,595.736 272.7908,595.6228 262.8208,595.5003 252.8506,595.3685 242.8802,595.2276 232.9097,595.0773 222.939,594.9179 212.9681,594.7491 202.997,594.5712 193.0257,594.384 183.0542,594.1875 173.0824,593.9818 163.1104,593.7668 153.1381,593.5426 143.1655,593.3091 133.1927,593.0663 123.2196,592.8143 113.2462,592.5531 103.2724,592.2826 93.2984,592.0028 83.324,591.7137 73.3492,591.4154 65.7682,591.1825" stroke="silver" stroke-opacity="0.5" stroke-width="1" /><polyline fill="none" points="731.4925,503.8427 728.7224,503.93 718.8294,504.2359 708.9367,504.5323 699.0444,504.8194 689.1524,505.0972 679.2606,505.3655 669.3692,505.6246 659.4781,505.8743 649.5872,506.1146 639.6966,506.3456 629.8062,506.5672 619.9161,506.7795 610.0262,506.9824 600.1365,507.176 590.247,507.3602 580.3577,507.5351 570.4686,507.7007 560.5797,507.8569 550.691,508.0038 540.8024,508.1414 530.914,508.2696 521.0257,508.3885 511.1375,508.498 501.2494,508.5982 491.3615,508.6891 481.4736,508.7707 471.5859,508.8429 461.6982,508.9058 451.8105,508.9593 441.923,509.0035 432.0354,509.0384 422.1479,509.064 412.2605,509.0802 402.373,509.0871 392.4855,509.0847 382.5981,509.073 372.7106,509.0519 362.8231,509.0215 352.9355,508.9817 343.0479,508.9326 333.1602,508.8742 323.2725,508.8065 313.3847,508.7294 303.4968,508.643 293.6088,508.5473 283.7207,508.4422 273.8324,508.3278 263.9441,508.2041 254.0555,508.071 244.1669,507.9286 234.2781,507.7769 224.3891,507.6158 214.4999,507.4454 204.6105,507.2656 194.7209,507.0765 184.8311,506.878 174.9411,506.6702 165.0508,506.4531 155.1604,506.2266 145.2696,505.9908 135.3786,505.7456 125.4873,505.491 115.5957,505.2271 105.7038,504.9539 95.8116,504.6713 85.9191,504.3793 76.0263,504.078 68.5075,503.8427" stroke="silver" stroke-opacity="0.5" stroke-width="1" /><polyline fill="none" points="728.7037,416.522 725.957,416.6101 716.1474,416.9188 706.3381,417.2181 696.5291,417.508 686.7204,417.7884 676.912,418.0593 667.1039,418.3208 657.296,418.5729 647.4884,418.8155 637.6811,419.0487 627.8739,419.2724 618.0671,419.4867 608.2604,419.6916 598.4539,419.887 588.6476,420.073 578.8416,420.2496 569.0357,420.4167 559.2299,420.5744 549.4243,420.7227 539.6189,420.8616 529.8136,420.991 520.0085,421.1111 510.2034,421.2216 500.3985,421.3228 490.5937,421.4146 480.7889,421.4969 470.9842,421.5698 461.1797,421.6333 451.3751,421.6873 441.5706,421.732 431.7662,421.7672 421.9618,421.793 412.1574,421.8094 402.353,421.8164 392.5487,421.8139 382.7443,421.8021 372.9399,421.7808 363.1355,421.7501 353.331,421.7099 343.5265,421.6604 333.722,421.6014 323.9173,421.5331 314.1126,421.4553 304.3078,421.368 294.503,421.2714 284.698,421.1653 274.8929,421.0498 265.0876,420.9249 255.2823,420.7906 245.4768,420.6468 235.6711,420.4936 225.8653,420.331 216.0593,420.1589 206.2531,419.9775 196.4468,419.7866 186.6402,419.5862 176.8334,419.3764 167.0264,419.1572 157.2191,418.9286 147.4117,418.6905 137.6039,418.443 127.7959,418.186 117.9877,417.9196 108.1791,417.6437 98.3703,417.3584 88.5611,417.0637 78.7517,416.7595 71.2963,416.522" stroke="silver" stroke-opacity="0.5" stroke-width="1" /><polyline fill="none" points="725.865,329.207 723.1421,329.2959 713.4174,329.6074 703.6929,329.9094 693.9688,330.2018 684.245,330.4847 674.5214,330.7581 664.798,331.0219 655.075,331.2763 645.3521,331.5211 635.6295,331.7563 625.9071,331.9821 616.185,332.1983 606.463,332.405 596.7412,332.6022 587.0197,332.7899 577.2983,332.9681 567.577,333.1367 557.8559,333.2958 548.135,333.4455 538.4142,333.5856 528.6936,333.7162 518.973,333.8373 509.2526,333.9489 499.5323,334.0509 489.8121,334.1435 480.0919,334.2266 470.3719,334.3001 460.6519,334.3642 450.9319,334.4187 441.212,334.4638 431.4922,334.4993 421.7723,334.5254 412.0525,334.5419 402.3327,334.5489 392.613,334.5465 382.8932,334.5345 373.1733,334.513 363.4535,334.482 353.7336,334.4416 344.0137,334.3916 334.2937,334.3321 324.5737,334.2631 314.8536,334.1846 305.1334,334.0966 295.4132,333.999 285.6928,333.892 275.9723,333.7755 266.2517,333.6495 256.531,333.5139 246.8101,333.3688 237.0891,333.2143 227.368,333.0502 217.6466,332.8766 207.9251,332.6935 198.2035,332.5009 188.4816,332.2987 178.7595,332.0871 169.0372,331.8659 159.3147,331.6352 149.592,331.395 139.8691,331.1452 130.1459,330.8859 120.4224,330.6171 110.6987,330.3388 100.9747,330.0509 91.2504,329.7535 81.5258,329.4466 74.135,329.207" stroke="silver" stroke-opacity="0.5" stroke-width="1" /><polyline fill="none" points="722.9761,241.8844 720.2773,241.9741 710.639,242.2883 701.0009,242.5928 691.3632,242.8877 681.7256,243.173 672.0884,243.4487 662.4513,243.7147 652.8145,243.9712 643.178,244.2181 633.5416,244.4553 623.9055,244.683 614.2695,244.901 604.6338,245.1095 594.9982,245.3084 585.3628,245.4976 575.7276,245.6773 566.0925,245.8474 556.4576,246.0078 546.8228,246.1587 537.1882,246.3 527.5537,246.4317 517.9193,246.5539 508.285,246.6664 498.6507,246.7693 489.0166,246.8627 479.3826,246.9465 469.7486,247.0206 460.1147,247.0852 450.4809,247.1402 440.847,247.1857 431.2133,247.2215 421.5795,247.2478 411.9458,247.2644 402.3121,247.2715 392.6784,247.269 383.0447,247.257 373.4109,247.2353 363.7772,247.2041 354.1434,247.1632 344.5096,247.1128 334.8757,247.0528 325.2417,246.9833 315.6077,246.9041 305.9736,246.8153 296.3395,246.717 286.7052,246.6091 277.0709,246.4916 267.4364,246.3644 257.8018,246.2278 248.1671,246.0815 238.5322,245.9256 228.8972,245.7601 219.2621,245.5851 209.6268,245.4004 199.9913,245.2062 190.3556,245.0023 180.7198,244.7889 171.0838,244.5658 161.4475,244.3332 151.811,244.0909 142.1744,243.839 132.5374,243.5776 122.9003,243.3065 113.2629,243.0258 103.6252,242.7355 93.9873,242.4356 84.3491,242.1261 77.0239,241.8844" stroke="silver" stroke-opacity="0.5" stroke-width="1" /><polyline fill="none" points="720.0364,154.5411 717.3622,154.6315 707.8118,154.9482 698.2616,155.2551 688.7117,155.5523 679.162,155.8399 669.6126,156.1177 660.0634,156.3859 650.5144,156.6444 640.9656,156.8932 631.417,157.1324 621.8686,157.3618 612.3204,157.5816 602.7724,157.7917 593.2246,157.9921 583.6769,158.1829 574.1293,158.364 564.5819,158.5354 555.0347,158.6972 545.4876,158.8492 535.9406,158.9917 526.3937,159.1244 516.8469,159.2475 507.3003,159.3609 497.7537,159.4647 488.2072,159.5588 478.6608,159.6432 469.1144,159.718 459.5681,159.7831 450.0219,159.8385 440.4756,159.8843 430.9295,159.9204 421.3833,159.9469 411.8372,159.9637 402.2911,159.9709 392.7449,159.9684 383.1988,159.9562 373.6527,159.9344 364.1065,159.9029 354.5603,159.8617 345.0141,159.8109 335.4678,159.7504 325.9215,159.6803 316.3751,159.6005 306.8286,159.511 297.2821,159.4119 287.7355,159.3031 278.1887,159.1847 268.6419,159.0566 259.095,158.9188 249.5479,158.7714 240.0007,158.6143 230.4534,158.4475 220.906,158.271 211.3584,158.0849 201.8106,157.8891 192.2626,157.6837 182.7145,157.4685 173.1662,157.2437 163.6177,157.0092 154.0691,156.7651 144.5202,156.5112 134.9711,156.2477 125.4217,155.9745 115.8722,155.6916 106.3224,155.399 96.7723,155.0967 87.222,154.7847 79.9636,154.5411" stroke="silver" stroke-opacity="0.5" stroke-width="1" /><polyline fill="none" points="717.0455,67.1638 714.3963,67.2548 704.9353,67.5738 695.4746,67.883 686.014,68.1824 676.5537,68.4721 667.0937,68.752 657.6338,69.0222 648.1741,69.2826 638.7146,69.5332 629.2553,69.7741 619.7962,70.0053 610.3373,70.2267 600.8785,70.4384 591.4199,70.6403 581.9615,70.8324 572.5032,71.0149 563.045,71.1875 553.587,71.3505 544.129,71.5037 534.6712,71.6472 525.2135,71.7809 515.7559,71.9049 506.2984,72.0192 496.841,72.1237 487.3836,72.2185 477.9263,72.3035 468.4691,72.3788 459.012,72.4444 449.5548,72.5003 440.0978,72.5464 430.6407,72.5828 421.1837,72.6095 411.7267,72.6264 402.2697,72.6336 392.8127,72.6311 383.3557,72.6188 373.8987,72.5968 364.4416,72.5651 354.9846,72.5237 345.5275,72.4725 336.0703,72.4115 326.6131,72.3409 317.1559,72.2605 307.6986,72.1704 298.2412,72.0705 288.7837,71.961 279.3261,71.8416 269.8685,71.7126 260.4107,71.5738 250.9529,71.4252 241.4949,71.267 232.0368,71.099 222.5785,70.9212 213.1201,70.7337 203.6616,70.5365 194.2029,70.3295 184.7441,70.1128 175.285,69.8863 165.8259,69.6501 156.3665,69.4041 146.9069,69.1484 137.4471,68.8829 127.9871,68.6077 118.5269,68.3227 109.0665,68.0279 99.6059,67.7234 90.145,67.4092 82.9545,67.1638" stroke="silver" stroke-opacity="0.5" stroke-width="1" /><line fill="none" stroke="green" stroke-opacity="0.5" stroke-width="1.5" x1="443.579" x2="606.6909" y1="726.0923" y2="724.8755" /><circle cx="735.8816" cy="678.7611" fill="black" r="0.738" stroke="none" /><circle cx="726.5985" cy="419.4739" fill="black" r="0.738" stroke="none" /><circle cx="728.1926" cy="680.1293" fill="black" r="0.738" stroke="none" /><circle cx="721.6348" cy="560.0942" fill="black" r="0.738" stroke="none" /><circle cx="716.6715" cy="459.4649" fill="black" r="0.738" stroke="none" /><circle cx="704.2616" cy="312.9376" fill="black" r="0.738" stroke="none" /><circle cx="698.3389" cy="184.4555" fill="black" r="0.738" stroke="none" /><circle cx="703.0758" cy="373.8848" fill="black" r="0.738" stroke="none" /><circle cx="693.3337" cy="134.5987" fill="black" r="0.738" stroke="none" /><circle cx="709.0515" cy="669.4002" fill="black" r="1.17" stroke="none" /><circle cx="693.8919" cy="679.9581" fill="black" r="0.936" stroke="none" /><circle cx="693.2321" cy="716.0048" fill="black" r="0.738" stroke="none" /><circle cx="684.6236" cy="584.4816" fill="black" r="0.738" stroke="none" /><circle cx="677.9508" cy="515.7107" fill="black" r="0.738" stroke="none" /><circle cx="675.7079" cy="455.1349" fill="black" r="0.738" stroke="none" /><circle cx="680.3705" cy="711.8752" fill="black" r="0.738" stroke="none" /><circle cx="665.1017" cy="164.2876" fill="black" r="0.738" stroke="none" /><circle cx="669.9491" cy="556.2864" fill="black" r="0.936" stroke="none" /><circle cx="663.7082" cy="378.3997" fill="black" r="0.738" stroke="none" /><circle cx="665.8693" cy="593.8761" fill="black" r="0.738" stroke="none" /><circle cx="652.7227" cy="97.1402" fill="black" r="0.738" stroke="none" /><circle cx="664.5784" cy="662.4288" fill="black" r="0.738" stroke="none" /><circle cx="647.6191" cy="113.7143" fill="black" r="0.738" stroke="none" /><circle cx="657.4794" cy="688.7344" fill="black" r="0.936" stroke="none" /><circle cx="651.1706" cy="460.3037" fill="black" r="0.738" stroke="none" /><circle cx="630.8442" cy="93.9521" fill="black" r="0.738" stroke="none" /><circle cx="634.4996" cy="294.0497" fill="black" r="0.738" stroke="none" /><circle cx="620.1877" cy="213.6691" fill="black" r="0.738" stroke="none" /><circle cx="626.936" cy="535.0167" fill="black" r="0.738" stroke="none" /><circle cx="617.2021" cy="207.4472" fill="black" r="0.738" stroke="none" /><circle cx="618.8037" cy="595.2855" fill="black" r="0.738" stroke="none" /><circle cx="603.4872" cy="278.8463" fill="black" r="0.738" stroke="none" /><circle cx="606.7041" cy="724.8464" fill="black" r="1.854" stroke="none" /><circle cx="595.1879" cy="254.7369" fill="black" r="0.738" stroke="none" /><circle cx="591.3519" cy="163.6218" fill="black" r="0.738" stroke="none" /><circle cx="596.4419" cy="466.641" fill="black" r="0.738" stroke="none" /><circle cx="585.1831" cy="114.6411" fill="black" r="1.476" stroke="none" /><circle cx="591.4517" cy="478.1732" fill="black" r="0.738" stroke="none" /><circle cx="577.6439" cy="257.6936" fill="black" r="0.738" stroke="none" /><circle cx="582.1666" cy="613.7863" fill="black" r="0.738" stroke="none" /><circle cx="575.5882" cy="597.5622" fill="black" r="0.936" stroke="none" /><circle cx="567.2546" cy="171.4166" fill="black" r="0.738" stroke="none" /><circle cx="567.0165" cy="489.7703" fill="black" r="0.738" stroke="none" /><circle cx="561.4458" cy="377.5005" fill="black" r="0.738" stroke="none" /><circle cx="561.4889" cy="464.539" fill="black" r="0.738" stroke="none" /><circle cx="562.6448" cy="617.7657" fill="black" r="0.936" stroke="none" /><circle cx="552.5813" cy="111.3882" fill="black" r="0.738" stroke="none" /><circle cx="550.9358" cy="307.9984" fill="black" r="0.738" stroke="none" /><circle cx="540.1602" cy="139.7133" fill="black" r="0.738" stroke="none" /><circle cx="537.2566" cy="245.6879" fill="black" r="0.738" stroke="none" /><circle cx="531.4055" cy="315.3489" fill="black" r="0.936" stroke="none" /><circle cx="530.0086" cy="430.1539" fill="black" r="0.738" stroke="none" /><circle cx="532.8287" cy="710.9379" fill="black" r="0.738" stroke="none" /><circle cx="523.0475" cy="90.9455" fill="black" r="0.936" stroke="none" /><circle cx="529.9124" cy="682.2295" fill="black" r="0.738" stroke="none" /><circle cx="524.2569" cy="630.3255" fill="black" r="0.936" stroke="none" /><circle cx="523.0855" cy="682.9192" fill="black" r="0.738" stroke="none" /><circle cx="515.6336" cy="422.7327" fill="black" r="0.738" stroke="none" /><circle cx="511.3702" cy="78.4249" fill="black" r="0.738" stroke="none" /><circle cx="516.14" cy="642.1177" fill="black" r="0.738" stroke="none" /><circle cx="515.1978" cy="659.1585" fill="black" r="0.738" stroke="none" /><circle cx="498.5767" cy="209.4907" fill="black" r="0.738" stroke="none" /><circle cx="497.7223" cy="300.4641" fill="black" r="0.738" stroke="none" /><circle cx="499.9461" cy="546.4088" fill="black" r="0.738" stroke="none" /><circle cx="487.7719" cy="186.8073" fill="black" r="0.738" stroke="none" /><circle cx="489.1649" cy="455.6402" fill="black" r="0.738" stroke="none" /><circle cx="489.164" cy="492.2111" fill="black" r="0.738" stroke="none" /><circle cx="482.3137" cy="597.1076" fill="black" r="0.738" stroke="none" /><circle cx="477.0952" cy="127.1686" fill="black" r="0.738" stroke="none" /><circle cx="474.4657" cy="112.429" fill="black" r="0.936" stroke="none" /><circle cx="468.6551" cy="508.2515" fill="black" r="0.738" stroke="none" /><circle cx="465.0504" cy="578.3685" fill="black" r="0.738" stroke="none" /><circle cx="462.5195" cy="721.6004" fill="black" r="0.738" stroke="none" /><circle cx="457.8212" cy="75.5971" fill="black" r="0.738" stroke="none" /><circle cx="455.727" cy="501.695" fill="black" r="0.738" stroke="none" /><circle cx="452.4809" cy="362.8615" fill="black" r="0.738" stroke="none" /><circle cx="452.3696" cy="356.4913" fill="black" r="0.738" stroke="none" /><circle cx="452.4052" cy="363.2983" fill="black" r="0.738" stroke="none" /><circle cx="444.7829" cy="248.303" fill="black" r="0.738" stroke="none" /><circle cx="443.5789" cy="726.0582" fill="black" r="1.854" stroke="none" /><circle cx="441.7279" cy="421.8186" fill="black" r="0.738" stroke="none" /><circle cx="440.5405" cy="192.9754" fill="black" r="0.738" stroke="none" /><circle cx="440.9733" cy="295.7146" fill="black" r="0.738" stroke="none" /><circle cx="439.0917" cy="270.6728" fill="black" r="0.738" stroke="none" /><circle cx="436.8072" cy="585.0501" fill="black" r="0.738" stroke="none" /><circle cx="433.2189" cy="181.2173" fill="black" r="0.738" stroke="none" /><circle cx="431.3818" cy="324.2016" fill="black" r="0.738" stroke="none" /><circle cx="431.9756" cy="676.3096" fill="black" r="0.738" stroke="none" /><circle cx="420.8095" cy="472.6734" fill="black" r="0.738" stroke="none" /><circle cx="408.7522" cy="670.1519" fill="black" r="0.738" stroke="none" /><circle cx="407.7486" cy="504.808" fill="black" r="0.936" stroke="none" /><circle cx="404.552" cy="98.2272" fill="black" r="0.936" stroke="none" /><circle cx="402.4655" cy="244.4783" fill="black" r="0.738" stroke="none" /><circle cx="402.0685" cy="570.0112" fill="black" r="0.738" stroke="none" /><circle cx="396.1629" cy="621.7798" fill="black" r="0.738" stroke="none" /><circle cx="393.6191" cy="110.1047" fill="black" r="0.738" stroke="none" /><circle cx="391.5081" cy="645.09" fill="black" r="0.936" stroke="none" /><circle cx="391.4202" cy="655.1318" fill="black" r="0.936" stroke="none" /><circle cx="391.0423" cy="725.9648" fill="black" r="0.738" stroke="none" /><circle cx="381.426" cy="247.3413" fill="black" r="0.738" stroke="none" /><circle cx="380.3884" cy="464.4722" fill="black" r="0.738" stroke="none" /><circle cx="376.8442" cy="104.8376" fill="black" r="0.738" stroke="none" /><circle cx="375.1655" cy="409.7435" fill="black" r="0.738" stroke="none" /><circle cx="373.8985" cy="706.5452" fill="black" r="0.738" stroke="none" /><circle cx="365.5041" cy="511.5617" fill="black" r="0.738" stroke="none" /><circle cx="362.4355" cy="619.5326" fill="black" r="0.738" stroke="none" /><circle cx="357.4208" cy="363.3448" fill="black" r="0.738" stroke="none" /><circle cx="354.68" cy="103.795" fill="black" r="0.738" stroke="none" /><circle cx="347.4996" cy="568.3983" fill="black" r="0.738" stroke="none" /><circle cx="342.8234" cy="625.2096" fill="black" r="0.738" stroke="none" /><circle cx="344.2231" cy="138.6735" fill="black" r="0.738" stroke="none" /><circle cx="337.1871" cy="536.6557" fill="black" r="0.738" stroke="none" /><circle cx="333.9656" cy="278.9943" fill="black" r="0.738" stroke="none" /><circle cx="333.5726" cy="136.1587" fill="black" r="0.738" stroke="none" /><circle cx="331.0192" cy="415.2999" fill="black" r="0.738" stroke="none" /><circle cx="328.5504" cy="454.6435" fill="black" r="0.738" stroke="none" /><circle cx="325.7193" cy="337.0646" fill="black" r="0.936" stroke="none" /><circle cx="322.7913" cy="333.4639" fill="black" r="0.738" stroke="none" /><circle cx="316.6909" cy="481.0875" fill="black" r="0.738" stroke="none" /><circle cx="314.5722" cy="277.0983" fill="black" r="0.738" stroke="none" /><circle cx="313.1449" cy="178.6951" fill="black" r="0.738" stroke="none" /><circle cx="303.8407" cy="702.5786" fill="black" r="0.738" stroke="none" /><circle cx="301.98" cy="338.4301" fill="black" r="0.738" stroke="none" /><circle cx="302.4472" cy="222.0736" fill="black" r="0.738" stroke="none" /><circle cx="294.224" cy="722.9348" fill="black" r="0.738" stroke="none" /><circle cx="299.0765" cy="228.2376" fill="black" r="0.936" stroke="none" /><circle cx="289.2078" cy="636.1474" fill="black" r="0.738" stroke="none" /><circle cx="291.1007" cy="431.3604" fill="black" r="0.738" stroke="none" /><circle cx="293.1501" cy="86.9534" fill="black" r="0.738" stroke="none" /><circle cx="285.6494" cy="631.9188" fill="black" r="0.738" stroke="none" /><circle cx="286.1486" cy="562.2451" fill="black" r="0.738" stroke="none" /><circle cx="269.2246" cy="509.8427" fill="black" r="0.738" stroke="none" /><circle cx="273.1328" cy="160.2535" fill="black" r="0.738" stroke="none" /><circle cx="254.1208" cy="144.6926" fill="black" r="0.738" stroke="none" /><circle cx="249.522" cy="354.7112" fill="black" r="0.738" stroke="none" /><circle cx="250.0088" cy="216.9448" fill="black" r="0.738" stroke="none" /><circle cx="249.0516" cy="123.2094" fill="black" r="0.738" stroke="none" /><circle cx="244.3743" cy="395.3136" fill="black" r="0.738" stroke="none" /><circle cx="236.7941" cy="591.469" fill="black" r="0.738" stroke="none" /><circle cx="232.6879" cy="666.7867" fill="black" r="0.738" stroke="none" /><circle cx="234.8026" cy="247.6091" fill="black" r="0.738" stroke="none" /><circle cx="228.0581" cy="329.1332" fill="black" r="0.738" stroke="none" /><circle cx="221.0215" cy="677.9612" fill="black" r="0.738" stroke="none" /><circle cx="226.5882" cy="284.5776" fill="black" r="0.738" stroke="none" /><circle cx="209.6751" cy="664.5776" fill="black" r="0.738" stroke="none" /><circle cx="207.2973" cy="581.7222" fill="black" r="0.738" stroke="none" /><circle cx="204.007" cy="514.1531" fill="black" r="0.738" stroke="none" /><circle cx="205.8112" cy="243.4032" fill="black" r="1.17" stroke="none" /><circle cx="205.3998" cy="206.623" fill="black" r="0.738" stroke="none" /><circle cx="186.0042" cy="357.1345" fill="black" r="0.738" stroke="none" /><circle cx="188.8116" cy="154.8109" fill="black" r="0.738" stroke="none" /><circle cx="183.8763" cy="365.3851" fill="black" r="0.738" stroke="none" /><circle cx="187.0715" cy="93.9446" fill="black" r="0.738" stroke="none" /><circle cx="183.1348" cy="250.6083" fill="black" r="0.738" stroke="none" /><circle cx="180.5424" cy="307.8473" fill="black" r="0.738" stroke="none" /><circle cx="179.6557" cy="254.286" fill="black" r="0.738" stroke="none" /><circle cx="167.2559" cy="672.6755" fill="black" r="0.738" stroke="none" /><circle cx="161.3359" cy="558.8689" fill="black" r="0.738" stroke="none" /><circle cx="155.2022" cy="541.9561" fill="black" r="0.936" stroke="none" /><circle cx="164.4895" cy="77.4852" fill="black" r="0.738" stroke="none" /><circle cx="147.6929" cy="705.6385" fill="black" r="0.738" stroke="none" /><circle cx="148.8145" cy="635.4748" fill="black" r="0.738" stroke="none" /><circle cx="144.8239" cy="627.9536" fill="black" r="0.936" stroke="none" /><circle cx="144.1253" cy="520.4648" fill="black" r="0.738" stroke="none" /><circle cx="137.828" cy="553.8597" fill="black" r="0.936" stroke="none" /><circle cx="146.698" cy="157.9684" fill="black" r="1.17" stroke="none" /><circle cx="137.8616" cy="339.3917" fill="black" r="0.738" stroke="none" /><circle cx="141.0668" cy="184.998" fill="black" r="0.738" stroke="none" /><circle cx="135.5283" cy="374.7107" fill="black" r="0.738" stroke="none" /><circle cx="129.2534" cy="446.2679" fill="black" r="0.738" stroke="none" /><circle cx="114.1536" cy="714.5347" fill="black" r="0.738" stroke="none" /><circle cx="114.1744" cy="540.1417" fill="black" r="0.936" stroke="none" /><circle cx="122.5593" cy="220.312" fill="black" r="0.936" stroke="none" /><circle cx="122.2145" cy="210.9502" fill="black" r="0.738" stroke="none" /><circle cx="100.7292" cy="620.7095" fill="black" r="0.738" stroke="none" /><circle cx="90.6955" cy="687.0583" fill="black" r="0.738" stroke="none" /><circle cx="89.2407" cy="531.3979" fill="black" r="0.738" stroke="none" /><circle cx="82.3426" cy="663.8207" fill="black" r="0.738" stroke="none" /><circle cx="86.77" cy="476.0876" fill="black" r="0.738" stroke="none" /><circle cx="81.2114" cy="534.3053" fill="black" r="0.738" stroke="none" /><circle cx="79.3138" cy="584.2511" fill="black" r="0.738" stroke="none" /><circle cx="77.9476" cy="595.2261" fill="black" r="0.738" stroke="none" /><circle cx="92.9467" cy="92.5244" fill="black" r="0.738" stroke="none" /><circle cx="87.8359" cy="225.0172" fill="black" r="0.936" stroke="none" /><circle cx="77.6352" cy="322.1537" fill="black" r="0.738" stroke="none" /><circle cx="13.77" cy="786.23" fill="black" r="4.59" stroke="none" /><circle cx="13.77" cy="786.23" fill="black" r="4.59" stroke="none" /><text fill="black" font-family="monospace" font-size="12" x="10.77" y="775.64">1</text><circle cx="37.77" cy="786.23" fill="black" r="3.654" stroke="none" /><circle cx="37.77" cy="786.23" fill="black" r="3.654" stroke="none" /><text fill="black" font-family="monospace" font-size="12" x="34.769999999999996" y="775.64">2</text><circle cx="61.77" cy="786.23" fill="black" r="2.916" stroke="none" /><circle cx="61.77" cy="786.23" fill="black" r="2.916" stroke="none" /><text fill="black" font-family="monospace" font-size="12" x="58.769999999999996" y="775.64">3</text><circle cx="85.77" cy="786.23" fill="black" r="2.322" stroke="none" /><circle cx="85.77" cy="786.23" fill="black" r="2.322" stroke="none" /><text fill="black" font-family="monospace" font-size="12" x="82.77" y="775.64">4</text><circle cx="109.77" cy="786.23" fill="black" r="1.854" stroke="none" /><circle cx="109.77" cy="786.23" fill="black" r="1.854" stroke="none" /><text fill="black" font-family="monospace" font-size="12" x="106.77" y="775.64">5</text><circle cx="133.77" cy="786.23" fill="black" r="1.476" stroke="none" /><circle cx="133.77" cy="786.23" fill="black" r="1.476" stroke="none" /><text fill="black" font-family="monospace" font-size="12" x="130.77" y="775.64">6</text><circle cx="157.77" cy="786.23" fill="black" r="1.17" stroke="none" /><circle cx="157.77" cy="786.23" fill="black" r="1.17" stroke="none" /><text fill="black" font-family="monospace" font-size="12" x="154.77" y="775.64">7</text><circle cx="181.77" cy="786.23" fill="black" r="0.936" stroke="none" /><circle cx="181.77" cy="786.23" fill="black" r="0.936" stroke="none" /><text fill="black" font-family="monospace" font-size="12" x="178.77" y="775.64">8</text><circle cx="205.77" cy="786.23" fill="black" r="0.738" stroke="none" /><circle cx="205.77" cy="786.23" fill="black" r="0.738" stroke="none" /><text fill="black" font-family="monospace" font-size="12" x="202.77" y="775.64">9</text><text fill="gray" fill-opacity="0.5" font-family="monospace" font-size="12" x="705.1382348520614" y="723.2082636905016">06h10m</text><text fill="gray" fill-opacity="0.5" font-family="monospace" font-size="12" x="604.2127644652614" y="725.5040349684186">06h15m</text><text fill="gray" fill-opacity="0.5" font-family="monospace" font-size="12" x="503.31102925615374" y="726.8895672154151">06h20m</text><text fill="gray" fill-opacity="0.5" font-family="monospace" font-size="12" x="402.4213030849921" y="727.3658423763768">06h25m</text><text fill="gray" fill-opacity="0.5" font-family="monospace" font-size="12" x="301.53185838149307" y="726.9331979265971">06h30m</text><text fill="gray" fill-opacity="0.5" font-family="monospace" font-size="12" x="200.63096754194547" y="725.5913273077176">06h35m</text><text fill="gray" fill-opacity="0.5" font-family="monospace" font-size="12" x="99.70690432574634" y="723.3392795317257">06h40m</text><text fill="gray" fill-opacity="0.5" font-family="monospace" font-size="12" x="63.07789970309858" y="678.5544855573555">+23°</text><text fill="gray" fill-opacity="0.5" font-family="monospace" font-size="12" x="65.76816735382238" y="591.1824641633165">+24°</text><text fill="gray" fill-opacity="0.5" font-family="monospace" font-size="12" x="68.50751018885023" y="503.8427157871879">+25°</text><text fill="gray" fill-opacity="0.5" font-family="monospace" font-size="12" x="71.29630308000293" y="416.5219686139624">+26°</text><text fill="gray" fill-opacity="0.5" font-family="monospace" font-size="12" x="74.13495100104905" y="329.20696235641645">+27°</text><text fill="gray" fill-opacity="0.5" font-family="monospace" font-size="12" x="77.02388925642265" y="241.8844402117585">+28°</text><text fill="gray" fill-opacity="0.5" font-family="monospace" font-size="12" x="79.9635837491382" y="154.5411408227678">+29°</text><text fill="gray" fill-opacity="0.5" font-family="monospace" font-size="12" x="82.95453128825358" y="67.16379023307059">+30°</text><text fill="black" font-family="monospace" font-size="12" x="12" y="48">&gt;&gt; No.560 06h08m 06h42m +22.5°+30.0°</text><a target="_self" xlink:href="hip034.svg"><text fill="black" font-family="monospace" font-size="12" x="12" y="36">&gt; No.34 06h00m 09h00m +22.5°+52.5°</text></a><a target="_self" xlink:href="hip002.svg"><text fill="black" font-family="monospace" font-size="12" x="12" y="24">No.2 00h 24h +0.0°+90.0°</text></a><polyline fill="none" points="717.0455,67.1638 714.3963,67.2548 704.9353,67.5738 695.4746,67.883 686.014,68.1824 676.5537,68.4721 667.0937,68.752 657.6338,69.0222 648.1741,69.2826 638.7146,69.5332 629.2553,69.7741 619.7962,70.0053 610.3373,70.2267 600.8785,70.4384 591.4199,70.6403 581.9615,70.8324 572.5032,71.0149 563.045,71.1875 553.587,71.3505 544.129,71.5037 534.6712,71.6472 525.2135,71.7809 515.7559,71.9049 506.2984,72.0192 496.841,72.1237 487.3836,72.2185 477.9263,72.3035 468.4691,72.3788 459.012,72.4444 449.5548,72.5003 440.0978,72.5464 430.6407,72.5828 421.1837,72.6095 411.7267,72.6264 402.2697,72.6336 392.8127,72.6311 383.3557,72.6188 373.8987,72.5968 364.4416,72.5651 354.9846,72.5237 345.5275,72.4725 336.0703,72.4115 326.6131,72.3409 317.1559,72.2605 307.6986,72.1704 298.2412,72.0705 288.7837,71.961 279.3261,71.8416 269.8685,71.7126 260.4107,71.5738 250.9529,71.4252 241.4949,71.267 232.0368,71.099 222.5785,70.9212 213.1201,70.7337 203.6616,70.5365 194.2029,70.3295 184.7441,70.1128 175.285,69.8863 165.8259,69.6501 156.3665,69.4041 146.9069,69.1484 137.4471,68.8829 127.9871,68.6077 118.5269,68.3227 109.0665,68.0279 99.6059,67.7234 90.145,67.4092 82.9545,67.1638" stroke="black" stroke-opacity="0.5" stroke-width="1" /><polyline fill="none" points="738.2489,722.2568 737.9184,711.33 737.587,700.4041 737.255,689.4789 736.9221,678.5545 736.5885,667.6308 736.2541,656.7077 735.919,645.7854 735.5831,634.8636 735.2464,623.9425 734.909,613.0219 734.5708,602.1019 734.2318,591.1825 733.8921,580.2635 733.5516,569.345 733.2103,558.427 732.8683,547.5094 732.5255,536.5922 732.1819,525.6754 731.8376,514.7589 731.4925,503.8427 731.1466,492.9269 730.7999,482.0113 730.4525,471.0959 730.1043,460.1808 729.7553,449.2659 729.4056,438.3511 729.055,427.4365 728.7037,416.522 728.3516,405.6076 727.9987,394.6932 727.6451,383.7789 727.2906,372.8646 726.9354,361.9503 726.5794,351.0359 726.2226,340.1215 725.865,329.207 725.5067,318.2923 725.1475,307.3776 724.7876,296.4626 724.4269,285.5475 724.0654,274.6321 723.7031,263.7165 723.34,252.8006 722.9761,241.8844 722.6114,230.9679 722.246,220.0511 721.8797,209.1339 721.5126,198.2162 721.1448,187.2982 720.7761,176.3796 720.4067,165.4606 720.0364,154.5411 719.6654,143.6211 719.2935,132.7005 718.9208,121.7793 718.5474,110.8576 718.1731,99.9351 717.798,89.012 717.4222,78.0883 717.0455,67.1638" stroke="black" stroke-opacity="0.5" stroke-width="1" /><polyline fill="none" points="738.2489,722.2568 735.4223,722.3418 725.3272,722.6397 715.2325,722.9286 705.1382,723.2083 695.0443,723.4788 684.9507,723.7403 674.8574,723.9927 664.7644,724.2359 654.6718,724.47 644.5794,724.695 634.4874,724.9109 624.3956,725.1177 614.304,725.3154 604.2128,725.504 594.1217,725.6835 584.0309,725.8539 573.9403,726.0152 563.8499,726.1674 553.7597,726.3105 543.6696,726.4445 533.5798,726.5694 523.49,726.6852 513.4005,726.7919 503.311,726.8896 493.2217,726.9781 483.1325,727.0575 473.0434,727.1279 462.9544,727.1892 452.8654,727.2413 442.7765,727.2844 432.6877,727.3184 422.5989,727.3433 412.5101,727.3591 402.4213,727.3658 392.3325,727.3635 382.2438,727.352 372.155,727.3315 362.0661,727.3019 351.9773,727.2631 341.8884,727.2153 331.7994,727.1584 321.7103,727.0924 311.6211,727.0174 301.5319,726.9332 291.4425,726.8399 281.353,726.7376 271.2633,726.6261 261.1735,726.5056 251.0836,726.376 240.9934,726.2372 230.9031,726.0894 220.8126,725.9325 210.7219,725.7665 200.631,725.5913 190.5398,725.4071 180.4484,725.2138 170.3567,725.0113 160.2648,724.7998 150.1726,724.5792 140.0801,724.3494 129.9873,724.1105 119.8941,723.8626 109.8007,723.6055 99.7069,723.3393 89.6128,723.064 79.5183,722.7795 69.4234,722.486 61.7511,722.2568" stroke="black" stroke-opacity="0.5" stroke-width="1" /><polyline fill="none" points="61.7511,722.2568 62.0816,711.33 62.413,700.4041 62.745,689.4789 63.0779,678.5545 63.4115,667.6308 63.7459,656.7077 64.081,645.7854 64.4169,634.8636 64.7536,623.9425 65.091,613.0219 65.4292,602.1019 65.7682,591.1825 66.1079,580.2635 66.4484,569.345 66.7897,558.427 67.1317,547.5094 67.4745,536.5922 67.8181,525.6754 68.1624,514.7589 68.5075,503.8427 68.8534,492.9269 69.2001,482.0113 69.5475,471.0959 69.8957,460.1808 70.2447,449.2659 70.5944,438.3511 70.945,427.4365 71.2963,416.522 71.6484,405.6076 72.0013,394.6932 72.3549,383.7789 72.7094,372.8646 73.0646,361.9503 73.4206,351.0359 73.7774,340.1215 74.135,329.207 74.4933,318.2923 74.8525,307.3776 75.2124,296.4626 75.5731,285.5475 75.9346,274.6321 76.2969,263.7165 76.66,252.8006 77.0239,241.8844 77.3886,230.9679 77.754,220.0511 78.1203,209.1339 78.4874,198.2162 78.8552,187.2982 79.2239,176.3796 79.5933,165.4606 79.9636,154.5411 80.3346,143.6211 80.7065,132.7005 81.0792,121.7793 81.4526,110.8576 81.8269,99.9351 82.202,89.012 82.5778,78.0883 82.9545,67.1638" stroke="black" stroke-opacity="0.5" stroke-width="1" /></svg>