<?xml version="1.0" encoding="utf-8" ?>
<svg baseProfile="tiny" height="800" version="1.2" width="800" xmlns="http://www.w3.org/2000/svg" xmlns:ev="http://www.w3.org/2001/xml-events" xmlns:xlink="http://www.w3.org/1999/xlink"><defs /><rect fill="none" height="800" stroke="black" stroke-width="2" width="800" x="0" y="0" /><polyline fill="none" points="649.02,724.5971 648.7768,713.6737 648.533,702.751 648.2886,691.829 648.0437,680.9078 647.7982,669.9873 647.5522,659.0674 647.3056,648.1482 647.0584,637.2296 646.8107,626.3116 646.5624,615.3941 646.3135,604.4772 646.0641,593.5608 645.8141,582.6449 645.5636,571.7295 645.3125,560.8145 645.0608,549.8999 644.8085,538.9857 644.5557,528.0718 644.3024,517.1583 644.0484,506.2451 643.7939,495.3321 643.5388,484.4194 643.2831,473.507 643.0269,462.5947 642.7701,451.6827 642.5127,440.7707 642.2548,429.8589 641.9963,418.9472 641.7372,408.0356 641.4775,397.124 641.2173,386.2124 640.9565,375.3009 640.6951,364.3892 640.4331,353.4776 640.1706,342.5658 639.9074,331.654 639.6437,320.742 639.3795,309.8298 639.1146,298.9175 638.8492,288.005 638.5831,277.0922 638.3165,266.1791 638.0494,255.2658 637.7816,244.3521 637.5132,233.4381 637.2443,222.5237 636.9748,211.609 636.7047,200.6938 636.434,189.7782 636.1627,178.8621 635.8908,167.9455 635.6184,157.0283 635.3453,146.1107 635.0717,135.1924 634.7974,124.2736 634.5226,113.3541 634.2472,102.4339 633.9712,91.5131 633.6946,80.5916 633.4174,69.6693" stroke="silver" stroke-opacity="0.5" stroke-width="1" /><polyline fill="none" points="548.1092,726.3867 547.9646,715.4657 547.8197,704.5455 547.6744,693.626 547.5288,682.7072 547.3828,671.7891 547.2365,660.8717 547.0899,649.9549 546.943,639.0387 546.7957,628.1231 546.6481,617.208 546.5001,606.2935 546.3518,595.3794 546.2032,584.4659 546.0542,573.5527 545.9049,562.64 545.7553,551.7278 545.6053,540.8158 545.455,529.9042 545.3044,518.993 545.1534,508.082 545.002,497.1713 544.8504,486.2608 544.6984,475.3506 544.546,464.4405 544.3934,453.5306 544.2403,442.6209 544.087,431.7112 543.9333,420.8017 543.7792,409.8922 543.6249,398.9827 543.4701,388.0732 543.3151,377.1637 543.1597,366.2542 543.0039,355.3446 542.8478,344.4349 542.6914,333.5251 542.5346,322.6151 542.3774,311.705 542.22,300.7947 542.0622,289.8841 541.904,278.9733 541.7455,268.0622 541.5866,257.1508 541.4274,246.239 541.2679,235.327 541.108,224.4145 540.9477,213.5016 540.7871,202.5883 540.6262,191.6745 540.4649,180.7603 540.3032,169.8455 540.1413,158.9302 539.9789,148.0143 539.8162,137.0979 539.6532,126.1808 539.4898,115.2631 539.326,104.3447 539.1619,93.4256 538.9975,82.5058 538.8326,71.5852" stroke="silver" stroke-opacity="0.5" stroke-width="1" /><polyline fill="none" points="447.2156,727.2666 447.1695,716.3468 447.1233,705.4278 447.077,694.5096 447.0306,683.592 446.9841,672.6751 446.9375,661.7589 446.8907,650.8432 446.8439,639.9282 446.7969,629.0138 446.7499,618.0999 446.7027,607.1865 446.6555,596.2736 446.6081,585.3612 446.5606,574.4492 446.513,563.5377 446.4653,552.6265 446.4175,541.7157 446.3696,530.8053 446.3216,519.8951 446.2735,508.9852 446.2253,498.0756 446.1769,487.1663 446.1285,476.2571 446.0799,465.3481 446.0313,454.4393 445.9825,443.5306 445.9336,432.622 445.8846,421.7135 445.8355,410.805 445.7863,399.8966 445.737,388.9882 445.6876,378.0797 445.638,367.1712 445.5884,356.2626 445.5386,345.354 445.4888,334.4451 445.4388,323.5362 445.3887,312.627 445.3385,301.7177 445.2882,290.8081 445.2378,279.8982 445.1873,268.9881 445.1367,258.0776 445.0859,247.1669 445.0351,236.2557 444.9841,225.3442 444.933,214.4322 444.8818,203.5198 444.8305,192.607 444.7791,181.6936 444.7276,170.7798 444.676,159.8654 444.6242,148.9504 444.5724,138.0348 444.5204,127.1186 444.4683,116.2017 444.4161,105.2842 444.3638,94.366 444.3114,83.447 444.2589,72.5273" stroke="silver" stroke-opacity="0.5" stroke-width="1" /><polyline fill="none" points="346.3275,727.2375 346.3799,716.3177 346.4324,705.3987 346.485,694.4803 346.5378,683.5627 346.5907,672.6458 346.6437,661.7295 346.6968,650.8139 346.75,639.8988 346.8034,628.9843 346.8569,618.0704 346.9105,607.157 346.9642,596.2441 347.0181,585.3316 347.0721,574.4196 347.1261,563.508 347.1804,552.5968 347.2347,541.686 347.2892,530.7755 347.3437,519.8653 347.3984,508.9554 347.4533,498.0457 347.5082,487.1363 347.5633,476.2271 347.6185,465.3181 347.6738,454.4093 347.7293,443.5005 347.7848,432.5919 347.8405,421.6834 347.8963,410.7749 347.9523,399.8664 348.0083,388.9579 348.0645,378.0495 348.1208,367.1409 348.1772,356.2323 348.2338,345.3236 348.2905,334.4147 348.3473,323.5057 348.4042,312.5965 348.4613,301.6872 348.5185,290.7775 348.5758,279.8677 348.6332,268.9575 348.6908,258.047 348.7484,247.1362 348.8063,236.225 348.8642,225.3135 348.9222,214.4015 348.9804,203.4891 349.0387,192.5762 349.0972,181.6628 349.1558,170.7489 349.2145,159.8344 349.2733,148.9194 349.3322,138.0038 349.3913,127.0876 349.4505,116.1707 349.5098,105.2532 349.5693,94.3349 349.6289,83.4159 349.6886,72.4962" stroke="silver" stroke-opacity="0.5" stroke-width="1" /><polyline fill="none" points="245.4331,726.2994 245.5841,715.3783 245.7353,704.458 245.8869,693.5384 246.0389,682.6195 246.1912,671.7013 246.3439,660.7837 246.4969,649.8668 246.6503,638.9505 246.804,628.0347 246.958,617.1195 247.1124,606.2049 247.2672,595.2907 247.4223,584.3771 247.5778,573.4638 247.7336,562.551 247.8897,551.6386 248.0463,540.7266 248.2031,529.8149 248.3603,518.9035 248.5179,507.9924 248.6758,497.0816 248.8341,486.171 248.9927,475.2607 249.1517,464.3505 249.3111,453.4405 249.4708,442.5306 249.6308,431.6209 249.7912,420.7112 249.952,409.8016 250.1131,398.892 250.2746,387.9825 250.4364,377.0729 250.5986,366.1633 250.7611,355.2536 250.924,344.3438 251.0873,333.4338 251.2509,322.5238 251.4149,311.6135 251.5793,300.7031 251.744,289.7924 251.909,278.8815 252.0744,267.9703 252.2402,257.0588 252.4064,246.147 252.5729,235.2348 252.7398,224.3223 252.907,213.4093 253.0746,202.4959 253.2426,191.582 253.4109,180.6677 253.5796,169.7528 253.7486,158.8374 253.9181,147.9215 254.0879,137.0049 254.258,126.0878 254.4286,115.17 254.5994,104.2515 254.7707,93.3323 254.9423,82.4124 255.1143,71.4918" stroke="silver" stroke-opacity="0.5" stroke-width="1" /><polyline fill="none" points="144.5208,724.4516 144.7704,713.5279 145.0205,702.6051 145.2712,691.6829 145.5225,680.7615 145.7743,669.8407 146.0268,658.9207 146.2798,648.0013 146.5334,637.0825 146.7875,626.1643 147.0423,615.2466 147.2976,604.3295 147.5535,593.413 147.81,582.4969 148.067,571.5812 148.3247,560.666 148.5829,549.7512 148.8417,538.8368 149.1011,527.9228 149.361,517.0091 149.6216,506.0957 149.8827,495.1826 150.1444,484.2697 150.4067,473.3571 150.6696,462.4446 150.9331,451.5324 151.1971,440.6203 151.4617,429.7083 151.727,418.7964 151.9928,407.8846 152.2592,396.9728 152.5262,386.0611 152.7938,375.1494 153.062,364.2376 153.3307,353.3258 153.6001,342.4138 153.8701,331.5018 154.1406,320.5897 154.4117,309.6774 154.6835,298.7649 154.9558,287.8522 155.2287,276.9392 155.5023,266.026 155.7764,255.1125 156.0511,244.1987 156.3264,233.2845 156.6024,222.37 156.8789,211.4551 157.156,200.5397 157.4337,189.624 157.712,178.7077 157.991,167.791 158.2705,156.8737 158.5506,145.9559 158.8314,135.0375 159.1127,124.1185 159.3947,113.1988 159.6773,102.2786 159.9604,91.3576 160.2442,80.4359 160.5286,69.5135" stroke="silver" stroke-opacity="0.5" stroke-width="1" /><polyline fill="none" points="736.5199,678.5667 728.4755,678.8089 718.4203,679.1034 708.3655,679.3886 698.3111,679.6647 688.257,679.9317 678.2032,680.1895 668.1497,680.4381 658.0966,680.6775 648.0437,680.9078 637.9911,681.1289 627.9388,681.3409 617.8868,681.5437 607.835,681.7374 597.7834,681.9219 587.7321,682.0973 577.681,682.2635 567.63,682.4205 557.5793,682.5685 547.5288,682.7072 537.4784,682.8368 527.4281,682.9573 517.3781,683.0686 507.3281,683.1708 497.2783,683.2639 487.2286,683.3478 477.179,683.4225 467.1294,683.4882 457.08,683.5446 447.0306,683.592 436.9813,683.6302 426.932,683.6593 416.8827,683.6792 406.8335,683.69 396.7842,683.6916 386.735,683.6841 376.6858,683.6675 366.6365,683.6417 356.5872,683.6068 346.5378,683.5627 336.4884,683.5096 326.4389,683.4472 316.3893,683.3758 306.3396,683.2951 296.2898,683.2054 286.2399,683.1065 276.1899,682.9984 266.1397,682.8813 256.0894,682.7549 246.0389,682.6195 235.9882,682.4748 225.9374,682.3211 215.8863,682.1582 205.8351,681.9861 195.7836,681.8049 185.7319,681.6145 175.6799,681.415 165.6277,681.2063 155.5752,680.9885 145.5225,680.7615 135.4694,680.5253 125.4161,680.28 115.3624,680.0255 105.3084,679.7619 95.2541,679.4891 85.1994,679.2071 75.1444,678.916 65.089,678.6157 63.4801,678.5667" stroke="silver" stroke-opacity="0.5" stroke-width="1" /><polyline fill="none" points="733.8328,591.1949 725.8528,591.4396 715.8781,591.7372 705.9037,592.0255 695.9297,592.3045 685.956,592.5743 675.9826,592.8348 666.0095,593.0861 656.0367,593.3281 646.0641,593.5608 636.0919,593.7843 626.1199,593.9986 616.1481,594.2035 606.1766,594.3993 596.2053,594.5857 586.2342,594.763 576.2633,594.931 566.2926,595.0897 556.3221,595.2392 546.3518,595.3794 536.3816,595.5104 526.4116,595.6322 516.4417,595.7447 506.472,595.848 496.5023,595.942 486.5328,596.0268 476.5633,596.1024 466.594,596.1687 456.6247,596.2258 446.6555,596.2736 436.6863,596.3122 426.7172,596.3416 416.7481,596.3617 406.779,596.3726 396.8099,596.3743 386.8408,596.3667 376.8717,596.3499 366.9026,596.3239 356.9334,596.2886 346.9642,596.2441 336.995,596.1903 327.0256,596.1273 317.0562,596.0551 307.0867,595.9736 297.1171,595.8829 287.1474,595.7829 277.1776,595.6738 267.2076,595.5553 257.2375,595.4277 247.2672,595.2907 237.2968,595.1446 227.3261,594.9892 217.3553,594.8245 207.3843,594.6506 197.4131,594.4675 187.4417,594.2751 177.47,594.0734 167.4981,593.8625 157.5259,593.6424 147.5535,593.413 137.5808,593.1743 127.6078,592.9264 117.6345,592.6692 107.6609,592.4027 97.687,592.127 87.7127,591.842 77.7381,591.5478 67.7632,591.2443 66.1672,591.1949" stroke="silver" stroke-opacity="0.5" stroke-width="1" /><polyline fill="none" points="731.0968,503.8552 723.1823,504.1024 713.2895,504.403 703.397,504.6942 693.5048,504.9761 683.613,505.2486 673.7214,505.5118 663.8301,505.7655 653.9391,506.01 644.0484,506.2451 634.1579,506.4708 624.2677,506.6872 614.3777,506.8943 604.4879,507.092 594.5983,507.2803 584.709,507.4593 574.8198,507.629 564.9308,507.7893 555.042,507.9403 545.1534,508.082 535.2649,508.2143 525.3765,508.3373 515.4883,508.451 505.6002,508.5553 495.7122,508.6503 485.8243,508.7359 475.9365,508.8123 466.0488,508.8792 456.1611,508.9369 446.2735,508.9852 436.3859,509.0242 426.4984,509.0539 416.6109,509.0742 406.7235,509.0852 396.836,509.0869 386.9485,509.0793 377.0611,509.0623 367.1736,509.036 357.286,509.0003 347.3984,508.9554 337.5108,508.9011 327.6231,508.8374 317.7353,508.7645 307.8475,508.6822 297.9595,508.5906 288.0714,508.4896 278.1833,508.3793 268.295,508.2597 258.4065,508.1307 248.5179,507.9924 238.6292,507.8448 228.7402,507.6878 218.8511,507.5215 208.9618,507.3458 199.0724,507.1608 189.1827,506.9665 179.2927,506.7628 169.4026,506.5498 159.5122,506.3274 149.6216,506.0957 139.7307,505.8546 129.8395,505.6042 119.948,505.3444 110.0563,505.0753 100.1642,504.7968 90.2719,504.5089 80.3792,504.2117 70.4862,503.9052 68.9032,503.8552" stroke="silver" stroke-opacity="0.5" stroke-width="1" /><polyline fill="none" points="728.3113,416.5346 720.4635,416.7842 710.6541,417.0876 700.845,417.3816 691.0362,417.6662 681.2277,417.9413 671.4194,418.2069 661.6114,418.4631 651.8037,418.7099 641.9963,418.9472 632.1891,419.1751 622.3821,419.3936 612.5753,419.6026 602.7687,419.8022 592.9624,419.9923 583.1562,420.173 573.3502,420.3443 563.5444,420.5062 553.7388,420.6586 543.9333,420.8017 534.1279,420.9352 524.3227,421.0594 514.5176,421.1741 504.7126,421.2795 494.9078,421.3754 485.103,421.4618 475.2983,421.5389 465.4937,421.6065 455.6891,421.6647 445.8846,421.7135 436.0802,421.7529 426.2757,421.7828 416.4713,421.8034 406.667,421.8145 396.8626,421.8162 387.0582,421.8084 377.2538,421.7913 367.4494,421.7647 357.645,421.7288 347.8405,421.6834 338.036,421.6285 328.2314,421.5643 318.4267,421.4906 308.622,421.4076 298.8171,421.3151 289.0122,421.2131 279.2071,421.1018 269.402,420.981 259.5967,420.8508 249.7912,420.7112 239.9856,420.5622 230.1799,420.4037 220.374,420.2358 210.5679,420.0585 200.7616,419.8717 190.9551,419.6755 181.1484,419.4699 171.3415,419.2548 161.5344,419.0303 151.727,418.7964 141.9194,418.553 132.1115,418.3002 122.3033,418.038 112.4949,417.7663 102.6862,417.4851 92.8772,417.1945 83.0679,416.8945 73.2583,416.585 71.6887,416.5346" stroke="silver" stroke-opacity="0.5" stroke-width="1" /><polyline fill="none" points="725.4761,329.2197 717.6962,329.4715 707.9716,329.7777 698.2474,330.0743 688.5234,330.3614 678.7997,330.639 669.0763,330.907 659.3531,331.1655 649.6301,331.4145 639.9074,331.654 630.185,331.8839 620.4627,332.1043 610.7407,332.3152 601.0188,332.5166 591.2971,332.7085 581.5757,332.8908 571.8544,333.0637 562.1332,333.227 552.4122,333.3808 542.6914,333.5251 532.9706,333.6599 523.2501,333.7852 513.5296,333.9009 503.8092,334.0072 494.089,334.104 484.3688,334.1912 474.6487,334.2689 464.9287,334.3372 455.2087,334.3959 445.4888,334.4451 435.7689,334.4849 426.0491,334.5151 416.3293,334.5358 406.6095,334.547 396.8897,334.5487 387.1699,334.5409 377.4501,334.5236 367.7302,334.4968 358.0104,334.4605 348.2905,334.4147 338.5705,334.3594 328.8505,334.2946 319.1305,334.2203 309.4103,334.1365 299.6901,334.0431 289.9698,333.9403 280.2493,333.8279 270.5288,333.7061 260.8081,333.5747 251.0873,333.4338 241.3664,333.2835 231.6453,333.1236 221.924,332.9542 212.2026,332.7752 202.481,332.5868 192.7592,332.3888 183.0373,332.1814 173.3151,331.9644 163.5927,331.7379 153.8701,331.5018 144.1472,331.2563 134.4241,331.0012 124.7008,330.7366 114.9771,330.4624 105.2533,330.1788 95.5291,329.8856 85.8047,329.5828 76.0799,329.2706 74.5239,329.2197" stroke="silver" stroke-opacity="0.5" stroke-width="1" /><polyline fill="none" points="722.5906,241.8973 714.8798,242.1512 705.2417,242.46 695.6037,242.7591 685.9661,243.0486 676.3287,243.3285 666.6916,243.5989 657.0547,243.8595 647.418,244.1106 637.7816,244.3521 628.1454,244.584 618.5093,244.8063 608.8735,245.019 599.2379,245.222 589.6024,245.4155 579.9671,245.5994 570.332,245.7737 560.697,245.9384 551.0621,246.0935 541.4274,246.239 531.7928,246.375 522.1584,246.5013 512.524,246.6181 502.8898,246.7252 493.2556,246.8228 483.6215,246.9108 473.9875,246.9892 464.3536,247.058 454.7197,247.1172 445.0859,247.1669 435.4521,247.2069 425.8184,247.2374 416.1846,247.2583 406.5509,247.2696 396.9172,247.2713 387.2835,247.2635 377.6498,247.246 368.016,247.219 358.3823,247.1824 348.7484,247.1362 339.1146,247.0804 329.4807,247.0151 319.8467,246.9401 310.2127,246.8556 300.5785,246.7614 290.9443,246.6577 281.31,246.5444 271.6756,246.4216 262.041,246.2891 252.4064,246.147 242.7716,245.9954 233.1367,245.8341 223.5016,245.6633 213.8663,245.4828 204.2309,245.2928 194.5954,245.0932 184.9596,244.884 175.3236,244.6651 165.6875,244.4367 156.0511,244.1987 146.4145,243.951 136.7777,243.6938 127.1407,243.427 117.5034,243.1505 107.8658,242.8644 98.228,242.5688 88.5899,242.2635 78.9516,241.9486 77.4094,241.8973" stroke="silver" stroke-opacity="0.5" stroke-width="1" /><polyline fill="none" points="719.6544,154.5541 712.014,154.81 702.4637,155.1212 692.9137,155.4227 683.3639,155.7145 673.8143,155.9967 664.265,156.2691 654.7159,156.5319 645.167,156.7849 635.6184,157.0283 626.0699,157.2621 616.5216,157.4861 606.9735,157.7005 597.4256,157.9051 587.8778,158.1002 578.3302,158.2855 568.7828,158.4612 559.2355,158.6272 549.6883,158.7835 540.1413,158.9302 530.5943,159.0672 521.0475,159.1945 511.5008,159.3122 501.9542,159.4202 492.4076,159.5186 482.8612,159.6072 473.3148,159.6863 463.7685,159.7556 454.2222,159.8153 444.676,159.8654 435.1298,159.9057 425.5836,159.9365 416.0375,159.9575 406.4914,159.9689 396.9452,159.9707 387.3991,159.9627 377.853,159.9452 368.3068,159.9179 358.7607,159.881 349.2145,159.8344 339.6682,159.7782 330.1219,159.7123 320.5755,159.6368 311.0291,159.5516 301.4826,159.4567 291.936,159.3522 282.3893,159.238 272.8425,159.1141 263.2957,158.9806 253.7486,158.8374 244.2015,158.6846 234.6543,158.5221 225.1069,158.3499 215.5593,158.168 206.0116,157.9765 196.4638,157.7753 186.9157,157.5644 177.3675,157.3438 167.8191,157.1136 158.2705,156.8737 148.7217,156.6241 139.1727,156.3648 129.6235,156.0959 120.074,155.8172 110.5243,155.5289 100.9744,155.2309 91.4242,154.9232 81.8737,154.6058 80.3456,154.5541" stroke="silver" stroke-opacity="0.5" stroke-width="1" /><polyline fill="none" points="716.667,67.1768 709.0981,67.4347 699.6373,67.7482 690.1766,68.0519 680.7162,68.3458 671.2561,68.6301 661.7961,68.9045 652.3363,69.1692 642.8768,69.4241 633.4174,69.6693 623.9582,69.9048 614.4992,70.1305 605.0404,70.3464 595.5817,70.5526 586.1232,70.7491 576.6648,70.9358 567.2066,71.1128 557.7485,71.28 548.2905,71.4375 538.8326,71.5852 529.3749,71.7233 519.9172,71.8515 510.4597,71.9701 501.0022,72.0789 491.5449,72.178 482.0875,72.2673 472.6303,72.3469 463.1731,72.4168 453.716,72.4769 444.2589,72.5273 434.8018,72.568 425.3448,72.5989 415.8878,72.6202 406.4308,72.6316 396.9738,72.6334 387.5168,72.6254 378.0598,72.6077 368.6027,72.5803 359.1457,72.5431 349.6886,72.4962 340.2315,72.4396 330.7743,72.3732 321.3171,72.2971 311.8598,72.2112 302.4024,72.1157 292.945,72.0104 283.4875,71.8953 274.0299,71.7706 264.5722,71.6361 255.1143,71.4918 245.6564,71.3378 236.1984,71.1741 226.7402,71.0006 217.2818,70.8174 207.8234,70.6245 198.3648,70.4218 188.906,70.2093 179.447,69.9872 169.9879,69.7552 160.5286,69.5135 151.0691,69.2621 141.6094,69.0009 132.1495,68.73 122.6894,68.4493 113.2291,68.1588 103.7686,67.8586 94.3078,67.5486 84.8468,67.2289 83.333,67.1768" stroke="silver" stroke-opacity="0.5" stroke-width="1" /><circle cx="734.2393" cy="696.3936" fill="black" r="0.738" stroke="none" /><circle cx="715.848" cy="159.6673" fill="black" r="0.738" stroke="none" /><circle cx="712.1886" cy="111.9478" fill="black" r="0.738" stroke="none" /><circle cx="725.9818" cy="551.2199" fill="black" r="0.738" stroke="none" /><circle cx="706.8453" cy="72.5848" fill="black" r="0.738" stroke="none" /><circle cx="709.7305" cy="162.1435" fill="black" r="0.738" stroke="none" /><circle cx="711.9028" cy="231.2327" fill="black" r="0.738" stroke="none" /><circle cx="718.2377" cy="464.2237" fill="black" r="0.738" stroke="none" /><circle cx="715.7578" cy="704.3692" fill="black" r="0.738" stroke="none" /><circle cx="706.2961" cy="444.7467" fill="black" r="0.738" stroke="none" /><circle cx="709.0205" cy="625.6819" fill="black" r="1.17" stroke="none" /><circle cx="690.4897" cy="92.4469" fill="black" r="0.738" stroke="none" /><circle cx="702.367" cy="571.4094" fill="black" r="0.738" stroke="none" /><circle cx="695.6015" cy="401.8066" fill="black" r="0.738" stroke="none" /><circle cx="685.1654" cy="656.9305" fill="black" r="0.738" stroke="none" /><circle cx="672.9299" cy="224.1117" fill="black" r="0.738" stroke="none" /><circle cx="673.7748" cy="259.4801" fill="black" r="0.738" stroke="none" /><circle cx="672.0849" cy="312.9144" fill="black" r="0.738" stroke="none" /><circle cx="671.0214" cy="526.7258" fill="black" r="0.738" stroke="none" /><circle cx="670.8646" cy="536.0789" fill="black" r="0.738" stroke="none" /><circle cx="666.4738" cy="394.3137" fill="black" r="0.738" stroke="none" /><circle cx="656.3787" cy="184.1058" fill="black" r="0.738" stroke="none" /><circle cx="668.148" cy="644.1607" fill="black" r="0.738" stroke="none" /><circle cx="656.7752" cy="312.7998" fill="black" r="0.738" stroke="none" /><circle cx="655.9868" cy="473.376" fill="black" r="0.738" stroke="none" /><circle cx="653.8763" cy="401.1012" fill="black" r="0.738" stroke="none" /><circle cx="643.1632" cy="302.6619" fill="black" r="0.738" stroke="none" /><circle cx="643.8174" cy="459.3443" fill="black" r="0.738" stroke="none" /><circle cx="636.4343" cy="220.8837" fill="black" r="0.738" stroke="none" /><circle cx="639.9959" cy="394.1022" fill="black" r="0.738" stroke="none" /><circle cx="635.1889" cy="369.3235" fill="black" r="0.738" stroke="none" /><circle cx="634.0858" cy="461.1416" fill="black" r="0.738" stroke="none" /><circle cx="634.695" cy="502.1788" fill="black" r="0.738" stroke="none" /><circle cx="626.7115" cy="206.7025" fill="black" r="0.738" stroke="none" /><circle cx="624.6203" cy="125.4853" fill="black" r="0.738" stroke="none" /><circle cx="629.2112" cy="340.291" fill="black" r="1.17" stroke="none" /><circle cx="630.0942" cy="596.9721" fill="black" r="0.738" stroke="none" /><circle cx="630.2677" cy="635.2379" fill="black" r="0.738" stroke="none" /><circle cx="629.9083" cy="714.3406" fill="black" r="0.738" stroke="none" /><circle cx="616.7887" cy="407.3754" fill="black" r="0.738" stroke="none" /><circle cx="607.9495" cy="143.0865" fill="black" r="0.738" stroke="none" /><circle cx="605.2507" cy="349.1092" fill="black" r="1.17" stroke="none" /><circle cx="604.2382" cy="341.5328" fill="black" r="0.738" stroke="none" /><circle cx="604.4714" cy="383.6174" fill="black" r="0.738" stroke="none" /><circle cx="599.4316" cy="147.9897" fill="black" r="0.738" stroke="none" /><circle cx="602.4051" cy="354.8432" fill="black" r="0.738" stroke="none" /><circle cx="601.7" cy="377.9974" fill="black" r="1.17" stroke="none" /><circle cx="605.5936" cy="601.4861" fill="black" r="0.738" stroke="none" /><circle cx="592.4318" cy="450.3008" fill="black" r="0.738" stroke="none" /><circle cx="585.2391" cy="239.0373" fill="black" r="0.738" stroke="none" /><circle cx="581.8845" cy="93.8203" fill="black" r="0.738" stroke="none" /><circle cx="581.5871" cy="308.093" fill="black" r="0.738" stroke="none" /><circle cx="578.7047" cy="462.0731" fill="black" r="0.738" stroke="none" /><circle cx="578.5721" cy="486.4354" fill="black" r="0.738" stroke="none" /><circle cx="578.4827" cy="642.5864" fill="black" r="0.738" stroke="none" /><circle cx="574.1571" cy="549.0294" fill="black" r="0.738" stroke="none" /><circle cx="568.384" cy="249.0388" fill="black" r="0.738" stroke="none" /><circle cx="567.8697" cy="286.4204" fill="black" r="0.738" stroke="none" /><circle cx="572.4178" cy="574.1206" fill="black" r="0.936" stroke="none" /><circle cx="567.611" cy="597.7766" fill="black" r="0.738" stroke="none" /><circle cx="554.3958" cy="101.6596" fill="black" r="0.738" stroke="none" /><circle cx="555.0883" cy="185.3364" fill="black" r="1.17" stroke="none" /><circle cx="555.0835" cy="521.4725" fill="black" r="0.738" stroke="none" /><circle cx="553.0417" cy="697.5723" fill="black" r="0.738" stroke="none" /><circle cx="552.5742" cy="698.7146" fill="black" r="0.738" stroke="none" /><circle cx="547.1585" cy="351.6179" fill="black" r="0.738" stroke="none" /><circle cx="539.2385" cy="456.4823" fill="black" r="1.476" stroke="none" /><circle cx="534.6674" cy="287.1074" fill="black" r="0.738" stroke="none" /><circle cx="536.6665" cy="618.0372" fill="black" r="0.738" stroke="none" /><circle cx="536.8425" cy="638.3841" fill="black" r="1.17" stroke="none" /><circle cx="526.8407" cy="262.6801" fill="black" r="1.476" stroke="none" /><circle cx="516.5352" cy="378.382" fill="black" r="0.738" stroke="none" /><circle cx="512.6612" cy="147.77" fill="black" r="0.738" stroke="none" /><circle cx="513.6776" cy="266.1602" fill="black" r="0.936" stroke="none" /><circle cx="515.4261" cy="432.1617" fill="black" r="0.738" stroke="none" /><circle cx="508.9994" cy="200.9954" fill="black" r="0.738" stroke="none" /><circle cx="510.1721" cy="537.2283" fill="black" r="1.17" stroke="none" /><circle cx="506.4017" cy="329.1791" fill="black" r="0.738" stroke="none" /><circle cx="506.0876" cy="387.7493" fill="black" r="0.738" stroke="none" /><circle cx="501.8761" cy="573.8905" fill="black" r="0.738" stroke="none" /><circle cx="497.8296" cy="166.7995" fill="black" r="0.738" stroke="none" /><circle cx="491.8241" cy="146.6866" fill="black" r="0.936" stroke="none" /><circle cx="491.5445" cy="237.0616" fill="black" r="0.738" stroke="none" /><circle cx="490.978" cy="201.7079" fill="black" r="0.738" stroke="none" /><circle cx="494.2592" cy="668.7036" fill="black" r="0.738" stroke="none" /><circle cx="482.4448" cy="290.1298" fill="black" r="0.738" stroke="none" /><circle cx="478.4357" cy="141.8299" fill="black" r="0.738" stroke="none" /><circle cx="481.5725" cy="552.3276" fill="black" r="0.738" stroke="none" /><circle cx="480.7321" cy="464.2629" fill="black" r="0.738" stroke="none" /><circle cx="479.7726" cy="452.226" fill="black" r="0.738" stroke="none" /><circle cx="478.3764" cy="454.855" fill="black" r="0.738" stroke="none" /><circle cx="471.965" cy="286.2845" fill="black" r="0.738" stroke="none" /><circle cx="471.1025" cy="688.704" fill="black" r="0.738" stroke="none" /><circle cx="467.9667" cy="335.1024" fill="black" r="0.936" stroke="none" /><circle cx="463.2389" cy="412.1954" fill="black" r="0.738" stroke="none" /><circle cx="460.128" cy="116.2011" fill="black" r="0.738" stroke="none" /><circle cx="457.9682" cy="564.529" fill="black" r="0.738" stroke="none" /><circle cx="457.8054" cy="683.8902" fill="black" r="0.738" stroke="none" /><circle cx="447.5593" cy="96.3592" fill="black" r="0.936" stroke="none" /><circle cx="445.5923" cy="627.8838" fill="black" r="0.738" stroke="none" /><circle cx="438.2757" cy="240.1257" fill="black" r="0.738" stroke="none" /><circle cx="437.2705" cy="84.3517" fill="black" r="0.738" stroke="none" /><circle cx="431.589" cy="267.9942" fill="black" r="0.738" stroke="none" /><circle cx="426.1092" cy="298.471" fill="black" r="0.738" stroke="none" /><circle cx="424.3129" cy="454.0771" fill="black" r="0.738" stroke="none" /><circle cx="422.4471" cy="289.4032" fill="black" r="0.738" stroke="none" /><circle cx="420.8657" cy="237.9094" fill="black" r="0.738" stroke="none" /><circle cx="419.0149" cy="661.4061" fill="black" r="0.738" stroke="none" /><circle cx="416.1784" cy="696.8686" fill="black" r="0.936" stroke="none" /><circle cx="413.5945" cy="214.0914" fill="black" r="0.738" stroke="none" /><circle cx="412.2618" cy="443.5389" fill="black" r="0.738" stroke="none" /><circle cx="407.631" cy="152.6333" fill="black" r="0.738" stroke="none" /><circle cx="405.6419" cy="557.4402" fill="black" r="1.17" stroke="none" /><circle cx="403.977" cy="173.8532" fill="black" r="0.738" stroke="none" /><circle cx="403.6758" cy="392.3199" fill="black" r="0.738" stroke="none" /><circle cx="400.0" cy="152.0252" fill="black" r="0.738" stroke="none" /><circle cx="396.01" cy="395.8104" fill="black" r="0.738" stroke="none" /><circle cx="389.9808" cy="323.0244" fill="black" r="0.738" stroke="none" /><circle cx="382.8583" cy="593.131" fill="black" r="0.738" stroke="none" /><circle cx="378.4893" cy="625.1642" fill="black" r="0.738" stroke="none" /><circle cx="365.4054" cy="159.7331" fill="black" r="0.738" stroke="none" /><circle cx="365.1873" cy="75.4509" fill="black" r="0.738" stroke="none" /><circle cx="360.0097" cy="245.007" fill="black" r="0.738" stroke="none" /><circle cx="358.4631" cy="572.0257" fill="black" r="0.738" stroke="none" /><circle cx="355.4953" cy="429.0503" fill="black" r="0.738" stroke="none" /><circle cx="353.6254" cy="324.3173" fill="black" r="0.738" stroke="none" /><circle cx="353.671" cy="201.3304" fill="black" r="0.738" stroke="none" /><circle cx="352.2443" cy="504.4401" fill="black" r="0.738" stroke="none" /><circle cx="351.9" cy="493.3542" fill="black" r="0.738" stroke="none" /><circle cx="351.8148" cy="410.6196" fill="black" r="0.738" stroke="none" /><circle cx="345.1754" cy="93.5237" fill="black" r="0.738" stroke="none" /><circle cx="341.9199" cy="644.6769" fill="black" r="0.738" stroke="none" /><circle cx="344.283" cy="167.2288" fill="black" r="0.738" stroke="none" /><circle cx="335.7612" cy="360.0876" fill="black" r="0.738" stroke="none" /><circle cx="334.0495" cy="359.5528" fill="black" r="0.738" stroke="none" /><circle cx="329.116" cy="418.4287" fill="black" r="0.738" stroke="none" /><circle cx="325.8486" cy="687.5485" fill="black" r="0.738" stroke="none" /><circle cx="328.144" cy="118.913" fill="black" r="0.738" stroke="none" /><circle cx="313.6595" cy="466.1377" fill="black" r="0.738" stroke="none" /><circle cx="314.6582" cy="240.9595" fill="black" r="0.738" stroke="none" /><circle cx="310.8007" cy="543.0129" fill="black" r="0.738" stroke="none" /><circle cx="299.9781" cy="614.2462" fill="black" r="0.738" stroke="none" /><circle cx="299.3999" cy="624.894" fill="black" r="0.738" stroke="none" /><circle cx="299.6291" cy="241.6882" fill="black" r="0.738" stroke="none" /><circle cx="299.0917" cy="241.508" fill="black" r="0.738" stroke="none" /><circle cx="293.2256" cy="408.4277" fill="black" r="0.738" stroke="none" /><circle cx="284.6355" cy="584.58" fill="black" r="0.738" stroke="none" /><circle cx="287.0375" cy="297.9441" fill="black" r="0.738" stroke="none" /><circle cx="280.9444" cy="502.1259" fill="black" r="0.738" stroke="none" /><circle cx="283.1033" cy="163.2643" fill="black" r="0.738" stroke="none" /><circle cx="279.3908" cy="178.7627" fill="black" r="0.738" stroke="none" /><circle cx="271.4551" cy="426.1571" fill="black" r="0.738" stroke="none" /><circle cx="275.575" cy="75.0247" fill="black" r="0.738" stroke="none" /><circle cx="271.7517" cy="206.083" fill="black" r="0.738" stroke="none" /><circle cx="272.444" cy="76.9916" fill="black" r="0.738" stroke="none" /><circle cx="269.8666" cy="214.8769" fill="black" r="0.738" stroke="none" /><circle cx="267.0416" cy="89.3229" fill="black" r="0.738" stroke="none" /><circle cx="261.1028" cy="501.7066" fill="black" r="0.738" stroke="none" /><circle cx="250.3328" cy="486.28" fill="black" r="0.738" stroke="none" /><circle cx="244.1662" cy="684.2532" fill="black" r="0.738" stroke="none" /><circle cx="247.4558" cy="347.0849" fill="black" r="0.738" stroke="none" /><circle cx="247.8295" cy="257.7766" fill="black" r="0.738" stroke="none" /><circle cx="244.0791" cy="260.5986" fill="black" r="0.738" stroke="none" /><circle cx="237.7015" cy="249.4919" fill="black" r="0.738" stroke="none" /><circle cx="232.2727" cy="360.6355" fill="black" r="0.738" stroke="none" /><circle cx="230.8903" cy="377.8986" fill="black" r="0.738" stroke="none" /><circle cx="230.3376" cy="378.2385" fill="black" r="0.738" stroke="none" /><circle cx="226.3891" cy="192.7027" fill="black" r="0.738" stroke="none" /><circle cx="225.0044" cy="172.1502" fill="black" r="0.738" stroke="none" /><circle cx="212.7261" cy="585.7487" fill="black" r="0.738" stroke="none" /><circle cx="210.8025" cy="437.0889" fill="black" r="0.936" stroke="none" /><circle cx="207.7096" cy="476.5859" fill="black" r="0.738" stroke="none" /><circle cx="202.5055" cy="697.3073" fill="black" r="0.936" stroke="none" /><circle cx="204.3831" cy="287.7398" fill="black" r="0.738" stroke="none" /><circle cx="196.0181" cy="313.9431" fill="black" r="0.738" stroke="none" /><circle cx="195.5808" cy="170.3377" fill="black" r="0.738" stroke="none" /><circle cx="194.9822" cy="169.7132" fill="black" r="0.738" stroke="none" /><circle cx="187.7073" cy="292.3711" fill="black" r="0.738" stroke="none" /><circle cx="190.3107" cy="111.849" fill="black" r="0.738" stroke="none" /><circle cx="176.1142" cy="695.7575" fill="black" r="0.738" stroke="none" /><circle cx="178.4052" cy="430.1523" fill="black" r="0.738" stroke="none" /><circle cx="179.7744" cy="255.861" fill="black" r="0.738" stroke="none" /><circle cx="179.4733" cy="97.438" fill="black" r="0.738" stroke="none" /><circle cx="171.2245" cy="452.7015" fill="black" r="0.738" stroke="none" /><circle cx="173.0196" cy="254.1331" fill="black" r="0.738" stroke="none" /><circle cx="162.6182" cy="690.2324" fill="black" r="0.738" stroke="none" /><circle cx="164.9426" cy="521.9113" fill="black" r="0.738" stroke="none" /><circle cx="162.3293" cy="500.8015" fill="black" r="0.738" stroke="none" /><circle cx="168.681" cy="212.9703" fill="black" r="0.738" stroke="none" /><circle cx="165.2831" cy="219.8773" fill="black" r="0.738" stroke="none" /><circle cx="165.9964" cy="113.8916" fill="black" r="0.738" stroke="none" /><circle cx="159.0122" cy="376.6102" fill="black" r="0.738" stroke="none" /><circle cx="146.0011" cy="618.7178" fill="black" r="0.738" stroke="none" /><circle cx="155.8155" cy="207.9329" fill="black" r="0.738" stroke="none" /><circle cx="145.9235" cy="274.605" fill="black" r="0.738" stroke="none" /><circle cx="136.8461" cy="472.7598" fill="black" r="0.738" stroke="none" /><circle cx="132.893" cy="463.8352" fill="black" r="0.738" stroke="none" /><circle cx="135.5572" cy="352.8717" fill="black" r="0.738" stroke="none" /><circle cx="129.0946" cy="428.4419" fill="black" r="0.936" stroke="none" /><circle cx="129.8428" cy="137.8309" fill="black" r="0.738" stroke="none" /><circle cx="112.1513" cy="377.3898" fill="black" r="1.17" stroke="none" /><circle cx="101.7419" cy="601.4184" fill="black" r="0.738" stroke="none" /><circle cx="114.1043" cy="71.6851" fill="black" r="0.738" stroke="none" /><circle cx="106.5192" cy="90.953" fill="black" r="0.738" stroke="none" /><circle cx="106.0982" cy="92.2517" fill="black" r="0.738" stroke="none" /><circle cx="94.419" cy="322.9474" fill="black" r="0.738" stroke="none" /><circle cx="87.8036" cy="537.0369" fill="black" r="0.738" stroke="none" /><circle cx="92.2642" cy="272.5377" fill="black" r="0.738" stroke="none" /><circle cx="84.8762" cy="452.6953" fill="black" r="0.738" stroke="none" /><circle cx="76.2866" cy="672.9146" fill="black" r="0.738" stroke="none" /><circle cx="77.4043" cy="581.3962" fill="black" r="1.17" stroke="none" /><circle cx="75.2255" cy="619.3639" fill="black" r="0.936" stroke="none" /><circle cx="75.2692" cy="523.4599" fill="black" r="0.738" stroke="none" /><circle cx="77.2069" cy="455.9542" fill="black" r="0.738" stroke="none" /><circle cx="68.2656" cy="656.0582" fill="black" r="0.738" stroke="none" /><circle cx="76.7103" cy="355.513" fill="black" r="0.738" stroke="none" /><circle cx="13.77" cy="786.23" fill="black" r="4.59" stroke="none" /><circle cx="13.77" cy="786.23" fill="black" r="4.59" stroke="none" /><text fill="black" font-family="monospace" font-size="12" x="10.77" y="775.64">1</text><circle cx="37.77" cy="786.23" fill="black" r="3.654" stroke="none" /><circle cx="37.77" cy="786.23" fill="black" r="3.654" stroke="none" /><text fill="black" font-family="monospace" font-size="12" x="34.769999999999996" y="775.64">2</text><circle cx="61.77" cy="786.23" fill="black" r="2.916" stroke="none" /><circle cx="61.77" cy="786.23" fill="black" r="2.916" stroke="none" /><text fill="black" font-family="monospace" font-size="12" x="58.769999999999996" y="775.64">3</text><circle cx="85.77" cy="786.23" fill="black" r="2.322" stroke="none" /><circle cx="85.77" cy="786.23" fill="black" r="2.322" stroke="none" /><text fill="black" font-family="monospace" font-size="12" x="82.77" y="775.64">4</text><circle cx="109.77" cy="786.23" fill="black" r="1.854" stroke="none" /><circle cx="109.77" cy="786.23" fill="black" r="1.854" stroke="none" /><text fill="black" font-family="monospace" font-size="12" x="106.77" y="775.64">5</text><circle cx="133.77" cy="786.23" fill="black" r="1.476" stroke="none" /><circle cx="133.77" cy="786.23" fill="black" r="1.476" stroke="none" /><text fill="black" font-family="monospace" font-size="12" x="130.77" y="775.64">6</text><circle cx="157.77" cy="786.23" fill="black" r="1.17" stroke="none" /><circle cx="157.77" cy="786.23" fill="black" r="1.17" stroke="none" /><text fill="black" font-family="monospace" font-size="12" x="154.77" y="775.64">7</text><circle cx="181.77" cy="786.23" fill="black" r="0.936" stroke="none" /><circle cx="181.77" cy="786.23" fill="black" r="0.936" stroke="none" /><text fill="black" font-family="monospace" font-size="12" x="178.77" y="775.64">8</text><circle cx="205.77" cy="786.23" fill="black" r="0.738" stroke="none" /><circle cx="205.77" cy="786.23" fill="black" r="0.738" stroke="none" /><text fill="black" font-family="monospace" font-size="12" x="202.77" y="775.64">9</text><text fill="gray" fill-opacity="0.5" font-family="monospace" font-size="12" x="649.0200470510953" y="724.5971469053414">20h10m</text><text fill="gray" fill-opacity="0.5" font-family="monospace" font-size="12" x="548.1092206678173" y="726.3866657528249">20h15m</text><text fill="gray" fill-opacity="0.5" font-family="monospace" font-size="12" x="447.21560998871894" y="727.2665711350242">20h20m</text><text fill="gray" fill-opacity="0.5" font-family="monospace" font-size="12" x="346.32748790534333" y="727.2374865684849">20h25m</text><text fill="gray" fill-opacity="0.5" font-family="monospace" font-size="12" x="245.43312665694887" y="726.2993914452428">20h30m</text><text fill="gray" fill-opacity="0.5" font-family="monospace" font-size="12" x="144.52079922441214" y="724.4516210062018">20h35m</text><text fill="gray" fill-opacity="0.5" font-family="monospace" font-size="12" x="63.480125895682136" y="678.5667478452463">+23°</text><text fill="gray" fill-opacity="0.5" font-family="monospace" font-size="12" x="66.1671748113572" y="591.1948569614149">+24°</text><text fill="gray" fill-opacity="0.5" font-family="monospace" font-size="12" x="68.90324031218495" y="503.8552334814606">+25°</text><text fill="gray" fill-opacity="0.5" font-family="monospace" font-size="12" x="71.6886968278177" y="416.5346055115809">+26°</text><text fill="gray" fill-opacity="0.5" font-family="monospace" font-size="12" x="74.52394885402447" y="329.2197126824234">+27°</text><text fill="gray" fill-opacity="0.5" font-family="monospace" font-size="12" x="77.40943118114467" y="241.89729810558998">+28°</text><text fill="gray" fill-opacity="0.5" font-family="monospace" font-size="12" x="80.345609161693" y="154.5541003346308">+29°</text><text fill="gray" fill-opacity="0.5" font-family="monospace" font-size="12" x="83.33297901746465" y="67.17684532016995">+30°</text><text fill="black" font-family="monospace" font-size="12" x="12" y="48">&gt;&gt; No.585 20h06m 20h39m +22.5°+30.0°</text><a target="_self" xlink:href="hip038.svg"><text fill="black" font-family="monospace" font-size="12" x="12" y="36">&gt; No.38 18h00m 21h00m +22.5°+52.5°</text></a><a target="_self" xlink:href="hip002.svg"><text fill="black" font-family="monospace" font-size="12" x="12" y="24">No.2 00h 24h +0.0°+90.0°</text></a><polyline fill="none" points="716.667,67.1768 709.0981,67.4347 699.6373,67.7482 690.1766,68.0519 680.7162,68.3458 671.2561,68.6301 661.7961,68.9045 652.3363,69.1692 642.8768,69.4241 633.4174,69.6693 623.9582,69.9048 614.4992,70.1305 605.0404,70.3464 595.5817,70.5526 586.1232,70.7491 576.6648,70.9358 567.2066,71.1128 557.7485,71.28 548.2905,71.4375 538.8326,71.5852 529.3749,71.7233 519.9172,71.8515 510.4597,71.9701 501.0022,72.0789 491.5449,72.178 482.0875,72.2673 472.6303,72.3469 463.1731,72.4168 453.716,72.4769 444.2589,72.5273 434.8018,72.568 425.3448,72.5989 415.8878,72.6202 406.4308,72.6316 396.9738,72.6334 387.5168,72.6254 378.0598,72.6077 368.6027,72.5803 359.1457,72.5431 349.6886,72.4962 340.2315,72.4396 330.7743,72.3732 321.3171,72.2971 311.8598,72.2112 302.4024,72.1157 292.945,72.0104 283.4875,71.8953 274.0299,71.7706 264.5722,71.6361 255.1143,71.4918 245.6564,71.3378 236.1984,71.1741 226.7402,71.0006 217.2818,70.8174 207.8234,70.6245 198.3648,70.4218 188.906,70.2093 179.447,69.9872 169.9879,69.7552 160.5286,69.5135 151.0691,69.2621 141.6094,69.0009 132.1495,68.73 122.6894,68.4493 113.2291,68.1588 103.7686,67.8586 94.3078,67.5486 84.8468,67.2289 83.333,67.1768" stroke="black" stroke-opacity="0.5" stroke-width="1" /><polyline fill="none" points="737.8451,722.2689 737.515,711.3422 737.184,700.4163 736.8523,689.4912 736.5199,678.5667 736.1867,667.643 735.8527,656.72 735.518,645.7977 735.1825,634.8759 734.8462,623.9548 734.5092,613.0343 734.1714,602.1143 733.8328,591.1949 733.4935,580.2759 733.1534,569.3574 732.8126,558.4394 732.4709,547.5218 732.1286,536.6047 731.7854,525.6878 731.4415,514.7714 731.0968,503.8552 730.7513,492.9394 730.405,482.0238 730.058,471.1085 729.7102,460.1934 729.3617,449.2785 729.0123,438.3637 728.6622,427.4491 728.3113,416.5346 727.9596,405.6202 727.6072,394.7059 727.2539,383.7916 726.8999,372.8773 726.5451,361.963 726.1896,351.0486 725.8332,340.1342 725.4761,329.2197 725.1181,318.3051 724.7594,307.3903 724.3999,296.4754 724.0396,285.5603 723.6785,274.6449 723.3167,263.7293 722.954,252.8135 722.5906,241.8973 722.2263,230.9808 721.8613,220.064 721.4955,209.1467 721.1288,198.2291 720.7614,187.3111 720.3932,176.3926 720.0242,165.4736 719.6544,154.5541 719.2838,143.6341 718.9124,132.7135 718.5402,121.7923 718.1671,110.8706 717.7933,99.9482 717.4187,89.0251 717.0433,78.1013 716.667,67.1768" stroke="black" stroke-opacity="0.5" stroke-width="1" /><polyline fill="none" points="737.8451,722.2689 729.769,722.5098 719.6741,722.8026 709.5797,723.0863 699.4856,723.3609 689.3918,723.6264 679.2984,723.8827 669.2053,724.13 659.1125,724.3681 649.02,724.5971 638.9279,724.8171 628.8359,725.0279 618.7443,725.2296 608.6529,725.4222 598.5617,725.6057 588.4708,725.7801 578.3801,725.9454 568.2896,726.1016 558.1993,726.2487 548.1092,726.3867 538.0193,726.5156 527.9295,726.6354 517.8399,726.7461 507.7504,726.8477 497.661,726.9403 487.5717,727.0237 477.4826,727.0981 467.3935,727.1633 457.3045,727.2195 447.2156,727.2666 437.1267,727.3046 427.0379,727.3335 416.9491,727.3533 406.8604,727.364 396.7716,727.3656 386.6828,727.3582 376.594,727.3416 366.5052,727.316 356.4164,727.2813 346.3275,727.2375 336.2385,727.1846 326.1495,727.1226 316.0604,727.0515 305.9711,726.9714 295.8818,726.8821 285.7924,726.7837 275.7028,726.6763 265.6131,726.5598 255.5232,726.4341 245.4331,726.2994 235.3429,726.1556 225.2525,726.0026 215.1618,725.8406 205.071,725.6695 194.9799,725.4893 184.8886,725.3 174.7971,725.1015 164.7053,724.894 154.6132,724.6774 144.5208,724.4516 134.4281,724.2168 124.3351,723.9728 114.2418,723.7197 104.1482,723.4575 94.0542,723.1862 83.9599,722.9058 73.8652,722.6162 63.7701,722.3176 62.1549,722.2689" stroke="black" stroke-opacity="0.5" stroke-width="1" /><polyline fill="none" points="62.1549,722.2689 62.485,711.3422 62.816,700.4163 63.1477,689.4912 63.4801,678.5667 63.8133,667.643 64.1473,656.72 64.482,645.7977 64.8175,634.8759 65.1538,623.9548 65.4908,613.0343 65.8286,602.1143 66.1672,591.1949 66.5065,580.2759 66.8466,569.3574 67.1874,558.4394 67.5291,547.5218 67.8714,536.6047 68.2146,525.6878 68.5585,514.7714 68.9032,503.8552 69.2487,492.9394 69.595,482.0238 69.942,471.1085 70.2898,460.1934 70.6383,449.2785 70.9877,438.3637 71.3378,427.4491 71.6887,416.5346 72.0404,405.6202 72.3928,394.7059 72.7461,383.7916 73.1001,372.8773 73.4549,361.963 73.8104,351.0486 74.1668,340.1342 74.5239,329.2197 74.8819,318.3051 75.2406,307.3903 75.6001,296.4754 75.9604,285.5603 76.3215,274.6449 76.6833,263.7293 77.046,252.8135 77.4094,241.8973 77.7737,230.9808 78.1387,220.064 78.5045,209.1467 78.8712,198.2291 79.2386,187.3111 79.6068,176.3926 79.9758,165.4736 80.3456,154.5541 80.7162,143.6341 81.0876,132.7135 81.4598,121.7923 81.8329,110.8706 82.2067,99.9482 82.5813,89.0251 82.9567,78.1013 83.333,67.1768" stroke="black" stroke-opacity="0.5" stroke-width="1" /></svg>