<?xml version="1.0" encoding="utf-8" ?>
<svg baseProfile="tiny" height="800" version="1.2" width="800" xmlns="http://www.w3.org/2000/svg" xmlns:ev="http://www.w3.org/2001/xml-events" xmlns:xlink="http://www.w3.org/1999/xlink"><defs /><rect fill="none" height="800" stroke="black" stroke-width="2" width="800" x="0" y="0" /><polyline fill="none" points="728.5576,722.5454 728.2365,711.6191 727.9147,700.6935 727.5921,689.7688 727.2688,678.8447 726.9448,667.9214 726.62,656.9988 726.2945,646.0768 725.9683,635.1554 725.6413,624.2347 725.3135,613.3145 724.985,602.3949 724.6558,591.4758 724.3258,580.5572 723.9951,569.6391 723.6637,558.7214 723.3314,547.8042 722.9985,536.8874 722.6648,525.9709 722.3303,515.0548 721.9951,504.139 721.6592,493.2235 721.3225,482.3083 720.985,471.3933 720.6468,460.4785 720.3078,449.5639 719.9681,438.6495 719.6276,427.7352 719.2864,416.8211 718.9444,405.907 718.6017,394.993 718.2582,384.079 717.9139,373.165 717.5689,362.2511 717.2231,351.337 716.8765,340.4229 716.5292,329.5088 716.1812,318.5945 715.8323,307.68 715.4827,296.7654 715.1324,285.8506 714.7812,274.9355 714.4293,264.0202 714.0767,253.1047 713.7232,242.1888 713.369,231.2726 713.014,220.356 712.6583,209.4391 712.3018,198.5218 711.9445,187.604 711.5864,176.6858 711.2276,165.7671 710.8679,154.8479 710.5075,143.9281 710.1463,133.0078 709.7844,122.087 709.4216,111.1654 709.0581,100.2433 708.6938,89.3205 708.3287,78.397 707.9628,67.4728" stroke="silver" stroke-opacity="0.5" stroke-width="1" /><polyline fill="none" points="627.6249,725.0526 627.4026,714.1297 627.1798,703.2077 626.9564,692.2863 626.7326,681.3657 626.5082,670.4458 626.2833,659.5266 626.0579,648.608 625.832,637.69 625.6056,626.7726 625.3787,615.8557 625.1512,604.9394 624.9232,594.0236 624.6948,583.1083 624.4657,572.1935 624.2362,561.2791 624.0062,550.3651 623.7756,539.4514 623.5446,528.5381 623.313,517.6252 623.0809,506.7125 622.8482,495.8002 622.6151,484.8881 622.3814,473.9762 622.1472,463.0645 621.9125,452.1529 621.6773,441.2416 621.4415,430.3303 621.2052,419.4191 620.9684,408.5081 620.7311,397.597 620.4932,386.686 620.2549,375.7749 620.0159,364.8639 619.7765,353.9527 619.5365,343.0415 619.296,332.1302 619.055,321.2187 618.8135,310.307 618.5714,299.3952 618.3288,288.4832 618.0856,277.5709 617.842,266.6583 617.5978,255.7455 617.353,244.8323 617.1077,233.9188 616.8619,223.0049 616.6156,212.0906 616.3687,201.1759 616.1213,190.2608 615.8733,179.3451 615.6249,168.429 615.3758,157.5123 615.1263,146.5951 614.8762,135.6773 614.6255,124.7589 614.3743,113.8399 614.1226,102.9202 613.8703,91.9998 613.6175,81.0787 613.3641,70.1569" stroke="silver" stroke-opacity="0.5" stroke-width="1" /><polyline fill="none" points="526.7187,726.6492 526.595,715.7285 526.471,704.8087 526.3467,693.8896 526.2221,682.9712 526.0973,672.0534 525.9721,661.1363 525.8467,650.2199 525.721,639.3041 525.595,628.3888 525.4687,617.4741 525.3421,606.5599 525.2152,595.6462 525.0881,584.733 524.9606,573.8202 524.8329,562.9078 524.7049,551.9959 524.5766,541.0843 524.448,530.173 524.3191,519.2621 524.1899,508.3514 524.0605,497.4411 523.9307,486.5309 523.8007,475.621 523.6703,464.7113 523.5397,453.8017 523.4088,442.8923 523.2776,431.9829 523.1461,421.0737 523.0143,410.1645 522.8822,399.2553 522.7499,388.3462 522.6172,377.437 522.4842,366.5278 522.351,355.6185 522.2174,344.7091 522.0836,333.7996 521.9495,322.8899 521.815,311.98 521.6803,301.07 521.5453,290.1597 521.41,279.2492 521.2744,268.3384 521.1385,257.4273 521.0023,246.5158 520.8658,235.604 520.729,224.6918 520.5919,213.7792 520.4545,202.8662 520.3168,191.9527 520.1788,181.0387 520.0405,170.1242 519.9019,159.2092 519.763,148.2936 519.6238,137.3774 519.4843,126.4605 519.3445,115.5431 519.2044,104.625 519.064,93.7061 518.9233,82.7866 518.7823,71.8663" stroke="silver" stroke-opacity="0.5" stroke-width="1" /><polyline fill="none" points="425.8273,727.3363 425.8021,716.4167 425.7768,705.4978 425.7515,694.5796 425.7261,683.6621 425.7006,672.7453 425.6751,661.8292 425.6496,650.9137 425.6239,639.9987 425.5983,629.0844 425.5725,618.1706 425.5467,607.2573 425.5209,596.3445 425.495,585.4322 425.469,574.5203 425.443,563.6088 425.4169,552.6978 425.3907,541.787 425.3645,530.8767 425.3383,519.9666 425.3119,509.0568 425.2855,498.1473 425.2591,487.238 425.2326,476.329 425.206,465.4201 425.1794,454.5113 425.1527,443.6027 425.126,432.6942 425.0992,421.7858 425.0724,410.8774 425.0454,399.9691 425.0185,389.0607 424.9914,378.1523 424.9643,367.2439 424.9372,356.3354 424.91,345.4268 424.8827,334.5181 424.8554,323.6092 424.828,312.7001 424.8005,301.7908 424.773,290.8813 424.7454,279.9715 424.7178,269.0615 424.6901,258.1511 424.6623,247.2404 424.6345,236.3293 424.6066,225.4179 424.5787,214.506 424.5507,203.5937 424.5226,192.6809 424.4945,181.7676 424.4663,170.8538 424.4381,159.9395 424.4098,149.0246 424.3814,138.1091 424.353,127.1929 424.3245,116.2762 424.2959,105.3587 424.2673,94.4405 424.2387,83.5216 424.2099,72.602" stroke="silver" stroke-opacity="0.5" stroke-width="1" /><polyline fill="none" points="324.9388,727.1146 325.0121,716.1946 325.0855,705.2754 325.1591,694.3569 325.2329,683.4391 325.3069,672.522 325.381,661.6056 325.4553,650.6898 325.5298,639.7745 325.6044,628.8599 325.6792,617.9458 325.7542,607.0322 325.8293,596.1191 325.9046,585.2065 325.9801,574.2944 326.0558,563.3826 326.1316,552.4712 326.2076,541.5602 326.2837,530.6496 326.3601,519.7392 326.4366,508.8292 326.5133,497.9194 326.5901,487.0098 326.6671,476.1005 326.7443,465.1913 326.8217,454.2823 326.8992,443.3734 326.9769,432.4647 327.0548,421.556 327.1329,410.6473 327.2111,399.7387 327.2895,388.8301 327.3681,377.9215 327.4468,367.0128 327.5258,356.104 327.6049,345.1952 327.6841,334.2862 327.7636,323.377 327.8432,312.4677 327.923,301.5582 328.003,290.6484 328.0831,279.7384 328.1634,268.8281 328.2439,257.9175 328.3246,247.0066 328.4054,236.0953 328.4865,225.1836 328.5677,214.2715 328.6491,203.3589 328.7306,192.4459 328.8123,181.5324 328.8942,170.6184 328.9763,159.7038 329.0586,148.7887 329.141,137.8729 329.2237,126.9566 329.3065,116.0396 329.3894,105.1219 329.4726,94.2035 329.5559,83.2844 329.6394,72.3646" stroke="silver" stroke-opacity="0.5" stroke-width="1" /><polyline fill="none" points="224.0416,725.9837 224.2134,715.0621 224.3857,704.1414 224.5583,693.2213 224.7313,682.302 224.9047,671.3834 225.0785,660.4654 225.2527,649.548 225.4273,638.6313 225.6023,627.7151 225.7777,616.7995 225.9535,605.8845 226.1297,594.9699 226.3062,584.0558 226.4832,573.1422 226.6606,562.2289 226.8384,551.3161 227.0166,540.4037 227.1952,529.4916 227.3742,518.5798 227.5536,507.6683 227.7333,496.7571 227.9135,485.8462 228.0941,474.9354 228.2751,464.0249 228.4565,453.1145 228.6384,442.2042 228.8206,431.2941 229.0032,420.3841 229.1862,409.4741 229.3696,398.5641 229.5535,387.6542 229.7377,376.7442 229.9224,365.8342 230.1074,354.9242 230.2929,344.014 230.4787,333.1037 230.665,322.1933 230.8517,311.2827 231.0388,300.3719 231.2263,289.4609 231.4142,278.5497 231.6026,267.6381 231.7913,256.7263 231.9805,245.8141 232.17,234.9016 232.36,223.9887 232.5504,213.0754 232.7412,202.1617 232.9324,191.2475 233.1241,180.3328 233.3161,169.4176 233.5086,158.5019 233.7015,147.5856 233.8948,136.6688 234.0885,125.7513 234.2826,114.8332 234.4772,103.9144 234.6722,92.9949 234.8676,82.0747 235.0634,71.1538" stroke="silver" stroke-opacity="0.5" stroke-width="1" /><polyline fill="none" points="123.124,723.9429 123.3945,713.0185 123.6656,702.0949 123.9373,691.1721 124.2097,680.25 124.4826,669.3285 124.7563,658.4078 125.0305,647.4877 125.3053,636.5682 125.5808,625.6493 125.8569,614.731 126.1337,603.8132 126.411,592.896 126.689,581.9792 126.9676,571.0629 127.2469,560.1471 127.5267,549.2316 127.8072,538.3166 128.0884,527.4019 128.3701,516.4876 128.6525,505.5735 128.9356,494.6598 129.2192,483.7463 129.5035,472.833 129.7884,461.9199 130.074,451.0071 130.3602,440.0943 130.647,429.1817 130.9345,418.2693 131.2226,407.3568 131.5114,396.4445 131.8008,385.5321 132.0908,374.6198 132.3815,363.7074 132.6728,352.795 132.9647,341.8825 133.2573,330.9699 133.5506,320.0572 133.8444,309.1443 134.139,298.2313 134.4341,287.318 134.7299,276.4045 135.0264,265.4907 135.3235,254.5767 135.6213,243.6623 135.9197,232.7476 136.2187,221.8325 136.5185,210.9171 136.8188,200.0012 137.1198,189.0849 137.4215,178.1681 137.7238,167.2508 138.0268,156.3331 138.3304,145.4147 138.6347,134.4958 138.9397,123.5763 139.2453,112.6562 139.5515,101.7354 139.8584,90.814 140.166,79.8918 140.4743,68.9689" stroke="silver" stroke-opacity="0.5" stroke-width="1" /><polyline fill="none" points="736.9221,678.5545 727.2688,678.8447 717.2137,679.1381 707.159,679.4223 697.1046,679.6973 687.0505,679.9631 676.9968,680.2198 666.9433,680.4673 656.8902,680.7056 646.8374,680.9348 636.7848,681.1549 626.7326,681.3657 616.6806,681.5675 606.6288,681.76 596.5772,681.9434 586.5259,682.1177 576.4748,682.2828 566.4239,682.4388 556.3732,682.5856 546.3227,682.7233 536.2723,682.8518 526.2221,682.9712 516.1721,683.0814 506.1221,683.1825 496.0723,683.2744 486.0226,683.3572 475.973,683.4309 465.9235,683.4954 455.8741,683.5508 445.8247,683.5971 435.7754,683.6342 425.7261,683.6621 415.6768,683.681 405.6276,683.6906 395.5783,683.6912 385.5291,683.6826 375.4798,683.6649 365.4306,683.638 355.3812,683.602 345.3319,683.5568 335.2824,683.5026 325.2329,683.4391 315.1833,683.3666 305.1336,683.2849 295.0839,683.194 285.0339,683.094 274.9839,682.9849 264.9337,682.8666 254.8834,682.7392 244.8328,682.6026 234.7822,682.4569 224.7313,682.302 214.6802,682.138 204.6289,681.9648 194.5774,681.7825 184.5257,681.591 174.4737,681.3904 164.4214,681.1806 154.3689,680.9617 144.3161,680.7336 134.2631,680.4964 124.2097,680.25 114.156,679.9944 104.1019,679.7296 94.0476,679.4557 83.9929,679.1727 73.9378,678.8804 63.8824,678.579 63.0779,678.5545" stroke="silver" stroke-opacity="0.5" stroke-width="1" /><polyline fill="none" points="734.2318,591.1825 724.6558,591.4758 714.6811,591.7723 704.7068,592.0595 694.7328,592.3374 684.7591,592.6061 674.7858,592.8655 664.8127,593.1156 654.8399,593.3565 644.8674,593.5882 634.8952,593.8105 624.9232,594.0236 614.9515,594.2275 604.98,594.4221 595.0087,594.6075 585.0377,594.7836 575.0668,594.9505 565.0962,595.1081 555.1257,595.2565 545.1554,595.3956 535.1852,595.5255 525.2152,595.6462 515.2453,595.7576 505.2756,595.8598 495.306,595.9527 485.3364,596.0364 475.367,596.1108 465.3977,596.176 455.4284,596.232 445.4592,596.2787 435.49,596.3162 425.5209,596.3445 415.5518,596.3635 405.5827,596.3733 395.6136,596.3739 385.6445,596.3652 375.6754,596.3473 365.7063,596.3201 355.7371,596.2837 345.7679,596.2381 335.7987,596.1832 325.8293,596.1191 315.8599,596.0458 305.8904,595.9632 295.9208,595.8714 285.951,595.7703 275.9812,595.66 266.0112,595.5405 256.0411,595.4117 246.0708,595.2737 236.1003,595.1264 226.1297,594.9699 216.1588,594.8041 206.1878,594.6291 196.2165,594.4449 186.2451,594.2514 176.2734,594.0486 166.3014,593.8366 156.3292,593.6153 146.3568,593.3848 136.384,593.145 126.411,592.896 116.4377,592.6377 106.464,592.3701 96.4901,592.0933 86.5158,591.8072 76.5412,591.5119 66.5662,591.2072 65.7682,591.1825" stroke="silver" stroke-opacity="0.5" stroke-width="1" /><polyline fill="none" points="731.4925,503.8427 721.9951,504.139 712.1024,504.4385 702.2099,504.7286 692.3178,505.0093 682.426,505.2807 672.5344,505.5427 662.6432,505.7954 652.7522,506.0387 642.8615,506.2727 632.9711,506.4973 623.0809,506.7125 613.1909,506.9185 603.3011,507.1151 593.4116,507.3023 583.5223,507.4802 573.6331,507.6487 563.7442,507.808 553.8554,507.9578 543.9667,508.0984 534.0783,508.2296 524.1899,508.3514 514.3017,508.464 504.4136,508.5672 494.5256,508.661 484.6377,508.7456 474.7499,508.8208 464.8622,508.8867 454.9746,508.9432 445.087,508.9904 435.1994,509.0283 425.3119,509.0568 415.4244,509.0761 405.537,509.0859 395.6495,509.0865 385.7621,509.0777 375.8746,509.0596 365.9871,509.0322 356.0995,508.9954 346.2119,508.9494 336.3243,508.8939 326.4366,508.8292 316.5488,508.7551 306.6609,508.6717 296.773,508.5789 286.8849,508.4769 276.9967,508.3654 267.1083,508.2447 257.2199,508.1146 247.3313,507.9752 237.4425,507.8264 227.5536,507.6683 217.6644,507.5009 207.7751,507.3241 197.8856,507.138 187.9959,506.9426 178.1059,506.7378 168.2158,506.5236 158.3253,506.3001 148.4347,506.0673 138.5437,505.8251 128.6525,505.5735 118.761,505.3126 108.8692,505.0424 98.9772,504.7627 89.0848,504.4738 79.192,504.1754 69.299,503.8677 68.5075,503.8427" stroke="silver" stroke-opacity="0.5" stroke-width="1" /><polyline fill="none" points="728.7037,416.522 719.2864,416.8211 709.477,417.1234 699.6679,417.4163 689.8592,417.6997 680.0507,417.9736 670.2425,418.2381 660.4345,418.4932 650.6268,418.7389 640.8194,418.9751 631.0122,419.2018 621.2052,419.4191 611.3985,419.627 601.592,419.8255 591.7856,420.0145 581.9795,420.1941 572.1735,420.3643 562.3677,420.525 552.5621,420.6763 542.7566,420.8182 532.9513,420.9506 523.1461,421.0737 513.341,421.1873 503.5361,421.2915 493.7312,421.3862 483.9264,421.4716 474.1217,421.5475 464.3171,421.614 454.5126,421.6711 444.7081,421.7187 434.9036,421.757 425.0992,421.7858 415.2948,421.8052 405.4904,421.8152 395.6861,421.8157 385.8817,421.8069 376.0773,421.7886 366.2729,421.7609 356.4685,421.7238 346.664,421.6773 336.8594,421.6213 327.0548,421.556 317.2501,421.4812 307.4454,421.397 297.6405,421.3033 287.8356,421.2003 278.0305,421.0878 268.2253,420.9659 258.42,420.8346 248.6146,420.6938 238.8089,420.5437 229.0032,420.3841 219.1972,420.215 209.3911,420.0366 199.5848,419.8487 189.7783,419.6513 179.9716,419.4446 170.1646,419.2284 160.3575,419.0028 150.5501,418.7677 140.7424,418.5232 130.9345,418.2693 121.1263,418.0059 111.3179,417.733 101.5091,417.4508 91.7001,417.159 81.8908,416.8579 72.0811,416.5472 71.2963,416.522" stroke="silver" stroke-opacity="0.5" stroke-width="1" /><polyline fill="none" points="725.865,329.207 716.5292,329.5088 706.8047,329.8138 697.0805,330.1093 687.3566,330.3952 677.6329,330.6717 667.9095,330.9386 658.1863,331.1959 648.4634,331.4438 638.7407,331.6821 629.0183,331.9109 619.296,332.1302 609.574,332.3399 599.8522,332.5402 590.1306,332.7309 580.4091,332.9121 570.6878,333.0838 560.9667,333.246 551.2457,333.3986 541.5249,333.5418 531.8042,333.6754 522.0836,333.7996 512.3631,333.9142 502.6428,334.0193 492.9225,334.1149 483.2024,334.201 473.4823,334.2776 463.7623,334.3447 454.0423,334.4023 444.3224,334.4504 434.6025,334.489 424.8827,334.5181 415.1629,334.5377 405.4431,334.5477 395.7233,334.5483 386.0035,334.5394 376.2837,334.5209 366.5639,334.493 356.844,334.4555 347.1241,334.4086 337.4041,334.3521 327.6841,334.2862 317.9641,334.2107 308.2439,334.1258 298.5237,334.0313 288.8033,333.9273 279.0829,333.8138 269.3623,333.6908 259.6416,333.5583 249.9208,333.4163 240.1998,333.2648 230.4787,333.1037 220.7575,332.9332 211.036,332.7531 201.3144,332.5635 191.5926,332.3644 181.8706,332.1558 172.1484,331.9377 162.426,331.71 152.7033,331.4729 142.9804,331.2262 133.2573,330.9699 123.5339,330.7042 113.8103,330.4289 104.0864,330.1441 94.3622,329.8497 84.6377,329.5459 74.9129,329.2324 74.135,329.207" stroke="silver" stroke-opacity="0.5" stroke-width="1" /><polyline fill="none" points="722.9761,241.8844 713.7232,242.1888 704.0851,242.4964 694.4472,242.7944 684.8096,243.0827 675.1723,243.3615 665.5352,243.6306 655.8983,243.8902 646.2616,244.1401 636.6252,244.3805 626.989,244.6112 617.353,244.8323 607.7172,245.0438 598.0816,245.2458 588.4461,245.4381 578.8109,245.6208 569.1757,245.794 559.5408,245.9575 549.906,246.1115 540.2713,246.2559 530.6367,246.3906 521.0023,246.5158 511.3679,246.6314 501.7337,246.7374 492.0995,246.8339 482.4655,246.9207 472.8315,246.9979 463.1975,247.0656 453.5637,247.1237 443.9299,247.1722 434.2961,247.2111 424.6623,247.2404 415.0286,247.2602 405.3949,247.2703 395.7612,247.2709 386.1275,247.2619 376.4937,247.2433 366.86,247.2151 357.2262,247.1774 347.5924,247.13 337.9585,247.0731 328.3246,247.0066 318.6906,246.9305 309.0566,246.8448 299.4224,246.7495 289.7882,246.6446 280.1539,246.5302 270.5194,246.4062 260.8849,246.2725 251.2502,246.1293 241.6154,245.9765 231.9805,245.8141 222.3454,245.6421 212.7101,245.4605 203.0747,245.2694 193.4391,245.0686 183.8033,244.8582 174.1673,244.6382 164.5311,244.4086 154.8947,244.1695 145.2581,243.9207 135.6213,243.6623 125.9842,243.3943 116.3469,243.1167 106.7093,242.8295 97.0715,242.5326 87.4334,242.2262 77.795,241.9101 77.0239,241.8844" stroke="silver" stroke-opacity="0.5" stroke-width="1" /><polyline fill="none" points="720.0364,154.5411 710.8679,154.8479 701.3177,155.1579 691.7677,155.4583 682.2179,155.7489 672.6684,156.0299 663.1191,156.3011 653.57,156.5627 644.0212,156.8147 634.4725,157.0569 624.9241,157.2894 615.3758,157.5123 605.8278,157.7255 596.2798,157.9291 586.7321,158.1229 577.1845,158.3071 567.6371,158.4816 558.0898,158.6465 548.5426,158.8016 538.9956,158.9471 529.4487,159.083 519.9019,159.2092 510.3552,159.3257 500.8086,159.4325 491.2621,159.5297 481.7156,159.6172 472.1692,159.6951 462.6229,159.7633 453.0766,159.8218 443.5304,159.8707 433.9842,159.9099 424.4381,159.9395 414.8919,159.9594 405.3458,159.9696 395.7997,159.9702 386.2536,159.9611 376.7075,159.9424 367.1613,159.914 357.6151,159.8759 348.0689,159.8282 338.5226,159.7708 328.9763,159.7038 319.43,159.6271 309.8835,159.5407 300.337,159.4447 290.7904,159.339 281.2437,159.2237 271.6969,159.0986 262.15,158.964 252.603,158.8196 243.0559,158.6656 233.5086,158.5019 223.9612,158.3285 214.4136,158.1455 204.8659,157.9528 195.318,157.7505 185.7699,157.5384 176.2217,157.3167 166.6733,157.0853 157.1247,156.8442 147.5758,156.5935 138.0268,156.3331 128.4775,156.0629 118.928,155.7831 109.3783,155.4936 99.8283,155.1945 90.2781,154.8856 80.7276,154.567 79.9636,154.5411" stroke="silver" stroke-opacity="0.5" stroke-width="1" /><polyline fill="none" points="717.0455,67.1638 707.9628,67.4728 698.502,67.7851 689.0414,68.0877 679.581,68.3805 670.1209,68.6635 660.6609,68.9368 651.2012,69.2003 641.7416,69.4541 632.2823,69.6981 622.8231,69.9324 613.3641,70.1569 603.9053,70.3717 594.4467,70.5767 584.9882,70.772 575.5298,70.9575 566.0716,71.1333 556.6135,71.2994 547.1556,71.4557 537.6977,71.6023 528.24,71.7392 518.7823,71.8663 509.3248,71.9837 499.8673,72.0913 490.41,72.1892 480.9527,72.2774 471.4954,72.3558 462.0382,72.4245 452.5811,72.4835 443.124,72.5327 433.667,72.5722 424.2099,72.602 414.7529,72.6221 405.2959,72.6324 395.8389,72.633 386.3819,72.6238 376.9249,72.6049 367.4679,72.5763 358.0108,72.538 348.5537,72.4899 339.0966,72.4321 329.6394,72.3646 320.1822,72.2873 310.7249,72.2003 301.2675,72.1036 291.8101,71.9971 282.3526,71.8809 272.8949,71.7549 263.4372,71.6193 253.9794,71.4738 244.5214,71.3187 235.0634,71.1538 225.6052,70.9792 216.1468,70.7948 206.6884,70.6007 197.2297,70.3968 187.7709,70.1832 178.312,69.9598 168.8528,69.7267 159.3935,69.4839 149.934,69.2313 140.4743,68.9689 131.0143,68.6968 121.5542,68.4149 112.0939,68.1233 102.6333,67.8219 93.1725,67.5108 83.7114,67.1899 82.9545,67.1638" stroke="silver" stroke-opacity="0.5" stroke-width="1" /><line fill="none" stroke="green" stroke-opacity="0.5" stroke-width="1.5" x1="127.6889" x2="194.8668" y1="540.3521" y2="632.3713" /><circle cx="713.4921" cy="167.0915" fill="black" r="0.738" stroke="none" /><circle cx="722.0054" cy="440.8583" fill="black" r="0.738" stroke="none" /><circle cx="705.3367" cy="109.6385" fill="black" r="0.738" stroke="none" /><circle cx="714.0042" cy="544.4131" fill="black" r="0.738" stroke="none" /><circle cx="712.719" cy="673.9316" fill="black" r="0.738" stroke="none" /><circle cx="707.3849" cy="508.336" fill="black" r="0.738" stroke="none" /><circle cx="700.7789" cy="357.263" fill="black" r="0.738" stroke="none" /><circle cx="697.2501" cy="335.7843" fill="black" r="0.936" stroke="none" /><circle cx="696.1936" cy="465.9268" fill="black" r="0.738" stroke="none" /><circle cx="687.339" cy="214.0776" fill="black" r="1.476" stroke="none" /><circle cx="693.5237" cy="586.0773" fill="black" r="0.738" stroke="none" /><circle cx="678.9672" cy="138.9719" fill="black" r="0.738" stroke="none" /><circle cx="692.2053" cy="655.8709" fill="black" r="0.738" stroke="none" /><circle cx="655.5851" cy="320.8677" fill="black" r="0.738" stroke="none" /><circle cx="645.1283" cy="418.6104" fill="black" r="0.738" stroke="none" /><circle cx="647.664" cy="559.2748" fill="black" r="0.738" stroke="none" /><circle cx="640.7874" cy="300.7111" fill="black" r="0.738" stroke="none" /><circle cx="643.464" cy="501.5417" fill="black" r="0.738" stroke="none" /><circle cx="627.4069" cy="356.8389" fill="black" r="0.738" stroke="none" /><circle cx="633.0416" cy="626.3535" fill="black" r="0.738" stroke="none" /><circle cx="632.3764" cy="720.4964" fill="black" r="0.738" stroke="none" /><circle cx="619.6029" cy="184.9388" fill="black" r="0.738" stroke="none" /><circle cx="619.1843" cy="366.1047" fill="black" r="0.738" stroke="none" /><circle cx="617.4883" cy="718.7854" fill="black" r="0.738" stroke="none" /><circle cx="610.8712" cy="585.5729" fill="black" r="0.738" stroke="none" /><circle cx="600.303" cy="426.1378" fill="black" r="0.738" stroke="none" /><circle cx="594.9272" cy="200.065" fill="black" r="0.738" stroke="none" /><circle cx="590.4758" cy="396.2024" fill="black" r="0.738" stroke="none" /><circle cx="586.7623" cy="266.1682" fill="black" r="0.738" stroke="none" /><circle cx="591.9566" cy="698.4531" fill="black" r="0.738" stroke="none" /><circle cx="571.8476" cy="117.3434" fill="black" r="0.738" stroke="none" /><circle cx="573.1402" cy="609.1307" fill="black" r="0.738" stroke="none" /><circle cx="563.1163" cy="513.231" fill="black" r="0.738" stroke="none" /><circle cx="555.235" cy="97.3641" fill="black" r="0.738" stroke="none" /><circle cx="557.3631" cy="331.6449" fill="black" r="0.936" stroke="none" /><circle cx="559.7239" cy="519.2203" fill="black" r="0.738" stroke="none" /><circle cx="561.3156" cy="635.953" fill="black" r="0.738" stroke="none" /><circle cx="559.4297" cy="525.9478" fill="black" r="0.936" stroke="none" /><circle cx="554.1435" cy="236.2651" fill="black" r="0.738" stroke="none" /><circle cx="547.2433" cy="357.3782" fill="black" r="0.738" stroke="none" /><circle cx="536.9043" cy="89.5274" fill="black" r="0.738" stroke="none" /><circle cx="536.4386" cy="156.4515" fill="black" r="0.738" stroke="none" /><circle cx="538.4679" cy="354.2736" fill="black" r="0.936" stroke="none" /><circle cx="534.5608" cy="296.2755" fill="black" r="0.738" stroke="none" /><circle cx="527.421" cy="72.7118" fill="black" r="0.738" stroke="none" /><circle cx="522.5804" cy="426.2304" fill="black" r="0.738" stroke="none" /><circle cx="512.2265" cy="207.9434" fill="black" r="0.738" stroke="none" /><circle cx="516.192" cy="723.5304" fill="black" r="0.738" stroke="none" /><circle cx="500.9884" cy="597.9964" fill="black" r="0.738" stroke="none" /><circle cx="496.3282" cy="397.4477" fill="black" r="0.738" stroke="none" /><circle cx="493.1048" cy="247.1734" fill="black" r="0.738" stroke="none" /><circle cx="489.4334" cy="112.1224" fill="black" r="0.936" stroke="none" /><circle cx="479.6353" cy="656.243" fill="black" r="0.738" stroke="none" /><circle cx="474.5732" cy="324.2325" fill="black" r="0.738" stroke="none" /><circle cx="472.6998" cy="139.4308" fill="black" r="0.738" stroke="none" /><circle cx="475.0107" cy="648.5034" fill="black" r="0.738" stroke="none" /><circle cx="469.1007" cy="199.8831" fill="black" r="0.738" stroke="none" /><circle cx="455.7799" cy="423.9333" fill="black" r="0.738" stroke="none" /><circle cx="450.3549" cy="108.311" fill="black" r="0.738" stroke="none" /><circle cx="450.9753" cy="499.8864" fill="black" r="0.738" stroke="none" /><circle cx="450.5601" cy="512.1075" fill="black" r="0.738" stroke="none" /><circle cx="445.8054" cy="546.9556" fill="black" r="0.738" stroke="none" /><circle cx="443.0775" cy="94.9835" fill="black" r="0.738" stroke="none" /><circle cx="432.6173" cy="369.5782" fill="black" r="0.738" stroke="none" /><circle cx="428.1553" cy="76.2599" fill="black" r="0.738" stroke="none" /><circle cx="404.3298" cy="654.6104" fill="black" r="0.738" stroke="none" /><circle cx="398.4465" cy="323.9021" fill="black" r="0.738" stroke="none" /><circle cx="393.1275" cy="266.1228" fill="black" r="0.738" stroke="none" /><circle cx="392.1046" cy="195.3283" fill="black" r="0.738" stroke="none" /><circle cx="384.485" cy="214.3504" fill="black" r="0.738" stroke="none" /><circle cx="381.3387" cy="642.2831" fill="black" r="0.738" stroke="none" /><circle cx="377.3017" cy="435.5797" fill="black" r="0.738" stroke="none" /><circle cx="376.6207" cy="601.7621" fill="black" r="0.738" stroke="none" /><circle cx="374.5591" cy="596.2574" fill="black" r="0.738" stroke="none" /><circle cx="374.6716" cy="296.1165" fill="black" r="0.738" stroke="none" /><circle cx="373.8391" cy="288.783" fill="black" r="0.738" stroke="none" /><circle cx="370.8497" cy="384.9481" fill="black" r="0.738" stroke="none" /><circle cx="371.3265" cy="146.3929" fill="black" r="0.738" stroke="none" /><circle cx="367.3439" cy="582.3574" fill="black" r="0.738" stroke="none" /><circle cx="368.8072" cy="79.2203" fill="black" r="0.738" stroke="none" /><circle cx="361.9472" cy="362.4903" fill="black" r="0.738" stroke="none" /><circle cx="360.0203" cy="97.7052" fill="black" r="0.738" stroke="none" /><circle cx="354.406" cy="97.7667" fill="black" r="0.738" stroke="none" /><circle cx="351.192" cy="459.2265" fill="black" r="0.738" stroke="none" /><circle cx="348.1946" cy="523.9718" fill="black" r="0.738" stroke="none" /><circle cx="344.4622" cy="124.0902" fill="black" r="0.738" stroke="none" /><circle cx="326.6089" cy="694.1919" fill="black" r="0.738" stroke="none" /><circle cx="326.5062" cy="613.8477" fill="black" r="0.738" stroke="none" /><circle cx="321.8506" cy="562.1304" fill="black" r="0.738" stroke="none" /><circle cx="319.7694" cy="228.4323" fill="black" r="0.738" stroke="none" /><circle cx="314.4244" cy="357.0479" fill="black" r="0.738" stroke="none" /><circle cx="306.8245" cy="490.343" fill="black" r="0.738" stroke="none" /><circle cx="300.4442" cy="695.1234" fill="black" r="0.738" stroke="none" /><circle cx="298.4351" cy="703.5789" fill="black" r="0.738" stroke="none" /><circle cx="297.2291" cy="609.2432" fill="black" r="0.738" stroke="none" /><circle cx="297.6968" cy="369.2849" fill="black" r="0.738" stroke="none" /><circle cx="295.748" cy="132.4951" fill="black" r="1.476" stroke="none" /><circle cx="275.8289" cy="95.5611" fill="black" r="0.738" stroke="none" /><circle cx="271.1233" cy="247.3746" fill="black" r="0.738" stroke="none" /><circle cx="271.0108" cy="232.7049" fill="black" r="0.738" stroke="none" /><circle cx="262.9583" cy="680.0468" fill="black" r="0.738" stroke="none" /><circle cx="261.124" cy="412.4044" fill="black" r="0.738" stroke="none" /><circle cx="258.0804" cy="439.6852" fill="black" r="0.738" stroke="none" /><circle cx="254.3833" cy="273.7675" fill="black" r="0.738" stroke="none" /><circle cx="256.5237" cy="107.5141" fill="black" r="0.738" stroke="none" /><circle cx="253.9722" cy="134.6445" fill="black" r="0.738" stroke="none" /><circle cx="247.8494" cy="281.2639" fill="black" r="0.738" stroke="none" /><circle cx="235.4092" cy="359.6399" fill="black" r="0.738" stroke="none" /><circle cx="229.8471" cy="561.931" fill="black" r="0.738" stroke="none" /><circle cx="216.9484" cy="567.3064" fill="black" r="0.738" stroke="none" /><circle cx="220.1173" cy="123.7451" fill="black" r="0.738" stroke="none" /><circle cx="213.998" cy="187.1404" fill="black" r="0.738" stroke="none" /><circle cx="207.5895" cy="346.0467" fill="black" r="0.738" stroke="none" /><circle cx="194.8611" cy="632.3328" fill="black" r="1.476" stroke="none" /><circle cx="194.3755" cy="436.9474" fill="black" r="0.738" stroke="none" /><circle cx="187.2368" cy="708.0378" fill="black" r="0.738" stroke="none" /><circle cx="196.2534" cy="199.7062" fill="black" r="0.738" stroke="none" /><circle cx="195.5807" cy="83.2978" fill="black" r="0.738" stroke="none" /><circle cx="181.9108" cy="595.4748" fill="black" r="0.738" stroke="none" /><circle cx="166.6901" cy="427.0099" fill="black" r="0.738" stroke="none" /><circle cx="155.9468" cy="530.3547" fill="black" r="0.738" stroke="none" /><circle cx="164.8675" cy="233.7585" fill="black" r="0.738" stroke="none" /><circle cx="165.5444" cy="181.089" fill="black" r="0.738" stroke="none" /><circle cx="155.582" cy="418.4528" fill="black" r="0.738" stroke="none" /><circle cx="152.0102" cy="300.1829" fill="black" r="0.738" stroke="none" /><circle cx="147.8223" cy="373.8905" fill="black" r="0.738" stroke="none" /><circle cx="141.1082" cy="602.5225" fill="black" r="0.738" stroke="none" /><circle cx="139.385" cy="644.4304" fill="black" r="0.738" stroke="none" /><circle cx="139.7495" cy="279.7721" fill="black" r="0.738" stroke="none" /><circle cx="141.8655" cy="161.3338" fill="black" r="0.738" stroke="none" /><circle cx="127.6739" cy="540.4102" fill="black" r="1.854" stroke="none" /><circle cx="136.9529" cy="131.9135" fill="black" r="0.738" stroke="none" /><circle cx="115.1406" cy="464.0605" fill="black" r="0.738" stroke="none" /><circle cx="114.431" cy="135.1883" fill="black" r="0.738" stroke="none" /><circle cx="114.5801" cy="85.695" fill="black" r="0.738" stroke="none" /><circle cx="103.6063" cy="383.3461" fill="black" r="0.738" stroke="none" /><circle cx="84.1474" cy="643.0605" fill="black" r="0.738" stroke="none" /><circle cx="77.7426" cy="689.2254" fill="black" r="0.738" stroke="none" /><circle cx="85.6134" cy="116.16" fill="black" r="0.738" stroke="none" /><circle cx="13.77" cy="786.23" fill="black" r="4.59" stroke="none" /><circle cx="13.77" cy="786.23" fill="black" r="4.59" stroke="none" /><text fill="black" font-family="monospace" font-size="12" x="10.77" y="775.64">1</text><circle cx="37.77" cy="786.23" fill="black" r="3.654" stroke="none" /><circle cx="37.77" cy="786.23" fill="black" r="3.654" stroke="none" /><text fill="black" font-family="monospace" font-size="12" x="34.769999999999996" y="775.64">2</text><circle cx="61.77" cy="786.23" fill="black" r="2.916" stroke="none" /><circle cx="61.77" cy="786.23" fill="black" r="2.916" stroke="none" /><text fill="black" font-family="monospace" font-size="12" x="58.769999999999996" y="775.64">3</text><circle cx="85.77" cy="786.23" fill="black" r="2.322" stroke="none" /><circle cx="85.77" cy="786.23" fill="black" r="2.322" stroke="none" /><text fill="black" font-family="monospace" font-size="12" x="82.77" y="775.64">4</text><circle cx="109.77" cy="786.23" fill="black" r="1.854" stroke="none" /><circle cx="109.77" cy="786.23" fill="black" r="1.854" stroke="none" /><text fill="black" font-family="monospace" font-size="12" x="106.77" y="775.64">5</text><circle cx="133.77" cy="786.23" fill="black" r="1.476" stroke="none" /><circle cx="133.77" cy="786.23" fill="black" r="1.476" stroke="none" /><text fill="black" font-family="monospace" font-size="12" x="130.77" y="775.64">6</text><circle cx="157.77" cy="786.23" fill="black" r="1.17" stroke="none" /><circle cx="157.77" cy="786.23" fill="black" r="1.17" stroke="none" /><text fill="black" font-family="monospace" font-size="12" x="154.77" y="775.64">7</text><circle cx="181.77" cy="786.23" fill="black" r="0.936" stroke="none" /><circle cx="181.77" cy="786.23" fill="black" r="0.936" stroke="none" /><text fill="black" font-family="monospace" font-size="12" x="178.77" y="775.64">8</text><circle cx="205.77" cy="786.23" fill="black" r="0.738" stroke="none" /><circle cx="205.77" cy="786.23" fill="black" r="0.738" stroke="none" /><text fill="black" font-family="monospace" font-size="12" x="202.77" y="775.64">9</text><text fill="gray" fill-opacity="0.5" font-family="monospace" font-size="12" x="728.557582597372" y="722.545400814797">22h20m</text><text fill="gray" fill-opacity="0.5" font-family="monospace" font-size="12" x="627.6249301169388" y="725.0525565017937">22h25m</text><text fill="gray" fill-opacity="0.5" font-family="monospace" font-size="12" x="526.7187329238573" y="726.6491531263521">22h30m</text><text fill="gray" fill-opacity="0.5" font-family="monospace" font-size="12" x="425.8272654120273" y="727.3363223011063">22h35m</text><text fill="gray" fill-opacity="0.5" font-family="monospace" font-size="12" x="324.93880021807337" y="727.1145509490166">22h40m</text><text fill="gray" fill-opacity="0.5" font-family="monospace" font-size="12" x="224.04160962199492" y="725.9836819323729">22h45m</text><text fill="gray" fill-opacity="0.5" font-family="monospace" font-size="12" x="123.1239669416953" y="723.9429138498115">22h50m</text><text fill="gray" fill-opacity="0.5" font-family="monospace" font-size="12" x="63.077899703094545" y="678.5544855573555">+23°</text><text fill="gray" fill-opacity="0.5" font-family="monospace" font-size="12" x="65.76816735381834" y="591.1824641633162">+24°</text><text fill="gray" fill-opacity="0.5" font-family="monospace" font-size="12" x="68.50751018884631" y="503.8427157871877">+25°</text><text fill="gray" fill-opacity="0.5" font-family="monospace" font-size="12" x="71.296303079999" y="416.5219686139621">+26°</text><text fill="gray" fill-opacity="0.5" font-family="monospace" font-size="12" x="74.13495100104507" y="329.20696235641617">+27°</text><text fill="gray" fill-opacity="0.5" font-family="monospace" font-size="12" x="77.02388925641878" y="241.8844402117582">+28°</text><text fill="gray" fill-opacity="0.5" font-family="monospace" font-size="12" x="79.96358374913427" y="154.5411408227675">+29°</text><text fill="gray" fill-opacity="0.5" font-family="monospace" font-size="12" x="82.95453128824971" y="67.16379023307024">+30°</text><text fill="black" font-family="monospace" font-size="12" x="12" y="48">&gt;&gt; No.589 22h20m 22h53m +22.5°+30.0°</text><a target="_self" xlink:href="hip039.svg"><text fill="black" font-family="monospace" font-size="12" x="12" y="36">&gt; No.39 21h00m 24h00m +22.5°+52.5°</text></a><a target="_self" xlink:href="hip002.svg"><text fill="black" font-family="monospace" font-size="12" x="12" y="24">No.2 00h 24h +0.0°+90.0°</text></a><polyline fill="none" points="717.0455,67.1638 707.9628,67.4728 698.502,67.7851 689.0414,68.0877 679.581,68.3805 670.1209,68.6635 660.6609,68.9368 651.2012,69.2003 641.7416,69.4541 632.2823,69.6981 622.8231,69.9324 613.3641,70.1569 603.9053,70.3717 594.4467,70.5767 584.9882,70.772 575.5298,70.9575 566.0716,71.1333 556.6135,71.2994 547.1556,71.4557 537.6977,71.6023 528.24,71.7392 518.7823,71.8663 509.3248,71.9837 499.8673,72.0913 490.41,72.1892 480.9527,72.2774 471.4954,72.3558 462.0382,72.4245 452.5811,72.4835 443.124,72.5327 433.667,72.5722 424.2099,72.602 414.7529,72.6221 405.2959,72.6324 395.8389,72.633 386.3819,72.6238 376.9249,72.6049 367.4679,72.5763 358.0108,72.538 348.5537,72.4899 339.0966,72.4321 329.6394,72.3646 320.1822,72.2873 310.7249,72.2003 301.2675,72.1036 291.8101,71.9971 282.3526,71.8809 272.8949,71.7549 263.4372,71.6193 253.9794,71.4738 244.5214,71.3187 235.0634,71.1538 225.6052,70.9792 216.1468,70.7948 206.6884,70.6007 197.2297,70.3968 187.7709,70.1832 178.312,69.9598 168.8528,69.7267 159.3935,69.4839 149.934,69.2313 140.4743,68.9689 131.0143,68.6968 121.5542,68.4149 112.0939,68.1233 102.6333,67.8219 93.1725,67.5108 83.7114,67.1899 82.9545,67.1638" stroke="black" stroke-opacity="0.5" stroke-width="1" /><polyline fill="none" points="738.2489,722.2568 737.9184,711.33 737.587,700.4041 737.255,689.4789 736.9221,678.5545 736.5885,667.6308 736.2541,656.7077 735.919,645.7854 735.5831,634.8636 735.2464,623.9425 734.909,613.0219 734.5708,602.1019 734.2318,591.1825 733.8921,580.2635 733.5516,569.345 733.2103,558.427 732.8683,547.5094 732.5255,536.5922 732.1819,525.6754 731.8376,514.7589 731.4925,503.8427 731.1466,492.9269 730.7999,482.0113 730.4525,471.0959 730.1043,460.1808 729.7553,449.2659 729.4056,438.3511 729.055,427.4365 728.7037,416.522 728.3516,405.6076 727.9987,394.6932 727.6451,383.7789 727.2906,372.8646 726.9354,361.9503 726.5794,351.0359 726.2226,340.1215 725.865,329.207 725.5067,318.2923 725.1475,307.3776 724.7876,296.4626 724.4269,285.5475 724.0654,274.6321 723.7031,263.7165 723.34,252.8006 722.9761,241.8844 722.6114,230.9679 722.246,220.0511 721.8797,209.1339 721.5126,198.2162 721.1448,187.2982 720.7761,176.3796 720.4067,165.4606 720.0364,154.5411 719.6654,143.6211 719.2935,132.7005 718.9208,121.7793 718.5474,110.8576 718.1731,99.9351 717.798,89.012 717.4222,78.0883 717.0455,67.1638" stroke="black" stroke-opacity="0.5" stroke-width="1" /><polyline fill="none" points="738.2489,722.2568 728.5576,722.5454 718.4628,722.8371 708.3684,723.1198 698.2743,723.3932 688.1806,723.6576 678.0872,723.9129 667.9942,724.159 657.9014,724.3961 647.809,724.624 637.7168,724.8428 627.6249,725.0526 617.5333,725.2532 607.4419,725.4447 597.3508,725.6271 587.2599,725.8004 577.1693,725.9646 567.0788,726.1197 556.9885,726.2657 546.8984,726.4026 536.8085,726.5304 526.7187,726.6492 516.6291,726.7588 506.5396,726.8593 496.4503,726.9508 486.361,727.0331 476.2719,727.1064 466.1828,727.1705 456.0939,727.2256 446.0049,727.2716 435.9161,727.3085 425.8273,727.3363 415.7385,727.355 405.6497,727.3647 395.5609,727.3652 385.4722,727.3567 375.3834,727.339 365.2946,727.3123 355.2057,727.2765 345.1168,727.2316 335.0278,727.1776 324.9388,727.1146 314.8497,727.0424 304.7604,726.9611 294.6711,726.8708 284.5816,726.7713 274.492,726.6628 264.4023,726.5452 254.3124,726.4184 244.2223,726.2826 234.1321,726.1377 224.0416,725.9837 213.951,725.8206 203.8601,725.6484 193.769,725.467 183.6777,725.2766 173.5861,725.0771 163.4942,724.8685 153.4021,724.6508 143.3097,724.4239 133.217,724.188 123.124,723.9429 113.0306,723.6887 102.937,723.4255 92.8429,723.1531 82.7486,722.8715 72.6538,722.5809 62.5587,722.2811 61.7511,722.2568" stroke="black" stroke-opacity="0.5" stroke-width="1" /><polyline fill="none" points="61.7511,722.2568 62.0816,711.33 62.413,700.4041 62.745,689.4789 63.0779,678.5545 63.4115,667.6308 63.7459,656.7077 64.081,645.7854 64.4169,634.8636 64.7536,623.9425 65.091,613.0219 65.4292,602.1019 65.7682,591.1825 66.1079,580.2635 66.4484,569.345 66.7897,558.427 67.1317,547.5094 67.4745,536.5922 67.8181,525.6754 68.1624,514.7589 68.5075,503.8427 68.8534,492.9269 69.2001,482.0113 69.5475,471.0959 69.8957,460.1808 70.2447,449.2659 70.5944,438.3511 70.945,427.4365 71.2963,416.522 71.6484,405.6076 72.0013,394.6932 72.3549,383.7789 72.7094,372.8646 73.0646,361.9503 73.4206,351.0359 73.7774,340.1215 74.135,329.207 74.4933,318.2923 74.8525,307.3776 75.2124,296.4626 75.5731,285.5475 75.9346,274.6321 76.2969,263.7165 76.66,252.8006 77.0239,241.8844 77.3886,230.9679 77.754,220.0511 78.1203,209.1339 78.4874,198.2162 78.8552,187.2982 79.2239,176.3796 79.5933,165.4606 79.9636,154.5411 80.3346,143.6211 80.7065,132.7005 81.0792,121.7793 81.4526,110.8576 81.8269,99.9351 82.202,89.012 82.5778,78.0883 82.9545,67.1638" stroke="black" stroke-opacity="0.5" stroke-width="1" /></svg>