<?xml version="1.0" encoding="utf-8" ?>
<svg baseProfile="tiny" height="800" version="1.2" width="800" xmlns="http://www.w3.org/2000/svg" xmlns:ev="http://www.w3.org/2001/xml-events" xmlns:xlink="http://www.w3.org/1999/xlink"><defs /><rect fill="none" height="800" stroke="black" stroke-width="2" width="800" x="0" y="0" /><polyline fill="none" points="714.425,722.9513 714.1177,712.0255 713.8098,701.1005 713.5011,690.1763 713.1918,679.2528 712.8817,668.3301 712.5709,657.408 712.2595,646.4865 711.9473,635.5657 711.6344,624.6455 711.3207,613.7259 711.0064,602.8068 710.6914,591.8883 710.3756,580.9702 710.0591,570.0526 709.742,559.1355 709.4241,548.2188 709.1055,537.3025 708.7861,526.3865 708.4661,515.4709 708.1453,504.5556 707.8239,493.6406 707.5017,482.7259 707.1787,471.8114 706.8551,460.8971 706.5307,449.9831 706.2057,439.0691 705.8799,428.1553 705.5533,417.2417 705.2261,406.3281 704.8981,395.4145 704.5694,384.501 704.24,373.5875 703.9098,362.674 703.579,351.7605 703.2473,340.8468 702.915,329.9331 702.5819,319.0193 702.2481,308.1053 701.9136,297.1911 701.5783,286.2767 701.2423,275.3621 700.9056,264.4473 700.5681,253.5322 700.2299,242.6167 699.891,231.701 699.5513,220.7848 699.2109,209.8683 698.8697,198.9514 698.5278,188.0341 698.1852,177.1163 697.8418,166.198 697.4976,155.2792 697.1528,144.3599 696.8071,133.44 696.4608,122.5195 696.1137,111.5984 695.7658,100.6766 695.4172,89.7542 695.0678,78.8311 694.7177,67.9073" stroke="silver" stroke-opacity="0.5" stroke-width="1" /><polyline fill="none" points="613.4967,725.3309 613.2882,714.4084 613.0792,703.4867 612.8698,692.5658 612.6598,681.6456 612.4494,670.726 612.2385,659.8072 612.0271,648.889 611.8152,637.9713 611.6029,627.0543 611.39,616.1378 611.1767,605.2219 610.9629,594.3065 610.7486,583.3915 610.5338,572.477 610.3186,561.563 610.1028,550.6493 609.8866,539.736 609.6699,528.8231 609.4527,517.9105 609.235,506.9982 609.0168,496.0862 608.7981,485.1744 608.579,474.2629 608.3593,463.3515 608.1392,452.4403 607.9186,441.5293 607.6975,430.6184 607.4759,419.7075 607.2538,408.7968 607.0312,397.8861 606.8081,386.9754 606.5845,376.0646 606.3604,365.1539 606.1359,354.2431 605.9108,343.3322 605.6853,332.4212 605.4592,321.51 605.2327,310.5987 605.0056,299.6871 604.7781,288.7754 604.5501,277.8634 604.3215,266.9512 604.0925,256.0386 603.8629,245.1258 603.6329,234.2125 603.4024,223.299 603.1713,212.385 602.9398,201.4705 602.7077,190.5557 602.4752,179.6403 602.2421,168.7245 602.0086,157.8081 601.7745,146.8912 601.5399,135.9736 601.3049,125.0555 601.0693,114.1368 600.8332,103.2173 600.5966,92.2972 600.3595,81.3764 600.1218,70.4549" stroke="silver" stroke-opacity="0.5" stroke-width="1" /><polyline fill="none" points="512.5933,726.8001 512.4834,715.8797 512.3732,704.96 512.2628,694.0411 512.1521,683.1229 512.0411,672.2054 511.9299,661.2885 511.8185,650.3723 511.7068,639.4566 511.5948,628.5416 511.4826,617.6271 511.3702,606.7131 511.2574,595.7996 511.1445,584.8865 511.0312,573.974 510.9177,563.0618 510.804,552.15 510.69,541.2386 510.5757,530.3276 510.4612,519.4168 510.3465,508.5064 510.2314,497.5962 510.1161,486.6862 510.0006,475.7765 509.8848,464.867 509.7687,453.9576 509.6524,443.0483 509.5359,432.1392 509.419,421.2301 509.3019,410.3211 509.1846,399.4121 509.067,388.5031 508.9491,377.5941 508.8309,366.6851 508.7126,355.7759 508.5939,344.8667 508.475,333.9574 508.3558,323.0479 508.2364,312.1382 508.1167,301.2283 507.9967,290.3182 507.8765,279.4079 507.756,268.4972 507.6352,257.5863 507.5142,246.675 507.3929,235.7633 507.2714,224.8513 507.1496,213.9389 507.0275,203.026 506.9052,192.1126 506.7826,181.1988 506.6597,170.2845 506.5365,159.3696 506.4131,148.4541 506.2895,137.5381 506.1655,126.6214 506.0413,115.7041 505.9168,104.7861 505.7921,93.8674 505.6671,82.948 505.5418,72.0279" stroke="silver" stroke-opacity="0.5" stroke-width="1" /><polyline fill="none" points="411.703,727.36 411.6915,716.4404 411.6801,705.5215 411.6686,694.6034 411.6571,683.6859 411.6456,672.7692 411.634,661.8531 411.6224,650.9376 411.6108,640.0227 411.5992,629.1084 411.5875,618.1946 411.5758,607.2813 411.5641,596.3686 411.5524,585.4563 411.5406,574.5444 411.5288,563.633 411.517,552.7219 411.5052,541.8113 411.4933,530.9009 411.4814,519.9909 411.4695,509.0811 411.4575,498.1716 411.4455,487.2624 411.4335,476.3533 411.4215,465.4445 411.4094,454.5358 411.3973,443.6272 411.3852,432.7187 411.3731,421.8103 411.3609,410.902 411.3487,399.9936 411.3365,389.0853 411.3242,378.177 411.312,367.2686 411.2996,356.3601 411.2873,345.4515 411.275,334.5428 411.2626,323.634 411.2502,312.7249 411.2377,301.8157 411.2253,290.9062 411.2128,279.9964 411.2002,269.0864 411.1877,258.1761 411.1751,247.2654 411.1625,236.3543 411.1499,225.4429 411.1372,214.531 411.1245,203.6187 411.1118,192.706 411.0991,181.7927 411.0863,170.879 411.0735,159.9646 411.0607,149.0498 411.0478,138.1343 411.0349,127.2182 411.022,116.3014 411.0091,105.384 410.9961,94.4658 410.9831,83.547 410.9701,72.6273" stroke="silver" stroke-opacity="0.5" stroke-width="1" /><polyline fill="none" points="310.814,727.011 310.9011,716.0909 310.9883,705.1715 311.0758,694.2529 311.1635,683.335 311.2513,672.4177 311.3394,661.5011 311.4277,650.5852 311.5162,639.6698 311.6049,628.755 311.6937,617.8408 311.7828,606.9271 311.8721,596.0139 311.9616,585.1011 312.0513,574.1888 312.1412,563.2769 312.2313,552.3654 312.3216,541.4543 312.412,530.5435 312.5028,519.633 312.5937,508.7229 312.6848,497.8129 312.7761,486.9032 312.8676,475.9938 312.9593,465.0845 313.0512,454.1753 313.1434,443.2663 313.2357,432.3574 313.3283,421.4486 313.421,410.5399 313.514,399.6311 313.6071,388.7224 313.7005,377.8136 313.794,366.9048 313.8878,355.996 313.9818,345.087 314.076,334.1779 314.1704,323.2686 314.265,312.3592 314.3598,301.4495 314.4548,290.5397 314.5501,279.6295 314.6455,268.7191 314.7411,257.8084 314.837,246.8973 314.9331,235.9859 315.0293,225.0741 315.1258,214.1619 315.2225,203.2492 315.3194,192.3361 315.4165,181.4225 315.5139,170.5084 315.6114,159.5937 315.7091,148.6785 315.8071,137.7626 315.9053,126.8462 316.0036,115.9291 316.1022,105.0113 316.201,94.0928 316.3001,83.1736 316.3993,72.2537" stroke="silver" stroke-opacity="0.5" stroke-width="1" /><polyline fill="none" points="209.9146,725.7528 210.1003,714.8309 210.2863,703.9098 210.4728,692.9895 210.6597,682.0698 210.8471,671.1509 211.0348,660.2326 211.223,649.3149 211.4116,638.3979 211.6007,627.4814 211.7902,616.5655 211.9801,605.6501 212.1704,594.7352 212.3612,583.8208 212.5524,572.9069 212.7441,561.9934 212.9361,551.0803 213.1286,540.1675 213.3216,529.2552 213.5149,518.3431 213.7087,507.4313 213.903,496.5198 214.0976,485.6086 214.2927,474.6975 214.4883,463.7867 214.6843,452.876 214.8807,441.9655 215.0775,431.0551 215.2748,420.1448 215.4725,409.2345 215.6707,398.3243 215.8693,387.4141 216.0683,376.5039 216.2678,365.5936 216.4677,354.6833 216.6681,343.7728 216.8689,332.8623 217.0702,321.9516 217.2718,311.0408 217.474,300.1297 217.6765,289.2185 217.8796,278.3069 218.083,267.3951 218.2869,256.4831 218.4913,245.5706 218.6961,234.6579 218.9013,223.7447 219.107,212.8312 219.3131,201.9172 219.5197,191.0028 219.7268,180.0879 219.9342,169.1725 220.1422,158.2565 220.3505,147.34 220.5594,136.4229 220.7687,125.5052 220.9784,114.5868 221.1886,103.6678 221.3992,92.7481 221.6103,81.8277 221.8219,70.9066" stroke="silver" stroke-opacity="0.5" stroke-width="1" /><polyline fill="none" points="108.9932,723.5845 109.2775,712.6596 109.5625,701.7355 109.8481,690.8122 110.1344,679.8896 110.4213,668.9677 110.7089,658.0464 110.9972,647.1259 111.2861,636.2059 111.5756,625.2865 111.8659,614.3677 112.1567,603.4495 112.4483,592.5318 112.7405,581.6146 113.0333,570.6978 113.3268,559.7815 113.621,548.8656 113.9159,537.9501 114.2114,527.0349 114.5075,516.1201 114.8044,505.2056 115.1019,494.2914 115.4,483.3775 115.6988,472.4638 115.9983,461.5503 116.2985,450.637 116.5993,439.7238 116.9008,428.8108 117.203,417.8979 117.5058,406.985 117.8093,396.0722 118.1135,385.1595 118.4184,374.2467 118.7239,363.334 119.0301,352.4211 119.337,341.5082 119.6445,330.5952 119.9527,319.6821 120.2616,308.7688 120.5712,297.8553 120.8815,286.9417 121.1924,276.0278 121.504,265.1136 121.8163,254.1992 122.1293,243.2844 122.443,232.3693 122.7573,221.4539 123.0723,210.538 123.3881,199.6218 123.7044,188.7051 124.0215,177.788 124.3393,166.8703 124.6578,155.9522 124.9769,145.0335 125.2968,134.1142 125.6173,123.1944 125.9385,112.2739 126.2604,101.3528 126.583,90.431 126.9063,79.5085 127.2303,68.5852" stroke="silver" stroke-opacity="0.5" stroke-width="1" /><polyline fill="none" points="736.5199,678.5667 733.3021,678.6643 723.2467,678.9632 713.1918,679.2528 703.1372,679.5334 693.0829,679.8047 683.029,680.0669 672.9754,680.3199 662.9221,680.5637 652.8691,680.7984 642.8163,681.0239 632.7639,681.2403 622.7117,681.4475 612.6598,681.6456 602.6081,681.8345 592.5567,682.0142 582.5055,682.1848 572.4545,682.3463 562.4036,682.4986 552.353,682.6418 542.3025,682.7758 532.2522,682.9006 522.2021,683.0163 512.1521,683.1229 502.1022,683.2204 492.0524,683.3087 482.0028,683.3878 471.9532,683.4578 461.9037,683.5187 451.8543,683.5704 441.8049,683.613 431.7556,683.6464 421.7064,683.6708 411.6571,683.6859 401.6079,683.692 391.5586,683.6888 381.5094,683.6766 371.4601,683.6552 361.4108,683.6247 351.3615,683.585 341.3121,683.5362 331.2626,683.4783 321.2131,683.4112 311.1635,683.335 301.1137,683.2496 291.0639,683.1551 281.0139,683.0514 270.9638,682.9387 260.9136,682.8167 250.8632,682.6856 240.8126,682.5454 230.7618,682.396 220.7109,682.2375 210.6597,682.0698 200.6083,681.893 190.5567,681.707 180.5049,681.5119 170.4528,681.3076 160.4005,681.0942 150.3478,680.8716 140.2949,680.6398 130.2417,680.3989 120.1882,680.1488 110.1344,679.8896 100.0802,679.6212 90.0257,679.3436 79.9709,679.0569 69.9157,678.7609 63.4801,678.5667" stroke="silver" stroke-opacity="0.5" stroke-width="1" /><polyline fill="none" points="733.8328,591.1949 730.6408,591.2935 720.6659,591.5955 710.6914,591.8883 700.7172,592.1718 690.7433,592.446 680.7698,592.7109 670.7965,592.9667 660.8236,593.2131 650.8509,593.4503 640.8785,593.6782 630.9064,593.8969 620.9345,594.1063 610.9629,594.3065 600.9915,594.4974 591.0203,594.6791 581.0493,594.8515 571.0785,595.0147 561.108,595.1686 551.1375,595.3133 541.1673,595.4487 531.1972,595.5749 521.2273,595.6918 511.2574,595.7996 501.2877,595.898 491.3181,595.9873 481.3487,596.0673 471.3793,596.138 461.4099,596.1995 451.4407,596.2518 441.4715,596.2949 431.5023,596.3287 421.5332,596.3532 411.5641,596.3686 401.5951,596.3747 391.626,596.3715 381.6569,596.3591 371.6878,596.3375 361.7186,596.3067 351.7495,596.2666 341.7802,596.2173 331.8109,596.1587 321.8416,596.0909 311.8721,596.0139 301.9025,595.9276 291.9329,595.8321 281.9631,595.7273 271.9932,595.6133 262.0232,595.4901 252.053,595.3576 242.0826,595.2159 232.1121,595.0649 222.1413,594.9047 212.1704,594.7352 202.1993,594.5565 192.228,594.3686 182.2564,594.1714 172.2846,593.9649 162.3126,593.7492 152.3403,593.5242 142.3677,593.29 132.3949,593.0465 122.4217,592.7938 112.4483,592.5318 102.4745,592.2605 92.5004,591.98 82.526,591.6902 72.5512,591.3911 66.1672,591.1949" stroke="silver" stroke-opacity="0.5" stroke-width="1" /><polyline fill="none" points="731.0968,503.8552 727.9309,503.9548 718.038,504.2599 708.1453,504.5556 698.253,504.842 688.361,505.119 678.4693,505.3866 668.5779,505.6449 658.6868,505.8938 648.7959,506.1334 638.9053,506.3636 629.015,506.5845 619.1249,506.796 609.235,506.9982 599.3453,507.1911 589.4559,507.3746 579.5666,507.5487 569.6775,507.7136 559.7886,507.869 549.8999,508.0152 540.0113,508.152 530.1229,508.2794 520.2346,508.3976 510.3465,508.5064 500.4584,508.6058 490.5705,508.696 480.6826,508.7768 470.7949,508.8483 460.9072,508.9104 451.0195,508.9632 441.132,509.0067 431.2444,509.0408 421.3569,509.0656 411.4695,509.0811 401.582,509.0873 391.6945,509.0841 381.8071,509.0716 371.9196,509.0498 362.0321,509.0186 352.1445,508.9781 342.2569,508.9283 332.3692,508.8692 322.4815,508.8007 312.5937,508.7229 302.7057,508.6357 292.8177,508.5392 282.9296,508.4334 273.0414,508.3183 263.153,508.1938 253.2645,508.06 243.3758,507.9168 233.4869,507.7643 223.5979,507.6025 213.7087,507.4313 203.8193,507.2508 193.9297,507.061 184.0399,506.8618 174.1499,506.6532 164.2596,506.4353 154.3691,506.2081 144.4783,505.9715 134.5873,505.7256 124.696,505.4703 114.8044,505.2056 104.9125,504.9316 95.0202,504.6483 85.1277,504.3556 75.2348,504.0535 68.9032,503.8552" stroke="silver" stroke-opacity="0.5" stroke-width="1" /><polyline fill="none" points="728.3113,416.5346 725.1722,416.6352 715.3626,416.9431 705.5533,417.2417 695.7444,417.5307 685.9357,417.8104 676.1273,418.0806 666.3192,418.3413 656.5114,418.5926 646.7038,418.8345 636.8965,419.0669 627.0894,419.2899 617.2825,419.5034 607.4759,419.7075 597.6694,419.9022 587.8631,420.0875 578.0571,420.2633 568.2512,420.4297 558.4455,420.5867 548.6399,420.7342 538.8345,420.8723 529.0292,421.001 519.224,421.1202 509.419,421.2301 499.6141,421.3305 489.8093,421.4215 480.0045,421.5031 470.1999,421.5752 460.3953,421.6379 450.5908,421.6913 440.7863,421.7352 430.9819,421.7696 421.1775,421.7947 411.3731,421.8103 401.5687,421.8165 391.7643,421.8133 381.96,421.8007 372.1556,421.7787 362.3511,421.7472 352.5467,421.7063 342.7422,421.656 332.9376,421.5963 323.133,421.5272 313.3283,421.4486 303.5235,421.3606 293.7186,421.2632 283.9136,421.1564 274.1085,421.0402 264.3032,420.9145 254.4979,420.7794 244.6923,420.6349 234.8867,420.4809 225.0808,420.3176 215.2748,420.1448 205.4686,419.9625 195.6622,419.7709 185.8556,419.5698 176.0488,419.3592 166.2418,419.1393 156.4345,418.9099 146.627,418.671 136.8193,418.4228 127.0113,418.165 117.203,417.8979 107.3944,417.6213 97.5856,417.3352 87.7764,417.0397 77.9669,416.7347 71.6887,416.5346" stroke="silver" stroke-opacity="0.5" stroke-width="1" /><polyline fill="none" points="725.4761,329.2197 722.3641,329.3212 712.6394,329.6319 702.915,329.9331 693.1909,330.2248 683.4671,330.5069 673.7435,330.7796 664.0202,331.0426 654.2971,331.2962 644.5743,331.5402 634.8517,331.7747 625.1294,331.9997 615.4072,332.2152 605.6853,332.4212 595.9635,332.6176 586.2419,332.8045 576.5206,332.9819 566.7993,333.1498 557.0783,333.3082 547.3574,333.457 537.6366,333.5964 527.9159,333.7262 518.1954,333.8466 508.475,333.9574 498.7547,334.0587 489.0345,334.1505 479.3143,334.2328 469.5943,334.3056 459.8743,334.3689 450.1543,334.4227 440.4344,334.467 430.7146,334.5018 420.9948,334.527 411.275,334.5428 401.5552,334.5491 391.8354,334.5459 382.1156,334.5331 372.3958,334.5109 362.6759,334.4792 352.956,334.4379 343.2361,334.3872 333.5161,334.3269 323.7961,334.2571 314.076,334.1779 304.3558,334.0891 294.6355,333.9908 284.9151,333.8831 275.1947,333.7658 265.474,333.639 255.7533,333.5027 246.0324,333.3568 236.3114,333.2015 226.5903,333.0367 216.8689,332.8623 207.1474,332.6784 197.4257,332.485 187.7038,332.2821 177.9817,332.0697 168.2595,331.8478 158.5369,331.6163 148.8142,331.3753 139.0912,331.1248 129.368,330.8648 119.6445,330.5952 109.9208,330.3161 100.1967,330.0275 90.4724,329.7293 80.7478,329.4216 74.5239,329.2197" stroke="silver" stroke-opacity="0.5" stroke-width="1" /><polyline fill="none" points="722.5906,241.8973 719.5062,241.9996 709.8679,242.313 700.2299,242.6167 690.5921,242.9109 680.9546,243.1954 671.3174,243.4703 661.6804,243.7356 652.0436,243.9913 642.4071,244.2374 632.7707,244.4739 623.1346,244.7008 613.4987,244.9181 603.8629,245.1258 594.2274,245.3239 584.592,245.5124 574.9568,245.6913 565.3217,245.8606 555.6868,246.0203 546.0521,246.1704 536.4174,246.3109 526.7829,246.4419 517.1485,246.5632 507.5142,246.675 497.88,246.7771 488.2459,246.8697 478.6119,246.9527 468.9779,247.0262 459.344,247.09 449.7101,247.1442 440.0763,247.1889 430.4426,247.224 420.8088,247.2495 411.1751,247.2654 401.5414,247.2717 391.9077,247.2684 382.274,247.2556 372.6402,247.2332 363.0065,247.2012 353.3727,247.1596 343.7388,247.1084 334.105,247.0476 324.471,246.9773 314.837,246.8973 305.2029,246.8078 295.5687,246.7087 285.9345,246.6 276.3001,246.4817 266.6656,246.3539 257.031,246.2164 247.3963,246.0694 237.7614,245.9127 228.1264,245.7465 218.4913,245.5706 208.856,245.3852 199.2205,245.1902 189.5848,244.9856 179.9489,244.7714 170.3129,244.5475 160.6766,244.3141 151.0401,244.0711 141.4034,243.8185 131.7665,243.5562 122.1293,243.2844 112.4919,243.003 102.8542,242.7119 93.2163,242.4112 83.578,242.1009 77.4094,241.8973" stroke="silver" stroke-opacity="0.5" stroke-width="1" /><polyline fill="none" points="719.6544,154.5541 716.5982,154.6572 707.0478,154.9731 697.4976,155.2792 687.9477,155.5757 678.3981,155.8625 668.8487,156.1395 659.2995,156.4069 649.7505,156.6647 640.2017,156.9127 630.6531,157.1511 621.1048,157.3798 611.5566,157.5988 602.0086,157.8081 592.4607,158.0078 582.9131,158.1977 573.3655,158.3781 563.8182,158.5487 554.2709,158.7097 544.7238,158.861 535.1768,159.0026 525.63,159.1346 516.0832,159.2569 506.5365,159.3696 496.99,159.4726 487.4435,159.5659 477.8971,159.6495 468.3507,159.7235 458.8044,159.7879 449.2582,159.8425 439.7119,159.8876 430.1658,159.9229 420.6196,159.9486 411.0735,159.9646 401.5274,159.971 391.9813,159.9677 382.4351,159.9548 372.889,159.9322 363.3428,159.8999 353.7966,159.858 344.2504,159.8064 334.7041,159.7452 325.1578,159.6743 315.6114,159.5937 306.0649,159.5035 296.5184,159.4036 286.9717,159.294 277.425,159.1748 267.8782,159.0459 258.3312,158.9074 248.7842,158.7592 239.237,158.6013 229.6896,158.4337 220.1422,158.2565 210.5945,158.0696 201.0468,157.873 191.4988,157.6668 181.9507,157.4509 172.4024,157.2253 162.8539,156.99 153.3052,156.7451 143.7562,156.4905 134.2071,156.2262 124.6578,155.9522 115.1082,155.6685 105.5584,155.3751 96.0083,155.0721 86.458,154.7593 80.3456,154.5541" stroke="silver" stroke-opacity="0.5" stroke-width="1" /><polyline fill="none" points="716.667,67.1768 713.6395,67.2807 704.1785,67.5989 694.7177,67.9073 685.2572,68.206 675.7969,68.4949 666.3369,68.774 656.877,69.0434 647.4173,69.303 637.9579,69.5529 628.4986,69.793 619.0395,70.0234 609.5806,70.244 600.1218,70.4549 590.6633,70.656 581.2048,70.8474 571.7465,71.029 562.2884,71.2009 552.8303,71.3631 543.3724,71.5155 533.9146,71.6582 524.4569,71.7912 514.9993,71.9144 505.5418,72.0279 496.0844,72.1316 486.627,72.2256 477.1698,72.3099 467.7125,72.3845 458.2554,72.4493 448.7983,72.5043 439.3412,72.5497 429.8841,72.5853 420.4271,72.6112 410.9701,72.6273 401.5131,72.6338 392.0561,72.6305 382.5991,72.6174 373.1421,72.5947 363.6851,72.5622 354.228,72.5199 344.7709,72.468 335.3137,72.4063 325.8566,72.3348 316.3993,72.2537 306.942,72.1628 297.4846,72.0621 288.0271,71.9518 278.5695,71.8317 269.1119,71.7018 259.6541,71.5623 250.1962,71.4129 240.7382,71.2539 231.2801,71.0851 221.8219,70.9066 212.3635,70.7183 202.9049,70.5203 193.4462,70.3125 183.9874,70.095 174.5283,69.8678 165.0691,69.6308 155.6097,69.384 146.1501,69.1275 136.6903,68.8612 127.2303,68.5852 117.7701,68.2995 108.3097,68.0039 98.849,67.6987 89.3881,67.3836 83.333,67.1768" stroke="silver" stroke-opacity="0.5" stroke-width="1" /><circle cx="717.6131" cy="191.8761" fill="black" r="0.738" stroke="none" /><circle cx="723.1223" cy="548.7722" fill="black" r="0.738" stroke="none" /><circle cx="717.9731" cy="568.1591" fill="black" r="0.738" stroke="none" /><circle cx="708.8544" cy="394.0713" fill="black" r="0.738" stroke="none" /><circle cx="703.5742" cy="298.1888" fill="black" r="0.738" stroke="none" /><circle cx="700.6135" cy="225.2099" fill="black" r="0.936" stroke="none" /><circle cx="711.5971" cy="702.7371" fill="black" r="0.738" stroke="none" /><circle cx="692.4165" cy="178.9569" fill="black" r="0.738" stroke="none" /><circle cx="697.0563" cy="578.201" fill="black" r="0.738" stroke="none" /><circle cx="688.8846" cy="495.4052" fill="black" r="0.738" stroke="none" /><circle cx="677.133" cy="257.9868" fill="black" r="0.738" stroke="none" /><circle cx="680.6763" cy="386.6785" fill="black" r="0.738" stroke="none" /><circle cx="669.4975" cy="141.4343" fill="black" r="0.738" stroke="none" /><circle cx="672.9404" cy="521.1718" fill="black" r="0.738" stroke="none" /><circle cx="660.8494" cy="140.6296" fill="black" r="0.738" stroke="none" /><circle cx="647.1939" cy="75.0804" fill="black" r="0.738" stroke="none" /><circle cx="653.9148" cy="719.5908" fill="black" r="0.738" stroke="none" /><circle cx="635.5125" cy="239.8647" fill="black" r="0.738" stroke="none" /><circle cx="635.4114" cy="352.1996" fill="black" r="1.17" stroke="none" /><circle cx="630.8289" cy="369.9486" fill="black" r="0.738" stroke="none" /><circle cx="619.2997" cy="138.9831" fill="black" r="0.738" stroke="none" /><circle cx="627.1063" cy="637.314" fill="black" r="0.738" stroke="none" /><circle cx="617.52" cy="404.9146" fill="black" r="0.738" stroke="none" /><circle cx="616.5238" cy="488.2479" fill="black" r="0.738" stroke="none" /><circle cx="600.4661" cy="211.6557" fill="black" r="0.738" stroke="none" /><circle cx="602.7427" cy="325.4956" fill="black" r="0.738" stroke="none" /><circle cx="599.9201" cy="562.8113" fill="black" r="0.738" stroke="none" /><circle cx="585.4108" cy="272.3069" fill="black" r="0.738" stroke="none" /><circle cx="589.5055" cy="536.5402" fill="black" r="0.738" stroke="none" /><circle cx="589.3547" cy="536.9796" fill="black" r="0.738" stroke="none" /><circle cx="590.6153" cy="621.5026" fill="black" r="0.738" stroke="none" /><circle cx="589.441" cy="627.5506" fill="black" r="0.936" stroke="none" /><circle cx="576.5342" cy="83.8736" fill="black" r="0.738" stroke="none" /><circle cx="586.5899" cy="719.5188" fill="black" r="0.738" stroke="none" /><circle cx="572.0188" cy="411.1999" fill="black" r="0.738" stroke="none" /><circle cx="552.6081" cy="290.7734" fill="black" r="0.738" stroke="none" /><circle cx="545.9283" cy="113.6791" fill="black" r="0.738" stroke="none" /><circle cx="544.423" cy="230.0411" fill="black" r="0.738" stroke="none" /><circle cx="535.7485" cy="418.9061" fill="black" r="0.738" stroke="none" /><circle cx="529.4403" cy="575.6005" fill="black" r="0.738" stroke="none" /><circle cx="528.9516" cy="568.0974" fill="black" r="0.738" stroke="none" /><circle cx="517.8503" cy="667.0786" fill="black" r="0.738" stroke="none" /><circle cx="516.4938" cy="675.4784" fill="black" r="0.738" stroke="none" /><circle cx="501.6953" cy="505.6261" fill="black" r="0.738" stroke="none" /><circle cx="496.1133" cy="140.9668" fill="black" r="0.738" stroke="none" /><circle cx="491.6133" cy="474.3841" fill="black" r="0.936" stroke="none" /><circle cx="491.3859" cy="632.3979" fill="black" r="0.936" stroke="none" /><circle cx="478.3757" cy="107.5054" fill="black" r="0.738" stroke="none" /><circle cx="481.3262" cy="603.6634" fill="black" r="0.738" stroke="none" /><circle cx="476.1173" cy="501.0427" fill="black" r="0.936" stroke="none" /><circle cx="471.1103" cy="191.6613" fill="black" r="0.738" stroke="none" /><circle cx="469.0678" cy="510.8673" fill="black" r="0.738" stroke="none" /><circle cx="466.7037" cy="343.9257" fill="black" r="0.738" stroke="none" /><circle cx="466.2264" cy="365.922" fill="black" r="0.738" stroke="none" /><circle cx="464.4006" cy="230.9955" fill="black" r="0.738" stroke="none" /><circle cx="448.3358" cy="544.7622" fill="black" r="0.738" stroke="none" /><circle cx="445.9618" cy="253.0984" fill="black" r="0.738" stroke="none" /><circle cx="444.4489" cy="398.3317" fill="black" r="0.738" stroke="none" /><circle cx="439.7646" cy="265.1712" fill="black" r="1.17" stroke="none" /><circle cx="432.054" cy="648.1898" fill="black" r="0.738" stroke="none" /><circle cx="417.2599" cy="567.5533" fill="black" r="0.738" stroke="none" /><circle cx="414.1603" cy="630.0658" fill="black" r="0.738" stroke="none" /><circle cx="400.2351" cy="411.6937" fill="black" r="0.738" stroke="none" /><circle cx="399.3034" cy="288.2943" fill="black" r="0.936" stroke="none" /><circle cx="397.1055" cy="135.6952" fill="black" r="0.738" stroke="none" /><circle cx="389.2869" cy="465.9689" fill="black" r="0.738" stroke="none" /><circle cx="385.3262" cy="715.5633" fill="black" r="0.936" stroke="none" /><circle cx="379.3687" cy="583.5221" fill="black" r="0.738" stroke="none" /><circle cx="372.6981" cy="703.3104" fill="black" r="0.738" stroke="none" /><circle cx="368.0343" cy="195.5399" fill="black" r="0.738" stroke="none" /><circle cx="358.1707" cy="333.3267" fill="black" r="0.738" stroke="none" /><circle cx="354.419" cy="702.5517" fill="black" r="0.738" stroke="none" /><circle cx="354.707" cy="594.708" fill="black" r="0.738" stroke="none" /><circle cx="350.049" cy="533.8439" fill="black" r="0.738" stroke="none" /><circle cx="345.7523" cy="460.683" fill="black" r="0.738" stroke="none" /><circle cx="337.127" cy="292.4568" fill="black" r="0.738" stroke="none" /><circle cx="333.9831" cy="541.6989" fill="black" r="0.738" stroke="none" /><circle cx="332.2892" cy="331.7876" fill="black" r="0.738" stroke="none" /><circle cx="324.0329" cy="523.9997" fill="black" r="0.738" stroke="none" /><circle cx="323.5436" cy="151.54" fill="black" r="0.936" stroke="none" /><circle cx="318.8289" cy="459.9828" fill="black" r="0.738" stroke="none" /><circle cx="316.3957" cy="148.6846" fill="black" r="0.738" stroke="none" /><circle cx="308.8929" cy="435.0253" fill="black" r="0.936" stroke="none" /><circle cx="309.6366" cy="326.3705" fill="black" r="0.738" stroke="none" /><circle cx="304.0637" cy="464.3948" fill="black" r="1.17" stroke="none" /><circle cx="292.0193" cy="260.8998" fill="black" r="0.738" stroke="none" /><circle cx="281.229" cy="640.954" fill="black" r="0.738" stroke="none" /><circle cx="278.5" cy="577.5272" fill="black" r="0.738" stroke="none" /><circle cx="271.8103" cy="492.59" fill="black" r="0.738" stroke="none" /><circle cx="265.7458" cy="174.7367" fill="black" r="0.738" stroke="none" /><circle cx="261.432" cy="401.3226" fill="black" r="0.738" stroke="none" /><circle cx="263.9848" cy="111.6452" fill="black" r="0.738" stroke="none" /><circle cx="252.1515" cy="480.5442" fill="black" r="0.738" stroke="none" /><circle cx="256.3892" cy="101.4835" fill="black" r="1.17" stroke="none" /><circle cx="247.4916" cy="220.5728" fill="black" r="0.738" stroke="none" /><circle cx="237.0509" cy="670.4341" fill="black" r="0.936" stroke="none" /><circle cx="239.5241" cy="265.2396" fill="black" r="0.738" stroke="none" /><circle cx="223.1399" cy="356.5496" fill="black" r="0.738" stroke="none" /><circle cx="222.4899" cy="318.7323" fill="black" r="0.738" stroke="none" /><circle cx="218.7693" cy="530.66" fill="black" r="0.738" stroke="none" /><circle cx="219.4418" cy="324.0034" fill="black" r="0.738" stroke="none" /><circle cx="208.8281" cy="616.7757" fill="black" r="0.738" stroke="none" /><circle cx="213.0595" cy="172.5335" fill="black" r="0.738" stroke="none" /><circle cx="202.6194" cy="101.6309" fill="black" r="0.738" stroke="none" /><circle cx="179.7572" cy="686.7408" fill="black" r="0.738" stroke="none" /><circle cx="170.5875" cy="702.0255" fill="black" r="0.738" stroke="none" /><circle cx="167.9923" cy="534.6445" fill="black" r="0.738" stroke="none" /><circle cx="170.6139" cy="327.6227" fill="black" r="0.738" stroke="none" /><circle cx="168.3056" cy="296.7367" fill="black" r="0.738" stroke="none" /><circle cx="161.8799" cy="520.6195" fill="black" r="0.738" stroke="none" /><circle cx="159.6921" cy="467.7243" fill="black" r="0.738" stroke="none" /><circle cx="155.2129" cy="381.7593" fill="black" r="0.738" stroke="none" /><circle cx="158.3712" cy="149.9717" fill="black" r="0.738" stroke="none" /><circle cx="139.2971" cy="389.2226" fill="black" r="0.738" stroke="none" /><circle cx="129.7482" cy="577.6875" fill="black" r="0.738" stroke="none" /><circle cx="134.3196" cy="223.7028" fill="black" r="0.738" stroke="none" /><circle cx="127.8929" cy="362.1889" fill="black" r="0.738" stroke="none" /><circle cx="111.7633" cy="609.2079" fill="black" r="0.738" stroke="none" /><circle cx="118.9403" cy="311.5274" fill="black" r="1.17" stroke="none" /><circle cx="110.2384" cy="461.6526" fill="black" r="0.738" stroke="none" /><circle cx="101.8097" cy="590.3191" fill="black" r="0.936" stroke="none" /><circle cx="102.1114" cy="475.4904" fill="black" r="0.738" stroke="none" /><circle cx="90.455" cy="658.3682" fill="black" r="0.738" stroke="none" /><circle cx="90.1726" cy="526.7056" fill="black" r="0.738" stroke="none" /><circle cx="94.272" cy="170.9305" fill="black" r="0.738" stroke="none" /><circle cx="72.7705" cy="682.9568" fill="black" r="0.738" stroke="none" /><circle cx="69.6869" cy="670.2698" fill="black" r="0.738" stroke="none" /><circle cx="73.5956" cy="423.2385" fill="black" r="0.738" stroke="none" /><circle cx="13.77" cy="786.23" fill="black" r="4.59" stroke="none" /><circle cx="13.77" cy="786.23" fill="black" r="4.59" stroke="none" /><text fill="black" font-family="monospace" font-size="12" x="10.77" y="775.64">1</text><circle cx="37.77" cy="786.23" fill="black" r="3.654" stroke="none" /><circle cx="37.77" cy="786.23" fill="black" r="3.654" stroke="none" /><text fill="black" font-family="monospace" font-size="12" x="34.769999999999996" y="775.64">2</text><circle cx="61.77" cy="786.23" fill="black" r="2.916" stroke="none" /><circle cx="61.77" cy="786.23" fill="black" r="2.916" stroke="none" /><text fill="black" font-family="monospace" font-size="12" x="58.769999999999996" y="775.64">3</text><circle cx="85.77" cy="786.23" fill="black" r="2.322" stroke="none" /><circle cx="85.77" cy="786.23" fill="black" r="2.322" stroke="none" /><text fill="black" font-family="monospace" font-size="12" x="82.77" y="775.64">4</text><circle cx="109.77" cy="786.23" fill="black" r="1.854" stroke="none" /><circle cx="109.77" cy="786.23" fill="black" r="1.854" stroke="none" /><text fill="black" font-family="monospace" font-size="12" x="106.77" y="775.64">5</text><circle cx="133.77" cy="786.23" fill="black" r="1.476" stroke="none" /><circle cx="133.77" cy="786.23" fill="black" r="1.476" stroke="none" /><text fill="black" font-family="monospace" font-size="12" x="130.77" y="775.64">6</text><circle cx="157.77" cy="786.23" fill="black" r="1.17" stroke="none" /><circle cx="157.77" cy="786.23" fill="black" r="1.17" stroke="none" /><text fill="black" font-family="monospace" font-size="12" x="154.77" y="775.64">7</text><circle cx="181.77" cy="786.23" fill="black" r="0.936" stroke="none" /><circle cx="181.77" cy="786.23" fill="black" r="0.936" stroke="none" /><text fill="black" font-family="monospace" font-size="12" x="178.77" y="775.64">8</text><circle cx="205.77" cy="786.23" fill="black" r="0.738" stroke="none" /><circle cx="205.77" cy="786.23" fill="black" r="0.738" stroke="none" /><text fill="black" font-family="monospace" font-size="12" x="202.77" y="775.64">9</text><text fill="gray" fill-opacity="0.5" font-family="monospace" font-size="12" x="714.4249810714775" y="722.9512777343139">07h50m</text><text fill="gray" fill-opacity="0.5" font-family="monospace" font-size="12" x="613.4967381092745" y="725.3308629331509">07h55m</text><text fill="gray" fill-opacity="0.5" font-family="monospace" font-size="12" x="512.5933090082847" y="726.800086351333">08h00m</text><text fill="gray" fill-opacity="0.5" font-family="monospace" font-size="12" x="411.70296783120904" y="727.3599892760008">08h05m</text><text fill="gray" fill-opacity="0.5" font-family="monospace" font-size="12" x="310.81398708082133" y="727.0109684427924">08h10m</text><text fill="gray" fill-opacity="0.5" font-family="monospace" font-size="12" x="209.91463909832223" y="725.7527765483364">08h15m</text><text fill="gray" fill-opacity="0.5" font-family="monospace" font-size="12" x="108.99319745892842" y="723.5845219307951">08h20m</text><text fill="gray" fill-opacity="0.5" font-family="monospace" font-size="12" x="63.480125895680146" y="678.5667478452463">+23°</text><text fill="gray" fill-opacity="0.5" font-family="monospace" font-size="12" x="66.16717481135521" y="591.1948569614149">+24°</text><text fill="gray" fill-opacity="0.5" font-family="monospace" font-size="12" x="68.90324031218302" y="503.8552334814606">+25°</text><text fill="gray" fill-opacity="0.5" font-family="monospace" font-size="12" x="71.68869682781576" y="416.5346055115809">+26°</text><text fill="gray" fill-opacity="0.5" font-family="monospace" font-size="12" x="74.52394885402254" y="329.2197126824234">+27°</text><text fill="gray" fill-opacity="0.5" font-family="monospace" font-size="12" x="77.40943118114279" y="241.89729810558998">+28°</text><text fill="gray" fill-opacity="0.5" font-family="monospace" font-size="12" x="80.34560916169113" y="154.5541003346308">+29°</text><text fill="gray" fill-opacity="0.5" font-family="monospace" font-size="12" x="83.33297901746278" y="67.17684532016995">+30°</text><text fill="black" font-family="monospace" font-size="12" x="12" y="48">&gt;&gt; No.563 07h49m 08h22m +22.5°+30.0°</text><a target="_self" xlink:href="hip034.svg"><text fill="black" font-family="monospace" font-size="12" x="12" y="36">&gt; No.34 06h00m 09h00m +22.5°+52.5°</text></a><a target="_self" xlink:href="hip002.svg"><text fill="black" font-family="monospace" font-size="12" x="12" y="24">No.2 00h 24h +0.0°+90.0°</text></a><polyline fill="none" points="716.667,67.1768 713.6395,67.2807 704.1785,67.5989 694.7177,67.9073 685.2572,68.206 675.7969,68.4949 666.3369,68.774 656.877,69.0434 647.4173,69.303 637.9579,69.5529 628.4986,69.793 619.0395,70.0234 609.5806,70.244 600.1218,70.4549 590.6633,70.656 581.2048,70.8474 571.7465,71.029 562.2884,71.2009 552.8303,71.3631 543.3724,71.5155 533.9146,71.6582 524.4569,71.7912 514.9993,71.9144 505.5418,72.0279 496.0844,72.1316 486.627,72.2256 477.1698,72.3099 467.7125,72.3845 458.2554,72.4493 448.7983,72.5043 439.3412,72.5497 429.8841,72.5853 420.4271,72.6112 410.9701,72.6273 401.5131,72.6338 392.0561,72.6305 382.5991,72.6174 373.1421,72.5947 363.6851,72.5622 354.228,72.5199 344.7709,72.468 335.3137,72.4063 325.8566,72.3348 316.3993,72.2537 306.942,72.1628 297.4846,72.0621 288.0271,71.9518 278.5695,71.8317 269.1119,71.7018 259.6541,71.5623 250.1962,71.4129 240.7382,71.2539 231.2801,71.0851 221.8219,70.9066 212.3635,70.7183 202.9049,70.5203 193.4462,70.3125 183.9874,70.095 174.5283,69.8678 165.0691,69.6308 155.6097,69.384 146.1501,69.1275 136.6903,68.8612 127.2303,68.5852 117.7701,68.2995 108.3097,68.0039 98.849,67.6987 89.3881,67.3836 83.333,67.1768" stroke="black" stroke-opacity="0.5" stroke-width="1" /><polyline fill="none" points="737.8451,722.2689 737.515,711.3422 737.184,700.4163 736.8523,689.4912 736.5199,678.5667 736.1867,667.643 735.8527,656.72 735.518,645.7977 735.1825,634.8759 734.8462,623.9548 734.5092,613.0343 734.1714,602.1143 733.8328,591.1949 733.4935,580.2759 733.1534,569.3574 732.8126,558.4394 732.4709,547.5218 732.1286,536.6047 731.7854,525.6878 731.4415,514.7714 731.0968,503.8552 730.7513,492.9394 730.405,482.0238 730.058,471.1085 729.7102,460.1934 729.3617,449.2785 729.0123,438.3637 728.6622,427.4491 728.3113,416.5346 727.9596,405.6202 727.6072,394.7059 727.2539,383.7916 726.8999,372.8773 726.5451,361.963 726.1896,351.0486 725.8332,340.1342 725.4761,329.2197 725.1181,318.3051 724.7594,307.3903 724.3999,296.4754 724.0396,285.5603 723.6785,274.6449 723.3167,263.7293 722.954,252.8135 722.5906,241.8973 722.2263,230.9808 721.8613,220.064 721.4955,209.1467 721.1288,198.2291 720.7614,187.3111 720.3932,176.3926 720.0242,165.4736 719.6544,154.5541 719.2838,143.6341 718.9124,132.7135 718.5402,121.7923 718.1671,110.8706 717.7933,99.9482 717.4187,89.0251 717.0433,78.1013 716.667,67.1768" stroke="black" stroke-opacity="0.5" stroke-width="1" /><polyline fill="none" points="737.8451,722.2689 734.6146,722.366 724.5196,722.6632 714.425,722.9513 704.3307,723.2302 694.2368,723.5001 684.1432,723.7608 674.05,724.0124 663.957,724.255 653.8644,724.4884 643.7721,724.7126 633.68,724.9278 623.5883,725.1339 613.4967,725.3309 603.4055,725.5187 593.3144,725.6975 583.2236,725.8672 573.133,726.0277 563.0427,726.1792 552.9525,726.3216 542.8624,726.4548 532.7726,726.579 522.6829,726.6941 512.5933,726.8001 502.5039,726.897 492.4146,726.9848 482.3254,727.0635 472.2363,727.1331 462.1472,727.1937 452.0583,727.2451 441.9694,727.2875 431.8806,727.3207 421.7917,727.3449 411.703,727.36 401.6142,727.366 391.5254,727.3629 381.4367,727.3507 371.3479,727.3295 361.259,727.2991 351.1702,727.2596 341.0812,727.2111 330.9922,727.1535 320.9032,727.0868 310.814,727.011 300.7247,726.9261 290.6353,726.8321 280.5458,726.729 270.4561,726.6168 260.3663,726.4956 250.2764,726.3652 240.1862,726.2257 230.0959,726.0772 220.0054,725.9195 209.9146,725.7528 199.8237,725.5769 189.7325,725.392 179.6411,725.1979 169.5494,724.9948 159.4574,724.7825 149.3652,724.5611 139.2726,724.3306 129.1798,724.091 119.0867,723.8423 108.9932,723.5845 98.8994,723.3176 88.8052,723.0415 78.7107,722.7564 68.6158,722.4621 62.1549,722.2689" stroke="black" stroke-opacity="0.5" stroke-width="1" /><polyline fill="none" points="62.1549,722.2689 62.485,711.3422 62.816,700.4163 63.1477,689.4912 63.4801,678.5667 63.8133,667.643 64.1473,656.72 64.482,645.7977 64.8175,634.8759 65.1538,623.9548 65.4908,613.0343 65.8286,602.1143 66.1672,591.1949 66.5065,580.2759 66.8466,569.3574 67.1874,558.4394 67.5291,547.5218 67.8714,536.6047 68.2146,525.6878 68.5585,514.7714 68.9032,503.8552 69.2487,492.9394 69.595,482.0238 69.942,471.1085 70.2898,460.1934 70.6383,449.2785 70.9877,438.3637 71.3378,427.4491 71.6887,416.5346 72.0404,405.6202 72.3928,394.7059 72.7461,383.7916 73.1001,372.8773 73.4549,361.963 73.8104,351.0486 74.1668,340.1342 74.5239,329.2197 74.8819,318.3051 75.2406,307.3903 75.6001,296.4754 75.9604,285.5603 76.3215,274.6449 76.6833,263.7293 77.046,252.8135 77.4094,241.8973 77.7737,230.9808 78.1387,220.064 78.5045,209.1467 78.8712,198.2291 79.2386,187.3111 79.6068,176.3926 79.9758,165.4736 80.3456,154.5541 80.7162,143.6341 81.0876,132.7135 81.4598,121.7923 81.8329,110.8706 82.2067,99.9482 82.5813,89.0251 82.9567,78.1013 83.333,67.1768" stroke="black" stroke-opacity="0.5" stroke-width="1" /></svg>