<?xml version="1.0" encoding="utf-8" ?>
<svg baseProfile="tiny" height="800" version="1.2" width="800" xmlns="http://www.w3.org/2000/svg" xmlns:ev="http://www.w3.org/2001/xml-events" xmlns:xlink="http://www.w3.org/1999/xlink"><defs /><rect fill="none" height="800" stroke="black" stroke-width="2" width="800" x="0" y="0" /><polyline fill="none" points="664.8092,723.0914 664.4563,712.1702 664.1027,701.2497 663.7485,690.33 663.3938,679.411 663.0385,668.4927 662.6826,657.5751 662.3261,646.6582 661.969,635.7419 661.6114,624.8262 661.2531,613.911 660.8943,602.9964 660.5349,592.0824 660.1749,581.1688 659.8143,570.2557 659.4531,559.3431 659.0913,548.4308 658.7289,537.519 658.3659,526.6075 658.0024,515.6964 657.6382,504.7856 657.2735,493.8751 656.9081,482.9648 656.5422,472.0548 656.1756,461.145 655.8085,450.2354 655.4408,439.3259 655.0724,428.4166 654.7035,417.5074 654.3339,406.5982 653.9638,395.6892 653.593,384.7801 653.2217,373.8711 652.8497,362.962 652.4771,352.0529 652.1039,341.1437 651.7302,330.2344 651.3558,319.325 650.9807,308.4155 650.6051,297.5057 650.2289,286.5958 649.8521,275.6857 649.4746,264.7752 649.0965,253.8645 648.7178,242.9535 648.3385,232.0422 647.9586,221.1305 647.5781,210.2184 647.1969,199.3059 646.8151,188.393 646.4327,177.4796 646.0497,166.5658 645.666,155.6514 645.2817,144.7364 644.8968,133.8209 644.5113,122.9049 644.1252,111.9882 643.7384,101.0708 643.351,90.1528 642.9629,79.2341 642.5742,68.3147" stroke="silver" stroke-opacity="0.5" stroke-width="1" /><polyline fill="none" points="570.2295,725.5999 570.0027,714.6796 569.7755,703.7601 569.5479,692.8413 569.3199,681.9232 569.0916,671.0058 568.8629,660.0891 568.6338,649.173 568.4044,638.2576 568.1746,627.3427 567.9444,616.4283 567.7138,605.5145 567.4828,594.6012 567.2515,583.6884 567.0198,572.7761 566.7877,561.8641 566.5552,550.9526 566.3223,540.0414 566.0891,529.1306 565.8554,518.2202 565.6214,507.31 565.3871,496.4001 565.1523,485.4904 564.9171,474.581 564.6816,463.6717 564.4457,452.7626 564.2093,441.8537 563.9726,430.9449 563.7356,420.0361 563.4981,409.1275 563.2602,398.2188 563.022,387.3102 562.7833,376.4016 562.5443,365.4929 562.3049,354.5842 562.0651,343.6754 561.8249,332.7664 561.5843,321.8573 561.3433,310.9481 561.1019,300.0386 560.8602,289.129 560.618,278.219 560.3754,267.3089 560.1325,256.3984 559.8891,245.4876 559.6454,234.5764 559.4012,223.6649 559.1567,212.7529 558.9118,201.8405 558.6664,190.9277 558.4207,180.0144 558.1745,169.1006 557.928,158.1863 557.681,147.2714 557.4337,136.3559 557.1859,125.4398 556.9378,114.523 556.6892,103.6056 556.4403,92.6876 556.1909,81.7688 555.9411,70.8492" stroke="silver" stroke-opacity="0.5" stroke-width="1" /><polyline fill="none" points="475.6563,727.0173 475.5555,716.0975 475.4545,705.1785 475.3534,694.2603 475.2521,683.3427 475.1507,672.4258 475.0491,661.5096 474.9473,650.594 474.8453,639.679 474.7432,628.7646 474.6409,617.8507 474.5385,606.9374 474.4358,596.0245 474.333,585.1121 474.2301,574.2002 474.1269,563.2886 474.0236,552.3775 473.9202,541.4667 473.8165,530.5563 473.7127,519.6462 473.6087,508.7363 473.5046,497.8268 473.4003,486.9175 473.2958,476.0083 473.1911,465.0994 473.0863,454.1906 472.9813,443.282 472.8761,432.3734 472.7708,421.465 472.6652,410.5566 472.5595,399.6482 472.4537,388.7398 472.3476,377.8314 472.2414,366.923 472.1351,356.0145 472.0285,345.1058 471.9218,334.1971 471.8149,323.2882 471.7078,312.3791 471.6005,301.4698 471.4931,290.5603 471.3855,279.6505 471.2777,268.7405 471.1697,257.8301 471.0616,246.9194 470.9533,236.0083 470.8448,225.0969 470.7362,214.185 470.6273,203.2727 470.5183,192.36 470.4091,181.4467 470.2997,170.5329 470.1902,159.6186 470.0804,148.7037 469.9705,137.7882 469.8604,126.8721 469.7502,115.9554 469.6397,105.038 469.5291,94.1198 469.4183,83.201 469.3073,72.2814" stroke="silver" stroke-opacity="0.5" stroke-width="1" /><polyline fill="none" points="381.086,727.3443 381.1112,716.4247 381.1364,705.5058 381.1617,694.5877 381.187,683.6702 381.2124,672.7535 381.2378,661.8374 381.2632,650.9219 381.2887,640.007 381.3143,629.0927 381.3398,618.1789 381.3654,607.2656 381.3911,596.3529 381.4168,585.4406 381.4425,574.5287 381.4683,563.6173 381.4941,552.7063 381.52,541.7956 381.5459,530.8852 381.5719,519.9752 381.5979,509.0655 381.6239,498.156 381.65,487.2467 381.6761,476.3377 381.7023,465.4288 381.7285,454.5201 381.7547,443.6115 381.781,432.7031 381.8073,421.7947 381.8337,410.8863 381.8601,399.978 381.8866,389.0697 381.9131,378.1614 381.9397,367.253 381.9663,356.3445 381.9929,345.4359 382.0196,334.5272 382.0463,323.6184 382.0731,312.7093 382.0999,301.8001 382.1267,290.8906 382.1536,279.9808 382.1806,269.0708 382.2076,258.1605 382.2346,247.2498 382.2617,236.3388 382.2888,225.4273 382.316,214.5155 382.3432,203.6032 382.3704,192.6904 382.3977,181.7772 382.4251,170.8634 382.4525,159.9491 382.4799,149.0342 382.5074,138.1188 382.5349,127.2026 382.5625,116.2859 382.5901,105.3685 382.6177,94.4503 382.6454,83.5315 382.6732,72.6119" stroke="silver" stroke-opacity="0.5" stroke-width="1" /><polyline fill="none" points="286.515,726.5812 286.6662,715.6613 286.8176,704.7421 286.9693,693.8237 287.1213,682.906 287.2735,671.9889 287.4259,661.0726 287.5786,650.1568 287.7315,639.2417 287.8847,628.3271 288.0382,617.4131 288.1919,606.4996 288.3458,595.5866 288.5,584.6741 288.6545,573.762 288.8092,562.8504 288.9641,551.9391 289.1194,541.0282 289.2748,530.1177 289.4305,519.2074 289.5865,508.2975 289.7428,497.3878 289.8992,486.4784 290.056,475.5692 290.213,464.6601 290.3703,453.7513 290.5278,442.8425 290.6856,431.9339 290.8436,421.0254 291.0019,410.1169 291.1604,399.2084 291.3192,388.3 291.4783,377.3915 291.6376,366.483 291.7972,355.5744 291.9571,344.6657 292.1172,333.7569 292.2775,322.848 292.4382,311.9388 292.5991,301.0295 292.7602,290.1199 292.9216,279.2101 293.0833,268.3 293.2453,257.3896 293.4075,246.4789 293.57,235.5678 293.7327,224.6563 293.8957,213.7444 294.059,202.8321 294.2225,191.9193 294.3863,181.006 294.5504,170.0922 294.7147,159.1779 294.8793,148.263 295.0442,137.3475 295.2093,126.4314 295.3748,115.5147 295.5404,104.5973 295.7064,93.6792 295.8726,82.7603 296.0391,71.8408" stroke="silver" stroke-opacity="0.5" stroke-width="1" /><polyline fill="none" points="191.9396,724.7275 192.2169,713.8069 192.4946,702.887 192.7728,691.9679 193.0514,681.0495 193.3305,670.1318 193.6101,659.2148 193.8901,648.2984 194.1706,637.3827 194.4515,626.4675 194.7329,615.5529 195.0148,604.6388 195.2971,593.7252 195.5799,582.8122 195.8632,571.8995 196.1469,560.9874 196.4311,550.0756 196.7157,539.1642 197.0008,528.2532 197.2864,517.3424 197.5725,506.432 197.859,495.5219 198.146,484.6121 198.4334,473.7024 198.7213,462.793 199.0097,451.8837 199.2986,440.9746 199.5879,430.0656 199.8777,419.1567 200.168,408.2478 200.4588,397.3391 200.75,386.4303 201.0417,375.5215 201.3339,364.6127 201.6266,353.7039 201.9197,342.7949 202.2133,331.8858 202.5074,320.9766 202.802,310.0673 203.0971,299.1577 203.3926,288.248 203.6886,277.338 203.9851,266.4277 204.2821,255.5171 204.5796,244.6063 204.8775,233.695 205.176,222.7834 205.4749,211.8715 205.7743,200.959 206.0742,190.0462 206.3746,179.1329 206.6755,168.219 206.9768,157.3047 207.2787,146.3898 207.581,135.4743 207.8839,124.5582 208.1872,113.6414 208.4911,102.7241 208.7954,91.806 209.1002,80.8872 209.4055,69.9677" stroke="silver" stroke-opacity="0.5" stroke-width="1" /><polyline fill="none" points="97.3562,721.7822 97.7597,710.8605 98.1639,699.9395 98.5687,689.0193 98.9742,678.0998 99.3804,667.1811 99.7872,656.2631 100.1947,645.3457 100.6029,634.4289 101.0117,623.5128 101.4212,612.5972 101.8314,601.6822 102.2423,590.7678 102.6538,579.8538 103.066,568.9403 103.4789,558.0273 103.8924,547.1147 104.3066,536.2025 104.7216,525.2907 105.1371,514.3793 105.5534,503.4681 105.9704,492.5573 106.388,481.6467 106.8063,470.7364 107.2253,459.8263 107.645,448.9164 108.0653,438.0067 108.4864,427.0971 108.9081,416.1876 109.3305,405.2783 109.7537,394.3689 110.1775,383.4597 110.602,372.5504 111.0272,361.6412 111.453,350.7319 111.8796,339.8225 112.3069,328.913 112.7349,318.0035 113.1635,307.0937 113.5929,296.1839 114.0229,285.2738 114.4537,274.3635 114.8852,263.453 115.3173,252.5422 115.7502,241.6311 116.1838,230.7196 116.6181,219.8079 117.0531,208.8957 117.4888,197.9832 117.9252,187.0702 118.3623,176.1568 118.8001,165.2428 119.2387,154.3284 119.6779,143.4135 120.1179,132.498 120.5586,121.5819 121.0,110.6652 121.4421,99.7479 121.885,88.83 122.3285,77.9113 122.7728,66.9919" stroke="silver" stroke-opacity="0.5" stroke-width="1" /><polyline fill="none" points="740.4802,720.2981 731.0209,720.6855 721.5618,721.062 712.1027,721.4276 702.6438,721.7822 693.185,722.1259 683.7263,722.4587 674.2677,722.7805 664.8092,723.0914 655.3509,723.3914 645.8926,723.6804 636.4344,723.9586 626.9763,724.2258 617.5183,724.4821 608.0604,724.7275 598.6026,724.962 589.1448,725.1855 579.6871,725.3982 570.2295,725.5999 560.7719,725.7907 551.3144,725.9706 541.857,726.1396 532.3996,726.2977 522.9423,726.4449 513.485,726.5812 504.0278,726.7066 494.5706,726.821 485.1134,726.9246 475.6563,727.0173 466.1992,727.099 456.7421,727.1699 447.2851,727.2298 437.828,727.2789 428.371,727.317 418.914,727.3443 409.457,727.3607 400.0,727.3661 390.543,727.3607 381.086,727.3443 371.629,727.317 362.172,727.2789 352.7149,727.2298 343.2579,727.1699 333.8008,727.099 324.3437,727.0173 314.8866,726.9246 305.4294,726.821 295.9722,726.7066 286.515,726.5812 277.0577,726.4449 267.6004,726.2977 258.143,726.1396 248.6856,725.9706 239.2281,725.7907 229.7705,725.5999 220.3129,725.3982 210.8552,725.1855 201.3974,724.962 191.9396,724.7275 182.4817,724.4821 173.0237,724.2258 163.5656,723.9586 154.1074,723.6804 144.6491,723.3914 135.1908,723.0914 125.7323,722.7805 116.2737,722.4587 106.815,722.1259 97.3562,721.7822 87.8973,721.4276 78.4382,721.062 68.9791,720.6855 59.5198,720.2981" stroke="silver" stroke-opacity="0.5" stroke-width="1" /><polyline fill="none" points="736.8268,632.9406 727.4692,633.3291 718.1118,633.7067 708.7544,634.0733 699.3971,634.4289 690.04,634.7736 680.6829,635.1073 671.3259,635.4301 661.969,635.7419 652.6122,636.0427 643.2555,636.3326 633.8989,636.6115 624.5423,636.8795 615.1858,637.1366 605.8294,637.3827 596.4731,637.6178 587.1168,637.842 577.7605,638.0553 568.4044,638.2576 559.0483,638.4489 549.6922,638.6294 540.3362,638.7988 530.9803,638.9574 521.6243,639.105 512.2685,639.2417 502.9126,639.3674 493.5568,639.4822 484.2011,639.5861 474.8453,639.679 465.4896,639.761 456.1339,639.8321 446.7782,639.8922 437.4226,639.9414 428.0669,639.9797 418.7113,640.007 409.3556,640.0234 400.0,640.0289 390.6444,640.0234 381.2887,640.007 371.9331,639.9797 362.5774,639.9414 353.2218,639.8922 343.8661,639.8321 334.5104,639.761 325.1547,639.679 315.7989,639.5861 306.4432,639.4822 297.0874,639.3674 287.7315,639.2417 278.3757,639.105 269.0197,638.9574 259.6638,638.7988 250.3078,638.6294 240.9517,638.4489 231.5956,638.2576 222.2395,638.0553 212.8832,637.842 203.5269,637.6178 194.1706,637.3827 184.8142,637.1366 175.4577,636.8795 166.1011,636.6115 156.7445,636.3326 147.3878,636.0427 138.031,635.7419 128.6741,635.4301 119.3171,635.1073 109.96,634.7736 100.6029,634.4289 91.2456,634.0733 81.8882,633.7067 72.5308,633.3291 63.1732,632.9406" stroke="silver" stroke-opacity="0.5" stroke-width="1" /><polyline fill="none" points="733.1252,545.6228 723.8706,546.0123 714.6162,546.3907 705.3619,546.7582 696.1076,547.1147 686.8534,547.4602 677.5993,547.7948 668.3452,548.1183 659.0913,548.4308 649.8374,548.7324 640.5836,549.023 631.3298,549.3026 622.0761,549.5712 612.8225,549.8289 603.5689,550.0756 594.3154,550.3113 585.0619,550.536 575.8085,550.7498 566.5552,550.9526 557.3019,551.1444 548.0486,551.3253 538.7953,551.4952 529.5422,551.6541 520.289,551.8021 511.0359,551.9391 501.7828,552.0651 492.5297,552.1802 483.2767,552.2843 474.0236,552.3775 464.7706,552.4597 455.5177,552.5309 446.2647,552.5912 437.0117,552.6405 427.7588,552.6789 418.5059,552.7063 409.2529,552.7227 400.0,552.7282 390.7471,552.7227 381.4941,552.7063 372.2412,552.6789 362.9883,552.6405 353.7353,552.5912 344.4823,552.5309 335.2294,552.4597 325.9764,552.3775 316.7233,552.2843 307.4703,552.1802 298.2172,552.0651 288.9641,551.9391 279.711,551.8021 270.4578,551.6541 261.2047,551.4952 251.9514,551.3253 242.6981,551.1444 233.4448,550.9526 224.1915,550.7498 214.9381,550.536 205.6846,550.3113 196.4311,550.0756 187.1775,549.8289 177.9239,549.5712 168.6702,549.3026 159.4164,549.023 150.1626,548.7324 140.9087,548.4308 131.6548,548.1183 122.4007,547.7948 113.1466,547.4602 103.8924,547.1147 94.6381,546.7582 85.3838,546.3907 76.1294,546.0123 66.8748,545.6228" stroke="silver" stroke-opacity="0.5" stroke-width="1" /><polyline fill="none" points="729.3748,458.3315 720.2247,458.7217 711.0746,459.1009 701.9246,459.4691 692.7747,459.8263 683.6249,460.1725 674.4751,460.5077 665.3253,460.8318 656.1756,461.145 647.026,461.4472 637.8764,461.7383 628.7269,462.0185 619.5775,462.2876 610.428,462.5458 601.2787,462.793 592.1293,463.0291 582.98,463.2543 573.8308,463.4685 564.6816,463.6717 555.5324,463.8639 546.3833,464.0451 537.2342,464.2154 528.0851,464.3746 518.936,464.5229 509.787,464.6601 500.638,464.7864 491.489,464.9017 482.3401,465.0061 473.1911,465.0994 464.0422,465.1818 454.8933,465.2531 445.7444,465.3135 436.5955,465.3629 427.4466,465.4014 418.2977,465.4288 409.1489,465.4453 400.0,465.4508 390.8511,465.4453 381.7023,465.4288 372.5534,465.4014 363.4045,465.3629 354.2556,465.3135 345.1067,465.2531 335.9578,465.1818 326.8089,465.0994 317.6599,465.0061 308.511,464.9017 299.362,464.7864 290.213,464.6601 281.064,464.5229 271.9149,464.3746 262.7658,464.2154 253.6167,464.0451 244.4676,463.8639 235.3184,463.6717 226.1692,463.4685 217.02,463.2543 207.8707,463.0291 198.7213,462.793 189.572,462.5458 180.4225,462.2876 171.2731,462.0185 162.1236,461.7383 152.974,461.4472 143.8244,461.145 134.6747,460.8318 125.5249,460.5077 116.3751,460.1725 107.2253,459.8263 98.0754,459.4691 88.9254,459.1009 79.7753,458.7217 70.6252,458.3315" stroke="silver" stroke-opacity="0.5" stroke-width="1" /><polyline fill="none" points="725.5752,371.0534 716.5308,371.4442 707.4865,371.8239 698.4422,372.1927 689.398,372.5504 680.3539,372.8971 671.3098,373.2328 662.2657,373.5574 653.2217,373.8711 644.1777,374.1737 635.1337,374.4653 626.0898,374.7459 617.0459,375.0154 608.0021,375.274 598.9583,375.5215 589.9145,375.758 580.8707,375.9836 571.827,376.1981 562.7833,376.4016 553.7397,376.5941 544.696,376.7756 535.6524,376.9461 526.6088,377.1056 517.5653,377.254 508.5217,377.3915 499.4782,377.518 490.4346,377.6335 481.3911,377.738 472.3476,377.8314 463.3042,377.9139 454.2607,377.9854 445.2172,378.0459 436.1738,378.0954 427.1303,378.1339 418.0869,378.1614 409.0434,378.1779 400.0,378.1833 390.9566,378.1779 381.9131,378.1614 372.8697,378.1339 363.8262,378.0954 354.7828,378.0459 345.7393,377.9854 336.6958,377.9139 327.6524,377.8314 318.6089,377.738 309.5654,377.6335 300.5218,377.518 291.4783,377.3915 282.4347,377.254 273.3912,377.1056 264.3476,376.9461 255.304,376.7756 246.2603,376.5941 237.2167,376.4016 228.173,376.1981 219.1293,375.9836 210.0855,375.758 201.0417,375.5215 191.9979,375.274 182.9541,375.0154 173.9102,374.7459 164.8663,374.4653 155.8223,374.1737 146.7783,373.8711 137.7343,373.5574 128.6902,373.2328 119.6461,372.8971 110.602,372.5504 101.5578,372.1927 92.5135,371.8239 83.4692,371.4442 74.4248,371.0534" stroke="silver" stroke-opacity="0.5" stroke-width="1" /><polyline fill="none" points="721.7257,283.7752 712.7885,284.1664 703.8513,284.5466 694.9142,284.9157 685.9771,285.2738 677.04,285.6208 668.1029,285.9569 659.1659,286.2819 650.2289,286.5958 641.2919,286.8987 632.355,287.1906 623.4181,287.4715 614.4811,287.7414 605.5443,288.0002 596.6074,288.248 587.6706,288.4848 578.7338,288.7105 569.7969,288.9252 560.8602,289.129 551.9234,289.3217 542.9866,289.5033 534.0499,289.674 525.1132,289.8337 516.1765,289.9823 507.2398,290.1199 498.3031,290.2465 489.3664,290.3621 480.4297,290.4667 471.4931,290.5603 462.5564,290.6429 453.6198,290.7144 444.6831,290.775 435.7465,290.8245 426.8099,290.8631 417.8733,290.8906 408.9366,290.9071 400.0,290.9126 391.0634,290.9071 382.1267,290.8906 373.1901,290.8631 364.2535,290.8245 355.3169,290.775 346.3802,290.7144 337.4436,290.6429 328.5069,290.5603 319.5703,290.4667 310.6336,290.3621 301.6969,290.2465 292.7602,290.1199 283.8235,289.9823 274.8868,289.8337 265.9501,289.674 257.0134,289.5033 248.0766,289.3217 239.1398,289.129 230.2031,288.9252 221.2662,288.7105 212.3294,288.4848 203.3926,288.248 194.4557,288.0002 185.5189,287.7414 176.5819,287.4715 167.645,287.1906 158.7081,286.8987 149.7711,286.5958 140.8341,286.2819 131.8971,285.9569 122.96,285.6208 114.0229,285.2738 105.0858,284.9157 96.1487,284.5466 87.2115,284.1664 78.2743,283.7752" stroke="silver" stroke-opacity="0.5" stroke-width="1" /><polyline fill="none" points="717.8258,196.4837 708.9971,196.8751 700.1685,197.2555 691.3398,197.6249 682.5112,197.9832 673.6826,198.3304 664.854,198.6666 656.0255,198.9918 647.1969,199.3059 638.3683,199.609 629.5398,199.9011 620.7113,200.1821 611.8827,200.4521 603.0542,200.7111 594.2257,200.959 585.3972,201.196 576.5687,201.4218 567.7402,201.6367 558.9118,201.8405 550.0833,202.0334 541.2548,202.2151 532.4264,202.3859 523.5979,202.5457 514.7695,202.6944 505.941,202.8321 497.1126,202.9588 488.2842,203.0744 479.4557,203.1791 470.6273,203.2727 461.7989,203.3553 452.9705,203.4269 444.1421,203.4875 435.3136,203.5371 426.4852,203.5757 417.6568,203.6032 408.8284,203.6197 400.0,203.6252 391.1716,203.6197 382.3432,203.6032 373.5148,203.5757 364.6864,203.5371 355.8579,203.4875 347.0295,203.4269 338.2011,203.3553 329.3727,203.2727 320.5443,203.1791 311.7158,203.0744 302.8874,202.9588 294.059,202.8321 285.2305,202.6944 276.4021,202.5457 267.5736,202.3859 258.7452,202.2151 249.9167,202.0334 241.0882,201.8405 232.2598,201.6367 223.4313,201.4218 214.6028,201.196 205.7743,200.959 196.9458,200.7111 188.1173,200.4521 179.2887,200.1821 170.4602,199.9011 161.6317,199.609 152.8031,199.3059 143.9745,198.9918 135.146,198.6666 126.3174,198.3304 117.4888,197.9832 108.6602,197.6249 99.8315,197.2555 91.0029,196.8751 82.1742,196.4837" stroke="silver" stroke-opacity="0.5" stroke-width="1" /><polyline fill="none" points="713.8748,109.1656 705.1561,109.5571 696.4374,109.9375 687.7187,110.3069 679.0,110.6652 670.2813,111.0125 661.5626,111.3488 652.8439,111.674 644.1252,111.9882 635.4064,112.2913 626.6877,112.5834 617.969,112.8645 609.2503,113.1345 600.5315,113.3935 591.8128,113.6414 583.094,113.8784 574.3753,114.1043 565.6565,114.3192 556.9378,114.523 548.219,114.7159 539.5003,114.8977 530.7815,115.0685 522.0628,115.2282 513.344,115.377 504.6252,115.5147 495.9065,115.6414 487.1877,115.7571 478.4689,115.8617 469.7502,115.9554 461.0314,116.038 452.3126,116.1096 443.5939,116.1702 434.8751,116.2198 426.1563,116.2584 417.4375,116.2859 408.7188,116.3024 400.0,116.3079 391.2812,116.3024 382.5625,116.2859 373.8437,116.2584 365.1249,116.2198 356.4061,116.1702 347.6874,116.1096 338.9686,116.038 330.2498,115.9554 321.5311,115.8617 312.8123,115.7571 304.0935,115.6414 295.3748,115.5147 286.656,115.377 277.9372,115.2282 269.2185,115.0685 260.4997,114.8977 251.781,114.7159 243.0622,114.523 234.3435,114.3192 225.6247,114.1043 216.906,113.8784 208.1872,113.6414 199.4685,113.3935 190.7497,113.1345 182.031,112.8645 173.3123,112.5834 164.5936,112.2913 155.8748,111.9882 147.1561,111.674 138.4374,111.3488 129.7187,111.0125 121.0,110.6652 112.2813,110.3069 103.5626,109.9375 94.8439,109.5571 86.1252,109.1656" stroke="silver" stroke-opacity="0.5" stroke-width="1" /><circle cx="715.2245" cy="222.4041" fill="black" r="0.738" stroke="none" /><circle cx="704.8056" cy="76.5791" fill="black" r="0.738" stroke="none" /><circle cx="723.6949" cy="662.5269" fill="black" r="0.738" stroke="none" /><circle cx="714.0316" cy="495.5259" fill="black" r="0.738" stroke="none" /><circle cx="708.5996" cy="580.1206" fill="black" r="0.738" stroke="none" /><circle cx="699.0863" cy="493.8483" fill="black" r="0.738" stroke="none" /><circle cx="704.2767" cy="712.7097" fill="black" r="0.738" stroke="none" /><circle cx="677.8459" cy="176.5701" fill="black" r="0.738" stroke="none" /><circle cx="677.4938" cy="176.584" fill="black" r="0.738" stroke="none" /><circle cx="684.4172" cy="586.713" fill="black" r="0.738" stroke="none" /><circle cx="672.4514" cy="314.2001" fill="black" r="0.936" stroke="none" /><circle cx="661.1868" cy="132.8771" fill="black" r="0.738" stroke="none" /><circle cx="674.3311" cy="575.1817" fill="black" r="0.738" stroke="none" /><circle cx="669.0333" cy="468.3045" fill="black" r="0.738" stroke="none" /><circle cx="666.2921" cy="415.5333" fill="black" r="0.738" stroke="none" /><circle cx="656.179" cy="143.3821" fill="black" r="1.476" stroke="none" /><circle cx="674.7945" cy="704.6571" fill="black" r="0.738" stroke="none" /><circle cx="654.3566" cy="229.4704" fill="black" r="0.738" stroke="none" /><circle cx="647.1818" cy="351.3583" fill="black" r="0.738" stroke="none" /><circle cx="635.286" cy="110.809" fill="black" r="0.738" stroke="none" /><circle cx="650.339" cy="594.859" fill="black" r="0.738" stroke="none" /><circle cx="617.1825" cy="200.3788" fill="black" r="0.738" stroke="none" /><circle cx="628.5289" cy="645.3317" fill="black" r="0.738" stroke="none" /><circle cx="612.3993" cy="108.8421" fill="black" r="0.738" stroke="none" /><circle cx="614.0877" cy="318.239" fill="black" r="0.738" stroke="none" /><circle cx="621.1663" cy="683.2088" fill="black" r="0.738" stroke="none" /><circle cx="610.2843" cy="554.6149" fill="black" r="0.738" stroke="none" /><circle cx="610.2456" cy="575.3203" fill="black" r="0.936" stroke="none" /><circle cx="600.4905" cy="603.88" fill="black" r="0.738" stroke="none" /><circle cx="592.5374" cy="304.7769" fill="black" r="0.738" stroke="none" /><circle cx="578.3752" cy="251.1649" fill="black" r="0.738" stroke="none" /><circle cx="584.2119" cy="505.4912" fill="black" r="1.17" stroke="none" /><circle cx="572.894" cy="711.997" fill="black" r="0.738" stroke="none" /><circle cx="558.9176" cy="205.2468" fill="black" r="0.738" stroke="none" /><circle cx="542.9131" cy="165.6724" fill="black" r="0.738" stroke="none" /><circle cx="546.4473" cy="395.9478" fill="black" r="0.738" stroke="none" /><circle cx="533.7206" cy="162.7969" fill="black" r="0.738" stroke="none" /><circle cx="533.3109" cy="163.4162" fill="black" r="0.738" stroke="none" /><circle cx="539.9099" cy="614.5253" fill="black" r="0.738" stroke="none" /><circle cx="533.2979" cy="652.2832" fill="black" r="0.738" stroke="none" /><circle cx="526.4844" cy="323.5955" fill="black" r="0.738" stroke="none" /><circle cx="528.5153" cy="676.9073" fill="black" r="0.738" stroke="none" /><circle cx="519.9336" cy="509.7268" fill="black" r="0.738" stroke="none" /><circle cx="515.9746" cy="290.7712" fill="black" r="0.738" stroke="none" /><circle cx="516.5524" cy="386.5226" fill="black" r="0.738" stroke="none" /><circle cx="514.3092" cy="463.5462" fill="black" r="0.738" stroke="none" /><circle cx="510.7689" cy="574.9925" fill="black" r="0.936" stroke="none" /><circle cx="489.9147" cy="181.399" fill="black" r="0.738" stroke="none" /><circle cx="489.3679" cy="409.5035" fill="black" r="0.738" stroke="none" /><circle cx="477.053" cy="101.5521" fill="black" r="0.738" stroke="none" /><circle cx="473.9145" cy="660.5594" fill="black" r="0.738" stroke="none" /><circle cx="463.3516" cy="532.7436" fill="black" r="0.738" stroke="none" /><circle cx="461.6918" cy="340.8359" fill="black" r="0.738" stroke="none" /><circle cx="449.0805" cy="233.3987" fill="black" r="1.17" stroke="none" /><circle cx="446.7574" cy="451.5182" fill="black" r="0.738" stroke="none" /><circle cx="441.1714" cy="655.8157" fill="black" r="0.738" stroke="none" /><circle cx="436.6173" cy="469.901" fill="black" r="0.738" stroke="none" /><circle cx="421.9801" cy="141.0751" fill="black" r="0.738" stroke="none" /><circle cx="413.9598" cy="619.3235" fill="black" r="0.738" stroke="none" /><circle cx="396.2393" cy="522.7892" fill="black" r="0.738" stroke="none" /><circle cx="382.9268" cy="346.4854" fill="black" r="0.738" stroke="none" /><circle cx="371.8255" cy="386.4204" fill="black" r="0.738" stroke="none" /><circle cx="367.9855" cy="192.4652" fill="black" r="0.738" stroke="none" /><circle cx="365.9128" cy="140.415" fill="black" r="0.738" stroke="none" /><circle cx="357.8897" cy="620.5341" fill="black" r="0.738" stroke="none" /><circle cx="356.0503" cy="84.6352" fill="black" r="0.738" stroke="none" /><circle cx="350.0461" cy="246.7485" fill="black" r="0.738" stroke="none" /><circle cx="340.4743" cy="331.1661" fill="black" r="0.738" stroke="none" /><circle cx="335.9482" cy="330.7789" fill="black" r="0.738" stroke="none" /><circle cx="333.3156" cy="516.7422" fill="black" r="0.738" stroke="none" /><circle cx="332.0792" cy="591.5432" fill="black" r="0.738" stroke="none" /><circle cx="324.2723" cy="462.5435" fill="black" r="0.738" stroke="none" /><circle cx="324.735" cy="97.2042" fill="black" r="0.738" stroke="none" /><circle cx="320.354" cy="201.2561" fill="black" r="0.738" stroke="none" /><circle cx="316.8445" cy="360.8736" fill="black" r="0.738" stroke="none" /><circle cx="312.0074" cy="657.7105" fill="black" r="0.738" stroke="none" /><circle cx="310.2763" cy="726.4386" fill="black" r="0.738" stroke="none" /><circle cx="313.121" cy="146.8551" fill="black" r="1.17" stroke="none" /><circle cx="307.8204" cy="572.7879" fill="black" r="0.738" stroke="none" /><circle cx="311.8973" cy="205.5215" fill="black" r="0.738" stroke="none" /><circle cx="312.7483" cy="120.8225" fill="black" r="0.738" stroke="none" /><circle cx="300.0864" cy="693.5587" fill="black" r="0.738" stroke="none" /><circle cx="290.9078" cy="609.5937" fill="black" r="0.738" stroke="none" /><circle cx="275.2641" cy="589.4531" fill="black" r="0.936" stroke="none" /><circle cx="275.5472" cy="548.2444" fill="black" r="0.738" stroke="none" /><circle cx="271.5594" cy="437.8307" fill="black" r="1.17" stroke="none" /><circle cx="253.7493" cy="722.1299" fill="black" r="0.738" stroke="none" /><circle cx="256.1941" cy="562.2323" fill="black" r="0.738" stroke="none" /><circle cx="260.2851" cy="301.6158" fill="black" r="0.738" stroke="none" /><circle cx="250.886" cy="548.9474" fill="black" r="0.738" stroke="none" /><circle cx="251.9578" cy="337.9464" fill="black" r="0.738" stroke="none" /><circle cx="250.3679" cy="237.7624" fill="black" r="0.738" stroke="none" /><circle cx="239.8483" cy="502.7976" fill="black" r="0.738" stroke="none" /><circle cx="234.5403" cy="710.5779" fill="black" r="0.738" stroke="none" /><circle cx="239.1766" cy="287.4707" fill="black" r="0.738" stroke="none" /><circle cx="234.4467" cy="316.2676" fill="black" r="0.738" stroke="none" /><circle cx="236.6568" cy="146.5293" fill="black" r="0.936" stroke="none" /><circle cx="221.1637" cy="622.5681" fill="black" r="0.738" stroke="none" /><circle cx="227.6358" cy="240.9186" fill="black" r="0.738" stroke="none" /><circle cx="224.3652" cy="374.974" fill="black" r="0.738" stroke="none" /><circle cx="214.5421" cy="634.1238" fill="black" r="0.738" stroke="none" /><circle cx="215.4667" cy="360.2626" fill="black" r="0.936" stroke="none" /><circle cx="209.9329" cy="507.0085" fill="black" r="0.738" stroke="none" /><circle cx="216.89" cy="164.9985" fill="black" r="0.738" stroke="none" /><circle cx="214.8801" cy="85.5045" fill="black" r="0.738" stroke="none" /><circle cx="202.5549" cy="536.4321" fill="black" r="0.738" stroke="none" /><circle cx="198.6625" cy="423.7529" fill="black" r="0.738" stroke="none" /><circle cx="197.7569" cy="449.4924" fill="black" r="0.738" stroke="none" /><circle cx="198.2051" cy="354.7466" fill="black" r="0.738" stroke="none" /><circle cx="186.1139" cy="586.2304" fill="black" r="0.738" stroke="none" /><circle cx="181.323" cy="644.2954" fill="black" r="0.738" stroke="none" /><circle cx="183.1175" cy="528.0524" fill="black" r="0.936" stroke="none" /><circle cx="192.8007" cy="154.4515" fill="black" r="0.738" stroke="none" /><circle cx="187.7505" cy="287.2829" fill="black" r="0.738" stroke="none" /><circle cx="191.6555" cy="148.1248" fill="black" r="0.738" stroke="none" /><circle cx="177.9853" cy="388.6698" fill="black" r="0.738" stroke="none" /><circle cx="171.1487" cy="365.6639" fill="black" r="0.738" stroke="none" /><circle cx="171.9824" cy="320.1767" fill="black" r="0.738" stroke="none" /><circle cx="163.3522" cy="534.1151" fill="black" r="0.738" stroke="none" /><circle cx="157.7845" cy="515.8573" fill="black" r="0.738" stroke="none" /><circle cx="148.8823" cy="234.3048" fill="black" r="0.738" stroke="none" /><circle cx="137.857" cy="396.8924" fill="black" r="0.738" stroke="none" /><circle cx="124.0632" cy="689.313" fill="black" r="0.738" stroke="none" /><circle cx="137.2298" cy="238.0812" fill="black" r="0.738" stroke="none" /><circle cx="137.6115" cy="225.7704" fill="black" r="0.738" stroke="none" /><circle cx="137.2481" cy="155.8163" fill="black" r="1.476" stroke="none" /><circle cx="111.1886" cy="646.4484" fill="black" r="0.738" stroke="none" /><circle cx="117.8961" cy="67.4041" fill="black" r="0.738" stroke="none" /><circle cx="88.5372" cy="636.2424" fill="black" r="0.738" stroke="none" /><circle cx="83.7079" cy="635.0909" fill="black" r="0.738" stroke="none" /><circle cx="86.801" cy="546.1854" fill="black" r="0.738" stroke="none" /><circle cx="93.837" cy="273.1696" fill="black" r="0.738" stroke="none" /><circle cx="96.2376" cy="195.2653" fill="black" r="0.738" stroke="none" /><circle cx="78.1204" cy="428.661" fill="black" r="0.936" stroke="none" /><circle cx="83.7563" cy="273.0852" fill="black" r="0.738" stroke="none" /><circle cx="87.36" cy="159.5355" fill="black" r="1.17" stroke="none" /><circle cx="78.8277" cy="336.531" fill="black" r="0.738" stroke="none" /><circle cx="13.77" cy="786.23" fill="black" r="4.59" stroke="none" /><circle cx="13.77" cy="786.23" fill="black" r="4.59" stroke="none" /><text fill="black" font-family="monospace" font-size="12" x="10.77" y="775.64">1</text><circle cx="37.77" cy="786.23" fill="black" r="3.654" stroke="none" /><circle cx="37.77" cy="786.23" fill="black" r="3.654" stroke="none" /><text fill="black" font-family="monospace" font-size="12" x="34.769999999999996" y="775.64">2</text><circle cx="61.77" cy="786.23" fill="black" r="2.916" stroke="none" /><circle cx="61.77" cy="786.23" fill="black" r="2.916" stroke="none" /><text fill="black" font-family="monospace" font-size="12" x="58.769999999999996" y="775.64">3</text><circle cx="85.77" cy="786.23" fill="black" r="2.322" stroke="none" /><circle cx="85.77" cy="786.23" fill="black" r="2.322" stroke="none" /><text fill="black" font-family="monospace" font-size="12" x="82.77" y="775.64">4</text><circle cx="109.77" cy="786.23" fill="black" r="1.854" stroke="none" /><circle cx="109.77" cy="786.23" fill="black" r="1.854" stroke="none" /><text fill="black" font-family="monospace" font-size="12" x="106.77" y="775.64">5</text><circle cx="133.77" cy="786.23" fill="black" r="1.476" stroke="none" /><circle cx="133.77" cy="786.23" fill="black" r="1.476" stroke="none" /><text fill="black" font-family="monospace" font-size="12" x="130.77" y="775.64">6</text><circle cx="157.77" cy="786.23" fill="black" r="1.17" stroke="none" /><circle cx="157.77" cy="786.23" fill="black" r="1.17" stroke="none" /><text fill="black" font-family="monospace" font-size="12" x="154.77" y="775.64">7</text><circle cx="181.77" cy="786.23" fill="black" r="0.936" stroke="none" /><circle cx="181.77" cy="786.23" fill="black" r="0.936" stroke="none" /><text fill="black" font-family="monospace" font-size="12" x="178.77" y="775.64">8</text><circle cx="205.77" cy="786.23" fill="black" r="0.738" stroke="none" /><circle cx="205.77" cy="786.23" fill="black" r="0.738" stroke="none" /><text fill="black" font-family="monospace" font-size="12" x="202.77" y="775.64">9</text><text fill="gray" fill-opacity="0.5" font-family="monospace" font-size="12" x="664.809249344742" y="723.0914009659007">15h40m</text><text fill="gray" fill-opacity="0.5" font-family="monospace" font-size="12" x="570.2294776817605" y="725.5998922970168">15h45m</text><text fill="gray" fill-opacity="0.5" font-family="monospace" font-size="12" x="475.65627824847803" y="727.0172646044371">15h50m</text><text fill="gray" fill-opacity="0.5" font-family="monospace" font-size="12" x="381.08600359133277" y="727.3443022625825">15h55m</text><text fill="gray" fill-opacity="0.5" font-family="monospace" font-size="12" x="286.51499752189073" y="726.5811862438206">16h00m</text><text fill="gray" fill-opacity="0.5" font-family="monospace" font-size="12" x="191.93960603473957" y="724.7274942576431">16h05m</text><text fill="gray" fill-opacity="0.5" font-family="monospace" font-size="12" x="97.35618823229373" y="721.782200425927">16h10m</text><text fill="gray" fill-opacity="0.5" font-family="monospace" font-size="12" x="59.519762513921535" y="720.298089532354">+30°</text><text fill="gray" fill-opacity="0.5" font-family="monospace" font-size="12" x="63.17318490240535" y="632.9405767426096">+31°</text><text fill="gray" fill-opacity="0.5" font-family="monospace" font-size="12" x="66.87482799348686" y="545.6227984718392">+32°</text><text fill="gray" fill-opacity="0.5" font-family="monospace" font-size="12" x="70.62520151171304" y="458.3314783766065">+33°</text><text fill="gray" fill-opacity="0.5" font-family="monospace" font-size="12" x="74.42484486387355" y="371.05335616926925">+34°</text><text fill="gray" fill-opacity="0.5" font-family="monospace" font-size="12" x="78.27432743866211" y="283.7751795705645">+35°</text><text fill="gray" fill-opacity="0.5" font-family="monospace" font-size="12" x="82.17424894509492" y="196.4836962725">+36°</text><text fill="gray" fill-opacity="0.5" font-family="monospace" font-size="12" x="86.12523979011269" y="109.16564590122829">+37°</text><text fill="black" font-family="monospace" font-size="12" x="12" y="48">&gt;&gt; No.618 15h36m 16h12m +30.0°+37.5°</text><a target="_self" xlink:href="hip037.svg"><text fill="black" font-family="monospace" font-size="12" x="12" y="36">&gt; No.37 15h00m 18h00m +22.5°+52.5°</text></a><a target="_self" xlink:href="hip002.svg"><text fill="black" font-family="monospace" font-size="12" x="12" y="24">No.2 00h 24h +0.0°+90.0°</text></a><polyline fill="none" points="711.8799,65.4925 703.2167,65.8839 694.5536,66.2643 685.8904,66.6336 677.2272,66.9919 668.564,67.3392 659.9007,67.6754 651.2375,68.0005 642.5742,68.3147 633.911,68.6178 625.2477,68.9098 616.5844,69.1908 607.9211,69.4608 599.2578,69.7198 590.5945,69.9677 581.9311,70.2046 573.2678,70.4305 564.6045,70.6454 555.9411,70.8492 547.2778,71.042 538.6144,71.2238 529.951,71.3946 521.2877,71.5543 512.6243,71.7031 503.9609,71.8408 495.2975,71.9675 486.6341,72.0831 477.9707,72.1878 469.3073,72.2814 460.6439,72.364 451.9805,72.4356 443.3171,72.4962 434.6537,72.5458 425.9902,72.5843 417.3268,72.6119 408.6634,72.6284 400.0,72.6339 391.3366,72.6284 382.6732,72.6119 374.0098,72.5843 365.3463,72.5458 356.6829,72.4962 348.0195,72.4356 339.3561,72.364 330.6927,72.2814 322.0293,72.1878 313.3659,72.0831 304.7025,71.9675 296.0391,71.8408 287.3757,71.7031 278.7123,71.5543 270.049,71.3946 261.3856,71.2238 252.7222,71.042 244.0589,70.8492 235.3955,70.6454 226.7322,70.4305 218.0689,70.2046 209.4055,69.9677 200.7422,69.7198 192.0789,69.4608 183.4156,69.1908 174.7523,68.9098 166.089,68.6178 157.4258,68.3147 148.7625,68.0005 140.0993,67.6754 131.436,67.3392 122.7728,66.9919 114.1096,66.6336 105.4464,66.2643 96.7833,65.8839 88.1201,65.4925" stroke="black" stroke-opacity="0.5" stroke-width="1" /><polyline fill="none" points="740.4802,720.2981 740.0262,709.3758 739.5714,698.4543 739.1158,687.5335 738.6595,676.6135 738.2025,665.6943 737.7447,654.7757 737.2861,643.8578 736.8268,632.9406 736.3668,622.024 735.9059,611.1079 735.4444,600.1925 734.9821,589.2776 734.519,578.3632 734.0551,567.4492 733.5905,556.5358 733.1252,545.6228 732.6591,534.7102 732.1922,523.798 731.7245,512.8862 731.2561,501.9747 730.7869,491.0635 730.317,480.1526 729.8463,469.2419 729.3748,458.3315 728.9025,447.4213 728.4295,436.5112 727.9557,425.6013 727.4812,414.6916 727.0058,403.7819 726.5297,392.8724 726.0528,381.9629 725.5752,371.0534 725.0967,360.1439 724.6175,349.2343 724.1375,338.3248 723.6567,327.4151 723.1751,316.5053 722.6927,305.5955 722.2096,294.6854 721.7257,283.7752 721.241,272.8647 720.7554,261.9541 720.2691,251.0431 719.7821,240.1319 719.2942,229.2204 718.8055,218.3085 718.316,207.3963 717.8258,196.4837 717.3347,185.5707 716.8428,174.6572 716.3501,163.7433 715.8567,152.8288 715.3624,141.9139 714.8673,130.9984 714.3714,120.0823 713.8748,109.1656 713.3773,98.2484 712.879,87.3304 712.3798,76.4118 711.8799,65.4925" stroke="black" stroke-opacity="0.5" stroke-width="1" /><polyline fill="none" points="740.4802,720.2981 731.0209,720.6855 721.5618,721.062 712.1027,721.4276 702.6438,721.7822 693.185,722.1259 683.7263,722.4587 674.2677,722.7805 664.8092,723.0914 655.3509,723.3914 645.8926,723.6804 636.4344,723.9586 626.9763,724.2258 617.5183,724.4821 608.0604,724.7275 598.6026,724.962 589.1448,725.1855 579.6871,725.3982 570.2295,725.5999 560.7719,725.7907 551.3144,725.9706 541.857,726.1396 532.3996,726.2977 522.9423,726.4449 513.485,726.5812 504.0278,726.7066 494.5706,726.821 485.1134,726.9246 475.6563,727.0173 466.1992,727.099 456.7421,727.1699 447.2851,727.2298 437.828,727.2789 428.371,727.317 418.914,727.3443 409.457,727.3607 400.0,727.3661 390.543,727.3607 381.086,727.3443 371.629,727.317 362.172,727.2789 352.7149,727.2298 343.2579,727.1699 333.8008,727.099 324.3437,727.0173 314.8866,726.9246 305.4294,726.821 295.9722,726.7066 286.515,726.5812 277.0577,726.4449 267.6004,726.2977 258.143,726.1396 248.6856,725.9706 239.2281,725.7907 229.7705,725.5999 220.3129,725.3982 210.8552,725.1855 201.3974,724.962 191.9396,724.7275 182.4817,724.4821 173.0237,724.2258 163.5656,723.9586 154.1074,723.6804 144.6491,723.3914 135.1908,723.0914 125.7323,722.7805 116.2737,722.4587 106.815,722.1259 97.3562,721.7822 87.8973,721.4276 78.4382,721.062 68.9791,720.6855 59.5198,720.2981" stroke="black" stroke-opacity="0.5" stroke-width="1" /><polyline fill="none" points="59.5198,720.2981 59.9738,709.3758 60.4286,698.4543 60.8842,687.5335 61.3405,676.6135 61.7975,665.6943 62.2553,654.7757 62.7139,643.8578 63.1732,632.9406 63.6332,622.024 64.0941,611.1079 64.5556,600.1925 65.0179,589.2776 65.481,578.3632 65.9449,567.4492 66.4095,556.5358 66.8748,545.6228 67.3409,534.7102 67.8078,523.798 68.2755,512.8862 68.7439,501.9747 69.2131,491.0635 69.683,480.1526 70.1537,469.2419 70.6252,458.3315 71.0975,447.4213 71.5705,436.5112 72.0443,425.6013 72.5188,414.6916 72.9942,403.7819 73.4703,392.8724 73.9472,381.9629 74.4248,371.0534 74.9033,360.1439 75.3825,349.2343 75.8625,338.3248 76.3433,327.4151 76.8249,316.5053 77.3073,305.5955 77.7904,294.6854 78.2743,283.7752 78.759,272.8647 79.2446,261.9541 79.7309,251.0431 80.2179,240.1319 80.7058,229.2204 81.1945,218.3085 81.684,207.3963 82.1742,196.4837 82.6653,185.5707 83.1572,174.6572 83.6499,163.7433 84.1433,152.8288 84.6376,141.9139 85.1327,130.9984 85.6286,120.0823 86.1252,109.1656 86.6227,98.2484 87.121,87.3304 87.6202,76.4118 88.1201,65.4925" stroke="black" stroke-opacity="0.5" stroke-width="1" /></svg>