<?xml version="1.0" encoding="utf-8" ?>
<svg baseProfile="tiny" height="800" version="1.2" width="800" xmlns="http://www.w3.org/2000/svg" xmlns:ev="http://www.w3.org/2001/xml-events" xmlns:xlink="http://www.w3.org/1999/xlink"><defs /><rect fill="none" height="800" stroke="black" stroke-width="2" width="800" x="0" y="0" /><polyline fill="none" points="740.4802,720.2981 740.0262,709.3758 739.5714,698.4543 739.1158,687.5335 738.6595,676.6135 738.2025,665.6943 737.7447,654.7757 737.2861,643.8578 736.8268,632.9406 736.3668,622.024 735.9059,611.1079 735.4444,600.1925 734.9821,589.2776 734.519,578.3632 734.0551,567.4492 733.5905,556.5358 733.1252,545.6228 732.6591,534.7102 732.1922,523.798 731.7245,512.8862 731.2561,501.9747 730.7869,491.0635 730.317,480.1526 729.8463,469.2419 729.3748,458.3315 728.9025,447.4213 728.4295,436.5112 727.9557,425.6013 727.4812,414.6916 727.0058,403.7819 726.5297,392.8724 726.0528,381.9629 725.5752,371.0534 725.0967,360.1439 724.6175,349.2343 724.1375,338.3248 723.6567,327.4151 723.1751,316.5053 722.6927,305.5955 722.2096,294.6854 721.7257,283.7752 721.241,272.8647 720.7554,261.9541 720.2691,251.0431 719.7821,240.1319 719.2942,229.2204 718.8055,218.3085 718.316,207.3963 717.8258,196.4837 717.3347,185.5707 716.8428,174.6572 716.3501,163.7433 715.8567,152.8288 715.3624,141.9139 714.8673,130.9984 714.3714,120.0823 713.8748,109.1656 713.3773,98.2484 712.879,87.3304 712.3798,76.4118 711.8799,65.4925" stroke="silver" stroke-opacity="0.5" stroke-width="1" /><polyline fill="none" points="645.8926,723.6804 645.5649,712.7594 645.2366,701.8392 644.9077,690.9197 644.5784,680.0009 644.2485,669.0829 643.918,658.1655 643.587,647.2487 643.2555,636.3326 642.9234,625.4171 642.5908,614.5021 642.2576,603.5877 641.9239,592.6739 641.5897,581.7605 641.2548,570.8475 640.9195,559.9351 640.5836,549.023 640.2471,538.1113 639.9101,527.2 639.5725,516.289 639.2344,505.3784 638.8958,494.468 638.5565,483.5579 638.2168,472.648 637.8764,461.7383 637.5356,450.8288 637.1941,439.9195 636.8521,429.0103 636.5096,418.1012 636.1664,407.1921 635.8228,396.2832 635.4785,385.3742 635.1337,374.4653 634.7884,363.5563 634.4424,352.6473 634.0959,341.7382 633.7489,330.829 633.4012,319.9197 633.0531,309.0102 632.7043,298.1005 632.355,287.1906 632.0051,276.2805 631.6546,265.3702 631.3036,254.4595 630.952,243.5486 630.5998,232.6373 630.247,221.7256 629.8937,210.8136 629.5398,199.9011 629.1853,188.9882 628.8303,178.0748 628.4746,167.161 628.1184,156.2466 627.7616,145.3317 627.4042,134.4162 627.0463,123.5001 626.6877,112.5834 626.3286,101.666 625.9689,90.748 625.6086,79.8293 625.2477,68.9098" stroke="silver" stroke-opacity="0.5" stroke-width="1" /><polyline fill="none" points="551.3144,725.9706 551.1128,715.0505 550.9109,704.1311 550.7086,693.2124 550.506,682.2945 550.3031,671.3773 550.0998,660.4607 549.8962,649.5447 549.6922,638.6294 549.4879,627.7146 549.2833,616.8004 549.0784,605.8867 548.8731,594.9735 548.6675,584.0608 548.4615,573.1486 548.2552,562.2367 548.0486,551.3253 547.8416,540.4142 547.6343,529.5035 547.4266,518.5931 547.2186,507.6831 547.0103,496.7732 546.8016,485.8637 546.5926,474.9543 546.3833,464.0451 546.1736,453.1361 545.9635,442.2273 545.7531,431.3185 545.5424,420.4099 545.3313,409.5013 545.1199,398.5927 544.9081,387.6841 544.696,376.7756 544.4836,365.867 544.2708,354.9583 544.0576,344.0495 543.8441,333.1406 543.6303,322.2316 543.4161,311.3224 543.2015,300.413 542.9866,289.5033 542.7714,278.5935 542.5558,267.6833 542.3399,256.7729 542.1236,245.8621 541.9069,234.9509 541.6899,224.0394 541.4725,213.1275 541.2548,202.2151 541.0368,191.3023 540.8183,180.389 540.5995,169.4752 540.3804,158.5609 540.1609,147.646 539.9411,136.7305 539.7209,125.8144 539.5003,114.8977 539.2794,103.9803 539.0581,93.0622 538.8364,82.1434 538.6144,71.2238" stroke="silver" stroke-opacity="0.5" stroke-width="1" /><polyline fill="none" points="456.7421,727.1699 456.6665,716.2502 456.5908,705.3313 456.515,694.4131 456.439,683.4956 456.3629,672.5787 456.2867,661.6626 456.2104,650.747 456.1339,639.8321 456.0573,628.9177 455.9806,618.0039 455.9038,607.0906 455.8268,596.1777 455.7497,585.2654 455.6725,574.3535 455.5951,563.442 455.5177,552.5309 455.4401,541.6202 455.3623,530.7098 455.2845,519.7997 455.2065,508.8899 455.1284,497.9804 455.0501,487.0711 454.9718,476.162 454.8933,465.2531 454.8147,454.3444 454.7359,443.4358 454.657,432.5273 454.578,421.6188 454.4989,410.7105 454.4196,399.8021 454.3402,388.8938 454.2607,377.9854 454.181,367.077 454.1013,356.1685 454.0213,345.2599 453.9413,334.3512 453.8611,323.4423 453.7808,312.5332 453.7004,301.6239 453.6198,290.7144 453.5391,279.8047 453.4583,268.8946 453.3773,257.9843 453.2962,247.0736 453.215,236.1625 453.1336,225.2511 453.0521,214.3392 452.9705,203.4269 452.8887,192.5142 452.8068,181.6009 452.7248,170.6872 452.6426,159.7728 452.5603,148.858 452.4779,137.9425 452.3953,127.0264 452.3126,116.1096 452.2298,105.1922 452.1468,94.2741 452.0637,83.3552 451.9805,72.4356" stroke="silver" stroke-opacity="0.5" stroke-width="1" /><polyline fill="none" points="362.172,727.2789 362.2224,716.3593 362.2728,705.4404 362.3234,694.5222 362.374,683.6047 362.4248,672.688 362.4756,661.7718 362.5265,650.8563 362.5774,639.9414 362.6285,629.0271 362.6796,618.1133 362.7309,607.2 362.7822,596.2872 362.8336,585.3749 362.8851,574.463 362.9366,563.5516 362.9883,552.6405 363.04,541.7298 363.0918,530.8195 363.1437,519.9094 363.1957,508.9996 363.2478,498.0901 363.2999,487.1809 363.3522,476.2718 363.4045,465.3629 363.4569,454.4542 363.5094,443.5456 363.562,432.6371 363.6147,421.7287 363.6674,410.8204 363.7203,399.9121 363.7732,389.0037 363.8262,378.0954 363.8793,367.187 363.9325,356.2785 363.9858,345.3699 364.0392,334.4612 364.0926,323.5523 364.1461,312.6433 364.1998,301.734 364.2535,290.8245 364.3073,279.9148 364.3612,269.0047 364.4152,258.0944 364.4692,247.1837 364.5234,236.2727 364.5776,225.3612 364.6319,214.4494 364.6864,203.5371 364.7409,192.6243 364.7955,181.7111 364.8501,170.7973 364.9049,159.883 364.9598,148.9681 365.0147,138.0527 365.0698,127.1365 365.1249,116.2198 365.1801,105.3024 365.2354,94.3842 365.2908,83.4654 365.3463,72.5458" stroke="silver" stroke-opacity="0.5" stroke-width="1" /><polyline fill="none" points="267.6004,726.2977 267.7768,715.3777 267.9535,704.4584 268.1305,693.5399 268.3077,682.6221 268.4853,671.705 268.6631,660.7885 268.8413,649.8726 269.0197,638.9574 269.1985,628.0427 269.3775,617.1286 269.5568,606.215 269.7364,595.302 269.9163,584.3894 270.0966,573.4772 270.2771,562.5655 270.4578,551.6541 270.6389,540.7432 270.8203,529.8325 271.002,518.9222 271.184,508.0122 271.3663,497.1025 271.5489,486.193 271.7317,475.2837 271.9149,464.3746 272.0984,453.4657 272.2822,442.5569 272.4663,431.6482 272.6506,420.7396 272.8353,409.8311 273.0203,398.9226 273.2056,388.0141 273.3912,377.1056 273.5771,366.197 273.7633,355.2884 273.9498,344.3796 274.1366,333.4708 274.3237,322.5618 274.5111,311.6526 274.6988,300.7433 274.8868,289.8337 275.0751,278.9238 275.2638,268.0137 275.4527,257.1033 275.642,246.1925 275.8315,235.2814 276.0214,224.3699 276.2116,213.458 276.4021,202.5457 276.5929,191.6329 276.784,180.7196 276.9754,169.8058 277.1672,158.8915 277.3592,147.9766 277.5516,137.0611 277.7442,126.145 277.9372,115.2282 278.1305,104.3108 278.3242,93.3927 278.5181,82.4739 278.7123,71.5543" stroke="silver" stroke-opacity="0.5" stroke-width="1" /><polyline fill="none" points="173.0237,724.2258 173.3262,713.305 173.6292,702.3849 173.9327,691.4657 174.2367,680.5471 174.5412,669.6292 174.8462,658.712 175.1517,647.7955 175.4577,636.8795 175.7642,625.9642 176.0712,615.0494 176.3787,604.1352 176.6867,593.2215 176.9953,582.3082 177.3043,571.3955 177.6138,560.4832 177.9239,549.5712 178.2344,538.6597 178.5455,527.7485 178.857,516.8377 179.1691,505.9272 179.4817,495.0169 179.7948,484.1069 180.1084,473.1972 180.4225,462.2876 180.7372,451.3783 181.0523,440.469 181.368,429.5599 181.6842,418.6509 182.0009,407.742 182.3181,396.8331 182.6358,385.9243 182.9541,375.0154 183.2728,364.1065 183.5921,353.1976 183.912,342.2886 184.2323,331.3795 184.5531,320.4702 184.8745,309.5608 185.1964,298.6512 185.5189,287.7414 185.8418,276.8313 186.1653,265.921 186.4893,255.0104 186.8138,244.0995 187.1389,233.1882 187.4645,222.2766 187.7906,211.3646 188.1173,200.4521 188.4445,189.5393 188.7722,178.6259 189.1004,167.7121 189.4292,156.7977 189.7585,145.8828 190.0884,134.9673 190.4188,124.0512 190.7497,113.1345 191.0812,102.2171 191.4132,91.2991 191.7458,80.3803 192.0789,69.4608" stroke="silver" stroke-opacity="0.5" stroke-width="1" /><polyline fill="none" points="78.4382,721.062 78.867,710.14 79.2965,699.2188 79.7267,688.2983 80.1576,677.3786 80.5892,666.4596 81.0215,655.5413 81.4545,644.6237 81.8882,633.7067 82.3227,622.7903 82.7578,611.8745 83.1937,600.9593 83.6303,590.0446 84.0676,579.1305 84.5056,568.2168 84.9443,557.3035 85.3838,546.3907 85.824,535.4784 86.2649,524.5664 86.7065,513.6547 87.1488,502.7434 87.5919,491.8324 88.0356,480.9217 88.4801,470.0112 88.9254,459.1009 89.3713,448.1909 89.818,437.281 90.2654,426.3713 90.7136,415.4617 91.1625,404.5522 91.6121,393.6427 92.0624,382.7333 92.5135,371.8239 92.9653,360.9146 93.4179,350.0052 93.8712,339.0957 94.3252,328.1861 94.7799,317.2765 95.2355,306.3667 95.6917,295.4567 96.1487,284.5466 96.6064,273.6362 97.0649,262.7256 97.5241,251.8147 97.9841,240.9036 98.4449,229.9921 98.9063,219.0803 99.3686,208.1681 99.8315,197.2555 100.2953,186.3425 100.7598,175.4291 101.225,164.5151 101.691,153.6007 102.1578,142.6858 102.6253,131.7703 103.0936,120.8542 103.5626,109.9375 104.0324,99.0202 104.503,88.1023 104.9743,77.1836 105.4464,66.2643" stroke="silver" stroke-opacity="0.5" stroke-width="1" /><polyline fill="none" points="740.4802,720.2981 731.0209,720.6855 721.5618,721.062 712.1027,721.4276 702.6438,721.7822 693.185,722.1259 683.7263,722.4587 674.2677,722.7805 664.8092,723.0914 655.3509,723.3914 645.8926,723.6804 636.4344,723.9586 626.9763,724.2258 617.5183,724.4821 608.0604,724.7275 598.6026,724.962 589.1448,725.1855 579.6871,725.3982 570.2295,725.5999 560.7719,725.7907 551.3144,725.9706 541.857,726.1396 532.3996,726.2977 522.9423,726.4449 513.485,726.5812 504.0278,726.7066 494.5706,726.821 485.1134,726.9246 475.6563,727.0173 466.1992,727.099 456.7421,727.1699 447.2851,727.2298 437.828,727.2789 428.371,727.317 418.914,727.3443 409.457,727.3607 400.0,727.3661 390.543,727.3607 381.086,727.3443 371.629,727.317 362.172,727.2789 352.7149,727.2298 343.2579,727.1699 333.8008,727.099 324.3437,727.0173 314.8866,726.9246 305.4294,726.821 295.9722,726.7066 286.515,726.5812 277.0577,726.4449 267.6004,726.2977 258.143,726.1396 248.6856,725.9706 239.2281,725.7907 229.7705,725.5999 220.3129,725.3982 210.8552,725.1855 201.3974,724.962 191.9396,724.7275 182.4817,724.4821 173.0237,724.2258 163.5656,723.9586 154.1074,723.6804 144.6491,723.3914 135.1908,723.0914 125.7323,722.7805 116.2737,722.4587 106.815,722.1259 97.3562,721.7822 87.8973,721.4276 78.4382,721.062 68.9791,720.6855 59.5198,720.2981" stroke="silver" stroke-opacity="0.5" stroke-width="1" /><polyline fill="none" points="736.8268,632.9406 727.4692,633.3291 718.1118,633.7067 708.7544,634.0733 699.3971,634.4289 690.04,634.7736 680.6829,635.1073 671.3259,635.4301 661.969,635.7419 652.6122,636.0427 643.2555,636.3326 633.8989,636.6115 624.5423,636.8795 615.1858,637.1366 605.8294,637.3827 596.4731,637.6178 587.1168,637.842 577.7605,638.0553 568.4044,638.2576 559.0483,638.4489 549.6922,638.6294 540.3362,638.7988 530.9803,638.9574 521.6243,639.105 512.2685,639.2417 502.9126,639.3674 493.5568,639.4822 484.2011,639.5861 474.8453,639.679 465.4896,639.761 456.1339,639.8321 446.7782,639.8922 437.4226,639.9414 428.0669,639.9797 418.7113,640.007 409.3556,640.0234 400.0,640.0289 390.6444,640.0234 381.2887,640.007 371.9331,639.9797 362.5774,639.9414 353.2218,639.8922 343.8661,639.8321 334.5104,639.761 325.1547,639.679 315.7989,639.5861 306.4432,639.4822 297.0874,639.3674 287.7315,639.2417 278.3757,639.105 269.0197,638.9574 259.6638,638.7988 250.3078,638.6294 240.9517,638.4489 231.5956,638.2576 222.2395,638.0553 212.8832,637.842 203.5269,637.6178 194.1706,637.3827 184.8142,637.1366 175.4577,636.8795 166.1011,636.6115 156.7445,636.3326 147.3878,636.0427 138.031,635.7419 128.6741,635.4301 119.3171,635.1073 109.96,634.7736 100.6029,634.4289 91.2456,634.0733 81.8882,633.7067 72.5308,633.3291 63.1732,632.9406" stroke="silver" stroke-opacity="0.5" stroke-width="1" /><polyline fill="none" points="733.1252,545.6228 723.8706,546.0123 714.6162,546.3907 705.3619,546.7582 696.1076,547.1147 686.8534,547.4602 677.5993,547.7948 668.3452,548.1183 659.0913,548.4308 649.8374,548.7324 640.5836,549.023 631.3298,549.3026 622.0761,549.5712 612.8225,549.8289 603.5689,550.0756 594.3154,550.3113 585.0619,550.536 575.8085,550.7498 566.5552,550.9526 557.3019,551.1444 548.0486,551.3253 538.7953,551.4952 529.5422,551.6541 520.289,551.8021 511.0359,551.9391 501.7828,552.0651 492.5297,552.1802 483.2767,552.2843 474.0236,552.3775 464.7706,552.4597 455.5177,552.5309 446.2647,552.5912 437.0117,552.6405 427.7588,552.6789 418.5059,552.7063 409.2529,552.7227 400.0,552.7282 390.7471,552.7227 381.4941,552.7063 372.2412,552.6789 362.9883,552.6405 353.7353,552.5912 344.4823,552.5309 335.2294,552.4597 325.9764,552.3775 316.7233,552.2843 307.4703,552.1802 298.2172,552.0651 288.9641,551.9391 279.711,551.8021 270.4578,551.6541 261.2047,551.4952 251.9514,551.3253 242.6981,551.1444 233.4448,550.9526 224.1915,550.7498 214.9381,550.536 205.6846,550.3113 196.4311,550.0756 187.1775,549.8289 177.9239,549.5712 168.6702,549.3026 159.4164,549.023 150.1626,548.7324 140.9087,548.4308 131.6548,548.1183 122.4007,547.7948 113.1466,547.4602 103.8924,547.1147 94.6381,546.7582 85.3838,546.3907 76.1294,546.0123 66.8748,545.6228" stroke="silver" stroke-opacity="0.5" stroke-width="1" /><polyline fill="none" points="729.3748,458.3315 720.2247,458.7217 711.0746,459.1009 701.9246,459.4691 692.7747,459.8263 683.6249,460.1725 674.4751,460.5077 665.3253,460.8318 656.1756,461.145 647.026,461.4472 637.8764,461.7383 628.7269,462.0185 619.5775,462.2876 610.428,462.5458 601.2787,462.793 592.1293,463.0291 582.98,463.2543 573.8308,463.4685 564.6816,463.6717 555.5324,463.8639 546.3833,464.0451 537.2342,464.2154 528.0851,464.3746 518.936,464.5229 509.787,464.6601 500.638,464.7864 491.489,464.9017 482.3401,465.0061 473.1911,465.0994 464.0422,465.1818 454.8933,465.2531 445.7444,465.3135 436.5955,465.3629 427.4466,465.4014 418.2977,465.4288 409.1489,465.4453 400.0,465.4508 390.8511,465.4453 381.7023,465.4288 372.5534,465.4014 363.4045,465.3629 354.2556,465.3135 345.1067,465.2531 335.9578,465.1818 326.8089,465.0994 317.6599,465.0061 308.511,464.9017 299.362,464.7864 290.213,464.6601 281.064,464.5229 271.9149,464.3746 262.7658,464.2154 253.6167,464.0451 244.4676,463.8639 235.3184,463.6717 226.1692,463.4685 217.02,463.2543 207.8707,463.0291 198.7213,462.793 189.572,462.5458 180.4225,462.2876 171.2731,462.0185 162.1236,461.7383 152.974,461.4472 143.8244,461.145 134.6747,460.8318 125.5249,460.5077 116.3751,460.1725 107.2253,459.8263 98.0754,459.4691 88.9254,459.1009 79.7753,458.7217 70.6252,458.3315" stroke="silver" stroke-opacity="0.5" stroke-width="1" /><polyline fill="none" points="725.5752,371.0534 716.5308,371.4442 707.4865,371.8239 698.4422,372.1927 689.398,372.5504 680.3539,372.8971 671.3098,373.2328 662.2657,373.5574 653.2217,373.8711 644.1777,374.1737 635.1337,374.4653 626.0898,374.7459 617.0459,375.0154 608.0021,375.274 598.9583,375.5215 589.9145,375.758 580.8707,375.9836 571.827,376.1981 562.7833,376.4016 553.7397,376.5941 544.696,376.7756 535.6524,376.9461 526.6088,377.1056 517.5653,377.254 508.5217,377.3915 499.4782,377.518 490.4346,377.6335 481.3911,377.738 472.3476,377.8314 463.3042,377.9139 454.2607,377.9854 445.2172,378.0459 436.1738,378.0954 427.1303,378.1339 418.0869,378.1614 409.0434,378.1779 400.0,378.1833 390.9566,378.1779 381.9131,378.1614 372.8697,378.1339 363.8262,378.0954 354.7828,378.0459 345.7393,377.9854 336.6958,377.9139 327.6524,377.8314 318.6089,377.738 309.5654,377.6335 300.5218,377.518 291.4783,377.3915 282.4347,377.254 273.3912,377.1056 264.3476,376.9461 255.304,376.7756 246.2603,376.5941 237.2167,376.4016 228.173,376.1981 219.1293,375.9836 210.0855,375.758 201.0417,375.5215 191.9979,375.274 182.9541,375.0154 173.9102,374.7459 164.8663,374.4653 155.8223,374.1737 146.7783,373.8711 137.7343,373.5574 128.6902,373.2328 119.6461,372.8971 110.602,372.5504 101.5578,372.1927 92.5135,371.8239 83.4692,371.4442 74.4248,371.0534" stroke="silver" stroke-opacity="0.5" stroke-width="1" /><polyline fill="none" points="721.7257,283.7752 712.7885,284.1664 703.8513,284.5466 694.9142,284.9157 685.9771,285.2738 677.04,285.6208 668.1029,285.9569 659.1659,286.2819 650.2289,286.5958 641.2919,286.8987 632.355,287.1906 623.4181,287.4715 614.4811,287.7414 605.5443,288.0002 596.6074,288.248 587.6706,288.4848 578.7338,288.7105 569.7969,288.9252 560.8602,289.129 551.9234,289.3217 542.9866,289.5033 534.0499,289.674 525.1132,289.8337 516.1765,289.9823 507.2398,290.1199 498.3031,290.2465 489.3664,290.3621 480.4297,290.4667 471.4931,290.5603 462.5564,290.6429 453.6198,290.7144 444.6831,290.775 435.7465,290.8245 426.8099,290.8631 417.8733,290.8906 408.9366,290.9071 400.0,290.9126 391.0634,290.9071 382.1267,290.8906 373.1901,290.8631 364.2535,290.8245 355.3169,290.775 346.3802,290.7144 337.4436,290.6429 328.5069,290.5603 319.5703,290.4667 310.6336,290.3621 301.6969,290.2465 292.7602,290.1199 283.8235,289.9823 274.8868,289.8337 265.9501,289.674 257.0134,289.5033 248.0766,289.3217 239.1398,289.129 230.2031,288.9252 221.2662,288.7105 212.3294,288.4848 203.3926,288.248 194.4557,288.0002 185.5189,287.7414 176.5819,287.4715 167.645,287.1906 158.7081,286.8987 149.7711,286.5958 140.8341,286.2819 131.8971,285.9569 122.96,285.6208 114.0229,285.2738 105.0858,284.9157 96.1487,284.5466 87.2115,284.1664 78.2743,283.7752" stroke="silver" stroke-opacity="0.5" stroke-width="1" /><polyline fill="none" points="717.8258,196.4837 708.9971,196.8751 700.1685,197.2555 691.3398,197.6249 682.5112,197.9832 673.6826,198.3304 664.854,198.6666 656.0255,198.9918 647.1969,199.3059 638.3683,199.609 629.5398,199.9011 620.7113,200.1821 611.8827,200.4521 603.0542,200.7111 594.2257,200.959 585.3972,201.196 576.5687,201.4218 567.7402,201.6367 558.9118,201.8405 550.0833,202.0334 541.2548,202.2151 532.4264,202.3859 523.5979,202.5457 514.7695,202.6944 505.941,202.8321 497.1126,202.9588 488.2842,203.0744 479.4557,203.1791 470.6273,203.2727 461.7989,203.3553 452.9705,203.4269 444.1421,203.4875 435.3136,203.5371 426.4852,203.5757 417.6568,203.6032 408.8284,203.6197 400.0,203.6252 391.1716,203.6197 382.3432,203.6032 373.5148,203.5757 364.6864,203.5371 355.8579,203.4875 347.0295,203.4269 338.2011,203.3553 329.3727,203.2727 320.5443,203.1791 311.7158,203.0744 302.8874,202.9588 294.059,202.8321 285.2305,202.6944 276.4021,202.5457 267.5736,202.3859 258.7452,202.2151 249.9167,202.0334 241.0882,201.8405 232.2598,201.6367 223.4313,201.4218 214.6028,201.196 205.7743,200.959 196.9458,200.7111 188.1173,200.4521 179.2887,200.1821 170.4602,199.9011 161.6317,199.609 152.8031,199.3059 143.9745,198.9918 135.146,198.6666 126.3174,198.3304 117.4888,197.9832 108.6602,197.6249 99.8315,197.2555 91.0029,196.8751 82.1742,196.4837" stroke="silver" stroke-opacity="0.5" stroke-width="1" /><polyline fill="none" points="713.8748,109.1656 705.1561,109.5571 696.4374,109.9375 687.7187,110.3069 679.0,110.6652 670.2813,111.0125 661.5626,111.3488 652.8439,111.674 644.1252,111.9882 635.4064,112.2913 626.6877,112.5834 617.969,112.8645 609.2503,113.1345 600.5315,113.3935 591.8128,113.6414 583.094,113.8784 574.3753,114.1043 565.6565,114.3192 556.9378,114.523 548.219,114.7159 539.5003,114.8977 530.7815,115.0685 522.0628,115.2282 513.344,115.377 504.6252,115.5147 495.9065,115.6414 487.1877,115.7571 478.4689,115.8617 469.7502,115.9554 461.0314,116.038 452.3126,116.1096 443.5939,116.1702 434.8751,116.2198 426.1563,116.2584 417.4375,116.2859 408.7188,116.3024 400.0,116.3079 391.2812,116.3024 382.5625,116.2859 373.8437,116.2584 365.1249,116.2198 356.4061,116.1702 347.6874,116.1096 338.9686,116.038 330.2498,115.9554 321.5311,115.8617 312.8123,115.7571 304.0935,115.6414 295.3748,115.5147 286.656,115.377 277.9372,115.2282 269.2185,115.0685 260.4997,114.8977 251.781,114.7159 243.0622,114.523 234.3435,114.3192 225.6247,114.1043 216.906,113.8784 208.1872,113.6414 199.4685,113.3935 190.7497,113.1345 182.031,112.8645 173.3123,112.5834 164.5936,112.2913 155.8748,111.9882 147.1561,111.674 138.4374,111.3488 129.7187,111.0125 121.0,110.6652 112.2813,110.3069 103.5626,109.9375 94.8439,109.5571 86.1252,109.1656" stroke="silver" stroke-opacity="0.5" stroke-width="1" /><circle cx="722.5638" cy="413.9422" fill="black" r="0.738" stroke="none" /><circle cx="712.9585" cy="381.3002" fill="black" r="0.738" stroke="none" /><circle cx="704.108" cy="335.595" fill="black" r="0.738" stroke="none" /><circle cx="696.2593" cy="195.1466" fill="black" r="0.936" stroke="none" /><circle cx="680.4747" cy="136.76" fill="black" r="0.738" stroke="none" /><circle cx="678.9002" cy="113.3811" fill="black" r="0.738" stroke="none" /><circle cx="696.289" cy="676.3502" fill="black" r="0.738" stroke="none" /><circle cx="685.1308" cy="395.5272" fill="black" r="0.738" stroke="none" /><circle cx="675.1813" cy="255.7098" fill="black" r="0.738" stroke="none" /><circle cx="689.6048" cy="662.2488" fill="black" r="0.738" stroke="none" /><circle cx="684.247" cy="594.4126" fill="black" r="0.738" stroke="none" /><circle cx="678.059" cy="517.1866" fill="black" r="0.738" stroke="none" /><circle cx="668.1232" cy="282.6349" fill="black" r="0.738" stroke="none" /><circle cx="659.0504" cy="133.8317" fill="black" r="0.738" stroke="none" /><circle cx="673.9038" cy="548.1001" fill="black" r="0.738" stroke="none" /><circle cx="661.2391" cy="398.0599" fill="black" r="0.738" stroke="none" /><circle cx="654.1768" cy="440.8538" fill="black" r="0.738" stroke="none" /><circle cx="637.4937" cy="77.8522" fill="black" r="0.738" stroke="none" /><circle cx="641.1019" cy="186.4929" fill="black" r="0.738" stroke="none" /><circle cx="653.132" cy="577.378" fill="black" r="0.738" stroke="none" /><circle cx="649.6915" cy="643.3023" fill="black" r="0.738" stroke="none" /><circle cx="631.7877" cy="98.1614" fill="black" r="0.738" stroke="none" /><circle cx="631.7891" cy="249.6381" fill="black" r="0.738" stroke="none" /><circle cx="637.0929" cy="460.1029" fill="black" r="0.738" stroke="none" /><circle cx="626.7366" cy="220.6149" fill="black" r="0.738" stroke="none" /><circle cx="630.8465" cy="418.7138" fill="black" r="0.738" stroke="none" /><circle cx="624.7829" cy="303.8534" fill="black" r="0.738" stroke="none" /><circle cx="617.5728" cy="169.6055" fill="black" r="0.738" stroke="none" /><circle cx="628.432" cy="587.3081" fill="black" r="0.738" stroke="none" /><circle cx="629.8479" cy="705.1728" fill="black" r="0.738" stroke="none" /><circle cx="617.0767" cy="368.6383" fill="black" r="0.738" stroke="none" /><circle cx="612.6872" cy="509.8247" fill="black" r="0.738" stroke="none" /><circle cx="612.4782" cy="510.2672" fill="black" r="0.738" stroke="none" /><circle cx="614.6762" cy="620.9842" fill="black" r="1.17" stroke="none" /><circle cx="602.6228" cy="363.8942" fill="black" r="0.738" stroke="none" /><circle cx="604.1029" cy="672.7315" fill="black" r="0.738" stroke="none" /><circle cx="588.3747" cy="118.1062" fill="black" r="0.738" stroke="none" /><circle cx="586.2571" cy="96.6624" fill="black" r="0.738" stroke="none" /><circle cx="596.3132" cy="506.4154" fill="black" r="0.738" stroke="none" /><circle cx="582.5238" cy="343.2841" fill="black" r="0.738" stroke="none" /><circle cx="583.5303" cy="428.5737" fill="black" r="0.738" stroke="none" /><circle cx="583.9453" cy="601.1363" fill="black" r="0.738" stroke="none" /><circle cx="581.4787" cy="539.7903" fill="black" r="0.738" stroke="none" /><circle cx="573.7435" cy="259.7502" fill="black" r="0.738" stroke="none" /><circle cx="564.7458" cy="167.3767" fill="black" r="0.738" stroke="none" /><circle cx="576.499" cy="707.4627" fill="black" r="1.17" stroke="none" /><circle cx="567.9367" cy="409.2914" fill="black" r="0.738" stroke="none" /><circle cx="558.2044" cy="285.4326" fill="black" r="0.738" stroke="none" /><circle cx="566.1532" cy="692.7366" fill="black" r="0.738" stroke="none" /><circle cx="546.8351" cy="219.2192" fill="black" r="0.738" stroke="none" /><circle cx="543.643" cy="341.2639" fill="black" r="0.738" stroke="none" /><circle cx="547.0426" cy="533.3567" fill="black" r="0.738" stroke="none" /><circle cx="549.3199" cy="687.384" fill="black" r="0.738" stroke="none" /><circle cx="541.2194" cy="353.8823" fill="black" r="0.738" stroke="none" /><circle cx="530.2797" cy="132.9001" fill="black" r="0.738" stroke="none" /><circle cx="526.6275" cy="71.632" fill="black" r="0.738" stroke="none" /><circle cx="527.6902" cy="488.9993" fill="black" r="0.738" stroke="none" /><circle cx="522.0136" cy="176.3738" fill="black" r="0.936" stroke="none" /><circle cx="519.162" cy="145.4165" fill="black" r="0.738" stroke="none" /><circle cx="523.0651" cy="452.7599" fill="black" r="0.738" stroke="none" /><circle cx="522.1486" cy="418.7308" fill="black" r="0.738" stroke="none" /><circle cx="512.8367" cy="543.3573" fill="black" r="0.738" stroke="none" /><circle cx="513.7109" cy="672.4993" fill="black" r="0.936" stroke="none" /><circle cx="506.404" cy="233.822" fill="black" r="0.738" stroke="none" /><circle cx="505.351" cy="648.3313" fill="black" r="0.738" stroke="none" /><circle cx="500.6541" cy="443.925" fill="black" r="0.738" stroke="none" /><circle cx="501.3775" cy="549.364" fill="black" r="0.738" stroke="none" /><circle cx="490.4864" cy="220.6836" fill="black" r="0.936" stroke="none" /><circle cx="495.5492" cy="706.9771" fill="black" r="1.854" stroke="none" /><circle cx="494.5005" cy="656.0646" fill="black" r="0.738" stroke="none" /><circle cx="484.6447" cy="247.6448" fill="black" r="0.738" stroke="none" /><circle cx="486.1129" cy="404.4794" fill="black" r="0.738" stroke="none" /><circle cx="482.1989" cy="106.9085" fill="black" r="0.738" stroke="none" /><circle cx="479.8837" cy="147.8995" fill="black" r="0.936" stroke="none" /><circle cx="483.0523" cy="483.4149" fill="black" r="0.738" stroke="none" /><circle cx="471.8072" cy="643.1125" fill="black" r="0.738" stroke="none" /><circle cx="467.7095" cy="417.0612" fill="black" r="0.738" stroke="none" /><circle cx="466.1855" cy="352.23" fill="black" r="0.738" stroke="none" /><circle cx="464.5909" cy="310.4381" fill="black" r="0.738" stroke="none" /><circle cx="464.2958" cy="350.5012" fill="black" r="0.738" stroke="none" /><circle cx="442.2726" cy="94.1674" fill="black" r="0.738" stroke="none" /><circle cx="442.3018" cy="133.0341" fill="black" r="0.738" stroke="none" /><circle cx="443.1048" cy="388.0945" fill="black" r="0.738" stroke="none" /><circle cx="441.0064" cy="298.0409" fill="black" r="0.738" stroke="none" /><circle cx="440.0064" cy="234.241" fill="black" r="0.738" stroke="none" /><circle cx="439.5917" cy="301.1034" fill="black" r="0.738" stroke="none" /><circle cx="440.5445" cy="548.695" fill="black" r="0.738" stroke="none" /><circle cx="431.3658" cy="81.0356" fill="black" r="0.738" stroke="none" /><circle cx="431.3119" cy="608.7099" fill="black" r="0.738" stroke="none" /><circle cx="423.5662" cy="175.5607" fill="black" r="0.738" stroke="none" /><circle cx="415.7239" cy="223.7734" fill="black" r="0.738" stroke="none" /><circle cx="415.0727" cy="538.2243" fill="black" r="0.738" stroke="none" /><circle cx="411.9312" cy="561.5352" fill="black" r="0.738" stroke="none" /><circle cx="411.1583" cy="341.4351" fill="black" r="0.738" stroke="none" /><circle cx="407.9949" cy="626.4912" fill="black" r="0.738" stroke="none" /><circle cx="406.167" cy="399.2993" fill="black" r="0.738" stroke="none" /><circle cx="401.5032" cy="299.9019" fill="black" r="1.476" stroke="none" /><circle cx="400.0" cy="655.5718" fill="black" r="0.738" stroke="none" /><circle cx="399.9246" cy="699.064" fill="black" r="0.738" stroke="none" /><circle cx="396.6169" cy="675.9186" fill="black" r="0.738" stroke="none" /><circle cx="387.3118" cy="151.0531" fill="black" r="0.738" stroke="none" /><circle cx="386.8144" cy="347.8897" fill="black" r="0.738" stroke="none" /><circle cx="382.0487" cy="536.9089" fill="black" r="0.738" stroke="none" /><circle cx="381.0359" cy="297.9572" fill="black" r="0.738" stroke="none" /><circle cx="369.3493" cy="443.2224" fill="black" r="0.738" stroke="none" /><circle cx="367.4842" cy="723.1957" fill="black" r="0.738" stroke="none" /><circle cx="361.6021" cy="238.5272" fill="black" r="0.738" stroke="none" /><circle cx="360.7747" cy="133.0522" fill="black" r="0.738" stroke="none" /><circle cx="360.4601" cy="176.362" fill="black" r="0.738" stroke="none" /><circle cx="357.349" cy="423.0049" fill="black" r="0.738" stroke="none" /><circle cx="350.6655" cy="715.7736" fill="black" r="0.738" stroke="none" /><circle cx="347.7831" cy="513.1003" fill="black" r="0.936" stroke="none" /><circle cx="338.1743" cy="498.9769" fill="black" r="0.936" stroke="none" /><circle cx="339.9133" cy="226.418" fill="black" r="0.738" stroke="none" /><circle cx="334.8809" cy="386.8874" fill="black" r="0.738" stroke="none" /><circle cx="328.9555" cy="658.4893" fill="black" r="0.738" stroke="none" /><circle cx="332.1818" cy="75.8785" fill="black" r="0.738" stroke="none" /><circle cx="325.0129" cy="630.858" fill="black" r="0.738" stroke="none" /><circle cx="323.2264" cy="101.4679" fill="black" r="0.738" stroke="none" /><circle cx="318.911" cy="389.8728" fill="black" r="0.738" stroke="none" /><circle cx="311.3978" cy="699.8048" fill="black" r="0.936" stroke="none" /><circle cx="305.0353" cy="575.9851" fill="black" r="0.738" stroke="none" /><circle cx="306.6012" cy="80.1195" fill="black" r="0.936" stroke="none" /><circle cx="297.7409" cy="629.2454" fill="black" r="0.738" stroke="none" /><circle cx="299.1738" cy="84.9068" fill="black" r="0.936" stroke="none" /><circle cx="293.5467" cy="275.5528" fill="black" r="0.738" stroke="none" /><circle cx="289.0058" cy="287.7937" fill="black" r="0.738" stroke="none" /><circle cx="290.5453" cy="165.4021" fill="black" r="0.738" stroke="none" /><circle cx="287.3985" cy="262.5387" fill="black" r="0.738" stroke="none" /><circle cx="280.5391" cy="644.64" fill="black" r="0.936" stroke="none" /><circle cx="287.6957" cy="154.7016" fill="black" r="0.738" stroke="none" /><circle cx="277.1658" cy="704.1656" fill="black" r="0.738" stroke="none" /><circle cx="285.6573" cy="159.2102" fill="black" r="0.738" stroke="none" /><circle cx="280.1999" cy="468.263" fill="black" r="0.738" stroke="none" /><circle cx="281.5721" cy="354.2828" fill="black" r="0.738" stroke="none" /><circle cx="277.8066" cy="541.0335" fill="black" r="0.738" stroke="none" /><circle cx="281.428" cy="160.1879" fill="black" r="0.738" stroke="none" /><circle cx="272.7818" cy="404.418" fill="black" r="0.738" stroke="none" /><circle cx="268.263" cy="312.0663" fill="black" r="0.738" stroke="none" /><circle cx="263.6953" cy="144.0536" fill="black" r="1.17" stroke="none" /><circle cx="258.1394" cy="422.0515" fill="black" r="0.738" stroke="none" /><circle cx="253.2988" cy="216.1654" fill="black" r="0.738" stroke="none" /><circle cx="245.0064" cy="412.7129" fill="black" r="0.738" stroke="none" /><circle cx="238.6814" cy="559.1841" fill="black" r="0.738" stroke="none" /><circle cx="240.4019" cy="120.9282" fill="black" r="0.738" stroke="none" /><circle cx="237.0963" cy="104.1604" fill="black" r="1.17" stroke="none" /><circle cx="233.3497" cy="179.4747" fill="black" r="0.738" stroke="none" /><circle cx="227.3555" cy="373.9962" fill="black" r="0.738" stroke="none" /><circle cx="219.1148" cy="568.5387" fill="black" r="0.738" stroke="none" /><circle cx="223.998" cy="253.0577" fill="black" r="0.738" stroke="none" /><circle cx="212.8935" cy="530.8359" fill="black" r="1.17" stroke="none" /><circle cx="203.5795" cy="467.5484" fill="black" r="0.738" stroke="none" /><circle cx="198.537" cy="290.4731" fill="black" r="0.738" stroke="none" /><circle cx="182.1521" cy="660.7484" fill="black" r="0.738" stroke="none" /><circle cx="189.3223" cy="393.1034" fill="black" r="0.738" stroke="none" /><circle cx="195.6023" cy="130.8491" fill="black" r="0.738" stroke="none" /><circle cx="181.2457" cy="539.4438" fill="black" r="0.738" stroke="none" /><circle cx="190.5566" cy="184.971" fill="black" r="0.738" stroke="none" /><circle cx="180.6788" cy="478.8913" fill="black" r="0.738" stroke="none" /><circle cx="184.9665" cy="246.4031" fill="black" r="0.738" stroke="none" /><circle cx="172.8891" cy="650.8782" fill="black" r="0.738" stroke="none" /><circle cx="179.2466" cy="282.2241" fill="black" r="0.738" stroke="none" /><circle cx="162.8586" cy="552.7981" fill="black" r="0.738" stroke="none" /><circle cx="175.5112" cy="122.2722" fill="black" r="0.738" stroke="none" /><circle cx="157.6159" cy="674.6466" fill="black" r="0.738" stroke="none" /><circle cx="153.4765" cy="711.9436" fill="black" r="0.738" stroke="none" /><circle cx="152.1993" cy="699.2259" fill="black" r="0.738" stroke="none" /><circle cx="165.647" cy="210.755" fill="black" r="0.738" stroke="none" /><circle cx="156.7492" cy="326.4139" fill="black" r="0.738" stroke="none" /><circle cx="149.5673" cy="390.0418" fill="black" r="0.738" stroke="none" /><circle cx="148.7445" cy="405.9156" fill="black" r="0.738" stroke="none" /><circle cx="146.0083" cy="356.195" fill="black" r="0.738" stroke="none" /><circle cx="138.4162" cy="219.3315" fill="black" r="0.738" stroke="none" /><circle cx="139.7444" cy="169.9868" fill="black" r="0.738" stroke="none" /><circle cx="127.6867" cy="480.0734" fill="black" r="0.738" stroke="none" /><circle cx="116.4602" cy="690.9754" fill="black" r="0.738" stroke="none" /><circle cx="121.8234" cy="390.2832" fill="black" r="0.738" stroke="none" /><circle cx="112.6106" cy="638.1921" fill="black" r="0.738" stroke="none" /><circle cx="111.8872" cy="441.2996" fill="black" r="0.738" stroke="none" /><circle cx="108.5456" cy="471.3274" fill="black" r="0.738" stroke="none" /><circle cx="111.7544" cy="219.0004" fill="black" r="0.738" stroke="none" /><circle cx="102.2688" cy="208.2905" fill="black" r="0.738" stroke="none" /><circle cx="84.0312" cy="565.2244" fill="black" r="0.738" stroke="none" /><circle cx="93.8841" cy="319.7745" fill="black" r="0.738" stroke="none" /><circle cx="92.347" cy="267.8598" fill="black" r="0.738" stroke="none" /><circle cx="89.5316" cy="298.6064" fill="black" r="0.738" stroke="none" /><circle cx="84.9201" cy="304.0046" fill="black" r="0.738" stroke="none" /><circle cx="67.6263" cy="632.252" fill="black" r="0.738" stroke="none" /><circle cx="13.77" cy="786.23" fill="black" r="4.59" stroke="none" /><circle cx="13.77" cy="786.23" fill="black" r="4.59" stroke="none" /><text fill="black" font-family="monospace" font-size="12" x="10.77" y="775.64">1</text><circle cx="37.77" cy="786.23" fill="black" r="3.654" stroke="none" /><circle cx="37.77" cy="786.23" fill="black" r="3.654" stroke="none" /><text fill="black" font-family="monospace" font-size="12" x="34.769999999999996" y="775.64">2</text><circle cx="61.77" cy="786.23" fill="black" r="2.916" stroke="none" /><circle cx="61.77" cy="786.23" fill="black" r="2.916" stroke="none" /><text fill="black" font-family="monospace" font-size="12" x="58.769999999999996" y="775.64">3</text><circle cx="85.77" cy="786.23" fill="black" r="2.322" stroke="none" /><circle cx="85.77" cy="786.23" fill="black" r="2.322" stroke="none" /><text fill="black" font-family="monospace" font-size="12" x="82.77" y="775.64">4</text><circle cx="109.77" cy="786.23" fill="black" r="1.854" stroke="none" /><circle cx="109.77" cy="786.23" fill="black" r="1.854" stroke="none" /><text fill="black" font-family="monospace" font-size="12" x="106.77" y="775.64">5</text><circle cx="133.77" cy="786.23" fill="black" r="1.476" stroke="none" /><circle cx="133.77" cy="786.23" fill="black" r="1.476" stroke="none" /><text fill="black" font-family="monospace" font-size="12" x="130.77" y="775.64">6</text><circle cx="157.77" cy="786.23" fill="black" r="1.17" stroke="none" /><circle cx="157.77" cy="786.23" fill="black" r="1.17" stroke="none" /><text fill="black" font-family="monospace" font-size="12" x="154.77" y="775.64">7</text><circle cx="181.77" cy="786.23" fill="black" r="0.936" stroke="none" /><circle cx="181.77" cy="786.23" fill="black" r="0.936" stroke="none" /><text fill="black" font-family="monospace" font-size="12" x="178.77" y="775.64">8</text><circle cx="205.77" cy="786.23" fill="black" r="0.738" stroke="none" /><circle cx="205.77" cy="786.23" fill="black" r="0.738" stroke="none" /><text fill="black" font-family="monospace" font-size="12" x="202.77" y="775.64">9</text><text fill="gray" fill-opacity="0.5" font-family="monospace" font-size="12" x="740.4802374860824" y="720.298089532354">21h00m</text><text fill="gray" fill-opacity="0.5" font-family="monospace" font-size="12" x="645.8925947287294" y="723.6804466913314">21h05m</text><text fill="gray" fill-opacity="0.5" font-family="monospace" font-size="12" x="551.3144285213334" y="725.970622487934">21h10m</text><text fill="gray" fill-opacity="0.5" font-family="monospace" font-size="12" x="456.74210627641384" y="727.1698844301563">21h15m</text><text fill="gray" fill-opacity="0.5" font-family="monospace" font-size="12" x="362.1719779191907" y="727.2788961786075">21h20m</text><text fill="gray" fill-opacity="0.5" font-family="monospace" font-size="12" x="267.60038682466205" y="726.2977180567914">21h25m</text><text fill="gray" fill-opacity="0.5" font-family="monospace" font-size="12" x="173.02368073418927" y="724.2258070975004">21h30m</text><text fill="gray" fill-opacity="0.5" font-family="monospace" font-size="12" x="78.4382226857216" y="721.0620166253004">21h35m</text><text fill="gray" fill-opacity="0.5" font-family="monospace" font-size="12" x="59.519762513921535" y="720.298089532354">+30°</text><text fill="gray" fill-opacity="0.5" font-family="monospace" font-size="12" x="63.17318490240535" y="632.9405767426096">+31°</text><text fill="gray" fill-opacity="0.5" font-family="monospace" font-size="12" x="66.87482799348686" y="545.6227984718392">+32°</text><text fill="gray" fill-opacity="0.5" font-family="monospace" font-size="12" x="70.62520151171304" y="458.3314783766065">+33°</text><text fill="gray" fill-opacity="0.5" font-family="monospace" font-size="12" x="74.42484486387355" y="371.05335616926925">+34°</text><text fill="gray" fill-opacity="0.5" font-family="monospace" font-size="12" x="78.27432743866211" y="283.7751795705645">+35°</text><text fill="gray" fill-opacity="0.5" font-family="monospace" font-size="12" x="82.17424894509492" y="196.4836962725">+36°</text><text fill="gray" fill-opacity="0.5" font-family="monospace" font-size="12" x="86.12523979011269" y="109.16564590122829">+37°</text><text fill="black" font-family="monospace" font-size="12" x="12" y="48">&gt;&gt; No.627 21h00m 21h36m +30.0°+37.5°</text><a target="_self" xlink:href="hip039.svg"><text fill="black" font-family="monospace" font-size="12" x="12" y="36">&gt; No.39 21h00m 24h00m +22.5°+52.5°</text></a><a target="_self" xlink:href="hip002.svg"><text fill="black" font-family="monospace" font-size="12" x="12" y="24">No.2 00h 24h +0.0°+90.0°</text></a><polyline fill="none" points="711.8799,65.4925 703.2167,65.8839 694.5536,66.2643 685.8904,66.6336 677.2272,66.9919 668.564,67.3392 659.9007,67.6754 651.2375,68.0005 642.5742,68.3147 633.911,68.6178 625.2477,68.9098 616.5844,69.1908 607.9211,69.4608 599.2578,69.7198 590.5945,69.9677 581.9311,70.2046 573.2678,70.4305 564.6045,70.6454 555.9411,70.8492 547.2778,71.042 538.6144,71.2238 529.951,71.3946 521.2877,71.5543 512.6243,71.7031 503.9609,71.8408 495.2975,71.9675 486.6341,72.0831 477.9707,72.1878 469.3073,72.2814 460.6439,72.364 451.9805,72.4356 443.3171,72.4962 434.6537,72.5458 425.9902,72.5843 417.3268,72.6119 408.6634,72.6284 400.0,72.6339 391.3366,72.6284 382.6732,72.6119 374.0098,72.5843 365.3463,72.5458 356.6829,72.4962 348.0195,72.4356 339.3561,72.364 330.6927,72.2814 322.0293,72.1878 313.3659,72.0831 304.7025,71.9675 296.0391,71.8408 287.3757,71.7031 278.7123,71.5543 270.049,71.3946 261.3856,71.2238 252.7222,71.042 244.0589,70.8492 235.3955,70.6454 226.7322,70.4305 218.0689,70.2046 209.4055,69.9677 200.7422,69.7198 192.0789,69.4608 183.4156,69.1908 174.7523,68.9098 166.089,68.6178 157.4258,68.3147 148.7625,68.0005 140.0993,67.6754 131.436,67.3392 122.7728,66.9919 114.1096,66.6336 105.4464,66.2643 96.7833,65.8839 88.1201,65.4925" stroke="black" stroke-opacity="0.5" stroke-width="1" /><polyline fill="none" points="740.4802,720.2981 740.0262,709.3758 739.5714,698.4543 739.1158,687.5335 738.6595,676.6135 738.2025,665.6943 737.7447,654.7757 737.2861,643.8578 736.8268,632.9406 736.3668,622.024 735.9059,611.1079 735.4444,600.1925 734.9821,589.2776 734.519,578.3632 734.0551,567.4492 733.5905,556.5358 733.1252,545.6228 732.6591,534.7102 732.1922,523.798 731.7245,512.8862 731.2561,501.9747 730.7869,491.0635 730.317,480.1526 729.8463,469.2419 729.3748,458.3315 728.9025,447.4213 728.4295,436.5112 727.9557,425.6013 727.4812,414.6916 727.0058,403.7819 726.5297,392.8724 726.0528,381.9629 725.5752,371.0534 725.0967,360.1439 724.6175,349.2343 724.1375,338.3248 723.6567,327.4151 723.1751,316.5053 722.6927,305.5955 722.2096,294.6854 721.7257,283.7752 721.241,272.8647 720.7554,261.9541 720.2691,251.0431 719.7821,240.1319 719.2942,229.2204 718.8055,218.3085 718.316,207.3963 717.8258,196.4837 717.3347,185.5707 716.8428,174.6572 716.3501,163.7433 715.8567,152.8288 715.3624,141.9139 714.8673,130.9984 714.3714,120.0823 713.8748,109.1656 713.3773,98.2484 712.879,87.3304 712.3798,76.4118 711.8799,65.4925" stroke="black" stroke-opacity="0.5" stroke-width="1" /><polyline fill="none" points="740.4802,720.2981 731.0209,720.6855 721.5618,721.062 712.1027,721.4276 702.6438,721.7822 693.185,722.1259 683.7263,722.4587 674.2677,722.7805 664.8092,723.0914 655.3509,723.3914 645.8926,723.6804 636.4344,723.9586 626.9763,724.2258 617.5183,724.4821 608.0604,724.7275 598.6026,724.962 589.1448,725.1855 579.6871,725.3982 570.2295,725.5999 560.7719,725.7907 551.3144,725.9706 541.857,726.1396 532.3996,726.2977 522.9423,726.4449 513.485,726.5812 504.0278,726.7066 494.5706,726.821 485.1134,726.9246 475.6563,727.0173 466.1992,727.099 456.7421,727.1699 447.2851,727.2298 437.828,727.2789 428.371,727.317 418.914,727.3443 409.457,727.3607 400.0,727.3661 390.543,727.3607 381.086,727.3443 371.629,727.317 362.172,727.2789 352.7149,727.2298 343.2579,727.1699 333.8008,727.099 324.3437,727.0173 314.8866,726.9246 305.4294,726.821 295.9722,726.7066 286.515,726.5812 277.0577,726.4449 267.6004,726.2977 258.143,726.1396 248.6856,725.9706 239.2281,725.7907 229.7705,725.5999 220.3129,725.3982 210.8552,725.1855 201.3974,724.962 191.9396,724.7275 182.4817,724.4821 173.0237,724.2258 163.5656,723.9586 154.1074,723.6804 144.6491,723.3914 135.1908,723.0914 125.7323,722.7805 116.2737,722.4587 106.815,722.1259 97.3562,721.7822 87.8973,721.4276 78.4382,721.062 68.9791,720.6855 59.5198,720.2981" stroke="black" stroke-opacity="0.5" stroke-width="1" /><polyline fill="none" points="59.5198,720.2981 59.9738,709.3758 60.4286,698.4543 60.8842,687.5335 61.3405,676.6135 61.7975,665.6943 62.2553,654.7757 62.7139,643.8578 63.1732,632.9406 63.6332,622.024 64.0941,611.1079 64.5556,600.1925 65.0179,589.2776 65.481,578.3632 65.9449,567.4492 66.4095,556.5358 66.8748,545.6228 67.3409,534.7102 67.8078,523.798 68.2755,512.8862 68.7439,501.9747 69.2131,491.0635 69.683,480.1526 70.1537,469.2419 70.6252,458.3315 71.0975,447.4213 71.5705,436.5112 72.0443,425.6013 72.5188,414.6916 72.9942,403.7819 73.4703,392.8724 73.9472,381.9629 74.4248,371.0534 74.9033,360.1439 75.3825,349.2343 75.8625,338.3248 76.3433,327.4151 76.8249,316.5053 77.3073,305.5955 77.7904,294.6854 78.2743,283.7752 78.759,272.8647 79.2446,261.9541 79.7309,251.0431 80.2179,240.1319 80.7058,229.2204 81.1945,218.3085 81.684,207.3963 82.1742,196.4837 82.6653,185.5707 83.1572,174.6572 83.6499,163.7433 84.1433,152.8288 84.6376,141.9139 85.1327,130.9984 85.6286,120.0823 86.1252,109.1656 86.6227,98.2484 87.121,87.3304 87.6202,76.4118 88.1201,65.4925" stroke="black" stroke-opacity="0.5" stroke-width="1" /></svg>