<?xml version="1.0" encoding="utf-8" ?>
<svg baseProfile="tiny" height="800" version="1.2" width="800" xmlns="http://www.w3.org/2000/svg" xmlns:ev="http://www.w3.org/2001/xml-events" xmlns:xlink="http://www.w3.org/1999/xlink"><defs /><rect fill="none" height="800" stroke="black" stroke-width="2" width="800" x="0" y="0" /><polyline fill="none" points="746.4907,717.7638 745.8848,706.8486 745.2782,695.9342 744.6709,685.0206 744.0628,674.1077 743.454,663.1956 742.8445,652.2842 742.2342,641.3735 741.6231,630.4635 741.0113,619.5541 740.3988,608.6453 739.7855,597.7371 739.1715,586.8295 738.5567,575.9224 737.9411,565.0157 737.3248,554.1096 736.7077,543.204 736.0899,532.2987 735.4713,521.3939 734.852,510.4894 734.2319,499.5853 733.611,488.6816 732.9894,477.7781 732.367,466.8749 731.7438,455.9719 731.1199,445.0692 730.4951,434.1667 729.8697,423.2643 729.2434,412.3621 728.6164,401.46 727.9885,390.558 727.3599,379.656 726.7306,368.7541 726.1004,357.8523 725.4695,346.9504 724.8377,336.0484 724.2052,325.1465 723.5719,314.2444 722.9378,303.3422 722.303,292.4399 721.6673,281.5374 721.0308,270.6347 720.3936,259.7318 719.7555,248.8286 719.1167,237.9252 718.477,227.0215 717.8365,216.1175 717.1953,205.2131 716.5532,194.3083 715.9103,183.4032 715.2666,172.4976 714.6222,161.5916 713.9768,150.6851 713.3307,139.7781 712.6838,128.8706 712.036,117.9625 711.3875,107.0538 710.7381,96.1446 710.0879,85.2347 709.4368,74.3241 708.785,63.4129" stroke="silver" stroke-opacity="0.5" stroke-width="1" /><polyline fill="none" points="659.8831,721.966 659.4289,711.0488 658.9742,700.1325 658.5189,689.2169 658.063,678.302 657.6066,667.3879 657.1497,656.4744 656.6921,645.5616 656.2341,634.6495 655.7754,623.7379 655.3162,612.827 654.8564,601.9165 654.3961,591.0067 653.9352,580.0973 653.4737,569.1884 653.0117,558.2799 652.5491,547.3719 652.0859,536.4643 651.6221,525.557 651.1578,514.6501 650.6929,503.7436 650.2275,492.8373 649.7614,481.9313 649.2948,471.0255 648.8276,460.12 648.3598,449.2146 647.8915,438.3095 647.4225,427.4044 646.953,416.4995 646.4829,405.5947 646.0123,394.6899 645.541,383.7852 645.0691,372.8804 644.5967,361.9757 644.1237,351.0709 643.6501,340.1661 643.1759,329.2612 642.7011,318.3561 642.2257,307.4509 641.7497,296.5456 641.2731,285.64 640.7959,274.7342 640.3182,263.8282 639.8398,252.9219 639.3608,242.0153 638.8813,231.1084 638.4011,220.2011 637.9203,209.2935 637.4389,198.3854 636.9569,187.4769 636.4743,176.568 635.9911,165.6586 635.5073,154.7486 635.0229,143.8382 634.5379,132.9272 634.0522,122.0156 633.566,111.1034 633.0791,100.1905 632.5916,89.277 632.1035,78.3628 631.6148,67.4479" stroke="silver" stroke-opacity="0.5" stroke-width="1" /><polyline fill="none" points="573.2626,724.9664 572.9599,714.0479 572.6568,703.1302 572.3534,692.2132 572.0496,681.2969 571.7454,670.3813 571.4409,659.4663 571.1359,648.5521 570.8306,637.6384 570.525,626.7253 570.2189,615.8128 569.9125,604.9008 569.6057,593.9893 569.2985,583.0783 568.991,572.1678 568.683,561.2577 568.3747,550.348 568.066,539.4386 567.7569,528.5297 567.4475,517.621 567.1376,506.7127 566.8274,495.8047 566.5168,484.8968 566.2058,473.9893 565.8945,463.0819 565.5827,452.1747 565.2705,441.2676 564.958,430.3606 564.6451,419.4538 564.3318,408.547 564.0181,397.6403 563.704,386.7336 563.3895,375.8268 563.0746,364.9201 562.7594,354.0132 562.4437,343.1063 562.1277,332.1993 561.8112,321.2921 561.4944,310.3848 561.1771,299.4773 560.8595,288.5695 560.5415,277.6615 560.223,266.7533 559.9042,255.8448 559.585,244.9359 559.2653,234.0267 558.9453,223.1171 558.6249,212.2071 558.304,201.2967 557.9828,190.3859 557.6611,179.4745 557.3391,168.5627 557.0166,157.6503 556.6938,146.7374 556.3705,135.8239 556.0468,124.9098 555.7227,113.9951 555.3982,103.0797 555.0733,92.1636 554.748,81.2468 554.4222,70.3293" stroke="silver" stroke-opacity="0.5" stroke-width="1" /><polyline fill="none" points="486.6335,726.7662 486.4821,715.8469 486.3306,704.9283 486.1789,694.0105 486.0271,683.0933 485.875,672.1769 485.7228,661.2611 485.5703,650.3459 485.4177,639.4313 485.2649,628.5173 485.1119,617.6038 484.9587,606.6909 484.8053,595.7785 484.6518,584.8665 484.498,573.955 484.3441,563.0439 484.19,552.1332 484.0356,541.2228 483.8811,530.3129 483.7264,519.4032 483.5715,508.4938 483.4164,497.5847 483.2612,486.6758 483.1057,475.7671 482.95,464.8586 482.7942,453.9503 482.6381,443.0421 482.4819,432.134 482.3255,421.226 482.1688,410.318 482.012,399.4101 481.855,388.5022 481.6978,377.5943 481.5404,366.6863 481.3828,355.7782 481.225,344.8701 481.067,333.9618 480.9088,323.0533 480.7504,312.1447 480.5918,301.2359 480.433,290.3269 480.274,279.4176 480.1148,268.508 479.9554,257.5981 479.7958,246.6879 479.636,235.7773 479.476,224.8663 479.3158,213.955 479.1554,203.0431 478.9948,192.1309 478.834,181.2181 478.673,170.3048 478.5118,159.391 478.3504,148.4766 478.1888,137.5616 478.027,126.646 477.865,115.7298 477.7027,104.8128 477.5403,93.8952 477.3777,82.9769 477.2148,72.0578" stroke="silver" stroke-opacity="0.5" stroke-width="1" /><polyline fill="none" points="400.0,727.3661 400.0,716.4465 400.0,705.5276 400.0,694.6095 400.0,683.6921 400.0,672.7753 400.0,661.8592 400.0,650.9437 400.0,640.0289 400.0,629.1145 400.0,618.2008 400.0,607.2875 400.0,596.3748 400.0,585.4625 400.0,574.5506 400.0,563.6392 400.0,552.7282 400.0,541.8175 400.0,530.9072 400.0,519.9971 400.0,509.0874 400.0,498.1779 400.0,487.2687 400.0,476.3596 400.0,465.4508 400.0,454.5421 400.0,443.6335 400.0,432.725 400.0,421.8167 400.0,410.9083 400.0,400.0 400.0,389.0917 400.0,378.1833 400.0,367.275 400.0,356.3665 400.0,345.4579 400.0,334.5492 400.0,323.6404 400.0,312.7313 400.0,301.8221 400.0,290.9126 400.0,280.0029 400.0,269.0928 400.0,258.1825 400.0,247.2718 400.0,236.3608 400.0,225.4494 400.0,214.5375 400.0,203.6252 400.0,192.7125 400.0,181.7992 400.0,170.8855 400.0,159.9711 400.0,149.0563 400.0,138.1408 400.0,127.2247 400.0,116.3079 400.0,105.3905 400.0,94.4724 400.0,83.5535 400.0,72.6339" stroke="silver" stroke-opacity="0.5" stroke-width="1" /><polyline fill="none" points="313.3665,726.7662 313.5179,715.8469 313.6694,704.9283 313.8211,694.0105 313.9729,683.0933 314.125,672.1769 314.2772,661.2611 314.4297,650.3459 314.5823,639.4313 314.7351,628.5173 314.8881,617.6038 315.0413,606.6909 315.1947,595.7785 315.3482,584.8665 315.502,573.955 315.6559,563.0439 315.81,552.1332 315.9644,541.2228 316.1189,530.3129 316.2736,519.4032 316.4285,508.4938 316.5836,497.5847 316.7388,486.6758 316.8943,475.7671 317.05,464.8586 317.2058,453.9503 317.3619,443.0421 317.5181,432.134 317.6745,421.226 317.8312,410.318 317.988,399.4101 318.145,388.5022 318.3022,377.5943 318.4596,366.6863 318.6172,355.7782 318.775,344.8701 318.933,333.9618 319.0912,323.0533 319.2496,312.1447 319.4082,301.2359 319.567,290.3269 319.726,279.4176 319.8852,268.508 320.0446,257.5981 320.2042,246.6879 320.364,235.7773 320.524,224.8663 320.6842,213.955 320.8446,203.0431 321.0052,192.1309 321.166,181.2181 321.327,170.3048 321.4882,159.391 321.6496,148.4766 321.8112,137.5616 321.973,126.646 322.135,115.7298 322.2973,104.8128 322.4597,93.8952 322.6223,82.9769 322.7852,72.0578" stroke="silver" stroke-opacity="0.5" stroke-width="1" /><polyline fill="none" points="226.7374,724.9664 227.0401,714.0479 227.3432,703.1302 227.6466,692.2132 227.9504,681.2969 228.2546,670.3813 228.5591,659.4663 228.8641,648.5521 229.1694,637.6384 229.475,626.7253 229.7811,615.8128 230.0875,604.9008 230.3943,593.9893 230.7015,583.0783 231.009,572.1678 231.317,561.2577 231.6253,550.348 231.934,539.4386 232.2431,528.5297 232.5525,517.621 232.8624,506.7127 233.1726,495.8047 233.4832,484.8968 233.7942,473.9893 234.1055,463.0819 234.4173,452.1747 234.7295,441.2676 235.042,430.3606 235.3549,419.4538 235.6682,408.547 235.9819,397.6403 236.296,386.7336 236.6105,375.8268 236.9254,364.9201 237.2406,354.0132 237.5563,343.1063 237.8723,332.1993 238.1888,321.2921 238.5056,310.3848 238.8229,299.4773 239.1405,288.5695 239.4585,277.6615 239.777,266.7533 240.0958,255.8448 240.415,244.9359 240.7347,234.0267 241.0547,223.1171 241.3751,212.2071 241.696,201.2967 242.0172,190.3859 242.3389,179.4745 242.6609,168.5627 242.9834,157.6503 243.3062,146.7374 243.6295,135.8239 243.9532,124.9098 244.2773,113.9951 244.6018,103.0797 244.9267,92.1636 245.252,81.2468 245.5778,70.3293" stroke="silver" stroke-opacity="0.5" stroke-width="1" /><polyline fill="none" points="140.1169,721.966 140.5711,711.0488 141.0258,700.1325 141.4811,689.2169 141.937,678.302 142.3934,667.3879 142.8503,656.4744 143.3079,645.5616 143.7659,634.6495 144.2246,623.7379 144.6838,612.827 145.1436,601.9165 145.6039,591.0067 146.0648,580.0973 146.5263,569.1884 146.9883,558.2799 147.4509,547.3719 147.9141,536.4643 148.3779,525.557 148.8422,514.6501 149.3071,503.7436 149.7725,492.8373 150.2386,481.9313 150.7052,471.0255 151.1724,460.12 151.6402,449.2146 152.1085,438.3095 152.5775,427.4044 153.047,416.4995 153.5171,405.5947 153.9877,394.6899 154.459,383.7852 154.9309,372.8804 155.4033,361.9757 155.8763,351.0709 156.3499,340.1661 156.8241,329.2612 157.2989,318.3561 157.7743,307.4509 158.2503,296.5456 158.7269,285.64 159.2041,274.7342 159.6818,263.8282 160.1602,252.9219 160.6392,242.0153 161.1187,231.1084 161.5989,220.2011 162.0797,209.2935 162.5611,198.3854 163.0431,187.4769 163.5257,176.568 164.0089,165.6586 164.4927,154.7486 164.9771,143.8382 165.4621,132.9272 165.9478,122.0156 166.434,111.1034 166.9209,100.1905 167.4084,89.277 167.8965,78.3628 168.3852,67.4479" stroke="silver" stroke-opacity="0.5" stroke-width="1" /><polyline fill="none" points="53.5093,717.7638 54.1152,706.8486 54.7218,695.9342 55.3291,685.0206 55.9372,674.1077 56.546,663.1956 57.1555,652.2842 57.7658,641.3735 58.3769,630.4635 58.9887,619.5541 59.6012,608.6453 60.2145,597.7371 60.8285,586.8295 61.4433,575.9224 62.0589,565.0157 62.6752,554.1096 63.2923,543.204 63.9101,532.2987 64.5287,521.3939 65.148,510.4894 65.7681,499.5853 66.389,488.6816 67.0106,477.7781 67.633,466.8749 68.2562,455.9719 68.8801,445.0692 69.5049,434.1667 70.1303,423.2643 70.7566,412.3621 71.3836,401.46 72.0115,390.558 72.6401,379.656 73.2694,368.7541 73.8996,357.8523 74.5305,346.9504 75.1623,336.0484 75.7948,325.1465 76.4281,314.2444 77.0622,303.3422 77.697,292.4399 78.3327,281.5374 78.9692,270.6347 79.6064,259.7318 80.2445,248.8286 80.8833,237.9252 81.523,227.0215 82.1635,216.1175 82.8047,205.2131 83.4468,194.3083 84.0897,183.4032 84.7334,172.4976 85.3778,161.5916 86.0232,150.6851 86.6693,139.7781 87.3162,128.8706 87.964,117.9625 88.6125,107.0538 89.2619,96.1446 89.9121,85.2347 90.5632,74.3241 91.215,63.4129" stroke="silver" stroke-opacity="0.5" stroke-width="1" /><polyline fill="none" points="744.0628,674.1077 735.4636,674.5812 726.8642,675.0426 718.2646,675.492 709.6649,675.9295 701.0649,676.3549 692.4649,676.7683 683.8646,677.1697 675.2642,677.5592 666.6637,677.9366 658.063,678.302 649.4622,678.6555 640.8613,678.9969 632.2602,679.3264 623.659,679.6438 615.0577,679.9493 606.4563,680.2428 597.8548,680.5243 589.2532,680.7938 580.6514,681.0513 572.0496,681.2969 563.4477,681.5304 554.8457,681.752 546.2436,681.9616 537.6414,682.1592 529.0392,682.3448 520.4369,682.5185 511.8345,682.6802 503.2321,682.8299 494.6296,682.9676 486.0271,683.0933 477.4245,683.2071 468.8219,683.3089 460.2192,683.3987 451.6165,683.4765 443.0138,683.5424 434.4111,683.5963 425.8083,683.6382 417.2056,683.6681 408.6028,683.6861 400.0,683.6921 391.3972,683.6861 382.7944,683.6681 374.1917,683.6382 365.5889,683.5963 356.9862,683.5424 348.3835,683.4765 339.7808,683.3987 331.1781,683.3089 322.5755,683.2071 313.9729,683.0933 305.3704,682.9676 296.7679,682.8299 288.1655,682.6802 279.5631,682.5185 270.9608,682.3448 262.3586,682.1592 253.7564,681.9616 245.1543,681.752 236.5523,681.5304 227.9504,681.2969 219.3486,681.0513 210.7468,680.7938 202.1452,680.5243 193.5437,680.2428 184.9423,679.9493 176.341,679.6438 167.7398,679.3264 159.1387,678.9969 150.5378,678.6555 141.937,678.302 133.3363,677.9366 124.7358,677.5592 116.1354,677.1697 107.5351,676.7683 98.9351,676.3549 90.3351,675.9295 81.7354,675.492 73.1358,675.0426 64.5364,674.5812 55.9372,674.1077" stroke="silver" stroke-opacity="0.5" stroke-width="1" /><polyline fill="none" points="739.1715,586.8295 730.6947,587.301 722.2178,587.7605 713.7407,588.2081 705.2634,588.6438 696.786,589.0675 688.3083,589.4792 679.8305,589.879 671.3525,590.2668 662.8744,590.6427 654.3961,591.0067 645.9176,591.3587 637.439,591.6987 628.9603,592.0268 620.4814,592.343 612.0024,592.6472 603.5233,592.9395 595.0441,593.2199 586.5647,593.4883 578.0853,593.7448 569.6057,593.9893 561.126,594.2219 552.6463,594.4426 544.1664,594.6513 535.6865,594.8481 527.2064,595.033 518.7264,595.206 510.2462,595.367 501.766,595.5161 493.2857,595.6532 484.8053,595.7785 476.3249,595.8918 467.8445,595.9931 459.364,596.0826 450.8835,596.1601 442.403,596.2257 433.9224,596.2794 425.4418,596.3211 416.9612,596.3509 408.4806,596.3688 400.0,596.3748 391.5194,596.3688 383.0388,596.3509 374.5582,596.3211 366.0776,596.2794 357.597,596.2257 349.1165,596.1601 340.636,596.0826 332.1555,595.9931 323.6751,595.8918 315.1947,595.7785 306.7143,595.6532 298.234,595.5161 289.7538,595.367 281.2736,595.206 272.7936,595.033 264.3135,594.8481 255.8336,594.6513 247.3537,594.4426 238.874,594.2219 230.3943,593.9893 221.9147,593.7448 213.4353,593.4883 204.9559,593.2199 196.4767,592.9395 187.9976,592.6472 179.5186,592.343 171.0397,592.0268 162.561,591.6987 154.0824,591.3587 145.6039,591.0067 137.1256,590.6427 128.6475,590.2668 120.1695,589.879 111.6917,589.4792 103.214,589.0675 94.7366,588.6438 86.2593,588.2081 77.7822,587.7605 69.3053,587.301 60.8285,586.8295" stroke="silver" stroke-opacity="0.5" stroke-width="1" /><polyline fill="none" points="734.2319,499.5853 725.8789,500.0547 717.5257,500.5122 709.1722,500.9577 700.8186,501.3914 692.4648,501.8132 684.1108,502.223 675.7566,502.621 667.4022,503.0071 659.0476,503.3813 650.6929,503.7436 642.338,504.094 633.983,504.4325 625.6278,504.7591 617.2725,505.0739 608.917,505.3767 600.5614,505.6677 592.2056,505.9468 583.8497,506.214 575.4937,506.4693 567.1376,506.7127 558.7814,506.9443 550.4251,507.1639 542.0687,507.3717 533.7122,507.5677 525.3556,507.7517 516.9989,507.9239 508.6422,508.0842 500.2854,508.2326 491.9285,508.3691 483.5715,508.4938 475.2145,508.6066 466.8575,508.7075 458.5004,508.7965 450.1433,508.8737 441.7861,508.939 433.4289,508.9924 425.0717,509.034 416.7145,509.0637 408.3572,509.0815 400.0,509.0874 391.6428,509.0815 383.2855,509.0637 374.9283,509.034 366.5711,508.9924 358.2139,508.939 349.8567,508.8737 341.4996,508.7965 333.1425,508.7075 324.7855,508.6066 316.4285,508.4938 308.0715,508.3691 299.7146,508.2326 291.3578,508.0842 283.0011,507.9239 274.6444,507.7517 266.2878,507.5677 257.9313,507.3717 249.5749,507.1639 241.2186,506.9443 232.8624,506.7127 224.5063,506.4693 216.1503,506.214 207.7944,505.9468 199.4386,505.6677 191.083,505.3767 182.7275,505.0739 174.3722,504.7591 166.017,504.4325 157.662,504.094 149.3071,503.7436 140.9524,503.3813 132.5978,503.0071 124.2434,502.621 115.8892,502.223 107.5352,501.8132 99.1814,501.3914 90.8278,500.9577 82.4743,500.5122 74.1211,500.0547 65.7681,499.5853" stroke="silver" stroke-opacity="0.5" stroke-width="1" /><polyline fill="none" points="729.2434,412.3621 721.0153,412.8291 712.787,413.2843 704.5585,413.7276 696.3297,414.1591 688.1008,414.5788 679.8716,414.9866 671.6422,415.3826 663.4127,415.7667 655.183,416.139 646.953,416.4995 638.7229,416.8481 630.4927,417.185 622.2622,417.51 614.0316,417.8231 605.8009,418.1245 597.57,418.414 589.339,418.6917 581.1078,418.9575 572.8765,419.2116 564.6451,419.4538 556.4136,419.6842 548.1819,419.9028 539.9502,420.1095 531.7183,420.3045 523.4864,420.4876 515.2543,420.6589 507.0222,420.8184 498.79,420.9661 490.5578,421.1019 482.3255,421.226 474.0931,421.3382 465.8607,421.4386 457.6282,421.5272 449.3957,421.604 441.1631,421.669 432.9305,421.7221 424.6979,421.7635 416.4653,421.793 408.2326,421.8107 400.0,421.8167 391.7674,421.8107 383.5347,421.793 375.3021,421.7635 367.0695,421.7221 358.8369,421.669 350.6043,421.604 342.3718,421.5272 334.1393,421.4386 325.9069,421.3382 317.6745,421.226 309.4422,421.1019 301.21,420.9661 292.9778,420.8184 284.7457,420.6589 276.5136,420.4876 268.2817,420.3045 260.0498,420.1095 251.8181,419.9028 243.5864,419.6842 235.3549,419.4538 227.1235,419.2116 218.8922,418.9575 210.661,418.6917 202.43,418.414 194.1991,418.1245 185.9684,417.8231 177.7378,417.51 169.5073,417.185 161.2771,416.8481 153.047,416.4995 144.817,416.139 136.5873,415.7667 128.3578,415.3826 120.1284,414.9866 111.8992,414.5788 103.6703,414.1591 95.4415,413.7276 87.213,413.2843 78.9847,412.8291 70.7566,412.3621" stroke="silver" stroke-opacity="0.5" stroke-width="1" /><polyline fill="none" points="724.2052,325.1465 716.1033,325.6109 708.0012,326.0636 699.8988,326.5045 691.7961,326.9336 683.6933,327.351 675.5902,327.7565 667.4869,328.1503 659.3834,328.5324 651.2797,328.9026 643.1759,329.2612 635.0718,329.6079 626.9675,329.9429 618.8631,330.2661 610.7585,330.5775 602.6537,330.8772 594.5488,331.1652 586.4437,331.4413 578.3385,331.7057 570.2331,331.9584 562.1277,332.1993 554.0221,332.4284 545.9163,332.6458 537.8105,332.8514 529.7045,333.0453 521.5985,333.2274 513.4923,333.3978 505.3861,333.5564 497.2798,333.7033 489.1734,333.8384 481.067,333.9618 472.9604,334.0734 464.8539,334.1733 456.7472,334.2614 448.6406,334.3377 440.5339,334.4024 432.4271,334.4552 424.3204,334.4964 416.2136,334.5257 408.1068,334.5433 400.0,334.5492 391.8932,334.5433 383.7864,334.5257 375.6796,334.4964 367.5729,334.4552 359.4661,334.4024 351.3594,334.3377 343.2528,334.2614 335.1461,334.1733 327.0396,334.0734 318.933,333.9618 310.8266,333.8384 302.7202,333.7033 294.6139,333.5564 286.5077,333.3978 278.4015,333.2274 270.2955,333.0453 262.1895,332.8514 254.0837,332.6458 245.9779,332.4284 237.8723,332.1993 229.7669,331.9584 221.6615,331.7057 213.5563,331.4413 205.4512,331.1652 197.3463,330.8772 189.2415,330.5775 181.1369,330.2661 173.0325,329.9429 164.9282,329.6079 156.8241,329.2612 148.7203,328.9026 140.6166,328.5324 132.5131,328.1503 124.4098,327.7565 116.3067,327.351 108.2039,326.9336 100.1012,326.5045 91.9988,326.0636 83.8967,325.6109 75.7948,325.1465" stroke="silver" stroke-opacity="0.5" stroke-width="1" /><polyline fill="none" points="719.1167,237.9252 711.1422,238.3869 703.1674,238.8368 695.1924,239.2751 687.2172,239.7017 679.2417,240.1165 671.2659,240.5197 663.29,240.9111 655.3138,241.2909 647.3374,241.6589 639.3608,242.0153 631.384,242.36 623.407,242.6929 615.4299,243.0142 607.4525,243.3238 599.475,243.6217 591.4973,243.9079 583.5194,244.1824 575.5414,244.4453 567.5633,244.6964 559.585,244.9359 551.6065,245.1637 543.628,245.3798 535.6493,245.5842 527.6705,245.7769 519.6916,245.9579 511.7127,246.1273 503.7336,246.2849 495.7544,246.4309 487.7751,246.5652 479.7958,246.6879 471.8164,246.7988 463.837,246.8981 455.8575,246.9857 447.8779,247.0616 439.8983,247.1258 431.9187,247.1784 423.939,247.2193 415.9594,247.2485 407.9797,247.266 400.0,247.2718 392.0203,247.266 384.0406,247.2485 376.061,247.2193 368.0813,247.1784 360.1017,247.1258 352.1221,247.0616 344.1425,246.9857 336.163,246.8981 328.1836,246.7988 320.2042,246.6879 312.2249,246.5652 304.2456,246.4309 296.2664,246.2849 288.2873,246.1273 280.3084,245.9579 272.3295,245.7769 264.3507,245.5842 256.372,245.3798 248.3935,245.1637 240.415,244.9359 232.4367,244.6964 224.4586,244.4453 216.4806,244.1824 208.5027,243.9079 200.525,243.6217 192.5475,243.3238 184.5701,243.0142 176.593,242.6929 168.616,242.36 160.6392,242.0153 152.6626,241.6589 144.6862,241.2909 136.71,240.9111 128.7341,240.5197 120.7583,240.1165 112.7828,239.7017 104.8076,239.2751 96.8326,238.8368 88.8578,238.3869 80.8833,237.9252" stroke="silver" stroke-opacity="0.5" stroke-width="1" /><polyline fill="none" points="713.9768,150.6851 706.1311,151.1438 698.285,151.5908 690.4386,152.0262 682.592,152.45 674.7452,152.8622 666.8981,153.2627 659.0507,153.6516 651.2032,154.0289 643.3554,154.3946 635.5073,154.7486 627.6591,155.0911 619.8107,155.4219 611.962,155.7411 604.1132,156.0487 596.2642,156.3447 588.415,156.629 580.5656,156.9018 572.7161,157.1629 564.8665,157.4124 557.0166,157.6503 549.1667,157.8766 541.3166,158.0913 533.4664,158.2944 525.616,158.4859 517.7656,158.6657 509.915,158.834 502.0643,158.9907 494.2136,159.1357 486.3627,159.2691 478.5118,159.391 470.6609,159.5012 462.8098,159.5998 454.9587,159.6869 447.1076,159.7623 439.2564,159.8261 431.4051,159.8783 423.5539,159.9189 415.7026,159.9479 407.8513,159.9653 400.0,159.9711 392.1487,159.9653 384.2974,159.9479 376.4461,159.9189 368.5949,159.8783 360.7436,159.8261 352.8924,159.7623 345.0413,159.6869 337.1902,159.5998 329.3391,159.5012 321.4882,159.391 313.6373,159.2691 305.7864,159.1357 297.9357,158.9907 290.085,158.834 282.2344,158.6657 274.384,158.4859 266.5336,158.2944 258.6834,158.0913 250.8333,157.8766 242.9834,157.6503 235.1335,157.4124 227.2839,157.1629 219.4344,156.9018 211.585,156.629 203.7358,156.3447 195.8868,156.0487 188.038,155.7411 180.1893,155.4219 172.3409,155.0911 164.4927,154.7486 156.6446,154.3946 148.7968,154.0289 140.9493,153.6516 133.1019,153.2627 125.2548,152.8622 117.408,152.45 109.5614,152.0262 101.715,151.5908 93.8689,151.1438 86.0232,150.6851" stroke="silver" stroke-opacity="0.5" stroke-width="1" /><polyline fill="none" points="708.785,63.4129 701.0692,63.8683 693.3531,64.3122 685.6367,64.7446 677.9201,65.1654 670.2031,65.5747 662.4859,65.9724 654.7685,66.3586 647.0508,66.7332 639.3329,67.0964 631.6148,67.4479 623.8964,67.788 616.1778,68.1165 608.459,68.4334 600.74,68.7389 593.0208,69.0328 585.3014,69.3151 577.5819,69.586 569.8621,69.8453 562.1423,70.093 554.4222,70.3293 546.702,70.554 538.9817,70.7672 531.2612,70.9689 523.5406,71.159 515.8199,71.3376 508.0991,71.5047 500.3781,71.6603 492.6571,71.8043 484.936,71.9368 477.2148,72.0578 469.4935,72.1672 461.7722,72.2652 454.0508,72.3516 446.3294,72.4265 438.6079,72.4899 430.8863,72.5417 423.1648,72.582 415.4432,72.6109 407.7216,72.6281 400.0,72.6339 392.2784,72.6281 384.5568,72.6109 376.8352,72.582 369.1137,72.5417 361.3921,72.4899 353.6706,72.4265 345.9492,72.3516 338.2278,72.2652 330.5065,72.1672 322.7852,72.0578 315.064,71.9368 307.3429,71.8043 299.6219,71.6603 291.9009,71.5047 284.1801,71.3376 276.4594,71.159 268.7388,70.9689 261.0183,70.7672 253.298,70.554 245.5778,70.3293 237.8577,70.093 230.1379,69.8453 222.4181,69.586 214.6986,69.3151 206.9792,69.0328 199.26,68.7389 191.541,68.4334 183.8222,68.1165 176.1036,67.788 168.3852,67.4479 160.6671,67.0964 152.9492,66.7332 145.2315,66.3586 137.5141,65.9724 129.7969,65.5747 122.0799,65.1654 114.3633,64.7446 106.6469,64.3122 98.9308,63.8683 91.215,63.4129" stroke="silver" stroke-opacity="0.5" stroke-width="1" /><circle cx="737.3361" cy="606.3655" fill="black" r="0.738" stroke="none" /><circle cx="718.9663" cy="306.3721" fill="black" r="0.738" stroke="none" /><circle cx="728.8904" cy="569.2832" fill="black" r="0.738" stroke="none" /><circle cx="728.3921" cy="701.3158" fill="black" r="0.738" stroke="none" /><circle cx="707.9579" cy="325.2786" fill="black" r="0.738" stroke="none" /><circle cx="727.8393" cy="701.345" fill="black" r="0.738" stroke="none" /><circle cx="722.5701" cy="612.2463" fill="black" r="0.738" stroke="none" /><circle cx="717.5321" cy="540.6713" fill="black" r="0.738" stroke="none" /><circle cx="701.5779" cy="256.425" fill="black" r="0.738" stroke="none" /><circle cx="709.6535" cy="405.4065" fill="black" r="0.738" stroke="none" /><circle cx="699.4471" cy="235.1927" fill="black" r="0.738" stroke="none" /><circle cx="696.7031" cy="200.4292" fill="black" r="0.738" stroke="none" /><circle cx="696.274" cy="219.2667" fill="black" r="0.738" stroke="none" /><circle cx="708.5247" cy="474.7485" fill="black" r="0.738" stroke="none" /><circle cx="708.2632" cy="474.8498" fill="black" r="0.738" stroke="none" /><circle cx="706.2335" cy="498.5749" fill="black" r="0.738" stroke="none" /><circle cx="696.9242" cy="342.7578" fill="black" r="0.738" stroke="none" /><circle cx="685.9229" cy="141.8566" fill="black" r="0.738" stroke="none" /><circle cx="710.5868" cy="611.5594" fill="black" r="0.738" stroke="none" /><circle cx="699.3403" cy="426.335" fill="black" r="0.738" stroke="none" /><circle cx="699.9517" cy="558.6424" fill="black" r="0.738" stroke="none" /><circle cx="696.0359" cy="642.2094" fill="black" r="0.738" stroke="none" /><circle cx="697.1007" cy="692.9123" fill="black" r="0.738" stroke="none" /><circle cx="691.7316" cy="597.0122" fill="black" r="0.738" stroke="none" /><circle cx="682.8471" cy="487.1559" fill="black" r="0.738" stroke="none" /><circle cx="675.364" cy="373.7609" fill="black" r="0.738" stroke="none" /><circle cx="680.5766" cy="585.4712" fill="black" r="0.738" stroke="none" /><circle cx="680.0525" cy="648.0361" fill="black" r="0.738" stroke="none" /><circle cx="679.8105" cy="648.747" fill="black" r="0.738" stroke="none" /><circle cx="651.8771" cy="141.7503" fill="black" r="0.738" stroke="none" /><circle cx="651.2345" cy="140.1188" fill="black" r="0.738" stroke="none" /><circle cx="664.9179" cy="445.6827" fill="black" r="0.738" stroke="none" /><circle cx="660.3306" cy="364.5062" fill="black" r="0.738" stroke="none" /><circle cx="672.9108" cy="660.2551" fill="black" r="0.738" stroke="none" /><circle cx="654.4753" cy="283.9977" fill="black" r="0.738" stroke="none" /><circle cx="666.7794" cy="648.8911" fill="black" r="0.738" stroke="none" /><circle cx="651.6656" cy="311.5769" fill="black" r="0.738" stroke="none" /><circle cx="656.4332" cy="560.8442" fill="black" r="0.738" stroke="none" /><circle cx="653.5128" cy="636.687" fill="black" r="0.936" stroke="none" /><circle cx="644.8123" cy="432.8474" fill="black" r="0.738" stroke="none" /><circle cx="647.4819" cy="552.0429" fill="black" r="0.738" stroke="none" /><circle cx="645.1304" cy="560.5319" fill="black" r="0.738" stroke="none" /><circle cx="649.4289" cy="701.8351" fill="black" r="0.738" stroke="none" /><circle cx="635.3441" cy="392.519" fill="black" r="0.738" stroke="none" /><circle cx="638.8026" cy="504.4135" fill="black" r="0.738" stroke="none" /><circle cx="633.5568" cy="498.7689" fill="black" r="0.738" stroke="none" /><circle cx="630.0542" cy="583.3319" fill="black" r="0.738" stroke="none" /><circle cx="628.505" cy="663.553" fill="black" r="0.738" stroke="none" /><circle cx="622.2029" cy="605.9147" fill="black" r="0.738" stroke="none" /><circle cx="594.7943" cy="155.6995" fill="black" r="0.738" stroke="none" /><circle cx="591.5236" cy="162.6362" fill="black" r="0.738" stroke="none" /><circle cx="587.1415" cy="105.0989" fill="black" r="0.738" stroke="none" /><circle cx="593.0553" cy="297.5841" fill="black" r="0.738" stroke="none" /><circle cx="590.7765" cy="278.3562" fill="black" r="0.738" stroke="none" /><circle cx="599.1547" cy="527.4688" fill="black" r="0.738" stroke="none" /><circle cx="602.2757" cy="683.0037" fill="black" r="0.738" stroke="none" /><circle cx="599.8008" cy="668.3113" fill="black" r="0.738" stroke="none" /><circle cx="600.579" cy="668.9853" fill="black" r="0.738" stroke="none" /><circle cx="587.6186" cy="523.7402" fill="black" r="0.738" stroke="none" /><circle cx="575.5369" cy="256.2388" fill="black" r="0.738" stroke="none" /><circle cx="574.4026" cy="311.7414" fill="black" r="0.738" stroke="none" /><circle cx="570.0344" cy="221.6445" fill="black" r="0.738" stroke="none" /><circle cx="571.4541" cy="469.2084" fill="black" r="0.738" stroke="none" /><circle cx="567.7181" cy="376.2243" fill="black" r="0.738" stroke="none" /><circle cx="564.2272" cy="284.8894" fill="black" r="0.738" stroke="none" /><circle cx="571.9771" cy="581.954" fill="black" r="0.738" stroke="none" /><circle cx="553.6361" cy="162.4674" fill="black" r="0.738" stroke="none" /><circle cx="547.9597" cy="103.9948" fill="black" r="0.738" stroke="none" /><circle cx="551.9544" cy="398.2366" fill="black" r="0.738" stroke="none" /><circle cx="545.1255" cy="236.8683" fill="black" r="0.738" stroke="none" /><circle cx="547.8432" cy="389.0894" fill="black" r="0.738" stroke="none" /><circle cx="545.1739" cy="321.5756" fill="black" r="0.738" stroke="none" /><circle cx="547.3831" cy="424.7257" fill="black" r="0.738" stroke="none" /><circle cx="548.6778" cy="530.7864" fill="black" r="0.738" stroke="none" /><circle cx="541.4026" cy="336.3417" fill="black" r="0.738" stroke="none" /><circle cx="545.7703" cy="610.5098" fill="black" r="0.738" stroke="none" /><circle cx="542.2421" cy="605.1782" fill="black" r="0.738" stroke="none" /><circle cx="540.1929" cy="622.4334" fill="black" r="0.738" stroke="none" /><circle cx="536.5822" cy="478.6881" fill="black" r="0.738" stroke="none" /><circle cx="535.1009" cy="651.2005" fill="black" r="0.738" stroke="none" /><circle cx="533.6831" cy="686.9643" fill="black" r="0.738" stroke="none" /><circle cx="527.33" cy="531.1093" fill="black" r="0.738" stroke="none" /><circle cx="523.9908" cy="484.3822" fill="black" r="0.738" stroke="none" /><circle cx="516.6026" cy="444.9876" fill="black" r="0.738" stroke="none" /><circle cx="511.9435" cy="260.5294" fill="black" r="0.738" stroke="none" /><circle cx="514.7218" cy="704.8188" fill="black" r="0.738" stroke="none" /><circle cx="512.7311" cy="615.8435" fill="black" r="0.738" stroke="none" /><circle cx="512.5171" cy="618.9915" fill="black" r="0.738" stroke="none" /><circle cx="504.0191" cy="175.46" fill="black" r="0.738" stroke="none" /><circle cx="499.7403" cy="213.267" fill="black" r="0.936" stroke="none" /><circle cx="503.257" cy="434.9412" fill="black" r="0.738" stroke="none" /><circle cx="495.0734" cy="85.6537" fill="black" r="0.738" stroke="none" /><circle cx="502.8176" cy="581.6144" fill="black" r="0.738" stroke="none" /><circle cx="491.2948" cy="324.7261" fill="black" r="0.936" stroke="none" /><circle cx="489.3453" cy="221.7439" fill="black" r="0.738" stroke="none" /><circle cx="492.5435" cy="479.6402" fill="black" r="0.738" stroke="none" /><circle cx="479.7215" cy="395.1659" fill="black" r="0.738" stroke="none" /><circle cx="481.7367" cy="629.9629" fill="black" r="0.738" stroke="none" /><circle cx="474.2431" cy="299.0552" fill="black" r="0.738" stroke="none" /><circle cx="472.2927" cy="159.3919" fill="black" r="0.738" stroke="none" /><circle cx="471.3139" cy="147.3534" fill="black" r="0.738" stroke="none" /><circle cx="470.871" cy="302.5035" fill="black" r="0.738" stroke="none" /><circle cx="468.3504" cy="190.0942" fill="black" r="0.738" stroke="none" /><circle cx="465.838" cy="248.7075" fill="black" r="0.738" stroke="none" /><circle cx="466.9934" cy="604.9084" fill="black" r="0.936" stroke="none" /><circle cx="466.7597" cy="722.1173" fill="black" r="0.738" stroke="none" /><circle cx="462.0757" cy="424.71" fill="black" r="0.738" stroke="none" /><circle cx="456.5292" cy="604.928" fill="black" r="0.738" stroke="none" /><circle cx="453.5919" cy="535.2908" fill="black" r="0.738" stroke="none" /><circle cx="449.4992" cy="187.4201" fill="black" r="0.738" stroke="none" /><circle cx="451.2011" cy="477.0075" fill="black" r="1.17" stroke="none" /><circle cx="449.4917" cy="349.9525" fill="black" r="0.738" stroke="none" /><circle cx="452.1945" cy="711.3361" fill="black" r="0.738" stroke="none" /><circle cx="446.2563" cy="457.3247" fill="black" r="0.738" stroke="none" /><circle cx="444.928" cy="662.9175" fill="black" r="0.738" stroke="none" /><circle cx="443.3825" cy="544.365" fill="black" r="0.936" stroke="none" /><circle cx="440.3321" cy="271.3886" fill="black" r="0.936" stroke="none" /><circle cx="438.305" cy="81.665" fill="black" r="0.738" stroke="none" /><circle cx="439.7271" cy="602.006" fill="black" r="0.738" stroke="none" /><circle cx="437.4898" cy="464.7189" fill="black" r="0.738" stroke="none" /><circle cx="438.0409" cy="680.6928" fill="black" r="1.476" stroke="none" /><circle cx="431.1468" cy="445.1204" fill="black" r="1.17" stroke="none" /><circle cx="429.7646" cy="498.3642" fill="black" r="0.738" stroke="none" /><circle cx="429.1328" cy="519.0524" fill="black" r="0.738" stroke="none" /><circle cx="424.2089" cy="543.3393" fill="black" r="0.738" stroke="none" /><circle cx="422.2552" cy="489.2336" fill="black" r="0.738" stroke="none" /><circle cx="419.4681" cy="659.2086" fill="black" r="0.738" stroke="none" /><circle cx="417.6387" cy="595.9998" fill="black" r="0.936" stroke="none" /><circle cx="414.9181" cy="83.3574" fill="black" r="0.738" stroke="none" /><circle cx="414.6944" cy="669.6139" fill="black" r="0.738" stroke="none" /><circle cx="414.5287" cy="572.438" fill="black" r="0.738" stroke="none" /><circle cx="410.7369" cy="387.6853" fill="black" r="0.738" stroke="none" /><circle cx="410.4897" cy="431.581" fill="black" r="0.738" stroke="none" /><circle cx="409.4481" cy="247.3509" fill="black" r="0.738" stroke="none" /><circle cx="407.8324" cy="619.7673" fill="black" r="0.738" stroke="none" /><circle cx="406.7762" cy="203.9702" fill="black" r="0.738" stroke="none" /><circle cx="406.096" cy="654.3463" fill="black" r="0.738" stroke="none" /><circle cx="403.082" cy="653.7373" fill="black" r="0.738" stroke="none" /><circle cx="401.5009" cy="369.2819" fill="black" r="0.738" stroke="none" /><circle cx="400.3361" cy="541.3811" fill="black" r="0.738" stroke="none" /><circle cx="395.7508" cy="561.1936" fill="black" r="0.936" stroke="none" /><circle cx="392.6965" cy="172.714" fill="black" r="0.936" stroke="none" /><circle cx="392.2715" cy="390.0464" fill="black" r="0.738" stroke="none" /><circle cx="389.6157" cy="236.1763" fill="black" r="0.738" stroke="none" /><circle cx="388.495" cy="284.6166" fill="black" r="0.738" stroke="none" /><circle cx="386.2168" cy="661.3198" fill="black" r="0.738" stroke="none" /><circle cx="385.0144" cy="106.8538" fill="black" r="0.738" stroke="none" /><circle cx="380.9444" cy="593.5511" fill="black" r="0.738" stroke="none" /><circle cx="380.524" cy="195.8201" fill="black" r="0.738" stroke="none" /><circle cx="378.7509" cy="543.0888" fill="black" r="0.738" stroke="none" /><circle cx="374.1274" cy="523.9553" fill="black" r="0.738" stroke="none" /><circle cx="371.5278" cy="724.4184" fill="black" r="0.738" stroke="none" /><circle cx="373.055" cy="313.9751" fill="black" r="0.738" stroke="none" /><circle cx="374.098" cy="88.8175" fill="black" r="0.738" stroke="none" /><circle cx="366.2812" cy="410.198" fill="black" r="0.936" stroke="none" /><circle cx="365.5474" cy="422.935" fill="black" r="0.738" stroke="none" /><circle cx="366.3143" cy="143.1856" fill="black" r="0.738" stroke="none" /><circle cx="362.9024" cy="486.54" fill="black" r="2.322" stroke="none" /><circle cx="355.4846" cy="672.2652" fill="black" r="0.738" stroke="none" /><circle cx="354.6238" cy="446.5097" fill="black" r="0.738" stroke="none" /><circle cx="354.6398" cy="419.3683" fill="black" r="0.936" stroke="none" /><circle cx="353.323" cy="248.4687" fill="black" r="0.936" stroke="none" /><circle cx="349.9484" cy="577.7463" fill="black" r="0.936" stroke="none" /><circle cx="351.4152" cy="247.5791" fill="black" r="0.738" stroke="none" /><circle cx="347.5411" cy="432.486" fill="black" r="0.738" stroke="none" /><circle cx="345.3998" cy="442.5899" fill="black" r="0.738" stroke="none" /><circle cx="341.6021" cy="601.4178" fill="black" r="0.738" stroke="none" /><circle cx="334.8788" cy="684.8339" fill="black" r="0.738" stroke="none" /><circle cx="337.587" cy="353.8386" fill="black" r="0.738" stroke="none" /><circle cx="334.1874" cy="640.2854" fill="black" r="0.738" stroke="none" /><circle cx="333.0681" cy="642.6311" fill="black" r="0.738" stroke="none" /><circle cx="331.8815" cy="548.6722" fill="black" r="0.738" stroke="none" /><circle cx="332.416" cy="479.0226" fill="black" r="0.738" stroke="none" /><circle cx="336.4886" cy="98.3657" fill="black" r="0.738" stroke="none" /><circle cx="329.8136" cy="640.2367" fill="black" r="0.738" stroke="none" /><circle cx="331.2545" cy="307.942" fill="black" r="0.738" stroke="none" /><circle cx="325.5731" cy="720.3707" fill="black" r="0.738" stroke="none" /><circle cx="324.7903" cy="598.9617" fill="black" r="0.738" stroke="none" /><circle cx="324.8391" cy="377.5975" fill="black" r="0.738" stroke="none" /><circle cx="319.7546" cy="495.0975" fill="black" r="0.936" stroke="none" /><circle cx="316.5641" cy="522.5499" fill="black" r="0.738" stroke="none" /><circle cx="315.0854" cy="318.2802" fill="black" r="0.738" stroke="none" /><circle cx="312.8271" cy="281.0586" fill="black" r="0.738" stroke="none" /><circle cx="311.6756" cy="341.7078" fill="black" r="0.738" stroke="none" /><circle cx="308.1918" cy="526.4414" fill="black" r="0.738" stroke="none" /><circle cx="311.5393" cy="187.3549" fill="black" r="0.738" stroke="none" /><circle cx="311.0782" cy="162.0217" fill="black" r="0.738" stroke="none" /><circle cx="301.6552" cy="540.3919" fill="black" r="0.738" stroke="none" /><circle cx="303.0276" cy="391.5813" fill="black" r="0.738" stroke="none" /><circle cx="299.2507" cy="473.1319" fill="black" r="0.936" stroke="none" /><circle cx="295.1758" cy="607.5145" fill="black" r="0.738" stroke="none" /><circle cx="295.8876" cy="387.7888" fill="black" r="0.738" stroke="none" /><circle cx="288.1271" cy="477.7302" fill="black" r="0.738" stroke="none" /><circle cx="286.7083" cy="552.0" fill="black" r="0.738" stroke="none" /><circle cx="285.9106" cy="554.9534" fill="black" r="0.738" stroke="none" /><circle cx="288.4715" cy="151.8998" fill="black" r="0.738" stroke="none" /><circle cx="277.809" cy="605.442" fill="black" r="0.738" stroke="none" /><circle cx="284.7296" cy="233.2171" fill="black" r="0.738" stroke="none" /><circle cx="282.7681" cy="253.3461" fill="black" r="0.738" stroke="none" /><circle cx="270.534" cy="643.8971" fill="black" r="1.17" stroke="none" /><circle cx="279.1402" cy="241.0421" fill="black" r="0.738" stroke="none" /><circle cx="276.6532" cy="330.1335" fill="black" r="0.738" stroke="none" /><circle cx="257.7367" cy="565.9626" fill="black" r="0.738" stroke="none" /><circle cx="262.1462" cy="331.9772" fill="black" r="0.738" stroke="none" /><circle cx="265.2997" cy="199.9305" fill="black" r="0.738" stroke="none" /><circle cx="258.918" cy="428.6383" fill="black" r="0.738" stroke="none" /><circle cx="252.9113" cy="578.1605" fill="black" r="0.738" stroke="none" /><circle cx="253.322" cy="553.1926" fill="black" r="0.738" stroke="none" /><circle cx="252.1426" cy="508.8009" fill="black" r="0.738" stroke="none" /><circle cx="240.2108" cy="724.1889" fill="black" r="0.738" stroke="none" /><circle cx="252.9458" cy="111.6237" fill="black" r="0.738" stroke="none" /><circle cx="239.2372" cy="598.4246" fill="black" r="0.738" stroke="none" /><circle cx="247.1927" cy="304.7796" fill="black" r="0.738" stroke="none" /><circle cx="237.6524" cy="599.2557" fill="black" r="0.738" stroke="none" /><circle cx="233.0655" cy="670.4262" fill="black" r="0.738" stroke="none" /><circle cx="232.8665" cy="670.1586" fill="black" r="0.738" stroke="none" /><circle cx="235.8932" cy="537.3659" fill="black" r="0.738" stroke="none" /><circle cx="246.1747" cy="115.1873" fill="black" r="0.738" stroke="none" /><circle cx="228.097" cy="448.4971" fill="black" r="0.738" stroke="none" /><circle cx="233.3019" cy="204.2757" fill="black" r="0.738" stroke="none" /><circle cx="234.6768" cy="129.8702" fill="black" r="0.738" stroke="none" /><circle cx="216.5871" cy="468.9311" fill="black" r="0.738" stroke="none" /><circle cx="216.5874" cy="431.2867" fill="black" r="0.738" stroke="none" /><circle cx="208.624" cy="511.3025" fill="black" r="0.738" stroke="none" /><circle cx="213.1809" cy="313.6092" fill="black" r="0.738" stroke="none" /><circle cx="214.0006" cy="146.9249" fill="black" r="0.738" stroke="none" /><circle cx="205.2625" cy="238.0262" fill="black" r="0.738" stroke="none" /><circle cx="197.1874" cy="391.5869" fill="black" r="0.738" stroke="none" /><circle cx="191.9401" cy="396.9013" fill="black" r="0.738" stroke="none" /><circle cx="185.0471" cy="568.8597" fill="black" r="0.738" stroke="none" /><circle cx="202.5247" cy="70.7012" fill="black" r="0.738" stroke="none" /><circle cx="191.1791" cy="339.5619" fill="black" r="0.738" stroke="none" /><circle cx="195.2187" cy="226.7336" fill="black" r="0.936" stroke="none" /><circle cx="180.2897" cy="516.6048" fill="black" r="0.738" stroke="none" /><circle cx="183.8385" cy="395.726" fill="black" r="0.738" stroke="none" /><circle cx="182.8643" cy="390.272" fill="black" r="0.738" stroke="none" /><circle cx="166.043" cy="628.2882" fill="black" r="0.738" stroke="none" /><circle cx="166.8214" cy="606.2883" fill="black" r="0.738" stroke="none" /><circle cx="175.3523" cy="349.8727" fill="black" r="0.936" stroke="none" /><circle cx="185.3003" cy="83.2235" fill="black" r="0.738" stroke="none" /><circle cx="163.4008" cy="618.919" fill="black" r="0.738" stroke="none" /><circle cx="173.6362" cy="211.0146" fill="black" r="0.738" stroke="none" /><circle cx="152.0811" cy="691.7494" fill="black" r="0.738" stroke="none" /><circle cx="164.0743" cy="329.8341" fill="black" r="0.738" stroke="none" /><circle cx="159.9897" cy="408.2298" fill="black" r="0.936" stroke="none" /><circle cx="162.3383" cy="118.8795" fill="black" r="0.738" stroke="none" /><circle cx="151.5361" cy="338.6437" fill="black" r="0.936" stroke="none" /><circle cx="124.5199" cy="710.4474" fill="black" r="0.738" stroke="none" /><circle cx="122.5839" cy="572.9369" fill="black" r="0.738" stroke="none" /><circle cx="129.1318" cy="411.5723" fill="black" r="0.738" stroke="none" /><circle cx="124.6165" cy="460.7569" fill="black" r="0.738" stroke="none" /><circle cx="139.4692" cy="73.8616" fill="black" r="0.738" stroke="none" /><circle cx="108.5177" cy="593.2628" fill="black" r="0.738" stroke="none" /><circle cx="107.498" cy="546.0668" fill="black" r="0.738" stroke="none" /><circle cx="101.4137" cy="667.8992" fill="black" r="0.738" stroke="none" /><circle cx="122.5687" cy="240.9963" fill="black" r="0.738" stroke="none" /><circle cx="102.1872" cy="647.7231" fill="black" r="0.936" stroke="none" /><circle cx="114.8695" cy="380.3608" fill="black" r="0.738" stroke="none" /><circle cx="107.9" cy="518.7983" fill="black" r="0.738" stroke="none" /><circle cx="118.8317" cy="279.028" fill="black" r="0.738" stroke="none" /><circle cx="104.7029" cy="400.5688" fill="black" r="0.738" stroke="none" /><circle cx="112.3945" cy="253.1532" fill="black" r="0.738" stroke="none" /><circle cx="106.0236" cy="311.5997" fill="black" r="0.738" stroke="none" /><circle cx="93.4621" cy="540.7237" fill="black" r="0.738" stroke="none" /><circle cx="114.8382" cy="123.1668" fill="black" r="0.936" stroke="none" /><circle cx="103.8794" cy="320.2332" fill="black" r="0.738" stroke="none" /><circle cx="81.7395" cy="619.9129" fill="black" r="0.936" stroke="none" /><circle cx="103.9169" cy="201.8635" fill="black" r="0.738" stroke="none" /><circle cx="65.5713" cy="641.7179" fill="black" r="0.738" stroke="none" /><circle cx="84.3526" cy="303.8492" fill="black" r="0.738" stroke="none" /><circle cx="76.0087" cy="449.4104" fill="black" r="0.936" stroke="none" /><circle cx="61.2737" cy="608.0387" fill="black" r="0.738" stroke="none" /><circle cx="13.77" cy="786.23" fill="black" r="4.59" stroke="none" /><circle cx="13.77" cy="786.23" fill="black" r="4.59" stroke="none" /><text fill="black" font-family="monospace" font-size="12" x="10.77" y="775.64">1</text><circle cx="37.77" cy="786.23" fill="black" r="3.654" stroke="none" /><circle cx="37.77" cy="786.23" fill="black" r="3.654" stroke="none" /><text fill="black" font-family="monospace" font-size="12" x="34.769999999999996" y="775.64">2</text><circle cx="61.77" cy="786.23" fill="black" r="2.916" stroke="none" /><circle cx="61.77" cy="786.23" fill="black" r="2.916" stroke="none" /><text fill="black" font-family="monospace" font-size="12" x="58.769999999999996" y="775.64">3</text><circle cx="85.77" cy="786.23" fill="black" r="2.322" stroke="none" /><circle cx="85.77" cy="786.23" fill="black" r="2.322" stroke="none" /><text fill="black" font-family="monospace" font-size="12" x="82.77" y="775.64">4</text><circle cx="109.77" cy="786.23" fill="black" r="1.854" stroke="none" /><circle cx="109.77" cy="786.23" fill="black" r="1.854" stroke="none" /><text fill="black" font-family="monospace" font-size="12" x="106.77" y="775.64">5</text><circle cx="133.77" cy="786.23" fill="black" r="1.476" stroke="none" /><circle cx="133.77" cy="786.23" fill="black" r="1.476" stroke="none" /><text fill="black" font-family="monospace" font-size="12" x="130.77" y="775.64">6</text><circle cx="157.77" cy="786.23" fill="black" r="1.17" stroke="none" /><circle cx="157.77" cy="786.23" fill="black" r="1.17" stroke="none" /><text fill="black" font-family="monospace" font-size="12" x="154.77" y="775.64">7</text><circle cx="181.77" cy="786.23" fill="black" r="0.936" stroke="none" /><circle cx="181.77" cy="786.23" fill="black" r="0.936" stroke="none" /><text fill="black" font-family="monospace" font-size="12" x="178.77" y="775.64">8</text><circle cx="205.77" cy="786.23" fill="black" r="0.738" stroke="none" /><circle cx="205.77" cy="786.23" fill="black" r="0.738" stroke="none" /><text fill="black" font-family="monospace" font-size="12" x="202.77" y="775.64">9</text><text fill="gray" fill-opacity="0.5" font-family="monospace" font-size="12" x="746.4906560766287" y="717.7637923365488">20h00m</text><text fill="gray" fill-opacity="0.5" font-family="monospace" font-size="12" x="659.8831181527873" y="721.9659899238145">20h05m</text><text fill="gray" fill-opacity="0.5" font-family="monospace" font-size="12" x="573.2625992011291" y="724.9664299301626">20h10m</text><text fill="gray" fill-opacity="0.5" font-family="monospace" font-size="12" x="486.6334525716068" y="726.7662420630436">20h15m</text><text fill="gray" fill-opacity="0.5" font-family="monospace" font-size="12" x="400.0" y="727.366104129726">20h20m</text><text fill="gray" fill-opacity="0.5" font-family="monospace" font-size="12" x="313.3665474283967" y="726.7662420630436">20h25m</text><text fill="gray" fill-opacity="0.5" font-family="monospace" font-size="12" x="226.73740079887088" y="724.9664299301626">20h30m</text><text fill="gray" fill-opacity="0.5" font-family="monospace" font-size="12" x="140.11688184721612" y="721.965989923815">20h35m</text><text fill="gray" fill-opacity="0.5" font-family="monospace" font-size="12" x="53.50934392337126" y="717.7637923365488">20h40m</text><text fill="gray" fill-opacity="0.5" font-family="monospace" font-size="12" x="55.93716262080238" y="674.1077170278902">+38°</text><text fill="gray" fill-opacity="0.5" font-family="monospace" font-size="12" x="60.82853164903014" y="586.8294616965443">+39°</text><text fill="gray" fill-opacity="0.5" font-family="monospace" font-size="12" x="65.76811154241227" y="499.5853364640557">+40°</text><text fill="gray" fill-opacity="0.5" font-family="monospace" font-size="12" x="70.75661047360762" y="412.3620824125624">+41°</text><text fill="gray" fill-opacity="0.5" font-family="monospace" font-size="12" x="75.79476639634504" y="325.1464532891482">+42°</text><text fill="gray" fill-opacity="0.5" font-family="monospace" font-size="12" x="80.88334747514847" y="237.92520747030412">+43°</text><text fill="gray" fill-opacity="0.5" font-family="monospace" font-size="12" x="86.02315255410434" y="150.6850999323498">+44°</text><text fill="gray" fill-opacity="0.5" font-family="monospace" font-size="12" x="91.21501166528111" y="63.412874217489616">+45°</text><text fill="black" font-family="monospace" font-size="12" x="12" y="48">&gt;&gt; No.662 20h00m 20h40m +37.5°+45.0°</text><a target="_self" xlink:href="hip038.svg"><text fill="black" font-family="monospace" font-size="12" x="12" y="36">&gt; No.38 18h00m 21h00m +22.5°+52.5°</text></a><a target="_self" xlink:href="hip002.svg"><text fill="black" font-family="monospace" font-size="12" x="12" y="24">No.2 00h 24h +0.0°+90.0°</text></a><polyline fill="none" points="708.785,63.4129 701.0692,63.8683 693.3531,64.3122 685.6367,64.7446 677.9201,65.1654 670.2031,65.5747 662.4859,65.9724 654.7685,66.3586 647.0508,66.7332 639.3329,67.0964 631.6148,67.4479 623.8964,67.788 616.1778,68.1165 608.459,68.4334 600.74,68.7389 593.0208,69.0328 585.3014,69.3151 577.5819,69.586 569.8621,69.8453 562.1423,70.093 554.4222,70.3293 546.702,70.554 538.9817,70.7672 531.2612,70.9689 523.5406,71.159 515.8199,71.3376 508.0991,71.5047 500.3781,71.6603 492.6571,71.8043 484.936,71.9368 477.2148,72.0578 469.4935,72.1672 461.7722,72.2652 454.0508,72.3516 446.3294,72.4265 438.6079,72.4899 430.8863,72.5417 423.1648,72.582 415.4432,72.6109 407.7216,72.6281 400.0,72.6339 392.2784,72.6281 384.5568,72.6109 376.8352,72.582 369.1137,72.5417 361.3921,72.4899 353.6706,72.4265 345.9492,72.3516 338.2278,72.2652 330.5065,72.1672 322.7852,72.0578 315.064,71.9368 307.3429,71.8043 299.6219,71.6603 291.9009,71.5047 284.1801,71.3376 276.4594,71.159 268.7388,70.9689 261.0183,70.7672 253.298,70.554 245.5778,70.3293 237.8577,70.093 230.1379,69.8453 222.4181,69.586 214.6986,69.3151 206.9792,69.0328 199.26,68.7389 191.541,68.4334 183.8222,68.1165 176.1036,67.788 168.3852,67.4479 160.6671,67.0964 152.9492,66.7332 145.2315,66.3586 137.5141,65.9724 129.7969,65.5747 122.0799,65.1654 114.3633,64.7446 106.6469,64.3122 98.9308,63.8683 91.215,63.4129" stroke="black" stroke-opacity="0.5" stroke-width="1" /><polyline fill="none" points="746.4907,717.7638 745.8848,706.8486 745.2782,695.9342 744.6709,685.0206 744.0628,674.1077 743.454,663.1956 742.8445,652.2842 742.2342,641.3735 741.6231,630.4635 741.0113,619.5541 740.3988,608.6453 739.7855,597.7371 739.1715,586.8295 738.5567,575.9224 737.9411,565.0157 737.3248,554.1096 736.7077,543.204 736.0899,532.2987 735.4713,521.3939 734.852,510.4894 734.2319,499.5853 733.611,488.6816 732.9894,477.7781 732.367,466.8749 731.7438,455.9719 731.1199,445.0692 730.4951,434.1667 729.8697,423.2643 729.2434,412.3621 728.6164,401.46 727.9885,390.558 727.3599,379.656 726.7306,368.7541 726.1004,357.8523 725.4695,346.9504 724.8377,336.0484 724.2052,325.1465 723.5719,314.2444 722.9378,303.3422 722.303,292.4399 721.6673,281.5374 721.0308,270.6347 720.3936,259.7318 719.7555,248.8286 719.1167,237.9252 718.477,227.0215 717.8365,216.1175 717.1953,205.2131 716.5532,194.3083 715.9103,183.4032 715.2666,172.4976 714.6222,161.5916 713.9768,150.6851 713.3307,139.7781 712.6838,128.8706 712.036,117.9625 711.3875,107.0538 710.7381,96.1446 710.0879,85.2347 709.4368,74.3241 708.785,63.4129" stroke="black" stroke-opacity="0.5" stroke-width="1" /><polyline fill="none" points="746.4907,717.7638 737.8306,718.2381 729.1704,718.7004 720.51,719.1507 711.8495,719.589 703.1888,720.0152 694.5279,720.4294 685.8669,720.8316 677.2058,721.2217 668.5445,721.5999 659.8831,721.966 651.2216,722.3201 642.5599,722.6622 633.8981,722.9922 625.2362,723.3103 616.5742,723.6163 607.9121,723.9104 599.2499,724.1924 590.5875,724.4624 581.9251,724.7204 573.2626,724.9664 564.6,725.2004 555.9373,725.4224 547.2746,725.6324 538.6117,725.8304 529.9488,726.0164 521.2859,726.1903 512.6228,726.3523 503.9598,726.5023 495.2966,726.6403 486.6335,726.7662 477.9702,726.8802 469.307,726.9822 460.6437,727.0722 451.9803,727.1502 443.317,727.2161 434.6536,727.2701 425.9902,727.3121 417.3268,727.3421 408.6634,727.3601 400.0,727.3661 391.3366,727.3601 382.6732,727.3421 374.0098,727.3121 365.3464,727.2701 356.683,727.2161 348.0197,727.1502 339.3563,727.0722 330.693,726.9822 322.0298,726.8802 313.3665,726.7662 304.7034,726.6403 296.0402,726.5023 287.3772,726.3523 278.7141,726.1903 270.0512,726.0164 261.3883,725.8304 252.7254,725.6324 244.0627,725.4224 235.4,725.2004 226.7374,724.9664 218.0749,724.7204 209.4125,724.4624 200.7501,724.1924 192.0879,723.9104 183.4258,723.6163 174.7638,723.3103 166.1019,722.9922 157.4401,722.6622 148.7784,722.3201 140.1169,721.966 131.4555,721.5999 122.7942,721.2217 114.1331,720.8316 105.4721,720.4294 96.8112,720.0152 88.1505,719.589 79.49,719.1507 70.8296,718.7004 62.1694,718.2381 53.5093,717.7638" stroke="black" stroke-opacity="0.5" stroke-width="1" /><polyline fill="none" points="53.5093,717.7638 54.1152,706.8486 54.7218,695.9342 55.3291,685.0206 55.9372,674.1077 56.546,663.1956 57.1555,652.2842 57.7658,641.3735 58.3769,630.4635 58.9887,619.5541 59.6012,608.6453 60.2145,597.7371 60.8285,586.8295 61.4433,575.9224 62.0589,565.0157 62.6752,554.1096 63.2923,543.204 63.9101,532.2987 64.5287,521.3939 65.148,510.4894 65.7681,499.5853 66.389,488.6816 67.0106,477.7781 67.633,466.8749 68.2562,455.9719 68.8801,445.0692 69.5049,434.1667 70.1303,423.2643 70.7566,412.3621 71.3836,401.46 72.0115,390.558 72.6401,379.656 73.2694,368.7541 73.8996,357.8523 74.5305,346.9504 75.1623,336.0484 75.7948,325.1465 76.4281,314.2444 77.0622,303.3422 77.697,292.4399 78.3327,281.5374 78.9692,270.6347 79.6064,259.7318 80.2445,248.8286 80.8833,237.9252 81.523,227.0215 82.1635,216.1175 82.8047,205.2131 83.4468,194.3083 84.0897,183.4032 84.7334,172.4976 85.3778,161.5916 86.0232,150.6851 86.6693,139.7781 87.3162,128.8706 87.964,117.9625 88.6125,107.0538 89.2619,96.1446 89.9121,85.2347 90.5632,74.3241 91.215,63.4129" stroke="black" stroke-opacity="0.5" stroke-width="1" /></svg>