<?xml version="1.0" encoding="utf-8" ?>
<svg baseProfile="tiny" height="800" version="1.2" width="800" xmlns="http://www.w3.org/2000/svg" xmlns:ev="http://www.w3.org/2001/xml-events" xmlns:xlink="http://www.w3.org/1999/xlink"><defs /><rect fill="none" height="800" stroke="black" stroke-width="2" width="800" x="0" y="0" /><polyline fill="none" points="713.8958,696.1173 712.6859,685.6945 711.4753,675.2726 710.2642,664.8515 709.0525,654.4312 707.8402,644.0116 706.6273,633.5928 705.4139,623.1747 704.1999,612.7572 702.9853,602.3405 701.7701,591.9243 700.5543,581.5088 699.3379,571.0939 698.1209,560.6795 696.9033,550.2657 695.685,539.8523 694.4662,529.4395 693.2468,519.0271 692.0268,508.6152 690.8061,498.2036 689.5848,487.7925 688.3629,477.3817 687.1404,466.9713 685.9172,456.5611 684.6934,446.1513 683.469,435.7417 682.244,425.3324 681.0183,414.9233 679.7919,404.5144 678.5649,394.1056 677.3373,383.697 676.109,373.2885 674.8801,362.88 673.6505,352.4717 672.4202,342.0634 671.1893,331.6551 669.9577,321.2468 668.7255,310.8385 667.4925,300.4301 666.2589,290.0216 665.0246,279.613 663.7897,269.2043 662.554,258.7955 661.3177,248.3864 660.0807,237.9772 658.843,227.5677 657.6046,217.158 656.3654,206.748 655.1256,196.3376 653.8851,185.927 652.6439,175.516 651.402,165.1046 650.1593,154.6928 648.9159,144.2806 647.6719,133.868 646.4271,123.4548 645.1815,113.0412 643.9353,102.627 642.6883,92.2123 641.4405,81.797 640.192,71.3811" stroke="silver" stroke-opacity="0.5" stroke-width="1" /><polyline fill="none" points="557.173,709.7313 556.5675,699.2635 555.9618,688.7964 555.3558,678.3301 554.7495,667.8644 554.1429,657.3995 553.536,646.9352 552.9289,636.4715 552.3214,626.0084 551.7136,615.5459 551.1055,605.0839 550.4972,594.6225 549.8885,584.1616 549.2795,573.7011 548.6702,563.2412 548.0606,552.7816 547.4507,542.3224 546.8405,531.8636 546.23,521.4052 545.6192,510.9471 545.008,500.4893 544.3966,490.0318 543.7848,479.5745 543.1727,469.1175 542.5603,458.6606 541.9475,448.2039 541.3345,437.7474 540.7211,427.2911 540.1074,416.8348 539.4934,406.3786 538.879,395.9224 538.2643,385.4663 537.6493,375.0102 537.0339,364.5541 536.4182,354.0979 535.8022,343.6416 535.1859,333.1853 534.5692,322.7288 533.9521,312.2722 533.3347,301.8155 532.717,291.3585 532.099,280.9013 531.4805,270.4439 530.8618,259.9861 530.2427,249.5281 529.6232,239.0698 529.0034,228.6112 528.3832,218.1521 527.7627,207.6927 527.1419,197.2329 526.5206,186.7726 525.899,176.3118 525.2771,165.8506 524.6548,155.3888 524.0321,144.9265 523.4091,134.4636 522.7856,124.0001 522.1619,113.536 521.5377,103.0713 520.9132,92.6059 520.2883,82.1398" stroke="silver" stroke-opacity="0.5" stroke-width="1" /><polyline fill="none" points="400.0,714.2715 400.0,703.7886 400.0,693.3065 400.0,682.8251 400.0,672.3444 400.0,661.8643 400.0,651.3848 400.0,640.906 400.0,630.4277 400.0,619.95 400.0,609.4727 400.0,598.996 400.0,588.5198 400.0,578.044 400.0,567.5686 400.0,557.0937 400.0,546.6191 400.0,536.1448 400.0,525.6709 400.0,515.1973 400.0,504.7239 400.0,494.2508 400.0,483.7779 400.0,473.3053 400.0,462.8328 400.0,452.3604 400.0,441.8882 400.0,431.416 400.0,420.944 400.0,410.472 400.0,400.0 400.0,389.528 400.0,379.056 400.0,368.584 400.0,358.1118 400.0,347.6396 400.0,337.1672 400.0,326.6947 400.0,316.2221 400.0,305.7492 400.0,295.2761 400.0,284.8027 400.0,274.3291 400.0,263.8552 400.0,253.3809 400.0,242.9063 400.0,232.4314 400.0,221.956 400.0,211.4802 400.0,201.004 400.0,190.5273 400.0,180.05 400.0,169.5723 400.0,159.094 400.0,148.6152 400.0,138.1357 400.0,127.6556 400.0,117.1749 400.0,106.6935 400.0,96.2114 400.0,85.7285" stroke="silver" stroke-opacity="0.5" stroke-width="1" /><polyline fill="none" points="242.827,709.7313 243.4325,699.2635 244.0382,688.7964 244.6442,678.3301 245.2505,667.8644 245.8571,657.3995 246.464,646.9352 247.0711,636.4715 247.6786,626.0084 248.2864,615.5459 248.8945,605.0839 249.5028,594.6225 250.1115,584.1616 250.7205,573.7011 251.3298,563.2412 251.9394,552.7816 252.5493,542.3224 253.1595,531.8636 253.77,521.4052 254.3808,510.9471 254.992,500.4893 255.6034,490.0318 256.2152,479.5745 256.8273,469.1175 257.4397,458.6606 258.0525,448.2039 258.6655,437.7474 259.2789,427.2911 259.8926,416.8348 260.5066,406.3786 261.121,395.9224 261.7357,385.4663 262.3507,375.0102 262.9661,364.5541 263.5818,354.0979 264.1978,343.6416 264.8141,333.1853 265.4308,322.7288 266.0479,312.2722 266.6653,301.8155 267.283,291.3585 267.901,280.9013 268.5195,270.4439 269.1382,259.9861 269.7573,249.5281 270.3768,239.0698 270.9966,228.6112 271.6168,218.1521 272.2373,207.6927 272.8581,197.2329 273.4794,186.7726 274.101,176.3118 274.7229,165.8506 275.3452,155.3888 275.9679,144.9265 276.5909,134.4636 277.2144,124.0001 277.8381,113.536 278.4623,103.0713 279.0868,92.6059 279.7117,82.1398" stroke="silver" stroke-opacity="0.5" stroke-width="1" /><polyline fill="none" points="86.1042,696.1173 87.3141,685.6945 88.5247,675.2726 89.7358,664.8515 90.9475,654.4312 92.1598,644.0116 93.3727,633.5928 94.5861,623.1747 95.8001,612.7572 97.0147,602.3405 98.2299,591.9243 99.4457,581.5088 100.6621,571.0939 101.8791,560.6795 103.0967,550.2657 104.315,539.8523 105.5338,529.4395 106.7532,519.0271 107.9732,508.6152 109.1939,498.2036 110.4152,487.7925 111.6371,477.3817 112.8596,466.9713 114.0828,456.5611 115.3066,446.1513 116.531,435.7417 117.756,425.3324 118.9817,414.9233 120.2081,404.5144 121.4351,394.1056 122.6627,383.697 123.891,373.2885 125.1199,362.88 126.3495,352.4717 127.5798,342.0634 128.8107,331.6551 130.0423,321.2468 131.2745,310.8385 132.5075,300.4301 133.7411,290.0216 134.9754,279.613 136.2103,269.2043 137.446,258.7955 138.6823,248.3864 139.9193,237.9772 141.157,227.5677 142.3954,217.158 143.6346,206.748 144.8744,196.3376 146.1149,185.927 147.3561,175.516 148.598,165.1046 149.8407,154.6928 151.0841,144.2806 152.3281,133.868 153.5729,123.4548 154.8185,113.0412 156.0647,102.627 157.3117,92.2123 158.5595,81.797 159.808,71.3811" stroke="silver" stroke-opacity="0.5" stroke-width="1" /><polyline fill="none" points="758.4686,690.5712 755.5551,690.9566 750.3515,691.6369 745.1467,692.3071 739.9409,692.9673 734.734,693.6174 729.526,694.2574 724.317,694.8874 719.1069,695.5074 713.8958,696.1173 708.6837,696.7171 703.4707,697.3068 698.2566,697.8865 693.0417,698.4561 687.8257,699.0157 682.6089,699.5652 677.3912,700.1046 672.1725,700.634 666.953,701.1533 661.7327,701.6625 656.5115,702.1617 651.2895,702.6508 646.0667,703.1298 640.8432,703.5987 635.6188,704.0576 630.3937,704.5064 625.1679,704.9451 619.9414,705.3737 614.7141,705.7923 609.4862,706.2008 604.2576,706.5992 599.0283,706.9875 593.7985,707.3658 588.568,707.7339 583.3369,708.092 578.1052,708.44 572.873,708.778 567.6402,709.1058 562.4068,709.4236 557.173,709.7313 551.9386,710.0289 546.7038,710.3164 541.4685,710.5938 536.2328,710.8612 530.9966,711.1184 525.76,711.3656 520.523,711.6027 515.2856,711.8297 510.0479,712.0466 504.8098,712.2535 499.5713,712.4502 494.3326,712.6369 489.0935,712.8134 483.8542,712.9799 478.6146,713.1363 473.3748,713.2826 468.1347,713.4188 462.8944,713.545 457.6539,713.661 452.4132,713.7669 447.1724,713.8628 441.9314,713.9486 436.6902,714.0242 431.449,714.0898 426.2076,714.1453 420.9662,714.1907 415.7247,714.2261 410.4832,714.2513 405.2416,714.2664 400.0,714.2715 394.7584,714.2664 389.5168,714.2513 384.2753,714.2261 379.0338,714.1907 373.7924,714.1453 368.551,714.0898 363.3098,714.0242 358.0686,713.9486 352.8276,713.8628 347.5868,713.7669 342.3461,713.661 337.1056,713.545 331.8653,713.4188 326.6252,713.2826 321.3854,713.1363 316.1458,712.9799 310.9065,712.8134 305.6674,712.6369 300.4287,712.4502 295.1902,712.2535 289.9521,712.0466 284.7144,711.8297 279.477,711.6027 274.24,711.3656 269.0034,711.1184 263.7672,710.8612 258.5315,710.5938 253.2962,710.3164 248.0614,710.0289 242.827,709.7313 237.5932,709.4236 232.3598,709.1058 227.127,708.778 221.8948,708.44 216.6631,708.092 211.432,707.7339 206.2015,707.3658 200.9717,706.9875 195.7424,706.5992 190.5138,706.2008 185.2859,705.7923 180.0586,705.3737 174.8321,704.9451 169.6063,704.5064 164.3812,704.0576 159.1568,703.5987 153.9333,703.1298 148.7105,702.6508 143.4885,702.1617 138.2673,701.6625 133.047,701.1533 127.8275,700.634 122.6088,700.1046 117.3911,699.5652 112.1743,699.0157 106.9583,698.4561 101.7434,697.8865 96.5293,697.3068 91.3163,696.7171 86.1042,696.1173 80.8931,695.5074 75.683,694.8874 70.474,694.2574 65.266,693.6174 60.0591,692.9673 54.8533,692.3071 49.6485,691.6369 44.4449,690.9566 41.5314,690.5712" stroke="silver" stroke-opacity="0.5" stroke-width="1" /><polyline fill="none" points="747.3927,607.3592 744.5694,607.7343 739.527,608.3964 734.4834,609.0487 729.4388,609.6913 724.3931,610.3241 719.3463,610.947 714.2985,611.5602 709.2497,612.1636 704.1999,612.7572 699.1491,613.3411 694.0973,613.9151 689.0446,614.4793 683.9909,615.0338 678.9364,615.5784 673.8809,616.1132 668.8245,616.6383 663.7673,617.1535 658.7092,617.659 653.6503,618.1546 648.5905,618.6405 643.53,619.1165 638.4687,619.5828 633.4066,620.0392 628.3437,620.4858 623.2801,620.9227 618.2158,621.3497 613.1508,621.7669 608.085,622.1743 603.0187,622.5719 597.9516,622.9597 592.8839,623.3377 587.8156,623.7059 582.7467,624.0643 577.6772,624.4128 572.6071,624.7516 567.5365,625.0805 562.4653,625.3996 557.3936,625.7089 552.3214,626.0084 547.2487,626.2981 542.1755,626.5779 537.1019,626.848 532.0278,627.1082 526.9533,627.3586 521.8784,627.5992 516.8031,627.83 511.7274,628.051 506.6513,628.2621 501.5749,628.4634 496.4982,628.6549 491.4212,628.8366 486.3438,629.0085 481.2662,629.1705 476.1884,629.3228 471.1103,629.4652 466.0319,629.5978 460.9534,629.7205 455.8746,629.8335 450.7957,629.9366 445.7166,630.0299 440.6373,630.1134 435.5579,630.1871 430.4784,630.2509 425.3989,630.3049 420.3192,630.3491 415.2394,630.3835 410.1597,630.4081 405.0798,630.4228 400.0,630.4277 394.9202,630.4228 389.8403,630.4081 384.7606,630.3835 379.6808,630.3491 374.6011,630.3049 369.5216,630.2509 364.4421,630.1871 359.3627,630.1134 354.2834,630.0299 349.2043,629.9366 344.1254,629.8335 339.0466,629.7205 333.9681,629.5978 328.8897,629.4652 323.8116,629.3228 318.7338,629.1705 313.6562,629.0085 308.5788,628.8366 303.5018,628.6549 298.4251,628.4634 293.3487,628.2621 288.2726,628.051 283.1969,627.83 278.1216,627.5992 273.0467,627.3586 267.9722,627.1082 262.8981,626.848 257.8245,626.5779 252.7513,626.2981 247.6786,626.0084 242.6064,625.7089 237.5347,625.3996 232.4635,625.0805 227.3929,624.7516 222.3228,624.4128 217.2533,624.0643 212.1844,623.7059 207.1161,623.3377 202.0484,622.9597 196.9813,622.5719 191.915,622.1743 186.8492,621.7669 181.7842,621.3497 176.7199,620.9227 171.6563,620.4858 166.5934,620.0392 161.5313,619.5828 156.47,619.1165 151.4095,618.6405 146.3497,618.1546 141.2908,617.659 136.2327,617.1535 131.1755,616.6383 126.1191,616.1132 121.0636,615.5784 116.0091,615.0338 110.9554,614.4793 105.9027,613.9151 100.8509,613.3411 95.8001,612.7572 90.7503,612.1636 85.7015,611.5602 80.6537,610.947 75.6069,610.3241 70.5612,609.6913 65.5166,609.0487 60.473,608.3964 55.4306,607.7343 52.6073,607.3592" stroke="silver" stroke-opacity="0.5" stroke-width="1" /><polyline fill="none" points="736.274,524.1916 733.5413,524.5562 728.6606,525.1999 723.7788,525.8341 718.8959,526.4588 714.012,527.074 709.1271,527.6796 704.2411,528.2758 699.3542,528.8624 694.4662,529.4395 689.5773,530.0071 684.6875,530.5651 679.7967,531.1137 674.905,531.6527 670.0124,532.1822 665.1189,532.7022 660.2245,533.2126 655.3293,533.7136 650.4332,534.205 645.5363,534.6868 640.6386,535.1592 635.7401,535.622 630.8409,536.0753 625.9409,536.519 621.0401,536.9533 616.1386,537.378 611.2364,537.7931 606.3335,538.1987 601.43,538.5948 596.5258,538.9814 591.6209,539.3584 586.7154,539.7259 581.8093,540.0839 576.9026,540.4323 571.9953,540.7711 567.0874,541.1005 562.179,541.4203 557.2701,541.7305 552.3607,542.0313 547.4507,542.3224 542.5403,542.6041 537.6294,542.8761 532.7181,543.1387 527.8063,543.3917 522.8941,543.6352 517.9815,543.8691 513.0685,544.0935 508.1551,544.3083 503.2414,544.5136 498.3273,544.7093 493.413,544.8955 488.4983,545.0721 483.5833,545.2392 478.6681,545.3968 473.7526,545.5448 468.8368,545.6832 463.9208,545.8122 459.0047,545.9315 454.0883,546.0413 449.1717,546.1416 444.255,546.2323 439.3382,546.3135 434.4212,546.3851 429.5041,546.4472 424.5869,546.4997 419.6696,546.5427 414.7523,546.5761 409.8349,546.6 404.9174,546.6143 400.0,546.6191 395.0826,546.6143 390.1651,546.6 385.2477,546.5761 380.3304,546.5427 375.4131,546.4997 370.4959,546.4472 365.5788,546.3851 360.6618,546.3135 355.745,546.2323 350.8283,546.1416 345.9117,546.0413 340.9953,545.9315 336.0792,545.8122 331.1632,545.6832 326.2474,545.5448 321.3319,545.3968 316.4167,545.2392 311.5017,545.0721 306.587,544.8955 301.6727,544.7093 296.7586,544.5136 291.8449,544.3083 286.9315,544.0935 282.0185,543.8691 277.1059,543.6352 272.1937,543.3917 267.2819,543.1387 262.3706,542.8761 257.4597,542.6041 252.5493,542.3224 247.6393,542.0313 242.7299,541.7305 237.821,541.4203 232.9126,541.1005 228.0047,540.7711 223.0974,540.4323 218.1907,540.0839 213.2846,539.7259 208.3791,539.3584 203.4742,538.9814 198.57,538.5948 193.6665,538.1987 188.7636,537.7931 183.8614,537.378 178.9599,536.9533 174.0591,536.519 169.1591,536.0753 164.2599,535.622 159.3614,535.1592 154.4637,534.6868 149.5668,534.205 144.6707,533.7136 139.7755,533.2126 134.8811,532.7022 129.9876,532.1822 125.095,531.6527 120.2033,531.1137 115.3125,530.5651 110.4227,530.0071 105.5338,529.4395 100.6458,528.8624 95.7589,528.2758 90.8729,527.6796 85.988,527.074 81.1041,526.4588 76.2212,525.8341 71.3394,525.1999 66.4587,524.5562 63.726,524.1916" stroke="silver" stroke-opacity="0.5" stroke-width="1" /><polyline fill="none" points="725.1108,441.0558 722.469,441.4098 717.7506,442.0348 713.0312,442.6506 708.3108,443.2572 703.5893,443.8545 698.8668,444.4425 694.1433,445.0214 689.4189,445.591 684.6934,446.1513 679.9671,446.7024 675.2398,447.2443 670.5115,447.7769 665.7824,448.3003 661.0524,448.8144 656.3215,449.3193 651.5898,449.815 646.8572,450.3014 642.1238,450.7785 637.3896,451.2464 632.6546,451.705 627.9188,452.1544 623.1822,452.5946 618.445,453.0255 613.707,453.4471 608.9682,453.8595 604.2288,454.2626 599.4887,454.6565 594.748,455.0411 590.0065,455.4164 585.2645,455.7825 580.5218,456.1394 575.7786,456.4869 571.0347,456.8252 566.2903,457.1543 561.5454,457.4741 556.7999,457.7846 552.0538,458.0859 547.3073,458.3779 542.5603,458.6606 537.8128,458.9341 533.0648,459.1983 528.3164,459.4532 523.5676,459.6989 518.8183,459.9353 514.0687,460.1624 509.3187,460.3803 504.5683,460.5889 499.8176,460.7883 495.0665,460.9783 490.3152,461.1591 485.5635,461.3306 480.8115,461.4929 476.0593,461.6459 471.3068,461.7896 466.5541,461.924 461.8012,462.0492 457.048,462.1651 452.2947,462.2718 447.5412,462.3691 442.7875,462.4572 438.0337,462.536 433.2798,462.6056 428.5257,462.6658 423.7716,462.7168 419.0174,462.7586 414.2631,462.791 409.5087,462.8142 404.7544,462.8281 400.0,462.8328 395.2456,462.8281 390.4913,462.8142 385.7369,462.791 380.9826,462.7586 376.2284,462.7168 371.4743,462.6658 366.7202,462.6056 361.9663,462.536 357.2125,462.4572 352.4588,462.3691 347.7053,462.2718 342.952,462.1651 338.1988,462.0492 333.4459,461.924 328.6932,461.7896 323.9407,461.6459 319.1885,461.4929 314.4365,461.3306 309.6848,461.1591 304.9335,460.9783 300.1824,460.7883 295.4317,460.5889 290.6813,460.3803 285.9313,460.1624 281.1817,459.9353 276.4324,459.6989 271.6836,459.4532 266.9352,459.1983 262.1872,458.9341 257.4397,458.6606 252.6927,458.3779 247.9462,458.0859 243.2001,457.7846 238.4546,457.4741 233.7097,457.1543 228.9653,456.8252 224.2214,456.4869 219.4782,456.1394 214.7355,455.7825 209.9935,455.4164 205.252,455.0411 200.5113,454.6565 195.7712,454.2626 191.0318,453.8595 186.293,453.4471 181.555,453.0255 176.8178,452.5946 172.0812,452.1544 167.3454,451.705 162.6104,451.2464 157.8762,450.7785 153.1428,450.3014 148.4102,449.815 143.6785,449.3193 138.9476,448.8144 134.2176,448.3003 129.4885,447.7769 124.7602,447.2443 120.0329,446.7024 115.3066,446.1513 110.5811,445.591 105.8567,445.0214 101.1332,444.4425 96.4107,443.8545 91.6892,443.2572 86.9688,442.6506 82.2494,442.0348 77.531,441.4098 74.8892,441.0558" stroke="silver" stroke-opacity="0.5" stroke-width="1" /><polyline fill="none" points="713.9014,357.9391 711.3508,358.2824 706.7955,358.8885 702.2392,359.4856 697.6818,360.0737 693.1234,360.6529 688.564,361.2231 684.0037,361.7844 679.4423,362.3367 674.8801,362.88 670.3169,363.4144 665.7528,363.9399 661.1878,364.4563 656.6219,364.9639 652.0551,365.4624 647.4875,365.952 642.919,366.4326 638.3498,366.9042 633.7797,367.3669 629.2088,367.8206 624.6372,368.2654 620.0648,368.7012 615.4916,369.128 610.9177,369.5458 606.3432,369.9546 601.7679,370.3545 597.1919,370.7454 592.6153,371.1274 588.038,371.5003 583.4601,371.8643 578.8815,372.2193 574.3024,372.5653 569.7226,372.9024 565.1423,373.2304 560.5614,373.5495 555.98,373.8596 551.3981,374.1607 546.8157,374.4529 542.2327,374.736 537.6493,375.0102 533.0654,375.2754 528.4811,375.5316 523.8963,375.7788 519.3111,376.017 514.7255,376.2463 510.1395,376.4666 505.5532,376.6778 500.9664,376.8801 496.3794,377.0734 491.792,377.2577 487.2043,377.4331 482.6163,377.5994 478.0281,377.7567 473.4396,377.9051 468.8508,378.0444 464.2618,378.1748 459.6726,378.2962 455.0831,378.4086 450.4935,378.512 445.9038,378.6064 441.3138,378.6918 436.7237,378.7683 432.1336,378.8357 427.5432,378.8942 422.9528,378.9436 418.3624,378.9841 413.7718,379.0156 409.1812,379.038 404.5906,379.0515 400.0,379.056 395.4094,379.0515 390.8188,379.038 386.2282,379.0156 381.6376,378.9841 377.0472,378.9436 372.4568,378.8942 367.8664,378.8357 363.2763,378.7683 358.6862,378.6918 354.0962,378.6064 349.5065,378.512 344.9169,378.4086 340.3274,378.2962 335.7382,378.1748 331.1492,378.0444 326.5604,377.9051 321.9719,377.7567 317.3837,377.5994 312.7957,377.4331 308.208,377.2577 303.6206,377.0734 299.0336,376.8801 294.4468,376.6778 289.8605,376.4666 285.2745,376.2463 280.6889,376.017 276.1037,375.7788 271.5189,375.5316 266.9346,375.2754 262.3507,375.0102 257.7673,374.736 253.1843,374.4529 248.6019,374.1607 244.02,373.8596 239.4386,373.5495 234.8577,373.2304 230.2774,372.9024 225.6976,372.5653 221.1185,372.2193 216.5399,371.8643 211.962,371.5003 207.3847,371.1274 202.8081,370.7454 198.2321,370.3545 193.6568,369.9546 189.0823,369.5458 184.5084,369.128 179.9352,368.7012 175.3628,368.2654 170.7912,367.8206 166.2203,367.3669 161.6502,366.9042 157.081,366.4326 152.5125,365.952 147.9449,365.4624 143.3781,364.9639 138.8122,364.4563 134.2472,363.9399 129.6831,363.4144 125.1199,362.88 120.5577,362.3367 115.9963,361.7844 111.436,361.2231 106.8766,360.6529 102.3182,360.0737 97.7608,359.4856 93.2045,358.8885 88.6492,358.2824 86.0986,357.9391" stroke="silver" stroke-opacity="0.5" stroke-width="1" /><polyline fill="none" points="702.6441,274.829 700.1853,275.1614 695.7936,275.7482 691.401,276.3263 687.0074,276.8958 682.6127,277.4566 678.2171,278.0087 673.8206,278.5521 669.4231,279.0869 665.0246,279.613 660.6253,280.1305 656.2251,280.6392 651.824,281.1393 647.422,281.6307 643.0192,282.1134 638.6155,282.5875 634.2111,283.0529 629.8058,283.5096 625.3997,283.9576 620.9929,284.3969 616.5853,284.8275 612.1769,285.2495 607.7679,285.6627 603.3581,286.0673 598.9476,286.4632 594.5364,286.8504 590.1246,287.2289 585.7121,287.5987 581.299,287.9599 576.8853,288.3123 572.4709,288.656 568.056,288.9911 563.6405,289.3175 559.2244,289.6351 554.8078,289.9441 550.3906,290.2444 545.973,290.5359 541.5548,290.8188 537.1361,291.093 532.717,291.3585 528.2974,291.6153 523.8774,291.8633 519.457,292.1027 515.0361,292.3334 510.6149,292.5554 506.1933,292.7687 501.7713,292.9733 497.3489,293.1691 492.9263,293.3563 488.5033,293.5348 484.08,293.7045 479.6564,293.8656 475.2326,294.018 470.8084,294.1616 466.3841,294.2966 461.9595,294.4228 457.5347,294.5404 453.1097,294.6492 448.6846,294.7493 444.2592,294.8407 439.8337,294.9235 435.4081,294.9975 430.9824,295.0628 426.5565,295.1194 422.1306,295.1673 417.7045,295.2064 413.2785,295.2369 408.8523,295.2587 404.4262,295.2717 400.0,295.2761 395.5738,295.2717 391.1477,295.2587 386.7215,295.2369 382.2955,295.2064 377.8694,295.1673 373.4435,295.1194 369.0176,295.0628 364.5919,294.9975 360.1663,294.9235 355.7408,294.8407 351.3154,294.7493 346.8903,294.6492 342.4653,294.5404 338.0405,294.4228 333.6159,294.2966 329.1916,294.1616 324.7674,294.018 320.3436,293.8656 315.92,293.7045 311.4967,293.5348 307.0737,293.3563 302.6511,293.1691 298.2287,292.9733 293.8067,292.7687 289.3851,292.5554 284.9639,292.3334 280.543,292.1027 276.1226,291.8633 271.7026,291.6153 267.283,291.3585 262.8639,291.093 258.4452,290.8188 254.027,290.5359 249.6094,290.2444 245.1922,289.9441 240.7756,289.6351 236.3595,289.3175 231.944,288.9911 227.5291,288.656 223.1147,288.3123 218.701,287.9599 214.2879,287.5987 209.8754,287.2289 205.4636,286.8504 201.0524,286.4632 196.6419,286.0673 192.2321,285.6627 187.8231,285.2495 183.4147,284.8275 179.0071,284.3969 174.6003,283.9576 170.1942,283.5096 165.7889,283.0529 161.3845,282.5875 156.9808,282.1134 152.578,281.6307 148.176,281.1393 143.7749,280.6392 139.3747,280.1305 134.9754,279.613 130.5769,279.0869 126.1794,278.5521 121.7829,278.0087 117.3873,277.4566 112.9926,276.8958 108.599,276.3263 104.2064,275.7482 99.8147,275.1614 97.3559,274.829" stroke="silver" stroke-opacity="0.5" stroke-width="1" /><polyline fill="none" points="691.3373,191.7127 688.9705,192.0341 684.7433,192.6013 680.515,193.1602 676.2858,193.7107 672.0557,194.2529 667.8245,194.7866 663.5925,195.312 659.3595,195.829 655.1256,196.3376 650.8909,196.8379 646.6552,197.3297 642.4187,197.8132 638.1814,198.2882 633.9432,198.7549 629.7042,199.2132 625.4645,199.6631 621.2239,200.1046 616.9825,200.5377 612.7404,200.9624 608.4976,201.3787 604.2541,201.7867 600.0098,202.1862 595.7648,202.5773 591.5192,202.9601 587.2728,203.3344 583.0259,203.7003 578.7783,204.0579 574.53,204.407 570.2812,204.7477 566.0318,205.08 561.7818,205.404 557.5312,205.7195 553.2801,206.0266 549.0284,206.3253 544.7763,206.6156 540.5236,206.8975 536.2705,207.171 532.0168,207.436 527.7627,207.6927 523.5082,207.941 519.2532,208.1808 514.9979,208.4122 510.7421,208.6353 506.4859,208.8499 502.2294,209.0561 497.9725,209.2538 493.7153,209.4432 489.4577,209.6242 485.1998,209.7967 480.9417,209.9608 476.6832,210.1166 472.4245,210.2639 468.1656,210.4027 463.9064,210.5332 459.6469,210.6553 455.3873,210.7689 451.1275,210.8741 446.8675,210.9709 442.6073,211.0593 438.347,211.1393 434.0866,211.2108 429.826,211.274 425.5653,211.3287 421.3046,211.375 417.0438,211.4129 412.7829,211.4423 408.5219,211.4634 404.261,211.476 400.0,211.4802 395.739,211.476 391.4781,211.4634 387.2171,211.4423 382.9562,211.4129 378.6954,211.375 374.4347,211.3287 370.174,211.274 365.9134,211.2108 361.653,211.1393 357.3927,211.0593 353.1325,210.9709 348.8725,210.8741 344.6127,210.7689 340.3531,210.6553 336.0936,210.5332 331.8344,210.4027 327.5755,210.2639 323.3168,210.1166 319.0583,209.9608 314.8002,209.7967 310.5423,209.6242 306.2847,209.4432 302.0275,209.2538 297.7706,209.0561 293.5141,208.8499 289.2579,208.6353 285.0021,208.4122 280.7468,208.1808 276.4918,207.941 272.2373,207.6927 267.9832,207.436 263.7295,207.171 259.4764,206.8975 255.2237,206.6156 250.9716,206.3253 246.7199,206.0266 242.4688,205.7195 238.2182,205.404 233.9682,205.08 229.7188,204.7477 225.47,204.407 221.2217,204.0579 216.9741,203.7003 212.7272,203.3344 208.4808,202.9601 204.2352,202.5773 199.9902,202.1862 195.7459,201.7867 191.5024,201.3787 187.2596,200.9624 183.0175,200.5377 178.7761,200.1046 174.5355,199.6631 170.2958,199.2132 166.0568,198.7549 161.8186,198.2882 157.5813,197.8132 153.3448,197.3297 149.1091,196.8379 144.8744,196.3376 140.6405,195.829 136.4075,195.312 132.1755,194.7866 127.9443,194.2529 123.7142,193.7107 119.485,193.1602 115.2567,192.6013 111.0295,192.0341 108.6627,191.7127" stroke="silver" stroke-opacity="0.5" stroke-width="1" /><polyline fill="none" points="679.9792,108.5778 677.7048,108.8879 673.6427,109.4353 669.5796,109.9747 665.5156,110.506 661.4506,111.0292 657.3847,111.5443 653.3178,112.0514 649.2501,112.5503 645.1815,113.0412 641.112,113.524 637.0417,113.9986 632.9706,114.4652 628.8986,114.9237 624.8258,115.3741 620.7522,115.8164 616.6779,116.2506 612.6027,116.6767 608.5269,117.0947 604.4503,117.5046 600.3729,117.9064 596.2949,118.3001 592.2162,118.6857 588.1367,119.0631 584.0567,119.4325 579.9759,119.7938 575.8946,120.147 571.8126,120.492 567.73,120.829 563.6468,121.1578 559.5631,121.4786 555.4787,121.7912 551.3939,122.0957 547.3085,122.3921 543.2225,122.6804 539.1361,122.9606 535.0492,123.2326 530.9618,123.4966 526.8739,123.7524 522.7856,124.0001 518.6969,124.2397 514.6077,124.4712 510.5182,124.6946 506.4282,124.9098 502.3379,125.1169 498.2472,125.316 494.1562,125.5068 490.0648,125.6896 485.9731,125.8643 481.8812,126.0308 477.7889,126.1892 473.6963,126.3395 469.6035,126.4817 465.5105,126.6157 461.4172,126.7416 457.3237,126.8594 453.23,126.9691 449.1361,127.0706 445.042,127.1641 440.9478,127.2494 436.8534,127.3266 432.7589,127.3956 428.6643,127.4566 424.5696,127.5094 420.4748,127.5541 416.3799,127.5906 412.285,127.619 408.19,127.6394 404.095,127.6515 400.0,127.6556 395.905,127.6515 391.81,127.6394 387.715,127.619 383.6201,127.5906 379.5252,127.5541 375.4304,127.5094 371.3357,127.4566 367.2411,127.3956 363.1466,127.3266 359.0522,127.2494 354.958,127.1641 350.8639,127.0706 346.77,126.9691 342.6763,126.8594 338.5828,126.7416 334.4895,126.6157 330.3965,126.4817 326.3037,126.3395 322.2111,126.1892 318.1188,126.0308 314.0269,125.8643 309.9352,125.6896 305.8438,125.5068 301.7528,125.316 297.6621,125.1169 293.5718,124.9098 289.4818,124.6946 285.3923,124.4712 281.3031,124.2397 277.2144,124.0001 273.1261,123.7524 269.0382,123.4966 264.9508,123.2326 260.8639,122.9606 256.7775,122.6804 252.6915,122.3921 248.6061,122.0957 244.5213,121.7912 240.4369,121.4786 236.3532,121.1578 232.27,120.829 228.1874,120.492 224.1054,120.147 220.0241,119.7938 215.9433,119.4325 211.8633,119.0631 207.7838,118.6857 203.7051,118.3001 199.6271,117.9064 195.5497,117.5046 191.4731,117.0947 187.3973,116.6767 183.3221,116.2506 179.2478,115.8164 175.1742,115.3741 171.1014,114.9237 167.0294,114.4652 162.9583,113.9986 158.888,113.524 154.8185,113.0412 150.7499,112.5503 146.6822,112.0514 142.6153,111.5443 138.5494,111.0292 134.4844,110.506 130.4204,109.9747 126.3573,109.4353 122.2952,108.8879 120.0208,108.5778" stroke="silver" stroke-opacity="0.5" stroke-width="1" /><circle cx="710.7443" cy="352.1022" fill="black" r="0.738" stroke="none" /><circle cx="723.1258" cy="478.8035" fill="black" r="0.936" stroke="none" /><circle cx="681.6039" cy="254.421" fill="black" r="0.738" stroke="none" /><circle cx="712.8432" cy="639.7064" fill="black" r="0.738" stroke="none" /><circle cx="693.6875" cy="481.6492" fill="black" r="0.738" stroke="none" /><circle cx="691.2664" cy="540.5343" fill="black" r="0.738" stroke="none" /><circle cx="671.3063" cy="395.5409" fill="black" r="0.738" stroke="none" /><circle cx="644.1552" cy="175.92" fill="black" r="0.738" stroke="none" /><circle cx="671.6197" cy="421.0745" fill="black" r="0.738" stroke="none" /><circle cx="670.3476" cy="421.2186" fill="black" r="0.738" stroke="none" /><circle cx="659.9142" cy="340.3858" fill="black" r="0.738" stroke="none" /><circle cx="641.2328" cy="202.8418" fill="black" r="0.738" stroke="none" /><circle cx="687.8227" cy="626.0928" fill="black" r="0.738" stroke="none" /><circle cx="681.088" cy="685.8009" fill="black" r="0.738" stroke="none" /><circle cx="679.4789" cy="686.4747" fill="black" r="0.936" stroke="none" /><circle cx="660.9795" cy="528.6664" fill="black" r="0.738" stroke="none" /><circle cx="652.2502" cy="482.364" fill="black" r="0.738" stroke="none" /><circle cx="670.4361" cy="677.9519" fill="black" r="0.738" stroke="none" /><circle cx="670.2699" cy="677.5469" fill="black" r="0.738" stroke="none" /><circle cx="625.0118" cy="239.2485" fill="black" r="0.738" stroke="none" /><circle cx="635.97" cy="414.8291" fill="black" r="0.936" stroke="none" /><circle cx="638.5235" cy="479.8577" fill="black" r="0.738" stroke="none" /><circle cx="632.8169" cy="595.7582" fill="black" r="0.738" stroke="none" /><circle cx="605.2667" cy="368.6192" fill="black" r="0.738" stroke="none" /><circle cx="606.9675" cy="392.1966" fill="black" r="0.738" stroke="none" /><circle cx="593.0631" cy="234.7231" fill="black" r="0.738" stroke="none" /><circle cx="599.5659" cy="414.0294" fill="black" r="0.738" stroke="none" /><circle cx="570.0501" cy="165.4019" fill="black" r="0.738" stroke="none" /><circle cx="603.9458" cy="663.9695" fill="black" r="0.936" stroke="none" /><circle cx="603.7079" cy="663.5671" fill="black" r="0.738" stroke="none" /><circle cx="559.3034" cy="126.6299" fill="black" r="0.738" stroke="none" /><circle cx="586.6293" cy="483.8367" fill="black" r="0.738" stroke="none" /><circle cx="582.8261" cy="660.7931" fill="black" r="0.738" stroke="none" /><circle cx="556.208" cy="315.4692" fill="black" r="0.738" stroke="none" /><circle cx="559.6204" cy="371.0941" fill="black" r="0.738" stroke="none" /><circle cx="568.5378" cy="573.9352" fill="black" r="0.738" stroke="none" /><circle cx="536.2777" cy="161.3867" fill="black" r="0.738" stroke="none" /><circle cx="561.0701" cy="652.032" fill="black" r="0.738" stroke="none" /><circle cx="511.8067" cy="84.5606" fill="black" r="0.738" stroke="none" /><circle cx="529.8384" cy="416.6602" fill="black" r="0.738" stroke="none" /><circle cx="533.8747" cy="500.2758" fill="black" r="0.738" stroke="none" /><circle cx="535.586" cy="673.1883" fill="black" r="0.738" stroke="none" /><circle cx="512.9121" cy="318.1145" fill="black" r="0.738" stroke="none" /><circle cx="512.7923" cy="388.084" fill="black" r="0.738" stroke="none" /><circle cx="515.2372" cy="478.5622" fill="black" r="0.738" stroke="none" /><circle cx="518.756" cy="593.2529" fill="black" r="0.738" stroke="none" /><circle cx="492.2073" cy="213.2834" fill="black" r="0.738" stroke="none" /><circle cx="499.759" cy="443.6836" fill="black" r="0.936" stroke="none" /><circle cx="497.2261" cy="611.0958" fill="black" r="0.936" stroke="none" /><circle cx="476.0557" cy="248.1269" fill="black" r="0.738" stroke="none" /><circle cx="481.7865" cy="603.0722" fill="black" r="0.738" stroke="none" /><circle cx="481.9081" cy="655.2359" fill="black" r="0.738" stroke="none" /><circle cx="462.9919" cy="90.9543" fill="black" r="0.738" stroke="none" /><circle cx="461.523" cy="151.4825" fill="black" r="0.738" stroke="none" /><circle cx="465.7733" cy="364.0522" fill="black" r="0.738" stroke="none" /><circle cx="465.7179" cy="363.3832" fill="black" r="0.738" stroke="none" /><circle cx="460.2992" cy="205.9418" fill="black" r="0.738" stroke="none" /><circle cx="453.8184" cy="644.6335" fill="black" r="0.738" stroke="none" /><circle cx="446.2927" cy="318.1809" fill="black" r="0.738" stroke="none" /><circle cx="453.1055" cy="662.1733" fill="black" r="0.738" stroke="none" /><circle cx="441.2013" cy="148.3761" fill="black" r="0.738" stroke="none" /><circle cx="446.436" cy="434.6542" fill="black" r="0.738" stroke="none" /><circle cx="446.3854" cy="496.0784" fill="black" r="0.738" stroke="none" /><circle cx="426.1255" cy="472.9984" fill="black" r="0.738" stroke="none" /><circle cx="419.9929" cy="465.7669" fill="black" r="0.738" stroke="none" /><circle cx="420.9439" cy="642.4995" fill="black" r="0.738" stroke="none" /><circle cx="413.5461" cy="145.2178" fill="black" r="0.738" stroke="none" /><circle cx="414.1877" cy="418.0534" fill="black" r="0.936" stroke="none" /><circle cx="408.0971" cy="88.0605" fill="black" r="0.738" stroke="none" /><circle cx="403.0561" cy="277.3435" fill="black" r="0.738" stroke="none" /><circle cx="401.6291" cy="398.1564" fill="black" r="0.738" stroke="none" /><circle cx="395.6217" cy="624.0535" fill="black" r="0.738" stroke="none" /><circle cx="388.1961" cy="513.7449" fill="black" r="0.738" stroke="none" /><circle cx="386.8469" cy="310.2353" fill="black" r="1.17" stroke="none" /><circle cx="383.6395" cy="533.7455" fill="black" r="0.738" stroke="none" /><circle cx="383.5039" cy="417.117" fill="black" r="0.738" stroke="none" /><circle cx="383.1579" cy="220.5497" fill="black" r="0.738" stroke="none" /><circle cx="380.0986" cy="323.7594" fill="black" r="0.738" stroke="none" /><circle cx="379.0396" cy="325.8445" fill="black" r="0.936" stroke="none" /><circle cx="363.7871" cy="627.5793" fill="black" r="0.738" stroke="none" /><circle cx="361.867" cy="468.9026" fill="black" r="0.738" stroke="none" /><circle cx="356.2751" cy="387.8652" fill="black" r="0.936" stroke="none" /><circle cx="345.4307" cy="546.4501" fill="black" r="1.17" stroke="none" /><circle cx="348.158" cy="403.2032" fill="black" r="0.738" stroke="none" /><circle cx="346.2732" cy="236.1283" fill="black" r="0.738" stroke="none" /><circle cx="337.1801" cy="402.7701" fill="black" r="0.738" stroke="none" /><circle cx="341.0675" cy="184.8498" fill="black" r="0.738" stroke="none" /><circle cx="332.2539" cy="423.3364" fill="black" r="0.738" stroke="none" /><circle cx="324.4168" cy="688.8084" fill="black" r="0.738" stroke="none" /><circle cx="334.5378" cy="278.5641" fill="black" r="0.738" stroke="none" /><circle cx="332.0265" cy="280.1656" fill="black" r="0.738" stroke="none" /><circle cx="333.3025" cy="139.077" fill="black" r="0.738" stroke="none" /><circle cx="317.7685" cy="618.4892" fill="black" r="0.738" stroke="none" /><circle cx="312.2371" cy="538.6412" fill="black" r="0.936" stroke="none" /><circle cx="300.72" cy="678.4729" fill="black" r="0.738" stroke="none" /><circle cx="300.0428" cy="588.7634" fill="black" r="0.738" stroke="none" /><circle cx="296.8564" cy="599.3754" fill="black" r="0.738" stroke="none" /><circle cx="286.4431" cy="537.4443" fill="black" r="1.17" stroke="none" /><circle cx="291.2086" cy="416.2027" fill="black" r="0.738" stroke="none" /><circle cx="274.1919" cy="698.8526" fill="black" r="0.738" stroke="none" /><circle cx="294.7217" cy="170.2183" fill="black" r="0.738" stroke="none" /><circle cx="261.7391" cy="656.9292" fill="black" r="0.936" stroke="none" /><circle cx="269.0061" cy="444.8771" fill="black" r="0.738" stroke="none" /><circle cx="284.5627" cy="118.2096" fill="black" r="0.738" stroke="none" /><circle cx="273.4694" cy="311.4392" fill="black" r="0.738" stroke="none" /><circle cx="260.0539" cy="358.1688" fill="black" r="0.738" stroke="none" /><circle cx="265.5916" cy="219.55" fill="black" r="0.738" stroke="none" /><circle cx="243.8116" cy="501.322" fill="black" r="0.738" stroke="none" /><circle cx="230.3148" cy="529.3342" fill="black" r="0.738" stroke="none" /><circle cx="255.7637" cy="134.8832" fill="black" r="0.936" stroke="none" /><circle cx="216.8588" cy="682.3773" fill="black" r="0.738" stroke="none" /><circle cx="235.4236" cy="364.7014" fill="black" r="0.738" stroke="none" /><circle cx="236.0167" cy="300.3847" fill="black" r="0.738" stroke="none" /><circle cx="205.6279" cy="655.35" fill="black" r="0.738" stroke="none" /><circle cx="205.5561" cy="599.0063" fill="black" r="0.738" stroke="none" /><circle cx="208.9208" cy="517.7945" fill="black" r="1.17" stroke="none" /><circle cx="228.4993" cy="146.2693" fill="black" r="0.738" stroke="none" /><circle cx="205.4882" cy="372.6522" fill="black" r="1.17" stroke="none" /><circle cx="200.1522" cy="418.2952" fill="black" r="0.738" stroke="none" /><circle cx="207.8809" cy="312.8843" fill="black" r="0.738" stroke="none" /><circle cx="213.7586" cy="185.6656" fill="black" r="0.738" stroke="none" /><circle cx="191.3357" cy="354.3483" fill="black" r="0.738" stroke="none" /><circle cx="170.6417" cy="571.5686" fill="black" r="0.738" stroke="none" /><circle cx="186.9258" cy="353.2735" fill="black" r="0.738" stroke="none" /><circle cx="170.8819" cy="513.4178" fill="black" r="0.738" stroke="none" /><circle cx="158.7701" cy="578.9007" fill="black" r="0.738" stroke="none" /><circle cx="148.4837" cy="593.2503" fill="black" r="0.738" stroke="none" /><circle cx="135.4834" cy="700.3804" fill="black" r="0.738" stroke="none" /><circle cx="132.311" cy="686.0699" fill="black" r="0.738" stroke="none" /><circle cx="190.5287" cy="105.108" fill="black" r="0.738" stroke="none" /><circle cx="152.4879" cy="412.7319" fill="black" r="0.738" stroke="none" /><circle cx="160.7237" cy="218.7542" fill="black" r="0.936" stroke="none" /><circle cx="120.6943" cy="529.9026" fill="black" r="0.738" stroke="none" /><circle cx="97.2287" cy="661.7422" fill="black" r="0.738" stroke="none" /><circle cx="101.6375" cy="616.1333" fill="black" r="0.738" stroke="none" /><circle cx="119.2187" cy="447.1146" fill="black" r="1.476" stroke="none" /><circle cx="99.8044" cy="613.8965" fill="black" r="0.738" stroke="none" /><circle cx="127.0546" cy="363.1077" fill="black" r="0.738" stroke="none" /><circle cx="141.5534" cy="191.1237" fill="black" r="0.738" stroke="none" /><circle cx="134.8232" cy="241.5892" fill="black" r="0.738" stroke="none" /><circle cx="93.9148" cy="489.0118" fill="black" r="0.738" stroke="none" /><circle cx="67.1221" cy="688.5175" fill="black" r="0.738" stroke="none" /><circle cx="68.8439" cy="658.3644" fill="black" r="0.738" stroke="none" /><circle cx="90.1393" cy="486.0896" fill="black" r="0.738" stroke="none" /><circle cx="119.6543" cy="244.013" fill="black" r="0.936" stroke="none" /><circle cx="133.6171" cy="84.2391" fill="black" r="0.738" stroke="none" /><circle cx="103.6206" cy="301.7256" fill="black" r="0.738" stroke="none" /><circle cx="64.2503" cy="546.013" fill="black" r="0.738" stroke="none" /><circle cx="13.77" cy="786.23" fill="black" r="4.59" stroke="none" /><circle cx="13.77" cy="786.23" fill="black" r="4.59" stroke="none" /><text fill="black" font-family="monospace" font-size="12" x="10.77" y="775.64">1</text><circle cx="37.77" cy="786.23" fill="black" r="3.654" stroke="none" /><circle cx="37.77" cy="786.23" fill="black" r="3.654" stroke="none" /><text fill="black" font-family="monospace" font-size="12" x="34.769999999999996" y="775.64">2</text><circle cx="61.77" cy="786.23" fill="black" r="2.916" stroke="none" /><circle cx="61.77" cy="786.23" fill="black" r="2.916" stroke="none" /><text fill="black" font-family="monospace" font-size="12" x="58.769999999999996" y="775.64">3</text><circle cx="85.77" cy="786.23" fill="black" r="2.322" stroke="none" /><circle cx="85.77" cy="786.23" fill="black" r="2.322" stroke="none" /><text fill="black" font-family="monospace" font-size="12" x="82.77" y="775.64">4</text><circle cx="109.77" cy="786.23" fill="black" r="1.854" stroke="none" /><circle cx="109.77" cy="786.23" fill="black" r="1.854" stroke="none" /><text fill="black" font-family="monospace" font-size="12" x="106.77" y="775.64">5</text><circle cx="133.77" cy="786.23" fill="black" r="1.476" stroke="none" /><circle cx="133.77" cy="786.23" fill="black" r="1.476" stroke="none" /><text fill="black" font-family="monospace" font-size="12" x="130.77" y="775.64">6</text><circle cx="157.77" cy="786.23" fill="black" r="1.17" stroke="none" /><circle cx="157.77" cy="786.23" fill="black" r="1.17" stroke="none" /><text fill="black" font-family="monospace" font-size="12" x="154.77" y="775.64">7</text><circle cx="181.77" cy="786.23" fill="black" r="0.936" stroke="none" /><circle cx="181.77" cy="786.23" fill="black" r="0.936" stroke="none" /><text fill="black" font-family="monospace" font-size="12" x="178.77" y="775.64">8</text><circle cx="205.77" cy="786.23" fill="black" r="0.738" stroke="none" /><circle cx="205.77" cy="786.23" fill="black" r="0.738" stroke="none" /><text fill="black" font-family="monospace" font-size="12" x="202.77" y="775.64">9</text><text fill="gray" fill-opacity="0.5" font-family="monospace" font-size="12" x="713.895831847748" y="696.1172508184836">19h30m</text><text fill="gray" fill-opacity="0.5" font-family="monospace" font-size="12" x="557.1729795420674" y="709.7312702614274">19h45m</text><text fill="gray" fill-opacity="0.5" font-family="monospace" font-size="12" x="400.0" y="714.2714599645376">20h00m</text><text fill="gray" fill-opacity="0.5" font-family="monospace" font-size="12" x="242.82702045793465" y="709.7312702614278">20h15m</text><text fill="gray" fill-opacity="0.5" font-family="monospace" font-size="12" x="86.10416815225204" y="696.1172508184836">20h30m</text><text fill="gray" fill-opacity="0.5" font-family="monospace" font-size="12" x="41.53141706056823" y="690.5712362405535">+60°</text><text fill="gray" fill-opacity="0.5" font-family="monospace" font-size="12" x="52.607288142671734" y="607.3592124410467">+61°</text><text fill="gray" fill-opacity="0.5" font-family="monospace" font-size="12" x="63.7260193945512" y="524.1916174666117">+62°</text><text fill="gray" fill-opacity="0.5" font-family="monospace" font-size="12" x="74.88924651937373" y="441.05579924666256">+63°</text><text fill="gray" fill-opacity="0.5" font-family="monospace" font-size="12" x="86.09863233483964" y="357.93912500363354">+64°</text><text fill="gray" fill-opacity="0.5" font-family="monospace" font-size="12" x="97.35586775218326" y="274.82897358297345">+65°</text><text fill="gray" fill-opacity="0.5" font-family="monospace" font-size="12" x="108.66267279149872" y="191.71272779811684">+66°</text><text fill="gray" fill-opacity="0.5" font-family="monospace" font-size="12" x="120.02079763468015" y="108.57776678058701">+67°</text><text fill="black" font-family="monospace" font-size="12" x="12" y="48">&gt;&gt; No.744 19h26m 20h34m +60.0°+67.5°</text><a target="_self" xlink:href="hip042.svg"><text fill="black" font-family="monospace" font-size="12" x="12" y="36">&gt; No.42 16h00m 24h00m +52.5°+90.0°</text></a><a target="_self" xlink:href="hip002.svg"><text fill="black" font-family="monospace" font-size="12" x="12" y="24">No.2 00h 24h +0.0°+90.0°</text></a><polyline fill="none" points="674.2803,66.9993 672.0524,67.3038 668.0731,67.8412 664.0928,68.3707 660.1116,68.8923 656.1295,69.4059 652.1465,69.9116 648.1625,70.4094 644.1777,70.8992 640.192,71.3811 636.2055,71.8551 632.2181,72.321 628.2299,72.7791 624.2409,73.2292 620.2511,73.6714 616.2605,74.1056 612.2692,74.5318 608.277,74.9501 604.2842,75.3605 600.2906,75.7629 596.2963,76.1574 592.3013,76.5439 588.3056,76.9224 584.3093,77.293 580.3123,77.6556 576.3146,78.0103 572.3164,78.357 568.3175,78.6958 564.318,79.0266 560.3179,79.3494 556.3173,79.6643 552.3161,79.9712 548.3144,80.2702 544.3121,80.5611 540.3093,80.8442 536.3061,81.1192 532.3023,81.3863 528.2981,81.6454 524.2934,81.8966 520.2883,82.1398 516.2828,82.375 512.2768,82.6023 508.2704,82.8216 504.2637,83.0329 500.2566,83.2362 496.2491,83.4316 492.2413,83.619 488.2331,83.7984 484.2247,83.9699 480.2159,84.1334 476.2069,84.2889 472.1976,84.4364 468.188,84.576 464.1782,84.7076 460.1682,84.8312 456.1579,84.9469 452.1475,85.0546 448.1369,85.1543 444.126,85.246 440.1151,85.3297 436.104,85.4055 432.0928,85.4733 428.0814,85.5331 424.07,85.585 420.0584,85.6288 416.0468,85.6647 412.0352,85.6926 408.0235,85.7126 404.0117,85.7246 400.0,85.7285 395.9883,85.7246 391.9765,85.7126 387.9648,85.6926 383.9532,85.6647 379.9416,85.6288 375.93,85.585 371.9186,85.5331 367.9072,85.4733 363.896,85.4055 359.8849,85.3297 355.874,85.246 351.8631,85.1543 347.8525,85.0546 343.8421,84.9469 339.8318,84.8312 335.8218,84.7076 331.812,84.576 327.8024,84.4364 323.7931,84.2889 319.7841,84.1334 315.7753,83.9699 311.7669,83.7984 307.7587,83.619 303.7509,83.4316 299.7434,83.2362 295.7363,83.0329 291.7296,82.8216 287.7232,82.6023 283.7172,82.375 279.7117,82.1398 275.7066,81.8966 271.7019,81.6454 267.6977,81.3863 263.6939,81.1192 259.6907,80.8442 255.6879,80.5611 251.6856,80.2702 247.6839,79.9712 243.6827,79.6643 239.6821,79.3494 235.682,79.0266 231.6825,78.6958 227.6836,78.357 223.6854,78.0103 219.6877,77.6556 215.6907,77.293 211.6944,76.9224 207.6987,76.5439 203.7037,76.1574 199.7094,75.7629 195.7158,75.3605 191.723,74.9501 187.7308,74.5318 183.7395,74.1056 179.7489,73.6714 175.7591,73.2292 171.7701,72.7791 167.7819,72.321 163.7945,71.8551 159.808,71.3811 155.8223,70.8992 151.8375,70.4094 147.8535,69.9116 143.8705,69.4059 139.8884,68.8923 135.9072,68.3707 131.9269,67.8412 127.9476,67.3038 125.7197,66.9993" stroke="black" stroke-opacity="0.5" stroke-width="1" /><polyline fill="none" points="758.4686,690.5712 757.0864,680.1669 755.7035,669.7634 754.3201,659.3607 752.9359,648.9589 751.5511,638.5578 750.1656,628.1576 748.7795,617.758 747.3927,607.3592 746.0052,596.9611 744.6171,586.5636 743.2283,576.1668 741.8388,565.7707 740.4486,555.3751 739.0578,544.98 737.6662,534.5856 736.274,524.1916 734.881,513.7982 733.4874,503.4052 732.0931,493.0126 730.698,482.6205 729.3023,472.2288 727.9058,461.8375 726.5086,451.4465 725.1108,441.0558 723.7121,430.6654 722.3128,420.2753 720.9127,409.8855 719.5119,399.4959 718.1104,389.1064 716.7081,378.7172 715.3051,368.3281 713.9014,357.9391 712.4969,347.5503 711.0916,337.1615 709.6856,326.7727 708.2788,316.384 706.8713,305.9953 705.463,295.6066 704.054,285.2178 702.6441,274.829 701.2335,264.44 699.8221,254.051 698.41,243.6618 696.997,233.2724 695.5833,222.8828 694.1688,212.4931 692.7534,202.103 691.3373,191.7127 689.9204,181.3221 688.5027,170.9312 687.0841,160.54 685.6648,150.1484 684.2446,139.7564 682.8236,129.364 681.4018,118.9711 679.9792,108.5778 678.5557,98.184 677.1314,87.7896 675.7063,77.3948 674.2803,66.9993" stroke="black" stroke-opacity="0.5" stroke-width="1" /><polyline fill="none" points="758.4686,690.5712 755.5551,690.9566 750.3515,691.6369 745.1467,692.3071 739.9409,692.9673 734.734,693.6174 729.526,694.2574 724.317,694.8874 719.1069,695.5074 713.8958,696.1173 708.6837,696.7171 703.4707,697.3068 698.2566,697.8865 693.0417,698.4561 687.8257,699.0157 682.6089,699.5652 677.3912,700.1046 672.1725,700.634 666.953,701.1533 661.7327,701.6625 656.5115,702.1617 651.2895,702.6508 646.0667,703.1298 640.8432,703.5987 635.6188,704.0576 630.3937,704.5064 625.1679,704.9451 619.9414,705.3737 614.7141,705.7923 609.4862,706.2008 604.2576,706.5992 599.0283,706.9875 593.7985,707.3658 588.568,707.7339 583.3369,708.092 578.1052,708.44 572.873,708.778 567.6402,709.1058 562.4068,709.4236 557.173,709.7313 551.9386,710.0289 546.7038,710.3164 541.4685,710.5938 536.2328,710.8612 530.9966,711.1184 525.76,711.3656 520.523,711.6027 515.2856,711.8297 510.0479,712.0466 504.8098,712.2535 499.5713,712.4502 494.3326,712.6369 489.0935,712.8134 483.8542,712.9799 478.6146,713.1363 473.3748,713.2826 468.1347,713.4188 462.8944,713.545 457.6539,713.661 452.4132,713.7669 447.1724,713.8628 441.9314,713.9486 436.6902,714.0242 431.449,714.0898 426.2076,714.1453 420.9662,714.1907 415.7247,714.2261 410.4832,714.2513 405.2416,714.2664 400.0,714.2715 394.7584,714.2664 389.5168,714.2513 384.2753,714.2261 379.0338,714.1907 373.7924,714.1453 368.551,714.0898 363.3098,714.0242 358.0686,713.9486 352.8276,713.8628 347.5868,713.7669 342.3461,713.661 337.1056,713.545 331.8653,713.4188 326.6252,713.2826 321.3854,713.1363 316.1458,712.9799 310.9065,712.8134 305.6674,712.6369 300.4287,712.4502 295.1902,712.2535 289.9521,712.0466 284.7144,711.8297 279.477,711.6027 274.24,711.3656 269.0034,711.1184 263.7672,710.8612 258.5315,710.5938 253.2962,710.3164 248.0614,710.0289 242.827,709.7313 237.5932,709.4236 232.3598,709.1058 227.127,708.778 221.8948,708.44 216.6631,708.092 211.432,707.7339 206.2015,707.3658 200.9717,706.9875 195.7424,706.5992 190.5138,706.2008 185.2859,705.7923 180.0586,705.3737 174.8321,704.9451 169.6063,704.5064 164.3812,704.0576 159.1568,703.5987 153.9333,703.1298 148.7105,702.6508 143.4885,702.1617 138.2673,701.6625 133.047,701.1533 127.8275,700.634 122.6088,700.1046 117.3911,699.5652 112.1743,699.0157 106.9583,698.4561 101.7434,697.8865 96.5293,697.3068 91.3163,696.7171 86.1042,696.1173 80.8931,695.5074 75.683,694.8874 70.474,694.2574 65.266,693.6174 60.0591,692.9673 54.8533,692.3071 49.6485,691.6369 44.4449,690.9566 41.5314,690.5712" stroke="black" stroke-opacity="0.5" stroke-width="1" /><polyline fill="none" points="41.5314,690.5712 42.9136,680.1669 44.2965,669.7634 45.6799,659.3607 47.0641,648.9589 48.4489,638.5578 49.8344,628.1576 51.2205,617.758 52.6073,607.3592 53.9948,596.9611 55.3829,586.5636 56.7717,576.1668 58.1612,565.7707 59.5514,555.3751 60.9422,544.98 62.3338,534.5856 63.726,524.1916 65.119,513.7982 66.5126,503.4052 67.9069,493.0126 69.302,482.6205 70.6977,472.2288 72.0942,461.8375 73.4914,451.4465 74.8892,441.0558 76.2879,430.6654 77.6872,420.2753 79.0873,409.8855 80.4881,399.4959 81.8896,389.1064 83.2919,378.7172 84.6949,368.3281 86.0986,357.9391 87.5031,347.5503 88.9084,337.1615 90.3144,326.7727 91.7212,316.384 93.1287,305.9953 94.537,295.6066 95.946,285.2178 97.3559,274.829 98.7665,264.44 100.1779,254.051 101.59,243.6618 103.003,233.2724 104.4167,222.8828 105.8312,212.4931 107.2466,202.103 108.6627,191.7127 110.0796,181.3221 111.4973,170.9312 112.9159,160.54 114.3352,150.1484 115.7554,139.7564 117.1764,129.364 118.5982,118.9711 120.0208,108.5778 121.4443,98.184 122.8686,87.7896 124.2937,77.3948 125.7197,66.9993" stroke="black" stroke-opacity="0.5" stroke-width="1" /></svg>