<?xml version="1.0" encoding="utf-8" ?>
<svg baseProfile="tiny" height="800" version="1.2" width="800" xmlns="http://www.w3.org/2000/svg" xmlns:ev="http://www.w3.org/2001/xml-events" xmlns:xlink="http://www.w3.org/1999/xlink"><defs /><rect fill="none" height="800" stroke="black" stroke-width="2" width="800" x="0" y="0" /><polyline fill="none" points="669.2497,700.926 668.2121,690.4874 667.174,680.0495 666.1354,669.6124 665.0963,659.1761 664.0567,648.7405 663.0166,638.3056 661.976,627.8714 660.9349,617.4378 659.8933,607.0049 658.8511,596.5725 657.8085,586.1408 656.7654,575.7096 655.7217,565.2789 654.6775,554.8488 653.6328,544.4191 652.5876,533.9899 651.5418,523.5611 650.4955,513.1328 649.4487,502.7048 648.4014,492.2771 647.3535,481.8498 646.305,471.4229 645.2561,460.9961 644.2066,450.5697 643.1565,440.1435 642.1059,429.7175 641.0548,419.2917 640.003,408.866 638.9508,398.4405 637.898,388.0151 636.8446,377.5897 635.7906,367.1645 634.7361,356.7392 633.681,346.314 632.6254,335.8888 631.5692,325.4635 630.5124,315.0381 629.455,304.6127 628.397,294.1872 627.3385,283.7615 626.2794,273.3357 625.2196,262.9096 624.1593,252.4834 623.0984,242.0569 622.0369,231.6302 620.9748,221.2032 619.9121,210.7758 618.8488,200.3482 617.7849,189.9201 616.7204,179.4917 615.6553,169.0629 614.5895,158.6336 613.5232,148.2039 612.4562,137.7737 611.3886,127.343 610.3204,116.9117 609.2515,106.4799 608.182,96.0476 607.1119,85.6146 606.0411,75.1809" stroke="silver" stroke-opacity="0.5" stroke-width="1" /><polyline fill="none" points="512.3525,711.9524 511.9198,701.4773 511.4868,691.0028 511.0537,680.5291 510.6203,670.0561 510.1868,659.5838 509.753,649.112 509.319,638.6409 508.8848,628.1704 508.4504,617.7004 508.0158,607.231 507.5809,596.7621 507.1459,586.2937 506.7106,575.8257 506.2751,565.3582 505.8394,554.8911 505.4035,544.4244 504.9673,533.9581 504.5309,523.492 504.0943,513.0263 503.6575,502.5609 503.2205,492.0958 502.7832,481.6309 502.3457,471.1662 501.908,460.7017 501.47,450.2373 501.0318,439.7731 500.5934,429.3091 500.1547,418.8451 499.7158,408.3811 499.2767,397.9172 498.8373,387.4534 498.3977,376.9895 497.9579,366.5256 497.5178,356.0616 497.0775,345.5975 496.6369,335.1333 496.1961,324.669 495.7551,314.2045 495.3138,303.7399 494.8723,293.275 494.4305,282.8099 493.9885,272.3446 493.5462,261.8789 493.1037,251.413 492.6609,240.9467 492.2179,230.4801 491.7746,220.013 491.3311,209.5456 490.8873,199.0777 490.4432,188.6094 489.9989,178.1406 489.5544,167.6713 489.1095,157.2014 488.6645,146.731 488.2191,136.26 487.7735,125.7884 487.3276,115.3162 486.8815,104.8433 486.4351,94.3697 485.9884,83.8954" stroke="silver" stroke-opacity="0.5" stroke-width="1" /><polyline fill="none" points="355.1337,713.9018 355.3064,703.4202 355.4793,692.9393 355.6523,682.4591 355.8253,671.9796 355.9984,661.5008 356.1716,651.0225 356.3449,640.5449 356.5183,630.0679 356.6917,619.5914 356.8653,609.1154 357.0389,598.6399 357.2126,588.1649 357.3864,577.6904 357.5603,567.2163 357.7343,556.7425 357.9084,546.2692 358.0825,535.7962 358.2568,525.3235 358.4311,514.8512 358.6055,504.3791 358.7801,493.9073 358.9547,483.4357 359.1294,472.9643 359.3042,462.493 359.479,452.022 359.654,441.551 359.8291,431.0802 360.0042,420.6094 360.1795,410.1387 360.3548,399.668 360.5303,389.1973 360.7058,378.7266 360.8814,368.2558 361.0571,357.785 361.233,347.3141 361.4089,336.843 361.5849,326.3718 361.761,315.9004 361.9372,305.4289 362.1135,294.9571 362.2899,284.4851 362.4664,274.0128 362.643,263.5401 362.8197,253.0672 362.9966,242.594 363.1735,232.1203 363.3505,221.6463 363.5276,211.1718 363.7048,200.6969 363.8821,190.2215 364.0595,179.7456 364.237,169.2692 364.4146,158.7923 364.5924,148.3148 364.7702,137.8367 364.9481,127.358 365.1262,116.8786 365.3043,106.3985 365.4826,95.9178 365.6609,85.4363" stroke="silver" stroke-opacity="0.5" stroke-width="1" /><polyline fill="none" points="198.0432,706.7713 198.8213,696.3133 199.5997,685.856 200.3785,675.3995 201.1576,664.9437 201.9372,654.4886 202.7171,644.0342 203.4974,633.5804 204.2781,623.1273 205.0592,612.6747 205.8406,602.2227 206.6224,591.7712 207.4047,581.3203 208.1873,570.8699 208.9703,560.4199 209.7537,549.9704 210.5375,539.5213 211.3216,529.0726 212.1062,518.6243 212.8912,508.1763 213.6766,497.7286 214.4624,487.2812 215.2486,476.8341 216.0352,466.3873 216.8222,455.9407 217.6096,445.4942 218.3974,435.048 219.1857,424.6019 219.9744,414.1559 220.7635,403.71 221.553,393.2642 222.3429,382.8184 223.1332,372.3727 223.924,361.9269 224.7152,351.4811 225.5069,341.0353 226.2989,330.5894 227.0914,320.1434 227.8844,309.6973 228.6778,299.251 229.4716,288.8045 230.2658,278.3579 231.0605,267.911 231.8557,257.4639 232.6513,247.0165 233.4473,236.5688 234.2438,226.1207 235.0407,215.6724 235.8381,205.2236 236.636,194.7744 237.4343,184.3249 238.2331,173.8748 239.0323,163.4243 239.832,152.9733 240.6322,142.5218 241.4329,132.0698 242.234,121.6171 243.0356,111.1639 243.8376,100.71 244.6401,90.2555 245.4432,79.8003" stroke="silver" stroke-opacity="0.5" stroke-width="1" /><polyline fill="none" points="41.5314,690.5712 42.9136,680.1669 44.2965,669.7634 45.6799,659.3607 47.0641,648.9589 48.4489,638.5578 49.8344,628.1576 51.2205,617.758 52.6073,607.3592 53.9948,596.9611 55.3829,586.5636 56.7717,576.1668 58.1612,565.7707 59.5514,555.3751 60.9422,544.98 62.3338,534.5856 63.726,524.1916 65.119,513.7982 66.5126,503.4052 67.9069,493.0126 69.302,482.6205 70.6977,472.2288 72.0942,461.8375 73.4914,451.4465 74.8892,441.0558 76.2879,430.6654 77.6872,420.2753 79.0873,409.8855 80.4881,399.4959 81.8896,389.1064 83.2919,378.7172 84.6949,368.3281 86.0986,357.9391 87.5031,347.5503 88.9084,337.1615 90.3144,326.7727 91.7212,316.384 93.1287,305.9953 94.537,295.6066 95.946,285.2178 97.3559,274.829 98.7665,264.44 100.1779,254.051 101.59,243.6618 103.003,233.2724 104.4167,222.8828 105.8312,212.4931 107.2466,202.103 108.6627,191.7127 110.0796,181.3221 111.4973,170.9312 112.9159,160.54 114.3352,150.1484 115.7554,139.7564 117.1764,129.364 118.5982,118.9711 120.0208,108.5778 121.4443,98.184 122.8686,87.7896 124.2937,77.3948 125.7197,66.9993" stroke="silver" stroke-opacity="0.5" stroke-width="1" /><polyline fill="none" points="758.4686,690.5712 757.8443,690.6541 752.6412,691.3388 747.4369,692.0134 742.2316,692.678 737.0252,693.3326 731.8177,693.977 726.6091,694.6115 721.3995,695.2358 716.1888,695.8501 710.9772,696.4544 705.7646,697.0486 700.5509,697.6327 695.3364,698.2067 690.1209,698.7707 684.9044,699.3247 679.6871,699.8685 674.4688,700.4023 669.2497,700.926 664.0298,701.4397 658.809,701.9433 653.5873,702.4368 648.3649,702.9202 643.1416,703.3936 637.9176,703.8569 632.6929,704.3101 627.4674,704.7533 622.2411,705.1864 617.0142,705.6094 611.7866,706.0223 606.5583,706.4251 601.3293,706.8179 596.0997,707.2006 590.8695,707.5732 585.6386,707.9357 580.4072,708.2882 575.1752,708.6305 569.9427,708.9628 564.7096,709.285 559.4759,709.5971 554.2418,709.8992 549.0072,710.1911 543.7721,710.473 538.5365,710.7448 533.3006,711.0065 528.0641,711.2581 522.8273,711.4996 517.5901,711.7311 512.3525,711.9524 507.1146,712.1637 501.8763,712.3649 496.6377,712.556 491.3988,712.737 486.1595,712.9079 480.9201,713.0687 475.6803,713.2195 470.4403,713.3601 465.2001,713.4907 459.9597,713.6112 454.7191,713.7216 449.4784,713.8219 444.2374,713.9121 438.9964,713.9922 433.7552,714.0622 428.5139,714.1222 423.2725,714.172 418.031,714.2118 412.7895,714.2414 407.5479,714.261 402.3063,714.2705 397.0647,714.2699 391.8231,714.2592 386.5816,714.2384 381.34,714.2075 376.0986,714.1666 370.8572,714.1155 365.6159,714.0543 360.3747,713.9831 355.1337,713.9018 349.8927,713.8104 344.652,713.7089 339.4114,713.5973 334.171,713.4756 328.9308,713.3438 323.6909,713.2019 318.4512,713.05 313.2117,712.8879 307.9726,712.7158 302.7337,712.5336 297.4951,712.3413 292.2569,712.1389 287.019,711.9264 281.7814,711.7038 276.5442,711.4712 271.3075,711.2284 266.0711,710.9756 260.8352,710.7127 255.5997,710.4397 250.3646,710.1566 245.1301,709.8635 239.896,709.5602 234.6624,709.2469 229.4294,708.9235 224.1969,708.59 218.965,708.2464 213.7336,707.8927 208.5029,707.529 203.2727,707.1552 198.0432,706.7713 192.8143,706.3773 187.5861,705.9733 182.3585,705.5591 177.1317,705.1349 171.9055,704.7006 166.6801,704.2563 161.4554,703.8018 156.2315,703.3373 151.0084,702.8628 145.786,702.3781 140.5645,701.8834 135.3438,701.3786 130.1239,700.8637 124.9049,700.3388 119.6868,699.8038 114.4696,699.2587 109.2532,698.7036 104.0378,698.1384 98.8234,697.5631 93.6099,696.9778 88.3974,696.3824 83.1858,695.777 77.9753,695.1614 72.7658,694.5359 67.5574,693.9002 62.35,693.2546 57.1437,692.5988 51.9385,691.933 46.7344,691.2571 41.5314,690.5712" stroke="silver" stroke-opacity="0.5" stroke-width="1" /><polyline fill="none" points="747.3927,607.3592 746.7878,607.4398 741.7458,608.1063 736.7027,608.7629 731.6585,609.4098 726.6133,610.0468 721.567,610.6741 716.5197,611.2916 711.4713,611.8993 706.4219,612.4973 701.3715,613.0854 696.3202,613.6637 691.2679,614.2323 686.2147,614.791 681.1605,615.34 676.1054,615.8791 671.0494,616.4085 665.9926,616.928 660.9349,617.4378 655.8763,617.9378 650.8169,618.4279 645.7567,618.9083 640.6957,619.3788 635.634,619.8396 630.5714,620.2905 625.5082,620.7317 620.4442,621.163 615.3795,621.5846 610.314,621.9963 605.2479,622.3982 600.1812,622.7903 595.1138,623.1726 590.0457,623.5451 584.9771,623.9078 579.9079,624.2607 574.838,624.6037 569.7676,624.937 564.6967,625.2604 559.6252,625.574 554.5532,625.8778 549.4807,626.1718 544.4078,626.456 539.3343,626.7304 534.2604,626.9949 529.1861,627.2496 524.1114,627.4946 519.0362,627.7297 513.9607,627.9549 508.8848,628.1704 503.8086,628.3761 498.732,628.5719 493.6551,628.7579 488.5779,628.9341 483.5004,629.1004 478.4227,629.257 473.3447,629.4037 468.2664,629.5406 463.1879,629.6677 458.1093,629.785 453.0304,629.8924 447.9514,629.9901 442.8722,630.0779 437.7929,630.1559 432.7134,630.224 427.6339,630.2824 422.5542,630.3309 417.4745,630.3696 412.3948,630.3985 407.315,630.4175 402.2351,630.4267 397.1553,630.4262 392.0755,630.4157 386.9957,630.3955 381.9159,630.3655 376.8362,630.3256 371.7566,630.2759 366.677,630.2164 361.5976,630.147 356.5183,630.0679 351.4391,629.9789 346.3601,629.8801 341.2813,629.7714 336.2026,629.653 331.1242,629.5247 326.046,629.3866 320.968,629.2387 315.8903,629.081 310.8128,628.9135 305.7357,628.7361 300.6588,628.5489 295.5823,628.3519 290.5061,628.1451 285.4302,627.9284 280.3547,627.702 275.2796,627.4657 270.2049,627.2196 265.1307,626.9637 260.0568,626.698 254.9835,626.4224 249.9105,626.1371 244.8381,625.8419 239.7662,625.5369 234.6948,625.2221 229.6239,624.8975 224.5536,624.5631 219.4838,624.2188 214.4146,623.8648 209.3461,623.5009 204.2781,623.1273 199.2108,622.7438 194.1441,622.3505 189.0781,621.9474 184.0127,621.5345 178.9481,621.1118 173.8842,620.6793 168.821,620.2369 163.7586,619.7848 158.6969,619.3229 153.636,618.8511 148.5759,618.3696 143.5166,617.8783 138.4582,617.3771 133.4005,616.8662 128.3438,616.3455 123.2879,615.8149 118.233,615.2746 113.1789,614.7245 108.1258,614.1646 103.0736,613.5948 98.0224,613.0153 92.9721,612.426 87.9229,611.8269 82.8746,611.218 77.8274,610.5994 72.7812,609.9709 67.7361,609.3327 62.6921,608.6846 57.6491,608.0268 52.6073,607.3592" stroke="silver" stroke-opacity="0.5" stroke-width="1" /><polyline fill="none" points="736.274,524.1916 735.6884,524.27 730.8082,524.9179 725.9269,525.5563 721.0445,526.1851 716.161,526.8045 711.2766,527.4143 706.3911,528.0146 701.5045,528.6054 696.617,529.1867 691.7286,529.7585 686.8391,530.3208 681.9487,530.8735 677.0574,531.4167 672.1652,531.9504 667.2721,532.4746 662.3781,532.9892 657.4833,533.4943 652.5876,533.9899 647.691,534.476 642.7937,534.9525 637.8956,535.4195 632.9966,535.877 628.097,536.325 623.1965,536.7634 618.2954,537.1923 613.3935,537.6116 608.4909,538.0214 603.5876,538.4217 598.6837,538.8125 593.7791,539.1937 588.8739,539.5654 583.968,539.9275 579.0616,540.2801 574.1546,540.6232 569.247,540.9568 564.3388,541.2807 559.4301,541.5952 554.5209,541.9001 549.6112,542.1955 544.7009,542.4813 539.7903,542.7576 534.8791,543.0243 529.9675,543.2816 525.0555,543.5292 520.1431,543.7673 515.2302,543.9959 510.317,544.2149 505.4035,544.4244 500.4896,544.6244 495.5753,544.8147 490.6608,544.9956 485.7459,545.1669 480.8308,545.3286 475.9154,545.4808 470.9998,545.6235 466.0839,545.7566 461.1678,545.8802 456.2515,545.9942 451.335,546.0987 446.4184,546.1936 441.5016,546.2789 436.5847,546.3548 431.6676,546.421 426.7504,546.4778 421.8332,546.5249 416.9159,546.5626 411.9985,546.5906 407.0811,546.6092 402.1637,546.6181 397.2462,546.6176 392.3288,546.6074 387.4114,546.5878 382.494,546.5585 377.5767,546.5198 372.6595,546.4715 367.7423,546.4136 362.8253,546.3462 357.9084,546.2692 352.9916,546.1827 348.075,546.0866 343.1585,545.981 338.2423,545.8659 333.3262,545.7411 328.4103,545.6069 323.4947,545.4631 318.5794,545.3097 313.6643,545.1468 308.7495,544.9744 303.8349,544.7924 298.9207,544.6009 294.0069,544.3998 289.0934,544.1892 284.1802,543.969 279.2674,543.7393 274.355,543.5 269.4431,543.2512 264.5315,542.9928 259.6204,542.725 254.7098,542.4475 249.7996,542.1605 244.89,541.864 239.9808,541.558 235.0722,541.2424 230.1641,540.9172 225.2566,540.5826 220.3496,540.2383 215.4432,539.8846 210.5375,539.5213 205.6323,539.1485 200.7278,538.7661 195.8239,538.3742 190.9208,537.9728 186.0183,537.5618 181.1165,537.1413 176.2154,536.7113 171.315,536.2717 166.4155,535.8226 161.5166,535.364 156.6186,534.8958 151.7213,534.4182 146.8249,533.9309 141.9293,533.4342 137.0346,532.9279 132.1407,532.4122 127.2477,531.8869 122.3556,531.352 117.4644,530.8077 112.5741,530.2538 107.6848,529.6904 102.7964,529.1175 97.909,528.535 93.0226,527.9431 88.1372,527.3416 83.2529,526.7307 78.3696,526.1102 73.4873,525.4802 68.6061,524.8406 63.726,524.1916" stroke="silver" stroke-opacity="0.5" stroke-width="1" /><polyline fill="none" points="725.1108,441.0558 724.5447,441.1319 719.8268,441.761 715.1079,442.3808 710.3879,442.9914 705.6669,443.5928 700.9448,444.1849 696.2218,444.7678 691.4978,445.3415 686.7728,445.9059 682.0468,446.4611 677.3199,447.007 672.5921,447.5437 667.8633,448.0711 663.1337,448.5893 658.4032,449.0983 653.6718,449.598 648.9396,450.0885 644.2066,450.5697 639.4727,451.0417 634.7381,451.5044 630.0026,451.9578 625.2664,452.4021 620.5295,452.837 615.7918,453.2627 611.0534,453.6792 606.3142,454.0864 601.5744,454.4843 596.834,454.873 592.0928,455.2524 587.3511,455.6226 582.6087,455.9835 577.8657,456.3351 573.1221,456.6775 568.3779,457.0107 563.6332,457.3345 558.8879,457.6491 554.1421,457.9545 549.3958,458.2505 544.649,458.5373 539.9017,458.8149 535.154,459.0832 530.4058,459.3422 525.6571,459.5919 520.9081,459.8324 516.1586,460.0636 511.4087,460.2856 506.6585,460.4983 501.908,460.7017 497.157,460.8958 492.4058,461.0807 487.6543,461.2563 482.9024,461.4226 478.1503,461.5797 473.3979,461.7275 468.6453,461.866 463.8925,461.9953 459.1394,462.1153 454.3862,462.226 449.6327,462.3274 444.8791,462.4196 440.1254,462.5025 435.3715,462.5761 430.6175,462.6405 425.8634,462.6955 421.1092,462.7414 416.355,462.7779 411.6007,462.8051 406.8463,462.8231 402.0919,462.8319 397.3375,462.8313 392.5832,462.8215 387.8288,462.8024 383.0745,462.774 378.3203,462.7363 373.5661,462.6894 368.812,462.6332 364.058,462.5678 359.3042,462.493 354.5504,462.409 349.7968,462.3157 345.0434,462.2132 340.2902,462.1014 335.5372,461.9803 330.7843,461.8499 326.0318,461.7103 321.2794,461.5614 316.5273,461.4032 311.7755,461.2357 307.024,461.059 302.2728,460.873 297.522,460.6778 292.7714,460.4732 288.0212,460.2594 283.2714,460.0364 278.522,459.8041 273.773,459.5625 269.0244,459.3116 264.2763,459.0515 259.5286,458.7821 254.7813,458.5034 250.0346,458.2155 245.2883,457.9183 240.5426,457.6119 235.7974,457.2961 231.0527,456.9712 226.3086,456.6369 221.5651,456.2934 216.8222,455.9407 212.0799,455.5787 207.3382,455.2074 202.5971,454.8268 197.8567,454.437 193.117,454.038 188.378,453.6297 183.6397,453.2121 178.9021,452.7853 174.1652,452.3492 169.4291,451.9039 164.6937,451.4493 159.9592,450.9855 155.2254,450.5124 150.4925,450.0301 145.7604,449.5385 141.0291,449.0377 136.2987,448.5277 131.5692,448.0083 126.8405,447.4798 122.1128,446.942 117.386,446.3949 112.6602,445.8386 107.9353,445.2731 103.2114,444.6984 98.4885,444.1144 93.7665,443.5211 89.0456,442.9186 84.3258,442.3069 79.607,441.686 74.8892,441.0558" stroke="silver" stroke-opacity="0.5" stroke-width="1" /><polyline fill="none" points="713.9014,357.9391 713.3549,358.0129 708.8,358.6229 704.2441,359.2239 699.6872,359.816 695.1292,360.3991 690.5703,360.9733 686.0103,361.5385 681.4494,362.0948 676.8876,362.6421 672.3248,363.1804 667.7611,363.7098 663.1965,364.2302 658.631,364.7417 654.0646,365.2441 649.4974,365.7377 644.9293,366.2222 640.3604,366.6978 635.7906,367.1645 631.2201,367.6221 626.6488,368.0708 622.0767,368.5105 617.5039,368.9413 612.9303,369.363 608.3561,369.7759 603.7811,370.1797 599.2054,370.5745 594.6291,370.9604 590.0521,371.3373 585.4744,371.7053 580.8961,372.0642 576.3173,372.4142 571.7378,372.7552 567.1577,373.0872 562.5771,373.4102 557.9959,373.7243 553.4142,374.0294 548.832,374.3254 544.2493,374.6126 539.666,374.8907 535.0824,375.1598 530.4982,375.42 525.9136,375.6711 521.3286,375.9133 516.7432,376.1465 512.1574,376.3708 507.5712,376.586 502.9846,376.7922 498.3977,376.9895 493.8105,377.1777 489.2229,377.357 484.6351,377.5273 480.047,377.6886 475.4585,377.8409 470.8699,377.9842 466.281,378.1186 461.6918,378.2439 457.1025,378.3603 452.513,378.4676 447.9233,378.566 443.3334,378.6554 438.7434,378.7358 434.1533,378.8071 429.563,378.8696 424.9726,378.923 420.3822,378.9674 415.7917,379.0028 411.2011,379.0292 406.6105,379.0467 402.0199,379.0551 397.4292,379.0546 392.8386,379.0451 388.248,379.0266 383.6575,378.999 379.067,378.9625 374.4765,378.917 369.8862,378.8625 365.2959,378.7991 360.7058,378.7266 356.1158,378.6451 351.5259,378.5547 346.9363,378.4552 342.3468,378.3468 337.7574,378.2293 333.1683,378.1029 328.5795,377.9675 323.9908,377.8231 319.4025,377.6697 314.8143,377.5073 310.2265,377.336 305.639,377.1556 301.0518,376.9663 296.465,376.7679 291.8784,376.5606 287.2923,376.3443 282.7065,376.119 278.1212,375.8847 273.5362,375.6415 268.9517,375.3892 264.3676,375.128 259.7839,374.8578 255.2008,374.5786 250.6181,374.2904 246.036,373.9932 241.4543,373.6871 236.8732,373.3719 232.2926,373.0478 227.7126,372.7147 223.1332,372.3727 218.5544,372.0216 213.9762,371.6616 209.3987,371.2926 204.8217,370.9146 200.2455,370.5276 195.6699,370.1317 191.095,369.7268 186.5208,369.3129 181.9473,368.8901 177.3746,368.4582 172.8026,368.0174 168.2314,367.5677 163.661,367.1089 159.0913,366.6412 154.5225,366.1646 149.9545,365.6789 145.3874,365.1843 140.8211,364.6808 136.2557,364.1682 131.6912,363.6467 127.1276,363.1163 122.5649,362.5769 118.0032,362.0285 113.4424,361.4712 108.8826,360.9049 104.3238,360.3296 99.7659,359.7454 95.2091,359.1523 90.6534,358.5502 86.0986,357.9391" stroke="silver" stroke-opacity="0.5" stroke-width="1" /><polyline fill="none" points="702.6441,274.829 702.1173,274.9004 697.7261,275.491 693.3339,276.073 688.9407,276.6463 684.5465,277.2109 680.1513,277.7668 675.7552,278.3141 671.3581,278.8527 666.9601,279.3826 662.5611,279.9039 658.1613,280.4164 653.7606,280.9203 649.359,281.4156 644.9565,281.9021 640.5532,282.38 636.1491,282.8492 631.7442,283.3097 627.3385,283.7615 622.932,284.2046 618.5247,284.6391 614.1167,285.0649 609.7079,285.482 605.2985,285.8904 600.8883,286.2901 596.4774,286.6811 592.0659,287.0634 587.6537,287.4371 583.2409,287.802 578.8274,288.1583 574.4133,288.5059 569.9986,288.8447 565.5834,289.1749 561.1675,289.4964 556.7512,289.8092 552.3342,290.1133 547.9168,290.4087 543.4989,290.6954 539.0804,290.9734 534.6615,291.2427 530.2421,291.5034 525.8223,291.7553 521.402,291.9985 516.9814,292.233 512.5603,292.4588 508.1388,292.6759 503.717,292.8843 499.2948,293.084 494.8723,293.275 490.4494,293.4573 486.0263,293.6309 481.6028,293.7958 477.1791,293.952 472.7551,294.0995 468.3308,294.2383 463.9064,294.3683 459.4817,294.4897 455.0567,294.6024 450.6317,294.7063 446.2064,294.8016 441.781,294.8881 437.3554,294.966 432.9297,295.0351 428.5039,295.0955 424.078,295.1473 419.652,295.1903 415.2259,295.2246 410.7998,295.2502 406.3737,295.2671 401.9475,295.2752 397.5213,295.2747 393.0952,295.2655 388.669,295.2476 384.2429,295.2209 379.8169,295.1856 375.3909,295.1415 370.965,295.0887 366.5392,295.0273 362.1135,294.9571 357.688,294.8782 353.2626,294.7906 348.8373,294.6943 344.4123,294.5893 339.9874,294.4756 335.5627,294.3532 331.1382,294.2221 326.714,294.0822 322.2901,293.9337 317.8664,293.7765 313.4429,293.6105 309.0198,293.4359 304.597,293.2526 300.1745,293.0605 295.7524,292.8598 291.3306,292.6503 286.9092,292.4322 282.4881,292.2053 278.0675,291.9697 273.6473,291.7255 269.2275,291.4725 264.8082,291.2109 260.3894,290.9405 255.971,290.6615 251.5531,290.3737 247.1357,290.0773 242.7188,289.7721 238.3025,289.4583 233.8868,289.1358 229.4716,288.8045 225.057,288.4646 220.643,288.116 216.2296,287.7587 211.8168,287.3927 207.4047,287.018 202.9932,286.6346 198.5824,286.2426 194.1723,285.8418 189.763,285.4324 185.3543,285.0142 180.9464,284.5874 176.5392,284.1519 172.1328,283.7077 167.7272,283.2549 163.3223,282.7933 158.9183,282.3231 154.5151,281.8442 150.1128,281.3566 145.7113,280.8603 141.3107,280.3554 136.9109,279.8418 132.5121,279.3195 128.1142,278.7885 123.7172,278.2489 119.3212,277.7006 114.9262,277.1436 110.5321,276.5779 106.139,276.0036 101.7469,275.4206 97.3559,274.829" stroke="silver" stroke-opacity="0.5" stroke-width="1" /><polyline fill="none" points="691.3373,191.7127 690.8302,191.7818 686.6034,192.3528 682.3756,192.9153 678.1468,193.4696 673.9171,194.0154 669.6863,194.5528 665.4547,195.0819 661.2221,195.6026 656.9887,196.1149 652.7543,196.6188 648.519,197.1143 644.2829,197.6015 640.0459,198.0802 635.8081,198.5506 631.5695,199.0126 627.3301,199.4662 623.0898,199.9114 618.8488,200.3482 614.6071,200.7766 610.3646,201.1966 606.1213,201.6082 601.8773,202.0114 597.6327,202.4063 593.3873,202.7927 589.1413,203.1707 584.8946,203.5403 580.6473,203.9016 576.3993,204.2544 572.1508,204.5988 567.9016,204.9349 563.6518,205.2625 559.4015,205.5817 555.1507,205.8925 550.8992,206.1949 546.6473,206.4889 542.3948,206.7745 538.1419,207.0517 533.8885,207.3204 529.6346,207.5808 525.3802,207.8328 521.1255,208.0763 516.8703,208.3114 512.6147,208.5382 508.3587,208.7565 504.1023,208.9664 499.8456,209.1679 495.5885,209.3609 491.3311,209.5456 487.0733,209.7218 482.8153,209.8897 478.557,210.0491 474.2984,210.2001 470.0395,210.3427 465.7804,210.4768 461.5211,210.6026 457.2616,210.7199 453.0018,210.8289 448.7419,210.9294 444.4818,211.0215 440.2216,211.1051 435.9612,211.1804 431.7007,211.2472 427.44,211.3057 423.1793,211.3557 418.9185,211.3972 414.6577,211.4304 410.3968,211.4552 406.1358,211.4715 401.8748,211.4794 397.6139,211.4789 393.3529,211.47 389.0919,211.4526 384.831,211.4269 380.5702,211.3927 376.3094,211.3501 372.0487,211.2991 367.7881,211.2397 363.5276,211.1718 359.2672,211.0955 355.007,211.0109 350.7469,210.9178 346.487,210.8162 342.2273,210.7063 337.9678,210.588 333.7085,210.4612 329.4494,210.326 325.1906,210.1824 320.932,210.0304 316.6737,209.87 312.4157,209.7011 308.158,209.5239 303.9007,209.3382 299.6436,209.1441 295.3869,208.9416 291.1306,208.7307 286.8746,208.5114 282.6191,208.2837 278.3639,208.0475 274.1092,207.803 269.8549,207.55 265.6011,207.2886 261.3477,207.0188 257.0948,206.7407 252.8424,206.4541 248.5906,206.1591 244.3392,205.8556 240.0884,205.5438 235.8381,205.2236 231.5885,204.895 227.3394,204.5579 223.0909,204.2125 218.843,203.8587 214.5957,203.4964 210.3491,203.1258 206.1032,202.7468 201.8579,202.3593 197.6133,201.9635 193.3695,201.5593 189.1263,201.1466 184.8839,200.7256 180.6422,200.2962 176.4013,199.8584 172.1612,199.4122 167.9218,198.9576 163.6833,198.4946 159.4456,198.0232 155.2087,197.5435 150.9727,197.0553 146.7375,196.5588 142.5033,196.0538 138.2699,195.5405 134.0375,195.0188 129.8059,194.4888 125.5753,193.9503 121.3457,193.4035 117.117,192.8483 112.8893,192.2847 108.6627,191.7127" stroke="silver" stroke-opacity="0.5" stroke-width="1" /><polyline fill="none" points="679.9792,108.5778 679.4919,108.6444 675.4302,109.1955 671.3675,109.7384 667.3039,110.2732 663.2393,110.8 659.1738,111.3187 655.1073,111.8293 651.04,112.3318 646.9718,112.8262 642.9027,113.3125 638.8328,113.7908 634.762,114.2609 630.6904,114.723 626.6179,115.1769 622.5447,115.6228 618.4707,116.0605 614.3959,116.4902 610.3204,116.9117 606.2441,117.3252 602.167,117.7306 598.0893,118.1278 594.0109,118.517 589.9318,118.898 585.852,119.271 581.7715,119.6358 577.6905,119.9926 573.6087,120.3412 569.5264,120.6817 565.4435,121.0141 561.36,121.3384 557.2759,121.6546 553.1913,121.9627 549.1061,122.2627 545.0204,122.5545 540.9342,122.8383 536.8475,123.1139 532.7603,123.3814 528.6727,123.6408 524.5845,123.8921 520.496,124.1353 516.407,124.3703 512.3176,124.5973 508.2279,124.8161 504.1377,125.0268 500.0472,125.2294 495.9563,125.4238 491.8651,125.6102 487.7735,125.7884 483.6817,125.9585 479.5895,126.1205 475.4971,126.2744 471.4044,126.4201 467.3114,126.5577 463.2183,126.6872 459.1248,126.8086 455.0312,126.9218 450.9374,127.027 446.8434,127.124 442.7493,127.2128 438.655,127.2936 434.5605,127.3662 430.466,127.4307 426.3713,127.4871 422.2765,127.5354 418.1817,127.5755 414.0868,127.6075 409.9918,127.6314 405.8968,127.6472 401.8018,127.6548 397.7068,127.6543 393.6118,127.6457 389.5168,127.629 385.4218,127.6041 381.3269,127.5711 377.2321,127.53 373.1373,127.4808 369.0427,127.4234 364.9481,127.358 360.8537,127.2843 356.7594,127.2026 352.6653,127.1128 348.5713,127.0148 344.4775,126.9087 340.3839,126.7945 336.2906,126.6721 332.1974,126.5416 328.1045,126.403 324.0118,126.2563 319.9194,126.1015 315.8273,125.9385 311.7355,125.7675 307.644,125.5883 303.5528,125.4009 299.462,125.2055 295.3715,125.0019 291.2813,124.7903 287.1916,124.5705 283.1023,124.3426 279.0134,124.1065 274.9249,123.8624 270.8368,123.6101 266.7492,123.3498 262.6621,123.0813 258.5754,122.8047 254.4893,122.5199 250.4036,122.2271 246.3185,121.9262 242.234,121.6171 238.15,121.2999 234.0665,120.9747 229.9837,120.6413 225.9014,120.2998 221.8198,119.9502 217.7388,119.5925 213.6584,119.2267 209.5787,118.8527 205.4997,118.4707 201.4213,118.0806 197.3437,117.6824 193.2667,117.276 189.1905,116.8616 185.1151,116.4391 181.0404,116.0084 176.9665,115.5697 172.8933,115.1229 168.821,114.6679 164.7495,114.2049 160.6788,113.7338 156.6089,113.2546 152.54,112.7673 148.4719,112.2719 144.4046,111.7684 140.3383,111.2569 136.2729,110.7372 132.2085,110.2095 128.1449,109.6737 124.0824,109.1298 120.0208,108.5778" stroke="silver" stroke-opacity="0.5" stroke-width="1" /><circle cx="662.6022" cy="92.0975" fill="black" r="0.738" stroke="none" /><circle cx="725.0746" cy="608.8862" fill="black" r="0.738" stroke="none" /><circle cx="682.451" cy="277.308" fill="black" r="0.738" stroke="none" /><circle cx="722.1515" cy="621.4241" fill="black" r="0.738" stroke="none" /><circle cx="689.5998" cy="362.6999" fill="black" r="0.738" stroke="none" /><circle cx="698.7928" cy="490.0737" fill="black" r="0.738" stroke="none" /><circle cx="660.4208" cy="259.8921" fill="black" r="0.738" stroke="none" /><circle cx="662.6493" cy="445.1843" fill="black" r="0.738" stroke="none" /><circle cx="681.2538" cy="633.0486" fill="black" r="0.738" stroke="none" /><circle cx="642.8123" cy="316.5397" fill="black" r="0.738" stroke="none" /><circle cx="658.0949" cy="545.3167" fill="black" r="0.738" stroke="none" /><circle cx="614.46" cy="169.269" fill="black" r="0.738" stroke="none" /><circle cx="604.6899" cy="89.5722" fill="black" r="0.936" stroke="none" /><circle cx="620.4959" cy="395.8535" fill="black" r="0.936" stroke="none" /><circle cx="602.2534" cy="222.9449" fill="black" r="0.738" stroke="none" /><circle cx="611.2808" cy="373.9734" fill="black" r="0.738" stroke="none" /><circle cx="629.7468" cy="594.4328" fill="black" r="0.738" stroke="none" /><circle cx="617.1358" cy="480.5768" fill="black" r="0.738" stroke="none" /><circle cx="576.2454" cy="81.6378" fill="black" r="0.738" stroke="none" /><circle cx="585.1135" cy="468.9061" fill="black" r="0.738" stroke="none" /><circle cx="591.9278" cy="577.7551" fill="black" r="0.738" stroke="none" /><circle cx="573.0173" cy="337.3648" fill="black" r="0.738" stroke="none" /><circle cx="581.6737" cy="494.124" fill="black" r="0.738" stroke="none" /><circle cx="581.0063" cy="494.0048" fill="black" r="0.738" stroke="none" /><circle cx="545.1322" cy="105.6467" fill="black" r="0.738" stroke="none" /><circle cx="562.8949" cy="403.2083" fill="black" r="0.738" stroke="none" /><circle cx="575.0164" cy="604.2556" fill="black" r="0.738" stroke="none" /><circle cx="544.7157" cy="202.1666" fill="black" r="0.738" stroke="none" /><circle cx="553.6672" cy="343.0233" fill="black" r="0.738" stroke="none" /><circle cx="543.2699" cy="209.6569" fill="black" r="0.738" stroke="none" /><circle cx="564.4827" cy="642.7487" fill="black" r="0.936" stroke="none" /><circle cx="563.6744" cy="646.9156" fill="black" r="0.738" stroke="none" /><circle cx="533.2951" cy="209.8768" fill="black" r="0.738" stroke="none" /><circle cx="562.9988" cy="702.4972" fill="black" r="0.738" stroke="none" /><circle cx="552.4175" cy="530.6083" fill="black" r="0.738" stroke="none" /><circle cx="541.6042" cy="406.7573" fill="black" r="0.738" stroke="none" /><circle cx="541.7194" cy="432.1008" fill="black" r="0.738" stroke="none" /><circle cx="548.2234" cy="691.3332" fill="black" r="0.738" stroke="none" /><circle cx="529.1862" cy="521.2513" fill="black" r="0.738" stroke="none" /><circle cx="507.4225" cy="157.0986" fill="black" r="0.738" stroke="none" /><circle cx="524.4916" cy="558.5772" fill="black" r="0.738" stroke="none" /><circle cx="508.459" cy="271.6022" fill="black" r="0.738" stroke="none" /><circle cx="507.511" cy="256.462" fill="black" r="0.738" stroke="none" /><circle cx="527.0323" cy="700.8945" fill="black" r="0.738" stroke="none" /><circle cx="505.8646" cy="532.914" fill="black" r="0.738" stroke="none" /><circle cx="486.4422" cy="311.9787" fill="black" r="0.738" stroke="none" /><circle cx="487.1068" cy="399.7382" fill="black" r="0.738" stroke="none" /><circle cx="474.8387" cy="118.9985" fill="black" r="0.738" stroke="none" /><circle cx="465.4662" cy="418.036" fill="black" r="0.738" stroke="none" /><circle cx="454.4538" cy="148.7433" fill="black" r="0.738" stroke="none" /><circle cx="464.7295" cy="552.8331" fill="black" r="0.738" stroke="none" /><circle cx="458.7669" cy="368.5976" fill="black" r="0.738" stroke="none" /><circle cx="455.091" cy="495.5647" fill="black" r="0.738" stroke="none" /><circle cx="442.8879" cy="258.8304" fill="black" r="0.738" stroke="none" /><circle cx="444.5065" cy="538.1822" fill="black" r="0.738" stroke="none" /><circle cx="439.9568" cy="636.1601" fill="black" r="0.738" stroke="none" /><circle cx="439.3102" cy="686.6467" fill="black" r="0.738" stroke="none" /><circle cx="429.8415" cy="473.8776" fill="black" r="0.738" stroke="none" /><circle cx="427.0032" cy="636.157" fill="black" r="0.738" stroke="none" /><circle cx="418.7272" cy="108.4524" fill="black" r="0.738" stroke="none" /><circle cx="418.4109" cy="146.1027" fill="black" r="0.738" stroke="none" /><circle cx="418.1804" cy="196.7361" fill="black" r="0.738" stroke="none" /><circle cx="417.5822" cy="592.399" fill="black" r="0.738" stroke="none" /><circle cx="413.5294" cy="98.0112" fill="black" r="0.738" stroke="none" /><circle cx="413.7355" cy="366.6166" fill="black" r="0.738" stroke="none" /><circle cx="408.9182" cy="224.9546" fill="black" r="0.738" stroke="none" /><circle cx="404.4288" cy="115.3254" fill="black" r="0.738" stroke="none" /><circle cx="393.9576" cy="290.5759" fill="black" r="0.738" stroke="none" /><circle cx="391.7546" cy="668.4749" fill="black" r="0.738" stroke="none" /><circle cx="390.669" cy="299.6974" fill="black" r="0.738" stroke="none" /><circle cx="385.5989" cy="183.6055" fill="black" r="0.936" stroke="none" /><circle cx="380.8279" cy="463.0925" fill="black" r="0.738" stroke="none" /><circle cx="380.3729" cy="170.2355" fill="black" r="0.738" stroke="none" /><circle cx="373.5365" cy="556.7046" fill="black" r="0.738" stroke="none" /><circle cx="377.7723" cy="138.2682" fill="black" r="0.738" stroke="none" /><circle cx="373.3979" cy="329.4724" fill="black" r="0.738" stroke="none" /><circle cx="372.4444" cy="389.3668" fill="black" r="0.738" stroke="none" /><circle cx="352.5629" cy="516.9255" fill="black" r="0.738" stroke="none" /><circle cx="347.289" cy="622.1016" fill="black" r="0.738" stroke="none" /><circle cx="355.6498" cy="142.3579" fill="black" r="0.738" stroke="none" /><circle cx="351.7851" cy="199.6237" fill="black" r="0.738" stroke="none" /><circle cx="340.1297" cy="672.0936" fill="black" r="0.738" stroke="none" /><circle cx="343.1369" cy="503.9056" fill="black" r="0.738" stroke="none" /><circle cx="337.3911" cy="566.1311" fill="black" r="0.936" stroke="none" /><circle cx="330.3559" cy="494.6111" fill="black" r="0.738" stroke="none" /><circle cx="340.4308" cy="131.9964" fill="black" r="0.738" stroke="none" /><circle cx="328.0544" cy="402.5106" fill="black" r="0.738" stroke="none" /><circle cx="313.8018" cy="711.4802" fill="black" r="0.738" stroke="none" /><circle cx="316.7771" cy="466.358" fill="black" r="0.738" stroke="none" /><circle cx="314.0326" cy="446.9802" fill="black" r="0.738" stroke="none" /><circle cx="299.3605" cy="658.5356" fill="black" r="0.738" stroke="none" /><circle cx="319.8523" cy="88.0812" fill="black" r="0.738" stroke="none" /><circle cx="313.3818" cy="170.311" fill="black" r="0.738" stroke="none" /><circle cx="304.3388" cy="285.1899" fill="black" r="0.738" stroke="none" /><circle cx="293.1241" cy="431.973" fill="black" r="0.738" stroke="none" /><circle cx="299.9696" cy="265.3702" fill="black" r="0.738" stroke="none" /><circle cx="295.9805" cy="322.8161" fill="black" r="0.738" stroke="none" /><circle cx="278.1843" cy="666.2955" fill="black" r="0.738" stroke="none" /><circle cx="276.605" cy="582.7977" fill="black" r="0.738" stroke="none" /><circle cx="292.2941" cy="189.0659" fill="black" r="0.738" stroke="none" /><circle cx="291.143" cy="120.5843" fill="black" r="0.738" stroke="none" /><circle cx="278.4644" cy="203.8553" fill="black" r="0.738" stroke="none" /><circle cx="273.4337" cy="118.226" fill="black" r="0.738" stroke="none" /><circle cx="264.4656" cy="188.066" fill="black" r="0.738" stroke="none" /><circle cx="233.4818" cy="661.5265" fill="black" r="0.738" stroke="none" /><circle cx="248.897" cy="290.2805" fill="black" r="0.738" stroke="none" /><circle cx="227.0473" cy="611.5361" fill="black" r="0.738" stroke="none" /><circle cx="249.318" cy="265.7806" fill="black" r="0.738" stroke="none" /><circle cx="221.0732" cy="683.5019" fill="black" r="0.738" stroke="none" /><circle cx="240.1092" cy="252.7823" fill="black" r="0.738" stroke="none" /><circle cx="236.0668" cy="132.2405" fill="black" r="0.738" stroke="none" /><circle cx="221.2868" cy="311.9611" fill="black" r="0.738" stroke="none" /><circle cx="222.7957" cy="275.3388" fill="black" r="0.738" stroke="none" /><circle cx="222.7872" cy="275.0018" fill="black" r="0.738" stroke="none" /><circle cx="190.4173" cy="664.5421" fill="black" r="0.738" stroke="none" /><circle cx="196.0903" cy="591.9709" fill="black" r="0.738" stroke="none" /><circle cx="196.8748" cy="555.3635" fill="black" r="0.738" stroke="none" /><circle cx="201.8701" cy="468.9791" fill="black" r="0.936" stroke="none" /><circle cx="217.897" cy="249.5438" fill="black" r="0.936" stroke="none" /><circle cx="205.1116" cy="366.5654" fill="black" r="0.936" stroke="none" /><circle cx="183.0507" cy="523.0037" fill="black" r="0.738" stroke="none" /><circle cx="169.3067" cy="679.5554" fill="black" r="0.738" stroke="none" /><circle cx="189.4639" cy="338.3556" fill="black" r="0.738" stroke="none" /><circle cx="206.7169" cy="137.2034" fill="black" r="0.738" stroke="none" /><circle cx="178.7826" cy="352.173" fill="black" r="0.738" stroke="none" /><circle cx="147.1033" cy="673.6782" fill="black" r="0.936" stroke="none" /><circle cx="155.1578" cy="464.9135" fill="black" r="0.738" stroke="none" /><circle cx="161.5136" cy="371.8619" fill="black" r="0.738" stroke="none" /><circle cx="141.5524" cy="466.8832" fill="black" r="0.738" stroke="none" /><circle cx="141.221" cy="458.7543" fill="black" r="0.738" stroke="none" /><circle cx="158.7278" cy="290.3977" fill="black" r="0.738" stroke="none" /><circle cx="110.0786" cy="609.4863" fill="black" r="0.738" stroke="none" /><circle cx="100.3909" cy="686.5052" fill="black" r="0.738" stroke="none" /><circle cx="118.932" cy="519.4955" fill="black" r="0.738" stroke="none" /><circle cx="146.963" cy="236.1016" fill="black" r="0.738" stroke="none" /><circle cx="121.6652" cy="418.1923" fill="black" r="0.738" stroke="none" /><circle cx="107.9936" cy="526.0112" fill="black" r="0.738" stroke="none" /><circle cx="143.2563" cy="148.4869" fill="black" r="0.738" stroke="none" /><circle cx="146.4572" cy="74.5575" fill="black" r="0.738" stroke="none" /><circle cx="126.2029" cy="226.9204" fill="black" r="0.738" stroke="none" /><circle cx="65.1154" cy="687.0" fill="black" r="0.738" stroke="none" /><circle cx="108.3859" cy="333.8804" fill="black" r="0.738" stroke="none" /><circle cx="135.8332" cy="84.0225" fill="black" r="0.738" stroke="none" /><circle cx="66.0774" cy="579.4238" fill="black" r="0.738" stroke="none" /><circle cx="13.77" cy="786.23" fill="black" r="4.59" stroke="none" /><circle cx="13.77" cy="786.23" fill="black" r="4.59" stroke="none" /><text fill="black" font-family="monospace" font-size="12" x="10.77" y="775.64">1</text><circle cx="37.77" cy="786.23" fill="black" r="3.654" stroke="none" /><circle cx="37.77" cy="786.23" fill="black" r="3.654" stroke="none" /><text fill="black" font-family="monospace" font-size="12" x="34.769999999999996" y="775.64">2</text><circle cx="61.77" cy="786.23" fill="black" r="2.916" stroke="none" /><circle cx="61.77" cy="786.23" fill="black" r="2.916" stroke="none" /><text fill="black" font-family="monospace" font-size="12" x="58.769999999999996" y="775.64">3</text><circle cx="85.77" cy="786.23" fill="black" r="2.322" stroke="none" /><circle cx="85.77" cy="786.23" fill="black" r="2.322" stroke="none" /><text fill="black" font-family="monospace" font-size="12" x="82.77" y="775.64">4</text><circle cx="109.77" cy="786.23" fill="black" r="1.854" stroke="none" /><circle cx="109.77" cy="786.23" fill="black" r="1.854" stroke="none" /><text fill="black" font-family="monospace" font-size="12" x="106.77" y="775.64">5</text><circle cx="133.77" cy="786.23" fill="black" r="1.476" stroke="none" /><circle cx="133.77" cy="786.23" fill="black" r="1.476" stroke="none" /><text fill="black" font-family="monospace" font-size="12" x="130.77" y="775.64">6</text><circle cx="157.77" cy="786.23" fill="black" r="1.17" stroke="none" /><circle cx="157.77" cy="786.23" fill="black" r="1.17" stroke="none" /><text fill="black" font-family="monospace" font-size="12" x="154.77" y="775.64">7</text><circle cx="181.77" cy="786.23" fill="black" r="0.936" stroke="none" /><circle cx="181.77" cy="786.23" fill="black" r="0.936" stroke="none" /><text fill="black" font-family="monospace" font-size="12" x="178.77" y="775.64">8</text><circle cx="205.77" cy="786.23" fill="black" r="0.738" stroke="none" /><circle cx="205.77" cy="786.23" fill="black" r="0.738" stroke="none" /><text fill="black" font-family="monospace" font-size="12" x="202.77" y="775.64">9</text><text fill="gray" fill-opacity="0.5" font-family="monospace" font-size="12" x="669.2497285687834" y="700.9260425214699">07h00m</text><text fill="gray" fill-opacity="0.5" font-family="monospace" font-size="12" x="512.3525121159473" y="711.9524289935831">07h15m</text><text fill="gray" fill-opacity="0.5" font-family="monospace" font-size="12" x="355.13365377188416" y="713.9017791789945">07h30m</text><text fill="gray" fill-opacity="0.5" font-family="monospace" font-size="12" x="198.04319495186513" y="706.7712825677622">07h45m</text><text fill="gray" fill-opacity="0.5" font-family="monospace" font-size="12" x="41.53141706056766" y="690.5712362405535">08h00m</text><text fill="gray" fill-opacity="0.5" font-family="monospace" font-size="12" x="41.53141706056766" y="690.5712362405535">+60°</text><text fill="gray" fill-opacity="0.5" font-family="monospace" font-size="12" x="52.607288142671166" y="607.3592124410467">+61°</text><text fill="gray" fill-opacity="0.5" font-family="monospace" font-size="12" x="63.72601939455069" y="524.1916174666117">+62°</text><text fill="gray" fill-opacity="0.5" font-family="monospace" font-size="12" x="74.88924651937322" y="441.05579924666256">+63°</text><text fill="gray" fill-opacity="0.5" font-family="monospace" font-size="12" x="86.09863233483918" y="357.93912500363354">+64°</text><text fill="gray" fill-opacity="0.5" font-family="monospace" font-size="12" x="97.3558677521828" y="274.82897358297345">+65°</text><text fill="gray" fill-opacity="0.5" font-family="monospace" font-size="12" x="108.66267279149832" y="191.71272779811684">+66°</text><text fill="gray" fill-opacity="0.5" font-family="monospace" font-size="12" x="120.02079763467975" y="108.57776678058701">+67°</text><text fill="black" font-family="monospace" font-size="12" x="12" y="48">&gt;&gt; No.733 06h51m 08h00m +60.0°+67.5°</text><a target="_self" xlink:href="hip040.svg"><text fill="black" font-family="monospace" font-size="12" x="12" y="36">&gt; No.40 00h00m 08h00m +52.5°+90.0°</text></a><a target="_self" xlink:href="hip002.svg"><text fill="black" font-family="monospace" font-size="12" x="12" y="24">No.2 00h 24h +0.0°+90.0°</text></a><polyline fill="none" points="674.2803,66.9993 673.8029,67.0648 669.8241,67.6057 665.8442,68.1387 661.8635,68.6638 657.8817,69.1809 653.8991,69.6901 649.9156,70.1914 645.9312,70.6847 641.9459,71.1701 637.9597,71.6475 633.9727,72.117 629.9848,72.5785 625.9962,73.0321 622.0067,73.4778 618.0165,73.9155 614.0255,74.3453 610.0337,74.7671 606.0411,75.1809 602.0479,75.5868 598.0539,75.9848 594.0592,76.3748 590.0638,76.7568 586.0678,77.1309 582.071,77.497 578.0737,77.8552 574.0757,78.2054 570.0771,78.5477 566.0778,78.882 562.078,79.2083 558.0777,79.5267 554.0767,79.8371 550.0752,80.1396 546.0732,80.4341 542.0706,80.7206 538.0676,80.9992 534.064,81.2698 530.06,81.5324 526.0555,81.7871 522.0506,82.0338 518.0452,82.2725 514.0395,82.5033 510.0333,82.7261 506.0267,82.9409 502.0197,83.1477 498.0124,83.3466 494.0048,83.5375 489.9968,83.7205 485.9884,83.8954 481.9798,84.0624 477.9709,84.2215 473.9617,84.3725 469.9523,84.5156 465.9426,84.6507 461.9326,84.7778 457.9225,84.897 453.9121,85.0082 449.9016,85.1114 445.8908,85.2066 441.8799,85.2939 437.8689,85.3731 433.8577,85.4445 429.8464,85.5078 425.835,85.5631 421.8235,85.6105 417.8119,85.6499 413.8003,85.6813 409.7886,85.7048 405.7769,85.7203 401.7652,85.7278 397.7534,85.7273 393.7417,85.7188 389.73,85.7024 385.7183,85.678 381.7067,85.6456 377.6951,85.6053 373.6836,85.5569 369.6722,85.5006 365.6609,85.4363 361.6498,85.3641 357.6388,85.2838 353.6279,85.1956 349.6172,85.0994 345.6066,84.9952 341.5963,84.8831 337.5862,84.763 333.5763,84.6349 329.5666,84.4988 325.5572,84.3548 321.548,84.2028 317.5391,84.0428 313.5305,83.8749 309.5223,83.6989 305.5143,83.515 301.5067,83.3232 297.4994,83.1233 293.4925,82.9155 289.486,82.6997 285.4798,82.476 281.4741,82.2443 277.4688,82.0046 273.4639,81.7569 269.4595,81.5013 265.4555,81.2377 261.452,80.9662 257.449,80.6867 253.4466,80.3992 249.4446,80.1037 245.4432,79.8003 241.4423,79.4889 237.442,79.1696 233.4422,78.8423 229.4431,78.5071 225.4445,78.1638 221.4466,77.8127 217.4493,77.4535 213.4527,77.0864 209.4567,76.7114 205.4614,76.3284 201.4668,75.9374 197.4729,75.5385 193.4797,75.1317 189.4873,74.7169 185.4956,74.2941 181.5046,73.8634 177.5145,73.4247 173.5251,72.9781 169.5366,72.5236 165.5488,72.0611 161.5619,71.5906 157.5759,71.1122 153.5907,70.6259 149.6064,70.1316 145.6229,69.6294 141.6404,69.1193 137.6588,68.6012 133.6781,68.0752 129.6984,67.5412 125.7197,66.9993" stroke="black" stroke-opacity="0.5" stroke-width="1" /><polyline fill="none" points="758.4686,690.5712 757.0864,680.1669 755.7035,669.7634 754.3201,659.3607 752.9359,648.9589 751.5511,638.5578 750.1656,628.1576 748.7795,617.758 747.3927,607.3592 746.0052,596.9611 744.6171,586.5636 743.2283,576.1668 741.8388,565.7707 740.4486,555.3751 739.0578,544.98 737.6662,534.5856 736.274,524.1916 734.881,513.7982 733.4874,503.4052 732.0931,493.0126 730.698,482.6205 729.3023,472.2288 727.9058,461.8375 726.5086,451.4465 725.1108,441.0558 723.7121,430.6654 722.3128,420.2753 720.9127,409.8855 719.5119,399.4959 718.1104,389.1064 716.7081,378.7172 715.3051,368.3281 713.9014,357.9391 712.4969,347.5503 711.0916,337.1615 709.6856,326.7727 708.2788,316.384 706.8713,305.9953 705.463,295.6066 704.054,285.2178 702.6441,274.829 701.2335,264.44 699.8221,254.051 698.41,243.6618 696.997,233.2724 695.5833,222.8828 694.1688,212.4931 692.7534,202.103 691.3373,191.7127 689.9204,181.3221 688.5027,170.9312 687.0841,160.54 685.6648,150.1484 684.2446,139.7564 682.8236,129.364 681.4018,118.9711 679.9792,108.5778 678.5557,98.184 677.1314,87.7896 675.7063,77.3948 674.2803,66.9993" stroke="black" stroke-opacity="0.5" stroke-width="1" /><polyline fill="none" points="758.4686,690.5712 757.8443,690.6541 752.6412,691.3388 747.4369,692.0134 742.2316,692.678 737.0252,693.3326 731.8177,693.977 726.6091,694.6115 721.3995,695.2358 716.1888,695.8501 710.9772,696.4544 705.7646,697.0486 700.5509,697.6327 695.3364,698.2067 690.1209,698.7707 684.9044,699.3247 679.6871,699.8685 674.4688,700.4023 669.2497,700.926 664.0298,701.4397 658.809,701.9433 653.5873,702.4368 648.3649,702.9202 643.1416,703.3936 637.9176,703.8569 632.6929,704.3101 627.4674,704.7533 622.2411,705.1864 617.0142,705.6094 611.7866,706.0223 606.5583,706.4251 601.3293,706.8179 596.0997,707.2006 590.8695,707.5732 585.6386,707.9357 580.4072,708.2882 575.1752,708.6305 569.9427,708.9628 564.7096,709.285 559.4759,709.5971 554.2418,709.8992 549.0072,710.1911 543.7721,710.473 538.5365,710.7448 533.3006,711.0065 528.0641,711.2581 522.8273,711.4996 517.5901,711.7311 512.3525,711.9524 507.1146,712.1637 501.8763,712.3649 496.6377,712.556 491.3988,712.737 486.1595,712.9079 480.9201,713.0687 475.6803,713.2195 470.4403,713.3601 465.2001,713.4907 459.9597,713.6112 454.7191,713.7216 449.4784,713.8219 444.2374,713.9121 438.9964,713.9922 433.7552,714.0622 428.5139,714.1222 423.2725,714.172 418.031,714.2118 412.7895,714.2414 407.5479,714.261 402.3063,714.2705 397.0647,714.2699 391.8231,714.2592 386.5816,714.2384 381.34,714.2075 376.0986,714.1666 370.8572,714.1155 365.6159,714.0543 360.3747,713.9831 355.1337,713.9018 349.8927,713.8104 344.652,713.7089 339.4114,713.5973 334.171,713.4756 328.9308,713.3438 323.6909,713.2019 318.4512,713.05 313.2117,712.8879 307.9726,712.7158 302.7337,712.5336 297.4951,712.3413 292.2569,712.1389 287.019,711.9264 281.7814,711.7038 276.5442,711.4712 271.3075,711.2284 266.0711,710.9756 260.8352,710.7127 255.5997,710.4397 250.3646,710.1566 245.1301,709.8635 239.896,709.5602 234.6624,709.2469 229.4294,708.9235 224.1969,708.59 218.965,708.2464 213.7336,707.8927 208.5029,707.529 203.2727,707.1552 198.0432,706.7713 192.8143,706.3773 187.5861,705.9733 182.3585,705.5591 177.1317,705.1349 171.9055,704.7006 166.6801,704.2563 161.4554,703.8018 156.2315,703.3373 151.0084,702.8628 145.786,702.3781 140.5645,701.8834 135.3438,701.3786 130.1239,700.8637 124.9049,700.3388 119.6868,699.8038 114.4696,699.2587 109.2532,698.7036 104.0378,698.1384 98.8234,697.5631 93.6099,696.9778 88.3974,696.3824 83.1858,695.777 77.9753,695.1614 72.7658,694.5359 67.5574,693.9002 62.35,693.2546 57.1437,692.5988 51.9385,691.933 46.7344,691.2571 41.5314,690.5712" stroke="black" stroke-opacity="0.5" stroke-width="1" /><polyline fill="none" points="41.5314,690.5712 42.9136,680.1669 44.2965,669.7634 45.6799,659.3607 47.0641,648.9589 48.4489,638.5578 49.8344,628.1576 51.2205,617.758 52.6073,607.3592 53.9948,596.9611 55.3829,586.5636 56.7717,576.1668 58.1612,565.7707 59.5514,555.3751 60.9422,544.98 62.3338,534.5856 63.726,524.1916 65.119,513.7982 66.5126,503.4052 67.9069,493.0126 69.302,482.6205 70.6977,472.2288 72.0942,461.8375 73.4914,451.4465 74.8892,441.0558 76.2879,430.6654 77.6872,420.2753 79.0873,409.8855 80.4881,399.4959 81.8896,389.1064 83.2919,378.7172 84.6949,368.3281 86.0986,357.9391 87.5031,347.5503 88.9084,337.1615 90.3144,326.7727 91.7212,316.384 93.1287,305.9953 94.537,295.6066 95.946,285.2178 97.3559,274.829 98.7665,264.44 100.1779,254.051 101.59,243.6618 103.003,233.2724 104.4167,222.8828 105.8312,212.4931 107.2466,202.103 108.6627,191.7127 110.0796,181.3221 111.4973,170.9312 112.9159,160.54 114.3352,150.1484 115.7554,139.7564 117.1764,129.364 118.5982,118.9711 120.0208,108.5778 121.4443,98.184 122.8686,87.7896 124.2937,77.3948 125.7197,66.9993" stroke="black" stroke-opacity="0.5" stroke-width="1" /></svg>