<?xml version="1.0" encoding="utf-8" ?>
<svg baseProfile="tiny" height="800" version="1.2" width="800" xmlns="http://www.w3.org/2000/svg" xmlns:ev="http://www.w3.org/2001/xml-events" xmlns:xlink="http://www.w3.org/1999/xlink"><defs /><rect fill="none" height="800" stroke="black" stroke-width="2" width="800" x="0" y="0" /><polyline fill="none" points="739.8978,698.1751 738.9056,687.7273 737.9128,677.2803 736.9194,666.8341 735.9252,656.3887 734.9304,645.9441 733.9349,635.5001 732.9388,625.0569 731.9419,614.6143 730.9444,604.1724 729.9462,593.7312 728.9473,583.2905 727.9478,572.8504 726.9475,562.4108 725.9465,551.9718 724.9449,541.5333 723.9426,531.0953 722.9395,520.6577 721.9358,510.2206 720.9313,499.7838 719.9262,489.3474 718.9203,478.9114 717.9138,468.4757 716.9065,458.0404 715.8985,447.6053 714.8898,437.1704 713.8804,426.7358 712.8702,416.3014 711.8593,405.8672 710.8477,395.4331 709.8354,384.9992 708.8223,374.5653 707.8085,364.1316 706.794,353.6979 705.7787,343.2643 704.7627,332.8306 703.746,322.3969 702.7285,311.9632 701.7102,301.5295 700.6912,291.0956 699.6715,280.6616 698.651,270.2275 697.6297,259.7932 696.6077,249.3587 695.5849,238.924 694.5613,228.4891 693.537,218.0539 692.5119,207.6184 691.4861,197.1826 690.4594,186.7465 689.432,176.31 688.4038,165.8731 687.3748,155.4358 686.345,144.998 685.3145,134.5598 684.2831,124.1211 683.251,113.6819 682.2181,103.2422 681.1843,92.8019 680.1498,82.361 679.1145,71.9195" stroke="silver" stroke-opacity="0.5" stroke-width="1" /><polyline fill="none" points="612.5483,707.9858 611.9283,697.5166 611.3079,687.0482 610.6871,676.5805 610.0658,666.1136 609.4442,655.6473 608.8221,645.1817 608.1996,634.7168 607.5766,624.2524 606.9533,613.7887 606.3295,603.3255 605.7053,592.8628 605.0806,582.4007 604.4555,571.939 603.83,561.4778 603.204,551.0171 602.5776,540.5568 601.9508,530.0968 601.3235,519.6372 600.6958,509.178 600.0676,498.7191 599.439,488.2605 598.81,477.8021 598.1805,467.344 597.5505,456.8861 596.9201,446.4284 596.2893,435.9708 595.658,425.5134 595.0262,415.0561 594.394,404.5989 593.7613,394.1418 593.1282,383.6847 592.4946,373.2276 591.8605,362.7705 591.226,352.3134 590.591,341.8562 589.9556,331.399 589.3196,320.9416 588.6832,310.4841 588.0464,300.0264 587.409,289.5686 586.7712,279.1106 586.1329,268.6523 585.4941,258.1938 584.8549,247.7349 584.2152,237.2758 583.575,226.8164 582.9343,216.3566 582.2931,205.8964 581.6514,195.4358 581.0092,184.9748 580.3666,174.5133 579.7235,164.0513 579.0798,153.5889 578.4357,143.1259 577.7911,132.6623 577.1459,122.1982 576.5003,111.7335 575.8542,101.2681 575.2075,90.8021 574.5604,80.3354" stroke="silver" stroke-opacity="0.5" stroke-width="1" /><polyline fill="none" points="484.9992,713.267 484.7514,702.7863 484.5034,692.3064 484.2552,681.8272 484.0069,671.3487 483.7584,660.8708 483.5097,650.3935 483.2608,639.9169 483.0118,629.4408 482.7626,618.9653 482.5132,608.4904 482.2637,598.0159 482.014,587.5419 481.7641,577.0684 481.514,566.5953 481.2638,556.1226 481.0134,545.6502 480.7628,535.1783 480.512,524.7066 480.2611,514.2353 480.0099,503.7643 479.7586,493.2935 479.5072,482.8229 479.2555,472.3526 479.0037,461.8824 478.7516,451.4124 478.4994,440.9425 478.2471,430.4727 477.9945,420.003 477.7417,409.5334 477.4888,399.0638 477.2357,388.5942 476.9824,378.1246 476.7289,367.6549 476.4752,357.1852 476.2214,346.7153 475.9673,336.2454 475.7131,325.7753 475.4587,315.3051 475.2041,304.8346 474.9492,294.364 474.6943,283.893 474.4391,273.4219 474.1837,262.9504 473.9281,252.4786 473.6724,242.0065 473.4164,231.534 473.1603,221.0611 472.9039,210.5878 472.6474,200.1141 472.3906,189.6399 472.1337,179.1652 471.8766,168.69 471.6193,158.2142 471.3617,147.7379 471.104,137.261 470.8461,126.7834 470.588,116.3052 470.3296,105.8264 470.0711,95.3469 469.8124,84.8666" stroke="silver" stroke-opacity="0.5" stroke-width="1" /><polyline fill="none" points="357.3705,714.0188 357.4948,703.5365 357.6192,693.055 357.7437,682.5741 357.8682,672.094 357.9928,661.6144 358.1176,651.1355 358.2424,640.6572 358.3673,630.1795 358.4922,619.7023 358.6173,609.2257 358.7424,598.7495 358.8677,588.2738 358.993,577.7986 359.1184,567.3238 359.2439,556.8494 359.3695,546.3754 359.4951,535.9017 359.6209,525.4284 359.7468,514.9553 359.8727,504.4826 359.9987,494.01 360.1248,483.5377 360.251,473.0657 360.3773,462.5937 360.5037,452.122 360.6302,441.6503 360.7568,431.1788 360.8834,420.7073 361.0102,410.2359 361.137,399.7645 361.264,389.2932 361.391,378.8217 361.5181,368.3503 361.6454,357.8788 361.7727,347.4071 361.9001,336.9354 362.0276,326.4635 362.1552,315.9914 362.2829,305.5192 362.4107,295.0467 362.5385,284.5739 362.6665,274.1009 362.7946,263.6276 362.9228,253.154 363.051,242.68 363.1794,232.2057 363.3078,221.7309 363.4364,211.2558 363.5651,200.7802 363.6938,190.3041 363.8227,179.8275 363.9516,169.3504 364.0807,158.8727 364.2098,148.3945 364.3391,137.9157 364.4684,127.4362 364.5979,116.9562 364.7274,106.4754 364.8571,95.9939 364.9868,85.5118" stroke="silver" stroke-opacity="0.5" stroke-width="1" /><polyline fill="none" points="229.7818,710.2414 230.2782,699.7673 230.775,689.294 231.2721,678.8214 231.7695,668.3495 232.2673,657.8783 232.7654,647.4077 233.2639,636.9377 233.7627,626.4684 234.2618,615.9996 234.7613,605.5314 235.2611,595.0637 235.7613,584.5965 236.2618,574.1298 236.7627,563.6635 237.2639,553.1976 237.7655,542.7322 238.2674,532.2671 238.7697,521.8024 239.2723,511.338 239.7753,500.8739 240.2787,490.4101 240.7824,479.9465 241.2864,469.4831 241.7909,459.02 242.2956,448.557 242.8008,438.0942 243.3063,427.6315 243.8122,417.1689 244.3184,406.7064 244.825,396.2439 245.332,385.7815 245.8394,375.3191 246.3471,364.8566 246.8552,354.3941 247.3636,343.9315 247.8725,333.4688 248.3817,323.006 248.8913,312.5431 249.4012,302.08 249.9116,291.6167 250.4223,281.1531 250.9334,270.6893 251.4449,260.2253 251.9568,249.7609 252.4691,239.2963 252.9817,228.8312 253.4947,218.3658 254.0082,207.9001 254.522,197.4338 255.0362,186.9672 255.5508,176.5001 256.0658,166.0324 256.5812,155.5643 257.097,145.0956 257.6132,134.6263 258.1298,124.1565 258.6468,113.686 259.1642,103.2149 259.682,92.7431 260.2002,82.2706" stroke="silver" stroke-opacity="0.5" stroke-width="1" /><polyline fill="none" points="102.3527,701.9345 103.2213,691.4785 104.0905,681.0233 104.9602,670.5689 105.8306,660.1152 106.7015,649.6623 107.573,639.2101 108.4451,628.7585 109.3178,618.3076 110.1911,607.8573 111.065,597.4076 111.9395,586.9585 112.8146,576.51 113.6903,566.062 114.5666,555.6144 115.4436,545.1674 116.3211,534.7208 117.1992,524.2747 118.078,513.8289 118.9574,503.3836 119.8374,492.9385 120.718,482.4939 121.5992,472.0495 122.4811,461.6054 123.3636,451.1615 124.2467,440.7179 125.1305,430.2745 126.0149,419.8313 126.8999,409.3882 127.7855,398.9453 128.6718,388.5025 129.5588,378.0597 130.4464,367.617 131.3346,357.1744 132.2235,346.7317 133.113,336.289 134.0032,325.8463 134.894,315.4036 135.7855,304.9607 136.6777,294.5177 137.5705,284.0746 138.4639,273.6313 139.3581,263.1878 140.2529,252.7441 141.1484,242.3002 142.0445,231.856 142.9413,221.4115 143.8388,210.9666 144.737,200.5215 145.6358,190.076 146.5354,179.6301 147.4356,169.1838 148.3365,158.737 149.2381,148.2898 150.1404,137.8421 151.0434,127.3939 151.9471,116.9451 152.8514,106.4958 153.7565,96.0459 154.6623,85.5954 155.5688,75.1442" stroke="silver" stroke-opacity="0.5" stroke-width="1" /><polyline fill="none" points="735.9252,656.3887 729.6388,656.9816 723.3517,657.5632 717.0638,658.1337 710.7751,658.6929 704.4857,659.2409 698.1955,659.7776 691.9046,660.3031 685.6131,660.8174 679.3209,661.3205 673.028,661.8124 666.7344,662.293 660.4403,662.7624 654.1455,663.2206 647.8501,663.6676 641.5541,664.1033 635.2575,664.5278 628.9604,664.9411 622.6627,665.3431 616.3645,665.734 610.0658,666.1136 603.7666,666.482 597.4669,666.8391 591.1668,667.1851 584.8662,667.5198 578.5651,667.8433 572.2636,668.1555 565.9617,668.4566 559.6595,668.7464 553.3568,669.025 547.0538,669.2923 540.7504,669.5485 534.4467,669.7934 528.1427,670.0271 521.8384,670.2496 515.5338,670.4608 509.2289,670.6608 502.9237,670.8496 496.6183,671.0272 490.3127,671.1935 484.0069,671.3487 477.7008,671.4926 471.3946,671.6252 465.0882,671.7467 458.7817,671.8569 452.475,671.9559 446.1682,672.0437 439.8613,672.1202 433.5543,672.1856 427.2472,672.2397 420.94,672.2825 414.6328,672.3142 408.3256,672.3346 402.0183,672.3438 395.7111,672.3418 389.4038,672.3286 383.0966,672.3041 376.7894,672.2684 370.4823,672.2215 364.1752,672.1633 357.8682,672.094 351.5613,672.0134 345.2546,671.9216 338.9479,671.8185 332.6415,671.7042 326.3351,671.5788 320.029,671.442 313.723,671.2941 307.4172,671.1349 301.1117,670.9646 294.8064,670.7829 288.5013,670.5901 282.1965,670.3861 275.892,670.1708 269.5878,669.9443 263.2839,669.7065 256.9803,669.4576 250.6771,669.1974 244.3742,668.926 238.0717,668.6433 231.7695,668.3495 225.4678,668.0444 219.1665,667.7281 212.8656,667.4006 206.5651,667.0618 200.2651,666.7118 193.9656,666.3506 187.6666,665.9782 181.3681,665.5946 175.0701,665.1997 168.7726,664.7936 162.4757,664.3763 156.1793,663.9477 149.8835,663.5079 143.5883,663.0569 137.2938,662.5947 130.9998,662.1213 124.7065,661.6366 118.4139,661.1407 112.1219,660.6336 105.8306,660.1152 99.54,659.5857 93.2501,659.0449 86.9609,658.4929 80.6725,657.9296 74.3848,657.3551 68.098,656.7694 64.0748,656.3887" stroke="silver" stroke-opacity="0.5" stroke-width="1" /><polyline fill="none" points="727.9478,572.8504 721.811,573.4326 715.6734,574.0038 709.5351,574.564 703.396,575.1132 697.2562,575.6513 691.1157,576.1784 684.9745,576.6945 678.8325,577.1996 672.6899,577.6936 666.5466,578.1766 660.4027,578.6486 654.2581,579.1096 648.1129,579.5596 641.9672,579.9985 635.8208,580.4264 629.6738,580.8433 623.5263,581.2492 617.3783,581.644 611.2297,582.0279 605.0806,582.4007 598.931,582.7625 592.7809,583.1132 586.6304,583.4529 580.4794,583.7817 574.328,584.0993 568.1761,584.406 562.0238,584.7016 555.8712,584.9863 549.7181,585.2599 543.5647,585.5224 537.411,585.774 531.2569,586.0145 525.1025,586.244 518.9478,586.4625 512.7928,586.67 506.6375,586.8664 500.482,587.0518 494.3262,587.2262 488.1702,587.3896 482.014,587.5419 475.8575,587.6832 469.7009,587.8135 463.5442,587.9328 457.3872,588.041 451.2302,588.1383 445.073,588.2245 438.9157,588.2996 432.7583,588.3638 426.6008,588.4169 420.4433,588.459 414.2857,588.4901 408.1281,588.5102 401.9704,588.5192 395.8128,588.5172 389.6552,588.5042 383.4976,588.4802 377.34,588.4451 371.1825,588.3991 365.025,588.342 358.8677,588.2738 352.7104,588.1947 346.5533,588.1045 340.3962,588.0033 334.2394,587.8911 328.0827,587.7679 321.9261,587.6336 315.7698,587.4883 309.6136,587.332 303.4577,587.1647 297.302,586.9863 291.1466,586.7969 284.9914,586.5965 278.8365,586.3851 272.6819,586.1627 266.5276,585.9292 260.3736,585.6847 254.22,585.4292 248.0667,585.1626 241.9138,584.8851 235.7613,584.5965 229.6092,584.2969 223.4575,583.9862 217.3062,583.6646 211.1554,583.3319 205.005,582.9882 198.8551,582.6335 192.7057,582.2677 186.5568,581.891 180.4084,581.5032 174.2605,581.1044 168.1132,580.6945 161.9665,580.2737 155.8203,579.8418 149.6747,579.3989 143.5298,578.9449 137.3854,578.48 131.2417,578.004 125.0987,577.517 118.9563,577.019 112.8146,576.51 106.6736,575.9899 100.5333,575.4588 94.3938,574.9167 88.255,574.3636 82.117,573.7994 75.9797,573.2243 72.0522,572.8504" stroke="silver" stroke-opacity="0.5" stroke-width="1" /><polyline fill="none" points="719.9262,489.3474 713.9398,489.9188 707.9527,490.4793 701.9648,491.029 695.9762,491.5679 689.9868,492.0959 683.9967,492.6132 678.0058,493.1196 672.0143,493.6152 666.0221,494.1 660.0293,494.574 654.0358,495.0372 648.0417,495.4896 642.0469,495.9311 636.0516,496.3618 630.0556,496.7818 624.0591,497.1909 618.062,497.5891 612.0644,497.9766 606.0663,498.3533 600.0676,498.7191 594.0685,499.0741 588.0689,499.4183 582.0688,499.7517 576.0682,500.0743 570.0672,500.386 564.0658,500.687 558.064,500.9771 552.0617,501.2564 546.0592,501.5249 540.0562,501.7825 534.0529,502.0294 528.0493,502.2654 522.0453,502.4906 516.041,502.705 510.0365,502.9086 504.0317,503.1014 498.0266,503.2833 492.0213,503.4545 486.0157,503.6148 480.0099,503.7643 474.004,503.903 467.9978,504.0308 461.9915,504.1479 455.985,504.2541 449.9784,504.3495 443.9717,504.4341 437.9648,504.5079 431.9579,504.5708 425.9509,504.623 419.9438,504.6643 413.9367,504.6948 407.9295,504.7145 401.9223,504.7234 395.9151,504.7214 389.9079,504.7086 383.9008,504.6851 377.8937,504.6507 371.8866,504.6054 365.8796,504.5494 359.8727,504.4826 353.8659,504.4049 347.8592,504.3164 341.8526,504.2171 335.8462,504.107 329.8399,503.986 323.8339,503.8543 317.828,503.7117 311.8223,503.5583 305.8168,503.3941 299.8116,503.2191 293.8066,503.0332 287.8018,502.8366 281.7974,502.6291 275.7932,502.4108 269.7894,502.1817 263.7859,501.9418 257.7827,501.691 251.7799,501.4295 245.7774,501.1571 239.7753,500.8739 233.7737,500.5799 227.7724,500.275 221.7716,499.9594 215.7712,499.6329 209.7712,499.2956 203.7718,498.9475 197.7728,498.5886 191.7743,498.2189 185.7764,497.8384 179.7789,497.447 173.7821,497.0448 167.7858,496.6318 161.79,496.208 155.7949,495.7734 149.8004,495.328 143.8065,494.8717 137.8132,494.4046 131.8206,493.9268 125.8286,493.4381 119.8374,492.9385 113.8468,492.4282 107.857,491.9071 101.8678,491.3751 95.8795,490.8323 89.8918,490.2787 83.905,489.7143 80.0738,489.3474" stroke="silver" stroke-opacity="0.5" stroke-width="1" /><polyline fill="none" points="711.8593,405.8672 706.0242,406.4274 700.1884,406.9769 694.3517,407.5159 688.5143,408.0443 682.6762,408.562 676.8374,409.0692 670.9978,409.5658 665.1576,410.0517 659.3166,410.5271 653.4751,410.9918 647.6328,411.446 641.79,411.8895 635.9465,412.3225 630.1024,412.7448 624.2578,413.1565 618.4125,413.5576 612.5668,413.9482 606.7204,414.3281 600.8736,414.6974 595.0262,415.0561 589.1783,415.4042 583.33,415.7417 577.4812,416.0686 571.6319,416.3849 565.7822,416.6906 559.9321,416.9856 554.0816,417.2701 548.2307,417.544 542.3794,417.8072 536.5277,418.0599 530.6757,418.3019 524.8234,418.5333 518.9707,418.7542 513.1178,418.9644 507.2645,419.164 501.411,419.353 495.5572,419.5314 489.7032,419.6992 483.8489,419.8564 477.9945,420.003 472.1398,420.139 466.285,420.2644 460.43,420.3792 454.5748,420.4833 448.7195,420.5769 442.8641,420.6598 437.0085,420.7321 431.1529,420.7939 425.2972,420.845 419.4414,420.8855 413.5856,420.9154 407.7298,420.9347 401.8739,420.9434 396.018,420.9415 390.1621,420.929 384.3063,420.9059 378.4505,420.8722 372.5947,420.8278 366.739,420.7729 360.8834,420.7073 355.0279,420.6312 349.1726,420.5444 343.3173,420.447 337.4622,420.3391 331.6072,420.2205 325.7525,420.0913 319.8979,419.9515 314.0435,419.8011 308.1893,419.6401 302.3354,419.4684 296.4817,419.2862 290.6283,419.0934 284.7751,418.8899 278.9223,418.6759 273.0698,418.4513 267.2175,418.216 261.3657,417.9701 255.5141,417.7137 249.663,417.4466 243.8122,417.1689 237.9618,416.8806 232.1118,416.5817 226.2623,416.2722 220.4132,415.9521 214.5645,415.6214 208.7164,415.2801 202.8687,414.9282 197.0215,414.5657 191.1748,414.1925 185.3287,413.8088 179.4831,413.4145 173.6381,413.0095 167.7936,412.594 161.9498,412.1678 156.1065,411.7311 150.2639,411.2837 144.4219,410.8257 138.5806,410.3572 132.7399,409.878 126.8999,409.3882 121.0606,408.8878 115.222,408.3769 109.3841,407.8553 103.547,407.3231 97.7106,406.7803 91.875,406.2269 88.1407,405.8672" stroke="silver" stroke-opacity="0.5" stroke-width="1" /><polyline fill="none" points="703.746,322.3969 698.063,322.9457 692.3792,323.4841 686.6947,324.0121 681.0094,324.5297 675.3234,325.037 669.6367,325.5338 663.9493,326.0203 658.2612,326.4963 652.5724,326.962 646.8829,327.4173 641.1928,327.8622 635.5021,328.2967 629.8108,328.7209 624.1189,329.1346 618.4263,329.538 612.7333,329.931 607.0396,330.3135 601.3455,330.6857 595.6508,331.0475 589.9556,331.399 584.2599,331.74 578.5637,332.0706 572.867,332.3909 567.1699,332.7007 561.4724,333.0002 555.7744,333.2893 550.0761,333.568 544.3773,333.8363 538.6782,334.0942 532.9787,334.3417 527.2789,334.5788 521.5787,334.8056 515.8783,335.0219 510.1775,335.2279 504.4764,335.4234 498.7751,335.6086 493.0735,335.7834 487.3717,335.9478 481.6696,336.1018 475.9673,336.2454 470.2649,336.3786 464.5622,336.5014 458.8594,336.6139 453.1564,336.7159 447.4533,336.8076 441.75,336.8888 436.0467,336.9597 430.3433,337.0202 424.6397,337.0703 418.9362,337.11 413.2325,337.1393 407.5289,337.1582 401.8252,337.1667 396.1215,337.1648 390.4178,337.1526 384.7142,337.1299 379.0105,337.0969 373.307,337.0534 367.6035,336.9996 361.9001,336.9354 356.1968,336.8608 350.4936,336.7758 344.7905,336.6804 339.0876,336.5746 333.3848,336.4584 327.6822,336.3319 321.9798,336.1949 316.2776,336.0475 310.5757,335.8898 304.8739,335.7217 299.1724,335.5431 293.4712,335.3542 287.7702,335.1549 282.0695,334.9452 276.3692,334.7251 270.6691,334.4947 264.9694,334.2538 259.2701,334.0025 253.5711,333.7409 247.8725,333.4688 242.1742,333.1864 236.4764,332.8936 230.7791,332.5904 225.0821,332.2768 219.3857,331.9528 213.6896,331.6184 207.9941,331.2736 202.2991,330.9185 196.6046,330.5529 190.9106,330.177 185.2172,329.7907 179.5243,329.394 173.832,328.9869 168.1403,328.5694 162.4492,328.1415 156.7587,327.7033 151.0688,327.2546 145.3796,326.7956 139.691,326.3261 134.0032,325.8463 128.316,325.3561 122.6295,324.8555 116.9438,324.3446 111.2588,323.8232 105.5745,323.2915 99.8911,322.7493 96.254,322.3969" stroke="silver" stroke-opacity="0.5" stroke-width="1" /><polyline fill="none" points="695.5849,238.924 690.0549,239.4611 684.5241,239.9881 678.9926,240.5049 673.4603,241.0115 667.9273,241.508 662.3936,241.9943 656.8592,242.4704 651.3241,242.9364 645.7883,243.3922 640.2519,243.8378 634.7148,244.2733 629.1771,244.6986 623.6388,245.1137 618.0999,245.5187 612.5605,245.9135 607.0204,246.2981 601.4798,246.6726 595.9387,247.0369 590.3971,247.391 584.8549,247.7349 579.3122,248.0687 573.7691,248.3924 568.2255,248.7058 562.6815,249.0091 557.137,249.3022 551.5921,249.5852 546.0469,249.858 540.5012,250.1206 534.9551,250.373 529.4087,250.6153 523.862,250.8474 518.3149,251.0693 512.7675,251.2811 507.2198,251.4827 501.6718,251.6741 496.1235,251.8553 490.575,252.0264 485.0263,252.1873 479.4773,252.3381 473.9281,252.4786 468.3787,252.609 462.8292,252.7293 457.2794,252.8393 451.7296,252.9392 446.1795,253.0289 440.6294,253.1084 435.0791,253.1778 429.5288,253.237 423.9784,253.286 418.4279,253.3249 412.8774,253.3536 407.3268,253.3721 401.7762,253.3804 396.2256,253.3786 390.675,253.3666 385.1245,253.3444 379.5739,253.3121 374.0235,253.2696 368.4731,253.2169 362.9228,253.154 357.3725,253.081 351.8224,252.9978 346.2725,252.9044 340.7226,252.8009 335.173,252.6871 329.6235,252.5633 324.0741,252.4292 318.525,252.285 312.9761,252.1306 307.4275,251.966 301.879,251.7913 296.3309,251.6063 290.783,251.4113 285.2354,251.206 279.6881,250.9906 274.1412,250.765 268.5945,250.5292 263.0482,250.2833 257.5023,250.0272 251.9568,249.7609 246.4116,249.4845 240.8669,249.1979 235.3226,248.9011 229.7787,248.5942 224.2353,248.277 218.6923,247.9497 213.1499,247.6123 207.6079,247.2647 202.0664,246.9069 196.5255,246.5389 190.9851,246.1608 185.4453,245.7725 179.906,245.374 174.3673,244.9654 168.8292,244.5466 163.2918,244.1177 157.7549,243.6785 152.2187,243.2292 146.6832,242.7698 141.1484,242.3002 135.6142,241.8204 130.0807,241.3304 124.548,240.8303 119.016,240.32 113.4847,239.7996 107.9542,239.269 104.4151,238.924" stroke="silver" stroke-opacity="0.5" stroke-width="1" /><polyline fill="none" points="687.3748,155.4358 681.9987,155.961 676.6218,156.4762 671.2442,156.9816 665.8658,157.4769 660.4867,157.9624 655.1069,158.4379 649.7264,158.9035 644.3453,159.3591 638.9634,159.8048 633.5809,160.2406 628.1978,160.6664 622.814,161.0822 617.4297,161.4882 612.0447,161.8842 606.6592,162.2702 601.2731,162.6463 595.8865,163.0125 590.4993,163.3687 585.1116,163.715 579.7235,164.0513 574.3348,164.3777 568.9456,164.6942 563.556,165.0007 558.166,165.2973 552.7755,165.5839 547.3846,165.8606 541.9933,166.1273 536.6016,166.3841 531.2095,166.631 525.8171,166.8679 520.4244,167.0948 515.0313,167.3118 509.6379,167.5189 504.2442,167.716 498.8502,167.9032 493.456,168.0805 488.0615,168.2478 482.6667,168.4051 477.2718,168.5525 471.8766,168.69 466.4812,168.8175 461.0857,168.935 455.69,169.0427 450.2941,169.1403 444.8981,169.228 439.502,169.3058 434.1057,169.3737 428.7094,169.4315 423.313,169.4795 417.9165,169.5175 412.52,169.5455 407.1235,169.5636 401.7269,169.5718 396.3303,169.57 390.9338,169.5583 385.5372,169.5366 380.1407,169.505 374.7443,169.4634 369.3479,169.4119 363.9516,169.3504 358.5554,169.279 353.1593,169.1976 347.7634,169.1063 342.3676,169.0051 336.9719,168.8939 331.5764,168.7727 326.1811,168.6416 320.786,168.5006 315.3911,168.3496 309.9965,168.1887 304.6021,168.0178 299.2079,167.837 293.8141,167.6462 288.4205,167.4455 283.0272,167.2349 277.6342,167.0143 272.2416,166.7837 266.8493,166.5432 261.4574,166.2928 256.0658,166.0324 250.6747,165.7621 245.2839,165.4819 239.8936,165.1917 234.5037,164.8915 229.1142,164.5814 223.7252,164.2614 218.3367,163.9314 212.9487,163.5915 207.5612,163.2416 202.1743,162.8818 196.7878,162.5121 191.4019,162.1324 186.0166,161.7428 180.6319,161.3432 175.2477,160.9337 169.8642,160.5142 164.4813,160.0848 159.099,159.6455 153.7174,159.1962 148.3365,158.737 142.9563,158.2679 137.5767,157.7888 132.1979,157.2998 126.8198,156.8008 121.4424,156.2919 116.0658,155.773 112.6252,155.4358" stroke="silver" stroke-opacity="0.5" stroke-width="1" /><polyline fill="none" points="679.1145,71.9195 673.8932,72.4325 668.6711,72.9358 663.4483,73.4294 658.2248,73.9133 653.0005,74.3875 647.7755,74.852 642.5499,75.3068 637.3236,75.7519 632.0966,76.1872 626.869,76.6129 621.6407,77.0288 616.4118,77.4351 611.1824,77.8316 605.9523,78.2184 600.7217,78.5955 595.4905,78.9629 590.2587,79.3206 585.0265,79.6686 579.7937,80.0068 574.5604,80.3354 569.3266,80.6542 564.0924,80.9633 558.8577,81.2628 553.6226,81.5525 548.387,81.8325 543.1511,82.1027 537.9147,82.3633 532.6779,82.6141 527.4408,82.8553 522.2034,83.0867 516.9655,83.3084 511.7274,83.5204 506.489,83.7227 501.2502,83.9152 496.0112,84.0981 490.7719,84.2712 485.5324,84.4346 480.2926,84.5884 475.0526,84.7323 469.8124,84.8666 464.572,84.9912 459.3314,85.106 454.0906,85.2111 448.8497,85.3066 443.6087,85.3923 438.3676,85.4682 433.1263,85.5345 427.8849,85.591 422.6435,85.6379 417.402,85.675 412.1605,85.7024 406.9189,85.7201 401.6773,85.728 396.4357,85.7263 391.1941,85.7148 385.9526,85.6936 380.711,85.6627 375.4696,85.6221 370.2282,85.5718 364.9868,85.5118 359.7456,85.442 354.5045,85.3625 349.2635,85.2733 344.0227,85.1744 338.782,85.0658 333.5415,84.9475 328.3011,84.8194 323.061,84.6816 317.8211,84.5341 312.5814,84.3769 307.3419,84.21 302.1027,84.0334 296.8638,83.847 291.6252,83.651 286.3868,83.4452 281.1488,83.2297 275.9111,83.0045 270.6738,82.7696 265.4368,82.525 260.2002,82.2706 254.9639,82.0066 249.7281,81.7328 244.4927,81.4493 239.2577,81.1561 234.0232,80.8532 228.7891,80.5406 223.5556,80.2182 218.3225,79.8862 213.0899,79.5444 207.8578,79.1929 202.6262,78.8318 197.3952,78.4609 192.1648,78.0803 186.935,77.69 181.7057,77.2899 176.477,76.8802 171.249,76.4608 166.0216,76.0316 160.7949,75.5928 155.5688,75.1442 150.3434,74.6859 145.1187,74.2179 139.8947,73.7402 134.6714,73.2529 129.4489,72.7558 124.2271,72.2489 120.8855,71.9195" stroke="silver" stroke-opacity="0.5" stroke-width="1" /><line fill="none" stroke="green" stroke-opacity="0.5" stroke-width="1.5" x1="423.2228" x2="587.3837" y1="629.8148" y2="424.2765" /><circle cx="732.886" cy="673.2017" fill="black" r="0.738" stroke="none" /><circle cx="697.9839" cy="336.095" fill="black" r="0.738" stroke="none" /><circle cx="693.5645" cy="297.3436" fill="black" r="0.738" stroke="none" /><circle cx="685.5675" cy="255.8116" fill="black" r="0.738" stroke="none" /><circle cx="687.6086" cy="280.8905" fill="black" r="0.738" stroke="none" /><circle cx="696.6007" cy="384.5717" fill="black" r="0.738" stroke="none" /><circle cx="714.1483" cy="582.2316" fill="black" r="0.738" stroke="none" /><circle cx="692.2478" cy="346.2363" fill="black" r="0.738" stroke="none" /><circle cx="721.84" cy="682.9016" fill="black" r="0.738" stroke="none" /><circle cx="667.7398" cy="97.0518" fill="black" r="0.738" stroke="none" /><circle cx="719.9955" cy="685.6805" fill="black" r="0.738" stroke="none" /><circle cx="669.4778" cy="158.9989" fill="black" r="0.738" stroke="none" /><circle cx="695.7925" cy="451.0014" fill="black" r="0.738" stroke="none" /><circle cx="676.5325" cy="289.4873" fill="black" r="0.738" stroke="none" /><circle cx="681.3269" cy="361.0381" fill="black" r="0.738" stroke="none" /><circle cx="697.7748" cy="560.6187" fill="black" r="0.738" stroke="none" /><circle cx="663.6258" cy="193.6431" fill="black" r="0.738" stroke="none" /><circle cx="671.8278" cy="333.3392" fill="black" r="0.738" stroke="none" /><circle cx="661.2185" cy="225.4288" fill="black" r="0.738" stroke="none" /><circle cx="694.5757" cy="615.791" fill="black" r="0.936" stroke="none" /><circle cx="682.6662" cy="483.8057" fill="black" r="1.17" stroke="none" /><circle cx="654.2339" cy="167.8606" fill="black" r="0.738" stroke="none" /><circle cx="639.6624" cy="90.4609" fill="black" r="0.738" stroke="none" /><circle cx="647.8249" cy="215.7949" fill="black" r="0.738" stroke="none" /><circle cx="648.2857" cy="259.762" fill="black" r="0.738" stroke="none" /><circle cx="657.8646" cy="432.5102" fill="black" r="0.738" stroke="none" /><circle cx="660.306" cy="497.496" fill="black" r="0.738" stroke="none" /><circle cx="635.9269" cy="197.8309" fill="black" r="0.738" stroke="none" /><circle cx="645.3869" cy="364.1978" fill="black" r="0.738" stroke="none" /><circle cx="645.0185" cy="364.2264" fill="black" r="0.738" stroke="none" /><circle cx="657.7325" cy="643.1089" fill="black" r="0.738" stroke="none" /><circle cx="655.0205" cy="649.447" fill="black" r="0.738" stroke="none" /><circle cx="646.4633" cy="573.1206" fill="black" r="0.738" stroke="none" /><circle cx="621.3115" cy="267.6455" fill="black" r="0.738" stroke="none" /><circle cx="608.4392" cy="121.695" fill="black" r="0.738" stroke="none" /><circle cx="606.3323" cy="138.2458" fill="black" r="0.738" stroke="none" /><circle cx="615.5321" cy="272.8501" fill="black" r="0.738" stroke="none" /><circle cx="634.3757" cy="585.3164" fill="black" r="0.738" stroke="none" /><circle cx="632.0665" cy="571.6895" fill="black" r="0.738" stroke="none" /><circle cx="626.7391" cy="500.4544" fill="black" r="0.738" stroke="none" /><circle cx="621.499" cy="445.8615" fill="black" r="0.738" stroke="none" /><circle cx="616.8277" cy="432.7341" fill="black" r="0.738" stroke="none" /><circle cx="597.7812" cy="177.0053" fill="black" r="0.738" stroke="none" /><circle cx="595.3828" cy="244.6366" fill="black" r="0.738" stroke="none" /><circle cx="594.2285" cy="246.0552" fill="black" r="0.738" stroke="none" /><circle cx="598.4366" cy="328.1003" fill="black" r="0.738" stroke="none" /><circle cx="618.3115" cy="663.6814" fill="black" r="0.738" stroke="none" /><circle cx="595.0743" cy="324.0294" fill="black" r="0.936" stroke="none" /><circle cx="609.1415" cy="588.2878" fill="black" r="0.738" stroke="none" /><circle cx="579.0438" cy="143.9286" fill="black" r="0.738" stroke="none" /><circle cx="597.5233" cy="457.2236" fill="black" r="0.738" stroke="none" /><circle cx="603.347" cy="670.623" fill="black" r="0.738" stroke="none" /><circle cx="582.8393" cy="333.2506" fill="black" r="0.738" stroke="none" /><circle cx="587.3944" cy="424.3229" fill="black" r="1.854" stroke="none" /><circle cx="573.7092" cy="260.57" fill="black" r="0.738" stroke="none" /><circle cx="563.8606" cy="222.5855" fill="black" r="0.936" stroke="none" /><circle cx="587.3956" cy="664.6991" fill="black" r="0.738" stroke="none" /><circle cx="565.2235" cy="338.2591" fill="black" r="0.738" stroke="none" /><circle cx="576.4708" cy="636.2926" fill="black" r="0.738" stroke="none" /><circle cx="573.9396" cy="668.3255" fill="black" r="0.936" stroke="none" /><circle cx="566.2673" cy="539.5153" fill="black" r="0.738" stroke="none" /><circle cx="546.5913" cy="185.5437" fill="black" r="0.738" stroke="none" /><circle cx="543.5254" cy="198.6202" fill="black" r="0.738" stroke="none" /><circle cx="560.5758" cy="601.3027" fill="black" r="0.738" stroke="none" /><circle cx="557.313" cy="688.8318" fill="black" r="1.476" stroke="none" /><circle cx="533.1119" cy="297.1792" fill="black" r="0.738" stroke="none" /><circle cx="543.3835" cy="540.4795" fill="black" r="0.738" stroke="none" /><circle cx="540.0338" cy="500.1059" fill="black" r="0.738" stroke="none" /><circle cx="520.5908" cy="97.5118" fill="black" r="0.738" stroke="none" /><circle cx="518.2261" cy="251.0728" fill="black" r="0.738" stroke="none" /><circle cx="509.2066" cy="154.8666" fill="black" r="0.738" stroke="none" /><circle cx="518.0487" cy="403.8636" fill="black" r="0.738" stroke="none" /><circle cx="519.8013" cy="465.9295" fill="black" r="0.738" stroke="none" /><circle cx="519.6435" cy="465.516" fill="black" r="0.738" stroke="none" /><circle cx="505.9857" cy="160.9422" fill="black" r="0.738" stroke="none" /><circle cx="505.3558" cy="160.2099" fill="black" r="0.738" stroke="none" /><circle cx="514.9428" cy="461.6592" fill="black" r="0.738" stroke="none" /><circle cx="503.646" cy="221.4177" fill="black" r="0.738" stroke="none" /><circle cx="518.6821" cy="712.2289" fill="black" r="0.738" stroke="none" /><circle cx="511.8538" cy="556.5953" fill="black" r="0.738" stroke="none" /><circle cx="512.4676" cy="678.8654" fill="black" r="0.738" stroke="none" /><circle cx="506.6553" cy="551.3121" fill="black" r="0.738" stroke="none" /><circle cx="500.8206" cy="430.5204" fill="black" r="0.738" stroke="none" /><circle cx="504.4035" cy="604.2938" fill="black" r="0.738" stroke="none" /><circle cx="497.2029" cy="651.9708" fill="black" r="0.738" stroke="none" /><circle cx="491.3403" cy="554.9446" fill="black" r="0.738" stroke="none" /><circle cx="476.5112" cy="118.9213" fill="black" r="0.738" stroke="none" /><circle cx="484.336" cy="559.9039" fill="black" r="0.738" stroke="none" /><circle cx="476.7227" cy="280.6578" fill="black" r="0.738" stroke="none" /><circle cx="478.819" cy="488.0357" fill="black" r="0.738" stroke="none" /><circle cx="472.6208" cy="393.8144" fill="black" r="0.738" stroke="none" /><circle cx="467.9929" cy="336.8478" fill="black" r="0.738" stroke="none" /><circle cx="461.0194" cy="113.0863" fill="black" r="0.738" stroke="none" /><circle cx="457.6275" cy="418.2517" fill="black" r="0.738" stroke="none" /><circle cx="453.8555" cy="225.4107" fill="black" r="0.738" stroke="none" /><circle cx="446.5917" cy="116.6283" fill="black" r="0.738" stroke="none" /><circle cx="451.8995" cy="557.7033" fill="black" r="0.738" stroke="none" /><circle cx="445.1925" cy="285.4754" fill="black" r="0.738" stroke="none" /><circle cx="438.3549" cy="471.9091" fill="black" r="0.738" stroke="none" /><circle cx="423.3962" cy="287.5624" fill="black" r="0.738" stroke="none" /><circle cx="423.2315" cy="629.8475" fill="black" r="1.854" stroke="none" /><circle cx="420.3606" cy="703.4792" fill="black" r="0.738" stroke="none" /><circle cx="412.8767" cy="361.7718" fill="black" r="1.17" stroke="none" /><circle cx="411.5973" cy="415.1426" fill="black" r="0.936" stroke="none" /><circle cx="410.8728" cy="696.8958" fill="black" r="0.738" stroke="none" /><circle cx="404.1175" cy="120.5258" fill="black" r="0.738" stroke="none" /><circle cx="404.1029" cy="266.45" fill="black" r="0.738" stroke="none" /><circle cx="396.7688" cy="203.0137" fill="black" r="0.738" stroke="none" /><circle cx="389.8797" cy="579.2023" fill="black" r="0.738" stroke="none" /><circle cx="389.8263" cy="547.8607" fill="black" r="0.738" stroke="none" /><circle cx="381.462" cy="451.5539" fill="black" r="0.738" stroke="none" /><circle cx="379.8389" cy="336.0132" fill="black" r="0.936" stroke="none" /><circle cx="375.9889" cy="224.1224" fill="black" r="0.738" stroke="none" /><circle cx="371.2607" cy="311.6484" fill="black" r="0.738" stroke="none" /><circle cx="370.6563" cy="189.7947" fill="black" r="0.738" stroke="none" /><circle cx="370.987" cy="139.4154" fill="black" r="0.738" stroke="none" /><circle cx="360.08" cy="573.0342" fill="black" r="0.738" stroke="none" /><circle cx="358.1366" cy="401.4025" fill="black" r="0.738" stroke="none" /><circle cx="361.1778" cy="125.2974" fill="black" r="0.738" stroke="none" /><circle cx="353.2948" cy="160.7321" fill="black" r="0.738" stroke="none" /><circle cx="345.3896" cy="659.9327" fill="black" r="0.738" stroke="none" /><circle cx="347.925" cy="442.8965" fill="black" r="0.738" stroke="none" /><circle cx="350.2567" cy="245.5972" fill="black" r="0.738" stroke="none" /><circle cx="347.0187" cy="261.0471" fill="black" r="0.738" stroke="none" /><circle cx="344.1351" cy="302.2277" fill="black" r="0.738" stroke="none" /><circle cx="342.9996" cy="238.0931" fill="black" r="0.738" stroke="none" /><circle cx="337.1811" cy="535.6439" fill="black" r="0.738" stroke="none" /><circle cx="342.4945" cy="191.3087" fill="black" r="0.738" stroke="none" /><circle cx="330.7133" cy="651.7087" fill="black" r="0.738" stroke="none" /><circle cx="331.4982" cy="407.7321" fill="black" r="0.738" stroke="none" /><circle cx="337.6702" cy="91.7525" fill="black" r="0.738" stroke="none" /><circle cx="323.8512" cy="681.5068" fill="black" r="0.738" stroke="none" /><circle cx="326.4381" cy="475.4178" fill="black" r="0.738" stroke="none" /><circle cx="320.9391" cy="710.2985" fill="black" r="0.738" stroke="none" /><circle cx="321.1309" cy="121.2901" fill="black" r="0.738" stroke="none" /><circle cx="304.0837" cy="393.9552" fill="black" r="0.738" stroke="none" /><circle cx="310.4201" cy="91.6937" fill="black" r="0.738" stroke="none" /><circle cx="309.4168" cy="91.494" fill="black" r="0.738" stroke="none" /><circle cx="286.2694" cy="691.4947" fill="black" r="0.738" stroke="none" /><circle cx="301.4508" cy="188.6309" fill="black" r="0.738" stroke="none" /><circle cx="296.1452" cy="323.6232" fill="black" r="0.936" stroke="none" /><circle cx="294.2478" cy="237.5298" fill="black" r="0.738" stroke="none" /><circle cx="289.9002" cy="311.1672" fill="black" r="0.738" stroke="none" /><circle cx="282.2681" cy="236.1624" fill="black" r="0.738" stroke="none" /><circle cx="270.5317" cy="526.6155" fill="black" r="0.738" stroke="none" /><circle cx="260.7534" cy="594.593" fill="black" r="0.738" stroke="none" /><circle cx="262.8591" cy="434.8076" fill="black" r="0.738" stroke="none" /><circle cx="271.643" cy="113.5428" fill="black" r="0.738" stroke="none" /><circle cx="256.9888" cy="340.9454" fill="black" r="0.738" stroke="none" /><circle cx="239.0664" cy="609.0074" fill="black" r="0.738" stroke="none" /><circle cx="259.4261" cy="93.6542" fill="black" r="0.738" stroke="none" /><circle cx="237.5353" cy="455.7075" fill="black" r="0.738" stroke="none" /><circle cx="247.3743" cy="177.6817" fill="black" r="0.738" stroke="none" /><circle cx="241.919" cy="259.7445" fill="black" r="0.738" stroke="none" /><circle cx="243.9686" cy="151.3048" fill="black" r="0.738" stroke="none" /><circle cx="212.4234" cy="708.7049" fill="black" r="0.738" stroke="none" /><circle cx="208.2259" cy="689.7487" fill="black" r="0.738" stroke="none" /><circle cx="209.9931" cy="626.346" fill="black" r="0.738" stroke="none" /><circle cx="205.4976" cy="698.7584" fill="black" r="0.738" stroke="none" /><circle cx="203.8091" cy="479.6379" fill="black" r="0.738" stroke="none" /><circle cx="204.1656" cy="404.4275" fill="black" r="0.738" stroke="none" /><circle cx="216.3702" cy="187.165" fill="black" r="0.936" stroke="none" /><circle cx="212.4716" cy="208.175" fill="black" r="0.738" stroke="none" /><circle cx="189.3815" cy="561.737" fill="black" r="0.738" stroke="none" /><circle cx="173.3824" cy="650.5503" fill="black" r="0.738" stroke="none" /><circle cx="176.7897" cy="574.8837" fill="black" r="0.738" stroke="none" /><circle cx="197.1441" cy="188.1748" fill="black" r="0.738" stroke="none" /><circle cx="186.2643" cy="343.3051" fill="black" r="0.738" stroke="none" /><circle cx="158.1942" cy="684.9409" fill="black" r="0.738" stroke="none" /><circle cx="163.9772" cy="586.9688" fill="black" r="0.936" stroke="none" /><circle cx="196.1141" cy="126.1424" fill="black" r="0.738" stroke="none" /><circle cx="158.9448" cy="636.9787" fill="black" r="0.738" stroke="none" /><circle cx="171.3507" cy="400.9152" fill="black" r="0.738" stroke="none" /><circle cx="175.1921" cy="294.6251" fill="black" r="0.738" stroke="none" /><circle cx="162.7809" cy="337.6669" fill="black" r="0.738" stroke="none" /><circle cx="177.1528" cy="144.5918" fill="black" r="0.738" stroke="none" /><circle cx="148.968" cy="434.1383" fill="black" r="0.738" stroke="none" /><circle cx="170.7856" cy="84.253" fill="black" r="0.738" stroke="none" /><circle cx="155.6469" cy="271.1" fill="black" r="0.738" stroke="none" /><circle cx="164.8929" cy="80.9903" fill="black" r="1.476" stroke="none" /><circle cx="127.6153" cy="532.2015" fill="black" r="0.738" stroke="none" /><circle cx="148.4147" cy="168.9312" fill="black" r="1.476" stroke="none" /><circle cx="122.9773" cy="455.1679" fill="black" r="1.17" stroke="none" /><circle cx="149.0191" cy="127.9761" fill="black" r="0.936" stroke="none" /><circle cx="119.8701" cy="461.3838" fill="black" r="0.738" stroke="none" /><circle cx="101.366" cy="668.5835" fill="black" r="0.738" stroke="none" /><circle cx="109.1198" cy="551.4491" fill="black" r="0.738" stroke="none" /><circle cx="102.0652" cy="603.6318" fill="black" r="0.738" stroke="none" /><circle cx="129.98" cy="199.7205" fill="black" r="0.738" stroke="none" /><circle cx="108.2272" cy="370.7018" fill="black" r="0.738" stroke="none" /><circle cx="89.7141" cy="474.6783" fill="black" r="0.738" stroke="none" /><circle cx="80.9727" cy="552.2071" fill="black" r="0.738" stroke="none" /><circle cx="13.77" cy="786.23" fill="black" r="4.59" stroke="none" /><circle cx="13.77" cy="786.23" fill="black" r="4.59" stroke="none" /><text fill="black" font-family="monospace" font-size="12" x="10.77" y="775.64">1</text><circle cx="37.77" cy="786.23" fill="black" r="3.654" stroke="none" /><circle cx="37.77" cy="786.23" fill="black" r="3.654" stroke="none" /><text fill="black" font-family="monospace" font-size="12" x="34.769999999999996" y="775.64">2</text><circle cx="61.77" cy="786.23" fill="black" r="2.916" stroke="none" /><circle cx="61.77" cy="786.23" fill="black" r="2.916" stroke="none" /><text fill="black" font-family="monospace" font-size="12" x="58.769999999999996" y="775.64">3</text><circle cx="85.77" cy="786.23" fill="black" r="2.322" stroke="none" /><circle cx="85.77" cy="786.23" fill="black" r="2.322" stroke="none" /><text fill="black" font-family="monospace" font-size="12" x="82.77" y="775.64">4</text><circle cx="109.77" cy="786.23" fill="black" r="1.854" stroke="none" /><circle cx="109.77" cy="786.23" fill="black" r="1.854" stroke="none" /><text fill="black" font-family="monospace" font-size="12" x="106.77" y="775.64">5</text><circle cx="133.77" cy="786.23" fill="black" r="1.476" stroke="none" /><circle cx="133.77" cy="786.23" fill="black" r="1.476" stroke="none" /><text fill="black" font-family="monospace" font-size="12" x="130.77" y="775.64">6</text><circle cx="157.77" cy="786.23" fill="black" r="1.17" stroke="none" /><circle cx="157.77" cy="786.23" fill="black" r="1.17" stroke="none" /><text fill="black" font-family="monospace" font-size="12" x="154.77" y="775.64">7</text><circle cx="181.77" cy="786.23" fill="black" r="0.936" stroke="none" /><circle cx="181.77" cy="786.23" fill="black" r="0.936" stroke="none" /><text fill="black" font-family="monospace" font-size="12" x="178.77" y="775.64">8</text><circle cx="205.77" cy="786.23" fill="black" r="0.738" stroke="none" /><circle cx="205.77" cy="786.23" fill="black" r="0.738" stroke="none" /><text fill="black" font-family="monospace" font-size="12" x="202.77" y="775.64">9</text><text fill="gray" fill-opacity="0.5" font-family="monospace" font-size="12" x="739.8977669747151" y="698.1751182495367">02h40m</text><text fill="gray" fill-opacity="0.5" font-family="monospace" font-size="12" x="612.5482671786194" y="707.9857769337686">02h50m</text><text fill="gray" fill-opacity="0.5" font-family="monospace" font-size="12" x="484.9992441528774" y="713.2669633784797">03h00m</text><text fill="gray" fill-opacity="0.5" font-family="monospace" font-size="12" x="357.37054108186646" y="714.018825508685">03h10m</text><text fill="gray" fill-opacity="0.5" font-family="monospace" font-size="12" x="229.78179186411623" y="710.2413852919658">03h20m</text><text fill="gray" fill-opacity="0.5" font-family="monospace" font-size="12" x="102.35273536654233" y="701.9345346483492">03h30m</text><text fill="gray" fill-opacity="0.5" font-family="monospace" font-size="12" x="64.07478165385515" y="656.3887124109073">+53°</text><text fill="gray" fill-opacity="0.5" font-family="monospace" font-size="12" x="72.05224156238285" y="572.8503836404625">+54°</text><text fill="gray" fill-opacity="0.5" font-family="monospace" font-size="12" x="80.07381335554305" y="489.3474385440632">+55°</text><text fill="gray" fill-opacity="0.5" font-family="monospace" font-size="12" x="88.14067464645598" y="405.8671830035329">+56°</text><text fill="gray" fill-opacity="0.5" font-family="monospace" font-size="12" x="96.25403062470724" y="322.3969366745499">+57°</text><text fill="gray" fill-opacity="0.5" font-family="monospace" font-size="12" x="104.41511476926843" y="238.9240252920837">+58°</text><text fill="gray" fill-opacity="0.5" font-family="monospace" font-size="12" x="112.62518959798064" y="155.43577298368754">+59°</text><text fill="gray" fill-opacity="0.5" font-family="monospace" font-size="12" x="120.88554745456958" y="71.91949458072673">+60°</text><text fill="black" font-family="monospace" font-size="12" x="12" y="48">&gt;&gt; No.703 02h40m 03h33m +52.5°+60.0°</text><a target="_self" xlink:href="hip040.svg"><text fill="black" font-family="monospace" font-size="12" x="12" y="36">&gt; No.40 00h00m 08h00m +52.5°+90.0°</text></a><a target="_self" xlink:href="hip002.svg"><text fill="black" font-family="monospace" font-size="12" x="12" y="24">No.2 00h 24h +0.0°+90.0°</text></a><polyline fill="none" points="679.1145,71.9195 673.8932,72.4325 668.6711,72.9358 663.4483,73.4294 658.2248,73.9133 653.0005,74.3875 647.7755,74.852 642.5499,75.3068 637.3236,75.7519 632.0966,76.1872 626.869,76.6129 621.6407,77.0288 616.4118,77.4351 611.1824,77.8316 605.9523,78.2184 600.7217,78.5955 595.4905,78.9629 590.2587,79.3206 585.0265,79.6686 579.7937,80.0068 574.5604,80.3354 569.3266,80.6542 564.0924,80.9633 558.8577,81.2628 553.6226,81.5525 548.387,81.8325 543.1511,82.1027 537.9147,82.3633 532.6779,82.6141 527.4408,82.8553 522.2034,83.0867 516.9655,83.3084 511.7274,83.5204 506.489,83.7227 501.2502,83.9152 496.0112,84.0981 490.7719,84.2712 485.5324,84.4346 480.2926,84.5884 475.0526,84.7323 469.8124,84.8666 464.572,84.9912 459.3314,85.106 454.0906,85.2111 448.8497,85.3066 443.6087,85.3923 438.3676,85.4682 433.1263,85.5345 427.8849,85.591 422.6435,85.6379 417.402,85.675 412.1605,85.7024 406.9189,85.7201 401.6773,85.728 396.4357,85.7263 391.1941,85.7148 385.9526,85.6936 380.711,85.6627 375.4696,85.6221 370.2282,85.5718 364.9868,85.5118 359.7456,85.442 354.5045,85.3625 349.2635,85.2733 344.0227,85.1744 338.782,85.0658 333.5415,84.9475 328.3011,84.8194 323.061,84.6816 317.8211,84.5341 312.5814,84.3769 307.3419,84.21 302.1027,84.0334 296.8638,83.847 291.6252,83.651 286.3868,83.4452 281.1488,83.2297 275.9111,83.0045 270.6738,82.7696 265.4368,82.525 260.2002,82.2706 254.9639,82.0066 249.7281,81.7328 244.4927,81.4493 239.2577,81.1561 234.0232,80.8532 228.7891,80.5406 223.5556,80.2182 218.3225,79.8862 213.0899,79.5444 207.8578,79.1929 202.6262,78.8318 197.3952,78.4609 192.1648,78.0803 186.935,77.69 181.7057,77.2899 176.477,76.8802 171.249,76.4608 166.0216,76.0316 160.7949,75.5928 155.5688,75.1442 150.3434,74.6859 145.1187,74.2179 139.8947,73.7402 134.6714,73.2529 129.4489,72.7558 124.2271,72.2489 120.8855,71.9195" stroke="black" stroke-opacity="0.5" stroke-width="1" /><polyline fill="none" points="739.8978,698.1751 738.9056,687.7273 737.9128,677.2803 736.9194,666.8341 735.9252,656.3887 734.9304,645.9441 733.9349,635.5001 732.9388,625.0569 731.9419,614.6143 730.9444,604.1724 729.9462,593.7312 728.9473,583.2905 727.9478,572.8504 726.9475,562.4108 725.9465,551.9718 724.9449,541.5333 723.9426,531.0953 722.9395,520.6577 721.9358,510.2206 720.9313,499.7838 719.9262,489.3474 718.9203,478.9114 717.9138,468.4757 716.9065,458.0404 715.8985,447.6053 714.8898,437.1704 713.8804,426.7358 712.8702,416.3014 711.8593,405.8672 710.8477,395.4331 709.8354,384.9992 708.8223,374.5653 707.8085,364.1316 706.794,353.6979 705.7787,343.2643 704.7627,332.8306 703.746,322.3969 702.7285,311.9632 701.7102,301.5295 700.6912,291.0956 699.6715,280.6616 698.651,270.2275 697.6297,259.7932 696.6077,249.3587 695.5849,238.924 694.5613,228.4891 693.537,218.0539 692.5119,207.6184 691.4861,197.1826 690.4594,186.7465 689.432,176.31 688.4038,165.8731 687.3748,155.4358 686.345,144.998 685.3145,134.5598 684.2831,124.1211 683.251,113.6819 682.2181,103.2422 681.1843,92.8019 680.1498,82.361 679.1145,71.9195" stroke="black" stroke-opacity="0.5" stroke-width="1" /><polyline fill="none" points="739.8978,698.1751 733.5369,698.7732 727.1752,699.36 720.8128,699.9355 714.4496,700.4996 708.0857,701.0524 701.721,701.5939 695.3557,702.1241 688.9896,702.6429 682.6229,703.1505 676.2555,703.6466 669.8874,704.1315 663.5187,704.6051 657.1494,705.0673 650.7795,705.5182 644.409,705.9578 638.038,706.386 631.6663,706.8029 625.2942,707.2085 618.9215,707.6028 612.5483,707.9858 606.1746,708.3574 599.8004,708.7177 593.4257,709.0667 587.0506,709.4044 580.675,709.7307 574.2991,710.0457 567.9227,710.3494 561.5459,710.6418 555.1687,710.9228 548.7912,711.1925 542.4133,711.4509 536.0351,711.698 529.6566,711.9338 523.2778,712.1582 516.8986,712.3713 510.5193,712.5731 504.1396,712.7635 497.7597,712.9427 491.3796,713.1105 484.9992,713.267 478.6187,713.4121 472.238,713.546 465.8571,713.6685 459.476,713.7797 453.0949,713.8795 446.7136,713.9681 440.3321,714.0453 433.9506,714.1112 427.569,714.1658 421.1874,714.2091 414.8057,714.241 408.4239,714.2616 402.0422,714.2709 395.6604,714.2688 389.2786,714.2555 382.8969,714.2308 376.5152,714.1948 370.1336,714.1475 363.752,714.0888 357.3705,714.0188 350.9892,713.9375 344.6079,713.8449 338.2268,713.741 331.8458,713.6257 325.4649,713.4991 319.0843,713.3612 312.7038,713.2119 306.3235,713.0514 299.9435,712.8795 293.5637,712.6963 287.1841,712.5017 280.8048,712.2959 274.4258,712.0787 268.0471,711.8502 261.6687,711.6104 255.2906,711.3592 248.9129,711.0967 242.5355,710.823 236.1584,710.5378 229.7818,710.2414 223.4055,709.9336 217.0297,709.6145 210.6543,709.2841 204.2794,708.9424 197.9049,708.5893 191.5309,708.2249 185.1573,707.8492 178.7843,707.4622 172.4118,707.0638 166.0398,706.6541 159.6684,706.2331 153.2975,705.8008 146.9272,705.3572 140.5575,704.9022 134.1885,704.4359 127.82,703.9583 121.4522,703.4693 115.085,702.969 108.7185,702.4575 102.3527,701.9345 95.9876,701.4003 89.6232,700.8547 83.2596,700.2978 76.8967,699.7296 70.5345,699.1501 64.1731,698.5592 60.1022,698.1751" stroke="black" stroke-opacity="0.5" stroke-width="1" /><polyline fill="none" points="60.1022,698.1751 61.0944,687.7273 62.0872,677.2803 63.0806,666.8341 64.0748,656.3887 65.0696,645.9441 66.0651,635.5001 67.0612,625.0569 68.0581,614.6143 69.0556,604.1724 70.0538,593.7312 71.0527,583.2905 72.0522,572.8504 73.0525,562.4108 74.0535,551.9718 75.0551,541.5333 76.0574,531.0953 77.0605,520.6577 78.0642,510.2206 79.0687,499.7838 80.0738,489.3474 81.0797,478.9114 82.0862,468.4757 83.0935,458.0404 84.1015,447.6053 85.1102,437.1704 86.1196,426.7358 87.1298,416.3014 88.1407,405.8672 89.1523,395.4331 90.1646,384.9992 91.1777,374.5653 92.1915,364.1316 93.206,353.6979 94.2213,343.2643 95.2373,332.8306 96.254,322.3969 97.2715,311.9632 98.2898,301.5295 99.3088,291.0956 100.3285,280.6616 101.349,270.2275 102.3703,259.7932 103.3923,249.3587 104.4151,238.924 105.4387,228.4891 106.463,218.0539 107.4881,207.6184 108.5139,197.1826 109.5406,186.7465 110.568,176.31 111.5962,165.8731 112.6252,155.4358 113.655,144.998 114.6855,134.5598 115.7169,124.1211 116.749,113.6819 117.7819,103.2422 118.8157,92.8019 119.8502,82.361 120.8855,71.9195" stroke="black" stroke-opacity="0.5" stroke-width="1" /></svg>