<?xml version="1.0" encoding="utf-8" ?>
<svg baseProfile="tiny" height="800" version="1.2" width="800" xmlns="http://www.w3.org/2000/svg" xmlns:ev="http://www.w3.org/2001/xml-events" xmlns:xlink="http://www.w3.org/1999/xlink"><defs /><rect fill="none" height="800" stroke="black" stroke-width="2" width="800" x="0" y="0" /><polyline fill="none" points="646.6935,703.0728 645.7429,692.627 644.7919,682.182 643.8404,671.7378 642.8884,661.2943 641.936,650.8516 640.9832,640.4095 640.0299,629.9681 639.0761,619.5273 638.1218,609.0872 637.1671,598.6476 636.2119,588.2087 635.2562,577.7702 634.3001,567.3323 633.3435,556.8949 632.3864,546.4579 631.4288,536.0214 630.4708,525.5853 629.5122,515.1496 628.5532,504.7143 627.5937,494.2793 626.6337,483.8446 625.6732,473.4102 624.7122,462.9761 623.7507,452.5422 622.7887,442.1086 621.8262,431.6752 620.8632,421.2419 619.8996,410.8088 618.9356,400.3758 617.9711,389.9428 617.006,379.51 616.0404,369.0772 615.0744,358.6444 614.1077,348.2117 613.1406,337.7789 612.1729,327.346 611.2048,316.9131 610.236,306.4801 609.2668,296.0469 608.297,285.6136 607.3267,275.1801 606.3558,264.7464 605.3844,254.3125 604.4124,243.8783 603.4399,233.4439 602.4669,223.0092 601.4933,212.5741 600.5191,202.1387 599.5444,191.7029 598.5691,181.2667 597.5933,170.8301 596.6169,160.393 595.6399,149.9555 594.6624,139.5175 593.6843,129.0789 592.7056,118.6398 591.7264,108.2001 590.7466,97.7599 589.7661,87.3189 588.7851,76.8774" stroke="silver" stroke-opacity="0.5" stroke-width="1" /><polyline fill="none" points="489.7222,712.7928 489.3767,702.3148 489.031,691.8376 488.6851,681.3611 488.339,670.8853 487.9928,660.4102 487.6464,649.9356 487.2999,639.4617 486.9531,628.9884 486.6062,618.5156 486.2592,608.0434 485.9119,597.5716 485.5645,587.1004 485.2169,576.6296 484.8692,566.1592 484.5212,555.6893 484.1731,545.2197 483.8248,534.7505 483.4764,524.2816 483.1277,513.813 482.7789,503.3447 482.4299,492.8767 482.0807,482.4089 481.7313,471.9413 481.3818,461.4739 481.032,451.0067 480.6821,440.5396 480.332,430.0726 479.9817,419.6056 479.6313,409.1388 479.2806,398.672 478.9297,388.2052 478.5787,377.7383 478.2275,367.2715 477.876,356.8045 477.5244,346.3375 477.1726,335.8704 476.8206,325.4031 476.4684,314.9356 476.116,304.468 475.7634,294.0001 475.4106,283.5321 475.0577,273.0637 474.7045,262.5951 474.3511,252.1261 473.9975,241.6568 473.6437,231.1871 473.2898,220.7171 472.9356,210.2466 472.5812,199.7757 472.2266,189.3044 471.8718,178.8325 471.5168,168.3601 471.1616,157.8872 470.8061,147.4138 470.4505,136.9397 470.0947,126.465 469.7386,115.9897 469.3824,105.5137 469.0259,95.0371 468.6692,84.5597" stroke="silver" stroke-opacity="0.5" stroke-width="1" /><polyline fill="none" points="332.4941,713.4345 332.7541,702.9544 333.0142,692.4751 333.2745,681.9965 333.5348,671.5185 333.7953,661.0412 334.0559,650.5646 334.3166,640.0885 334.5775,629.613 334.8385,619.1381 335.0996,608.6637 335.3609,598.1898 335.6223,587.7164 335.8838,577.2434 336.1454,566.7709 336.4072,556.2987 336.6691,545.827 336.9311,535.3556 337.1933,524.8845 337.4556,514.4138 337.7181,503.9433 337.9806,493.473 338.2434,483.003 338.5062,472.5332 338.7692,462.0636 339.0323,451.5942 339.2956,441.1248 339.559,430.6556 339.8226,420.1865 340.0862,409.7174 340.3501,399.2483 340.614,388.7792 340.8782,378.3102 341.1424,367.8411 341.4068,357.3719 341.6714,346.9026 341.936,336.4332 342.2009,325.9636 342.4659,315.4939 342.731,305.024 342.9963,294.5539 343.2617,284.0835 343.5273,273.6129 343.793,263.1419 344.0589,252.6707 344.3249,242.1991 344.5911,231.7271 344.8574,221.2548 345.1239,210.782 345.3905,200.3088 345.6573,189.8351 345.9242,179.3609 346.1913,168.8862 346.4586,158.4109 346.726,147.9351 346.9936,137.4587 347.2613,126.9817 347.5292,116.504 347.7972,106.0257 348.0654,95.5467 348.3338,85.0669" stroke="silver" stroke-opacity="0.5" stroke-width="1" /><polyline fill="none" points="175.4592,704.997 176.3244,694.5449 177.1899,684.0935 178.0559,673.6429 178.9223,663.193 179.7891,652.7438 180.6563,642.2953 181.5239,631.8475 182.392,621.4003 183.2605,610.9537 184.1294,600.5077 184.9987,590.0622 185.8685,579.6172 186.7387,569.1728 187.6093,558.7289 188.4804,548.2854 189.3519,537.8423 190.2238,527.3996 191.0962,516.9574 191.9691,506.5155 192.8423,496.0739 193.7161,485.6326 194.5902,475.1916 195.4649,464.7509 196.34,454.3104 197.2155,443.8701 198.0915,433.4299 198.968,422.99 199.8449,412.5502 200.7223,402.1105 201.6001,391.6708 202.4785,381.2313 203.3573,370.7917 204.2365,360.3522 205.1163,349.9127 205.9965,339.4731 206.8772,329.0335 207.7584,318.5937 208.6401,308.1539 209.5222,297.7139 210.4048,287.2737 211.288,276.8334 212.1716,266.3929 213.0557,255.9521 213.9403,245.511 214.8255,235.0697 215.7111,224.628 216.5972,214.186 217.4838,203.7437 218.3709,193.3009 219.2586,182.8578 220.1467,172.4142 221.0354,161.9701 221.9246,151.5256 222.8143,141.0805 223.7045,130.635 224.5952,120.1888 225.4865,109.7421 226.3783,99.2947 227.2706,88.8467 228.1635,78.3981" stroke="silver" stroke-opacity="0.5" stroke-width="1" /><polyline fill="none" points="758.4686,690.5712 756.1794,690.8743 750.9759,691.5558 745.7714,692.2272 740.5657,692.8886 735.3589,693.5399 730.151,694.1812 724.9421,694.8124 719.7322,695.4335 714.5212,696.0446 709.3093,696.6456 704.0963,697.2366 698.8824,697.8175 693.6675,698.3883 688.4517,698.9491 683.235,699.4998 678.0173,700.0404 672.7988,700.571 667.5794,701.0915 662.3592,701.6019 657.1381,702.1023 651.9162,702.5926 646.6935,703.0728 641.47,703.543 636.2458,704.003 631.0208,704.453 625.795,704.893 620.5686,705.3228 615.3414,705.7426 610.1136,706.1523 604.8851,706.5519 599.6559,706.9414 594.4261,707.3209 589.1957,707.6903 583.9646,708.0496 578.733,708.3988 573.5009,708.7379 568.2681,709.067 563.0349,709.386 557.8011,709.6949 552.5668,709.9937 547.332,710.2824 542.0968,710.5611 536.8611,710.8296 531.6249,711.0881 526.3884,711.3365 521.1514,711.5748 515.9141,711.803 510.6764,712.0211 505.4384,712.2292 500.2,712.4271 494.9613,712.615 489.7222,712.7928 484.4829,712.9605 479.2434,713.1181 474.0036,713.2656 468.7635,713.403 463.5232,713.5304 458.2828,713.6476 453.0421,713.7548 447.8013,713.8518 442.5603,713.9388 437.3192,714.0157 432.0779,714.0825 426.8366,714.1392 421.5952,714.1858 416.3537,714.2223 411.1122,714.2488 405.8706,714.2651 400.629,714.2714 395.3874,714.2676 390.1458,714.2536 384.9043,714.2296 379.6628,714.1955 374.4213,714.1513 369.18,714.097 363.9387,714.0326 358.6976,713.9582 353.4565,713.8736 348.2157,713.779 342.975,713.6742 337.7345,713.5594 332.4941,713.4345 327.254,713.2995 322.0142,713.1544 316.7745,712.9992 311.5352,712.8339 306.2961,712.6586 301.0573,712.4731 295.8188,712.2776 290.5807,712.072 285.3429,711.8563 280.1055,711.6305 274.8684,711.3946 269.6318,711.1486 264.3956,710.8926 259.1598,710.6264 253.9244,710.3502 248.6895,710.0639 243.4551,709.7675 238.2212,709.461 232.9878,709.1445 227.755,708.8178 222.5226,708.4811 217.2909,708.1343 212.0597,707.7774 206.8292,707.4105 201.5992,707.0334 196.3699,706.6463 191.1412,706.2491 185.9132,705.8418 180.6859,705.4245 175.4592,704.997 170.2333,704.5595 165.0081,704.112 159.7837,703.6543 154.56,703.1866 149.3372,702.7088 144.1151,702.2209 138.8938,701.7229 133.6733,701.2149 128.4538,700.6968 123.235,700.1687 118.0172,699.6305 112.8002,699.0822 107.5842,698.5238 102.3691,697.9554 97.155,697.3769 91.9418,696.7884 86.7296,696.1898 81.5184,695.5811 76.3082,694.9624 71.099,694.3336 65.8909,693.6947 60.6839,693.0458 55.4779,692.3868 50.2731,691.7178 45.0693,691.0387 41.5314,690.5712" stroke="silver" stroke-opacity="0.5" stroke-width="1" /><polyline fill="none" points="747.3927,607.3592 745.1744,607.6542 740.1321,608.3175 735.0887,608.971 730.0442,609.6147 724.9986,610.2486 719.952,610.8728 714.9043,611.4872 709.8556,612.0917 704.8059,612.6865 699.7552,613.2715 694.7036,613.8467 689.651,614.4121 684.5974,614.9677 679.543,615.5136 674.4876,616.0496 669.4313,616.5758 664.3742,617.0922 659.3162,617.5988 654.2574,618.0957 649.1978,618.5827 644.1373,619.0599 639.0761,619.5273 634.0141,619.985 628.9513,620.4328 623.8878,620.8708 618.8235,621.299 613.7586,621.7174 608.693,622.126 603.6267,622.5247 598.5597,622.9137 593.4921,623.2929 588.4238,623.6622 583.355,624.0218 578.2856,624.3715 573.2156,624.7114 568.145,625.0415 563.0739,625.3618 558.0022,625.6723 552.9301,625.973 547.8574,626.2638 542.7843,626.5449 537.7107,626.8161 532.6367,627.0775 527.5622,627.3291 522.4874,627.5709 517.4121,627.8028 512.3365,628.025 507.2605,628.2373 502.1841,628.4398 497.1074,628.6325 492.0304,628.8153 486.9531,628.9884 481.8756,629.1516 476.7977,629.305 471.7196,629.4486 466.6413,629.5824 461.5628,629.7063 456.4841,629.8204 451.4051,629.9248 446.3261,630.0192 441.2468,630.1039 436.1675,630.1787 431.088,630.2438 426.0084,630.299 420.9287,630.3443 415.849,630.3799 410.7692,630.4056 405.6894,630.4215 400.6096,630.4276 395.5297,630.4239 390.4499,630.4103 385.3701,630.387 380.2904,630.3538 375.2107,630.3107 370.1311,630.2579 365.0516,630.1952 359.9722,630.1228 354.8929,630.0405 349.8138,629.9483 344.7349,629.8464 339.6561,629.7346 334.5775,629.613 329.4991,629.4816 324.421,629.3404 319.3431,629.1893 314.2655,629.0285 309.1881,628.8578 304.111,628.6773 299.0343,628.4869 293.9578,628.2868 288.8817,628.0768 283.806,627.857 278.7307,627.6274 273.6557,627.388 268.5811,627.1388 263.507,626.8797 258.4333,626.6109 253.3601,626.3322 248.2873,626.0437 243.215,625.7454 238.1433,625.4372 233.072,625.1193 228.0013,624.7915 222.9312,624.454 217.8616,624.1066 212.7926,623.7494 207.7242,623.3824 202.6565,623.0056 197.5894,622.619 192.5229,622.2226 187.4571,621.8163 182.392,621.4003 177.3276,620.9744 172.2639,620.5388 167.2009,620.0933 162.1387,619.6381 157.0773,619.173 152.0167,618.6981 146.9568,618.2134 141.8978,617.719 136.8396,617.2147 131.7823,616.7006 126.7258,616.1768 121.6702,615.6431 116.6156,615.0996 111.5618,614.5464 106.509,613.9833 101.4571,613.4105 96.4062,612.8278 91.3562,612.2354 86.3073,611.6332 81.2594,611.0211 76.2125,610.3993 71.1667,609.7677 66.1219,609.1264 61.0782,608.4752 56.0356,607.8142 52.6073,607.3592" stroke="silver" stroke-opacity="0.5" stroke-width="1" /><polyline fill="none" points="736.274,524.1916 734.1269,524.4784 729.2463,525.1232 724.3646,525.7585 719.4819,526.3844 714.5981,527.0007 709.7133,527.6075 704.8275,528.2047 699.9406,528.7925 695.0528,529.3707 690.164,529.9395 685.2743,530.4987 680.3836,531.0484 675.492,531.5885 670.5995,532.1192 665.7061,532.6403 660.8119,533.1519 655.9167,533.6539 651.0208,534.1465 646.124,534.6295 641.2264,535.103 636.328,535.567 631.4288,536.0214 626.5289,536.4663 621.6282,536.9017 616.7268,537.3275 611.8247,537.7438 606.9219,538.1506 602.0184,538.5478 597.1143,538.9355 592.2095,539.3137 587.3041,539.6823 582.398,540.0414 577.4914,540.391 572.5842,540.731 567.6764,541.0615 562.7681,541.3824 557.8592,541.6938 552.9498,541.9957 548.0399,542.288 543.1296,542.5708 538.2187,542.844 533.3074,543.1077 528.3957,543.3618 523.4836,543.6064 518.571,543.8415 513.6581,544.067 508.7447,544.283 503.8311,544.4894 498.917,544.6863 494.0027,544.8737 489.0881,545.0514 484.1731,545.2197 479.2579,545.3784 474.3424,545.5275 469.4267,545.6671 464.5108,545.7972 459.5946,545.9177 454.6783,546.0287 449.7617,546.1301 444.845,546.2219 439.9282,546.3042 435.0112,546.377 430.0941,546.4402 425.1769,546.4939 420.2597,546.538 415.3423,546.5726 410.425,546.5976 405.5075,546.6131 400.5901,546.619 395.6727,546.6154 390.7552,546.6022 385.8378,546.5795 380.9205,546.5472 376.0032,546.5053 371.086,546.454 366.1689,546.3931 361.2519,546.3226 356.335,546.2426 351.4183,546.153 346.5017,546.0539 341.5853,545.9452 336.6691,545.827 331.7531,545.6992 326.8373,545.5619 321.9218,545.415 317.0065,545.2586 312.0915,545.0927 307.1768,544.9172 302.2624,544.7321 297.3483,544.5376 292.4345,544.3334 287.5211,544.1197 282.6081,543.8965 277.6954,543.6637 272.7832,543.4214 267.8713,543.1696 262.9599,542.9082 258.049,542.6372 253.1385,542.3567 248.2285,542.0667 243.319,541.7671 238.41,541.458 233.5015,541.1394 228.5936,540.8112 223.6863,540.4734 218.7795,540.1262 213.8733,539.7694 208.9677,539.403 204.0628,539.0271 199.1585,538.6417 194.2549,538.2468 189.3519,537.8423 184.4496,537.4283 179.548,537.0047 174.6472,536.5716 169.7471,536.129 164.8477,535.6769 159.9492,535.2152 155.0514,534.744 150.1544,534.2633 145.2582,533.773 140.3629,533.2732 135.4684,532.7639 130.5748,532.2451 125.6821,531.7167 120.7903,531.1789 115.8994,530.6315 111.0094,530.0745 106.1204,529.5081 101.2323,528.9321 96.3453,528.3467 91.4592,527.7517 86.5741,527.1472 81.6901,526.5331 76.8071,525.9096 71.9252,525.2765 67.0444,524.634 63.726,524.1916" stroke="silver" stroke-opacity="0.5" stroke-width="1" /><polyline fill="none" points="725.1108,441.0558 723.0351,441.3342 718.3169,441.9603 713.5976,442.5772 708.8773,443.1849 704.1559,443.7833 699.4336,444.3725 694.7102,444.9524 689.9859,445.5231 685.2606,446.0846 680.5343,446.6368 675.8071,447.1797 671.079,447.7135 666.3499,448.238 661.62,448.7532 656.8892,449.2592 652.1576,449.756 647.4251,450.2435 642.6918,450.7217 637.9577,451.1907 633.2228,451.6505 628.4871,452.101 623.7507,452.5422 619.0135,452.9742 614.2756,453.397 609.5369,453.8105 604.7976,454.2147 600.0576,454.6097 595.3169,454.9954 590.5756,455.3719 585.8336,455.7391 581.091,456.097 576.3478,456.4457 571.604,456.7851 566.8597,457.1153 562.1148,457.4362 557.3693,457.7478 552.6234,458.0502 547.8769,458.3433 543.1299,458.6272 538.3825,458.9018 533.6346,459.1671 528.8862,459.4231 524.1375,459.6699 519.3883,459.9074 514.6387,460.1357 509.8887,460.3547 505.1384,460.5644 500.3877,460.7648 495.6367,460.956 490.8853,461.1379 486.1337,461.3105 481.3818,461.4739 476.6296,461.628 471.8771,461.7728 467.1244,461.9084 462.3715,462.0347 457.6184,462.1517 452.8651,462.2595 448.1116,462.3579 443.358,462.4471 438.6042,462.5271 433.8502,462.5977 429.0962,462.6591 424.3421,462.7112 419.5879,462.7541 414.8336,462.7876 410.0793,462.8119 405.3249,462.8269 400.5705,462.8327 395.8161,462.8292 391.0618,462.8164 386.3074,462.7943 381.5532,462.763 376.7989,462.7223 372.0448,462.6725 367.2907,462.6133 362.5368,462.5449 357.7829,462.4672 353.0293,462.3802 348.2757,462.2839 343.5224,462.1784 338.7692,462.0636 334.0162,461.9396 329.2635,461.8062 324.511,461.6636 319.7587,461.5117 315.0067,461.3506 310.255,461.1802 305.5036,461.0005 300.7525,460.8116 296.0017,460.6133 291.2513,460.4058 286.5013,460.1891 281.7516,459.9631 277.0023,459.7278 272.2534,459.4832 267.505,459.2294 262.757,458.9663 258.0094,458.6939 253.2623,458.4123 248.5157,458.1214 243.7696,457.8213 239.0241,457.5118 234.279,457.1932 229.5346,456.8652 224.7906,456.528 220.0473,456.1816 215.3046,455.8258 210.5625,455.4608 205.821,455.0866 201.0801,454.7031 196.34,454.3104 191.6005,453.9083 186.8617,453.4971 182.1236,453.0766 177.3862,452.6468 172.6496,452.2077 167.9137,451.7595 163.1786,451.3019 158.4443,450.8351 153.7108,450.3591 148.9781,449.8738 144.2463,449.3793 139.5153,448.8755 134.7852,448.3625 130.0559,447.8402 125.3276,447.3087 120.6002,446.7679 115.8737,446.2179 111.1481,445.6587 106.4235,445.0902 101.6999,444.5125 96.9773,443.9255 92.2557,443.3293 87.5352,442.7239 82.8157,442.1092 78.0972,441.4853 74.8892,441.0558" stroke="silver" stroke-opacity="0.5" stroke-width="1" /><polyline fill="none" points="713.9014,357.9391 711.8974,358.2091 707.3422,358.8162 702.786,359.4144 698.2287,360.0036 693.6705,360.5838 689.1112,361.1551 684.551,361.7175 679.9898,362.2709 675.4276,362.8153 670.8645,363.3508 666.3005,363.8773 661.7356,364.3948 657.1698,364.9034 652.6032,365.403 648.0357,365.8937 643.4673,366.3754 638.8981,366.8481 634.3281,367.3119 629.7574,367.7667 625.1858,368.2125 620.6135,368.6493 616.0404,369.0772 611.4667,369.4961 606.8921,369.9061 602.3169,370.307 597.7411,370.699 593.1645,371.082 588.5873,371.456 584.0094,371.8211 579.431,372.1772 574.8519,372.5243 570.2722,372.8624 565.692,373.1915 561.1112,373.5117 556.5298,373.8229 551.948,374.1251 547.3656,374.4183 542.7827,374.7025 538.1993,374.9778 533.6155,375.244 529.0312,375.5013 524.4465,375.7496 519.8613,375.9889 515.2758,376.2193 510.6898,376.4406 506.1035,376.653 501.5169,376.8563 496.9299,377.0507 492.3425,377.2361 487.7549,377.4125 483.1669,377.5799 478.5787,377.7383 473.9902,377.8878 469.4015,378.0282 464.8125,378.1597 460.2233,378.2821 455.6339,378.3956 451.0443,378.5001 446.4545,378.5956 441.8646,378.6821 437.2746,378.7596 432.6844,378.8281 428.0941,378.8876 423.5037,378.9382 418.9132,378.9797 414.3227,379.0122 409.7321,379.0358 405.1415,379.0504 400.5509,379.056 395.9602,379.0525 391.3696,379.0401 386.779,379.0187 382.1885,378.9883 377.598,378.9489 373.0076,378.9006 368.4173,378.8432 363.8271,378.7768 359.237,378.7015 354.647,378.6171 350.0572,378.5238 345.4676,378.4215 340.8782,378.3102 336.2889,378.1899 331.6999,378.0606 327.1111,377.9223 322.5225,377.775 317.9342,377.6187 313.3462,377.4535 308.7585,377.2792 304.1711,377.096 299.584,376.9038 294.9972,376.7026 290.4108,376.4924 285.8248,376.2732 281.2392,376.045 276.6539,375.8079 272.0691,375.5617 267.4847,375.3066 262.9008,375.0425 258.3173,374.7694 253.7343,374.4873 249.1518,374.1963 244.5698,373.8962 239.9883,373.5872 235.4074,373.2692 230.827,372.9422 226.2472,372.6062 221.668,372.2613 217.0893,371.9074 212.5113,371.5445 207.934,371.1726 203.3573,370.7917 198.7812,370.4019 194.2058,370.0031 189.6312,369.5953 185.0572,369.1786 180.484,368.7528 175.9115,368.3182 171.3397,367.8745 166.7688,367.4218 162.1986,366.9602 157.6292,366.4897 153.0607,366.0101 148.493,365.5216 143.9261,365.0242 139.3601,364.5177 134.795,364.0023 130.2308,363.478 125.6675,362.9446 121.1051,362.4024 116.5436,361.8511 111.9832,361.2909 107.4237,360.7218 102.8652,360.1437 98.3077,359.5566 93.7512,358.9606 89.1957,358.3556 86.0986,357.9391" stroke="silver" stroke-opacity="0.5" stroke-width="1" /><polyline fill="none" points="702.6441,274.829 700.7122,275.0904 696.3207,275.6782 691.9282,276.2574 687.5346,276.8279 683.1401,277.3897 678.7446,277.9429 674.3482,278.4874 669.9508,279.0232 665.5525,279.5504 661.1533,280.0688 656.7532,280.5786 652.3522,281.0798 647.9503,281.5722 643.5476,282.056 639.144,282.5311 634.7396,282.9975 630.3345,283.4552 625.9285,283.9043 621.5217,284.3446 617.1142,284.7763 612.706,285.1993 608.297,285.6136 603.8873,286.0192 599.4769,286.4161 595.0658,286.8044 590.6541,287.1839 586.2417,287.5548 581.8286,287.917 577.415,288.2705 573.0007,288.6153 568.5858,288.9514 564.1704,289.2788 559.7544,289.5975 555.3378,289.9075 550.9207,290.2088 546.5031,290.5014 542.085,290.7853 537.6664,291.0606 533.2473,291.3271 528.8278,291.5849 524.4079,291.834 519.9875,292.0745 515.5667,292.3062 511.1455,292.5292 506.7239,292.7435 502.3019,292.9492 497.8796,293.1461 493.457,293.3343 489.0341,293.5138 484.6108,293.6846 480.1873,293.8467 475.7634,294.0001 471.3394,294.1448 466.915,294.2808 462.4905,294.4081 458.0657,294.5267 453.6407,294.6366 449.2156,294.7378 444.7903,294.8302 440.3648,294.914 435.9392,294.989 431.5135,295.0554 427.0876,295.113 422.6617,295.162 418.2357,295.2022 413.8096,295.2337 409.3835,295.2565 404.9573,295.2706 400.5311,295.276 396.105,295.2727 391.6788,295.2607 387.2527,295.24 382.8266,295.2106 378.4006,295.1724 373.9746,295.1256 369.5487,295.07 365.123,295.0058 360.6973,294.9328 356.2718,294.8511 351.8465,294.7607 347.4213,294.6617 342.9963,294.5539 338.5715,294.4374 334.1468,294.3122 329.7225,294.1783 325.2983,294.0357 320.8744,293.8844 316.4508,293.7243 312.0275,293.5556 307.6045,293.3782 303.1818,293.1921 298.7594,292.9972 294.3374,292.7937 289.9157,292.5815 285.4944,292.3605 281.0735,292.1309 276.653,291.8925 272.2329,291.6455 267.8133,291.3898 263.3941,291.1253 258.9754,290.8522 254.5572,290.5703 250.1395,290.2798 245.7222,289.9806 241.3056,289.6727 236.8894,289.356 232.4738,289.0307 228.0588,288.6967 223.6444,288.354 219.2306,288.0026 214.8174,287.6425 210.4048,287.2737 205.9929,286.8963 201.5817,286.5101 197.1711,286.1153 192.7613,285.7117 188.3521,285.2995 183.9437,284.8786 179.536,284.449 175.1291,284.0107 170.7229,283.5638 166.3175,283.1081 161.913,282.6438 157.5092,282.1708 153.1063,281.6891 148.7042,281.1987 144.303,280.6997 139.9027,280.192 135.5032,279.6756 131.1047,279.1505 126.7071,278.6168 122.3104,278.0744 117.9147,277.5233 113.5199,276.9635 109.1262,276.3951 104.7334,275.818 100.3417,275.2322 97.3559,274.829" stroke="silver" stroke-opacity="0.5" stroke-width="1" /><polyline fill="none" points="691.3373,191.7127 689.4777,191.9654 685.2506,192.5337 681.0225,193.0936 676.7934,193.6451 672.5633,194.1883 668.3323,194.723 664.1004,195.2494 659.8675,195.7674 655.6338,196.277 651.3991,196.7783 647.1636,197.2711 642.9272,197.7556 638.6899,198.2317 634.4519,198.6993 630.213,199.1586 625.9733,199.6095 621.7328,200.0521 617.4915,200.4862 613.2495,200.9119 609.0068,201.3292 604.7633,201.7382 600.5191,202.1387 596.2742,202.5308 592.0287,202.9146 587.7824,203.2899 583.5355,203.6569 579.288,204.0154 575.0399,204.3655 570.7911,204.7073 566.5417,205.0406 562.2918,205.3655 558.0413,205.6821 553.7903,205.9902 549.5387,206.2899 545.2866,206.5812 541.034,206.8641 536.7809,207.1386 532.5273,207.4047 528.2732,207.6623 524.0188,207.9116 519.7638,208.1525 515.5085,208.3849 511.2528,208.6089 506.9967,208.8246 502.7402,209.0318 498.4833,209.2306 494.2261,209.4209 489.9686,209.6029 485.7108,209.7765 481.4527,209.9416 477.1943,210.0983 472.9356,210.2466 468.6766,210.3865 464.4175,210.518 460.1581,210.6411 455.8985,210.7557 451.6387,210.8619 447.3787,210.9598 443.1185,211.0492 438.8583,211.1301 434.5978,211.2027 430.3373,211.2668 426.0766,211.3226 421.8159,211.3699 417.5551,211.4088 413.2942,211.4392 409.0333,211.4613 404.7723,211.4749 400.5113,211.4802 396.2503,211.477 391.9894,211.4653 387.7284,211.4453 383.4675,211.4168 379.2067,211.38 374.9459,211.3347 370.6853,211.281 366.4247,211.2189 362.1642,211.1483 357.9039,211.0694 353.6437,210.982 349.3837,210.8862 345.1239,210.782 340.8642,210.6694 336.6048,210.5483 332.3455,210.4188 328.0865,210.281 323.8278,210.1347 319.5693,209.98 315.3111,209.8169 311.0532,209.6453 306.7956,209.4654 302.5384,209.277 298.2814,209.0802 294.0249,208.8751 289.7686,208.6615 285.5128,208.4394 281.2574,208.209 277.0024,207.9702 272.7478,207.7229 268.4936,207.4673 264.24,207.2032 259.9867,206.9307 255.734,206.6499 251.4818,206.3606 247.2301,206.0629 242.9789,205.7568 238.7283,205.4423 234.4782,205.1194 230.2287,204.788 225.9798,204.4483 221.7315,204.1002 217.4838,203.7437 213.2368,203.3787 208.9904,203.0054 204.7446,202.6237 200.4996,202.2336 196.2552,201.8351 192.0116,201.4281 187.7687,201.0128 183.5265,200.5891 179.285,200.157 175.0444,199.7165 170.8045,199.2676 166.5654,198.8103 162.3271,198.3447 158.0897,197.8706 153.8531,197.3882 149.6174,196.8973 145.3825,196.3981 141.1485,195.8905 136.9154,195.3745 132.6833,194.8501 128.452,194.3174 124.2217,193.7762 119.9924,193.2267 115.7641,192.6688 111.5367,192.1026 108.6627,191.7127" stroke="silver" stroke-opacity="0.5" stroke-width="1" /><polyline fill="none" points="679.9792,108.5778 678.1922,108.8216 674.1302,109.3701 670.0672,109.9104 666.0033,110.4427 661.9384,110.9669 657.8726,111.483 653.8059,111.991 649.7383,112.4909 645.6698,112.9827 641.6004,113.4664 637.5302,113.9421 633.4592,114.4096 629.3873,114.8691 625.3146,115.3205 621.2411,115.7637 617.1668,116.1989 613.0918,116.626 609.016,117.0449 604.9395,117.4558 600.8622,117.8586 596.7843,118.2532 592.7056,118.6398 588.6263,119.0183 584.5463,119.3886 580.4657,119.7509 576.3844,120.105 572.3025,120.451 568.2199,120.789 564.1368,121.1188 560.0531,121.4405 555.9689,121.7541 551.8841,122.0596 547.7987,122.357 543.7129,122.6462 539.6265,122.9274 535.5397,123.2004 531.4523,123.4653 527.3645,123.7221 523.2763,123.9708 519.1876,124.2114 515.0985,124.4439 511.009,124.6682 506.919,124.8844 502.8288,125.0925 498.7381,125.2925 494.6471,125.4844 490.5558,125.6681 486.4642,125.8437 482.3722,126.0112 478.28,126.1706 474.1874,126.3219 470.0947,126.465 466.0016,126.6 461.9084,126.7269 457.8149,126.8457 453.7212,126.9564 449.6274,127.0589 445.5333,127.1533 441.4391,127.2396 437.3448,127.3177 433.2503,127.3878 429.1557,127.4497 425.061,127.5035 420.9662,127.5491 416.8713,127.5867 412.7764,127.6161 408.6814,127.6374 404.5864,127.6505 400.4914,127.6556 396.3964,127.6525 392.3014,127.6413 388.2064,127.6219 384.1115,127.5945 380.0166,127.5589 375.9218,127.5152 371.827,127.4633 367.7324,127.4034 363.6379,127.3353 359.5435,127.2591 355.4493,127.1747 351.3552,127.0823 347.2613,126.9817 343.1676,126.873 339.074,126.7562 334.9807,126.6312 330.8876,126.4982 326.7948,126.357 322.7022,126.2077 318.6099,126.0502 314.5179,125.8847 310.4262,125.711 306.3348,125.5292 302.2437,125.3393 298.153,125.1413 294.0626,124.9351 289.9726,124.7208 285.883,124.4984 281.7938,124.2679 277.705,124.0293 273.6166,123.7826 269.5287,123.5277 265.4413,123.2647 261.3543,122.9936 257.2678,122.7144 253.1818,122.4271 249.0963,122.1317 245.0114,121.8282 240.927,121.5165 236.8432,121.1967 232.7599,120.8689 228.6773,120.5329 224.5952,120.1888 220.5138,119.8366 216.433,119.4763 212.3528,119.1079 208.2733,118.7314 204.1945,118.3468 200.1164,117.954 196.039,117.5532 191.9623,117.1443 187.8863,116.7273 183.8111,116.3021 179.7366,115.8689 175.663,115.4276 171.5901,114.9782 167.518,114.5207 163.4468,114.055 159.3763,113.5813 155.3068,113.0995 151.2381,112.6097 147.1702,112.1117 143.1033,111.6056 139.0373,111.0915 134.9722,110.5692 130.908,110.0389 126.8448,109.5005 122.7826,108.954 120.0208,108.5778" stroke="silver" stroke-opacity="0.5" stroke-width="1" /><circle cx="720.1447" cy="422.0049" fill="black" r="0.738" stroke="none" /><circle cx="701.7686" cy="317.0026" fill="black" r="0.738" stroke="none" /><circle cx="739.1591" cy="630.0239" fill="black" r="0.738" stroke="none" /><circle cx="722.7944" cy="579.9138" fill="black" r="0.738" stroke="none" /><circle cx="706.1689" cy="451.2215" fill="black" r="0.738" stroke="none" /><circle cx="691.783" cy="338.6772" fill="black" r="0.936" stroke="none" /><circle cx="723.6247" cy="687.361" fill="black" r="0.738" stroke="none" /><circle cx="714.3657" cy="638.934" fill="black" r="0.738" stroke="none" /><circle cx="665.4616" cy="257.0969" fill="black" r="0.738" stroke="none" /><circle cx="708.4489" cy="622.0589" fill="black" r="0.936" stroke="none" /><circle cx="702.0605" cy="594.7621" fill="black" r="0.738" stroke="none" /><circle cx="639.0441" cy="96.7856" fill="black" r="0.738" stroke="none" /><circle cx="674.0474" cy="428.7304" fill="black" r="0.738" stroke="none" /><circle cx="636.4142" cy="125.2186" fill="black" r="0.738" stroke="none" /><circle cx="653.3641" cy="318.3414" fill="black" r="0.738" stroke="none" /><circle cx="634.1104" cy="274.9708" fill="black" r="0.738" stroke="none" /><circle cx="613.0649" cy="91.9132" fill="black" r="0.738" stroke="none" /><circle cx="628.9346" cy="296.6605" fill="black" r="0.738" stroke="none" /><circle cx="612.6087" cy="138.9385" fill="black" r="0.738" stroke="none" /><circle cx="638.5556" cy="529.0407" fill="black" r="0.738" stroke="none" /><circle cx="647.5207" cy="633.3173" fill="black" r="0.738" stroke="none" /><circle cx="631.6049" cy="564.9678" fill="black" r="0.738" stroke="none" /><circle cx="615.6496" cy="397.1422" fill="black" r="0.738" stroke="none" /><circle cx="627.038" cy="562.5999" fill="black" r="0.738" stroke="none" /><circle cx="614.6879" cy="431.4817" fill="black" r="0.738" stroke="none" /><circle cx="597.2634" cy="302.5992" fill="black" r="0.738" stroke="none" /><circle cx="598.664" cy="319.4727" fill="black" r="0.738" stroke="none" /><circle cx="594.3861" cy="580.5971" fill="black" r="0.738" stroke="none" /><circle cx="564.9654" cy="235.7645" fill="black" r="0.738" stroke="none" /><circle cx="593.0351" cy="668.8181" fill="black" r="0.738" stroke="none" /><circle cx="553.9849" cy="161.0043" fill="black" r="0.738" stroke="none" /><circle cx="561.5573" cy="267.0317" fill="black" r="0.738" stroke="none" /><circle cx="570.9941" cy="404.3184" fill="black" r="0.936" stroke="none" /><circle cx="549.8638" cy="125.9075" fill="black" r="0.738" stroke="none" /><circle cx="570.3884" cy="428.8946" fill="black" r="0.738" stroke="none" /><circle cx="543.7438" cy="108.6037" fill="black" r="0.738" stroke="none" /><circle cx="573.0507" cy="580.4403" fill="black" r="0.738" stroke="none" /><circle cx="538.7124" cy="165.3447" fill="black" r="0.738" stroke="none" /><circle cx="553.8137" cy="415.5707" fill="black" r="1.17" stroke="none" /><circle cx="555.7083" cy="483.2982" fill="black" r="0.738" stroke="none" /><circle cx="528.8558" cy="207.1237" fill="black" r="0.738" stroke="none" /><circle cx="548.9373" cy="585.7282" fill="black" r="0.936" stroke="none" /><circle cx="517.9167" cy="83.3723" fill="black" r="0.738" stroke="none" /><circle cx="521.9276" cy="179.2312" fill="black" r="1.476" stroke="none" /><circle cx="547.4562" cy="660.8862" fill="black" r="0.738" stroke="none" /><circle cx="509.6722" cy="342.6842" fill="black" r="0.738" stroke="none" /><circle cx="512.0506" cy="564.8597" fill="black" r="0.738" stroke="none" /><circle cx="505.8956" cy="426.8165" fill="black" r="0.738" stroke="none" /><circle cx="496.6205" cy="269.8832" fill="black" r="0.936" stroke="none" /><circle cx="503.1576" cy="476.8349" fill="black" r="0.738" stroke="none" /><circle cx="498.4617" cy="458.3278" fill="black" r="0.738" stroke="none" /><circle cx="480.5148" cy="90.8364" fill="black" r="0.738" stroke="none" /><circle cx="488.9467" cy="430.3558" fill="black" r="0.738" stroke="none" /><circle cx="477.8266" cy="618.7917" fill="black" r="0.738" stroke="none" /><circle cx="465.6955" cy="263.8867" fill="black" r="0.738" stroke="none" /><circle cx="470.4007" cy="532.6465" fill="black" r="0.738" stroke="none" /><circle cx="470.528" cy="622.94" fill="black" r="0.936" stroke="none" /><circle cx="454.1496" cy="196.8829" fill="black" r="0.738" stroke="none" /><circle cx="457.7939" cy="397.6183" fill="black" r="0.738" stroke="none" /><circle cx="452.5393" cy="247.0545" fill="black" r="0.738" stroke="none" /><circle cx="447.1801" cy="141.9602" fill="black" r="0.936" stroke="none" /><circle cx="441.9591" cy="112.6363" fill="black" r="0.738" stroke="none" /><circle cx="453.1878" cy="676.6796" fill="black" r="1.476" stroke="none" /><circle cx="447.8688" cy="455.8265" fill="black" r="0.738" stroke="none" /><circle cx="447.4385" cy="455.1646" fill="black" r="0.738" stroke="none" /><circle cx="435.2712" cy="367.7307" fill="black" r="0.738" stroke="none" /><circle cx="437.4886" cy="699.0005" fill="black" r="0.738" stroke="none" /><circle cx="431.1993" cy="534.0243" fill="black" r="0.738" stroke="none" /><circle cx="419.9082" cy="226.3902" fill="black" r="0.738" stroke="none" /><circle cx="420.8556" cy="616.0948" fill="black" r="0.936" stroke="none" /><circle cx="396.1019" cy="574.7727" fill="black" r="0.738" stroke="none" /><circle cx="392.6845" cy="587.5875" fill="black" r="0.738" stroke="none" /><circle cx="389.2375" cy="506.3763" fill="black" r="0.936" stroke="none" /><circle cx="390.1843" cy="211.1226" fill="black" r="0.738" stroke="none" /><circle cx="389.5228" cy="302.0384" fill="black" r="0.936" stroke="none" /><circle cx="388.8429" cy="393.0202" fill="black" r="0.738" stroke="none" /><circle cx="385.6137" cy="123.5808" fill="black" r="0.738" stroke="none" /><circle cx="379.9577" cy="412.7334" fill="black" r="0.936" stroke="none" /><circle cx="373.1912" cy="209.8887" fill="black" r="0.738" stroke="none" /><circle cx="363.835" cy="354.7298" fill="black" r="0.738" stroke="none" /><circle cx="360.5423" cy="371.0152" fill="black" r="0.738" stroke="none" /><circle cx="355.644" cy="558.8023" fill="black" r="0.936" stroke="none" /><circle cx="352.3386" cy="488.2606" fill="black" r="0.936" stroke="none" /><circle cx="353.7059" cy="299.0738" fill="black" r="0.738" stroke="none" /><circle cx="353.0663" cy="206.1911" fill="black" r="0.738" stroke="none" /><circle cx="355.2629" cy="86.7425" fill="black" r="0.738" stroke="none" /><circle cx="339.0712" cy="600.9625" fill="black" r="0.738" stroke="none" /><circle cx="341.321" cy="500.5109" fill="black" r="0.738" stroke="none" /><circle cx="342.406" cy="451.509" fill="black" r="0.738" stroke="none" /><circle cx="349.907" cy="96.7674" fill="black" r="0.738" stroke="none" /><circle cx="333.2487" cy="550.182" fill="black" r="0.738" stroke="none" /><circle cx="327.0933" cy="638.5569" fill="black" r="0.738" stroke="none" /><circle cx="332.5148" cy="276.8272" fill="black" r="0.738" stroke="none" /><circle cx="313.2327" cy="543.9582" fill="black" r="0.738" stroke="none" /><circle cx="307.2384" cy="697.4179" fill="black" r="0.738" stroke="none" /><circle cx="322.4322" cy="110.8414" fill="black" r="0.738" stroke="none" /><circle cx="303.0006" cy="610.4332" fill="black" r="0.738" stroke="none" /><circle cx="305.5129" cy="363.0632" fill="black" r="0.738" stroke="none" /><circle cx="292.2104" cy="691.2371" fill="black" r="0.738" stroke="none" /><circle cx="305.0481" cy="331.9331" fill="black" r="0.738" stroke="none" /><circle cx="286.3444" cy="489.2052" fill="black" r="1.17" stroke="none" /><circle cx="299.7847" cy="146.4596" fill="black" r="0.936" stroke="none" /><circle cx="285.4072" cy="446.297" fill="black" r="0.738" stroke="none" /><circle cx="282.5338" cy="300.1793" fill="black" r="0.738" stroke="none" /><circle cx="279.8298" cy="190.4988" fill="black" r="0.738" stroke="none" /><circle cx="257.6766" cy="563.4351" fill="black" r="0.738" stroke="none" /><circle cx="262.0169" cy="364.498" fill="black" r="0.738" stroke="none" /><circle cx="244.5218" cy="649.2577" fill="black" r="0.738" stroke="none" /><circle cx="248.3223" cy="425.6155" fill="black" r="0.738" stroke="none" /><circle cx="254.9928" cy="313.1882" fill="black" r="0.738" stroke="none" /><circle cx="237.2822" cy="556.0003" fill="black" r="0.738" stroke="none" /><circle cx="252.5598" cy="275.1539" fill="black" r="0.738" stroke="none" /><circle cx="237.2841" cy="506.1939" fill="black" r="0.738" stroke="none" /><circle cx="228.1538" cy="559.0126" fill="black" r="0.738" stroke="none" /><circle cx="223.0518" cy="604.1248" fill="black" r="0.738" stroke="none" /><circle cx="223.7897" cy="459.8167" fill="black" r="0.738" stroke="none" /><circle cx="227.5704" cy="230.1426" fill="black" r="0.738" stroke="none" /><circle cx="213.0705" cy="321.0543" fill="black" r="0.738" stroke="none" /><circle cx="178.7728" cy="682.6248" fill="black" r="0.936" stroke="none" /><circle cx="195.8788" cy="467.1406" fill="black" r="0.738" stroke="none" /><circle cx="200.5473" cy="407.3104" fill="black" r="0.738" stroke="none" /><circle cx="225.9407" cy="100.6044" fill="black" r="0.738" stroke="none" /><circle cx="195.1825" cy="448.5774" fill="black" r="1.17" stroke="none" /><circle cx="216.4924" cy="183.8832" fill="black" r="0.738" stroke="none" /><circle cx="197.6141" cy="374.0868" fill="black" r="0.738" stroke="none" /><circle cx="166.1063" cy="650.0572" fill="black" r="0.738" stroke="none" /><circle cx="191.5264" cy="342.9199" fill="black" r="0.738" stroke="none" /><circle cx="179.4706" cy="454.0995" fill="black" r="0.738" stroke="none" /><circle cx="155.9394" cy="597.4181" fill="black" r="0.738" stroke="none" /><circle cx="188.0897" cy="170.1164" fill="black" r="0.738" stroke="none" /><circle cx="168.3367" cy="273.6249" fill="black" r="0.738" stroke="none" /><circle cx="167.3774" cy="279.0883" fill="black" r="0.738" stroke="none" /><circle cx="168.888" cy="217.5321" fill="black" r="0.738" stroke="none" /><circle cx="165.0135" cy="230.357" fill="black" r="0.738" stroke="none" /><circle cx="143.9841" cy="405.5937" fill="black" r="0.738" stroke="none" /><circle cx="118.745" cy="580.9889" fill="black" r="0.738" stroke="none" /><circle cx="136.5245" cy="405.7056" fill="black" r="0.738" stroke="none" /><circle cx="114.5021" cy="595.2905" fill="black" r="0.738" stroke="none" /><circle cx="106.7446" cy="646.9346" fill="black" r="0.738" stroke="none" /><circle cx="138.5176" cy="351.346" fill="black" r="0.936" stroke="none" /><circle cx="162.4474" cy="139.5275" fill="black" r="0.936" stroke="none" /><circle cx="145.7616" cy="268.8823" fill="black" r="0.738" stroke="none" /><circle cx="151.955" cy="93.5081" fill="black" r="0.738" stroke="none" /><circle cx="104.051" cy="425.4536" fill="black" r="0.738" stroke="none" /><circle cx="86.2013" cy="531.4117" fill="black" r="0.738" stroke="none" /><circle cx="82.7398" cy="475.3388" fill="black" r="0.738" stroke="none" /><circle cx="60.9608" cy="640.3632" fill="black" r="0.738" stroke="none" /><circle cx="87.9909" cy="417.7504" fill="black" r="0.738" stroke="none" /><circle cx="108.6637" cy="217.2783" fill="black" r="1.17" stroke="none" /><circle cx="59.1463" cy="581.8156" fill="black" r="0.738" stroke="none" /><circle cx="61.2447" cy="557.4631" fill="black" r="0.738" stroke="none" /><circle cx="13.77" cy="786.23" fill="black" r="4.59" stroke="none" /><circle cx="13.77" cy="786.23" fill="black" r="4.59" stroke="none" /><text fill="black" font-family="monospace" font-size="12" x="10.77" y="775.64">1</text><circle cx="37.77" cy="786.23" fill="black" r="3.654" stroke="none" /><circle cx="37.77" cy="786.23" fill="black" r="3.654" stroke="none" /><text fill="black" font-family="monospace" font-size="12" x="34.769999999999996" y="775.64">2</text><circle cx="61.77" cy="786.23" fill="black" r="2.916" stroke="none" /><circle cx="61.77" cy="786.23" fill="black" r="2.916" stroke="none" /><text fill="black" font-family="monospace" font-size="12" x="58.769999999999996" y="775.64">3</text><circle cx="85.77" cy="786.23" fill="black" r="2.322" stroke="none" /><circle cx="85.77" cy="786.23" fill="black" r="2.322" stroke="none" /><text fill="black" font-family="monospace" font-size="12" x="82.77" y="775.64">4</text><circle cx="109.77" cy="786.23" fill="black" r="1.854" stroke="none" /><circle cx="109.77" cy="786.23" fill="black" r="1.854" stroke="none" /><text fill="black" font-family="monospace" font-size="12" x="106.77" y="775.64">5</text><circle cx="133.77" cy="786.23" fill="black" r="1.476" stroke="none" /><circle cx="133.77" cy="786.23" fill="black" r="1.476" stroke="none" /><text fill="black" font-family="monospace" font-size="12" x="130.77" y="775.64">6</text><circle cx="157.77" cy="786.23" fill="black" r="1.17" stroke="none" /><circle cx="157.77" cy="786.23" fill="black" r="1.17" stroke="none" /><text fill="black" font-family="monospace" font-size="12" x="154.77" y="775.64">7</text><circle cx="181.77" cy="786.23" fill="black" r="0.936" stroke="none" /><circle cx="181.77" cy="786.23" fill="black" r="0.936" stroke="none" /><text fill="black" font-family="monospace" font-size="12" x="178.77" y="775.64">8</text><circle cx="205.77" cy="786.23" fill="black" r="0.738" stroke="none" /><circle cx="205.77" cy="786.23" fill="black" r="0.738" stroke="none" /><text fill="black" font-family="monospace" font-size="12" x="202.77" y="775.64">9</text><text fill="gray" fill-opacity="0.5" font-family="monospace" font-size="12" x="646.6935238977097" y="703.0728139591206">04h45m</text><text fill="gray" fill-opacity="0.5" font-family="monospace" font-size="12" x="489.722240295217" y="712.7927801333458">05h00m</text><text fill="gray" fill-opacity="0.5" font-family="monospace" font-size="12" x="332.49413806884627" y="713.4344980121409">05h15m</text><text fill="gray" fill-opacity="0.5" font-family="monospace" font-size="12" x="175.45924133282026" y="704.997042494763">05h30m</text><text fill="gray" fill-opacity="0.5" font-family="monospace" font-size="12" x="41.53141706056658" y="690.5712362405532">+60°</text><text fill="gray" fill-opacity="0.5" font-family="monospace" font-size="12" x="52.60728814267014" y="607.3592124410465">+61°</text><text fill="gray" fill-opacity="0.5" font-family="monospace" font-size="12" x="63.72601939454967" y="524.1916174666113">+62°</text><text fill="gray" fill-opacity="0.5" font-family="monospace" font-size="12" x="74.88924651937225" y="441.05579924666256">+63°</text><text fill="gray" fill-opacity="0.5" font-family="monospace" font-size="12" x="86.09863233483821" y="357.93912500363354">+64°</text><text fill="gray" fill-opacity="0.5" font-family="monospace" font-size="12" x="97.3558677521819" y="274.82897358297316">+65°</text><text fill="gray" fill-opacity="0.5" font-family="monospace" font-size="12" x="108.66267279149741" y="191.7127277981166">+66°</text><text fill="gray" fill-opacity="0.5" font-family="monospace" font-size="12" x="120.0207976346789" y="108.57776678058678">+67°</text><text fill="black" font-family="monospace" font-size="12" x="12" y="48">&gt;&gt; No.731 04h34m 05h43m +60.0°+67.5°</text><a target="_self" xlink:href="hip040.svg"><text fill="black" font-family="monospace" font-size="12" x="12" y="36">&gt; No.40 00h00m 08h00m +52.5°+90.0°</text></a><a target="_self" xlink:href="hip002.svg"><text fill="black" font-family="monospace" font-size="12" x="12" y="24">No.2 00h 24h +0.0°+90.0°</text></a><polyline fill="none" points="674.2803,66.9993 672.5298,67.2387 668.5506,67.7771 664.5705,68.3076 660.5894,68.8301 656.6074,69.3447 652.6245,69.8514 648.6407,70.3501 644.656,70.8409 640.6704,71.3237 636.6839,71.7986 632.6967,72.2655 628.7086,72.7246 624.7197,73.1756 620.7299,73.6187 616.7394,74.0539 612.7482,74.4811 608.7561,74.9004 604.7634,75.3117 600.7699,75.715 596.7757,76.1104 592.7807,76.4979 588.7851,76.8774 584.7889,77.2489 580.792,77.6125 576.7944,77.9682 572.7962,78.3158 568.7974,78.6555 564.798,78.9873 560.798,79.3111 556.7974,79.6269 552.7963,79.9348 548.7946,80.2347 544.7924,80.5266 540.7897,80.8106 536.7865,81.0866 532.7828,81.3547 528.7786,81.6148 524.774,81.8669 520.7689,82.111 516.7634,82.3472 512.7575,82.5754 508.7512,82.7957 504.7445,83.0079 500.7374,83.2122 496.73,83.4086 492.7222,83.5969 488.7141,83.7773 484.7057,83.9497 480.697,84.1142 476.688,84.2707 472.6787,84.4192 468.6692,84.5597 464.6594,84.6922 460.6494,84.8168 456.6392,84.9334 452.6288,85.0421 448.6181,85.1427 444.6074,85.2354 440.5964,85.3201 436.5853,85.3968 432.5741,85.4656 428.5628,85.5264 424.5513,85.5792 420.5398,85.624 416.5282,85.6608 412.5166,85.6897 408.5049,85.7106 404.4932,85.7235 400.4814,85.7285 396.4697,85.7255 392.4579,85.7144 388.4462,85.6955 384.4346,85.6685 380.423,85.6336 376.4114,85.5907 372.4,85.5398 368.3886,85.4809 364.3774,85.4141 360.3662,85.3392 356.3553,85.2565 352.3444,85.1657 348.3338,85.0669 344.3233,84.9602 340.313,84.8455 336.303,84.7229 332.2931,84.5922 328.2835,84.4536 324.2742,84.307 320.2651,84.1525 316.2563,83.9899 312.2479,83.8194 308.2397,83.641 304.2318,83.4545 300.2243,83.2601 296.2172,83.0577 292.2104,82.8473 288.204,82.629 284.1979,82.4027 280.1923,82.1684 276.1872,81.9262 272.1824,81.676 268.1782,81.4178 264.1743,81.1517 260.171,80.8776 256.1682,80.5955 252.1659,80.3055 248.1641,80.0075 244.1628,79.7015 240.1621,79.3876 236.162,79.0657 232.1624,78.7359 228.1635,78.3981 224.1651,78.0523 220.1674,77.6986 216.1703,77.3369 212.1739,76.9673 208.1781,76.5897 204.1831,76.2042 200.1887,75.8107 196.195,75.4092 192.2021,74.9998 188.2099,74.5824 184.2184,74.1571 180.2277,73.7239 176.2378,73.2827 172.2487,72.8335 168.2604,72.3764 164.2729,71.9114 160.2863,71.4384 156.3005,70.9575 152.3156,70.4686 148.3316,69.9718 144.3484,69.467 140.3662,68.9544 136.3849,68.4337 132.4045,67.9052 128.4251,67.3687 125.7197,66.9993" stroke="black" stroke-opacity="0.5" stroke-width="1" /><polyline fill="none" points="758.4686,690.5712 757.0864,680.1669 755.7035,669.7634 754.3201,659.3607 752.9359,648.9589 751.5511,638.5578 750.1656,628.1576 748.7795,617.758 747.3927,607.3592 746.0052,596.9611 744.6171,586.5636 743.2283,576.1668 741.8388,565.7707 740.4486,555.3751 739.0578,544.98 737.6662,534.5856 736.274,524.1916 734.881,513.7982 733.4874,503.4052 732.0931,493.0126 730.698,482.6205 729.3023,472.2288 727.9058,461.8375 726.5086,451.4465 725.1108,441.0558 723.7121,430.6654 722.3128,420.2753 720.9127,409.8855 719.5119,399.4959 718.1104,389.1064 716.7081,378.7172 715.3051,368.3281 713.9014,357.9391 712.4969,347.5503 711.0916,337.1615 709.6856,326.7727 708.2788,316.384 706.8713,305.9953 705.463,295.6066 704.054,285.2178 702.6441,274.829 701.2335,264.44 699.8221,254.051 698.41,243.6618 696.997,233.2724 695.5833,222.8828 694.1688,212.4931 692.7534,202.103 691.3373,191.7127 689.9204,181.3221 688.5027,170.9312 687.0841,160.54 685.6648,150.1484 684.2446,139.7564 682.8236,129.364 681.4018,118.9711 679.9792,108.5778 678.5557,98.184 677.1314,87.7896 675.7063,77.3948 674.2803,66.9993" stroke="black" stroke-opacity="0.5" stroke-width="1" /><polyline fill="none" points="758.4686,690.5712 756.1794,690.8743 750.9759,691.5558 745.7714,692.2272 740.5657,692.8886 735.3589,693.5399 730.151,694.1812 724.9421,694.8124 719.7322,695.4335 714.5212,696.0446 709.3093,696.6456 704.0963,697.2366 698.8824,697.8175 693.6675,698.3883 688.4517,698.9491 683.235,699.4998 678.0173,700.0404 672.7988,700.571 667.5794,701.0915 662.3592,701.6019 657.1381,702.1023 651.9162,702.5926 646.6935,703.0728 641.47,703.543 636.2458,704.003 631.0208,704.453 625.795,704.893 620.5686,705.3228 615.3414,705.7426 610.1136,706.1523 604.8851,706.5519 599.6559,706.9414 594.4261,707.3209 589.1957,707.6903 583.9646,708.0496 578.733,708.3988 573.5009,708.7379 568.2681,709.067 563.0349,709.386 557.8011,709.6949 552.5668,709.9937 547.332,710.2824 542.0968,710.5611 536.8611,710.8296 531.6249,711.0881 526.3884,711.3365 521.1514,711.5748 515.9141,711.803 510.6764,712.0211 505.4384,712.2292 500.2,712.4271 494.9613,712.615 489.7222,712.7928 484.4829,712.9605 479.2434,713.1181 474.0036,713.2656 468.7635,713.403 463.5232,713.5304 458.2828,713.6476 453.0421,713.7548 447.8013,713.8518 442.5603,713.9388 437.3192,714.0157 432.0779,714.0825 426.8366,714.1392 421.5952,714.1858 416.3537,714.2223 411.1122,714.2488 405.8706,714.2651 400.629,714.2714 395.3874,714.2676 390.1458,714.2536 384.9043,714.2296 379.6628,714.1955 374.4213,714.1513 369.18,714.097 363.9387,714.0326 358.6976,713.9582 353.4565,713.8736 348.2157,713.779 342.975,713.6742 337.7345,713.5594 332.4941,713.4345 327.254,713.2995 322.0142,713.1544 316.7745,712.9992 311.5352,712.8339 306.2961,712.6586 301.0573,712.4731 295.8188,712.2776 290.5807,712.072 285.3429,711.8563 280.1055,711.6305 274.8684,711.3946 269.6318,711.1486 264.3956,710.8926 259.1598,710.6264 253.9244,710.3502 248.6895,710.0639 243.4551,709.7675 238.2212,709.461 232.9878,709.1445 227.755,708.8178 222.5226,708.4811 217.2909,708.1343 212.0597,707.7774 206.8292,707.4105 201.5992,707.0334 196.3699,706.6463 191.1412,706.2491 185.9132,705.8418 180.6859,705.4245 175.4592,704.997 170.2333,704.5595 165.0081,704.112 159.7837,703.6543 154.56,703.1866 149.3372,702.7088 144.1151,702.2209 138.8938,701.7229 133.6733,701.2149 128.4538,700.6968 123.235,700.1687 118.0172,699.6305 112.8002,699.0822 107.5842,698.5238 102.3691,697.9554 97.155,697.3769 91.9418,696.7884 86.7296,696.1898 81.5184,695.5811 76.3082,694.9624 71.099,694.3336 65.8909,693.6947 60.6839,693.0458 55.4779,692.3868 50.2731,691.7178 45.0693,691.0387 41.5314,690.5712" stroke="black" stroke-opacity="0.5" stroke-width="1" /><polyline fill="none" points="41.5314,690.5712 42.9136,680.1669 44.2965,669.7634 45.6799,659.3607 47.0641,648.9589 48.4489,638.5578 49.8344,628.1576 51.2205,617.758 52.6073,607.3592 53.9948,596.9611 55.3829,586.5636 56.7717,576.1668 58.1612,565.7707 59.5514,555.3751 60.9422,544.98 62.3338,534.5856 63.726,524.1916 65.119,513.7982 66.5126,503.4052 67.9069,493.0126 69.302,482.6205 70.6977,472.2288 72.0942,461.8375 73.4914,451.4465 74.8892,441.0558 76.2879,430.6654 77.6872,420.2753 79.0873,409.8855 80.4881,399.4959 81.8896,389.1064 83.2919,378.7172 84.6949,368.3281 86.0986,357.9391 87.5031,347.5503 88.9084,337.1615 90.3144,326.7727 91.7212,316.384 93.1287,305.9953 94.537,295.6066 95.946,285.2178 97.3559,274.829 98.7665,264.44 100.1779,254.051 101.59,243.6618 103.003,233.2724 104.4167,222.8828 105.8312,212.4931 107.2466,202.103 108.6627,191.7127 110.0796,181.3221 111.4973,170.9312 112.9159,160.54 114.3352,150.1484 115.7554,139.7564 117.1764,129.364 118.5982,118.9711 120.0208,108.5778 121.4443,98.184 122.8686,87.7896 124.2937,77.3948 125.7197,66.9993" stroke="black" stroke-opacity="0.5" stroke-width="1" /></svg>