<?xml version="1.0" encoding="utf-8" ?>
<svg baseProfile="tiny" height="800" version="1.2" width="800" xmlns="http://www.w3.org/2000/svg" xmlns:ev="http://www.w3.org/2001/xml-events" xmlns:xlink="http://www.w3.org/1999/xlink"><defs /><rect fill="none" height="800" stroke="black" stroke-width="2" width="800" x="0" y="0" /><polyline fill="none" points="624.5408,704.997 623.6756,694.5449 622.8101,684.0935 621.9441,673.6429 621.0777,663.193 620.2109,652.7438 619.3437,642.2953 618.4761,631.8475 617.608,621.4003 616.7395,610.9537 615.8706,600.5077 615.0013,590.0622 614.1315,579.6172 613.2613,569.1728 612.3907,558.7289 611.5196,548.2854 610.6481,537.8423 609.7762,527.3996 608.9038,516.9574 608.0309,506.5155 607.1577,496.0739 606.2839,485.6326 605.4098,475.1916 604.5351,464.7509 603.66,454.3104 602.7845,443.8701 601.9085,433.4299 601.032,422.99 600.1551,412.5502 599.2777,402.1105 598.3999,391.6708 597.5215,381.2313 596.6427,370.7917 595.7635,360.3522 594.8837,349.9127 594.0035,339.4731 593.1228,329.0335 592.2416,318.5937 591.3599,308.1539 590.4778,297.7139 589.5952,287.2737 588.712,276.8334 587.8284,266.3929 586.9443,255.9521 586.0597,245.511 585.1745,235.0697 584.2889,224.628 583.4028,214.186 582.5162,203.7437 581.6291,193.3009 580.7414,182.8578 579.8533,172.4142 578.9646,161.9701 578.0754,151.5256 577.1857,141.0805 576.2955,130.635 575.4048,120.1888 574.5135,109.7421 573.6217,99.2947 572.7294,88.8467 571.8365,78.3981" stroke="silver" stroke-opacity="0.5" stroke-width="1" /><polyline fill="none" points="467.5059,713.4345 467.2459,702.9544 466.9858,692.4751 466.7255,681.9965 466.4652,671.5185 466.2047,661.0412 465.9441,650.5646 465.6834,640.0885 465.4225,629.613 465.1615,619.1381 464.9004,608.6637 464.6391,598.1898 464.3777,587.7164 464.1162,577.2434 463.8546,566.7709 463.5928,556.2987 463.3309,545.827 463.0689,535.3556 462.8067,524.8845 462.5444,514.4138 462.2819,503.9433 462.0194,493.473 461.7566,483.003 461.4938,472.5332 461.2308,462.0636 460.9677,451.5942 460.7044,441.1248 460.441,430.6556 460.1774,420.1865 459.9138,409.7174 459.6499,399.2483 459.386,388.7792 459.1218,378.3102 458.8576,367.8411 458.5932,357.3719 458.3286,346.9026 458.064,336.4332 457.7991,325.9636 457.5341,315.4939 457.269,305.024 457.0037,294.5539 456.7383,284.0835 456.4727,273.6129 456.207,263.1419 455.9411,252.6707 455.6751,242.1991 455.4089,231.7271 455.1426,221.2548 454.8761,210.782 454.6095,200.3088 454.3427,189.8351 454.0758,179.3609 453.8087,168.8862 453.5414,158.4109 453.274,147.9351 453.0064,137.4587 452.7387,126.9817 452.4708,116.504 452.2028,106.0257 451.9346,95.5467 451.6662,85.0669" stroke="silver" stroke-opacity="0.5" stroke-width="1" /><polyline fill="none" points="310.2778,712.7928 310.6233,702.3148 310.969,691.8376 311.3149,681.3611 311.661,670.8853 312.0072,660.4102 312.3536,649.9356 312.7001,639.4617 313.0469,628.9884 313.3938,618.5156 313.7408,608.0434 314.0881,597.5716 314.4355,587.1004 314.7831,576.6296 315.1308,566.1592 315.4788,555.6893 315.8269,545.2197 316.1752,534.7505 316.5236,524.2816 316.8723,513.813 317.2211,503.3447 317.5701,492.8767 317.9193,482.4089 318.2687,471.9413 318.6182,461.4739 318.968,451.0067 319.3179,440.5396 319.668,430.0726 320.0183,419.6056 320.3687,409.1388 320.7194,398.672 321.0703,388.2052 321.4213,377.7383 321.7725,367.2715 322.124,356.8045 322.4756,346.3375 322.8274,335.8704 323.1794,325.4031 323.5316,314.9356 323.884,304.468 324.2366,294.0001 324.5894,283.5321 324.9423,273.0637 325.2955,262.5951 325.6489,252.1261 326.0025,241.6568 326.3563,231.1871 326.7102,220.7171 327.0644,210.2466 327.4188,199.7757 327.7734,189.3044 328.1282,178.8325 328.4832,168.3601 328.8384,157.8872 329.1939,147.4138 329.5495,136.9397 329.9053,126.465 330.2614,115.9897 330.6176,105.5137 330.9741,95.0371 331.3308,84.5597" stroke="silver" stroke-opacity="0.5" stroke-width="1" /><polyline fill="none" points="153.3065,703.0728 154.2571,692.627 155.2081,682.182 156.1596,671.7378 157.1116,661.2943 158.064,650.8516 159.0168,640.4095 159.9701,629.9681 160.9239,619.5273 161.8782,609.0872 162.8329,598.6476 163.7881,588.2087 164.7438,577.7702 165.6999,567.3323 166.6565,556.8949 167.6136,546.4579 168.5712,536.0214 169.5292,525.5853 170.4878,515.1496 171.4468,504.7143 172.4063,494.2793 173.3663,483.8446 174.3268,473.4102 175.2878,462.9761 176.2493,452.5422 177.2113,442.1086 178.1738,431.6752 179.1368,421.2419 180.1004,410.8088 181.0644,400.3758 182.0289,389.9428 182.994,379.51 183.9596,369.0772 184.9256,358.6444 185.8923,348.2117 186.8594,337.7789 187.8271,327.346 188.7952,316.9131 189.764,306.4801 190.7332,296.0469 191.703,285.6136 192.6733,275.1801 193.6442,264.7464 194.6156,254.3125 195.5876,243.8783 196.5601,233.4439 197.5331,223.0092 198.5067,212.5741 199.4809,202.1387 200.4556,191.7029 201.4309,181.2667 202.4067,170.8301 203.3831,160.393 204.3601,149.9555 205.3376,139.5175 206.3157,129.0789 207.2944,118.6398 208.2736,108.2001 209.2534,97.7599 210.2339,87.3189 211.2149,76.8774" stroke="silver" stroke-opacity="0.5" stroke-width="1" /><polyline fill="none" points="758.4686,690.5712 754.9307,691.0387 749.7269,691.7178 744.5221,692.3868 739.3161,693.0458 734.1091,693.6947 728.901,694.3336 723.6918,694.9624 718.4816,695.5811 713.2704,696.1898 708.0582,696.7884 702.845,697.3769 697.6309,697.9554 692.4158,698.5238 687.1998,699.0822 681.9828,699.6305 676.765,700.1687 671.5462,700.6968 666.3267,701.2149 661.1062,701.7229 655.8849,702.2209 650.6628,702.7088 645.44,703.1866 640.2163,703.6543 634.9919,704.112 629.7667,704.5595 624.5408,704.997 619.3141,705.4245 614.0868,705.8418 608.8588,706.2491 603.6301,706.6463 598.4008,707.0334 593.1708,707.4105 587.9403,707.7774 582.7091,708.1343 577.4774,708.4811 572.245,708.8178 567.0122,709.1445 561.7788,709.461 556.5449,709.7675 551.3105,710.0639 546.0756,710.3502 540.8402,710.6264 535.6044,710.8926 530.3682,711.1486 525.1316,711.3946 519.8945,711.6305 514.6571,711.8563 509.4193,712.072 504.1812,712.2776 498.9427,712.4731 493.7039,712.6586 488.4648,712.8339 483.2255,712.9992 477.9858,713.1544 472.746,713.2995 467.5059,713.4345 462.2655,713.5594 457.025,713.6742 451.7843,713.779 446.5435,713.8736 441.3024,713.9582 436.0613,714.0326 430.82,714.097 425.5787,714.1513 420.3372,714.1955 415.0957,714.2296 409.8542,714.2536 404.6126,714.2676 399.371,714.2714 394.1294,714.2651 388.8878,714.2488 383.6463,714.2223 378.4048,714.1858 373.1634,714.1392 367.9221,714.0825 362.6808,714.0157 357.4397,713.9388 352.1987,713.8518 346.9579,713.7548 341.7172,713.6476 336.4768,713.5304 331.2365,713.403 325.9964,713.2656 320.7566,713.1181 315.5171,712.9605 310.2778,712.7928 305.0387,712.615 299.8,712.4271 294.5616,712.2292 289.3236,712.0211 284.0859,711.803 278.8486,711.5748 273.6116,711.3365 268.3751,711.0881 263.1389,710.8296 257.9032,710.5611 252.668,710.2824 247.4332,709.9937 242.1989,709.6949 236.9651,709.386 231.7319,709.067 226.4991,708.7379 221.267,708.3988 216.0354,708.0496 210.8043,707.6903 205.5739,707.3209 200.3441,706.9414 195.1149,706.5519 189.8864,706.1523 184.6586,705.7426 179.4314,705.3228 174.205,704.893 168.9792,704.453 163.7542,704.003 158.53,703.543 153.3065,703.0728 148.0838,702.5926 142.8619,702.1023 137.6408,701.6019 132.4206,701.0915 127.2012,700.571 121.9827,700.0404 116.765,699.4998 111.5483,698.9491 106.3325,698.3883 101.1176,697.8175 95.9037,697.2366 90.6907,696.6456 85.4788,696.0446 80.2678,695.4335 75.0579,694.8124 69.849,694.1812 64.6411,693.5399 59.4343,692.8886 54.2286,692.2272 49.0241,691.5558 43.8206,690.8743 41.5314,690.5712" stroke="silver" stroke-opacity="0.5" stroke-width="1" /><polyline fill="none" points="747.3927,607.3592 743.9644,607.8142 738.9218,608.4752 733.8781,609.1264 728.8333,609.7677 723.7875,610.3993 718.7406,611.0211 713.6927,611.6332 708.6438,612.2354 703.5938,612.8278 698.5429,613.4105 693.491,613.9833 688.4382,614.5464 683.3844,615.0996 678.3298,615.6431 673.2742,616.1768 668.2177,616.7006 663.1604,617.2147 658.1022,617.719 653.0432,618.2134 647.9833,618.6981 642.9227,619.173 637.8613,619.6381 632.7991,620.0933 627.7361,620.5388 622.6724,620.9744 617.608,621.4003 612.5429,621.8163 607.4771,622.2226 602.4106,622.619 597.3435,623.0056 592.2758,623.3824 587.2074,623.7494 582.1384,624.1066 577.0688,624.454 571.9987,624.7915 566.928,625.1193 561.8567,625.4372 556.785,625.7454 551.7127,626.0437 546.6399,626.3322 541.5667,626.6109 536.493,626.8797 531.4189,627.1388 526.3443,627.388 521.2693,627.6274 516.194,627.857 511.1183,628.0768 506.0422,628.2868 500.9657,628.4869 495.889,628.6773 490.8119,628.8578 485.7345,629.0285 480.6569,629.1893 475.579,629.3404 470.5009,629.4816 465.4225,629.613 460.3439,629.7346 455.2651,629.8464 450.1862,629.9483 445.1071,630.0405 440.0278,630.1228 434.9484,630.1952 429.8689,630.2579 424.7893,630.3107 419.7096,630.3538 414.6299,630.387 409.5501,630.4103 404.4703,630.4239 399.3904,630.4276 394.3106,630.4215 389.2308,630.4056 384.151,630.3799 379.0713,630.3443 373.9916,630.299 368.912,630.2438 363.8325,630.1787 358.7532,630.1039 353.6739,630.0192 348.5949,629.9248 343.5159,629.8204 338.4372,629.7063 333.3587,629.5824 328.2804,629.4486 323.2023,629.305 318.1244,629.1516 313.0469,628.9884 307.9696,628.8153 302.8926,628.6325 297.8159,628.4398 292.7395,628.2373 287.6635,628.025 282.5879,627.8028 277.5126,627.5709 272.4378,627.3291 267.3633,627.0775 262.2893,626.8161 257.2157,626.5449 252.1426,626.2638 247.0699,625.973 241.9978,625.6723 236.9261,625.3618 231.855,625.0415 226.7844,624.7114 221.7144,624.3715 216.645,624.0218 211.5762,623.6622 206.5079,623.2929 201.4403,622.9137 196.3733,622.5247 191.307,622.126 186.2414,621.7174 181.1765,621.299 176.1122,620.8708 171.0487,620.4328 165.9859,619.985 160.9239,619.5273 155.8627,619.0599 150.8022,618.5827 145.7426,618.0957 140.6838,617.5988 135.6258,617.0922 130.5687,616.5758 125.5124,616.0496 120.457,615.5136 115.4026,614.9677 110.349,614.4121 105.2964,613.8467 100.2448,613.2715 95.1941,612.6865 90.1444,612.0917 85.0957,611.4872 80.048,610.8728 75.0014,610.2486 69.9558,609.6147 64.9113,608.971 59.8679,608.3175 54.8256,607.6542 52.6073,607.3592" stroke="silver" stroke-opacity="0.5" stroke-width="1" /><polyline fill="none" points="736.274,524.1916 732.9556,524.634 728.0748,525.2765 723.1929,525.9096 718.3099,526.5331 713.4259,527.1472 708.5408,527.7517 703.6547,528.3467 698.7677,528.9321 693.8796,529.5081 688.9906,530.0745 684.1006,530.6315 679.2097,531.1789 674.3179,531.7167 669.4252,532.2451 664.5316,532.7639 659.6371,533.2732 654.7418,533.773 649.8456,534.2633 644.9486,534.744 640.0508,535.2152 635.1523,535.6769 630.2529,536.129 625.3528,536.5716 620.452,537.0047 615.5504,537.4283 610.6481,537.8423 605.7451,538.2468 600.8415,538.6417 595.9372,539.0271 591.0323,539.403 586.1267,539.7694 581.2205,540.1262 576.3137,540.4734 571.4064,540.8112 566.4985,541.1394 561.59,541.458 556.681,541.7671 551.7715,542.0667 546.8615,542.3567 541.951,542.6372 537.0401,542.9082 532.1287,543.1696 527.2168,543.4214 522.3046,543.6637 517.3919,543.8965 512.4789,544.1197 507.5655,544.3334 502.6517,544.5376 497.7376,544.7321 492.8232,544.9172 487.9085,545.0927 482.9935,545.2586 478.0782,545.415 473.1627,545.5619 468.2469,545.6992 463.3309,545.827 458.4147,545.9452 453.4983,546.0539 448.5817,546.153 443.665,546.2426 438.7481,546.3226 433.8311,546.3931 428.914,546.454 423.9968,546.5053 419.0795,546.5472 414.1622,546.5795 409.2448,546.6022 404.3273,546.6154 399.4099,546.619 394.4925,546.6131 389.575,546.5976 384.6577,546.5726 379.7403,546.538 374.8231,546.4939 369.9059,546.4402 364.9888,546.377 360.0718,546.3042 355.155,546.2219 350.2383,546.1301 345.3217,546.0287 340.4054,545.9177 335.4892,545.7972 330.5733,545.6671 325.6576,545.5275 320.7421,545.3784 315.8269,545.2197 310.9119,545.0514 305.9973,544.8737 301.083,544.6863 296.1689,544.4894 291.2553,544.283 286.3419,544.067 281.429,543.8415 276.5164,543.6064 271.6043,543.3618 266.6926,543.1077 261.7813,542.844 256.8704,542.5708 251.9601,542.288 247.0502,541.9957 242.1408,541.6938 237.2319,541.3824 232.3236,541.0615 227.4158,540.731 222.5086,540.391 217.602,540.0414 212.6959,539.6823 207.7905,539.3137 202.8857,538.9355 197.9816,538.5478 193.0781,538.1506 188.1753,537.7438 183.2732,537.3275 178.3718,536.9017 173.4711,536.4663 168.5712,536.0214 163.672,535.567 158.7736,535.103 153.876,534.6295 148.9792,534.1465 144.0833,533.6539 139.1881,533.1519 134.2939,532.6403 129.4005,532.1192 124.508,531.5885 119.6164,531.0484 114.7257,530.4987 109.836,529.9395 104.9472,529.3707 100.0594,528.7925 95.1725,528.2047 90.2867,527.6075 85.4019,527.0007 80.5181,526.3844 75.6354,525.7585 70.7537,525.1232 65.8731,524.4784 63.726,524.1916" stroke="silver" stroke-opacity="0.5" stroke-width="1" /><polyline fill="none" points="725.1108,441.0558 721.9028,441.4853 717.1843,442.1092 712.4648,442.7239 707.7443,443.3293 703.0227,443.9255 698.3001,444.5125 693.5765,445.0902 688.8519,445.6587 684.1263,446.2179 679.3998,446.7679 674.6724,447.3087 669.9441,447.8402 665.2148,448.3625 660.4847,448.8755 655.7537,449.3793 651.0219,449.8738 646.2892,450.3591 641.5557,450.8351 636.8214,451.3019 632.0863,451.7595 627.3504,452.2077 622.6138,452.6468 617.8764,453.0766 613.1383,453.4971 608.3995,453.9083 603.66,454.3104 598.9199,454.7031 594.179,455.0866 589.4375,455.4608 584.6954,455.8258 579.9527,456.1816 575.2094,456.528 570.4654,456.8652 565.721,457.1932 560.9759,457.5118 556.2304,457.8213 551.4843,458.1214 546.7377,458.4123 541.9906,458.6939 537.243,458.9663 532.495,459.2294 527.7466,459.4832 522.9977,459.7278 518.2484,459.9631 513.4987,460.1891 508.7487,460.4058 503.9983,460.6133 499.2475,460.8116 494.4964,461.0005 489.745,461.1802 484.9933,461.3506 480.2413,461.5117 475.489,461.6636 470.7365,461.8062 465.9838,461.9396 461.2308,462.0636 456.4776,462.1784 451.7243,462.2839 446.9707,462.3802 442.2171,462.4672 437.4632,462.5449 432.7093,462.6133 427.9552,462.6725 423.2011,462.7223 418.4468,462.763 413.6926,462.7943 408.9382,462.8164 404.1839,462.8292 399.4295,462.8327 394.6751,462.8269 389.9207,462.8119 385.1664,462.7876 380.4121,462.7541 375.6579,462.7112 370.9038,462.6591 366.1498,462.5977 361.3958,462.5271 356.642,462.4471 351.8884,462.3579 347.1349,462.2595 342.3816,462.1517 337.6285,462.0347 332.8756,461.9084 328.1229,461.7728 323.3704,461.628 318.6182,461.4739 313.8663,461.3105 309.1147,461.1379 304.3633,460.956 299.6123,460.7648 294.8616,460.5644 290.1113,460.3547 285.3613,460.1357 280.6117,459.9074 275.8625,459.6699 271.1138,459.4231 266.3654,459.1671 261.6175,458.9018 256.8701,458.6272 252.1231,458.3433 247.3766,458.0502 242.6307,457.7478 237.8852,457.4362 233.1403,457.1153 228.396,456.7851 223.6522,456.4457 218.909,456.097 214.1664,455.7391 209.4244,455.3719 204.6831,454.9954 199.9424,454.6097 195.2024,454.2147 190.4631,453.8105 185.7244,453.397 180.9865,452.9742 176.2493,452.5422 171.5129,452.101 166.7772,451.6505 162.0423,451.1907 157.3082,450.7217 152.5749,450.2435 147.8424,449.756 143.1108,449.2592 138.38,448.7532 133.6501,448.238 128.921,447.7135 124.1929,447.1797 119.4657,446.6368 114.7394,446.0846 110.0141,445.5231 105.2898,444.9524 100.5664,444.3725 95.8441,443.7833 91.1227,443.1849 86.4024,442.5772 81.6831,441.9603 76.9649,441.3342 74.8892,441.0558" stroke="silver" stroke-opacity="0.5" stroke-width="1" /><polyline fill="none" points="713.9014,357.9391 710.8043,358.3556 706.2488,358.9606 701.6923,359.5566 697.1348,360.1437 692.5763,360.7218 688.0168,361.2909 683.4564,361.8511 678.8949,362.4024 674.3325,362.9446 669.7692,363.478 665.205,364.0023 660.6399,364.5177 656.0739,365.0242 651.507,365.5216 646.9393,366.0101 642.3708,366.4897 637.8014,366.9602 633.2312,367.4218 628.6603,367.8745 624.0885,368.3182 619.516,368.7528 614.9428,369.1786 610.3688,369.5953 605.7942,370.0031 601.2188,370.4019 596.6427,370.7917 592.066,371.1726 587.4887,371.5445 582.9107,371.9074 578.332,372.2613 573.7528,372.6062 569.173,372.9422 564.5926,373.2692 560.0117,373.5872 555.4302,373.8962 550.8482,374.1963 546.2657,374.4873 541.6827,374.7694 537.0992,375.0425 532.5153,375.3066 527.9309,375.5617 523.3461,375.8079 518.7608,376.045 514.1752,376.2732 509.5892,376.4924 505.0028,376.7026 500.416,376.9038 495.8289,377.096 491.2415,377.2792 486.6538,377.4535 482.0658,377.6187 477.4775,377.775 472.8889,377.9223 468.3001,378.0606 463.7111,378.1899 459.1218,378.3102 454.5324,378.4215 449.9428,378.5238 445.353,378.6171 440.763,378.7015 436.1729,378.7768 431.5827,378.8432 426.9924,378.9006 422.402,378.9489 417.8115,378.9883 413.221,379.0187 408.6304,379.0401 404.0398,379.0525 399.4491,379.056 394.8585,379.0504 390.2679,379.0358 385.6773,379.0122 381.0868,378.9797 376.4963,378.9382 371.9059,378.8876 367.3156,378.8281 362.7254,378.7596 358.1354,378.6821 353.5455,378.5956 348.9557,378.5001 344.3661,378.3956 339.7767,378.2821 335.1875,378.1597 330.5985,378.0282 326.0098,377.8878 321.4213,377.7383 316.8331,377.5799 312.2451,377.4125 307.6575,377.2361 303.0701,377.0507 298.4831,376.8563 293.8965,376.653 289.3102,376.4406 284.7242,376.2193 280.1387,375.9889 275.5535,375.7496 270.9688,375.5013 266.3845,375.244 261.8007,374.9778 257.2173,374.7025 252.6344,374.4183 248.052,374.1251 243.4702,373.8229 238.8888,373.5117 234.308,373.1915 229.7278,372.8624 225.1481,372.5243 220.569,372.1772 215.9906,371.8211 211.4127,371.456 206.8355,371.082 202.2589,370.699 197.6831,370.307 193.1079,369.9061 188.5333,369.4961 183.9596,369.0772 179.3865,368.6493 174.8142,368.2125 170.2426,367.7667 165.6719,367.3119 161.1019,366.8481 156.5327,366.3754 151.9643,365.8937 147.3968,365.403 142.8302,364.9034 138.2644,364.3948 133.6995,363.8773 129.1355,363.3508 124.5724,362.8153 120.0102,362.2709 115.449,361.7175 110.8888,361.1551 106.3295,360.5838 101.7713,360.0036 97.214,359.4144 92.6578,358.8162 88.1026,358.2091 86.0986,357.9391" stroke="silver" stroke-opacity="0.5" stroke-width="1" /><polyline fill="none" points="702.6441,274.829 699.6583,275.2322 695.2666,275.818 690.8738,276.3951 686.4801,276.9635 682.0853,277.5233 677.6896,278.0744 673.2929,278.6168 668.8953,279.1505 664.4968,279.6756 660.0973,280.192 655.697,280.6997 651.2958,281.1987 646.8937,281.6891 642.4908,282.1708 638.087,282.6438 633.6825,283.1081 629.2771,283.5638 624.8709,284.0107 620.464,284.449 616.0563,284.8786 611.6479,285.2995 607.2387,285.7117 602.8289,286.1153 598.4183,286.5101 594.0071,286.8963 589.5952,287.2737 585.1826,287.6425 580.7694,288.0026 576.3556,288.354 571.9412,288.6967 567.5262,289.0307 563.1106,289.356 558.6944,289.6727 554.2778,289.9806 549.8605,290.2798 545.4428,290.5703 541.0246,290.8522 536.6059,291.1253 532.1867,291.3898 527.7671,291.6455 523.347,291.8925 518.9265,292.1309 514.5056,292.3605 510.0843,292.5815 505.6626,292.7937 501.2406,292.9972 496.8182,293.1921 492.3955,293.3782 487.9725,293.5556 483.5492,293.7243 479.1256,293.8844 474.7017,294.0357 470.2775,294.1783 465.8532,294.3122 461.4285,294.4374 457.0037,294.5539 452.5787,294.6617 448.1535,294.7607 443.7282,294.8511 439.3027,294.9328 434.877,295.0058 430.4513,295.07 426.0254,295.1256 421.5994,295.1724 417.1734,295.2106 412.7473,295.24 408.3212,295.2607 403.895,295.2727 399.4689,295.276 395.0427,295.2706 390.6165,295.2565 386.1904,295.2337 381.7643,295.2022 377.3383,295.162 372.9124,295.113 368.4865,295.0554 364.0608,294.989 359.6352,294.914 355.2097,294.8302 350.7844,294.7378 346.3593,294.6366 341.9343,294.5267 337.5095,294.4081 333.085,294.2808 328.6606,294.1448 324.2366,294.0001 319.8127,293.8467 315.3892,293.6846 310.9659,293.5138 306.543,293.3343 302.1204,293.1461 297.6981,292.9492 293.2761,292.7435 288.8545,292.5292 284.4333,292.3062 280.0125,292.0745 275.5921,291.834 271.1722,291.5849 266.7527,291.3271 262.3336,291.0606 257.915,290.7853 253.4969,290.5014 249.0793,290.2088 244.6622,289.9075 240.2456,289.5975 235.8296,289.2788 231.4142,288.9514 226.9993,288.6153 222.585,288.2705 218.1714,287.917 213.7583,287.5548 209.3459,287.1839 204.9342,286.8044 200.5231,286.4161 196.1127,286.0192 191.703,285.6136 187.294,285.1993 182.8858,284.7763 178.4783,284.3446 174.0715,283.9043 169.6655,283.4552 165.2604,282.9975 160.856,282.5311 156.4524,282.056 152.0497,281.5722 147.6478,281.0798 143.2468,280.5786 138.8467,280.0688 134.4475,279.5504 130.0492,279.0232 125.6518,278.4874 121.2554,277.9429 116.8599,277.3897 112.4654,276.8279 108.0718,276.2574 103.6793,275.6782 99.2878,275.0904 97.3559,274.829" stroke="silver" stroke-opacity="0.5" stroke-width="1" /><polyline fill="none" points="691.3373,191.7127 688.4633,192.1026 684.2359,192.6688 680.0076,193.2267 675.7783,193.7762 671.548,194.3174 667.3167,194.8501 663.0846,195.3745 658.8515,195.8905 654.6175,196.3981 650.3826,196.8973 646.1469,197.3882 641.9103,197.8706 637.6729,198.3447 633.4346,198.8103 629.1955,199.2676 624.9556,199.7165 620.715,200.157 616.4735,200.5891 612.2313,201.0128 607.9884,201.4281 603.7448,201.8351 599.5004,202.2336 595.2554,202.6237 591.0096,203.0054 586.7632,203.3787 582.5162,203.7437 578.2685,204.1002 574.0202,204.4483 569.7713,204.788 565.5218,205.1194 561.2717,205.4423 557.0211,205.7568 552.7699,206.0629 548.5182,206.3606 544.266,206.6499 540.0133,206.9307 535.76,207.2032 531.5064,207.4673 527.2522,207.7229 522.9976,207.9702 518.7426,208.209 514.4872,208.4394 510.2314,208.6615 505.9751,208.8751 501.7186,209.0802 497.4616,209.277 493.2044,209.4654 488.9468,209.6453 484.6889,209.8169 480.4307,209.98 476.1722,210.1347 471.9135,210.281 467.6545,210.4188 463.3952,210.5483 459.1358,210.6694 454.8761,210.782 450.6163,210.8862 446.3563,210.982 442.0961,211.0694 437.8358,211.1483 433.5753,211.2189 429.3147,211.281 425.0541,211.3347 420.7933,211.38 416.5325,211.4168 412.2716,211.4453 408.0106,211.4653 403.7497,211.477 399.4887,211.4802 395.2277,211.4749 390.9667,211.4613 386.7058,211.4392 382.4449,211.4088 378.1841,211.3699 373.9234,211.3226 369.6627,211.2668 365.4022,211.2027 361.1417,211.1301 356.8815,211.0492 352.6213,210.9598 348.3613,210.8619 344.1015,210.7557 339.8419,210.6411 335.5825,210.518 331.3234,210.3865 327.0644,210.2466 322.8057,210.0983 318.5473,209.9416 314.2892,209.7765 310.0314,209.6029 305.7739,209.4209 301.5167,209.2306 297.2598,209.0318 293.0033,208.8246 288.7472,208.6089 284.4915,208.3849 280.2362,208.1525 275.9812,207.9116 271.7268,207.6623 267.4727,207.4047 263.2191,207.1386 258.966,206.8641 254.7134,206.5812 250.4613,206.2899 246.2097,205.9902 241.9587,205.6821 237.7082,205.3655 233.4583,205.0406 229.2089,204.7073 224.9601,204.3655 220.712,204.0154 216.4645,203.6569 212.2176,203.2899 207.9713,202.9146 203.7258,202.5308 199.4809,202.1387 195.2367,201.7382 190.9932,201.3292 186.7505,200.9119 182.5085,200.4862 178.2672,200.0521 174.0267,199.6095 169.787,199.1586 165.5481,198.6993 161.3101,198.2317 157.0728,197.7556 152.8364,197.2711 148.6009,196.7783 144.3662,196.277 140.1325,195.7674 135.8996,195.2494 131.6677,194.723 127.4367,194.1883 123.2066,193.6451 118.9775,193.0936 114.7494,192.5337 110.5223,191.9654 108.6627,191.7127" stroke="silver" stroke-opacity="0.5" stroke-width="1" /><polyline fill="none" points="679.9792,108.5778 677.2174,108.954 673.1552,109.5005 669.092,110.0389 665.0278,110.5692 660.9627,111.0915 656.8967,111.6056 652.8298,112.1117 648.7619,112.6097 644.6932,113.0995 640.6237,113.5813 636.5532,114.055 632.482,114.5207 628.4099,114.9782 624.337,115.4276 620.2634,115.8689 616.1889,116.3021 612.1137,116.7273 608.0377,117.1443 603.961,117.5532 599.8836,117.954 595.8055,118.3468 591.7267,118.7314 587.6472,119.1079 583.567,119.4763 579.4862,119.8366 575.4048,120.1888 571.3227,120.5329 567.2401,120.8689 563.1568,121.1967 559.073,121.5165 554.9886,121.8282 550.9037,122.1317 546.8182,122.4271 542.7322,122.7144 538.6457,122.9936 534.5587,123.2647 530.4713,123.5277 526.3834,123.7826 522.295,124.0293 518.2062,124.2679 514.117,124.4984 510.0274,124.7208 505.9374,124.9351 501.847,125.1413 497.7563,125.3393 493.6652,125.5292 489.5738,125.711 485.4821,125.8847 481.3901,126.0502 477.2978,126.2077 473.2052,126.357 469.1124,126.4982 465.0193,126.6312 460.926,126.7562 456.8324,126.873 452.7387,126.9817 448.6448,127.0823 444.5507,127.1747 440.4565,127.2591 436.3621,127.3353 432.2676,127.4034 428.173,127.4633 424.0782,127.5152 419.9834,127.5589 415.8885,127.5945 411.7936,127.6219 407.6986,127.6413 403.6036,127.6525 399.5086,127.6556 395.4136,127.6505 391.3186,127.6374 387.2236,127.6161 383.1287,127.5867 379.0338,127.5491 374.939,127.5035 370.8443,127.4497 366.7497,127.3878 362.6552,127.3177 358.5609,127.2396 354.4667,127.1533 350.3726,127.0589 346.2788,126.9564 342.1851,126.8457 338.0916,126.7269 333.9984,126.6 329.9053,126.465 325.8126,126.3219 321.72,126.1706 317.6278,126.0112 313.5358,125.8437 309.4442,125.6681 305.3529,125.4844 301.2619,125.2925 297.1712,125.0925 293.081,124.8844 288.991,124.6682 284.9015,124.4439 280.8124,124.2114 276.7237,123.9708 272.6355,123.7221 268.5477,123.4653 264.4603,123.2004 260.3735,122.9274 256.2871,122.6462 252.2013,122.357 248.1159,122.0596 244.0311,121.7541 239.9469,121.4405 235.8632,121.1188 231.7801,120.789 227.6975,120.451 223.6156,120.105 219.5343,119.7509 215.4537,119.3886 211.3737,119.0183 207.2944,118.6398 203.2157,118.2532 199.1378,117.8586 195.0605,117.4558 190.984,117.0449 186.9082,116.626 182.8332,116.1989 178.7589,115.7637 174.6854,115.3205 170.6127,114.8691 166.5408,114.4096 162.4698,113.9421 158.3996,113.4664 154.3302,112.9827 150.2617,112.4909 146.1941,111.991 142.1274,111.483 138.0616,110.9669 133.9967,110.4427 129.9328,109.9104 125.8698,109.3701 121.8078,108.8216 120.0208,108.5778" stroke="silver" stroke-opacity="0.5" stroke-width="1" /><circle cx="741.2508" cy="578.3772" fill="black" r="0.738" stroke="none" /><circle cx="697.3562" cy="253.3691" fill="black" r="0.738" stroke="none" /><circle cx="722.9865" cy="469.1774" fill="black" r="0.738" stroke="none" /><circle cx="686.6244" cy="226.7061" fill="black" r="0.738" stroke="none" /><circle cx="694.9102" cy="324.4967" fill="black" r="0.738" stroke="none" /><circle cx="698.126" cy="364.413" fill="black" r="0.738" stroke="none" /><circle cx="727.7816" cy="597.5522" fill="black" r="0.738" stroke="none" /><circle cx="730.5339" cy="653.0286" fill="black" r="0.738" stroke="none" /><circle cx="731.9762" cy="692.858" fill="black" r="0.738" stroke="none" /><circle cx="731.3026" cy="691.5028" fill="black" r="0.738" stroke="none" /><circle cx="697.3626" cy="434.7424" fill="black" r="0.738" stroke="none" /><circle cx="675.6878" cy="271.1401" fill="black" r="0.738" stroke="none" /><circle cx="682.6314" cy="333.4831" fill="black" r="0.936" stroke="none" /><circle cx="683.7442" cy="372.459" fill="black" r="0.738" stroke="none" /><circle cx="653.8171" cy="214.1433" fill="black" r="0.738" stroke="none" /><circle cx="653.8782" cy="260.4836" fill="black" r="0.738" stroke="none" /><circle cx="634.5294" cy="108.2071" fill="black" r="0.738" stroke="none" /><circle cx="645.2559" cy="214.0342" fill="black" r="0.738" stroke="none" /><circle cx="634.5785" cy="127.4545" fill="black" r="0.738" stroke="none" /><circle cx="677.0857" cy="513.1053" fill="black" r="0.738" stroke="none" /><circle cx="684.7344" cy="621.8727" fill="black" r="0.738" stroke="none" /><circle cx="676.2124" cy="550.5755" fill="black" r="0.738" stroke="none" /><circle cx="668.2878" cy="497.1986" fill="black" r="0.738" stroke="none" /><circle cx="683.3469" cy="672.2312" fill="black" r="0.738" stroke="none" /><circle cx="658.9929" cy="447.0961" fill="black" r="0.738" stroke="none" /><circle cx="657.3118" cy="445.6734" fill="black" r="0.738" stroke="none" /><circle cx="652.771" cy="404.4236" fill="black" r="0.738" stroke="none" /><circle cx="656.851" cy="493.4367" fill="black" r="0.738" stroke="none" /><circle cx="634.898" cy="319.393" fill="black" r="0.738" stroke="none" /><circle cx="667.79" cy="657.4729" fill="black" r="0.738" stroke="none" /><circle cx="672.0888" cy="700.2207" fill="black" r="0.738" stroke="none" /><circle cx="656.8647" cy="571.4855" fill="black" r="0.738" stroke="none" /><circle cx="608.061" cy="155.161" fill="black" r="0.738" stroke="none" /><circle cx="607.5517" cy="186.3901" fill="black" r="0.738" stroke="none" /><circle cx="599.0463" cy="112.7257" fill="black" r="0.738" stroke="none" /><circle cx="624.9695" cy="461.6055" fill="black" r="0.738" stroke="none" /><circle cx="603.5909" cy="247.07" fill="black" r="0.738" stroke="none" /><circle cx="625.2359" cy="518.1482" fill="black" r="0.738" stroke="none" /><circle cx="615.1494" cy="437.4994" fill="black" r="0.738" stroke="none" /><circle cx="596.5927" cy="244.2562" fill="black" r="0.738" stroke="none" /><circle cx="580.0515" cy="85.9337" fill="black" r="1.476" stroke="none" /><circle cx="623.7982" cy="649.7501" fill="black" r="0.738" stroke="none" /><circle cx="622.6338" cy="648.1647" fill="black" r="0.738" stroke="none" /><circle cx="621.9054" cy="645.869" fill="black" r="0.738" stroke="none" /><circle cx="619.461" cy="624.5278" fill="black" r="0.738" stroke="none" /><circle cx="608.8582" cy="646.426" fill="black" r="0.738" stroke="none" /><circle cx="580.5832" cy="327.4508" fill="black" r="0.738" stroke="none" /><circle cx="572.1707" cy="252.9498" fill="black" r="0.738" stroke="none" /><circle cx="583.9522" cy="420.8327" fill="black" r="0.738" stroke="none" /><circle cx="592.0707" cy="576.9878" fill="black" r="0.738" stroke="none" /><circle cx="591.0626" cy="576.8948" fill="black" r="0.738" stroke="none" /><circle cx="588.2509" cy="555.6671" fill="black" r="0.738" stroke="none" /><circle cx="587.3972" cy="585.4028" fill="black" r="0.738" stroke="none" /><circle cx="586.7097" cy="592.0093" fill="black" r="0.738" stroke="none" /><circle cx="584.3822" cy="587.0492" fill="black" r="0.738" stroke="none" /><circle cx="590.8276" cy="707.5761" fill="black" r="0.738" stroke="none" /><circle cx="575.3827" cy="491.7212" fill="black" r="0.738" stroke="none" /><circle cx="580.656" cy="580.3374" fill="black" r="0.738" stroke="none" /><circle cx="550.1117" cy="307.9851" fill="black" r="0.738" stroke="none" /><circle cx="538.8037" cy="155.5914" fill="black" r="0.738" stroke="none" /><circle cx="571.3699" cy="662.4794" fill="black" r="0.738" stroke="none" /><circle cx="534.0841" cy="100.6029" fill="black" r="0.738" stroke="none" /><circle cx="538.6938" cy="202.9001" fill="black" r="0.738" stroke="none" /><circle cx="550.1052" cy="437.8048" fill="black" r="0.738" stroke="none" /><circle cx="560.3791" cy="616.6239" fill="black" r="0.738" stroke="none" /><circle cx="546.2046" cy="405.1353" fill="black" r="0.738" stroke="none" /><circle cx="539.0396" cy="417.149" fill="black" r="0.738" stroke="none" /><circle cx="520.1741" cy="191.1703" fill="black" r="0.738" stroke="none" /><circle cx="529.6169" cy="385.4554" fill="black" r="0.738" stroke="none" /><circle cx="546.3478" cy="702.9434" fill="black" r="0.738" stroke="none" /><circle cx="527.7427" cy="366.0894" fill="black" r="0.738" stroke="none" /><circle cx="519.0592" cy="229.5975" fill="black" r="0.936" stroke="none" /><circle cx="520.3827" cy="263.435" fill="black" r="0.738" stroke="none" /><circle cx="518.5259" cy="265.3815" fill="black" r="0.738" stroke="none" /><circle cx="532.7092" cy="621.2816" fill="black" r="0.738" stroke="none" /><circle cx="520.1791" cy="494.1815" fill="black" r="0.936" stroke="none" /><circle cx="519.392" cy="495.478" fill="black" r="0.738" stroke="none" /><circle cx="506.1688" cy="252.4996" fill="black" r="0.738" stroke="none" /><circle cx="510.0425" cy="493.7306" fill="black" r="0.738" stroke="none" /><circle cx="510.0238" cy="608.9088" fill="black" r="0.738" stroke="none" /><circle cx="507.6228" cy="604.5626" fill="black" r="0.738" stroke="none" /><circle cx="489.7965" cy="239.4724" fill="black" r="0.738" stroke="none" /><circle cx="503.3932" cy="665.898" fill="black" r="0.738" stroke="none" /><circle cx="499.1586" cy="568.1607" fill="black" r="0.738" stroke="none" /><circle cx="485.6462" cy="344.3734" fill="black" r="0.738" stroke="none" /><circle cx="485.9266" cy="446.8978" fill="black" r="0.738" stroke="none" /><circle cx="488.1324" cy="579.1308" fill="black" r="0.738" stroke="none" /><circle cx="483.1388" cy="488.7449" fill="black" r="0.738" stroke="none" /><circle cx="476.0261" cy="319.8967" fill="black" r="0.738" stroke="none" /><circle cx="483.3134" cy="579.3754" fill="black" r="0.738" stroke="none" /><circle cx="480.4311" cy="662.0754" fill="black" r="0.738" stroke="none" /><circle cx="468.485" cy="524.1491" fill="black" r="0.738" stroke="none" /><circle cx="467.2526" cy="590.5774" fill="black" r="0.738" stroke="none" /><circle cx="460.7006" cy="496.2716" fill="black" r="0.738" stroke="none" /><circle cx="447.6073" cy="233.9233" fill="black" r="0.738" stroke="none" /><circle cx="436.9006" cy="234.4659" fill="black" r="0.738" stroke="none" /><circle cx="444.0764" cy="666.0275" fill="black" r="0.936" stroke="none" /><circle cx="434.8921" cy="286.8771" fill="black" r="0.738" stroke="none" /><circle cx="434.5336" cy="321.4063" fill="black" r="0.738" stroke="none" /><circle cx="432.8237" cy="354.9471" fill="black" r="0.738" stroke="none" /><circle cx="428.656" cy="477.0756" fill="black" r="0.738" stroke="none" /><circle cx="424.4818" cy="438.9992" fill="black" r="0.738" stroke="none" /><circle cx="420.9524" cy="97.6128" fill="black" r="0.738" stroke="none" /><circle cx="420.1948" cy="558.1867" fill="black" r="0.738" stroke="none" /><circle cx="412.2831" cy="132.8174" fill="black" r="0.738" stroke="none" /><circle cx="413.2095" cy="326.1539" fill="black" r="0.738" stroke="none" /><circle cx="408.9038" cy="680.5465" fill="black" r="0.738" stroke="none" /><circle cx="405.3238" cy="515.7781" fill="black" r="0.738" stroke="none" /><circle cx="403.1872" cy="679.2178" fill="black" r="0.738" stroke="none" /><circle cx="402.0717" cy="681.902" fill="black" r="0.738" stroke="none" /><circle cx="397.4517" cy="618.1885" fill="black" r="0.738" stroke="none" /><circle cx="394.1921" cy="242.0607" fill="black" r="0.738" stroke="none" /><circle cx="391.1878" cy="428.4677" fill="black" r="0.936" stroke="none" /><circle cx="384.297" cy="674.7298" fill="black" r="0.738" stroke="none" /><circle cx="386.2359" cy="322.8831" fill="black" r="0.738" stroke="none" /><circle cx="382.4175" cy="622.2379" fill="black" r="0.738" stroke="none" /><circle cx="380.9355" cy="676.7203" fill="black" r="0.738" stroke="none" /><circle cx="380.9329" cy="642.6814" fill="black" r="0.738" stroke="none" /><circle cx="378.9591" cy="675.6155" fill="black" r="0.738" stroke="none" /><circle cx="380.8104" cy="408.6352" fill="black" r="0.738" stroke="none" /><circle cx="379.8029" cy="341.1" fill="black" r="0.738" stroke="none" /><circle cx="374.9247" cy="556.132" fill="black" r="0.738" stroke="none" /><circle cx="376.702" cy="194.0881" fill="black" r="0.738" stroke="none" /><circle cx="370.9326" cy="473.049" fill="black" r="0.738" stroke="none" /><circle cx="368.6525" cy="594.6155" fill="black" r="0.738" stroke="none" /><circle cx="364.3322" cy="553.9104" fill="black" r="0.738" stroke="none" /><circle cx="364.3236" cy="365.546" fill="black" r="0.738" stroke="none" /><circle cx="354.9643" cy="586.3664" fill="black" r="1.17" stroke="none" /><circle cx="360.4727" cy="227.2954" fill="black" r="0.738" stroke="none" /><circle cx="354.8954" cy="350.8021" fill="black" r="0.936" stroke="none" /><circle cx="351.2826" cy="495.028" fill="black" r="0.738" stroke="none" /><circle cx="353.8638" cy="221.4651" fill="black" r="0.738" stroke="none" /><circle cx="337.3554" cy="618.8642" fill="black" r="0.738" stroke="none" /><circle cx="335.194" cy="704.0205" fill="black" r="0.738" stroke="none" /><circle cx="334.2058" cy="686.2972" fill="black" r="0.738" stroke="none" /><circle cx="340.7425" cy="416.2706" fill="black" r="0.738" stroke="none" /><circle cx="340.8966" cy="343.1953" fill="black" r="0.936" stroke="none" /><circle cx="339.5408" cy="253.8926" fill="black" r="0.738" stroke="none" /><circle cx="318.1473" cy="665.4714" fill="black" r="0.738" stroke="none" /><circle cx="315.9848" cy="604.7622" fill="black" r="0.936" stroke="none" /><circle cx="312.6599" cy="532.1156" fill="black" r="0.738" stroke="none" /><circle cx="313.0821" cy="484.5903" fill="black" r="0.738" stroke="none" /><circle cx="304.189" cy="373.0717" fill="black" r="0.738" stroke="none" /><circle cx="296.3652" cy="460.1256" fill="black" r="0.738" stroke="none" /><circle cx="300.1276" cy="344.8072" fill="black" r="0.738" stroke="none" /><circle cx="297.9612" cy="307.5562" fill="black" r="0.738" stroke="none" /><circle cx="291.3281" cy="394.904" fill="black" r="0.738" stroke="none" /><circle cx="280.324" cy="631.0575" fill="black" r="0.738" stroke="none" /><circle cx="295.4322" cy="279.2549" fill="black" r="0.738" stroke="none" /><circle cx="278.2457" cy="640.7818" fill="black" r="0.738" stroke="none" /><circle cx="271.5909" cy="685.0444" fill="black" r="0.738" stroke="none" /><circle cx="273.7284" cy="568.14" fill="black" r="0.936" stroke="none" /><circle cx="277.7178" cy="395.7487" fill="black" r="0.738" stroke="none" /><circle cx="277.5439" cy="396.2431" fill="black" r="0.738" stroke="none" /><circle cx="286.209" cy="194.71" fill="black" r="0.738" stroke="none" /><circle cx="280.6813" cy="245.7833" fill="black" r="0.738" stroke="none" /><circle cx="268.7041" cy="456.7769" fill="black" r="0.738" stroke="none" /><circle cx="260.6014" cy="571.7391" fill="black" r="0.738" stroke="none" /><circle cx="274.7028" cy="278.6071" fill="black" r="0.738" stroke="none" /><circle cx="275.3174" cy="194.6904" fill="black" r="0.738" stroke="none" /><circle cx="253.7326" cy="561.533" fill="black" r="0.738" stroke="none" /><circle cx="276.2115" cy="89.407" fill="black" r="0.738" stroke="none" /><circle cx="254.623" cy="369.6732" fill="black" r="1.17" stroke="none" /><circle cx="232.4552" cy="668.0165" fill="black" r="0.738" stroke="none" /><circle cx="242.0682" cy="487.9432" fill="black" r="0.738" stroke="none" /><circle cx="239.0443" cy="519.3261" fill="black" r="0.738" stroke="none" /><circle cx="230.5472" cy="508.6002" fill="black" r="0.936" stroke="none" /><circle cx="254.8186" cy="129.5211" fill="black" r="0.738" stroke="none" /><circle cx="237.2829" cy="348.1985" fill="black" r="0.738" stroke="none" /><circle cx="247.1617" cy="166.8887" fill="black" r="0.738" stroke="none" /><circle cx="209.8306" cy="687.5233" fill="black" r="0.738" stroke="none" /><circle cx="247.8125" cy="114.6365" fill="black" r="0.738" stroke="none" /><circle cx="229.4754" cy="285.0223" fill="black" r="0.738" stroke="none" /><circle cx="220.6857" cy="390.0047" fill="black" r="0.738" stroke="none" /><circle cx="226.2229" cy="297.2979" fill="black" r="0.936" stroke="none" /><circle cx="230.1648" cy="216.0516" fill="black" r="0.738" stroke="none" /><circle cx="193.7157" cy="653.0214" fill="black" r="0.738" stroke="none" /><circle cx="207.7615" cy="440.78" fill="black" r="0.738" stroke="none" /><circle cx="195.2926" cy="578.7027" fill="black" r="0.738" stroke="none" /><circle cx="217.9662" cy="280.8364" fill="black" r="0.738" stroke="none" /><circle cx="197.627" cy="492.1803" fill="black" r="0.738" stroke="none" /><circle cx="182.1112" cy="638.1237" fill="black" r="0.738" stroke="none" /><circle cx="197.0095" cy="438.6379" fill="black" r="0.738" stroke="none" /><circle cx="196.2226" cy="403.158" fill="black" r="0.738" stroke="none" /><circle cx="169.4774" cy="630.9032" fill="black" r="0.738" stroke="none" /><circle cx="207.9428" cy="183.1283" fill="black" r="0.738" stroke="none" /><circle cx="170.7487" cy="560.129" fill="black" r="0.738" stroke="none" /><circle cx="182.316" cy="372.4602" fill="black" r="0.738" stroke="none" /><circle cx="155.4494" cy="608.2387" fill="black" r="0.738" stroke="none" /><circle cx="144.6551" cy="685.4143" fill="black" r="0.738" stroke="none" /><circle cx="141.9085" cy="692.2332" fill="black" r="0.738" stroke="none" /><circle cx="190.6059" cy="169.2718" fill="black" r="0.936" stroke="none" /><circle cx="133.0149" cy="695.5001" fill="black" r="0.738" stroke="none" /><circle cx="190.9125" cy="109.364" fill="black" r="0.738" stroke="none" /><circle cx="172.7659" cy="273.6598" fill="black" r="0.738" stroke="none" /><circle cx="142.1831" cy="556.3025" fill="black" r="0.738" stroke="none" /><circle cx="175.1148" cy="228.5566" fill="black" r="0.936" stroke="none" /><circle cx="161.4841" cy="349.5276" fill="black" r="0.738" stroke="none" /><circle cx="158.1274" cy="289.9959" fill="black" r="0.738" stroke="none" /><circle cx="137.1261" cy="417.3279" fill="black" r="0.738" stroke="none" /><circle cx="172.1234" cy="94.9446" fill="black" r="0.738" stroke="none" /><circle cx="153.8912" cy="226.7659" fill="black" r="1.476" stroke="none" /><circle cx="122.1641" cy="491.4211" fill="black" r="0.738" stroke="none" /><circle cx="106.9523" cy="591.9986" fill="black" r="0.738" stroke="none" /><circle cx="92.1017" cy="694.2721" fill="black" r="0.738" stroke="none" /><circle cx="158.0812" cy="120.9478" fill="black" r="0.738" stroke="none" /><circle cx="106.7364" cy="529.6644" fill="black" r="0.936" stroke="none" /><circle cx="122.1868" cy="389.6352" fill="black" r="0.738" stroke="none" /><circle cx="84.2463" cy="675.2791" fill="black" r="0.738" stroke="none" /><circle cx="106.6692" cy="466.9963" fill="black" r="0.738" stroke="none" /><circle cx="106.2298" cy="467.1125" fill="black" r="0.738" stroke="none" /><circle cx="131.3431" cy="252.5711" fill="black" r="0.738" stroke="none" /><circle cx="104.0417" cy="467.6088" fill="black" r="0.738" stroke="none" /><circle cx="71.9962" cy="691.821" fill="black" r="0.738" stroke="none" /><circle cx="134.0581" cy="178.115" fill="black" r="0.738" stroke="none" /><circle cx="142.6835" cy="97.428" fill="black" r="0.738" stroke="none" /><circle cx="79.7318" cy="586.6549" fill="black" r="0.738" stroke="none" /><circle cx="137.1896" cy="72.1799" fill="black" r="0.738" stroke="none" /><circle cx="73.2931" cy="564.5341" fill="black" r="0.738" stroke="none" /><circle cx="136.9444" cy="72.317" fill="black" r="0.738" stroke="none" /><circle cx="102.0008" cy="310.4788" fill="black" r="1.17" stroke="none" /><circle cx="102.4148" cy="301.8209" fill="black" r="0.738" stroke="none" /><circle cx="110.3665" cy="237.8151" fill="black" r="0.738" stroke="none" /><circle cx="51.4789" cy="650.8974" fill="black" r="0.738" stroke="none" /><circle cx="13.77" cy="786.23" fill="black" r="4.59" stroke="none" /><circle cx="13.77" cy="786.23" fill="black" r="4.59" stroke="none" /><text fill="black" font-family="monospace" font-size="12" x="10.77" y="775.64">1</text><circle cx="37.77" cy="786.23" fill="black" r="3.654" stroke="none" /><circle cx="37.77" cy="786.23" fill="black" r="3.654" stroke="none" /><text fill="black" font-family="monospace" font-size="12" x="34.769999999999996" y="775.64">2</text><circle cx="61.77" cy="786.23" fill="black" r="2.916" stroke="none" /><circle cx="61.77" cy="786.23" fill="black" r="2.916" stroke="none" /><text fill="black" font-family="monospace" font-size="12" x="58.769999999999996" y="775.64">3</text><circle cx="85.77" cy="786.23" fill="black" r="2.322" stroke="none" /><circle cx="85.77" cy="786.23" fill="black" r="2.322" stroke="none" /><text fill="black" font-family="monospace" font-size="12" x="82.77" y="775.64">4</text><circle cx="109.77" cy="786.23" fill="black" r="1.854" stroke="none" /><circle cx="109.77" cy="786.23" fill="black" r="1.854" stroke="none" /><text fill="black" font-family="monospace" font-size="12" x="106.77" y="775.64">5</text><circle cx="133.77" cy="786.23" fill="black" r="1.476" stroke="none" /><circle cx="133.77" cy="786.23" fill="black" r="1.476" stroke="none" /><text fill="black" font-family="monospace" font-size="12" x="130.77" y="775.64">6</text><circle cx="157.77" cy="786.23" fill="black" r="1.17" stroke="none" /><circle cx="157.77" cy="786.23" fill="black" r="1.17" stroke="none" /><text fill="black" font-family="monospace" font-size="12" x="154.77" y="775.64">7</text><circle cx="181.77" cy="786.23" fill="black" r="0.936" stroke="none" /><circle cx="181.77" cy="786.23" fill="black" r="0.936" stroke="none" /><text fill="black" font-family="monospace" font-size="12" x="178.77" y="775.64">8</text><circle cx="205.77" cy="786.23" fill="black" r="0.738" stroke="none" /><circle cx="205.77" cy="786.23" fill="black" r="0.738" stroke="none" /><text fill="black" font-family="monospace" font-size="12" x="202.77" y="775.64">9</text><text fill="gray" fill-opacity="0.5" font-family="monospace" font-size="12" x="624.5407586671793" y="704.997042494763">02h30m</text><text fill="gray" fill-opacity="0.5" font-family="monospace" font-size="12" x="467.5058619311532" y="713.4344980121409">02h45m</text><text fill="gray" fill-opacity="0.5" font-family="monospace" font-size="12" x="310.2777597047822" y="712.7927801333458">03h00m</text><text fill="gray" fill-opacity="0.5" font-family="monospace" font-size="12" x="153.30647610228974" y="703.0728139591206">03h15m</text><text fill="gray" fill-opacity="0.5" font-family="monospace" font-size="12" x="41.53141706056715" y="690.5712362405532">+60°</text><text fill="gray" fill-opacity="0.5" font-family="monospace" font-size="12" x="52.607288142670654" y="607.3592124410465">+61°</text><text fill="gray" fill-opacity="0.5" font-family="monospace" font-size="12" x="63.72601939455018" y="524.1916174666113">+62°</text><text fill="gray" fill-opacity="0.5" font-family="monospace" font-size="12" x="74.88924651937276" y="441.05579924666256">+63°</text><text fill="gray" fill-opacity="0.5" font-family="monospace" font-size="12" x="86.09863233483867" y="357.93912500363354">+64°</text><text fill="gray" fill-opacity="0.5" font-family="monospace" font-size="12" x="97.35586775218235" y="274.82897358297316">+65°</text><text fill="gray" fill-opacity="0.5" font-family="monospace" font-size="12" x="108.66267279149787" y="191.7127277981166">+66°</text><text fill="gray" fill-opacity="0.5" font-family="monospace" font-size="12" x="120.02079763467935" y="108.57776678058678">+67°</text><text fill="black" font-family="monospace" font-size="12" x="12" y="48">&gt;&gt; No.729 02h17m 03h26m +60.0°+67.5°</text><a target="_self" xlink:href="hip040.svg"><text fill="black" font-family="monospace" font-size="12" x="12" y="36">&gt; No.40 00h00m 08h00m +52.5°+90.0°</text></a><a target="_self" xlink:href="hip002.svg"><text fill="black" font-family="monospace" font-size="12" x="12" y="24">No.2 00h 24h +0.0°+90.0°</text></a><polyline fill="none" points="674.2803,66.9993 671.5749,67.3687 667.5955,67.9052 663.6151,68.4337 659.6338,68.9544 655.6516,69.467 651.6684,69.9718 647.6844,70.4686 643.6995,70.9575 639.7137,71.4384 635.7271,71.9114 631.7396,72.3764 627.7513,72.8335 623.7622,73.2827 619.7723,73.7239 615.7816,74.1571 611.7901,74.5824 607.7979,74.9998 603.805,75.4092 599.8113,75.8107 595.8169,76.2042 591.8219,76.5897 587.8261,76.9673 583.8297,77.3369 579.8326,77.6986 575.8349,78.0523 571.8365,78.3981 567.8376,78.7359 563.838,79.0657 559.8379,79.3876 555.8372,79.7015 551.8359,80.0075 547.8341,80.3055 543.8318,80.5955 539.829,80.8776 535.8257,81.1517 531.8218,81.4178 527.8176,81.676 523.8128,81.9262 519.8077,82.1684 515.8021,82.4027 511.796,82.629 507.7896,82.8473 503.7828,83.0577 499.7757,83.2601 495.7682,83.4545 491.7603,83.641 487.7521,83.8194 483.7437,83.9899 479.7349,84.1525 475.7258,84.307 471.7165,84.4536 467.7069,84.5922 463.697,84.7229 459.687,84.8455 455.6767,84.9602 451.6662,85.0669 447.6556,85.1657 443.6447,85.2565 439.6338,85.3392 435.6226,85.4141 431.6114,85.4809 427.6,85.5398 423.5886,85.5907 419.577,85.6336 415.5654,85.6685 411.5538,85.6955 407.5421,85.7144 403.5303,85.7255 399.5186,85.7285 395.5068,85.7235 391.4951,85.7106 387.4834,85.6897 383.4718,85.6608 379.4602,85.624 375.4487,85.5792 371.4372,85.5264 367.4259,85.4656 363.4147,85.3968 359.4036,85.3201 355.3926,85.2354 351.3819,85.1427 347.3712,85.0421 343.3608,84.9334 339.3506,84.8168 335.3406,84.6922 331.3308,84.5597 327.3213,84.4192 323.312,84.2707 319.303,84.1142 315.2943,83.9497 311.2859,83.7773 307.2778,83.5969 303.27,83.4086 299.2626,83.2122 295.2555,83.0079 291.2488,82.7957 287.2425,82.5754 283.2366,82.3472 279.2311,82.111 275.226,81.8669 271.2214,81.6148 267.2172,81.3547 263.2135,81.0866 259.2103,80.8106 255.2076,80.5266 251.2054,80.2347 247.2037,79.9348 243.2026,79.6269 239.202,79.3111 235.202,78.9873 231.2026,78.6555 227.2038,78.3158 223.2056,77.9682 219.208,77.6125 215.2111,77.2489 211.2149,76.8774 207.2193,76.4979 203.2243,76.1104 199.2301,75.715 195.2366,75.3117 191.2439,74.9004 187.2518,74.4811 183.2606,74.0539 179.2701,73.6187 175.2803,73.1756 171.2914,72.7246 167.3033,72.2655 163.3161,71.7986 159.3296,71.3237 155.344,70.8409 151.3593,70.3501 147.3755,69.8514 143.3926,69.3447 139.4106,68.8301 135.4295,68.3076 131.4494,67.7771 127.4702,67.2387 125.7197,66.9993" stroke="black" stroke-opacity="0.5" stroke-width="1" /><polyline fill="none" points="758.4686,690.5712 757.0864,680.1669 755.7035,669.7634 754.3201,659.3607 752.9359,648.9589 751.5511,638.5578 750.1656,628.1576 748.7795,617.758 747.3927,607.3592 746.0052,596.9611 744.6171,586.5636 743.2283,576.1668 741.8388,565.7707 740.4486,555.3751 739.0578,544.98 737.6662,534.5856 736.274,524.1916 734.881,513.7982 733.4874,503.4052 732.0931,493.0126 730.698,482.6205 729.3023,472.2288 727.9058,461.8375 726.5086,451.4465 725.1108,441.0558 723.7121,430.6654 722.3128,420.2753 720.9127,409.8855 719.5119,399.4959 718.1104,389.1064 716.7081,378.7172 715.3051,368.3281 713.9014,357.9391 712.4969,347.5503 711.0916,337.1615 709.6856,326.7727 708.2788,316.384 706.8713,305.9953 705.463,295.6066 704.054,285.2178 702.6441,274.829 701.2335,264.44 699.8221,254.051 698.41,243.6618 696.997,233.2724 695.5833,222.8828 694.1688,212.4931 692.7534,202.103 691.3373,191.7127 689.9204,181.3221 688.5027,170.9312 687.0841,160.54 685.6648,150.1484 684.2446,139.7564 682.8236,129.364 681.4018,118.9711 679.9792,108.5778 678.5557,98.184 677.1314,87.7896 675.7063,77.3948 674.2803,66.9993" stroke="black" stroke-opacity="0.5" stroke-width="1" /><polyline fill="none" points="758.4686,690.5712 754.9307,691.0387 749.7269,691.7178 744.5221,692.3868 739.3161,693.0458 734.1091,693.6947 728.901,694.3336 723.6918,694.9624 718.4816,695.5811 713.2704,696.1898 708.0582,696.7884 702.845,697.3769 697.6309,697.9554 692.4158,698.5238 687.1998,699.0822 681.9828,699.6305 676.765,700.1687 671.5462,700.6968 666.3267,701.2149 661.1062,701.7229 655.8849,702.2209 650.6628,702.7088 645.44,703.1866 640.2163,703.6543 634.9919,704.112 629.7667,704.5595 624.5408,704.997 619.3141,705.4245 614.0868,705.8418 608.8588,706.2491 603.6301,706.6463 598.4008,707.0334 593.1708,707.4105 587.9403,707.7774 582.7091,708.1343 577.4774,708.4811 572.245,708.8178 567.0122,709.1445 561.7788,709.461 556.5449,709.7675 551.3105,710.0639 546.0756,710.3502 540.8402,710.6264 535.6044,710.8926 530.3682,711.1486 525.1316,711.3946 519.8945,711.6305 514.6571,711.8563 509.4193,712.072 504.1812,712.2776 498.9427,712.4731 493.7039,712.6586 488.4648,712.8339 483.2255,712.9992 477.9858,713.1544 472.746,713.2995 467.5059,713.4345 462.2655,713.5594 457.025,713.6742 451.7843,713.779 446.5435,713.8736 441.3024,713.9582 436.0613,714.0326 430.82,714.097 425.5787,714.1513 420.3372,714.1955 415.0957,714.2296 409.8542,714.2536 404.6126,714.2676 399.371,714.2714 394.1294,714.2651 388.8878,714.2488 383.6463,714.2223 378.4048,714.1858 373.1634,714.1392 367.9221,714.0825 362.6808,714.0157 357.4397,713.9388 352.1987,713.8518 346.9579,713.7548 341.7172,713.6476 336.4768,713.5304 331.2365,713.403 325.9964,713.2656 320.7566,713.1181 315.5171,712.9605 310.2778,712.7928 305.0387,712.615 299.8,712.4271 294.5616,712.2292 289.3236,712.0211 284.0859,711.803 278.8486,711.5748 273.6116,711.3365 268.3751,711.0881 263.1389,710.8296 257.9032,710.5611 252.668,710.2824 247.4332,709.9937 242.1989,709.6949 236.9651,709.386 231.7319,709.067 226.4991,708.7379 221.267,708.3988 216.0354,708.0496 210.8043,707.6903 205.5739,707.3209 200.3441,706.9414 195.1149,706.5519 189.8864,706.1523 184.6586,705.7426 179.4314,705.3228 174.205,704.893 168.9792,704.453 163.7542,704.003 158.53,703.543 153.3065,703.0728 148.0838,702.5926 142.8619,702.1023 137.6408,701.6019 132.4206,701.0915 127.2012,700.571 121.9827,700.0404 116.765,699.4998 111.5483,698.9491 106.3325,698.3883 101.1176,697.8175 95.9037,697.2366 90.6907,696.6456 85.4788,696.0446 80.2678,695.4335 75.0579,694.8124 69.849,694.1812 64.6411,693.5399 59.4343,692.8886 54.2286,692.2272 49.0241,691.5558 43.8206,690.8743 41.5314,690.5712" stroke="black" stroke-opacity="0.5" stroke-width="1" /><polyline fill="none" points="41.5314,690.5712 42.9136,680.1669 44.2965,669.7634 45.6799,659.3607 47.0641,648.9589 48.4489,638.5578 49.8344,628.1576 51.2205,617.758 52.6073,607.3592 53.9948,596.9611 55.3829,586.5636 56.7717,576.1668 58.1612,565.7707 59.5514,555.3751 60.9422,544.98 62.3338,534.5856 63.726,524.1916 65.119,513.7982 66.5126,503.4052 67.9069,493.0126 69.302,482.6205 70.6977,472.2288 72.0942,461.8375 73.4914,451.4465 74.8892,441.0558 76.2879,430.6654 77.6872,420.2753 79.0873,409.8855 80.4881,399.4959 81.8896,389.1064 83.2919,378.7172 84.6949,368.3281 86.0986,357.9391 87.5031,347.5503 88.9084,337.1615 90.3144,326.7727 91.7212,316.384 93.1287,305.9953 94.537,295.6066 95.946,285.2178 97.3559,274.829 98.7665,264.44 100.1779,254.051 101.59,243.6618 103.003,233.2724 104.4167,222.8828 105.8312,212.4931 107.2466,202.103 108.6627,191.7127 110.0796,181.3221 111.4973,170.9312 112.9159,160.54 114.3352,150.1484 115.7554,139.7564 117.1764,129.364 118.5982,118.9711 120.0208,108.5778 121.4443,98.184 122.8686,87.7896 124.2937,77.3948 125.7197,66.9993" stroke="black" stroke-opacity="0.5" stroke-width="1" /></svg>