<?xml version="1.0" encoding="utf-8" ?>
<svg baseProfile="tiny" height="800" version="1.2" width="800" xmlns="http://www.w3.org/2000/svg" xmlns:ev="http://www.w3.org/2001/xml-events" xmlns:xlink="http://www.w3.org/1999/xlink"><defs /><rect fill="none" height="800" stroke="black" stroke-width="2" width="800" x="0" y="0" /><polyline fill="none" points="736.192,693.4364 734.8959,683.0225 733.5992,672.6095 732.3019,662.1973 731.0039,651.7859 729.7054,641.3753 728.4062,630.9654 727.1064,620.5563 725.806,610.1479 724.5049,599.7401 723.2032,589.333 721.9009,578.9265 720.5979,568.5207 719.2943,558.1154 717.9901,547.7106 716.6852,537.3064 715.3796,526.9027 714.0734,516.4995 712.7665,506.0967 711.459,495.6943 710.1508,485.2924 708.842,474.8908 707.5325,464.4896 706.2223,454.0887 704.9114,443.6881 703.5999,433.2879 702.2877,422.8878 700.9748,412.488 699.6612,402.0884 698.3469,391.689 697.0319,381.2897 695.7162,370.8906 694.3999,360.4916 693.0828,350.0927 691.765,339.6938 690.4465,329.295 689.1273,318.8961 687.8074,308.4973 686.4868,298.0984 685.1654,287.6994 683.8433,277.3004 682.5205,266.9013 681.197,256.502 679.8727,246.1025 678.5477,235.7029 677.2219,225.303 675.8954,214.9029 674.5682,204.5026 673.2402,194.1019 671.9115,183.701 670.582,173.2997 669.2517,162.898 667.9207,152.496 666.5889,142.0936 665.2563,131.6907 663.923,121.2874 662.5889,110.8835 661.254,100.4792 659.9183,90.0743 658.5818,79.6689 657.2446,69.2629" stroke="silver" stroke-opacity="0.5" stroke-width="1" /><polyline fill="none" points="579.5701,708.3436 578.8784,697.8804 578.1863,687.4179 577.4939,676.9562 576.8011,666.4952 576.1081,656.0348 575.4146,645.5752 574.7209,635.1161 574.0268,624.6577 573.3324,614.1998 572.6376,603.7426 571.9425,593.2858 571.247,582.8296 570.5512,572.3738 569.8551,561.9185 569.1586,551.4637 568.4617,541.0092 567.7645,530.5552 567.0669,520.1015 566.369,509.6481 565.6707,499.1951 564.9721,488.7423 564.2731,478.2898 563.5737,467.8375 562.874,457.3855 562.1739,446.9336 561.4735,436.4819 560.7726,426.0303 560.0714,415.5789 559.3699,405.1275 558.6679,394.6762 557.9656,384.2249 557.2629,373.7737 556.5598,363.3224 555.8563,352.8711 555.1525,342.4198 554.4483,331.9683 553.7437,321.5168 553.0387,311.0651 552.3333,300.6132 551.6275,290.1612 550.9213,279.7089 550.2147,269.2564 549.5078,258.8037 548.8004,248.3506 548.0926,237.8973 547.3845,227.4436 546.6759,216.9896 545.9669,206.5352 545.2576,196.0803 544.5478,185.6251 543.8376,175.1693 543.127,164.7131 542.4159,154.2564 541.7045,143.7991 540.9926,133.3413 540.2804,122.8829 539.5677,112.4239 538.8546,101.9643 538.141,91.504 537.427,81.043" stroke="silver" stroke-opacity="0.5" stroke-width="1" /><polyline fill="none" points="422.4338,714.179 422.3474,703.6965 422.261,693.2147 422.1745,682.7336 422.088,672.2532 422.0014,661.7734 421.9148,651.2943 421.8282,640.8157 421.7415,630.3377 421.6548,619.8603 421.568,609.3834 421.4812,598.907 421.3943,588.4311 421.3074,577.9556 421.2205,567.4805 421.1335,557.0059 421.0464,546.5316 420.9594,536.0577 420.8722,525.584 420.7851,515.1107 420.6979,504.6377 420.6106,494.1649 420.5233,483.6924 420.4359,473.22 420.3485,462.7478 420.2611,452.2758 420.1736,441.8039 420.0861,431.3321 419.9985,420.8603 419.9109,410.3887 419.8232,399.917 419.7355,389.4453 419.6477,378.9737 419.5599,368.5019 419.472,358.0301 419.3841,347.5582 419.2962,337.0862 419.2081,326.614 419.1201,316.1417 419.032,305.6691 418.9438,295.1963 418.8556,284.7233 418.7674,274.25 418.6791,263.7764 418.5907,253.3025 418.5023,242.8282 418.4139,232.3536 418.3254,221.8786 418.2368,211.4031 418.1482,200.9272 418.0595,190.4508 417.9708,179.9739 417.8821,169.4965 417.7932,159.0186 417.7044,148.5401 417.6155,138.0609 417.5265,127.5812 417.4375,117.1008 417.3484,106.6197 417.2593,96.138 417.1701,85.6555" stroke="silver" stroke-opacity="0.5" stroke-width="1" /><polyline fill="none" points="265.2333,710.9342 265.7524,700.4624 266.2718,689.9914 266.7913,679.521 267.3112,669.0514 267.8313,658.5824 268.3516,648.1141 268.8722,637.6464 269.393,627.1793 269.9141,616.7128 270.4355,606.2468 270.9571,595.7813 271.479,585.3163 272.0011,574.8518 272.5235,564.3877 273.0462,553.9241 273.5691,543.4608 274.0923,532.9979 274.6157,522.5354 275.1395,512.0732 275.6635,501.6113 276.1877,491.1496 276.7123,480.6882 277.2371,470.227 277.7622,459.766 278.2875,449.3052 278.8132,438.8445 279.3391,428.384 279.8653,417.9235 280.3917,407.4631 280.9185,397.0028 281.4455,386.5425 281.9728,376.0821 282.5004,365.6218 283.0283,355.1614 283.5565,344.7009 284.085,334.2403 284.6137,323.7796 285.1428,313.3187 285.6721,302.8577 286.2018,292.3964 286.7317,281.935 287.2619,271.4732 287.7925,261.0112 288.3233,250.5489 288.8544,240.0863 289.3858,229.6233 289.9176,219.16 290.4496,208.6962 290.982,198.232 291.5146,187.7674 292.0476,177.3022 292.5808,166.8366 293.1144,156.3705 293.6483,145.9038 294.1825,135.4365 294.717,124.9686 295.2519,114.5001 295.787,104.031 296.3225,93.5611 296.8583,83.0906" stroke="silver" stroke-opacity="0.5" stroke-width="1" /><polyline fill="none" points="108.4187,698.6138 109.5425,688.1828 110.6669,677.7526 111.7918,667.3232 112.9172,656.8946 114.0431,646.4667 115.1696,636.0395 116.2967,625.613 117.4242,615.1872 118.5524,604.7621 119.6811,594.3375 120.8103,583.9136 121.9401,573.4902 123.0704,563.0674 124.2014,552.6451 125.3328,542.2233 126.4649,531.8019 127.5975,521.381 128.7307,510.9605 129.8644,500.5405 130.9988,490.1208 132.1337,479.7014 133.2692,469.2824 134.4052,458.8636 135.5419,448.4452 136.6792,438.027 137.817,427.609 138.9555,417.1912 140.0945,406.7736 141.2342,396.3561 142.3744,385.9388 143.5153,375.5215 144.6567,365.1044 145.7988,354.6872 146.9415,344.2701 148.0848,333.8531 149.2287,323.4359 150.3733,313.0188 151.5185,302.6015 152.6643,292.1842 153.8107,281.7668 154.9578,271.3492 156.1055,260.9314 157.2538,250.5134 158.4028,240.0952 159.5524,229.6768 160.7027,219.2581 161.8536,208.8391 163.0052,198.4197 164.1574,188.0001 165.3103,177.58 166.4639,167.1596 167.6181,156.7387 168.773,146.3174 169.9286,135.8957 171.0848,125.4734 172.2417,115.0506 173.3993,104.6273 174.5575,94.2034 175.7165,83.7789 176.8761,73.3538" stroke="silver" stroke-opacity="0.5" stroke-width="1" /><polyline fill="none" points="758.6767,690.5436 757.0119,690.7643 751.8086,691.4474 746.6042,692.1204 741.3986,692.7834 736.192,693.4364 730.9844,694.0792 725.7756,694.712 720.5658,695.3348 715.355,695.9475 710.1432,696.5501 704.9304,697.1427 699.7167,697.7252 694.5019,698.2977 689.2863,698.86 684.0697,699.4124 678.8522,699.9546 673.6338,700.4868 668.4146,701.0089 663.1945,701.5209 657.9735,702.0229 652.7518,702.5148 647.5292,702.9967 642.3059,703.4684 637.0817,703.9301 631.8568,704.3817 626.6312,704.8232 621.4049,705.2547 616.1778,705.6761 610.9501,706.0874 605.7217,706.4886 600.4926,706.8798 595.2629,707.2609 590.0326,707.6319 584.8016,707.9928 579.5701,708.3436 574.338,708.6844 569.1054,709.015 563.8722,709.3356 558.6385,709.6461 553.4043,709.9466 548.1696,710.2369 542.9344,710.5172 537.6988,710.7873 532.4628,711.0474 527.2263,711.2974 521.9894,711.5373 516.7521,711.7672 511.5145,711.9869 506.2765,712.1966 501.0381,712.3961 495.7995,712.5856 490.5605,712.765 485.3212,712.9343 480.0817,713.0935 474.8419,713.2427 469.6019,713.3817 464.3617,713.5107 459.1213,713.6295 453.8806,713.7383 448.6398,713.837 443.3989,713.9256 438.1578,714.0041 432.9166,714.0725 427.6752,714.1308 422.4338,714.179 417.1923,714.2172 411.9508,714.2452 406.7092,714.2632 401.4676,714.2711 396.226,714.2688 390.9845,714.2565 385.7429,714.2341 380.5014,714.2016 375.2599,714.1591 370.0186,714.1064 364.7773,714.0436 359.5361,713.9708 354.2951,713.8878 349.0542,713.7948 343.8135,713.6917 338.5729,713.5785 333.3326,713.4552 328.0924,713.3218 322.8525,713.1783 317.6129,713.0247 312.3734,712.8611 307.1343,712.6873 301.8955,712.5035 296.657,712.3096 291.4188,712.1056 286.1809,711.8915 280.9434,711.6673 275.7063,711.433 270.4696,711.1887 265.2333,710.9342 259.9975,710.6697 254.762,710.3951 249.5271,710.1104 244.2926,709.8156 239.0586,709.5108 233.8251,709.1958 228.5922,708.8708 223.3598,708.5357 218.1279,708.1905 212.8967,707.8352 207.666,707.4699 202.436,707.0944 197.2065,706.7089 191.9778,706.3133 186.7496,705.9077 181.5222,705.4919 176.2955,705.0661 171.0694,704.6302 165.8441,704.1842 160.6196,703.7282 155.3958,703.2621 150.1728,702.7859 144.9505,702.2996 139.7291,701.8033 134.5086,701.2969 129.2888,700.7804 124.07,700.2539 118.852,699.7173 113.6349,699.1706 108.4187,698.6138 103.2035,698.047 97.9892,697.4702 92.7758,696.8832 87.5635,696.2862 82.3521,695.6792 77.1417,695.062 71.9324,694.4348 66.7241,693.7976 61.5169,693.1503 56.3108,692.493 51.1058,691.8255 45.9018,691.1481 41.3233,690.5436" stroke="silver" stroke-opacity="0.5" stroke-width="1" /><polyline fill="none" points="747.5944,607.3323 745.9811,607.5471 740.939,608.212 735.8957,608.8671 730.8514,609.5124 725.806,610.1479 720.7595,610.7736 715.712,611.3895 710.6635,611.9957 705.6139,612.592 700.5634,613.1786 695.5119,613.7553 690.4594,614.3223 685.4061,614.8795 680.3517,615.4269 675.2965,615.9645 670.2404,616.4923 665.1834,617.0103 660.1256,617.5184 655.0669,618.0168 650.0074,618.5054 644.947,618.9842 639.8859,619.4532 634.824,619.9124 629.7614,620.3618 624.698,620.8014 619.6339,621.2311 614.569,621.6511 609.5035,622.0612 604.4373,622.4616 599.3704,622.8521 594.3029,623.2329 589.2348,623.6038 584.1661,623.9649 579.0967,624.3162 574.0268,624.6577 568.9563,624.9894 563.8853,625.3112 558.8137,625.6233 553.7417,625.9255 548.6691,626.2179 543.596,626.5006 538.5225,626.7734 533.4486,627.0363 528.3742,627.2895 523.2994,627.5328 518.2242,627.7664 513.1486,627.9901 508.0726,628.204 502.9963,628.408 497.9197,628.6023 492.8428,628.7867 487.7655,628.9614 482.688,629.1262 477.6102,629.2811 472.5321,629.4263 467.4539,629.5616 462.3754,629.6871 457.2967,629.8028 452.2178,629.9087 447.1387,630.0048 442.0595,630.091 436.9802,630.1674 431.9007,630.234 426.8212,630.2908 421.7415,630.3377 416.6618,630.3749 411.582,630.4022 406.5022,630.4197 401.4224,630.4273 396.3425,630.4252 391.2627,630.4132 386.1829,630.3914 381.1031,630.3597 376.0234,630.3183 370.9438,630.267 365.8643,630.2059 360.7849,630.135 355.7056,630.0543 350.6265,629.9637 345.5475,629.8633 340.4687,629.7531 335.3901,629.6331 330.3117,629.5033 325.2335,629.3636 320.1555,629.2142 315.0779,629.0549 310.0005,628.8857 304.9233,628.7068 299.8465,628.518 294.77,628.3195 289.6939,628.1111 284.6181,627.8929 279.5427,627.6648 274.4677,627.427 269.393,627.1793 264.3188,626.9218 259.2451,626.6545 254.1718,626.3774 249.0989,626.0905 244.0266,625.7937 238.9547,625.4872 233.8834,625.1708 228.8126,624.8446 223.7424,624.5086 218.6727,624.1628 213.6036,623.8072 208.5351,623.4418 203.4673,623.0666 198.4001,622.6815 193.3335,622.2866 188.2676,621.882 183.2024,621.4675 178.1378,621.0432 173.074,620.6091 168.011,620.1653 162.9486,619.7116 157.8871,619.2481 152.8263,618.7748 147.7664,618.2917 142.7072,617.7988 137.6489,617.296 132.5914,616.7835 127.5348,616.2612 122.4791,615.7291 117.4242,615.1872 112.3703,614.6355 107.3174,614.0741 102.2653,613.5028 97.2142,612.9217 92.1642,612.3308 87.1151,611.7302 82.067,611.1197 77.0199,610.4995 71.9739,609.8695 66.929,609.2296 61.8851,608.58 56.8424,607.9207 52.4056,607.3323" stroke="silver" stroke-opacity="0.5" stroke-width="1" /><polyline fill="none" points="736.4692,524.1655 734.9077,524.3743 730.0273,525.0207 725.1458,525.6575 720.2632,526.2849 715.3796,526.9027 710.495,527.511 705.6093,528.1098 700.7226,528.6991 695.8349,529.2789 690.9463,529.8491 686.0567,530.4098 681.1662,530.961 676.2747,531.5027 671.3824,532.0349 666.4891,532.5575 661.595,533.0707 656.7,533.5743 651.8042,534.0683 646.9075,534.5529 642.01,535.0279 637.1118,535.4934 632.2127,535.9493 627.3129,536.3957 622.4124,536.8326 617.5111,537.26 612.6091,537.6778 607.7064,538.0861 602.803,538.4849 597.899,538.8741 592.9943,539.2538 588.089,539.624 583.1831,539.9846 578.2765,540.3357 573.3694,540.6772 568.4617,541.0092 563.5535,541.3317 558.6447,541.6446 553.7354,541.948 548.8256,542.2419 543.9153,542.5262 539.0045,542.8009 534.0933,543.0661 529.1816,543.3218 524.2695,543.568 519.357,543.8045 514.4442,544.0316 509.5309,544.2491 504.6173,544.457 499.7033,544.6555 494.789,544.8443 489.8744,545.0236 484.9595,545.1934 480.0444,545.3536 475.1289,545.5043 470.2132,545.6454 465.2973,545.777 460.3812,545.8991 455.4649,546.0115 450.5484,546.1145 445.6317,546.2079 440.7149,546.2917 435.7979,546.366 430.8809,546.4308 425.9637,546.4859 421.0464,546.5316 416.1291,546.5677 411.2117,546.5942 406.2943,546.6112 401.3769,546.6187 396.4594,546.6166 391.542,546.6049 386.6246,546.5837 381.7073,546.553 376.79,546.5127 371.8727,546.4628 366.9556,546.4034 362.0386,546.3345 357.1217,546.256 352.2049,546.168 347.2883,546.0704 342.3719,545.9632 337.4557,545.8465 332.5396,545.7203 327.6238,545.5845 322.7083,545.4392 317.7929,545.2843 312.8779,545.1199 307.9631,544.9459 303.0486,544.7624 298.1345,544.5693 293.2207,544.3667 288.3072,544.1546 283.3941,543.9329 278.4814,543.7016 273.5691,543.4608 268.6572,543.2105 263.7457,542.9506 258.8347,542.6812 253.9241,542.4022 249.0141,542.1137 244.1045,541.8157 239.1954,541.5081 234.2869,541.191 229.3788,540.8643 224.4714,540.5281 219.5645,540.1824 214.6583,539.8271 209.7526,539.4623 204.8475,539.0879 199.9431,538.704 195.0394,538.3106 190.1363,537.9077 185.2339,537.4952 180.3322,537.0731 175.4313,536.6416 170.5311,536.2005 165.6316,535.7499 160.7329,535.2897 155.835,534.82 150.9379,534.3408 146.0416,533.8521 141.1461,533.3538 136.2515,532.8461 131.3577,532.3288 126.4649,531.8019 121.5729,531.2656 116.6819,530.7197 111.7917,530.1643 106.9026,529.5994 102.0144,529.0249 97.1271,528.441 92.2409,527.8475 87.3557,527.2445 82.4715,526.632 77.5883,526.01 72.7062,525.3785 67.8252,524.7374 63.5308,524.1655" stroke="silver" stroke-opacity="0.5" stroke-width="1" /><polyline fill="none" points="725.2994,441.0304 723.7899,441.2332 719.0719,441.8608 714.3528,442.4791 709.6326,443.0883 704.9114,443.6881 700.1892,444.2788 695.466,444.8602 690.7418,445.4324 686.0167,445.9953 681.2906,446.549 676.5635,447.0935 671.8355,447.6287 667.1066,448.1547 662.3769,448.6714 657.6462,449.1789 652.9147,449.6771 648.1824,450.1661 643.4492,450.6458 638.7152,451.1163 633.9804,451.5776 629.2449,452.0295 624.5085,452.4723 619.7715,452.9058 615.0337,453.33 610.2951,453.7449 605.5559,454.1507 600.816,454.5471 596.0754,454.9343 591.3342,455.3123 586.5923,455.681 581.8499,456.0404 577.1068,456.3905 572.3631,456.7314 567.6188,457.0631 562.874,457.3855 558.1286,457.6986 553.3828,458.0025 548.6364,458.297 543.8895,458.5824 539.1421,458.8584 534.3943,459.1252 529.646,459.3828 524.8973,459.631 520.1482,459.87 515.3986,460.0998 510.6487,460.3202 505.8985,460.5314 501.1478,460.7334 496.3969,460.926 491.6456,461.1094 486.894,461.2835 482.1421,461.4484 477.39,461.604 472.6375,461.7503 467.8849,461.8873 463.132,462.0151 458.3789,462.1336 453.6256,462.2428 448.8722,462.3428 444.1185,462.4335 439.3648,462.5149 434.6109,462.587 429.8569,462.6499 425.1027,462.7035 420.3485,462.7478 415.5943,462.7829 410.84,462.8086 406.0856,462.8252 401.3312,462.8324 396.5768,462.8303 391.8225,462.819 387.0681,462.7984 382.3138,462.7686 377.5596,462.7295 372.8054,462.6811 368.0514,462.6234 363.2974,462.5564 358.5435,462.4802 353.7898,462.3947 349.0363,462.3 344.2829,462.1959 339.5297,462.0826 334.7767,461.96 330.0239,461.8282 325.2714,461.6871 320.5191,461.5367 315.767,461.377 311.0153,461.2081 306.2638,461.0299 301.5127,460.8424 296.7618,460.6457 292.0114,460.4397 287.2613,460.2244 282.5115,459.9998 277.7622,459.766 273.0132,459.5229 268.2647,459.2706 263.5166,459.009 258.769,458.7381 254.0218,458.458 249.2752,458.1686 244.529,457.8699 239.7833,457.562 235.0382,457.2448 230.2936,456.9183 225.5496,456.5826 220.8062,456.2376 216.0634,455.8834 211.3212,455.5199 206.5796,455.1471 201.8386,454.7651 197.0983,454.3738 192.3587,453.9733 187.6198,453.5635 182.8816,453.1445 178.1441,452.7162 173.4074,452.2786 168.6714,451.8318 163.9362,451.3758 159.2017,450.9104 154.4681,450.4359 149.7353,449.9521 145.0033,449.459 140.2722,448.9567 135.5419,448.4452 130.8125,447.9244 126.0841,447.3944 121.3565,446.8551 116.6298,446.3065 111.9041,445.7488 107.1794,445.1818 102.4557,444.6055 97.7329,444.0201 93.0111,443.4253 88.2904,442.8214 83.5707,442.2082 78.8521,441.5858 74.7006,441.0304" stroke="silver" stroke-opacity="0.5" stroke-width="1" /><polyline fill="none" points="714.0835,357.9145 712.6262,358.1111 708.0711,358.7197 703.5151,359.3193 698.958,359.9099 694.3999,360.4916 689.8408,361.0643 685.2807,361.6281 680.7196,362.1829 676.1576,362.7288 671.5947,363.2657 667.0308,363.7937 662.4661,364.3126 657.9004,364.8227 653.3339,365.3237 648.7665,365.8158 644.1983,366.2989 639.6293,366.7731 635.0594,367.2383 630.4887,367.6945 625.9173,368.1418 621.3451,368.58 616.7722,369.0094 612.1985,369.4297 607.6241,369.8411 603.049,370.2435 598.4732,370.6369 593.8968,371.0213 589.3197,371.3968 584.7419,371.7633 580.1636,372.1208 575.5846,372.4693 571.005,372.8089 566.4249,373.1395 561.8441,373.4611 557.2629,373.7737 552.6811,374.0773 548.0988,374.372 543.516,374.6577 538.9327,374.9343 534.3489,375.202 529.7647,375.4608 525.1801,375.7105 520.595,375.9513 516.0095,376.183 511.4236,376.4058 506.8374,376.6196 502.2508,376.8244 497.6638,377.0202 493.0765,377.207 488.4889,377.3849 483.901,377.5537 479.3128,377.7136 474.7244,377.8645 470.1357,378.0063 465.5467,378.1392 460.9576,378.2631 456.3682,378.378 451.7786,378.484 447.1889,378.5809 442.599,378.6688 438.009,378.7478 433.4188,378.8177 428.8285,378.8787 424.2382,378.9307 419.6477,378.9737 415.0572,379.0076 410.4666,379.0326 405.876,379.0486 401.2854,379.0557 396.6947,379.0537 392.1041,379.0427 387.5135,379.0228 382.923,378.9938 378.3325,378.9559 373.7421,378.9089 369.1517,378.853 364.5615,378.7881 359.9714,378.7142 355.3814,378.6312 350.7916,378.5394 346.2019,378.4385 341.6125,378.3286 337.0232,378.2097 332.4341,378.0819 327.8453,377.945 323.2567,377.7992 318.6683,377.6443 314.0803,377.4805 309.4925,377.3077 304.905,377.1259 300.3179,376.9351 295.7311,376.7354 291.1446,376.5266 286.5585,376.3089 281.9728,376.0821 277.3875,375.8464 272.8026,375.6017 268.2182,375.348 263.6342,375.0854 259.0506,374.8137 254.4675,374.5331 249.8849,374.2434 245.3029,373.9448 240.7213,373.6373 236.1403,373.3207 231.5598,372.9951 226.9799,372.6606 222.4006,372.3171 217.8219,371.9646 213.2438,371.6031 208.6663,371.2327 204.0895,370.8533 199.5133,370.4649 194.9379,370.0675 190.3631,369.6612 185.789,369.2459 181.2156,368.8216 176.643,368.3883 172.0712,367.9461 167.5001,367.4949 162.9298,367.0347 158.3603,366.5656 153.7916,366.0875 149.2237,365.6004 144.6567,365.1044 140.0906,364.5994 135.5253,364.0854 130.961,363.5625 126.3975,363.0306 121.835,362.4897 117.2734,361.9399 112.7128,361.3812 108.1531,360.8134 103.5945,360.2368 99.0368,359.6511 94.4801,359.0565 89.9245,358.453 85.9165,357.9145" stroke="silver" stroke-opacity="0.5" stroke-width="1" /><polyline fill="none" points="702.8198,274.8051 701.4147,274.9955 697.0234,275.5847 692.631,276.1653 688.2377,276.7372 683.8433,277.3004 679.448,277.855 675.0517,278.4008 670.6545,278.9381 666.2563,279.4666 661.8572,279.9865 657.4572,280.4977 653.0564,281.0002 648.6546,281.494 644.2521,281.9792 639.8486,282.4556 635.4444,282.9234 631.0393,283.3826 626.6335,283.833 622.2269,284.2747 617.8195,284.7078 613.4113,285.1322 609.0025,285.5479 604.5929,285.9549 600.1826,286.3532 595.7716,286.7429 591.36,287.1238 586.9477,287.4961 582.5348,287.8596 578.1212,288.2145 573.707,288.5607 569.2922,288.8982 564.8769,289.227 560.461,289.5471 556.0445,289.8585 551.6275,290.1612 547.21,290.4552 542.7919,290.7405 538.3734,291.0171 533.9544,291.285 529.535,291.5442 525.1151,291.7948 520.6948,292.0366 516.274,292.2697 511.8529,292.4941 507.4314,292.7098 503.0095,292.9169 498.5872,293.1152 494.1647,293.3048 489.7417,293.4857 485.3185,293.6579 480.895,293.8214 476.4713,293.9762 472.0472,294.1223 467.6229,294.2597 463.1984,294.3883 458.7737,294.5083 454.3487,294.6196 449.9236,294.7222 445.4983,294.816 441.0729,294.9012 436.6473,294.9776 432.2216,295.0454 427.7958,295.1044 423.3698,295.1547 418.9438,295.1963 414.5178,295.2293 410.0916,295.2535 405.6655,295.269 401.2393,295.2757 396.8132,295.2738 392.387,295.2632 387.9609,295.2439 383.5348,295.2158 379.1087,295.1791 374.6828,295.1336 370.2569,295.0795 365.8311,295.0166 361.4054,294.9451 356.9799,294.8648 352.5545,294.7758 348.1293,294.6781 343.7043,294.5717 339.2794,294.4566 334.8548,294.3328 330.4303,294.2003 326.0062,294.0591 321.5822,293.9091 317.1586,293.7505 312.7352,293.5832 308.3121,293.4072 303.8894,293.2224 299.4669,293.029 295.0449,292.8268 290.6231,292.616 286.2018,292.3964 281.7808,292.1682 277.3603,291.9313 272.9401,291.6856 268.5204,291.4313 264.1012,291.1682 259.6824,290.8965 255.2641,290.616 250.8463,290.3269 246.429,290.029 242.0122,289.7225 237.596,289.4073 233.1803,289.0834 228.7652,288.7507 224.3507,288.4094 219.9368,288.0594 215.5235,287.7007 211.1108,287.3333 206.6988,286.9573 202.2875,286.5725 197.8768,286.179 193.4668,285.7769 189.0575,285.3661 184.649,284.9465 180.2412,284.5183 175.8341,284.0814 171.4278,283.6359 167.0223,283.1816 162.6176,282.7187 158.2138,282.2471 153.8107,281.7668 149.4085,281.2778 145.0071,280.7801 140.6067,280.2738 136.2071,279.7588 131.8084,279.2351 127.4106,278.7028 123.0138,278.1617 118.6179,277.612 114.223,277.0537 109.8291,276.4866 105.4362,275.9109 101.0443,275.3265 97.1802,274.8051" stroke="silver" stroke-opacity="0.5" stroke-width="1" /><polyline fill="none" points="691.5064,191.6897 690.154,191.8737 685.927,192.4433 681.699,193.0046 677.4701,193.5574 673.2402,194.1019 669.0093,194.638 664.7776,195.1658 660.5448,195.6851 656.3112,196.1961 652.0767,196.6986 647.8413,197.1928 643.605,197.6786 639.3679,198.1561 635.13,198.6251 630.8912,199.0857 626.6517,199.538 622.4113,199.9818 618.1702,200.4173 613.9283,200.8443 609.6857,201.263 605.4423,201.6733 601.1982,202.0752 596.9535,202.4687 592.708,202.8537 588.4619,203.2304 584.2151,203.5987 579.9677,203.9586 575.7196,204.3101 571.4709,204.6532 567.2217,204.9878 562.9718,205.3141 558.7214,205.632 554.4705,205.9414 550.219,206.2425 545.9669,206.5352 541.7144,206.8194 537.4614,207.0952 533.2079,207.3627 528.9539,207.6217 524.6995,207.8723 520.4447,208.1145 516.1894,208.3483 511.9337,208.5737 507.6777,208.7906 503.4212,208.9992 499.1644,209.1993 494.9073,209.391 490.6498,209.5744 486.3921,209.7493 482.134,209.9157 477.8756,210.0738 473.617,210.2235 469.3581,210.3647 465.099,210.4975 460.8396,210.6219 456.58,210.7379 452.3202,210.8455 448.0603,210.9447 443.8002,211.0354 439.5399,211.1177 435.2795,211.1917 431.019,211.2571 426.7583,211.3142 422.4976,211.3629 418.2368,211.4031 413.9759,211.4349 409.715,211.4583 405.454,211.4733 401.1931,211.4799 396.9321,211.478 392.6711,211.4678 388.4102,211.4491 384.1493,211.422 379.8884,211.3864 375.6277,211.3425 371.367,211.2901 367.1064,211.2294 362.8459,211.1602 358.5856,211.0826 354.3253,210.9965 350.0653,210.9021 345.8054,210.7992 341.5457,210.6879 337.2863,210.5682 333.027,210.4401 328.768,210.3036 324.5092,210.1587 320.2507,210.0053 315.9924,209.8435 311.7345,209.6733 307.4768,209.4947 303.2195,209.3077 298.9625,209.1123 294.7059,208.9084 290.4496,208.6962 286.1937,208.4755 281.9382,208.2464 277.6832,208.009 273.4285,207.7631 269.1743,207.5087 264.9205,207.246 260.6672,206.9749 256.4144,206.6954 252.1621,206.4074 247.9103,206.1111 243.659,205.8063 239.4083,205.4932 235.1582,205.1716 230.9086,204.8416 226.6596,204.5032 222.4112,204.1565 218.1634,203.8013 213.9162,203.4377 209.6697,203.0657 205.4239,202.6853 201.1787,202.2966 196.9343,201.8994 192.6905,201.4938 188.4475,201.0798 184.2052,200.6575 179.9636,200.2267 175.7228,199.7876 171.4828,199.34 167.2436,198.8841 163.0052,198.4197 158.7676,197.947 154.5309,197.4659 150.295,196.9764 146.06,196.4785 141.8259,195.9723 137.5927,195.4576 133.3603,194.9346 129.129,194.4032 124.8985,193.8634 120.669,193.3152 116.4405,192.7587 112.213,192.1937 108.4936,191.6897" stroke="silver" stroke-opacity="0.5" stroke-width="1" /><polyline fill="none" points="680.1416,108.5555 678.8421,108.7331 674.7802,109.2829 670.7174,109.8245 666.6536,110.3581 662.5889,110.8835 658.5232,111.4009 654.4566,111.9102 650.3892,112.4114 646.3208,112.9046 642.2516,113.3896 638.1815,113.8665 634.1106,114.3354 630.0388,114.7961 625.9663,115.2488 621.8929,115.6934 617.8188,116.1298 613.7439,116.5582 609.6682,116.9784 605.5918,117.3906 601.5147,117.7947 597.4368,118.1906 593.3583,118.5785 589.279,118.9583 585.1992,119.3299 581.1186,119.6935 577.0374,120.0489 572.9556,120.3962 568.8732,120.7355 564.7902,121.0666 560.7066,121.3896 556.6224,121.7045 552.5377,122.0113 548.4524,122.3099 544.3667,122.6005 540.2804,122.8829 536.1936,123.1573 532.1063,123.4235 528.0186,123.6816 523.9304,123.9316 519.8418,124.1734 515.7528,124.4072 511.6633,124.6328 507.5735,124.8504 503.4832,125.0598 499.3926,125.261 495.3017,125.4542 491.2104,125.6393 487.1188,125.8162 483.0269,125.985 478.9347,126.1457 474.8423,126.2982 470.7495,126.4427 466.6565,126.579 462.5633,126.7072 458.4699,126.8273 454.3762,126.9392 450.2824,127.043 446.1884,127.1387 442.0942,127.2263 437.9999,127.3058 433.9054,127.3771 429.8108,127.4403 425.7161,127.4954 421.6214,127.5424 417.5265,127.5812 413.4316,127.6119 409.3366,127.6345 405.2416,127.649 401.1466,127.6553 397.0516,127.6535 392.9566,127.6436 388.8616,127.6256 384.7666,127.5994 380.6718,127.5651 376.5769,127.5227 372.4822,127.4722 368.3876,127.4135 364.293,127.3467 360.1986,127.2718 356.1044,127.1888 352.0102,127.0976 347.9163,126.9983 343.8225,126.8909 339.729,126.7754 335.6356,126.6518 331.5425,126.52 327.4496,126.3801 323.357,126.2321 319.2647,126.076 315.1726,125.9117 311.0808,125.7393 306.9894,125.5588 302.8982,125.3702 298.8074,125.1735 294.717,124.9686 290.627,124.7557 286.5373,124.5346 282.448,124.3054 278.3592,124.068 274.2707,123.8226 270.1828,123.569 266.0952,123.3073 262.0082,123.0376 257.9216,122.7597 253.8355,122.4736 249.75,122.1795 245.665,121.8773 241.5805,121.5669 237.4966,121.2484 233.4132,120.9219 229.3305,120.5872 225.2483,120.2444 221.1668,119.8935 217.0859,119.5345 213.0056,119.1674 208.926,118.7922 204.8471,118.4088 200.7689,118.0174 196.6913,117.6179 192.6145,117.2103 188.5384,116.7945 184.4631,116.3707 180.3885,115.9388 176.3147,115.4987 172.2417,115.0506 168.1695,114.5944 164.0981,114.1301 160.0276,113.6577 155.9578,113.1772 151.889,112.6886 147.821,112.1919 143.754,111.6871 139.6878,111.1743 135.6225,110.6533 131.5582,110.1243 127.4949,109.5872 123.4325,109.042 119.8584,108.5555" stroke="silver" stroke-opacity="0.5" stroke-width="1" /><circle cx="739.8804" cy="605.1343" fill="black" r="0.738" stroke="none" /><circle cx="679.1963" cy="147.2127" fill="black" r="0.738" stroke="none" /><circle cx="678.3355" cy="147.0737" fill="black" r="0.738" stroke="none" /><circle cx="696.9229" cy="297.3403" fill="black" r="0.738" stroke="none" /><circle cx="675.2595" cy="140.8802" fill="black" r="0.738" stroke="none" /><circle cx="721.4027" cy="495.8617" fill="black" r="0.738" stroke="none" /><circle cx="719.7668" cy="483.5562" fill="black" r="0.738" stroke="none" /><circle cx="729.3932" cy="569.4339" fill="black" r="0.936" stroke="none" /><circle cx="728.3607" cy="672.3265" fill="black" r="0.738" stroke="none" /><circle cx="705.1093" cy="508.1454" fill="black" r="0.738" stroke="none" /><circle cx="693.2411" cy="420.1261" fill="black" r="0.738" stroke="none" /><circle cx="668.2677" cy="227.3556" fill="black" r="0.738" stroke="none" /><circle cx="675.5382" cy="297.8572" fill="black" r="0.936" stroke="none" /><circle cx="668.9759" cy="299.5783" fill="black" r="0.738" stroke="none" /><circle cx="675.1543" cy="396.6999" fill="black" r="0.936" stroke="none" /><circle cx="688.5392" cy="537.2173" fill="black" r="0.738" stroke="none" /><circle cx="668.1462" cy="464.2355" fill="black" r="0.936" stroke="none" /><circle cx="678.5039" cy="585.422" fill="black" r="0.738" stroke="none" /><circle cx="630.7362" cy="193.1981" fill="black" r="0.738" stroke="none" /><circle cx="679.5329" cy="651.8773" fill="black" r="0.738" stroke="none" /><circle cx="624.3662" cy="220.5178" fill="black" r="0.936" stroke="none" /><circle cx="619.7616" cy="271.2083" fill="black" r="0.738" stroke="none" /><circle cx="601.8498" cy="127.9602" fill="black" r="0.738" stroke="none" /><circle cx="636.366" cy="562.8475" fill="black" r="0.738" stroke="none" /><circle cx="641.0934" cy="699.7855" fill="black" r="0.738" stroke="none" /><circle cx="596.3328" cy="303.0168" fill="black" r="0.738" stroke="none" /><circle cx="616.4205" cy="548.5449" fill="black" r="0.738" stroke="none" /><circle cx="597.525" cy="343.6319" fill="black" r="0.738" stroke="none" /><circle cx="597.6285" cy="431.0943" fill="black" r="0.738" stroke="none" /><circle cx="591.8204" cy="379.4337" fill="black" r="0.738" stroke="none" /><circle cx="568.6529" cy="141.1168" fill="black" r="0.738" stroke="none" /><circle cx="585.2668" cy="358.0178" fill="black" r="0.738" stroke="none" /><circle cx="565.8863" cy="197.0189" fill="black" r="0.936" stroke="none" /><circle cx="590.1631" cy="675.6669" fill="black" r="0.738" stroke="none" /><circle cx="582.5946" cy="613.7362" fill="black" r="0.738" stroke="none" /><circle cx="533.6325" cy="122.1485" fill="black" r="0.738" stroke="none" /><circle cx="555.6577" cy="515.2107" fill="black" r="0.738" stroke="none" /><circle cx="537.8079" cy="246.8837" fill="black" r="0.936" stroke="none" /><circle cx="532.7379" cy="286.3203" fill="black" r="0.738" stroke="none" /><circle cx="522.2006" cy="132.4352" fill="black" r="0.738" stroke="none" /><circle cx="530.9637" cy="294.1476" fill="black" r="0.738" stroke="none" /><circle cx="537.1384" cy="672.7733" fill="black" r="0.738" stroke="none" /><circle cx="514.5444" cy="313.5023" fill="black" r="0.738" stroke="none" /><circle cx="520.6151" cy="551.2123" fill="black" r="0.738" stroke="none" /><circle cx="500.3444" cy="130.0002" fill="black" r="0.738" stroke="none" /><circle cx="521.2787" cy="594.8141" fill="black" r="0.738" stroke="none" /><circle cx="519.002" cy="655.0914" fill="black" r="0.738" stroke="none" /><circle cx="493.0866" cy="187.237" fill="black" r="0.738" stroke="none" /><circle cx="500.1216" cy="370.0397" fill="black" r="0.738" stroke="none" /><circle cx="499.0518" cy="390.7987" fill="black" r="0.738" stroke="none" /><circle cx="498.1462" cy="422.7858" fill="black" r="0.936" stroke="none" /><circle cx="497.7933" cy="428.8378" fill="black" r="0.738" stroke="none" /><circle cx="488.0485" cy="259.8401" fill="black" r="0.738" stroke="none" /><circle cx="485.1753" cy="493.119" fill="black" r="0.738" stroke="none" /><circle cx="465.8938" cy="132.4757" fill="black" r="0.738" stroke="none" /><circle cx="462.6196" cy="150.4434" fill="black" r="0.738" stroke="none" /><circle cx="464.9757" cy="527.2601" fill="black" r="0.738" stroke="none" /><circle cx="460.5707" cy="519.5752" fill="black" r="0.738" stroke="none" /><circle cx="461.1066" cy="675.5882" fill="black" r="0.936" stroke="none" /><circle cx="447.583" cy="326.8697" fill="black" r="0.738" stroke="none" /><circle cx="447.8202" cy="464.9614" fill="black" r="0.738" stroke="none" /><circle cx="444.2332" cy="288.1369" fill="black" r="0.738" stroke="none" /><circle cx="447.675" cy="590.7616" fill="black" r="0.738" stroke="none" /><circle cx="436.9408" cy="234.8004" fill="black" r="1.17" stroke="none" /><circle cx="433.3165" cy="429.5931" fill="black" r="0.738" stroke="none" /><circle cx="423.2196" cy="297.7538" fill="black" r="0.738" stroke="none" /><circle cx="413.0144" cy="199.0368" fill="black" r="0.738" stroke="none" /><circle cx="412.0794" cy="114.9592" fill="black" r="0.738" stroke="none" /><circle cx="411.8003" cy="200.1334" fill="black" r="0.738" stroke="none" /><circle cx="412.1698" cy="643.309" fill="black" r="0.738" stroke="none" /><circle cx="398.4679" cy="309.3514" fill="black" r="0.738" stroke="none" /><circle cx="392.2857" cy="587.2511" fill="black" r="1.17" stroke="none" /><circle cx="389.0944" cy="530.4233" fill="black" r="0.738" stroke="none" /><circle cx="388.979" cy="530.0038" fill="black" r="0.738" stroke="none" /><circle cx="383.3824" cy="623.4177" fill="black" r="0.738" stroke="none" /><circle cx="382.9555" cy="156.929" fill="black" r="0.738" stroke="none" /><circle cx="372.2663" cy="242.5633" fill="black" r="0.738" stroke="none" /><circle cx="371.5736" cy="253.3652" fill="black" r="0.738" stroke="none" /><circle cx="370.4718" cy="158.5509" fill="black" r="0.738" stroke="none" /><circle cx="358.0016" cy="512.6652" fill="black" r="0.738" stroke="none" /><circle cx="349.4585" cy="648.5552" fill="black" r="0.738" stroke="none" /><circle cx="350.4776" cy="566.2506" fill="black" r="0.738" stroke="none" /><circle cx="348.6457" cy="537.3816" fill="black" r="0.738" stroke="none" /><circle cx="339.5754" cy="301.9244" fill="black" r="0.738" stroke="none" /><circle cx="326.4388" cy="706.2301" fill="black" r="0.738" stroke="none" /><circle cx="338.9721" cy="167.5995" fill="black" r="0.738" stroke="none" /><circle cx="322.4966" cy="591.7994" fill="black" r="0.738" stroke="none" /><circle cx="324.8608" cy="434.5995" fill="black" r="0.738" stroke="none" /><circle cx="324.701" cy="255.4479" fill="black" r="0.738" stroke="none" /><circle cx="318.4032" cy="407.8147" fill="black" r="0.738" stroke="none" /><circle cx="308.9156" cy="646.2125" fill="black" r="0.738" stroke="none" /><circle cx="314.0249" cy="487.3063" fill="black" r="0.738" stroke="none" /><circle cx="303.8397" cy="707.3696" fill="black" r="0.738" stroke="none" /><circle cx="315.5543" cy="360.1797" fill="black" r="0.738" stroke="none" /><circle cx="299.4141" cy="659.2927" fill="black" r="0.738" stroke="none" /><circle cx="292.2479" cy="484.6053" fill="black" r="0.738" stroke="none" /><circle cx="307.4697" cy="99.1379" fill="black" r="0.738" stroke="none" /><circle cx="274.81" cy="581.8718" fill="black" r="0.738" stroke="none" /><circle cx="265.8363" cy="645.1334" fill="black" r="0.738" stroke="none" /><circle cx="261.9242" cy="698.4223" fill="black" r="0.936" stroke="none" /><circle cx="279.268" cy="338.6068" fill="black" r="0.738" stroke="none" /><circle cx="277.6845" cy="293.7953" fill="black" r="0.738" stroke="none" /><circle cx="277.4984" cy="278.4266" fill="black" r="0.738" stroke="none" /><circle cx="255.601" cy="597.069" fill="black" r="0.738" stroke="none" /><circle cx="254.9104" cy="478.2386" fill="black" r="0.738" stroke="none" /><circle cx="243.6606" cy="648.535" fill="black" r="0.738" stroke="none" /><circle cx="273.9351" cy="130.9433" fill="black" r="0.738" stroke="none" /><circle cx="259.15" cy="372.5531" fill="black" r="0.738" stroke="none" /><circle cx="245.9019" cy="467.5296" fill="black" r="0.738" stroke="none" /><circle cx="246.4435" cy="446.32" fill="black" r="0.738" stroke="none" /><circle cx="250.449" cy="266.1931" fill="black" r="0.738" stroke="none" /><circle cx="232.9829" cy="526.4049" fill="black" r="0.738" stroke="none" /><circle cx="232.789" cy="411.5607" fill="black" r="0.738" stroke="none" /><circle cx="240.4566" cy="176.5661" fill="black" r="0.738" stroke="none" /><circle cx="236.0041" cy="203.0502" fill="black" r="0.738" stroke="none" /><circle cx="194.6339" cy="581.9304" fill="black" r="0.936" stroke="none" /><circle cx="181.1263" cy="697.3792" fill="black" r="0.738" stroke="none" /><circle cx="197.0568" cy="501.0485" fill="black" r="0.738" stroke="none" /><circle cx="210.9226" cy="309.6072" fill="black" r="0.738" stroke="none" /><circle cx="179.6108" cy="685.1347" fill="black" r="0.738" stroke="none" /><circle cx="225.606" cy="112.9512" fill="black" r="0.738" stroke="none" /><circle cx="185.4361" cy="581.4322" fill="black" r="0.738" stroke="none" /><circle cx="200.4937" cy="317.9687" fill="black" r="0.738" stroke="none" /><circle cx="211.1726" cy="189.5626" fill="black" r="0.738" stroke="none" /><circle cx="214.117" cy="91.9766" fill="black" r="0.738" stroke="none" /><circle cx="169.7103" cy="542.6083" fill="black" r="0.936" stroke="none" /><circle cx="189.0259" cy="286.4577" fill="black" r="0.738" stroke="none" /><circle cx="205.3611" cy="112.3066" fill="black" r="0.738" stroke="none" /><circle cx="157.2051" cy="607.7292" fill="black" r="0.738" stroke="none" /><circle cx="186.3475" cy="279.467" fill="black" r="0.738" stroke="none" /><circle cx="166.4119" cy="416.6639" fill="black" r="0.738" stroke="none" /><circle cx="164.0124" cy="411.2052" fill="black" r="0.738" stroke="none" /><circle cx="185.9682" cy="184.1473" fill="black" r="0.738" stroke="none" /><circle cx="137.3904" cy="554.3792" fill="black" r="0.738" stroke="none" /><circle cx="143.845" cy="452.4562" fill="black" r="0.936" stroke="none" /><circle cx="172.4719" cy="174.4803" fill="black" r="0.738" stroke="none" /><circle cx="124.2436" cy="476.7195" fill="black" r="0.738" stroke="none" /><circle cx="165.8113" cy="94.986" fill="black" r="0.738" stroke="none" /><circle cx="112.7888" cy="441.2096" fill="black" r="0.738" stroke="none" /><circle cx="91.5916" cy="519.9087" fill="black" r="0.738" stroke="none" /><circle cx="118.9494" cy="298.4443" fill="black" r="0.738" stroke="none" /><circle cx="139.5941" cy="112.4312" fill="black" r="0.738" stroke="none" /><circle cx="62.1826" cy="679.4419" fill="black" r="0.738" stroke="none" /><circle cx="60.3686" cy="664.5738" fill="black" r="0.738" stroke="none" /><circle cx="62.8573" cy="614.7139" fill="black" r="0.738" stroke="none" /><circle cx="119.7648" cy="169.5042" fill="black" r="0.738" stroke="none" /><circle cx="93.0879" cy="330.1081" fill="black" r="0.738" stroke="none" /><circle cx="61.7702" cy="564.1346" fill="black" r="0.738" stroke="none" /><circle cx="77.8955" cy="436.3815" fill="black" r="0.738" stroke="none" /><circle cx="68.6915" cy="505.389" fill="black" r="0.738" stroke="none" /><circle cx="125.796" cy="163.6969" fill="black" r="0.738" stroke="none" /><circle cx="13.77" cy="786.23" fill="black" r="4.59" stroke="none" /><circle cx="13.77" cy="786.23" fill="black" r="4.59" stroke="none" /><text fill="black" font-family="monospace" font-size="12" x="10.77" y="775.64">1</text><circle cx="37.77" cy="786.23" fill="black" r="3.654" stroke="none" /><circle cx="37.77" cy="786.23" fill="black" r="3.654" stroke="none" /><text fill="black" font-family="monospace" font-size="12" x="34.769999999999996" y="775.64">2</text><circle cx="61.77" cy="786.23" fill="black" r="2.916" stroke="none" /><circle cx="61.77" cy="786.23" fill="black" r="2.916" stroke="none" /><text fill="black" font-family="monospace" font-size="12" x="58.769999999999996" y="775.64">3</text><circle cx="85.77" cy="786.23" fill="black" r="2.322" stroke="none" /><circle cx="85.77" cy="786.23" fill="black" r="2.322" stroke="none" /><text fill="black" font-family="monospace" font-size="12" x="82.77" y="775.64">4</text><circle cx="109.77" cy="786.23" fill="black" r="1.854" stroke="none" /><circle cx="109.77" cy="786.23" fill="black" r="1.854" stroke="none" /><text fill="black" font-family="monospace" font-size="12" x="106.77" y="775.64">5</text><circle cx="133.77" cy="786.23" fill="black" r="1.476" stroke="none" /><circle cx="133.77" cy="786.23" fill="black" r="1.476" stroke="none" /><text fill="black" font-family="monospace" font-size="12" x="130.77" y="775.64">6</text><circle cx="157.77" cy="786.23" fill="black" r="1.17" stroke="none" /><circle cx="157.77" cy="786.23" fill="black" r="1.17" stroke="none" /><text fill="black" font-family="monospace" font-size="12" x="154.77" y="775.64">7</text><circle cx="181.77" cy="786.23" fill="black" r="0.936" stroke="none" /><circle cx="181.77" cy="786.23" fill="black" r="0.936" stroke="none" /><text fill="black" font-family="monospace" font-size="12" x="178.77" y="775.64">8</text><circle cx="205.77" cy="786.23" fill="black" r="0.738" stroke="none" /><circle cx="205.77" cy="786.23" fill="black" r="0.738" stroke="none" /><text fill="black" font-family="monospace" font-size="12" x="202.77" y="775.64">9</text><text fill="gray" fill-opacity="0.5" font-family="monospace" font-size="12" x="736.1920321771705" y="693.4363573558894">05h45m</text><text fill="gray" fill-opacity="0.5" font-family="monospace" font-size="12" x="579.5701264319908" y="708.3436103324416">06h00m</text><text fill="gray" fill-opacity="0.5" font-family="monospace" font-size="12" x="422.4338263554015" y="714.1790390915246">06h15m</text><text fill="gray" fill-opacity="0.5" font-family="monospace" font-size="12" x="265.23332774073776" y="710.9342215862737">06h30m</text><text fill="gray" fill-opacity="0.5" font-family="monospace" font-size="12" x="108.41870635638878" y="698.6138371670911">06h45m</text><text fill="gray" fill-opacity="0.5" font-family="monospace" font-size="12" x="41.323321821368665" y="690.5435907495742">+60°</text><text fill="gray" fill-opacity="0.5" font-family="monospace" font-size="12" x="52.40563806037045" y="607.332304878684">+61°</text><text fill="gray" fill-opacity="0.5" font-family="monospace" font-size="12" x="63.53083841686441" y="524.1654586401401">+62°</text><text fill="gray" fill-opacity="0.5" font-family="monospace" font-size="12" x="74.70055953397713" y="441.0304001116475">+63°</text><text fill="gray" fill-opacity="0.5" font-family="monospace" font-size="12" x="85.91646518450364" y="357.914496670505">+64°</text><text fill="gray" fill-opacity="0.5" font-family="monospace" font-size="12" x="97.18024725045956" y="274.8051273237289">+65°</text><text fill="gray" fill-opacity="0.5" font-family="monospace" font-size="12" x="108.4936267389773" y="191.6896750531637">+66°</text><text fill="gray" fill-opacity="0.5" font-family="monospace" font-size="12" x="119.85835483583946" y="108.55551916573245">+67°</text><text fill="black" font-family="monospace" font-size="12" x="12" y="48">&gt;&gt; No.732 05h43m 06h51m +60.0°+67.5°</text><a target="_self" xlink:href="hip040.svg"><text fill="black" font-family="monospace" font-size="12" x="12" y="36">&gt; No.40 00h00m 08h00m +52.5°+90.0°</text></a><a target="_self" xlink:href="hip002.svg"><text fill="black" font-family="monospace" font-size="12" x="12" y="24">No.2 00h 24h +0.0°+90.0°</text></a><polyline fill="none" points="674.4395,66.9775 673.1664,67.1519 669.1874,67.6915 665.2074,68.2233 661.2264,68.7471 657.2446,69.2629 653.2618,69.7708 649.2781,70.2708 645.2936,70.7629 641.3081,71.247 637.3218,71.7231 633.3347,72.1914 629.3467,72.6516 625.3579,73.104 621.3683,73.5484 617.378,73.9848 613.3868,74.4133 609.3949,74.8338 605.4023,75.2464 601.4089,75.651 597.4148,76.0477 593.42,76.4364 589.4245,76.8172 585.4283,77.19 581.4315,77.5549 577.434,77.9118 573.4359,78.2607 569.4372,78.6017 565.4379,78.9348 561.438,79.2598 557.4375,79.5769 553.4365,79.8861 549.4349,80.1872 545.4328,80.4805 541.4302,80.7657 537.427,81.043 533.4234,81.3123 529.4193,81.5737 525.4148,81.8271 521.4098,82.0725 517.4043,82.31 513.3985,82.5394 509.3922,82.761 505.3856,82.9745 501.3786,83.1801 497.3712,83.3777 493.3635,83.5673 489.3555,83.749 485.3471,83.9227 481.3384,84.0884 477.3295,84.2462 473.3202,84.3959 469.3107,84.5377 465.301,84.6716 461.291,84.7974 457.2808,84.9153 453.2704,85.0252 449.2598,85.1271 445.2491,85.2211 441.2382,85.3071 437.2271,85.3851 433.2159,85.4551 429.2046,85.5172 425.1932,85.5713 421.1817,85.6174 417.1701,85.6555 413.1584,85.6856 409.1468,85.7078 405.135,85.722 401.1233,85.7282 397.1115,85.7265 393.0998,85.7167 389.0881,85.699 385.0764,85.6733 381.0648,85.6397 377.0533,85.5981 373.0418,85.5484 369.0304,85.4909 365.0191,85.4253 361.008,85.3517 356.997,85.2702 352.9862,85.1807 348.9755,85.0833 344.965,84.9778 340.9547,84.8644 336.9446,84.743 332.9347,84.6137 328.9251,84.4763 324.9157,84.331 320.9066,84.1777 316.8977,84.0165 312.8892,83.8472 308.881,83.67 304.8731,83.4849 300.8655,83.2917 296.8583,83.0906 292.8514,82.8815 288.845,82.6645 284.8389,82.4394 280.8332,82.2065 276.828,81.9655 272.8232,81.7166 268.8188,81.4597 264.8149,81.1948 260.8115,80.922 256.8086,80.6412 252.8062,80.3524 248.8043,80.0557 244.803,79.751 240.8022,79.4384 236.802,79.1178 232.8023,78.7892 228.8033,78.4527 224.8048,78.1082 220.807,77.7557 216.8098,77.3953 212.8133,77.027 208.8174,76.6507 204.8222,76.2664 200.8277,75.8742 196.8339,75.474 192.8409,75.0658 188.8486,74.6498 184.857,74.2257 180.8662,73.7937 176.8761,73.3538 172.8869,72.9059 168.8985,72.4501 164.9109,71.9863 160.9241,71.5146 156.9382,71.035 152.9531,70.5474 148.9689,70.0518 144.9857,69.5483 141.0033,69.0369 137.0218,68.5176 133.0413,67.9903 129.0618,67.455 125.5605,66.9775" stroke="black" stroke-opacity="0.5" stroke-width="1" /><polyline fill="none" points="758.6767,690.5436 757.2937,680.1393 755.91,669.7359 754.5257,659.3333 753.1408,648.9316 751.7552,638.5306 750.3689,628.1305 748.982,617.731 747.5944,607.3323 746.2061,596.9343 744.8171,586.5369 743.4275,576.1402 742.0372,565.7441 740.6462,555.3486 739.2546,544.9537 737.8622,534.5593 736.4692,524.1655 735.0754,513.7721 733.681,503.3792 732.2858,492.9868 730.89,482.5947 729.4934,472.2031 728.0961,461.8119 726.6981,451.421 725.2994,441.0304 723.9,430.6401 722.4999,420.2501 721.099,409.8604 719.6974,399.4708 718.295,389.0815 716.8919,378.6924 715.4881,368.3034 714.0835,357.9145 712.6782,347.5257 711.2721,337.137 709.8653,326.7484 708.4577,316.3598 707.0494,305.9712 705.6403,295.5825 704.2304,285.1939 702.8198,274.8051 701.4083,264.4163 699.9961,254.0273 698.5831,243.6382 697.1694,233.249 695.7548,222.8595 694.3395,212.4698 692.9233,202.0799 691.5064,191.6897 690.0886,181.2992 688.6701,170.9084 687.2507,160.5172 685.8305,150.1257 684.4095,139.7338 682.9877,129.3415 681.5651,118.9487 680.1416,108.5555 678.7174,98.1618 677.2922,87.7676 675.8663,77.3728 674.4395,66.9775" stroke="black" stroke-opacity="0.5" stroke-width="1" /><polyline fill="none" points="758.6767,690.5436 757.0119,690.7643 751.8086,691.4474 746.6042,692.1204 741.3986,692.7834 736.192,693.4364 730.9844,694.0792 725.7756,694.712 720.5658,695.3348 715.355,695.9475 710.1432,696.5501 704.9304,697.1427 699.7167,697.7252 694.5019,698.2977 689.2863,698.86 684.0697,699.4124 678.8522,699.9546 673.6338,700.4868 668.4146,701.0089 663.1945,701.5209 657.9735,702.0229 652.7518,702.5148 647.5292,702.9967 642.3059,703.4684 637.0817,703.9301 631.8568,704.3817 626.6312,704.8232 621.4049,705.2547 616.1778,705.6761 610.9501,706.0874 605.7217,706.4886 600.4926,706.8798 595.2629,707.2609 590.0326,707.6319 584.8016,707.9928 579.5701,708.3436 574.338,708.6844 569.1054,709.015 563.8722,709.3356 558.6385,709.6461 553.4043,709.9466 548.1696,710.2369 542.9344,710.5172 537.6988,710.7873 532.4628,711.0474 527.2263,711.2974 521.9894,711.5373 516.7521,711.7672 511.5145,711.9869 506.2765,712.1966 501.0381,712.3961 495.7995,712.5856 490.5605,712.765 485.3212,712.9343 480.0817,713.0935 474.8419,713.2427 469.6019,713.3817 464.3617,713.5107 459.1213,713.6295 453.8806,713.7383 448.6398,713.837 443.3989,713.9256 438.1578,714.0041 432.9166,714.0725 427.6752,714.1308 422.4338,714.179 417.1923,714.2172 411.9508,714.2452 406.7092,714.2632 401.4676,714.2711 396.226,714.2688 390.9845,714.2565 385.7429,714.2341 380.5014,714.2016 375.2599,714.1591 370.0186,714.1064 364.7773,714.0436 359.5361,713.9708 354.2951,713.8878 349.0542,713.7948 343.8135,713.6917 338.5729,713.5785 333.3326,713.4552 328.0924,713.3218 322.8525,713.1783 317.6129,713.0247 312.3734,712.8611 307.1343,712.6873 301.8955,712.5035 296.657,712.3096 291.4188,712.1056 286.1809,711.8915 280.9434,711.6673 275.7063,711.433 270.4696,711.1887 265.2333,710.9342 259.9975,710.6697 254.762,710.3951 249.5271,710.1104 244.2926,709.8156 239.0586,709.5108 233.8251,709.1958 228.5922,708.8708 223.3598,708.5357 218.1279,708.1905 212.8967,707.8352 207.666,707.4699 202.436,707.0944 197.2065,706.7089 191.9778,706.3133 186.7496,705.9077 181.5222,705.4919 176.2955,705.0661 171.0694,704.6302 165.8441,704.1842 160.6196,703.7282 155.3958,703.2621 150.1728,702.7859 144.9505,702.2996 139.7291,701.8033 134.5086,701.2969 129.2888,700.7804 124.07,700.2539 118.852,699.7173 113.6349,699.1706 108.4187,698.6138 103.2035,698.047 97.9892,697.4702 92.7758,696.8832 87.5635,696.2862 82.3521,695.6792 77.1417,695.062 71.9324,694.4348 66.7241,693.7976 61.5169,693.1503 56.3108,692.493 51.1058,691.8255 45.9018,691.1481 41.3233,690.5436" stroke="black" stroke-opacity="0.5" stroke-width="1" /><polyline fill="none" points="41.3233,690.5436 42.7063,680.1393 44.09,669.7359 45.4743,659.3333 46.8592,648.9316 48.2448,638.5306 49.6311,628.1305 51.018,617.731 52.4056,607.3323 53.7939,596.9343 55.1829,586.5369 56.5725,576.1402 57.9628,565.7441 59.3538,555.3486 60.7454,544.9537 62.1378,534.5593 63.5308,524.1655 64.9246,513.7721 66.319,503.3792 67.7142,492.9868 69.11,482.5947 70.5066,472.2031 71.9039,461.8119 73.3019,451.421 74.7006,441.0304 76.1,430.6401 77.5001,420.2501 78.901,409.8604 80.3026,399.4708 81.705,389.0815 83.1081,378.6924 84.5119,368.3034 85.9165,357.9145 87.3218,347.5257 88.7279,337.137 90.1347,326.7484 91.5423,316.3598 92.9506,305.9712 94.3597,295.5825 95.7696,285.1939 97.1802,274.8051 98.5917,264.4163 100.0039,254.0273 101.4169,243.6382 102.8306,233.249 104.2452,222.8595 105.6605,212.4698 107.0767,202.0799 108.4936,191.6897 109.9114,181.2992 111.3299,170.9084 112.7493,160.5172 114.1695,150.1257 115.5905,139.7338 117.0123,129.3415 118.4349,118.9487 119.8584,108.5555 121.2826,98.1618 122.7078,87.7676 124.1337,77.3728 125.5605,66.9775" stroke="black" stroke-opacity="0.5" stroke-width="1" /></svg>