<?xml version="1.0" encoding="utf-8" ?>
<svg baseProfile="tiny" height="800" version="1.2" width="800" xmlns="http://www.w3.org/2000/svg" xmlns:ev="http://www.w3.org/2001/xml-events" xmlns:xlink="http://www.w3.org/1999/xlink"><defs /><rect fill="none" height="800" stroke="black" stroke-width="2" width="800" x="0" y="0" /><polyline fill="none" points="692.9774,664.08 691.4117,654.5901 689.8455,645.1009 688.2789,635.6126 686.7117,626.1249 685.1441,616.6381 683.576,607.1519 682.0075,597.6664 680.4384,588.1816 678.8689,578.6974 677.2989,569.2138 675.7283,559.7309 674.1573,550.2485 672.5858,540.7666 671.0138,531.2853 669.4412,521.8045 667.8682,512.3241 666.2946,502.8443 664.7205,493.3648 663.1459,483.8858 661.5707,474.4072 659.9951,464.9289 658.4188,455.451 656.8421,445.9734 655.2648,436.4961 653.6869,427.0191 652.1085,417.5423 650.5296,408.0658 648.9501,398.5895 647.37,389.1134 645.7894,379.6374 644.2082,370.1616 642.6264,360.6859 641.044,351.2103 639.4611,341.7348 637.8776,332.2594 636.2935,322.7839 634.7088,313.3085 633.1235,303.8331 631.5376,294.3576 629.9511,284.8821 628.364,275.4065 626.7762,265.9308 625.1879,256.4549 623.5989,246.979 622.0094,237.5028 620.4192,228.0265 618.8283,218.5499 617.2369,209.0731 615.6448,199.596 614.052,190.1187 612.4586,180.641 610.8646,171.1631 609.2699,161.6847 607.6746,152.206 606.0786,142.7269 604.4819,133.2474 602.8845,123.7674 601.2865,114.287 599.6878,104.8061 598.0884,95.3247" stroke="silver" stroke-opacity="0.5" stroke-width="1" /><polyline fill="none" points="546.9452,682.0744 546.1604,672.495 545.3754,662.9163 544.5902,653.3382 543.8047,643.7608 543.019,634.1841 542.233,624.6079 541.4468,615.0323 540.6603,605.4573 539.8736,595.8829 539.0867,586.3089 538.2995,576.7354 537.512,567.1624 536.7242,557.5899 535.9363,548.0177 535.148,538.446 534.3595,528.8747 533.5707,519.3037 532.7817,509.733 531.9923,500.1626 531.2027,490.5926 530.4129,481.0228 529.6227,471.4532 528.8323,461.8839 528.0416,452.3147 527.2507,442.7457 526.4594,433.1769 525.6679,423.6082 524.876,414.0396 524.0839,404.4711 523.2915,394.9027 522.4988,385.3342 521.7059,375.7658 520.9126,366.1974 520.119,356.629 519.3251,347.0605 518.5309,337.4919 517.7365,327.9232 516.9417,318.3544 516.1466,308.7855 515.3512,299.2164 514.5555,289.6471 513.7594,280.0775 512.9631,270.5078 512.1665,260.9378 511.3695,251.3675 510.5722,241.7969 509.7746,232.2259 508.9766,222.6546 508.1784,213.083 507.3798,203.5109 506.5809,193.9385 505.7816,184.3656 504.982,174.7922 504.1821,165.2183 503.3818,155.6439 502.5812,146.069 501.7803,136.4936 500.979,126.9175 500.1774,117.3409 499.3754,107.7636" stroke="silver" stroke-opacity="0.5" stroke-width="1" /><polyline fill="none" points="400.0,688.0822 400.0,678.4729 400.0,668.8643 400.0,659.2564 400.0,649.649 400.0,640.0423 400.0,630.4361 400.0,620.8305 400.0,611.2254 400.0,601.6208 400.0,592.0167 400.0,582.413 400.0,572.8098 400.0,563.207 400.0,553.6046 400.0,544.0025 400.0,534.4008 400.0,524.7994 400.0,515.1983 400.0,505.5975 400.0,495.9969 400.0,486.3966 400.0,476.7964 400.0,467.1965 400.0,457.5967 400.0,447.997 400.0,438.3975 400.0,428.798 400.0,419.1987 400.0,409.5993 400.0,400.0 400.0,390.4007 400.0,380.8013 400.0,371.202 400.0,361.6025 400.0,352.003 400.0,342.4033 400.0,332.8035 400.0,323.2036 400.0,313.6034 400.0,304.0031 400.0,294.4025 400.0,284.8017 400.0,275.2006 400.0,265.5992 400.0,255.9975 400.0,246.3954 400.0,236.793 400.0,227.1902 400.0,217.587 400.0,207.9833 400.0,198.3792 400.0,188.7746 400.0,179.1695 400.0,169.5639 400.0,159.9577 400.0,150.351 400.0,140.7436 400.0,131.1357 400.0,121.5271 400.0,111.9178" stroke="silver" stroke-opacity="0.5" stroke-width="1" /><polyline fill="none" points="253.0548,682.0744 253.8396,672.495 254.6246,662.9163 255.4098,653.3382 256.1953,643.7608 256.981,634.1841 257.767,624.6079 258.5532,615.0323 259.3397,605.4573 260.1264,595.8829 260.9133,586.3089 261.7005,576.7354 262.488,567.1624 263.2758,557.5899 264.0637,548.0177 264.852,538.446 265.6405,528.8747 266.4293,519.3037 267.2183,509.733 268.0077,500.1626 268.7973,490.5926 269.5871,481.0228 270.3773,471.4532 271.1677,461.8839 271.9584,452.3147 272.7493,442.7457 273.5406,433.1769 274.3321,423.6082 275.124,414.0396 275.9161,404.4711 276.7085,394.9027 277.5012,385.3342 278.2941,375.7658 279.0874,366.1974 279.881,356.629 280.6749,347.0605 281.4691,337.4919 282.2635,327.9232 283.0583,318.3544 283.8534,308.7855 284.6488,299.2164 285.4445,289.6471 286.2406,280.0775 287.0369,270.5078 287.8335,260.9378 288.6305,251.3675 289.4278,241.7969 290.2254,232.2259 291.0234,222.6546 291.8216,213.083 292.6202,203.5109 293.4191,193.9385 294.2184,184.3656 295.018,174.7922 295.8179,165.2183 296.6182,155.6439 297.4188,146.069 298.2197,136.4936 299.021,126.9175 299.8226,117.3409 300.6246,107.7636" stroke="silver" stroke-opacity="0.5" stroke-width="1" /><polyline fill="none" points="107.0226,664.08 108.5883,654.5901 110.1545,645.1009 111.7211,635.6126 113.2883,626.1249 114.8559,616.6381 116.424,607.1519 117.9925,597.6664 119.5616,588.1816 121.1311,578.6974 122.7011,569.2138 124.2717,559.7309 125.8427,550.2485 127.4142,540.7666 128.9862,531.2853 130.5588,521.8045 132.1318,512.3241 133.7054,502.8443 135.2795,493.3648 136.8541,483.8858 138.4293,474.4072 140.0049,464.9289 141.5812,455.451 143.1579,445.9734 144.7352,436.4961 146.3131,427.0191 147.8915,417.5423 149.4704,408.0658 151.0499,398.5895 152.63,389.1134 154.2106,379.6374 155.7918,370.1616 157.3736,360.6859 158.956,351.2103 160.5389,341.7348 162.1224,332.2594 163.7065,322.7839 165.2912,313.3085 166.8765,303.8331 168.4624,294.3576 170.0489,284.8821 171.636,275.4065 173.2238,265.9308 174.8121,256.4549 176.4011,246.979 177.9906,237.5028 179.5808,228.0265 181.1717,218.5499 182.7631,209.0731 184.3552,199.596 185.948,190.1187 187.5414,180.641 189.1354,171.1631 190.7301,161.6847 192.3254,152.206 193.9214,142.7269 195.5181,133.2474 197.1155,123.7674 198.7135,114.287 200.3122,104.8061 201.9116,95.3247" stroke="silver" stroke-opacity="0.5" stroke-width="1" /><polyline fill="none" points="743.4224,615.7986 739.8875,616.4985 736.3512,617.1912 732.8136,617.8766 729.2748,618.5547 725.7346,619.2256 722.1932,619.8892 718.6505,620.5456 715.1065,621.1946 711.5613,621.8364 708.0149,622.4709 704.4673,623.0981 700.9185,623.7181 697.3686,624.3307 693.8174,624.9361 690.2651,625.5342 686.7117,626.1249 683.1572,626.7084 679.6015,627.2847 676.0448,627.8536 672.487,628.4152 668.9281,628.9695 665.3681,629.5165 661.8072,630.0562 658.2452,630.5886 654.6822,631.1137 651.1182,631.6315 647.5532,632.142 643.9872,632.6452 640.4203,633.1411 636.8525,633.6296 633.2837,634.1109 629.714,634.5848 626.1435,635.0514 622.572,635.5107 618.9997,635.9627 615.4265,636.4073 611.8524,636.8446 608.2776,637.2746 604.7019,637.6973 601.1255,638.1127 597.5482,638.5207 593.9702,638.9214 590.3914,639.3147 586.8119,639.7008 583.2316,640.0795 579.6507,640.4508 576.069,640.8149 572.4866,641.1715 568.9036,641.5209 565.3199,641.8629 561.7356,642.1976 558.1506,642.5249 554.565,642.8449 550.9788,643.1576 547.3921,643.4629 543.8047,643.7608 540.2168,644.0515 536.6283,644.3347 533.0393,644.6106 529.4498,644.8792 525.8598,645.1405 522.2693,645.3943 518.6783,645.6409 515.0869,645.88 511.495,646.1119 507.9026,646.3363 504.3099,646.5535 500.7167,646.7632 497.1232,646.9656 493.5292,647.1607 489.9349,647.3484 486.3403,647.5287 482.7453,647.7017 479.15,647.8673 475.5544,648.0256 471.9585,648.1765 468.3623,648.3201 464.7658,648.4563 461.1691,648.5851 457.5722,648.7066 453.975,648.8207 450.3776,648.9275 446.78,649.0269 443.1823,649.1189 439.5843,649.2036 435.9863,649.2809 432.388,649.3508 428.7897,649.4134 425.1912,649.4686 421.5927,649.5165 417.994,649.557 414.3953,649.5901 410.7965,649.6159 407.1977,649.6343 403.5989,649.6453 400.0,649.649 396.4011,649.6453 392.8023,649.6343 389.2035,649.6159 385.6047,649.5901 382.006,649.557 378.4073,649.5165 374.8088,649.4686 371.2103,649.4134 367.612,649.3508 364.0137,649.2809 360.4157,649.2036 356.8177,649.1189 353.22,649.0269 349.6224,648.9275 346.025,648.8207 342.4278,648.7066 338.8309,648.5851 335.2342,648.4563 331.6377,648.3201 328.0415,648.1765 324.4456,648.0256 320.85,647.8673 317.2547,647.7017 313.6597,647.5287 310.0651,647.3484 306.4708,647.1607 302.8768,646.9656 299.2833,646.7632 295.6901,646.5535 292.0974,646.3363 288.505,646.1119 284.9131,645.88 281.3217,645.6409 277.7307,645.3943 274.1402,645.1405 270.5502,644.8792 266.9607,644.6106 263.3717,644.3347 259.7832,644.0515 256.1953,643.7608 252.6079,643.4629 249.0212,643.1576 245.435,642.8449 241.8494,642.5249 238.2644,642.1976 234.6801,641.8629 231.0964,641.5209 227.5134,641.1715 223.931,640.8149 220.3493,640.4508 216.7684,640.0795 213.1881,639.7008 209.6086,639.3147 206.0298,638.9214 202.4518,638.5207 198.8745,638.1127 195.2981,637.6973 191.7224,637.2746 188.1476,636.8446 184.5735,636.4073 181.0003,635.9627 177.428,635.5107 173.8565,635.0514 170.286,634.5848 166.7163,634.1109 163.1475,633.6296 159.5797,633.1411 156.0128,632.6452 152.4468,632.142 148.8818,631.6315 145.3178,631.1137 141.7548,630.5886 138.1928,630.0562 134.6319,629.5165 131.0719,628.9695 127.513,628.4152 123.9552,627.8536 120.3985,627.2847 116.8428,626.7084 113.2883,626.1249 109.7349,625.5342 106.1826,624.9361 102.6314,624.3307 99.0815,623.7181 95.5327,623.0981 91.9851,622.4709 88.4387,621.8364 84.8935,621.1946 81.3495,620.5456 77.8068,619.8892 74.2654,619.2256 70.7252,618.5547 67.1864,617.8766 63.6488,617.1912 60.1125,616.4985 56.5776,615.7986" stroke="silver" stroke-opacity="0.5" stroke-width="1" /><polyline fill="none" points="728.379,540.3453 724.9993,541.0165 721.6183,541.6808 718.2361,542.3381 714.8526,542.9885 711.4678,543.6318 708.0818,544.2682 704.6946,544.8977 701.3062,545.5201 697.9166,546.1356 694.5259,546.7441 691.134,547.3456 687.7409,547.9402 684.3467,548.5277 680.9513,549.1083 677.5549,549.6819 674.1573,550.2485 670.7587,550.8081 667.359,551.3607 663.9582,551.9063 660.5565,552.4449 657.1536,552.9765 653.7498,553.5011 650.345,554.0187 646.9391,554.5293 643.5323,555.0329 640.1246,555.5295 636.7159,556.0191 633.3062,556.5017 629.8957,556.9773 626.4842,557.4458 623.0718,557.9074 619.6586,558.3619 616.2445,558.8094 612.8295,559.2499 609.4137,559.6834 605.9971,560.1098 602.5797,560.5292 599.1614,560.9416 595.7424,561.347 592.3226,561.7454 588.902,562.1367 585.4807,562.521 582.0587,562.8982 578.636,563.2685 575.2125,563.6317 571.7884,563.9878 568.3636,564.337 564.9381,564.6791 561.512,565.0141 558.0852,565.3421 554.6578,565.6631 551.2298,565.9771 547.8012,566.284 544.372,566.5838 540.9423,566.8767 537.512,567.1624 534.0811,567.4412 530.6498,567.7128 527.2179,567.9775 523.7855,568.2351 520.3526,568.4856 516.9193,568.7291 513.4855,568.9655 510.0512,569.1949 506.6165,569.4173 503.1814,569.6326 499.7459,569.8408 496.31,570.042 492.8737,570.2361 489.437,570.4232 486.0,570.6032 482.5627,570.7762 479.125,570.9421 475.687,571.101 472.2487,571.2528 468.8102,571.3975 465.3713,571.5352 461.9322,571.6658 458.4929,571.7894 455.0533,571.9059 451.6136,572.0154 448.1736,572.1177 444.7334,572.2131 441.293,572.3013 437.8525,572.3826 434.4119,572.4567 430.9711,572.5238 427.5301,572.5838 424.0891,572.6368 420.648,572.6827 417.2068,572.7215 413.7655,572.7533 410.3242,572.778 406.8828,572.7957 403.4414,572.8063 400.0,572.8098 396.5586,572.8063 393.1172,572.7957 389.6758,572.778 386.2345,572.7533 382.7932,572.7215 379.352,572.6827 375.9109,572.6368 372.4699,572.5838 369.0289,572.5238 365.5881,572.4567 362.1475,572.3826 358.707,572.3013 355.2666,572.2131 351.8264,572.1177 348.3864,572.0154 344.9467,571.9059 341.5071,571.7894 338.0678,571.6658 334.6287,571.5352 331.1898,571.3975 327.7513,571.2528 324.313,571.101 320.875,570.9421 317.4373,570.7762 314.0,570.6032 310.563,570.4232 307.1263,570.2361 303.69,570.042 300.2541,569.8408 296.8186,569.6326 293.3835,569.4173 289.9488,569.1949 286.5145,568.9655 283.0807,568.7291 279.6474,568.4856 276.2145,568.2351 272.7821,567.9775 269.3502,567.7128 265.9189,567.4412 262.488,567.1624 259.0577,566.8767 255.628,566.5838 252.1988,566.284 248.7702,565.9771 245.3422,565.6631 241.9148,565.3421 238.488,565.0141 235.0619,564.6791 231.6364,564.337 228.2116,563.9878 224.7875,563.6317 221.364,563.2685 217.9413,562.8982 214.5193,562.521 211.098,562.1367 207.6774,561.7454 204.2576,561.347 200.8386,560.9416 197.4203,560.5292 194.0029,560.1098 190.5863,559.6834 187.1705,559.2499 183.7555,558.8094 180.3414,558.3619 176.9282,557.9074 173.5158,557.4458 170.1043,556.9773 166.6938,556.5017 163.2841,556.0191 159.8754,555.5295 156.4677,555.0329 153.0609,554.5293 149.655,554.0187 146.2502,553.5011 142.8464,552.9765 139.4435,552.4449 136.0418,551.9063 132.641,551.3607 129.2413,550.8081 125.8427,550.2485 122.4451,549.6819 119.0487,549.1083 115.6533,548.5277 112.2591,547.9402 108.866,547.3456 105.4741,546.7441 102.0834,546.1356 98.6938,545.5201 95.3054,544.8977 91.9182,544.2682 88.5322,543.6318 85.1474,542.9885 81.7639,542.3381 78.3817,541.6808 75.0007,541.0165 71.621,540.3453" stroke="silver" stroke-opacity="0.5" stroke-width="1" /><polyline fill="none" points="713.2976,464.931 710.0735,465.5733 706.8481,466.2089 703.6215,466.8379 700.3938,467.4602 697.1648,468.0758 693.9346,468.6848 690.7033,469.2871 687.4708,469.8827 684.2372,470.4716 681.0024,471.0539 677.7665,471.6295 674.5295,472.1984 671.2914,472.7606 668.0523,473.3161 664.812,473.865 661.5707,474.4072 658.3284,474.9426 655.085,475.4714 651.8406,475.9935 648.5953,476.5089 645.3489,477.0176 642.1015,477.5196 638.8532,478.0149 635.6039,478.5035 632.3537,478.9855 629.1026,479.4607 625.8505,479.9291 622.5976,480.3909 619.3438,480.846 616.0891,481.2944 612.8335,481.736 609.5771,482.171 606.3198,482.5992 603.0617,483.0207 599.8029,483.4355 596.5432,483.8436 593.2827,484.245 590.0215,484.6396 586.7595,485.0275 583.4968,485.4087 580.2334,485.7832 576.9692,486.151 573.7043,486.512 570.4387,486.8663 567.1725,487.2138 563.9056,487.5547 560.638,487.8888 557.3698,488.2161 554.101,488.5368 550.8315,488.8507 547.5615,489.1578 544.2909,489.4582 541.0197,489.7519 537.7479,490.0389 534.4756,490.3191 531.2027,490.5926 527.9294,490.8593 524.6555,491.1193 521.3811,491.3725 518.1063,491.619 514.8309,491.8588 511.5552,492.0918 508.2789,492.3181 505.0023,492.5376 501.7252,492.7504 498.4477,492.9564 495.1699,493.1557 491.8916,493.3482 488.613,493.534 485.334,493.713 482.0547,493.8853 478.7751,494.0508 475.4951,494.2096 472.2149,494.3616 468.9344,494.5069 465.6536,494.6454 462.3725,494.7772 459.0912,494.9022 455.8096,495.0204 452.5279,495.1319 449.2459,495.2367 445.9637,495.3346 442.6814,495.4259 439.3988,495.5103 436.1161,495.5881 432.8333,495.659 429.5503,495.7232 426.2673,495.7807 422.9841,495.8313 419.7008,495.8753 416.4175,495.9124 413.1341,495.9429 409.8506,495.9665 406.5671,495.9834 403.2835,495.9935 400.0,495.9969 396.7165,495.9935 393.4329,495.9834 390.1494,495.9665 386.8659,495.9429 383.5825,495.9124 380.2992,495.8753 377.0159,495.8313 373.7327,495.7807 370.4497,495.7232 367.1667,495.659 363.8839,495.5881 360.6012,495.5103 357.3186,495.4259 354.0363,495.3346 350.7541,495.2367 347.4721,495.1319 344.1904,495.0204 340.9088,494.9022 337.6275,494.7772 334.3464,494.6454 331.0656,494.5069 327.7851,494.3616 324.5049,494.2096 321.2249,494.0508 317.9453,493.8853 314.666,493.713 311.387,493.534 308.1084,493.3482 304.8301,493.1557 301.5523,492.9564 298.2748,492.7504 294.9977,492.5376 291.7211,492.3181 288.4448,492.0918 285.1691,491.8588 281.8937,491.619 278.6189,491.3725 275.3445,491.1193 272.0706,490.8593 268.7973,490.5926 265.5244,490.3191 262.2521,490.0389 258.9803,489.7519 255.7091,489.4582 252.4385,489.1578 249.1685,488.8507 245.899,488.5368 242.6302,488.2161 239.362,487.8888 236.0944,487.5547 232.8275,487.2138 229.5613,486.8663 226.2957,486.512 223.0308,486.151 219.7666,485.7832 216.5032,485.4087 213.2405,485.0275 209.9785,484.6396 206.7173,484.245 203.4568,483.8436 200.1971,483.4355 196.9383,483.0207 193.6802,482.5992 190.4229,482.171 187.1665,481.736 183.9109,481.2944 180.6562,480.846 177.4024,480.3909 174.1495,479.9291 170.8974,479.4607 167.6463,478.9855 164.3961,478.5035 161.1468,478.0149 157.8985,477.5196 154.6511,477.0176 151.4047,476.5089 148.1594,475.9935 144.915,475.4714 141.6716,474.9426 138.4293,474.4072 135.188,473.865 131.9477,473.3161 128.7086,472.7606 125.4705,472.1984 122.2335,471.6295 118.9976,471.0539 115.7628,470.4716 112.5292,469.8827 109.2967,469.2871 106.0654,468.6848 102.8352,468.0758 99.6062,467.4602 96.3785,466.8379 93.1519,466.2089 89.9265,465.5733 86.7024,464.931" stroke="silver" stroke-opacity="0.5" stroke-width="1" /><polyline fill="none" points="698.1758,389.5443 695.1077,390.1573 692.0384,390.764 688.9679,391.3644 685.8962,391.9584 682.8234,392.546 679.7495,393.1273 676.6744,393.7022 673.5982,394.2707 670.5209,394.8329 667.4425,395.3887 664.3631,395.9381 661.2825,396.4811 658.201,397.0178 655.1184,397.5481 652.0347,398.072 648.9501,398.5895 645.8644,399.1006 642.7778,399.6054 639.6902,400.1037 636.6016,400.5957 633.5121,401.0813 630.4216,401.5605 627.3302,402.0333 624.2379,402.4997 621.1447,402.9597 618.0506,403.4133 614.9556,403.8605 611.8597,404.3013 608.763,404.7357 605.6655,405.1637 602.5671,405.5853 599.468,406.0005 596.368,406.4093 593.2672,406.8116 590.1657,407.2076 587.0634,407.5971 583.9603,407.9803 580.8565,408.357 577.752,408.7273 574.6468,409.0912 571.5408,409.4486 568.4342,409.7997 565.3269,410.1443 562.2189,410.4825 559.1103,410.8143 556.001,411.1396 552.8912,411.4586 549.7807,411.7711 546.6696,412.0771 543.5579,412.3768 540.4456,412.67 537.3328,412.9568 534.2194,413.2371 531.1055,413.5111 527.991,413.7786 524.876,414.0396 521.7606,414.2942 518.6446,414.5424 515.5282,414.7842 512.4113,415.0195 509.294,415.2484 506.1762,415.4708 503.058,415.6868 499.9394,415.8964 496.8203,416.0995 493.7009,416.2961 490.5811,416.4864 487.461,416.6702 484.3405,416.8475 481.2196,417.0184 478.0985,417.1829 474.977,417.3409 471.8552,417.4924 468.7331,417.6376 465.6108,417.7762 462.4882,417.9085 459.3653,418.0343 456.2422,418.1536 453.1189,418.2665 449.9954,418.3729 446.8716,418.4729 443.7477,418.5664 440.6236,418.6535 437.4993,418.7342 434.3749,418.8083 431.2504,418.8761 428.1257,418.9374 425.0009,418.9922 421.876,419.0406 418.751,419.0825 415.626,419.118 412.5008,419.147 409.3757,419.1696 406.2505,419.1857 403.1252,419.1954 400.0,419.1987 396.8748,419.1954 393.7495,419.1857 390.6243,419.1696 387.4992,419.147 384.374,419.118 381.249,419.0825 378.124,419.0406 374.9991,418.9922 371.8743,418.9374 368.7496,418.8761 365.6251,418.8083 362.5007,418.7342 359.3764,418.6535 356.2523,418.5664 353.1284,418.4729 350.0046,418.3729 346.8811,418.2665 343.7578,418.1536 340.6347,418.0343 337.5118,417.9085 334.3892,417.7762 331.2669,417.6376 328.1448,417.4924 325.023,417.3409 321.9015,417.1829 318.7804,417.0184 315.6595,416.8475 312.539,416.6702 309.4189,416.4864 306.2991,416.2961 303.1797,416.0995 300.0606,415.8964 296.942,415.6868 293.8238,415.4708 290.706,415.2484 287.5887,415.0195 284.4718,414.7842 281.3554,414.5424 278.2394,414.2942 275.124,414.0396 272.009,413.7786 268.8945,413.5111 265.7806,413.2371 262.6672,412.9568 259.5544,412.67 256.4421,412.3768 253.3304,412.0771 250.2193,411.7711 247.1088,411.4586 243.999,411.1396 240.8897,410.8143 237.7811,410.4825 234.6731,410.1443 231.5658,409.7997 228.4592,409.4486 225.3532,409.0912 222.248,408.7273 219.1435,408.357 216.0397,407.9803 212.9366,407.5971 209.8343,407.2076 206.7328,406.8116 203.632,406.4093 200.532,406.0005 197.4329,405.5853 194.3345,405.1637 191.237,404.7357 188.1403,404.3013 185.0444,403.8605 181.9494,403.4133 178.8553,402.9597 175.7621,402.4997 172.6698,402.0333 169.5784,401.5605 166.4879,401.0813 163.3984,400.5957 160.3098,400.1037 157.2222,399.6054 154.1356,399.1006 151.0499,398.5895 147.9653,398.072 144.8816,397.5481 141.799,397.0178 138.7175,396.4811 135.6369,395.9381 132.5575,395.3887 129.4791,394.8329 126.4018,394.2707 123.3256,393.7022 120.2505,393.1273 117.1766,392.546 114.1038,391.9584 111.0321,391.3644 107.9616,390.764 104.8923,390.1573 101.8242,389.5443" stroke="silver" stroke-opacity="0.5" stroke-width="1" /><polyline fill="none" points="683.0116,314.1736 680.0998,314.7572 677.1869,315.3347 674.2729,315.9062 671.3577,316.4716 668.4415,317.031 665.5242,317.5843 662.6057,318.1316 659.6863,318.6728 656.7657,319.2079 653.8442,319.737 650.9215,320.26 647.9979,320.7769 645.0733,321.2878 642.1477,321.7926 639.221,322.2913 636.2935,322.7839 633.3649,323.2705 630.4354,323.751 627.505,324.2254 624.5736,324.6937 621.6414,325.156 618.7082,325.6122 615.7742,326.0622 612.8393,326.5062 609.9035,326.9441 606.9668,327.3759 604.0293,327.8017 601.091,328.2213 598.1519,328.6348 595.212,329.0423 592.2713,329.4436 589.3298,329.8388 586.3875,330.228 583.4445,330.611 580.5007,330.988 577.5562,331.3588 574.611,331.7235 571.6651,332.0821 568.7184,332.4347 565.7711,332.7811 562.8232,333.1214 559.8745,333.4555 556.9252,333.7836 553.9753,334.1056 551.0248,334.4214 548.0736,334.7312 545.1218,335.0348 542.1695,335.3323 539.2166,335.6236 536.2631,335.9089 533.309,336.188 530.3544,336.4611 527.3993,336.728 524.4437,336.9887 521.4876,337.2434 518.5309,337.4919 515.5738,337.7343 512.6163,337.9706 509.6582,338.2007 506.6998,338.4247 503.7409,338.6426 500.7815,338.8544 497.8218,339.06 494.8617,339.2595 491.9011,339.4529 488.9403,339.6401 485.979,339.8212 483.0174,339.9962 480.0555,340.165 477.0932,340.3277 474.1306,340.4843 471.1678,340.6347 468.2046,340.779 465.2412,340.9171 462.2775,341.0492 459.3135,341.175 456.3493,341.2948 453.3849,341.4084 450.4203,341.5159 447.4554,341.6172 444.4904,341.7124 441.5252,341.8014 438.5598,341.8843 435.5943,341.9611 432.6286,342.0317 429.6628,342.0962 426.6968,342.1546 423.7308,342.2068 420.7647,342.2528 417.7984,342.2928 414.8321,342.3265 411.8658,342.3542 408.8994,342.3757 405.9329,342.391 402.9665,342.4002 400.0,342.4033 397.0335,342.4002 394.0671,342.391 391.1006,342.3757 388.1342,342.3542 385.1679,342.3265 382.2016,342.2928 379.2353,342.2528 376.2692,342.2068 373.3032,342.1546 370.3372,342.0962 367.3714,342.0317 364.4057,341.9611 361.4402,341.8843 358.4748,341.8014 355.5096,341.7124 352.5446,341.6172 349.5797,341.5159 346.6151,341.4084 343.6507,341.2948 340.6865,341.175 337.7225,341.0492 334.7588,340.9171 331.7954,340.779 328.8322,340.6347 325.8694,340.4843 322.9068,340.3277 319.9445,340.165 316.9826,339.9962 314.021,339.8212 311.0597,339.6401 308.0989,339.4529 305.1383,339.2595 302.1782,339.06 299.2185,338.8544 296.2591,338.6426 293.3002,338.4247 290.3418,338.2007 287.3837,337.9706 284.4262,337.7343 281.4691,337.4919 278.5124,337.2434 275.5563,336.9887 272.6007,336.728 269.6456,336.4611 266.691,336.188 263.7369,335.9089 260.7834,335.6236 257.8305,335.3323 254.8782,335.0348 251.9264,334.7312 248.9752,334.4214 246.0247,334.1056 243.0748,333.7836 240.1255,333.4555 237.1768,333.1214 234.2289,332.7811 231.2816,332.4347 228.3349,332.0821 225.389,331.7235 222.4438,331.3588 219.4993,330.988 216.5555,330.611 213.6125,330.228 210.6702,329.8388 207.7287,329.4436 204.788,329.0423 201.8481,328.6348 198.909,328.2213 195.9707,327.8017 193.0332,327.3759 190.0965,326.9441 187.1607,326.5062 184.2258,326.0622 181.2918,325.6122 178.3586,325.156 175.4264,324.6937 172.495,324.2254 169.5646,323.751 166.6351,323.2705 163.7065,322.7839 160.779,322.2913 157.8523,321.7926 154.9267,321.2878 152.0021,320.7769 149.0785,320.26 146.1558,319.737 143.2343,319.2079 140.3137,318.6728 137.3943,318.1316 134.4758,317.5843 131.5585,317.031 128.6423,316.4716 125.7271,315.9062 122.8131,315.3347 119.9002,314.7572 116.9884,314.1736" stroke="silver" stroke-opacity="0.5" stroke-width="1" /><polyline fill="none" points="667.8024,238.8076 665.0475,239.3614 662.2914,239.9095 659.5343,240.4519 656.7761,240.9884 654.0169,241.5193 651.2566,242.0444 648.4953,242.5638 645.7329,243.0774 642.9696,243.5852 640.2052,244.0873 637.4399,244.5836 634.6736,245.0742 631.9064,245.5591 629.1382,246.0381 626.369,246.5114 623.5989,246.979 620.828,247.4407 618.0561,247.8967 615.2833,248.347 612.5096,248.7914 609.7351,249.2301 606.9597,249.6631 604.1834,250.0902 601.4063,250.5116 598.6284,250.9272 595.8497,251.337 593.0702,251.741 590.2899,252.1393 587.5088,252.5317 584.7269,252.9184 581.9443,253.2993 579.1609,253.6744 576.3768,254.0437 573.592,254.4073 570.8065,254.765 568.0203,255.1169 565.2333,255.4631 562.4457,255.8035 559.6575,256.138 556.8686,256.4668 554.079,256.7897 551.2888,257.1069 548.498,257.4183 545.7066,257.7238 542.9146,258.0236 540.122,258.3176 537.3289,258.6057 534.5351,258.8881 531.7409,259.1646 528.946,259.4354 526.1507,259.7003 523.3548,259.9594 520.5585,260.2127 517.7616,260.4602 514.9643,260.7019 512.1665,260.9378 509.3682,261.1678 506.5695,261.3921 503.7703,261.6105 500.9707,261.8231 498.1707,262.0299 495.3704,262.2309 492.5696,262.426 489.7684,262.6154 486.9669,262.7989 484.165,262.9766 481.3628,263.1485 478.5602,263.3146 475.7573,263.4748 472.9541,263.6292 470.1507,263.7778 467.3469,263.9206 464.5428,264.0575 461.7385,264.1887 458.9339,264.314 456.1291,264.4334 453.3241,264.5471 450.5188,264.6549 447.7134,264.7569 444.9077,264.8531 442.1019,264.9434 439.2959,265.0279 436.4897,265.1066 433.6834,265.1795 430.8769,265.2465 428.0703,265.3077 425.2636,265.3631 422.4568,265.4127 419.6499,265.4564 416.8429,265.4943 414.0359,265.5263 411.2288,265.5526 408.4216,265.573 405.6144,265.5875 402.8072,265.5963 400.0,265.5992 397.1928,265.5963 394.3856,265.5875 391.5784,265.573 388.7712,265.5526 385.9641,265.5263 383.1571,265.4943 380.3501,265.4564 377.5432,265.4127 374.7364,265.3631 371.9297,265.3077 369.1231,265.2465 366.3166,265.1795 363.5103,265.1066 360.7041,265.0279 357.8981,264.9434 355.0923,264.8531 352.2866,264.7569 349.4812,264.6549 346.6759,264.5471 343.8709,264.4334 341.0661,264.314 338.2615,264.1887 335.4572,264.0575 332.6531,263.9206 329.8493,263.7778 327.0459,263.6292 324.2427,263.4748 321.4398,263.3146 318.6372,263.1485 315.835,262.9766 313.0331,262.7989 310.2316,262.6154 307.4304,262.426 304.6296,262.2309 301.8293,262.0299 299.0293,261.8231 296.2297,261.6105 293.4305,261.3921 290.6318,261.1678 287.8335,260.9378 285.0357,260.7019 282.2384,260.4602 279.4415,260.2127 276.6452,259.9594 273.8493,259.7003 271.054,259.4354 268.2591,259.1646 265.4649,258.8881 262.6711,258.6057 259.878,258.3176 257.0854,258.0236 254.2934,257.7238 251.502,257.4183 248.7112,257.1069 245.921,256.7897 243.1314,256.4668 240.3425,256.138 237.5543,255.8035 234.7667,255.4631 231.9797,255.1169 229.1935,254.765 226.408,254.4073 223.6232,254.0437 220.8391,253.6744 218.0557,253.2993 215.2731,252.9184 212.4912,252.5317 209.7101,252.1393 206.9298,251.741 204.1503,251.337 201.3716,250.9272 198.5937,250.5116 195.8166,250.0902 193.0403,249.6631 190.2649,249.2301 187.4904,248.7914 184.7167,248.347 181.9439,247.8967 179.172,247.4407 176.4011,246.979 173.631,246.5114 170.8618,246.0381 168.0936,245.5591 165.3264,245.0742 162.5601,244.5836 159.7948,244.0873 157.0304,243.5852 154.2671,243.0774 151.5047,242.5638 148.7434,242.0444 145.9831,241.5193 143.2239,240.9884 140.4657,240.4519 137.7086,239.9095 134.9525,239.3614 132.1976,238.8076" stroke="silver" stroke-opacity="0.5" stroke-width="1" /><polyline fill="none" points="652.5461,163.4348 649.9484,163.9586 647.3496,164.4769 644.7499,164.9899 642.1491,165.4974 639.5473,165.9994 636.9445,166.496 634.3408,166.9872 631.736,167.473 629.1303,167.9533 626.5237,168.4282 623.9161,168.8976 621.3076,169.3616 618.6982,169.8201 616.0879,170.2732 613.4767,170.7209 610.8646,171.1631 608.2516,171.5998 605.6378,172.0311 603.0231,172.4569 600.4076,172.8773 597.7913,173.2922 595.1741,173.7017 592.5561,174.1057 589.9374,174.5042 587.3178,174.8973 584.6975,175.2849 582.0764,175.667 579.4546,176.0437 576.832,176.4149 574.2087,176.7806 571.5846,177.1409 568.9599,177.4956 566.3344,177.8449 563.7083,178.1888 561.0815,178.5271 558.454,178.86 555.8259,179.1874 553.1971,179.5093 550.5677,179.8258 547.9377,180.1367 545.3071,180.4422 542.6758,180.7422 540.044,181.0367 537.4116,181.3257 534.7786,181.6092 532.1451,181.8873 529.511,182.1598 526.8764,182.4269 524.2413,182.6884 521.6056,182.9445 518.9695,183.1951 516.3329,183.4402 513.6957,183.6798 511.0582,183.9139 508.4201,184.1425 505.7816,184.3656 503.1427,184.5832 500.5033,184.7953 497.8635,185.0019 495.2234,185.203 492.5828,185.3986 489.9418,185.5887 487.3005,185.7733 484.6588,185.9523 482.0168,186.1259 479.3744,186.294 476.7317,186.4566 474.0887,186.6137 471.4454,186.7652 468.8018,186.9113 466.1579,187.0518 463.5137,187.1869 460.8693,187.3164 458.2246,187.4404 455.5797,187.559 452.9345,187.672 450.2891,187.7795 447.6435,187.8814 444.9978,187.9779 442.3518,188.0689 439.7057,188.1543 437.0593,188.2343 434.4129,188.3087 431.7663,188.3776 429.1196,188.441 426.4727,188.4989 423.8258,188.5513 421.1787,188.5982 418.5315,188.6395 415.8843,188.6754 413.237,188.7057 410.5897,188.7305 407.9423,188.7498 405.2949,188.7636 402.6475,188.7719 400.0,188.7746 397.3525,188.7719 394.7051,188.7636 392.0577,188.7498 389.4103,188.7305 386.763,188.7057 384.1157,188.6754 381.4685,188.6395 378.8213,188.5982 376.1742,188.5513 373.5273,188.4989 370.8804,188.441 368.2337,188.3776 365.5871,188.3087 362.9407,188.2343 360.2943,188.1543 357.6482,188.0689 355.0022,187.9779 352.3565,187.8814 349.7109,187.7795 347.0655,187.672 344.4203,187.559 341.7754,187.4404 339.1307,187.3164 336.4863,187.1869 333.8421,187.0518 331.1982,186.9113 328.5546,186.7652 325.9113,186.6137 323.2683,186.4566 320.6256,186.294 317.9832,186.1259 315.3412,185.9523 312.6995,185.7733 310.0582,185.5887 307.4172,185.3986 304.7766,185.203 302.1365,185.0019 299.4967,184.7953 296.8573,184.5832 294.2184,184.3656 291.5799,184.1425 288.9418,183.9139 286.3043,183.6798 283.6671,183.4402 281.0305,183.1951 278.3944,182.9445 275.7587,182.6884 273.1236,182.4269 270.489,182.1598 267.8549,181.8873 265.2214,181.6092 262.5884,181.3257 259.956,181.0367 257.3242,180.7422 254.6929,180.4422 252.0623,180.1367 249.4323,179.8258 246.8029,179.5093 244.1741,179.1874 241.546,178.86 238.9185,178.5271 236.2917,178.1888 233.6656,177.8449 231.0401,177.4956 228.4154,177.1409 225.7913,176.7806 223.168,176.4149 220.5454,176.0437 217.9236,175.667 215.3025,175.2849 212.6822,174.8973 210.0626,174.5042 207.4439,174.1057 204.8259,173.7017 202.2087,173.2922 199.5924,172.8773 196.9769,172.4569 194.3622,172.0311 191.7484,171.5998 189.1354,171.1631 186.5233,170.7209 183.9121,170.2732 181.3018,169.8201 178.6924,169.3616 176.0839,168.8976 173.4763,168.4282 170.8697,167.9533 168.264,167.473 165.6592,166.9872 163.0555,166.496 160.4527,165.9994 157.8509,165.4974 155.2501,164.9899 152.6504,164.4769 150.0516,163.9586 147.4539,163.4348" stroke="silver" stroke-opacity="0.5" stroke-width="1" /><polyline fill="none" points="637.2402,88.0438 634.8003,88.5372 632.3593,89.0256 629.9173,89.5088 627.4744,89.9869 625.0306,90.4599 622.5858,90.9278 620.1401,91.3905 617.6934,91.8482 615.2459,92.3007 612.7974,92.7481 610.3481,93.1903 607.8979,93.6275 605.4468,94.0595 602.9949,94.4864 600.5421,94.9081 598.0884,95.3247 595.634,95.7362 593.1787,96.1425 590.7227,96.5437 588.2658,96.9397 585.8081,97.3307 583.3497,97.7164 580.8905,98.097 578.4306,98.4725 575.9699,98.8428 573.5084,99.208 571.0463,99.5681 568.5834,99.9229 566.1199,100.2727 563.6556,100.6172 561.1906,100.9567 558.725,101.2909 556.2588,101.62 553.7918,101.944 551.3243,102.2628 548.8561,102.5764 546.3872,102.8849 543.9178,103.1882 541.4478,103.4863 538.9771,103.7793 536.5059,104.0671 534.0342,104.3497 531.5618,104.6272 529.089,104.8995 526.6155,105.1666 524.1416,105.4286 521.6671,105.6854 519.1922,105.937 516.7167,106.1834 514.2408,106.4247 511.7643,106.6608 509.2874,106.8917 506.8101,107.1175 504.3323,107.338 501.8541,107.5534 499.3754,107.7636 496.8963,107.9686 494.4169,108.1685 491.937,108.3631 489.4568,108.5526 486.9761,108.7369 484.4952,108.916 482.0138,109.0899 479.5321,109.2587 477.0501,109.4222 474.5678,109.5806 472.0852,109.7338 469.6022,109.8818 467.119,110.0246 464.6355,110.1622 462.1517,110.2946 459.6677,110.4219 457.1834,110.5439 454.6989,110.6608 452.2141,110.7724 449.7291,110.8789 447.244,110.9802 444.7586,111.0763 442.273,111.1672 439.7873,111.2529 437.3014,111.3334 434.8153,111.4087 432.3291,111.4789 429.8428,111.5438 427.3563,111.6035 424.8697,111.6581 422.3831,111.7074 419.8963,111.7516 417.4094,111.7905 414.9225,111.8243 412.4355,111.8529 409.9485,111.8763 407.4614,111.8944 404.9743,111.9074 402.4871,111.9152 400.0,111.9178 397.5129,111.9152 395.0257,111.9074 392.5386,111.8944 390.0515,111.8763 387.5645,111.8529 385.0775,111.8243 382.5906,111.7905 380.1037,111.7516 377.6169,111.7074 375.1303,111.6581 372.6437,111.6035 370.1572,111.5438 367.6709,111.4789 365.1847,111.4087 362.6986,111.3334 360.2127,111.2529 357.727,111.1672 355.2414,111.0763 352.756,110.9802 350.2709,110.8789 347.7859,110.7724 345.3011,110.6608 342.8166,110.5439 340.3323,110.4219 337.8483,110.2946 335.3645,110.1622 332.881,110.0246 330.3978,109.8818 327.9148,109.7338 325.4322,109.5806 322.9499,109.4222 320.4679,109.2587 317.9862,109.0899 315.5048,108.916 313.0239,108.7369 310.5432,108.5526 308.063,108.3631 305.5831,108.1685 303.1037,107.9686 300.6246,107.7636 298.1459,107.5534 295.6677,107.338 293.1899,107.1175 290.7126,106.8917 288.2357,106.6608 285.7592,106.4247 283.2833,106.1834 280.8078,105.937 278.3329,105.6854 275.8584,105.4286 273.3845,105.1666 270.911,104.8995 268.4382,104.6272 265.9658,104.3497 263.4941,104.0671 261.0229,103.7793 258.5522,103.4863 256.0822,103.1882 253.6128,102.8849 251.1439,102.5764 248.6757,102.2628 246.2082,101.944 243.7412,101.62 241.275,101.2909 238.8094,100.9567 236.3444,100.6172 233.8801,100.2727 231.4166,99.9229 228.9537,99.5681 226.4916,99.208 224.0301,98.8428 221.5694,98.4725 219.1095,98.097 216.6503,97.7164 214.1919,97.3307 211.7342,96.9397 209.2773,96.5437 206.8213,96.1425 204.366,95.7362 201.9116,95.3247 199.4579,94.9081 197.0051,94.4864 194.5532,94.0595 192.1021,93.6275 189.6519,93.1903 187.2026,92.7481 184.7541,92.3007 182.3066,91.8482 179.8599,91.3905 177.4142,90.9278 174.9694,90.4599 172.5256,89.9869 170.0827,89.5088 167.6407,89.0256 165.1997,88.5372 162.7598,88.0438" stroke="silver" stroke-opacity="0.5" stroke-width="1" /><line fill="none" stroke="green" stroke-opacity="0.5" stroke-width="1.5" x1="744.5217" x2="476.6368" y1="642.1248" y2="473.5635" /><circle cx="717.1562" cy="487.0584" fill="black" r="0.738" stroke="none" /><circle cx="652.23" cy="171.9726" fill="black" r="0.738" stroke="none" /><circle cx="744.5097" cy="642.1012" fill="black" r="1.854" stroke="none" /><circle cx="643.8392" cy="153.8031" fill="black" r="0.738" stroke="none" /><circle cx="728.2114" cy="625.9625" fill="black" r="0.738" stroke="none" /><circle cx="727.8987" cy="626.1782" fill="black" r="0.738" stroke="none" /><circle cx="672.6602" cy="353.0828" fill="black" r="0.738" stroke="none" /><circle cx="639.311" cy="179.4319" fill="black" r="0.738" stroke="none" /><circle cx="643.18" cy="215.7128" fill="black" r="1.476" stroke="none" /><circle cx="703.6396" cy="597.0727" fill="black" r="0.738" stroke="none" /><circle cx="613.4467" cy="98.338" fill="black" r="0.738" stroke="none" /><circle cx="660.4778" cy="369.5391" fill="black" r="0.738" stroke="none" /><circle cx="663.1104" cy="403.4179" fill="black" r="0.738" stroke="none" /><circle cx="622.3174" cy="204.2308" fill="black" r="0.738" stroke="none" /><circle cx="660.5199" cy="481.1258" fill="black" r="0.738" stroke="none" /><circle cx="630.5031" cy="315.7968" fill="black" r="0.738" stroke="none" /><circle cx="641.0839" cy="429.9201" fill="black" r="0.738" stroke="none" /><circle cx="591.8674" cy="146.3585" fill="black" r="0.738" stroke="none" /><circle cx="643.6744" cy="481.1658" fill="black" r="0.738" stroke="none" /><circle cx="619.9286" cy="332.8885" fill="black" r="0.738" stroke="none" /><circle cx="649.71" cy="552.9483" fill="black" r="0.738" stroke="none" /><circle cx="659.0172" cy="625.4193" fill="black" r="0.738" stroke="none" /><circle cx="606.6558" cy="282.1303" fill="black" r="0.738" stroke="none" /><circle cx="574.8348" cy="169.1648" fill="black" r="0.738" stroke="none" /><circle cx="580.9248" cy="225.0482" fill="black" r="0.738" stroke="none" /><circle cx="575.2514" cy="184.6296" fill="black" r="0.738" stroke="none" /><circle cx="585.436" cy="293.3044" fill="black" r="0.738" stroke="none" /><circle cx="627.7679" cy="663.7659" fill="black" r="0.738" stroke="none" /><circle cx="621.6589" cy="621.131" fill="black" r="0.738" stroke="none" /><circle cx="575.304" cy="310.502" fill="black" r="0.738" stroke="none" /><circle cx="585.1146" cy="411.6315" fill="black" r="0.738" stroke="none" /><circle cx="603.5172" cy="580.0046" fill="black" r="0.738" stroke="none" /><circle cx="580.9326" cy="409.199" fill="black" r="0.936" stroke="none" /><circle cx="593.7339" cy="520.8008" fill="black" r="0.738" stroke="none" /><circle cx="573.8957" cy="356.4211" fill="black" r="0.738" stroke="none" /><circle cx="545.0614" cy="120.943" fill="black" r="0.738" stroke="none" /><circle cx="584.1034" cy="511.5586" fill="black" r="1.476" stroke="none" /><circle cx="566.4203" cy="467.2066" fill="black" r="0.738" stroke="none" /><circle cx="554.7277" cy="364.5429" fill="black" r="0.936" stroke="none" /><circle cx="582.7786" cy="655.2783" fill="black" r="0.738" stroke="none" /><circle cx="528.2376" cy="153.0822" fill="black" r="0.738" stroke="none" /><circle cx="562.8738" cy="493.2215" fill="black" r="0.738" stroke="none" /><circle cx="562.7794" cy="502.7302" fill="black" r="0.936" stroke="none" /><circle cx="543.9555" cy="432.3234" fill="black" r="0.738" stroke="none" /><circle cx="522.7957" cy="219.4992" fill="black" r="0.738" stroke="none" /><circle cx="545.468" cy="593.2541" fill="black" r="0.738" stroke="none" /><circle cx="522.0353" cy="347.0643" fill="black" r="0.738" stroke="none" /><circle cx="511.3964" cy="418.9455" fill="black" r="0.738" stroke="none" /><circle cx="497.3798" cy="311.1423" fill="black" r="0.738" stroke="none" /><circle cx="513.0051" cy="542.2758" fill="black" r="0.738" stroke="none" /><circle cx="512.0154" cy="531.4089" fill="black" r="0.738" stroke="none" /><circle cx="506.2682" cy="543.4947" fill="black" r="0.936" stroke="none" /><circle cx="479.1985" cy="181.4542" fill="black" r="0.738" stroke="none" /><circle cx="501.6078" cy="666.8851" fill="black" r="0.738" stroke="none" /><circle cx="491.9603" cy="499.5763" fill="black" r="0.738" stroke="none" /><circle cx="493.543" cy="613.4484" fill="black" r="0.936" stroke="none" /><circle cx="475.7247" cy="304.6346" fill="black" r="0.738" stroke="none" /><circle cx="467.9676" cy="239.1981" fill="black" r="0.738" stroke="none" /><circle cx="476.6446" cy="473.5462" fill="black" r="1.476" stroke="none" /><circle cx="460.3092" cy="160.492" fill="black" r="0.738" stroke="none" /><circle cx="463.1065" cy="383.7539" fill="black" r="0.738" stroke="none" /><circle cx="465.417" cy="602.2129" fill="black" r="0.738" stroke="none" /><circle cx="462.7353" cy="581.4001" fill="black" r="0.738" stroke="none" /><circle cx="462.8622" cy="630.0682" fill="black" r="0.738" stroke="none" /><circle cx="419.0698" cy="218.1388" fill="black" r="0.738" stroke="none" /><circle cx="418.4797" cy="270.2357" fill="black" r="0.738" stroke="none" /><circle cx="411.0177" cy="169.9765" fill="black" r="0.738" stroke="none" /><circle cx="412.118" cy="562.0106" fill="black" r="0.738" stroke="none" /><circle cx="409.7539" cy="617.9598" fill="black" r="0.738" stroke="none" /><circle cx="408.4121" cy="467.7883" fill="black" r="0.936" stroke="none" /><circle cx="405.7787" cy="467.4162" fill="black" r="0.738" stroke="none" /><circle cx="402.1072" cy="541.3895" fill="black" r="0.738" stroke="none" /><circle cx="399.5199" cy="616.0662" fill="black" r="0.738" stroke="none" /><circle cx="397.9958" cy="350.0817" fill="black" r="0.738" stroke="none" /><circle cx="389.9281" cy="461.0968" fill="black" r="0.738" stroke="none" /><circle cx="379.5911" cy="659.2155" fill="black" r="1.476" stroke="none" /><circle cx="378.8913" cy="162.0072" fill="black" r="0.738" stroke="none" /><circle cx="376.3413" cy="195.5479" fill="black" r="0.738" stroke="none" /><circle cx="371.6734" cy="387.5955" fill="black" r="0.738" stroke="none" /><circle cx="373.2274" cy="265.5645" fill="black" r="0.738" stroke="none" /><circle cx="366.9044" cy="561.649" fill="black" r="0.738" stroke="none" /><circle cx="367.0713" cy="539.678" fill="black" r="0.738" stroke="none" /><circle cx="372.2186" cy="282.062" fill="black" r="0.738" stroke="none" /><circle cx="364.8612" cy="647.2225" fill="black" r="0.936" stroke="none" /><circle cx="371.0627" cy="230.1752" fill="black" r="0.738" stroke="none" /><circle cx="354.3265" cy="626.6842" fill="black" r="0.738" stroke="none" /><circle cx="358.9304" cy="444.762" fill="black" r="0.738" stroke="none" /><circle cx="350.3912" cy="377.968" fill="black" r="0.738" stroke="none" /><circle cx="352.2646" cy="155.1167" fill="black" r="0.738" stroke="none" /><circle cx="334.524" cy="602.2875" fill="black" r="0.738" stroke="none" /><circle cx="327.1901" cy="625.2186" fill="black" r="0.738" stroke="none" /><circle cx="322.1605" cy="627.0002" fill="black" r="0.936" stroke="none" /><circle cx="325.2691" cy="505.4721" fill="black" r="0.738" stroke="none" /><circle cx="317.3135" cy="408.6319" fill="black" r="0.738" stroke="none" /><circle cx="324.6565" cy="271.4224" fill="black" r="0.738" stroke="none" /><circle cx="329.1733" cy="143.7691" fill="black" r="0.738" stroke="none" /><circle cx="308.1646" cy="428.5678" fill="black" r="0.738" stroke="none" /><circle cx="292.3055" cy="664.2933" fill="black" r="0.738" stroke="none" /><circle cx="314.2955" cy="293.205" fill="black" r="0.738" stroke="none" /><circle cx="298.4756" cy="488.3759" fill="black" r="0.738" stroke="none" /><circle cx="288.2545" cy="551.3714" fill="black" r="0.738" stroke="none" /><circle cx="303.5337" cy="271.3179" fill="black" r="0.738" stroke="none" /><circle cx="293.4313" cy="356.688" fill="black" r="0.738" stroke="none" /><circle cx="289.8459" cy="404.0961" fill="black" r="0.738" stroke="none" /><circle cx="285.2652" cy="431.2515" fill="black" r="0.738" stroke="none" /><circle cx="261.0422" cy="576.2956" fill="black" r="1.17" stroke="none" /><circle cx="282.7538" cy="199.9487" fill="black" r="0.738" stroke="none" /><circle cx="255.6585" cy="478.1911" fill="black" r="0.738" stroke="none" /><circle cx="250.8011" cy="526.5809" fill="black" r="0.738" stroke="none" /><circle cx="276.5143" cy="242.2009" fill="black" r="0.738" stroke="none" /><circle cx="275.5974" cy="248.2116" fill="black" r="0.738" stroke="none" /><circle cx="226.9309" cy="612.9926" fill="black" r="0.738" stroke="none" /><circle cx="223.0981" cy="538.1807" fill="black" r="0.738" stroke="none" /><circle cx="248.484" cy="270.0707" fill="black" r="0.738" stroke="none" /><circle cx="210.2155" cy="580.0591" fill="black" r="0.738" stroke="none" /><circle cx="198.2536" cy="647.5614" fill="black" r="0.738" stroke="none" /><circle cx="227.4446" cy="290.7907" fill="black" r="0.936" stroke="none" /><circle cx="207.0186" cy="436.9768" fill="black" r="0.738" stroke="none" /><circle cx="243.2475" cy="105.0456" fill="black" r="1.17" stroke="none" /><circle cx="194.4372" cy="446.039" fill="black" r="0.738" stroke="none" /><circle cx="204.2166" cy="363.0059" fill="black" r="0.738" stroke="none" /><circle cx="193.1322" cy="441.2904" fill="black" r="0.936" stroke="none" /><circle cx="177.7475" cy="505.8911" fill="black" r="0.738" stroke="none" /><circle cx="194.791" cy="312.4116" fill="black" r="0.738" stroke="none" /><circle cx="164.1715" cy="503.3333" fill="black" r="0.936" stroke="none" /><circle cx="142.3062" cy="587.2773" fill="black" r="0.738" stroke="none" /><circle cx="128.385" cy="667.1608" fill="black" r="0.738" stroke="none" /><circle cx="159.9177" cy="386.8849" fill="black" r="0.738" stroke="none" /><circle cx="189.5758" cy="186.1254" fill="black" r="0.738" stroke="none" /><circle cx="111.3121" cy="642.0168" fill="black" r="0.738" stroke="none" /><circle cx="155.6496" cy="332.7999" fill="black" r="0.738" stroke="none" /><circle cx="168.5047" cy="247.6591" fill="black" r="0.738" stroke="none" /><circle cx="105.4833" cy="487.9726" fill="black" r="0.936" stroke="none" /><circle cx="87.7536" cy="553.4252" fill="black" r="0.738" stroke="none" /><circle cx="126.4481" cy="333.8199" fill="black" r="0.738" stroke="none" /><circle cx="79.8701" cy="577.0631" fill="black" r="0.738" stroke="none" /><circle cx="67.5246" cy="621.3113" fill="black" r="0.738" stroke="none" /><circle cx="94.6392" cy="471.5132" fill="black" r="0.738" stroke="none" /><circle cx="102.7949" cy="394.9135" fill="black" r="0.738" stroke="none" /><circle cx="13.77" cy="786.23" fill="black" r="4.59" stroke="none" /><circle cx="13.77" cy="786.23" fill="black" r="4.59" stroke="none" /><text fill="black" font-family="monospace" font-size="12" x="10.77" y="775.64">1</text><circle cx="37.77" cy="786.23" fill="black" r="3.654" stroke="none" /><circle cx="37.77" cy="786.23" fill="black" r="3.654" stroke="none" /><text fill="black" font-family="monospace" font-size="12" x="34.769999999999996" y="775.64">2</text><circle cx="61.77" cy="786.23" fill="black" r="2.916" stroke="none" /><circle cx="61.77" cy="786.23" fill="black" r="2.916" stroke="none" /><text fill="black" font-family="monospace" font-size="12" x="58.769999999999996" y="775.64">3</text><circle cx="85.77" cy="786.23" fill="black" r="2.322" stroke="none" /><circle cx="85.77" cy="786.23" fill="black" r="2.322" stroke="none" /><text fill="black" font-family="monospace" font-size="12" x="82.77" y="775.64">4</text><circle cx="109.77" cy="786.23" fill="black" r="1.854" stroke="none" /><circle cx="109.77" cy="786.23" fill="black" r="1.854" stroke="none" /><text fill="black" font-family="monospace" font-size="12" x="106.77" y="775.64">5</text><circle cx="133.77" cy="786.23" fill="black" r="1.476" stroke="none" /><circle cx="133.77" cy="786.23" fill="black" r="1.476" stroke="none" /><text fill="black" font-family="monospace" font-size="12" x="130.77" y="775.64">6</text><circle cx="157.77" cy="786.23" fill="black" r="1.17" stroke="none" /><circle cx="157.77" cy="786.23" fill="black" r="1.17" stroke="none" /><text fill="black" font-family="monospace" font-size="12" x="154.77" y="775.64">7</text><circle cx="181.77" cy="786.23" fill="black" r="0.936" stroke="none" /><circle cx="181.77" cy="786.23" fill="black" r="0.936" stroke="none" /><text fill="black" font-family="monospace" font-size="12" x="178.77" y="775.64">8</text><circle cx="205.77" cy="786.23" fill="black" r="0.738" stroke="none" /><circle cx="205.77" cy="786.23" fill="black" r="0.738" stroke="none" /><text fill="black" font-family="monospace" font-size="12" x="202.77" y="775.64">9</text><text fill="gray" fill-opacity="0.5" font-family="monospace" font-size="12" x="692.9774353476338" y="664.0799886803213">19h20m</text><text fill="gray" fill-opacity="0.5" font-family="monospace" font-size="12" x="546.9451607587943" y="682.0744031904449">19h40m</text><text fill="gray" fill-opacity="0.5" font-family="monospace" font-size="12" x="400.0" y="688.0821716341584">20h00m</text><text fill="gray" fill-opacity="0.5" font-family="monospace" font-size="12" x="253.0548392412057" y="682.0744031904449">20h20m</text><text fill="gray" fill-opacity="0.5" font-family="monospace" font-size="12" x="107.02256465236621" y="664.0799886803213">20h40m</text><text fill="gray" fill-opacity="0.5" font-family="monospace" font-size="12" x="56.57760763976461" y="615.7985921547579">+68°</text><text fill="gray" fill-opacity="0.5" font-family="monospace" font-size="12" x="71.62100893099199" y="540.345297868955">+69°</text><text fill="gray" fill-opacity="0.5" font-family="monospace" font-size="12" x="86.70244505914718" y="464.93101419568245">+70°</text><text fill="gray" fill-opacity="0.5" font-family="monospace" font-size="12" x="101.82416500844641" y="389.5442721975918">+71°</text><text fill="gray" fill-opacity="0.5" font-family="monospace" font-size="12" x="116.98844229965772" y="314.1736196612959">+72°</text><text fill="gray" fill-opacity="0.5" font-family="monospace" font-size="12" x="132.19757634830205" y="238.80761414693066">+73°</text><text fill="gray" fill-opacity="0.5" font-family="monospace" font-size="12" x="147.45389385632578" y="163.4348160503174">+74°</text><text fill="gray" fill-opacity="0.5" font-family="monospace" font-size="12" x="162.75975023902953" y="88.043781668809">+75°</text><text fill="black" font-family="monospace" font-size="12" x="12" y="48">&gt;&gt; No.760 19h12m 20h48m +67.5°+75.0°</text><a target="_self" xlink:href="hip042.svg"><text fill="black" font-family="monospace" font-size="12" x="12" y="36">&gt; No.42 16h00m 24h00m +52.5°+90.0°</text></a><a target="_self" xlink:href="hip002.svg"><text fill="black" font-family="monospace" font-size="12" x="12" y="24">No.2 00h 24h +0.0°+90.0°</text></a><polyline fill="none" points="637.2402,88.0438 634.8003,88.5372 632.3593,89.0256 629.9173,89.5088 627.4744,89.9869 625.0306,90.4599 622.5858,90.9278 620.1401,91.3905 617.6934,91.8482 615.2459,92.3007 612.7974,92.7481 610.3481,93.1903 607.8979,93.6275 605.4468,94.0595 602.9949,94.4864 600.5421,94.9081 598.0884,95.3247 595.634,95.7362 593.1787,96.1425 590.7227,96.5437 588.2658,96.9397 585.8081,97.3307 583.3497,97.7164 580.8905,98.097 578.4306,98.4725 575.9699,98.8428 573.5084,99.208 571.0463,99.5681 568.5834,99.9229 566.1199,100.2727 563.6556,100.6172 561.1906,100.9567 558.725,101.2909 556.2588,101.62 553.7918,101.944 551.3243,102.2628 548.8561,102.5764 546.3872,102.8849 543.9178,103.1882 541.4478,103.4863 538.9771,103.7793 536.5059,104.0671 534.0342,104.3497 531.5618,104.6272 529.089,104.8995 526.6155,105.1666 524.1416,105.4286 521.6671,105.6854 519.1922,105.937 516.7167,106.1834 514.2408,106.4247 511.7643,106.6608 509.2874,106.8917 506.8101,107.1175 504.3323,107.338 501.8541,107.5534 499.3754,107.7636 496.8963,107.9686 494.4169,108.1685 491.937,108.3631 489.4568,108.5526 486.9761,108.7369 484.4952,108.916 482.0138,109.0899 479.5321,109.2587 477.0501,109.4222 474.5678,109.5806 472.0852,109.7338 469.6022,109.8818 467.119,110.0246 464.6355,110.1622 462.1517,110.2946 459.6677,110.4219 457.1834,110.5439 454.6989,110.6608 452.2141,110.7724 449.7291,110.8789 447.244,110.9802 444.7586,111.0763 442.273,111.1672 439.7873,111.2529 437.3014,111.3334 434.8153,111.4087 432.3291,111.4789 429.8428,111.5438 427.3563,111.6035 424.8697,111.6581 422.3831,111.7074 419.8963,111.7516 417.4094,111.7905 414.9225,111.8243 412.4355,111.8529 409.9485,111.8763 407.4614,111.8944 404.9743,111.9074 402.4871,111.9152 400.0,111.9178 397.5129,111.9152 395.0257,111.9074 392.5386,111.8944 390.0515,111.8763 387.5645,111.8529 385.0775,111.8243 382.5906,111.7905 380.1037,111.7516 377.6169,111.7074 375.1303,111.6581 372.6437,111.6035 370.1572,111.5438 367.6709,111.4789 365.1847,111.4087 362.6986,111.3334 360.2127,111.2529 357.727,111.1672 355.2414,111.0763 352.756,110.9802 350.2709,110.8789 347.7859,110.7724 345.3011,110.6608 342.8166,110.5439 340.3323,110.4219 337.8483,110.2946 335.3645,110.1622 332.881,110.0246 330.3978,109.8818 327.9148,109.7338 325.4322,109.5806 322.9499,109.4222 320.4679,109.2587 317.9862,109.0899 315.5048,108.916 313.0239,108.7369 310.5432,108.5526 308.063,108.3631 305.5831,108.1685 303.1037,107.9686 300.6246,107.7636 298.1459,107.5534 295.6677,107.338 293.1899,107.1175 290.7126,106.8917 288.2357,106.6608 285.7592,106.4247 283.2833,106.1834 280.8078,105.937 278.3329,105.6854 275.8584,105.4286 273.3845,105.1666 270.911,104.8995 268.4382,104.6272 265.9658,104.3497 263.4941,104.0671 261.0229,103.7793 258.5522,103.4863 256.0822,103.1882 253.6128,102.8849 251.1439,102.5764 248.6757,102.2628 246.2082,101.944 243.7412,101.62 241.275,101.2909 238.8094,100.9567 236.3444,100.6172 233.8801,100.2727 231.4166,99.9229 228.9537,99.5681 226.4916,99.208 224.0301,98.8428 221.5694,98.4725 219.1095,98.097 216.6503,97.7164 214.1919,97.3307 211.7342,96.9397 209.2773,96.5437 206.8213,96.1425 204.366,95.7362 201.9116,95.3247 199.4579,94.9081 197.0051,94.4864 194.5532,94.0595 192.1021,93.6275 189.6519,93.1903 187.2026,92.7481 184.7541,92.3007 182.3066,91.8482 179.8599,91.3905 177.4142,90.9278 174.9694,90.4599 172.5256,89.9869 170.0827,89.5088 167.6407,89.0256 165.1997,88.5372 162.7598,88.0438" stroke="black" stroke-opacity="0.5" stroke-width="1" /><polyline fill="none" points="750.9305,653.5435 749.0543,644.106 747.1776,634.6694 745.3003,625.2336 743.4224,615.7986 741.544,606.3644 739.665,596.931 737.7854,587.4983 735.9053,578.0664 734.0246,568.6351 732.1433,559.2045 730.2615,549.7746 728.379,540.3453 726.4959,530.9166 724.6123,521.4885 722.728,512.061 720.8432,502.634 718.9577,493.2075 717.0716,483.7816 715.1849,474.3561 713.2976,464.931 711.4096,455.5064 709.521,446.0822 707.6318,436.6584 705.7419,427.2349 703.8513,417.8118 701.9602,408.389 700.0683,398.9665 698.1758,389.5443 696.2827,380.1223 694.3888,370.7005 692.4943,361.279 690.5992,351.8577 688.7033,342.4365 686.8067,333.0154 684.9095,323.5945 683.0116,314.1736 681.1129,304.7528 679.2136,295.3321 677.3135,285.9114 675.4127,276.4908 673.5113,267.07 671.609,257.6493 669.7061,248.2285 667.8024,238.8076 665.898,229.3866 663.9929,219.9655 662.087,210.5442 660.1803,201.1228 658.2729,191.7011 656.3647,182.2793 654.4558,172.8572 652.5461,163.4348 650.6356,154.0122 648.7244,144.5892 646.8123,135.1659 644.8995,125.7423 642.9859,116.3183 641.0715,106.8939 639.1563,97.469 637.2402,88.0438" stroke="black" stroke-opacity="0.5" stroke-width="1" /><polyline fill="none" points="750.9305,653.5435 747.3181,654.2576 743.7043,654.9644 740.0892,655.6638 736.4728,656.3557 732.8551,657.0403 729.236,657.7174 725.6157,658.3871 721.9941,659.0493 718.3713,659.7042 714.7472,660.3516 711.1219,660.9916 707.4953,661.6241 703.8676,662.2492 700.2387,662.8669 696.6087,663.4772 692.9774,664.08 689.3451,664.6754 685.7116,665.2633 682.077,665.8438 678.4413,666.4168 674.8045,666.9824 671.1666,667.5405 667.5277,668.0912 663.8878,668.6345 660.2468,669.1703 656.6048,669.6986 652.9618,670.2195 649.3179,670.7329 645.6729,671.2388 642.027,671.7373 638.3802,672.2283 634.7324,672.7119 631.0838,673.188 627.4342,673.6566 623.7837,674.1178 620.1324,674.5715 616.4802,675.0177 612.8272,675.4564 609.1734,675.8877 605.5187,676.3115 601.8632,676.7278 598.207,677.1366 594.55,677.538 590.8922,677.9318 587.2337,678.3182 583.5744,678.6971 579.9145,679.0686 576.2538,679.4325 572.5925,679.789 568.9305,680.1379 565.2678,680.4794 561.6045,680.8134 557.9406,681.1399 554.276,681.4589 550.6109,681.7704 546.9452,682.0744 543.2789,682.3709 539.612,682.6599 535.9446,682.9415 532.2767,683.2155 528.6082,683.482 524.9393,683.7411 521.2699,683.9926 517.6,684.2366 513.9296,684.4732 510.2588,684.7022 506.5876,684.9237 502.9159,685.1378 499.2439,685.3443 495.5715,685.5433 491.8987,685.7348 488.2255,685.9188 484.552,686.0953 480.8782,686.2643 477.2041,686.4258 473.5297,686.5798 469.8549,686.7262 466.1799,686.8652 462.5047,686.9967 458.8292,687.1206 455.1535,687.237 451.4776,687.346 447.8014,687.4474 444.1251,687.5413 440.4486,687.6277 436.772,687.7065 433.0952,687.7779 429.4183,687.8418 425.7412,687.8981 422.0641,687.9469 418.3869,687.9883 414.7096,688.0221 411.0322,688.0484 407.3548,688.0671 403.6774,688.0784 400.0,688.0822 396.3226,688.0784 392.6452,688.0671 388.9678,688.0484 385.2904,688.0221 381.6131,687.9883 377.9359,687.9469 374.2588,687.8981 370.5817,687.8418 366.9048,687.7779 363.228,687.7065 359.5514,687.6277 355.8749,687.5413 352.1986,687.4474 348.5224,687.346 344.8465,687.237 341.1708,687.1206 337.4953,686.9967 333.8201,686.8652 330.1451,686.7262 326.4703,686.5798 322.7959,686.4258 319.1218,686.2643 315.448,686.0953 311.7745,685.9188 308.1013,685.7348 304.4285,685.5433 300.7561,685.3443 297.0841,685.1378 293.4124,684.9237 289.7412,684.7022 286.0704,684.4732 282.4,684.2366 278.7301,683.9926 275.0607,683.7411 271.3918,683.482 267.7233,683.2155 264.0554,682.9415 260.388,682.6599 256.7211,682.3709 253.0548,682.0744 249.3891,681.7704 245.724,681.4589 242.0594,681.1399 238.3955,680.8134 234.7322,680.4794 231.0695,680.1379 227.4075,679.789 223.7462,679.4325 220.0855,679.0686 216.4256,678.6971 212.7663,678.3182 209.1078,677.9318 205.45,677.538 201.793,677.1366 198.1368,676.7278 194.4813,676.3115 190.8266,675.8877 187.1728,675.4564 183.5198,675.0177 179.8676,674.5715 176.2163,674.1178 172.5658,673.6566 168.9162,673.188 165.2676,672.7119 161.6198,672.2283 157.973,671.7373 154.3271,671.2388 150.6821,670.7329 147.0382,670.2195 143.3952,669.6986 139.7532,669.1703 136.1122,668.6345 132.4723,668.0912 128.8334,667.5405 125.1955,666.9824 121.5587,666.4168 117.923,665.8438 114.2884,665.2633 110.6549,664.6754 107.0226,664.08 103.3913,663.4772 99.7613,662.8669 96.1324,662.2492 92.5047,661.6241 88.8781,660.9916 85.2528,660.3516 81.6287,659.7042 78.0059,659.0493 74.3843,658.3871 70.764,657.7174 67.1449,657.0403 63.5272,656.3557 59.9108,655.6638 56.2957,654.9644 52.6819,654.2576 49.0695,653.5435" stroke="black" stroke-opacity="0.5" stroke-width="1" /><polyline fill="none" points="49.0695,653.5435 50.9457,644.106 52.8224,634.6694 54.6997,625.2336 56.5776,615.7986 58.456,606.3644 60.335,596.931 62.2146,587.4983 64.0947,578.0664 65.9754,568.6351 67.8567,559.2045 69.7385,549.7746 71.621,540.3453 73.5041,530.9166 75.3877,521.4885 77.272,512.061 79.1568,502.634 81.0423,493.2075 82.9284,483.7816 84.8151,474.3561 86.7024,464.931 88.5904,455.5064 90.479,446.0822 92.3682,436.6584 94.2581,427.2349 96.1487,417.8118 98.0398,408.389 99.9317,398.9665 101.8242,389.5443 103.7173,380.1223 105.6112,370.7005 107.5057,361.279 109.4008,351.8577 111.2967,342.4365 113.1933,333.0154 115.0905,323.5945 116.9884,314.1736 118.8871,304.7528 120.7864,295.3321 122.6865,285.9114 124.5873,276.4908 126.4887,267.07 128.391,257.6493 130.2939,248.2285 132.1976,238.8076 134.102,229.3866 136.0071,219.9655 137.913,210.5442 139.8197,201.1228 141.7271,191.7011 143.6353,182.2793 145.5442,172.8572 147.4539,163.4348 149.3644,154.0122 151.2756,144.5892 153.1877,135.1659 155.1005,125.7423 157.0141,116.3183 158.9285,106.8939 160.8437,97.469 162.7598,88.0438" stroke="black" stroke-opacity="0.5" stroke-width="1" /></svg>